<?xml version="1.0" encoding="utf-8"?>
<Project name="Ising animation" themeId="0" version="65540" templateID="SimpleProjectTemplate">
  <MediaItems>
    <MediaItem id="521" filePath="C:\Users\owner\Documents\Work\Ising model\ising_animation\Ising animation (non-zip)\animations\ising_anim0521.png" arWidth="320" arHeight="240" duration="0" songTitle="" songArtist="" songAlbum="" songCopyrightUrl="" songArtistUrl="" songAudioFileUrl="" stabilizationMode="0" mediaItemType="2" />
    <MediaItem id="522" filePath="C:\Users\owner\Documents\Work\Ising model\ising_animation\Ising animation (non-zip)\animations\ising_anim0522.png" arWidth="320" arHeight="240" duration="0" songTitle="" songArtist="" songAlbum="" songCopyrightUrl="" songArtistUrl="" songAudioFileUrl="" stabilizationMode="0" mediaItemType="2" />
    <MediaItem id="1" filePath="C:\Users\owner\Documents\Work\Ising model\ising_animation\Ising animation (non-zip)\animations\ising_anim0001.png" arWidth="320" arHeight="240" duration="0" songTitle="" songArtist="" songAlbum="" songCopyrightUrl="" songArtistUrl="" songAudioFileUrl="" stabilizationMode="0" mediaItemType="2" />
    <MediaItem id="523" filePath="C:\Users\owner\Documents\Work\Ising model\ising_animation\Ising animation (non-zip)\animations\ising_anim0523.png" arWidth="320" arHeight="240" duration="0" songTitle="" songArtist="" songAlbum="" songCopyrightUrl="" songArtistUrl="" songAudioFileUrl="" stabilizationMode="0" mediaItemType="2" />
    <MediaItem id="2" filePath="C:\Users\owner\Documents\Work\Ising model\ising_animation\Ising animation (non-zip)\animations\ising_anim0002.png" arWidth="320" arHeight="240" duration="0" songTitle="" songArtist="" songAlbum="" songCopyrightUrl="" songArtistUrl="" songAudioFileUrl="" stabilizationMode="0" mediaItemType="2" />
    <MediaItem id="524" filePath="C:\Users\owner\Documents\Work\Ising model\ising_animation\Ising animation (non-zip)\animations\ising_anim0524.png" arWidth="320" arHeight="240" duration="0" songTitle="" songArtist="" songAlbum="" songCopyrightUrl="" songArtistUrl="" songAudioFileUrl="" stabilizationMode="0" mediaItemType="2" />
    <MediaItem id="3" filePath="C:\Users\owner\Documents\Work\Ising model\ising_animation\Ising animation (non-zip)\animations\ising_anim0003.png" arWidth="320" arHeight="240" duration="0" songTitle="" songArtist="" songAlbum="" songCopyrightUrl="" songArtistUrl="" songAudioFileUrl="" stabilizationMode="0" mediaItemType="2" />
    <MediaItem id="525" filePath="C:\Users\owner\Documents\Work\Ising model\ising_animation\Ising animation (non-zip)\animations\ising_anim0525.png" arWidth="320" arHeight="240" duration="0" songTitle="" songArtist="" songAlbum="" songCopyrightUrl="" songArtistUrl="" songAudioFileUrl="" stabilizationMode="0" mediaItemType="2" />
    <MediaItem id="4" filePath="C:\Users\owner\Documents\Work\Ising model\ising_animation\Ising animation (non-zip)\animations\ising_anim0004.png" arWidth="320" arHeight="240" duration="0" songTitle="" songArtist="" songAlbum="" songCopyrightUrl="" songArtistUrl="" songAudioFileUrl="" stabilizationMode="0" mediaItemType="2" />
    <MediaItem id="526" filePath="C:\Users\owner\Documents\Work\Ising model\ising_animation\Ising animation (non-zip)\animations\ising_anim0526.png" arWidth="320" arHeight="240" duration="0" songTitle="" songArtist="" songAlbum="" songCopyrightUrl="" songArtistUrl="" songAudioFileUrl="" stabilizationMode="0" mediaItemType="2" />
    <MediaItem id="5" filePath="C:\Users\owner\Documents\Work\Ising model\ising_animation\Ising animation (non-zip)\animations\ising_anim0005.png" arWidth="320" arHeight="240" duration="0" songTitle="" songArtist="" songAlbum="" songCopyrightUrl="" songArtistUrl="" songAudioFileUrl="" stabilizationMode="0" mediaItemType="2" />
    <MediaItem id="527" filePath="C:\Users\owner\Documents\Work\Ising model\ising_animation\Ising animation (non-zip)\animations\ising_anim0527.png" arWidth="320" arHeight="240" duration="0" songTitle="" songArtist="" songAlbum="" songCopyrightUrl="" songArtistUrl="" songAudioFileUrl="" stabilizationMode="0" mediaItemType="2" />
    <MediaItem id="6" filePath="C:\Users\owner\Documents\Work\Ising model\ising_animation\Ising animation (non-zip)\animations\ising_anim0006.png" arWidth="320" arHeight="240" duration="0" songTitle="" songArtist="" songAlbum="" songCopyrightUrl="" songArtistUrl="" songAudioFileUrl="" stabilizationMode="0" mediaItemType="2" />
    <MediaItem id="528" filePath="C:\Users\owner\Documents\Work\Ising model\ising_animation\Ising animation (non-zip)\animations\ising_anim0528.png" arWidth="320" arHeight="240" duration="0" songTitle="" songArtist="" songAlbum="" songCopyrightUrl="" songArtistUrl="" songAudioFileUrl="" stabilizationMode="0" mediaItemType="2" />
    <MediaItem id="7" filePath="C:\Users\owner\Documents\Work\Ising model\ising_animation\Ising animation (non-zip)\animations\ising_anim0007.png" arWidth="320" arHeight="240" duration="0" songTitle="" songArtist="" songAlbum="" songCopyrightUrl="" songArtistUrl="" songAudioFileUrl="" stabilizationMode="0" mediaItemType="2" />
    <MediaItem id="529" filePath="C:\Users\owner\Documents\Work\Ising model\ising_animation\Ising animation (non-zip)\animations\ising_anim0529.png" arWidth="320" arHeight="240" duration="0" songTitle="" songArtist="" songAlbum="" songCopyrightUrl="" songArtistUrl="" songAudioFileUrl="" stabilizationMode="0" mediaItemType="2" />
    <MediaItem id="8" filePath="C:\Users\owner\Documents\Work\Ising model\ising_animation\Ising animation (non-zip)\animations\ising_anim0008.png" arWidth="320" arHeight="240" duration="0" songTitle="" songArtist="" songAlbum="" songCopyrightUrl="" songArtistUrl="" songAudioFileUrl="" stabilizationMode="0" mediaItemType="2" />
    <MediaItem id="530" filePath="C:\Users\owner\Documents\Work\Ising model\ising_animation\Ising animation (non-zip)\animations\ising_anim0530.png" arWidth="320" arHeight="240" duration="0" songTitle="" songArtist="" songAlbum="" songCopyrightUrl="" songArtistUrl="" songAudioFileUrl="" stabilizationMode="0" mediaItemType="2" />
    <MediaItem id="9" filePath="C:\Users\owner\Documents\Work\Ising model\ising_animation\Ising animation (non-zip)\animations\ising_anim0009.png" arWidth="320" arHeight="240" duration="0" songTitle="" songArtist="" songAlbum="" songCopyrightUrl="" songArtistUrl="" songAudioFileUrl="" stabilizationMode="0" mediaItemType="2" />
    <MediaItem id="531" filePath="C:\Users\owner\Documents\Work\Ising model\ising_animation\Ising animation (non-zip)\animations\ising_anim0531.png" arWidth="320" arHeight="240" duration="0" songTitle="" songArtist="" songAlbum="" songCopyrightUrl="" songArtistUrl="" songAudioFileUrl="" stabilizationMode="0" mediaItemType="2" />
    <MediaItem id="10" filePath="C:\Users\owner\Documents\Work\Ising model\ising_animation\Ising animation (non-zip)\animations\ising_anim0010.png" arWidth="320" arHeight="240" duration="0" songTitle="" songArtist="" songAlbum="" songCopyrightUrl="" songArtistUrl="" songAudioFileUrl="" stabilizationMode="0" mediaItemType="2" />
    <MediaItem id="532" filePath="C:\Users\owner\Documents\Work\Ising model\ising_animation\Ising animation (non-zip)\animations\ising_anim0532.png" arWidth="320" arHeight="240" duration="0" songTitle="" songArtist="" songAlbum="" songCopyrightUrl="" songArtistUrl="" songAudioFileUrl="" stabilizationMode="0" mediaItemType="2" />
    <MediaItem id="11" filePath="C:\Users\owner\Documents\Work\Ising model\ising_animation\Ising animation (non-zip)\animations\ising_anim0011.png" arWidth="320" arHeight="240" duration="0" songTitle="" songArtist="" songAlbum="" songCopyrightUrl="" songArtistUrl="" songAudioFileUrl="" stabilizationMode="0" mediaItemType="2" />
    <MediaItem id="533" filePath="C:\Users\owner\Documents\Work\Ising model\ising_animation\Ising animation (non-zip)\animations\ising_anim0533.png" arWidth="320" arHeight="240" duration="0" songTitle="" songArtist="" songAlbum="" songCopyrightUrl="" songArtistUrl="" songAudioFileUrl="" stabilizationMode="0" mediaItemType="2" />
    <MediaItem id="12" filePath="C:\Users\owner\Documents\Work\Ising model\ising_animation\Ising animation (non-zip)\animations\ising_anim0012.png" arWidth="320" arHeight="240" duration="0" songTitle="" songArtist="" songAlbum="" songCopyrightUrl="" songArtistUrl="" songAudioFileUrl="" stabilizationMode="0" mediaItemType="2" />
    <MediaItem id="534" filePath="C:\Users\owner\Documents\Work\Ising model\ising_animation\Ising animation (non-zip)\animations\ising_anim0534.png" arWidth="320" arHeight="240" duration="0" songTitle="" songArtist="" songAlbum="" songCopyrightUrl="" songArtistUrl="" songAudioFileUrl="" stabilizationMode="0" mediaItemType="2" />
    <MediaItem id="13" filePath="C:\Users\owner\Documents\Work\Ising model\ising_animation\Ising animation (non-zip)\animations\ising_anim0013.png" arWidth="320" arHeight="240" duration="0" songTitle="" songArtist="" songAlbum="" songCopyrightUrl="" songArtistUrl="" songAudioFileUrl="" stabilizationMode="0" mediaItemType="2" />
    <MediaItem id="535" filePath="C:\Users\owner\Documents\Work\Ising model\ising_animation\Ising animation (non-zip)\animations\ising_anim0535.png" arWidth="320" arHeight="240" duration="0" songTitle="" songArtist="" songAlbum="" songCopyrightUrl="" songArtistUrl="" songAudioFileUrl="" stabilizationMode="0" mediaItemType="2" />
    <MediaItem id="14" filePath="C:\Users\owner\Documents\Work\Ising model\ising_animation\Ising animation (non-zip)\animations\ising_anim0014.png" arWidth="320" arHeight="240" duration="0" songTitle="" songArtist="" songAlbum="" songCopyrightUrl="" songArtistUrl="" songAudioFileUrl="" stabilizationMode="0" mediaItemType="2" />
    <MediaItem id="536" filePath="C:\Users\owner\Documents\Work\Ising model\ising_animation\Ising animation (non-zip)\animations\ising_anim0536.png" arWidth="320" arHeight="240" duration="0" songTitle="" songArtist="" songAlbum="" songCopyrightUrl="" songArtistUrl="" songAudioFileUrl="" stabilizationMode="0" mediaItemType="2" />
    <MediaItem id="15" filePath="C:\Users\owner\Documents\Work\Ising model\ising_animation\Ising animation (non-zip)\animations\ising_anim0015.png" arWidth="320" arHeight="240" duration="0" songTitle="" songArtist="" songAlbum="" songCopyrightUrl="" songArtistUrl="" songAudioFileUrl="" stabilizationMode="0" mediaItemType="2" />
    <MediaItem id="537" filePath="C:\Users\owner\Documents\Work\Ising model\ising_animation\Ising animation (non-zip)\animations\ising_anim0537.png" arWidth="320" arHeight="240" duration="0" songTitle="" songArtist="" songAlbum="" songCopyrightUrl="" songArtistUrl="" songAudioFileUrl="" stabilizationMode="0" mediaItemType="2" />
    <MediaItem id="16" filePath="C:\Users\owner\Documents\Work\Ising model\ising_animation\Ising animation (non-zip)\animations\ising_anim0016.png" arWidth="320" arHeight="240" duration="0" songTitle="" songArtist="" songAlbum="" songCopyrightUrl="" songArtistUrl="" songAudioFileUrl="" stabilizationMode="0" mediaItemType="2" />
    <MediaItem id="538" filePath="C:\Users\owner\Documents\Work\Ising model\ising_animation\Ising animation (non-zip)\animations\ising_anim0538.png" arWidth="320" arHeight="240" duration="0" songTitle="" songArtist="" songAlbum="" songCopyrightUrl="" songArtistUrl="" songAudioFileUrl="" stabilizationMode="0" mediaItemType="2" />
    <MediaItem id="17" filePath="C:\Users\owner\Documents\Work\Ising model\ising_animation\Ising animation (non-zip)\animations\ising_anim0017.png" arWidth="320" arHeight="240" duration="0" songTitle="" songArtist="" songAlbum="" songCopyrightUrl="" songArtistUrl="" songAudioFileUrl="" stabilizationMode="0" mediaItemType="2" />
    <MediaItem id="539" filePath="C:\Users\owner\Documents\Work\Ising model\ising_animation\Ising animation (non-zip)\animations\ising_anim0539.png" arWidth="320" arHeight="240" duration="0" songTitle="" songArtist="" songAlbum="" songCopyrightUrl="" songArtistUrl="" songAudioFileUrl="" stabilizationMode="0" mediaItemType="2" />
    <MediaItem id="18" filePath="C:\Users\owner\Documents\Work\Ising model\ising_animation\Ising animation (non-zip)\animations\ising_anim0018.png" arWidth="320" arHeight="240" duration="0" songTitle="" songArtist="" songAlbum="" songCopyrightUrl="" songArtistUrl="" songAudioFileUrl="" stabilizationMode="0" mediaItemType="2" />
    <MediaItem id="540" filePath="C:\Users\owner\Documents\Work\Ising model\ising_animation\Ising animation (non-zip)\animations\ising_anim0540.png" arWidth="320" arHeight="240" duration="0" songTitle="" songArtist="" songAlbum="" songCopyrightUrl="" songArtistUrl="" songAudioFileUrl="" stabilizationMode="0" mediaItemType="2" />
    <MediaItem id="19" filePath="C:\Users\owner\Documents\Work\Ising model\ising_animation\Ising animation (non-zip)\animations\ising_anim0019.png" arWidth="320" arHeight="240" duration="0" songTitle="" songArtist="" songAlbum="" songCopyrightUrl="" songArtistUrl="" songAudioFileUrl="" stabilizationMode="0" mediaItemType="2" />
    <MediaItem id="541" filePath="C:\Users\owner\Documents\Work\Ising model\ising_animation\Ising animation (non-zip)\animations\ising_anim0541.png" arWidth="320" arHeight="240" duration="0" songTitle="" songArtist="" songAlbum="" songCopyrightUrl="" songArtistUrl="" songAudioFileUrl="" stabilizationMode="0" mediaItemType="2" />
    <MediaItem id="20" filePath="C:\Users\owner\Documents\Work\Ising model\ising_animation\Ising animation (non-zip)\animations\ising_anim0020.png" arWidth="320" arHeight="240" duration="0" songTitle="" songArtist="" songAlbum="" songCopyrightUrl="" songArtistUrl="" songAudioFileUrl="" stabilizationMode="0" mediaItemType="2" />
    <MediaItem id="542" filePath="C:\Users\owner\Documents\Work\Ising model\ising_animation\Ising animation (non-zip)\animations\ising_anim0542.png" arWidth="320" arHeight="240" duration="0" songTitle="" songArtist="" songAlbum="" songCopyrightUrl="" songArtistUrl="" songAudioFileUrl="" stabilizationMode="0" mediaItemType="2" />
    <MediaItem id="21" filePath="C:\Users\owner\Documents\Work\Ising model\ising_animation\Ising animation (non-zip)\animations\ising_anim0021.png" arWidth="320" arHeight="240" duration="0" songTitle="" songArtist="" songAlbum="" songCopyrightUrl="" songArtistUrl="" songAudioFileUrl="" stabilizationMode="0" mediaItemType="2" />
    <MediaItem id="543" filePath="C:\Users\owner\Documents\Work\Ising model\ising_animation\Ising animation (non-zip)\animations\ising_anim0543.png" arWidth="320" arHeight="240" duration="0" songTitle="" songArtist="" songAlbum="" songCopyrightUrl="" songArtistUrl="" songAudioFileUrl="" stabilizationMode="0" mediaItemType="2" />
    <MediaItem id="22" filePath="C:\Users\owner\Documents\Work\Ising model\ising_animation\Ising animation (non-zip)\animations\ising_anim0022.png" arWidth="320" arHeight="240" duration="0" songTitle="" songArtist="" songAlbum="" songCopyrightUrl="" songArtistUrl="" songAudioFileUrl="" stabilizationMode="0" mediaItemType="2" />
    <MediaItem id="544" filePath="C:\Users\owner\Documents\Work\Ising model\ising_animation\Ising animation (non-zip)\animations\ising_anim0544.png" arWidth="320" arHeight="240" duration="0" songTitle="" songArtist="" songAlbum="" songCopyrightUrl="" songArtistUrl="" songAudioFileUrl="" stabilizationMode="0" mediaItemType="2" />
    <MediaItem id="23" filePath="C:\Users\owner\Documents\Work\Ising model\ising_animation\Ising animation (non-zip)\animations\ising_anim0023.png" arWidth="320" arHeight="240" duration="0" songTitle="" songArtist="" songAlbum="" songCopyrightUrl="" songArtistUrl="" songAudioFileUrl="" stabilizationMode="0" mediaItemType="2" />
    <MediaItem id="545" filePath="C:\Users\owner\Documents\Work\Ising model\ising_animation\Ising animation (non-zip)\animations\ising_anim0545.png" arWidth="320" arHeight="240" duration="0" songTitle="" songArtist="" songAlbum="" songCopyrightUrl="" songArtistUrl="" songAudioFileUrl="" stabilizationMode="0" mediaItemType="2" />
    <MediaItem id="24" filePath="C:\Users\owner\Documents\Work\Ising model\ising_animation\Ising animation (non-zip)\animations\ising_anim0024.png" arWidth="320" arHeight="240" duration="0" songTitle="" songArtist="" songAlbum="" songCopyrightUrl="" songArtistUrl="" songAudioFileUrl="" stabilizationMode="0" mediaItemType="2" />
    <MediaItem id="546" filePath="C:\Users\owner\Documents\Work\Ising model\ising_animation\Ising animation (non-zip)\animations\ising_anim0546.png" arWidth="320" arHeight="240" duration="0" songTitle="" songArtist="" songAlbum="" songCopyrightUrl="" songArtistUrl="" songAudioFileUrl="" stabilizationMode="0" mediaItemType="2" />
    <MediaItem id="25" filePath="C:\Users\owner\Documents\Work\Ising model\ising_animation\Ising animation (non-zip)\animations\ising_anim0025.png" arWidth="320" arHeight="240" duration="0" songTitle="" songArtist="" songAlbum="" songCopyrightUrl="" songArtistUrl="" songAudioFileUrl="" stabilizationMode="0" mediaItemType="2" />
    <MediaItem id="547" filePath="C:\Users\owner\Documents\Work\Ising model\ising_animation\Ising animation (non-zip)\animations\ising_anim0547.png" arWidth="320" arHeight="240" duration="0" songTitle="" songArtist="" songAlbum="" songCopyrightUrl="" songArtistUrl="" songAudioFileUrl="" stabilizationMode="0" mediaItemType="2" />
    <MediaItem id="26" filePath="C:\Users\owner\Documents\Work\Ising model\ising_animation\Ising animation (non-zip)\animations\ising_anim0026.png" arWidth="320" arHeight="240" duration="0" songTitle="" songArtist="" songAlbum="" songCopyrightUrl="" songArtistUrl="" songAudioFileUrl="" stabilizationMode="0" mediaItemType="2" />
    <MediaItem id="548" filePath="C:\Users\owner\Documents\Work\Ising model\ising_animation\Ising animation (non-zip)\animations\ising_anim0548.png" arWidth="320" arHeight="240" duration="0" songTitle="" songArtist="" songAlbum="" songCopyrightUrl="" songArtistUrl="" songAudioFileUrl="" stabilizationMode="0" mediaItemType="2" />
    <MediaItem id="27" filePath="C:\Users\owner\Documents\Work\Ising model\ising_animation\Ising animation (non-zip)\animations\ising_anim0027.png" arWidth="320" arHeight="240" duration="0" songTitle="" songArtist="" songAlbum="" songCopyrightUrl="" songArtistUrl="" songAudioFileUrl="" stabilizationMode="0" mediaItemType="2" />
    <MediaItem id="549" filePath="C:\Users\owner\Documents\Work\Ising model\ising_animation\Ising animation (non-zip)\animations\ising_anim0549.png" arWidth="320" arHeight="240" duration="0" songTitle="" songArtist="" songAlbum="" songCopyrightUrl="" songArtistUrl="" songAudioFileUrl="" stabilizationMode="0" mediaItemType="2" />
    <MediaItem id="28" filePath="C:\Users\owner\Documents\Work\Ising model\ising_animation\Ising animation (non-zip)\animations\ising_anim0028.png" arWidth="320" arHeight="240" duration="0" songTitle="" songArtist="" songAlbum="" songCopyrightUrl="" songArtistUrl="" songAudioFileUrl="" stabilizationMode="0" mediaItemType="2" />
    <MediaItem id="550" filePath="C:\Users\owner\Documents\Work\Ising model\ising_animation\Ising animation (non-zip)\animations\ising_anim0550.png" arWidth="320" arHeight="240" duration="0" songTitle="" songArtist="" songAlbum="" songCopyrightUrl="" songArtistUrl="" songAudioFileUrl="" stabilizationMode="0" mediaItemType="2" />
    <MediaItem id="29" filePath="C:\Users\owner\Documents\Work\Ising model\ising_animation\Ising animation (non-zip)\animations\ising_anim0029.png" arWidth="320" arHeight="240" duration="0" songTitle="" songArtist="" songAlbum="" songCopyrightUrl="" songArtistUrl="" songAudioFileUrl="" stabilizationMode="0" mediaItemType="2" />
    <MediaItem id="551" filePath="C:\Users\owner\Documents\Work\Ising model\ising_animation\Ising animation (non-zip)\animations\ising_anim0551.png" arWidth="320" arHeight="240" duration="0" songTitle="" songArtist="" songAlbum="" songCopyrightUrl="" songArtistUrl="" songAudioFileUrl="" stabilizationMode="0" mediaItemType="2" />
    <MediaItem id="30" filePath="C:\Users\owner\Documents\Work\Ising model\ising_animation\Ising animation (non-zip)\animations\ising_anim0030.png" arWidth="320" arHeight="240" duration="0" songTitle="" songArtist="" songAlbum="" songCopyrightUrl="" songArtistUrl="" songAudioFileUrl="" stabilizationMode="0" mediaItemType="2" />
    <MediaItem id="552" filePath="C:\Users\owner\Documents\Work\Ising model\ising_animation\Ising animation (non-zip)\animations\ising_anim0552.png" arWidth="320" arHeight="240" duration="0" songTitle="" songArtist="" songAlbum="" songCopyrightUrl="" songArtistUrl="" songAudioFileUrl="" stabilizationMode="0" mediaItemType="2" />
    <MediaItem id="31" filePath="C:\Users\owner\Documents\Work\Ising model\ising_animation\Ising animation (non-zip)\animations\ising_anim0031.png" arWidth="320" arHeight="240" duration="0" songTitle="" songArtist="" songAlbum="" songCopyrightUrl="" songArtistUrl="" songAudioFileUrl="" stabilizationMode="0" mediaItemType="2" />
    <MediaItem id="553" filePath="C:\Users\owner\Documents\Work\Ising model\ising_animation\Ising animation (non-zip)\animations\ising_anim0553.png" arWidth="320" arHeight="240" duration="0" songTitle="" songArtist="" songAlbum="" songCopyrightUrl="" songArtistUrl="" songAudioFileUrl="" stabilizationMode="0" mediaItemType="2" />
    <MediaItem id="32" filePath="C:\Users\owner\Documents\Work\Ising model\ising_animation\Ising animation (non-zip)\animations\ising_anim0032.png" arWidth="320" arHeight="240" duration="0" songTitle="" songArtist="" songAlbum="" songCopyrightUrl="" songArtistUrl="" songAudioFileUrl="" stabilizationMode="0" mediaItemType="2" />
    <MediaItem id="554" filePath="C:\Users\owner\Documents\Work\Ising model\ising_animation\Ising animation (non-zip)\animations\ising_anim0554.png" arWidth="320" arHeight="240" duration="0" songTitle="" songArtist="" songAlbum="" songCopyrightUrl="" songArtistUrl="" songAudioFileUrl="" stabilizationMode="0" mediaItemType="2" />
    <MediaItem id="33" filePath="C:\Users\owner\Documents\Work\Ising model\ising_animation\Ising animation (non-zip)\animations\ising_anim0033.png" arWidth="320" arHeight="240" duration="0" songTitle="" songArtist="" songAlbum="" songCopyrightUrl="" songArtistUrl="" songAudioFileUrl="" stabilizationMode="0" mediaItemType="2" />
    <MediaItem id="555" filePath="C:\Users\owner\Documents\Work\Ising model\ising_animation\Ising animation (non-zip)\animations\ising_anim0555.png" arWidth="320" arHeight="240" duration="0" songTitle="" songArtist="" songAlbum="" songCopyrightUrl="" songArtistUrl="" songAudioFileUrl="" stabilizationMode="0" mediaItemType="2" />
    <MediaItem id="34" filePath="C:\Users\owner\Documents\Work\Ising model\ising_animation\Ising animation (non-zip)\animations\ising_anim0034.png" arWidth="320" arHeight="240" duration="0" songTitle="" songArtist="" songAlbum="" songCopyrightUrl="" songArtistUrl="" songAudioFileUrl="" stabilizationMode="0" mediaItemType="2" />
    <MediaItem id="556" filePath="C:\Users\owner\Documents\Work\Ising model\ising_animation\Ising animation (non-zip)\animations\ising_anim0556.png" arWidth="320" arHeight="240" duration="0" songTitle="" songArtist="" songAlbum="" songCopyrightUrl="" songArtistUrl="" songAudioFileUrl="" stabilizationMode="0" mediaItemType="2" />
    <MediaItem id="35" filePath="C:\Users\owner\Documents\Work\Ising model\ising_animation\Ising animation (non-zip)\animations\ising_anim0035.png" arWidth="320" arHeight="240" duration="0" songTitle="" songArtist="" songAlbum="" songCopyrightUrl="" songArtistUrl="" songAudioFileUrl="" stabilizationMode="0" mediaItemType="2" />
    <MediaItem id="557" filePath="C:\Users\owner\Documents\Work\Ising model\ising_animation\Ising animation (non-zip)\animations\ising_anim0557.png" arWidth="320" arHeight="240" duration="0" songTitle="" songArtist="" songAlbum="" songCopyrightUrl="" songArtistUrl="" songAudioFileUrl="" stabilizationMode="0" mediaItemType="2" />
    <MediaItem id="36" filePath="C:\Users\owner\Documents\Work\Ising model\ising_animation\Ising animation (non-zip)\animations\ising_anim0036.png" arWidth="320" arHeight="240" duration="0" songTitle="" songArtist="" songAlbum="" songCopyrightUrl="" songArtistUrl="" songAudioFileUrl="" stabilizationMode="0" mediaItemType="2" />
    <MediaItem id="558" filePath="C:\Users\owner\Documents\Work\Ising model\ising_animation\Ising animation (non-zip)\animations\ising_anim0558.png" arWidth="320" arHeight="240" duration="0" songTitle="" songArtist="" songAlbum="" songCopyrightUrl="" songArtistUrl="" songAudioFileUrl="" stabilizationMode="0" mediaItemType="2" />
    <MediaItem id="37" filePath="C:\Users\owner\Documents\Work\Ising model\ising_animation\Ising animation (non-zip)\animations\ising_anim0037.png" arWidth="320" arHeight="240" duration="0" songTitle="" songArtist="" songAlbum="" songCopyrightUrl="" songArtistUrl="" songAudioFileUrl="" stabilizationMode="0" mediaItemType="2" />
    <MediaItem id="559" filePath="C:\Users\owner\Documents\Work\Ising model\ising_animation\Ising animation (non-zip)\animations\ising_anim0559.png" arWidth="320" arHeight="240" duration="0" songTitle="" songArtist="" songAlbum="" songCopyrightUrl="" songArtistUrl="" songAudioFileUrl="" stabilizationMode="0" mediaItemType="2" />
    <MediaItem id="38" filePath="C:\Users\owner\Documents\Work\Ising model\ising_animation\Ising animation (non-zip)\animations\ising_anim0038.png" arWidth="320" arHeight="240" duration="0" songTitle="" songArtist="" songAlbum="" songCopyrightUrl="" songArtistUrl="" songAudioFileUrl="" stabilizationMode="0" mediaItemType="2" />
    <MediaItem id="560" filePath="C:\Users\owner\Documents\Work\Ising model\ising_animation\Ising animation (non-zip)\animations\ising_anim0560.png" arWidth="320" arHeight="240" duration="0" songTitle="" songArtist="" songAlbum="" songCopyrightUrl="" songArtistUrl="" songAudioFileUrl="" stabilizationMode="0" mediaItemType="2" />
    <MediaItem id="39" filePath="C:\Users\owner\Documents\Work\Ising model\ising_animation\Ising animation (non-zip)\animations\ising_anim0039.png" arWidth="320" arHeight="240" duration="0" songTitle="" songArtist="" songAlbum="" songCopyrightUrl="" songArtistUrl="" songAudioFileUrl="" stabilizationMode="0" mediaItemType="2" />
    <MediaItem id="561" filePath="C:\Users\owner\Documents\Work\Ising model\ising_animation\Ising animation (non-zip)\animations\ising_anim0561.png" arWidth="320" arHeight="240" duration="0" songTitle="" songArtist="" songAlbum="" songCopyrightUrl="" songArtistUrl="" songAudioFileUrl="" stabilizationMode="0" mediaItemType="2" />
    <MediaItem id="40" filePath="C:\Users\owner\Documents\Work\Ising model\ising_animation\Ising animation (non-zip)\animations\ising_anim0040.png" arWidth="320" arHeight="240" duration="0" songTitle="" songArtist="" songAlbum="" songCopyrightUrl="" songArtistUrl="" songAudioFileUrl="" stabilizationMode="0" mediaItemType="2" />
    <MediaItem id="562" filePath="C:\Users\owner\Documents\Work\Ising model\ising_animation\Ising animation (non-zip)\animations\ising_anim0562.png" arWidth="320" arHeight="240" duration="0" songTitle="" songArtist="" songAlbum="" songCopyrightUrl="" songArtistUrl="" songAudioFileUrl="" stabilizationMode="0" mediaItemType="2" />
    <MediaItem id="41" filePath="C:\Users\owner\Documents\Work\Ising model\ising_animation\Ising animation (non-zip)\animations\ising_anim0041.png" arWidth="320" arHeight="240" duration="0" songTitle="" songArtist="" songAlbum="" songCopyrightUrl="" songArtistUrl="" songAudioFileUrl="" stabilizationMode="0" mediaItemType="2" />
    <MediaItem id="563" filePath="C:\Users\owner\Documents\Work\Ising model\ising_animation\Ising animation (non-zip)\animations\ising_anim0563.png" arWidth="320" arHeight="240" duration="0" songTitle="" songArtist="" songAlbum="" songCopyrightUrl="" songArtistUrl="" songAudioFileUrl="" stabilizationMode="0" mediaItemType="2" />
    <MediaItem id="42" filePath="C:\Users\owner\Documents\Work\Ising model\ising_animation\Ising animation (non-zip)\animations\ising_anim0042.png" arWidth="320" arHeight="240" duration="0" songTitle="" songArtist="" songAlbum="" songCopyrightUrl="" songArtistUrl="" songAudioFileUrl="" stabilizationMode="0" mediaItemType="2" />
    <MediaItem id="564" filePath="C:\Users\owner\Documents\Work\Ising model\ising_animation\Ising animation (non-zip)\animations\ising_anim0564.png" arWidth="320" arHeight="240" duration="0" songTitle="" songArtist="" songAlbum="" songCopyrightUrl="" songArtistUrl="" songAudioFileUrl="" stabilizationMode="0" mediaItemType="2" />
    <MediaItem id="43" filePath="C:\Users\owner\Documents\Work\Ising model\ising_animation\Ising animation (non-zip)\animations\ising_anim0043.png" arWidth="320" arHeight="240" duration="0" songTitle="" songArtist="" songAlbum="" songCopyrightUrl="" songArtistUrl="" songAudioFileUrl="" stabilizationMode="0" mediaItemType="2" />
    <MediaItem id="565" filePath="C:\Users\owner\Documents\Work\Ising model\ising_animation\Ising animation (non-zip)\animations\ising_anim0565.png" arWidth="320" arHeight="240" duration="0" songTitle="" songArtist="" songAlbum="" songCopyrightUrl="" songArtistUrl="" songAudioFileUrl="" stabilizationMode="0" mediaItemType="2" />
    <MediaItem id="44" filePath="C:\Users\owner\Documents\Work\Ising model\ising_animation\Ising animation (non-zip)\animations\ising_anim0044.png" arWidth="320" arHeight="240" duration="0" songTitle="" songArtist="" songAlbum="" songCopyrightUrl="" songArtistUrl="" songAudioFileUrl="" stabilizationMode="0" mediaItemType="2" />
    <MediaItem id="566" filePath="C:\Users\owner\Documents\Work\Ising model\ising_animation\Ising animation (non-zip)\animations\ising_anim0566.png" arWidth="320" arHeight="240" duration="0" songTitle="" songArtist="" songAlbum="" songCopyrightUrl="" songArtistUrl="" songAudioFileUrl="" stabilizationMode="0" mediaItemType="2" />
    <MediaItem id="45" filePath="C:\Users\owner\Documents\Work\Ising model\ising_animation\Ising animation (non-zip)\animations\ising_anim0045.png" arWidth="320" arHeight="240" duration="0" songTitle="" songArtist="" songAlbum="" songCopyrightUrl="" songArtistUrl="" songAudioFileUrl="" stabilizationMode="0" mediaItemType="2" />
    <MediaItem id="567" filePath="C:\Users\owner\Documents\Work\Ising model\ising_animation\Ising animation (non-zip)\animations\ising_anim0567.png" arWidth="320" arHeight="240" duration="0" songTitle="" songArtist="" songAlbum="" songCopyrightUrl="" songArtistUrl="" songAudioFileUrl="" stabilizationMode="0" mediaItemType="2" />
    <MediaItem id="46" filePath="C:\Users\owner\Documents\Work\Ising model\ising_animation\Ising animation (non-zip)\animations\ising_anim0046.png" arWidth="320" arHeight="240" duration="0" songTitle="" songArtist="" songAlbum="" songCopyrightUrl="" songArtistUrl="" songAudioFileUrl="" stabilizationMode="0" mediaItemType="2" />
    <MediaItem id="568" filePath="C:\Users\owner\Documents\Work\Ising model\ising_animation\Ising animation (non-zip)\animations\ising_anim0568.png" arWidth="320" arHeight="240" duration="0" songTitle="" songArtist="" songAlbum="" songCopyrightUrl="" songArtistUrl="" songAudioFileUrl="" stabilizationMode="0" mediaItemType="2" />
    <MediaItem id="47" filePath="C:\Users\owner\Documents\Work\Ising model\ising_animation\Ising animation (non-zip)\animations\ising_anim0047.png" arWidth="320" arHeight="240" duration="0" songTitle="" songArtist="" songAlbum="" songCopyrightUrl="" songArtistUrl="" songAudioFileUrl="" stabilizationMode="0" mediaItemType="2" />
    <MediaItem id="569" filePath="C:\Users\owner\Documents\Work\Ising model\ising_animation\Ising animation (non-zip)\animations\ising_anim0569.png" arWidth="320" arHeight="240" duration="0" songTitle="" songArtist="" songAlbum="" songCopyrightUrl="" songArtistUrl="" songAudioFileUrl="" stabilizationMode="0" mediaItemType="2" />
    <MediaItem id="48" filePath="C:\Users\owner\Documents\Work\Ising model\ising_animation\Ising animation (non-zip)\animations\ising_anim0048.png" arWidth="320" arHeight="240" duration="0" songTitle="" songArtist="" songAlbum="" songCopyrightUrl="" songArtistUrl="" songAudioFileUrl="" stabilizationMode="0" mediaItemType="2" />
    <MediaItem id="570" filePath="C:\Users\owner\Documents\Work\Ising model\ising_animation\Ising animation (non-zip)\animations\ising_anim0570.png" arWidth="320" arHeight="240" duration="0" songTitle="" songArtist="" songAlbum="" songCopyrightUrl="" songArtistUrl="" songAudioFileUrl="" stabilizationMode="0" mediaItemType="2" />
    <MediaItem id="49" filePath="C:\Users\owner\Documents\Work\Ising model\ising_animation\Ising animation (non-zip)\animations\ising_anim0049.png" arWidth="320" arHeight="240" duration="0" songTitle="" songArtist="" songAlbum="" songCopyrightUrl="" songArtistUrl="" songAudioFileUrl="" stabilizationMode="0" mediaItemType="2" />
    <MediaItem id="571" filePath="C:\Users\owner\Documents\Work\Ising model\ising_animation\Ising animation (non-zip)\animations\ising_anim0571.png" arWidth="320" arHeight="240" duration="0" songTitle="" songArtist="" songAlbum="" songCopyrightUrl="" songArtistUrl="" songAudioFileUrl="" stabilizationMode="0" mediaItemType="2" />
    <MediaItem id="50" filePath="C:\Users\owner\Documents\Work\Ising model\ising_animation\Ising animation (non-zip)\animations\ising_anim0050.png" arWidth="320" arHeight="240" duration="0" songTitle="" songArtist="" songAlbum="" songCopyrightUrl="" songArtistUrl="" songAudioFileUrl="" stabilizationMode="0" mediaItemType="2" />
    <MediaItem id="572" filePath="C:\Users\owner\Documents\Work\Ising model\ising_animation\Ising animation (non-zip)\animations\ising_anim0572.png" arWidth="320" arHeight="240" duration="0" songTitle="" songArtist="" songAlbum="" songCopyrightUrl="" songArtistUrl="" songAudioFileUrl="" stabilizationMode="0" mediaItemType="2" />
    <MediaItem id="51" filePath="C:\Users\owner\Documents\Work\Ising model\ising_animation\Ising animation (non-zip)\animations\ising_anim0051.png" arWidth="320" arHeight="240" duration="0" songTitle="" songArtist="" songAlbum="" songCopyrightUrl="" songArtistUrl="" songAudioFileUrl="" stabilizationMode="0" mediaItemType="2" />
    <MediaItem id="573" filePath="C:\Users\owner\Documents\Work\Ising model\ising_animation\Ising animation (non-zip)\animations\ising_anim0573.png" arWidth="320" arHeight="240" duration="0" songTitle="" songArtist="" songAlbum="" songCopyrightUrl="" songArtistUrl="" songAudioFileUrl="" stabilizationMode="0" mediaItemType="2" />
    <MediaItem id="52" filePath="C:\Users\owner\Documents\Work\Ising model\ising_animation\Ising animation (non-zip)\animations\ising_anim0052.png" arWidth="320" arHeight="240" duration="0" songTitle="" songArtist="" songAlbum="" songCopyrightUrl="" songArtistUrl="" songAudioFileUrl="" stabilizationMode="0" mediaItemType="2" />
    <MediaItem id="574" filePath="C:\Users\owner\Documents\Work\Ising model\ising_animation\Ising animation (non-zip)\animations\ising_anim0574.png" arWidth="320" arHeight="240" duration="0" songTitle="" songArtist="" songAlbum="" songCopyrightUrl="" songArtistUrl="" songAudioFileUrl="" stabilizationMode="0" mediaItemType="2" />
    <MediaItem id="53" filePath="C:\Users\owner\Documents\Work\Ising model\ising_animation\Ising animation (non-zip)\animations\ising_anim0053.png" arWidth="320" arHeight="240" duration="0" songTitle="" songArtist="" songAlbum="" songCopyrightUrl="" songArtistUrl="" songAudioFileUrl="" stabilizationMode="0" mediaItemType="2" />
    <MediaItem id="575" filePath="C:\Users\owner\Documents\Work\Ising model\ising_animation\Ising animation (non-zip)\animations\ising_anim0575.png" arWidth="320" arHeight="240" duration="0" songTitle="" songArtist="" songAlbum="" songCopyrightUrl="" songArtistUrl="" songAudioFileUrl="" stabilizationMode="0" mediaItemType="2" />
    <MediaItem id="54" filePath="C:\Users\owner\Documents\Work\Ising model\ising_animation\Ising animation (non-zip)\animations\ising_anim0054.png" arWidth="320" arHeight="240" duration="0" songTitle="" songArtist="" songAlbum="" songCopyrightUrl="" songArtistUrl="" songAudioFileUrl="" stabilizationMode="0" mediaItemType="2" />
    <MediaItem id="576" filePath="C:\Users\owner\Documents\Work\Ising model\ising_animation\Ising animation (non-zip)\animations\ising_anim0576.png" arWidth="320" arHeight="240" duration="0" songTitle="" songArtist="" songAlbum="" songCopyrightUrl="" songArtistUrl="" songAudioFileUrl="" stabilizationMode="0" mediaItemType="2" />
    <MediaItem id="55" filePath="C:\Users\owner\Documents\Work\Ising model\ising_animation\Ising animation (non-zip)\animations\ising_anim0055.png" arWidth="320" arHeight="240" duration="0" songTitle="" songArtist="" songAlbum="" songCopyrightUrl="" songArtistUrl="" songAudioFileUrl="" stabilizationMode="0" mediaItemType="2" />
    <MediaItem id="577" filePath="C:\Users\owner\Documents\Work\Ising model\ising_animation\Ising animation (non-zip)\animations\ising_anim0577.png" arWidth="320" arHeight="240" duration="0" songTitle="" songArtist="" songAlbum="" songCopyrightUrl="" songArtistUrl="" songAudioFileUrl="" stabilizationMode="0" mediaItemType="2" />
    <MediaItem id="56" filePath="C:\Users\owner\Documents\Work\Ising model\ising_animation\Ising animation (non-zip)\animations\ising_anim0056.png" arWidth="320" arHeight="240" duration="0" songTitle="" songArtist="" songAlbum="" songCopyrightUrl="" songArtistUrl="" songAudioFileUrl="" stabilizationMode="0" mediaItemType="2" />
    <MediaItem id="578" filePath="C:\Users\owner\Documents\Work\Ising model\ising_animation\Ising animation (non-zip)\animations\ising_anim0578.png" arWidth="320" arHeight="240" duration="0" songTitle="" songArtist="" songAlbum="" songCopyrightUrl="" songArtistUrl="" songAudioFileUrl="" stabilizationMode="0" mediaItemType="2" />
    <MediaItem id="57" filePath="C:\Users\owner\Documents\Work\Ising model\ising_animation\Ising animation (non-zip)\animations\ising_anim0057.png" arWidth="320" arHeight="240" duration="0" songTitle="" songArtist="" songAlbum="" songCopyrightUrl="" songArtistUrl="" songAudioFileUrl="" stabilizationMode="0" mediaItemType="2" />
    <MediaItem id="579" filePath="C:\Users\owner\Documents\Work\Ising model\ising_animation\Ising animation (non-zip)\animations\ising_anim0579.png" arWidth="320" arHeight="240" duration="0" songTitle="" songArtist="" songAlbum="" songCopyrightUrl="" songArtistUrl="" songAudioFileUrl="" stabilizationMode="0" mediaItemType="2" />
    <MediaItem id="58" filePath="C:\Users\owner\Documents\Work\Ising model\ising_animation\Ising animation (non-zip)\animations\ising_anim0058.png" arWidth="320" arHeight="240" duration="0" songTitle="" songArtist="" songAlbum="" songCopyrightUrl="" songArtistUrl="" songAudioFileUrl="" stabilizationMode="0" mediaItemType="2" />
    <MediaItem id="580" filePath="C:\Users\owner\Documents\Work\Ising model\ising_animation\Ising animation (non-zip)\animations\ising_anim0580.png" arWidth="320" arHeight="240" duration="0" songTitle="" songArtist="" songAlbum="" songCopyrightUrl="" songArtistUrl="" songAudioFileUrl="" stabilizationMode="0" mediaItemType="2" />
    <MediaItem id="59" filePath="C:\Users\owner\Documents\Work\Ising model\ising_animation\Ising animation (non-zip)\animations\ising_anim0059.png" arWidth="320" arHeight="240" duration="0" songTitle="" songArtist="" songAlbum="" songCopyrightUrl="" songArtistUrl="" songAudioFileUrl="" stabilizationMode="0" mediaItemType="2" />
    <MediaItem id="581" filePath="C:\Users\owner\Documents\Work\Ising model\ising_animation\Ising animation (non-zip)\animations\ising_anim0581.png" arWidth="320" arHeight="240" duration="0" songTitle="" songArtist="" songAlbum="" songCopyrightUrl="" songArtistUrl="" songAudioFileUrl="" stabilizationMode="0" mediaItemType="2" />
    <MediaItem id="60" filePath="C:\Users\owner\Documents\Work\Ising model\ising_animation\Ising animation (non-zip)\animations\ising_anim0060.png" arWidth="320" arHeight="240" duration="0" songTitle="" songArtist="" songAlbum="" songCopyrightUrl="" songArtistUrl="" songAudioFileUrl="" stabilizationMode="0" mediaItemType="2" />
    <MediaItem id="582" filePath="C:\Users\owner\Documents\Work\Ising model\ising_animation\Ising animation (non-zip)\animations\ising_anim0582.png" arWidth="320" arHeight="240" duration="0" songTitle="" songArtist="" songAlbum="" songCopyrightUrl="" songArtistUrl="" songAudioFileUrl="" stabilizationMode="0" mediaItemType="2" />
    <MediaItem id="61" filePath="C:\Users\owner\Documents\Work\Ising model\ising_animation\Ising animation (non-zip)\animations\ising_anim0061.png" arWidth="320" arHeight="240" duration="0" songTitle="" songArtist="" songAlbum="" songCopyrightUrl="" songArtistUrl="" songAudioFileUrl="" stabilizationMode="0" mediaItemType="2" />
    <MediaItem id="583" filePath="C:\Users\owner\Documents\Work\Ising model\ising_animation\Ising animation (non-zip)\animations\ising_anim0583.png" arWidth="320" arHeight="240" duration="0" songTitle="" songArtist="" songAlbum="" songCopyrightUrl="" songArtistUrl="" songAudioFileUrl="" stabilizationMode="0" mediaItemType="2" />
    <MediaItem id="62" filePath="C:\Users\owner\Documents\Work\Ising model\ising_animation\Ising animation (non-zip)\animations\ising_anim0062.png" arWidth="320" arHeight="240" duration="0" songTitle="" songArtist="" songAlbum="" songCopyrightUrl="" songArtistUrl="" songAudioFileUrl="" stabilizationMode="0" mediaItemType="2" />
    <MediaItem id="584" filePath="C:\Users\owner\Documents\Work\Ising model\ising_animation\Ising animation (non-zip)\animations\ising_anim0584.png" arWidth="320" arHeight="240" duration="0" songTitle="" songArtist="" songAlbum="" songCopyrightUrl="" songArtistUrl="" songAudioFileUrl="" stabilizationMode="0" mediaItemType="2" />
    <MediaItem id="63" filePath="C:\Users\owner\Documents\Work\Ising model\ising_animation\Ising animation (non-zip)\animations\ising_anim0063.png" arWidth="320" arHeight="240" duration="0" songTitle="" songArtist="" songAlbum="" songCopyrightUrl="" songArtistUrl="" songAudioFileUrl="" stabilizationMode="0" mediaItemType="2" />
    <MediaItem id="585" filePath="C:\Users\owner\Documents\Work\Ising model\ising_animation\Ising animation (non-zip)\animations\ising_anim0585.png" arWidth="320" arHeight="240" duration="0" songTitle="" songArtist="" songAlbum="" songCopyrightUrl="" songArtistUrl="" songAudioFileUrl="" stabilizationMode="0" mediaItemType="2" />
    <MediaItem id="64" filePath="C:\Users\owner\Documents\Work\Ising model\ising_animation\Ising animation (non-zip)\animations\ising_anim0064.png" arWidth="320" arHeight="240" duration="0" songTitle="" songArtist="" songAlbum="" songCopyrightUrl="" songArtistUrl="" songAudioFileUrl="" stabilizationMode="0" mediaItemType="2" />
    <MediaItem id="586" filePath="C:\Users\owner\Documents\Work\Ising model\ising_animation\Ising animation (non-zip)\animations\ising_anim0586.png" arWidth="320" arHeight="240" duration="0" songTitle="" songArtist="" songAlbum="" songCopyrightUrl="" songArtistUrl="" songAudioFileUrl="" stabilizationMode="0" mediaItemType="2" />
    <MediaItem id="65" filePath="C:\Users\owner\Documents\Work\Ising model\ising_animation\Ising animation (non-zip)\animations\ising_anim0065.png" arWidth="320" arHeight="240" duration="0" songTitle="" songArtist="" songAlbum="" songCopyrightUrl="" songArtistUrl="" songAudioFileUrl="" stabilizationMode="0" mediaItemType="2" />
    <MediaItem id="587" filePath="C:\Users\owner\Documents\Work\Ising model\ising_animation\Ising animation (non-zip)\animations\ising_anim0587.png" arWidth="320" arHeight="240" duration="0" songTitle="" songArtist="" songAlbum="" songCopyrightUrl="" songArtistUrl="" songAudioFileUrl="" stabilizationMode="0" mediaItemType="2" />
    <MediaItem id="66" filePath="C:\Users\owner\Documents\Work\Ising model\ising_animation\Ising animation (non-zip)\animations\ising_anim0066.png" arWidth="320" arHeight="240" duration="0" songTitle="" songArtist="" songAlbum="" songCopyrightUrl="" songArtistUrl="" songAudioFileUrl="" stabilizationMode="0" mediaItemType="2" />
    <MediaItem id="588" filePath="C:\Users\owner\Documents\Work\Ising model\ising_animation\Ising animation (non-zip)\animations\ising_anim0588.png" arWidth="320" arHeight="240" duration="0" songTitle="" songArtist="" songAlbum="" songCopyrightUrl="" songArtistUrl="" songAudioFileUrl="" stabilizationMode="0" mediaItemType="2" />
    <MediaItem id="67" filePath="C:\Users\owner\Documents\Work\Ising model\ising_animation\Ising animation (non-zip)\animations\ising_anim0067.png" arWidth="320" arHeight="240" duration="0" songTitle="" songArtist="" songAlbum="" songCopyrightUrl="" songArtistUrl="" songAudioFileUrl="" stabilizationMode="0" mediaItemType="2" />
    <MediaItem id="589" filePath="C:\Users\owner\Documents\Work\Ising model\ising_animation\Ising animation (non-zip)\animations\ising_anim0589.png" arWidth="320" arHeight="240" duration="0" songTitle="" songArtist="" songAlbum="" songCopyrightUrl="" songArtistUrl="" songAudioFileUrl="" stabilizationMode="0" mediaItemType="2" />
    <MediaItem id="68" filePath="C:\Users\owner\Documents\Work\Ising model\ising_animation\Ising animation (non-zip)\animations\ising_anim0068.png" arWidth="320" arHeight="240" duration="0" songTitle="" songArtist="" songAlbum="" songCopyrightUrl="" songArtistUrl="" songAudioFileUrl="" stabilizationMode="0" mediaItemType="2" />
    <MediaItem id="590" filePath="C:\Users\owner\Documents\Work\Ising model\ising_animation\Ising animation (non-zip)\animations\ising_anim0590.png" arWidth="320" arHeight="240" duration="0" songTitle="" songArtist="" songAlbum="" songCopyrightUrl="" songArtistUrl="" songAudioFileUrl="" stabilizationMode="0" mediaItemType="2" />
    <MediaItem id="69" filePath="C:\Users\owner\Documents\Work\Ising model\ising_animation\Ising animation (non-zip)\animations\ising_anim0069.png" arWidth="320" arHeight="240" duration="0" songTitle="" songArtist="" songAlbum="" songCopyrightUrl="" songArtistUrl="" songAudioFileUrl="" stabilizationMode="0" mediaItemType="2" />
    <MediaItem id="591" filePath="C:\Users\owner\Documents\Work\Ising model\ising_animation\Ising animation (non-zip)\animations\ising_anim0591.png" arWidth="320" arHeight="240" duration="0" songTitle="" songArtist="" songAlbum="" songCopyrightUrl="" songArtistUrl="" songAudioFileUrl="" stabilizationMode="0" mediaItemType="2" />
    <MediaItem id="70" filePath="C:\Users\owner\Documents\Work\Ising model\ising_animation\Ising animation (non-zip)\animations\ising_anim0070.png" arWidth="320" arHeight="240" duration="0" songTitle="" songArtist="" songAlbum="" songCopyrightUrl="" songArtistUrl="" songAudioFileUrl="" stabilizationMode="0" mediaItemType="2" />
    <MediaItem id="592" filePath="C:\Users\owner\Documents\Work\Ising model\ising_animation\Ising animation (non-zip)\animations\ising_anim0592.png" arWidth="320" arHeight="240" duration="0" songTitle="" songArtist="" songAlbum="" songCopyrightUrl="" songArtistUrl="" songAudioFileUrl="" stabilizationMode="0" mediaItemType="2" />
    <MediaItem id="71" filePath="C:\Users\owner\Documents\Work\Ising model\ising_animation\Ising animation (non-zip)\animations\ising_anim0071.png" arWidth="320" arHeight="240" duration="0" songTitle="" songArtist="" songAlbum="" songCopyrightUrl="" songArtistUrl="" songAudioFileUrl="" stabilizationMode="0" mediaItemType="2" />
    <MediaItem id="593" filePath="C:\Users\owner\Documents\Work\Ising model\ising_animation\Ising animation (non-zip)\animations\ising_anim0593.png" arWidth="320" arHeight="240" duration="0" songTitle="" songArtist="" songAlbum="" songCopyrightUrl="" songArtistUrl="" songAudioFileUrl="" stabilizationMode="0" mediaItemType="2" />
    <MediaItem id="72" filePath="C:\Users\owner\Documents\Work\Ising model\ising_animation\Ising animation (non-zip)\animations\ising_anim0072.png" arWidth="320" arHeight="240" duration="0" songTitle="" songArtist="" songAlbum="" songCopyrightUrl="" songArtistUrl="" songAudioFileUrl="" stabilizationMode="0" mediaItemType="2" />
    <MediaItem id="594" filePath="C:\Users\owner\Documents\Work\Ising model\ising_animation\Ising animation (non-zip)\animations\ising_anim0594.png" arWidth="320" arHeight="240" duration="0" songTitle="" songArtist="" songAlbum="" songCopyrightUrl="" songArtistUrl="" songAudioFileUrl="" stabilizationMode="0" mediaItemType="2" />
    <MediaItem id="73" filePath="C:\Users\owner\Documents\Work\Ising model\ising_animation\Ising animation (non-zip)\animations\ising_anim0073.png" arWidth="320" arHeight="240" duration="0" songTitle="" songArtist="" songAlbum="" songCopyrightUrl="" songArtistUrl="" songAudioFileUrl="" stabilizationMode="0" mediaItemType="2" />
    <MediaItem id="595" filePath="C:\Users\owner\Documents\Work\Ising model\ising_animation\Ising animation (non-zip)\animations\ising_anim0595.png" arWidth="320" arHeight="240" duration="0" songTitle="" songArtist="" songAlbum="" songCopyrightUrl="" songArtistUrl="" songAudioFileUrl="" stabilizationMode="0" mediaItemType="2" />
    <MediaItem id="74" filePath="C:\Users\owner\Documents\Work\Ising model\ising_animation\Ising animation (non-zip)\animations\ising_anim0074.png" arWidth="320" arHeight="240" duration="0" songTitle="" songArtist="" songAlbum="" songCopyrightUrl="" songArtistUrl="" songAudioFileUrl="" stabilizationMode="0" mediaItemType="2" />
    <MediaItem id="596" filePath="C:\Users\owner\Documents\Work\Ising model\ising_animation\Ising animation (non-zip)\animations\ising_anim0596.png" arWidth="320" arHeight="240" duration="0" songTitle="" songArtist="" songAlbum="" songCopyrightUrl="" songArtistUrl="" songAudioFileUrl="" stabilizationMode="0" mediaItemType="2" />
    <MediaItem id="75" filePath="C:\Users\owner\Documents\Work\Ising model\ising_animation\Ising animation (non-zip)\animations\ising_anim0075.png" arWidth="320" arHeight="240" duration="0" songTitle="" songArtist="" songAlbum="" songCopyrightUrl="" songArtistUrl="" songAudioFileUrl="" stabilizationMode="0" mediaItemType="2" />
    <MediaItem id="597" filePath="C:\Users\owner\Documents\Work\Ising model\ising_animation\Ising animation (non-zip)\animations\ising_anim0597.png" arWidth="320" arHeight="240" duration="0" songTitle="" songArtist="" songAlbum="" songCopyrightUrl="" songArtistUrl="" songAudioFileUrl="" stabilizationMode="0" mediaItemType="2" />
    <MediaItem id="76" filePath="C:\Users\owner\Documents\Work\Ising model\ising_animation\Ising animation (non-zip)\animations\ising_anim0076.png" arWidth="320" arHeight="240" duration="0" songTitle="" songArtist="" songAlbum="" songCopyrightUrl="" songArtistUrl="" songAudioFileUrl="" stabilizationMode="0" mediaItemType="2" />
    <MediaItem id="598" filePath="C:\Users\owner\Documents\Work\Ising model\ising_animation\Ising animation (non-zip)\animations\ising_anim0598.png" arWidth="320" arHeight="240" duration="0" songTitle="" songArtist="" songAlbum="" songCopyrightUrl="" songArtistUrl="" songAudioFileUrl="" stabilizationMode="0" mediaItemType="2" />
    <MediaItem id="77" filePath="C:\Users\owner\Documents\Work\Ising model\ising_animation\Ising animation (non-zip)\animations\ising_anim0077.png" arWidth="320" arHeight="240" duration="0" songTitle="" songArtist="" songAlbum="" songCopyrightUrl="" songArtistUrl="" songAudioFileUrl="" stabilizationMode="0" mediaItemType="2" />
    <MediaItem id="599" filePath="C:\Users\owner\Documents\Work\Ising model\ising_animation\Ising animation (non-zip)\animations\ising_anim0599.png" arWidth="320" arHeight="240" duration="0" songTitle="" songArtist="" songAlbum="" songCopyrightUrl="" songArtistUrl="" songAudioFileUrl="" stabilizationMode="0" mediaItemType="2" />
    <MediaItem id="78" filePath="C:\Users\owner\Documents\Work\Ising model\ising_animation\Ising animation (non-zip)\animations\ising_anim0078.png" arWidth="320" arHeight="240" duration="0" songTitle="" songArtist="" songAlbum="" songCopyrightUrl="" songArtistUrl="" songAudioFileUrl="" stabilizationMode="0" mediaItemType="2" />
    <MediaItem id="600" filePath="C:\Users\owner\Documents\Work\Ising model\ising_animation\Ising animation (non-zip)\animations\ising_anim0600.png" arWidth="320" arHeight="240" duration="0" songTitle="" songArtist="" songAlbum="" songCopyrightUrl="" songArtistUrl="" songAudioFileUrl="" stabilizationMode="0" mediaItemType="2" />
    <MediaItem id="79" filePath="C:\Users\owner\Documents\Work\Ising model\ising_animation\Ising animation (non-zip)\animations\ising_anim0079.png" arWidth="320" arHeight="240" duration="0" songTitle="" songArtist="" songAlbum="" songCopyrightUrl="" songArtistUrl="" songAudioFileUrl="" stabilizationMode="0" mediaItemType="2" />
    <MediaItem id="601" filePath="C:\Users\owner\Documents\Work\Ising model\ising_animation\Ising animation (non-zip)\animations\ising_anim0601.png" arWidth="320" arHeight="240" duration="0" songTitle="" songArtist="" songAlbum="" songCopyrightUrl="" songArtistUrl="" songAudioFileUrl="" stabilizationMode="0" mediaItemType="2" />
    <MediaItem id="80" filePath="C:\Users\owner\Documents\Work\Ising model\ising_animation\Ising animation (non-zip)\animations\ising_anim0080.png" arWidth="320" arHeight="240" duration="0" songTitle="" songArtist="" songAlbum="" songCopyrightUrl="" songArtistUrl="" songAudioFileUrl="" stabilizationMode="0" mediaItemType="2" />
    <MediaItem id="602" filePath="C:\Users\owner\Documents\Work\Ising model\ising_animation\Ising animation (non-zip)\animations\ising_anim0602.png" arWidth="320" arHeight="240" duration="0" songTitle="" songArtist="" songAlbum="" songCopyrightUrl="" songArtistUrl="" songAudioFileUrl="" stabilizationMode="0" mediaItemType="2" />
    <MediaItem id="81" filePath="C:\Users\owner\Documents\Work\Ising model\ising_animation\Ising animation (non-zip)\animations\ising_anim0081.png" arWidth="320" arHeight="240" duration="0" songTitle="" songArtist="" songAlbum="" songCopyrightUrl="" songArtistUrl="" songAudioFileUrl="" stabilizationMode="0" mediaItemType="2" />
    <MediaItem id="603" filePath="C:\Users\owner\Documents\Work\Ising model\ising_animation\Ising animation (non-zip)\animations\ising_anim0603.png" arWidth="320" arHeight="240" duration="0" songTitle="" songArtist="" songAlbum="" songCopyrightUrl="" songArtistUrl="" songAudioFileUrl="" stabilizationMode="0" mediaItemType="2" />
    <MediaItem id="82" filePath="C:\Users\owner\Documents\Work\Ising model\ising_animation\Ising animation (non-zip)\animations\ising_anim0082.png" arWidth="320" arHeight="240" duration="0" songTitle="" songArtist="" songAlbum="" songCopyrightUrl="" songArtistUrl="" songAudioFileUrl="" stabilizationMode="0" mediaItemType="2" />
    <MediaItem id="604" filePath="C:\Users\owner\Documents\Work\Ising model\ising_animation\Ising animation (non-zip)\animations\ising_anim0604.png" arWidth="320" arHeight="240" duration="0" songTitle="" songArtist="" songAlbum="" songCopyrightUrl="" songArtistUrl="" songAudioFileUrl="" stabilizationMode="0" mediaItemType="2" />
    <MediaItem id="83" filePath="C:\Users\owner\Documents\Work\Ising model\ising_animation\Ising animation (non-zip)\animations\ising_anim0083.png" arWidth="320" arHeight="240" duration="0" songTitle="" songArtist="" songAlbum="" songCopyrightUrl="" songArtistUrl="" songAudioFileUrl="" stabilizationMode="0" mediaItemType="2" />
    <MediaItem id="605" filePath="C:\Users\owner\Documents\Work\Ising model\ising_animation\Ising animation (non-zip)\animations\ising_anim0605.png" arWidth="320" arHeight="240" duration="0" songTitle="" songArtist="" songAlbum="" songCopyrightUrl="" songArtistUrl="" songAudioFileUrl="" stabilizationMode="0" mediaItemType="2" />
    <MediaItem id="84" filePath="C:\Users\owner\Documents\Work\Ising model\ising_animation\Ising animation (non-zip)\animations\ising_anim0084.png" arWidth="320" arHeight="240" duration="0" songTitle="" songArtist="" songAlbum="" songCopyrightUrl="" songArtistUrl="" songAudioFileUrl="" stabilizationMode="0" mediaItemType="2" />
    <MediaItem id="606" filePath="C:\Users\owner\Documents\Work\Ising model\ising_animation\Ising animation (non-zip)\animations\ising_anim0606.png" arWidth="320" arHeight="240" duration="0" songTitle="" songArtist="" songAlbum="" songCopyrightUrl="" songArtistUrl="" songAudioFileUrl="" stabilizationMode="0" mediaItemType="2" />
    <MediaItem id="85" filePath="C:\Users\owner\Documents\Work\Ising model\ising_animation\Ising animation (non-zip)\animations\ising_anim0085.png" arWidth="320" arHeight="240" duration="0" songTitle="" songArtist="" songAlbum="" songCopyrightUrl="" songArtistUrl="" songAudioFileUrl="" stabilizationMode="0" mediaItemType="2" />
    <MediaItem id="607" filePath="C:\Users\owner\Documents\Work\Ising model\ising_animation\Ising animation (non-zip)\animations\ising_anim0607.png" arWidth="320" arHeight="240" duration="0" songTitle="" songArtist="" songAlbum="" songCopyrightUrl="" songArtistUrl="" songAudioFileUrl="" stabilizationMode="0" mediaItemType="2" />
    <MediaItem id="86" filePath="C:\Users\owner\Documents\Work\Ising model\ising_animation\Ising animation (non-zip)\animations\ising_anim0086.png" arWidth="320" arHeight="240" duration="0" songTitle="" songArtist="" songAlbum="" songCopyrightUrl="" songArtistUrl="" songAudioFileUrl="" stabilizationMode="0" mediaItemType="2" />
    <MediaItem id="608" filePath="C:\Users\owner\Documents\Work\Ising model\ising_animation\Ising animation (non-zip)\animations\ising_anim0608.png" arWidth="320" arHeight="240" duration="0" songTitle="" songArtist="" songAlbum="" songCopyrightUrl="" songArtistUrl="" songAudioFileUrl="" stabilizationMode="0" mediaItemType="2" />
    <MediaItem id="87" filePath="C:\Users\owner\Documents\Work\Ising model\ising_animation\Ising animation (non-zip)\animations\ising_anim0087.png" arWidth="320" arHeight="240" duration="0" songTitle="" songArtist="" songAlbum="" songCopyrightUrl="" songArtistUrl="" songAudioFileUrl="" stabilizationMode="0" mediaItemType="2" />
    <MediaItem id="609" filePath="C:\Users\owner\Documents\Work\Ising model\ising_animation\Ising animation (non-zip)\animations\ising_anim0609.png" arWidth="320" arHeight="240" duration="0" songTitle="" songArtist="" songAlbum="" songCopyrightUrl="" songArtistUrl="" songAudioFileUrl="" stabilizationMode="0" mediaItemType="2" />
    <MediaItem id="88" filePath="C:\Users\owner\Documents\Work\Ising model\ising_animation\Ising animation (non-zip)\animations\ising_anim0088.png" arWidth="320" arHeight="240" duration="0" songTitle="" songArtist="" songAlbum="" songCopyrightUrl="" songArtistUrl="" songAudioFileUrl="" stabilizationMode="0" mediaItemType="2" />
    <MediaItem id="610" filePath="C:\Users\owner\Documents\Work\Ising model\ising_animation\Ising animation (non-zip)\animations\ising_anim0610.png" arWidth="320" arHeight="240" duration="0" songTitle="" songArtist="" songAlbum="" songCopyrightUrl="" songArtistUrl="" songAudioFileUrl="" stabilizationMode="0" mediaItemType="2" />
    <MediaItem id="89" filePath="C:\Users\owner\Documents\Work\Ising model\ising_animation\Ising animation (non-zip)\animations\ising_anim0089.png" arWidth="320" arHeight="240" duration="0" songTitle="" songArtist="" songAlbum="" songCopyrightUrl="" songArtistUrl="" songAudioFileUrl="" stabilizationMode="0" mediaItemType="2" />
    <MediaItem id="611" filePath="C:\Users\owner\Documents\Work\Ising model\ising_animation\Ising animation (non-zip)\animations\ising_anim0611.png" arWidth="320" arHeight="240" duration="0" songTitle="" songArtist="" songAlbum="" songCopyrightUrl="" songArtistUrl="" songAudioFileUrl="" stabilizationMode="0" mediaItemType="2" />
    <MediaItem id="90" filePath="C:\Users\owner\Documents\Work\Ising model\ising_animation\Ising animation (non-zip)\animations\ising_anim0090.png" arWidth="320" arHeight="240" duration="0" songTitle="" songArtist="" songAlbum="" songCopyrightUrl="" songArtistUrl="" songAudioFileUrl="" stabilizationMode="0" mediaItemType="2" />
    <MediaItem id="612" filePath="C:\Users\owner\Documents\Work\Ising model\ising_animation\Ising animation (non-zip)\animations\ising_anim0612.png" arWidth="320" arHeight="240" duration="0" songTitle="" songArtist="" songAlbum="" songCopyrightUrl="" songArtistUrl="" songAudioFileUrl="" stabilizationMode="0" mediaItemType="2" />
    <MediaItem id="91" filePath="C:\Users\owner\Documents\Work\Ising model\ising_animation\Ising animation (non-zip)\animations\ising_anim0091.png" arWidth="320" arHeight="240" duration="0" songTitle="" songArtist="" songAlbum="" songCopyrightUrl="" songArtistUrl="" songAudioFileUrl="" stabilizationMode="0" mediaItemType="2" />
    <MediaItem id="613" filePath="C:\Users\owner\Documents\Work\Ising model\ising_animation\Ising animation (non-zip)\animations\ising_anim0613.png" arWidth="320" arHeight="240" duration="0" songTitle="" songArtist="" songAlbum="" songCopyrightUrl="" songArtistUrl="" songAudioFileUrl="" stabilizationMode="0" mediaItemType="2" />
    <MediaItem id="92" filePath="C:\Users\owner\Documents\Work\Ising model\ising_animation\Ising animation (non-zip)\animations\ising_anim0092.png" arWidth="320" arHeight="240" duration="0" songTitle="" songArtist="" songAlbum="" songCopyrightUrl="" songArtistUrl="" songAudioFileUrl="" stabilizationMode="0" mediaItemType="2" />
    <MediaItem id="614" filePath="C:\Users\owner\Documents\Work\Ising model\ising_animation\Ising animation (non-zip)\animations\ising_anim0614.png" arWidth="320" arHeight="240" duration="0" songTitle="" songArtist="" songAlbum="" songCopyrightUrl="" songArtistUrl="" songAudioFileUrl="" stabilizationMode="0" mediaItemType="2" />
    <MediaItem id="93" filePath="C:\Users\owner\Documents\Work\Ising model\ising_animation\Ising animation (non-zip)\animations\ising_anim0093.png" arWidth="320" arHeight="240" duration="0" songTitle="" songArtist="" songAlbum="" songCopyrightUrl="" songArtistUrl="" songAudioFileUrl="" stabilizationMode="0" mediaItemType="2" />
    <MediaItem id="615" filePath="C:\Users\owner\Documents\Work\Ising model\ising_animation\Ising animation (non-zip)\animations\ising_anim0615.png" arWidth="320" arHeight="240" duration="0" songTitle="" songArtist="" songAlbum="" songCopyrightUrl="" songArtistUrl="" songAudioFileUrl="" stabilizationMode="0" mediaItemType="2" />
    <MediaItem id="94" filePath="C:\Users\owner\Documents\Work\Ising model\ising_animation\Ising animation (non-zip)\animations\ising_anim0094.png" arWidth="320" arHeight="240" duration="0" songTitle="" songArtist="" songAlbum="" songCopyrightUrl="" songArtistUrl="" songAudioFileUrl="" stabilizationMode="0" mediaItemType="2" />
    <MediaItem id="616" filePath="C:\Users\owner\Documents\Work\Ising model\ising_animation\Ising animation (non-zip)\animations\ising_anim0616.png" arWidth="320" arHeight="240" duration="0" songTitle="" songArtist="" songAlbum="" songCopyrightUrl="" songArtistUrl="" songAudioFileUrl="" stabilizationMode="0" mediaItemType="2" />
    <MediaItem id="95" filePath="C:\Users\owner\Documents\Work\Ising model\ising_animation\Ising animation (non-zip)\animations\ising_anim0095.png" arWidth="320" arHeight="240" duration="0" songTitle="" songArtist="" songAlbum="" songCopyrightUrl="" songArtistUrl="" songAudioFileUrl="" stabilizationMode="0" mediaItemType="2" />
    <MediaItem id="617" filePath="C:\Users\owner\Documents\Work\Ising model\ising_animation\Ising animation (non-zip)\animations\ising_anim0617.png" arWidth="320" arHeight="240" duration="0" songTitle="" songArtist="" songAlbum="" songCopyrightUrl="" songArtistUrl="" songAudioFileUrl="" stabilizationMode="0" mediaItemType="2" />
    <MediaItem id="96" filePath="C:\Users\owner\Documents\Work\Ising model\ising_animation\Ising animation (non-zip)\animations\ising_anim0096.png" arWidth="320" arHeight="240" duration="0" songTitle="" songArtist="" songAlbum="" songCopyrightUrl="" songArtistUrl="" songAudioFileUrl="" stabilizationMode="0" mediaItemType="2" />
    <MediaItem id="618" filePath="C:\Users\owner\Documents\Work\Ising model\ising_animation\Ising animation (non-zip)\animations\ising_anim0618.png" arWidth="320" arHeight="240" duration="0" songTitle="" songArtist="" songAlbum="" songCopyrightUrl="" songArtistUrl="" songAudioFileUrl="" stabilizationMode="0" mediaItemType="2" />
    <MediaItem id="97" filePath="C:\Users\owner\Documents\Work\Ising model\ising_animation\Ising animation (non-zip)\animations\ising_anim0097.png" arWidth="320" arHeight="240" duration="0" songTitle="" songArtist="" songAlbum="" songCopyrightUrl="" songArtistUrl="" songAudioFileUrl="" stabilizationMode="0" mediaItemType="2" />
    <MediaItem id="619" filePath="C:\Users\owner\Documents\Work\Ising model\ising_animation\Ising animation (non-zip)\animations\ising_anim0619.png" arWidth="320" arHeight="240" duration="0" songTitle="" songArtist="" songAlbum="" songCopyrightUrl="" songArtistUrl="" songAudioFileUrl="" stabilizationMode="0" mediaItemType="2" />
    <MediaItem id="98" filePath="C:\Users\owner\Documents\Work\Ising model\ising_animation\Ising animation (non-zip)\animations\ising_anim0098.png" arWidth="320" arHeight="240" duration="0" songTitle="" songArtist="" songAlbum="" songCopyrightUrl="" songArtistUrl="" songAudioFileUrl="" stabilizationMode="0" mediaItemType="2" />
    <MediaItem id="620" filePath="C:\Users\owner\Documents\Work\Ising model\ising_animation\Ising animation (non-zip)\animations\ising_anim0620.png" arWidth="320" arHeight="240" duration="0" songTitle="" songArtist="" songAlbum="" songCopyrightUrl="" songArtistUrl="" songAudioFileUrl="" stabilizationMode="0" mediaItemType="2" />
    <MediaItem id="99" filePath="C:\Users\owner\Documents\Work\Ising model\ising_animation\Ising animation (non-zip)\animations\ising_anim0099.png" arWidth="320" arHeight="240" duration="0" songTitle="" songArtist="" songAlbum="" songCopyrightUrl="" songArtistUrl="" songAudioFileUrl="" stabilizationMode="0" mediaItemType="2" />
    <MediaItem id="621" filePath="C:\Users\owner\Documents\Work\Ising model\ising_animation\Ising animation (non-zip)\animations\ising_anim0621.png" arWidth="320" arHeight="240" duration="0" songTitle="" songArtist="" songAlbum="" songCopyrightUrl="" songArtistUrl="" songAudioFileUrl="" stabilizationMode="0" mediaItemType="2" />
    <MediaItem id="100" filePath="C:\Users\owner\Documents\Work\Ising model\ising_animation\Ising animation (non-zip)\animations\ising_anim0100.png" arWidth="320" arHeight="240" duration="0" songTitle="" songArtist="" songAlbum="" songCopyrightUrl="" songArtistUrl="" songAudioFileUrl="" stabilizationMode="0" mediaItemType="2" />
    <MediaItem id="622" filePath="C:\Users\owner\Documents\Work\Ising model\ising_animation\Ising animation (non-zip)\animations\ising_anim0622.png" arWidth="320" arHeight="240" duration="0" songTitle="" songArtist="" songAlbum="" songCopyrightUrl="" songArtistUrl="" songAudioFileUrl="" stabilizationMode="0" mediaItemType="2" />
    <MediaItem id="101" filePath="C:\Users\owner\Documents\Work\Ising model\ising_animation\Ising animation (non-zip)\animations\ising_anim0101.png" arWidth="320" arHeight="240" duration="0" songTitle="" songArtist="" songAlbum="" songCopyrightUrl="" songArtistUrl="" songAudioFileUrl="" stabilizationMode="0" mediaItemType="2" />
    <MediaItem id="623" filePath="C:\Users\owner\Documents\Work\Ising model\ising_animation\Ising animation (non-zip)\animations\ising_anim0623.png" arWidth="320" arHeight="240" duration="0" songTitle="" songArtist="" songAlbum="" songCopyrightUrl="" songArtistUrl="" songAudioFileUrl="" stabilizationMode="0" mediaItemType="2" />
    <MediaItem id="102" filePath="C:\Users\owner\Documents\Work\Ising model\ising_animation\Ising animation (non-zip)\animations\ising_anim0102.png" arWidth="320" arHeight="240" duration="0" songTitle="" songArtist="" songAlbum="" songCopyrightUrl="" songArtistUrl="" songAudioFileUrl="" stabilizationMode="0" mediaItemType="2" />
    <MediaItem id="624" filePath="C:\Users\owner\Documents\Work\Ising model\ising_animation\Ising animation (non-zip)\animations\ising_anim0624.png" arWidth="320" arHeight="240" duration="0" songTitle="" songArtist="" songAlbum="" songCopyrightUrl="" songArtistUrl="" songAudioFileUrl="" stabilizationMode="0" mediaItemType="2" />
    <MediaItem id="103" filePath="C:\Users\owner\Documents\Work\Ising model\ising_animation\Ising animation (non-zip)\animations\ising_anim0103.png" arWidth="320" arHeight="240" duration="0" songTitle="" songArtist="" songAlbum="" songCopyrightUrl="" songArtistUrl="" songAudioFileUrl="" stabilizationMode="0" mediaItemType="2" />
    <MediaItem id="625" filePath="C:\Users\owner\Documents\Work\Ising model\ising_animation\Ising animation (non-zip)\animations\ising_anim0625.png" arWidth="320" arHeight="240" duration="0" songTitle="" songArtist="" songAlbum="" songCopyrightUrl="" songArtistUrl="" songAudioFileUrl="" stabilizationMode="0" mediaItemType="2" />
    <MediaItem id="104" filePath="C:\Users\owner\Documents\Work\Ising model\ising_animation\Ising animation (non-zip)\animations\ising_anim0104.png" arWidth="320" arHeight="240" duration="0" songTitle="" songArtist="" songAlbum="" songCopyrightUrl="" songArtistUrl="" songAudioFileUrl="" stabilizationMode="0" mediaItemType="2" />
    <MediaItem id="626" filePath="C:\Users\owner\Documents\Work\Ising model\ising_animation\Ising animation (non-zip)\animations\ising_anim0626.png" arWidth="320" arHeight="240" duration="0" songTitle="" songArtist="" songAlbum="" songCopyrightUrl="" songArtistUrl="" songAudioFileUrl="" stabilizationMode="0" mediaItemType="2" />
    <MediaItem id="105" filePath="C:\Users\owner\Documents\Work\Ising model\ising_animation\Ising animation (non-zip)\animations\ising_anim0105.png" arWidth="320" arHeight="240" duration="0" songTitle="" songArtist="" songAlbum="" songCopyrightUrl="" songArtistUrl="" songAudioFileUrl="" stabilizationMode="0" mediaItemType="2" />
    <MediaItem id="627" filePath="C:\Users\owner\Documents\Work\Ising model\ising_animation\Ising animation (non-zip)\animations\ising_anim0627.png" arWidth="320" arHeight="240" duration="0" songTitle="" songArtist="" songAlbum="" songCopyrightUrl="" songArtistUrl="" songAudioFileUrl="" stabilizationMode="0" mediaItemType="2" />
    <MediaItem id="106" filePath="C:\Users\owner\Documents\Work\Ising model\ising_animation\Ising animation (non-zip)\animations\ising_anim0106.png" arWidth="320" arHeight="240" duration="0" songTitle="" songArtist="" songAlbum="" songCopyrightUrl="" songArtistUrl="" songAudioFileUrl="" stabilizationMode="0" mediaItemType="2" />
    <MediaItem id="628" filePath="C:\Users\owner\Documents\Work\Ising model\ising_animation\Ising animation (non-zip)\animations\ising_anim0628.png" arWidth="320" arHeight="240" duration="0" songTitle="" songArtist="" songAlbum="" songCopyrightUrl="" songArtistUrl="" songAudioFileUrl="" stabilizationMode="0" mediaItemType="2" />
    <MediaItem id="107" filePath="C:\Users\owner\Documents\Work\Ising model\ising_animation\Ising animation (non-zip)\animations\ising_anim0107.png" arWidth="320" arHeight="240" duration="0" songTitle="" songArtist="" songAlbum="" songCopyrightUrl="" songArtistUrl="" songAudioFileUrl="" stabilizationMode="0" mediaItemType="2" />
    <MediaItem id="629" filePath="C:\Users\owner\Documents\Work\Ising model\ising_animation\Ising animation (non-zip)\animations\ising_anim0629.png" arWidth="320" arHeight="240" duration="0" songTitle="" songArtist="" songAlbum="" songCopyrightUrl="" songArtistUrl="" songAudioFileUrl="" stabilizationMode="0" mediaItemType="2" />
    <MediaItem id="108" filePath="C:\Users\owner\Documents\Work\Ising model\ising_animation\Ising animation (non-zip)\animations\ising_anim0108.png" arWidth="320" arHeight="240" duration="0" songTitle="" songArtist="" songAlbum="" songCopyrightUrl="" songArtistUrl="" songAudioFileUrl="" stabilizationMode="0" mediaItemType="2" />
    <MediaItem id="630" filePath="C:\Users\owner\Documents\Work\Ising model\ising_animation\Ising animation (non-zip)\animations\ising_anim0630.png" arWidth="320" arHeight="240" duration="0" songTitle="" songArtist="" songAlbum="" songCopyrightUrl="" songArtistUrl="" songAudioFileUrl="" stabilizationMode="0" mediaItemType="2" />
    <MediaItem id="109" filePath="C:\Users\owner\Documents\Work\Ising model\ising_animation\Ising animation (non-zip)\animations\ising_anim0109.png" arWidth="320" arHeight="240" duration="0" songTitle="" songArtist="" songAlbum="" songCopyrightUrl="" songArtistUrl="" songAudioFileUrl="" stabilizationMode="0" mediaItemType="2" />
    <MediaItem id="631" filePath="C:\Users\owner\Documents\Work\Ising model\ising_animation\Ising animation (non-zip)\animations\ising_anim0631.png" arWidth="320" arHeight="240" duration="0" songTitle="" songArtist="" songAlbum="" songCopyrightUrl="" songArtistUrl="" songAudioFileUrl="" stabilizationMode="0" mediaItemType="2" />
    <MediaItem id="110" filePath="C:\Users\owner\Documents\Work\Ising model\ising_animation\Ising animation (non-zip)\animations\ising_anim0110.png" arWidth="320" arHeight="240" duration="0" songTitle="" songArtist="" songAlbum="" songCopyrightUrl="" songArtistUrl="" songAudioFileUrl="" stabilizationMode="0" mediaItemType="2" />
    <MediaItem id="632" filePath="C:\Users\owner\Documents\Work\Ising model\ising_animation\Ising animation (non-zip)\animations\ising_anim0632.png" arWidth="320" arHeight="240" duration="0" songTitle="" songArtist="" songAlbum="" songCopyrightUrl="" songArtistUrl="" songAudioFileUrl="" stabilizationMode="0" mediaItemType="2" />
    <MediaItem id="111" filePath="C:\Users\owner\Documents\Work\Ising model\ising_animation\Ising animation (non-zip)\animations\ising_anim0111.png" arWidth="320" arHeight="240" duration="0" songTitle="" songArtist="" songAlbum="" songCopyrightUrl="" songArtistUrl="" songAudioFileUrl="" stabilizationMode="0" mediaItemType="2" />
    <MediaItem id="633" filePath="C:\Users\owner\Documents\Work\Ising model\ising_animation\Ising animation (non-zip)\animations\ising_anim0633.png" arWidth="320" arHeight="240" duration="0" songTitle="" songArtist="" songAlbum="" songCopyrightUrl="" songArtistUrl="" songAudioFileUrl="" stabilizationMode="0" mediaItemType="2" />
    <MediaItem id="112" filePath="C:\Users\owner\Documents\Work\Ising model\ising_animation\Ising animation (non-zip)\animations\ising_anim0112.png" arWidth="320" arHeight="240" duration="0" songTitle="" songArtist="" songAlbum="" songCopyrightUrl="" songArtistUrl="" songAudioFileUrl="" stabilizationMode="0" mediaItemType="2" />
    <MediaItem id="634" filePath="C:\Users\owner\Documents\Work\Ising model\ising_animation\Ising animation (non-zip)\animations\ising_anim0634.png" arWidth="320" arHeight="240" duration="0" songTitle="" songArtist="" songAlbum="" songCopyrightUrl="" songArtistUrl="" songAudioFileUrl="" stabilizationMode="0" mediaItemType="2" />
    <MediaItem id="113" filePath="C:\Users\owner\Documents\Work\Ising model\ising_animation\Ising animation (non-zip)\animations\ising_anim0113.png" arWidth="320" arHeight="240" duration="0" songTitle="" songArtist="" songAlbum="" songCopyrightUrl="" songArtistUrl="" songAudioFileUrl="" stabilizationMode="0" mediaItemType="2" />
    <MediaItem id="635" filePath="C:\Users\owner\Documents\Work\Ising model\ising_animation\Ising animation (non-zip)\animations\ising_anim0635.png" arWidth="320" arHeight="240" duration="0" songTitle="" songArtist="" songAlbum="" songCopyrightUrl="" songArtistUrl="" songAudioFileUrl="" stabilizationMode="0" mediaItemType="2" />
    <MediaItem id="114" filePath="C:\Users\owner\Documents\Work\Ising model\ising_animation\Ising animation (non-zip)\animations\ising_anim0114.png" arWidth="320" arHeight="240" duration="0" songTitle="" songArtist="" songAlbum="" songCopyrightUrl="" songArtistUrl="" songAudioFileUrl="" stabilizationMode="0" mediaItemType="2" />
    <MediaItem id="636" filePath="C:\Users\owner\Documents\Work\Ising model\ising_animation\Ising animation (non-zip)\animations\ising_anim0636.png" arWidth="320" arHeight="240" duration="0" songTitle="" songArtist="" songAlbum="" songCopyrightUrl="" songArtistUrl="" songAudioFileUrl="" stabilizationMode="0" mediaItemType="2" />
    <MediaItem id="115" filePath="C:\Users\owner\Documents\Work\Ising model\ising_animation\Ising animation (non-zip)\animations\ising_anim0115.png" arWidth="320" arHeight="240" duration="0" songTitle="" songArtist="" songAlbum="" songCopyrightUrl="" songArtistUrl="" songAudioFileUrl="" stabilizationMode="0" mediaItemType="2" />
    <MediaItem id="637" filePath="C:\Users\owner\Documents\Work\Ising model\ising_animation\Ising animation (non-zip)\animations\ising_anim0637.png" arWidth="320" arHeight="240" duration="0" songTitle="" songArtist="" songAlbum="" songCopyrightUrl="" songArtistUrl="" songAudioFileUrl="" stabilizationMode="0" mediaItemType="2" />
    <MediaItem id="116" filePath="C:\Users\owner\Documents\Work\Ising model\ising_animation\Ising animation (non-zip)\animations\ising_anim0116.png" arWidth="320" arHeight="240" duration="0" songTitle="" songArtist="" songAlbum="" songCopyrightUrl="" songArtistUrl="" songAudioFileUrl="" stabilizationMode="0" mediaItemType="2" />
    <MediaItem id="638" filePath="C:\Users\owner\Documents\Work\Ising model\ising_animation\Ising animation (non-zip)\animations\ising_anim0638.png" arWidth="320" arHeight="240" duration="0" songTitle="" songArtist="" songAlbum="" songCopyrightUrl="" songArtistUrl="" songAudioFileUrl="" stabilizationMode="0" mediaItemType="2" />
    <MediaItem id="117" filePath="C:\Users\owner\Documents\Work\Ising model\ising_animation\Ising animation (non-zip)\animations\ising_anim0117.png" arWidth="320" arHeight="240" duration="0" songTitle="" songArtist="" songAlbum="" songCopyrightUrl="" songArtistUrl="" songAudioFileUrl="" stabilizationMode="0" mediaItemType="2" />
    <MediaItem id="639" filePath="C:\Users\owner\Documents\Work\Ising model\ising_animation\Ising animation (non-zip)\animations\ising_anim0639.png" arWidth="320" arHeight="240" duration="0" songTitle="" songArtist="" songAlbum="" songCopyrightUrl="" songArtistUrl="" songAudioFileUrl="" stabilizationMode="0" mediaItemType="2" />
    <MediaItem id="118" filePath="C:\Users\owner\Documents\Work\Ising model\ising_animation\Ising animation (non-zip)\animations\ising_anim0118.png" arWidth="320" arHeight="240" duration="0" songTitle="" songArtist="" songAlbum="" songCopyrightUrl="" songArtistUrl="" songAudioFileUrl="" stabilizationMode="0" mediaItemType="2" />
    <MediaItem id="640" filePath="C:\Users\owner\Documents\Work\Ising model\ising_animation\Ising animation (non-zip)\animations\ising_anim0640.png" arWidth="320" arHeight="240" duration="0" songTitle="" songArtist="" songAlbum="" songCopyrightUrl="" songArtistUrl="" songAudioFileUrl="" stabilizationMode="0" mediaItemType="2" />
    <MediaItem id="119" filePath="C:\Users\owner\Documents\Work\Ising model\ising_animation\Ising animation (non-zip)\animations\ising_anim0119.png" arWidth="320" arHeight="240" duration="0" songTitle="" songArtist="" songAlbum="" songCopyrightUrl="" songArtistUrl="" songAudioFileUrl="" stabilizationMode="0" mediaItemType="2" />
    <MediaItem id="641" filePath="C:\Users\owner\Documents\Work\Ising model\ising_animation\Ising animation (non-zip)\animations\ising_anim0641.png" arWidth="320" arHeight="240" duration="0" songTitle="" songArtist="" songAlbum="" songCopyrightUrl="" songArtistUrl="" songAudioFileUrl="" stabilizationMode="0" mediaItemType="2" />
    <MediaItem id="120" filePath="C:\Users\owner\Documents\Work\Ising model\ising_animation\Ising animation (non-zip)\animations\ising_anim0120.png" arWidth="320" arHeight="240" duration="0" songTitle="" songArtist="" songAlbum="" songCopyrightUrl="" songArtistUrl="" songAudioFileUrl="" stabilizationMode="0" mediaItemType="2" />
    <MediaItem id="642" filePath="C:\Users\owner\Documents\Work\Ising model\ising_animation\Ising animation (non-zip)\animations\ising_anim0642.png" arWidth="320" arHeight="240" duration="0" songTitle="" songArtist="" songAlbum="" songCopyrightUrl="" songArtistUrl="" songAudioFileUrl="" stabilizationMode="0" mediaItemType="2" />
    <MediaItem id="121" filePath="C:\Users\owner\Documents\Work\Ising model\ising_animation\Ising animation (non-zip)\animations\ising_anim0121.png" arWidth="320" arHeight="240" duration="0" songTitle="" songArtist="" songAlbum="" songCopyrightUrl="" songArtistUrl="" songAudioFileUrl="" stabilizationMode="0" mediaItemType="2" />
    <MediaItem id="643" filePath="C:\Users\owner\Documents\Work\Ising model\ising_animation\Ising animation (non-zip)\animations\ising_anim0643.png" arWidth="320" arHeight="240" duration="0" songTitle="" songArtist="" songAlbum="" songCopyrightUrl="" songArtistUrl="" songAudioFileUrl="" stabilizationMode="0" mediaItemType="2" />
    <MediaItem id="122" filePath="C:\Users\owner\Documents\Work\Ising model\ising_animation\Ising animation (non-zip)\animations\ising_anim0122.png" arWidth="320" arHeight="240" duration="0" songTitle="" songArtist="" songAlbum="" songCopyrightUrl="" songArtistUrl="" songAudioFileUrl="" stabilizationMode="0" mediaItemType="2" />
    <MediaItem id="644" filePath="C:\Users\owner\Documents\Work\Ising model\ising_animation\Ising animation (non-zip)\animations\ising_anim0644.png" arWidth="320" arHeight="240" duration="0" songTitle="" songArtist="" songAlbum="" songCopyrightUrl="" songArtistUrl="" songAudioFileUrl="" stabilizationMode="0" mediaItemType="2" />
    <MediaItem id="123" filePath="C:\Users\owner\Documents\Work\Ising model\ising_animation\Ising animation (non-zip)\animations\ising_anim0123.png" arWidth="320" arHeight="240" duration="0" songTitle="" songArtist="" songAlbum="" songCopyrightUrl="" songArtistUrl="" songAudioFileUrl="" stabilizationMode="0" mediaItemType="2" />
    <MediaItem id="645" filePath="C:\Users\owner\Documents\Work\Ising model\ising_animation\Ising animation (non-zip)\animations\ising_anim0645.png" arWidth="320" arHeight="240" duration="0" songTitle="" songArtist="" songAlbum="" songCopyrightUrl="" songArtistUrl="" songAudioFileUrl="" stabilizationMode="0" mediaItemType="2" />
    <MediaItem id="124" filePath="C:\Users\owner\Documents\Work\Ising model\ising_animation\Ising animation (non-zip)\animations\ising_anim0124.png" arWidth="320" arHeight="240" duration="0" songTitle="" songArtist="" songAlbum="" songCopyrightUrl="" songArtistUrl="" songAudioFileUrl="" stabilizationMode="0" mediaItemType="2" />
    <MediaItem id="646" filePath="C:\Users\owner\Documents\Work\Ising model\ising_animation\Ising animation (non-zip)\animations\ising_anim0646.png" arWidth="320" arHeight="240" duration="0" songTitle="" songArtist="" songAlbum="" songCopyrightUrl="" songArtistUrl="" songAudioFileUrl="" stabilizationMode="0" mediaItemType="2" />
    <MediaItem id="125" filePath="C:\Users\owner\Documents\Work\Ising model\ising_animation\Ising animation (non-zip)\animations\ising_anim0125.png" arWidth="320" arHeight="240" duration="0" songTitle="" songArtist="" songAlbum="" songCopyrightUrl="" songArtistUrl="" songAudioFileUrl="" stabilizationMode="0" mediaItemType="2" />
    <MediaItem id="647" filePath="C:\Users\owner\Documents\Work\Ising model\ising_animation\Ising animation (non-zip)\animations\ising_anim0647.png" arWidth="320" arHeight="240" duration="0" songTitle="" songArtist="" songAlbum="" songCopyrightUrl="" songArtistUrl="" songAudioFileUrl="" stabilizationMode="0" mediaItemType="2" />
    <MediaItem id="126" filePath="C:\Users\owner\Documents\Work\Ising model\ising_animation\Ising animation (non-zip)\animations\ising_anim0126.png" arWidth="320" arHeight="240" duration="0" songTitle="" songArtist="" songAlbum="" songCopyrightUrl="" songArtistUrl="" songAudioFileUrl="" stabilizationMode="0" mediaItemType="2" />
    <MediaItem id="648" filePath="C:\Users\owner\Documents\Work\Ising model\ising_animation\Ising animation (non-zip)\animations\ising_anim0648.png" arWidth="320" arHeight="240" duration="0" songTitle="" songArtist="" songAlbum="" songCopyrightUrl="" songArtistUrl="" songAudioFileUrl="" stabilizationMode="0" mediaItemType="2" />
    <MediaItem id="127" filePath="C:\Users\owner\Documents\Work\Ising model\ising_animation\Ising animation (non-zip)\animations\ising_anim0127.png" arWidth="320" arHeight="240" duration="0" songTitle="" songArtist="" songAlbum="" songCopyrightUrl="" songArtistUrl="" songAudioFileUrl="" stabilizationMode="0" mediaItemType="2" />
    <MediaItem id="649" filePath="C:\Users\owner\Documents\Work\Ising model\ising_animation\Ising animation (non-zip)\animations\ising_anim0649.png" arWidth="320" arHeight="240" duration="0" songTitle="" songArtist="" songAlbum="" songCopyrightUrl="" songArtistUrl="" songAudioFileUrl="" stabilizationMode="0" mediaItemType="2" />
    <MediaItem id="128" filePath="C:\Users\owner\Documents\Work\Ising model\ising_animation\Ising animation (non-zip)\animations\ising_anim0128.png" arWidth="320" arHeight="240" duration="0" songTitle="" songArtist="" songAlbum="" songCopyrightUrl="" songArtistUrl="" songAudioFileUrl="" stabilizationMode="0" mediaItemType="2" />
    <MediaItem id="650" filePath="C:\Users\owner\Documents\Work\Ising model\ising_animation\Ising animation (non-zip)\animations\ising_anim0650.png" arWidth="320" arHeight="240" duration="0" songTitle="" songArtist="" songAlbum="" songCopyrightUrl="" songArtistUrl="" songAudioFileUrl="" stabilizationMode="0" mediaItemType="2" />
    <MediaItem id="129" filePath="C:\Users\owner\Documents\Work\Ising model\ising_animation\Ising animation (non-zip)\animations\ising_anim0129.png" arWidth="320" arHeight="240" duration="0" songTitle="" songArtist="" songAlbum="" songCopyrightUrl="" songArtistUrl="" songAudioFileUrl="" stabilizationMode="0" mediaItemType="2" />
    <MediaItem id="651" filePath="C:\Users\owner\Documents\Work\Ising model\ising_animation\Ising animation (non-zip)\animations\ising_anim0651.png" arWidth="320" arHeight="240" duration="0" songTitle="" songArtist="" songAlbum="" songCopyrightUrl="" songArtistUrl="" songAudioFileUrl="" stabilizationMode="0" mediaItemType="2" />
    <MediaItem id="130" filePath="C:\Users\owner\Documents\Work\Ising model\ising_animation\Ising animation (non-zip)\animations\ising_anim0130.png" arWidth="320" arHeight="240" duration="0" songTitle="" songArtist="" songAlbum="" songCopyrightUrl="" songArtistUrl="" songAudioFileUrl="" stabilizationMode="0" mediaItemType="2" />
    <MediaItem id="652" filePath="C:\Users\owner\Documents\Work\Ising model\ising_animation\Ising animation (non-zip)\animations\ising_anim0652.png" arWidth="320" arHeight="240" duration="0" songTitle="" songArtist="" songAlbum="" songCopyrightUrl="" songArtistUrl="" songAudioFileUrl="" stabilizationMode="0" mediaItemType="2" />
    <MediaItem id="131" filePath="C:\Users\owner\Documents\Work\Ising model\ising_animation\Ising animation (non-zip)\animations\ising_anim0131.png" arWidth="320" arHeight="240" duration="0" songTitle="" songArtist="" songAlbum="" songCopyrightUrl="" songArtistUrl="" songAudioFileUrl="" stabilizationMode="0" mediaItemType="2" />
    <MediaItem id="653" filePath="C:\Users\owner\Documents\Work\Ising model\ising_animation\Ising animation (non-zip)\animations\ising_anim0653.png" arWidth="320" arHeight="240" duration="0" songTitle="" songArtist="" songAlbum="" songCopyrightUrl="" songArtistUrl="" songAudioFileUrl="" stabilizationMode="0" mediaItemType="2" />
    <MediaItem id="132" filePath="C:\Users\owner\Documents\Work\Ising model\ising_animation\Ising animation (non-zip)\animations\ising_anim0132.png" arWidth="320" arHeight="240" duration="0" songTitle="" songArtist="" songAlbum="" songCopyrightUrl="" songArtistUrl="" songAudioFileUrl="" stabilizationMode="0" mediaItemType="2" />
    <MediaItem id="654" filePath="C:\Users\owner\Documents\Work\Ising model\ising_animation\Ising animation (non-zip)\animations\ising_anim0654.png" arWidth="320" arHeight="240" duration="0" songTitle="" songArtist="" songAlbum="" songCopyrightUrl="" songArtistUrl="" songAudioFileUrl="" stabilizationMode="0" mediaItemType="2" />
    <MediaItem id="133" filePath="C:\Users\owner\Documents\Work\Ising model\ising_animation\Ising animation (non-zip)\animations\ising_anim0133.png" arWidth="320" arHeight="240" duration="0" songTitle="" songArtist="" songAlbum="" songCopyrightUrl="" songArtistUrl="" songAudioFileUrl="" stabilizationMode="0" mediaItemType="2" />
    <MediaItem id="655" filePath="C:\Users\owner\Documents\Work\Ising model\ising_animation\Ising animation (non-zip)\animations\ising_anim0655.png" arWidth="320" arHeight="240" duration="0" songTitle="" songArtist="" songAlbum="" songCopyrightUrl="" songArtistUrl="" songAudioFileUrl="" stabilizationMode="0" mediaItemType="2" />
    <MediaItem id="134" filePath="C:\Users\owner\Documents\Work\Ising model\ising_animation\Ising animation (non-zip)\animations\ising_anim0134.png" arWidth="320" arHeight="240" duration="0" songTitle="" songArtist="" songAlbum="" songCopyrightUrl="" songArtistUrl="" songAudioFileUrl="" stabilizationMode="0" mediaItemType="2" />
    <MediaItem id="656" filePath="C:\Users\owner\Documents\Work\Ising model\ising_animation\Ising animation (non-zip)\animations\ising_anim0656.png" arWidth="320" arHeight="240" duration="0" songTitle="" songArtist="" songAlbum="" songCopyrightUrl="" songArtistUrl="" songAudioFileUrl="" stabilizationMode="0" mediaItemType="2" />
    <MediaItem id="135" filePath="C:\Users\owner\Documents\Work\Ising model\ising_animation\Ising animation (non-zip)\animations\ising_anim0135.png" arWidth="320" arHeight="240" duration="0" songTitle="" songArtist="" songAlbum="" songCopyrightUrl="" songArtistUrl="" songAudioFileUrl="" stabilizationMode="0" mediaItemType="2" />
    <MediaItem id="657" filePath="C:\Users\owner\Documents\Work\Ising model\ising_animation\Ising animation (non-zip)\animations\ising_anim0657.png" arWidth="320" arHeight="240" duration="0" songTitle="" songArtist="" songAlbum="" songCopyrightUrl="" songArtistUrl="" songAudioFileUrl="" stabilizationMode="0" mediaItemType="2" />
    <MediaItem id="136" filePath="C:\Users\owner\Documents\Work\Ising model\ising_animation\Ising animation (non-zip)\animations\ising_anim0136.png" arWidth="320" arHeight="240" duration="0" songTitle="" songArtist="" songAlbum="" songCopyrightUrl="" songArtistUrl="" songAudioFileUrl="" stabilizationMode="0" mediaItemType="2" />
    <MediaItem id="658" filePath="C:\Users\owner\Documents\Work\Ising model\ising_animation\Ising animation (non-zip)\animations\ising_anim0658.png" arWidth="320" arHeight="240" duration="0" songTitle="" songArtist="" songAlbum="" songCopyrightUrl="" songArtistUrl="" songAudioFileUrl="" stabilizationMode="0" mediaItemType="2" />
    <MediaItem id="137" filePath="C:\Users\owner\Documents\Work\Ising model\ising_animation\Ising animation (non-zip)\animations\ising_anim0137.png" arWidth="320" arHeight="240" duration="0" songTitle="" songArtist="" songAlbum="" songCopyrightUrl="" songArtistUrl="" songAudioFileUrl="" stabilizationMode="0" mediaItemType="2" />
    <MediaItem id="659" filePath="C:\Users\owner\Documents\Work\Ising model\ising_animation\Ising animation (non-zip)\animations\ising_anim0659.png" arWidth="320" arHeight="240" duration="0" songTitle="" songArtist="" songAlbum="" songCopyrightUrl="" songArtistUrl="" songAudioFileUrl="" stabilizationMode="0" mediaItemType="2" />
    <MediaItem id="138" filePath="C:\Users\owner\Documents\Work\Ising model\ising_animation\Ising animation (non-zip)\animations\ising_anim0138.png" arWidth="320" arHeight="240" duration="0" songTitle="" songArtist="" songAlbum="" songCopyrightUrl="" songArtistUrl="" songAudioFileUrl="" stabilizationMode="0" mediaItemType="2" />
    <MediaItem id="660" filePath="C:\Users\owner\Documents\Work\Ising model\ising_animation\Ising animation (non-zip)\animations\ising_anim0660.png" arWidth="320" arHeight="240" duration="0" songTitle="" songArtist="" songAlbum="" songCopyrightUrl="" songArtistUrl="" songAudioFileUrl="" stabilizationMode="0" mediaItemType="2" />
    <MediaItem id="139" filePath="C:\Users\owner\Documents\Work\Ising model\ising_animation\Ising animation (non-zip)\animations\ising_anim0139.png" arWidth="320" arHeight="240" duration="0" songTitle="" songArtist="" songAlbum="" songCopyrightUrl="" songArtistUrl="" songAudioFileUrl="" stabilizationMode="0" mediaItemType="2" />
    <MediaItem id="661" filePath="C:\Users\owner\Documents\Work\Ising model\ising_animation\Ising animation (non-zip)\animations\ising_anim0661.png" arWidth="320" arHeight="240" duration="0" songTitle="" songArtist="" songAlbum="" songCopyrightUrl="" songArtistUrl="" songAudioFileUrl="" stabilizationMode="0" mediaItemType="2" />
    <MediaItem id="140" filePath="C:\Users\owner\Documents\Work\Ising model\ising_animation\Ising animation (non-zip)\animations\ising_anim0140.png" arWidth="320" arHeight="240" duration="0" songTitle="" songArtist="" songAlbum="" songCopyrightUrl="" songArtistUrl="" songAudioFileUrl="" stabilizationMode="0" mediaItemType="2" />
    <MediaItem id="662" filePath="C:\Users\owner\Documents\Work\Ising model\ising_animation\Ising animation (non-zip)\animations\ising_anim0662.png" arWidth="320" arHeight="240" duration="0" songTitle="" songArtist="" songAlbum="" songCopyrightUrl="" songArtistUrl="" songAudioFileUrl="" stabilizationMode="0" mediaItemType="2" />
    <MediaItem id="141" filePath="C:\Users\owner\Documents\Work\Ising model\ising_animation\Ising animation (non-zip)\animations\ising_anim0141.png" arWidth="320" arHeight="240" duration="0" songTitle="" songArtist="" songAlbum="" songCopyrightUrl="" songArtistUrl="" songAudioFileUrl="" stabilizationMode="0" mediaItemType="2" />
    <MediaItem id="663" filePath="C:\Users\owner\Documents\Work\Ising model\ising_animation\Ising animation (non-zip)\animations\ising_anim0663.png" arWidth="320" arHeight="240" duration="0" songTitle="" songArtist="" songAlbum="" songCopyrightUrl="" songArtistUrl="" songAudioFileUrl="" stabilizationMode="0" mediaItemType="2" />
    <MediaItem id="142" filePath="C:\Users\owner\Documents\Work\Ising model\ising_animation\Ising animation (non-zip)\animations\ising_anim0142.png" arWidth="320" arHeight="240" duration="0" songTitle="" songArtist="" songAlbum="" songCopyrightUrl="" songArtistUrl="" songAudioFileUrl="" stabilizationMode="0" mediaItemType="2" />
    <MediaItem id="664" filePath="C:\Users\owner\Documents\Work\Ising model\ising_animation\Ising animation (non-zip)\animations\ising_anim0664.png" arWidth="320" arHeight="240" duration="0" songTitle="" songArtist="" songAlbum="" songCopyrightUrl="" songArtistUrl="" songAudioFileUrl="" stabilizationMode="0" mediaItemType="2" />
    <MediaItem id="143" filePath="C:\Users\owner\Documents\Work\Ising model\ising_animation\Ising animation (non-zip)\animations\ising_anim0143.png" arWidth="320" arHeight="240" duration="0" songTitle="" songArtist="" songAlbum="" songCopyrightUrl="" songArtistUrl="" songAudioFileUrl="" stabilizationMode="0" mediaItemType="2" />
    <MediaItem id="665" filePath="C:\Users\owner\Documents\Work\Ising model\ising_animation\Ising animation (non-zip)\animations\ising_anim0665.png" arWidth="320" arHeight="240" duration="0" songTitle="" songArtist="" songAlbum="" songCopyrightUrl="" songArtistUrl="" songAudioFileUrl="" stabilizationMode="0" mediaItemType="2" />
    <MediaItem id="144" filePath="C:\Users\owner\Documents\Work\Ising model\ising_animation\Ising animation (non-zip)\animations\ising_anim0144.png" arWidth="320" arHeight="240" duration="0" songTitle="" songArtist="" songAlbum="" songCopyrightUrl="" songArtistUrl="" songAudioFileUrl="" stabilizationMode="0" mediaItemType="2" />
    <MediaItem id="666" filePath="C:\Users\owner\Documents\Work\Ising model\ising_animation\Ising animation (non-zip)\animations\ising_anim0666.png" arWidth="320" arHeight="240" duration="0" songTitle="" songArtist="" songAlbum="" songCopyrightUrl="" songArtistUrl="" songAudioFileUrl="" stabilizationMode="0" mediaItemType="2" />
    <MediaItem id="145" filePath="C:\Users\owner\Documents\Work\Ising model\ising_animation\Ising animation (non-zip)\animations\ising_anim0145.png" arWidth="320" arHeight="240" duration="0" songTitle="" songArtist="" songAlbum="" songCopyrightUrl="" songArtistUrl="" songAudioFileUrl="" stabilizationMode="0" mediaItemType="2" />
    <MediaItem id="667" filePath="C:\Users\owner\Documents\Work\Ising model\ising_animation\Ising animation (non-zip)\animations\ising_anim0667.png" arWidth="320" arHeight="240" duration="0" songTitle="" songArtist="" songAlbum="" songCopyrightUrl="" songArtistUrl="" songAudioFileUrl="" stabilizationMode="0" mediaItemType="2" />
    <MediaItem id="146" filePath="C:\Users\owner\Documents\Work\Ising model\ising_animation\Ising animation (non-zip)\animations\ising_anim0146.png" arWidth="320" arHeight="240" duration="0" songTitle="" songArtist="" songAlbum="" songCopyrightUrl="" songArtistUrl="" songAudioFileUrl="" stabilizationMode="0" mediaItemType="2" />
    <MediaItem id="668" filePath="C:\Users\owner\Documents\Work\Ising model\ising_animation\Ising animation (non-zip)\animations\ising_anim0668.png" arWidth="320" arHeight="240" duration="0" songTitle="" songArtist="" songAlbum="" songCopyrightUrl="" songArtistUrl="" songAudioFileUrl="" stabilizationMode="0" mediaItemType="2" />
    <MediaItem id="147" filePath="C:\Users\owner\Documents\Work\Ising model\ising_animation\Ising animation (non-zip)\animations\ising_anim0147.png" arWidth="320" arHeight="240" duration="0" songTitle="" songArtist="" songAlbum="" songCopyrightUrl="" songArtistUrl="" songAudioFileUrl="" stabilizationMode="0" mediaItemType="2" />
    <MediaItem id="669" filePath="C:\Users\owner\Documents\Work\Ising model\ising_animation\Ising animation (non-zip)\animations\ising_anim0669.png" arWidth="320" arHeight="240" duration="0" songTitle="" songArtist="" songAlbum="" songCopyrightUrl="" songArtistUrl="" songAudioFileUrl="" stabilizationMode="0" mediaItemType="2" />
    <MediaItem id="148" filePath="C:\Users\owner\Documents\Work\Ising model\ising_animation\Ising animation (non-zip)\animations\ising_anim0148.png" arWidth="320" arHeight="240" duration="0" songTitle="" songArtist="" songAlbum="" songCopyrightUrl="" songArtistUrl="" songAudioFileUrl="" stabilizationMode="0" mediaItemType="2" />
    <MediaItem id="670" filePath="C:\Users\owner\Documents\Work\Ising model\ising_animation\Ising animation (non-zip)\animations\ising_anim0670.png" arWidth="320" arHeight="240" duration="0" songTitle="" songArtist="" songAlbum="" songCopyrightUrl="" songArtistUrl="" songAudioFileUrl="" stabilizationMode="0" mediaItemType="2" />
    <MediaItem id="149" filePath="C:\Users\owner\Documents\Work\Ising model\ising_animation\Ising animation (non-zip)\animations\ising_anim0149.png" arWidth="320" arHeight="240" duration="0" songTitle="" songArtist="" songAlbum="" songCopyrightUrl="" songArtistUrl="" songAudioFileUrl="" stabilizationMode="0" mediaItemType="2" />
    <MediaItem id="671" filePath="C:\Users\owner\Documents\Work\Ising model\ising_animation\Ising animation (non-zip)\animations\ising_anim0671.png" arWidth="320" arHeight="240" duration="0" songTitle="" songArtist="" songAlbum="" songCopyrightUrl="" songArtistUrl="" songAudioFileUrl="" stabilizationMode="0" mediaItemType="2" />
    <MediaItem id="150" filePath="C:\Users\owner\Documents\Work\Ising model\ising_animation\Ising animation (non-zip)\animations\ising_anim0150.png" arWidth="320" arHeight="240" duration="0" songTitle="" songArtist="" songAlbum="" songCopyrightUrl="" songArtistUrl="" songAudioFileUrl="" stabilizationMode="0" mediaItemType="2" />
    <MediaItem id="672" filePath="C:\Users\owner\Documents\Work\Ising model\ising_animation\Ising animation (non-zip)\animations\ising_anim0672.png" arWidth="320" arHeight="240" duration="0" songTitle="" songArtist="" songAlbum="" songCopyrightUrl="" songArtistUrl="" songAudioFileUrl="" stabilizationMode="0" mediaItemType="2" />
    <MediaItem id="151" filePath="C:\Users\owner\Documents\Work\Ising model\ising_animation\Ising animation (non-zip)\animations\ising_anim0151.png" arWidth="320" arHeight="240" duration="0" songTitle="" songArtist="" songAlbum="" songCopyrightUrl="" songArtistUrl="" songAudioFileUrl="" stabilizationMode="0" mediaItemType="2" />
    <MediaItem id="673" filePath="C:\Users\owner\Documents\Work\Ising model\ising_animation\Ising animation (non-zip)\animations\ising_anim0673.png" arWidth="320" arHeight="240" duration="0" songTitle="" songArtist="" songAlbum="" songCopyrightUrl="" songArtistUrl="" songAudioFileUrl="" stabilizationMode="0" mediaItemType="2" />
    <MediaItem id="152" filePath="C:\Users\owner\Documents\Work\Ising model\ising_animation\Ising animation (non-zip)\animations\ising_anim0152.png" arWidth="320" arHeight="240" duration="0" songTitle="" songArtist="" songAlbum="" songCopyrightUrl="" songArtistUrl="" songAudioFileUrl="" stabilizationMode="0" mediaItemType="2" />
    <MediaItem id="674" filePath="C:\Users\owner\Documents\Work\Ising model\ising_animation\Ising animation (non-zip)\animations\ising_anim0674.png" arWidth="320" arHeight="240" duration="0" songTitle="" songArtist="" songAlbum="" songCopyrightUrl="" songArtistUrl="" songAudioFileUrl="" stabilizationMode="0" mediaItemType="2" />
    <MediaItem id="153" filePath="C:\Users\owner\Documents\Work\Ising model\ising_animation\Ising animation (non-zip)\animations\ising_anim0153.png" arWidth="320" arHeight="240" duration="0" songTitle="" songArtist="" songAlbum="" songCopyrightUrl="" songArtistUrl="" songAudioFileUrl="" stabilizationMode="0" mediaItemType="2" />
    <MediaItem id="675" filePath="C:\Users\owner\Documents\Work\Ising model\ising_animation\Ising animation (non-zip)\animations\ising_anim0675.png" arWidth="320" arHeight="240" duration="0" songTitle="" songArtist="" songAlbum="" songCopyrightUrl="" songArtistUrl="" songAudioFileUrl="" stabilizationMode="0" mediaItemType="2" />
    <MediaItem id="154" filePath="C:\Users\owner\Documents\Work\Ising model\ising_animation\Ising animation (non-zip)\animations\ising_anim0154.png" arWidth="320" arHeight="240" duration="0" songTitle="" songArtist="" songAlbum="" songCopyrightUrl="" songArtistUrl="" songAudioFileUrl="" stabilizationMode="0" mediaItemType="2" />
    <MediaItem id="676" filePath="C:\Users\owner\Documents\Work\Ising model\ising_animation\Ising animation (non-zip)\animations\ising_anim0676.png" arWidth="320" arHeight="240" duration="0" songTitle="" songArtist="" songAlbum="" songCopyrightUrl="" songArtistUrl="" songAudioFileUrl="" stabilizationMode="0" mediaItemType="2" />
    <MediaItem id="155" filePath="C:\Users\owner\Documents\Work\Ising model\ising_animation\Ising animation (non-zip)\animations\ising_anim0155.png" arWidth="320" arHeight="240" duration="0" songTitle="" songArtist="" songAlbum="" songCopyrightUrl="" songArtistUrl="" songAudioFileUrl="" stabilizationMode="0" mediaItemType="2" />
    <MediaItem id="677" filePath="C:\Users\owner\Documents\Work\Ising model\ising_animation\Ising animation (non-zip)\animations\ising_anim0677.png" arWidth="320" arHeight="240" duration="0" songTitle="" songArtist="" songAlbum="" songCopyrightUrl="" songArtistUrl="" songAudioFileUrl="" stabilizationMode="0" mediaItemType="2" />
    <MediaItem id="156" filePath="C:\Users\owner\Documents\Work\Ising model\ising_animation\Ising animation (non-zip)\animations\ising_anim0156.png" arWidth="320" arHeight="240" duration="0" songTitle="" songArtist="" songAlbum="" songCopyrightUrl="" songArtistUrl="" songAudioFileUrl="" stabilizationMode="0" mediaItemType="2" />
    <MediaItem id="678" filePath="C:\Users\owner\Documents\Work\Ising model\ising_animation\Ising animation (non-zip)\animations\ising_anim0678.png" arWidth="320" arHeight="240" duration="0" songTitle="" songArtist="" songAlbum="" songCopyrightUrl="" songArtistUrl="" songAudioFileUrl="" stabilizationMode="0" mediaItemType="2" />
    <MediaItem id="157" filePath="C:\Users\owner\Documents\Work\Ising model\ising_animation\Ising animation (non-zip)\animations\ising_anim0157.png" arWidth="320" arHeight="240" duration="0" songTitle="" songArtist="" songAlbum="" songCopyrightUrl="" songArtistUrl="" songAudioFileUrl="" stabilizationMode="0" mediaItemType="2" />
    <MediaItem id="679" filePath="C:\Users\owner\Documents\Work\Ising model\ising_animation\Ising animation (non-zip)\animations\ising_anim0679.png" arWidth="320" arHeight="240" duration="0" songTitle="" songArtist="" songAlbum="" songCopyrightUrl="" songArtistUrl="" songAudioFileUrl="" stabilizationMode="0" mediaItemType="2" />
    <MediaItem id="158" filePath="C:\Users\owner\Documents\Work\Ising model\ising_animation\Ising animation (non-zip)\animations\ising_anim0158.png" arWidth="320" arHeight="240" duration="0" songTitle="" songArtist="" songAlbum="" songCopyrightUrl="" songArtistUrl="" songAudioFileUrl="" stabilizationMode="0" mediaItemType="2" />
    <MediaItem id="680" filePath="C:\Users\owner\Documents\Work\Ising model\ising_animation\Ising animation (non-zip)\animations\ising_anim0680.png" arWidth="320" arHeight="240" duration="0" songTitle="" songArtist="" songAlbum="" songCopyrightUrl="" songArtistUrl="" songAudioFileUrl="" stabilizationMode="0" mediaItemType="2" />
    <MediaItem id="159" filePath="C:\Users\owner\Documents\Work\Ising model\ising_animation\Ising animation (non-zip)\animations\ising_anim0159.png" arWidth="320" arHeight="240" duration="0" songTitle="" songArtist="" songAlbum="" songCopyrightUrl="" songArtistUrl="" songAudioFileUrl="" stabilizationMode="0" mediaItemType="2" />
    <MediaItem id="681" filePath="C:\Users\owner\Documents\Work\Ising model\ising_animation\Ising animation (non-zip)\animations\ising_anim0681.png" arWidth="320" arHeight="240" duration="0" songTitle="" songArtist="" songAlbum="" songCopyrightUrl="" songArtistUrl="" songAudioFileUrl="" stabilizationMode="0" mediaItemType="2" />
    <MediaItem id="160" filePath="C:\Users\owner\Documents\Work\Ising model\ising_animation\Ising animation (non-zip)\animations\ising_anim0160.png" arWidth="320" arHeight="240" duration="0" songTitle="" songArtist="" songAlbum="" songCopyrightUrl="" songArtistUrl="" songAudioFileUrl="" stabilizationMode="0" mediaItemType="2" />
    <MediaItem id="682" filePath="C:\Users\owner\Documents\Work\Ising model\ising_animation\Ising animation (non-zip)\animations\ising_anim0682.png" arWidth="320" arHeight="240" duration="0" songTitle="" songArtist="" songAlbum="" songCopyrightUrl="" songArtistUrl="" songAudioFileUrl="" stabilizationMode="0" mediaItemType="2" />
    <MediaItem id="161" filePath="C:\Users\owner\Documents\Work\Ising model\ising_animation\Ising animation (non-zip)\animations\ising_anim0161.png" arWidth="320" arHeight="240" duration="0" songTitle="" songArtist="" songAlbum="" songCopyrightUrl="" songArtistUrl="" songAudioFileUrl="" stabilizationMode="0" mediaItemType="2" />
    <MediaItem id="683" filePath="C:\Users\owner\Documents\Work\Ising model\ising_animation\Ising animation (non-zip)\animations\ising_anim0683.png" arWidth="320" arHeight="240" duration="0" songTitle="" songArtist="" songAlbum="" songCopyrightUrl="" songArtistUrl="" songAudioFileUrl="" stabilizationMode="0" mediaItemType="2" />
    <MediaItem id="162" filePath="C:\Users\owner\Documents\Work\Ising model\ising_animation\Ising animation (non-zip)\animations\ising_anim0162.png" arWidth="320" arHeight="240" duration="0" songTitle="" songArtist="" songAlbum="" songCopyrightUrl="" songArtistUrl="" songAudioFileUrl="" stabilizationMode="0" mediaItemType="2" />
    <MediaItem id="684" filePath="C:\Users\owner\Documents\Work\Ising model\ising_animation\Ising animation (non-zip)\animations\ising_anim0684.png" arWidth="320" arHeight="240" duration="0" songTitle="" songArtist="" songAlbum="" songCopyrightUrl="" songArtistUrl="" songAudioFileUrl="" stabilizationMode="0" mediaItemType="2" />
    <MediaItem id="163" filePath="C:\Users\owner\Documents\Work\Ising model\ising_animation\Ising animation (non-zip)\animations\ising_anim0163.png" arWidth="320" arHeight="240" duration="0" songTitle="" songArtist="" songAlbum="" songCopyrightUrl="" songArtistUrl="" songAudioFileUrl="" stabilizationMode="0" mediaItemType="2" />
    <MediaItem id="685" filePath="C:\Users\owner\Documents\Work\Ising model\ising_animation\Ising animation (non-zip)\animations\ising_anim0685.png" arWidth="320" arHeight="240" duration="0" songTitle="" songArtist="" songAlbum="" songCopyrightUrl="" songArtistUrl="" songAudioFileUrl="" stabilizationMode="0" mediaItemType="2" />
    <MediaItem id="164" filePath="C:\Users\owner\Documents\Work\Ising model\ising_animation\Ising animation (non-zip)\animations\ising_anim0164.png" arWidth="320" arHeight="240" duration="0" songTitle="" songArtist="" songAlbum="" songCopyrightUrl="" songArtistUrl="" songAudioFileUrl="" stabilizationMode="0" mediaItemType="2" />
    <MediaItem id="686" filePath="C:\Users\owner\Documents\Work\Ising model\ising_animation\Ising animation (non-zip)\animations\ising_anim0686.png" arWidth="320" arHeight="240" duration="0" songTitle="" songArtist="" songAlbum="" songCopyrightUrl="" songArtistUrl="" songAudioFileUrl="" stabilizationMode="0" mediaItemType="2" />
    <MediaItem id="165" filePath="C:\Users\owner\Documents\Work\Ising model\ising_animation\Ising animation (non-zip)\animations\ising_anim0165.png" arWidth="320" arHeight="240" duration="0" songTitle="" songArtist="" songAlbum="" songCopyrightUrl="" songArtistUrl="" songAudioFileUrl="" stabilizationMode="0" mediaItemType="2" />
    <MediaItem id="687" filePath="C:\Users\owner\Documents\Work\Ising model\ising_animation\Ising animation (non-zip)\animations\ising_anim0687.png" arWidth="320" arHeight="240" duration="0" songTitle="" songArtist="" songAlbum="" songCopyrightUrl="" songArtistUrl="" songAudioFileUrl="" stabilizationMode="0" mediaItemType="2" />
    <MediaItem id="166" filePath="C:\Users\owner\Documents\Work\Ising model\ising_animation\Ising animation (non-zip)\animations\ising_anim0166.png" arWidth="320" arHeight="240" duration="0" songTitle="" songArtist="" songAlbum="" songCopyrightUrl="" songArtistUrl="" songAudioFileUrl="" stabilizationMode="0" mediaItemType="2" />
    <MediaItem id="688" filePath="C:\Users\owner\Documents\Work\Ising model\ising_animation\Ising animation (non-zip)\animations\ising_anim0688.png" arWidth="320" arHeight="240" duration="0" songTitle="" songArtist="" songAlbum="" songCopyrightUrl="" songArtistUrl="" songAudioFileUrl="" stabilizationMode="0" mediaItemType="2" />
    <MediaItem id="167" filePath="C:\Users\owner\Documents\Work\Ising model\ising_animation\Ising animation (non-zip)\animations\ising_anim0167.png" arWidth="320" arHeight="240" duration="0" songTitle="" songArtist="" songAlbum="" songCopyrightUrl="" songArtistUrl="" songAudioFileUrl="" stabilizationMode="0" mediaItemType="2" />
    <MediaItem id="689" filePath="C:\Users\owner\Documents\Work\Ising model\ising_animation\Ising animation (non-zip)\animations\ising_anim0689.png" arWidth="320" arHeight="240" duration="0" songTitle="" songArtist="" songAlbum="" songCopyrightUrl="" songArtistUrl="" songAudioFileUrl="" stabilizationMode="0" mediaItemType="2" />
    <MediaItem id="168" filePath="C:\Users\owner\Documents\Work\Ising model\ising_animation\Ising animation (non-zip)\animations\ising_anim0168.png" arWidth="320" arHeight="240" duration="0" songTitle="" songArtist="" songAlbum="" songCopyrightUrl="" songArtistUrl="" songAudioFileUrl="" stabilizationMode="0" mediaItemType="2" />
    <MediaItem id="690" filePath="C:\Users\owner\Documents\Work\Ising model\ising_animation\Ising animation (non-zip)\animations\ising_anim0690.png" arWidth="320" arHeight="240" duration="0" songTitle="" songArtist="" songAlbum="" songCopyrightUrl="" songArtistUrl="" songAudioFileUrl="" stabilizationMode="0" mediaItemType="2" />
    <MediaItem id="169" filePath="C:\Users\owner\Documents\Work\Ising model\ising_animation\Ising animation (non-zip)\animations\ising_anim0169.png" arWidth="320" arHeight="240" duration="0" songTitle="" songArtist="" songAlbum="" songCopyrightUrl="" songArtistUrl="" songAudioFileUrl="" stabilizationMode="0" mediaItemType="2" />
    <MediaItem id="691" filePath="C:\Users\owner\Documents\Work\Ising model\ising_animation\Ising animation (non-zip)\animations\ising_anim0691.png" arWidth="320" arHeight="240" duration="0" songTitle="" songArtist="" songAlbum="" songCopyrightUrl="" songArtistUrl="" songAudioFileUrl="" stabilizationMode="0" mediaItemType="2" />
    <MediaItem id="170" filePath="C:\Users\owner\Documents\Work\Ising model\ising_animation\Ising animation (non-zip)\animations\ising_anim0170.png" arWidth="320" arHeight="240" duration="0" songTitle="" songArtist="" songAlbum="" songCopyrightUrl="" songArtistUrl="" songAudioFileUrl="" stabilizationMode="0" mediaItemType="2" />
    <MediaItem id="692" filePath="C:\Users\owner\Documents\Work\Ising model\ising_animation\Ising animation (non-zip)\animations\ising_anim0692.png" arWidth="320" arHeight="240" duration="0" songTitle="" songArtist="" songAlbum="" songCopyrightUrl="" songArtistUrl="" songAudioFileUrl="" stabilizationMode="0" mediaItemType="2" />
    <MediaItem id="171" filePath="C:\Users\owner\Documents\Work\Ising model\ising_animation\Ising animation (non-zip)\animations\ising_anim0171.png" arWidth="320" arHeight="240" duration="0" songTitle="" songArtist="" songAlbum="" songCopyrightUrl="" songArtistUrl="" songAudioFileUrl="" stabilizationMode="0" mediaItemType="2" />
    <MediaItem id="693" filePath="C:\Users\owner\Documents\Work\Ising model\ising_animation\Ising animation (non-zip)\animations\ising_anim0693.png" arWidth="320" arHeight="240" duration="0" songTitle="" songArtist="" songAlbum="" songCopyrightUrl="" songArtistUrl="" songAudioFileUrl="" stabilizationMode="0" mediaItemType="2" />
    <MediaItem id="172" filePath="C:\Users\owner\Documents\Work\Ising model\ising_animation\Ising animation (non-zip)\animations\ising_anim0172.png" arWidth="320" arHeight="240" duration="0" songTitle="" songArtist="" songAlbum="" songCopyrightUrl="" songArtistUrl="" songAudioFileUrl="" stabilizationMode="0" mediaItemType="2" />
    <MediaItem id="694" filePath="C:\Users\owner\Documents\Work\Ising model\ising_animation\Ising animation (non-zip)\animations\ising_anim0694.png" arWidth="320" arHeight="240" duration="0" songTitle="" songArtist="" songAlbum="" songCopyrightUrl="" songArtistUrl="" songAudioFileUrl="" stabilizationMode="0" mediaItemType="2" />
    <MediaItem id="173" filePath="C:\Users\owner\Documents\Work\Ising model\ising_animation\Ising animation (non-zip)\animations\ising_anim0173.png" arWidth="320" arHeight="240" duration="0" songTitle="" songArtist="" songAlbum="" songCopyrightUrl="" songArtistUrl="" songAudioFileUrl="" stabilizationMode="0" mediaItemType="2" />
    <MediaItem id="695" filePath="C:\Users\owner\Documents\Work\Ising model\ising_animation\Ising animation (non-zip)\animations\ising_anim0695.png" arWidth="320" arHeight="240" duration="0" songTitle="" songArtist="" songAlbum="" songCopyrightUrl="" songArtistUrl="" songAudioFileUrl="" stabilizationMode="0" mediaItemType="2" />
    <MediaItem id="174" filePath="C:\Users\owner\Documents\Work\Ising model\ising_animation\Ising animation (non-zip)\animations\ising_anim0174.png" arWidth="320" arHeight="240" duration="0" songTitle="" songArtist="" songAlbum="" songCopyrightUrl="" songArtistUrl="" songAudioFileUrl="" stabilizationMode="0" mediaItemType="2" />
    <MediaItem id="696" filePath="C:\Users\owner\Documents\Work\Ising model\ising_animation\Ising animation (non-zip)\animations\ising_anim0696.png" arWidth="320" arHeight="240" duration="0" songTitle="" songArtist="" songAlbum="" songCopyrightUrl="" songArtistUrl="" songAudioFileUrl="" stabilizationMode="0" mediaItemType="2" />
    <MediaItem id="175" filePath="C:\Users\owner\Documents\Work\Ising model\ising_animation\Ising animation (non-zip)\animations\ising_anim0175.png" arWidth="320" arHeight="240" duration="0" songTitle="" songArtist="" songAlbum="" songCopyrightUrl="" songArtistUrl="" songAudioFileUrl="" stabilizationMode="0" mediaItemType="2" />
    <MediaItem id="697" filePath="C:\Users\owner\Documents\Work\Ising model\ising_animation\Ising animation (non-zip)\animations\ising_anim0697.png" arWidth="320" arHeight="240" duration="0" songTitle="" songArtist="" songAlbum="" songCopyrightUrl="" songArtistUrl="" songAudioFileUrl="" stabilizationMode="0" mediaItemType="2" />
    <MediaItem id="176" filePath="C:\Users\owner\Documents\Work\Ising model\ising_animation\Ising animation (non-zip)\animations\ising_anim0176.png" arWidth="320" arHeight="240" duration="0" songTitle="" songArtist="" songAlbum="" songCopyrightUrl="" songArtistUrl="" songAudioFileUrl="" stabilizationMode="0" mediaItemType="2" />
    <MediaItem id="698" filePath="C:\Users\owner\Documents\Work\Ising model\ising_animation\Ising animation (non-zip)\animations\ising_anim0698.png" arWidth="320" arHeight="240" duration="0" songTitle="" songArtist="" songAlbum="" songCopyrightUrl="" songArtistUrl="" songAudioFileUrl="" stabilizationMode="0" mediaItemType="2" />
    <MediaItem id="177" filePath="C:\Users\owner\Documents\Work\Ising model\ising_animation\Ising animation (non-zip)\animations\ising_anim0177.png" arWidth="320" arHeight="240" duration="0" songTitle="" songArtist="" songAlbum="" songCopyrightUrl="" songArtistUrl="" songAudioFileUrl="" stabilizationMode="0" mediaItemType="2" />
    <MediaItem id="699" filePath="C:\Users\owner\Documents\Work\Ising model\ising_animation\Ising animation (non-zip)\animations\ising_anim0699.png" arWidth="320" arHeight="240" duration="0" songTitle="" songArtist="" songAlbum="" songCopyrightUrl="" songArtistUrl="" songAudioFileUrl="" stabilizationMode="0" mediaItemType="2" />
    <MediaItem id="178" filePath="C:\Users\owner\Documents\Work\Ising model\ising_animation\Ising animation (non-zip)\animations\ising_anim0178.png" arWidth="320" arHeight="240" duration="0" songTitle="" songArtist="" songAlbum="" songCopyrightUrl="" songArtistUrl="" songAudioFileUrl="" stabilizationMode="0" mediaItemType="2" />
    <MediaItem id="700" filePath="C:\Users\owner\Documents\Work\Ising model\ising_animation\Ising animation (non-zip)\animations\ising_anim0700.png" arWidth="320" arHeight="240" duration="0" songTitle="" songArtist="" songAlbum="" songCopyrightUrl="" songArtistUrl="" songAudioFileUrl="" stabilizationMode="0" mediaItemType="2" />
    <MediaItem id="179" filePath="C:\Users\owner\Documents\Work\Ising model\ising_animation\Ising animation (non-zip)\animations\ising_anim0179.png" arWidth="320" arHeight="240" duration="0" songTitle="" songArtist="" songAlbum="" songCopyrightUrl="" songArtistUrl="" songAudioFileUrl="" stabilizationMode="0" mediaItemType="2" />
    <MediaItem id="701" filePath="C:\Users\owner\Documents\Work\Ising model\ising_animation\Ising animation (non-zip)\animations\ising_anim0701.png" arWidth="320" arHeight="240" duration="0" songTitle="" songArtist="" songAlbum="" songCopyrightUrl="" songArtistUrl="" songAudioFileUrl="" stabilizationMode="0" mediaItemType="2" />
    <MediaItem id="180" filePath="C:\Users\owner\Documents\Work\Ising model\ising_animation\Ising animation (non-zip)\animations\ising_anim0180.png" arWidth="320" arHeight="240" duration="0" songTitle="" songArtist="" songAlbum="" songCopyrightUrl="" songArtistUrl="" songAudioFileUrl="" stabilizationMode="0" mediaItemType="2" />
    <MediaItem id="702" filePath="C:\Users\owner\Documents\Work\Ising model\ising_animation\Ising animation (non-zip)\animations\ising_anim0702.png" arWidth="320" arHeight="240" duration="0" songTitle="" songArtist="" songAlbum="" songCopyrightUrl="" songArtistUrl="" songAudioFileUrl="" stabilizationMode="0" mediaItemType="2" />
    <MediaItem id="181" filePath="C:\Users\owner\Documents\Work\Ising model\ising_animation\Ising animation (non-zip)\animations\ising_anim0181.png" arWidth="320" arHeight="240" duration="0" songTitle="" songArtist="" songAlbum="" songCopyrightUrl="" songArtistUrl="" songAudioFileUrl="" stabilizationMode="0" mediaItemType="2" />
    <MediaItem id="703" filePath="C:\Users\owner\Documents\Work\Ising model\ising_animation\Ising animation (non-zip)\animations\ising_anim0703.png" arWidth="320" arHeight="240" duration="0" songTitle="" songArtist="" songAlbum="" songCopyrightUrl="" songArtistUrl="" songAudioFileUrl="" stabilizationMode="0" mediaItemType="2" />
    <MediaItem id="182" filePath="C:\Users\owner\Documents\Work\Ising model\ising_animation\Ising animation (non-zip)\animations\ising_anim0182.png" arWidth="320" arHeight="240" duration="0" songTitle="" songArtist="" songAlbum="" songCopyrightUrl="" songArtistUrl="" songAudioFileUrl="" stabilizationMode="0" mediaItemType="2" />
    <MediaItem id="704" filePath="C:\Users\owner\Documents\Work\Ising model\ising_animation\Ising animation (non-zip)\animations\ising_anim0704.png" arWidth="320" arHeight="240" duration="0" songTitle="" songArtist="" songAlbum="" songCopyrightUrl="" songArtistUrl="" songAudioFileUrl="" stabilizationMode="0" mediaItemType="2" />
    <MediaItem id="183" filePath="C:\Users\owner\Documents\Work\Ising model\ising_animation\Ising animation (non-zip)\animations\ising_anim0183.png" arWidth="320" arHeight="240" duration="0" songTitle="" songArtist="" songAlbum="" songCopyrightUrl="" songArtistUrl="" songAudioFileUrl="" stabilizationMode="0" mediaItemType="2" />
    <MediaItem id="705" filePath="C:\Users\owner\Documents\Work\Ising model\ising_animation\Ising animation (non-zip)\animations\ising_anim0705.png" arWidth="320" arHeight="240" duration="0" songTitle="" songArtist="" songAlbum="" songCopyrightUrl="" songArtistUrl="" songAudioFileUrl="" stabilizationMode="0" mediaItemType="2" />
    <MediaItem id="184" filePath="C:\Users\owner\Documents\Work\Ising model\ising_animation\Ising animation (non-zip)\animations\ising_anim0184.png" arWidth="320" arHeight="240" duration="0" songTitle="" songArtist="" songAlbum="" songCopyrightUrl="" songArtistUrl="" songAudioFileUrl="" stabilizationMode="0" mediaItemType="2" />
    <MediaItem id="706" filePath="C:\Users\owner\Documents\Work\Ising model\ising_animation\Ising animation (non-zip)\animations\ising_anim0706.png" arWidth="320" arHeight="240" duration="0" songTitle="" songArtist="" songAlbum="" songCopyrightUrl="" songArtistUrl="" songAudioFileUrl="" stabilizationMode="0" mediaItemType="2" />
    <MediaItem id="185" filePath="C:\Users\owner\Documents\Work\Ising model\ising_animation\Ising animation (non-zip)\animations\ising_anim0185.png" arWidth="320" arHeight="240" duration="0" songTitle="" songArtist="" songAlbum="" songCopyrightUrl="" songArtistUrl="" songAudioFileUrl="" stabilizationMode="0" mediaItemType="2" />
    <MediaItem id="707" filePath="C:\Users\owner\Documents\Work\Ising model\ising_animation\Ising animation (non-zip)\animations\ising_anim0707.png" arWidth="320" arHeight="240" duration="0" songTitle="" songArtist="" songAlbum="" songCopyrightUrl="" songArtistUrl="" songAudioFileUrl="" stabilizationMode="0" mediaItemType="2" />
    <MediaItem id="186" filePath="C:\Users\owner\Documents\Work\Ising model\ising_animation\Ising animation (non-zip)\animations\ising_anim0186.png" arWidth="320" arHeight="240" duration="0" songTitle="" songArtist="" songAlbum="" songCopyrightUrl="" songArtistUrl="" songAudioFileUrl="" stabilizationMode="0" mediaItemType="2" />
    <MediaItem id="708" filePath="C:\Users\owner\Documents\Work\Ising model\ising_animation\Ising animation (non-zip)\animations\ising_anim0708.png" arWidth="320" arHeight="240" duration="0" songTitle="" songArtist="" songAlbum="" songCopyrightUrl="" songArtistUrl="" songAudioFileUrl="" stabilizationMode="0" mediaItemType="2" />
    <MediaItem id="187" filePath="C:\Users\owner\Documents\Work\Ising model\ising_animation\Ising animation (non-zip)\animations\ising_anim0187.png" arWidth="320" arHeight="240" duration="0" songTitle="" songArtist="" songAlbum="" songCopyrightUrl="" songArtistUrl="" songAudioFileUrl="" stabilizationMode="0" mediaItemType="2" />
    <MediaItem id="709" filePath="C:\Users\owner\Documents\Work\Ising model\ising_animation\Ising animation (non-zip)\animations\ising_anim0709.png" arWidth="320" arHeight="240" duration="0" songTitle="" songArtist="" songAlbum="" songCopyrightUrl="" songArtistUrl="" songAudioFileUrl="" stabilizationMode="0" mediaItemType="2" />
    <MediaItem id="188" filePath="C:\Users\owner\Documents\Work\Ising model\ising_animation\Ising animation (non-zip)\animations\ising_anim0188.png" arWidth="320" arHeight="240" duration="0" songTitle="" songArtist="" songAlbum="" songCopyrightUrl="" songArtistUrl="" songAudioFileUrl="" stabilizationMode="0" mediaItemType="2" />
    <MediaItem id="710" filePath="C:\Users\owner\Documents\Work\Ising model\ising_animation\Ising animation (non-zip)\animations\ising_anim0710.png" arWidth="320" arHeight="240" duration="0" songTitle="" songArtist="" songAlbum="" songCopyrightUrl="" songArtistUrl="" songAudioFileUrl="" stabilizationMode="0" mediaItemType="2" />
    <MediaItem id="189" filePath="C:\Users\owner\Documents\Work\Ising model\ising_animation\Ising animation (non-zip)\animations\ising_anim0189.png" arWidth="320" arHeight="240" duration="0" songTitle="" songArtist="" songAlbum="" songCopyrightUrl="" songArtistUrl="" songAudioFileUrl="" stabilizationMode="0" mediaItemType="2" />
    <MediaItem id="711" filePath="C:\Users\owner\Documents\Work\Ising model\ising_animation\Ising animation (non-zip)\animations\ising_anim0711.png" arWidth="320" arHeight="240" duration="0" songTitle="" songArtist="" songAlbum="" songCopyrightUrl="" songArtistUrl="" songAudioFileUrl="" stabilizationMode="0" mediaItemType="2" />
    <MediaItem id="190" filePath="C:\Users\owner\Documents\Work\Ising model\ising_animation\Ising animation (non-zip)\animations\ising_anim0190.png" arWidth="320" arHeight="240" duration="0" songTitle="" songArtist="" songAlbum="" songCopyrightUrl="" songArtistUrl="" songAudioFileUrl="" stabilizationMode="0" mediaItemType="2" />
    <MediaItem id="712" filePath="C:\Users\owner\Documents\Work\Ising model\ising_animation\Ising animation (non-zip)\animations\ising_anim0712.png" arWidth="320" arHeight="240" duration="0" songTitle="" songArtist="" songAlbum="" songCopyrightUrl="" songArtistUrl="" songAudioFileUrl="" stabilizationMode="0" mediaItemType="2" />
    <MediaItem id="191" filePath="C:\Users\owner\Documents\Work\Ising model\ising_animation\Ising animation (non-zip)\animations\ising_anim0191.png" arWidth="320" arHeight="240" duration="0" songTitle="" songArtist="" songAlbum="" songCopyrightUrl="" songArtistUrl="" songAudioFileUrl="" stabilizationMode="0" mediaItemType="2" />
    <MediaItem id="713" filePath="C:\Users\owner\Documents\Work\Ising model\ising_animation\Ising animation (non-zip)\animations\ising_anim0713.png" arWidth="320" arHeight="240" duration="0" songTitle="" songArtist="" songAlbum="" songCopyrightUrl="" songArtistUrl="" songAudioFileUrl="" stabilizationMode="0" mediaItemType="2" />
    <MediaItem id="192" filePath="C:\Users\owner\Documents\Work\Ising model\ising_animation\Ising animation (non-zip)\animations\ising_anim0192.png" arWidth="320" arHeight="240" duration="0" songTitle="" songArtist="" songAlbum="" songCopyrightUrl="" songArtistUrl="" songAudioFileUrl="" stabilizationMode="0" mediaItemType="2" />
    <MediaItem id="714" filePath="C:\Users\owner\Documents\Work\Ising model\ising_animation\Ising animation (non-zip)\animations\ising_anim0714.png" arWidth="320" arHeight="240" duration="0" songTitle="" songArtist="" songAlbum="" songCopyrightUrl="" songArtistUrl="" songAudioFileUrl="" stabilizationMode="0" mediaItemType="2" />
    <MediaItem id="193" filePath="C:\Users\owner\Documents\Work\Ising model\ising_animation\Ising animation (non-zip)\animations\ising_anim0193.png" arWidth="320" arHeight="240" duration="0" songTitle="" songArtist="" songAlbum="" songCopyrightUrl="" songArtistUrl="" songAudioFileUrl="" stabilizationMode="0" mediaItemType="2" />
    <MediaItem id="715" filePath="C:\Users\owner\Documents\Work\Ising model\ising_animation\Ising animation (non-zip)\animations\ising_anim0715.png" arWidth="320" arHeight="240" duration="0" songTitle="" songArtist="" songAlbum="" songCopyrightUrl="" songArtistUrl="" songAudioFileUrl="" stabilizationMode="0" mediaItemType="2" />
    <MediaItem id="194" filePath="C:\Users\owner\Documents\Work\Ising model\ising_animation\Ising animation (non-zip)\animations\ising_anim0194.png" arWidth="320" arHeight="240" duration="0" songTitle="" songArtist="" songAlbum="" songCopyrightUrl="" songArtistUrl="" songAudioFileUrl="" stabilizationMode="0" mediaItemType="2" />
    <MediaItem id="716" filePath="C:\Users\owner\Documents\Work\Ising model\ising_animation\Ising animation (non-zip)\animations\ising_anim0716.png" arWidth="320" arHeight="240" duration="0" songTitle="" songArtist="" songAlbum="" songCopyrightUrl="" songArtistUrl="" songAudioFileUrl="" stabilizationMode="0" mediaItemType="2" />
    <MediaItem id="195" filePath="C:\Users\owner\Documents\Work\Ising model\ising_animation\Ising animation (non-zip)\animations\ising_anim0195.png" arWidth="320" arHeight="240" duration="0" songTitle="" songArtist="" songAlbum="" songCopyrightUrl="" songArtistUrl="" songAudioFileUrl="" stabilizationMode="0" mediaItemType="2" />
    <MediaItem id="717" filePath="C:\Users\owner\Documents\Work\Ising model\ising_animation\Ising animation (non-zip)\animations\ising_anim0717.png" arWidth="320" arHeight="240" duration="0" songTitle="" songArtist="" songAlbum="" songCopyrightUrl="" songArtistUrl="" songAudioFileUrl="" stabilizationMode="0" mediaItemType="2" />
    <MediaItem id="196" filePath="C:\Users\owner\Documents\Work\Ising model\ising_animation\Ising animation (non-zip)\animations\ising_anim0196.png" arWidth="320" arHeight="240" duration="0" songTitle="" songArtist="" songAlbum="" songCopyrightUrl="" songArtistUrl="" songAudioFileUrl="" stabilizationMode="0" mediaItemType="2" />
    <MediaItem id="718" filePath="C:\Users\owner\Documents\Work\Ising model\ising_animation\Ising animation (non-zip)\animations\ising_anim0718.png" arWidth="320" arHeight="240" duration="0" songTitle="" songArtist="" songAlbum="" songCopyrightUrl="" songArtistUrl="" songAudioFileUrl="" stabilizationMode="0" mediaItemType="2" />
    <MediaItem id="197" filePath="C:\Users\owner\Documents\Work\Ising model\ising_animation\Ising animation (non-zip)\animations\ising_anim0197.png" arWidth="320" arHeight="240" duration="0" songTitle="" songArtist="" songAlbum="" songCopyrightUrl="" songArtistUrl="" songAudioFileUrl="" stabilizationMode="0" mediaItemType="2" />
    <MediaItem id="719" filePath="C:\Users\owner\Documents\Work\Ising model\ising_animation\Ising animation (non-zip)\animations\ising_anim0719.png" arWidth="320" arHeight="240" duration="0" songTitle="" songArtist="" songAlbum="" songCopyrightUrl="" songArtistUrl="" songAudioFileUrl="" stabilizationMode="0" mediaItemType="2" />
    <MediaItem id="198" filePath="C:\Users\owner\Documents\Work\Ising model\ising_animation\Ising animation (non-zip)\animations\ising_anim0198.png" arWidth="320" arHeight="240" duration="0" songTitle="" songArtist="" songAlbum="" songCopyrightUrl="" songArtistUrl="" songAudioFileUrl="" stabilizationMode="0" mediaItemType="2" />
    <MediaItem id="720" filePath="C:\Users\owner\Documents\Work\Ising model\ising_animation\Ising animation (non-zip)\animations\ising_anim0720.png" arWidth="320" arHeight="240" duration="0" songTitle="" songArtist="" songAlbum="" songCopyrightUrl="" songArtistUrl="" songAudioFileUrl="" stabilizationMode="0" mediaItemType="2" />
    <MediaItem id="199" filePath="C:\Users\owner\Documents\Work\Ising model\ising_animation\Ising animation (non-zip)\animations\ising_anim0199.png" arWidth="320" arHeight="240" duration="0" songTitle="" songArtist="" songAlbum="" songCopyrightUrl="" songArtistUrl="" songAudioFileUrl="" stabilizationMode="0" mediaItemType="2" />
    <MediaItem id="721" filePath="C:\Users\owner\Documents\Work\Ising model\ising_animation\Ising animation (non-zip)\animations\ising_anim0721.png" arWidth="320" arHeight="240" duration="0" songTitle="" songArtist="" songAlbum="" songCopyrightUrl="" songArtistUrl="" songAudioFileUrl="" stabilizationMode="0" mediaItemType="2" />
    <MediaItem id="200" filePath="C:\Users\owner\Documents\Work\Ising model\ising_animation\Ising animation (non-zip)\animations\ising_anim0200.png" arWidth="320" arHeight="240" duration="0" songTitle="" songArtist="" songAlbum="" songCopyrightUrl="" songArtistUrl="" songAudioFileUrl="" stabilizationMode="0" mediaItemType="2" />
    <MediaItem id="722" filePath="C:\Users\owner\Documents\Work\Ising model\ising_animation\Ising animation (non-zip)\animations\ising_anim0722.png" arWidth="320" arHeight="240" duration="0" songTitle="" songArtist="" songAlbum="" songCopyrightUrl="" songArtistUrl="" songAudioFileUrl="" stabilizationMode="0" mediaItemType="2" />
    <MediaItem id="201" filePath="C:\Users\owner\Documents\Work\Ising model\ising_animation\Ising animation (non-zip)\animations\ising_anim0201.png" arWidth="320" arHeight="240" duration="0" songTitle="" songArtist="" songAlbum="" songCopyrightUrl="" songArtistUrl="" songAudioFileUrl="" stabilizationMode="0" mediaItemType="2" />
    <MediaItem id="723" filePath="C:\Users\owner\Documents\Work\Ising model\ising_animation\Ising animation (non-zip)\animations\ising_anim0723.png" arWidth="320" arHeight="240" duration="0" songTitle="" songArtist="" songAlbum="" songCopyrightUrl="" songArtistUrl="" songAudioFileUrl="" stabilizationMode="0" mediaItemType="2" />
    <MediaItem id="202" filePath="C:\Users\owner\Documents\Work\Ising model\ising_animation\Ising animation (non-zip)\animations\ising_anim0202.png" arWidth="320" arHeight="240" duration="0" songTitle="" songArtist="" songAlbum="" songCopyrightUrl="" songArtistUrl="" songAudioFileUrl="" stabilizationMode="0" mediaItemType="2" />
    <MediaItem id="724" filePath="C:\Users\owner\Documents\Work\Ising model\ising_animation\Ising animation (non-zip)\animations\ising_anim0724.png" arWidth="320" arHeight="240" duration="0" songTitle="" songArtist="" songAlbum="" songCopyrightUrl="" songArtistUrl="" songAudioFileUrl="" stabilizationMode="0" mediaItemType="2" />
    <MediaItem id="203" filePath="C:\Users\owner\Documents\Work\Ising model\ising_animation\Ising animation (non-zip)\animations\ising_anim0203.png" arWidth="320" arHeight="240" duration="0" songTitle="" songArtist="" songAlbum="" songCopyrightUrl="" songArtistUrl="" songAudioFileUrl="" stabilizationMode="0" mediaItemType="2" />
    <MediaItem id="725" filePath="C:\Users\owner\Documents\Work\Ising model\ising_animation\Ising animation (non-zip)\animations\ising_anim0725.png" arWidth="320" arHeight="240" duration="0" songTitle="" songArtist="" songAlbum="" songCopyrightUrl="" songArtistUrl="" songAudioFileUrl="" stabilizationMode="0" mediaItemType="2" />
    <MediaItem id="204" filePath="C:\Users\owner\Documents\Work\Ising model\ising_animation\Ising animation (non-zip)\animations\ising_anim0204.png" arWidth="320" arHeight="240" duration="0" songTitle="" songArtist="" songAlbum="" songCopyrightUrl="" songArtistUrl="" songAudioFileUrl="" stabilizationMode="0" mediaItemType="2" />
    <MediaItem id="726" filePath="C:\Users\owner\Documents\Work\Ising model\ising_animation\Ising animation (non-zip)\animations\ising_anim0726.png" arWidth="320" arHeight="240" duration="0" songTitle="" songArtist="" songAlbum="" songCopyrightUrl="" songArtistUrl="" songAudioFileUrl="" stabilizationMode="0" mediaItemType="2" />
    <MediaItem id="205" filePath="C:\Users\owner\Documents\Work\Ising model\ising_animation\Ising animation (non-zip)\animations\ising_anim0205.png" arWidth="320" arHeight="240" duration="0" songTitle="" songArtist="" songAlbum="" songCopyrightUrl="" songArtistUrl="" songAudioFileUrl="" stabilizationMode="0" mediaItemType="2" />
    <MediaItem id="727" filePath="C:\Users\owner\Documents\Work\Ising model\ising_animation\Ising animation (non-zip)\animations\ising_anim0727.png" arWidth="320" arHeight="240" duration="0" songTitle="" songArtist="" songAlbum="" songCopyrightUrl="" songArtistUrl="" songAudioFileUrl="" stabilizationMode="0" mediaItemType="2" />
    <MediaItem id="206" filePath="C:\Users\owner\Documents\Work\Ising model\ising_animation\Ising animation (non-zip)\animations\ising_anim0206.png" arWidth="320" arHeight="240" duration="0" songTitle="" songArtist="" songAlbum="" songCopyrightUrl="" songArtistUrl="" songAudioFileUrl="" stabilizationMode="0" mediaItemType="2" />
    <MediaItem id="728" filePath="C:\Users\owner\Documents\Work\Ising model\ising_animation\Ising animation (non-zip)\animations\ising_anim0728.png" arWidth="320" arHeight="240" duration="0" songTitle="" songArtist="" songAlbum="" songCopyrightUrl="" songArtistUrl="" songAudioFileUrl="" stabilizationMode="0" mediaItemType="2" />
    <MediaItem id="207" filePath="C:\Users\owner\Documents\Work\Ising model\ising_animation\Ising animation (non-zip)\animations\ising_anim0207.png" arWidth="320" arHeight="240" duration="0" songTitle="" songArtist="" songAlbum="" songCopyrightUrl="" songArtistUrl="" songAudioFileUrl="" stabilizationMode="0" mediaItemType="2" />
    <MediaItem id="729" filePath="C:\Users\owner\Documents\Work\Ising model\ising_animation\Ising animation (non-zip)\animations\ising_anim0729.png" arWidth="320" arHeight="240" duration="0" songTitle="" songArtist="" songAlbum="" songCopyrightUrl="" songArtistUrl="" songAudioFileUrl="" stabilizationMode="0" mediaItemType="2" />
    <MediaItem id="208" filePath="C:\Users\owner\Documents\Work\Ising model\ising_animation\Ising animation (non-zip)\animations\ising_anim0208.png" arWidth="320" arHeight="240" duration="0" songTitle="" songArtist="" songAlbum="" songCopyrightUrl="" songArtistUrl="" songAudioFileUrl="" stabilizationMode="0" mediaItemType="2" />
    <MediaItem id="730" filePath="C:\Users\owner\Documents\Work\Ising model\ising_animation\Ising animation (non-zip)\animations\ising_anim0730.png" arWidth="320" arHeight="240" duration="0" songTitle="" songArtist="" songAlbum="" songCopyrightUrl="" songArtistUrl="" songAudioFileUrl="" stabilizationMode="0" mediaItemType="2" />
    <MediaItem id="209" filePath="C:\Users\owner\Documents\Work\Ising model\ising_animation\Ising animation (non-zip)\animations\ising_anim0209.png" arWidth="320" arHeight="240" duration="0" songTitle="" songArtist="" songAlbum="" songCopyrightUrl="" songArtistUrl="" songAudioFileUrl="" stabilizationMode="0" mediaItemType="2" />
    <MediaItem id="731" filePath="C:\Users\owner\Documents\Work\Ising model\ising_animation\Ising animation (non-zip)\animations\ising_anim0731.png" arWidth="320" arHeight="240" duration="0" songTitle="" songArtist="" songAlbum="" songCopyrightUrl="" songArtistUrl="" songAudioFileUrl="" stabilizationMode="0" mediaItemType="2" />
    <MediaItem id="210" filePath="C:\Users\owner\Documents\Work\Ising model\ising_animation\Ising animation (non-zip)\animations\ising_anim0210.png" arWidth="320" arHeight="240" duration="0" songTitle="" songArtist="" songAlbum="" songCopyrightUrl="" songArtistUrl="" songAudioFileUrl="" stabilizationMode="0" mediaItemType="2" />
    <MediaItem id="732" filePath="C:\Users\owner\Documents\Work\Ising model\ising_animation\Ising animation (non-zip)\animations\ising_anim0732.png" arWidth="320" arHeight="240" duration="0" songTitle="" songArtist="" songAlbum="" songCopyrightUrl="" songArtistUrl="" songAudioFileUrl="" stabilizationMode="0" mediaItemType="2" />
    <MediaItem id="211" filePath="C:\Users\owner\Documents\Work\Ising model\ising_animation\Ising animation (non-zip)\animations\ising_anim0211.png" arWidth="320" arHeight="240" duration="0" songTitle="" songArtist="" songAlbum="" songCopyrightUrl="" songArtistUrl="" songAudioFileUrl="" stabilizationMode="0" mediaItemType="2" />
    <MediaItem id="733" filePath="C:\Users\owner\Documents\Work\Ising model\ising_animation\Ising animation (non-zip)\animations\ising_anim0733.png" arWidth="320" arHeight="240" duration="0" songTitle="" songArtist="" songAlbum="" songCopyrightUrl="" songArtistUrl="" songAudioFileUrl="" stabilizationMode="0" mediaItemType="2" />
    <MediaItem id="212" filePath="C:\Users\owner\Documents\Work\Ising model\ising_animation\Ising animation (non-zip)\animations\ising_anim0212.png" arWidth="320" arHeight="240" duration="0" songTitle="" songArtist="" songAlbum="" songCopyrightUrl="" songArtistUrl="" songAudioFileUrl="" stabilizationMode="0" mediaItemType="2" />
    <MediaItem id="734" filePath="C:\Users\owner\Documents\Work\Ising model\ising_animation\Ising animation (non-zip)\animations\ising_anim0734.png" arWidth="320" arHeight="240" duration="0" songTitle="" songArtist="" songAlbum="" songCopyrightUrl="" songArtistUrl="" songAudioFileUrl="" stabilizationMode="0" mediaItemType="2" />
    <MediaItem id="213" filePath="C:\Users\owner\Documents\Work\Ising model\ising_animation\Ising animation (non-zip)\animations\ising_anim0213.png" arWidth="320" arHeight="240" duration="0" songTitle="" songArtist="" songAlbum="" songCopyrightUrl="" songArtistUrl="" songAudioFileUrl="" stabilizationMode="0" mediaItemType="2" />
    <MediaItem id="735" filePath="C:\Users\owner\Documents\Work\Ising model\ising_animation\Ising animation (non-zip)\animations\ising_anim0735.png" arWidth="320" arHeight="240" duration="0" songTitle="" songArtist="" songAlbum="" songCopyrightUrl="" songArtistUrl="" songAudioFileUrl="" stabilizationMode="0" mediaItemType="2" />
    <MediaItem id="214" filePath="C:\Users\owner\Documents\Work\Ising model\ising_animation\Ising animation (non-zip)\animations\ising_anim0214.png" arWidth="320" arHeight="240" duration="0" songTitle="" songArtist="" songAlbum="" songCopyrightUrl="" songArtistUrl="" songAudioFileUrl="" stabilizationMode="0" mediaItemType="2" />
    <MediaItem id="736" filePath="C:\Users\owner\Documents\Work\Ising model\ising_animation\Ising animation (non-zip)\animations\ising_anim0736.png" arWidth="320" arHeight="240" duration="0" songTitle="" songArtist="" songAlbum="" songCopyrightUrl="" songArtistUrl="" songAudioFileUrl="" stabilizationMode="0" mediaItemType="2" />
    <MediaItem id="215" filePath="C:\Users\owner\Documents\Work\Ising model\ising_animation\Ising animation (non-zip)\animations\ising_anim0215.png" arWidth="320" arHeight="240" duration="0" songTitle="" songArtist="" songAlbum="" songCopyrightUrl="" songArtistUrl="" songAudioFileUrl="" stabilizationMode="0" mediaItemType="2" />
    <MediaItem id="737" filePath="C:\Users\owner\Documents\Work\Ising model\ising_animation\Ising animation (non-zip)\animations\ising_anim0737.png" arWidth="320" arHeight="240" duration="0" songTitle="" songArtist="" songAlbum="" songCopyrightUrl="" songArtistUrl="" songAudioFileUrl="" stabilizationMode="0" mediaItemType="2" />
    <MediaItem id="216" filePath="C:\Users\owner\Documents\Work\Ising model\ising_animation\Ising animation (non-zip)\animations\ising_anim0216.png" arWidth="320" arHeight="240" duration="0" songTitle="" songArtist="" songAlbum="" songCopyrightUrl="" songArtistUrl="" songAudioFileUrl="" stabilizationMode="0" mediaItemType="2" />
    <MediaItem id="738" filePath="C:\Users\owner\Documents\Work\Ising model\ising_animation\Ising animation (non-zip)\animations\ising_anim0738.png" arWidth="320" arHeight="240" duration="0" songTitle="" songArtist="" songAlbum="" songCopyrightUrl="" songArtistUrl="" songAudioFileUrl="" stabilizationMode="0" mediaItemType="2" />
    <MediaItem id="217" filePath="C:\Users\owner\Documents\Work\Ising model\ising_animation\Ising animation (non-zip)\animations\ising_anim0217.png" arWidth="320" arHeight="240" duration="0" songTitle="" songArtist="" songAlbum="" songCopyrightUrl="" songArtistUrl="" songAudioFileUrl="" stabilizationMode="0" mediaItemType="2" />
    <MediaItem id="739" filePath="C:\Users\owner\Documents\Work\Ising model\ising_animation\Ising animation (non-zip)\animations\ising_anim0739.png" arWidth="320" arHeight="240" duration="0" songTitle="" songArtist="" songAlbum="" songCopyrightUrl="" songArtistUrl="" songAudioFileUrl="" stabilizationMode="0" mediaItemType="2" />
    <MediaItem id="218" filePath="C:\Users\owner\Documents\Work\Ising model\ising_animation\Ising animation (non-zip)\animations\ising_anim0218.png" arWidth="320" arHeight="240" duration="0" songTitle="" songArtist="" songAlbum="" songCopyrightUrl="" songArtistUrl="" songAudioFileUrl="" stabilizationMode="0" mediaItemType="2" />
    <MediaItem id="740" filePath="C:\Users\owner\Documents\Work\Ising model\ising_animation\Ising animation (non-zip)\animations\ising_anim0740.png" arWidth="320" arHeight="240" duration="0" songTitle="" songArtist="" songAlbum="" songCopyrightUrl="" songArtistUrl="" songAudioFileUrl="" stabilizationMode="0" mediaItemType="2" />
    <MediaItem id="219" filePath="C:\Users\owner\Documents\Work\Ising model\ising_animation\Ising animation (non-zip)\animations\ising_anim0219.png" arWidth="320" arHeight="240" duration="0" songTitle="" songArtist="" songAlbum="" songCopyrightUrl="" songArtistUrl="" songAudioFileUrl="" stabilizationMode="0" mediaItemType="2" />
    <MediaItem id="741" filePath="C:\Users\owner\Documents\Work\Ising model\ising_animation\Ising animation (non-zip)\animations\ising_anim0741.png" arWidth="320" arHeight="240" duration="0" songTitle="" songArtist="" songAlbum="" songCopyrightUrl="" songArtistUrl="" songAudioFileUrl="" stabilizationMode="0" mediaItemType="2" />
    <MediaItem id="220" filePath="C:\Users\owner\Documents\Work\Ising model\ising_animation\Ising animation (non-zip)\animations\ising_anim0220.png" arWidth="320" arHeight="240" duration="0" songTitle="" songArtist="" songAlbum="" songCopyrightUrl="" songArtistUrl="" songAudioFileUrl="" stabilizationMode="0" mediaItemType="2" />
    <MediaItem id="742" filePath="C:\Users\owner\Documents\Work\Ising model\ising_animation\Ising animation (non-zip)\animations\ising_anim0742.png" arWidth="320" arHeight="240" duration="0" songTitle="" songArtist="" songAlbum="" songCopyrightUrl="" songArtistUrl="" songAudioFileUrl="" stabilizationMode="0" mediaItemType="2" />
    <MediaItem id="221" filePath="C:\Users\owner\Documents\Work\Ising model\ising_animation\Ising animation (non-zip)\animations\ising_anim0221.png" arWidth="320" arHeight="240" duration="0" songTitle="" songArtist="" songAlbum="" songCopyrightUrl="" songArtistUrl="" songAudioFileUrl="" stabilizationMode="0" mediaItemType="2" />
    <MediaItem id="743" filePath="C:\Users\owner\Documents\Work\Ising model\ising_animation\Ising animation (non-zip)\animations\ising_anim0743.png" arWidth="320" arHeight="240" duration="0" songTitle="" songArtist="" songAlbum="" songCopyrightUrl="" songArtistUrl="" songAudioFileUrl="" stabilizationMode="0" mediaItemType="2" />
    <MediaItem id="222" filePath="C:\Users\owner\Documents\Work\Ising model\ising_animation\Ising animation (non-zip)\animations\ising_anim0222.png" arWidth="320" arHeight="240" duration="0" songTitle="" songArtist="" songAlbum="" songCopyrightUrl="" songArtistUrl="" songAudioFileUrl="" stabilizationMode="0" mediaItemType="2" />
    <MediaItem id="744" filePath="C:\Users\owner\Documents\Work\Ising model\ising_animation\Ising animation (non-zip)\animations\ising_anim0744.png" arWidth="320" arHeight="240" duration="0" songTitle="" songArtist="" songAlbum="" songCopyrightUrl="" songArtistUrl="" songAudioFileUrl="" stabilizationMode="0" mediaItemType="2" />
    <MediaItem id="223" filePath="C:\Users\owner\Documents\Work\Ising model\ising_animation\Ising animation (non-zip)\animations\ising_anim0223.png" arWidth="320" arHeight="240" duration="0" songTitle="" songArtist="" songAlbum="" songCopyrightUrl="" songArtistUrl="" songAudioFileUrl="" stabilizationMode="0" mediaItemType="2" />
    <MediaItem id="745" filePath="C:\Users\owner\Documents\Work\Ising model\ising_animation\Ising animation (non-zip)\animations\ising_anim0745.png" arWidth="320" arHeight="240" duration="0" songTitle="" songArtist="" songAlbum="" songCopyrightUrl="" songArtistUrl="" songAudioFileUrl="" stabilizationMode="0" mediaItemType="2" />
    <MediaItem id="224" filePath="C:\Users\owner\Documents\Work\Ising model\ising_animation\Ising animation (non-zip)\animations\ising_anim0224.png" arWidth="320" arHeight="240" duration="0" songTitle="" songArtist="" songAlbum="" songCopyrightUrl="" songArtistUrl="" songAudioFileUrl="" stabilizationMode="0" mediaItemType="2" />
    <MediaItem id="746" filePath="C:\Users\owner\Documents\Work\Ising model\ising_animation\Ising animation (non-zip)\animations\ising_anim0746.png" arWidth="320" arHeight="240" duration="0" songTitle="" songArtist="" songAlbum="" songCopyrightUrl="" songArtistUrl="" songAudioFileUrl="" stabilizationMode="0" mediaItemType="2" />
    <MediaItem id="225" filePath="C:\Users\owner\Documents\Work\Ising model\ising_animation\Ising animation (non-zip)\animations\ising_anim0225.png" arWidth="320" arHeight="240" duration="0" songTitle="" songArtist="" songAlbum="" songCopyrightUrl="" songArtistUrl="" songAudioFileUrl="" stabilizationMode="0" mediaItemType="2" />
    <MediaItem id="747" filePath="C:\Users\owner\Documents\Work\Ising model\ising_animation\Ising animation (non-zip)\animations\ising_anim0747.png" arWidth="320" arHeight="240" duration="0" songTitle="" songArtist="" songAlbum="" songCopyrightUrl="" songArtistUrl="" songAudioFileUrl="" stabilizationMode="0" mediaItemType="2" />
    <MediaItem id="226" filePath="C:\Users\owner\Documents\Work\Ising model\ising_animation\Ising animation (non-zip)\animations\ising_anim0226.png" arWidth="320" arHeight="240" duration="0" songTitle="" songArtist="" songAlbum="" songCopyrightUrl="" songArtistUrl="" songAudioFileUrl="" stabilizationMode="0" mediaItemType="2" />
    <MediaItem id="748" filePath="C:\Users\owner\Documents\Work\Ising model\ising_animation\Ising animation (non-zip)\animations\ising_anim0748.png" arWidth="320" arHeight="240" duration="0" songTitle="" songArtist="" songAlbum="" songCopyrightUrl="" songArtistUrl="" songAudioFileUrl="" stabilizationMode="0" mediaItemType="2" />
    <MediaItem id="227" filePath="C:\Users\owner\Documents\Work\Ising model\ising_animation\Ising animation (non-zip)\animations\ising_anim0227.png" arWidth="320" arHeight="240" duration="0" songTitle="" songArtist="" songAlbum="" songCopyrightUrl="" songArtistUrl="" songAudioFileUrl="" stabilizationMode="0" mediaItemType="2" />
    <MediaItem id="749" filePath="C:\Users\owner\Documents\Work\Ising model\ising_animation\Ising animation (non-zip)\animations\ising_anim0749.png" arWidth="320" arHeight="240" duration="0" songTitle="" songArtist="" songAlbum="" songCopyrightUrl="" songArtistUrl="" songAudioFileUrl="" stabilizationMode="0" mediaItemType="2" />
    <MediaItem id="228" filePath="C:\Users\owner\Documents\Work\Ising model\ising_animation\Ising animation (non-zip)\animations\ising_anim0228.png" arWidth="320" arHeight="240" duration="0" songTitle="" songArtist="" songAlbum="" songCopyrightUrl="" songArtistUrl="" songAudioFileUrl="" stabilizationMode="0" mediaItemType="2" />
    <MediaItem id="750" filePath="C:\Users\owner\Documents\Work\Ising model\ising_animation\Ising animation (non-zip)\animations\ising_anim0750.png" arWidth="320" arHeight="240" duration="0" songTitle="" songArtist="" songAlbum="" songCopyrightUrl="" songArtistUrl="" songAudioFileUrl="" stabilizationMode="0" mediaItemType="2" />
    <MediaItem id="229" filePath="C:\Users\owner\Documents\Work\Ising model\ising_animation\Ising animation (non-zip)\animations\ising_anim0229.png" arWidth="320" arHeight="240" duration="0" songTitle="" songArtist="" songAlbum="" songCopyrightUrl="" songArtistUrl="" songAudioFileUrl="" stabilizationMode="0" mediaItemType="2" />
    <MediaItem id="751" filePath="C:\Users\owner\Documents\Work\Ising model\ising_animation\Ising animation (non-zip)\animations\ising_anim0751.png" arWidth="320" arHeight="240" duration="0" songTitle="" songArtist="" songAlbum="" songCopyrightUrl="" songArtistUrl="" songAudioFileUrl="" stabilizationMode="0" mediaItemType="2" />
    <MediaItem id="230" filePath="C:\Users\owner\Documents\Work\Ising model\ising_animation\Ising animation (non-zip)\animations\ising_anim0230.png" arWidth="320" arHeight="240" duration="0" songTitle="" songArtist="" songAlbum="" songCopyrightUrl="" songArtistUrl="" songAudioFileUrl="" stabilizationMode="0" mediaItemType="2" />
    <MediaItem id="752" filePath="C:\Users\owner\Documents\Work\Ising model\ising_animation\Ising animation (non-zip)\animations\ising_anim0752.png" arWidth="320" arHeight="240" duration="0" songTitle="" songArtist="" songAlbum="" songCopyrightUrl="" songArtistUrl="" songAudioFileUrl="" stabilizationMode="0" mediaItemType="2" />
    <MediaItem id="231" filePath="C:\Users\owner\Documents\Work\Ising model\ising_animation\Ising animation (non-zip)\animations\ising_anim0231.png" arWidth="320" arHeight="240" duration="0" songTitle="" songArtist="" songAlbum="" songCopyrightUrl="" songArtistUrl="" songAudioFileUrl="" stabilizationMode="0" mediaItemType="2" />
    <MediaItem id="753" filePath="C:\Users\owner\Documents\Work\Ising model\ising_animation\Ising animation (non-zip)\animations\ising_anim0753.png" arWidth="320" arHeight="240" duration="0" songTitle="" songArtist="" songAlbum="" songCopyrightUrl="" songArtistUrl="" songAudioFileUrl="" stabilizationMode="0" mediaItemType="2" />
    <MediaItem id="232" filePath="C:\Users\owner\Documents\Work\Ising model\ising_animation\Ising animation (non-zip)\animations\ising_anim0232.png" arWidth="320" arHeight="240" duration="0" songTitle="" songArtist="" songAlbum="" songCopyrightUrl="" songArtistUrl="" songAudioFileUrl="" stabilizationMode="0" mediaItemType="2" />
    <MediaItem id="754" filePath="C:\Users\owner\Documents\Work\Ising model\ising_animation\Ising animation (non-zip)\animations\ising_anim0754.png" arWidth="320" arHeight="240" duration="0" songTitle="" songArtist="" songAlbum="" songCopyrightUrl="" songArtistUrl="" songAudioFileUrl="" stabilizationMode="0" mediaItemType="2" />
    <MediaItem id="233" filePath="C:\Users\owner\Documents\Work\Ising model\ising_animation\Ising animation (non-zip)\animations\ising_anim0233.png" arWidth="320" arHeight="240" duration="0" songTitle="" songArtist="" songAlbum="" songCopyrightUrl="" songArtistUrl="" songAudioFileUrl="" stabilizationMode="0" mediaItemType="2" />
    <MediaItem id="755" filePath="C:\Users\owner\Documents\Work\Ising model\ising_animation\Ising animation (non-zip)\animations\ising_anim0755.png" arWidth="320" arHeight="240" duration="0" songTitle="" songArtist="" songAlbum="" songCopyrightUrl="" songArtistUrl="" songAudioFileUrl="" stabilizationMode="0" mediaItemType="2" />
    <MediaItem id="234" filePath="C:\Users\owner\Documents\Work\Ising model\ising_animation\Ising animation (non-zip)\animations\ising_anim0234.png" arWidth="320" arHeight="240" duration="0" songTitle="" songArtist="" songAlbum="" songCopyrightUrl="" songArtistUrl="" songAudioFileUrl="" stabilizationMode="0" mediaItemType="2" />
    <MediaItem id="756" filePath="C:\Users\owner\Documents\Work\Ising model\ising_animation\Ising animation (non-zip)\animations\ising_anim0756.png" arWidth="320" arHeight="240" duration="0" songTitle="" songArtist="" songAlbum="" songCopyrightUrl="" songArtistUrl="" songAudioFileUrl="" stabilizationMode="0" mediaItemType="2" />
    <MediaItem id="235" filePath="C:\Users\owner\Documents\Work\Ising model\ising_animation\Ising animation (non-zip)\animations\ising_anim0235.png" arWidth="320" arHeight="240" duration="0" songTitle="" songArtist="" songAlbum="" songCopyrightUrl="" songArtistUrl="" songAudioFileUrl="" stabilizationMode="0" mediaItemType="2" />
    <MediaItem id="757" filePath="C:\Users\owner\Documents\Work\Ising model\ising_animation\Ising animation (non-zip)\animations\ising_anim0757.png" arWidth="320" arHeight="240" duration="0" songTitle="" songArtist="" songAlbum="" songCopyrightUrl="" songArtistUrl="" songAudioFileUrl="" stabilizationMode="0" mediaItemType="2" />
    <MediaItem id="236" filePath="C:\Users\owner\Documents\Work\Ising model\ising_animation\Ising animation (non-zip)\animations\ising_anim0236.png" arWidth="320" arHeight="240" duration="0" songTitle="" songArtist="" songAlbum="" songCopyrightUrl="" songArtistUrl="" songAudioFileUrl="" stabilizationMode="0" mediaItemType="2" />
    <MediaItem id="758" filePath="C:\Users\owner\Documents\Work\Ising model\ising_animation\Ising animation (non-zip)\animations\ising_anim0758.png" arWidth="320" arHeight="240" duration="0" songTitle="" songArtist="" songAlbum="" songCopyrightUrl="" songArtistUrl="" songAudioFileUrl="" stabilizationMode="0" mediaItemType="2" />
    <MediaItem id="237" filePath="C:\Users\owner\Documents\Work\Ising model\ising_animation\Ising animation (non-zip)\animations\ising_anim0237.png" arWidth="320" arHeight="240" duration="0" songTitle="" songArtist="" songAlbum="" songCopyrightUrl="" songArtistUrl="" songAudioFileUrl="" stabilizationMode="0" mediaItemType="2" />
    <MediaItem id="759" filePath="C:\Users\owner\Documents\Work\Ising model\ising_animation\Ising animation (non-zip)\animations\ising_anim0759.png" arWidth="320" arHeight="240" duration="0" songTitle="" songArtist="" songAlbum="" songCopyrightUrl="" songArtistUrl="" songAudioFileUrl="" stabilizationMode="0" mediaItemType="2" />
    <MediaItem id="238" filePath="C:\Users\owner\Documents\Work\Ising model\ising_animation\Ising animation (non-zip)\animations\ising_anim0238.png" arWidth="320" arHeight="240" duration="0" songTitle="" songArtist="" songAlbum="" songCopyrightUrl="" songArtistUrl="" songAudioFileUrl="" stabilizationMode="0" mediaItemType="2" />
    <MediaItem id="760" filePath="C:\Users\owner\Documents\Work\Ising model\ising_animation\Ising animation (non-zip)\animations\ising_anim0760.png" arWidth="320" arHeight="240" duration="0" songTitle="" songArtist="" songAlbum="" songCopyrightUrl="" songArtistUrl="" songAudioFileUrl="" stabilizationMode="0" mediaItemType="2" />
    <MediaItem id="239" filePath="C:\Users\owner\Documents\Work\Ising model\ising_animation\Ising animation (non-zip)\animations\ising_anim0239.png" arWidth="320" arHeight="240" duration="0" songTitle="" songArtist="" songAlbum="" songCopyrightUrl="" songArtistUrl="" songAudioFileUrl="" stabilizationMode="0" mediaItemType="2" />
    <MediaItem id="761" filePath="C:\Users\owner\Documents\Work\Ising model\ising_animation\Ising animation (non-zip)\animations\ising_anim0761.png" arWidth="320" arHeight="240" duration="0" songTitle="" songArtist="" songAlbum="" songCopyrightUrl="" songArtistUrl="" songAudioFileUrl="" stabilizationMode="0" mediaItemType="2" />
    <MediaItem id="240" filePath="C:\Users\owner\Documents\Work\Ising model\ising_animation\Ising animation (non-zip)\animations\ising_anim0240.png" arWidth="320" arHeight="240" duration="0" songTitle="" songArtist="" songAlbum="" songCopyrightUrl="" songArtistUrl="" songAudioFileUrl="" stabilizationMode="0" mediaItemType="2" />
    <MediaItem id="762" filePath="C:\Users\owner\Documents\Work\Ising model\ising_animation\Ising animation (non-zip)\animations\ising_anim0762.png" arWidth="320" arHeight="240" duration="0" songTitle="" songArtist="" songAlbum="" songCopyrightUrl="" songArtistUrl="" songAudioFileUrl="" stabilizationMode="0" mediaItemType="2" />
    <MediaItem id="241" filePath="C:\Users\owner\Documents\Work\Ising model\ising_animation\Ising animation (non-zip)\animations\ising_anim0241.png" arWidth="320" arHeight="240" duration="0" songTitle="" songArtist="" songAlbum="" songCopyrightUrl="" songArtistUrl="" songAudioFileUrl="" stabilizationMode="0" mediaItemType="2" />
    <MediaItem id="763" filePath="C:\Users\owner\Documents\Work\Ising model\ising_animation\Ising animation (non-zip)\animations\ising_anim0763.png" arWidth="320" arHeight="240" duration="0" songTitle="" songArtist="" songAlbum="" songCopyrightUrl="" songArtistUrl="" songAudioFileUrl="" stabilizationMode="0" mediaItemType="2" />
    <MediaItem id="242" filePath="C:\Users\owner\Documents\Work\Ising model\ising_animation\Ising animation (non-zip)\animations\ising_anim0242.png" arWidth="320" arHeight="240" duration="0" songTitle="" songArtist="" songAlbum="" songCopyrightUrl="" songArtistUrl="" songAudioFileUrl="" stabilizationMode="0" mediaItemType="2" />
    <MediaItem id="764" filePath="C:\Users\owner\Documents\Work\Ising model\ising_animation\Ising animation (non-zip)\animations\ising_anim0764.png" arWidth="320" arHeight="240" duration="0" songTitle="" songArtist="" songAlbum="" songCopyrightUrl="" songArtistUrl="" songAudioFileUrl="" stabilizationMode="0" mediaItemType="2" />
    <MediaItem id="243" filePath="C:\Users\owner\Documents\Work\Ising model\ising_animation\Ising animation (non-zip)\animations\ising_anim0243.png" arWidth="320" arHeight="240" duration="0" songTitle="" songArtist="" songAlbum="" songCopyrightUrl="" songArtistUrl="" songAudioFileUrl="" stabilizationMode="0" mediaItemType="2" />
    <MediaItem id="765" filePath="C:\Users\owner\Documents\Work\Ising model\ising_animation\Ising animation (non-zip)\animations\ising_anim0765.png" arWidth="320" arHeight="240" duration="0" songTitle="" songArtist="" songAlbum="" songCopyrightUrl="" songArtistUrl="" songAudioFileUrl="" stabilizationMode="0" mediaItemType="2" />
    <MediaItem id="244" filePath="C:\Users\owner\Documents\Work\Ising model\ising_animation\Ising animation (non-zip)\animations\ising_anim0244.png" arWidth="320" arHeight="240" duration="0" songTitle="" songArtist="" songAlbum="" songCopyrightUrl="" songArtistUrl="" songAudioFileUrl="" stabilizationMode="0" mediaItemType="2" />
    <MediaItem id="766" filePath="C:\Users\owner\Documents\Work\Ising model\ising_animation\Ising animation (non-zip)\animations\ising_anim0766.png" arWidth="320" arHeight="240" duration="0" songTitle="" songArtist="" songAlbum="" songCopyrightUrl="" songArtistUrl="" songAudioFileUrl="" stabilizationMode="0" mediaItemType="2" />
    <MediaItem id="245" filePath="C:\Users\owner\Documents\Work\Ising model\ising_animation\Ising animation (non-zip)\animations\ising_anim0245.png" arWidth="320" arHeight="240" duration="0" songTitle="" songArtist="" songAlbum="" songCopyrightUrl="" songArtistUrl="" songAudioFileUrl="" stabilizationMode="0" mediaItemType="2" />
    <MediaItem id="767" filePath="C:\Users\owner\Documents\Work\Ising model\ising_animation\Ising animation (non-zip)\animations\ising_anim0767.png" arWidth="320" arHeight="240" duration="0" songTitle="" songArtist="" songAlbum="" songCopyrightUrl="" songArtistUrl="" songAudioFileUrl="" stabilizationMode="0" mediaItemType="2" />
    <MediaItem id="246" filePath="C:\Users\owner\Documents\Work\Ising model\ising_animation\Ising animation (non-zip)\animations\ising_anim0246.png" arWidth="320" arHeight="240" duration="0" songTitle="" songArtist="" songAlbum="" songCopyrightUrl="" songArtistUrl="" songAudioFileUrl="" stabilizationMode="0" mediaItemType="2" />
    <MediaItem id="768" filePath="C:\Users\owner\Documents\Work\Ising model\ising_animation\Ising animation (non-zip)\animations\ising_anim0768.png" arWidth="320" arHeight="240" duration="0" songTitle="" songArtist="" songAlbum="" songCopyrightUrl="" songArtistUrl="" songAudioFileUrl="" stabilizationMode="0" mediaItemType="2" />
    <MediaItem id="247" filePath="C:\Users\owner\Documents\Work\Ising model\ising_animation\Ising animation (non-zip)\animations\ising_anim0247.png" arWidth="320" arHeight="240" duration="0" songTitle="" songArtist="" songAlbum="" songCopyrightUrl="" songArtistUrl="" songAudioFileUrl="" stabilizationMode="0" mediaItemType="2" />
    <MediaItem id="769" filePath="C:\Users\owner\Documents\Work\Ising model\ising_animation\Ising animation (non-zip)\animations\ising_anim0769.png" arWidth="320" arHeight="240" duration="0" songTitle="" songArtist="" songAlbum="" songCopyrightUrl="" songArtistUrl="" songAudioFileUrl="" stabilizationMode="0" mediaItemType="2" />
    <MediaItem id="248" filePath="C:\Users\owner\Documents\Work\Ising model\ising_animation\Ising animation (non-zip)\animations\ising_anim0248.png" arWidth="320" arHeight="240" duration="0" songTitle="" songArtist="" songAlbum="" songCopyrightUrl="" songArtistUrl="" songAudioFileUrl="" stabilizationMode="0" mediaItemType="2" />
    <MediaItem id="770" filePath="C:\Users\owner\Documents\Work\Ising model\ising_animation\Ising animation (non-zip)\animations\ising_anim0770.png" arWidth="320" arHeight="240" duration="0" songTitle="" songArtist="" songAlbum="" songCopyrightUrl="" songArtistUrl="" songAudioFileUrl="" stabilizationMode="0" mediaItemType="2" />
    <MediaItem id="249" filePath="C:\Users\owner\Documents\Work\Ising model\ising_animation\Ising animation (non-zip)\animations\ising_anim0249.png" arWidth="320" arHeight="240" duration="0" songTitle="" songArtist="" songAlbum="" songCopyrightUrl="" songArtistUrl="" songAudioFileUrl="" stabilizationMode="0" mediaItemType="2" />
    <MediaItem id="771" filePath="C:\Users\owner\Documents\Work\Ising model\ising_animation\Ising animation (non-zip)\animations\ising_anim0771.png" arWidth="320" arHeight="240" duration="0" songTitle="" songArtist="" songAlbum="" songCopyrightUrl="" songArtistUrl="" songAudioFileUrl="" stabilizationMode="0" mediaItemType="2" />
    <MediaItem id="250" filePath="C:\Users\owner\Documents\Work\Ising model\ising_animation\Ising animation (non-zip)\animations\ising_anim0250.png" arWidth="320" arHeight="240" duration="0" songTitle="" songArtist="" songAlbum="" songCopyrightUrl="" songArtistUrl="" songAudioFileUrl="" stabilizationMode="0" mediaItemType="2" />
    <MediaItem id="772" filePath="C:\Users\owner\Documents\Work\Ising model\ising_animation\Ising animation (non-zip)\animations\ising_anim0772.png" arWidth="320" arHeight="240" duration="0" songTitle="" songArtist="" songAlbum="" songCopyrightUrl="" songArtistUrl="" songAudioFileUrl="" stabilizationMode="0" mediaItemType="2" />
    <MediaItem id="251" filePath="C:\Users\owner\Documents\Work\Ising model\ising_animation\Ising animation (non-zip)\animations\ising_anim0251.png" arWidth="320" arHeight="240" duration="0" songTitle="" songArtist="" songAlbum="" songCopyrightUrl="" songArtistUrl="" songAudioFileUrl="" stabilizationMode="0" mediaItemType="2" />
    <MediaItem id="773" filePath="C:\Users\owner\Documents\Work\Ising model\ising_animation\Ising animation (non-zip)\animations\ising_anim0773.png" arWidth="320" arHeight="240" duration="0" songTitle="" songArtist="" songAlbum="" songCopyrightUrl="" songArtistUrl="" songAudioFileUrl="" stabilizationMode="0" mediaItemType="2" />
    <MediaItem id="252" filePath="C:\Users\owner\Documents\Work\Ising model\ising_animation\Ising animation (non-zip)\animations\ising_anim0252.png" arWidth="320" arHeight="240" duration="0" songTitle="" songArtist="" songAlbum="" songCopyrightUrl="" songArtistUrl="" songAudioFileUrl="" stabilizationMode="0" mediaItemType="2" />
    <MediaItem id="774" filePath="C:\Users\owner\Documents\Work\Ising model\ising_animation\Ising animation (non-zip)\animations\ising_anim0774.png" arWidth="320" arHeight="240" duration="0" songTitle="" songArtist="" songAlbum="" songCopyrightUrl="" songArtistUrl="" songAudioFileUrl="" stabilizationMode="0" mediaItemType="2" />
    <MediaItem id="253" filePath="C:\Users\owner\Documents\Work\Ising model\ising_animation\Ising animation (non-zip)\animations\ising_anim0253.png" arWidth="320" arHeight="240" duration="0" songTitle="" songArtist="" songAlbum="" songCopyrightUrl="" songArtistUrl="" songAudioFileUrl="" stabilizationMode="0" mediaItemType="2" />
    <MediaItem id="775" filePath="C:\Users\owner\Documents\Work\Ising model\ising_animation\Ising animation (non-zip)\animations\ising_anim0775.png" arWidth="320" arHeight="240" duration="0" songTitle="" songArtist="" songAlbum="" songCopyrightUrl="" songArtistUrl="" songAudioFileUrl="" stabilizationMode="0" mediaItemType="2" />
    <MediaItem id="254" filePath="C:\Users\owner\Documents\Work\Ising model\ising_animation\Ising animation (non-zip)\animations\ising_anim0254.png" arWidth="320" arHeight="240" duration="0" songTitle="" songArtist="" songAlbum="" songCopyrightUrl="" songArtistUrl="" songAudioFileUrl="" stabilizationMode="0" mediaItemType="2" />
    <MediaItem id="776" filePath="C:\Users\owner\Documents\Work\Ising model\ising_animation\Ising animation (non-zip)\animations\ising_anim0776.png" arWidth="320" arHeight="240" duration="0" songTitle="" songArtist="" songAlbum="" songCopyrightUrl="" songArtistUrl="" songAudioFileUrl="" stabilizationMode="0" mediaItemType="2" />
    <MediaItem id="255" filePath="C:\Users\owner\Documents\Work\Ising model\ising_animation\Ising animation (non-zip)\animations\ising_anim0255.png" arWidth="320" arHeight="240" duration="0" songTitle="" songArtist="" songAlbum="" songCopyrightUrl="" songArtistUrl="" songAudioFileUrl="" stabilizationMode="0" mediaItemType="2" />
    <MediaItem id="777" filePath="C:\Users\owner\Documents\Work\Ising model\ising_animation\Ising animation (non-zip)\animations\ising_anim0777.png" arWidth="320" arHeight="240" duration="0" songTitle="" songArtist="" songAlbum="" songCopyrightUrl="" songArtistUrl="" songAudioFileUrl="" stabilizationMode="0" mediaItemType="2" />
    <MediaItem id="256" filePath="C:\Users\owner\Documents\Work\Ising model\ising_animation\Ising animation (non-zip)\animations\ising_anim0256.png" arWidth="320" arHeight="240" duration="0" songTitle="" songArtist="" songAlbum="" songCopyrightUrl="" songArtistUrl="" songAudioFileUrl="" stabilizationMode="0" mediaItemType="2" />
    <MediaItem id="778" filePath="C:\Users\owner\Documents\Work\Ising model\ising_animation\Ising animation (non-zip)\animations\ising_anim0778.png" arWidth="320" arHeight="240" duration="0" songTitle="" songArtist="" songAlbum="" songCopyrightUrl="" songArtistUrl="" songAudioFileUrl="" stabilizationMode="0" mediaItemType="2" />
    <MediaItem id="257" filePath="C:\Users\owner\Documents\Work\Ising model\ising_animation\Ising animation (non-zip)\animations\ising_anim0257.png" arWidth="320" arHeight="240" duration="0" songTitle="" songArtist="" songAlbum="" songCopyrightUrl="" songArtistUrl="" songAudioFileUrl="" stabilizationMode="0" mediaItemType="2" />
    <MediaItem id="779" filePath="C:\Users\owner\Documents\Work\Ising model\ising_animation\Ising animation (non-zip)\animations\ising_anim0779.png" arWidth="320" arHeight="240" duration="0" songTitle="" songArtist="" songAlbum="" songCopyrightUrl="" songArtistUrl="" songAudioFileUrl="" stabilizationMode="0" mediaItemType="2" />
    <MediaItem id="258" filePath="C:\Users\owner\Documents\Work\Ising model\ising_animation\Ising animation (non-zip)\animations\ising_anim0258.png" arWidth="320" arHeight="240" duration="0" songTitle="" songArtist="" songAlbum="" songCopyrightUrl="" songArtistUrl="" songAudioFileUrl="" stabilizationMode="0" mediaItemType="2" />
    <MediaItem id="780" filePath="C:\Users\owner\Documents\Work\Ising model\ising_animation\Ising animation (non-zip)\animations\ising_anim0780.png" arWidth="320" arHeight="240" duration="0" songTitle="" songArtist="" songAlbum="" songCopyrightUrl="" songArtistUrl="" songAudioFileUrl="" stabilizationMode="0" mediaItemType="2" />
    <MediaItem id="259" filePath="C:\Users\owner\Documents\Work\Ising model\ising_animation\Ising animation (non-zip)\animations\ising_anim0259.png" arWidth="320" arHeight="240" duration="0" songTitle="" songArtist="" songAlbum="" songCopyrightUrl="" songArtistUrl="" songAudioFileUrl="" stabilizationMode="0" mediaItemType="2" />
    <MediaItem id="781" filePath="C:\Users\owner\Documents\Work\Ising model\ising_animation\Ising animation (non-zip)\animations\ising_anim0781.png" arWidth="320" arHeight="240" duration="0" songTitle="" songArtist="" songAlbum="" songCopyrightUrl="" songArtistUrl="" songAudioFileUrl="" stabilizationMode="0" mediaItemType="2" />
    <MediaItem id="260" filePath="C:\Users\owner\Documents\Work\Ising model\ising_animation\Ising animation (non-zip)\animations\ising_anim0260.png" arWidth="320" arHeight="240" duration="0" songTitle="" songArtist="" songAlbum="" songCopyrightUrl="" songArtistUrl="" songAudioFileUrl="" stabilizationMode="0" mediaItemType="2" />
    <MediaItem id="782" filePath="C:\Users\owner\Documents\Work\Ising model\ising_animation\Ising animation (non-zip)\animations\ising_anim0782.png" arWidth="320" arHeight="240" duration="0" songTitle="" songArtist="" songAlbum="" songCopyrightUrl="" songArtistUrl="" songAudioFileUrl="" stabilizationMode="0" mediaItemType="2" />
    <MediaItem id="261" filePath="C:\Users\owner\Documents\Work\Ising model\ising_animation\Ising animation (non-zip)\animations\ising_anim0261.png" arWidth="320" arHeight="240" duration="0" songTitle="" songArtist="" songAlbum="" songCopyrightUrl="" songArtistUrl="" songAudioFileUrl="" stabilizationMode="0" mediaItemType="2" />
    <MediaItem id="783" filePath="C:\Users\owner\Documents\Work\Ising model\ising_animation\Ising animation (non-zip)\animations\ising_anim0783.png" arWidth="320" arHeight="240" duration="0" songTitle="" songArtist="" songAlbum="" songCopyrightUrl="" songArtistUrl="" songAudioFileUrl="" stabilizationMode="0" mediaItemType="2" />
    <MediaItem id="262" filePath="C:\Users\owner\Documents\Work\Ising model\ising_animation\Ising animation (non-zip)\animations\ising_anim0262.png" arWidth="320" arHeight="240" duration="0" songTitle="" songArtist="" songAlbum="" songCopyrightUrl="" songArtistUrl="" songAudioFileUrl="" stabilizationMode="0" mediaItemType="2" />
    <MediaItem id="784" filePath="C:\Users\owner\Documents\Work\Ising model\ising_animation\Ising animation (non-zip)\animations\ising_anim0784.png" arWidth="320" arHeight="240" duration="0" songTitle="" songArtist="" songAlbum="" songCopyrightUrl="" songArtistUrl="" songAudioFileUrl="" stabilizationMode="0" mediaItemType="2" />
    <MediaItem id="263" filePath="C:\Users\owner\Documents\Work\Ising model\ising_animation\Ising animation (non-zip)\animations\ising_anim0263.png" arWidth="320" arHeight="240" duration="0" songTitle="" songArtist="" songAlbum="" songCopyrightUrl="" songArtistUrl="" songAudioFileUrl="" stabilizationMode="0" mediaItemType="2" />
    <MediaItem id="785" filePath="C:\Users\owner\Documents\Work\Ising model\ising_animation\Ising animation (non-zip)\animations\ising_anim0785.png" arWidth="320" arHeight="240" duration="0" songTitle="" songArtist="" songAlbum="" songCopyrightUrl="" songArtistUrl="" songAudioFileUrl="" stabilizationMode="0" mediaItemType="2" />
    <MediaItem id="264" filePath="C:\Users\owner\Documents\Work\Ising model\ising_animation\Ising animation (non-zip)\animations\ising_anim0264.png" arWidth="320" arHeight="240" duration="0" songTitle="" songArtist="" songAlbum="" songCopyrightUrl="" songArtistUrl="" songAudioFileUrl="" stabilizationMode="0" mediaItemType="2" />
    <MediaItem id="786" filePath="C:\Users\owner\Documents\Work\Ising model\ising_animation\Ising animation (non-zip)\animations\ising_anim0786.png" arWidth="320" arHeight="240" duration="0" songTitle="" songArtist="" songAlbum="" songCopyrightUrl="" songArtistUrl="" songAudioFileUrl="" stabilizationMode="0" mediaItemType="2" />
    <MediaItem id="265" filePath="C:\Users\owner\Documents\Work\Ising model\ising_animation\Ising animation (non-zip)\animations\ising_anim0265.png" arWidth="320" arHeight="240" duration="0" songTitle="" songArtist="" songAlbum="" songCopyrightUrl="" songArtistUrl="" songAudioFileUrl="" stabilizationMode="0" mediaItemType="2" />
    <MediaItem id="787" filePath="C:\Users\owner\Documents\Work\Ising model\ising_animation\Ising animation (non-zip)\animations\ising_anim0787.png" arWidth="320" arHeight="240" duration="0" songTitle="" songArtist="" songAlbum="" songCopyrightUrl="" songArtistUrl="" songAudioFileUrl="" stabilizationMode="0" mediaItemType="2" />
    <MediaItem id="266" filePath="C:\Users\owner\Documents\Work\Ising model\ising_animation\Ising animation (non-zip)\animations\ising_anim0266.png" arWidth="320" arHeight="240" duration="0" songTitle="" songArtist="" songAlbum="" songCopyrightUrl="" songArtistUrl="" songAudioFileUrl="" stabilizationMode="0" mediaItemType="2" />
    <MediaItem id="788" filePath="C:\Users\owner\Documents\Work\Ising model\ising_animation\Ising animation (non-zip)\animations\ising_anim0788.png" arWidth="320" arHeight="240" duration="0" songTitle="" songArtist="" songAlbum="" songCopyrightUrl="" songArtistUrl="" songAudioFileUrl="" stabilizationMode="0" mediaItemType="2" />
    <MediaItem id="267" filePath="C:\Users\owner\Documents\Work\Ising model\ising_animation\Ising animation (non-zip)\animations\ising_anim0267.png" arWidth="320" arHeight="240" duration="0" songTitle="" songArtist="" songAlbum="" songCopyrightUrl="" songArtistUrl="" songAudioFileUrl="" stabilizationMode="0" mediaItemType="2" />
    <MediaItem id="789" filePath="C:\Users\owner\Documents\Work\Ising model\ising_animation\Ising animation (non-zip)\animations\ising_anim0789.png" arWidth="320" arHeight="240" duration="0" songTitle="" songArtist="" songAlbum="" songCopyrightUrl="" songArtistUrl="" songAudioFileUrl="" stabilizationMode="0" mediaItemType="2" />
    <MediaItem id="268" filePath="C:\Users\owner\Documents\Work\Ising model\ising_animation\Ising animation (non-zip)\animations\ising_anim0268.png" arWidth="320" arHeight="240" duration="0" songTitle="" songArtist="" songAlbum="" songCopyrightUrl="" songArtistUrl="" songAudioFileUrl="" stabilizationMode="0" mediaItemType="2" />
    <MediaItem id="790" filePath="C:\Users\owner\Documents\Work\Ising model\ising_animation\Ising animation (non-zip)\animations\ising_anim0790.png" arWidth="320" arHeight="240" duration="0" songTitle="" songArtist="" songAlbum="" songCopyrightUrl="" songArtistUrl="" songAudioFileUrl="" stabilizationMode="0" mediaItemType="2" />
    <MediaItem id="269" filePath="C:\Users\owner\Documents\Work\Ising model\ising_animation\Ising animation (non-zip)\animations\ising_anim0269.png" arWidth="320" arHeight="240" duration="0" songTitle="" songArtist="" songAlbum="" songCopyrightUrl="" songArtistUrl="" songAudioFileUrl="" stabilizationMode="0" mediaItemType="2" />
    <MediaItem id="791" filePath="C:\Users\owner\Documents\Work\Ising model\ising_animation\Ising animation (non-zip)\animations\ising_anim0791.png" arWidth="320" arHeight="240" duration="0" songTitle="" songArtist="" songAlbum="" songCopyrightUrl="" songArtistUrl="" songAudioFileUrl="" stabilizationMode="0" mediaItemType="2" />
    <MediaItem id="270" filePath="C:\Users\owner\Documents\Work\Ising model\ising_animation\Ising animation (non-zip)\animations\ising_anim0270.png" arWidth="320" arHeight="240" duration="0" songTitle="" songArtist="" songAlbum="" songCopyrightUrl="" songArtistUrl="" songAudioFileUrl="" stabilizationMode="0" mediaItemType="2" />
    <MediaItem id="792" filePath="C:\Users\owner\Documents\Work\Ising model\ising_animation\Ising animation (non-zip)\animations\ising_anim0792.png" arWidth="320" arHeight="240" duration="0" songTitle="" songArtist="" songAlbum="" songCopyrightUrl="" songArtistUrl="" songAudioFileUrl="" stabilizationMode="0" mediaItemType="2" />
    <MediaItem id="271" filePath="C:\Users\owner\Documents\Work\Ising model\ising_animation\Ising animation (non-zip)\animations\ising_anim0271.png" arWidth="320" arHeight="240" duration="0" songTitle="" songArtist="" songAlbum="" songCopyrightUrl="" songArtistUrl="" songAudioFileUrl="" stabilizationMode="0" mediaItemType="2" />
    <MediaItem id="793" filePath="C:\Users\owner\Documents\Work\Ising model\ising_animation\Ising animation (non-zip)\animations\ising_anim0793.png" arWidth="320" arHeight="240" duration="0" songTitle="" songArtist="" songAlbum="" songCopyrightUrl="" songArtistUrl="" songAudioFileUrl="" stabilizationMode="0" mediaItemType="2" />
    <MediaItem id="272" filePath="C:\Users\owner\Documents\Work\Ising model\ising_animation\Ising animation (non-zip)\animations\ising_anim0272.png" arWidth="320" arHeight="240" duration="0" songTitle="" songArtist="" songAlbum="" songCopyrightUrl="" songArtistUrl="" songAudioFileUrl="" stabilizationMode="0" mediaItemType="2" />
    <MediaItem id="794" filePath="C:\Users\owner\Documents\Work\Ising model\ising_animation\Ising animation (non-zip)\animations\ising_anim0794.png" arWidth="320" arHeight="240" duration="0" songTitle="" songArtist="" songAlbum="" songCopyrightUrl="" songArtistUrl="" songAudioFileUrl="" stabilizationMode="0" mediaItemType="2" />
    <MediaItem id="273" filePath="C:\Users\owner\Documents\Work\Ising model\ising_animation\Ising animation (non-zip)\animations\ising_anim0273.png" arWidth="320" arHeight="240" duration="0" songTitle="" songArtist="" songAlbum="" songCopyrightUrl="" songArtistUrl="" songAudioFileUrl="" stabilizationMode="0" mediaItemType="2" />
    <MediaItem id="795" filePath="C:\Users\owner\Documents\Work\Ising model\ising_animation\Ising animation (non-zip)\animations\ising_anim0795.png" arWidth="320" arHeight="240" duration="0" songTitle="" songArtist="" songAlbum="" songCopyrightUrl="" songArtistUrl="" songAudioFileUrl="" stabilizationMode="0" mediaItemType="2" />
    <MediaItem id="274" filePath="C:\Users\owner\Documents\Work\Ising model\ising_animation\Ising animation (non-zip)\animations\ising_anim0274.png" arWidth="320" arHeight="240" duration="0" songTitle="" songArtist="" songAlbum="" songCopyrightUrl="" songArtistUrl="" songAudioFileUrl="" stabilizationMode="0" mediaItemType="2" />
    <MediaItem id="796" filePath="C:\Users\owner\Documents\Work\Ising model\ising_animation\Ising animation (non-zip)\animations\ising_anim0796.png" arWidth="320" arHeight="240" duration="0" songTitle="" songArtist="" songAlbum="" songCopyrightUrl="" songArtistUrl="" songAudioFileUrl="" stabilizationMode="0" mediaItemType="2" />
    <MediaItem id="275" filePath="C:\Users\owner\Documents\Work\Ising model\ising_animation\Ising animation (non-zip)\animations\ising_anim0275.png" arWidth="320" arHeight="240" duration="0" songTitle="" songArtist="" songAlbum="" songCopyrightUrl="" songArtistUrl="" songAudioFileUrl="" stabilizationMode="0" mediaItemType="2" />
    <MediaItem id="797" filePath="C:\Users\owner\Documents\Work\Ising model\ising_animation\Ising animation (non-zip)\animations\ising_anim0797.png" arWidth="320" arHeight="240" duration="0" songTitle="" songArtist="" songAlbum="" songCopyrightUrl="" songArtistUrl="" songAudioFileUrl="" stabilizationMode="0" mediaItemType="2" />
    <MediaItem id="276" filePath="C:\Users\owner\Documents\Work\Ising model\ising_animation\Ising animation (non-zip)\animations\ising_anim0276.png" arWidth="320" arHeight="240" duration="0" songTitle="" songArtist="" songAlbum="" songCopyrightUrl="" songArtistUrl="" songAudioFileUrl="" stabilizationMode="0" mediaItemType="2" />
    <MediaItem id="798" filePath="C:\Users\owner\Documents\Work\Ising model\ising_animation\Ising animation (non-zip)\animations\ising_anim0798.png" arWidth="320" arHeight="240" duration="0" songTitle="" songArtist="" songAlbum="" songCopyrightUrl="" songArtistUrl="" songAudioFileUrl="" stabilizationMode="0" mediaItemType="2" />
    <MediaItem id="277" filePath="C:\Users\owner\Documents\Work\Ising model\ising_animation\Ising animation (non-zip)\animations\ising_anim0277.png" arWidth="320" arHeight="240" duration="0" songTitle="" songArtist="" songAlbum="" songCopyrightUrl="" songArtistUrl="" songAudioFileUrl="" stabilizationMode="0" mediaItemType="2" />
    <MediaItem id="799" filePath="C:\Users\owner\Documents\Work\Ising model\ising_animation\Ising animation (non-zip)\animations\ising_anim0799.png" arWidth="320" arHeight="240" duration="0" songTitle="" songArtist="" songAlbum="" songCopyrightUrl="" songArtistUrl="" songAudioFileUrl="" stabilizationMode="0" mediaItemType="2" />
    <MediaItem id="278" filePath="C:\Users\owner\Documents\Work\Ising model\ising_animation\Ising animation (non-zip)\animations\ising_anim0278.png" arWidth="320" arHeight="240" duration="0" songTitle="" songArtist="" songAlbum="" songCopyrightUrl="" songArtistUrl="" songAudioFileUrl="" stabilizationMode="0" mediaItemType="2" />
    <MediaItem id="800" filePath="C:\Users\owner\Documents\Work\Ising model\ising_animation\Ising animation (non-zip)\animations\ising_anim0800.png" arWidth="320" arHeight="240" duration="0" songTitle="" songArtist="" songAlbum="" songCopyrightUrl="" songArtistUrl="" songAudioFileUrl="" stabilizationMode="0" mediaItemType="2" />
    <MediaItem id="279" filePath="C:\Users\owner\Documents\Work\Ising model\ising_animation\Ising animation (non-zip)\animations\ising_anim0279.png" arWidth="320" arHeight="240" duration="0" songTitle="" songArtist="" songAlbum="" songCopyrightUrl="" songArtistUrl="" songAudioFileUrl="" stabilizationMode="0" mediaItemType="2" />
    <MediaItem id="801" filePath="C:\Users\owner\Documents\Work\Ising model\ising_animation\Ising animation (non-zip)\animations\ising_anim0801.png" arWidth="320" arHeight="240" duration="0" songTitle="" songArtist="" songAlbum="" songCopyrightUrl="" songArtistUrl="" songAudioFileUrl="" stabilizationMode="0" mediaItemType="2" />
    <MediaItem id="280" filePath="C:\Users\owner\Documents\Work\Ising model\ising_animation\Ising animation (non-zip)\animations\ising_anim0280.png" arWidth="320" arHeight="240" duration="0" songTitle="" songArtist="" songAlbum="" songCopyrightUrl="" songArtistUrl="" songAudioFileUrl="" stabilizationMode="0" mediaItemType="2" />
    <MediaItem id="802" filePath="C:\Users\owner\Documents\Work\Ising model\ising_animation\Ising animation (non-zip)\animations\ising_anim0802.png" arWidth="320" arHeight="240" duration="0" songTitle="" songArtist="" songAlbum="" songCopyrightUrl="" songArtistUrl="" songAudioFileUrl="" stabilizationMode="0" mediaItemType="2" />
    <MediaItem id="281" filePath="C:\Users\owner\Documents\Work\Ising model\ising_animation\Ising animation (non-zip)\animations\ising_anim0281.png" arWidth="320" arHeight="240" duration="0" songTitle="" songArtist="" songAlbum="" songCopyrightUrl="" songArtistUrl="" songAudioFileUrl="" stabilizationMode="0" mediaItemType="2" />
    <MediaItem id="803" filePath="C:\Users\owner\Documents\Work\Ising model\ising_animation\Ising animation (non-zip)\animations\ising_anim0803.png" arWidth="320" arHeight="240" duration="0" songTitle="" songArtist="" songAlbum="" songCopyrightUrl="" songArtistUrl="" songAudioFileUrl="" stabilizationMode="0" mediaItemType="2" />
    <MediaItem id="282" filePath="C:\Users\owner\Documents\Work\Ising model\ising_animation\Ising animation (non-zip)\animations\ising_anim0282.png" arWidth="320" arHeight="240" duration="0" songTitle="" songArtist="" songAlbum="" songCopyrightUrl="" songArtistUrl="" songAudioFileUrl="" stabilizationMode="0" mediaItemType="2" />
    <MediaItem id="804" filePath="C:\Users\owner\Documents\Work\Ising model\ising_animation\Ising animation (non-zip)\animations\ising_anim0804.png" arWidth="320" arHeight="240" duration="0" songTitle="" songArtist="" songAlbum="" songCopyrightUrl="" songArtistUrl="" songAudioFileUrl="" stabilizationMode="0" mediaItemType="2" />
    <MediaItem id="283" filePath="C:\Users\owner\Documents\Work\Ising model\ising_animation\Ising animation (non-zip)\animations\ising_anim0283.png" arWidth="320" arHeight="240" duration="0" songTitle="" songArtist="" songAlbum="" songCopyrightUrl="" songArtistUrl="" songAudioFileUrl="" stabilizationMode="0" mediaItemType="2" />
    <MediaItem id="805" filePath="C:\Users\owner\Documents\Work\Ising model\ising_animation\Ising animation (non-zip)\animations\ising_anim0805.png" arWidth="320" arHeight="240" duration="0" songTitle="" songArtist="" songAlbum="" songCopyrightUrl="" songArtistUrl="" songAudioFileUrl="" stabilizationMode="0" mediaItemType="2" />
    <MediaItem id="284" filePath="C:\Users\owner\Documents\Work\Ising model\ising_animation\Ising animation (non-zip)\animations\ising_anim0284.png" arWidth="320" arHeight="240" duration="0" songTitle="" songArtist="" songAlbum="" songCopyrightUrl="" songArtistUrl="" songAudioFileUrl="" stabilizationMode="0" mediaItemType="2" />
    <MediaItem id="806" filePath="C:\Users\owner\Documents\Work\Ising model\ising_animation\Ising animation (non-zip)\animations\ising_anim0806.png" arWidth="320" arHeight="240" duration="0" songTitle="" songArtist="" songAlbum="" songCopyrightUrl="" songArtistUrl="" songAudioFileUrl="" stabilizationMode="0" mediaItemType="2" />
    <MediaItem id="285" filePath="C:\Users\owner\Documents\Work\Ising model\ising_animation\Ising animation (non-zip)\animations\ising_anim0285.png" arWidth="320" arHeight="240" duration="0" songTitle="" songArtist="" songAlbum="" songCopyrightUrl="" songArtistUrl="" songAudioFileUrl="" stabilizationMode="0" mediaItemType="2" />
    <MediaItem id="807" filePath="C:\Users\owner\Documents\Work\Ising model\ising_animation\Ising animation (non-zip)\animations\ising_anim0807.png" arWidth="320" arHeight="240" duration="0" songTitle="" songArtist="" songAlbum="" songCopyrightUrl="" songArtistUrl="" songAudioFileUrl="" stabilizationMode="0" mediaItemType="2" />
    <MediaItem id="286" filePath="C:\Users\owner\Documents\Work\Ising model\ising_animation\Ising animation (non-zip)\animations\ising_anim0286.png" arWidth="320" arHeight="240" duration="0" songTitle="" songArtist="" songAlbum="" songCopyrightUrl="" songArtistUrl="" songAudioFileUrl="" stabilizationMode="0" mediaItemType="2" />
    <MediaItem id="808" filePath="C:\Users\owner\Documents\Work\Ising model\ising_animation\Ising animation (non-zip)\animations\ising_anim0808.png" arWidth="320" arHeight="240" duration="0" songTitle="" songArtist="" songAlbum="" songCopyrightUrl="" songArtistUrl="" songAudioFileUrl="" stabilizationMode="0" mediaItemType="2" />
    <MediaItem id="287" filePath="C:\Users\owner\Documents\Work\Ising model\ising_animation\Ising animation (non-zip)\animations\ising_anim0287.png" arWidth="320" arHeight="240" duration="0" songTitle="" songArtist="" songAlbum="" songCopyrightUrl="" songArtistUrl="" songAudioFileUrl="" stabilizationMode="0" mediaItemType="2" />
    <MediaItem id="809" filePath="C:\Users\owner\Documents\Work\Ising model\ising_animation\Ising animation (non-zip)\animations\ising_anim0809.png" arWidth="320" arHeight="240" duration="0" songTitle="" songArtist="" songAlbum="" songCopyrightUrl="" songArtistUrl="" songAudioFileUrl="" stabilizationMode="0" mediaItemType="2" />
    <MediaItem id="288" filePath="C:\Users\owner\Documents\Work\Ising model\ising_animation\Ising animation (non-zip)\animations\ising_anim0288.png" arWidth="320" arHeight="240" duration="0" songTitle="" songArtist="" songAlbum="" songCopyrightUrl="" songArtistUrl="" songAudioFileUrl="" stabilizationMode="0" mediaItemType="2" />
    <MediaItem id="810" filePath="C:\Users\owner\Documents\Work\Ising model\ising_animation\Ising animation (non-zip)\animations\ising_anim0810.png" arWidth="320" arHeight="240" duration="0" songTitle="" songArtist="" songAlbum="" songCopyrightUrl="" songArtistUrl="" songAudioFileUrl="" stabilizationMode="0" mediaItemType="2" />
    <MediaItem id="289" filePath="C:\Users\owner\Documents\Work\Ising model\ising_animation\Ising animation (non-zip)\animations\ising_anim0289.png" arWidth="320" arHeight="240" duration="0" songTitle="" songArtist="" songAlbum="" songCopyrightUrl="" songArtistUrl="" songAudioFileUrl="" stabilizationMode="0" mediaItemType="2" />
    <MediaItem id="811" filePath="C:\Users\owner\Documents\Work\Ising model\ising_animation\Ising animation (non-zip)\animations\ising_anim0811.png" arWidth="320" arHeight="240" duration="0" songTitle="" songArtist="" songAlbum="" songCopyrightUrl="" songArtistUrl="" songAudioFileUrl="" stabilizationMode="0" mediaItemType="2" />
    <MediaItem id="290" filePath="C:\Users\owner\Documents\Work\Ising model\ising_animation\Ising animation (non-zip)\animations\ising_anim0290.png" arWidth="320" arHeight="240" duration="0" songTitle="" songArtist="" songAlbum="" songCopyrightUrl="" songArtistUrl="" songAudioFileUrl="" stabilizationMode="0" mediaItemType="2" />
    <MediaItem id="812" filePath="C:\Users\owner\Documents\Work\Ising model\ising_animation\Ising animation (non-zip)\animations\ising_anim0812.png" arWidth="320" arHeight="240" duration="0" songTitle="" songArtist="" songAlbum="" songCopyrightUrl="" songArtistUrl="" songAudioFileUrl="" stabilizationMode="0" mediaItemType="2" />
    <MediaItem id="291" filePath="C:\Users\owner\Documents\Work\Ising model\ising_animation\Ising animation (non-zip)\animations\ising_anim0291.png" arWidth="320" arHeight="240" duration="0" songTitle="" songArtist="" songAlbum="" songCopyrightUrl="" songArtistUrl="" songAudioFileUrl="" stabilizationMode="0" mediaItemType="2" />
    <MediaItem id="813" filePath="C:\Users\owner\Documents\Work\Ising model\ising_animation\Ising animation (non-zip)\animations\ising_anim0813.png" arWidth="320" arHeight="240" duration="0" songTitle="" songArtist="" songAlbum="" songCopyrightUrl="" songArtistUrl="" songAudioFileUrl="" stabilizationMode="0" mediaItemType="2" />
    <MediaItem id="292" filePath="C:\Users\owner\Documents\Work\Ising model\ising_animation\Ising animation (non-zip)\animations\ising_anim0292.png" arWidth="320" arHeight="240" duration="0" songTitle="" songArtist="" songAlbum="" songCopyrightUrl="" songArtistUrl="" songAudioFileUrl="" stabilizationMode="0" mediaItemType="2" />
    <MediaItem id="814" filePath="C:\Users\owner\Documents\Work\Ising model\ising_animation\Ising animation (non-zip)\animations\ising_anim0814.png" arWidth="320" arHeight="240" duration="0" songTitle="" songArtist="" songAlbum="" songCopyrightUrl="" songArtistUrl="" songAudioFileUrl="" stabilizationMode="0" mediaItemType="2" />
    <MediaItem id="293" filePath="C:\Users\owner\Documents\Work\Ising model\ising_animation\Ising animation (non-zip)\animations\ising_anim0293.png" arWidth="320" arHeight="240" duration="0" songTitle="" songArtist="" songAlbum="" songCopyrightUrl="" songArtistUrl="" songAudioFileUrl="" stabilizationMode="0" mediaItemType="2" />
    <MediaItem id="815" filePath="C:\Users\owner\Documents\Work\Ising model\ising_animation\Ising animation (non-zip)\animations\ising_anim0815.png" arWidth="320" arHeight="240" duration="0" songTitle="" songArtist="" songAlbum="" songCopyrightUrl="" songArtistUrl="" songAudioFileUrl="" stabilizationMode="0" mediaItemType="2" />
    <MediaItem id="294" filePath="C:\Users\owner\Documents\Work\Ising model\ising_animation\Ising animation (non-zip)\animations\ising_anim0294.png" arWidth="320" arHeight="240" duration="0" songTitle="" songArtist="" songAlbum="" songCopyrightUrl="" songArtistUrl="" songAudioFileUrl="" stabilizationMode="0" mediaItemType="2" />
    <MediaItem id="816" filePath="C:\Users\owner\Documents\Work\Ising model\ising_animation\Ising animation (non-zip)\animations\ising_anim0816.png" arWidth="320" arHeight="240" duration="0" songTitle="" songArtist="" songAlbum="" songCopyrightUrl="" songArtistUrl="" songAudioFileUrl="" stabilizationMode="0" mediaItemType="2" />
    <MediaItem id="295" filePath="C:\Users\owner\Documents\Work\Ising model\ising_animation\Ising animation (non-zip)\animations\ising_anim0295.png" arWidth="320" arHeight="240" duration="0" songTitle="" songArtist="" songAlbum="" songCopyrightUrl="" songArtistUrl="" songAudioFileUrl="" stabilizationMode="0" mediaItemType="2" />
    <MediaItem id="817" filePath="C:\Users\owner\Documents\Work\Ising model\ising_animation\Ising animation (non-zip)\animations\ising_anim0817.png" arWidth="320" arHeight="240" duration="0" songTitle="" songArtist="" songAlbum="" songCopyrightUrl="" songArtistUrl="" songAudioFileUrl="" stabilizationMode="0" mediaItemType="2" />
    <MediaItem id="296" filePath="C:\Users\owner\Documents\Work\Ising model\ising_animation\Ising animation (non-zip)\animations\ising_anim0296.png" arWidth="320" arHeight="240" duration="0" songTitle="" songArtist="" songAlbum="" songCopyrightUrl="" songArtistUrl="" songAudioFileUrl="" stabilizationMode="0" mediaItemType="2" />
    <MediaItem id="818" filePath="C:\Users\owner\Documents\Work\Ising model\ising_animation\Ising animation (non-zip)\animations\ising_anim0818.png" arWidth="320" arHeight="240" duration="0" songTitle="" songArtist="" songAlbum="" songCopyrightUrl="" songArtistUrl="" songAudioFileUrl="" stabilizationMode="0" mediaItemType="2" />
    <MediaItem id="297" filePath="C:\Users\owner\Documents\Work\Ising model\ising_animation\Ising animation (non-zip)\animations\ising_anim0297.png" arWidth="320" arHeight="240" duration="0" songTitle="" songArtist="" songAlbum="" songCopyrightUrl="" songArtistUrl="" songAudioFileUrl="" stabilizationMode="0" mediaItemType="2" />
    <MediaItem id="819" filePath="C:\Users\owner\Documents\Work\Ising model\ising_animation\Ising animation (non-zip)\animations\ising_anim0819.png" arWidth="320" arHeight="240" duration="0" songTitle="" songArtist="" songAlbum="" songCopyrightUrl="" songArtistUrl="" songAudioFileUrl="" stabilizationMode="0" mediaItemType="2" />
    <MediaItem id="298" filePath="C:\Users\owner\Documents\Work\Ising model\ising_animation\Ising animation (non-zip)\animations\ising_anim0298.png" arWidth="320" arHeight="240" duration="0" songTitle="" songArtist="" songAlbum="" songCopyrightUrl="" songArtistUrl="" songAudioFileUrl="" stabilizationMode="0" mediaItemType="2" />
    <MediaItem id="820" filePath="C:\Users\owner\Documents\Work\Ising model\ising_animation\Ising animation (non-zip)\animations\ising_anim0820.png" arWidth="320" arHeight="240" duration="0" songTitle="" songArtist="" songAlbum="" songCopyrightUrl="" songArtistUrl="" songAudioFileUrl="" stabilizationMode="0" mediaItemType="2" />
    <MediaItem id="299" filePath="C:\Users\owner\Documents\Work\Ising model\ising_animation\Ising animation (non-zip)\animations\ising_anim0299.png" arWidth="320" arHeight="240" duration="0" songTitle="" songArtist="" songAlbum="" songCopyrightUrl="" songArtistUrl="" songAudioFileUrl="" stabilizationMode="0" mediaItemType="2" />
    <MediaItem id="821" filePath="C:\Users\owner\Documents\Work\Ising model\ising_animation\Ising animation (non-zip)\animations\ising_anim0821.png" arWidth="320" arHeight="240" duration="0" songTitle="" songArtist="" songAlbum="" songCopyrightUrl="" songArtistUrl="" songAudioFileUrl="" stabilizationMode="0" mediaItemType="2" />
    <MediaItem id="300" filePath="C:\Users\owner\Documents\Work\Ising model\ising_animation\Ising animation (non-zip)\animations\ising_anim0300.png" arWidth="320" arHeight="240" duration="0" songTitle="" songArtist="" songAlbum="" songCopyrightUrl="" songArtistUrl="" songAudioFileUrl="" stabilizationMode="0" mediaItemType="2" />
    <MediaItem id="822" filePath="C:\Users\owner\Documents\Work\Ising model\ising_animation\Ising animation (non-zip)\animations\ising_anim0822.png" arWidth="320" arHeight="240" duration="0" songTitle="" songArtist="" songAlbum="" songCopyrightUrl="" songArtistUrl="" songAudioFileUrl="" stabilizationMode="0" mediaItemType="2" />
    <MediaItem id="301" filePath="C:\Users\owner\Documents\Work\Ising model\ising_animation\Ising animation (non-zip)\animations\ising_anim0301.png" arWidth="320" arHeight="240" duration="0" songTitle="" songArtist="" songAlbum="" songCopyrightUrl="" songArtistUrl="" songAudioFileUrl="" stabilizationMode="0" mediaItemType="2" />
    <MediaItem id="823" filePath="C:\Users\owner\Documents\Work\Ising model\ising_animation\Ising animation (non-zip)\animations\ising_anim0823.png" arWidth="320" arHeight="240" duration="0" songTitle="" songArtist="" songAlbum="" songCopyrightUrl="" songArtistUrl="" songAudioFileUrl="" stabilizationMode="0" mediaItemType="2" />
    <MediaItem id="302" filePath="C:\Users\owner\Documents\Work\Ising model\ising_animation\Ising animation (non-zip)\animations\ising_anim0302.png" arWidth="320" arHeight="240" duration="0" songTitle="" songArtist="" songAlbum="" songCopyrightUrl="" songArtistUrl="" songAudioFileUrl="" stabilizationMode="0" mediaItemType="2" />
    <MediaItem id="824" filePath="C:\Users\owner\Documents\Work\Ising model\ising_animation\Ising animation (non-zip)\animations\ising_anim0824.png" arWidth="320" arHeight="240" duration="0" songTitle="" songArtist="" songAlbum="" songCopyrightUrl="" songArtistUrl="" songAudioFileUrl="" stabilizationMode="0" mediaItemType="2" />
    <MediaItem id="303" filePath="C:\Users\owner\Documents\Work\Ising model\ising_animation\Ising animation (non-zip)\animations\ising_anim0303.png" arWidth="320" arHeight="240" duration="0" songTitle="" songArtist="" songAlbum="" songCopyrightUrl="" songArtistUrl="" songAudioFileUrl="" stabilizationMode="0" mediaItemType="2" />
    <MediaItem id="825" filePath="C:\Users\owner\Documents\Work\Ising model\ising_animation\Ising animation (non-zip)\animations\ising_anim0825.png" arWidth="320" arHeight="240" duration="0" songTitle="" songArtist="" songAlbum="" songCopyrightUrl="" songArtistUrl="" songAudioFileUrl="" stabilizationMode="0" mediaItemType="2" />
    <MediaItem id="304" filePath="C:\Users\owner\Documents\Work\Ising model\ising_animation\Ising animation (non-zip)\animations\ising_anim0304.png" arWidth="320" arHeight="240" duration="0" songTitle="" songArtist="" songAlbum="" songCopyrightUrl="" songArtistUrl="" songAudioFileUrl="" stabilizationMode="0" mediaItemType="2" />
    <MediaItem id="826" filePath="C:\Users\owner\Documents\Work\Ising model\ising_animation\Ising animation (non-zip)\animations\ising_anim0826.png" arWidth="320" arHeight="240" duration="0" songTitle="" songArtist="" songAlbum="" songCopyrightUrl="" songArtistUrl="" songAudioFileUrl="" stabilizationMode="0" mediaItemType="2" />
    <MediaItem id="305" filePath="C:\Users\owner\Documents\Work\Ising model\ising_animation\Ising animation (non-zip)\animations\ising_anim0305.png" arWidth="320" arHeight="240" duration="0" songTitle="" songArtist="" songAlbum="" songCopyrightUrl="" songArtistUrl="" songAudioFileUrl="" stabilizationMode="0" mediaItemType="2" />
    <MediaItem id="827" filePath="C:\Users\owner\Documents\Work\Ising model\ising_animation\Ising animation (non-zip)\animations\ising_anim0827.png" arWidth="320" arHeight="240" duration="0" songTitle="" songArtist="" songAlbum="" songCopyrightUrl="" songArtistUrl="" songAudioFileUrl="" stabilizationMode="0" mediaItemType="2" />
    <MediaItem id="306" filePath="C:\Users\owner\Documents\Work\Ising model\ising_animation\Ising animation (non-zip)\animations\ising_anim0306.png" arWidth="320" arHeight="240" duration="0" songTitle="" songArtist="" songAlbum="" songCopyrightUrl="" songArtistUrl="" songAudioFileUrl="" stabilizationMode="0" mediaItemType="2" />
    <MediaItem id="828" filePath="C:\Users\owner\Documents\Work\Ising model\ising_animation\Ising animation (non-zip)\animations\ising_anim0828.png" arWidth="320" arHeight="240" duration="0" songTitle="" songArtist="" songAlbum="" songCopyrightUrl="" songArtistUrl="" songAudioFileUrl="" stabilizationMode="0" mediaItemType="2" />
    <MediaItem id="307" filePath="C:\Users\owner\Documents\Work\Ising model\ising_animation\Ising animation (non-zip)\animations\ising_anim0307.png" arWidth="320" arHeight="240" duration="0" songTitle="" songArtist="" songAlbum="" songCopyrightUrl="" songArtistUrl="" songAudioFileUrl="" stabilizationMode="0" mediaItemType="2" />
    <MediaItem id="829" filePath="C:\Users\owner\Documents\Work\Ising model\ising_animation\Ising animation (non-zip)\animations\ising_anim0829.png" arWidth="320" arHeight="240" duration="0" songTitle="" songArtist="" songAlbum="" songCopyrightUrl="" songArtistUrl="" songAudioFileUrl="" stabilizationMode="0" mediaItemType="2" />
    <MediaItem id="308" filePath="C:\Users\owner\Documents\Work\Ising model\ising_animation\Ising animation (non-zip)\animations\ising_anim0308.png" arWidth="320" arHeight="240" duration="0" songTitle="" songArtist="" songAlbum="" songCopyrightUrl="" songArtistUrl="" songAudioFileUrl="" stabilizationMode="0" mediaItemType="2" />
    <MediaItem id="830" filePath="C:\Users\owner\Documents\Work\Ising model\ising_animation\Ising animation (non-zip)\animations\ising_anim0830.png" arWidth="320" arHeight="240" duration="0" songTitle="" songArtist="" songAlbum="" songCopyrightUrl="" songArtistUrl="" songAudioFileUrl="" stabilizationMode="0" mediaItemType="2" />
    <MediaItem id="309" filePath="C:\Users\owner\Documents\Work\Ising model\ising_animation\Ising animation (non-zip)\animations\ising_anim0309.png" arWidth="320" arHeight="240" duration="0" songTitle="" songArtist="" songAlbum="" songCopyrightUrl="" songArtistUrl="" songAudioFileUrl="" stabilizationMode="0" mediaItemType="2" />
    <MediaItem id="831" filePath="C:\Users\owner\Documents\Work\Ising model\ising_animation\Ising animation (non-zip)\animations\ising_anim0831.png" arWidth="320" arHeight="240" duration="0" songTitle="" songArtist="" songAlbum="" songCopyrightUrl="" songArtistUrl="" songAudioFileUrl="" stabilizationMode="0" mediaItemType="2" />
    <MediaItem id="310" filePath="C:\Users\owner\Documents\Work\Ising model\ising_animation\Ising animation (non-zip)\animations\ising_anim0310.png" arWidth="320" arHeight="240" duration="0" songTitle="" songArtist="" songAlbum="" songCopyrightUrl="" songArtistUrl="" songAudioFileUrl="" stabilizationMode="0" mediaItemType="2" />
    <MediaItem id="832" filePath="C:\Users\owner\Documents\Work\Ising model\ising_animation\Ising animation (non-zip)\animations\ising_anim0832.png" arWidth="320" arHeight="240" duration="0" songTitle="" songArtist="" songAlbum="" songCopyrightUrl="" songArtistUrl="" songAudioFileUrl="" stabilizationMode="0" mediaItemType="2" />
    <MediaItem id="311" filePath="C:\Users\owner\Documents\Work\Ising model\ising_animation\Ising animation (non-zip)\animations\ising_anim0311.png" arWidth="320" arHeight="240" duration="0" songTitle="" songArtist="" songAlbum="" songCopyrightUrl="" songArtistUrl="" songAudioFileUrl="" stabilizationMode="0" mediaItemType="2" />
    <MediaItem id="833" filePath="C:\Users\owner\Documents\Work\Ising model\ising_animation\Ising animation (non-zip)\animations\ising_anim0833.png" arWidth="320" arHeight="240" duration="0" songTitle="" songArtist="" songAlbum="" songCopyrightUrl="" songArtistUrl="" songAudioFileUrl="" stabilizationMode="0" mediaItemType="2" />
    <MediaItem id="312" filePath="C:\Users\owner\Documents\Work\Ising model\ising_animation\Ising animation (non-zip)\animations\ising_anim0312.png" arWidth="320" arHeight="240" duration="0" songTitle="" songArtist="" songAlbum="" songCopyrightUrl="" songArtistUrl="" songAudioFileUrl="" stabilizationMode="0" mediaItemType="2" />
    <MediaItem id="834" filePath="C:\Users\owner\Documents\Work\Ising model\ising_animation\Ising animation (non-zip)\animations\ising_anim0834.png" arWidth="320" arHeight="240" duration="0" songTitle="" songArtist="" songAlbum="" songCopyrightUrl="" songArtistUrl="" songAudioFileUrl="" stabilizationMode="0" mediaItemType="2" />
    <MediaItem id="313" filePath="C:\Users\owner\Documents\Work\Ising model\ising_animation\Ising animation (non-zip)\animations\ising_anim0313.png" arWidth="320" arHeight="240" duration="0" songTitle="" songArtist="" songAlbum="" songCopyrightUrl="" songArtistUrl="" songAudioFileUrl="" stabilizationMode="0" mediaItemType="2" />
    <MediaItem id="835" filePath="C:\Users\owner\Documents\Work\Ising model\ising_animation\Ising animation (non-zip)\animations\ising_anim0835.png" arWidth="320" arHeight="240" duration="0" songTitle="" songArtist="" songAlbum="" songCopyrightUrl="" songArtistUrl="" songAudioFileUrl="" stabilizationMode="0" mediaItemType="2" />
    <MediaItem id="314" filePath="C:\Users\owner\Documents\Work\Ising model\ising_animation\Ising animation (non-zip)\animations\ising_anim0314.png" arWidth="320" arHeight="240" duration="0" songTitle="" songArtist="" songAlbum="" songCopyrightUrl="" songArtistUrl="" songAudioFileUrl="" stabilizationMode="0" mediaItemType="2" />
    <MediaItem id="836" filePath="C:\Users\owner\Documents\Work\Ising model\ising_animation\Ising animation (non-zip)\animations\ising_anim0836.png" arWidth="320" arHeight="240" duration="0" songTitle="" songArtist="" songAlbum="" songCopyrightUrl="" songArtistUrl="" songAudioFileUrl="" stabilizationMode="0" mediaItemType="2" />
    <MediaItem id="315" filePath="C:\Users\owner\Documents\Work\Ising model\ising_animation\Ising animation (non-zip)\animations\ising_anim0315.png" arWidth="320" arHeight="240" duration="0" songTitle="" songArtist="" songAlbum="" songCopyrightUrl="" songArtistUrl="" songAudioFileUrl="" stabilizationMode="0" mediaItemType="2" />
    <MediaItem id="837" filePath="C:\Users\owner\Documents\Work\Ising model\ising_animation\Ising animation (non-zip)\animations\ising_anim0837.png" arWidth="320" arHeight="240" duration="0" songTitle="" songArtist="" songAlbum="" songCopyrightUrl="" songArtistUrl="" songAudioFileUrl="" stabilizationMode="0" mediaItemType="2" />
    <MediaItem id="316" filePath="C:\Users\owner\Documents\Work\Ising model\ising_animation\Ising animation (non-zip)\animations\ising_anim0316.png" arWidth="320" arHeight="240" duration="0" songTitle="" songArtist="" songAlbum="" songCopyrightUrl="" songArtistUrl="" songAudioFileUrl="" stabilizationMode="0" mediaItemType="2" />
    <MediaItem id="838" filePath="C:\Users\owner\Documents\Work\Ising model\ising_animation\Ising animation (non-zip)\animations\ising_anim0838.png" arWidth="320" arHeight="240" duration="0" songTitle="" songArtist="" songAlbum="" songCopyrightUrl="" songArtistUrl="" songAudioFileUrl="" stabilizationMode="0" mediaItemType="2" />
    <MediaItem id="317" filePath="C:\Users\owner\Documents\Work\Ising model\ising_animation\Ising animation (non-zip)\animations\ising_anim0317.png" arWidth="320" arHeight="240" duration="0" songTitle="" songArtist="" songAlbum="" songCopyrightUrl="" songArtistUrl="" songAudioFileUrl="" stabilizationMode="0" mediaItemType="2" />
    <MediaItem id="839" filePath="C:\Users\owner\Documents\Work\Ising model\ising_animation\Ising animation (non-zip)\animations\ising_anim0839.png" arWidth="320" arHeight="240" duration="0" songTitle="" songArtist="" songAlbum="" songCopyrightUrl="" songArtistUrl="" songAudioFileUrl="" stabilizationMode="0" mediaItemType="2" />
    <MediaItem id="318" filePath="C:\Users\owner\Documents\Work\Ising model\ising_animation\Ising animation (non-zip)\animations\ising_anim0318.png" arWidth="320" arHeight="240" duration="0" songTitle="" songArtist="" songAlbum="" songCopyrightUrl="" songArtistUrl="" songAudioFileUrl="" stabilizationMode="0" mediaItemType="2" />
    <MediaItem id="840" filePath="C:\Users\owner\Documents\Work\Ising model\ising_animation\Ising animation (non-zip)\animations\ising_anim0840.png" arWidth="320" arHeight="240" duration="0" songTitle="" songArtist="" songAlbum="" songCopyrightUrl="" songArtistUrl="" songAudioFileUrl="" stabilizationMode="0" mediaItemType="2" />
    <MediaItem id="319" filePath="C:\Users\owner\Documents\Work\Ising model\ising_animation\Ising animation (non-zip)\animations\ising_anim0319.png" arWidth="320" arHeight="240" duration="0" songTitle="" songArtist="" songAlbum="" songCopyrightUrl="" songArtistUrl="" songAudioFileUrl="" stabilizationMode="0" mediaItemType="2" />
    <MediaItem id="841" filePath="C:\Users\owner\Documents\Work\Ising model\ising_animation\Ising animation (non-zip)\animations\ising_anim0841.png" arWidth="320" arHeight="240" duration="0" songTitle="" songArtist="" songAlbum="" songCopyrightUrl="" songArtistUrl="" songAudioFileUrl="" stabilizationMode="0" mediaItemType="2" />
    <MediaItem id="320" filePath="C:\Users\owner\Documents\Work\Ising model\ising_animation\Ising animation (non-zip)\animations\ising_anim0320.png" arWidth="320" arHeight="240" duration="0" songTitle="" songArtist="" songAlbum="" songCopyrightUrl="" songArtistUrl="" songAudioFileUrl="" stabilizationMode="0" mediaItemType="2" />
    <MediaItem id="842" filePath="C:\Users\owner\Documents\Work\Ising model\ising_animation\Ising animation (non-zip)\animations\ising_anim0842.png" arWidth="320" arHeight="240" duration="0" songTitle="" songArtist="" songAlbum="" songCopyrightUrl="" songArtistUrl="" songAudioFileUrl="" stabilizationMode="0" mediaItemType="2" />
    <MediaItem id="321" filePath="C:\Users\owner\Documents\Work\Ising model\ising_animation\Ising animation (non-zip)\animations\ising_anim0321.png" arWidth="320" arHeight="240" duration="0" songTitle="" songArtist="" songAlbum="" songCopyrightUrl="" songArtistUrl="" songAudioFileUrl="" stabilizationMode="0" mediaItemType="2" />
    <MediaItem id="843" filePath="C:\Users\owner\Documents\Work\Ising model\ising_animation\Ising animation (non-zip)\animations\ising_anim0843.png" arWidth="320" arHeight="240" duration="0" songTitle="" songArtist="" songAlbum="" songCopyrightUrl="" songArtistUrl="" songAudioFileUrl="" stabilizationMode="0" mediaItemType="2" />
    <MediaItem id="322" filePath="C:\Users\owner\Documents\Work\Ising model\ising_animation\Ising animation (non-zip)\animations\ising_anim0322.png" arWidth="320" arHeight="240" duration="0" songTitle="" songArtist="" songAlbum="" songCopyrightUrl="" songArtistUrl="" songAudioFileUrl="" stabilizationMode="0" mediaItemType="2" />
    <MediaItem id="844" filePath="C:\Users\owner\Documents\Work\Ising model\ising_animation\Ising animation (non-zip)\animations\ising_anim0844.png" arWidth="320" arHeight="240" duration="0" songTitle="" songArtist="" songAlbum="" songCopyrightUrl="" songArtistUrl="" songAudioFileUrl="" stabilizationMode="0" mediaItemType="2" />
    <MediaItem id="323" filePath="C:\Users\owner\Documents\Work\Ising model\ising_animation\Ising animation (non-zip)\animations\ising_anim0323.png" arWidth="320" arHeight="240" duration="0" songTitle="" songArtist="" songAlbum="" songCopyrightUrl="" songArtistUrl="" songAudioFileUrl="" stabilizationMode="0" mediaItemType="2" />
    <MediaItem id="845" filePath="C:\Users\owner\Documents\Work\Ising model\ising_animation\Ising animation (non-zip)\animations\ising_anim0845.png" arWidth="320" arHeight="240" duration="0" songTitle="" songArtist="" songAlbum="" songCopyrightUrl="" songArtistUrl="" songAudioFileUrl="" stabilizationMode="0" mediaItemType="2" />
    <MediaItem id="324" filePath="C:\Users\owner\Documents\Work\Ising model\ising_animation\Ising animation (non-zip)\animations\ising_anim0324.png" arWidth="320" arHeight="240" duration="0" songTitle="" songArtist="" songAlbum="" songCopyrightUrl="" songArtistUrl="" songAudioFileUrl="" stabilizationMode="0" mediaItemType="2" />
    <MediaItem id="846" filePath="C:\Users\owner\Documents\Work\Ising model\ising_animation\Ising animation (non-zip)\animations\ising_anim0846.png" arWidth="320" arHeight="240" duration="0" songTitle="" songArtist="" songAlbum="" songCopyrightUrl="" songArtistUrl="" songAudioFileUrl="" stabilizationMode="0" mediaItemType="2" />
    <MediaItem id="325" filePath="C:\Users\owner\Documents\Work\Ising model\ising_animation\Ising animation (non-zip)\animations\ising_anim0325.png" arWidth="320" arHeight="240" duration="0" songTitle="" songArtist="" songAlbum="" songCopyrightUrl="" songArtistUrl="" songAudioFileUrl="" stabilizationMode="0" mediaItemType="2" />
    <MediaItem id="847" filePath="C:\Users\owner\Documents\Work\Ising model\ising_animation\Ising animation (non-zip)\animations\ising_anim0847.png" arWidth="320" arHeight="240" duration="0" songTitle="" songArtist="" songAlbum="" songCopyrightUrl="" songArtistUrl="" songAudioFileUrl="" stabilizationMode="0" mediaItemType="2" />
    <MediaItem id="326" filePath="C:\Users\owner\Documents\Work\Ising model\ising_animation\Ising animation (non-zip)\animations\ising_anim0326.png" arWidth="320" arHeight="240" duration="0" songTitle="" songArtist="" songAlbum="" songCopyrightUrl="" songArtistUrl="" songAudioFileUrl="" stabilizationMode="0" mediaItemType="2" />
    <MediaItem id="848" filePath="C:\Users\owner\Documents\Work\Ising model\ising_animation\Ising animation (non-zip)\animations\ising_anim0848.png" arWidth="320" arHeight="240" duration="0" songTitle="" songArtist="" songAlbum="" songCopyrightUrl="" songArtistUrl="" songAudioFileUrl="" stabilizationMode="0" mediaItemType="2" />
    <MediaItem id="327" filePath="C:\Users\owner\Documents\Work\Ising model\ising_animation\Ising animation (non-zip)\animations\ising_anim0327.png" arWidth="320" arHeight="240" duration="0" songTitle="" songArtist="" songAlbum="" songCopyrightUrl="" songArtistUrl="" songAudioFileUrl="" stabilizationMode="0" mediaItemType="2" />
    <MediaItem id="849" filePath="C:\Users\owner\Documents\Work\Ising model\ising_animation\Ising animation (non-zip)\animations\ising_anim0849.png" arWidth="320" arHeight="240" duration="0" songTitle="" songArtist="" songAlbum="" songCopyrightUrl="" songArtistUrl="" songAudioFileUrl="" stabilizationMode="0" mediaItemType="2" />
    <MediaItem id="328" filePath="C:\Users\owner\Documents\Work\Ising model\ising_animation\Ising animation (non-zip)\animations\ising_anim0328.png" arWidth="320" arHeight="240" duration="0" songTitle="" songArtist="" songAlbum="" songCopyrightUrl="" songArtistUrl="" songAudioFileUrl="" stabilizationMode="0" mediaItemType="2" />
    <MediaItem id="850" filePath="C:\Users\owner\Documents\Work\Ising model\ising_animation\Ising animation (non-zip)\animations\ising_anim0850.png" arWidth="320" arHeight="240" duration="0" songTitle="" songArtist="" songAlbum="" songCopyrightUrl="" songArtistUrl="" songAudioFileUrl="" stabilizationMode="0" mediaItemType="2" />
    <MediaItem id="329" filePath="C:\Users\owner\Documents\Work\Ising model\ising_animation\Ising animation (non-zip)\animations\ising_anim0329.png" arWidth="320" arHeight="240" duration="0" songTitle="" songArtist="" songAlbum="" songCopyrightUrl="" songArtistUrl="" songAudioFileUrl="" stabilizationMode="0" mediaItemType="2" />
    <MediaItem id="851" filePath="C:\Users\owner\Documents\Work\Ising model\ising_animation\Ising animation (non-zip)\animations\ising_anim0851.png" arWidth="320" arHeight="240" duration="0" songTitle="" songArtist="" songAlbum="" songCopyrightUrl="" songArtistUrl="" songAudioFileUrl="" stabilizationMode="0" mediaItemType="2" />
    <MediaItem id="330" filePath="C:\Users\owner\Documents\Work\Ising model\ising_animation\Ising animation (non-zip)\animations\ising_anim0330.png" arWidth="320" arHeight="240" duration="0" songTitle="" songArtist="" songAlbum="" songCopyrightUrl="" songArtistUrl="" songAudioFileUrl="" stabilizationMode="0" mediaItemType="2" />
    <MediaItem id="852" filePath="C:\Users\owner\Documents\Work\Ising model\ising_animation\Ising animation (non-zip)\animations\ising_anim0852.png" arWidth="320" arHeight="240" duration="0" songTitle="" songArtist="" songAlbum="" songCopyrightUrl="" songArtistUrl="" songAudioFileUrl="" stabilizationMode="0" mediaItemType="2" />
    <MediaItem id="331" filePath="C:\Users\owner\Documents\Work\Ising model\ising_animation\Ising animation (non-zip)\animations\ising_anim0331.png" arWidth="320" arHeight="240" duration="0" songTitle="" songArtist="" songAlbum="" songCopyrightUrl="" songArtistUrl="" songAudioFileUrl="" stabilizationMode="0" mediaItemType="2" />
    <MediaItem id="853" filePath="C:\Users\owner\Documents\Work\Ising model\ising_animation\Ising animation (non-zip)\animations\ising_anim0853.png" arWidth="320" arHeight="240" duration="0" songTitle="" songArtist="" songAlbum="" songCopyrightUrl="" songArtistUrl="" songAudioFileUrl="" stabilizationMode="0" mediaItemType="2" />
    <MediaItem id="332" filePath="C:\Users\owner\Documents\Work\Ising model\ising_animation\Ising animation (non-zip)\animations\ising_anim0332.png" arWidth="320" arHeight="240" duration="0" songTitle="" songArtist="" songAlbum="" songCopyrightUrl="" songArtistUrl="" songAudioFileUrl="" stabilizationMode="0" mediaItemType="2" />
    <MediaItem id="854" filePath="C:\Users\owner\Documents\Work\Ising model\ising_animation\Ising animation (non-zip)\animations\ising_anim0854.png" arWidth="320" arHeight="240" duration="0" songTitle="" songArtist="" songAlbum="" songCopyrightUrl="" songArtistUrl="" songAudioFileUrl="" stabilizationMode="0" mediaItemType="2" />
    <MediaItem id="333" filePath="C:\Users\owner\Documents\Work\Ising model\ising_animation\Ising animation (non-zip)\animations\ising_anim0333.png" arWidth="320" arHeight="240" duration="0" songTitle="" songArtist="" songAlbum="" songCopyrightUrl="" songArtistUrl="" songAudioFileUrl="" stabilizationMode="0" mediaItemType="2" />
    <MediaItem id="855" filePath="C:\Users\owner\Documents\Work\Ising model\ising_animation\Ising animation (non-zip)\animations\ising_anim0855.png" arWidth="320" arHeight="240" duration="0" songTitle="" songArtist="" songAlbum="" songCopyrightUrl="" songArtistUrl="" songAudioFileUrl="" stabilizationMode="0" mediaItemType="2" />
    <MediaItem id="334" filePath="C:\Users\owner\Documents\Work\Ising model\ising_animation\Ising animation (non-zip)\animations\ising_anim0334.png" arWidth="320" arHeight="240" duration="0" songTitle="" songArtist="" songAlbum="" songCopyrightUrl="" songArtistUrl="" songAudioFileUrl="" stabilizationMode="0" mediaItemType="2" />
    <MediaItem id="856" filePath="C:\Users\owner\Documents\Work\Ising model\ising_animation\Ising animation (non-zip)\animations\ising_anim0856.png" arWidth="320" arHeight="240" duration="0" songTitle="" songArtist="" songAlbum="" songCopyrightUrl="" songArtistUrl="" songAudioFileUrl="" stabilizationMode="0" mediaItemType="2" />
    <MediaItem id="335" filePath="C:\Users\owner\Documents\Work\Ising model\ising_animation\Ising animation (non-zip)\animations\ising_anim0335.png" arWidth="320" arHeight="240" duration="0" songTitle="" songArtist="" songAlbum="" songCopyrightUrl="" songArtistUrl="" songAudioFileUrl="" stabilizationMode="0" mediaItemType="2" />
    <MediaItem id="857" filePath="C:\Users\owner\Documents\Work\Ising model\ising_animation\Ising animation (non-zip)\animations\ising_anim0857.png" arWidth="320" arHeight="240" duration="0" songTitle="" songArtist="" songAlbum="" songCopyrightUrl="" songArtistUrl="" songAudioFileUrl="" stabilizationMode="0" mediaItemType="2" />
    <MediaItem id="336" filePath="C:\Users\owner\Documents\Work\Ising model\ising_animation\Ising animation (non-zip)\animations\ising_anim0336.png" arWidth="320" arHeight="240" duration="0" songTitle="" songArtist="" songAlbum="" songCopyrightUrl="" songArtistUrl="" songAudioFileUrl="" stabilizationMode="0" mediaItemType="2" />
    <MediaItem id="858" filePath="C:\Users\owner\Documents\Work\Ising model\ising_animation\Ising animation (non-zip)\animations\ising_anim0858.png" arWidth="320" arHeight="240" duration="0" songTitle="" songArtist="" songAlbum="" songCopyrightUrl="" songArtistUrl="" songAudioFileUrl="" stabilizationMode="0" mediaItemType="2" />
    <MediaItem id="337" filePath="C:\Users\owner\Documents\Work\Ising model\ising_animation\Ising animation (non-zip)\animations\ising_anim0337.png" arWidth="320" arHeight="240" duration="0" songTitle="" songArtist="" songAlbum="" songCopyrightUrl="" songArtistUrl="" songAudioFileUrl="" stabilizationMode="0" mediaItemType="2" />
    <MediaItem id="859" filePath="C:\Users\owner\Documents\Work\Ising model\ising_animation\Ising animation (non-zip)\animations\ising_anim0859.png" arWidth="320" arHeight="240" duration="0" songTitle="" songArtist="" songAlbum="" songCopyrightUrl="" songArtistUrl="" songAudioFileUrl="" stabilizationMode="0" mediaItemType="2" />
    <MediaItem id="338" filePath="C:\Users\owner\Documents\Work\Ising model\ising_animation\Ising animation (non-zip)\animations\ising_anim0338.png" arWidth="320" arHeight="240" duration="0" songTitle="" songArtist="" songAlbum="" songCopyrightUrl="" songArtistUrl="" songAudioFileUrl="" stabilizationMode="0" mediaItemType="2" />
    <MediaItem id="860" filePath="C:\Users\owner\Documents\Work\Ising model\ising_animation\Ising animation (non-zip)\animations\ising_anim0860.png" arWidth="320" arHeight="240" duration="0" songTitle="" songArtist="" songAlbum="" songCopyrightUrl="" songArtistUrl="" songAudioFileUrl="" stabilizationMode="0" mediaItemType="2" />
    <MediaItem id="339" filePath="C:\Users\owner\Documents\Work\Ising model\ising_animation\Ising animation (non-zip)\animations\ising_anim0339.png" arWidth="320" arHeight="240" duration="0" songTitle="" songArtist="" songAlbum="" songCopyrightUrl="" songArtistUrl="" songAudioFileUrl="" stabilizationMode="0" mediaItemType="2" />
    <MediaItem id="861" filePath="C:\Users\owner\Documents\Work\Ising model\ising_animation\Ising animation (non-zip)\animations\ising_anim0861.png" arWidth="320" arHeight="240" duration="0" songTitle="" songArtist="" songAlbum="" songCopyrightUrl="" songArtistUrl="" songAudioFileUrl="" stabilizationMode="0" mediaItemType="2" />
    <MediaItem id="340" filePath="C:\Users\owner\Documents\Work\Ising model\ising_animation\Ising animation (non-zip)\animations\ising_anim0340.png" arWidth="320" arHeight="240" duration="0" songTitle="" songArtist="" songAlbum="" songCopyrightUrl="" songArtistUrl="" songAudioFileUrl="" stabilizationMode="0" mediaItemType="2" />
    <MediaItem id="862" filePath="C:\Users\owner\Documents\Work\Ising model\ising_animation\Ising animation (non-zip)\animations\ising_anim0862.png" arWidth="320" arHeight="240" duration="0" songTitle="" songArtist="" songAlbum="" songCopyrightUrl="" songArtistUrl="" songAudioFileUrl="" stabilizationMode="0" mediaItemType="2" />
    <MediaItem id="341" filePath="C:\Users\owner\Documents\Work\Ising model\ising_animation\Ising animation (non-zip)\animations\ising_anim0341.png" arWidth="320" arHeight="240" duration="0" songTitle="" songArtist="" songAlbum="" songCopyrightUrl="" songArtistUrl="" songAudioFileUrl="" stabilizationMode="0" mediaItemType="2" />
    <MediaItem id="863" filePath="C:\Users\owner\Documents\Work\Ising model\ising_animation\Ising animation (non-zip)\animations\ising_anim0863.png" arWidth="320" arHeight="240" duration="0" songTitle="" songArtist="" songAlbum="" songCopyrightUrl="" songArtistUrl="" songAudioFileUrl="" stabilizationMode="0" mediaItemType="2" />
    <MediaItem id="342" filePath="C:\Users\owner\Documents\Work\Ising model\ising_animation\Ising animation (non-zip)\animations\ising_anim0342.png" arWidth="320" arHeight="240" duration="0" songTitle="" songArtist="" songAlbum="" songCopyrightUrl="" songArtistUrl="" songAudioFileUrl="" stabilizationMode="0" mediaItemType="2" />
    <MediaItem id="864" filePath="C:\Users\owner\Documents\Work\Ising model\ising_animation\Ising animation (non-zip)\animations\ising_anim0864.png" arWidth="320" arHeight="240" duration="0" songTitle="" songArtist="" songAlbum="" songCopyrightUrl="" songArtistUrl="" songAudioFileUrl="" stabilizationMode="0" mediaItemType="2" />
    <MediaItem id="343" filePath="C:\Users\owner\Documents\Work\Ising model\ising_animation\Ising animation (non-zip)\animations\ising_anim0343.png" arWidth="320" arHeight="240" duration="0" songTitle="" songArtist="" songAlbum="" songCopyrightUrl="" songArtistUrl="" songAudioFileUrl="" stabilizationMode="0" mediaItemType="2" />
    <MediaItem id="865" filePath="C:\Users\owner\Documents\Work\Ising model\ising_animation\Ising animation (non-zip)\animations\ising_anim0865.png" arWidth="320" arHeight="240" duration="0" songTitle="" songArtist="" songAlbum="" songCopyrightUrl="" songArtistUrl="" songAudioFileUrl="" stabilizationMode="0" mediaItemType="2" />
    <MediaItem id="344" filePath="C:\Users\owner\Documents\Work\Ising model\ising_animation\Ising animation (non-zip)\animations\ising_anim0344.png" arWidth="320" arHeight="240" duration="0" songTitle="" songArtist="" songAlbum="" songCopyrightUrl="" songArtistUrl="" songAudioFileUrl="" stabilizationMode="0" mediaItemType="2" />
    <MediaItem id="866" filePath="C:\Users\owner\Documents\Work\Ising model\ising_animation\Ising animation (non-zip)\animations\ising_anim0866.png" arWidth="320" arHeight="240" duration="0" songTitle="" songArtist="" songAlbum="" songCopyrightUrl="" songArtistUrl="" songAudioFileUrl="" stabilizationMode="0" mediaItemType="2" />
    <MediaItem id="345" filePath="C:\Users\owner\Documents\Work\Ising model\ising_animation\Ising animation (non-zip)\animations\ising_anim0345.png" arWidth="320" arHeight="240" duration="0" songTitle="" songArtist="" songAlbum="" songCopyrightUrl="" songArtistUrl="" songAudioFileUrl="" stabilizationMode="0" mediaItemType="2" />
    <MediaItem id="867" filePath="C:\Users\owner\Documents\Work\Ising model\ising_animation\Ising animation (non-zip)\animations\ising_anim0867.png" arWidth="320" arHeight="240" duration="0" songTitle="" songArtist="" songAlbum="" songCopyrightUrl="" songArtistUrl="" songAudioFileUrl="" stabilizationMode="0" mediaItemType="2" />
    <MediaItem id="346" filePath="C:\Users\owner\Documents\Work\Ising model\ising_animation\Ising animation (non-zip)\animations\ising_anim0346.png" arWidth="320" arHeight="240" duration="0" songTitle="" songArtist="" songAlbum="" songCopyrightUrl="" songArtistUrl="" songAudioFileUrl="" stabilizationMode="0" mediaItemType="2" />
    <MediaItem id="868" filePath="C:\Users\owner\Documents\Work\Ising model\ising_animation\Ising animation (non-zip)\animations\ising_anim0868.png" arWidth="320" arHeight="240" duration="0" songTitle="" songArtist="" songAlbum="" songCopyrightUrl="" songArtistUrl="" songAudioFileUrl="" stabilizationMode="0" mediaItemType="2" />
    <MediaItem id="347" filePath="C:\Users\owner\Documents\Work\Ising model\ising_animation\Ising animation (non-zip)\animations\ising_anim0347.png" arWidth="320" arHeight="240" duration="0" songTitle="" songArtist="" songAlbum="" songCopyrightUrl="" songArtistUrl="" songAudioFileUrl="" stabilizationMode="0" mediaItemType="2" />
    <MediaItem id="869" filePath="C:\Users\owner\Documents\Work\Ising model\ising_animation\Ising animation (non-zip)\animations\ising_anim0869.png" arWidth="320" arHeight="240" duration="0" songTitle="" songArtist="" songAlbum="" songCopyrightUrl="" songArtistUrl="" songAudioFileUrl="" stabilizationMode="0" mediaItemType="2" />
    <MediaItem id="348" filePath="C:\Users\owner\Documents\Work\Ising model\ising_animation\Ising animation (non-zip)\animations\ising_anim0348.png" arWidth="320" arHeight="240" duration="0" songTitle="" songArtist="" songAlbum="" songCopyrightUrl="" songArtistUrl="" songAudioFileUrl="" stabilizationMode="0" mediaItemType="2" />
    <MediaItem id="870" filePath="C:\Users\owner\Documents\Work\Ising model\ising_animation\Ising animation (non-zip)\animations\ising_anim0870.png" arWidth="320" arHeight="240" duration="0" songTitle="" songArtist="" songAlbum="" songCopyrightUrl="" songArtistUrl="" songAudioFileUrl="" stabilizationMode="0" mediaItemType="2" />
    <MediaItem id="349" filePath="C:\Users\owner\Documents\Work\Ising model\ising_animation\Ising animation (non-zip)\animations\ising_anim0349.png" arWidth="320" arHeight="240" duration="0" songTitle="" songArtist="" songAlbum="" songCopyrightUrl="" songArtistUrl="" songAudioFileUrl="" stabilizationMode="0" mediaItemType="2" />
    <MediaItem id="871" filePath="C:\Users\owner\Documents\Work\Ising model\ising_animation\Ising animation (non-zip)\animations\ising_anim0871.png" arWidth="320" arHeight="240" duration="0" songTitle="" songArtist="" songAlbum="" songCopyrightUrl="" songArtistUrl="" songAudioFileUrl="" stabilizationMode="0" mediaItemType="2" />
    <MediaItem id="350" filePath="C:\Users\owner\Documents\Work\Ising model\ising_animation\Ising animation (non-zip)\animations\ising_anim0350.png" arWidth="320" arHeight="240" duration="0" songTitle="" songArtist="" songAlbum="" songCopyrightUrl="" songArtistUrl="" songAudioFileUrl="" stabilizationMode="0" mediaItemType="2" />
    <MediaItem id="872" filePath="C:\Users\owner\Documents\Work\Ising model\ising_animation\Ising animation (non-zip)\animations\ising_anim0872.png" arWidth="320" arHeight="240" duration="0" songTitle="" songArtist="" songAlbum="" songCopyrightUrl="" songArtistUrl="" songAudioFileUrl="" stabilizationMode="0" mediaItemType="2" />
    <MediaItem id="351" filePath="C:\Users\owner\Documents\Work\Ising model\ising_animation\Ising animation (non-zip)\animations\ising_anim0351.png" arWidth="320" arHeight="240" duration="0" songTitle="" songArtist="" songAlbum="" songCopyrightUrl="" songArtistUrl="" songAudioFileUrl="" stabilizationMode="0" mediaItemType="2" />
    <MediaItem id="873" filePath="C:\Users\owner\Documents\Work\Ising model\ising_animation\Ising animation (non-zip)\animations\ising_anim0873.png" arWidth="320" arHeight="240" duration="0" songTitle="" songArtist="" songAlbum="" songCopyrightUrl="" songArtistUrl="" songAudioFileUrl="" stabilizationMode="0" mediaItemType="2" />
    <MediaItem id="352" filePath="C:\Users\owner\Documents\Work\Ising model\ising_animation\Ising animation (non-zip)\animations\ising_anim0352.png" arWidth="320" arHeight="240" duration="0" songTitle="" songArtist="" songAlbum="" songCopyrightUrl="" songArtistUrl="" songAudioFileUrl="" stabilizationMode="0" mediaItemType="2" />
    <MediaItem id="874" filePath="C:\Users\owner\Documents\Work\Ising model\ising_animation\Ising animation (non-zip)\animations\ising_anim0874.png" arWidth="320" arHeight="240" duration="0" songTitle="" songArtist="" songAlbum="" songCopyrightUrl="" songArtistUrl="" songAudioFileUrl="" stabilizationMode="0" mediaItemType="2" />
    <MediaItem id="353" filePath="C:\Users\owner\Documents\Work\Ising model\ising_animation\Ising animation (non-zip)\animations\ising_anim0353.png" arWidth="320" arHeight="240" duration="0" songTitle="" songArtist="" songAlbum="" songCopyrightUrl="" songArtistUrl="" songAudioFileUrl="" stabilizationMode="0" mediaItemType="2" />
    <MediaItem id="875" filePath="C:\Users\owner\Documents\Work\Ising model\ising_animation\Ising animation (non-zip)\animations\ising_anim0875.png" arWidth="320" arHeight="240" duration="0" songTitle="" songArtist="" songAlbum="" songCopyrightUrl="" songArtistUrl="" songAudioFileUrl="" stabilizationMode="0" mediaItemType="2" />
    <MediaItem id="354" filePath="C:\Users\owner\Documents\Work\Ising model\ising_animation\Ising animation (non-zip)\animations\ising_anim0354.png" arWidth="320" arHeight="240" duration="0" songTitle="" songArtist="" songAlbum="" songCopyrightUrl="" songArtistUrl="" songAudioFileUrl="" stabilizationMode="0" mediaItemType="2" />
    <MediaItem id="876" filePath="C:\Users\owner\Documents\Work\Ising model\ising_animation\Ising animation (non-zip)\animations\ising_anim0876.png" arWidth="320" arHeight="240" duration="0" songTitle="" songArtist="" songAlbum="" songCopyrightUrl="" songArtistUrl="" songAudioFileUrl="" stabilizationMode="0" mediaItemType="2" />
    <MediaItem id="355" filePath="C:\Users\owner\Documents\Work\Ising model\ising_animation\Ising animation (non-zip)\animations\ising_anim0355.png" arWidth="320" arHeight="240" duration="0" songTitle="" songArtist="" songAlbum="" songCopyrightUrl="" songArtistUrl="" songAudioFileUrl="" stabilizationMode="0" mediaItemType="2" />
    <MediaItem id="877" filePath="C:\Users\owner\Documents\Work\Ising model\ising_animation\Ising animation (non-zip)\animations\ising_anim0877.png" arWidth="320" arHeight="240" duration="0" songTitle="" songArtist="" songAlbum="" songCopyrightUrl="" songArtistUrl="" songAudioFileUrl="" stabilizationMode="0" mediaItemType="2" />
    <MediaItem id="356" filePath="C:\Users\owner\Documents\Work\Ising model\ising_animation\Ising animation (non-zip)\animations\ising_anim0356.png" arWidth="320" arHeight="240" duration="0" songTitle="" songArtist="" songAlbum="" songCopyrightUrl="" songArtistUrl="" songAudioFileUrl="" stabilizationMode="0" mediaItemType="2" />
    <MediaItem id="878" filePath="C:\Users\owner\Documents\Work\Ising model\ising_animation\Ising animation (non-zip)\animations\ising_anim0878.png" arWidth="320" arHeight="240" duration="0" songTitle="" songArtist="" songAlbum="" songCopyrightUrl="" songArtistUrl="" songAudioFileUrl="" stabilizationMode="0" mediaItemType="2" />
    <MediaItem id="357" filePath="C:\Users\owner\Documents\Work\Ising model\ising_animation\Ising animation (non-zip)\animations\ising_anim0357.png" arWidth="320" arHeight="240" duration="0" songTitle="" songArtist="" songAlbum="" songCopyrightUrl="" songArtistUrl="" songAudioFileUrl="" stabilizationMode="0" mediaItemType="2" />
    <MediaItem id="879" filePath="C:\Users\owner\Documents\Work\Ising model\ising_animation\Ising animation (non-zip)\animations\ising_anim0879.png" arWidth="320" arHeight="240" duration="0" songTitle="" songArtist="" songAlbum="" songCopyrightUrl="" songArtistUrl="" songAudioFileUrl="" stabilizationMode="0" mediaItemType="2" />
    <MediaItem id="358" filePath="C:\Users\owner\Documents\Work\Ising model\ising_animation\Ising animation (non-zip)\animations\ising_anim0358.png" arWidth="320" arHeight="240" duration="0" songTitle="" songArtist="" songAlbum="" songCopyrightUrl="" songArtistUrl="" songAudioFileUrl="" stabilizationMode="0" mediaItemType="2" />
    <MediaItem id="880" filePath="C:\Users\owner\Documents\Work\Ising model\ising_animation\Ising animation (non-zip)\animations\ising_anim0880.png" arWidth="320" arHeight="240" duration="0" songTitle="" songArtist="" songAlbum="" songCopyrightUrl="" songArtistUrl="" songAudioFileUrl="" stabilizationMode="0" mediaItemType="2" />
    <MediaItem id="359" filePath="C:\Users\owner\Documents\Work\Ising model\ising_animation\Ising animation (non-zip)\animations\ising_anim0359.png" arWidth="320" arHeight="240" duration="0" songTitle="" songArtist="" songAlbum="" songCopyrightUrl="" songArtistUrl="" songAudioFileUrl="" stabilizationMode="0" mediaItemType="2" />
    <MediaItem id="881" filePath="C:\Users\owner\Documents\Work\Ising model\ising_animation\Ising animation (non-zip)\animations\ising_anim0881.png" arWidth="320" arHeight="240" duration="0" songTitle="" songArtist="" songAlbum="" songCopyrightUrl="" songArtistUrl="" songAudioFileUrl="" stabilizationMode="0" mediaItemType="2" />
    <MediaItem id="360" filePath="C:\Users\owner\Documents\Work\Ising model\ising_animation\Ising animation (non-zip)\animations\ising_anim0360.png" arWidth="320" arHeight="240" duration="0" songTitle="" songArtist="" songAlbum="" songCopyrightUrl="" songArtistUrl="" songAudioFileUrl="" stabilizationMode="0" mediaItemType="2" />
    <MediaItem id="882" filePath="C:\Users\owner\Documents\Work\Ising model\ising_animation\Ising animation (non-zip)\animations\ising_anim0882.png" arWidth="320" arHeight="240" duration="0" songTitle="" songArtist="" songAlbum="" songCopyrightUrl="" songArtistUrl="" songAudioFileUrl="" stabilizationMode="0" mediaItemType="2" />
    <MediaItem id="361" filePath="C:\Users\owner\Documents\Work\Ising model\ising_animation\Ising animation (non-zip)\animations\ising_anim0361.png" arWidth="320" arHeight="240" duration="0" songTitle="" songArtist="" songAlbum="" songCopyrightUrl="" songArtistUrl="" songAudioFileUrl="" stabilizationMode="0" mediaItemType="2" />
    <MediaItem id="883" filePath="C:\Users\owner\Documents\Work\Ising model\ising_animation\Ising animation (non-zip)\animations\ising_anim0883.png" arWidth="320" arHeight="240" duration="0" songTitle="" songArtist="" songAlbum="" songCopyrightUrl="" songArtistUrl="" songAudioFileUrl="" stabilizationMode="0" mediaItemType="2" />
    <MediaItem id="362" filePath="C:\Users\owner\Documents\Work\Ising model\ising_animation\Ising animation (non-zip)\animations\ising_anim0362.png" arWidth="320" arHeight="240" duration="0" songTitle="" songArtist="" songAlbum="" songCopyrightUrl="" songArtistUrl="" songAudioFileUrl="" stabilizationMode="0" mediaItemType="2" />
    <MediaItem id="884" filePath="C:\Users\owner\Documents\Work\Ising model\ising_animation\Ising animation (non-zip)\animations\ising_anim0884.png" arWidth="320" arHeight="240" duration="0" songTitle="" songArtist="" songAlbum="" songCopyrightUrl="" songArtistUrl="" songAudioFileUrl="" stabilizationMode="0" mediaItemType="2" />
    <MediaItem id="363" filePath="C:\Users\owner\Documents\Work\Ising model\ising_animation\Ising animation (non-zip)\animations\ising_anim0363.png" arWidth="320" arHeight="240" duration="0" songTitle="" songArtist="" songAlbum="" songCopyrightUrl="" songArtistUrl="" songAudioFileUrl="" stabilizationMode="0" mediaItemType="2" />
    <MediaItem id="885" filePath="C:\Users\owner\Documents\Work\Ising model\ising_animation\Ising animation (non-zip)\animations\ising_anim0885.png" arWidth="320" arHeight="240" duration="0" songTitle="" songArtist="" songAlbum="" songCopyrightUrl="" songArtistUrl="" songAudioFileUrl="" stabilizationMode="0" mediaItemType="2" />
    <MediaItem id="364" filePath="C:\Users\owner\Documents\Work\Ising model\ising_animation\Ising animation (non-zip)\animations\ising_anim0364.png" arWidth="320" arHeight="240" duration="0" songTitle="" songArtist="" songAlbum="" songCopyrightUrl="" songArtistUrl="" songAudioFileUrl="" stabilizationMode="0" mediaItemType="2" />
    <MediaItem id="886" filePath="C:\Users\owner\Documents\Work\Ising model\ising_animation\Ising animation (non-zip)\animations\ising_anim0886.png" arWidth="320" arHeight="240" duration="0" songTitle="" songArtist="" songAlbum="" songCopyrightUrl="" songArtistUrl="" songAudioFileUrl="" stabilizationMode="0" mediaItemType="2" />
    <MediaItem id="365" filePath="C:\Users\owner\Documents\Work\Ising model\ising_animation\Ising animation (non-zip)\animations\ising_anim0365.png" arWidth="320" arHeight="240" duration="0" songTitle="" songArtist="" songAlbum="" songCopyrightUrl="" songArtistUrl="" songAudioFileUrl="" stabilizationMode="0" mediaItemType="2" />
    <MediaItem id="887" filePath="C:\Users\owner\Documents\Work\Ising model\ising_animation\Ising animation (non-zip)\animations\ising_anim0887.png" arWidth="320" arHeight="240" duration="0" songTitle="" songArtist="" songAlbum="" songCopyrightUrl="" songArtistUrl="" songAudioFileUrl="" stabilizationMode="0" mediaItemType="2" />
    <MediaItem id="366" filePath="C:\Users\owner\Documents\Work\Ising model\ising_animation\Ising animation (non-zip)\animations\ising_anim0366.png" arWidth="320" arHeight="240" duration="0" songTitle="" songArtist="" songAlbum="" songCopyrightUrl="" songArtistUrl="" songAudioFileUrl="" stabilizationMode="0" mediaItemType="2" />
    <MediaItem id="888" filePath="C:\Users\owner\Documents\Work\Ising model\ising_animation\Ising animation (non-zip)\animations\ising_anim0888.png" arWidth="320" arHeight="240" duration="0" songTitle="" songArtist="" songAlbum="" songCopyrightUrl="" songArtistUrl="" songAudioFileUrl="" stabilizationMode="0" mediaItemType="2" />
    <MediaItem id="367" filePath="C:\Users\owner\Documents\Work\Ising model\ising_animation\Ising animation (non-zip)\animations\ising_anim0367.png" arWidth="320" arHeight="240" duration="0" songTitle="" songArtist="" songAlbum="" songCopyrightUrl="" songArtistUrl="" songAudioFileUrl="" stabilizationMode="0" mediaItemType="2" />
    <MediaItem id="889" filePath="C:\Users\owner\Documents\Work\Ising model\ising_animation\Ising animation (non-zip)\animations\ising_anim0889.png" arWidth="320" arHeight="240" duration="0" songTitle="" songArtist="" songAlbum="" songCopyrightUrl="" songArtistUrl="" songAudioFileUrl="" stabilizationMode="0" mediaItemType="2" />
    <MediaItem id="368" filePath="C:\Users\owner\Documents\Work\Ising model\ising_animation\Ising animation (non-zip)\animations\ising_anim0368.png" arWidth="320" arHeight="240" duration="0" songTitle="" songArtist="" songAlbum="" songCopyrightUrl="" songArtistUrl="" songAudioFileUrl="" stabilizationMode="0" mediaItemType="2" />
    <MediaItem id="890" filePath="C:\Users\owner\Documents\Work\Ising model\ising_animation\Ising animation (non-zip)\animations\ising_anim0890.png" arWidth="320" arHeight="240" duration="0" songTitle="" songArtist="" songAlbum="" songCopyrightUrl="" songArtistUrl="" songAudioFileUrl="" stabilizationMode="0" mediaItemType="2" />
    <MediaItem id="369" filePath="C:\Users\owner\Documents\Work\Ising model\ising_animation\Ising animation (non-zip)\animations\ising_anim0369.png" arWidth="320" arHeight="240" duration="0" songTitle="" songArtist="" songAlbum="" songCopyrightUrl="" songArtistUrl="" songAudioFileUrl="" stabilizationMode="0" mediaItemType="2" />
    <MediaItem id="891" filePath="C:\Users\owner\Documents\Work\Ising model\ising_animation\Ising animation (non-zip)\animations\ising_anim0891.png" arWidth="320" arHeight="240" duration="0" songTitle="" songArtist="" songAlbum="" songCopyrightUrl="" songArtistUrl="" songAudioFileUrl="" stabilizationMode="0" mediaItemType="2" />
    <MediaItem id="370" filePath="C:\Users\owner\Documents\Work\Ising model\ising_animation\Ising animation (non-zip)\animations\ising_anim0370.png" arWidth="320" arHeight="240" duration="0" songTitle="" songArtist="" songAlbum="" songCopyrightUrl="" songArtistUrl="" songAudioFileUrl="" stabilizationMode="0" mediaItemType="2" />
    <MediaItem id="892" filePath="C:\Users\owner\Documents\Work\Ising model\ising_animation\Ising animation (non-zip)\animations\ising_anim0892.png" arWidth="320" arHeight="240" duration="0" songTitle="" songArtist="" songAlbum="" songCopyrightUrl="" songArtistUrl="" songAudioFileUrl="" stabilizationMode="0" mediaItemType="2" />
    <MediaItem id="371" filePath="C:\Users\owner\Documents\Work\Ising model\ising_animation\Ising animation (non-zip)\animations\ising_anim0371.png" arWidth="320" arHeight="240" duration="0" songTitle="" songArtist="" songAlbum="" songCopyrightUrl="" songArtistUrl="" songAudioFileUrl="" stabilizationMode="0" mediaItemType="2" />
    <MediaItem id="893" filePath="C:\Users\owner\Documents\Work\Ising model\ising_animation\Ising animation (non-zip)\animations\ising_anim0893.png" arWidth="320" arHeight="240" duration="0" songTitle="" songArtist="" songAlbum="" songCopyrightUrl="" songArtistUrl="" songAudioFileUrl="" stabilizationMode="0" mediaItemType="2" />
    <MediaItem id="372" filePath="C:\Users\owner\Documents\Work\Ising model\ising_animation\Ising animation (non-zip)\animations\ising_anim0372.png" arWidth="320" arHeight="240" duration="0" songTitle="" songArtist="" songAlbum="" songCopyrightUrl="" songArtistUrl="" songAudioFileUrl="" stabilizationMode="0" mediaItemType="2" />
    <MediaItem id="894" filePath="C:\Users\owner\Documents\Work\Ising model\ising_animation\Ising animation (non-zip)\animations\ising_anim0894.png" arWidth="320" arHeight="240" duration="0" songTitle="" songArtist="" songAlbum="" songCopyrightUrl="" songArtistUrl="" songAudioFileUrl="" stabilizationMode="0" mediaItemType="2" />
    <MediaItem id="373" filePath="C:\Users\owner\Documents\Work\Ising model\ising_animation\Ising animation (non-zip)\animations\ising_anim0373.png" arWidth="320" arHeight="240" duration="0" songTitle="" songArtist="" songAlbum="" songCopyrightUrl="" songArtistUrl="" songAudioFileUrl="" stabilizationMode="0" mediaItemType="2" />
    <MediaItem id="895" filePath="C:\Users\owner\Documents\Work\Ising model\ising_animation\Ising animation (non-zip)\animations\ising_anim0895.png" arWidth="320" arHeight="240" duration="0" songTitle="" songArtist="" songAlbum="" songCopyrightUrl="" songArtistUrl="" songAudioFileUrl="" stabilizationMode="0" mediaItemType="2" />
    <MediaItem id="374" filePath="C:\Users\owner\Documents\Work\Ising model\ising_animation\Ising animation (non-zip)\animations\ising_anim0374.png" arWidth="320" arHeight="240" duration="0" songTitle="" songArtist="" songAlbum="" songCopyrightUrl="" songArtistUrl="" songAudioFileUrl="" stabilizationMode="0" mediaItemType="2" />
    <MediaItem id="896" filePath="C:\Users\owner\Documents\Work\Ising model\ising_animation\Ising animation (non-zip)\animations\ising_anim0896.png" arWidth="320" arHeight="240" duration="0" songTitle="" songArtist="" songAlbum="" songCopyrightUrl="" songArtistUrl="" songAudioFileUrl="" stabilizationMode="0" mediaItemType="2" />
    <MediaItem id="375" filePath="C:\Users\owner\Documents\Work\Ising model\ising_animation\Ising animation (non-zip)\animations\ising_anim0375.png" arWidth="320" arHeight="240" duration="0" songTitle="" songArtist="" songAlbum="" songCopyrightUrl="" songArtistUrl="" songAudioFileUrl="" stabilizationMode="0" mediaItemType="2" />
    <MediaItem id="897" filePath="C:\Users\owner\Documents\Work\Ising model\ising_animation\Ising animation (non-zip)\animations\ising_anim0897.png" arWidth="320" arHeight="240" duration="0" songTitle="" songArtist="" songAlbum="" songCopyrightUrl="" songArtistUrl="" songAudioFileUrl="" stabilizationMode="0" mediaItemType="2" />
    <MediaItem id="376" filePath="C:\Users\owner\Documents\Work\Ising model\ising_animation\Ising animation (non-zip)\animations\ising_anim0376.png" arWidth="320" arHeight="240" duration="0" songTitle="" songArtist="" songAlbum="" songCopyrightUrl="" songArtistUrl="" songAudioFileUrl="" stabilizationMode="0" mediaItemType="2" />
    <MediaItem id="898" filePath="C:\Users\owner\Documents\Work\Ising model\ising_animation\Ising animation (non-zip)\animations\ising_anim0898.png" arWidth="320" arHeight="240" duration="0" songTitle="" songArtist="" songAlbum="" songCopyrightUrl="" songArtistUrl="" songAudioFileUrl="" stabilizationMode="0" mediaItemType="2" />
    <MediaItem id="377" filePath="C:\Users\owner\Documents\Work\Ising model\ising_animation\Ising animation (non-zip)\animations\ising_anim0377.png" arWidth="320" arHeight="240" duration="0" songTitle="" songArtist="" songAlbum="" songCopyrightUrl="" songArtistUrl="" songAudioFileUrl="" stabilizationMode="0" mediaItemType="2" />
    <MediaItem id="899" filePath="C:\Users\owner\Documents\Work\Ising model\ising_animation\Ising animation (non-zip)\animations\ising_anim0899.png" arWidth="320" arHeight="240" duration="0" songTitle="" songArtist="" songAlbum="" songCopyrightUrl="" songArtistUrl="" songAudioFileUrl="" stabilizationMode="0" mediaItemType="2" />
    <MediaItem id="378" filePath="C:\Users\owner\Documents\Work\Ising model\ising_animation\Ising animation (non-zip)\animations\ising_anim0378.png" arWidth="320" arHeight="240" duration="0" songTitle="" songArtist="" songAlbum="" songCopyrightUrl="" songArtistUrl="" songAudioFileUrl="" stabilizationMode="0" mediaItemType="2" />
    <MediaItem id="900" filePath="C:\Users\owner\Documents\Work\Ising model\ising_animation\Ising animation (non-zip)\animations\ising_anim0900.png" arWidth="320" arHeight="240" duration="0" songTitle="" songArtist="" songAlbum="" songCopyrightUrl="" songArtistUrl="" songAudioFileUrl="" stabilizationMode="0" mediaItemType="2" />
    <MediaItem id="379" filePath="C:\Users\owner\Documents\Work\Ising model\ising_animation\Ising animation (non-zip)\animations\ising_anim0379.png" arWidth="320" arHeight="240" duration="0" songTitle="" songArtist="" songAlbum="" songCopyrightUrl="" songArtistUrl="" songAudioFileUrl="" stabilizationMode="0" mediaItemType="2" />
    <MediaItem id="901" filePath="C:\Users\owner\Documents\Work\Ising model\ising_animation\Ising animation (non-zip)\animations\ising_anim0901.png" arWidth="320" arHeight="240" duration="0" songTitle="" songArtist="" songAlbum="" songCopyrightUrl="" songArtistUrl="" songAudioFileUrl="" stabilizationMode="0" mediaItemType="2" />
    <MediaItem id="380" filePath="C:\Users\owner\Documents\Work\Ising model\ising_animation\Ising animation (non-zip)\animations\ising_anim0380.png" arWidth="320" arHeight="240" duration="0" songTitle="" songArtist="" songAlbum="" songCopyrightUrl="" songArtistUrl="" songAudioFileUrl="" stabilizationMode="0" mediaItemType="2" />
    <MediaItem id="902" filePath="C:\Users\owner\Documents\Work\Ising model\ising_animation\Ising animation (non-zip)\animations\ising_anim0902.png" arWidth="320" arHeight="240" duration="0" songTitle="" songArtist="" songAlbum="" songCopyrightUrl="" songArtistUrl="" songAudioFileUrl="" stabilizationMode="0" mediaItemType="2" />
    <MediaItem id="381" filePath="C:\Users\owner\Documents\Work\Ising model\ising_animation\Ising animation (non-zip)\animations\ising_anim0381.png" arWidth="320" arHeight="240" duration="0" songTitle="" songArtist="" songAlbum="" songCopyrightUrl="" songArtistUrl="" songAudioFileUrl="" stabilizationMode="0" mediaItemType="2" />
    <MediaItem id="903" filePath="C:\Users\owner\Documents\Work\Ising model\ising_animation\Ising animation (non-zip)\animations\ising_anim0903.png" arWidth="320" arHeight="240" duration="0" songTitle="" songArtist="" songAlbum="" songCopyrightUrl="" songArtistUrl="" songAudioFileUrl="" stabilizationMode="0" mediaItemType="2" />
    <MediaItem id="382" filePath="C:\Users\owner\Documents\Work\Ising model\ising_animation\Ising animation (non-zip)\animations\ising_anim0382.png" arWidth="320" arHeight="240" duration="0" songTitle="" songArtist="" songAlbum="" songCopyrightUrl="" songArtistUrl="" songAudioFileUrl="" stabilizationMode="0" mediaItemType="2" />
    <MediaItem id="904" filePath="C:\Users\owner\Documents\Work\Ising model\ising_animation\Ising animation (non-zip)\animations\ising_anim0904.png" arWidth="320" arHeight="240" duration="0" songTitle="" songArtist="" songAlbum="" songCopyrightUrl="" songArtistUrl="" songAudioFileUrl="" stabilizationMode="0" mediaItemType="2" />
    <MediaItem id="383" filePath="C:\Users\owner\Documents\Work\Ising model\ising_animation\Ising animation (non-zip)\animations\ising_anim0383.png" arWidth="320" arHeight="240" duration="0" songTitle="" songArtist="" songAlbum="" songCopyrightUrl="" songArtistUrl="" songAudioFileUrl="" stabilizationMode="0" mediaItemType="2" />
    <MediaItem id="905" filePath="C:\Users\owner\Documents\Work\Ising model\ising_animation\Ising animation (non-zip)\animations\ising_anim0905.png" arWidth="320" arHeight="240" duration="0" songTitle="" songArtist="" songAlbum="" songCopyrightUrl="" songArtistUrl="" songAudioFileUrl="" stabilizationMode="0" mediaItemType="2" />
    <MediaItem id="384" filePath="C:\Users\owner\Documents\Work\Ising model\ising_animation\Ising animation (non-zip)\animations\ising_anim0384.png" arWidth="320" arHeight="240" duration="0" songTitle="" songArtist="" songAlbum="" songCopyrightUrl="" songArtistUrl="" songAudioFileUrl="" stabilizationMode="0" mediaItemType="2" />
    <MediaItem id="906" filePath="C:\Users\owner\Documents\Work\Ising model\ising_animation\Ising animation (non-zip)\animations\ising_anim0906.png" arWidth="320" arHeight="240" duration="0" songTitle="" songArtist="" songAlbum="" songCopyrightUrl="" songArtistUrl="" songAudioFileUrl="" stabilizationMode="0" mediaItemType="2" />
    <MediaItem id="385" filePath="C:\Users\owner\Documents\Work\Ising model\ising_animation\Ising animation (non-zip)\animations\ising_anim0385.png" arWidth="320" arHeight="240" duration="0" songTitle="" songArtist="" songAlbum="" songCopyrightUrl="" songArtistUrl="" songAudioFileUrl="" stabilizationMode="0" mediaItemType="2" />
    <MediaItem id="907" filePath="C:\Users\owner\Documents\Work\Ising model\ising_animation\Ising animation (non-zip)\animations\ising_anim0907.png" arWidth="320" arHeight="240" duration="0" songTitle="" songArtist="" songAlbum="" songCopyrightUrl="" songArtistUrl="" songAudioFileUrl="" stabilizationMode="0" mediaItemType="2" />
    <MediaItem id="386" filePath="C:\Users\owner\Documents\Work\Ising model\ising_animation\Ising animation (non-zip)\animations\ising_anim0386.png" arWidth="320" arHeight="240" duration="0" songTitle="" songArtist="" songAlbum="" songCopyrightUrl="" songArtistUrl="" songAudioFileUrl="" stabilizationMode="0" mediaItemType="2" />
    <MediaItem id="908" filePath="C:\Users\owner\Documents\Work\Ising model\ising_animation\Ising animation (non-zip)\animations\ising_anim0908.png" arWidth="320" arHeight="240" duration="0" songTitle="" songArtist="" songAlbum="" songCopyrightUrl="" songArtistUrl="" songAudioFileUrl="" stabilizationMode="0" mediaItemType="2" />
    <MediaItem id="387" filePath="C:\Users\owner\Documents\Work\Ising model\ising_animation\Ising animation (non-zip)\animations\ising_anim0387.png" arWidth="320" arHeight="240" duration="0" songTitle="" songArtist="" songAlbum="" songCopyrightUrl="" songArtistUrl="" songAudioFileUrl="" stabilizationMode="0" mediaItemType="2" />
    <MediaItem id="909" filePath="C:\Users\owner\Documents\Work\Ising model\ising_animation\Ising animation (non-zip)\animations\ising_anim0909.png" arWidth="320" arHeight="240" duration="0" songTitle="" songArtist="" songAlbum="" songCopyrightUrl="" songArtistUrl="" songAudioFileUrl="" stabilizationMode="0" mediaItemType="2" />
    <MediaItem id="388" filePath="C:\Users\owner\Documents\Work\Ising model\ising_animation\Ising animation (non-zip)\animations\ising_anim0388.png" arWidth="320" arHeight="240" duration="0" songTitle="" songArtist="" songAlbum="" songCopyrightUrl="" songArtistUrl="" songAudioFileUrl="" stabilizationMode="0" mediaItemType="2" />
    <MediaItem id="910" filePath="C:\Users\owner\Documents\Work\Ising model\ising_animation\Ising animation (non-zip)\animations\ising_anim0910.png" arWidth="320" arHeight="240" duration="0" songTitle="" songArtist="" songAlbum="" songCopyrightUrl="" songArtistUrl="" songAudioFileUrl="" stabilizationMode="0" mediaItemType="2" />
    <MediaItem id="389" filePath="C:\Users\owner\Documents\Work\Ising model\ising_animation\Ising animation (non-zip)\animations\ising_anim0389.png" arWidth="320" arHeight="240" duration="0" songTitle="" songArtist="" songAlbum="" songCopyrightUrl="" songArtistUrl="" songAudioFileUrl="" stabilizationMode="0" mediaItemType="2" />
    <MediaItem id="911" filePath="C:\Users\owner\Documents\Work\Ising model\ising_animation\Ising animation (non-zip)\animations\ising_anim0911.png" arWidth="320" arHeight="240" duration="0" songTitle="" songArtist="" songAlbum="" songCopyrightUrl="" songArtistUrl="" songAudioFileUrl="" stabilizationMode="0" mediaItemType="2" />
    <MediaItem id="390" filePath="C:\Users\owner\Documents\Work\Ising model\ising_animation\Ising animation (non-zip)\animations\ising_anim0390.png" arWidth="320" arHeight="240" duration="0" songTitle="" songArtist="" songAlbum="" songCopyrightUrl="" songArtistUrl="" songAudioFileUrl="" stabilizationMode="0" mediaItemType="2" />
    <MediaItem id="912" filePath="C:\Users\owner\Documents\Work\Ising model\ising_animation\Ising animation (non-zip)\animations\ising_anim0912.png" arWidth="320" arHeight="240" duration="0" songTitle="" songArtist="" songAlbum="" songCopyrightUrl="" songArtistUrl="" songAudioFileUrl="" stabilizationMode="0" mediaItemType="2" />
    <MediaItem id="391" filePath="C:\Users\owner\Documents\Work\Ising model\ising_animation\Ising animation (non-zip)\animations\ising_anim0391.png" arWidth="320" arHeight="240" duration="0" songTitle="" songArtist="" songAlbum="" songCopyrightUrl="" songArtistUrl="" songAudioFileUrl="" stabilizationMode="0" mediaItemType="2" />
    <MediaItem id="913" filePath="C:\Users\owner\Documents\Work\Ising model\ising_animation\Ising animation (non-zip)\animations\ising_anim0913.png" arWidth="320" arHeight="240" duration="0" songTitle="" songArtist="" songAlbum="" songCopyrightUrl="" songArtistUrl="" songAudioFileUrl="" stabilizationMode="0" mediaItemType="2" />
    <MediaItem id="392" filePath="C:\Users\owner\Documents\Work\Ising model\ising_animation\Ising animation (non-zip)\animations\ising_anim0392.png" arWidth="320" arHeight="240" duration="0" songTitle="" songArtist="" songAlbum="" songCopyrightUrl="" songArtistUrl="" songAudioFileUrl="" stabilizationMode="0" mediaItemType="2" />
    <MediaItem id="914" filePath="C:\Users\owner\Documents\Work\Ising model\ising_animation\Ising animation (non-zip)\animations\ising_anim0914.png" arWidth="320" arHeight="240" duration="0" songTitle="" songArtist="" songAlbum="" songCopyrightUrl="" songArtistUrl="" songAudioFileUrl="" stabilizationMode="0" mediaItemType="2" />
    <MediaItem id="393" filePath="C:\Users\owner\Documents\Work\Ising model\ising_animation\Ising animation (non-zip)\animations\ising_anim0393.png" arWidth="320" arHeight="240" duration="0" songTitle="" songArtist="" songAlbum="" songCopyrightUrl="" songArtistUrl="" songAudioFileUrl="" stabilizationMode="0" mediaItemType="2" />
    <MediaItem id="915" filePath="C:\Users\owner\Documents\Work\Ising model\ising_animation\Ising animation (non-zip)\animations\ising_anim0915.png" arWidth="320" arHeight="240" duration="0" songTitle="" songArtist="" songAlbum="" songCopyrightUrl="" songArtistUrl="" songAudioFileUrl="" stabilizationMode="0" mediaItemType="2" />
    <MediaItem id="394" filePath="C:\Users\owner\Documents\Work\Ising model\ising_animation\Ising animation (non-zip)\animations\ising_anim0394.png" arWidth="320" arHeight="240" duration="0" songTitle="" songArtist="" songAlbum="" songCopyrightUrl="" songArtistUrl="" songAudioFileUrl="" stabilizationMode="0" mediaItemType="2" />
    <MediaItem id="916" filePath="C:\Users\owner\Documents\Work\Ising model\ising_animation\Ising animation (non-zip)\animations\ising_anim0916.png" arWidth="320" arHeight="240" duration="0" songTitle="" songArtist="" songAlbum="" songCopyrightUrl="" songArtistUrl="" songAudioFileUrl="" stabilizationMode="0" mediaItemType="2" />
    <MediaItem id="395" filePath="C:\Users\owner\Documents\Work\Ising model\ising_animation\Ising animation (non-zip)\animations\ising_anim0395.png" arWidth="320" arHeight="240" duration="0" songTitle="" songArtist="" songAlbum="" songCopyrightUrl="" songArtistUrl="" songAudioFileUrl="" stabilizationMode="0" mediaItemType="2" />
    <MediaItem id="917" filePath="C:\Users\owner\Documents\Work\Ising model\ising_animation\Ising animation (non-zip)\animations\ising_anim0917.png" arWidth="320" arHeight="240" duration="0" songTitle="" songArtist="" songAlbum="" songCopyrightUrl="" songArtistUrl="" songAudioFileUrl="" stabilizationMode="0" mediaItemType="2" />
    <MediaItem id="396" filePath="C:\Users\owner\Documents\Work\Ising model\ising_animation\Ising animation (non-zip)\animations\ising_anim0396.png" arWidth="320" arHeight="240" duration="0" songTitle="" songArtist="" songAlbum="" songCopyrightUrl="" songArtistUrl="" songAudioFileUrl="" stabilizationMode="0" mediaItemType="2" />
    <MediaItem id="918" filePath="C:\Users\owner\Documents\Work\Ising model\ising_animation\Ising animation (non-zip)\animations\ising_anim0918.png" arWidth="320" arHeight="240" duration="0" songTitle="" songArtist="" songAlbum="" songCopyrightUrl="" songArtistUrl="" songAudioFileUrl="" stabilizationMode="0" mediaItemType="2" />
    <MediaItem id="397" filePath="C:\Users\owner\Documents\Work\Ising model\ising_animation\Ising animation (non-zip)\animations\ising_anim0397.png" arWidth="320" arHeight="240" duration="0" songTitle="" songArtist="" songAlbum="" songCopyrightUrl="" songArtistUrl="" songAudioFileUrl="" stabilizationMode="0" mediaItemType="2" />
    <MediaItem id="919" filePath="C:\Users\owner\Documents\Work\Ising model\ising_animation\Ising animation (non-zip)\animations\ising_anim0919.png" arWidth="320" arHeight="240" duration="0" songTitle="" songArtist="" songAlbum="" songCopyrightUrl="" songArtistUrl="" songAudioFileUrl="" stabilizationMode="0" mediaItemType="2" />
    <MediaItem id="398" filePath="C:\Users\owner\Documents\Work\Ising model\ising_animation\Ising animation (non-zip)\animations\ising_anim0398.png" arWidth="320" arHeight="240" duration="0" songTitle="" songArtist="" songAlbum="" songCopyrightUrl="" songArtistUrl="" songAudioFileUrl="" stabilizationMode="0" mediaItemType="2" />
    <MediaItem id="920" filePath="C:\Users\owner\Documents\Work\Ising model\ising_animation\Ising animation (non-zip)\animations\ising_anim0920.png" arWidth="320" arHeight="240" duration="0" songTitle="" songArtist="" songAlbum="" songCopyrightUrl="" songArtistUrl="" songAudioFileUrl="" stabilizationMode="0" mediaItemType="2" />
    <MediaItem id="399" filePath="C:\Users\owner\Documents\Work\Ising model\ising_animation\Ising animation (non-zip)\animations\ising_anim0399.png" arWidth="320" arHeight="240" duration="0" songTitle="" songArtist="" songAlbum="" songCopyrightUrl="" songArtistUrl="" songAudioFileUrl="" stabilizationMode="0" mediaItemType="2" />
    <MediaItem id="921" filePath="C:\Users\owner\Documents\Work\Ising model\ising_animation\Ising animation (non-zip)\animations\ising_anim0921.png" arWidth="320" arHeight="240" duration="0" songTitle="" songArtist="" songAlbum="" songCopyrightUrl="" songArtistUrl="" songAudioFileUrl="" stabilizationMode="0" mediaItemType="2" />
    <MediaItem id="400" filePath="C:\Users\owner\Documents\Work\Ising model\ising_animation\Ising animation (non-zip)\animations\ising_anim0400.png" arWidth="320" arHeight="240" duration="0" songTitle="" songArtist="" songAlbum="" songCopyrightUrl="" songArtistUrl="" songAudioFileUrl="" stabilizationMode="0" mediaItemType="2" />
    <MediaItem id="922" filePath="C:\Users\owner\Documents\Work\Ising model\ising_animation\Ising animation (non-zip)\animations\ising_anim0922.png" arWidth="320" arHeight="240" duration="0" songTitle="" songArtist="" songAlbum="" songCopyrightUrl="" songArtistUrl="" songAudioFileUrl="" stabilizationMode="0" mediaItemType="2" />
    <MediaItem id="401" filePath="C:\Users\owner\Documents\Work\Ising model\ising_animation\Ising animation (non-zip)\animations\ising_anim0401.png" arWidth="320" arHeight="240" duration="0" songTitle="" songArtist="" songAlbum="" songCopyrightUrl="" songArtistUrl="" songAudioFileUrl="" stabilizationMode="0" mediaItemType="2" />
    <MediaItem id="923" filePath="C:\Users\owner\Documents\Work\Ising model\ising_animation\Ising animation (non-zip)\animations\ising_anim0923.png" arWidth="320" arHeight="240" duration="0" songTitle="" songArtist="" songAlbum="" songCopyrightUrl="" songArtistUrl="" songAudioFileUrl="" stabilizationMode="0" mediaItemType="2" />
    <MediaItem id="402" filePath="C:\Users\owner\Documents\Work\Ising model\ising_animation\Ising animation (non-zip)\animations\ising_anim0402.png" arWidth="320" arHeight="240" duration="0" songTitle="" songArtist="" songAlbum="" songCopyrightUrl="" songArtistUrl="" songAudioFileUrl="" stabilizationMode="0" mediaItemType="2" />
    <MediaItem id="924" filePath="C:\Users\owner\Documents\Work\Ising model\ising_animation\Ising animation (non-zip)\animations\ising_anim0924.png" arWidth="320" arHeight="240" duration="0" songTitle="" songArtist="" songAlbum="" songCopyrightUrl="" songArtistUrl="" songAudioFileUrl="" stabilizationMode="0" mediaItemType="2" />
    <MediaItem id="403" filePath="C:\Users\owner\Documents\Work\Ising model\ising_animation\Ising animation (non-zip)\animations\ising_anim0403.png" arWidth="320" arHeight="240" duration="0" songTitle="" songArtist="" songAlbum="" songCopyrightUrl="" songArtistUrl="" songAudioFileUrl="" stabilizationMode="0" mediaItemType="2" />
    <MediaItem id="925" filePath="C:\Users\owner\Documents\Work\Ising model\ising_animation\Ising animation (non-zip)\animations\ising_anim0925.png" arWidth="320" arHeight="240" duration="0" songTitle="" songArtist="" songAlbum="" songCopyrightUrl="" songArtistUrl="" songAudioFileUrl="" stabilizationMode="0" mediaItemType="2" />
    <MediaItem id="404" filePath="C:\Users\owner\Documents\Work\Ising model\ising_animation\Ising animation (non-zip)\animations\ising_anim0404.png" arWidth="320" arHeight="240" duration="0" songTitle="" songArtist="" songAlbum="" songCopyrightUrl="" songArtistUrl="" songAudioFileUrl="" stabilizationMode="0" mediaItemType="2" />
    <MediaItem id="926" filePath="C:\Users\owner\Documents\Work\Ising model\ising_animation\Ising animation (non-zip)\animations\ising_anim0926.png" arWidth="320" arHeight="240" duration="0" songTitle="" songArtist="" songAlbum="" songCopyrightUrl="" songArtistUrl="" songAudioFileUrl="" stabilizationMode="0" mediaItemType="2" />
    <MediaItem id="405" filePath="C:\Users\owner\Documents\Work\Ising model\ising_animation\Ising animation (non-zip)\animations\ising_anim0405.png" arWidth="320" arHeight="240" duration="0" songTitle="" songArtist="" songAlbum="" songCopyrightUrl="" songArtistUrl="" songAudioFileUrl="" stabilizationMode="0" mediaItemType="2" />
    <MediaItem id="927" filePath="C:\Users\owner\Documents\Work\Ising model\ising_animation\Ising animation (non-zip)\animations\ising_anim0927.png" arWidth="320" arHeight="240" duration="0" songTitle="" songArtist="" songAlbum="" songCopyrightUrl="" songArtistUrl="" songAudioFileUrl="" stabilizationMode="0" mediaItemType="2" />
    <MediaItem id="406" filePath="C:\Users\owner\Documents\Work\Ising model\ising_animation\Ising animation (non-zip)\animations\ising_anim0406.png" arWidth="320" arHeight="240" duration="0" songTitle="" songArtist="" songAlbum="" songCopyrightUrl="" songArtistUrl="" songAudioFileUrl="" stabilizationMode="0" mediaItemType="2" />
    <MediaItem id="928" filePath="C:\Users\owner\Documents\Work\Ising model\ising_animation\Ising animation (non-zip)\animations\ising_anim0928.png" arWidth="320" arHeight="240" duration="0" songTitle="" songArtist="" songAlbum="" songCopyrightUrl="" songArtistUrl="" songAudioFileUrl="" stabilizationMode="0" mediaItemType="2" />
    <MediaItem id="407" filePath="C:\Users\owner\Documents\Work\Ising model\ising_animation\Ising animation (non-zip)\animations\ising_anim0407.png" arWidth="320" arHeight="240" duration="0" songTitle="" songArtist="" songAlbum="" songCopyrightUrl="" songArtistUrl="" songAudioFileUrl="" stabilizationMode="0" mediaItemType="2" />
    <MediaItem id="929" filePath="C:\Users\owner\Documents\Work\Ising model\ising_animation\Ising animation (non-zip)\animations\ising_anim0929.png" arWidth="320" arHeight="240" duration="0" songTitle="" songArtist="" songAlbum="" songCopyrightUrl="" songArtistUrl="" songAudioFileUrl="" stabilizationMode="0" mediaItemType="2" />
    <MediaItem id="408" filePath="C:\Users\owner\Documents\Work\Ising model\ising_animation\Ising animation (non-zip)\animations\ising_anim0408.png" arWidth="320" arHeight="240" duration="0" songTitle="" songArtist="" songAlbum="" songCopyrightUrl="" songArtistUrl="" songAudioFileUrl="" stabilizationMode="0" mediaItemType="2" />
    <MediaItem id="930" filePath="C:\Users\owner\Documents\Work\Ising model\ising_animation\Ising animation (non-zip)\animations\ising_anim0930.png" arWidth="320" arHeight="240" duration="0" songTitle="" songArtist="" songAlbum="" songCopyrightUrl="" songArtistUrl="" songAudioFileUrl="" stabilizationMode="0" mediaItemType="2" />
    <MediaItem id="409" filePath="C:\Users\owner\Documents\Work\Ising model\ising_animation\Ising animation (non-zip)\animations\ising_anim0409.png" arWidth="320" arHeight="240" duration="0" songTitle="" songArtist="" songAlbum="" songCopyrightUrl="" songArtistUrl="" songAudioFileUrl="" stabilizationMode="0" mediaItemType="2" />
    <MediaItem id="931" filePath="C:\Users\owner\Documents\Work\Ising model\ising_animation\Ising animation (non-zip)\animations\ising_anim0931.png" arWidth="320" arHeight="240" duration="0" songTitle="" songArtist="" songAlbum="" songCopyrightUrl="" songArtistUrl="" songAudioFileUrl="" stabilizationMode="0" mediaItemType="2" />
    <MediaItem id="410" filePath="C:\Users\owner\Documents\Work\Ising model\ising_animation\Ising animation (non-zip)\animations\ising_anim0410.png" arWidth="320" arHeight="240" duration="0" songTitle="" songArtist="" songAlbum="" songCopyrightUrl="" songArtistUrl="" songAudioFileUrl="" stabilizationMode="0" mediaItemType="2" />
    <MediaItem id="932" filePath="C:\Users\owner\Documents\Work\Ising model\ising_animation\Ising animation (non-zip)\animations\ising_anim0932.png" arWidth="320" arHeight="240" duration="0" songTitle="" songArtist="" songAlbum="" songCopyrightUrl="" songArtistUrl="" songAudioFileUrl="" stabilizationMode="0" mediaItemType="2" />
    <MediaItem id="411" filePath="C:\Users\owner\Documents\Work\Ising model\ising_animation\Ising animation (non-zip)\animations\ising_anim0411.png" arWidth="320" arHeight="240" duration="0" songTitle="" songArtist="" songAlbum="" songCopyrightUrl="" songArtistUrl="" songAudioFileUrl="" stabilizationMode="0" mediaItemType="2" />
    <MediaItem id="933" filePath="C:\Users\owner\Documents\Work\Ising model\ising_animation\Ising animation (non-zip)\animations\ising_anim0933.png" arWidth="320" arHeight="240" duration="0" songTitle="" songArtist="" songAlbum="" songCopyrightUrl="" songArtistUrl="" songAudioFileUrl="" stabilizationMode="0" mediaItemType="2" />
    <MediaItem id="412" filePath="C:\Users\owner\Documents\Work\Ising model\ising_animation\Ising animation (non-zip)\animations\ising_anim0412.png" arWidth="320" arHeight="240" duration="0" songTitle="" songArtist="" songAlbum="" songCopyrightUrl="" songArtistUrl="" songAudioFileUrl="" stabilizationMode="0" mediaItemType="2" />
    <MediaItem id="934" filePath="C:\Users\owner\Documents\Work\Ising model\ising_animation\Ising animation (non-zip)\animations\ising_anim0934.png" arWidth="320" arHeight="240" duration="0" songTitle="" songArtist="" songAlbum="" songCopyrightUrl="" songArtistUrl="" songAudioFileUrl="" stabilizationMode="0" mediaItemType="2" />
    <MediaItem id="413" filePath="C:\Users\owner\Documents\Work\Ising model\ising_animation\Ising animation (non-zip)\animations\ising_anim0413.png" arWidth="320" arHeight="240" duration="0" songTitle="" songArtist="" songAlbum="" songCopyrightUrl="" songArtistUrl="" songAudioFileUrl="" stabilizationMode="0" mediaItemType="2" />
    <MediaItem id="935" filePath="C:\Users\owner\Documents\Work\Ising model\ising_animation\Ising animation (non-zip)\animations\ising_anim0935.png" arWidth="320" arHeight="240" duration="0" songTitle="" songArtist="" songAlbum="" songCopyrightUrl="" songArtistUrl="" songAudioFileUrl="" stabilizationMode="0" mediaItemType="2" />
    <MediaItem id="414" filePath="C:\Users\owner\Documents\Work\Ising model\ising_animation\Ising animation (non-zip)\animations\ising_anim0414.png" arWidth="320" arHeight="240" duration="0" songTitle="" songArtist="" songAlbum="" songCopyrightUrl="" songArtistUrl="" songAudioFileUrl="" stabilizationMode="0" mediaItemType="2" />
    <MediaItem id="936" filePath="C:\Users\owner\Documents\Work\Ising model\ising_animation\Ising animation (non-zip)\animations\ising_anim0936.png" arWidth="320" arHeight="240" duration="0" songTitle="" songArtist="" songAlbum="" songCopyrightUrl="" songArtistUrl="" songAudioFileUrl="" stabilizationMode="0" mediaItemType="2" />
    <MediaItem id="415" filePath="C:\Users\owner\Documents\Work\Ising model\ising_animation\Ising animation (non-zip)\animations\ising_anim0415.png" arWidth="320" arHeight="240" duration="0" songTitle="" songArtist="" songAlbum="" songCopyrightUrl="" songArtistUrl="" songAudioFileUrl="" stabilizationMode="0" mediaItemType="2" />
    <MediaItem id="937" filePath="C:\Users\owner\Documents\Work\Ising model\ising_animation\Ising animation (non-zip)\animations\ising_anim0937.png" arWidth="320" arHeight="240" duration="0" songTitle="" songArtist="" songAlbum="" songCopyrightUrl="" songArtistUrl="" songAudioFileUrl="" stabilizationMode="0" mediaItemType="2" />
    <MediaItem id="416" filePath="C:\Users\owner\Documents\Work\Ising model\ising_animation\Ising animation (non-zip)\animations\ising_anim0416.png" arWidth="320" arHeight="240" duration="0" songTitle="" songArtist="" songAlbum="" songCopyrightUrl="" songArtistUrl="" songAudioFileUrl="" stabilizationMode="0" mediaItemType="2" />
    <MediaItem id="938" filePath="C:\Users\owner\Documents\Work\Ising model\ising_animation\Ising animation (non-zip)\animations\ising_anim0938.png" arWidth="320" arHeight="240" duration="0" songTitle="" songArtist="" songAlbum="" songCopyrightUrl="" songArtistUrl="" songAudioFileUrl="" stabilizationMode="0" mediaItemType="2" />
    <MediaItem id="417" filePath="C:\Users\owner\Documents\Work\Ising model\ising_animation\Ising animation (non-zip)\animations\ising_anim0417.png" arWidth="320" arHeight="240" duration="0" songTitle="" songArtist="" songAlbum="" songCopyrightUrl="" songArtistUrl="" songAudioFileUrl="" stabilizationMode="0" mediaItemType="2" />
    <MediaItem id="939" filePath="C:\Users\owner\Documents\Work\Ising model\ising_animation\Ising animation (non-zip)\animations\ising_anim0939.png" arWidth="320" arHeight="240" duration="0" songTitle="" songArtist="" songAlbum="" songCopyrightUrl="" songArtistUrl="" songAudioFileUrl="" stabilizationMode="0" mediaItemType="2" />
    <MediaItem id="418" filePath="C:\Users\owner\Documents\Work\Ising model\ising_animation\Ising animation (non-zip)\animations\ising_anim0418.png" arWidth="320" arHeight="240" duration="0" songTitle="" songArtist="" songAlbum="" songCopyrightUrl="" songArtistUrl="" songAudioFileUrl="" stabilizationMode="0" mediaItemType="2" />
    <MediaItem id="940" filePath="C:\Users\owner\Documents\Work\Ising model\ising_animation\Ising animation (non-zip)\animations\ising_anim0940.png" arWidth="320" arHeight="240" duration="0" songTitle="" songArtist="" songAlbum="" songCopyrightUrl="" songArtistUrl="" songAudioFileUrl="" stabilizationMode="0" mediaItemType="2" />
    <MediaItem id="419" filePath="C:\Users\owner\Documents\Work\Ising model\ising_animation\Ising animation (non-zip)\animations\ising_anim0419.png" arWidth="320" arHeight="240" duration="0" songTitle="" songArtist="" songAlbum="" songCopyrightUrl="" songArtistUrl="" songAudioFileUrl="" stabilizationMode="0" mediaItemType="2" />
    <MediaItem id="941" filePath="C:\Users\owner\Documents\Work\Ising model\ising_animation\Ising animation (non-zip)\animations\ising_anim0941.png" arWidth="320" arHeight="240" duration="0" songTitle="" songArtist="" songAlbum="" songCopyrightUrl="" songArtistUrl="" songAudioFileUrl="" stabilizationMode="0" mediaItemType="2" />
    <MediaItem id="420" filePath="C:\Users\owner\Documents\Work\Ising model\ising_animation\Ising animation (non-zip)\animations\ising_anim0420.png" arWidth="320" arHeight="240" duration="0" songTitle="" songArtist="" songAlbum="" songCopyrightUrl="" songArtistUrl="" songAudioFileUrl="" stabilizationMode="0" mediaItemType="2" />
    <MediaItem id="942" filePath="C:\Users\owner\Documents\Work\Ising model\ising_animation\Ising animation (non-zip)\animations\ising_anim0942.png" arWidth="320" arHeight="240" duration="0" songTitle="" songArtist="" songAlbum="" songCopyrightUrl="" songArtistUrl="" songAudioFileUrl="" stabilizationMode="0" mediaItemType="2" />
    <MediaItem id="421" filePath="C:\Users\owner\Documents\Work\Ising model\ising_animation\Ising animation (non-zip)\animations\ising_anim0421.png" arWidth="320" arHeight="240" duration="0" songTitle="" songArtist="" songAlbum="" songCopyrightUrl="" songArtistUrl="" songAudioFileUrl="" stabilizationMode="0" mediaItemType="2" />
    <MediaItem id="943" filePath="C:\Users\owner\Documents\Work\Ising model\ising_animation\Ising animation (non-zip)\animations\ising_anim0943.png" arWidth="320" arHeight="240" duration="0" songTitle="" songArtist="" songAlbum="" songCopyrightUrl="" songArtistUrl="" songAudioFileUrl="" stabilizationMode="0" mediaItemType="2" />
    <MediaItem id="422" filePath="C:\Users\owner\Documents\Work\Ising model\ising_animation\Ising animation (non-zip)\animations\ising_anim0422.png" arWidth="320" arHeight="240" duration="0" songTitle="" songArtist="" songAlbum="" songCopyrightUrl="" songArtistUrl="" songAudioFileUrl="" stabilizationMode="0" mediaItemType="2" />
    <MediaItem id="944" filePath="C:\Users\owner\Documents\Work\Ising model\ising_animation\Ising animation (non-zip)\animations\ising_anim0944.png" arWidth="320" arHeight="240" duration="0" songTitle="" songArtist="" songAlbum="" songCopyrightUrl="" songArtistUrl="" songAudioFileUrl="" stabilizationMode="0" mediaItemType="2" />
    <MediaItem id="423" filePath="C:\Users\owner\Documents\Work\Ising model\ising_animation\Ising animation (non-zip)\animations\ising_anim0423.png" arWidth="320" arHeight="240" duration="0" songTitle="" songArtist="" songAlbum="" songCopyrightUrl="" songArtistUrl="" songAudioFileUrl="" stabilizationMode="0" mediaItemType="2" />
    <MediaItem id="945" filePath="C:\Users\owner\Documents\Work\Ising model\ising_animation\Ising animation (non-zip)\animations\ising_anim0945.png" arWidth="320" arHeight="240" duration="0" songTitle="" songArtist="" songAlbum="" songCopyrightUrl="" songArtistUrl="" songAudioFileUrl="" stabilizationMode="0" mediaItemType="2" />
    <MediaItem id="424" filePath="C:\Users\owner\Documents\Work\Ising model\ising_animation\Ising animation (non-zip)\animations\ising_anim0424.png" arWidth="320" arHeight="240" duration="0" songTitle="" songArtist="" songAlbum="" songCopyrightUrl="" songArtistUrl="" songAudioFileUrl="" stabilizationMode="0" mediaItemType="2" />
    <MediaItem id="946" filePath="C:\Users\owner\Documents\Work\Ising model\ising_animation\Ising animation (non-zip)\animations\ising_anim0946.png" arWidth="320" arHeight="240" duration="0" songTitle="" songArtist="" songAlbum="" songCopyrightUrl="" songArtistUrl="" songAudioFileUrl="" stabilizationMode="0" mediaItemType="2" />
    <MediaItem id="425" filePath="C:\Users\owner\Documents\Work\Ising model\ising_animation\Ising animation (non-zip)\animations\ising_anim0425.png" arWidth="320" arHeight="240" duration="0" songTitle="" songArtist="" songAlbum="" songCopyrightUrl="" songArtistUrl="" songAudioFileUrl="" stabilizationMode="0" mediaItemType="2" />
    <MediaItem id="947" filePath="C:\Users\owner\Documents\Work\Ising model\ising_animation\Ising animation (non-zip)\animations\ising_anim0947.png" arWidth="320" arHeight="240" duration="0" songTitle="" songArtist="" songAlbum="" songCopyrightUrl="" songArtistUrl="" songAudioFileUrl="" stabilizationMode="0" mediaItemType="2" />
    <MediaItem id="426" filePath="C:\Users\owner\Documents\Work\Ising model\ising_animation\Ising animation (non-zip)\animations\ising_anim0426.png" arWidth="320" arHeight="240" duration="0" songTitle="" songArtist="" songAlbum="" songCopyrightUrl="" songArtistUrl="" songAudioFileUrl="" stabilizationMode="0" mediaItemType="2" />
    <MediaItem id="948" filePath="C:\Users\owner\Documents\Work\Ising model\ising_animation\Ising animation (non-zip)\animations\ising_anim0948.png" arWidth="320" arHeight="240" duration="0" songTitle="" songArtist="" songAlbum="" songCopyrightUrl="" songArtistUrl="" songAudioFileUrl="" stabilizationMode="0" mediaItemType="2" />
    <MediaItem id="427" filePath="C:\Users\owner\Documents\Work\Ising model\ising_animation\Ising animation (non-zip)\animations\ising_anim0427.png" arWidth="320" arHeight="240" duration="0" songTitle="" songArtist="" songAlbum="" songCopyrightUrl="" songArtistUrl="" songAudioFileUrl="" stabilizationMode="0" mediaItemType="2" />
    <MediaItem id="949" filePath="C:\Users\owner\Documents\Work\Ising model\ising_animation\Ising animation (non-zip)\animations\ising_anim0949.png" arWidth="320" arHeight="240" duration="0" songTitle="" songArtist="" songAlbum="" songCopyrightUrl="" songArtistUrl="" songAudioFileUrl="" stabilizationMode="0" mediaItemType="2" />
    <MediaItem id="428" filePath="C:\Users\owner\Documents\Work\Ising model\ising_animation\Ising animation (non-zip)\animations\ising_anim0428.png" arWidth="320" arHeight="240" duration="0" songTitle="" songArtist="" songAlbum="" songCopyrightUrl="" songArtistUrl="" songAudioFileUrl="" stabilizationMode="0" mediaItemType="2" />
    <MediaItem id="950" filePath="C:\Users\owner\Documents\Work\Ising model\ising_animation\Ising animation (non-zip)\animations\ising_anim0950.png" arWidth="320" arHeight="240" duration="0" songTitle="" songArtist="" songAlbum="" songCopyrightUrl="" songArtistUrl="" songAudioFileUrl="" stabilizationMode="0" mediaItemType="2" />
    <MediaItem id="429" filePath="C:\Users\owner\Documents\Work\Ising model\ising_animation\Ising animation (non-zip)\animations\ising_anim0429.png" arWidth="320" arHeight="240" duration="0" songTitle="" songArtist="" songAlbum="" songCopyrightUrl="" songArtistUrl="" songAudioFileUrl="" stabilizationMode="0" mediaItemType="2" />
    <MediaItem id="951" filePath="C:\Users\owner\Documents\Work\Ising model\ising_animation\Ising animation (non-zip)\animations\ising_anim0951.png" arWidth="320" arHeight="240" duration="0" songTitle="" songArtist="" songAlbum="" songCopyrightUrl="" songArtistUrl="" songAudioFileUrl="" stabilizationMode="0" mediaItemType="2" />
    <MediaItem id="430" filePath="C:\Users\owner\Documents\Work\Ising model\ising_animation\Ising animation (non-zip)\animations\ising_anim0430.png" arWidth="320" arHeight="240" duration="0" songTitle="" songArtist="" songAlbum="" songCopyrightUrl="" songArtistUrl="" songAudioFileUrl="" stabilizationMode="0" mediaItemType="2" />
    <MediaItem id="952" filePath="C:\Users\owner\Documents\Work\Ising model\ising_animation\Ising animation (non-zip)\animations\ising_anim0952.png" arWidth="320" arHeight="240" duration="0" songTitle="" songArtist="" songAlbum="" songCopyrightUrl="" songArtistUrl="" songAudioFileUrl="" stabilizationMode="0" mediaItemType="2" />
    <MediaItem id="431" filePath="C:\Users\owner\Documents\Work\Ising model\ising_animation\Ising animation (non-zip)\animations\ising_anim0431.png" arWidth="320" arHeight="240" duration="0" songTitle="" songArtist="" songAlbum="" songCopyrightUrl="" songArtistUrl="" songAudioFileUrl="" stabilizationMode="0" mediaItemType="2" />
    <MediaItem id="953" filePath="C:\Users\owner\Documents\Work\Ising model\ising_animation\Ising animation (non-zip)\animations\ising_anim0953.png" arWidth="320" arHeight="240" duration="0" songTitle="" songArtist="" songAlbum="" songCopyrightUrl="" songArtistUrl="" songAudioFileUrl="" stabilizationMode="0" mediaItemType="2" />
    <MediaItem id="432" filePath="C:\Users\owner\Documents\Work\Ising model\ising_animation\Ising animation (non-zip)\animations\ising_anim0432.png" arWidth="320" arHeight="240" duration="0" songTitle="" songArtist="" songAlbum="" songCopyrightUrl="" songArtistUrl="" songAudioFileUrl="" stabilizationMode="0" mediaItemType="2" />
    <MediaItem id="954" filePath="C:\Users\owner\Documents\Work\Ising model\ising_animation\Ising animation (non-zip)\animations\ising_anim0954.png" arWidth="320" arHeight="240" duration="0" songTitle="" songArtist="" songAlbum="" songCopyrightUrl="" songArtistUrl="" songAudioFileUrl="" stabilizationMode="0" mediaItemType="2" />
    <MediaItem id="433" filePath="C:\Users\owner\Documents\Work\Ising model\ising_animation\Ising animation (non-zip)\animations\ising_anim0433.png" arWidth="320" arHeight="240" duration="0" songTitle="" songArtist="" songAlbum="" songCopyrightUrl="" songArtistUrl="" songAudioFileUrl="" stabilizationMode="0" mediaItemType="2" />
    <MediaItem id="955" filePath="C:\Users\owner\Documents\Work\Ising model\ising_animation\Ising animation (non-zip)\animations\ising_anim0955.png" arWidth="320" arHeight="240" duration="0" songTitle="" songArtist="" songAlbum="" songCopyrightUrl="" songArtistUrl="" songAudioFileUrl="" stabilizationMode="0" mediaItemType="2" />
    <MediaItem id="434" filePath="C:\Users\owner\Documents\Work\Ising model\ising_animation\Ising animation (non-zip)\animations\ising_anim0434.png" arWidth="320" arHeight="240" duration="0" songTitle="" songArtist="" songAlbum="" songCopyrightUrl="" songArtistUrl="" songAudioFileUrl="" stabilizationMode="0" mediaItemType="2" />
    <MediaItem id="956" filePath="C:\Users\owner\Documents\Work\Ising model\ising_animation\Ising animation (non-zip)\animations\ising_anim0956.png" arWidth="320" arHeight="240" duration="0" songTitle="" songArtist="" songAlbum="" songCopyrightUrl="" songArtistUrl="" songAudioFileUrl="" stabilizationMode="0" mediaItemType="2" />
    <MediaItem id="435" filePath="C:\Users\owner\Documents\Work\Ising model\ising_animation\Ising animation (non-zip)\animations\ising_anim0435.png" arWidth="320" arHeight="240" duration="0" songTitle="" songArtist="" songAlbum="" songCopyrightUrl="" songArtistUrl="" songAudioFileUrl="" stabilizationMode="0" mediaItemType="2" />
    <MediaItem id="957" filePath="C:\Users\owner\Documents\Work\Ising model\ising_animation\Ising animation (non-zip)\animations\ising_anim0957.png" arWidth="320" arHeight="240" duration="0" songTitle="" songArtist="" songAlbum="" songCopyrightUrl="" songArtistUrl="" songAudioFileUrl="" stabilizationMode="0" mediaItemType="2" />
    <MediaItem id="436" filePath="C:\Users\owner\Documents\Work\Ising model\ising_animation\Ising animation (non-zip)\animations\ising_anim0436.png" arWidth="320" arHeight="240" duration="0" songTitle="" songArtist="" songAlbum="" songCopyrightUrl="" songArtistUrl="" songAudioFileUrl="" stabilizationMode="0" mediaItemType="2" />
    <MediaItem id="958" filePath="C:\Users\owner\Documents\Work\Ising model\ising_animation\Ising animation (non-zip)\animations\ising_anim0958.png" arWidth="320" arHeight="240" duration="0" songTitle="" songArtist="" songAlbum="" songCopyrightUrl="" songArtistUrl="" songAudioFileUrl="" stabilizationMode="0" mediaItemType="2" />
    <MediaItem id="437" filePath="C:\Users\owner\Documents\Work\Ising model\ising_animation\Ising animation (non-zip)\animations\ising_anim0437.png" arWidth="320" arHeight="240" duration="0" songTitle="" songArtist="" songAlbum="" songCopyrightUrl="" songArtistUrl="" songAudioFileUrl="" stabilizationMode="0" mediaItemType="2" />
    <MediaItem id="959" filePath="C:\Users\owner\Documents\Work\Ising model\ising_animation\Ising animation (non-zip)\animations\ising_anim0959.png" arWidth="320" arHeight="240" duration="0" songTitle="" songArtist="" songAlbum="" songCopyrightUrl="" songArtistUrl="" songAudioFileUrl="" stabilizationMode="0" mediaItemType="2" />
    <MediaItem id="438" filePath="C:\Users\owner\Documents\Work\Ising model\ising_animation\Ising animation (non-zip)\animations\ising_anim0438.png" arWidth="320" arHeight="240" duration="0" songTitle="" songArtist="" songAlbum="" songCopyrightUrl="" songArtistUrl="" songAudioFileUrl="" stabilizationMode="0" mediaItemType="2" />
    <MediaItem id="960" filePath="C:\Users\owner\Documents\Work\Ising model\ising_animation\Ising animation (non-zip)\animations\ising_anim0960.png" arWidth="320" arHeight="240" duration="0" songTitle="" songArtist="" songAlbum="" songCopyrightUrl="" songArtistUrl="" songAudioFileUrl="" stabilizationMode="0" mediaItemType="2" />
    <MediaItem id="439" filePath="C:\Users\owner\Documents\Work\Ising model\ising_animation\Ising animation (non-zip)\animations\ising_anim0439.png" arWidth="320" arHeight="240" duration="0" songTitle="" songArtist="" songAlbum="" songCopyrightUrl="" songArtistUrl="" songAudioFileUrl="" stabilizationMode="0" mediaItemType="2" />
    <MediaItem id="961" filePath="C:\Users\owner\Documents\Work\Ising model\ising_animation\Ising animation (non-zip)\animations\ising_anim0961.png" arWidth="320" arHeight="240" duration="0" songTitle="" songArtist="" songAlbum="" songCopyrightUrl="" songArtistUrl="" songAudioFileUrl="" stabilizationMode="0" mediaItemType="2" />
    <MediaItem id="440" filePath="C:\Users\owner\Documents\Work\Ising model\ising_animation\Ising animation (non-zip)\animations\ising_anim0440.png" arWidth="320" arHeight="240" duration="0" songTitle="" songArtist="" songAlbum="" songCopyrightUrl="" songArtistUrl="" songAudioFileUrl="" stabilizationMode="0" mediaItemType="2" />
    <MediaItem id="962" filePath="C:\Users\owner\Documents\Work\Ising model\ising_animation\Ising animation (non-zip)\animations\ising_anim0962.png" arWidth="320" arHeight="240" duration="0" songTitle="" songArtist="" songAlbum="" songCopyrightUrl="" songArtistUrl="" songAudioFileUrl="" stabilizationMode="0" mediaItemType="2" />
    <MediaItem id="441" filePath="C:\Users\owner\Documents\Work\Ising model\ising_animation\Ising animation (non-zip)\animations\ising_anim0441.png" arWidth="320" arHeight="240" duration="0" songTitle="" songArtist="" songAlbum="" songCopyrightUrl="" songArtistUrl="" songAudioFileUrl="" stabilizationMode="0" mediaItemType="2" />
    <MediaItem id="963" filePath="C:\Users\owner\Documents\Work\Ising model\ising_animation\Ising animation (non-zip)\animations\ising_anim0963.png" arWidth="320" arHeight="240" duration="0" songTitle="" songArtist="" songAlbum="" songCopyrightUrl="" songArtistUrl="" songAudioFileUrl="" stabilizationMode="0" mediaItemType="2" />
    <MediaItem id="442" filePath="C:\Users\owner\Documents\Work\Ising model\ising_animation\Ising animation (non-zip)\animations\ising_anim0442.png" arWidth="320" arHeight="240" duration="0" songTitle="" songArtist="" songAlbum="" songCopyrightUrl="" songArtistUrl="" songAudioFileUrl="" stabilizationMode="0" mediaItemType="2" />
    <MediaItem id="964" filePath="C:\Users\owner\Documents\Work\Ising model\ising_animation\Ising animation (non-zip)\animations\ising_anim0964.png" arWidth="320" arHeight="240" duration="0" songTitle="" songArtist="" songAlbum="" songCopyrightUrl="" songArtistUrl="" songAudioFileUrl="" stabilizationMode="0" mediaItemType="2" />
    <MediaItem id="443" filePath="C:\Users\owner\Documents\Work\Ising model\ising_animation\Ising animation (non-zip)\animations\ising_anim0443.png" arWidth="320" arHeight="240" duration="0" songTitle="" songArtist="" songAlbum="" songCopyrightUrl="" songArtistUrl="" songAudioFileUrl="" stabilizationMode="0" mediaItemType="2" />
    <MediaItem id="965" filePath="C:\Users\owner\Documents\Work\Ising model\ising_animation\Ising animation (non-zip)\animations\ising_anim0965.png" arWidth="320" arHeight="240" duration="0" songTitle="" songArtist="" songAlbum="" songCopyrightUrl="" songArtistUrl="" songAudioFileUrl="" stabilizationMode="0" mediaItemType="2" />
    <MediaItem id="444" filePath="C:\Users\owner\Documents\Work\Ising model\ising_animation\Ising animation (non-zip)\animations\ising_anim0444.png" arWidth="320" arHeight="240" duration="0" songTitle="" songArtist="" songAlbum="" songCopyrightUrl="" songArtistUrl="" songAudioFileUrl="" stabilizationMode="0" mediaItemType="2" />
    <MediaItem id="966" filePath="C:\Users\owner\Documents\Work\Ising model\ising_animation\Ising animation (non-zip)\animations\ising_anim0966.png" arWidth="320" arHeight="240" duration="0" songTitle="" songArtist="" songAlbum="" songCopyrightUrl="" songArtistUrl="" songAudioFileUrl="" stabilizationMode="0" mediaItemType="2" />
    <MediaItem id="445" filePath="C:\Users\owner\Documents\Work\Ising model\ising_animation\Ising animation (non-zip)\animations\ising_anim0445.png" arWidth="320" arHeight="240" duration="0" songTitle="" songArtist="" songAlbum="" songCopyrightUrl="" songArtistUrl="" songAudioFileUrl="" stabilizationMode="0" mediaItemType="2" />
    <MediaItem id="967" filePath="C:\Users\owner\Documents\Work\Ising model\ising_animation\Ising animation (non-zip)\animations\ising_anim0967.png" arWidth="320" arHeight="240" duration="0" songTitle="" songArtist="" songAlbum="" songCopyrightUrl="" songArtistUrl="" songAudioFileUrl="" stabilizationMode="0" mediaItemType="2" />
    <MediaItem id="446" filePath="C:\Users\owner\Documents\Work\Ising model\ising_animation\Ising animation (non-zip)\animations\ising_anim0446.png" arWidth="320" arHeight="240" duration="0" songTitle="" songArtist="" songAlbum="" songCopyrightUrl="" songArtistUrl="" songAudioFileUrl="" stabilizationMode="0" mediaItemType="2" />
    <MediaItem id="968" filePath="C:\Users\owner\Documents\Work\Ising model\ising_animation\Ising animation (non-zip)\animations\ising_anim0968.png" arWidth="320" arHeight="240" duration="0" songTitle="" songArtist="" songAlbum="" songCopyrightUrl="" songArtistUrl="" songAudioFileUrl="" stabilizationMode="0" mediaItemType="2" />
    <MediaItem id="447" filePath="C:\Users\owner\Documents\Work\Ising model\ising_animation\Ising animation (non-zip)\animations\ising_anim0447.png" arWidth="320" arHeight="240" duration="0" songTitle="" songArtist="" songAlbum="" songCopyrightUrl="" songArtistUrl="" songAudioFileUrl="" stabilizationMode="0" mediaItemType="2" />
    <MediaItem id="969" filePath="C:\Users\owner\Documents\Work\Ising model\ising_animation\Ising animation (non-zip)\animations\ising_anim0969.png" arWidth="320" arHeight="240" duration="0" songTitle="" songArtist="" songAlbum="" songCopyrightUrl="" songArtistUrl="" songAudioFileUrl="" stabilizationMode="0" mediaItemType="2" />
    <MediaItem id="448" filePath="C:\Users\owner\Documents\Work\Ising model\ising_animation\Ising animation (non-zip)\animations\ising_anim0448.png" arWidth="320" arHeight="240" duration="0" songTitle="" songArtist="" songAlbum="" songCopyrightUrl="" songArtistUrl="" songAudioFileUrl="" stabilizationMode="0" mediaItemType="2" />
    <MediaItem id="970" filePath="C:\Users\owner\Documents\Work\Ising model\ising_animation\Ising animation (non-zip)\animations\ising_anim0970.png" arWidth="320" arHeight="240" duration="0" songTitle="" songArtist="" songAlbum="" songCopyrightUrl="" songArtistUrl="" songAudioFileUrl="" stabilizationMode="0" mediaItemType="2" />
    <MediaItem id="449" filePath="C:\Users\owner\Documents\Work\Ising model\ising_animation\Ising animation (non-zip)\animations\ising_anim0449.png" arWidth="320" arHeight="240" duration="0" songTitle="" songArtist="" songAlbum="" songCopyrightUrl="" songArtistUrl="" songAudioFileUrl="" stabilizationMode="0" mediaItemType="2" />
    <MediaItem id="971" filePath="C:\Users\owner\Documents\Work\Ising model\ising_animation\Ising animation (non-zip)\animations\ising_anim0971.png" arWidth="320" arHeight="240" duration="0" songTitle="" songArtist="" songAlbum="" songCopyrightUrl="" songArtistUrl="" songAudioFileUrl="" stabilizationMode="0" mediaItemType="2" />
    <MediaItem id="450" filePath="C:\Users\owner\Documents\Work\Ising model\ising_animation\Ising animation (non-zip)\animations\ising_anim0450.png" arWidth="320" arHeight="240" duration="0" songTitle="" songArtist="" songAlbum="" songCopyrightUrl="" songArtistUrl="" songAudioFileUrl="" stabilizationMode="0" mediaItemType="2" />
    <MediaItem id="972" filePath="C:\Users\owner\Documents\Work\Ising model\ising_animation\Ising animation (non-zip)\animations\ising_anim0972.png" arWidth="320" arHeight="240" duration="0" songTitle="" songArtist="" songAlbum="" songCopyrightUrl="" songArtistUrl="" songAudioFileUrl="" stabilizationMode="0" mediaItemType="2" />
    <MediaItem id="451" filePath="C:\Users\owner\Documents\Work\Ising model\ising_animation\Ising animation (non-zip)\animations\ising_anim0451.png" arWidth="320" arHeight="240" duration="0" songTitle="" songArtist="" songAlbum="" songCopyrightUrl="" songArtistUrl="" songAudioFileUrl="" stabilizationMode="0" mediaItemType="2" />
    <MediaItem id="973" filePath="C:\Users\owner\Documents\Work\Ising model\ising_animation\Ising animation (non-zip)\animations\ising_anim0973.png" arWidth="320" arHeight="240" duration="0" songTitle="" songArtist="" songAlbum="" songCopyrightUrl="" songArtistUrl="" songAudioFileUrl="" stabilizationMode="0" mediaItemType="2" />
    <MediaItem id="452" filePath="C:\Users\owner\Documents\Work\Ising model\ising_animation\Ising animation (non-zip)\animations\ising_anim0452.png" arWidth="320" arHeight="240" duration="0" songTitle="" songArtist="" songAlbum="" songCopyrightUrl="" songArtistUrl="" songAudioFileUrl="" stabilizationMode="0" mediaItemType="2" />
    <MediaItem id="974" filePath="C:\Users\owner\Documents\Work\Ising model\ising_animation\Ising animation (non-zip)\animations\ising_anim0974.png" arWidth="320" arHeight="240" duration="0" songTitle="" songArtist="" songAlbum="" songCopyrightUrl="" songArtistUrl="" songAudioFileUrl="" stabilizationMode="0" mediaItemType="2" />
    <MediaItem id="453" filePath="C:\Users\owner\Documents\Work\Ising model\ising_animation\Ising animation (non-zip)\animations\ising_anim0453.png" arWidth="320" arHeight="240" duration="0" songTitle="" songArtist="" songAlbum="" songCopyrightUrl="" songArtistUrl="" songAudioFileUrl="" stabilizationMode="0" mediaItemType="2" />
    <MediaItem id="975" filePath="C:\Users\owner\Documents\Work\Ising model\ising_animation\Ising animation (non-zip)\animations\ising_anim0975.png" arWidth="320" arHeight="240" duration="0" songTitle="" songArtist="" songAlbum="" songCopyrightUrl="" songArtistUrl="" songAudioFileUrl="" stabilizationMode="0" mediaItemType="2" />
    <MediaItem id="454" filePath="C:\Users\owner\Documents\Work\Ising model\ising_animation\Ising animation (non-zip)\animations\ising_anim0454.png" arWidth="320" arHeight="240" duration="0" songTitle="" songArtist="" songAlbum="" songCopyrightUrl="" songArtistUrl="" songAudioFileUrl="" stabilizationMode="0" mediaItemType="2" />
    <MediaItem id="976" filePath="C:\Users\owner\Documents\Work\Ising model\ising_animation\Ising animation (non-zip)\animations\ising_anim0976.png" arWidth="320" arHeight="240" duration="0" songTitle="" songArtist="" songAlbum="" songCopyrightUrl="" songArtistUrl="" songAudioFileUrl="" stabilizationMode="0" mediaItemType="2" />
    <MediaItem id="455" filePath="C:\Users\owner\Documents\Work\Ising model\ising_animation\Ising animation (non-zip)\animations\ising_anim0455.png" arWidth="320" arHeight="240" duration="0" songTitle="" songArtist="" songAlbum="" songCopyrightUrl="" songArtistUrl="" songAudioFileUrl="" stabilizationMode="0" mediaItemType="2" />
    <MediaItem id="977" filePath="C:\Users\owner\Documents\Work\Ising model\ising_animation\Ising animation (non-zip)\animations\ising_anim0977.png" arWidth="320" arHeight="240" duration="0" songTitle="" songArtist="" songAlbum="" songCopyrightUrl="" songArtistUrl="" songAudioFileUrl="" stabilizationMode="0" mediaItemType="2" />
    <MediaItem id="456" filePath="C:\Users\owner\Documents\Work\Ising model\ising_animation\Ising animation (non-zip)\animations\ising_anim0456.png" arWidth="320" arHeight="240" duration="0" songTitle="" songArtist="" songAlbum="" songCopyrightUrl="" songArtistUrl="" songAudioFileUrl="" stabilizationMode="0" mediaItemType="2" />
    <MediaItem id="978" filePath="C:\Users\owner\Documents\Work\Ising model\ising_animation\Ising animation (non-zip)\animations\ising_anim0978.png" arWidth="320" arHeight="240" duration="0" songTitle="" songArtist="" songAlbum="" songCopyrightUrl="" songArtistUrl="" songAudioFileUrl="" stabilizationMode="0" mediaItemType="2" />
    <MediaItem id="457" filePath="C:\Users\owner\Documents\Work\Ising model\ising_animation\Ising animation (non-zip)\animations\ising_anim0457.png" arWidth="320" arHeight="240" duration="0" songTitle="" songArtist="" songAlbum="" songCopyrightUrl="" songArtistUrl="" songAudioFileUrl="" stabilizationMode="0" mediaItemType="2" />
    <MediaItem id="979" filePath="C:\Users\owner\Documents\Work\Ising model\ising_animation\Ising animation (non-zip)\animations\ising_anim0979.png" arWidth="320" arHeight="240" duration="0" songTitle="" songArtist="" songAlbum="" songCopyrightUrl="" songArtistUrl="" songAudioFileUrl="" stabilizationMode="0" mediaItemType="2" />
    <MediaItem id="458" filePath="C:\Users\owner\Documents\Work\Ising model\ising_animation\Ising animation (non-zip)\animations\ising_anim0458.png" arWidth="320" arHeight="240" duration="0" songTitle="" songArtist="" songAlbum="" songCopyrightUrl="" songArtistUrl="" songAudioFileUrl="" stabilizationMode="0" mediaItemType="2" />
    <MediaItem id="980" filePath="C:\Users\owner\Documents\Work\Ising model\ising_animation\Ising animation (non-zip)\animations\ising_anim0980.png" arWidth="320" arHeight="240" duration="0" songTitle="" songArtist="" songAlbum="" songCopyrightUrl="" songArtistUrl="" songAudioFileUrl="" stabilizationMode="0" mediaItemType="2" />
    <MediaItem id="459" filePath="C:\Users\owner\Documents\Work\Ising model\ising_animation\Ising animation (non-zip)\animations\ising_anim0459.png" arWidth="320" arHeight="240" duration="0" songTitle="" songArtist="" songAlbum="" songCopyrightUrl="" songArtistUrl="" songAudioFileUrl="" stabilizationMode="0" mediaItemType="2" />
    <MediaItem id="981" filePath="C:\Users\owner\Documents\Work\Ising model\ising_animation\Ising animation (non-zip)\animations\ising_anim0981.png" arWidth="320" arHeight="240" duration="0" songTitle="" songArtist="" songAlbum="" songCopyrightUrl="" songArtistUrl="" songAudioFileUrl="" stabilizationMode="0" mediaItemType="2" />
    <MediaItem id="460" filePath="C:\Users\owner\Documents\Work\Ising model\ising_animation\Ising animation (non-zip)\animations\ising_anim0460.png" arWidth="320" arHeight="240" duration="0" songTitle="" songArtist="" songAlbum="" songCopyrightUrl="" songArtistUrl="" songAudioFileUrl="" stabilizationMode="0" mediaItemType="2" />
    <MediaItem id="982" filePath="C:\Users\owner\Documents\Work\Ising model\ising_animation\Ising animation (non-zip)\animations\ising_anim0982.png" arWidth="320" arHeight="240" duration="0" songTitle="" songArtist="" songAlbum="" songCopyrightUrl="" songArtistUrl="" songAudioFileUrl="" stabilizationMode="0" mediaItemType="2" />
    <MediaItem id="461" filePath="C:\Users\owner\Documents\Work\Ising model\ising_animation\Ising animation (non-zip)\animations\ising_anim0461.png" arWidth="320" arHeight="240" duration="0" songTitle="" songArtist="" songAlbum="" songCopyrightUrl="" songArtistUrl="" songAudioFileUrl="" stabilizationMode="0" mediaItemType="2" />
    <MediaItem id="983" filePath="C:\Users\owner\Documents\Work\Ising model\ising_animation\Ising animation (non-zip)\animations\ising_anim0983.png" arWidth="320" arHeight="240" duration="0" songTitle="" songArtist="" songAlbum="" songCopyrightUrl="" songArtistUrl="" songAudioFileUrl="" stabilizationMode="0" mediaItemType="2" />
    <MediaItem id="462" filePath="C:\Users\owner\Documents\Work\Ising model\ising_animation\Ising animation (non-zip)\animations\ising_anim0462.png" arWidth="320" arHeight="240" duration="0" songTitle="" songArtist="" songAlbum="" songCopyrightUrl="" songArtistUrl="" songAudioFileUrl="" stabilizationMode="0" mediaItemType="2" />
    <MediaItem id="984" filePath="C:\Users\owner\Documents\Work\Ising model\ising_animation\Ising animation (non-zip)\animations\ising_anim0984.png" arWidth="320" arHeight="240" duration="0" songTitle="" songArtist="" songAlbum="" songCopyrightUrl="" songArtistUrl="" songAudioFileUrl="" stabilizationMode="0" mediaItemType="2" />
    <MediaItem id="463" filePath="C:\Users\owner\Documents\Work\Ising model\ising_animation\Ising animation (non-zip)\animations\ising_anim0463.png" arWidth="320" arHeight="240" duration="0" songTitle="" songArtist="" songAlbum="" songCopyrightUrl="" songArtistUrl="" songAudioFileUrl="" stabilizationMode="0" mediaItemType="2" />
    <MediaItem id="985" filePath="C:\Users\owner\Documents\Work\Ising model\ising_animation\Ising animation (non-zip)\animations\ising_anim0985.png" arWidth="320" arHeight="240" duration="0" songTitle="" songArtist="" songAlbum="" songCopyrightUrl="" songArtistUrl="" songAudioFileUrl="" stabilizationMode="0" mediaItemType="2" />
    <MediaItem id="464" filePath="C:\Users\owner\Documents\Work\Ising model\ising_animation\Ising animation (non-zip)\animations\ising_anim0464.png" arWidth="320" arHeight="240" duration="0" songTitle="" songArtist="" songAlbum="" songCopyrightUrl="" songArtistUrl="" songAudioFileUrl="" stabilizationMode="0" mediaItemType="2" />
    <MediaItem id="986" filePath="C:\Users\owner\Documents\Work\Ising model\ising_animation\Ising animation (non-zip)\animations\ising_anim0986.png" arWidth="320" arHeight="240" duration="0" songTitle="" songArtist="" songAlbum="" songCopyrightUrl="" songArtistUrl="" songAudioFileUrl="" stabilizationMode="0" mediaItemType="2" />
    <MediaItem id="465" filePath="C:\Users\owner\Documents\Work\Ising model\ising_animation\Ising animation (non-zip)\animations\ising_anim0465.png" arWidth="320" arHeight="240" duration="0" songTitle="" songArtist="" songAlbum="" songCopyrightUrl="" songArtistUrl="" songAudioFileUrl="" stabilizationMode="0" mediaItemType="2" />
    <MediaItem id="987" filePath="C:\Users\owner\Documents\Work\Ising model\ising_animation\Ising animation (non-zip)\animations\ising_anim0987.png" arWidth="320" arHeight="240" duration="0" songTitle="" songArtist="" songAlbum="" songCopyrightUrl="" songArtistUrl="" songAudioFileUrl="" stabilizationMode="0" mediaItemType="2" />
    <MediaItem id="466" filePath="C:\Users\owner\Documents\Work\Ising model\ising_animation\Ising animation (non-zip)\animations\ising_anim0466.png" arWidth="320" arHeight="240" duration="0" songTitle="" songArtist="" songAlbum="" songCopyrightUrl="" songArtistUrl="" songAudioFileUrl="" stabilizationMode="0" mediaItemType="2" />
    <MediaItem id="988" filePath="C:\Users\owner\Documents\Work\Ising model\ising_animation\Ising animation (non-zip)\animations\ising_anim0988.png" arWidth="320" arHeight="240" duration="0" songTitle="" songArtist="" songAlbum="" songCopyrightUrl="" songArtistUrl="" songAudioFileUrl="" stabilizationMode="0" mediaItemType="2" />
    <MediaItem id="467" filePath="C:\Users\owner\Documents\Work\Ising model\ising_animation\Ising animation (non-zip)\animations\ising_anim0467.png" arWidth="320" arHeight="240" duration="0" songTitle="" songArtist="" songAlbum="" songCopyrightUrl="" songArtistUrl="" songAudioFileUrl="" stabilizationMode="0" mediaItemType="2" />
    <MediaItem id="989" filePath="C:\Users\owner\Documents\Work\Ising model\ising_animation\Ising animation (non-zip)\animations\ising_anim0989.png" arWidth="320" arHeight="240" duration="0" songTitle="" songArtist="" songAlbum="" songCopyrightUrl="" songArtistUrl="" songAudioFileUrl="" stabilizationMode="0" mediaItemType="2" />
    <MediaItem id="468" filePath="C:\Users\owner\Documents\Work\Ising model\ising_animation\Ising animation (non-zip)\animations\ising_anim0468.png" arWidth="320" arHeight="240" duration="0" songTitle="" songArtist="" songAlbum="" songCopyrightUrl="" songArtistUrl="" songAudioFileUrl="" stabilizationMode="0" mediaItemType="2" />
    <MediaItem id="990" filePath="C:\Users\owner\Documents\Work\Ising model\ising_animation\Ising animation (non-zip)\animations\ising_anim0990.png" arWidth="320" arHeight="240" duration="0" songTitle="" songArtist="" songAlbum="" songCopyrightUrl="" songArtistUrl="" songAudioFileUrl="" stabilizationMode="0" mediaItemType="2" />
    <MediaItem id="469" filePath="C:\Users\owner\Documents\Work\Ising model\ising_animation\Ising animation (non-zip)\animations\ising_anim0469.png" arWidth="320" arHeight="240" duration="0" songTitle="" songArtist="" songAlbum="" songCopyrightUrl="" songArtistUrl="" songAudioFileUrl="" stabilizationMode="0" mediaItemType="2" />
    <MediaItem id="991" filePath="C:\Users\owner\Documents\Work\Ising model\ising_animation\Ising animation (non-zip)\animations\ising_anim0991.png" arWidth="320" arHeight="240" duration="0" songTitle="" songArtist="" songAlbum="" songCopyrightUrl="" songArtistUrl="" songAudioFileUrl="" stabilizationMode="0" mediaItemType="2" />
    <MediaItem id="470" filePath="C:\Users\owner\Documents\Work\Ising model\ising_animation\Ising animation (non-zip)\animations\ising_anim0470.png" arWidth="320" arHeight="240" duration="0" songTitle="" songArtist="" songAlbum="" songCopyrightUrl="" songArtistUrl="" songAudioFileUrl="" stabilizationMode="0" mediaItemType="2" />
    <MediaItem id="992" filePath="C:\Users\owner\Documents\Work\Ising model\ising_animation\Ising animation (non-zip)\animations\ising_anim0992.png" arWidth="320" arHeight="240" duration="0" songTitle="" songArtist="" songAlbum="" songCopyrightUrl="" songArtistUrl="" songAudioFileUrl="" stabilizationMode="0" mediaItemType="2" />
    <MediaItem id="471" filePath="C:\Users\owner\Documents\Work\Ising model\ising_animation\Ising animation (non-zip)\animations\ising_anim0471.png" arWidth="320" arHeight="240" duration="0" songTitle="" songArtist="" songAlbum="" songCopyrightUrl="" songArtistUrl="" songAudioFileUrl="" stabilizationMode="0" mediaItemType="2" />
    <MediaItem id="993" filePath="C:\Users\owner\Documents\Work\Ising model\ising_animation\Ising animation (non-zip)\animations\ising_anim0993.png" arWidth="320" arHeight="240" duration="0" songTitle="" songArtist="" songAlbum="" songCopyrightUrl="" songArtistUrl="" songAudioFileUrl="" stabilizationMode="0" mediaItemType="2" />
    <MediaItem id="472" filePath="C:\Users\owner\Documents\Work\Ising model\ising_animation\Ising animation (non-zip)\animations\ising_anim0472.png" arWidth="320" arHeight="240" duration="0" songTitle="" songArtist="" songAlbum="" songCopyrightUrl="" songArtistUrl="" songAudioFileUrl="" stabilizationMode="0" mediaItemType="2" />
    <MediaItem id="994" filePath="C:\Users\owner\Documents\Work\Ising model\ising_animation\Ising animation (non-zip)\animations\ising_anim0994.png" arWidth="320" arHeight="240" duration="0" songTitle="" songArtist="" songAlbum="" songCopyrightUrl="" songArtistUrl="" songAudioFileUrl="" stabilizationMode="0" mediaItemType="2" />
    <MediaItem id="473" filePath="C:\Users\owner\Documents\Work\Ising model\ising_animation\Ising animation (non-zip)\animations\ising_anim0473.png" arWidth="320" arHeight="240" duration="0" songTitle="" songArtist="" songAlbum="" songCopyrightUrl="" songArtistUrl="" songAudioFileUrl="" stabilizationMode="0" mediaItemType="2" />
    <MediaItem id="995" filePath="C:\Users\owner\Documents\Work\Ising model\ising_animation\Ising animation (non-zip)\animations\ising_anim0995.png" arWidth="320" arHeight="240" duration="0" songTitle="" songArtist="" songAlbum="" songCopyrightUrl="" songArtistUrl="" songAudioFileUrl="" stabilizationMode="0" mediaItemType="2" />
    <MediaItem id="474" filePath="C:\Users\owner\Documents\Work\Ising model\ising_animation\Ising animation (non-zip)\animations\ising_anim0474.png" arWidth="320" arHeight="240" duration="0" songTitle="" songArtist="" songAlbum="" songCopyrightUrl="" songArtistUrl="" songAudioFileUrl="" stabilizationMode="0" mediaItemType="2" />
    <MediaItem id="996" filePath="C:\Users\owner\Documents\Work\Ising model\ising_animation\Ising animation (non-zip)\animations\ising_anim0996.png" arWidth="320" arHeight="240" duration="0" songTitle="" songArtist="" songAlbum="" songCopyrightUrl="" songArtistUrl="" songAudioFileUrl="" stabilizationMode="0" mediaItemType="2" />
    <MediaItem id="475" filePath="C:\Users\owner\Documents\Work\Ising model\ising_animation\Ising animation (non-zip)\animations\ising_anim0475.png" arWidth="320" arHeight="240" duration="0" songTitle="" songArtist="" songAlbum="" songCopyrightUrl="" songArtistUrl="" songAudioFileUrl="" stabilizationMode="0" mediaItemType="2" />
    <MediaItem id="997" filePath="C:\Users\owner\Documents\Work\Ising model\ising_animation\Ising animation (non-zip)\animations\ising_anim0997.png" arWidth="320" arHeight="240" duration="0" songTitle="" songArtist="" songAlbum="" songCopyrightUrl="" songArtistUrl="" songAudioFileUrl="" stabilizationMode="0" mediaItemType="2" />
    <MediaItem id="476" filePath="C:\Users\owner\Documents\Work\Ising model\ising_animation\Ising animation (non-zip)\animations\ising_anim0476.png" arWidth="320" arHeight="240" duration="0" songTitle="" songArtist="" songAlbum="" songCopyrightUrl="" songArtistUrl="" songAudioFileUrl="" stabilizationMode="0" mediaItemType="2" />
    <MediaItem id="998" filePath="C:\Users\owner\Documents\Work\Ising model\ising_animation\Ising animation (non-zip)\animations\ising_anim0998.png" arWidth="320" arHeight="240" duration="0" songTitle="" songArtist="" songAlbum="" songCopyrightUrl="" songArtistUrl="" songAudioFileUrl="" stabilizationMode="0" mediaItemType="2" />
    <MediaItem id="477" filePath="C:\Users\owner\Documents\Work\Ising model\ising_animation\Ising animation (non-zip)\animations\ising_anim0477.png" arWidth="320" arHeight="240" duration="0" songTitle="" songArtist="" songAlbum="" songCopyrightUrl="" songArtistUrl="" songAudioFileUrl="" stabilizationMode="0" mediaItemType="2" />
    <MediaItem id="999" filePath="C:\Users\owner\Documents\Work\Ising model\ising_animation\Ising animation (non-zip)\animations\ising_anim0999.png" arWidth="320" arHeight="240" duration="0" songTitle="" songArtist="" songAlbum="" songCopyrightUrl="" songArtistUrl="" songAudioFileUrl="" stabilizationMode="0" mediaItemType="2" />
    <MediaItem id="478" filePath="C:\Users\owner\Documents\Work\Ising model\ising_animation\Ising animation (non-zip)\animations\ising_anim0478.png" arWidth="320" arHeight="240" duration="0" songTitle="" songArtist="" songAlbum="" songCopyrightUrl="" songArtistUrl="" songAudioFileUrl="" stabilizationMode="0" mediaItemType="2" />
    <MediaItem id="1000" filePath="C:\Users\owner\Documents\Work\Ising model\ising_animation\Ising animation (non-zip)\animations\ising_anim1000.png" arWidth="320" arHeight="240" duration="0" songTitle="" songArtist="" songAlbum="" songCopyrightUrl="" songArtistUrl="" songAudioFileUrl="" stabilizationMode="0" mediaItemType="2" />
    <MediaItem id="479" filePath="C:\Users\owner\Documents\Work\Ising model\ising_animation\Ising animation (non-zip)\animations\ising_anim0479.png" arWidth="320" arHeight="240" duration="0" songTitle="" songArtist="" songAlbum="" songCopyrightUrl="" songArtistUrl="" songAudioFileUrl="" stabilizationMode="0" mediaItemType="2" />
    <MediaItem id="480" filePath="C:\Users\owner\Documents\Work\Ising model\ising_animation\Ising animation (non-zip)\animations\ising_anim0480.png" arWidth="320" arHeight="240" duration="0" songTitle="" songArtist="" songAlbum="" songCopyrightUrl="" songArtistUrl="" songAudioFileUrl="" stabilizationMode="0" mediaItemType="2" />
    <MediaItem id="481" filePath="C:\Users\owner\Documents\Work\Ising model\ising_animation\Ising animation (non-zip)\animations\ising_anim0481.png" arWidth="320" arHeight="240" duration="0" songTitle="" songArtist="" songAlbum="" songCopyrightUrl="" songArtistUrl="" songAudioFileUrl="" stabilizationMode="0" mediaItemType="2" />
    <MediaItem id="482" filePath="C:\Users\owner\Documents\Work\Ising model\ising_animation\Ising animation (non-zip)\animations\ising_anim0482.png" arWidth="320" arHeight="240" duration="0" songTitle="" songArtist="" songAlbum="" songCopyrightUrl="" songArtistUrl="" songAudioFileUrl="" stabilizationMode="0" mediaItemType="2" />
    <MediaItem id="483" filePath="C:\Users\owner\Documents\Work\Ising model\ising_animation\Ising animation (non-zip)\animations\ising_anim0483.png" arWidth="320" arHeight="240" duration="0" songTitle="" songArtist="" songAlbum="" songCopyrightUrl="" songArtistUrl="" songAudioFileUrl="" stabilizationMode="0" mediaItemType="2" />
    <MediaItem id="484" filePath="C:\Users\owner\Documents\Work\Ising model\ising_animation\Ising animation (non-zip)\animations\ising_anim0484.png" arWidth="320" arHeight="240" duration="0" songTitle="" songArtist="" songAlbum="" songCopyrightUrl="" songArtistUrl="" songAudioFileUrl="" stabilizationMode="0" mediaItemType="2" />
    <MediaItem id="485" filePath="C:\Users\owner\Documents\Work\Ising model\ising_animation\Ising animation (non-zip)\animations\ising_anim0485.png" arWidth="320" arHeight="240" duration="0" songTitle="" songArtist="" songAlbum="" songCopyrightUrl="" songArtistUrl="" songAudioFileUrl="" stabilizationMode="0" mediaItemType="2" />
    <MediaItem id="486" filePath="C:\Users\owner\Documents\Work\Ising model\ising_animation\Ising animation (non-zip)\animations\ising_anim0486.png" arWidth="320" arHeight="240" duration="0" songTitle="" songArtist="" songAlbum="" songCopyrightUrl="" songArtistUrl="" songAudioFileUrl="" stabilizationMode="0" mediaItemType="2" />
    <MediaItem id="487" filePath="C:\Users\owner\Documents\Work\Ising model\ising_animation\Ising animation (non-zip)\animations\ising_anim0487.png" arWidth="320" arHeight="240" duration="0" songTitle="" songArtist="" songAlbum="" songCopyrightUrl="" songArtistUrl="" songAudioFileUrl="" stabilizationMode="0" mediaItemType="2" />
    <MediaItem id="488" filePath="C:\Users\owner\Documents\Work\Ising model\ising_animation\Ising animation (non-zip)\animations\ising_anim0488.png" arWidth="320" arHeight="240" duration="0" songTitle="" songArtist="" songAlbum="" songCopyrightUrl="" songArtistUrl="" songAudioFileUrl="" stabilizationMode="0" mediaItemType="2" />
    <MediaItem id="489" filePath="C:\Users\owner\Documents\Work\Ising model\ising_animation\Ising animation (non-zip)\animations\ising_anim0489.png" arWidth="320" arHeight="240" duration="0" songTitle="" songArtist="" songAlbum="" songCopyrightUrl="" songArtistUrl="" songAudioFileUrl="" stabilizationMode="0" mediaItemType="2" />
    <MediaItem id="490" filePath="C:\Users\owner\Documents\Work\Ising model\ising_animation\Ising animation (non-zip)\animations\ising_anim0490.png" arWidth="320" arHeight="240" duration="0" songTitle="" songArtist="" songAlbum="" songCopyrightUrl="" songArtistUrl="" songAudioFileUrl="" stabilizationMode="0" mediaItemType="2" />
    <MediaItem id="491" filePath="C:\Users\owner\Documents\Work\Ising model\ising_animation\Ising animation (non-zip)\animations\ising_anim0491.png" arWidth="320" arHeight="240" duration="0" songTitle="" songArtist="" songAlbum="" songCopyrightUrl="" songArtistUrl="" songAudioFileUrl="" stabilizationMode="0" mediaItemType="2" />
    <MediaItem id="492" filePath="C:\Users\owner\Documents\Work\Ising model\ising_animation\Ising animation (non-zip)\animations\ising_anim0492.png" arWidth="320" arHeight="240" duration="0" songTitle="" songArtist="" songAlbum="" songCopyrightUrl="" songArtistUrl="" songAudioFileUrl="" stabilizationMode="0" mediaItemType="2" />
    <MediaItem id="493" filePath="C:\Users\owner\Documents\Work\Ising model\ising_animation\Ising animation (non-zip)\animations\ising_anim0493.png" arWidth="320" arHeight="240" duration="0" songTitle="" songArtist="" songAlbum="" songCopyrightUrl="" songArtistUrl="" songAudioFileUrl="" stabilizationMode="0" mediaItemType="2" />
    <MediaItem id="494" filePath="C:\Users\owner\Documents\Work\Ising model\ising_animation\Ising animation (non-zip)\animations\ising_anim0494.png" arWidth="320" arHeight="240" duration="0" songTitle="" songArtist="" songAlbum="" songCopyrightUrl="" songArtistUrl="" songAudioFileUrl="" stabilizationMode="0" mediaItemType="2" />
    <MediaItem id="495" filePath="C:\Users\owner\Documents\Work\Ising model\ising_animation\Ising animation (non-zip)\animations\ising_anim0495.png" arWidth="320" arHeight="240" duration="0" songTitle="" songArtist="" songAlbum="" songCopyrightUrl="" songArtistUrl="" songAudioFileUrl="" stabilizationMode="0" mediaItemType="2" />
    <MediaItem id="496" filePath="C:\Users\owner\Documents\Work\Ising model\ising_animation\Ising animation (non-zip)\animations\ising_anim0496.png" arWidth="320" arHeight="240" duration="0" songTitle="" songArtist="" songAlbum="" songCopyrightUrl="" songArtistUrl="" songAudioFileUrl="" stabilizationMode="0" mediaItemType="2" />
    <MediaItem id="497" filePath="C:\Users\owner\Documents\Work\Ising model\ising_animation\Ising animation (non-zip)\animations\ising_anim0497.png" arWidth="320" arHeight="240" duration="0" songTitle="" songArtist="" songAlbum="" songCopyrightUrl="" songArtistUrl="" songAudioFileUrl="" stabilizationMode="0" mediaItemType="2" />
    <MediaItem id="498" filePath="C:\Users\owner\Documents\Work\Ising model\ising_animation\Ising animation (non-zip)\animations\ising_anim0498.png" arWidth="320" arHeight="240" duration="0" songTitle="" songArtist="" songAlbum="" songCopyrightUrl="" songArtistUrl="" songAudioFileUrl="" stabilizationMode="0" mediaItemType="2" />
    <MediaItem id="499" filePath="C:\Users\owner\Documents\Work\Ising model\ising_animation\Ising animation (non-zip)\animations\ising_anim0499.png" arWidth="320" arHeight="240" duration="0" songTitle="" songArtist="" songAlbum="" songCopyrightUrl="" songArtistUrl="" songAudioFileUrl="" stabilizationMode="0" mediaItemType="2" />
    <MediaItem id="500" filePath="C:\Users\owner\Documents\Work\Ising model\ising_animation\Ising animation (non-zip)\animations\ising_anim0500.png" arWidth="320" arHeight="240" duration="0" songTitle="" songArtist="" songAlbum="" songCopyrightUrl="" songArtistUrl="" songAudioFileUrl="" stabilizationMode="0" mediaItemType="2" />
    <MediaItem id="501" filePath="C:\Users\owner\Documents\Work\Ising model\ising_animation\Ising animation (non-zip)\animations\ising_anim0501.png" arWidth="320" arHeight="240" duration="0" songTitle="" songArtist="" songAlbum="" songCopyrightUrl="" songArtistUrl="" songAudioFileUrl="" stabilizationMode="0" mediaItemType="2" />
    <MediaItem id="502" filePath="C:\Users\owner\Documents\Work\Ising model\ising_animation\Ising animation (non-zip)\animations\ising_anim0502.png" arWidth="320" arHeight="240" duration="0" songTitle="" songArtist="" songAlbum="" songCopyrightUrl="" songArtistUrl="" songAudioFileUrl="" stabilizationMode="0" mediaItemType="2" />
    <MediaItem id="503" filePath="C:\Users\owner\Documents\Work\Ising model\ising_animation\Ising animation (non-zip)\animations\ising_anim0503.png" arWidth="320" arHeight="240" duration="0" songTitle="" songArtist="" songAlbum="" songCopyrightUrl="" songArtistUrl="" songAudioFileUrl="" stabilizationMode="0" mediaItemType="2" />
    <MediaItem id="504" filePath="C:\Users\owner\Documents\Work\Ising model\ising_animation\Ising animation (non-zip)\animations\ising_anim0504.png" arWidth="320" arHeight="240" duration="0" songTitle="" songArtist="" songAlbum="" songCopyrightUrl="" songArtistUrl="" songAudioFileUrl="" stabilizationMode="0" mediaItemType="2" />
    <MediaItem id="505" filePath="C:\Users\owner\Documents\Work\Ising model\ising_animation\Ising animation (non-zip)\animations\ising_anim0505.png" arWidth="320" arHeight="240" duration="0" songTitle="" songArtist="" songAlbum="" songCopyrightUrl="" songArtistUrl="" songAudioFileUrl="" stabilizationMode="0" mediaItemType="2" />
    <MediaItem id="506" filePath="C:\Users\owner\Documents\Work\Ising model\ising_animation\Ising animation (non-zip)\animations\ising_anim0506.png" arWidth="320" arHeight="240" duration="0" songTitle="" songArtist="" songAlbum="" songCopyrightUrl="" songArtistUrl="" songAudioFileUrl="" stabilizationMode="0" mediaItemType="2" />
    <MediaItem id="507" filePath="C:\Users\owner\Documents\Work\Ising model\ising_animation\Ising animation (non-zip)\animations\ising_anim0507.png" arWidth="320" arHeight="240" duration="0" songTitle="" songArtist="" songAlbum="" songCopyrightUrl="" songArtistUrl="" songAudioFileUrl="" stabilizationMode="0" mediaItemType="2" />
    <MediaItem id="508" filePath="C:\Users\owner\Documents\Work\Ising model\ising_animation\Ising animation (non-zip)\animations\ising_anim0508.png" arWidth="320" arHeight="240" duration="0" songTitle="" songArtist="" songAlbum="" songCopyrightUrl="" songArtistUrl="" songAudioFileUrl="" stabilizationMode="0" mediaItemType="2" />
    <MediaItem id="509" filePath="C:\Users\owner\Documents\Work\Ising model\ising_animation\Ising animation (non-zip)\animations\ising_anim0509.png" arWidth="320" arHeight="240" duration="0" songTitle="" songArtist="" songAlbum="" songCopyrightUrl="" songArtistUrl="" songAudioFileUrl="" stabilizationMode="0" mediaItemType="2" />
    <MediaItem id="510" filePath="C:\Users\owner\Documents\Work\Ising model\ising_animation\Ising animation (non-zip)\animations\ising_anim0510.png" arWidth="320" arHeight="240" duration="0" songTitle="" songArtist="" songAlbum="" songCopyrightUrl="" songArtistUrl="" songAudioFileUrl="" stabilizationMode="0" mediaItemType="2" />
    <MediaItem id="511" filePath="C:\Users\owner\Documents\Work\Ising model\ising_animation\Ising animation (non-zip)\animations\ising_anim0511.png" arWidth="320" arHeight="240" duration="0" songTitle="" songArtist="" songAlbum="" songCopyrightUrl="" songArtistUrl="" songAudioFileUrl="" stabilizationMode="0" mediaItemType="2" />
    <MediaItem id="512" filePath="C:\Users\owner\Documents\Work\Ising model\ising_animation\Ising animation (non-zip)\animations\ising_anim0512.png" arWidth="320" arHeight="240" duration="0" songTitle="" songArtist="" songAlbum="" songCopyrightUrl="" songArtistUrl="" songAudioFileUrl="" stabilizationMode="0" mediaItemType="2" />
    <MediaItem id="513" filePath="C:\Users\owner\Documents\Work\Ising model\ising_animation\Ising animation (non-zip)\animations\ising_anim0513.png" arWidth="320" arHeight="240" duration="0" songTitle="" songArtist="" songAlbum="" songCopyrightUrl="" songArtistUrl="" songAudioFileUrl="" stabilizationMode="0" mediaItemType="2" />
    <MediaItem id="514" filePath="C:\Users\owner\Documents\Work\Ising model\ising_animation\Ising animation (non-zip)\animations\ising_anim0514.png" arWidth="320" arHeight="240" duration="0" songTitle="" songArtist="" songAlbum="" songCopyrightUrl="" songArtistUrl="" songAudioFileUrl="" stabilizationMode="0" mediaItemType="2" />
    <MediaItem id="515" filePath="C:\Users\owner\Documents\Work\Ising model\ising_animation\Ising animation (non-zip)\animations\ising_anim0515.png" arWidth="320" arHeight="240" duration="0" songTitle="" songArtist="" songAlbum="" songCopyrightUrl="" songArtistUrl="" songAudioFileUrl="" stabilizationMode="0" mediaItemType="2" />
    <MediaItem id="516" filePath="C:\Users\owner\Documents\Work\Ising model\ising_animation\Ising animation (non-zip)\animations\ising_anim0516.png" arWidth="320" arHeight="240" duration="0" songTitle="" songArtist="" songAlbum="" songCopyrightUrl="" songArtistUrl="" songAudioFileUrl="" stabilizationMode="0" mediaItemType="2" />
    <MediaItem id="517" filePath="C:\Users\owner\Documents\Work\Ising model\ising_animation\Ising animation (non-zip)\animations\ising_anim0517.png" arWidth="320" arHeight="240" duration="0" songTitle="" songArtist="" songAlbum="" songCopyrightUrl="" songArtistUrl="" songAudioFileUrl="" stabilizationMode="0" mediaItemType="2" />
    <MediaItem id="518" filePath="C:\Users\owner\Documents\Work\Ising model\ising_animation\Ising animation (non-zip)\animations\ising_anim0518.png" arWidth="320" arHeight="240" duration="0" songTitle="" songArtist="" songAlbum="" songCopyrightUrl="" songArtistUrl="" songAudioFileUrl="" stabilizationMode="0" mediaItemType="2" />
    <MediaItem id="519" filePath="C:\Users\owner\Documents\Work\Ising model\ising_animation\Ising animation (non-zip)\animations\ising_anim0519.png" arWidth="320" arHeight="240" duration="0" songTitle="" songArtist="" songAlbum="" songCopyrightUrl="" songArtistUrl="" songAudioFileUrl="" stabilizationMode="0" mediaItemType="2" />
    <MediaItem id="520" filePath="C:\Users\owner\Documents\Work\Ising model\ising_animation\Ising animation (non-zip)\animations\ising_anim0520.png" arWidth="320" arHeight="240" duration="0" songTitle="" songArtist="" songAlbum="" songCopyrightUrl="" songArtistUrl="" songAudioFileUrl="" stabilizationMode="0" mediaItemType="2" />
  </MediaItems>
  <Extents>
    <ImageClip extentID="521" gapBefore="0" mediaItemID="517" duration="0.10000000000000001">
      <Effects />
      <Transitions />
      <BoundProperties>
        <BoundPropertyInt Name="rotateStepNinety" Value="0" />
      </BoundProperties>
    </ImageClip>
    <ImageClip extentID="522" gapBefore="0" mediaItemID="518" duration="0.10000000000000001">
      <Effects />
      <Transitions />
      <BoundProperties>
        <BoundPropertyInt Name="rotateStepNinety" Value="0" />
      </BoundProperties>
    </ImageClip>
    <ImageClip extentID="523" gapBefore="0" mediaItemID="519" duration="0.10000000000000001">
      <Effects />
      <Transitions />
      <BoundProperties>
        <BoundPropertyInt Name="rotateStepNinety" Value="0" />
      </BoundProperties>
    </ImageClip>
    <ImageClip extentID="524" gapBefore="0" mediaItemID="520" duration="0.10000000000000001">
      <Effects />
      <Transitions />
      <BoundProperties>
        <BoundPropertyInt Name="rotateStepNinety" Value="0" />
      </BoundProperties>
    </ImageClip>
    <ImageClip extentID="525" gapBefore="0" mediaItemID="521" duration="0.10000000000000001">
      <Effects />
      <Transitions />
      <BoundProperties>
        <BoundPropertyInt Name="rotateStepNinety" Value="0" />
      </BoundProperties>
    </ImageClip>
    <ImageClip extentID="526" gapBefore="0" mediaItemID="522" duration="0.10000000000000001">
      <Effects />
      <Transitions />
      <BoundProperties>
        <BoundPropertyInt Name="rotateStepNinety" Value="0" />
      </BoundProperties>
    </ImageClip>
    <ImageClip extentID="5" gapBefore="0" mediaItemID="1" duration="0.10000000000000001">
      <Effects />
      <Transitions />
      <BoundProperties>
        <BoundPropertyInt Name="rotateStepNinety" Value="0" />
      </BoundProperties>
    </ImageClip>
    <ImageClip extentID="527" gapBefore="0" mediaItemID="523" duration="0.10000000000000001">
      <Effects />
      <Transitions />
      <BoundProperties>
        <BoundPropertyInt Name="rotateStepNinety" Value="0" />
      </BoundProperties>
    </ImageClip>
    <ImageClip extentID="6" gapBefore="0" mediaItemID="2" duration="0.10000000000000001">
      <Effects />
      <Transitions />
      <BoundProperties>
        <BoundPropertyInt Name="rotateStepNinety" Value="0" />
      </BoundProperties>
    </ImageClip>
    <ImageClip extentID="528" gapBefore="0" mediaItemID="524" duration="0.10000000000000001">
      <Effects />
      <Transitions />
      <BoundProperties>
        <BoundPropertyInt Name="rotateStepNinety" Value="0" />
      </BoundProperties>
    </ImageClip>
    <ImageClip extentID="7" gapBefore="0" mediaItemID="3" duration="0.10000000000000001">
      <Effects />
      <Transitions />
      <BoundProperties>
        <BoundPropertyInt Name="rotateStepNinety" Value="0" />
      </BoundProperties>
    </ImageClip>
    <ImageClip extentID="529" gapBefore="0" mediaItemID="525" duration="0.10000000000000001">
      <Effects />
      <Transitions />
      <BoundProperties>
        <BoundPropertyInt Name="rotateStepNinety" Value="0" />
      </BoundProperties>
    </ImageClip>
    <ImageClip extentID="8" gapBefore="0" mediaItemID="4" duration="0.10000000000000001">
      <Effects />
      <Transitions />
      <BoundProperties>
        <BoundPropertyInt Name="rotateStepNinety" Value="0" />
      </BoundProperties>
    </ImageClip>
    <ImageClip extentID="530" gapBefore="0" mediaItemID="526" duration="0.10000000000000001">
      <Effects />
      <Transitions />
      <BoundProperties>
        <BoundPropertyInt Name="rotateStepNinety" Value="0" />
      </BoundProperties>
    </ImageClip>
    <ImageClip extentID="9" gapBefore="0" mediaItemID="5" duration="0.10000000000000001">
      <Effects />
      <Transitions />
      <BoundProperties>
        <BoundPropertyInt Name="rotateStepNinety" Value="0" />
      </BoundProperties>
    </ImageClip>
    <ImageClip extentID="531" gapBefore="0" mediaItemID="527" duration="0.10000000000000001">
      <Effects />
      <Transitions />
      <BoundProperties>
        <BoundPropertyInt Name="rotateStepNinety" Value="0" />
      </BoundProperties>
    </ImageClip>
    <ImageClip extentID="10" gapBefore="0" mediaItemID="6" duration="0.10000000000000001">
      <Effects />
      <Transitions />
      <BoundProperties>
        <BoundPropertyInt Name="rotateStepNinety" Value="0" />
      </BoundProperties>
    </ImageClip>
    <ImageClip extentID="532" gapBefore="0" mediaItemID="528" duration="0.10000000000000001">
      <Effects />
      <Transitions />
      <BoundProperties>
        <BoundPropertyInt Name="rotateStepNinety" Value="0" />
      </BoundProperties>
    </ImageClip>
    <ImageClip extentID="11" gapBefore="0" mediaItemID="7" duration="0.10000000000000001">
      <Effects />
      <Transitions />
      <BoundProperties>
        <BoundPropertyInt Name="rotateStepNinety" Value="0" />
      </BoundProperties>
    </ImageClip>
    <ImageClip extentID="533" gapBefore="0" mediaItemID="529" duration="0.10000000000000001">
      <Effects />
      <Transitions />
      <BoundProperties>
        <BoundPropertyInt Name="rotateStepNinety" Value="0" />
      </BoundProperties>
    </ImageClip>
    <ImageClip extentID="12" gapBefore="0" mediaItemID="8" duration="0.10000000000000001">
      <Effects />
      <Transitions />
      <BoundProperties>
        <BoundPropertyInt Name="rotateStepNinety" Value="0" />
      </BoundProperties>
    </ImageClip>
    <ImageClip extentID="534" gapBefore="0" mediaItemID="530" duration="0.10000000000000001">
      <Effects />
      <Transitions />
      <BoundProperties>
        <BoundPropertyInt Name="rotateStepNinety" Value="0" />
      </BoundProperties>
    </ImageClip>
    <ImageClip extentID="13" gapBefore="0" mediaItemID="9" duration="0.10000000000000001">
      <Effects />
      <Transitions />
      <BoundProperties>
        <BoundPropertyInt Name="rotateStepNinety" Value="0" />
      </BoundProperties>
    </ImageClip>
    <ImageClip extentID="535" gapBefore="0" mediaItemID="531" duration="0.10000000000000001">
      <Effects />
      <Transitions />
      <BoundProperties>
        <BoundPropertyInt Name="rotateStepNinety" Value="0" />
      </BoundProperties>
    </ImageClip>
    <ImageClip extentID="14" gapBefore="0" mediaItemID="10" duration="0.10000000000000001">
      <Effects />
      <Transitions />
      <BoundProperties>
        <BoundPropertyInt Name="rotateStepNinety" Value="0" />
      </BoundProperties>
    </ImageClip>
    <ImageClip extentID="536" gapBefore="0" mediaItemID="532" duration="0.10000000000000001">
      <Effects />
      <Transitions />
      <BoundProperties>
        <BoundPropertyInt Name="rotateStepNinety" Value="0" />
      </BoundProperties>
    </ImageClip>
    <ImageClip extentID="15" gapBefore="0" mediaItemID="11" duration="0.10000000000000001">
      <Effects />
      <Transitions />
      <BoundProperties>
        <BoundPropertyInt Name="rotateStepNinety" Value="0" />
      </BoundProperties>
    </ImageClip>
    <ImageClip extentID="537" gapBefore="0" mediaItemID="533" duration="0.10000000000000001">
      <Effects />
      <Transitions />
      <BoundProperties>
        <BoundPropertyInt Name="rotateStepNinety" Value="0" />
      </BoundProperties>
    </ImageClip>
    <ImageClip extentID="16" gapBefore="0" mediaItemID="12" duration="0.10000000000000001">
      <Effects />
      <Transitions />
      <BoundProperties>
        <BoundPropertyInt Name="rotateStepNinety" Value="0" />
      </BoundProperties>
    </ImageClip>
    <ImageClip extentID="538" gapBefore="0" mediaItemID="534" duration="0.10000000000000001">
      <Effects />
      <Transitions />
      <BoundProperties>
        <BoundPropertyInt Name="rotateStepNinety" Value="0" />
      </BoundProperties>
    </ImageClip>
    <ImageClip extentID="17" gapBefore="0" mediaItemID="13" duration="0.10000000000000001">
      <Effects />
      <Transitions />
      <BoundProperties>
        <BoundPropertyInt Name="rotateStepNinety" Value="0" />
      </BoundProperties>
    </ImageClip>
    <ImageClip extentID="539" gapBefore="0" mediaItemID="535" duration="0.10000000000000001">
      <Effects />
      <Transitions />
      <BoundProperties>
        <BoundPropertyInt Name="rotateStepNinety" Value="0" />
      </BoundProperties>
    </ImageClip>
    <ImageClip extentID="18" gapBefore="0" mediaItemID="14" duration="0.10000000000000001">
      <Effects />
      <Transitions />
      <BoundProperties>
        <BoundPropertyInt Name="rotateStepNinety" Value="0" />
      </BoundProperties>
    </ImageClip>
    <ImageClip extentID="540" gapBefore="0" mediaItemID="536" duration="0.10000000000000001">
      <Effects />
      <Transitions />
      <BoundProperties>
        <BoundPropertyInt Name="rotateStepNinety" Value="0" />
      </BoundProperties>
    </ImageClip>
    <ImageClip extentID="19" gapBefore="0" mediaItemID="15" duration="0.10000000000000001">
      <Effects />
      <Transitions />
      <BoundProperties>
        <BoundPropertyInt Name="rotateStepNinety" Value="0" />
      </BoundProperties>
    </ImageClip>
    <ImageClip extentID="541" gapBefore="0" mediaItemID="537" duration="0.10000000000000001">
      <Effects />
      <Transitions />
      <BoundProperties>
        <BoundPropertyInt Name="rotateStepNinety" Value="0" />
      </BoundProperties>
    </ImageClip>
    <ImageClip extentID="20" gapBefore="0" mediaItemID="16" duration="0.10000000000000001">
      <Effects />
      <Transitions />
      <BoundProperties>
        <BoundPropertyInt Name="rotateStepNinety" Value="0" />
      </BoundProperties>
    </ImageClip>
    <ImageClip extentID="542" gapBefore="0" mediaItemID="538" duration="0.10000000000000001">
      <Effects />
      <Transitions />
      <BoundProperties>
        <BoundPropertyInt Name="rotateStepNinety" Value="0" />
      </BoundProperties>
    </ImageClip>
    <ImageClip extentID="21" gapBefore="0" mediaItemID="17" duration="0.10000000000000001">
      <Effects />
      <Transitions />
      <BoundProperties>
        <BoundPropertyInt Name="rotateStepNinety" Value="0" />
      </BoundProperties>
    </ImageClip>
    <ImageClip extentID="543" gapBefore="0" mediaItemID="539" duration="0.10000000000000001">
      <Effects />
      <Transitions />
      <BoundProperties>
        <BoundPropertyInt Name="rotateStepNinety" Value="0" />
      </BoundProperties>
    </ImageClip>
    <ImageClip extentID="22" gapBefore="0" mediaItemID="18" duration="0.10000000000000001">
      <Effects />
      <Transitions />
      <BoundProperties>
        <BoundPropertyInt Name="rotateStepNinety" Value="0" />
      </BoundProperties>
    </ImageClip>
    <ImageClip extentID="544" gapBefore="0" mediaItemID="540" duration="0.10000000000000001">
      <Effects />
      <Transitions />
      <BoundProperties>
        <BoundPropertyInt Name="rotateStepNinety" Value="0" />
      </BoundProperties>
    </ImageClip>
    <ImageClip extentID="23" gapBefore="0" mediaItemID="19" duration="0.10000000000000001">
      <Effects />
      <Transitions />
      <BoundProperties>
        <BoundPropertyInt Name="rotateStepNinety" Value="0" />
      </BoundProperties>
    </ImageClip>
    <ImageClip extentID="545" gapBefore="0" mediaItemID="541" duration="0.10000000000000001">
      <Effects />
      <Transitions />
      <BoundProperties>
        <BoundPropertyInt Name="rotateStepNinety" Value="0" />
      </BoundProperties>
    </ImageClip>
    <ImageClip extentID="24" gapBefore="0" mediaItemID="20" duration="0.10000000000000001">
      <Effects />
      <Transitions />
      <BoundProperties>
        <BoundPropertyInt Name="rotateStepNinety" Value="0" />
      </BoundProperties>
    </ImageClip>
    <ImageClip extentID="546" gapBefore="0" mediaItemID="542" duration="0.10000000000000001">
      <Effects />
      <Transitions />
      <BoundProperties>
        <BoundPropertyInt Name="rotateStepNinety" Value="0" />
      </BoundProperties>
    </ImageClip>
    <ImageClip extentID="25" gapBefore="0" mediaItemID="21" duration="0.10000000000000001">
      <Effects />
      <Transitions />
      <BoundProperties>
        <BoundPropertyInt Name="rotateStepNinety" Value="0" />
      </BoundProperties>
    </ImageClip>
    <ImageClip extentID="547" gapBefore="0" mediaItemID="543" duration="0.10000000000000001">
      <Effects />
      <Transitions />
      <BoundProperties>
        <BoundPropertyInt Name="rotateStepNinety" Value="0" />
      </BoundProperties>
    </ImageClip>
    <ImageClip extentID="26" gapBefore="0" mediaItemID="22" duration="0.10000000000000001">
      <Effects />
      <Transitions />
      <BoundProperties>
        <BoundPropertyInt Name="rotateStepNinety" Value="0" />
      </BoundProperties>
    </ImageClip>
    <ImageClip extentID="548" gapBefore="0" mediaItemID="544" duration="0.10000000000000001">
      <Effects />
      <Transitions />
      <BoundProperties>
        <BoundPropertyInt Name="rotateStepNinety" Value="0" />
      </BoundProperties>
    </ImageClip>
    <ImageClip extentID="27" gapBefore="0" mediaItemID="23" duration="0.10000000000000001">
      <Effects />
      <Transitions />
      <BoundProperties>
        <BoundPropertyInt Name="rotateStepNinety" Value="0" />
      </BoundProperties>
    </ImageClip>
    <ImageClip extentID="549" gapBefore="0" mediaItemID="545" duration="0.10000000000000001">
      <Effects />
      <Transitions />
      <BoundProperties>
        <BoundPropertyInt Name="rotateStepNinety" Value="0" />
      </BoundProperties>
    </ImageClip>
    <ImageClip extentID="28" gapBefore="0" mediaItemID="24" duration="0.10000000000000001">
      <Effects />
      <Transitions />
      <BoundProperties>
        <BoundPropertyInt Name="rotateStepNinety" Value="0" />
      </BoundProperties>
    </ImageClip>
    <ImageClip extentID="550" gapBefore="0" mediaItemID="546" duration="0.10000000000000001">
      <Effects />
      <Transitions />
      <BoundProperties>
        <BoundPropertyInt Name="rotateStepNinety" Value="0" />
      </BoundProperties>
    </ImageClip>
    <ImageClip extentID="29" gapBefore="0" mediaItemID="25" duration="0.10000000000000001">
      <Effects />
      <Transitions />
      <BoundProperties>
        <BoundPropertyInt Name="rotateStepNinety" Value="0" />
      </BoundProperties>
    </ImageClip>
    <ImageClip extentID="551" gapBefore="0" mediaItemID="547" duration="0.10000000000000001">
      <Effects />
      <Transitions />
      <BoundProperties>
        <BoundPropertyInt Name="rotateStepNinety" Value="0" />
      </BoundProperties>
    </ImageClip>
    <ImageClip extentID="30" gapBefore="0" mediaItemID="26" duration="0.10000000000000001">
      <Effects />
      <Transitions />
      <BoundProperties>
        <BoundPropertyInt Name="rotateStepNinety" Value="0" />
      </BoundProperties>
    </ImageClip>
    <ImageClip extentID="552" gapBefore="0" mediaItemID="548" duration="0.10000000000000001">
      <Effects />
      <Transitions />
      <BoundProperties>
        <BoundPropertyInt Name="rotateStepNinety" Value="0" />
      </BoundProperties>
    </ImageClip>
    <ImageClip extentID="31" gapBefore="0" mediaItemID="27" duration="0.10000000000000001">
      <Effects />
      <Transitions />
      <BoundProperties>
        <BoundPropertyInt Name="rotateStepNinety" Value="0" />
      </BoundProperties>
    </ImageClip>
    <ImageClip extentID="553" gapBefore="0" mediaItemID="549" duration="0.10000000000000001">
      <Effects />
      <Transitions />
      <BoundProperties>
        <BoundPropertyInt Name="rotateStepNinety" Value="0" />
      </BoundProperties>
    </ImageClip>
    <ImageClip extentID="32" gapBefore="0" mediaItemID="28" duration="0.10000000000000001">
      <Effects />
      <Transitions />
      <BoundProperties>
        <BoundPropertyInt Name="rotateStepNinety" Value="0" />
      </BoundProperties>
    </ImageClip>
    <ImageClip extentID="554" gapBefore="0" mediaItemID="550" duration="0.10000000000000001">
      <Effects />
      <Transitions />
      <BoundProperties>
        <BoundPropertyInt Name="rotateStepNinety" Value="0" />
      </BoundProperties>
    </ImageClip>
    <ImageClip extentID="33" gapBefore="0" mediaItemID="29" duration="0.10000000000000001">
      <Effects />
      <Transitions />
      <BoundProperties>
        <BoundPropertyInt Name="rotateStepNinety" Value="0" />
      </BoundProperties>
    </ImageClip>
    <ImageClip extentID="555" gapBefore="0" mediaItemID="551" duration="0.10000000000000001">
      <Effects />
      <Transitions />
      <BoundProperties>
        <BoundPropertyInt Name="rotateStepNinety" Value="0" />
      </BoundProperties>
    </ImageClip>
    <ImageClip extentID="34" gapBefore="0" mediaItemID="30" duration="0.10000000000000001">
      <Effects />
      <Transitions />
      <BoundProperties>
        <BoundPropertyInt Name="rotateStepNinety" Value="0" />
      </BoundProperties>
    </ImageClip>
    <ImageClip extentID="556" gapBefore="0" mediaItemID="552" duration="0.10000000000000001">
      <Effects />
      <Transitions />
      <BoundProperties>
        <BoundPropertyInt Name="rotateStepNinety" Value="0" />
      </BoundProperties>
    </ImageClip>
    <ImageClip extentID="35" gapBefore="0" mediaItemID="31" duration="0.10000000000000001">
      <Effects />
      <Transitions />
      <BoundProperties>
        <BoundPropertyInt Name="rotateStepNinety" Value="0" />
      </BoundProperties>
    </ImageClip>
    <ImageClip extentID="557" gapBefore="0" mediaItemID="553" duration="0.10000000000000001">
      <Effects />
      <Transitions />
      <BoundProperties>
        <BoundPropertyInt Name="rotateStepNinety" Value="0" />
      </BoundProperties>
    </ImageClip>
    <ImageClip extentID="36" gapBefore="0" mediaItemID="32" duration="0.10000000000000001">
      <Effects />
      <Transitions />
      <BoundProperties>
        <BoundPropertyInt Name="rotateStepNinety" Value="0" />
      </BoundProperties>
    </ImageClip>
    <ImageClip extentID="558" gapBefore="0" mediaItemID="554" duration="0.10000000000000001">
      <Effects />
      <Transitions />
      <BoundProperties>
        <BoundPropertyInt Name="rotateStepNinety" Value="0" />
      </BoundProperties>
    </ImageClip>
    <ImageClip extentID="37" gapBefore="0" mediaItemID="33" duration="0.10000000000000001">
      <Effects />
      <Transitions />
      <BoundProperties>
        <BoundPropertyInt Name="rotateStepNinety" Value="0" />
      </BoundProperties>
    </ImageClip>
    <ImageClip extentID="559" gapBefore="0" mediaItemID="555" duration="0.10000000000000001">
      <Effects />
      <Transitions />
      <BoundProperties>
        <BoundPropertyInt Name="rotateStepNinety" Value="0" />
      </BoundProperties>
    </ImageClip>
    <ImageClip extentID="38" gapBefore="0" mediaItemID="34" duration="0.10000000000000001">
      <Effects />
      <Transitions />
      <BoundProperties>
        <BoundPropertyInt Name="rotateStepNinety" Value="0" />
      </BoundProperties>
    </ImageClip>
    <ImageClip extentID="560" gapBefore="0" mediaItemID="556" duration="0.10000000000000001">
      <Effects />
      <Transitions />
      <BoundProperties>
        <BoundPropertyInt Name="rotateStepNinety" Value="0" />
      </BoundProperties>
    </ImageClip>
    <ImageClip extentID="39" gapBefore="0" mediaItemID="35" duration="0.10000000000000001">
      <Effects />
      <Transitions />
      <BoundProperties>
        <BoundPropertyInt Name="rotateStepNinety" Value="0" />
      </BoundProperties>
    </ImageClip>
    <ImageClip extentID="561" gapBefore="0" mediaItemID="557" duration="0.10000000000000001">
      <Effects />
      <Transitions />
      <BoundProperties>
        <BoundPropertyInt Name="rotateStepNinety" Value="0" />
      </BoundProperties>
    </ImageClip>
    <ImageClip extentID="40" gapBefore="0" mediaItemID="36" duration="0.10000000000000001">
      <Effects />
      <Transitions />
      <BoundProperties>
        <BoundPropertyInt Name="rotateStepNinety" Value="0" />
      </BoundProperties>
    </ImageClip>
    <ImageClip extentID="562" gapBefore="0" mediaItemID="558" duration="0.10000000000000001">
      <Effects />
      <Transitions />
      <BoundProperties>
        <BoundPropertyInt Name="rotateStepNinety" Value="0" />
      </BoundProperties>
    </ImageClip>
    <ImageClip extentID="41" gapBefore="0" mediaItemID="37" duration="0.10000000000000001">
      <Effects />
      <Transitions />
      <BoundProperties>
        <BoundPropertyInt Name="rotateStepNinety" Value="0" />
      </BoundProperties>
    </ImageClip>
    <ImageClip extentID="563" gapBefore="0" mediaItemID="559" duration="0.10000000000000001">
      <Effects />
      <Transitions />
      <BoundProperties>
        <BoundPropertyInt Name="rotateStepNinety" Value="0" />
      </BoundProperties>
    </ImageClip>
    <ImageClip extentID="42" gapBefore="0" mediaItemID="38" duration="0.10000000000000001">
      <Effects />
      <Transitions />
      <BoundProperties>
        <BoundPropertyInt Name="rotateStepNinety" Value="0" />
      </BoundProperties>
    </ImageClip>
    <ImageClip extentID="564" gapBefore="0" mediaItemID="560" duration="0.10000000000000001">
      <Effects />
      <Transitions />
      <BoundProperties>
        <BoundPropertyInt Name="rotateStepNinety" Value="0" />
      </BoundProperties>
    </ImageClip>
    <ImageClip extentID="43" gapBefore="0" mediaItemID="39" duration="0.10000000000000001">
      <Effects />
      <Transitions />
      <BoundProperties>
        <BoundPropertyInt Name="rotateStepNinety" Value="0" />
      </BoundProperties>
    </ImageClip>
    <ImageClip extentID="565" gapBefore="0" mediaItemID="561" duration="0.10000000000000001">
      <Effects />
      <Transitions />
      <BoundProperties>
        <BoundPropertyInt Name="rotateStepNinety" Value="0" />
      </BoundProperties>
    </ImageClip>
    <ImageClip extentID="44" gapBefore="0" mediaItemID="40" duration="0.10000000000000001">
      <Effects />
      <Transitions />
      <BoundProperties>
        <BoundPropertyInt Name="rotateStepNinety" Value="0" />
      </BoundProperties>
    </ImageClip>
    <ImageClip extentID="566" gapBefore="0" mediaItemID="562" duration="0.10000000000000001">
      <Effects />
      <Transitions />
      <BoundProperties>
        <BoundPropertyInt Name="rotateStepNinety" Value="0" />
      </BoundProperties>
    </ImageClip>
    <ImageClip extentID="45" gapBefore="0" mediaItemID="41" duration="0.10000000000000001">
      <Effects />
      <Transitions />
      <BoundProperties>
        <BoundPropertyInt Name="rotateStepNinety" Value="0" />
      </BoundProperties>
    </ImageClip>
    <ImageClip extentID="567" gapBefore="0" mediaItemID="563" duration="0.10000000000000001">
      <Effects />
      <Transitions />
      <BoundProperties>
        <BoundPropertyInt Name="rotateStepNinety" Value="0" />
      </BoundProperties>
    </ImageClip>
    <ImageClip extentID="46" gapBefore="0" mediaItemID="42" duration="0.10000000000000001">
      <Effects />
      <Transitions />
      <BoundProperties>
        <BoundPropertyInt Name="rotateStepNinety" Value="0" />
      </BoundProperties>
    </ImageClip>
    <ImageClip extentID="568" gapBefore="0" mediaItemID="564" duration="0.10000000000000001">
      <Effects />
      <Transitions />
      <BoundProperties>
        <BoundPropertyInt Name="rotateStepNinety" Value="0" />
      </BoundProperties>
    </ImageClip>
    <ImageClip extentID="47" gapBefore="0" mediaItemID="43" duration="0.10000000000000001">
      <Effects />
      <Transitions />
      <BoundProperties>
        <BoundPropertyInt Name="rotateStepNinety" Value="0" />
      </BoundProperties>
    </ImageClip>
    <ImageClip extentID="569" gapBefore="0" mediaItemID="565" duration="0.10000000000000001">
      <Effects />
      <Transitions />
      <BoundProperties>
        <BoundPropertyInt Name="rotateStepNinety" Value="0" />
      </BoundProperties>
    </ImageClip>
    <ImageClip extentID="48" gapBefore="0" mediaItemID="44" duration="0.10000000000000001">
      <Effects />
      <Transitions />
      <BoundProperties>
        <BoundPropertyInt Name="rotateStepNinety" Value="0" />
      </BoundProperties>
    </ImageClip>
    <ImageClip extentID="570" gapBefore="0" mediaItemID="566" duration="0.10000000000000001">
      <Effects />
      <Transitions />
      <BoundProperties>
        <BoundPropertyInt Name="rotateStepNinety" Value="0" />
      </BoundProperties>
    </ImageClip>
    <ImageClip extentID="49" gapBefore="0" mediaItemID="45" duration="0.10000000000000001">
      <Effects />
      <Transitions />
      <BoundProperties>
        <BoundPropertyInt Name="rotateStepNinety" Value="0" />
      </BoundProperties>
    </ImageClip>
    <ImageClip extentID="571" gapBefore="0" mediaItemID="567" duration="0.10000000000000001">
      <Effects />
      <Transitions />
      <BoundProperties>
        <BoundPropertyInt Name="rotateStepNinety" Value="0" />
      </BoundProperties>
    </ImageClip>
    <ImageClip extentID="50" gapBefore="0" mediaItemID="46" duration="0.10000000000000001">
      <Effects />
      <Transitions />
      <BoundProperties>
        <BoundPropertyInt Name="rotateStepNinety" Value="0" />
      </BoundProperties>
    </ImageClip>
    <ImageClip extentID="572" gapBefore="0" mediaItemID="568" duration="0.10000000000000001">
      <Effects />
      <Transitions />
      <BoundProperties>
        <BoundPropertyInt Name="rotateStepNinety" Value="0" />
      </BoundProperties>
    </ImageClip>
    <ImageClip extentID="51" gapBefore="0" mediaItemID="47" duration="0.10000000000000001">
      <Effects />
      <Transitions />
      <BoundProperties>
        <BoundPropertyInt Name="rotateStepNinety" Value="0" />
      </BoundProperties>
    </ImageClip>
    <ImageClip extentID="573" gapBefore="0" mediaItemID="569" duration="0.10000000000000001">
      <Effects />
      <Transitions />
      <BoundProperties>
        <BoundPropertyInt Name="rotateStepNinety" Value="0" />
      </BoundProperties>
    </ImageClip>
    <ImageClip extentID="52" gapBefore="0" mediaItemID="48" duration="0.10000000000000001">
      <Effects />
      <Transitions />
      <BoundProperties>
        <BoundPropertyInt Name="rotateStepNinety" Value="0" />
      </BoundProperties>
    </ImageClip>
    <ImageClip extentID="574" gapBefore="0" mediaItemID="570" duration="0.10000000000000001">
      <Effects />
      <Transitions />
      <BoundProperties>
        <BoundPropertyInt Name="rotateStepNinety" Value="0" />
      </BoundProperties>
    </ImageClip>
    <ImageClip extentID="53" gapBefore="0" mediaItemID="49" duration="0.10000000000000001">
      <Effects />
      <Transitions />
      <BoundProperties>
        <BoundPropertyInt Name="rotateStepNinety" Value="0" />
      </BoundProperties>
    </ImageClip>
    <ImageClip extentID="575" gapBefore="0" mediaItemID="571" duration="0.10000000000000001">
      <Effects />
      <Transitions />
      <BoundProperties>
        <BoundPropertyInt Name="rotateStepNinety" Value="0" />
      </BoundProperties>
    </ImageClip>
    <ImageClip extentID="54" gapBefore="0" mediaItemID="50" duration="0.10000000000000001">
      <Effects />
      <Transitions />
      <BoundProperties>
        <BoundPropertyInt Name="rotateStepNinety" Value="0" />
      </BoundProperties>
    </ImageClip>
    <ImageClip extentID="576" gapBefore="0" mediaItemID="572" duration="0.10000000000000001">
      <Effects />
      <Transitions />
      <BoundProperties>
        <BoundPropertyInt Name="rotateStepNinety" Value="0" />
      </BoundProperties>
    </ImageClip>
    <ImageClip extentID="55" gapBefore="0" mediaItemID="51" duration="0.10000000000000001">
      <Effects />
      <Transitions />
      <BoundProperties>
        <BoundPropertyInt Name="rotateStepNinety" Value="0" />
      </BoundProperties>
    </ImageClip>
    <ImageClip extentID="577" gapBefore="0" mediaItemID="573" duration="0.10000000000000001">
      <Effects />
      <Transitions />
      <BoundProperties>
        <BoundPropertyInt Name="rotateStepNinety" Value="0" />
      </BoundProperties>
    </ImageClip>
    <ImageClip extentID="56" gapBefore="0" mediaItemID="52" duration="0.10000000000000001">
      <Effects />
      <Transitions />
      <BoundProperties>
        <BoundPropertyInt Name="rotateStepNinety" Value="0" />
      </BoundProperties>
    </ImageClip>
    <ImageClip extentID="578" gapBefore="0" mediaItemID="574" duration="0.10000000000000001">
      <Effects />
      <Transitions />
      <BoundProperties>
        <BoundPropertyInt Name="rotateStepNinety" Value="0" />
      </BoundProperties>
    </ImageClip>
    <ImageClip extentID="57" gapBefore="0" mediaItemID="53" duration="0.10000000000000001">
      <Effects />
      <Transitions />
      <BoundProperties>
        <BoundPropertyInt Name="rotateStepNinety" Value="0" />
      </BoundProperties>
    </ImageClip>
    <ImageClip extentID="579" gapBefore="0" mediaItemID="575" duration="0.10000000000000001">
      <Effects />
      <Transitions />
      <BoundProperties>
        <BoundPropertyInt Name="rotateStepNinety" Value="0" />
      </BoundProperties>
    </ImageClip>
    <ImageClip extentID="58" gapBefore="0" mediaItemID="54" duration="0.10000000000000001">
      <Effects />
      <Transitions />
      <BoundProperties>
        <BoundPropertyInt Name="rotateStepNinety" Value="0" />
      </BoundProperties>
    </ImageClip>
    <ImageClip extentID="580" gapBefore="0" mediaItemID="576" duration="0.10000000000000001">
      <Effects />
      <Transitions />
      <BoundProperties>
        <BoundPropertyInt Name="rotateStepNinety" Value="0" />
      </BoundProperties>
    </ImageClip>
    <ImageClip extentID="59" gapBefore="0" mediaItemID="55" duration="0.10000000000000001">
      <Effects />
      <Transitions />
      <BoundProperties>
        <BoundPropertyInt Name="rotateStepNinety" Value="0" />
      </BoundProperties>
    </ImageClip>
    <ImageClip extentID="581" gapBefore="0" mediaItemID="577" duration="0.10000000000000001">
      <Effects />
      <Transitions />
      <BoundProperties>
        <BoundPropertyInt Name="rotateStepNinety" Value="0" />
      </BoundProperties>
    </ImageClip>
    <ImageClip extentID="60" gapBefore="0" mediaItemID="56" duration="0.10000000000000001">
      <Effects />
      <Transitions />
      <BoundProperties>
        <BoundPropertyInt Name="rotateStepNinety" Value="0" />
      </BoundProperties>
    </ImageClip>
    <ImageClip extentID="582" gapBefore="0" mediaItemID="578" duration="0.10000000000000001">
      <Effects />
      <Transitions />
      <BoundProperties>
        <BoundPropertyInt Name="rotateStepNinety" Value="0" />
      </BoundProperties>
    </ImageClip>
    <ImageClip extentID="61" gapBefore="0" mediaItemID="57" duration="0.10000000000000001">
      <Effects />
      <Transitions />
      <BoundProperties>
        <BoundPropertyInt Name="rotateStepNinety" Value="0" />
      </BoundProperties>
    </ImageClip>
    <ImageClip extentID="583" gapBefore="0" mediaItemID="579" duration="0.10000000000000001">
      <Effects />
      <Transitions />
      <BoundProperties>
        <BoundPropertyInt Name="rotateStepNinety" Value="0" />
      </BoundProperties>
    </ImageClip>
    <ImageClip extentID="62" gapBefore="0" mediaItemID="58" duration="0.10000000000000001">
      <Effects />
      <Transitions />
      <BoundProperties>
        <BoundPropertyInt Name="rotateStepNinety" Value="0" />
      </BoundProperties>
    </ImageClip>
    <ImageClip extentID="584" gapBefore="0" mediaItemID="580" duration="0.10000000000000001">
      <Effects />
      <Transitions />
      <BoundProperties>
        <BoundPropertyInt Name="rotateStepNinety" Value="0" />
      </BoundProperties>
    </ImageClip>
    <ImageClip extentID="63" gapBefore="0" mediaItemID="59" duration="0.10000000000000001">
      <Effects />
      <Transitions />
      <BoundProperties>
        <BoundPropertyInt Name="rotateStepNinety" Value="0" />
      </BoundProperties>
    </ImageClip>
    <ImageClip extentID="585" gapBefore="0" mediaItemID="581" duration="0.10000000000000001">
      <Effects />
      <Transitions />
      <BoundProperties>
        <BoundPropertyInt Name="rotateStepNinety" Value="0" />
      </BoundProperties>
    </ImageClip>
    <ImageClip extentID="64" gapBefore="0" mediaItemID="60" duration="0.10000000000000001">
      <Effects />
      <Transitions />
      <BoundProperties>
        <BoundPropertyInt Name="rotateStepNinety" Value="0" />
      </BoundProperties>
    </ImageClip>
    <ImageClip extentID="586" gapBefore="0" mediaItemID="582" duration="0.10000000000000001">
      <Effects />
      <Transitions />
      <BoundProperties>
        <BoundPropertyInt Name="rotateStepNinety" Value="0" />
      </BoundProperties>
    </ImageClip>
    <ImageClip extentID="65" gapBefore="0" mediaItemID="61" duration="0.10000000000000001">
      <Effects />
      <Transitions />
      <BoundProperties>
        <BoundPropertyInt Name="rotateStepNinety" Value="0" />
      </BoundProperties>
    </ImageClip>
    <ImageClip extentID="587" gapBefore="0" mediaItemID="583" duration="0.10000000000000001">
      <Effects />
      <Transitions />
      <BoundProperties>
        <BoundPropertyInt Name="rotateStepNinety" Value="0" />
      </BoundProperties>
    </ImageClip>
    <ImageClip extentID="66" gapBefore="0" mediaItemID="62" duration="0.10000000000000001">
      <Effects />
      <Transitions />
      <BoundProperties>
        <BoundPropertyInt Name="rotateStepNinety" Value="0" />
      </BoundProperties>
    </ImageClip>
    <ImageClip extentID="588" gapBefore="0" mediaItemID="584" duration="0.10000000000000001">
      <Effects />
      <Transitions />
      <BoundProperties>
        <BoundPropertyInt Name="rotateStepNinety" Value="0" />
      </BoundProperties>
    </ImageClip>
    <ImageClip extentID="67" gapBefore="0" mediaItemID="63" duration="0.10000000000000001">
      <Effects />
      <Transitions />
      <BoundProperties>
        <BoundPropertyInt Name="rotateStepNinety" Value="0" />
      </BoundProperties>
    </ImageClip>
    <ImageClip extentID="589" gapBefore="0" mediaItemID="585" duration="0.10000000000000001">
      <Effects />
      <Transitions />
      <BoundProperties>
        <BoundPropertyInt Name="rotateStepNinety" Value="0" />
      </BoundProperties>
    </ImageClip>
    <ImageClip extentID="68" gapBefore="0" mediaItemID="64" duration="0.10000000000000001">
      <Effects />
      <Transitions />
      <BoundProperties>
        <BoundPropertyInt Name="rotateStepNinety" Value="0" />
      </BoundProperties>
    </ImageClip>
    <ImageClip extentID="590" gapBefore="0" mediaItemID="586" duration="0.10000000000000001">
      <Effects />
      <Transitions />
      <BoundProperties>
        <BoundPropertyInt Name="rotateStepNinety" Value="0" />
      </BoundProperties>
    </ImageClip>
    <ImageClip extentID="69" gapBefore="0" mediaItemID="65" duration="0.10000000000000001">
      <Effects />
      <Transitions />
      <BoundProperties>
        <BoundPropertyInt Name="rotateStepNinety" Value="0" />
      </BoundProperties>
    </ImageClip>
    <ImageClip extentID="591" gapBefore="0" mediaItemID="587" duration="0.10000000000000001">
      <Effects />
      <Transitions />
      <BoundProperties>
        <BoundPropertyInt Name="rotateStepNinety" Value="0" />
      </BoundProperties>
    </ImageClip>
    <ImageClip extentID="70" gapBefore="0" mediaItemID="66" duration="0.10000000000000001">
      <Effects />
      <Transitions />
      <BoundProperties>
        <BoundPropertyInt Name="rotateStepNinety" Value="0" />
      </BoundProperties>
    </ImageClip>
    <ImageClip extentID="592" gapBefore="0" mediaItemID="588" duration="0.10000000000000001">
      <Effects />
      <Transitions />
      <BoundProperties>
        <BoundPropertyInt Name="rotateStepNinety" Value="0" />
      </BoundProperties>
    </ImageClip>
    <ImageClip extentID="71" gapBefore="0" mediaItemID="67" duration="0.10000000000000001">
      <Effects />
      <Transitions />
      <BoundProperties>
        <BoundPropertyInt Name="rotateStepNinety" Value="0" />
      </BoundProperties>
    </ImageClip>
    <ImageClip extentID="593" gapBefore="0" mediaItemID="589" duration="0.10000000000000001">
      <Effects />
      <Transitions />
      <BoundProperties>
        <BoundPropertyInt Name="rotateStepNinety" Value="0" />
      </BoundProperties>
    </ImageClip>
    <ImageClip extentID="72" gapBefore="0" mediaItemID="68" duration="0.10000000000000001">
      <Effects />
      <Transitions />
      <BoundProperties>
        <BoundPropertyInt Name="rotateStepNinety" Value="0" />
      </BoundProperties>
    </ImageClip>
    <ImageClip extentID="594" gapBefore="0" mediaItemID="590" duration="0.10000000000000001">
      <Effects />
      <Transitions />
      <BoundProperties>
        <BoundPropertyInt Name="rotateStepNinety" Value="0" />
      </BoundProperties>
    </ImageClip>
    <ImageClip extentID="73" gapBefore="0" mediaItemID="69" duration="0.10000000000000001">
      <Effects />
      <Transitions />
      <BoundProperties>
        <BoundPropertyInt Name="rotateStepNinety" Value="0" />
      </BoundProperties>
    </ImageClip>
    <ImageClip extentID="595" gapBefore="0" mediaItemID="591" duration="0.10000000000000001">
      <Effects />
      <Transitions />
      <BoundProperties>
        <BoundPropertyInt Name="rotateStepNinety" Value="0" />
      </BoundProperties>
    </ImageClip>
    <ImageClip extentID="74" gapBefore="0" mediaItemID="70" duration="0.10000000000000001">
      <Effects />
      <Transitions />
      <BoundProperties>
        <BoundPropertyInt Name="rotateStepNinety" Value="0" />
      </BoundProperties>
    </ImageClip>
    <ImageClip extentID="596" gapBefore="0" mediaItemID="592" duration="0.10000000000000001">
      <Effects />
      <Transitions />
      <BoundProperties>
        <BoundPropertyInt Name="rotateStepNinety" Value="0" />
      </BoundProperties>
    </ImageClip>
    <ImageClip extentID="75" gapBefore="0" mediaItemID="71" duration="0.10000000000000001">
      <Effects />
      <Transitions />
      <BoundProperties>
        <BoundPropertyInt Name="rotateStepNinety" Value="0" />
      </BoundProperties>
    </ImageClip>
    <ImageClip extentID="597" gapBefore="0" mediaItemID="593" duration="0.10000000000000001">
      <Effects />
      <Transitions />
      <BoundProperties>
        <BoundPropertyInt Name="rotateStepNinety" Value="0" />
      </BoundProperties>
    </ImageClip>
    <ImageClip extentID="76" gapBefore="0" mediaItemID="72" duration="0.10000000000000001">
      <Effects />
      <Transitions />
      <BoundProperties>
        <BoundPropertyInt Name="rotateStepNinety" Value="0" />
      </BoundProperties>
    </ImageClip>
    <ImageClip extentID="598" gapBefore="0" mediaItemID="594" duration="0.10000000000000001">
      <Effects />
      <Transitions />
      <BoundProperties>
        <BoundPropertyInt Name="rotateStepNinety" Value="0" />
      </BoundProperties>
    </ImageClip>
    <ImageClip extentID="77" gapBefore="0" mediaItemID="73" duration="0.10000000000000001">
      <Effects />
      <Transitions />
      <BoundProperties>
        <BoundPropertyInt Name="rotateStepNinety" Value="0" />
      </BoundProperties>
    </ImageClip>
    <ImageClip extentID="599" gapBefore="0" mediaItemID="595" duration="0.10000000000000001">
      <Effects />
      <Transitions />
      <BoundProperties>
        <BoundPropertyInt Name="rotateStepNinety" Value="0" />
      </BoundProperties>
    </ImageClip>
    <ImageClip extentID="78" gapBefore="0" mediaItemID="74" duration="0.10000000000000001">
      <Effects />
      <Transitions />
      <BoundProperties>
        <BoundPropertyInt Name="rotateStepNinety" Value="0" />
      </BoundProperties>
    </ImageClip>
    <ImageClip extentID="600" gapBefore="0" mediaItemID="596" duration="0.10000000000000001">
      <Effects />
      <Transitions />
      <BoundProperties>
        <BoundPropertyInt Name="rotateStepNinety" Value="0" />
      </BoundProperties>
    </ImageClip>
    <ImageClip extentID="79" gapBefore="0" mediaItemID="75" duration="0.10000000000000001">
      <Effects />
      <Transitions />
      <BoundProperties>
        <BoundPropertyInt Name="rotateStepNinety" Value="0" />
      </BoundProperties>
    </ImageClip>
    <ImageClip extentID="601" gapBefore="0" mediaItemID="597" duration="0.10000000000000001">
      <Effects />
      <Transitions />
      <BoundProperties>
        <BoundPropertyInt Name="rotateStepNinety" Value="0" />
      </BoundProperties>
    </ImageClip>
    <ImageClip extentID="80" gapBefore="0" mediaItemID="76" duration="0.10000000000000001">
      <Effects />
      <Transitions />
      <BoundProperties>
        <BoundPropertyInt Name="rotateStepNinety" Value="0" />
      </BoundProperties>
    </ImageClip>
    <ImageClip extentID="602" gapBefore="0" mediaItemID="598" duration="0.10000000000000001">
      <Effects />
      <Transitions />
      <BoundProperties>
        <BoundPropertyInt Name="rotateStepNinety" Value="0" />
      </BoundProperties>
    </ImageClip>
    <ImageClip extentID="81" gapBefore="0" mediaItemID="77" duration="0.10000000000000001">
      <Effects />
      <Transitions />
      <BoundProperties>
        <BoundPropertyInt Name="rotateStepNinety" Value="0" />
      </BoundProperties>
    </ImageClip>
    <ImageClip extentID="603" gapBefore="0" mediaItemID="599" duration="0.10000000000000001">
      <Effects />
      <Transitions />
      <BoundProperties>
        <BoundPropertyInt Name="rotateStepNinety" Value="0" />
      </BoundProperties>
    </ImageClip>
    <ImageClip extentID="82" gapBefore="0" mediaItemID="78" duration="0.10000000000000001">
      <Effects />
      <Transitions />
      <BoundProperties>
        <BoundPropertyInt Name="rotateStepNinety" Value="0" />
      </BoundProperties>
    </ImageClip>
    <ImageClip extentID="604" gapBefore="0" mediaItemID="600" duration="0.10000000000000001">
      <Effects />
      <Transitions />
      <BoundProperties>
        <BoundPropertyInt Name="rotateStepNinety" Value="0" />
      </BoundProperties>
    </ImageClip>
    <ImageClip extentID="83" gapBefore="0" mediaItemID="79" duration="0.10000000000000001">
      <Effects />
      <Transitions />
      <BoundProperties>
        <BoundPropertyInt Name="rotateStepNinety" Value="0" />
      </BoundProperties>
    </ImageClip>
    <ImageClip extentID="605" gapBefore="0" mediaItemID="601" duration="0.10000000000000001">
      <Effects />
      <Transitions />
      <BoundProperties>
        <BoundPropertyInt Name="rotateStepNinety" Value="0" />
      </BoundProperties>
    </ImageClip>
    <ImageClip extentID="84" gapBefore="0" mediaItemID="80" duration="0.10000000000000001">
      <Effects />
      <Transitions />
      <BoundProperties>
        <BoundPropertyInt Name="rotateStepNinety" Value="0" />
      </BoundProperties>
    </ImageClip>
    <ImageClip extentID="606" gapBefore="0" mediaItemID="602" duration="0.10000000000000001">
      <Effects />
      <Transitions />
      <BoundProperties>
        <BoundPropertyInt Name="rotateStepNinety" Value="0" />
      </BoundProperties>
    </ImageClip>
    <ImageClip extentID="85" gapBefore="0" mediaItemID="81" duration="0.10000000000000001">
      <Effects />
      <Transitions />
      <BoundProperties>
        <BoundPropertyInt Name="rotateStepNinety" Value="0" />
      </BoundProperties>
    </ImageClip>
    <ImageClip extentID="607" gapBefore="0" mediaItemID="603" duration="0.10000000000000001">
      <Effects />
      <Transitions />
      <BoundProperties>
        <BoundPropertyInt Name="rotateStepNinety" Value="0" />
      </BoundProperties>
    </ImageClip>
    <ImageClip extentID="86" gapBefore="0" mediaItemID="82" duration="0.10000000000000001">
      <Effects />
      <Transitions />
      <BoundProperties>
        <BoundPropertyInt Name="rotateStepNinety" Value="0" />
      </BoundProperties>
    </ImageClip>
    <ImageClip extentID="608" gapBefore="0" mediaItemID="604" duration="0.10000000000000001">
      <Effects />
      <Transitions />
      <BoundProperties>
        <BoundPropertyInt Name="rotateStepNinety" Value="0" />
      </BoundProperties>
    </ImageClip>
    <ImageClip extentID="87" gapBefore="0" mediaItemID="83" duration="0.10000000000000001">
      <Effects />
      <Transitions />
      <BoundProperties>
        <BoundPropertyInt Name="rotateStepNinety" Value="0" />
      </BoundProperties>
    </ImageClip>
    <ImageClip extentID="609" gapBefore="0" mediaItemID="605" duration="0.10000000000000001">
      <Effects />
      <Transitions />
      <BoundProperties>
        <BoundPropertyInt Name="rotateStepNinety" Value="0" />
      </BoundProperties>
    </ImageClip>
    <ImageClip extentID="88" gapBefore="0" mediaItemID="84" duration="0.10000000000000001">
      <Effects />
      <Transitions />
      <BoundProperties>
        <BoundPropertyInt Name="rotateStepNinety" Value="0" />
      </BoundProperties>
    </ImageClip>
    <ImageClip extentID="610" gapBefore="0" mediaItemID="606" duration="0.10000000000000001">
      <Effects />
      <Transitions />
      <BoundProperties>
        <BoundPropertyInt Name="rotateStepNinety" Value="0" />
      </BoundProperties>
    </ImageClip>
    <ImageClip extentID="89" gapBefore="0" mediaItemID="85" duration="0.10000000000000001">
      <Effects />
      <Transitions />
      <BoundProperties>
        <BoundPropertyInt Name="rotateStepNinety" Value="0" />
      </BoundProperties>
    </ImageClip>
    <ImageClip extentID="611" gapBefore="0" mediaItemID="607" duration="0.10000000000000001">
      <Effects />
      <Transitions />
      <BoundProperties>
        <BoundPropertyInt Name="rotateStepNinety" Value="0" />
      </BoundProperties>
    </ImageClip>
    <ImageClip extentID="90" gapBefore="0" mediaItemID="86" duration="0.10000000000000001">
      <Effects />
      <Transitions />
      <BoundProperties>
        <BoundPropertyInt Name="rotateStepNinety" Value="0" />
      </BoundProperties>
    </ImageClip>
    <ImageClip extentID="612" gapBefore="0" mediaItemID="608" duration="0.10000000000000001">
      <Effects />
      <Transitions />
      <BoundProperties>
        <BoundPropertyInt Name="rotateStepNinety" Value="0" />
      </BoundProperties>
    </ImageClip>
    <ImageClip extentID="91" gapBefore="0" mediaItemID="87" duration="0.10000000000000001">
      <Effects />
      <Transitions />
      <BoundProperties>
        <BoundPropertyInt Name="rotateStepNinety" Value="0" />
      </BoundProperties>
    </ImageClip>
    <ImageClip extentID="613" gapBefore="0" mediaItemID="609" duration="0.10000000000000001">
      <Effects />
      <Transitions />
      <BoundProperties>
        <BoundPropertyInt Name="rotateStepNinety" Value="0" />
      </BoundProperties>
    </ImageClip>
    <ImageClip extentID="92" gapBefore="0" mediaItemID="88" duration="0.10000000000000001">
      <Effects />
      <Transitions />
      <BoundProperties>
        <BoundPropertyInt Name="rotateStepNinety" Value="0" />
      </BoundProperties>
    </ImageClip>
    <ImageClip extentID="614" gapBefore="0" mediaItemID="610" duration="0.10000000000000001">
      <Effects />
      <Transitions />
      <BoundProperties>
        <BoundPropertyInt Name="rotateStepNinety" Value="0" />
      </BoundProperties>
    </ImageClip>
    <ImageClip extentID="93" gapBefore="0" mediaItemID="89" duration="0.10000000000000001">
      <Effects />
      <Transitions />
      <BoundProperties>
        <BoundPropertyInt Name="rotateStepNinety" Value="0" />
      </BoundProperties>
    </ImageClip>
    <ImageClip extentID="615" gapBefore="0" mediaItemID="611" duration="0.10000000000000001">
      <Effects />
      <Transitions />
      <BoundProperties>
        <BoundPropertyInt Name="rotateStepNinety" Value="0" />
      </BoundProperties>
    </ImageClip>
    <ImageClip extentID="94" gapBefore="0" mediaItemID="90" duration="0.10000000000000001">
      <Effects />
      <Transitions />
      <BoundProperties>
        <BoundPropertyInt Name="rotateStepNinety" Value="0" />
      </BoundProperties>
    </ImageClip>
    <ImageClip extentID="616" gapBefore="0" mediaItemID="612" duration="0.10000000000000001">
      <Effects />
      <Transitions />
      <BoundProperties>
        <BoundPropertyInt Name="rotateStepNinety" Value="0" />
      </BoundProperties>
    </ImageClip>
    <ImageClip extentID="95" gapBefore="0" mediaItemID="91" duration="0.10000000000000001">
      <Effects />
      <Transitions />
      <BoundProperties>
        <BoundPropertyInt Name="rotateStepNinety" Value="0" />
      </BoundProperties>
    </ImageClip>
    <ImageClip extentID="617" gapBefore="0" mediaItemID="613" duration="0.10000000000000001">
      <Effects />
      <Transitions />
      <BoundProperties>
        <BoundPropertyInt Name="rotateStepNinety" Value="0" />
      </BoundProperties>
    </ImageClip>
    <ImageClip extentID="96" gapBefore="0" mediaItemID="92" duration="0.10000000000000001">
      <Effects />
      <Transitions />
      <BoundProperties>
        <BoundPropertyInt Name="rotateStepNinety" Value="0" />
      </BoundProperties>
    </ImageClip>
    <ImageClip extentID="618" gapBefore="0" mediaItemID="614" duration="0.10000000000000001">
      <Effects />
      <Transitions />
      <BoundProperties>
        <BoundPropertyInt Name="rotateStepNinety" Value="0" />
      </BoundProperties>
    </ImageClip>
    <ImageClip extentID="97" gapBefore="0" mediaItemID="93" duration="0.10000000000000001">
      <Effects />
      <Transitions />
      <BoundProperties>
        <BoundPropertyInt Name="rotateStepNinety" Value="0" />
      </BoundProperties>
    </ImageClip>
    <ImageClip extentID="619" gapBefore="0" mediaItemID="615" duration="0.10000000000000001">
      <Effects />
      <Transitions />
      <BoundProperties>
        <BoundPropertyInt Name="rotateStepNinety" Value="0" />
      </BoundProperties>
    </ImageClip>
    <ImageClip extentID="98" gapBefore="0" mediaItemID="94" duration="0.10000000000000001">
      <Effects />
      <Transitions />
      <BoundProperties>
        <BoundPropertyInt Name="rotateStepNinety" Value="0" />
      </BoundProperties>
    </ImageClip>
    <ImageClip extentID="620" gapBefore="0" mediaItemID="616" duration="0.10000000000000001">
      <Effects />
      <Transitions />
      <BoundProperties>
        <BoundPropertyInt Name="rotateStepNinety" Value="0" />
      </BoundProperties>
    </ImageClip>
    <ImageClip extentID="99" gapBefore="0" mediaItemID="95" duration="0.10000000000000001">
      <Effects />
      <Transitions />
      <BoundProperties>
        <BoundPropertyInt Name="rotateStepNinety" Value="0" />
      </BoundProperties>
    </ImageClip>
    <ImageClip extentID="621" gapBefore="0" mediaItemID="617" duration="0.10000000000000001">
      <Effects />
      <Transitions />
      <BoundProperties>
        <BoundPropertyInt Name="rotateStepNinety" Value="0" />
      </BoundProperties>
    </ImageClip>
    <ImageClip extentID="100" gapBefore="0" mediaItemID="96" duration="0.10000000000000001">
      <Effects />
      <Transitions />
      <BoundProperties>
        <BoundPropertyInt Name="rotateStepNinety" Value="0" />
      </BoundProperties>
    </ImageClip>
    <ImageClip extentID="622" gapBefore="0" mediaItemID="618" duration="0.10000000000000001">
      <Effects />
      <Transitions />
      <BoundProperties>
        <BoundPropertyInt Name="rotateStepNinety" Value="0" />
      </BoundProperties>
    </ImageClip>
    <ImageClip extentID="101" gapBefore="0" mediaItemID="97" duration="0.10000000000000001">
      <Effects />
      <Transitions />
      <BoundProperties>
        <BoundPropertyInt Name="rotateStepNinety" Value="0" />
      </BoundProperties>
    </ImageClip>
    <ImageClip extentID="623" gapBefore="0" mediaItemID="619" duration="0.10000000000000001">
      <Effects />
      <Transitions />
      <BoundProperties>
        <BoundPropertyInt Name="rotateStepNinety" Value="0" />
      </BoundProperties>
    </ImageClip>
    <ImageClip extentID="102" gapBefore="0" mediaItemID="98" duration="0.10000000000000001">
      <Effects />
      <Transitions />
      <BoundProperties>
        <BoundPropertyInt Name="rotateStepNinety" Value="0" />
      </BoundProperties>
    </ImageClip>
    <ImageClip extentID="624" gapBefore="0" mediaItemID="620" duration="0.10000000000000001">
      <Effects />
      <Transitions />
      <BoundProperties>
        <BoundPropertyInt Name="rotateStepNinety" Value="0" />
      </BoundProperties>
    </ImageClip>
    <ImageClip extentID="103" gapBefore="0" mediaItemID="99" duration="0.10000000000000001">
      <Effects />
      <Transitions />
      <BoundProperties>
        <BoundPropertyInt Name="rotateStepNinety" Value="0" />
      </BoundProperties>
    </ImageClip>
    <ImageClip extentID="625" gapBefore="0" mediaItemID="621" duration="0.10000000000000001">
      <Effects />
      <Transitions />
      <BoundProperties>
        <BoundPropertyInt Name="rotateStepNinety" Value="0" />
      </BoundProperties>
    </ImageClip>
    <ImageClip extentID="104" gapBefore="0" mediaItemID="100" duration="0.10000000000000001">
      <Effects />
      <Transitions />
      <BoundProperties>
        <BoundPropertyInt Name="rotateStepNinety" Value="0" />
      </BoundProperties>
    </ImageClip>
    <ImageClip extentID="626" gapBefore="0" mediaItemID="622" duration="0.10000000000000001">
      <Effects />
      <Transitions />
      <BoundProperties>
        <BoundPropertyInt Name="rotateStepNinety" Value="0" />
      </BoundProperties>
    </ImageClip>
    <ImageClip extentID="105" gapBefore="0" mediaItemID="101" duration="0.10000000000000001">
      <Effects />
      <Transitions />
      <BoundProperties>
        <BoundPropertyInt Name="rotateStepNinety" Value="0" />
      </BoundProperties>
    </ImageClip>
    <ImageClip extentID="627" gapBefore="0" mediaItemID="623" duration="0.10000000000000001">
      <Effects />
      <Transitions />
      <BoundProperties>
        <BoundPropertyInt Name="rotateStepNinety" Value="0" />
      </BoundProperties>
    </ImageClip>
    <ImageClip extentID="106" gapBefore="0" mediaItemID="102" duration="0.10000000000000001">
      <Effects />
      <Transitions />
      <BoundProperties>
        <BoundPropertyInt Name="rotateStepNinety" Value="0" />
      </BoundProperties>
    </ImageClip>
    <ImageClip extentID="628" gapBefore="0" mediaItemID="624" duration="0.10000000000000001">
      <Effects />
      <Transitions />
      <BoundProperties>
        <BoundPropertyInt Name="rotateStepNinety" Value="0" />
      </BoundProperties>
    </ImageClip>
    <ImageClip extentID="107" gapBefore="0" mediaItemID="103" duration="0.10000000000000001">
      <Effects />
      <Transitions />
      <BoundProperties>
        <BoundPropertyInt Name="rotateStepNinety" Value="0" />
      </BoundProperties>
    </ImageClip>
    <ImageClip extentID="629" gapBefore="0" mediaItemID="625" duration="0.10000000000000001">
      <Effects />
      <Transitions />
      <BoundProperties>
        <BoundPropertyInt Name="rotateStepNinety" Value="0" />
      </BoundProperties>
    </ImageClip>
    <ImageClip extentID="108" gapBefore="0" mediaItemID="104" duration="0.10000000000000001">
      <Effects />
      <Transitions />
      <BoundProperties>
        <BoundPropertyInt Name="rotateStepNinety" Value="0" />
      </BoundProperties>
    </ImageClip>
    <ImageClip extentID="630" gapBefore="0" mediaItemID="626" duration="0.10000000000000001">
      <Effects />
      <Transitions />
      <BoundProperties>
        <BoundPropertyInt Name="rotateStepNinety" Value="0" />
      </BoundProperties>
    </ImageClip>
    <ImageClip extentID="109" gapBefore="0" mediaItemID="105" duration="0.10000000000000001">
      <Effects />
      <Transitions />
      <BoundProperties>
        <BoundPropertyInt Name="rotateStepNinety" Value="0" />
      </BoundProperties>
    </ImageClip>
    <ImageClip extentID="631" gapBefore="0" mediaItemID="627" duration="0.10000000000000001">
      <Effects />
      <Transitions />
      <BoundProperties>
        <BoundPropertyInt Name="rotateStepNinety" Value="0" />
      </BoundProperties>
    </ImageClip>
    <ImageClip extentID="110" gapBefore="0" mediaItemID="106" duration="0.10000000000000001">
      <Effects />
      <Transitions />
      <BoundProperties>
        <BoundPropertyInt Name="rotateStepNinety" Value="0" />
      </BoundProperties>
    </ImageClip>
    <ImageClip extentID="632" gapBefore="0" mediaItemID="628" duration="0.10000000000000001">
      <Effects />
      <Transitions />
      <BoundProperties>
        <BoundPropertyInt Name="rotateStepNinety" Value="0" />
      </BoundProperties>
    </ImageClip>
    <ImageClip extentID="111" gapBefore="0" mediaItemID="107" duration="0.10000000000000001">
      <Effects />
      <Transitions />
      <BoundProperties>
        <BoundPropertyInt Name="rotateStepNinety" Value="0" />
      </BoundProperties>
    </ImageClip>
    <ImageClip extentID="633" gapBefore="0" mediaItemID="629" duration="0.10000000000000001">
      <Effects />
      <Transitions />
      <BoundProperties>
        <BoundPropertyInt Name="rotateStepNinety" Value="0" />
      </BoundProperties>
    </ImageClip>
    <ImageClip extentID="112" gapBefore="0" mediaItemID="108" duration="0.10000000000000001">
      <Effects />
      <Transitions />
      <BoundProperties>
        <BoundPropertyInt Name="rotateStepNinety" Value="0" />
      </BoundProperties>
    </ImageClip>
    <ImageClip extentID="634" gapBefore="0" mediaItemID="630" duration="0.10000000000000001">
      <Effects />
      <Transitions />
      <BoundProperties>
        <BoundPropertyInt Name="rotateStepNinety" Value="0" />
      </BoundProperties>
    </ImageClip>
    <ImageClip extentID="113" gapBefore="0" mediaItemID="109" duration="0.10000000000000001">
      <Effects />
      <Transitions />
      <BoundProperties>
        <BoundPropertyInt Name="rotateStepNinety" Value="0" />
      </BoundProperties>
    </ImageClip>
    <ImageClip extentID="635" gapBefore="0" mediaItemID="631" duration="0.10000000000000001">
      <Effects />
      <Transitions />
      <BoundProperties>
        <BoundPropertyInt Name="rotateStepNinety" Value="0" />
      </BoundProperties>
    </ImageClip>
    <ImageClip extentID="114" gapBefore="0" mediaItemID="110" duration="0.10000000000000001">
      <Effects />
      <Transitions />
      <BoundProperties>
        <BoundPropertyInt Name="rotateStepNinety" Value="0" />
      </BoundProperties>
    </ImageClip>
    <ImageClip extentID="636" gapBefore="0" mediaItemID="632" duration="0.10000000000000001">
      <Effects />
      <Transitions />
      <BoundProperties>
        <BoundPropertyInt Name="rotateStepNinety" Value="0" />
      </BoundProperties>
    </ImageClip>
    <ImageClip extentID="115" gapBefore="0" mediaItemID="111" duration="0.10000000000000001">
      <Effects />
      <Transitions />
      <BoundProperties>
        <BoundPropertyInt Name="rotateStepNinety" Value="0" />
      </BoundProperties>
    </ImageClip>
    <ImageClip extentID="637" gapBefore="0" mediaItemID="633" duration="0.10000000000000001">
      <Effects />
      <Transitions />
      <BoundProperties>
        <BoundPropertyInt Name="rotateStepNinety" Value="0" />
      </BoundProperties>
    </ImageClip>
    <ImageClip extentID="116" gapBefore="0" mediaItemID="112" duration="0.10000000000000001">
      <Effects />
      <Transitions />
      <BoundProperties>
        <BoundPropertyInt Name="rotateStepNinety" Value="0" />
      </BoundProperties>
    </ImageClip>
    <ImageClip extentID="638" gapBefore="0" mediaItemID="634" duration="0.10000000000000001">
      <Effects />
      <Transitions />
      <BoundProperties>
        <BoundPropertyInt Name="rotateStepNinety" Value="0" />
      </BoundProperties>
    </ImageClip>
    <ImageClip extentID="117" gapBefore="0" mediaItemID="113" duration="0.10000000000000001">
      <Effects />
      <Transitions />
      <BoundProperties>
        <BoundPropertyInt Name="rotateStepNinety" Value="0" />
      </BoundProperties>
    </ImageClip>
    <ImageClip extentID="639" gapBefore="0" mediaItemID="635" duration="0.10000000000000001">
      <Effects />
      <Transitions />
      <BoundProperties>
        <BoundPropertyInt Name="rotateStepNinety" Value="0" />
      </BoundProperties>
    </ImageClip>
    <ImageClip extentID="118" gapBefore="0" mediaItemID="114" duration="0.10000000000000001">
      <Effects />
      <Transitions />
      <BoundProperties>
        <BoundPropertyInt Name="rotateStepNinety" Value="0" />
      </BoundProperties>
    </ImageClip>
    <ImageClip extentID="640" gapBefore="0" mediaItemID="636" duration="0.10000000000000001">
      <Effects />
      <Transitions />
      <BoundProperties>
        <BoundPropertyInt Name="rotateStepNinety" Value="0" />
      </BoundProperties>
    </ImageClip>
    <ImageClip extentID="119" gapBefore="0" mediaItemID="115" duration="0.10000000000000001">
      <Effects />
      <Transitions />
      <BoundProperties>
        <BoundPropertyInt Name="rotateStepNinety" Value="0" />
      </BoundProperties>
    </ImageClip>
    <ImageClip extentID="641" gapBefore="0" mediaItemID="637" duration="0.10000000000000001">
      <Effects />
      <Transitions />
      <BoundProperties>
        <BoundPropertyInt Name="rotateStepNinety" Value="0" />
      </BoundProperties>
    </ImageClip>
    <ImageClip extentID="120" gapBefore="0" mediaItemID="116" duration="0.10000000000000001">
      <Effects />
      <Transitions />
      <BoundProperties>
        <BoundPropertyInt Name="rotateStepNinety" Value="0" />
      </BoundProperties>
    </ImageClip>
    <ImageClip extentID="642" gapBefore="0" mediaItemID="638" duration="0.10000000000000001">
      <Effects />
      <Transitions />
      <BoundProperties>
        <BoundPropertyInt Name="rotateStepNinety" Value="0" />
      </BoundProperties>
    </ImageClip>
    <ImageClip extentID="121" gapBefore="0" mediaItemID="117" duration="0.10000000000000001">
      <Effects />
      <Transitions />
      <BoundProperties>
        <BoundPropertyInt Name="rotateStepNinety" Value="0" />
      </BoundProperties>
    </ImageClip>
    <ImageClip extentID="643" gapBefore="0" mediaItemID="639" duration="0.10000000000000001">
      <Effects />
      <Transitions />
      <BoundProperties>
        <BoundPropertyInt Name="rotateStepNinety" Value="0" />
      </BoundProperties>
    </ImageClip>
    <ImageClip extentID="122" gapBefore="0" mediaItemID="118" duration="0.10000000000000001">
      <Effects />
      <Transitions />
      <BoundProperties>
        <BoundPropertyInt Name="rotateStepNinety" Value="0" />
      </BoundProperties>
    </ImageClip>
    <ImageClip extentID="644" gapBefore="0" mediaItemID="640" duration="0.10000000000000001">
      <Effects />
      <Transitions />
      <BoundProperties>
        <BoundPropertyInt Name="rotateStepNinety" Value="0" />
      </BoundProperties>
    </ImageClip>
    <ImageClip extentID="123" gapBefore="0" mediaItemID="119" duration="0.10000000000000001">
      <Effects />
      <Transitions />
      <BoundProperties>
        <BoundPropertyInt Name="rotateStepNinety" Value="0" />
      </BoundProperties>
    </ImageClip>
    <ImageClip extentID="645" gapBefore="0" mediaItemID="641" duration="0.10000000000000001">
      <Effects />
      <Transitions />
      <BoundProperties>
        <BoundPropertyInt Name="rotateStepNinety" Value="0" />
      </BoundProperties>
    </ImageClip>
    <ImageClip extentID="124" gapBefore="0" mediaItemID="120" duration="0.10000000000000001">
      <Effects />
      <Transitions />
      <BoundProperties>
        <BoundPropertyInt Name="rotateStepNinety" Value="0" />
      </BoundProperties>
    </ImageClip>
    <ImageClip extentID="646" gapBefore="0" mediaItemID="642" duration="0.10000000000000001">
      <Effects />
      <Transitions />
      <BoundProperties>
        <BoundPropertyInt Name="rotateStepNinety" Value="0" />
      </BoundProperties>
    </ImageClip>
    <ImageClip extentID="125" gapBefore="0" mediaItemID="121" duration="0.10000000000000001">
      <Effects />
      <Transitions />
      <BoundProperties>
        <BoundPropertyInt Name="rotateStepNinety" Value="0" />
      </BoundProperties>
    </ImageClip>
    <ImageClip extentID="647" gapBefore="0" mediaItemID="643" duration="0.10000000000000001">
      <Effects />
      <Transitions />
      <BoundProperties>
        <BoundPropertyInt Name="rotateStepNinety" Value="0" />
      </BoundProperties>
    </ImageClip>
    <ImageClip extentID="126" gapBefore="0" mediaItemID="122" duration="0.10000000000000001">
      <Effects />
      <Transitions />
      <BoundProperties>
        <BoundPropertyInt Name="rotateStepNinety" Value="0" />
      </BoundProperties>
    </ImageClip>
    <ImageClip extentID="648" gapBefore="0" mediaItemID="644" duration="0.10000000000000001">
      <Effects />
      <Transitions />
      <BoundProperties>
        <BoundPropertyInt Name="rotateStepNinety" Value="0" />
      </BoundProperties>
    </ImageClip>
    <ImageClip extentID="127" gapBefore="0" mediaItemID="123" duration="0.10000000000000001">
      <Effects />
      <Transitions />
      <BoundProperties>
        <BoundPropertyInt Name="rotateStepNinety" Value="0" />
      </BoundProperties>
    </ImageClip>
    <ImageClip extentID="649" gapBefore="0" mediaItemID="645" duration="0.10000000000000001">
      <Effects />
      <Transitions />
      <BoundProperties>
        <BoundPropertyInt Name="rotateStepNinety" Value="0" />
      </BoundProperties>
    </ImageClip>
    <ImageClip extentID="128" gapBefore="0" mediaItemID="124" duration="0.10000000000000001">
      <Effects />
      <Transitions />
      <BoundProperties>
        <BoundPropertyInt Name="rotateStepNinety" Value="0" />
      </BoundProperties>
    </ImageClip>
    <ImageClip extentID="650" gapBefore="0" mediaItemID="646" duration="0.10000000000000001">
      <Effects />
      <Transitions />
      <BoundProperties>
        <BoundPropertyInt Name="rotateStepNinety" Value="0" />
      </BoundProperties>
    </ImageClip>
    <ImageClip extentID="129" gapBefore="0" mediaItemID="125" duration="0.10000000000000001">
      <Effects />
      <Transitions />
      <BoundProperties>
        <BoundPropertyInt Name="rotateStepNinety" Value="0" />
      </BoundProperties>
    </ImageClip>
    <ImageClip extentID="651" gapBefore="0" mediaItemID="647" duration="0.10000000000000001">
      <Effects />
      <Transitions />
      <BoundProperties>
        <BoundPropertyInt Name="rotateStepNinety" Value="0" />
      </BoundProperties>
    </ImageClip>
    <ImageClip extentID="130" gapBefore="0" mediaItemID="126" duration="0.10000000000000001">
      <Effects />
      <Transitions />
      <BoundProperties>
        <BoundPropertyInt Name="rotateStepNinety" Value="0" />
      </BoundProperties>
    </ImageClip>
    <ImageClip extentID="652" gapBefore="0" mediaItemID="648" duration="0.10000000000000001">
      <Effects />
      <Transitions />
      <BoundProperties>
        <BoundPropertyInt Name="rotateStepNinety" Value="0" />
      </BoundProperties>
    </ImageClip>
    <ImageClip extentID="131" gapBefore="0" mediaItemID="127" duration="0.10000000000000001">
      <Effects />
      <Transitions />
      <BoundProperties>
        <BoundPropertyInt Name="rotateStepNinety" Value="0" />
      </BoundProperties>
    </ImageClip>
    <ImageClip extentID="653" gapBefore="0" mediaItemID="649" duration="0.10000000000000001">
      <Effects />
      <Transitions />
      <BoundProperties>
        <BoundPropertyInt Name="rotateStepNinety" Value="0" />
      </BoundProperties>
    </ImageClip>
    <ImageClip extentID="132" gapBefore="0" mediaItemID="128" duration="0.10000000000000001">
      <Effects />
      <Transitions />
      <BoundProperties>
        <BoundPropertyInt Name="rotateStepNinety" Value="0" />
      </BoundProperties>
    </ImageClip>
    <ImageClip extentID="654" gapBefore="0" mediaItemID="650" duration="0.10000000000000001">
      <Effects />
      <Transitions />
      <BoundProperties>
        <BoundPropertyInt Name="rotateStepNinety" Value="0" />
      </BoundProperties>
    </ImageClip>
    <ImageClip extentID="133" gapBefore="0" mediaItemID="129" duration="0.10000000000000001">
      <Effects />
      <Transitions />
      <BoundProperties>
        <BoundPropertyInt Name="rotateStepNinety" Value="0" />
      </BoundProperties>
    </ImageClip>
    <ImageClip extentID="655" gapBefore="0" mediaItemID="651" duration="0.10000000000000001">
      <Effects />
      <Transitions />
      <BoundProperties>
        <BoundPropertyInt Name="rotateStepNinety" Value="0" />
      </BoundProperties>
    </ImageClip>
    <ImageClip extentID="134" gapBefore="0" mediaItemID="130" duration="0.10000000000000001">
      <Effects />
      <Transitions />
      <BoundProperties>
        <BoundPropertyInt Name="rotateStepNinety" Value="0" />
      </BoundProperties>
    </ImageClip>
    <ImageClip extentID="656" gapBefore="0" mediaItemID="652" duration="0.10000000000000001">
      <Effects />
      <Transitions />
      <BoundProperties>
        <BoundPropertyInt Name="rotateStepNinety" Value="0" />
      </BoundProperties>
    </ImageClip>
    <ImageClip extentID="135" gapBefore="0" mediaItemID="131" duration="0.10000000000000001">
      <Effects />
      <Transitions />
      <BoundProperties>
        <BoundPropertyInt Name="rotateStepNinety" Value="0" />
      </BoundProperties>
    </ImageClip>
    <ImageClip extentID="657" gapBefore="0" mediaItemID="653" duration="0.10000000000000001">
      <Effects />
      <Transitions />
      <BoundProperties>
        <BoundPropertyInt Name="rotateStepNinety" Value="0" />
      </BoundProperties>
    </ImageClip>
    <ImageClip extentID="136" gapBefore="0" mediaItemID="132" duration="0.10000000000000001">
      <Effects />
      <Transitions />
      <BoundProperties>
        <BoundPropertyInt Name="rotateStepNinety" Value="0" />
      </BoundProperties>
    </ImageClip>
    <ImageClip extentID="658" gapBefore="0" mediaItemID="654" duration="0.10000000000000001">
      <Effects />
      <Transitions />
      <BoundProperties>
        <BoundPropertyInt Name="rotateStepNinety" Value="0" />
      </BoundProperties>
    </ImageClip>
    <ImageClip extentID="137" gapBefore="0" mediaItemID="133" duration="0.10000000000000001">
      <Effects />
      <Transitions />
      <BoundProperties>
        <BoundPropertyInt Name="rotateStepNinety" Value="0" />
      </BoundProperties>
    </ImageClip>
    <ImageClip extentID="659" gapBefore="0" mediaItemID="655" duration="0.10000000000000001">
      <Effects />
      <Transitions />
      <BoundProperties>
        <BoundPropertyInt Name="rotateStepNinety" Value="0" />
      </BoundProperties>
    </ImageClip>
    <ImageClip extentID="138" gapBefore="0" mediaItemID="134" duration="0.10000000000000001">
      <Effects />
      <Transitions />
      <BoundProperties>
        <BoundPropertyInt Name="rotateStepNinety" Value="0" />
      </BoundProperties>
    </ImageClip>
    <ImageClip extentID="660" gapBefore="0" mediaItemID="656" duration="0.10000000000000001">
      <Effects />
      <Transitions />
      <BoundProperties>
        <BoundPropertyInt Name="rotateStepNinety" Value="0" />
      </BoundProperties>
    </ImageClip>
    <ImageClip extentID="139" gapBefore="0" mediaItemID="135" duration="0.10000000000000001">
      <Effects />
      <Transitions />
      <BoundProperties>
        <BoundPropertyInt Name="rotateStepNinety" Value="0" />
      </BoundProperties>
    </ImageClip>
    <ImageClip extentID="661" gapBefore="0" mediaItemID="657" duration="0.10000000000000001">
      <Effects />
      <Transitions />
      <BoundProperties>
        <BoundPropertyInt Name="rotateStepNinety" Value="0" />
      </BoundProperties>
    </ImageClip>
    <ImageClip extentID="140" gapBefore="0" mediaItemID="136" duration="0.10000000000000001">
      <Effects />
      <Transitions />
      <BoundProperties>
        <BoundPropertyInt Name="rotateStepNinety" Value="0" />
      </BoundProperties>
    </ImageClip>
    <ImageClip extentID="662" gapBefore="0" mediaItemID="658" duration="0.10000000000000001">
      <Effects />
      <Transitions />
      <BoundProperties>
        <BoundPropertyInt Name="rotateStepNinety" Value="0" />
      </BoundProperties>
    </ImageClip>
    <ImageClip extentID="141" gapBefore="0" mediaItemID="137" duration="0.10000000000000001">
      <Effects />
      <Transitions />
      <BoundProperties>
        <BoundPropertyInt Name="rotateStepNinety" Value="0" />
      </BoundProperties>
    </ImageClip>
    <ImageClip extentID="663" gapBefore="0" mediaItemID="659" duration="0.10000000000000001">
      <Effects />
      <Transitions />
      <BoundProperties>
        <BoundPropertyInt Name="rotateStepNinety" Value="0" />
      </BoundProperties>
    </ImageClip>
    <ImageClip extentID="142" gapBefore="0" mediaItemID="138" duration="0.10000000000000001">
      <Effects />
      <Transitions />
      <BoundProperties>
        <BoundPropertyInt Name="rotateStepNinety" Value="0" />
      </BoundProperties>
    </ImageClip>
    <ImageClip extentID="664" gapBefore="0" mediaItemID="660" duration="0.10000000000000001">
      <Effects />
      <Transitions />
      <BoundProperties>
        <BoundPropertyInt Name="rotateStepNinety" Value="0" />
      </BoundProperties>
    </ImageClip>
    <ImageClip extentID="143" gapBefore="0" mediaItemID="139" duration="0.10000000000000001">
      <Effects />
      <Transitions />
      <BoundProperties>
        <BoundPropertyInt Name="rotateStepNinety" Value="0" />
      </BoundProperties>
    </ImageClip>
    <ImageClip extentID="665" gapBefore="0" mediaItemID="661" duration="0.10000000000000001">
      <Effects />
      <Transitions />
      <BoundProperties>
        <BoundPropertyInt Name="rotateStepNinety" Value="0" />
      </BoundProperties>
    </ImageClip>
    <ImageClip extentID="144" gapBefore="0" mediaItemID="140" duration="0.10000000000000001">
      <Effects />
      <Transitions />
      <BoundProperties>
        <BoundPropertyInt Name="rotateStepNinety" Value="0" />
      </BoundProperties>
    </ImageClip>
    <ImageClip extentID="666" gapBefore="0" mediaItemID="662" duration="0.10000000000000001">
      <Effects />
      <Transitions />
      <BoundProperties>
        <BoundPropertyInt Name="rotateStepNinety" Value="0" />
      </BoundProperties>
    </ImageClip>
    <ImageClip extentID="145" gapBefore="0" mediaItemID="141" duration="0.10000000000000001">
      <Effects />
      <Transitions />
      <BoundProperties>
        <BoundPropertyInt Name="rotateStepNinety" Value="0" />
      </BoundProperties>
    </ImageClip>
    <ImageClip extentID="667" gapBefore="0" mediaItemID="663" duration="0.10000000000000001">
      <Effects />
      <Transitions />
      <BoundProperties>
        <BoundPropertyInt Name="rotateStepNinety" Value="0" />
      </BoundProperties>
    </ImageClip>
    <ImageClip extentID="146" gapBefore="0" mediaItemID="142" duration="0.10000000000000001">
      <Effects />
      <Transitions />
      <BoundProperties>
        <BoundPropertyInt Name="rotateStepNinety" Value="0" />
      </BoundProperties>
    </ImageClip>
    <ImageClip extentID="668" gapBefore="0" mediaItemID="664" duration="0.10000000000000001">
      <Effects />
      <Transitions />
      <BoundProperties>
        <BoundPropertyInt Name="rotateStepNinety" Value="0" />
      </BoundProperties>
    </ImageClip>
    <ImageClip extentID="147" gapBefore="0" mediaItemID="143" duration="0.10000000000000001">
      <Effects />
      <Transitions />
      <BoundProperties>
        <BoundPropertyInt Name="rotateStepNinety" Value="0" />
      </BoundProperties>
    </ImageClip>
    <ImageClip extentID="669" gapBefore="0" mediaItemID="665" duration="0.10000000000000001">
      <Effects />
      <Transitions />
      <BoundProperties>
        <BoundPropertyInt Name="rotateStepNinety" Value="0" />
      </BoundProperties>
    </ImageClip>
    <ImageClip extentID="148" gapBefore="0" mediaItemID="144" duration="0.10000000000000001">
      <Effects />
      <Transitions />
      <BoundProperties>
        <BoundPropertyInt Name="rotateStepNinety" Value="0" />
      </BoundProperties>
    </ImageClip>
    <ImageClip extentID="670" gapBefore="0" mediaItemID="666" duration="0.10000000000000001">
      <Effects />
      <Transitions />
      <BoundProperties>
        <BoundPropertyInt Name="rotateStepNinety" Value="0" />
      </BoundProperties>
    </ImageClip>
    <ImageClip extentID="149" gapBefore="0" mediaItemID="145" duration="0.10000000000000001">
      <Effects />
      <Transitions />
      <BoundProperties>
        <BoundPropertyInt Name="rotateStepNinety" Value="0" />
      </BoundProperties>
    </ImageClip>
    <ImageClip extentID="671" gapBefore="0" mediaItemID="667" duration="0.10000000000000001">
      <Effects />
      <Transitions />
      <BoundProperties>
        <BoundPropertyInt Name="rotateStepNinety" Value="0" />
      </BoundProperties>
    </ImageClip>
    <ImageClip extentID="150" gapBefore="0" mediaItemID="146" duration="0.10000000000000001">
      <Effects />
      <Transitions />
      <BoundProperties>
        <BoundPropertyInt Name="rotateStepNinety" Value="0" />
      </BoundProperties>
    </ImageClip>
    <ImageClip extentID="672" gapBefore="0" mediaItemID="668" duration="0.10000000000000001">
      <Effects />
      <Transitions />
      <BoundProperties>
        <BoundPropertyInt Name="rotateStepNinety" Value="0" />
      </BoundProperties>
    </ImageClip>
    <ImageClip extentID="151" gapBefore="0" mediaItemID="147" duration="0.10000000000000001">
      <Effects />
      <Transitions />
      <BoundProperties>
        <BoundPropertyInt Name="rotateStepNinety" Value="0" />
      </BoundProperties>
    </ImageClip>
    <ImageClip extentID="673" gapBefore="0" mediaItemID="669" duration="0.10000000000000001">
      <Effects />
      <Transitions />
      <BoundProperties>
        <BoundPropertyInt Name="rotateStepNinety" Value="0" />
      </BoundProperties>
    </ImageClip>
    <ImageClip extentID="152" gapBefore="0" mediaItemID="148" duration="0.10000000000000001">
      <Effects />
      <Transitions />
      <BoundProperties>
        <BoundPropertyInt Name="rotateStepNinety" Value="0" />
      </BoundProperties>
    </ImageClip>
    <ImageClip extentID="674" gapBefore="0" mediaItemID="670" duration="0.10000000000000001">
      <Effects />
      <Transitions />
      <BoundProperties>
        <BoundPropertyInt Name="rotateStepNinety" Value="0" />
      </BoundProperties>
    </ImageClip>
    <ImageClip extentID="153" gapBefore="0" mediaItemID="149" duration="0.10000000000000001">
      <Effects />
      <Transitions />
      <BoundProperties>
        <BoundPropertyInt Name="rotateStepNinety" Value="0" />
      </BoundProperties>
    </ImageClip>
    <ImageClip extentID="675" gapBefore="0" mediaItemID="671" duration="0.10000000000000001">
      <Effects />
      <Transitions />
      <BoundProperties>
        <BoundPropertyInt Name="rotateStepNinety" Value="0" />
      </BoundProperties>
    </ImageClip>
    <ImageClip extentID="154" gapBefore="0" mediaItemID="150" duration="0.10000000000000001">
      <Effects />
      <Transitions />
      <BoundProperties>
        <BoundPropertyInt Name="rotateStepNinety" Value="0" />
      </BoundProperties>
    </ImageClip>
    <ImageClip extentID="676" gapBefore="0" mediaItemID="672" duration="0.10000000000000001">
      <Effects />
      <Transitions />
      <BoundProperties>
        <BoundPropertyInt Name="rotateStepNinety" Value="0" />
      </BoundProperties>
    </ImageClip>
    <ImageClip extentID="155" gapBefore="0" mediaItemID="151" duration="0.10000000000000001">
      <Effects />
      <Transitions />
      <BoundProperties>
        <BoundPropertyInt Name="rotateStepNinety" Value="0" />
      </BoundProperties>
    </ImageClip>
    <ImageClip extentID="677" gapBefore="0" mediaItemID="673" duration="0.10000000000000001">
      <Effects />
      <Transitions />
      <BoundProperties>
        <BoundPropertyInt Name="rotateStepNinety" Value="0" />
      </BoundProperties>
    </ImageClip>
    <ImageClip extentID="156" gapBefore="0" mediaItemID="152" duration="0.10000000000000001">
      <Effects />
      <Transitions />
      <BoundProperties>
        <BoundPropertyInt Name="rotateStepNinety" Value="0" />
      </BoundProperties>
    </ImageClip>
    <ImageClip extentID="678" gapBefore="0" mediaItemID="674" duration="0.10000000000000001">
      <Effects />
      <Transitions />
      <BoundProperties>
        <BoundPropertyInt Name="rotateStepNinety" Value="0" />
      </BoundProperties>
    </ImageClip>
    <ImageClip extentID="157" gapBefore="0" mediaItemID="153" duration="0.10000000000000001">
      <Effects />
      <Transitions />
      <BoundProperties>
        <BoundPropertyInt Name="rotateStepNinety" Value="0" />
      </BoundProperties>
    </ImageClip>
    <ImageClip extentID="679" gapBefore="0" mediaItemID="675" duration="0.10000000000000001">
      <Effects />
      <Transitions />
      <BoundProperties>
        <BoundPropertyInt Name="rotateStepNinety" Value="0" />
      </BoundProperties>
    </ImageClip>
    <ImageClip extentID="158" gapBefore="0" mediaItemID="154" duration="0.10000000000000001">
      <Effects />
      <Transitions />
      <BoundProperties>
        <BoundPropertyInt Name="rotateStepNinety" Value="0" />
      </BoundProperties>
    </ImageClip>
    <ImageClip extentID="680" gapBefore="0" mediaItemID="676" duration="0.10000000000000001">
      <Effects />
      <Transitions />
      <BoundProperties>
        <BoundPropertyInt Name="rotateStepNinety" Value="0" />
      </BoundProperties>
    </ImageClip>
    <ImageClip extentID="159" gapBefore="0" mediaItemID="155" duration="0.10000000000000001">
      <Effects />
      <Transitions />
      <BoundProperties>
        <BoundPropertyInt Name="rotateStepNinety" Value="0" />
      </BoundProperties>
    </ImageClip>
    <ImageClip extentID="681" gapBefore="0" mediaItemID="677" duration="0.10000000000000001">
      <Effects />
      <Transitions />
      <BoundProperties>
        <BoundPropertyInt Name="rotateStepNinety" Value="0" />
      </BoundProperties>
    </ImageClip>
    <ImageClip extentID="160" gapBefore="0" mediaItemID="156" duration="0.10000000000000001">
      <Effects />
      <Transitions />
      <BoundProperties>
        <BoundPropertyInt Name="rotateStepNinety" Value="0" />
      </BoundProperties>
    </ImageClip>
    <ImageClip extentID="682" gapBefore="0" mediaItemID="678" duration="0.10000000000000001">
      <Effects />
      <Transitions />
      <BoundProperties>
        <BoundPropertyInt Name="rotateStepNinety" Value="0" />
      </BoundProperties>
    </ImageClip>
    <ImageClip extentID="161" gapBefore="0" mediaItemID="157" duration="0.10000000000000001">
      <Effects />
      <Transitions />
      <BoundProperties>
        <BoundPropertyInt Name="rotateStepNinety" Value="0" />
      </BoundProperties>
    </ImageClip>
    <ImageClip extentID="683" gapBefore="0" mediaItemID="679" duration="0.10000000000000001">
      <Effects />
      <Transitions />
      <BoundProperties>
        <BoundPropertyInt Name="rotateStepNinety" Value="0" />
      </BoundProperties>
    </ImageClip>
    <ImageClip extentID="162" gapBefore="0" mediaItemID="158" duration="0.10000000000000001">
      <Effects />
      <Transitions />
      <BoundProperties>
        <BoundPropertyInt Name="rotateStepNinety" Value="0" />
      </BoundProperties>
    </ImageClip>
    <ImageClip extentID="684" gapBefore="0" mediaItemID="680" duration="0.10000000000000001">
      <Effects />
      <Transitions />
      <BoundProperties>
        <BoundPropertyInt Name="rotateStepNinety" Value="0" />
      </BoundProperties>
    </ImageClip>
    <ImageClip extentID="163" gapBefore="0" mediaItemID="159" duration="0.10000000000000001">
      <Effects />
      <Transitions />
      <BoundProperties>
        <BoundPropertyInt Name="rotateStepNinety" Value="0" />
      </BoundProperties>
    </ImageClip>
    <ImageClip extentID="685" gapBefore="0" mediaItemID="681" duration="0.10000000000000001">
      <Effects />
      <Transitions />
      <BoundProperties>
        <BoundPropertyInt Name="rotateStepNinety" Value="0" />
      </BoundProperties>
    </ImageClip>
    <ImageClip extentID="164" gapBefore="0" mediaItemID="160" duration="0.10000000000000001">
      <Effects />
      <Transitions />
      <BoundProperties>
        <BoundPropertyInt Name="rotateStepNinety" Value="0" />
      </BoundProperties>
    </ImageClip>
    <ImageClip extentID="686" gapBefore="0" mediaItemID="682" duration="0.10000000000000001">
      <Effects />
      <Transitions />
      <BoundProperties>
        <BoundPropertyInt Name="rotateStepNinety" Value="0" />
      </BoundProperties>
    </ImageClip>
    <ImageClip extentID="165" gapBefore="0" mediaItemID="161" duration="0.10000000000000001">
      <Effects />
      <Transitions />
      <BoundProperties>
        <BoundPropertyInt Name="rotateStepNinety" Value="0" />
      </BoundProperties>
    </ImageClip>
    <ImageClip extentID="687" gapBefore="0" mediaItemID="683" duration="0.10000000000000001">
      <Effects />
      <Transitions />
      <BoundProperties>
        <BoundPropertyInt Name="rotateStepNinety" Value="0" />
      </BoundProperties>
    </ImageClip>
    <ImageClip extentID="166" gapBefore="0" mediaItemID="162" duration="0.10000000000000001">
      <Effects />
      <Transitions />
      <BoundProperties>
        <BoundPropertyInt Name="rotateStepNinety" Value="0" />
      </BoundProperties>
    </ImageClip>
    <ImageClip extentID="688" gapBefore="0" mediaItemID="684" duration="0.10000000000000001">
      <Effects />
      <Transitions />
      <BoundProperties>
        <BoundPropertyInt Name="rotateStepNinety" Value="0" />
      </BoundProperties>
    </ImageClip>
    <ImageClip extentID="167" gapBefore="0" mediaItemID="163" duration="0.10000000000000001">
      <Effects />
      <Transitions />
      <BoundProperties>
        <BoundPropertyInt Name="rotateStepNinety" Value="0" />
      </BoundProperties>
    </ImageClip>
    <ImageClip extentID="689" gapBefore="0" mediaItemID="685" duration="0.10000000000000001">
      <Effects />
      <Transitions />
      <BoundProperties>
        <BoundPropertyInt Name="rotateStepNinety" Value="0" />
      </BoundProperties>
    </ImageClip>
    <ImageClip extentID="168" gapBefore="0" mediaItemID="164" duration="0.10000000000000001">
      <Effects />
      <Transitions />
      <BoundProperties>
        <BoundPropertyInt Name="rotateStepNinety" Value="0" />
      </BoundProperties>
    </ImageClip>
    <ImageClip extentID="690" gapBefore="0" mediaItemID="686" duration="0.10000000000000001">
      <Effects />
      <Transitions />
      <BoundProperties>
        <BoundPropertyInt Name="rotateStepNinety" Value="0" />
      </BoundProperties>
    </ImageClip>
    <ImageClip extentID="169" gapBefore="0" mediaItemID="165" duration="0.10000000000000001">
      <Effects />
      <Transitions />
      <BoundProperties>
        <BoundPropertyInt Name="rotateStepNinety" Value="0" />
      </BoundProperties>
    </ImageClip>
    <ImageClip extentID="691" gapBefore="0" mediaItemID="687" duration="0.10000000000000001">
      <Effects />
      <Transitions />
      <BoundProperties>
        <BoundPropertyInt Name="rotateStepNinety" Value="0" />
      </BoundProperties>
    </ImageClip>
    <ImageClip extentID="170" gapBefore="0" mediaItemID="166" duration="0.10000000000000001">
      <Effects />
      <Transitions />
      <BoundProperties>
        <BoundPropertyInt Name="rotateStepNinety" Value="0" />
      </BoundProperties>
    </ImageClip>
    <ImageClip extentID="692" gapBefore="0" mediaItemID="688" duration="0.10000000000000001">
      <Effects />
      <Transitions />
      <BoundProperties>
        <BoundPropertyInt Name="rotateStepNinety" Value="0" />
      </BoundProperties>
    </ImageClip>
    <ImageClip extentID="171" gapBefore="0" mediaItemID="167" duration="0.10000000000000001">
      <Effects />
      <Transitions />
      <BoundProperties>
        <BoundPropertyInt Name="rotateStepNinety" Value="0" />
      </BoundProperties>
    </ImageClip>
    <ImageClip extentID="693" gapBefore="0" mediaItemID="689" duration="0.10000000000000001">
      <Effects />
      <Transitions />
      <BoundProperties>
        <BoundPropertyInt Name="rotateStepNinety" Value="0" />
      </BoundProperties>
    </ImageClip>
    <ImageClip extentID="172" gapBefore="0" mediaItemID="168" duration="0.10000000000000001">
      <Effects />
      <Transitions />
      <BoundProperties>
        <BoundPropertyInt Name="rotateStepNinety" Value="0" />
      </BoundProperties>
    </ImageClip>
    <ImageClip extentID="694" gapBefore="0" mediaItemID="690" duration="0.10000000000000001">
      <Effects />
      <Transitions />
      <BoundProperties>
        <BoundPropertyInt Name="rotateStepNinety" Value="0" />
      </BoundProperties>
    </ImageClip>
    <ImageClip extentID="173" gapBefore="0" mediaItemID="169" duration="0.10000000000000001">
      <Effects />
      <Transitions />
      <BoundProperties>
        <BoundPropertyInt Name="rotateStepNinety" Value="0" />
      </BoundProperties>
    </ImageClip>
    <ImageClip extentID="695" gapBefore="0" mediaItemID="691" duration="0.10000000000000001">
      <Effects />
      <Transitions />
      <BoundProperties>
        <BoundPropertyInt Name="rotateStepNinety" Value="0" />
      </BoundProperties>
    </ImageClip>
    <ImageClip extentID="174" gapBefore="0" mediaItemID="170" duration="0.10000000000000001">
      <Effects />
      <Transitions />
      <BoundProperties>
        <BoundPropertyInt Name="rotateStepNinety" Value="0" />
      </BoundProperties>
    </ImageClip>
    <ImageClip extentID="696" gapBefore="0" mediaItemID="692" duration="0.10000000000000001">
      <Effects />
      <Transitions />
      <BoundProperties>
        <BoundPropertyInt Name="rotateStepNinety" Value="0" />
      </BoundProperties>
    </ImageClip>
    <ImageClip extentID="175" gapBefore="0" mediaItemID="171" duration="0.10000000000000001">
      <Effects />
      <Transitions />
      <BoundProperties>
        <BoundPropertyInt Name="rotateStepNinety" Value="0" />
      </BoundProperties>
    </ImageClip>
    <ImageClip extentID="697" gapBefore="0" mediaItemID="693" duration="0.10000000000000001">
      <Effects />
      <Transitions />
      <BoundProperties>
        <BoundPropertyInt Name="rotateStepNinety" Value="0" />
      </BoundProperties>
    </ImageClip>
    <ImageClip extentID="176" gapBefore="0" mediaItemID="172" duration="0.10000000000000001">
      <Effects />
      <Transitions />
      <BoundProperties>
        <BoundPropertyInt Name="rotateStepNinety" Value="0" />
      </BoundProperties>
    </ImageClip>
    <ImageClip extentID="698" gapBefore="0" mediaItemID="694" duration="0.10000000000000001">
      <Effects />
      <Transitions />
      <BoundProperties>
        <BoundPropertyInt Name="rotateStepNinety" Value="0" />
      </BoundProperties>
    </ImageClip>
    <ImageClip extentID="177" gapBefore="0" mediaItemID="173" duration="0.10000000000000001">
      <Effects />
      <Transitions />
      <BoundProperties>
        <BoundPropertyInt Name="rotateStepNinety" Value="0" />
      </BoundProperties>
    </ImageClip>
    <ImageClip extentID="699" gapBefore="0" mediaItemID="695" duration="0.10000000000000001">
      <Effects />
      <Transitions />
      <BoundProperties>
        <BoundPropertyInt Name="rotateStepNinety" Value="0" />
      </BoundProperties>
    </ImageClip>
    <ImageClip extentID="178" gapBefore="0" mediaItemID="174" duration="0.10000000000000001">
      <Effects />
      <Transitions />
      <BoundProperties>
        <BoundPropertyInt Name="rotateStepNinety" Value="0" />
      </BoundProperties>
    </ImageClip>
    <ImageClip extentID="700" gapBefore="0" mediaItemID="696" duration="0.10000000000000001">
      <Effects />
      <Transitions />
      <BoundProperties>
        <BoundPropertyInt Name="rotateStepNinety" Value="0" />
      </BoundProperties>
    </ImageClip>
    <ImageClip extentID="179" gapBefore="0" mediaItemID="175" duration="0.10000000000000001">
      <Effects />
      <Transitions />
      <BoundProperties>
        <BoundPropertyInt Name="rotateStepNinety" Value="0" />
      </BoundProperties>
    </ImageClip>
    <ImageClip extentID="701" gapBefore="0" mediaItemID="697" duration="0.10000000000000001">
      <Effects />
      <Transitions />
      <BoundProperties>
        <BoundPropertyInt Name="rotateStepNinety" Value="0" />
      </BoundProperties>
    </ImageClip>
    <ImageClip extentID="180" gapBefore="0" mediaItemID="176" duration="0.10000000000000001">
      <Effects />
      <Transitions />
      <BoundProperties>
        <BoundPropertyInt Name="rotateStepNinety" Value="0" />
      </BoundProperties>
    </ImageClip>
    <ImageClip extentID="702" gapBefore="0" mediaItemID="698" duration="0.10000000000000001">
      <Effects />
      <Transitions />
      <BoundProperties>
        <BoundPropertyInt Name="rotateStepNinety" Value="0" />
      </BoundProperties>
    </ImageClip>
    <ImageClip extentID="181" gapBefore="0" mediaItemID="177" duration="0.10000000000000001">
      <Effects />
      <Transitions />
      <BoundProperties>
        <BoundPropertyInt Name="rotateStepNinety" Value="0" />
      </BoundProperties>
    </ImageClip>
    <ImageClip extentID="703" gapBefore="0" mediaItemID="699" duration="0.10000000000000001">
      <Effects />
      <Transitions />
      <BoundProperties>
        <BoundPropertyInt Name="rotateStepNinety" Value="0" />
      </BoundProperties>
    </ImageClip>
    <ImageClip extentID="182" gapBefore="0" mediaItemID="178" duration="0.10000000000000001">
      <Effects />
      <Transitions />
      <BoundProperties>
        <BoundPropertyInt Name="rotateStepNinety" Value="0" />
      </BoundProperties>
    </ImageClip>
    <ImageClip extentID="704" gapBefore="0" mediaItemID="700" duration="0.10000000000000001">
      <Effects />
      <Transitions />
      <BoundProperties>
        <BoundPropertyInt Name="rotateStepNinety" Value="0" />
      </BoundProperties>
    </ImageClip>
    <ImageClip extentID="183" gapBefore="0" mediaItemID="179" duration="0.10000000000000001">
      <Effects />
      <Transitions />
      <BoundProperties>
        <BoundPropertyInt Name="rotateStepNinety" Value="0" />
      </BoundProperties>
    </ImageClip>
    <ImageClip extentID="705" gapBefore="0" mediaItemID="701" duration="0.10000000000000001">
      <Effects />
      <Transitions />
      <BoundProperties>
        <BoundPropertyInt Name="rotateStepNinety" Value="0" />
      </BoundProperties>
    </ImageClip>
    <ImageClip extentID="184" gapBefore="0" mediaItemID="180" duration="0.10000000000000001">
      <Effects />
      <Transitions />
      <BoundProperties>
        <BoundPropertyInt Name="rotateStepNinety" Value="0" />
      </BoundProperties>
    </ImageClip>
    <ImageClip extentID="706" gapBefore="0" mediaItemID="702" duration="0.10000000000000001">
      <Effects />
      <Transitions />
      <BoundProperties>
        <BoundPropertyInt Name="rotateStepNinety" Value="0" />
      </BoundProperties>
    </ImageClip>
    <ImageClip extentID="185" gapBefore="0" mediaItemID="181" duration="0.10000000000000001">
      <Effects />
      <Transitions />
      <BoundProperties>
        <BoundPropertyInt Name="rotateStepNinety" Value="0" />
      </BoundProperties>
    </ImageClip>
    <ImageClip extentID="707" gapBefore="0" mediaItemID="703" duration="0.10000000000000001">
      <Effects />
      <Transitions />
      <BoundProperties>
        <BoundPropertyInt Name="rotateStepNinety" Value="0" />
      </BoundProperties>
    </ImageClip>
    <ImageClip extentID="186" gapBefore="0" mediaItemID="182" duration="0.10000000000000001">
      <Effects />
      <Transitions />
      <BoundProperties>
        <BoundPropertyInt Name="rotateStepNinety" Value="0" />
      </BoundProperties>
    </ImageClip>
    <ImageClip extentID="708" gapBefore="0" mediaItemID="704" duration="0.10000000000000001">
      <Effects />
      <Transitions />
      <BoundProperties>
        <BoundPropertyInt Name="rotateStepNinety" Value="0" />
      </BoundProperties>
    </ImageClip>
    <ImageClip extentID="187" gapBefore="0" mediaItemID="183" duration="0.10000000000000001">
      <Effects />
      <Transitions />
      <BoundProperties>
        <BoundPropertyInt Name="rotateStepNinety" Value="0" />
      </BoundProperties>
    </ImageClip>
    <ImageClip extentID="709" gapBefore="0" mediaItemID="705" duration="0.10000000000000001">
      <Effects />
      <Transitions />
      <BoundProperties>
        <BoundPropertyInt Name="rotateStepNinety" Value="0" />
      </BoundProperties>
    </ImageClip>
    <ImageClip extentID="188" gapBefore="0" mediaItemID="184" duration="0.10000000000000001">
      <Effects />
      <Transitions />
      <BoundProperties>
        <BoundPropertyInt Name="rotateStepNinety" Value="0" />
      </BoundProperties>
    </ImageClip>
    <ImageClip extentID="710" gapBefore="0" mediaItemID="706" duration="0.10000000000000001">
      <Effects />
      <Transitions />
      <BoundProperties>
        <BoundPropertyInt Name="rotateStepNinety" Value="0" />
      </BoundProperties>
    </ImageClip>
    <ImageClip extentID="189" gapBefore="0" mediaItemID="185" duration="0.10000000000000001">
      <Effects />
      <Transitions />
      <BoundProperties>
        <BoundPropertyInt Name="rotateStepNinety" Value="0" />
      </BoundProperties>
    </ImageClip>
    <ImageClip extentID="711" gapBefore="0" mediaItemID="707" duration="0.10000000000000001">
      <Effects />
      <Transitions />
      <BoundProperties>
        <BoundPropertyInt Name="rotateStepNinety" Value="0" />
      </BoundProperties>
    </ImageClip>
    <ImageClip extentID="190" gapBefore="0" mediaItemID="186" duration="0.10000000000000001">
      <Effects />
      <Transitions />
      <BoundProperties>
        <BoundPropertyInt Name="rotateStepNinety" Value="0" />
      </BoundProperties>
    </ImageClip>
    <ImageClip extentID="712" gapBefore="0" mediaItemID="708" duration="0.10000000000000001">
      <Effects />
      <Transitions />
      <BoundProperties>
        <BoundPropertyInt Name="rotateStepNinety" Value="0" />
      </BoundProperties>
    </ImageClip>
    <ImageClip extentID="191" gapBefore="0" mediaItemID="187" duration="0.10000000000000001">
      <Effects />
      <Transitions />
      <BoundProperties>
        <BoundPropertyInt Name="rotateStepNinety" Value="0" />
      </BoundProperties>
    </ImageClip>
    <ImageClip extentID="713" gapBefore="0" mediaItemID="709" duration="0.10000000000000001">
      <Effects />
      <Transitions />
      <BoundProperties>
        <BoundPropertyInt Name="rotateStepNinety" Value="0" />
      </BoundProperties>
    </ImageClip>
    <ImageClip extentID="192" gapBefore="0" mediaItemID="188" duration="0.10000000000000001">
      <Effects />
      <Transitions />
      <BoundProperties>
        <BoundPropertyInt Name="rotateStepNinety" Value="0" />
      </BoundProperties>
    </ImageClip>
    <ImageClip extentID="714" gapBefore="0" mediaItemID="710" duration="0.10000000000000001">
      <Effects />
      <Transitions />
      <BoundProperties>
        <BoundPropertyInt Name="rotateStepNinety" Value="0" />
      </BoundProperties>
    </ImageClip>
    <ImageClip extentID="193" gapBefore="0" mediaItemID="189" duration="0.10000000000000001">
      <Effects />
      <Transitions />
      <BoundProperties>
        <BoundPropertyInt Name="rotateStepNinety" Value="0" />
      </BoundProperties>
    </ImageClip>
    <ImageClip extentID="715" gapBefore="0" mediaItemID="711" duration="0.10000000000000001">
      <Effects />
      <Transitions />
      <BoundProperties>
        <BoundPropertyInt Name="rotateStepNinety" Value="0" />
      </BoundProperties>
    </ImageClip>
    <ImageClip extentID="194" gapBefore="0" mediaItemID="190" duration="0.10000000000000001">
      <Effects />
      <Transitions />
      <BoundProperties>
        <BoundPropertyInt Name="rotateStepNinety" Value="0" />
      </BoundProperties>
    </ImageClip>
    <ImageClip extentID="716" gapBefore="0" mediaItemID="712" duration="0.10000000000000001">
      <Effects />
      <Transitions />
      <BoundProperties>
        <BoundPropertyInt Name="rotateStepNinety" Value="0" />
      </BoundProperties>
    </ImageClip>
    <ImageClip extentID="195" gapBefore="0" mediaItemID="191" duration="0.10000000000000001">
      <Effects />
      <Transitions />
      <BoundProperties>
        <BoundPropertyInt Name="rotateStepNinety" Value="0" />
      </BoundProperties>
    </ImageClip>
    <ImageClip extentID="717" gapBefore="0" mediaItemID="713" duration="0.10000000000000001">
      <Effects />
      <Transitions />
      <BoundProperties>
        <BoundPropertyInt Name="rotateStepNinety" Value="0" />
      </BoundProperties>
    </ImageClip>
    <ImageClip extentID="196" gapBefore="0" mediaItemID="192" duration="0.10000000000000001">
      <Effects />
      <Transitions />
      <BoundProperties>
        <BoundPropertyInt Name="rotateStepNinety" Value="0" />
      </BoundProperties>
    </ImageClip>
    <ImageClip extentID="718" gapBefore="0" mediaItemID="714" duration="0.10000000000000001">
      <Effects />
      <Transitions />
      <BoundProperties>
        <BoundPropertyInt Name="rotateStepNinety" Value="0" />
      </BoundProperties>
    </ImageClip>
    <ImageClip extentID="197" gapBefore="0" mediaItemID="193" duration="0.10000000000000001">
      <Effects />
      <Transitions />
      <BoundProperties>
        <BoundPropertyInt Name="rotateStepNinety" Value="0" />
      </BoundProperties>
    </ImageClip>
    <ImageClip extentID="719" gapBefore="0" mediaItemID="715" duration="0.10000000000000001">
      <Effects />
      <Transitions />
      <BoundProperties>
        <BoundPropertyInt Name="rotateStepNinety" Value="0" />
      </BoundProperties>
    </ImageClip>
    <ImageClip extentID="198" gapBefore="0" mediaItemID="194" duration="0.10000000000000001">
      <Effects />
      <Transitions />
      <BoundProperties>
        <BoundPropertyInt Name="rotateStepNinety" Value="0" />
      </BoundProperties>
    </ImageClip>
    <ImageClip extentID="720" gapBefore="0" mediaItemID="716" duration="0.10000000000000001">
      <Effects />
      <Transitions />
      <BoundProperties>
        <BoundPropertyInt Name="rotateStepNinety" Value="0" />
      </BoundProperties>
    </ImageClip>
    <ImageClip extentID="199" gapBefore="0" mediaItemID="195" duration="0.10000000000000001">
      <Effects />
      <Transitions />
      <BoundProperties>
        <BoundPropertyInt Name="rotateStepNinety" Value="0" />
      </BoundProperties>
    </ImageClip>
    <ImageClip extentID="721" gapBefore="0" mediaItemID="717" duration="0.10000000000000001">
      <Effects />
      <Transitions />
      <BoundProperties>
        <BoundPropertyInt Name="rotateStepNinety" Value="0" />
      </BoundProperties>
    </ImageClip>
    <ImageClip extentID="200" gapBefore="0" mediaItemID="196" duration="0.10000000000000001">
      <Effects />
      <Transitions />
      <BoundProperties>
        <BoundPropertyInt Name="rotateStepNinety" Value="0" />
      </BoundProperties>
    </ImageClip>
    <ImageClip extentID="722" gapBefore="0" mediaItemID="718" duration="0.10000000000000001">
      <Effects />
      <Transitions />
      <BoundProperties>
        <BoundPropertyInt Name="rotateStepNinety" Value="0" />
      </BoundProperties>
    </ImageClip>
    <ImageClip extentID="201" gapBefore="0" mediaItemID="197" duration="0.10000000000000001">
      <Effects />
      <Transitions />
      <BoundProperties>
        <BoundPropertyInt Name="rotateStepNinety" Value="0" />
      </BoundProperties>
    </ImageClip>
    <ImageClip extentID="723" gapBefore="0" mediaItemID="719" duration="0.10000000000000001">
      <Effects />
      <Transitions />
      <BoundProperties>
        <BoundPropertyInt Name="rotateStepNinety" Value="0" />
      </BoundProperties>
    </ImageClip>
    <ImageClip extentID="202" gapBefore="0" mediaItemID="198" duration="0.10000000000000001">
      <Effects />
      <Transitions />
      <BoundProperties>
        <BoundPropertyInt Name="rotateStepNinety" Value="0" />
      </BoundProperties>
    </ImageClip>
    <ImageClip extentID="724" gapBefore="0" mediaItemID="720" duration="0.10000000000000001">
      <Effects />
      <Transitions />
      <BoundProperties>
        <BoundPropertyInt Name="rotateStepNinety" Value="0" />
      </BoundProperties>
    </ImageClip>
    <ImageClip extentID="203" gapBefore="0" mediaItemID="199" duration="0.10000000000000001">
      <Effects />
      <Transitions />
      <BoundProperties>
        <BoundPropertyInt Name="rotateStepNinety" Value="0" />
      </BoundProperties>
    </ImageClip>
    <ImageClip extentID="725" gapBefore="0" mediaItemID="721" duration="0.10000000000000001">
      <Effects />
      <Transitions />
      <BoundProperties>
        <BoundPropertyInt Name="rotateStepNinety" Value="0" />
      </BoundProperties>
    </ImageClip>
    <ImageClip extentID="204" gapBefore="0" mediaItemID="200" duration="0.10000000000000001">
      <Effects />
      <Transitions />
      <BoundProperties>
        <BoundPropertyInt Name="rotateStepNinety" Value="0" />
      </BoundProperties>
    </ImageClip>
    <ImageClip extentID="726" gapBefore="0" mediaItemID="722" duration="0.10000000000000001">
      <Effects />
      <Transitions />
      <BoundProperties>
        <BoundPropertyInt Name="rotateStepNinety" Value="0" />
      </BoundProperties>
    </ImageClip>
    <ImageClip extentID="205" gapBefore="0" mediaItemID="201" duration="0.10000000000000001">
      <Effects />
      <Transitions />
      <BoundProperties>
        <BoundPropertyInt Name="rotateStepNinety" Value="0" />
      </BoundProperties>
    </ImageClip>
    <ImageClip extentID="727" gapBefore="0" mediaItemID="723" duration="0.10000000000000001">
      <Effects />
      <Transitions />
      <BoundProperties>
        <BoundPropertyInt Name="rotateStepNinety" Value="0" />
      </BoundProperties>
    </ImageClip>
    <ImageClip extentID="206" gapBefore="0" mediaItemID="202" duration="0.10000000000000001">
      <Effects />
      <Transitions />
      <BoundProperties>
        <BoundPropertyInt Name="rotateStepNinety" Value="0" />
      </BoundProperties>
    </ImageClip>
    <ImageClip extentID="728" gapBefore="0" mediaItemID="724" duration="0.10000000000000001">
      <Effects />
      <Transitions />
      <BoundProperties>
        <BoundPropertyInt Name="rotateStepNinety" Value="0" />
      </BoundProperties>
    </ImageClip>
    <ImageClip extentID="207" gapBefore="0" mediaItemID="203" duration="0.10000000000000001">
      <Effects />
      <Transitions />
      <BoundProperties>
        <BoundPropertyInt Name="rotateStepNinety" Value="0" />
      </BoundProperties>
    </ImageClip>
    <ImageClip extentID="729" gapBefore="0" mediaItemID="725" duration="0.10000000000000001">
      <Effects />
      <Transitions />
      <BoundProperties>
        <BoundPropertyInt Name="rotateStepNinety" Value="0" />
      </BoundProperties>
    </ImageClip>
    <ImageClip extentID="208" gapBefore="0" mediaItemID="204" duration="0.10000000000000001">
      <Effects />
      <Transitions />
      <BoundProperties>
        <BoundPropertyInt Name="rotateStepNinety" Value="0" />
      </BoundProperties>
    </ImageClip>
    <ImageClip extentID="730" gapBefore="0" mediaItemID="726" duration="0.10000000000000001">
      <Effects />
      <Transitions />
      <BoundProperties>
        <BoundPropertyInt Name="rotateStepNinety" Value="0" />
      </BoundProperties>
    </ImageClip>
    <ImageClip extentID="209" gapBefore="0" mediaItemID="205" duration="0.10000000000000001">
      <Effects />
      <Transitions />
      <BoundProperties>
        <BoundPropertyInt Name="rotateStepNinety" Value="0" />
      </BoundProperties>
    </ImageClip>
    <ImageClip extentID="731" gapBefore="0" mediaItemID="727" duration="0.10000000000000001">
      <Effects />
      <Transitions />
      <BoundProperties>
        <BoundPropertyInt Name="rotateStepNinety" Value="0" />
      </BoundProperties>
    </ImageClip>
    <ImageClip extentID="210" gapBefore="0" mediaItemID="206" duration="0.10000000000000001">
      <Effects />
      <Transitions />
      <BoundProperties>
        <BoundPropertyInt Name="rotateStepNinety" Value="0" />
      </BoundProperties>
    </ImageClip>
    <ImageClip extentID="732" gapBefore="0" mediaItemID="728" duration="0.10000000000000001">
      <Effects />
      <Transitions />
      <BoundProperties>
        <BoundPropertyInt Name="rotateStepNinety" Value="0" />
      </BoundProperties>
    </ImageClip>
    <ImageClip extentID="211" gapBefore="0" mediaItemID="207" duration="0.10000000000000001">
      <Effects />
      <Transitions />
      <BoundProperties>
        <BoundPropertyInt Name="rotateStepNinety" Value="0" />
      </BoundProperties>
    </ImageClip>
    <ImageClip extentID="733" gapBefore="0" mediaItemID="729" duration="0.10000000000000001">
      <Effects />
      <Transitions />
      <BoundProperties>
        <BoundPropertyInt Name="rotateStepNinety" Value="0" />
      </BoundProperties>
    </ImageClip>
    <ImageClip extentID="212" gapBefore="0" mediaItemID="208" duration="0.10000000000000001">
      <Effects />
      <Transitions />
      <BoundProperties>
        <BoundPropertyInt Name="rotateStepNinety" Value="0" />
      </BoundProperties>
    </ImageClip>
    <ImageClip extentID="734" gapBefore="0" mediaItemID="730" duration="0.10000000000000001">
      <Effects />
      <Transitions />
      <BoundProperties>
        <BoundPropertyInt Name="rotateStepNinety" Value="0" />
      </BoundProperties>
    </ImageClip>
    <ImageClip extentID="213" gapBefore="0" mediaItemID="209" duration="0.10000000000000001">
      <Effects />
      <Transitions />
      <BoundProperties>
        <BoundPropertyInt Name="rotateStepNinety" Value="0" />
      </BoundProperties>
    </ImageClip>
    <ImageClip extentID="735" gapBefore="0" mediaItemID="731" duration="0.10000000000000001">
      <Effects />
      <Transitions />
      <BoundProperties>
        <BoundPropertyInt Name="rotateStepNinety" Value="0" />
      </BoundProperties>
    </ImageClip>
    <ImageClip extentID="214" gapBefore="0" mediaItemID="210" duration="0.10000000000000001">
      <Effects />
      <Transitions />
      <BoundProperties>
        <BoundPropertyInt Name="rotateStepNinety" Value="0" />
      </BoundProperties>
    </ImageClip>
    <ImageClip extentID="736" gapBefore="0" mediaItemID="732" duration="0.10000000000000001">
      <Effects />
      <Transitions />
      <BoundProperties>
        <BoundPropertyInt Name="rotateStepNinety" Value="0" />
      </BoundProperties>
    </ImageClip>
    <ImageClip extentID="215" gapBefore="0" mediaItemID="211" duration="0.10000000000000001">
      <Effects />
      <Transitions />
      <BoundProperties>
        <BoundPropertyInt Name="rotateStepNinety" Value="0" />
      </BoundProperties>
    </ImageClip>
    <ImageClip extentID="737" gapBefore="0" mediaItemID="733" duration="0.10000000000000001">
      <Effects />
      <Transitions />
      <BoundProperties>
        <BoundPropertyInt Name="rotateStepNinety" Value="0" />
      </BoundProperties>
    </ImageClip>
    <ImageClip extentID="216" gapBefore="0" mediaItemID="212" duration="0.10000000000000001">
      <Effects />
      <Transitions />
      <BoundProperties>
        <BoundPropertyInt Name="rotateStepNinety" Value="0" />
      </BoundProperties>
    </ImageClip>
    <ImageClip extentID="738" gapBefore="0" mediaItemID="734" duration="0.10000000000000001">
      <Effects />
      <Transitions />
      <BoundProperties>
        <BoundPropertyInt Name="rotateStepNinety" Value="0" />
      </BoundProperties>
    </ImageClip>
    <ImageClip extentID="217" gapBefore="0" mediaItemID="213" duration="0.10000000000000001">
      <Effects />
      <Transitions />
      <BoundProperties>
        <BoundPropertyInt Name="rotateStepNinety" Value="0" />
      </BoundProperties>
    </ImageClip>
    <ImageClip extentID="739" gapBefore="0" mediaItemID="735" duration="0.10000000000000001">
      <Effects />
      <Transitions />
      <BoundProperties>
        <BoundPropertyInt Name="rotateStepNinety" Value="0" />
      </BoundProperties>
    </ImageClip>
    <ImageClip extentID="218" gapBefore="0" mediaItemID="214" duration="0.10000000000000001">
      <Effects />
      <Transitions />
      <BoundProperties>
        <BoundPropertyInt Name="rotateStepNinety" Value="0" />
      </BoundProperties>
    </ImageClip>
    <ImageClip extentID="740" gapBefore="0" mediaItemID="736" duration="0.10000000000000001">
      <Effects />
      <Transitions />
      <BoundProperties>
        <BoundPropertyInt Name="rotateStepNinety" Value="0" />
      </BoundProperties>
    </ImageClip>
    <ImageClip extentID="219" gapBefore="0" mediaItemID="215" duration="0.10000000000000001">
      <Effects />
      <Transitions />
      <BoundProperties>
        <BoundPropertyInt Name="rotateStepNinety" Value="0" />
      </BoundProperties>
    </ImageClip>
    <ImageClip extentID="741" gapBefore="0" mediaItemID="737" duration="0.10000000000000001">
      <Effects />
      <Transitions />
      <BoundProperties>
        <BoundPropertyInt Name="rotateStepNinety" Value="0" />
      </BoundProperties>
    </ImageClip>
    <ImageClip extentID="220" gapBefore="0" mediaItemID="216" duration="0.10000000000000001">
      <Effects />
      <Transitions />
      <BoundProperties>
        <BoundPropertyInt Name="rotateStepNinety" Value="0" />
      </BoundProperties>
    </ImageClip>
    <ImageClip extentID="742" gapBefore="0" mediaItemID="738" duration="0.10000000000000001">
      <Effects />
      <Transitions />
      <BoundProperties>
        <BoundPropertyInt Name="rotateStepNinety" Value="0" />
      </BoundProperties>
    </ImageClip>
    <ImageClip extentID="221" gapBefore="0" mediaItemID="217" duration="0.10000000000000001">
      <Effects />
      <Transitions />
      <BoundProperties>
        <BoundPropertyInt Name="rotateStepNinety" Value="0" />
      </BoundProperties>
    </ImageClip>
    <ImageClip extentID="743" gapBefore="0" mediaItemID="739" duration="0.10000000000000001">
      <Effects />
      <Transitions />
      <BoundProperties>
        <BoundPropertyInt Name="rotateStepNinety" Value="0" />
      </BoundProperties>
    </ImageClip>
    <ImageClip extentID="222" gapBefore="0" mediaItemID="218" duration="0.10000000000000001">
      <Effects />
      <Transitions />
      <BoundProperties>
        <BoundPropertyInt Name="rotateStepNinety" Value="0" />
      </BoundProperties>
    </ImageClip>
    <ImageClip extentID="744" gapBefore="0" mediaItemID="740" duration="0.10000000000000001">
      <Effects />
      <Transitions />
      <BoundProperties>
        <BoundPropertyInt Name="rotateStepNinety" Value="0" />
      </BoundProperties>
    </ImageClip>
    <ImageClip extentID="223" gapBefore="0" mediaItemID="219" duration="0.10000000000000001">
      <Effects />
      <Transitions />
      <BoundProperties>
        <BoundPropertyInt Name="rotateStepNinety" Value="0" />
      </BoundProperties>
    </ImageClip>
    <ImageClip extentID="745" gapBefore="0" mediaItemID="741" duration="0.10000000000000001">
      <Effects />
      <Transitions />
      <BoundProperties>
        <BoundPropertyInt Name="rotateStepNinety" Value="0" />
      </BoundProperties>
    </ImageClip>
    <ImageClip extentID="224" gapBefore="0" mediaItemID="220" duration="0.10000000000000001">
      <Effects />
      <Transitions />
      <BoundProperties>
        <BoundPropertyInt Name="rotateStepNinety" Value="0" />
      </BoundProperties>
    </ImageClip>
    <ImageClip extentID="746" gapBefore="0" mediaItemID="742" duration="0.10000000000000001">
      <Effects />
      <Transitions />
      <BoundProperties>
        <BoundPropertyInt Name="rotateStepNinety" Value="0" />
      </BoundProperties>
    </ImageClip>
    <ImageClip extentID="225" gapBefore="0" mediaItemID="221" duration="0.10000000000000001">
      <Effects />
      <Transitions />
      <BoundProperties>
        <BoundPropertyInt Name="rotateStepNinety" Value="0" />
      </BoundProperties>
    </ImageClip>
    <ImageClip extentID="747" gapBefore="0" mediaItemID="743" duration="0.10000000000000001">
      <Effects />
      <Transitions />
      <BoundProperties>
        <BoundPropertyInt Name="rotateStepNinety" Value="0" />
      </BoundProperties>
    </ImageClip>
    <ImageClip extentID="226" gapBefore="0" mediaItemID="222" duration="0.10000000000000001">
      <Effects />
      <Transitions />
      <BoundProperties>
        <BoundPropertyInt Name="rotateStepNinety" Value="0" />
      </BoundProperties>
    </ImageClip>
    <ImageClip extentID="748" gapBefore="0" mediaItemID="744" duration="0.10000000000000001">
      <Effects />
      <Transitions />
      <BoundProperties>
        <BoundPropertyInt Name="rotateStepNinety" Value="0" />
      </BoundProperties>
    </ImageClip>
    <ImageClip extentID="227" gapBefore="0" mediaItemID="223" duration="0.10000000000000001">
      <Effects />
      <Transitions />
      <BoundProperties>
        <BoundPropertyInt Name="rotateStepNinety" Value="0" />
      </BoundProperties>
    </ImageClip>
    <ImageClip extentID="749" gapBefore="0" mediaItemID="745" duration="0.10000000000000001">
      <Effects />
      <Transitions />
      <BoundProperties>
        <BoundPropertyInt Name="rotateStepNinety" Value="0" />
      </BoundProperties>
    </ImageClip>
    <ImageClip extentID="228" gapBefore="0" mediaItemID="224" duration="0.10000000000000001">
      <Effects />
      <Transitions />
      <BoundProperties>
        <BoundPropertyInt Name="rotateStepNinety" Value="0" />
      </BoundProperties>
    </ImageClip>
    <ImageClip extentID="750" gapBefore="0" mediaItemID="746" duration="0.10000000000000001">
      <Effects />
      <Transitions />
      <BoundProperties>
        <BoundPropertyInt Name="rotateStepNinety" Value="0" />
      </BoundProperties>
    </ImageClip>
    <ImageClip extentID="229" gapBefore="0" mediaItemID="225" duration="0.10000000000000001">
      <Effects />
      <Transitions />
      <BoundProperties>
        <BoundPropertyInt Name="rotateStepNinety" Value="0" />
      </BoundProperties>
    </ImageClip>
    <ImageClip extentID="751" gapBefore="0" mediaItemID="747" duration="0.10000000000000001">
      <Effects />
      <Transitions />
      <BoundProperties>
        <BoundPropertyInt Name="rotateStepNinety" Value="0" />
      </BoundProperties>
    </ImageClip>
    <ImageClip extentID="230" gapBefore="0" mediaItemID="226" duration="0.10000000000000001">
      <Effects />
      <Transitions />
      <BoundProperties>
        <BoundPropertyInt Name="rotateStepNinety" Value="0" />
      </BoundProperties>
    </ImageClip>
    <ImageClip extentID="752" gapBefore="0" mediaItemID="748" duration="0.10000000000000001">
      <Effects />
      <Transitions />
      <BoundProperties>
        <BoundPropertyInt Name="rotateStepNinety" Value="0" />
      </BoundProperties>
    </ImageClip>
    <ImageClip extentID="231" gapBefore="0" mediaItemID="227" duration="0.10000000000000001">
      <Effects />
      <Transitions />
      <BoundProperties>
        <BoundPropertyInt Name="rotateStepNinety" Value="0" />
      </BoundProperties>
    </ImageClip>
    <ImageClip extentID="753" gapBefore="0" mediaItemID="749" duration="0.10000000000000001">
      <Effects />
      <Transitions />
      <BoundProperties>
        <BoundPropertyInt Name="rotateStepNinety" Value="0" />
      </BoundProperties>
    </ImageClip>
    <ImageClip extentID="232" gapBefore="0" mediaItemID="228" duration="0.10000000000000001">
      <Effects />
      <Transitions />
      <BoundProperties>
        <BoundPropertyInt Name="rotateStepNinety" Value="0" />
      </BoundProperties>
    </ImageClip>
    <ImageClip extentID="754" gapBefore="0" mediaItemID="750" duration="0.10000000000000001">
      <Effects />
      <Transitions />
      <BoundProperties>
        <BoundPropertyInt Name="rotateStepNinety" Value="0" />
      </BoundProperties>
    </ImageClip>
    <ImageClip extentID="233" gapBefore="0" mediaItemID="229" duration="0.10000000000000001">
      <Effects />
      <Transitions />
      <BoundProperties>
        <BoundPropertyInt Name="rotateStepNinety" Value="0" />
      </BoundProperties>
    </ImageClip>
    <ImageClip extentID="755" gapBefore="0" mediaItemID="751" duration="0.10000000000000001">
      <Effects />
      <Transitions />
      <BoundProperties>
        <BoundPropertyInt Name="rotateStepNinety" Value="0" />
      </BoundProperties>
    </ImageClip>
    <ImageClip extentID="234" gapBefore="0" mediaItemID="230" duration="0.10000000000000001">
      <Effects />
      <Transitions />
      <BoundProperties>
        <BoundPropertyInt Name="rotateStepNinety" Value="0" />
      </BoundProperties>
    </ImageClip>
    <ImageClip extentID="756" gapBefore="0" mediaItemID="752" duration="0.10000000000000001">
      <Effects />
      <Transitions />
      <BoundProperties>
        <BoundPropertyInt Name="rotateStepNinety" Value="0" />
      </BoundProperties>
    </ImageClip>
    <ImageClip extentID="235" gapBefore="0" mediaItemID="231" duration="0.10000000000000001">
      <Effects />
      <Transitions />
      <BoundProperties>
        <BoundPropertyInt Name="rotateStepNinety" Value="0" />
      </BoundProperties>
    </ImageClip>
    <ImageClip extentID="757" gapBefore="0" mediaItemID="753" duration="0.10000000000000001">
      <Effects />
      <Transitions />
      <BoundProperties>
        <BoundPropertyInt Name="rotateStepNinety" Value="0" />
      </BoundProperties>
    </ImageClip>
    <ImageClip extentID="236" gapBefore="0" mediaItemID="232" duration="0.10000000000000001">
      <Effects />
      <Transitions />
      <BoundProperties>
        <BoundPropertyInt Name="rotateStepNinety" Value="0" />
      </BoundProperties>
    </ImageClip>
    <ImageClip extentID="758" gapBefore="0" mediaItemID="754" duration="0.10000000000000001">
      <Effects />
      <Transitions />
      <BoundProperties>
        <BoundPropertyInt Name="rotateStepNinety" Value="0" />
      </BoundProperties>
    </ImageClip>
    <ImageClip extentID="237" gapBefore="0" mediaItemID="233" duration="0.10000000000000001">
      <Effects />
      <Transitions />
      <BoundProperties>
        <BoundPropertyInt Name="rotateStepNinety" Value="0" />
      </BoundProperties>
    </ImageClip>
    <ImageClip extentID="759" gapBefore="0" mediaItemID="755" duration="0.10000000000000001">
      <Effects />
      <Transitions />
      <BoundProperties>
        <BoundPropertyInt Name="rotateStepNinety" Value="0" />
      </BoundProperties>
    </ImageClip>
    <ImageClip extentID="238" gapBefore="0" mediaItemID="234" duration="0.10000000000000001">
      <Effects />
      <Transitions />
      <BoundProperties>
        <BoundPropertyInt Name="rotateStepNinety" Value="0" />
      </BoundProperties>
    </ImageClip>
    <ImageClip extentID="760" gapBefore="0" mediaItemID="756" duration="0.10000000000000001">
      <Effects />
      <Transitions />
      <BoundProperties>
        <BoundPropertyInt Name="rotateStepNinety" Value="0" />
      </BoundProperties>
    </ImageClip>
    <ImageClip extentID="239" gapBefore="0" mediaItemID="235" duration="0.10000000000000001">
      <Effects />
      <Transitions />
      <BoundProperties>
        <BoundPropertyInt Name="rotateStepNinety" Value="0" />
      </BoundProperties>
    </ImageClip>
    <ImageClip extentID="761" gapBefore="0" mediaItemID="757" duration="0.10000000000000001">
      <Effects />
      <Transitions />
      <BoundProperties>
        <BoundPropertyInt Name="rotateStepNinety" Value="0" />
      </BoundProperties>
    </ImageClip>
    <ImageClip extentID="240" gapBefore="0" mediaItemID="236" duration="0.10000000000000001">
      <Effects />
      <Transitions />
      <BoundProperties>
        <BoundPropertyInt Name="rotateStepNinety" Value="0" />
      </BoundProperties>
    </ImageClip>
    <ImageClip extentID="762" gapBefore="0" mediaItemID="758" duration="0.10000000000000001">
      <Effects />
      <Transitions />
      <BoundProperties>
        <BoundPropertyInt Name="rotateStepNinety" Value="0" />
      </BoundProperties>
    </ImageClip>
    <ImageClip extentID="241" gapBefore="0" mediaItemID="237" duration="0.10000000000000001">
      <Effects />
      <Transitions />
      <BoundProperties>
        <BoundPropertyInt Name="rotateStepNinety" Value="0" />
      </BoundProperties>
    </ImageClip>
    <ImageClip extentID="763" gapBefore="0" mediaItemID="759" duration="0.10000000000000001">
      <Effects />
      <Transitions />
      <BoundProperties>
        <BoundPropertyInt Name="rotateStepNinety" Value="0" />
      </BoundProperties>
    </ImageClip>
    <ImageClip extentID="242" gapBefore="0" mediaItemID="238" duration="0.10000000000000001">
      <Effects />
      <Transitions />
      <BoundProperties>
        <BoundPropertyInt Name="rotateStepNinety" Value="0" />
      </BoundProperties>
    </ImageClip>
    <ImageClip extentID="764" gapBefore="0" mediaItemID="760" duration="0.10000000000000001">
      <Effects />
      <Transitions />
      <BoundProperties>
        <BoundPropertyInt Name="rotateStepNinety" Value="0" />
      </BoundProperties>
    </ImageClip>
    <ImageClip extentID="243" gapBefore="0" mediaItemID="239" duration="0.10000000000000001">
      <Effects />
      <Transitions />
      <BoundProperties>
        <BoundPropertyInt Name="rotateStepNinety" Value="0" />
      </BoundProperties>
    </ImageClip>
    <ImageClip extentID="765" gapBefore="0" mediaItemID="761" duration="0.10000000000000001">
      <Effects />
      <Transitions />
      <BoundProperties>
        <BoundPropertyInt Name="rotateStepNinety" Value="0" />
      </BoundProperties>
    </ImageClip>
    <ImageClip extentID="244" gapBefore="0" mediaItemID="240" duration="0.10000000000000001">
      <Effects />
      <Transitions />
      <BoundProperties>
        <BoundPropertyInt Name="rotateStepNinety" Value="0" />
      </BoundProperties>
    </ImageClip>
    <ImageClip extentID="766" gapBefore="0" mediaItemID="762" duration="0.10000000000000001">
      <Effects />
      <Transitions />
      <BoundProperties>
        <BoundPropertyInt Name="rotateStepNinety" Value="0" />
      </BoundProperties>
    </ImageClip>
    <ImageClip extentID="245" gapBefore="0" mediaItemID="241" duration="0.10000000000000001">
      <Effects />
      <Transitions />
      <BoundProperties>
        <BoundPropertyInt Name="rotateStepNinety" Value="0" />
      </BoundProperties>
    </ImageClip>
    <ImageClip extentID="767" gapBefore="0" mediaItemID="763" duration="0.10000000000000001">
      <Effects />
      <Transitions />
      <BoundProperties>
        <BoundPropertyInt Name="rotateStepNinety" Value="0" />
      </BoundProperties>
    </ImageClip>
    <ImageClip extentID="246" gapBefore="0" mediaItemID="242" duration="0.10000000000000001">
      <Effects />
      <Transitions />
      <BoundProperties>
        <BoundPropertyInt Name="rotateStepNinety" Value="0" />
      </BoundProperties>
    </ImageClip>
    <ImageClip extentID="768" gapBefore="0" mediaItemID="764" duration="0.10000000000000001">
      <Effects />
      <Transitions />
      <BoundProperties>
        <BoundPropertyInt Name="rotateStepNinety" Value="0" />
      </BoundProperties>
    </ImageClip>
    <ImageClip extentID="247" gapBefore="0" mediaItemID="243" duration="0.10000000000000001">
      <Effects />
      <Transitions />
      <BoundProperties>
        <BoundPropertyInt Name="rotateStepNinety" Value="0" />
      </BoundProperties>
    </ImageClip>
    <ImageClip extentID="769" gapBefore="0" mediaItemID="765" duration="0.10000000000000001">
      <Effects />
      <Transitions />
      <BoundProperties>
        <BoundPropertyInt Name="rotateStepNinety" Value="0" />
      </BoundProperties>
    </ImageClip>
    <ImageClip extentID="248" gapBefore="0" mediaItemID="244" duration="0.10000000000000001">
      <Effects />
      <Transitions />
      <BoundProperties>
        <BoundPropertyInt Name="rotateStepNinety" Value="0" />
      </BoundProperties>
    </ImageClip>
    <ImageClip extentID="770" gapBefore="0" mediaItemID="766" duration="0.10000000000000001">
      <Effects />
      <Transitions />
      <BoundProperties>
        <BoundPropertyInt Name="rotateStepNinety" Value="0" />
      </BoundProperties>
    </ImageClip>
    <ImageClip extentID="249" gapBefore="0" mediaItemID="245" duration="0.10000000000000001">
      <Effects />
      <Transitions />
      <BoundProperties>
        <BoundPropertyInt Name="rotateStepNinety" Value="0" />
      </BoundProperties>
    </ImageClip>
    <ImageClip extentID="771" gapBefore="0" mediaItemID="767" duration="0.10000000000000001">
      <Effects />
      <Transitions />
      <BoundProperties>
        <BoundPropertyInt Name="rotateStepNinety" Value="0" />
      </BoundProperties>
    </ImageClip>
    <ImageClip extentID="250" gapBefore="0" mediaItemID="246" duration="0.10000000000000001">
      <Effects />
      <Transitions />
      <BoundProperties>
        <BoundPropertyInt Name="rotateStepNinety" Value="0" />
      </BoundProperties>
    </ImageClip>
    <ImageClip extentID="772" gapBefore="0" mediaItemID="768" duration="0.10000000000000001">
      <Effects />
      <Transitions />
      <BoundProperties>
        <BoundPropertyInt Name="rotateStepNinety" Value="0" />
      </BoundProperties>
    </ImageClip>
    <ImageClip extentID="251" gapBefore="0" mediaItemID="247" duration="0.10000000000000001">
      <Effects />
      <Transitions />
      <BoundProperties>
        <BoundPropertyInt Name="rotateStepNinety" Value="0" />
      </BoundProperties>
    </ImageClip>
    <ImageClip extentID="773" gapBefore="0" mediaItemID="769" duration="0.10000000000000001">
      <Effects />
      <Transitions />
      <BoundProperties>
        <BoundPropertyInt Name="rotateStepNinety" Value="0" />
      </BoundProperties>
    </ImageClip>
    <ImageClip extentID="252" gapBefore="0" mediaItemID="248" duration="0.10000000000000001">
      <Effects />
      <Transitions />
      <BoundProperties>
        <BoundPropertyInt Name="rotateStepNinety" Value="0" />
      </BoundProperties>
    </ImageClip>
    <ImageClip extentID="774" gapBefore="0" mediaItemID="770" duration="0.10000000000000001">
      <Effects />
      <Transitions />
      <BoundProperties>
        <BoundPropertyInt Name="rotateStepNinety" Value="0" />
      </BoundProperties>
    </ImageClip>
    <ImageClip extentID="253" gapBefore="0" mediaItemID="249" duration="0.10000000000000001">
      <Effects />
      <Transitions />
      <BoundProperties>
        <BoundPropertyInt Name="rotateStepNinety" Value="0" />
      </BoundProperties>
    </ImageClip>
    <ImageClip extentID="775" gapBefore="0" mediaItemID="771" duration="0.10000000000000001">
      <Effects />
      <Transitions />
      <BoundProperties>
        <BoundPropertyInt Name="rotateStepNinety" Value="0" />
      </BoundProperties>
    </ImageClip>
    <ImageClip extentID="254" gapBefore="0" mediaItemID="250" duration="0.10000000000000001">
      <Effects />
      <Transitions />
      <BoundProperties>
        <BoundPropertyInt Name="rotateStepNinety" Value="0" />
      </BoundProperties>
    </ImageClip>
    <ImageClip extentID="776" gapBefore="0" mediaItemID="772" duration="0.10000000000000001">
      <Effects />
      <Transitions />
      <BoundProperties>
        <BoundPropertyInt Name="rotateStepNinety" Value="0" />
      </BoundProperties>
    </ImageClip>
    <ImageClip extentID="255" gapBefore="0" mediaItemID="251" duration="0.10000000000000001">
      <Effects />
      <Transitions />
      <BoundProperties>
        <BoundPropertyInt Name="rotateStepNinety" Value="0" />
      </BoundProperties>
    </ImageClip>
    <ImageClip extentID="777" gapBefore="0" mediaItemID="773" duration="0.10000000000000001">
      <Effects />
      <Transitions />
      <BoundProperties>
        <BoundPropertyInt Name="rotateStepNinety" Value="0" />
      </BoundProperties>
    </ImageClip>
    <ImageClip extentID="256" gapBefore="0" mediaItemID="252" duration="0.10000000000000001">
      <Effects />
      <Transitions />
      <BoundProperties>
        <BoundPropertyInt Name="rotateStepNinety" Value="0" />
      </BoundProperties>
    </ImageClip>
    <ImageClip extentID="778" gapBefore="0" mediaItemID="774" duration="0.10000000000000001">
      <Effects />
      <Transitions />
      <BoundProperties>
        <BoundPropertyInt Name="rotateStepNinety" Value="0" />
      </BoundProperties>
    </ImageClip>
    <ImageClip extentID="257" gapBefore="0" mediaItemID="253" duration="0.10000000000000001">
      <Effects />
      <Transitions />
      <BoundProperties>
        <BoundPropertyInt Name="rotateStepNinety" Value="0" />
      </BoundProperties>
    </ImageClip>
    <ImageClip extentID="779" gapBefore="0" mediaItemID="775" duration="0.10000000000000001">
      <Effects />
      <Transitions />
      <BoundProperties>
        <BoundPropertyInt Name="rotateStepNinety" Value="0" />
      </BoundProperties>
    </ImageClip>
    <ImageClip extentID="258" gapBefore="0" mediaItemID="254" duration="0.10000000000000001">
      <Effects />
      <Transitions />
      <BoundProperties>
        <BoundPropertyInt Name="rotateStepNinety" Value="0" />
      </BoundProperties>
    </ImageClip>
    <ImageClip extentID="780" gapBefore="0" mediaItemID="776" duration="0.10000000000000001">
      <Effects />
      <Transitions />
      <BoundProperties>
        <BoundPropertyInt Name="rotateStepNinety" Value="0" />
      </BoundProperties>
    </ImageClip>
    <ImageClip extentID="259" gapBefore="0" mediaItemID="255" duration="0.10000000000000001">
      <Effects />
      <Transitions />
      <BoundProperties>
        <BoundPropertyInt Name="rotateStepNinety" Value="0" />
      </BoundProperties>
    </ImageClip>
    <ImageClip extentID="781" gapBefore="0" mediaItemID="777" duration="0.10000000000000001">
      <Effects />
      <Transitions />
      <BoundProperties>
        <BoundPropertyInt Name="rotateStepNinety" Value="0" />
      </BoundProperties>
    </ImageClip>
    <ImageClip extentID="260" gapBefore="0" mediaItemID="256" duration="0.10000000000000001">
      <Effects />
      <Transitions />
      <BoundProperties>
        <BoundPropertyInt Name="rotateStepNinety" Value="0" />
      </BoundProperties>
    </ImageClip>
    <ImageClip extentID="782" gapBefore="0" mediaItemID="778" duration="0.10000000000000001">
      <Effects />
      <Transitions />
      <BoundProperties>
        <BoundPropertyInt Name="rotateStepNinety" Value="0" />
      </BoundProperties>
    </ImageClip>
    <ImageClip extentID="261" gapBefore="0" mediaItemID="257" duration="0.10000000000000001">
      <Effects />
      <Transitions />
      <BoundProperties>
        <BoundPropertyInt Name="rotateStepNinety" Value="0" />
      </BoundProperties>
    </ImageClip>
    <ImageClip extentID="783" gapBefore="0" mediaItemID="779" duration="0.10000000000000001">
      <Effects />
      <Transitions />
      <BoundProperties>
        <BoundPropertyInt Name="rotateStepNinety" Value="0" />
      </BoundProperties>
    </ImageClip>
    <ImageClip extentID="262" gapBefore="0" mediaItemID="258" duration="0.10000000000000001">
      <Effects />
      <Transitions />
      <BoundProperties>
        <BoundPropertyInt Name="rotateStepNinety" Value="0" />
      </BoundProperties>
    </ImageClip>
    <ImageClip extentID="784" gapBefore="0" mediaItemID="780" duration="0.10000000000000001">
      <Effects />
      <Transitions />
      <BoundProperties>
        <BoundPropertyInt Name="rotateStepNinety" Value="0" />
      </BoundProperties>
    </ImageClip>
    <ImageClip extentID="263" gapBefore="0" mediaItemID="259" duration="0.10000000000000001">
      <Effects />
      <Transitions />
      <BoundProperties>
        <BoundPropertyInt Name="rotateStepNinety" Value="0" />
      </BoundProperties>
    </ImageClip>
    <ImageClip extentID="785" gapBefore="0" mediaItemID="781" duration="0.10000000000000001">
      <Effects />
      <Transitions />
      <BoundProperties>
        <BoundPropertyInt Name="rotateStepNinety" Value="0" />
      </BoundProperties>
    </ImageClip>
    <ImageClip extentID="264" gapBefore="0" mediaItemID="260" duration="0.10000000000000001">
      <Effects />
      <Transitions />
      <BoundProperties>
        <BoundPropertyInt Name="rotateStepNinety" Value="0" />
      </BoundProperties>
    </ImageClip>
    <ImageClip extentID="786" gapBefore="0" mediaItemID="782" duration="0.10000000000000001">
      <Effects />
      <Transitions />
      <BoundProperties>
        <BoundPropertyInt Name="rotateStepNinety" Value="0" />
      </BoundProperties>
    </ImageClip>
    <ImageClip extentID="265" gapBefore="0" mediaItemID="261" duration="0.10000000000000001">
      <Effects />
      <Transitions />
      <BoundProperties>
        <BoundPropertyInt Name="rotateStepNinety" Value="0" />
      </BoundProperties>
    </ImageClip>
    <ImageClip extentID="787" gapBefore="0" mediaItemID="783" duration="0.10000000000000001">
      <Effects />
      <Transitions />
      <BoundProperties>
        <BoundPropertyInt Name="rotateStepNinety" Value="0" />
      </BoundProperties>
    </ImageClip>
    <ImageClip extentID="266" gapBefore="0" mediaItemID="262" duration="0.10000000000000001">
      <Effects />
      <Transitions />
      <BoundProperties>
        <BoundPropertyInt Name="rotateStepNinety" Value="0" />
      </BoundProperties>
    </ImageClip>
    <ImageClip extentID="788" gapBefore="0" mediaItemID="784" duration="0.10000000000000001">
      <Effects />
      <Transitions />
      <BoundProperties>
        <BoundPropertyInt Name="rotateStepNinety" Value="0" />
      </BoundProperties>
    </ImageClip>
    <ImageClip extentID="267" gapBefore="0" mediaItemID="263" duration="0.10000000000000001">
      <Effects />
      <Transitions />
      <BoundProperties>
        <BoundPropertyInt Name="rotateStepNinety" Value="0" />
      </BoundProperties>
    </ImageClip>
    <ImageClip extentID="789" gapBefore="0" mediaItemID="785" duration="0.10000000000000001">
      <Effects />
      <Transitions />
      <BoundProperties>
        <BoundPropertyInt Name="rotateStepNinety" Value="0" />
      </BoundProperties>
    </ImageClip>
    <ImageClip extentID="268" gapBefore="0" mediaItemID="264" duration="0.10000000000000001">
      <Effects />
      <Transitions />
      <BoundProperties>
        <BoundPropertyInt Name="rotateStepNinety" Value="0" />
      </BoundProperties>
    </ImageClip>
    <ImageClip extentID="790" gapBefore="0" mediaItemID="786" duration="0.10000000000000001">
      <Effects />
      <Transitions />
      <BoundProperties>
        <BoundPropertyInt Name="rotateStepNinety" Value="0" />
      </BoundProperties>
    </ImageClip>
    <ImageClip extentID="269" gapBefore="0" mediaItemID="265" duration="0.10000000000000001">
      <Effects />
      <Transitions />
      <BoundProperties>
        <BoundPropertyInt Name="rotateStepNinety" Value="0" />
      </BoundProperties>
    </ImageClip>
    <ImageClip extentID="791" gapBefore="0" mediaItemID="787" duration="0.10000000000000001">
      <Effects />
      <Transitions />
      <BoundProperties>
        <BoundPropertyInt Name="rotateStepNinety" Value="0" />
      </BoundProperties>
    </ImageClip>
    <ImageClip extentID="270" gapBefore="0" mediaItemID="266" duration="0.10000000000000001">
      <Effects />
      <Transitions />
      <BoundProperties>
        <BoundPropertyInt Name="rotateStepNinety" Value="0" />
      </BoundProperties>
    </ImageClip>
    <ImageClip extentID="792" gapBefore="0" mediaItemID="788" duration="0.10000000000000001">
      <Effects />
      <Transitions />
      <BoundProperties>
        <BoundPropertyInt Name="rotateStepNinety" Value="0" />
      </BoundProperties>
    </ImageClip>
    <ImageClip extentID="271" gapBefore="0" mediaItemID="267" duration="0.10000000000000001">
      <Effects />
      <Transitions />
      <BoundProperties>
        <BoundPropertyInt Name="rotateStepNinety" Value="0" />
      </BoundProperties>
    </ImageClip>
    <ImageClip extentID="793" gapBefore="0" mediaItemID="789" duration="0.10000000000000001">
      <Effects />
      <Transitions />
      <BoundProperties>
        <BoundPropertyInt Name="rotateStepNinety" Value="0" />
      </BoundProperties>
    </ImageClip>
    <ImageClip extentID="272" gapBefore="0" mediaItemID="268" duration="0.10000000000000001">
      <Effects />
      <Transitions />
      <BoundProperties>
        <BoundPropertyInt Name="rotateStepNinety" Value="0" />
      </BoundProperties>
    </ImageClip>
    <ImageClip extentID="794" gapBefore="0" mediaItemID="790" duration="0.10000000000000001">
      <Effects />
      <Transitions />
      <BoundProperties>
        <BoundPropertyInt Name="rotateStepNinety" Value="0" />
      </BoundProperties>
    </ImageClip>
    <ImageClip extentID="273" gapBefore="0" mediaItemID="269" duration="0.10000000000000001">
      <Effects />
      <Transitions />
      <BoundProperties>
        <BoundPropertyInt Name="rotateStepNinety" Value="0" />
      </BoundProperties>
    </ImageClip>
    <ImageClip extentID="795" gapBefore="0" mediaItemID="791" duration="0.10000000000000001">
      <Effects />
      <Transitions />
      <BoundProperties>
        <BoundPropertyInt Name="rotateStepNinety" Value="0" />
      </BoundProperties>
    </ImageClip>
    <ImageClip extentID="274" gapBefore="0" mediaItemID="270" duration="0.10000000000000001">
      <Effects />
      <Transitions />
      <BoundProperties>
        <BoundPropertyInt Name="rotateStepNinety" Value="0" />
      </BoundProperties>
    </ImageClip>
    <ImageClip extentID="796" gapBefore="0" mediaItemID="792" duration="0.10000000000000001">
      <Effects />
      <Transitions />
      <BoundProperties>
        <BoundPropertyInt Name="rotateStepNinety" Value="0" />
      </BoundProperties>
    </ImageClip>
    <ImageClip extentID="275" gapBefore="0" mediaItemID="271" duration="0.10000000000000001">
      <Effects />
      <Transitions />
      <BoundProperties>
        <BoundPropertyInt Name="rotateStepNinety" Value="0" />
      </BoundProperties>
    </ImageClip>
    <ImageClip extentID="797" gapBefore="0" mediaItemID="793" duration="0.10000000000000001">
      <Effects />
      <Transitions />
      <BoundProperties>
        <BoundPropertyInt Name="rotateStepNinety" Value="0" />
      </BoundProperties>
    </ImageClip>
    <ImageClip extentID="276" gapBefore="0" mediaItemID="272" duration="0.10000000000000001">
      <Effects />
      <Transitions />
      <BoundProperties>
        <BoundPropertyInt Name="rotateStepNinety" Value="0" />
      </BoundProperties>
    </ImageClip>
    <ImageClip extentID="798" gapBefore="0" mediaItemID="794" duration="0.10000000000000001">
      <Effects />
      <Transitions />
      <BoundProperties>
        <BoundPropertyInt Name="rotateStepNinety" Value="0" />
      </BoundProperties>
    </ImageClip>
    <ImageClip extentID="277" gapBefore="0" mediaItemID="273" duration="0.10000000000000001">
      <Effects />
      <Transitions />
      <BoundProperties>
        <BoundPropertyInt Name="rotateStepNinety" Value="0" />
      </BoundProperties>
    </ImageClip>
    <ImageClip extentID="799" gapBefore="0" mediaItemID="795" duration="0.10000000000000001">
      <Effects />
      <Transitions />
      <BoundProperties>
        <BoundPropertyInt Name="rotateStepNinety" Value="0" />
      </BoundProperties>
    </ImageClip>
    <ImageClip extentID="278" gapBefore="0" mediaItemID="274" duration="0.10000000000000001">
      <Effects />
      <Transitions />
      <BoundProperties>
        <BoundPropertyInt Name="rotateStepNinety" Value="0" />
      </BoundProperties>
    </ImageClip>
    <ImageClip extentID="800" gapBefore="0" mediaItemID="796" duration="0.10000000000000001">
      <Effects />
      <Transitions />
      <BoundProperties>
        <BoundPropertyInt Name="rotateStepNinety" Value="0" />
      </BoundProperties>
    </ImageClip>
    <ImageClip extentID="279" gapBefore="0" mediaItemID="275" duration="0.10000000000000001">
      <Effects />
      <Transitions />
      <BoundProperties>
        <BoundPropertyInt Name="rotateStepNinety" Value="0" />
      </BoundProperties>
    </ImageClip>
    <ImageClip extentID="801" gapBefore="0" mediaItemID="797" duration="0.10000000000000001">
      <Effects />
      <Transitions />
      <BoundProperties>
        <BoundPropertyInt Name="rotateStepNinety" Value="0" />
      </BoundProperties>
    </ImageClip>
    <ImageClip extentID="280" gapBefore="0" mediaItemID="276" duration="0.10000000000000001">
      <Effects />
      <Transitions />
      <BoundProperties>
        <BoundPropertyInt Name="rotateStepNinety" Value="0" />
      </BoundProperties>
    </ImageClip>
    <ImageClip extentID="802" gapBefore="0" mediaItemID="798" duration="0.10000000000000001">
      <Effects />
      <Transitions />
      <BoundProperties>
        <BoundPropertyInt Name="rotateStepNinety" Value="0" />
      </BoundProperties>
    </ImageClip>
    <ImageClip extentID="281" gapBefore="0" mediaItemID="277" duration="0.10000000000000001">
      <Effects />
      <Transitions />
      <BoundProperties>
        <BoundPropertyInt Name="rotateStepNinety" Value="0" />
      </BoundProperties>
    </ImageClip>
    <ImageClip extentID="803" gapBefore="0" mediaItemID="799" duration="0.10000000000000001">
      <Effects />
      <Transitions />
      <BoundProperties>
        <BoundPropertyInt Name="rotateStepNinety" Value="0" />
      </BoundProperties>
    </ImageClip>
    <ImageClip extentID="282" gapBefore="0" mediaItemID="278" duration="0.10000000000000001">
      <Effects />
      <Transitions />
      <BoundProperties>
        <BoundPropertyInt Name="rotateStepNinety" Value="0" />
      </BoundProperties>
    </ImageClip>
    <ImageClip extentID="804" gapBefore="0" mediaItemID="800" duration="0.10000000000000001">
      <Effects />
      <Transitions />
      <BoundProperties>
        <BoundPropertyInt Name="rotateStepNinety" Value="0" />
      </BoundProperties>
    </ImageClip>
    <ImageClip extentID="283" gapBefore="0" mediaItemID="279" duration="0.10000000000000001">
      <Effects />
      <Transitions />
      <BoundProperties>
        <BoundPropertyInt Name="rotateStepNinety" Value="0" />
      </BoundProperties>
    </ImageClip>
    <ImageClip extentID="805" gapBefore="0" mediaItemID="801" duration="0.10000000000000001">
      <Effects />
      <Transitions />
      <BoundProperties>
        <BoundPropertyInt Name="rotateStepNinety" Value="0" />
      </BoundProperties>
    </ImageClip>
    <ImageClip extentID="284" gapBefore="0" mediaItemID="280" duration="0.10000000000000001">
      <Effects />
      <Transitions />
      <BoundProperties>
        <BoundPropertyInt Name="rotateStepNinety" Value="0" />
      </BoundProperties>
    </ImageClip>
    <ImageClip extentID="806" gapBefore="0" mediaItemID="802" duration="0.10000000000000001">
      <Effects />
      <Transitions />
      <BoundProperties>
        <BoundPropertyInt Name="rotateStepNinety" Value="0" />
      </BoundProperties>
    </ImageClip>
    <ImageClip extentID="285" gapBefore="0" mediaItemID="281" duration="0.10000000000000001">
      <Effects />
      <Transitions />
      <BoundProperties>
        <BoundPropertyInt Name="rotateStepNinety" Value="0" />
      </BoundProperties>
    </ImageClip>
    <ImageClip extentID="807" gapBefore="0" mediaItemID="803" duration="0.10000000000000001">
      <Effects />
      <Transitions />
      <BoundProperties>
        <BoundPropertyInt Name="rotateStepNinety" Value="0" />
      </BoundProperties>
    </ImageClip>
    <ImageClip extentID="286" gapBefore="0" mediaItemID="282" duration="0.10000000000000001">
      <Effects />
      <Transitions />
      <BoundProperties>
        <BoundPropertyInt Name="rotateStepNinety" Value="0" />
      </BoundProperties>
    </ImageClip>
    <ImageClip extentID="808" gapBefore="0" mediaItemID="804" duration="0.10000000000000001">
      <Effects />
      <Transitions />
      <BoundProperties>
        <BoundPropertyInt Name="rotateStepNinety" Value="0" />
      </BoundProperties>
    </ImageClip>
    <ImageClip extentID="287" gapBefore="0" mediaItemID="283" duration="0.10000000000000001">
      <Effects />
      <Transitions />
      <BoundProperties>
        <BoundPropertyInt Name="rotateStepNinety" Value="0" />
      </BoundProperties>
    </ImageClip>
    <ImageClip extentID="809" gapBefore="0" mediaItemID="805" duration="0.10000000000000001">
      <Effects />
      <Transitions />
      <BoundProperties>
        <BoundPropertyInt Name="rotateStepNinety" Value="0" />
      </BoundProperties>
    </ImageClip>
    <ImageClip extentID="288" gapBefore="0" mediaItemID="284" duration="0.10000000000000001">
      <Effects />
      <Transitions />
      <BoundProperties>
        <BoundPropertyInt Name="rotateStepNinety" Value="0" />
      </BoundProperties>
    </ImageClip>
    <ImageClip extentID="810" gapBefore="0" mediaItemID="806" duration="0.10000000000000001">
      <Effects />
      <Transitions />
      <BoundProperties>
        <BoundPropertyInt Name="rotateStepNinety" Value="0" />
      </BoundProperties>
    </ImageClip>
    <ImageClip extentID="289" gapBefore="0" mediaItemID="285" duration="0.10000000000000001">
      <Effects />
      <Transitions />
      <BoundProperties>
        <BoundPropertyInt Name="rotateStepNinety" Value="0" />
      </BoundProperties>
    </ImageClip>
    <ImageClip extentID="811" gapBefore="0" mediaItemID="807" duration="0.10000000000000001">
      <Effects />
      <Transitions />
      <BoundProperties>
        <BoundPropertyInt Name="rotateStepNinety" Value="0" />
      </BoundProperties>
    </ImageClip>
    <ImageClip extentID="290" gapBefore="0" mediaItemID="286" duration="0.10000000000000001">
      <Effects />
      <Transitions />
      <BoundProperties>
        <BoundPropertyInt Name="rotateStepNinety" Value="0" />
      </BoundProperties>
    </ImageClip>
    <ImageClip extentID="812" gapBefore="0" mediaItemID="808" duration="0.10000000000000001">
      <Effects />
      <Transitions />
      <BoundProperties>
        <BoundPropertyInt Name="rotateStepNinety" Value="0" />
      </BoundProperties>
    </ImageClip>
    <ImageClip extentID="291" gapBefore="0" mediaItemID="287" duration="0.10000000000000001">
      <Effects />
      <Transitions />
      <BoundProperties>
        <BoundPropertyInt Name="rotateStepNinety" Value="0" />
      </BoundProperties>
    </ImageClip>
    <ImageClip extentID="813" gapBefore="0" mediaItemID="809" duration="0.10000000000000001">
      <Effects />
      <Transitions />
      <BoundProperties>
        <BoundPropertyInt Name="rotateStepNinety" Value="0" />
      </BoundProperties>
    </ImageClip>
    <ImageClip extentID="292" gapBefore="0" mediaItemID="288" duration="0.10000000000000001">
      <Effects />
      <Transitions />
      <BoundProperties>
        <BoundPropertyInt Name="rotateStepNinety" Value="0" />
      </BoundProperties>
    </ImageClip>
    <ImageClip extentID="814" gapBefore="0" mediaItemID="810" duration="0.10000000000000001">
      <Effects />
      <Transitions />
      <BoundProperties>
        <BoundPropertyInt Name="rotateStepNinety" Value="0" />
      </BoundProperties>
    </ImageClip>
    <ImageClip extentID="293" gapBefore="0" mediaItemID="289" duration="0.10000000000000001">
      <Effects />
      <Transitions />
      <BoundProperties>
        <BoundPropertyInt Name="rotateStepNinety" Value="0" />
      </BoundProperties>
    </ImageClip>
    <ImageClip extentID="815" gapBefore="0" mediaItemID="811" duration="0.10000000000000001">
      <Effects />
      <Transitions />
      <BoundProperties>
        <BoundPropertyInt Name="rotateStepNinety" Value="0" />
      </BoundProperties>
    </ImageClip>
    <ImageClip extentID="294" gapBefore="0" mediaItemID="290" duration="0.10000000000000001">
      <Effects />
      <Transitions />
      <BoundProperties>
        <BoundPropertyInt Name="rotateStepNinety" Value="0" />
      </BoundProperties>
    </ImageClip>
    <ImageClip extentID="816" gapBefore="0" mediaItemID="812" duration="0.10000000000000001">
      <Effects />
      <Transitions />
      <BoundProperties>
        <BoundPropertyInt Name="rotateStepNinety" Value="0" />
      </BoundProperties>
    </ImageClip>
    <ImageClip extentID="295" gapBefore="0" mediaItemID="291" duration="0.10000000000000001">
      <Effects />
      <Transitions />
      <BoundProperties>
        <BoundPropertyInt Name="rotateStepNinety" Value="0" />
      </BoundProperties>
    </ImageClip>
    <ImageClip extentID="817" gapBefore="0" mediaItemID="813" duration="0.10000000000000001">
      <Effects />
      <Transitions />
      <BoundProperties>
        <BoundPropertyInt Name="rotateStepNinety" Value="0" />
      </BoundProperties>
    </ImageClip>
    <ImageClip extentID="296" gapBefore="0" mediaItemID="292" duration="0.10000000000000001">
      <Effects />
      <Transitions />
      <BoundProperties>
        <BoundPropertyInt Name="rotateStepNinety" Value="0" />
      </BoundProperties>
    </ImageClip>
    <ImageClip extentID="818" gapBefore="0" mediaItemID="814" duration="0.10000000000000001">
      <Effects />
      <Transitions />
      <BoundProperties>
        <BoundPropertyInt Name="rotateStepNinety" Value="0" />
      </BoundProperties>
    </ImageClip>
    <ImageClip extentID="297" gapBefore="0" mediaItemID="293" duration="0.10000000000000001">
      <Effects />
      <Transitions />
      <BoundProperties>
        <BoundPropertyInt Name="rotateStepNinety" Value="0" />
      </BoundProperties>
    </ImageClip>
    <ImageClip extentID="819" gapBefore="0" mediaItemID="815" duration="0.10000000000000001">
      <Effects />
      <Transitions />
      <BoundProperties>
        <BoundPropertyInt Name="rotateStepNinety" Value="0" />
      </BoundProperties>
    </ImageClip>
    <ImageClip extentID="298" gapBefore="0" mediaItemID="294" duration="0.10000000000000001">
      <Effects />
      <Transitions />
      <BoundProperties>
        <BoundPropertyInt Name="rotateStepNinety" Value="0" />
      </BoundProperties>
    </ImageClip>
    <ImageClip extentID="820" gapBefore="0" mediaItemID="816" duration="0.10000000000000001">
      <Effects />
      <Transitions />
      <BoundProperties>
        <BoundPropertyInt Name="rotateStepNinety" Value="0" />
      </BoundProperties>
    </ImageClip>
    <ImageClip extentID="299" gapBefore="0" mediaItemID="295" duration="0.10000000000000001">
      <Effects />
      <Transitions />
      <BoundProperties>
        <BoundPropertyInt Name="rotateStepNinety" Value="0" />
      </BoundProperties>
    </ImageClip>
    <ImageClip extentID="821" gapBefore="0" mediaItemID="817" duration="0.10000000000000001">
      <Effects />
      <Transitions />
      <BoundProperties>
        <BoundPropertyInt Name="rotateStepNinety" Value="0" />
      </BoundProperties>
    </ImageClip>
    <ImageClip extentID="300" gapBefore="0" mediaItemID="296" duration="0.10000000000000001">
      <Effects />
      <Transitions />
      <BoundProperties>
        <BoundPropertyInt Name="rotateStepNinety" Value="0" />
      </BoundProperties>
    </ImageClip>
    <ImageClip extentID="822" gapBefore="0" mediaItemID="818" duration="0.10000000000000001">
      <Effects />
      <Transitions />
      <BoundProperties>
        <BoundPropertyInt Name="rotateStepNinety" Value="0" />
      </BoundProperties>
    </ImageClip>
    <ImageClip extentID="301" gapBefore="0" mediaItemID="297" duration="0.10000000000000001">
      <Effects />
      <Transitions />
      <BoundProperties>
        <BoundPropertyInt Name="rotateStepNinety" Value="0" />
      </BoundProperties>
    </ImageClip>
    <ImageClip extentID="823" gapBefore="0" mediaItemID="819" duration="0.10000000000000001">
      <Effects />
      <Transitions />
      <BoundProperties>
        <BoundPropertyInt Name="rotateStepNinety" Value="0" />
      </BoundProperties>
    </ImageClip>
    <ImageClip extentID="302" gapBefore="0" mediaItemID="298" duration="0.10000000000000001">
      <Effects />
      <Transitions />
      <BoundProperties>
        <BoundPropertyInt Name="rotateStepNinety" Value="0" />
      </BoundProperties>
    </ImageClip>
    <ImageClip extentID="824" gapBefore="0" mediaItemID="820" duration="0.10000000000000001">
      <Effects />
      <Transitions />
      <BoundProperties>
        <BoundPropertyInt Name="rotateStepNinety" Value="0" />
      </BoundProperties>
    </ImageClip>
    <ImageClip extentID="303" gapBefore="0" mediaItemID="299" duration="0.10000000000000001">
      <Effects />
      <Transitions />
      <BoundProperties>
        <BoundPropertyInt Name="rotateStepNinety" Value="0" />
      </BoundProperties>
    </ImageClip>
    <ImageClip extentID="825" gapBefore="0" mediaItemID="821" duration="0.10000000000000001">
      <Effects />
      <Transitions />
      <BoundProperties>
        <BoundPropertyInt Name="rotateStepNinety" Value="0" />
      </BoundProperties>
    </ImageClip>
    <ImageClip extentID="304" gapBefore="0" mediaItemID="300" duration="0.10000000000000001">
      <Effects />
      <Transitions />
      <BoundProperties>
        <BoundPropertyInt Name="rotateStepNinety" Value="0" />
      </BoundProperties>
    </ImageClip>
    <ImageClip extentID="826" gapBefore="0" mediaItemID="822" duration="0.10000000000000001">
      <Effects />
      <Transitions />
      <BoundProperties>
        <BoundPropertyInt Name="rotateStepNinety" Value="0" />
      </BoundProperties>
    </ImageClip>
    <ImageClip extentID="305" gapBefore="0" mediaItemID="301" duration="0.10000000000000001">
      <Effects />
      <Transitions />
      <BoundProperties>
        <BoundPropertyInt Name="rotateStepNinety" Value="0" />
      </BoundProperties>
    </ImageClip>
    <ImageClip extentID="827" gapBefore="0" mediaItemID="823" duration="0.10000000000000001">
      <Effects />
      <Transitions />
      <BoundProperties>
        <BoundPropertyInt Name="rotateStepNinety" Value="0" />
      </BoundProperties>
    </ImageClip>
    <ImageClip extentID="306" gapBefore="0" mediaItemID="302" duration="0.10000000000000001">
      <Effects />
      <Transitions />
      <BoundProperties>
        <BoundPropertyInt Name="rotateStepNinety" Value="0" />
      </BoundProperties>
    </ImageClip>
    <ImageClip extentID="828" gapBefore="0" mediaItemID="824" duration="0.10000000000000001">
      <Effects />
      <Transitions />
      <BoundProperties>
        <BoundPropertyInt Name="rotateStepNinety" Value="0" />
      </BoundProperties>
    </ImageClip>
    <ImageClip extentID="307" gapBefore="0" mediaItemID="303" duration="0.10000000000000001">
      <Effects />
      <Transitions />
      <BoundProperties>
        <BoundPropertyInt Name="rotateStepNinety" Value="0" />
      </BoundProperties>
    </ImageClip>
    <ImageClip extentID="829" gapBefore="0" mediaItemID="825" duration="0.10000000000000001">
      <Effects />
      <Transitions />
      <BoundProperties>
        <BoundPropertyInt Name="rotateStepNinety" Value="0" />
      </BoundProperties>
    </ImageClip>
    <ImageClip extentID="308" gapBefore="0" mediaItemID="304" duration="0.10000000000000001">
      <Effects />
      <Transitions />
      <BoundProperties>
        <BoundPropertyInt Name="rotateStepNinety" Value="0" />
      </BoundProperties>
    </ImageClip>
    <ImageClip extentID="830" gapBefore="0" mediaItemID="826" duration="0.10000000000000001">
      <Effects />
      <Transitions />
      <BoundProperties>
        <BoundPropertyInt Name="rotateStepNinety" Value="0" />
      </BoundProperties>
    </ImageClip>
    <ImageClip extentID="309" gapBefore="0" mediaItemID="305" duration="0.10000000000000001">
      <Effects />
      <Transitions />
      <BoundProperties>
        <BoundPropertyInt Name="rotateStepNinety" Value="0" />
      </BoundProperties>
    </ImageClip>
    <ImageClip extentID="831" gapBefore="0" mediaItemID="827" duration="0.10000000000000001">
      <Effects />
      <Transitions />
      <BoundProperties>
        <BoundPropertyInt Name="rotateStepNinety" Value="0" />
      </BoundProperties>
    </ImageClip>
    <ImageClip extentID="310" gapBefore="0" mediaItemID="306" duration="0.10000000000000001">
      <Effects />
      <Transitions />
      <BoundProperties>
        <BoundPropertyInt Name="rotateStepNinety" Value="0" />
      </BoundProperties>
    </ImageClip>
    <ImageClip extentID="832" gapBefore="0" mediaItemID="828" duration="0.10000000000000001">
      <Effects />
      <Transitions />
      <BoundProperties>
        <BoundPropertyInt Name="rotateStepNinety" Value="0" />
      </BoundProperties>
    </ImageClip>
    <ImageClip extentID="311" gapBefore="0" mediaItemID="307" duration="0.10000000000000001">
      <Effects />
      <Transitions />
      <BoundProperties>
        <BoundPropertyInt Name="rotateStepNinety" Value="0" />
      </BoundProperties>
    </ImageClip>
    <ImageClip extentID="833" gapBefore="0" mediaItemID="829" duration="0.10000000000000001">
      <Effects />
      <Transitions />
      <BoundProperties>
        <BoundPropertyInt Name="rotateStepNinety" Value="0" />
      </BoundProperties>
    </ImageClip>
    <ImageClip extentID="312" gapBefore="0" mediaItemID="308" duration="0.10000000000000001">
      <Effects />
      <Transitions />
      <BoundProperties>
        <BoundPropertyInt Name="rotateStepNinety" Value="0" />
      </BoundProperties>
    </ImageClip>
    <ImageClip extentID="834" gapBefore="0" mediaItemID="830" duration="0.10000000000000001">
      <Effects />
      <Transitions />
      <BoundProperties>
        <BoundPropertyInt Name="rotateStepNinety" Value="0" />
      </BoundProperties>
    </ImageClip>
    <ImageClip extentID="313" gapBefore="0" mediaItemID="309" duration="0.10000000000000001">
      <Effects />
      <Transitions />
      <BoundProperties>
        <BoundPropertyInt Name="rotateStepNinety" Value="0" />
      </BoundProperties>
    </ImageClip>
    <ImageClip extentID="835" gapBefore="0" mediaItemID="831" duration="0.10000000000000001">
      <Effects />
      <Transitions />
      <BoundProperties>
        <BoundPropertyInt Name="rotateStepNinety" Value="0" />
      </BoundProperties>
    </ImageClip>
    <ImageClip extentID="314" gapBefore="0" mediaItemID="310" duration="0.10000000000000001">
      <Effects />
      <Transitions />
      <BoundProperties>
        <BoundPropertyInt Name="rotateStepNinety" Value="0" />
      </BoundProperties>
    </ImageClip>
    <ImageClip extentID="836" gapBefore="0" mediaItemID="832" duration="0.10000000000000001">
      <Effects />
      <Transitions />
      <BoundProperties>
        <BoundPropertyInt Name="rotateStepNinety" Value="0" />
      </BoundProperties>
    </ImageClip>
    <ImageClip extentID="315" gapBefore="0" mediaItemID="311" duration="0.10000000000000001">
      <Effects />
      <Transitions />
      <BoundProperties>
        <BoundPropertyInt Name="rotateStepNinety" Value="0" />
      </BoundProperties>
    </ImageClip>
    <ImageClip extentID="837" gapBefore="0" mediaItemID="833" duration="0.10000000000000001">
      <Effects />
      <Transitions />
      <BoundProperties>
        <BoundPropertyInt Name="rotateStepNinety" Value="0" />
      </BoundProperties>
    </ImageClip>
    <ImageClip extentID="316" gapBefore="0" mediaItemID="312" duration="0.10000000000000001">
      <Effects />
      <Transitions />
      <BoundProperties>
        <BoundPropertyInt Name="rotateStepNinety" Value="0" />
      </BoundProperties>
    </ImageClip>
    <ImageClip extentID="838" gapBefore="0" mediaItemID="834" duration="0.10000000000000001">
      <Effects />
      <Transitions />
      <BoundProperties>
        <BoundPropertyInt Name="rotateStepNinety" Value="0" />
      </BoundProperties>
    </ImageClip>
    <ImageClip extentID="317" gapBefore="0" mediaItemID="313" duration="0.10000000000000001">
      <Effects />
      <Transitions />
      <BoundProperties>
        <BoundPropertyInt Name="rotateStepNinety" Value="0" />
      </BoundProperties>
    </ImageClip>
    <ImageClip extentID="839" gapBefore="0" mediaItemID="835" duration="0.10000000000000001">
      <Effects />
      <Transitions />
      <BoundProperties>
        <BoundPropertyInt Name="rotateStepNinety" Value="0" />
      </BoundProperties>
    </ImageClip>
    <ImageClip extentID="318" gapBefore="0" mediaItemID="314" duration="0.10000000000000001">
      <Effects />
      <Transitions />
      <BoundProperties>
        <BoundPropertyInt Name="rotateStepNinety" Value="0" />
      </BoundProperties>
    </ImageClip>
    <ImageClip extentID="840" gapBefore="0" mediaItemID="836" duration="0.10000000000000001">
      <Effects />
      <Transitions />
      <BoundProperties>
        <BoundPropertyInt Name="rotateStepNinety" Value="0" />
      </BoundProperties>
    </ImageClip>
    <ImageClip extentID="319" gapBefore="0" mediaItemID="315" duration="0.10000000000000001">
      <Effects />
      <Transitions />
      <BoundProperties>
        <BoundPropertyInt Name="rotateStepNinety" Value="0" />
      </BoundProperties>
    </ImageClip>
    <ImageClip extentID="841" gapBefore="0" mediaItemID="837" duration="0.10000000000000001">
      <Effects />
      <Transitions />
      <BoundProperties>
        <BoundPropertyInt Name="rotateStepNinety" Value="0" />
      </BoundProperties>
    </ImageClip>
    <ImageClip extentID="320" gapBefore="0" mediaItemID="316" duration="0.10000000000000001">
      <Effects />
      <Transitions />
      <BoundProperties>
        <BoundPropertyInt Name="rotateStepNinety" Value="0" />
      </BoundProperties>
    </ImageClip>
    <ImageClip extentID="842" gapBefore="0" mediaItemID="838" duration="0.10000000000000001">
      <Effects />
      <Transitions />
      <BoundProperties>
        <BoundPropertyInt Name="rotateStepNinety" Value="0" />
      </BoundProperties>
    </ImageClip>
    <ImageClip extentID="321" gapBefore="0" mediaItemID="317" duration="0.10000000000000001">
      <Effects />
      <Transitions />
      <BoundProperties>
        <BoundPropertyInt Name="rotateStepNinety" Value="0" />
      </BoundProperties>
    </ImageClip>
    <ImageClip extentID="843" gapBefore="0" mediaItemID="839" duration="0.10000000000000001">
      <Effects />
      <Transitions />
      <BoundProperties>
        <BoundPropertyInt Name="rotateStepNinety" Value="0" />
      </BoundProperties>
    </ImageClip>
    <ImageClip extentID="322" gapBefore="0" mediaItemID="318" duration="0.10000000000000001">
      <Effects />
      <Transitions />
      <BoundProperties>
        <BoundPropertyInt Name="rotateStepNinety" Value="0" />
      </BoundProperties>
    </ImageClip>
    <ImageClip extentID="844" gapBefore="0" mediaItemID="840" duration="0.10000000000000001">
      <Effects />
      <Transitions />
      <BoundProperties>
        <BoundPropertyInt Name="rotateStepNinety" Value="0" />
      </BoundProperties>
    </ImageClip>
    <ImageClip extentID="323" gapBefore="0" mediaItemID="319" duration="0.10000000000000001">
      <Effects />
      <Transitions />
      <BoundProperties>
        <BoundPropertyInt Name="rotateStepNinety" Value="0" />
      </BoundProperties>
    </ImageClip>
    <ImageClip extentID="845" gapBefore="0" mediaItemID="841" duration="0.10000000000000001">
      <Effects />
      <Transitions />
      <BoundProperties>
        <BoundPropertyInt Name="rotateStepNinety" Value="0" />
      </BoundProperties>
    </ImageClip>
    <ImageClip extentID="324" gapBefore="0" mediaItemID="320" duration="0.10000000000000001">
      <Effects />
      <Transitions />
      <BoundProperties>
        <BoundPropertyInt Name="rotateStepNinety" Value="0" />
      </BoundProperties>
    </ImageClip>
    <ImageClip extentID="846" gapBefore="0" mediaItemID="842" duration="0.10000000000000001">
      <Effects />
      <Transitions />
      <BoundProperties>
        <BoundPropertyInt Name="rotateStepNinety" Value="0" />
      </BoundProperties>
    </ImageClip>
    <ImageClip extentID="325" gapBefore="0" mediaItemID="321" duration="0.10000000000000001">
      <Effects />
      <Transitions />
      <BoundProperties>
        <BoundPropertyInt Name="rotateStepNinety" Value="0" />
      </BoundProperties>
    </ImageClip>
    <ImageClip extentID="847" gapBefore="0" mediaItemID="843" duration="0.10000000000000001">
      <Effects />
      <Transitions />
      <BoundProperties>
        <BoundPropertyInt Name="rotateStepNinety" Value="0" />
      </BoundProperties>
    </ImageClip>
    <ImageClip extentID="326" gapBefore="0" mediaItemID="322" duration="0.10000000000000001">
      <Effects />
      <Transitions />
      <BoundProperties>
        <BoundPropertyInt Name="rotateStepNinety" Value="0" />
      </BoundProperties>
    </ImageClip>
    <ImageClip extentID="848" gapBefore="0" mediaItemID="844" duration="0.10000000000000001">
      <Effects />
      <Transitions />
      <BoundProperties>
        <BoundPropertyInt Name="rotateStepNinety" Value="0" />
      </BoundProperties>
    </ImageClip>
    <ImageClip extentID="327" gapBefore="0" mediaItemID="323" duration="0.10000000000000001">
      <Effects />
      <Transitions />
      <BoundProperties>
        <BoundPropertyInt Name="rotateStepNinety" Value="0" />
      </BoundProperties>
    </ImageClip>
    <ImageClip extentID="849" gapBefore="0" mediaItemID="845" duration="0.10000000000000001">
      <Effects />
      <Transitions />
      <BoundProperties>
        <BoundPropertyInt Name="rotateStepNinety" Value="0" />
      </BoundProperties>
    </ImageClip>
    <ImageClip extentID="328" gapBefore="0" mediaItemID="324" duration="0.10000000000000001">
      <Effects />
      <Transitions />
      <BoundProperties>
        <BoundPropertyInt Name="rotateStepNinety" Value="0" />
      </BoundProperties>
    </ImageClip>
    <ImageClip extentID="850" gapBefore="0" mediaItemID="846" duration="0.10000000000000001">
      <Effects />
      <Transitions />
      <BoundProperties>
        <BoundPropertyInt Name="rotateStepNinety" Value="0" />
      </BoundProperties>
    </ImageClip>
    <ImageClip extentID="329" gapBefore="0" mediaItemID="325" duration="0.10000000000000001">
      <Effects />
      <Transitions />
      <BoundProperties>
        <BoundPropertyInt Name="rotateStepNinety" Value="0" />
      </BoundProperties>
    </ImageClip>
    <ImageClip extentID="851" gapBefore="0" mediaItemID="847" duration="0.10000000000000001">
      <Effects />
      <Transitions />
      <BoundProperties>
        <BoundPropertyInt Name="rotateStepNinety" Value="0" />
      </BoundProperties>
    </ImageClip>
    <ImageClip extentID="330" gapBefore="0" mediaItemID="326" duration="0.10000000000000001">
      <Effects />
      <Transitions />
      <BoundProperties>
        <BoundPropertyInt Name="rotateStepNinety" Value="0" />
      </BoundProperties>
    </ImageClip>
    <ImageClip extentID="852" gapBefore="0" mediaItemID="848" duration="0.10000000000000001">
      <Effects />
      <Transitions />
      <BoundProperties>
        <BoundPropertyInt Name="rotateStepNinety" Value="0" />
      </BoundProperties>
    </ImageClip>
    <ImageClip extentID="331" gapBefore="0" mediaItemID="327" duration="0.10000000000000001">
      <Effects />
      <Transitions />
      <BoundProperties>
        <BoundPropertyInt Name="rotateStepNinety" Value="0" />
      </BoundProperties>
    </ImageClip>
    <ImageClip extentID="853" gapBefore="0" mediaItemID="849" duration="0.10000000000000001">
      <Effects />
      <Transitions />
      <BoundProperties>
        <BoundPropertyInt Name="rotateStepNinety" Value="0" />
      </BoundProperties>
    </ImageClip>
    <ImageClip extentID="332" gapBefore="0" mediaItemID="328" duration="0.10000000000000001">
      <Effects />
      <Transitions />
      <BoundProperties>
        <BoundPropertyInt Name="rotateStepNinety" Value="0" />
      </BoundProperties>
    </ImageClip>
    <ImageClip extentID="854" gapBefore="0" mediaItemID="850" duration="0.10000000000000001">
      <Effects />
      <Transitions />
      <BoundProperties>
        <BoundPropertyInt Name="rotateStepNinety" Value="0" />
      </BoundProperties>
    </ImageClip>
    <ImageClip extentID="333" gapBefore="0" mediaItemID="329" duration="0.10000000000000001">
      <Effects />
      <Transitions />
      <BoundProperties>
        <BoundPropertyInt Name="rotateStepNinety" Value="0" />
      </BoundProperties>
    </ImageClip>
    <ImageClip extentID="855" gapBefore="0" mediaItemID="851" duration="0.10000000000000001">
      <Effects />
      <Transitions />
      <BoundProperties>
        <BoundPropertyInt Name="rotateStepNinety" Value="0" />
      </BoundProperties>
    </ImageClip>
    <ImageClip extentID="334" gapBefore="0" mediaItemID="330" duration="0.10000000000000001">
      <Effects />
      <Transitions />
      <BoundProperties>
        <BoundPropertyInt Name="rotateStepNinety" Value="0" />
      </BoundProperties>
    </ImageClip>
    <ImageClip extentID="856" gapBefore="0" mediaItemID="852" duration="0.10000000000000001">
      <Effects />
      <Transitions />
      <BoundProperties>
        <BoundPropertyInt Name="rotateStepNinety" Value="0" />
      </BoundProperties>
    </ImageClip>
    <ImageClip extentID="335" gapBefore="0" mediaItemID="331" duration="0.10000000000000001">
      <Effects />
      <Transitions />
      <BoundProperties>
        <BoundPropertyInt Name="rotateStepNinety" Value="0" />
      </BoundProperties>
    </ImageClip>
    <ImageClip extentID="857" gapBefore="0" mediaItemID="853" duration="0.10000000000000001">
      <Effects />
      <Transitions />
      <BoundProperties>
        <BoundPropertyInt Name="rotateStepNinety" Value="0" />
      </BoundProperties>
    </ImageClip>
    <ImageClip extentID="336" gapBefore="0" mediaItemID="332" duration="0.10000000000000001">
      <Effects />
      <Transitions />
      <BoundProperties>
        <BoundPropertyInt Name="rotateStepNinety" Value="0" />
      </BoundProperties>
    </ImageClip>
    <ImageClip extentID="858" gapBefore="0" mediaItemID="854" duration="0.10000000000000001">
      <Effects />
      <Transitions />
      <BoundProperties>
        <BoundPropertyInt Name="rotateStepNinety" Value="0" />
      </BoundProperties>
    </ImageClip>
    <ImageClip extentID="337" gapBefore="0" mediaItemID="333" duration="0.10000000000000001">
      <Effects />
      <Transitions />
      <BoundProperties>
        <BoundPropertyInt Name="rotateStepNinety" Value="0" />
      </BoundProperties>
    </ImageClip>
    <ImageClip extentID="859" gapBefore="0" mediaItemID="855" duration="0.10000000000000001">
      <Effects />
      <Transitions />
      <BoundProperties>
        <BoundPropertyInt Name="rotateStepNinety" Value="0" />
      </BoundProperties>
    </ImageClip>
    <ImageClip extentID="338" gapBefore="0" mediaItemID="334" duration="0.10000000000000001">
      <Effects />
      <Transitions />
      <BoundProperties>
        <BoundPropertyInt Name="rotateStepNinety" Value="0" />
      </BoundProperties>
    </ImageClip>
    <ImageClip extentID="860" gapBefore="0" mediaItemID="856" duration="0.10000000000000001">
      <Effects />
      <Transitions />
      <BoundProperties>
        <BoundPropertyInt Name="rotateStepNinety" Value="0" />
      </BoundProperties>
    </ImageClip>
    <ImageClip extentID="339" gapBefore="0" mediaItemID="335" duration="0.10000000000000001">
      <Effects />
      <Transitions />
      <BoundProperties>
        <BoundPropertyInt Name="rotateStepNinety" Value="0" />
      </BoundProperties>
    </ImageClip>
    <ImageClip extentID="861" gapBefore="0" mediaItemID="857" duration="0.10000000000000001">
      <Effects />
      <Transitions />
      <BoundProperties>
        <BoundPropertyInt Name="rotateStepNinety" Value="0" />
      </BoundProperties>
    </ImageClip>
    <ImageClip extentID="340" gapBefore="0" mediaItemID="336" duration="0.10000000000000001">
      <Effects />
      <Transitions />
      <BoundProperties>
        <BoundPropertyInt Name="rotateStepNinety" Value="0" />
      </BoundProperties>
    </ImageClip>
    <ImageClip extentID="862" gapBefore="0" mediaItemID="858" duration="0.10000000000000001">
      <Effects />
      <Transitions />
      <BoundProperties>
        <BoundPropertyInt Name="rotateStepNinety" Value="0" />
      </BoundProperties>
    </ImageClip>
    <ImageClip extentID="341" gapBefore="0" mediaItemID="337" duration="0.10000000000000001">
      <Effects />
      <Transitions />
      <BoundProperties>
        <BoundPropertyInt Name="rotateStepNinety" Value="0" />
      </BoundProperties>
    </ImageClip>
    <ImageClip extentID="863" gapBefore="0" mediaItemID="859" duration="0.10000000000000001">
      <Effects />
      <Transitions />
      <BoundProperties>
        <BoundPropertyInt Name="rotateStepNinety" Value="0" />
      </BoundProperties>
    </ImageClip>
    <ImageClip extentID="342" gapBefore="0" mediaItemID="338" duration="0.10000000000000001">
      <Effects />
      <Transitions />
      <BoundProperties>
        <BoundPropertyInt Name="rotateStepNinety" Value="0" />
      </BoundProperties>
    </ImageClip>
    <ImageClip extentID="864" gapBefore="0" mediaItemID="860" duration="0.10000000000000001">
      <Effects />
      <Transitions />
      <BoundProperties>
        <BoundPropertyInt Name="rotateStepNinety" Value="0" />
      </BoundProperties>
    </ImageClip>
    <ImageClip extentID="343" gapBefore="0" mediaItemID="339" duration="0.10000000000000001">
      <Effects />
      <Transitions />
      <BoundProperties>
        <BoundPropertyInt Name="rotateStepNinety" Value="0" />
      </BoundProperties>
    </ImageClip>
    <ImageClip extentID="865" gapBefore="0" mediaItemID="861" duration="0.10000000000000001">
      <Effects />
      <Transitions />
      <BoundProperties>
        <BoundPropertyInt Name="rotateStepNinety" Value="0" />
      </BoundProperties>
    </ImageClip>
    <ImageClip extentID="344" gapBefore="0" mediaItemID="340" duration="0.10000000000000001">
      <Effects />
      <Transitions />
      <BoundProperties>
        <BoundPropertyInt Name="rotateStepNinety" Value="0" />
      </BoundProperties>
    </ImageClip>
    <ImageClip extentID="866" gapBefore="0" mediaItemID="862" duration="0.10000000000000001">
      <Effects />
      <Transitions />
      <BoundProperties>
        <BoundPropertyInt Name="rotateStepNinety" Value="0" />
      </BoundProperties>
    </ImageClip>
    <ImageClip extentID="345" gapBefore="0" mediaItemID="341" duration="0.10000000000000001">
      <Effects />
      <Transitions />
      <BoundProperties>
        <BoundPropertyInt Name="rotateStepNinety" Value="0" />
      </BoundProperties>
    </ImageClip>
    <ImageClip extentID="867" gapBefore="0" mediaItemID="863" duration="0.10000000000000001">
      <Effects />
      <Transitions />
      <BoundProperties>
        <BoundPropertyInt Name="rotateStepNinety" Value="0" />
      </BoundProperties>
    </ImageClip>
    <ImageClip extentID="346" gapBefore="0" mediaItemID="342" duration="0.10000000000000001">
      <Effects />
      <Transitions />
      <BoundProperties>
        <BoundPropertyInt Name="rotateStepNinety" Value="0" />
      </BoundProperties>
    </ImageClip>
    <ImageClip extentID="868" gapBefore="0" mediaItemID="864" duration="0.10000000000000001">
      <Effects />
      <Transitions />
      <BoundProperties>
        <BoundPropertyInt Name="rotateStepNinety" Value="0" />
      </BoundProperties>
    </ImageClip>
    <ImageClip extentID="347" gapBefore="0" mediaItemID="343" duration="0.10000000000000001">
      <Effects />
      <Transitions />
      <BoundProperties>
        <BoundPropertyInt Name="rotateStepNinety" Value="0" />
      </BoundProperties>
    </ImageClip>
    <ImageClip extentID="869" gapBefore="0" mediaItemID="865" duration="0.10000000000000001">
      <Effects />
      <Transitions />
      <BoundProperties>
        <BoundPropertyInt Name="rotateStepNinety" Value="0" />
      </BoundProperties>
    </ImageClip>
    <ImageClip extentID="348" gapBefore="0" mediaItemID="344" duration="0.10000000000000001">
      <Effects />
      <Transitions />
      <BoundProperties>
        <BoundPropertyInt Name="rotateStepNinety" Value="0" />
      </BoundProperties>
    </ImageClip>
    <ImageClip extentID="870" gapBefore="0" mediaItemID="866" duration="0.10000000000000001">
      <Effects />
      <Transitions />
      <BoundProperties>
        <BoundPropertyInt Name="rotateStepNinety" Value="0" />
      </BoundProperties>
    </ImageClip>
    <ImageClip extentID="349" gapBefore="0" mediaItemID="345" duration="0.10000000000000001">
      <Effects />
      <Transitions />
      <BoundProperties>
        <BoundPropertyInt Name="rotateStepNinety" Value="0" />
      </BoundProperties>
    </ImageClip>
    <ImageClip extentID="871" gapBefore="0" mediaItemID="867" duration="0.10000000000000001">
      <Effects />
      <Transitions />
      <BoundProperties>
        <BoundPropertyInt Name="rotateStepNinety" Value="0" />
      </BoundProperties>
    </ImageClip>
    <ImageClip extentID="350" gapBefore="0" mediaItemID="346" duration="0.10000000000000001">
      <Effects />
      <Transitions />
      <BoundProperties>
        <BoundPropertyInt Name="rotateStepNinety" Value="0" />
      </BoundProperties>
    </ImageClip>
    <ImageClip extentID="872" gapBefore="0" mediaItemID="868" duration="0.10000000000000001">
      <Effects />
      <Transitions />
      <BoundProperties>
        <BoundPropertyInt Name="rotateStepNinety" Value="0" />
      </BoundProperties>
    </ImageClip>
    <ImageClip extentID="351" gapBefore="0" mediaItemID="347" duration="0.10000000000000001">
      <Effects />
      <Transitions />
      <BoundProperties>
        <BoundPropertyInt Name="rotateStepNinety" Value="0" />
      </BoundProperties>
    </ImageClip>
    <ImageClip extentID="873" gapBefore="0" mediaItemID="869" duration="0.10000000000000001">
      <Effects />
      <Transitions />
      <BoundProperties>
        <BoundPropertyInt Name="rotateStepNinety" Value="0" />
      </BoundProperties>
    </ImageClip>
    <ImageClip extentID="352" gapBefore="0" mediaItemID="348" duration="0.10000000000000001">
      <Effects />
      <Transitions />
      <BoundProperties>
        <BoundPropertyInt Name="rotateStepNinety" Value="0" />
      </BoundProperties>
    </ImageClip>
    <ImageClip extentID="874" gapBefore="0" mediaItemID="870" duration="0.10000000000000001">
      <Effects />
      <Transitions />
      <BoundProperties>
        <BoundPropertyInt Name="rotateStepNinety" Value="0" />
      </BoundProperties>
    </ImageClip>
    <ImageClip extentID="353" gapBefore="0" mediaItemID="349" duration="0.10000000000000001">
      <Effects />
      <Transitions />
      <BoundProperties>
        <BoundPropertyInt Name="rotateStepNinety" Value="0" />
      </BoundProperties>
    </ImageClip>
    <ImageClip extentID="875" gapBefore="0" mediaItemID="871" duration="0.10000000000000001">
      <Effects />
      <Transitions />
      <BoundProperties>
        <BoundPropertyInt Name="rotateStepNinety" Value="0" />
      </BoundProperties>
    </ImageClip>
    <ImageClip extentID="354" gapBefore="0" mediaItemID="350" duration="0.10000000000000001">
      <Effects />
      <Transitions />
      <BoundProperties>
        <BoundPropertyInt Name="rotateStepNinety" Value="0" />
      </BoundProperties>
    </ImageClip>
    <ImageClip extentID="876" gapBefore="0" mediaItemID="872" duration="0.10000000000000001">
      <Effects />
      <Transitions />
      <BoundProperties>
        <BoundPropertyInt Name="rotateStepNinety" Value="0" />
      </BoundProperties>
    </ImageClip>
    <ImageClip extentID="355" gapBefore="0" mediaItemID="351" duration="0.10000000000000001">
      <Effects />
      <Transitions />
      <BoundProperties>
        <BoundPropertyInt Name="rotateStepNinety" Value="0" />
      </BoundProperties>
    </ImageClip>
    <ImageClip extentID="877" gapBefore="0" mediaItemID="873" duration="0.10000000000000001">
      <Effects />
      <Transitions />
      <BoundProperties>
        <BoundPropertyInt Name="rotateStepNinety" Value="0" />
      </BoundProperties>
    </ImageClip>
    <ImageClip extentID="356" gapBefore="0" mediaItemID="352" duration="0.10000000000000001">
      <Effects />
      <Transitions />
      <BoundProperties>
        <BoundPropertyInt Name="rotateStepNinety" Value="0" />
      </BoundProperties>
    </ImageClip>
    <ImageClip extentID="878" gapBefore="0" mediaItemID="874" duration="0.10000000000000001">
      <Effects />
      <Transitions />
      <BoundProperties>
        <BoundPropertyInt Name="rotateStepNinety" Value="0" />
      </BoundProperties>
    </ImageClip>
    <ImageClip extentID="357" gapBefore="0" mediaItemID="353" duration="0.10000000000000001">
      <Effects />
      <Transitions />
      <BoundProperties>
        <BoundPropertyInt Name="rotateStepNinety" Value="0" />
      </BoundProperties>
    </ImageClip>
    <ImageClip extentID="879" gapBefore="0" mediaItemID="875" duration="0.10000000000000001">
      <Effects />
      <Transitions />
      <BoundProperties>
        <BoundPropertyInt Name="rotateStepNinety" Value="0" />
      </BoundProperties>
    </ImageClip>
    <ImageClip extentID="358" gapBefore="0" mediaItemID="354" duration="0.10000000000000001">
      <Effects />
      <Transitions />
      <BoundProperties>
        <BoundPropertyInt Name="rotateStepNinety" Value="0" />
      </BoundProperties>
    </ImageClip>
    <ImageClip extentID="880" gapBefore="0" mediaItemID="876" duration="0.10000000000000001">
      <Effects />
      <Transitions />
      <BoundProperties>
        <BoundPropertyInt Name="rotateStepNinety" Value="0" />
      </BoundProperties>
    </ImageClip>
    <ImageClip extentID="359" gapBefore="0" mediaItemID="355" duration="0.10000000000000001">
      <Effects />
      <Transitions />
      <BoundProperties>
        <BoundPropertyInt Name="rotateStepNinety" Value="0" />
      </BoundProperties>
    </ImageClip>
    <ImageClip extentID="881" gapBefore="0" mediaItemID="877" duration="0.10000000000000001">
      <Effects />
      <Transitions />
      <BoundProperties>
        <BoundPropertyInt Name="rotateStepNinety" Value="0" />
      </BoundProperties>
    </ImageClip>
    <ImageClip extentID="360" gapBefore="0" mediaItemID="356" duration="0.10000000000000001">
      <Effects />
      <Transitions />
      <BoundProperties>
        <BoundPropertyInt Name="rotateStepNinety" Value="0" />
      </BoundProperties>
    </ImageClip>
    <ImageClip extentID="882" gapBefore="0" mediaItemID="878" duration="0.10000000000000001">
      <Effects />
      <Transitions />
      <BoundProperties>
        <BoundPropertyInt Name="rotateStepNinety" Value="0" />
      </BoundProperties>
    </ImageClip>
    <ImageClip extentID="361" gapBefore="0" mediaItemID="357" duration="0.10000000000000001">
      <Effects />
      <Transitions />
      <BoundProperties>
        <BoundPropertyInt Name="rotateStepNinety" Value="0" />
      </BoundProperties>
    </ImageClip>
    <ImageClip extentID="883" gapBefore="0" mediaItemID="879" duration="0.10000000000000001">
      <Effects />
      <Transitions />
      <BoundProperties>
        <BoundPropertyInt Name="rotateStepNinety" Value="0" />
      </BoundProperties>
    </ImageClip>
    <ImageClip extentID="362" gapBefore="0" mediaItemID="358" duration="0.10000000000000001">
      <Effects />
      <Transitions />
      <BoundProperties>
        <BoundPropertyInt Name="rotateStepNinety" Value="0" />
      </BoundProperties>
    </ImageClip>
    <ImageClip extentID="884" gapBefore="0" mediaItemID="880" duration="0.10000000000000001">
      <Effects />
      <Transitions />
      <BoundProperties>
        <BoundPropertyInt Name="rotateStepNinety" Value="0" />
      </BoundProperties>
    </ImageClip>
    <ImageClip extentID="363" gapBefore="0" mediaItemID="359" duration="0.10000000000000001">
      <Effects />
      <Transitions />
      <BoundProperties>
        <BoundPropertyInt Name="rotateStepNinety" Value="0" />
      </BoundProperties>
    </ImageClip>
    <ImageClip extentID="885" gapBefore="0" mediaItemID="881" duration="0.10000000000000001">
      <Effects />
      <Transitions />
      <BoundProperties>
        <BoundPropertyInt Name="rotateStepNinety" Value="0" />
      </BoundProperties>
    </ImageClip>
    <ImageClip extentID="364" gapBefore="0" mediaItemID="360" duration="0.10000000000000001">
      <Effects />
      <Transitions />
      <BoundProperties>
        <BoundPropertyInt Name="rotateStepNinety" Value="0" />
      </BoundProperties>
    </ImageClip>
    <ImageClip extentID="886" gapBefore="0" mediaItemID="882" duration="0.10000000000000001">
      <Effects />
      <Transitions />
      <BoundProperties>
        <BoundPropertyInt Name="rotateStepNinety" Value="0" />
      </BoundProperties>
    </ImageClip>
    <ImageClip extentID="365" gapBefore="0" mediaItemID="361" duration="0.10000000000000001">
      <Effects />
      <Transitions />
      <BoundProperties>
        <BoundPropertyInt Name="rotateStepNinety" Value="0" />
      </BoundProperties>
    </ImageClip>
    <ImageClip extentID="887" gapBefore="0" mediaItemID="883" duration="0.10000000000000001">
      <Effects />
      <Transitions />
      <BoundProperties>
        <BoundPropertyInt Name="rotateStepNinety" Value="0" />
      </BoundProperties>
    </ImageClip>
    <ImageClip extentID="366" gapBefore="0" mediaItemID="362" duration="0.10000000000000001">
      <Effects />
      <Transitions />
      <BoundProperties>
        <BoundPropertyInt Name="rotateStepNinety" Value="0" />
      </BoundProperties>
    </ImageClip>
    <ImageClip extentID="888" gapBefore="0" mediaItemID="884" duration="0.10000000000000001">
      <Effects />
      <Transitions />
      <BoundProperties>
        <BoundPropertyInt Name="rotateStepNinety" Value="0" />
      </BoundProperties>
    </ImageClip>
    <ImageClip extentID="367" gapBefore="0" mediaItemID="363" duration="0.10000000000000001">
      <Effects />
      <Transitions />
      <BoundProperties>
        <BoundPropertyInt Name="rotateStepNinety" Value="0" />
      </BoundProperties>
    </ImageClip>
    <ImageClip extentID="889" gapBefore="0" mediaItemID="885" duration="0.10000000000000001">
      <Effects />
      <Transitions />
      <BoundProperties>
        <BoundPropertyInt Name="rotateStepNinety" Value="0" />
      </BoundProperties>
    </ImageClip>
    <ImageClip extentID="368" gapBefore="0" mediaItemID="364" duration="0.10000000000000001">
      <Effects />
      <Transitions />
      <BoundProperties>
        <BoundPropertyInt Name="rotateStepNinety" Value="0" />
      </BoundProperties>
    </ImageClip>
    <ImageClip extentID="890" gapBefore="0" mediaItemID="886" duration="0.10000000000000001">
      <Effects />
      <Transitions />
      <BoundProperties>
        <BoundPropertyInt Name="rotateStepNinety" Value="0" />
      </BoundProperties>
    </ImageClip>
    <ImageClip extentID="369" gapBefore="0" mediaItemID="365" duration="0.10000000000000001">
      <Effects />
      <Transitions />
      <BoundProperties>
        <BoundPropertyInt Name="rotateStepNinety" Value="0" />
      </BoundProperties>
    </ImageClip>
    <ImageClip extentID="891" gapBefore="0" mediaItemID="887" duration="0.10000000000000001">
      <Effects />
      <Transitions />
      <BoundProperties>
        <BoundPropertyInt Name="rotateStepNinety" Value="0" />
      </BoundProperties>
    </ImageClip>
    <ImageClip extentID="370" gapBefore="0" mediaItemID="366" duration="0.10000000000000001">
      <Effects />
      <Transitions />
      <BoundProperties>
        <BoundPropertyInt Name="rotateStepNinety" Value="0" />
      </BoundProperties>
    </ImageClip>
    <ImageClip extentID="892" gapBefore="0" mediaItemID="888" duration="0.10000000000000001">
      <Effects />
      <Transitions />
      <BoundProperties>
        <BoundPropertyInt Name="rotateStepNinety" Value="0" />
      </BoundProperties>
    </ImageClip>
    <ImageClip extentID="371" gapBefore="0" mediaItemID="367" duration="0.10000000000000001">
      <Effects />
      <Transitions />
      <BoundProperties>
        <BoundPropertyInt Name="rotateStepNinety" Value="0" />
      </BoundProperties>
    </ImageClip>
    <ImageClip extentID="893" gapBefore="0" mediaItemID="889" duration="0.10000000000000001">
      <Effects />
      <Transitions />
      <BoundProperties>
        <BoundPropertyInt Name="rotateStepNinety" Value="0" />
      </BoundProperties>
    </ImageClip>
    <ImageClip extentID="372" gapBefore="0" mediaItemID="368" duration="0.10000000000000001">
      <Effects />
      <Transitions />
      <BoundProperties>
        <BoundPropertyInt Name="rotateStepNinety" Value="0" />
      </BoundProperties>
    </ImageClip>
    <ImageClip extentID="894" gapBefore="0" mediaItemID="890" duration="0.10000000000000001">
      <Effects />
      <Transitions />
      <BoundProperties>
        <BoundPropertyInt Name="rotateStepNinety" Value="0" />
      </BoundProperties>
    </ImageClip>
    <ImageClip extentID="373" gapBefore="0" mediaItemID="369" duration="0.10000000000000001">
      <Effects />
      <Transitions />
      <BoundProperties>
        <BoundPropertyInt Name="rotateStepNinety" Value="0" />
      </BoundProperties>
    </ImageClip>
    <ImageClip extentID="895" gapBefore="0" mediaItemID="891" duration="0.10000000000000001">
      <Effects />
      <Transitions />
      <BoundProperties>
        <BoundPropertyInt Name="rotateStepNinety" Value="0" />
      </BoundProperties>
    </ImageClip>
    <ImageClip extentID="374" gapBefore="0" mediaItemID="370" duration="0.10000000000000001">
      <Effects />
      <Transitions />
      <BoundProperties>
        <BoundPropertyInt Name="rotateStepNinety" Value="0" />
      </BoundProperties>
    </ImageClip>
    <ImageClip extentID="896" gapBefore="0" mediaItemID="892" duration="0.10000000000000001">
      <Effects />
      <Transitions />
      <BoundProperties>
        <BoundPropertyInt Name="rotateStepNinety" Value="0" />
      </BoundProperties>
    </ImageClip>
    <ImageClip extentID="375" gapBefore="0" mediaItemID="371" duration="0.10000000000000001">
      <Effects />
      <Transitions />
      <BoundProperties>
        <BoundPropertyInt Name="rotateStepNinety" Value="0" />
      </BoundProperties>
    </ImageClip>
    <ImageClip extentID="897" gapBefore="0" mediaItemID="893" duration="0.10000000000000001">
      <Effects />
      <Transitions />
      <BoundProperties>
        <BoundPropertyInt Name="rotateStepNinety" Value="0" />
      </BoundProperties>
    </ImageClip>
    <ImageClip extentID="376" gapBefore="0" mediaItemID="372" duration="0.10000000000000001">
      <Effects />
      <Transitions />
      <BoundProperties>
        <BoundPropertyInt Name="rotateStepNinety" Value="0" />
      </BoundProperties>
    </ImageClip>
    <ImageClip extentID="898" gapBefore="0" mediaItemID="894" duration="0.10000000000000001">
      <Effects />
      <Transitions />
      <BoundProperties>
        <BoundPropertyInt Name="rotateStepNinety" Value="0" />
      </BoundProperties>
    </ImageClip>
    <ImageClip extentID="377" gapBefore="0" mediaItemID="373" duration="0.10000000000000001">
      <Effects />
      <Transitions />
      <BoundProperties>
        <BoundPropertyInt Name="rotateStepNinety" Value="0" />
      </BoundProperties>
    </ImageClip>
    <ImageClip extentID="899" gapBefore="0" mediaItemID="895" duration="0.10000000000000001">
      <Effects />
      <Transitions />
      <BoundProperties>
        <BoundPropertyInt Name="rotateStepNinety" Value="0" />
      </BoundProperties>
    </ImageClip>
    <ImageClip extentID="378" gapBefore="0" mediaItemID="374" duration="0.10000000000000001">
      <Effects />
      <Transitions />
      <BoundProperties>
        <BoundPropertyInt Name="rotateStepNinety" Value="0" />
      </BoundProperties>
    </ImageClip>
    <ImageClip extentID="900" gapBefore="0" mediaItemID="896" duration="0.10000000000000001">
      <Effects />
      <Transitions />
      <BoundProperties>
        <BoundPropertyInt Name="rotateStepNinety" Value="0" />
      </BoundProperties>
    </ImageClip>
    <ImageClip extentID="379" gapBefore="0" mediaItemID="375" duration="0.10000000000000001">
      <Effects />
      <Transitions />
      <BoundProperties>
        <BoundPropertyInt Name="rotateStepNinety" Value="0" />
      </BoundProperties>
    </ImageClip>
    <ImageClip extentID="901" gapBefore="0" mediaItemID="897" duration="0.10000000000000001">
      <Effects />
      <Transitions />
      <BoundProperties>
        <BoundPropertyInt Name="rotateStepNinety" Value="0" />
      </BoundProperties>
    </ImageClip>
    <ImageClip extentID="380" gapBefore="0" mediaItemID="376" duration="0.10000000000000001">
      <Effects />
      <Transitions />
      <BoundProperties>
        <BoundPropertyInt Name="rotateStepNinety" Value="0" />
      </BoundProperties>
    </ImageClip>
    <ImageClip extentID="902" gapBefore="0" mediaItemID="898" duration="0.10000000000000001">
      <Effects />
      <Transitions />
      <BoundProperties>
        <BoundPropertyInt Name="rotateStepNinety" Value="0" />
      </BoundProperties>
    </ImageClip>
    <ImageClip extentID="381" gapBefore="0" mediaItemID="377" duration="0.10000000000000001">
      <Effects />
      <Transitions />
      <BoundProperties>
        <BoundPropertyInt Name="rotateStepNinety" Value="0" />
      </BoundProperties>
    </ImageClip>
    <ImageClip extentID="903" gapBefore="0" mediaItemID="899" duration="0.10000000000000001">
      <Effects />
      <Transitions />
      <BoundProperties>
        <BoundPropertyInt Name="rotateStepNinety" Value="0" />
      </BoundProperties>
    </ImageClip>
    <ImageClip extentID="382" gapBefore="0" mediaItemID="378" duration="0.10000000000000001">
      <Effects />
      <Transitions />
      <BoundProperties>
        <BoundPropertyInt Name="rotateStepNinety" Value="0" />
      </BoundProperties>
    </ImageClip>
    <ImageClip extentID="904" gapBefore="0" mediaItemID="900" duration="0.10000000000000001">
      <Effects />
      <Transitions />
      <BoundProperties>
        <BoundPropertyInt Name="rotateStepNinety" Value="0" />
      </BoundProperties>
    </ImageClip>
    <ImageClip extentID="383" gapBefore="0" mediaItemID="379" duration="0.10000000000000001">
      <Effects />
      <Transitions />
      <BoundProperties>
        <BoundPropertyInt Name="rotateStepNinety" Value="0" />
      </BoundProperties>
    </ImageClip>
    <ImageClip extentID="905" gapBefore="0" mediaItemID="901" duration="0.10000000000000001">
      <Effects />
      <Transitions />
      <BoundProperties>
        <BoundPropertyInt Name="rotateStepNinety" Value="0" />
      </BoundProperties>
    </ImageClip>
    <ImageClip extentID="384" gapBefore="0" mediaItemID="380" duration="0.10000000000000001">
      <Effects />
      <Transitions />
      <BoundProperties>
        <BoundPropertyInt Name="rotateStepNinety" Value="0" />
      </BoundProperties>
    </ImageClip>
    <ImageClip extentID="906" gapBefore="0" mediaItemID="902" duration="0.10000000000000001">
      <Effects />
      <Transitions />
      <BoundProperties>
        <BoundPropertyInt Name="rotateStepNinety" Value="0" />
      </BoundProperties>
    </ImageClip>
    <ImageClip extentID="385" gapBefore="0" mediaItemID="381" duration="0.10000000000000001">
      <Effects />
      <Transitions />
      <BoundProperties>
        <BoundPropertyInt Name="rotateStepNinety" Value="0" />
      </BoundProperties>
    </ImageClip>
    <ImageClip extentID="907" gapBefore="0" mediaItemID="903" duration="0.10000000000000001">
      <Effects />
      <Transitions />
      <BoundProperties>
        <BoundPropertyInt Name="rotateStepNinety" Value="0" />
      </BoundProperties>
    </ImageClip>
    <ImageClip extentID="386" gapBefore="0" mediaItemID="382" duration="0.10000000000000001">
      <Effects />
      <Transitions />
      <BoundProperties>
        <BoundPropertyInt Name="rotateStepNinety" Value="0" />
      </BoundProperties>
    </ImageClip>
    <ImageClip extentID="908" gapBefore="0" mediaItemID="904" duration="0.10000000000000001">
      <Effects />
      <Transitions />
      <BoundProperties>
        <BoundPropertyInt Name="rotateStepNinety" Value="0" />
      </BoundProperties>
    </ImageClip>
    <ImageClip extentID="387" gapBefore="0" mediaItemID="383" duration="0.10000000000000001">
      <Effects />
      <Transitions />
      <BoundProperties>
        <BoundPropertyInt Name="rotateStepNinety" Value="0" />
      </BoundProperties>
    </ImageClip>
    <ImageClip extentID="909" gapBefore="0" mediaItemID="905" duration="0.10000000000000001">
      <Effects />
      <Transitions />
      <BoundProperties>
        <BoundPropertyInt Name="rotateStepNinety" Value="0" />
      </BoundProperties>
    </ImageClip>
    <ImageClip extentID="388" gapBefore="0" mediaItemID="384" duration="0.10000000000000001">
      <Effects />
      <Transitions />
      <BoundProperties>
        <BoundPropertyInt Name="rotateStepNinety" Value="0" />
      </BoundProperties>
    </ImageClip>
    <ImageClip extentID="910" gapBefore="0" mediaItemID="906" duration="0.10000000000000001">
      <Effects />
      <Transitions />
      <BoundProperties>
        <BoundPropertyInt Name="rotateStepNinety" Value="0" />
      </BoundProperties>
    </ImageClip>
    <ImageClip extentID="389" gapBefore="0" mediaItemID="385" duration="0.10000000000000001">
      <Effects />
      <Transitions />
      <BoundProperties>
        <BoundPropertyInt Name="rotateStepNinety" Value="0" />
      </BoundProperties>
    </ImageClip>
    <ImageClip extentID="911" gapBefore="0" mediaItemID="907" duration="0.10000000000000001">
      <Effects />
      <Transitions />
      <BoundProperties>
        <BoundPropertyInt Name="rotateStepNinety" Value="0" />
      </BoundProperties>
    </ImageClip>
    <ImageClip extentID="390" gapBefore="0" mediaItemID="386" duration="0.10000000000000001">
      <Effects />
      <Transitions />
      <BoundProperties>
        <BoundPropertyInt Name="rotateStepNinety" Value="0" />
      </BoundProperties>
    </ImageClip>
    <ImageClip extentID="912" gapBefore="0" mediaItemID="908" duration="0.10000000000000001">
      <Effects />
      <Transitions />
      <BoundProperties>
        <BoundPropertyInt Name="rotateStepNinety" Value="0" />
      </BoundProperties>
    </ImageClip>
    <ImageClip extentID="391" gapBefore="0" mediaItemID="387" duration="0.10000000000000001">
      <Effects />
      <Transitions />
      <BoundProperties>
        <BoundPropertyInt Name="rotateStepNinety" Value="0" />
      </BoundProperties>
    </ImageClip>
    <ImageClip extentID="913" gapBefore="0" mediaItemID="909" duration="0.10000000000000001">
      <Effects />
      <Transitions />
      <BoundProperties>
        <BoundPropertyInt Name="rotateStepNinety" Value="0" />
      </BoundProperties>
    </ImageClip>
    <ImageClip extentID="392" gapBefore="0" mediaItemID="388" duration="0.10000000000000001">
      <Effects />
      <Transitions />
      <BoundProperties>
        <BoundPropertyInt Name="rotateStepNinety" Value="0" />
      </BoundProperties>
    </ImageClip>
    <ImageClip extentID="914" gapBefore="0" mediaItemID="910" duration="0.10000000000000001">
      <Effects />
      <Transitions />
      <BoundProperties>
        <BoundPropertyInt Name="rotateStepNinety" Value="0" />
      </BoundProperties>
    </ImageClip>
    <ImageClip extentID="393" gapBefore="0" mediaItemID="389" duration="0.10000000000000001">
      <Effects />
      <Transitions />
      <BoundProperties>
        <BoundPropertyInt Name="rotateStepNinety" Value="0" />
      </BoundProperties>
    </ImageClip>
    <ImageClip extentID="915" gapBefore="0" mediaItemID="911" duration="0.10000000000000001">
      <Effects />
      <Transitions />
      <BoundProperties>
        <BoundPropertyInt Name="rotateStepNinety" Value="0" />
      </BoundProperties>
    </ImageClip>
    <ImageClip extentID="394" gapBefore="0" mediaItemID="390" duration="0.10000000000000001">
      <Effects />
      <Transitions />
      <BoundProperties>
        <BoundPropertyInt Name="rotateStepNinety" Value="0" />
      </BoundProperties>
    </ImageClip>
    <ImageClip extentID="916" gapBefore="0" mediaItemID="912" duration="0.10000000000000001">
      <Effects />
      <Transitions />
      <BoundProperties>
        <BoundPropertyInt Name="rotateStepNinety" Value="0" />
      </BoundProperties>
    </ImageClip>
    <ImageClip extentID="395" gapBefore="0" mediaItemID="391" duration="0.10000000000000001">
      <Effects />
      <Transitions />
      <BoundProperties>
        <BoundPropertyInt Name="rotateStepNinety" Value="0" />
      </BoundProperties>
    </ImageClip>
    <ImageClip extentID="917" gapBefore="0" mediaItemID="913" duration="0.10000000000000001">
      <Effects />
      <Transitions />
      <BoundProperties>
        <BoundPropertyInt Name="rotateStepNinety" Value="0" />
      </BoundProperties>
    </ImageClip>
    <ImageClip extentID="396" gapBefore="0" mediaItemID="392" duration="0.10000000000000001">
      <Effects />
      <Transitions />
      <BoundProperties>
        <BoundPropertyInt Name="rotateStepNinety" Value="0" />
      </BoundProperties>
    </ImageClip>
    <ImageClip extentID="918" gapBefore="0" mediaItemID="914" duration="0.10000000000000001">
      <Effects />
      <Transitions />
      <BoundProperties>
        <BoundPropertyInt Name="rotateStepNinety" Value="0" />
      </BoundProperties>
    </ImageClip>
    <ImageClip extentID="397" gapBefore="0" mediaItemID="393" duration="0.10000000000000001">
      <Effects />
      <Transitions />
      <BoundProperties>
        <BoundPropertyInt Name="rotateStepNinety" Value="0" />
      </BoundProperties>
    </ImageClip>
    <ImageClip extentID="919" gapBefore="0" mediaItemID="915" duration="0.10000000000000001">
      <Effects />
      <Transitions />
      <BoundProperties>
        <BoundPropertyInt Name="rotateStepNinety" Value="0" />
      </BoundProperties>
    </ImageClip>
    <ImageClip extentID="398" gapBefore="0" mediaItemID="394" duration="0.10000000000000001">
      <Effects />
      <Transitions />
      <BoundProperties>
        <BoundPropertyInt Name="rotateStepNinety" Value="0" />
      </BoundProperties>
    </ImageClip>
    <ImageClip extentID="920" gapBefore="0" mediaItemID="916" duration="0.10000000000000001">
      <Effects />
      <Transitions />
      <BoundProperties>
        <BoundPropertyInt Name="rotateStepNinety" Value="0" />
      </BoundProperties>
    </ImageClip>
    <ImageClip extentID="399" gapBefore="0" mediaItemID="395" duration="0.10000000000000001">
      <Effects />
      <Transitions />
      <BoundProperties>
        <BoundPropertyInt Name="rotateStepNinety" Value="0" />
      </BoundProperties>
    </ImageClip>
    <ImageClip extentID="921" gapBefore="0" mediaItemID="917" duration="0.10000000000000001">
      <Effects />
      <Transitions />
      <BoundProperties>
        <BoundPropertyInt Name="rotateStepNinety" Value="0" />
      </BoundProperties>
    </ImageClip>
    <ImageClip extentID="400" gapBefore="0" mediaItemID="396" duration="0.10000000000000001">
      <Effects />
      <Transitions />
      <BoundProperties>
        <BoundPropertyInt Name="rotateStepNinety" Value="0" />
      </BoundProperties>
    </ImageClip>
    <ImageClip extentID="922" gapBefore="0" mediaItemID="918" duration="0.10000000000000001">
      <Effects />
      <Transitions />
      <BoundProperties>
        <BoundPropertyInt Name="rotateStepNinety" Value="0" />
      </BoundProperties>
    </ImageClip>
    <ImageClip extentID="401" gapBefore="0" mediaItemID="397" duration="0.10000000000000001">
      <Effects />
      <Transitions />
      <BoundProperties>
        <BoundPropertyInt Name="rotateStepNinety" Value="0" />
      </BoundProperties>
    </ImageClip>
    <ImageClip extentID="923" gapBefore="0" mediaItemID="919" duration="0.10000000000000001">
      <Effects />
      <Transitions />
      <BoundProperties>
        <BoundPropertyInt Name="rotateStepNinety" Value="0" />
      </BoundProperties>
    </ImageClip>
    <ImageClip extentID="402" gapBefore="0" mediaItemID="398" duration="0.10000000000000001">
      <Effects />
      <Transitions />
      <BoundProperties>
        <BoundPropertyInt Name="rotateStepNinety" Value="0" />
      </BoundProperties>
    </ImageClip>
    <ImageClip extentID="924" gapBefore="0" mediaItemID="920" duration="0.10000000000000001">
      <Effects />
      <Transitions />
      <BoundProperties>
        <BoundPropertyInt Name="rotateStepNinety" Value="0" />
      </BoundProperties>
    </ImageClip>
    <ImageClip extentID="403" gapBefore="0" mediaItemID="399" duration="0.10000000000000001">
      <Effects />
      <Transitions />
      <BoundProperties>
        <BoundPropertyInt Name="rotateStepNinety" Value="0" />
      </BoundProperties>
    </ImageClip>
    <ImageClip extentID="925" gapBefore="0" mediaItemID="921" duration="0.10000000000000001">
      <Effects />
      <Transitions />
      <BoundProperties>
        <BoundPropertyInt Name="rotateStepNinety" Value="0" />
      </BoundProperties>
    </ImageClip>
    <ImageClip extentID="404" gapBefore="0" mediaItemID="400" duration="0.10000000000000001">
      <Effects />
      <Transitions />
      <BoundProperties>
        <BoundPropertyInt Name="rotateStepNinety" Value="0" />
      </BoundProperties>
    </ImageClip>
    <ImageClip extentID="926" gapBefore="0" mediaItemID="922" duration="0.10000000000000001">
      <Effects />
      <Transitions />
      <BoundProperties>
        <BoundPropertyInt Name="rotateStepNinety" Value="0" />
      </BoundProperties>
    </ImageClip>
    <ImageClip extentID="405" gapBefore="0" mediaItemID="401" duration="0.10000000000000001">
      <Effects />
      <Transitions />
      <BoundProperties>
        <BoundPropertyInt Name="rotateStepNinety" Value="0" />
      </BoundProperties>
    </ImageClip>
    <ImageClip extentID="927" gapBefore="0" mediaItemID="923" duration="0.10000000000000001">
      <Effects />
      <Transitions />
      <BoundProperties>
        <BoundPropertyInt Name="rotateStepNinety" Value="0" />
      </BoundProperties>
    </ImageClip>
    <ImageClip extentID="406" gapBefore="0" mediaItemID="402" duration="0.10000000000000001">
      <Effects />
      <Transitions />
      <BoundProperties>
        <BoundPropertyInt Name="rotateStepNinety" Value="0" />
      </BoundProperties>
    </ImageClip>
    <ImageClip extentID="928" gapBefore="0" mediaItemID="924" duration="0.10000000000000001">
      <Effects />
      <Transitions />
      <BoundProperties>
        <BoundPropertyInt Name="rotateStepNinety" Value="0" />
      </BoundProperties>
    </ImageClip>
    <ImageClip extentID="407" gapBefore="0" mediaItemID="403" duration="0.10000000000000001">
      <Effects />
      <Transitions />
      <BoundProperties>
        <BoundPropertyInt Name="rotateStepNinety" Value="0" />
      </BoundProperties>
    </ImageClip>
    <ImageClip extentID="929" gapBefore="0" mediaItemID="925" duration="0.10000000000000001">
      <Effects />
      <Transitions />
      <BoundProperties>
        <BoundPropertyInt Name="rotateStepNinety" Value="0" />
      </BoundProperties>
    </ImageClip>
    <ImageClip extentID="408" gapBefore="0" mediaItemID="404" duration="0.10000000000000001">
      <Effects />
      <Transitions />
      <BoundProperties>
        <BoundPropertyInt Name="rotateStepNinety" Value="0" />
      </BoundProperties>
    </ImageClip>
    <ImageClip extentID="930" gapBefore="0" mediaItemID="926" duration="0.10000000000000001">
      <Effects />
      <Transitions />
      <BoundProperties>
        <BoundPropertyInt Name="rotateStepNinety" Value="0" />
      </BoundProperties>
    </ImageClip>
    <ImageClip extentID="409" gapBefore="0" mediaItemID="405" duration="0.10000000000000001">
      <Effects />
      <Transitions />
      <BoundProperties>
        <BoundPropertyInt Name="rotateStepNinety" Value="0" />
      </BoundProperties>
    </ImageClip>
    <ImageClip extentID="931" gapBefore="0" mediaItemID="927" duration="0.10000000000000001">
      <Effects />
      <Transitions />
      <BoundProperties>
        <BoundPropertyInt Name="rotateStepNinety" Value="0" />
      </BoundProperties>
    </ImageClip>
    <ImageClip extentID="410" gapBefore="0" mediaItemID="406" duration="0.10000000000000001">
      <Effects />
      <Transitions />
      <BoundProperties>
        <BoundPropertyInt Name="rotateStepNinety" Value="0" />
      </BoundProperties>
    </ImageClip>
    <ImageClip extentID="932" gapBefore="0" mediaItemID="928" duration="0.10000000000000001">
      <Effects />
      <Transitions />
      <BoundProperties>
        <BoundPropertyInt Name="rotateStepNinety" Value="0" />
      </BoundProperties>
    </ImageClip>
    <ImageClip extentID="411" gapBefore="0" mediaItemID="407" duration="0.10000000000000001">
      <Effects />
      <Transitions />
      <BoundProperties>
        <BoundPropertyInt Name="rotateStepNinety" Value="0" />
      </BoundProperties>
    </ImageClip>
    <ImageClip extentID="933" gapBefore="0" mediaItemID="929" duration="0.10000000000000001">
      <Effects />
      <Transitions />
      <BoundProperties>
        <BoundPropertyInt Name="rotateStepNinety" Value="0" />
      </BoundProperties>
    </ImageClip>
    <ImageClip extentID="412" gapBefore="0" mediaItemID="408" duration="0.10000000000000001">
      <Effects />
      <Transitions />
      <BoundProperties>
        <BoundPropertyInt Name="rotateStepNinety" Value="0" />
      </BoundProperties>
    </ImageClip>
    <ImageClip extentID="934" gapBefore="0" mediaItemID="930" duration="0.10000000000000001">
      <Effects />
      <Transitions />
      <BoundProperties>
        <BoundPropertyInt Name="rotateStepNinety" Value="0" />
      </BoundProperties>
    </ImageClip>
    <ImageClip extentID="413" gapBefore="0" mediaItemID="409" duration="0.10000000000000001">
      <Effects />
      <Transitions />
      <BoundProperties>
        <BoundPropertyInt Name="rotateStepNinety" Value="0" />
      </BoundProperties>
    </ImageClip>
    <ImageClip extentID="935" gapBefore="0" mediaItemID="931" duration="0.10000000000000001">
      <Effects />
      <Transitions />
      <BoundProperties>
        <BoundPropertyInt Name="rotateStepNinety" Value="0" />
      </BoundProperties>
    </ImageClip>
    <ImageClip extentID="414" gapBefore="0" mediaItemID="410" duration="0.10000000000000001">
      <Effects />
      <Transitions />
      <BoundProperties>
        <BoundPropertyInt Name="rotateStepNinety" Value="0" />
      </BoundProperties>
    </ImageClip>
    <ImageClip extentID="936" gapBefore="0" mediaItemID="932" duration="0.10000000000000001">
      <Effects />
      <Transitions />
      <BoundProperties>
        <BoundPropertyInt Name="rotateStepNinety" Value="0" />
      </BoundProperties>
    </ImageClip>
    <ImageClip extentID="415" gapBefore="0" mediaItemID="411" duration="0.10000000000000001">
      <Effects />
      <Transitions />
      <BoundProperties>
        <BoundPropertyInt Name="rotateStepNinety" Value="0" />
      </BoundProperties>
    </ImageClip>
    <ImageClip extentID="937" gapBefore="0" mediaItemID="933" duration="0.10000000000000001">
      <Effects />
      <Transitions />
      <BoundProperties>
        <BoundPropertyInt Name="rotateStepNinety" Value="0" />
      </BoundProperties>
    </ImageClip>
    <ImageClip extentID="416" gapBefore="0" mediaItemID="412" duration="0.10000000000000001">
      <Effects />
      <Transitions />
      <BoundProperties>
        <BoundPropertyInt Name="rotateStepNinety" Value="0" />
      </BoundProperties>
    </ImageClip>
    <ImageClip extentID="938" gapBefore="0" mediaItemID="934" duration="0.10000000000000001">
      <Effects />
      <Transitions />
      <BoundProperties>
        <BoundPropertyInt Name="rotateStepNinety" Value="0" />
      </BoundProperties>
    </ImageClip>
    <ImageClip extentID="417" gapBefore="0" mediaItemID="413" duration="0.10000000000000001">
      <Effects />
      <Transitions />
      <BoundProperties>
        <BoundPropertyInt Name="rotateStepNinety" Value="0" />
      </BoundProperties>
    </ImageClip>
    <ImageClip extentID="939" gapBefore="0" mediaItemID="935" duration="0.10000000000000001">
      <Effects />
      <Transitions />
      <BoundProperties>
        <BoundPropertyInt Name="rotateStepNinety" Value="0" />
      </BoundProperties>
    </ImageClip>
    <ImageClip extentID="418" gapBefore="0" mediaItemID="414" duration="0.10000000000000001">
      <Effects />
      <Transitions />
      <BoundProperties>
        <BoundPropertyInt Name="rotateStepNinety" Value="0" />
      </BoundProperties>
    </ImageClip>
    <ImageClip extentID="940" gapBefore="0" mediaItemID="936" duration="0.10000000000000001">
      <Effects />
      <Transitions />
      <BoundProperties>
        <BoundPropertyInt Name="rotateStepNinety" Value="0" />
      </BoundProperties>
    </ImageClip>
    <ImageClip extentID="419" gapBefore="0" mediaItemID="415" duration="0.10000000000000001">
      <Effects />
      <Transitions />
      <BoundProperties>
        <BoundPropertyInt Name="rotateStepNinety" Value="0" />
      </BoundProperties>
    </ImageClip>
    <ImageClip extentID="941" gapBefore="0" mediaItemID="937" duration="0.10000000000000001">
      <Effects />
      <Transitions />
      <BoundProperties>
        <BoundPropertyInt Name="rotateStepNinety" Value="0" />
      </BoundProperties>
    </ImageClip>
    <ImageClip extentID="420" gapBefore="0" mediaItemID="416" duration="0.10000000000000001">
      <Effects />
      <Transitions />
      <BoundProperties>
        <BoundPropertyInt Name="rotateStepNinety" Value="0" />
      </BoundProperties>
    </ImageClip>
    <ImageClip extentID="942" gapBefore="0" mediaItemID="938" duration="0.10000000000000001">
      <Effects />
      <Transitions />
      <BoundProperties>
        <BoundPropertyInt Name="rotateStepNinety" Value="0" />
      </BoundProperties>
    </ImageClip>
    <ImageClip extentID="421" gapBefore="0" mediaItemID="417" duration="0.10000000000000001">
      <Effects />
      <Transitions />
      <BoundProperties>
        <BoundPropertyInt Name="rotateStepNinety" Value="0" />
      </BoundProperties>
    </ImageClip>
    <ImageClip extentID="943" gapBefore="0" mediaItemID="939" duration="0.10000000000000001">
      <Effects />
      <Transitions />
      <BoundProperties>
        <BoundPropertyInt Name="rotateStepNinety" Value="0" />
      </BoundProperties>
    </ImageClip>
    <ImageClip extentID="422" gapBefore="0" mediaItemID="418" duration="0.10000000000000001">
      <Effects />
      <Transitions />
      <BoundProperties>
        <BoundPropertyInt Name="rotateStepNinety" Value="0" />
      </BoundProperties>
    </ImageClip>
    <ImageClip extentID="944" gapBefore="0" mediaItemID="940" duration="0.10000000000000001">
      <Effects />
      <Transitions />
      <BoundProperties>
        <BoundPropertyInt Name="rotateStepNinety" Value="0" />
      </BoundProperties>
    </ImageClip>
    <ImageClip extentID="423" gapBefore="0" mediaItemID="419" duration="0.10000000000000001">
      <Effects />
      <Transitions />
      <BoundProperties>
        <BoundPropertyInt Name="rotateStepNinety" Value="0" />
      </BoundProperties>
    </ImageClip>
    <ImageClip extentID="945" gapBefore="0" mediaItemID="941" duration="0.10000000000000001">
      <Effects />
      <Transitions />
      <BoundProperties>
        <BoundPropertyInt Name="rotateStepNinety" Value="0" />
      </BoundProperties>
    </ImageClip>
    <ImageClip extentID="424" gapBefore="0" mediaItemID="420" duration="0.10000000000000001">
      <Effects />
      <Transitions />
      <BoundProperties>
        <BoundPropertyInt Name="rotateStepNinety" Value="0" />
      </BoundProperties>
    </ImageClip>
    <ImageClip extentID="946" gapBefore="0" mediaItemID="942" duration="0.10000000000000001">
      <Effects />
      <Transitions />
      <BoundProperties>
        <BoundPropertyInt Name="rotateStepNinety" Value="0" />
      </BoundProperties>
    </ImageClip>
    <ImageClip extentID="425" gapBefore="0" mediaItemID="421" duration="0.10000000000000001">
      <Effects />
      <Transitions />
      <BoundProperties>
        <BoundPropertyInt Name="rotateStepNinety" Value="0" />
      </BoundProperties>
    </ImageClip>
    <ImageClip extentID="947" gapBefore="0" mediaItemID="943" duration="0.10000000000000001">
      <Effects />
      <Transitions />
      <BoundProperties>
        <BoundPropertyInt Name="rotateStepNinety" Value="0" />
      </BoundProperties>
    </ImageClip>
    <ImageClip extentID="426" gapBefore="0" mediaItemID="422" duration="0.10000000000000001">
      <Effects />
      <Transitions />
      <BoundProperties>
        <BoundPropertyInt Name="rotateStepNinety" Value="0" />
      </BoundProperties>
    </ImageClip>
    <ImageClip extentID="948" gapBefore="0" mediaItemID="944" duration="0.10000000000000001">
      <Effects />
      <Transitions />
      <BoundProperties>
        <BoundPropertyInt Name="rotateStepNinety" Value="0" />
      </BoundProperties>
    </ImageClip>
    <ImageClip extentID="427" gapBefore="0" mediaItemID="423" duration="0.10000000000000001">
      <Effects />
      <Transitions />
      <BoundProperties>
        <BoundPropertyInt Name="rotateStepNinety" Value="0" />
      </BoundProperties>
    </ImageClip>
    <ImageClip extentID="949" gapBefore="0" mediaItemID="945" duration="0.10000000000000001">
      <Effects />
      <Transitions />
      <BoundProperties>
        <BoundPropertyInt Name="rotateStepNinety" Value="0" />
      </BoundProperties>
    </ImageClip>
    <ImageClip extentID="428" gapBefore="0" mediaItemID="424" duration="0.10000000000000001">
      <Effects />
      <Transitions />
      <BoundProperties>
        <BoundPropertyInt Name="rotateStepNinety" Value="0" />
      </BoundProperties>
    </ImageClip>
    <ImageClip extentID="950" gapBefore="0" mediaItemID="946" duration="0.10000000000000001">
      <Effects />
      <Transitions />
      <BoundProperties>
        <BoundPropertyInt Name="rotateStepNinety" Value="0" />
      </BoundProperties>
    </ImageClip>
    <ImageClip extentID="429" gapBefore="0" mediaItemID="425" duration="0.10000000000000001">
      <Effects />
      <Transitions />
      <BoundProperties>
        <BoundPropertyInt Name="rotateStepNinety" Value="0" />
      </BoundProperties>
    </ImageClip>
    <ImageClip extentID="951" gapBefore="0" mediaItemID="947" duration="0.10000000000000001">
      <Effects />
      <Transitions />
      <BoundProperties>
        <BoundPropertyInt Name="rotateStepNinety" Value="0" />
      </BoundProperties>
    </ImageClip>
    <ImageClip extentID="430" gapBefore="0" mediaItemID="426" duration="0.10000000000000001">
      <Effects />
      <Transitions />
      <BoundProperties>
        <BoundPropertyInt Name="rotateStepNinety" Value="0" />
      </BoundProperties>
    </ImageClip>
    <ImageClip extentID="952" gapBefore="0" mediaItemID="948" duration="0.10000000000000001">
      <Effects />
      <Transitions />
      <BoundProperties>
        <BoundPropertyInt Name="rotateStepNinety" Value="0" />
      </BoundProperties>
    </ImageClip>
    <ImageClip extentID="431" gapBefore="0" mediaItemID="427" duration="0.10000000000000001">
      <Effects />
      <Transitions />
      <BoundProperties>
        <BoundPropertyInt Name="rotateStepNinety" Value="0" />
      </BoundProperties>
    </ImageClip>
    <ImageClip extentID="953" gapBefore="0" mediaItemID="949" duration="0.10000000000000001">
      <Effects />
      <Transitions />
      <BoundProperties>
        <BoundPropertyInt Name="rotateStepNinety" Value="0" />
      </BoundProperties>
    </ImageClip>
    <ImageClip extentID="432" gapBefore="0" mediaItemID="428" duration="0.10000000000000001">
      <Effects />
      <Transitions />
      <BoundProperties>
        <BoundPropertyInt Name="rotateStepNinety" Value="0" />
      </BoundProperties>
    </ImageClip>
    <ImageClip extentID="954" gapBefore="0" mediaItemID="950" duration="0.10000000000000001">
      <Effects />
      <Transitions />
      <BoundProperties>
        <BoundPropertyInt Name="rotateStepNinety" Value="0" />
      </BoundProperties>
    </ImageClip>
    <ImageClip extentID="433" gapBefore="0" mediaItemID="429" duration="0.10000000000000001">
      <Effects />
      <Transitions />
      <BoundProperties>
        <BoundPropertyInt Name="rotateStepNinety" Value="0" />
      </BoundProperties>
    </ImageClip>
    <ImageClip extentID="955" gapBefore="0" mediaItemID="951" duration="0.10000000000000001">
      <Effects />
      <Transitions />
      <BoundProperties>
        <BoundPropertyInt Name="rotateStepNinety" Value="0" />
      </BoundProperties>
    </ImageClip>
    <ImageClip extentID="434" gapBefore="0" mediaItemID="430" duration="0.10000000000000001">
      <Effects />
      <Transitions />
      <BoundProperties>
        <BoundPropertyInt Name="rotateStepNinety" Value="0" />
      </BoundProperties>
    </ImageClip>
    <ImageClip extentID="956" gapBefore="0" mediaItemID="952" duration="0.10000000000000001">
      <Effects />
      <Transitions />
      <BoundProperties>
        <BoundPropertyInt Name="rotateStepNinety" Value="0" />
      </BoundProperties>
    </ImageClip>
    <ImageClip extentID="435" gapBefore="0" mediaItemID="431" duration="0.10000000000000001">
      <Effects />
      <Transitions />
      <BoundProperties>
        <BoundPropertyInt Name="rotateStepNinety" Value="0" />
      </BoundProperties>
    </ImageClip>
    <ImageClip extentID="957" gapBefore="0" mediaItemID="953" duration="0.10000000000000001">
      <Effects />
      <Transitions />
      <BoundProperties>
        <BoundPropertyInt Name="rotateStepNinety" Value="0" />
      </BoundProperties>
    </ImageClip>
    <ImageClip extentID="436" gapBefore="0" mediaItemID="432" duration="0.10000000000000001">
      <Effects />
      <Transitions />
      <BoundProperties>
        <BoundPropertyInt Name="rotateStepNinety" Value="0" />
      </BoundProperties>
    </ImageClip>
    <ImageClip extentID="958" gapBefore="0" mediaItemID="954" duration="0.10000000000000001">
      <Effects />
      <Transitions />
      <BoundProperties>
        <BoundPropertyInt Name="rotateStepNinety" Value="0" />
      </BoundProperties>
    </ImageClip>
    <ImageClip extentID="437" gapBefore="0" mediaItemID="433" duration="0.10000000000000001">
      <Effects />
      <Transitions />
      <BoundProperties>
        <BoundPropertyInt Name="rotateStepNinety" Value="0" />
      </BoundProperties>
    </ImageClip>
    <ImageClip extentID="959" gapBefore="0" mediaItemID="955" duration="0.10000000000000001">
      <Effects />
      <Transitions />
      <BoundProperties>
        <BoundPropertyInt Name="rotateStepNinety" Value="0" />
      </BoundProperties>
    </ImageClip>
    <ImageClip extentID="438" gapBefore="0" mediaItemID="434" duration="0.10000000000000001">
      <Effects />
      <Transitions />
      <BoundProperties>
        <BoundPropertyInt Name="rotateStepNinety" Value="0" />
      </BoundProperties>
    </ImageClip>
    <ImageClip extentID="960" gapBefore="0" mediaItemID="956" duration="0.10000000000000001">
      <Effects />
      <Transitions />
      <BoundProperties>
        <BoundPropertyInt Name="rotateStepNinety" Value="0" />
      </BoundProperties>
    </ImageClip>
    <ImageClip extentID="439" gapBefore="0" mediaItemID="435" duration="0.10000000000000001">
      <Effects />
      <Transitions />
      <BoundProperties>
        <BoundPropertyInt Name="rotateStepNinety" Value="0" />
      </BoundProperties>
    </ImageClip>
    <ImageClip extentID="961" gapBefore="0" mediaItemID="957" duration="0.10000000000000001">
      <Effects />
      <Transitions />
      <BoundProperties>
        <BoundPropertyInt Name="rotateStepNinety" Value="0" />
      </BoundProperties>
    </ImageClip>
    <ImageClip extentID="440" gapBefore="0" mediaItemID="436" duration="0.10000000000000001">
      <Effects />
      <Transitions />
      <BoundProperties>
        <BoundPropertyInt Name="rotateStepNinety" Value="0" />
      </BoundProperties>
    </ImageClip>
    <ImageClip extentID="962" gapBefore="0" mediaItemID="958" duration="0.10000000000000001">
      <Effects />
      <Transitions />
      <BoundProperties>
        <BoundPropertyInt Name="rotateStepNinety" Value="0" />
      </BoundProperties>
    </ImageClip>
    <ImageClip extentID="441" gapBefore="0" mediaItemID="437" duration="0.10000000000000001">
      <Effects />
      <Transitions />
      <BoundProperties>
        <BoundPropertyInt Name="rotateStepNinety" Value="0" />
      </BoundProperties>
    </ImageClip>
    <ImageClip extentID="963" gapBefore="0" mediaItemID="959" duration="0.10000000000000001">
      <Effects />
      <Transitions />
      <BoundProperties>
        <BoundPropertyInt Name="rotateStepNinety" Value="0" />
      </BoundProperties>
    </ImageClip>
    <ImageClip extentID="442" gapBefore="0" mediaItemID="438" duration="0.10000000000000001">
      <Effects />
      <Transitions />
      <BoundProperties>
        <BoundPropertyInt Name="rotateStepNinety" Value="0" />
      </BoundProperties>
    </ImageClip>
    <ImageClip extentID="964" gapBefore="0" mediaItemID="960" duration="0.10000000000000001">
      <Effects />
      <Transitions />
      <BoundProperties>
        <BoundPropertyInt Name="rotateStepNinety" Value="0" />
      </BoundProperties>
    </ImageClip>
    <ImageClip extentID="443" gapBefore="0" mediaItemID="439" duration="0.10000000000000001">
      <Effects />
      <Transitions />
      <BoundProperties>
        <BoundPropertyInt Name="rotateStepNinety" Value="0" />
      </BoundProperties>
    </ImageClip>
    <ImageClip extentID="965" gapBefore="0" mediaItemID="961" duration="0.10000000000000001">
      <Effects />
      <Transitions />
      <BoundProperties>
        <BoundPropertyInt Name="rotateStepNinety" Value="0" />
      </BoundProperties>
    </ImageClip>
    <ImageClip extentID="444" gapBefore="0" mediaItemID="440" duration="0.10000000000000001">
      <Effects />
      <Transitions />
      <BoundProperties>
        <BoundPropertyInt Name="rotateStepNinety" Value="0" />
      </BoundProperties>
    </ImageClip>
    <ImageClip extentID="966" gapBefore="0" mediaItemID="962" duration="0.10000000000000001">
      <Effects />
      <Transitions />
      <BoundProperties>
        <BoundPropertyInt Name="rotateStepNinety" Value="0" />
      </BoundProperties>
    </ImageClip>
    <ImageClip extentID="445" gapBefore="0" mediaItemID="441" duration="0.10000000000000001">
      <Effects />
      <Transitions />
      <BoundProperties>
        <BoundPropertyInt Name="rotateStepNinety" Value="0" />
      </BoundProperties>
    </ImageClip>
    <ImageClip extentID="967" gapBefore="0" mediaItemID="963" duration="0.10000000000000001">
      <Effects />
      <Transitions />
      <BoundProperties>
        <BoundPropertyInt Name="rotateStepNinety" Value="0" />
      </BoundProperties>
    </ImageClip>
    <ImageClip extentID="446" gapBefore="0" mediaItemID="442" duration="0.10000000000000001">
      <Effects />
      <Transitions />
      <BoundProperties>
        <BoundPropertyInt Name="rotateStepNinety" Value="0" />
      </BoundProperties>
    </ImageClip>
    <ImageClip extentID="968" gapBefore="0" mediaItemID="964" duration="0.10000000000000001">
      <Effects />
      <Transitions />
      <BoundProperties>
        <BoundPropertyInt Name="rotateStepNinety" Value="0" />
      </BoundProperties>
    </ImageClip>
    <ImageClip extentID="447" gapBefore="0" mediaItemID="443" duration="0.10000000000000001">
      <Effects />
      <Transitions />
      <BoundProperties>
        <BoundPropertyInt Name="rotateStepNinety" Value="0" />
      </BoundProperties>
    </ImageClip>
    <ImageClip extentID="969" gapBefore="0" mediaItemID="965" duration="0.10000000000000001">
      <Effects />
      <Transitions />
      <BoundProperties>
        <BoundPropertyInt Name="rotateStepNinety" Value="0" />
      </BoundProperties>
    </ImageClip>
    <ImageClip extentID="448" gapBefore="0" mediaItemID="444" duration="0.10000000000000001">
      <Effects />
      <Transitions />
      <BoundProperties>
        <BoundPropertyInt Name="rotateStepNinety" Value="0" />
      </BoundProperties>
    </ImageClip>
    <ImageClip extentID="970" gapBefore="0" mediaItemID="966" duration="0.10000000000000001">
      <Effects />
      <Transitions />
      <BoundProperties>
        <BoundPropertyInt Name="rotateStepNinety" Value="0" />
      </BoundProperties>
    </ImageClip>
    <ImageClip extentID="449" gapBefore="0" mediaItemID="445" duration="0.10000000000000001">
      <Effects />
      <Transitions />
      <BoundProperties>
        <BoundPropertyInt Name="rotateStepNinety" Value="0" />
      </BoundProperties>
    </ImageClip>
    <ImageClip extentID="971" gapBefore="0" mediaItemID="967" duration="0.10000000000000001">
      <Effects />
      <Transitions />
      <BoundProperties>
        <BoundPropertyInt Name="rotateStepNinety" Value="0" />
      </BoundProperties>
    </ImageClip>
    <ImageClip extentID="450" gapBefore="0" mediaItemID="446" duration="0.10000000000000001">
      <Effects />
      <Transitions />
      <BoundProperties>
        <BoundPropertyInt Name="rotateStepNinety" Value="0" />
      </BoundProperties>
    </ImageClip>
    <ImageClip extentID="972" gapBefore="0" mediaItemID="968" duration="0.10000000000000001">
      <Effects />
      <Transitions />
      <BoundProperties>
        <BoundPropertyInt Name="rotateStepNinety" Value="0" />
      </BoundProperties>
    </ImageClip>
    <ImageClip extentID="451" gapBefore="0" mediaItemID="447" duration="0.10000000000000001">
      <Effects />
      <Transitions />
      <BoundProperties>
        <BoundPropertyInt Name="rotateStepNinety" Value="0" />
      </BoundProperties>
    </ImageClip>
    <ImageClip extentID="973" gapBefore="0" mediaItemID="969" duration="0.10000000000000001">
      <Effects />
      <Transitions />
      <BoundProperties>
        <BoundPropertyInt Name="rotateStepNinety" Value="0" />
      </BoundProperties>
    </ImageClip>
    <ImageClip extentID="452" gapBefore="0" mediaItemID="448" duration="0.10000000000000001">
      <Effects />
      <Transitions />
      <BoundProperties>
        <BoundPropertyInt Name="rotateStepNinety" Value="0" />
      </BoundProperties>
    </ImageClip>
    <ImageClip extentID="974" gapBefore="0" mediaItemID="970" duration="0.10000000000000001">
      <Effects />
      <Transitions />
      <BoundProperties>
        <BoundPropertyInt Name="rotateStepNinety" Value="0" />
      </BoundProperties>
    </ImageClip>
    <ImageClip extentID="453" gapBefore="0" mediaItemID="449" duration="0.10000000000000001">
      <Effects />
      <Transitions />
      <BoundProperties>
        <BoundPropertyInt Name="rotateStepNinety" Value="0" />
      </BoundProperties>
    </ImageClip>
    <ImageClip extentID="975" gapBefore="0" mediaItemID="971" duration="0.10000000000000001">
      <Effects />
      <Transitions />
      <BoundProperties>
        <BoundPropertyInt Name="rotateStepNinety" Value="0" />
      </BoundProperties>
    </ImageClip>
    <ImageClip extentID="454" gapBefore="0" mediaItemID="450" duration="0.10000000000000001">
      <Effects />
      <Transitions />
      <BoundProperties>
        <BoundPropertyInt Name="rotateStepNinety" Value="0" />
      </BoundProperties>
    </ImageClip>
    <ImageClip extentID="976" gapBefore="0" mediaItemID="972" duration="0.10000000000000001">
      <Effects />
      <Transitions />
      <BoundProperties>
        <BoundPropertyInt Name="rotateStepNinety" Value="0" />
      </BoundProperties>
    </ImageClip>
    <ImageClip extentID="455" gapBefore="0" mediaItemID="451" duration="0.10000000000000001">
      <Effects />
      <Transitions />
      <BoundProperties>
        <BoundPropertyInt Name="rotateStepNinety" Value="0" />
      </BoundProperties>
    </ImageClip>
    <ImageClip extentID="977" gapBefore="0" mediaItemID="973" duration="0.10000000000000001">
      <Effects />
      <Transitions />
      <BoundProperties>
        <BoundPropertyInt Name="rotateStepNinety" Value="0" />
      </BoundProperties>
    </ImageClip>
    <ImageClip extentID="456" gapBefore="0" mediaItemID="452" duration="0.10000000000000001">
      <Effects />
      <Transitions />
      <BoundProperties>
        <BoundPropertyInt Name="rotateStepNinety" Value="0" />
      </BoundProperties>
    </ImageClip>
    <ImageClip extentID="978" gapBefore="0" mediaItemID="974" duration="0.10000000000000001">
      <Effects />
      <Transitions />
      <BoundProperties>
        <BoundPropertyInt Name="rotateStepNinety" Value="0" />
      </BoundProperties>
    </ImageClip>
    <ImageClip extentID="457" gapBefore="0" mediaItemID="453" duration="0.10000000000000001">
      <Effects />
      <Transitions />
      <BoundProperties>
        <BoundPropertyInt Name="rotateStepNinety" Value="0" />
      </BoundProperties>
    </ImageClip>
    <ImageClip extentID="979" gapBefore="0" mediaItemID="975" duration="0.10000000000000001">
      <Effects />
      <Transitions />
      <BoundProperties>
        <BoundPropertyInt Name="rotateStepNinety" Value="0" />
      </BoundProperties>
    </ImageClip>
    <ImageClip extentID="458" gapBefore="0" mediaItemID="454" duration="0.10000000000000001">
      <Effects />
      <Transitions />
      <BoundProperties>
        <BoundPropertyInt Name="rotateStepNinety" Value="0" />
      </BoundProperties>
    </ImageClip>
    <ImageClip extentID="980" gapBefore="0" mediaItemID="976" duration="0.10000000000000001">
      <Effects />
      <Transitions />
      <BoundProperties>
        <BoundPropertyInt Name="rotateStepNinety" Value="0" />
      </BoundProperties>
    </ImageClip>
    <ImageClip extentID="459" gapBefore="0" mediaItemID="455" duration="0.10000000000000001">
      <Effects />
      <Transitions />
      <BoundProperties>
        <BoundPropertyInt Name="rotateStepNinety" Value="0" />
      </BoundProperties>
    </ImageClip>
    <ImageClip extentID="981" gapBefore="0" mediaItemID="977" duration="0.10000000000000001">
      <Effects />
      <Transitions />
      <BoundProperties>
        <BoundPropertyInt Name="rotateStepNinety" Value="0" />
      </BoundProperties>
    </ImageClip>
    <ImageClip extentID="460" gapBefore="0" mediaItemID="456" duration="0.10000000000000001">
      <Effects />
      <Transitions />
      <BoundProperties>
        <BoundPropertyInt Name="rotateStepNinety" Value="0" />
      </BoundProperties>
    </ImageClip>
    <ImageClip extentID="982" gapBefore="0" mediaItemID="978" duration="0.10000000000000001">
      <Effects />
      <Transitions />
      <BoundProperties>
        <BoundPropertyInt Name="rotateStepNinety" Value="0" />
      </BoundProperties>
    </ImageClip>
    <ImageClip extentID="461" gapBefore="0" mediaItemID="457" duration="0.10000000000000001">
      <Effects />
      <Transitions />
      <BoundProperties>
        <BoundPropertyInt Name="rotateStepNinety" Value="0" />
      </BoundProperties>
    </ImageClip>
    <ImageClip extentID="983" gapBefore="0" mediaItemID="979" duration="0.10000000000000001">
      <Effects />
      <Transitions />
      <BoundProperties>
        <BoundPropertyInt Name="rotateStepNinety" Value="0" />
      </BoundProperties>
    </ImageClip>
    <ImageClip extentID="462" gapBefore="0" mediaItemID="458" duration="0.10000000000000001">
      <Effects />
      <Transitions />
      <BoundProperties>
        <BoundPropertyInt Name="rotateStepNinety" Value="0" />
      </BoundProperties>
    </ImageClip>
    <ImageClip extentID="984" gapBefore="0" mediaItemID="980" duration="0.10000000000000001">
      <Effects />
      <Transitions />
      <BoundProperties>
        <BoundPropertyInt Name="rotateStepNinety" Value="0" />
      </BoundProperties>
    </ImageClip>
    <ImageClip extentID="463" gapBefore="0" mediaItemID="459" duration="0.10000000000000001">
      <Effects />
      <Transitions />
      <BoundProperties>
        <BoundPropertyInt Name="rotateStepNinety" Value="0" />
      </BoundProperties>
    </ImageClip>
    <ImageClip extentID="985" gapBefore="0" mediaItemID="981" duration="0.10000000000000001">
      <Effects />
      <Transitions />
      <BoundProperties>
        <BoundPropertyInt Name="rotateStepNinety" Value="0" />
      </BoundProperties>
    </ImageClip>
    <ImageClip extentID="464" gapBefore="0" mediaItemID="460" duration="0.10000000000000001">
      <Effects />
      <Transitions />
      <BoundProperties>
        <BoundPropertyInt Name="rotateStepNinety" Value="0" />
      </BoundProperties>
    </ImageClip>
    <ImageClip extentID="986" gapBefore="0" mediaItemID="982" duration="0.10000000000000001">
      <Effects />
      <Transitions />
      <BoundProperties>
        <BoundPropertyInt Name="rotateStepNinety" Value="0" />
      </BoundProperties>
    </ImageClip>
    <ImageClip extentID="465" gapBefore="0" mediaItemID="461" duration="0.10000000000000001">
      <Effects />
      <Transitions />
      <BoundProperties>
        <BoundPropertyInt Name="rotateStepNinety" Value="0" />
      </BoundProperties>
    </ImageClip>
    <ImageClip extentID="987" gapBefore="0" mediaItemID="983" duration="0.10000000000000001">
      <Effects />
      <Transitions />
      <BoundProperties>
        <BoundPropertyInt Name="rotateStepNinety" Value="0" />
      </BoundProperties>
    </ImageClip>
    <ImageClip extentID="466" gapBefore="0" mediaItemID="462" duration="0.10000000000000001">
      <Effects />
      <Transitions />
      <BoundProperties>
        <BoundPropertyInt Name="rotateStepNinety" Value="0" />
      </BoundProperties>
    </ImageClip>
    <ImageClip extentID="988" gapBefore="0" mediaItemID="984" duration="0.10000000000000001">
      <Effects />
      <Transitions />
      <BoundProperties>
        <BoundPropertyInt Name="rotateStepNinety" Value="0" />
      </BoundProperties>
    </ImageClip>
    <ImageClip extentID="467" gapBefore="0" mediaItemID="463" duration="0.10000000000000001">
      <Effects />
      <Transitions />
      <BoundProperties>
        <BoundPropertyInt Name="rotateStepNinety" Value="0" />
      </BoundProperties>
    </ImageClip>
    <ImageClip extentID="989" gapBefore="0" mediaItemID="985" duration="0.10000000000000001">
      <Effects />
      <Transitions />
      <BoundProperties>
        <BoundPropertyInt Name="rotateStepNinety" Value="0" />
      </BoundProperties>
    </ImageClip>
    <ImageClip extentID="468" gapBefore="0" mediaItemID="464" duration="0.10000000000000001">
      <Effects />
      <Transitions />
      <BoundProperties>
        <BoundPropertyInt Name="rotateStepNinety" Value="0" />
      </BoundProperties>
    </ImageClip>
    <ImageClip extentID="990" gapBefore="0" mediaItemID="986" duration="0.10000000000000001">
      <Effects />
      <Transitions />
      <BoundProperties>
        <BoundPropertyInt Name="rotateStepNinety" Value="0" />
      </BoundProperties>
    </ImageClip>
    <ImageClip extentID="469" gapBefore="0" mediaItemID="465" duration="0.10000000000000001">
      <Effects />
      <Transitions />
      <BoundProperties>
        <BoundPropertyInt Name="rotateStepNinety" Value="0" />
      </BoundProperties>
    </ImageClip>
    <ImageClip extentID="991" gapBefore="0" mediaItemID="987" duration="0.10000000000000001">
      <Effects />
      <Transitions />
      <BoundProperties>
        <BoundPropertyInt Name="rotateStepNinety" Value="0" />
      </BoundProperties>
    </ImageClip>
    <ImageClip extentID="470" gapBefore="0" mediaItemID="466" duration="0.10000000000000001">
      <Effects />
      <Transitions />
      <BoundProperties>
        <BoundPropertyInt Name="rotateStepNinety" Value="0" />
      </BoundProperties>
    </ImageClip>
    <ImageClip extentID="992" gapBefore="0" mediaItemID="988" duration="0.10000000000000001">
      <Effects />
      <Transitions />
      <BoundProperties>
        <BoundPropertyInt Name="rotateStepNinety" Value="0" />
      </BoundProperties>
    </ImageClip>
    <ImageClip extentID="471" gapBefore="0" mediaItemID="467" duration="0.10000000000000001">
      <Effects />
      <Transitions />
      <BoundProperties>
        <BoundPropertyInt Name="rotateStepNinety" Value="0" />
      </BoundProperties>
    </ImageClip>
    <ImageClip extentID="993" gapBefore="0" mediaItemID="989" duration="0.10000000000000001">
      <Effects />
      <Transitions />
      <BoundProperties>
        <BoundPropertyInt Name="rotateStepNinety" Value="0" />
      </BoundProperties>
    </ImageClip>
    <ImageClip extentID="472" gapBefore="0" mediaItemID="468" duration="0.10000000000000001">
      <Effects />
      <Transitions />
      <BoundProperties>
        <BoundPropertyInt Name="rotateStepNinety" Value="0" />
      </BoundProperties>
    </ImageClip>
    <ImageClip extentID="994" gapBefore="0" mediaItemID="990" duration="0.10000000000000001">
      <Effects />
      <Transitions />
      <BoundProperties>
        <BoundPropertyInt Name="rotateStepNinety" Value="0" />
      </BoundProperties>
    </ImageClip>
    <ImageClip extentID="473" gapBefore="0" mediaItemID="469" duration="0.10000000000000001">
      <Effects />
      <Transitions />
      <BoundProperties>
        <BoundPropertyInt Name="rotateStepNinety" Value="0" />
      </BoundProperties>
    </ImageClip>
    <ImageClip extentID="995" gapBefore="0" mediaItemID="991" duration="0.10000000000000001">
      <Effects />
      <Transitions />
      <BoundProperties>
        <BoundPropertyInt Name="rotateStepNinety" Value="0" />
      </BoundProperties>
    </ImageClip>
    <ImageClip extentID="474" gapBefore="0" mediaItemID="470" duration="0.10000000000000001">
      <Effects />
      <Transitions />
      <BoundProperties>
        <BoundPropertyInt Name="rotateStepNinety" Value="0" />
      </BoundProperties>
    </ImageClip>
    <ImageClip extentID="996" gapBefore="0" mediaItemID="992" duration="0.10000000000000001">
      <Effects />
      <Transitions />
      <BoundProperties>
        <BoundPropertyInt Name="rotateStepNinety" Value="0" />
      </BoundProperties>
    </ImageClip>
    <ImageClip extentID="475" gapBefore="0" mediaItemID="471" duration="0.10000000000000001">
      <Effects />
      <Transitions />
      <BoundProperties>
        <BoundPropertyInt Name="rotateStepNinety" Value="0" />
      </BoundProperties>
    </ImageClip>
    <ImageClip extentID="997" gapBefore="0" mediaItemID="993" duration="0.10000000000000001">
      <Effects />
      <Transitions />
      <BoundProperties>
        <BoundPropertyInt Name="rotateStepNinety" Value="0" />
      </BoundProperties>
    </ImageClip>
    <ImageClip extentID="476" gapBefore="0" mediaItemID="472" duration="0.10000000000000001">
      <Effects />
      <Transitions />
      <BoundProperties>
        <BoundPropertyInt Name="rotateStepNinety" Value="0" />
      </BoundProperties>
    </ImageClip>
    <ImageClip extentID="998" gapBefore="0" mediaItemID="994" duration="0.10000000000000001">
      <Effects />
      <Transitions />
      <BoundProperties>
        <BoundPropertyInt Name="rotateStepNinety" Value="0" />
      </BoundProperties>
    </ImageClip>
    <ImageClip extentID="477" gapBefore="0" mediaItemID="473" duration="0.10000000000000001">
      <Effects />
      <Transitions />
      <BoundProperties>
        <BoundPropertyInt Name="rotateStepNinety" Value="0" />
      </BoundProperties>
    </ImageClip>
    <ImageClip extentID="999" gapBefore="0" mediaItemID="995" duration="0.10000000000000001">
      <Effects />
      <Transitions />
      <BoundProperties>
        <BoundPropertyInt Name="rotateStepNinety" Value="0" />
      </BoundProperties>
    </ImageClip>
    <ImageClip extentID="478" gapBefore="0" mediaItemID="474" duration="0.10000000000000001">
      <Effects />
      <Transitions />
      <BoundProperties>
        <BoundPropertyInt Name="rotateStepNinety" Value="0" />
      </BoundProperties>
    </ImageClip>
    <ImageClip extentID="1000" gapBefore="0" mediaItemID="996" duration="0.10000000000000001">
      <Effects />
      <Transitions />
      <BoundProperties>
        <BoundPropertyInt Name="rotateStepNinety" Value="0" />
      </BoundProperties>
    </ImageClip>
    <ImageClip extentID="479" gapBefore="0" mediaItemID="475" duration="0.10000000000000001">
      <Effects />
      <Transitions />
      <BoundProperties>
        <BoundPropertyInt Name="rotateStepNinety" Value="0" />
      </BoundProperties>
    </ImageClip>
    <ImageClip extentID="1001" gapBefore="0" mediaItemID="997" duration="0.10000000000000001">
      <Effects />
      <Transitions />
      <BoundProperties>
        <BoundPropertyInt Name="rotateStepNinety" Value="0" />
      </BoundProperties>
    </ImageClip>
    <ImageClip extentID="480" gapBefore="0" mediaItemID="476" duration="0.10000000000000001">
      <Effects />
      <Transitions />
      <BoundProperties>
        <BoundPropertyInt Name="rotateStepNinety" Value="0" />
      </BoundProperties>
    </ImageClip>
    <ImageClip extentID="1002" gapBefore="0" mediaItemID="998" duration="0.10000000000000001">
      <Effects />
      <Transitions />
      <BoundProperties>
        <BoundPropertyInt Name="rotateStepNinety" Value="0" />
      </BoundProperties>
    </ImageClip>
    <ImageClip extentID="481" gapBefore="0" mediaItemID="477" duration="0.10000000000000001">
      <Effects />
      <Transitions />
      <BoundProperties>
        <BoundPropertyInt Name="rotateStepNinety" Value="0" />
      </BoundProperties>
    </ImageClip>
    <ImageClip extentID="1003" gapBefore="0" mediaItemID="999" duration="0.10000000000000001">
      <Effects />
      <Transitions />
      <BoundProperties>
        <BoundPropertyInt Name="rotateStepNinety" Value="0" />
      </BoundProperties>
    </ImageClip>
    <ImageClip extentID="482" gapBefore="0" mediaItemID="478" duration="0.10000000000000001">
      <Effects />
      <Transitions />
      <BoundProperties>
        <BoundPropertyInt Name="rotateStepNinety" Value="0" />
      </BoundProperties>
    </ImageClip>
    <ImageClip extentID="1004" gapBefore="0" mediaItemID="1000" duration="0.10000000000000001">
      <Effects />
      <Transitions />
      <BoundProperties>
        <BoundPropertyInt Name="rotateStepNinety" Value="0" />
      </BoundProperties>
    </ImageClip>
    <ImageClip extentID="483" gapBefore="0" mediaItemID="479" duration="0.10000000000000001">
      <Effects />
      <Transitions />
      <BoundProperties>
        <BoundPropertyInt Name="rotateStepNinety" Value="0" />
      </BoundProperties>
    </ImageClip>
    <ImageClip extentID="484" gapBefore="0" mediaItemID="480" duration="0.10000000000000001">
      <Effects />
      <Transitions />
      <BoundProperties>
        <BoundPropertyInt Name="rotateStepNinety" Value="0" />
      </BoundProperties>
    </ImageClip>
    <ImageClip extentID="485" gapBefore="0" mediaItemID="481" duration="0.10000000000000001">
      <Effects />
      <Transitions />
      <BoundProperties>
        <BoundPropertyInt Name="rotateStepNinety" Value="0" />
      </BoundProperties>
    </ImageClip>
    <ImageClip extentID="486" gapBefore="0" mediaItemID="482" duration="0.10000000000000001">
      <Effects />
      <Transitions />
      <BoundProperties>
        <BoundPropertyInt Name="rotateStepNinety" Value="0" />
      </BoundProperties>
    </ImageClip>
    <ImageClip extentID="487" gapBefore="0" mediaItemID="483" duration="0.10000000000000001">
      <Effects />
      <Transitions />
      <BoundProperties>
        <BoundPropertyInt Name="rotateStepNinety" Value="0" />
      </BoundProperties>
    </ImageClip>
    <ImageClip extentID="488" gapBefore="0" mediaItemID="484" duration="0.10000000000000001">
      <Effects />
      <Transitions />
      <BoundProperties>
        <BoundPropertyInt Name="rotateStepNinety" Value="0" />
      </BoundProperties>
    </ImageClip>
    <ImageClip extentID="489" gapBefore="0" mediaItemID="485" duration="0.10000000000000001">
      <Effects />
      <Transitions />
      <BoundProperties>
        <BoundPropertyInt Name="rotateStepNinety" Value="0" />
      </BoundProperties>
    </ImageClip>
    <ImageClip extentID="490" gapBefore="0" mediaItemID="486" duration="0.10000000000000001">
      <Effects />
      <Transitions />
      <BoundProperties>
        <BoundPropertyInt Name="rotateStepNinety" Value="0" />
      </BoundProperties>
    </ImageClip>
    <ImageClip extentID="491" gapBefore="0" mediaItemID="487" duration="0.10000000000000001">
      <Effects />
      <Transitions />
      <BoundProperties>
        <BoundPropertyInt Name="rotateStepNinety" Value="0" />
      </BoundProperties>
    </ImageClip>
    <ImageClip extentID="492" gapBefore="0" mediaItemID="488" duration="0.10000000000000001">
      <Effects />
      <Transitions />
      <BoundProperties>
        <BoundPropertyInt Name="rotateStepNinety" Value="0" />
      </BoundProperties>
    </ImageClip>
    <ImageClip extentID="493" gapBefore="0" mediaItemID="489" duration="0.10000000000000001">
      <Effects />
      <Transitions />
      <BoundProperties>
        <BoundPropertyInt Name="rotateStepNinety" Value="0" />
      </BoundProperties>
    </ImageClip>
    <ImageClip extentID="494" gapBefore="0" mediaItemID="490" duration="0.10000000000000001">
      <Effects />
      <Transitions />
      <BoundProperties>
        <BoundPropertyInt Name="rotateStepNinety" Value="0" />
      </BoundProperties>
    </ImageClip>
    <ImageClip extentID="495" gapBefore="0" mediaItemID="491" duration="0.10000000000000001">
      <Effects />
      <Transitions />
      <BoundProperties>
        <BoundPropertyInt Name="rotateStepNinety" Value="0" />
      </BoundProperties>
    </ImageClip>
    <ImageClip extentID="496" gapBefore="0" mediaItemID="492" duration="0.10000000000000001">
      <Effects />
      <Transitions />
      <BoundProperties>
        <BoundPropertyInt Name="rotateStepNinety" Value="0" />
      </BoundProperties>
    </ImageClip>
    <ImageClip extentID="497" gapBefore="0" mediaItemID="493" duration="0.10000000000000001">
      <Effects />
      <Transitions />
      <BoundProperties>
        <BoundPropertyInt Name="rotateStepNinety" Value="0" />
      </BoundProperties>
    </ImageClip>
    <ImageClip extentID="498" gapBefore="0" mediaItemID="494" duration="0.10000000000000001">
      <Effects />
      <Transitions />
      <BoundProperties>
        <BoundPropertyInt Name="rotateStepNinety" Value="0" />
      </BoundProperties>
    </ImageClip>
    <ImageClip extentID="499" gapBefore="0" mediaItemID="495" duration="0.10000000000000001">
      <Effects />
      <Transitions />
      <BoundProperties>
        <BoundPropertyInt Name="rotateStepNinety" Value="0" />
      </BoundProperties>
    </ImageClip>
    <ImageClip extentID="500" gapBefore="0" mediaItemID="496" duration="0.10000000000000001">
      <Effects />
      <Transitions />
      <BoundProperties>
        <BoundPropertyInt Name="rotateStepNinety" Value="0" />
      </BoundProperties>
    </ImageClip>
    <ImageClip extentID="501" gapBefore="0" mediaItemID="497" duration="0.10000000000000001">
      <Effects />
      <Transitions />
      <BoundProperties>
        <BoundPropertyInt Name="rotateStepNinety" Value="0" />
      </BoundProperties>
    </ImageClip>
    <ImageClip extentID="502" gapBefore="0" mediaItemID="498" duration="0.10000000000000001">
      <Effects />
      <Transitions />
      <BoundProperties>
        <BoundPropertyInt Name="rotateStepNinety" Value="0" />
      </BoundProperties>
    </ImageClip>
    <ImageClip extentID="503" gapBefore="0" mediaItemID="499" duration="0.10000000000000001">
      <Effects />
      <Transitions />
      <BoundProperties>
        <BoundPropertyInt Name="rotateStepNinety" Value="0" />
      </BoundProperties>
    </ImageClip>
    <ImageClip extentID="504" gapBefore="0" mediaItemID="500" duration="0.10000000000000001">
      <Effects />
      <Transitions />
      <BoundProperties>
        <BoundPropertyInt Name="rotateStepNinety" Value="0" />
      </BoundProperties>
    </ImageClip>
    <ImageClip extentID="505" gapBefore="0" mediaItemID="501" duration="0.10000000000000001">
      <Effects />
      <Transitions />
      <BoundProperties>
        <BoundPropertyInt Name="rotateStepNinety" Value="0" />
      </BoundProperties>
    </ImageClip>
    <ImageClip extentID="506" gapBefore="0" mediaItemID="502" duration="0.10000000000000001">
      <Effects />
      <Transitions />
      <BoundProperties>
        <BoundPropertyInt Name="rotateStepNinety" Value="0" />
      </BoundProperties>
    </ImageClip>
    <ImageClip extentID="507" gapBefore="0" mediaItemID="503" duration="0.10000000000000001">
      <Effects />
      <Transitions />
      <BoundProperties>
        <BoundPropertyInt Name="rotateStepNinety" Value="0" />
      </BoundProperties>
    </ImageClip>
    <ImageClip extentID="508" gapBefore="0" mediaItemID="504" duration="0.10000000000000001">
      <Effects />
      <Transitions />
      <BoundProperties>
        <BoundPropertyInt Name="rotateStepNinety" Value="0" />
      </BoundProperties>
    </ImageClip>
    <ImageClip extentID="509" gapBefore="0" mediaItemID="505" duration="0.10000000000000001">
      <Effects />
      <Transitions />
      <BoundProperties>
        <BoundPropertyInt Name="rotateStepNinety" Value="0" />
      </BoundProperties>
    </ImageClip>
    <ImageClip extentID="510" gapBefore="0" mediaItemID="506" duration="0.10000000000000001">
      <Effects />
      <Transitions />
      <BoundProperties>
        <BoundPropertyInt Name="rotateStepNinety" Value="0" />
      </BoundProperties>
    </ImageClip>
    <ImageClip extentID="511" gapBefore="0" mediaItemID="507" duration="0.10000000000000001">
      <Effects />
      <Transitions />
      <BoundProperties>
        <BoundPropertyInt Name="rotateStepNinety" Value="0" />
      </BoundProperties>
    </ImageClip>
    <ImageClip extentID="512" gapBefore="0" mediaItemID="508" duration="0.10000000000000001">
      <Effects />
      <Transitions />
      <BoundProperties>
        <BoundPropertyInt Name="rotateStepNinety" Value="0" />
      </BoundProperties>
    </ImageClip>
    <ImageClip extentID="513" gapBefore="0" mediaItemID="509" duration="0.10000000000000001">
      <Effects />
      <Transitions />
      <BoundProperties>
        <BoundPropertyInt Name="rotateStepNinety" Value="0" />
      </BoundProperties>
    </ImageClip>
    <ImageClip extentID="514" gapBefore="0" mediaItemID="510" duration="0.10000000000000001">
      <Effects />
      <Transitions />
      <BoundProperties>
        <BoundPropertyInt Name="rotateStepNinety" Value="0" />
      </BoundProperties>
    </ImageClip>
    <ImageClip extentID="515" gapBefore="0" mediaItemID="511" duration="0.10000000000000001">
      <Effects />
      <Transitions />
      <BoundProperties>
        <BoundPropertyInt Name="rotateStepNinety" Value="0" />
      </BoundProperties>
    </ImageClip>
    <ImageClip extentID="516" gapBefore="0" mediaItemID="512" duration="0.10000000000000001">
      <Effects />
      <Transitions />
      <BoundProperties>
        <BoundPropertyInt Name="rotateStepNinety" Value="0" />
      </BoundProperties>
    </ImageClip>
    <ImageClip extentID="517" gapBefore="0" mediaItemID="513" duration="0.10000000000000001">
      <Effects />
      <Transitions />
      <BoundProperties>
        <BoundPropertyInt Name="rotateStepNinety" Value="0" />
      </BoundProperties>
    </ImageClip>
    <ImageClip extentID="518" gapBefore="0" mediaItemID="514" duration="0.10000000000000001">
      <Effects />
      <Transitions />
      <BoundProperties>
        <BoundPropertyInt Name="rotateStepNinety" Value="0" />
      </BoundProperties>
    </ImageClip>
    <ImageClip extentID="519" gapBefore="0" mediaItemID="515" duration="0.10000000000000001">
      <Effects />
      <Transitions />
      <BoundProperties>
        <BoundPropertyInt Name="rotateStepNinety" Value="0" />
      </BoundProperties>
    </ImageClip>
    <ImageClip extentID="520" gapBefore="0" mediaItemID="516" duration="0.10000000000000001">
      <Effects />
      <Transitions />
      <BoundProperties>
        <BoundPropertyInt Name="rotateStepNinety" Value="0" />
      </BoundProperties>
    </ImageClip>
    <ExtentSelector extentID="1" gapBefore="0" primaryTrack="true">
      <Effects />
      <Transitions />
      <BoundProperties />
      <ExtentRefs>
        <ExtentRef id="5" />
        <ExtentRef id="6" />
        <ExtentRef id="7" />
        <ExtentRef id="8" />
        <ExtentRef id="9" />
        <ExtentRef id="10" />
        <ExtentRef id="11" />
        <ExtentRef id="12" />
        <ExtentRef id="13" />
        <ExtentRef id="14" />
        <ExtentRef id="15" />
        <ExtentRef id="16" />
        <ExtentRef id="17" />
        <ExtentRef id="18" />
        <ExtentRef id="19" />
        <ExtentRef id="20" />
        <ExtentRef id="21" />
        <ExtentRef id="22" />
        <ExtentRef id="23" />
        <ExtentRef id="24" />
        <ExtentRef id="25" />
        <ExtentRef id="26" />
        <ExtentRef id="27" />
        <ExtentRef id="28" />
        <ExtentRef id="29" />
        <ExtentRef id="30" />
        <ExtentRef id="31" />
        <ExtentRef id="32" />
        <ExtentRef id="33" />
        <ExtentRef id="34" />
        <ExtentRef id="35" />
        <ExtentRef id="36" />
        <ExtentRef id="37" />
        <ExtentRef id="38" />
        <ExtentRef id="39" />
        <ExtentRef id="40" />
        <ExtentRef id="41" />
        <ExtentRef id="42" />
        <ExtentRef id="43" />
        <ExtentRef id="44" />
        <ExtentRef id="45" />
        <ExtentRef id="46" />
        <ExtentRef id="47" />
        <ExtentRef id="48" />
        <ExtentRef id="49" />
        <ExtentRef id="50" />
        <ExtentRef id="51" />
        <ExtentRef id="52" />
        <ExtentRef id="53" />
        <ExtentRef id="54" />
        <ExtentRef id="55" />
        <ExtentRef id="56" />
        <ExtentRef id="57" />
        <ExtentRef id="58" />
        <ExtentRef id="59" />
        <ExtentRef id="60" />
        <ExtentRef id="61" />
        <ExtentRef id="62" />
        <ExtentRef id="63" />
        <ExtentRef id="64" />
        <ExtentRef id="65" />
        <ExtentRef id="66" />
        <ExtentRef id="67" />
        <ExtentRef id="68" />
        <ExtentRef id="69" />
        <ExtentRef id="70" />
        <ExtentRef id="71" />
        <ExtentRef id="72" />
        <ExtentRef id="73" />
        <ExtentRef id="74" />
        <ExtentRef id="75" />
        <ExtentRef id="76" />
        <ExtentRef id="77" />
        <ExtentRef id="78" />
        <ExtentRef id="79" />
        <ExtentRef id="80" />
        <ExtentRef id="81" />
        <ExtentRef id="82" />
        <ExtentRef id="83" />
        <ExtentRef id="84" />
        <ExtentRef id="85" />
        <ExtentRef id="86" />
        <ExtentRef id="87" />
        <ExtentRef id="88" />
        <ExtentRef id="89" />
        <ExtentRef id="90" />
        <ExtentRef id="91" />
        <ExtentRef id="92" />
        <ExtentRef id="93" />
        <ExtentRef id="94" />
        <ExtentRef id="95" />
        <ExtentRef id="96" />
        <ExtentRef id="97" />
        <ExtentRef id="98" />
        <ExtentRef id="99" />
        <ExtentRef id="100" />
        <ExtentRef id="101" />
        <ExtentRef id="102" />
        <ExtentRef id="103" />
        <ExtentRef id="104" />
        <ExtentRef id="105" />
        <ExtentRef id="106" />
        <ExtentRef id="107" />
        <ExtentRef id="108" />
        <ExtentRef id="109" />
        <ExtentRef id="110" />
        <ExtentRef id="111" />
        <ExtentRef id="112" />
        <ExtentRef id="113" />
        <ExtentRef id="114" />
        <ExtentRef id="115" />
        <ExtentRef id="116" />
        <ExtentRef id="117" />
        <ExtentRef id="118" />
        <ExtentRef id="119" />
        <ExtentRef id="120" />
        <ExtentRef id="121" />
        <ExtentRef id="122" />
        <ExtentRef id="123" />
        <ExtentRef id="124" />
        <ExtentRef id="125" />
        <ExtentRef id="126" />
        <ExtentRef id="127" />
        <ExtentRef id="128" />
        <ExtentRef id="129" />
        <ExtentRef id="130" />
        <ExtentRef id="131" />
        <ExtentRef id="132" />
        <ExtentRef id="133" />
        <ExtentRef id="134" />
        <ExtentRef id="135" />
        <ExtentRef id="136" />
        <ExtentRef id="137" />
        <ExtentRef id="138" />
        <ExtentRef id="139" />
        <ExtentRef id="140" />
        <ExtentRef id="141" />
        <ExtentRef id="142" />
        <ExtentRef id="143" />
        <ExtentRef id="144" />
        <ExtentRef id="145" />
        <ExtentRef id="146" />
        <ExtentRef id="147" />
        <ExtentRef id="148" />
        <ExtentRef id="149" />
        <ExtentRef id="150" />
        <ExtentRef id="151" />
        <ExtentRef id="152" />
        <ExtentRef id="153" />
        <ExtentRef id="154" />
        <ExtentRef id="155" />
        <ExtentRef id="156" />
        <ExtentRef id="157" />
        <ExtentRef id="158" />
        <ExtentRef id="159" />
        <ExtentRef id="160" />
        <ExtentRef id="161" />
        <ExtentRef id="162" />
        <ExtentRef id="163" />
        <ExtentRef id="164" />
        <ExtentRef id="165" />
        <ExtentRef id="166" />
        <ExtentRef id="167" />
        <ExtentRef id="168" />
        <ExtentRef id="169" />
        <ExtentRef id="170" />
        <ExtentRef id="171" />
        <ExtentRef id="172" />
        <ExtentRef id="173" />
        <ExtentRef id="174" />
        <ExtentRef id="175" />
        <ExtentRef id="176" />
        <ExtentRef id="177" />
        <ExtentRef id="178" />
        <ExtentRef id="179" />
        <ExtentRef id="180" />
        <ExtentRef id="181" />
        <ExtentRef id="182" />
        <ExtentRef id="183" />
        <ExtentRef id="184" />
        <ExtentRef id="185" />
        <ExtentRef id="186" />
        <ExtentRef id="187" />
        <ExtentRef id="188" />
        <ExtentRef id="189" />
        <ExtentRef id="190" />
        <ExtentRef id="191" />
        <ExtentRef id="192" />
        <ExtentRef id="193" />
        <ExtentRef id="194" />
        <ExtentRef id="195" />
        <ExtentRef id="196" />
        <ExtentRef id="197" />
        <ExtentRef id="198" />
        <ExtentRef id="199" />
        <ExtentRef id="200" />
        <ExtentRef id="201" />
        <ExtentRef id="202" />
        <ExtentRef id="203" />
        <ExtentRef id="204" />
        <ExtentRef id="205" />
        <ExtentRef id="206" />
        <ExtentRef id="207" />
        <ExtentRef id="208" />
        <ExtentRef id="209" />
        <ExtentRef id="210" />
        <ExtentRef id="211" />
        <ExtentRef id="212" />
        <ExtentRef id="213" />
        <ExtentRef id="214" />
        <ExtentRef id="215" />
        <ExtentRef id="216" />
        <ExtentRef id="217" />
        <ExtentRef id="218" />
        <ExtentRef id="219" />
        <ExtentRef id="220" />
        <ExtentRef id="221" />
        <ExtentRef id="222" />
        <ExtentRef id="223" />
        <ExtentRef id="224" />
        <ExtentRef id="225" />
        <ExtentRef id="226" />
        <ExtentRef id="227" />
        <ExtentRef id="228" />
        <ExtentRef id="229" />
        <ExtentRef id="230" />
        <ExtentRef id="231" />
        <ExtentRef id="232" />
        <ExtentRef id="233" />
        <ExtentRef id="234" />
        <ExtentRef id="235" />
        <ExtentRef id="236" />
        <ExtentRef id="237" />
        <ExtentRef id="238" />
        <ExtentRef id="239" />
        <ExtentRef id="240" />
        <ExtentRef id="241" />
        <ExtentRef id="242" />
        <ExtentRef id="243" />
        <ExtentRef id="244" />
        <ExtentRef id="245" />
        <ExtentRef id="246" />
        <ExtentRef id="247" />
        <ExtentRef id="248" />
        <ExtentRef id="249" />
        <ExtentRef id="250" />
        <ExtentRef id="251" />
        <ExtentRef id="252" />
        <ExtentRef id="253" />
        <ExtentRef id="254" />
        <ExtentRef id="255" />
        <ExtentRef id="256" />
        <ExtentRef id="257" />
        <ExtentRef id="258" />
        <ExtentRef id="259" />
        <ExtentRef id="260" />
        <ExtentRef id="261" />
        <ExtentRef id="262" />
        <ExtentRef id="263" />
        <ExtentRef id="264" />
        <ExtentRef id="265" />
        <ExtentRef id="266" />
        <ExtentRef id="267" />
        <ExtentRef id="268" />
        <ExtentRef id="269" />
        <ExtentRef id="270" />
        <ExtentRef id="271" />
        <ExtentRef id="272" />
        <ExtentRef id="273" />
        <ExtentRef id="274" />
        <ExtentRef id="275" />
        <ExtentRef id="276" />
        <ExtentRef id="277" />
        <ExtentRef id="278" />
        <ExtentRef id="279" />
        <ExtentRef id="280" />
        <ExtentRef id="281" />
        <ExtentRef id="282" />
        <ExtentRef id="283" />
        <ExtentRef id="284" />
        <ExtentRef id="285" />
        <ExtentRef id="286" />
        <ExtentRef id="287" />
        <ExtentRef id="288" />
        <ExtentRef id="289" />
        <ExtentRef id="290" />
        <ExtentRef id="291" />
        <ExtentRef id="292" />
        <ExtentRef id="293" />
        <ExtentRef id="294" />
        <ExtentRef id="295" />
        <ExtentRef id="296" />
        <ExtentRef id="297" />
        <ExtentRef id="298" />
        <ExtentRef id="299" />
        <ExtentRef id="300" />
        <ExtentRef id="301" />
        <ExtentRef id="302" />
        <ExtentRef id="303" />
        <ExtentRef id="304" />
        <ExtentRef id="305" />
        <ExtentRef id="306" />
        <ExtentRef id="307" />
        <ExtentRef id="308" />
        <ExtentRef id="309" />
        <ExtentRef id="310" />
        <ExtentRef id="311" />
        <ExtentRef id="312" />
        <ExtentRef id="313" />
        <ExtentRef id="314" />
        <ExtentRef id="315" />
        <ExtentRef id="316" />
        <ExtentRef id="317" />
        <ExtentRef id="318" />
        <ExtentRef id="319" />
        <ExtentRef id="320" />
        <ExtentRef id="321" />
        <ExtentRef id="322" />
        <ExtentRef id="323" />
        <ExtentRef id="324" />
        <ExtentRef id="325" />
        <ExtentRef id="326" />
        <ExtentRef id="327" />
        <ExtentRef id="328" />
        <ExtentRef id="329" />
        <ExtentRef id="330" />
        <ExtentRef id="331" />
        <ExtentRef id="332" />
        <ExtentRef id="333" />
        <ExtentRef id="334" />
        <ExtentRef id="335" />
        <ExtentRef id="336" />
        <ExtentRef id="337" />
        <ExtentRef id="338" />
        <ExtentRef id="339" />
        <ExtentRef id="340" />
        <ExtentRef id="341" />
        <ExtentRef id="342" />
        <ExtentRef id="343" />
        <ExtentRef id="344" />
        <ExtentRef id="345" />
        <ExtentRef id="346" />
        <ExtentRef id="347" />
        <ExtentRef id="348" />
        <ExtentRef id="349" />
        <ExtentRef id="350" />
        <ExtentRef id="351" />
        <ExtentRef id="352" />
        <ExtentRef id="353" />
        <ExtentRef id="354" />
        <ExtentRef id="355" />
        <ExtentRef id="356" />
        <ExtentRef id="357" />
        <ExtentRef id="358" />
        <ExtentRef id="359" />
        <ExtentRef id="360" />
        <ExtentRef id="361" />
        <ExtentRef id="362" />
        <ExtentRef id="363" />
        <ExtentRef id="364" />
        <ExtentRef id="365" />
        <ExtentRef id="366" />
        <ExtentRef id="367" />
        <ExtentRef id="368" />
        <ExtentRef id="369" />
        <ExtentRef id="370" />
        <ExtentRef id="371" />
        <ExtentRef id="372" />
        <ExtentRef id="373" />
        <ExtentRef id="374" />
        <ExtentRef id="375" />
        <ExtentRef id="376" />
        <ExtentRef id="377" />
        <ExtentRef id="378" />
        <ExtentRef id="379" />
        <ExtentRef id="380" />
        <ExtentRef id="381" />
        <ExtentRef id="382" />
        <ExtentRef id="383" />
        <ExtentRef id="384" />
        <ExtentRef id="385" />
        <ExtentRef id="386" />
        <ExtentRef id="387" />
        <ExtentRef id="388" />
        <ExtentRef id="389" />
        <ExtentRef id="390" />
        <ExtentRef id="391" />
        <ExtentRef id="392" />
        <ExtentRef id="393" />
        <ExtentRef id="394" />
        <ExtentRef id="395" />
        <ExtentRef id="396" />
        <ExtentRef id="397" />
        <ExtentRef id="398" />
        <ExtentRef id="399" />
        <ExtentRef id="400" />
        <ExtentRef id="401" />
        <ExtentRef id="402" />
        <ExtentRef id="403" />
        <ExtentRef id="404" />
        <ExtentRef id="405" />
        <ExtentRef id="406" />
        <ExtentRef id="407" />
        <ExtentRef id="408" />
        <ExtentRef id="409" />
        <ExtentRef id="410" />
        <ExtentRef id="411" />
        <ExtentRef id="412" />
        <ExtentRef id="413" />
        <ExtentRef id="414" />
        <ExtentRef id="415" />
        <ExtentRef id="416" />
        <ExtentRef id="417" />
        <ExtentRef id="418" />
        <ExtentRef id="419" />
        <ExtentRef id="420" />
        <ExtentRef id="421" />
        <ExtentRef id="422" />
        <ExtentRef id="423" />
        <ExtentRef id="424" />
        <ExtentRef id="425" />
        <ExtentRef id="426" />
        <ExtentRef id="427" />
        <ExtentRef id="428" />
        <ExtentRef id="429" />
        <ExtentRef id="430" />
        <ExtentRef id="431" />
        <ExtentRef id="432" />
        <ExtentRef id="433" />
        <ExtentRef id="434" />
        <ExtentRef id="435" />
        <ExtentRef id="436" />
        <ExtentRef id="437" />
        <ExtentRef id="438" />
        <ExtentRef id="439" />
        <ExtentRef id="440" />
        <ExtentRef id="441" />
        <ExtentRef id="442" />
        <ExtentRef id="443" />
        <ExtentRef id="444" />
        <ExtentRef id="445" />
        <ExtentRef id="446" />
        <ExtentRef id="447" />
        <ExtentRef id="448" />
        <ExtentRef id="449" />
        <ExtentRef id="450" />
        <ExtentRef id="451" />
        <ExtentRef id="452" />
        <ExtentRef id="453" />
        <ExtentRef id="454" />
        <ExtentRef id="455" />
        <ExtentRef id="456" />
        <ExtentRef id="457" />
        <ExtentRef id="458" />
        <ExtentRef id="459" />
        <ExtentRef id="460" />
        <ExtentRef id="461" />
        <ExtentRef id="462" />
        <ExtentRef id="463" />
        <ExtentRef id="464" />
        <ExtentRef id="465" />
        <ExtentRef id="466" />
        <ExtentRef id="467" />
        <ExtentRef id="468" />
        <ExtentRef id="469" />
        <ExtentRef id="470" />
        <ExtentRef id="471" />
        <ExtentRef id="472" />
        <ExtentRef id="473" />
        <ExtentRef id="474" />
        <ExtentRef id="475" />
        <ExtentRef id="476" />
        <ExtentRef id="477" />
        <ExtentRef id="478" />
        <ExtentRef id="479" />
        <ExtentRef id="480" />
        <ExtentRef id="481" />
        <ExtentRef id="482" />
        <ExtentRef id="483" />
        <ExtentRef id="484" />
        <ExtentRef id="485" />
        <ExtentRef id="486" />
        <ExtentRef id="487" />
        <ExtentRef id="488" />
        <ExtentRef id="489" />
        <ExtentRef id="490" />
        <ExtentRef id="491" />
        <ExtentRef id="492" />
        <ExtentRef id="493" />
        <ExtentRef id="494" />
        <ExtentRef id="495" />
        <ExtentRef id="496" />
        <ExtentRef id="497" />
        <ExtentRef id="498" />
        <ExtentRef id="499" />
        <ExtentRef id="500" />
        <ExtentRef id="501" />
        <ExtentRef id="502" />
        <ExtentRef id="503" />
        <ExtentRef id="504" />
        <ExtentRef id="505" />
        <ExtentRef id="506" />
        <ExtentRef id="507" />
        <ExtentRef id="508" />
        <ExtentRef id="509" />
        <ExtentRef id="510" />
        <ExtentRef id="511" />
        <ExtentRef id="512" />
        <ExtentRef id="513" />
        <ExtentRef id="514" />
        <ExtentRef id="515" />
        <ExtentRef id="516" />
        <ExtentRef id="517" />
        <ExtentRef id="518" />
        <ExtentRef id="519" />
        <ExtentRef id="520" />
        <ExtentRef id="521" />
        <ExtentRef id="522" />
        <ExtentRef id="523" />
        <ExtentRef id="524" />
        <ExtentRef id="525" />
        <ExtentRef id="526" />
        <ExtentRef id="527" />
        <ExtentRef id="528" />
        <ExtentRef id="529" />
        <ExtentRef id="530" />
        <ExtentRef id="531" />
        <ExtentRef id="532" />
        <ExtentRef id="533" />
        <ExtentRef id="534" />
        <ExtentRef id="535" />
        <ExtentRef id="536" />
        <ExtentRef id="537" />
        <ExtentRef id="538" />
        <ExtentRef id="539" />
        <ExtentRef id="540" />
        <ExtentRef id="541" />
        <ExtentRef id="542" />
        <ExtentRef id="543" />
        <ExtentRef id="544" />
        <ExtentRef id="545" />
        <ExtentRef id="546" />
        <ExtentRef id="547" />
        <ExtentRef id="548" />
        <ExtentRef id="549" />
        <ExtentRef id="550" />
        <ExtentRef id="551" />
        <ExtentRef id="552" />
        <ExtentRef id="553" />
        <ExtentRef id="554" />
        <ExtentRef id="555" />
        <ExtentRef id="556" />
        <ExtentRef id="557" />
        <ExtentRef id="558" />
        <ExtentRef id="559" />
        <ExtentRef id="560" />
        <ExtentRef id="561" />
        <ExtentRef id="562" />
        <ExtentRef id="563" />
        <ExtentRef id="564" />
        <ExtentRef id="565" />
        <ExtentRef id="566" />
        <ExtentRef id="567" />
        <ExtentRef id="568" />
        <ExtentRef id="569" />
        <ExtentRef id="570" />
        <ExtentRef id="571" />
        <ExtentRef id="572" />
        <ExtentRef id="573" />
        <ExtentRef id="574" />
        <ExtentRef id="575" />
        <ExtentRef id="576" />
        <ExtentRef id="577" />
        <ExtentRef id="578" />
        <ExtentRef id="579" />
        <ExtentRef id="580" />
        <ExtentRef id="581" />
        <ExtentRef id="582" />
        <ExtentRef id="583" />
        <ExtentRef id="584" />
        <ExtentRef id="585" />
        <ExtentRef id="586" />
        <ExtentRef id="587" />
        <ExtentRef id="588" />
        <ExtentRef id="589" />
        <ExtentRef id="590" />
        <ExtentRef id="591" />
        <ExtentRef id="592" />
        <ExtentRef id="593" />
        <ExtentRef id="594" />
        <ExtentRef id="595" />
        <ExtentRef id="596" />
        <ExtentRef id="597" />
        <ExtentRef id="598" />
        <ExtentRef id="599" />
        <ExtentRef id="600" />
        <ExtentRef id="601" />
        <ExtentRef id="602" />
        <ExtentRef id="603" />
        <ExtentRef id="604" />
        <ExtentRef id="605" />
        <ExtentRef id="606" />
        <ExtentRef id="607" />
        <ExtentRef id="608" />
        <ExtentRef id="609" />
        <ExtentRef id="610" />
        <ExtentRef id="611" />
        <ExtentRef id="612" />
        <ExtentRef id="613" />
        <ExtentRef id="614" />
        <ExtentRef id="615" />
        <ExtentRef id="616" />
        <ExtentRef id="617" />
        <ExtentRef id="618" />
        <ExtentRef id="619" />
        <ExtentRef id="620" />
        <ExtentRef id="621" />
        <ExtentRef id="622" />
        <ExtentRef id="623" />
        <ExtentRef id="624" />
        <ExtentRef id="625" />
        <ExtentRef id="626" />
        <ExtentRef id="627" />
        <ExtentRef id="628" />
        <ExtentRef id="629" />
        <ExtentRef id="630" />
        <ExtentRef id="631" />
        <ExtentRef id="632" />
        <ExtentRef id="633" />
        <ExtentRef id="634" />
        <ExtentRef id="635" />
        <ExtentRef id="636" />
        <ExtentRef id="637" />
        <ExtentRef id="638" />
        <ExtentRef id="639" />
        <ExtentRef id="640" />
        <ExtentRef id="641" />
        <ExtentRef id="642" />
        <ExtentRef id="643" />
        <ExtentRef id="644" />
        <ExtentRef id="645" />
        <ExtentRef id="646" />
        <ExtentRef id="647" />
        <ExtentRef id="648" />
        <ExtentRef id="649" />
        <ExtentRef id="650" />
        <ExtentRef id="651" />
        <ExtentRef id="652" />
        <ExtentRef id="653" />
        <ExtentRef id="654" />
        <ExtentRef id="655" />
        <ExtentRef id="656" />
        <ExtentRef id="657" />
        <ExtentRef id="658" />
        <ExtentRef id="659" />
        <ExtentRef id="660" />
        <ExtentRef id="661" />
        <ExtentRef id="662" />
        <ExtentRef id="663" />
        <ExtentRef id="664" />
        <ExtentRef id="665" />
        <ExtentRef id="666" />
        <ExtentRef id="667" />
        <ExtentRef id="668" />
        <ExtentRef id="669" />
        <ExtentRef id="670" />
        <ExtentRef id="671" />
        <ExtentRef id="672" />
        <ExtentRef id="673" />
        <ExtentRef id="674" />
        <ExtentRef id="675" />
        <ExtentRef id="676" />
        <ExtentRef id="677" />
        <ExtentRef id="678" />
        <ExtentRef id="679" />
        <ExtentRef id="680" />
        <ExtentRef id="681" />
        <ExtentRef id="682" />
        <ExtentRef id="683" />
        <ExtentRef id="684" />
        <ExtentRef id="685" />
        <ExtentRef id="686" />
        <ExtentRef id="687" />
        <ExtentRef id="688" />
        <ExtentRef id="689" />
        <ExtentRef id="690" />
        <ExtentRef id="691" />
        <ExtentRef id="692" />
        <ExtentRef id="693" />
        <ExtentRef id="694" />
        <ExtentRef id="695" />
        <ExtentRef id="696" />
        <ExtentRef id="697" />
        <ExtentRef id="698" />
        <ExtentRef id="699" />
        <ExtentRef id="700" />
        <ExtentRef id="701" />
        <ExtentRef id="702" />
        <ExtentRef id="703" />
        <ExtentRef id="704" />
        <ExtentRef id="705" />
        <ExtentRef id="706" />
        <ExtentRef id="707" />
        <ExtentRef id="708" />
        <ExtentRef id="709" />
        <ExtentRef id="710" />
        <ExtentRef id="711" />
        <ExtentRef id="712" />
        <ExtentRef id="713" />
        <ExtentRef id="714" />
        <ExtentRef id="715" />
        <ExtentRef id="716" />
        <ExtentRef id="717" />
        <ExtentRef id="718" />
        <ExtentRef id="719" />
        <ExtentRef id="720" />
        <ExtentRef id="721" />
        <ExtentRef id="722" />
        <ExtentRef id="723" />
        <ExtentRef id="724" />
        <ExtentRef id="725" />
        <ExtentRef id="726" />
        <ExtentRef id="727" />
        <ExtentRef id="728" />
        <ExtentRef id="729" />
        <ExtentRef id="730" />
        <ExtentRef id="731" />
        <ExtentRef id="732" />
        <ExtentRef id="733" />
        <ExtentRef id="734" />
        <ExtentRef id="735" />
        <ExtentRef id="736" />
        <ExtentRef id="737" />
        <ExtentRef id="738" />
        <ExtentRef id="739" />
        <ExtentRef id="740" />
        <ExtentRef id="741" />
        <ExtentRef id="742" />
        <ExtentRef id="743" />
        <ExtentRef id="744" />
        <ExtentRef id="745" />
        <ExtentRef id="746" />
        <ExtentRef id="747" />
        <ExtentRef id="748" />
        <ExtentRef id="749" />
        <ExtentRef id="750" />
        <ExtentRef id="751" />
        <ExtentRef id="752" />
        <ExtentRef id="753" />
        <ExtentRef id="754" />
        <ExtentRef id="755" />
        <ExtentRef id="756" />
        <ExtentRef id="757" />
        <ExtentRef id="758" />
        <ExtentRef id="759" />
        <ExtentRef id="760" />
        <ExtentRef id="761" />
        <ExtentRef id="762" />
        <ExtentRef id="763" />
        <ExtentRef id="764" />
        <ExtentRef id="765" />
        <ExtentRef id="766" />
        <ExtentRef id="767" />
        <ExtentRef id="768" />
        <ExtentRef id="769" />
        <ExtentRef id="770" />
        <ExtentRef id="771" />
        <ExtentRef id="772" />
        <ExtentRef id="773" />
        <ExtentRef id="774" />
        <ExtentRef id="775" />
        <ExtentRef id="776" />
        <ExtentRef id="777" />
        <ExtentRef id="778" />
        <ExtentRef id="779" />
        <ExtentRef id="780" />
        <ExtentRef id="781" />
        <ExtentRef id="782" />
        <ExtentRef id="783" />
        <ExtentRef id="784" />
        <ExtentRef id="785" />
        <ExtentRef id="786" />
        <ExtentRef id="787" />
        <ExtentRef id="788" />
        <ExtentRef id="789" />
        <ExtentRef id="790" />
        <ExtentRef id="791" />
        <ExtentRef id="792" />
        <ExtentRef id="793" />
        <ExtentRef id="794" />
        <ExtentRef id="795" />
        <ExtentRef id="796" />
        <ExtentRef id="797" />
        <ExtentRef id="798" />
        <ExtentRef id="799" />
        <ExtentRef id="800" />
        <ExtentRef id="801" />
        <ExtentRef id="802" />
        <ExtentRef id="803" />
        <ExtentRef id="804" />
        <ExtentRef id="805" />
        <ExtentRef id="806" />
        <ExtentRef id="807" />
        <ExtentRef id="808" />
        <ExtentRef id="809" />
        <ExtentRef id="810" />
        <ExtentRef id="811" />
        <ExtentRef id="812" />
        <ExtentRef id="813" />
        <ExtentRef id="814" />
        <ExtentRef id="815" />
        <ExtentRef id="816" />
        <ExtentRef id="817" />
        <ExtentRef id="818" />
        <ExtentRef id="819" />
        <ExtentRef id="820" />
        <ExtentRef id="821" />
        <ExtentRef id="822" />
        <ExtentRef id="823" />
        <ExtentRef id="824" />
        <ExtentRef id="825" />
        <ExtentRef id="826" />
        <ExtentRef id="827" />
        <ExtentRef id="828" />
        <ExtentRef id="829" />
        <ExtentRef id="830" />
        <ExtentRef id="831" />
        <ExtentRef id="832" />
        <ExtentRef id="833" />
        <ExtentRef id="834" />
        <ExtentRef id="835" />
        <ExtentRef id="836" />
        <ExtentRef id="837" />
        <ExtentRef id="838" />
        <ExtentRef id="839" />
        <ExtentRef id="840" />
        <ExtentRef id="841" />
        <ExtentRef id="842" />
        <ExtentRef id="843" />
        <ExtentRef id="844" />
        <ExtentRef id="845" />
        <ExtentRef id="846" />
        <ExtentRef id="847" />
        <ExtentRef id="848" />
        <ExtentRef id="849" />
        <ExtentRef id="850" />
        <ExtentRef id="851" />
        <ExtentRef id="852" />
        <ExtentRef id="853" />
        <ExtentRef id="854" />
        <ExtentRef id="855" />
        <ExtentRef id="856" />
        <ExtentRef id="857" />
        <ExtentRef id="858" />
        <ExtentRef id="859" />
        <ExtentRef id="860" />
        <ExtentRef id="861" />
        <ExtentRef id="862" />
        <ExtentRef id="863" />
        <ExtentRef id="864" />
        <ExtentRef id="865" />
        <ExtentRef id="866" />
        <ExtentRef id="867" />
        <ExtentRef id="868" />
        <ExtentRef id="869" />
        <ExtentRef id="870" />
        <ExtentRef id="871" />
        <ExtentRef id="872" />
        <ExtentRef id="873" />
        <ExtentRef id="874" />
        <ExtentRef id="875" />
        <ExtentRef id="876" />
        <ExtentRef id="877" />
        <ExtentRef id="878" />
        <ExtentRef id="879" />
        <ExtentRef id="880" />
        <ExtentRef id="881" />
        <ExtentRef id="882" />
        <ExtentRef id="883" />
        <ExtentRef id="884" />
        <ExtentRef id="885" />
        <ExtentRef id="886" />
        <ExtentRef id="887" />
        <ExtentRef id="888" />
        <ExtentRef id="889" />
        <ExtentRef id="890" />
        <ExtentRef id="891" />
        <ExtentRef id="892" />
        <ExtentRef id="893" />
        <ExtentRef id="894" />
        <ExtentRef id="895" />
        <ExtentRef id="896" />
        <ExtentRef id="897" />
        <ExtentRef id="898" />
        <ExtentRef id="899" />
        <ExtentRef id="900" />
        <ExtentRef id="901" />
        <ExtentRef id="902" />
        <ExtentRef id="903" />
        <ExtentRef id="904" />
        <ExtentRef id="905" />
        <ExtentRef id="906" />
        <ExtentRef id="907" />
        <ExtentRef id="908" />
        <ExtentRef id="909" />
        <ExtentRef id="910" />
        <ExtentRef id="911" />
        <ExtentRef id="912" />
        <ExtentRef id="913" />
        <ExtentRef id="914" />
        <ExtentRef id="915" />
        <ExtentRef id="916" />
        <ExtentRef id="917" />
        <ExtentRef id="918" />
        <ExtentRef id="919" />
        <ExtentRef id="920" />
        <ExtentRef id="921" />
        <ExtentRef id="922" />
        <ExtentRef id="923" />
        <ExtentRef id="924" />
        <ExtentRef id="925" />
        <ExtentRef id="926" />
        <ExtentRef id="927" />
        <ExtentRef id="928" />
        <ExtentRef id="929" />
        <ExtentRef id="930" />
        <ExtentRef id="931" />
        <ExtentRef id="932" />
        <ExtentRef id="933" />
        <ExtentRef id="934" />
        <ExtentRef id="935" />
        <ExtentRef id="936" />
        <ExtentRef id="937" />
        <ExtentRef id="938" />
        <ExtentRef id="939" />
        <ExtentRef id="940" />
        <ExtentRef id="941" />
        <ExtentRef id="942" />
        <ExtentRef id="943" />
        <ExtentRef id="944" />
        <ExtentRef id="945" />
        <ExtentRef id="946" />
        <ExtentRef id="947" />
        <ExtentRef id="948" />
        <ExtentRef id="949" />
        <ExtentRef id="950" />
        <ExtentRef id="951" />
        <ExtentRef id="952" />
        <ExtentRef id="953" />
        <ExtentRef id="954" />
        <ExtentRef id="955" />
        <ExtentRef id="956" />
        <ExtentRef id="957" />
        <ExtentRef id="958" />
        <ExtentRef id="959" />
        <ExtentRef id="960" />
        <ExtentRef id="961" />
        <ExtentRef id="962" />
        <ExtentRef id="963" />
        <ExtentRef id="964" />
        <ExtentRef id="965" />
        <ExtentRef id="966" />
        <ExtentRef id="967" />
        <ExtentRef id="968" />
        <ExtentRef id="969" />
        <ExtentRef id="970" />
        <ExtentRef id="971" />
        <ExtentRef id="972" />
        <ExtentRef id="973" />
        <ExtentRef id="974" />
        <ExtentRef id="975" />
        <ExtentRef id="976" />
        <ExtentRef id="977" />
        <ExtentRef id="978" />
        <ExtentRef id="979" />
        <ExtentRef id="980" />
        <ExtentRef id="981" />
        <ExtentRef id="982" />
        <ExtentRef id="983" />
        <ExtentRef id="984" />
        <ExtentRef id="985" />
        <ExtentRef id="986" />
        <ExtentRef id="987" />
        <ExtentRef id="988" />
        <ExtentRef id="989" />
        <ExtentRef id="990" />
        <ExtentRef id="991" />
        <ExtentRef id="992" />
        <ExtentRef id="993" />
        <ExtentRef id="994" />
        <ExtentRef id="995" />
        <ExtentRef id="996" />
        <ExtentRef id="997" />
        <ExtentRef id="998" />
        <ExtentRef id="999" />
        <ExtentRef id="1000" />
        <ExtentRef id="1001" />
        <ExtentRef id="1002" />
        <ExtentRef id="1003" />
        <ExtentRef id="1004" />
      </ExtentRefs>
    </ExtentSelector>
    <ExtentSelector extentID="2" gapBefore="0" primaryTrack="false">
      <Effects />
      <Transitions />
      <BoundProperties />
      <ExtentRefs />
    </ExtentSelector>
    <ExtentSelector extentID="3" gapBefore="0" primaryTrack="false">
      <Effects />
      <Transitions />
      <BoundProperties />
      <ExtentRefs />
    </ExtentSelector>
    <ExtentSelector extentID="4" gapBefore="0" primaryTrack="false">
      <Effects />
      <Transitions />
      <BoundProperties />
      <ExtentRefs />
    </ExtentSelector>
  </Extents>
  <BoundPlaceholders>
    <BoundPlaceholder placeholderID="SingleExtentView" extentID="0" />
    <BoundPlaceholder placeholderID="Main" extentID="1" />
    <BoundPlaceholder placeholderID="SoundTrack" extentID="2" />
    <BoundPlaceholder placeholderID="Narration" extentID="3" />
    <BoundPlaceholder placeholderID="Text" extentID="4" />
  </BoundPlaceholders>
  <BoundProperties>
    <BoundPropertyFloatSet Name="AspectRatio">
      <BoundPropertyFloatElement Value="1.7777776718139648" />
    </BoundPropertyFloatSet>
    <BoundPropertyFloat Name="DuckedNarrationAndSoundTrackMix" Value="0.5" />
    <BoundPropertyFloat Name="DuckedVideoAndNarrationMix" Value="0.5" />
    <BoundPropertyFloat Name="DuckedVideoAndSoundTrackMix" Value="0.5" />
    <BoundPropertyFloat Name="SoundTrackMix" Value="0.5" />
  </BoundProperties>
  <ThemeOperationLog themeID="0">
    <MonolithicThemeOperations />
  </ThemeOperationLog>
  <AudioDuckingProperties emphasisPlaceholderID="Narration" />
</Project>