<?xml version="1.0" encoding="utf-8"?>
<Project name="Ising animation T=1.0" themeId="0" version="65540" templateID="SimpleProjectTemplate">
  <MediaItems>
    <MediaItem id="5167" filePath="C:\Users\owner\Dropbox\Work\png\animation T=1.05167.png" arWidth="640" arHeight="480" duration="0" songTitle="" songArtist="" songAlbum="" songCopyrightUrl="" songArtistUrl="" songAudioFileUrl="" stabilizationMode="0" mediaItemType="2" />
    <MediaItem id="5168" filePath="C:\Users\owner\Dropbox\Work\png\animation T=1.05168.png" arWidth="640" arHeight="480" duration="0" songTitle="" songArtist="" songAlbum="" songCopyrightUrl="" songArtistUrl="" songAudioFileUrl="" stabilizationMode="0" mediaItemType="2" />
    <MediaItem id="1" filePath="C:\Users\owner\Dropbox\Work\png\animation T=1.00001.png" arWidth="640" arHeight="480" duration="0" songTitle="" songArtist="" songAlbum="" songCopyrightUrl="" songArtistUrl="" songAudioFileUrl="" stabilizationMode="0" mediaItemType="2" />
    <MediaItem id="5169" filePath="C:\Users\owner\Dropbox\Work\png\animation T=1.05169.png" arWidth="640" arHeight="480" duration="0" songTitle="" songArtist="" songAlbum="" songCopyrightUrl="" songArtistUrl="" songAudioFileUrl="" stabilizationMode="0" mediaItemType="2" />
    <MediaItem id="2" filePath="C:\Users\owner\Dropbox\Work\png\animation T=1.00002.png" arWidth="640" arHeight="480" duration="0" songTitle="" songArtist="" songAlbum="" songCopyrightUrl="" songArtistUrl="" songAudioFileUrl="" stabilizationMode="0" mediaItemType="2" />
    <MediaItem id="5170" filePath="C:\Users\owner\Dropbox\Work\png\animation T=1.05170.png" arWidth="640" arHeight="480" duration="0" songTitle="" songArtist="" songAlbum="" songCopyrightUrl="" songArtistUrl="" songAudioFileUrl="" stabilizationMode="0" mediaItemType="2" />
    <MediaItem id="3" filePath="C:\Users\owner\Dropbox\Work\png\animation T=1.00003.png" arWidth="640" arHeight="480" duration="0" songTitle="" songArtist="" songAlbum="" songCopyrightUrl="" songArtistUrl="" songAudioFileUrl="" stabilizationMode="0" mediaItemType="2" />
    <MediaItem id="5171" filePath="C:\Users\owner\Dropbox\Work\png\animation T=1.05171.png" arWidth="640" arHeight="480" duration="0" songTitle="" songArtist="" songAlbum="" songCopyrightUrl="" songArtistUrl="" songAudioFileUrl="" stabilizationMode="0" mediaItemType="2" />
    <MediaItem id="4" filePath="C:\Users\owner\Dropbox\Work\png\animation T=1.00004.png" arWidth="640" arHeight="480" duration="0" songTitle="" songArtist="" songAlbum="" songCopyrightUrl="" songArtistUrl="" songAudioFileUrl="" stabilizationMode="0" mediaItemType="2" />
    <MediaItem id="5172" filePath="C:\Users\owner\Dropbox\Work\png\animation T=1.05172.png" arWidth="640" arHeight="480" duration="0" songTitle="" songArtist="" songAlbum="" songCopyrightUrl="" songArtistUrl="" songAudioFileUrl="" stabilizationMode="0" mediaItemType="2" />
    <MediaItem id="5" filePath="C:\Users\owner\Dropbox\Work\png\animation T=1.00005.png" arWidth="640" arHeight="480" duration="0" songTitle="" songArtist="" songAlbum="" songCopyrightUrl="" songArtistUrl="" songAudioFileUrl="" stabilizationMode="0" mediaItemType="2" />
    <MediaItem id="5173" filePath="C:\Users\owner\Dropbox\Work\png\animation T=1.05173.png" arWidth="640" arHeight="480" duration="0" songTitle="" songArtist="" songAlbum="" songCopyrightUrl="" songArtistUrl="" songAudioFileUrl="" stabilizationMode="0" mediaItemType="2" />
    <MediaItem id="6" filePath="C:\Users\owner\Dropbox\Work\png\animation T=1.00006.png" arWidth="640" arHeight="480" duration="0" songTitle="" songArtist="" songAlbum="" songCopyrightUrl="" songArtistUrl="" songAudioFileUrl="" stabilizationMode="0" mediaItemType="2" />
    <MediaItem id="5174" filePath="C:\Users\owner\Dropbox\Work\png\animation T=1.05174.png" arWidth="640" arHeight="480" duration="0" songTitle="" songArtist="" songAlbum="" songCopyrightUrl="" songArtistUrl="" songAudioFileUrl="" stabilizationMode="0" mediaItemType="2" />
    <MediaItem id="7" filePath="C:\Users\owner\Dropbox\Work\png\animation T=1.00007.png" arWidth="640" arHeight="480" duration="0" songTitle="" songArtist="" songAlbum="" songCopyrightUrl="" songArtistUrl="" songAudioFileUrl="" stabilizationMode="0" mediaItemType="2" />
    <MediaItem id="5175" filePath="C:\Users\owner\Dropbox\Work\png\animation T=1.05175.png" arWidth="640" arHeight="480" duration="0" songTitle="" songArtist="" songAlbum="" songCopyrightUrl="" songArtistUrl="" songAudioFileUrl="" stabilizationMode="0" mediaItemType="2" />
    <MediaItem id="8" filePath="C:\Users\owner\Dropbox\Work\png\animation T=1.00008.png" arWidth="640" arHeight="480" duration="0" songTitle="" songArtist="" songAlbum="" songCopyrightUrl="" songArtistUrl="" songAudioFileUrl="" stabilizationMode="0" mediaItemType="2" />
    <MediaItem id="5176" filePath="C:\Users\owner\Dropbox\Work\png\animation T=1.05176.png" arWidth="640" arHeight="480" duration="0" songTitle="" songArtist="" songAlbum="" songCopyrightUrl="" songArtistUrl="" songAudioFileUrl="" stabilizationMode="0" mediaItemType="2" />
    <MediaItem id="9" filePath="C:\Users\owner\Dropbox\Work\png\animation T=1.00009.png" arWidth="640" arHeight="480" duration="0" songTitle="" songArtist="" songAlbum="" songCopyrightUrl="" songArtistUrl="" songAudioFileUrl="" stabilizationMode="0" mediaItemType="2" />
    <MediaItem id="5177" filePath="C:\Users\owner\Dropbox\Work\png\animation T=1.05177.png" arWidth="640" arHeight="480" duration="0" songTitle="" songArtist="" songAlbum="" songCopyrightUrl="" songArtistUrl="" songAudioFileUrl="" stabilizationMode="0" mediaItemType="2" />
    <MediaItem id="10" filePath="C:\Users\owner\Dropbox\Work\png\animation T=1.00010.png" arWidth="640" arHeight="480" duration="0" songTitle="" songArtist="" songAlbum="" songCopyrightUrl="" songArtistUrl="" songAudioFileUrl="" stabilizationMode="0" mediaItemType="2" />
    <MediaItem id="5178" filePath="C:\Users\owner\Dropbox\Work\png\animation T=1.05178.png" arWidth="640" arHeight="480" duration="0" songTitle="" songArtist="" songAlbum="" songCopyrightUrl="" songArtistUrl="" songAudioFileUrl="" stabilizationMode="0" mediaItemType="2" />
    <MediaItem id="11" filePath="C:\Users\owner\Dropbox\Work\png\animation T=1.00011.png" arWidth="640" arHeight="480" duration="0" songTitle="" songArtist="" songAlbum="" songCopyrightUrl="" songArtistUrl="" songAudioFileUrl="" stabilizationMode="0" mediaItemType="2" />
    <MediaItem id="5179" filePath="C:\Users\owner\Dropbox\Work\png\animation T=1.05179.png" arWidth="640" arHeight="480" duration="0" songTitle="" songArtist="" songAlbum="" songCopyrightUrl="" songArtistUrl="" songAudioFileUrl="" stabilizationMode="0" mediaItemType="2" />
    <MediaItem id="12" filePath="C:\Users\owner\Dropbox\Work\png\animation T=1.00012.png" arWidth="640" arHeight="480" duration="0" songTitle="" songArtist="" songAlbum="" songCopyrightUrl="" songArtistUrl="" songAudioFileUrl="" stabilizationMode="0" mediaItemType="2" />
    <MediaItem id="5180" filePath="C:\Users\owner\Dropbox\Work\png\animation T=1.05180.png" arWidth="640" arHeight="480" duration="0" songTitle="" songArtist="" songAlbum="" songCopyrightUrl="" songArtistUrl="" songAudioFileUrl="" stabilizationMode="0" mediaItemType="2" />
    <MediaItem id="13" filePath="C:\Users\owner\Dropbox\Work\png\animation T=1.00013.png" arWidth="640" arHeight="480" duration="0" songTitle="" songArtist="" songAlbum="" songCopyrightUrl="" songArtistUrl="" songAudioFileUrl="" stabilizationMode="0" mediaItemType="2" />
    <MediaItem id="5181" filePath="C:\Users\owner\Dropbox\Work\png\animation T=1.05181.png" arWidth="640" arHeight="480" duration="0" songTitle="" songArtist="" songAlbum="" songCopyrightUrl="" songArtistUrl="" songAudioFileUrl="" stabilizationMode="0" mediaItemType="2" />
    <MediaItem id="14" filePath="C:\Users\owner\Dropbox\Work\png\animation T=1.00014.png" arWidth="640" arHeight="480" duration="0" songTitle="" songArtist="" songAlbum="" songCopyrightUrl="" songArtistUrl="" songAudioFileUrl="" stabilizationMode="0" mediaItemType="2" />
    <MediaItem id="5182" filePath="C:\Users\owner\Dropbox\Work\png\animation T=1.05182.png" arWidth="640" arHeight="480" duration="0" songTitle="" songArtist="" songAlbum="" songCopyrightUrl="" songArtistUrl="" songAudioFileUrl="" stabilizationMode="0" mediaItemType="2" />
    <MediaItem id="15" filePath="C:\Users\owner\Dropbox\Work\png\animation T=1.00015.png" arWidth="640" arHeight="480" duration="0" songTitle="" songArtist="" songAlbum="" songCopyrightUrl="" songArtistUrl="" songAudioFileUrl="" stabilizationMode="0" mediaItemType="2" />
    <MediaItem id="5183" filePath="C:\Users\owner\Dropbox\Work\png\animation T=1.05183.png" arWidth="640" arHeight="480" duration="0" songTitle="" songArtist="" songAlbum="" songCopyrightUrl="" songArtistUrl="" songAudioFileUrl="" stabilizationMode="0" mediaItemType="2" />
    <MediaItem id="16" filePath="C:\Users\owner\Dropbox\Work\png\animation T=1.00016.png" arWidth="640" arHeight="480" duration="0" songTitle="" songArtist="" songAlbum="" songCopyrightUrl="" songArtistUrl="" songAudioFileUrl="" stabilizationMode="0" mediaItemType="2" />
    <MediaItem id="5184" filePath="C:\Users\owner\Dropbox\Work\png\animation T=1.05184.png" arWidth="640" arHeight="480" duration="0" songTitle="" songArtist="" songAlbum="" songCopyrightUrl="" songArtistUrl="" songAudioFileUrl="" stabilizationMode="0" mediaItemType="2" />
    <MediaItem id="17" filePath="C:\Users\owner\Dropbox\Work\png\animation T=1.00017.png" arWidth="640" arHeight="480" duration="0" songTitle="" songArtist="" songAlbum="" songCopyrightUrl="" songArtistUrl="" songAudioFileUrl="" stabilizationMode="0" mediaItemType="2" />
    <MediaItem id="5185" filePath="C:\Users\owner\Dropbox\Work\png\animation T=1.05185.png" arWidth="640" arHeight="480" duration="0" songTitle="" songArtist="" songAlbum="" songCopyrightUrl="" songArtistUrl="" songAudioFileUrl="" stabilizationMode="0" mediaItemType="2" />
    <MediaItem id="18" filePath="C:\Users\owner\Dropbox\Work\png\animation T=1.00018.png" arWidth="640" arHeight="480" duration="0" songTitle="" songArtist="" songAlbum="" songCopyrightUrl="" songArtistUrl="" songAudioFileUrl="" stabilizationMode="0" mediaItemType="2" />
    <MediaItem id="5186" filePath="C:\Users\owner\Dropbox\Work\png\animation T=1.05186.png" arWidth="640" arHeight="480" duration="0" songTitle="" songArtist="" songAlbum="" songCopyrightUrl="" songArtistUrl="" songAudioFileUrl="" stabilizationMode="0" mediaItemType="2" />
    <MediaItem id="19" filePath="C:\Users\owner\Dropbox\Work\png\animation T=1.00019.png" arWidth="640" arHeight="480" duration="0" songTitle="" songArtist="" songAlbum="" songCopyrightUrl="" songArtistUrl="" songAudioFileUrl="" stabilizationMode="0" mediaItemType="2" />
    <MediaItem id="5187" filePath="C:\Users\owner\Dropbox\Work\png\animation T=1.05187.png" arWidth="640" arHeight="480" duration="0" songTitle="" songArtist="" songAlbum="" songCopyrightUrl="" songArtistUrl="" songAudioFileUrl="" stabilizationMode="0" mediaItemType="2" />
    <MediaItem id="20" filePath="C:\Users\owner\Dropbox\Work\png\animation T=1.00020.png" arWidth="640" arHeight="480" duration="0" songTitle="" songArtist="" songAlbum="" songCopyrightUrl="" songArtistUrl="" songAudioFileUrl="" stabilizationMode="0" mediaItemType="2" />
    <MediaItem id="5188" filePath="C:\Users\owner\Dropbox\Work\png\animation T=1.05188.png" arWidth="640" arHeight="480" duration="0" songTitle="" songArtist="" songAlbum="" songCopyrightUrl="" songArtistUrl="" songAudioFileUrl="" stabilizationMode="0" mediaItemType="2" />
    <MediaItem id="21" filePath="C:\Users\owner\Dropbox\Work\png\animation T=1.00021.png" arWidth="640" arHeight="480" duration="0" songTitle="" songArtist="" songAlbum="" songCopyrightUrl="" songArtistUrl="" songAudioFileUrl="" stabilizationMode="0" mediaItemType="2" />
    <MediaItem id="5189" filePath="C:\Users\owner\Dropbox\Work\png\animation T=1.05189.png" arWidth="640" arHeight="480" duration="0" songTitle="" songArtist="" songAlbum="" songCopyrightUrl="" songArtistUrl="" songAudioFileUrl="" stabilizationMode="0" mediaItemType="2" />
    <MediaItem id="22" filePath="C:\Users\owner\Dropbox\Work\png\animation T=1.00022.png" arWidth="640" arHeight="480" duration="0" songTitle="" songArtist="" songAlbum="" songCopyrightUrl="" songArtistUrl="" songAudioFileUrl="" stabilizationMode="0" mediaItemType="2" />
    <MediaItem id="5190" filePath="C:\Users\owner\Dropbox\Work\png\animation T=1.05190.png" arWidth="640" arHeight="480" duration="0" songTitle="" songArtist="" songAlbum="" songCopyrightUrl="" songArtistUrl="" songAudioFileUrl="" stabilizationMode="0" mediaItemType="2" />
    <MediaItem id="23" filePath="C:\Users\owner\Dropbox\Work\png\animation T=1.00023.png" arWidth="640" arHeight="480" duration="0" songTitle="" songArtist="" songAlbum="" songCopyrightUrl="" songArtistUrl="" songAudioFileUrl="" stabilizationMode="0" mediaItemType="2" />
    <MediaItem id="5191" filePath="C:\Users\owner\Dropbox\Work\png\animation T=1.05191.png" arWidth="640" arHeight="480" duration="0" songTitle="" songArtist="" songAlbum="" songCopyrightUrl="" songArtistUrl="" songAudioFileUrl="" stabilizationMode="0" mediaItemType="2" />
    <MediaItem id="24" filePath="C:\Users\owner\Dropbox\Work\png\animation T=1.00024.png" arWidth="640" arHeight="480" duration="0" songTitle="" songArtist="" songAlbum="" songCopyrightUrl="" songArtistUrl="" songAudioFileUrl="" stabilizationMode="0" mediaItemType="2" />
    <MediaItem id="5192" filePath="C:\Users\owner\Dropbox\Work\png\animation T=1.05192.png" arWidth="640" arHeight="480" duration="0" songTitle="" songArtist="" songAlbum="" songCopyrightUrl="" songArtistUrl="" songAudioFileUrl="" stabilizationMode="0" mediaItemType="2" />
    <MediaItem id="25" filePath="C:\Users\owner\Dropbox\Work\png\animation T=1.00025.png" arWidth="640" arHeight="480" duration="0" songTitle="" songArtist="" songAlbum="" songCopyrightUrl="" songArtistUrl="" songAudioFileUrl="" stabilizationMode="0" mediaItemType="2" />
    <MediaItem id="5193" filePath="C:\Users\owner\Dropbox\Work\png\animation T=1.05193.png" arWidth="640" arHeight="480" duration="0" songTitle="" songArtist="" songAlbum="" songCopyrightUrl="" songArtistUrl="" songAudioFileUrl="" stabilizationMode="0" mediaItemType="2" />
    <MediaItem id="26" filePath="C:\Users\owner\Dropbox\Work\png\animation T=1.00026.png" arWidth="640" arHeight="480" duration="0" songTitle="" songArtist="" songAlbum="" songCopyrightUrl="" songArtistUrl="" songAudioFileUrl="" stabilizationMode="0" mediaItemType="2" />
    <MediaItem id="5194" filePath="C:\Users\owner\Dropbox\Work\png\animation T=1.05194.png" arWidth="640" arHeight="480" duration="0" songTitle="" songArtist="" songAlbum="" songCopyrightUrl="" songArtistUrl="" songAudioFileUrl="" stabilizationMode="0" mediaItemType="2" />
    <MediaItem id="27" filePath="C:\Users\owner\Dropbox\Work\png\animation T=1.00027.png" arWidth="640" arHeight="480" duration="0" songTitle="" songArtist="" songAlbum="" songCopyrightUrl="" songArtistUrl="" songAudioFileUrl="" stabilizationMode="0" mediaItemType="2" />
    <MediaItem id="5195" filePath="C:\Users\owner\Dropbox\Work\png\animation T=1.05195.png" arWidth="640" arHeight="480" duration="0" songTitle="" songArtist="" songAlbum="" songCopyrightUrl="" songArtistUrl="" songAudioFileUrl="" stabilizationMode="0" mediaItemType="2" />
    <MediaItem id="28" filePath="C:\Users\owner\Dropbox\Work\png\animation T=1.00028.png" arWidth="640" arHeight="480" duration="0" songTitle="" songArtist="" songAlbum="" songCopyrightUrl="" songArtistUrl="" songAudioFileUrl="" stabilizationMode="0" mediaItemType="2" />
    <MediaItem id="5196" filePath="C:\Users\owner\Dropbox\Work\png\animation T=1.05196.png" arWidth="640" arHeight="480" duration="0" songTitle="" songArtist="" songAlbum="" songCopyrightUrl="" songArtistUrl="" songAudioFileUrl="" stabilizationMode="0" mediaItemType="2" />
    <MediaItem id="29" filePath="C:\Users\owner\Dropbox\Work\png\animation T=1.00029.png" arWidth="640" arHeight="480" duration="0" songTitle="" songArtist="" songAlbum="" songCopyrightUrl="" songArtistUrl="" songAudioFileUrl="" stabilizationMode="0" mediaItemType="2" />
    <MediaItem id="5197" filePath="C:\Users\owner\Dropbox\Work\png\animation T=1.05197.png" arWidth="640" arHeight="480" duration="0" songTitle="" songArtist="" songAlbum="" songCopyrightUrl="" songArtistUrl="" songAudioFileUrl="" stabilizationMode="0" mediaItemType="2" />
    <MediaItem id="30" filePath="C:\Users\owner\Dropbox\Work\png\animation T=1.00030.png" arWidth="640" arHeight="480" duration="0" songTitle="" songArtist="" songAlbum="" songCopyrightUrl="" songArtistUrl="" songAudioFileUrl="" stabilizationMode="0" mediaItemType="2" />
    <MediaItem id="5198" filePath="C:\Users\owner\Dropbox\Work\png\animation T=1.05198.png" arWidth="640" arHeight="480" duration="0" songTitle="" songArtist="" songAlbum="" songCopyrightUrl="" songArtistUrl="" songAudioFileUrl="" stabilizationMode="0" mediaItemType="2" />
    <MediaItem id="31" filePath="C:\Users\owner\Dropbox\Work\png\animation T=1.00031.png" arWidth="640" arHeight="480" duration="0" songTitle="" songArtist="" songAlbum="" songCopyrightUrl="" songArtistUrl="" songAudioFileUrl="" stabilizationMode="0" mediaItemType="2" />
    <MediaItem id="5199" filePath="C:\Users\owner\Dropbox\Work\png\animation T=1.05199.png" arWidth="640" arHeight="480" duration="0" songTitle="" songArtist="" songAlbum="" songCopyrightUrl="" songArtistUrl="" songAudioFileUrl="" stabilizationMode="0" mediaItemType="2" />
    <MediaItem id="32" filePath="C:\Users\owner\Dropbox\Work\png\animation T=1.00032.png" arWidth="640" arHeight="480" duration="0" songTitle="" songArtist="" songAlbum="" songCopyrightUrl="" songArtistUrl="" songAudioFileUrl="" stabilizationMode="0" mediaItemType="2" />
    <MediaItem id="5200" filePath="C:\Users\owner\Dropbox\Work\png\animation T=1.05200.png" arWidth="640" arHeight="480" duration="0" songTitle="" songArtist="" songAlbum="" songCopyrightUrl="" songArtistUrl="" songAudioFileUrl="" stabilizationMode="0" mediaItemType="2" />
    <MediaItem id="33" filePath="C:\Users\owner\Dropbox\Work\png\animation T=1.00033.png" arWidth="640" arHeight="480" duration="0" songTitle="" songArtist="" songAlbum="" songCopyrightUrl="" songArtistUrl="" songAudioFileUrl="" stabilizationMode="0" mediaItemType="2" />
    <MediaItem id="5201" filePath="C:\Users\owner\Dropbox\Work\png\animation T=1.05201.png" arWidth="640" arHeight="480" duration="0" songTitle="" songArtist="" songAlbum="" songCopyrightUrl="" songArtistUrl="" songAudioFileUrl="" stabilizationMode="0" mediaItemType="2" />
    <MediaItem id="34" filePath="C:\Users\owner\Dropbox\Work\png\animation T=1.00034.png" arWidth="640" arHeight="480" duration="0" songTitle="" songArtist="" songAlbum="" songCopyrightUrl="" songArtistUrl="" songAudioFileUrl="" stabilizationMode="0" mediaItemType="2" />
    <MediaItem id="5202" filePath="C:\Users\owner\Dropbox\Work\png\animation T=1.05202.png" arWidth="640" arHeight="480" duration="0" songTitle="" songArtist="" songAlbum="" songCopyrightUrl="" songArtistUrl="" songAudioFileUrl="" stabilizationMode="0" mediaItemType="2" />
    <MediaItem id="35" filePath="C:\Users\owner\Dropbox\Work\png\animation T=1.00035.png" arWidth="640" arHeight="480" duration="0" songTitle="" songArtist="" songAlbum="" songCopyrightUrl="" songArtistUrl="" songAudioFileUrl="" stabilizationMode="0" mediaItemType="2" />
    <MediaItem id="5203" filePath="C:\Users\owner\Dropbox\Work\png\animation T=1.05203.png" arWidth="640" arHeight="480" duration="0" songTitle="" songArtist="" songAlbum="" songCopyrightUrl="" songArtistUrl="" songAudioFileUrl="" stabilizationMode="0" mediaItemType="2" />
    <MediaItem id="36" filePath="C:\Users\owner\Dropbox\Work\png\animation T=1.00036.png" arWidth="640" arHeight="480" duration="0" songTitle="" songArtist="" songAlbum="" songCopyrightUrl="" songArtistUrl="" songAudioFileUrl="" stabilizationMode="0" mediaItemType="2" />
    <MediaItem id="5204" filePath="C:\Users\owner\Dropbox\Work\png\animation T=1.05204.png" arWidth="640" arHeight="480" duration="0" songTitle="" songArtist="" songAlbum="" songCopyrightUrl="" songArtistUrl="" songAudioFileUrl="" stabilizationMode="0" mediaItemType="2" />
    <MediaItem id="37" filePath="C:\Users\owner\Dropbox\Work\png\animation T=1.00037.png" arWidth="640" arHeight="480" duration="0" songTitle="" songArtist="" songAlbum="" songCopyrightUrl="" songArtistUrl="" songAudioFileUrl="" stabilizationMode="0" mediaItemType="2" />
    <MediaItem id="5205" filePath="C:\Users\owner\Dropbox\Work\png\animation T=1.05205.png" arWidth="640" arHeight="480" duration="0" songTitle="" songArtist="" songAlbum="" songCopyrightUrl="" songArtistUrl="" songAudioFileUrl="" stabilizationMode="0" mediaItemType="2" />
    <MediaItem id="38" filePath="C:\Users\owner\Dropbox\Work\png\animation T=1.00038.png" arWidth="640" arHeight="480" duration="0" songTitle="" songArtist="" songAlbum="" songCopyrightUrl="" songArtistUrl="" songAudioFileUrl="" stabilizationMode="0" mediaItemType="2" />
    <MediaItem id="5206" filePath="C:\Users\owner\Dropbox\Work\png\animation T=1.05206.png" arWidth="640" arHeight="480" duration="0" songTitle="" songArtist="" songAlbum="" songCopyrightUrl="" songArtistUrl="" songAudioFileUrl="" stabilizationMode="0" mediaItemType="2" />
    <MediaItem id="39" filePath="C:\Users\owner\Dropbox\Work\png\animation T=1.00039.png" arWidth="640" arHeight="480" duration="0" songTitle="" songArtist="" songAlbum="" songCopyrightUrl="" songArtistUrl="" songAudioFileUrl="" stabilizationMode="0" mediaItemType="2" />
    <MediaItem id="5207" filePath="C:\Users\owner\Dropbox\Work\png\animation T=1.05207.png" arWidth="640" arHeight="480" duration="0" songTitle="" songArtist="" songAlbum="" songCopyrightUrl="" songArtistUrl="" songAudioFileUrl="" stabilizationMode="0" mediaItemType="2" />
    <MediaItem id="40" filePath="C:\Users\owner\Dropbox\Work\png\animation T=1.00040.png" arWidth="640" arHeight="480" duration="0" songTitle="" songArtist="" songAlbum="" songCopyrightUrl="" songArtistUrl="" songAudioFileUrl="" stabilizationMode="0" mediaItemType="2" />
    <MediaItem id="5208" filePath="C:\Users\owner\Dropbox\Work\png\animation T=1.05208.png" arWidth="640" arHeight="480" duration="0" songTitle="" songArtist="" songAlbum="" songCopyrightUrl="" songArtistUrl="" songAudioFileUrl="" stabilizationMode="0" mediaItemType="2" />
    <MediaItem id="41" filePath="C:\Users\owner\Dropbox\Work\png\animation T=1.00041.png" arWidth="640" arHeight="480" duration="0" songTitle="" songArtist="" songAlbum="" songCopyrightUrl="" songArtistUrl="" songAudioFileUrl="" stabilizationMode="0" mediaItemType="2" />
    <MediaItem id="5209" filePath="C:\Users\owner\Dropbox\Work\png\animation T=1.05209.png" arWidth="640" arHeight="480" duration="0" songTitle="" songArtist="" songAlbum="" songCopyrightUrl="" songArtistUrl="" songAudioFileUrl="" stabilizationMode="0" mediaItemType="2" />
    <MediaItem id="42" filePath="C:\Users\owner\Dropbox\Work\png\animation T=1.00042.png" arWidth="640" arHeight="480" duration="0" songTitle="" songArtist="" songAlbum="" songCopyrightUrl="" songArtistUrl="" songAudioFileUrl="" stabilizationMode="0" mediaItemType="2" />
    <MediaItem id="5210" filePath="C:\Users\owner\Dropbox\Work\png\animation T=1.05210.png" arWidth="640" arHeight="480" duration="0" songTitle="" songArtist="" songAlbum="" songCopyrightUrl="" songArtistUrl="" songAudioFileUrl="" stabilizationMode="0" mediaItemType="2" />
    <MediaItem id="43" filePath="C:\Users\owner\Dropbox\Work\png\animation T=1.00043.png" arWidth="640" arHeight="480" duration="0" songTitle="" songArtist="" songAlbum="" songCopyrightUrl="" songArtistUrl="" songAudioFileUrl="" stabilizationMode="0" mediaItemType="2" />
    <MediaItem id="5211" filePath="C:\Users\owner\Dropbox\Work\png\animation T=1.05211.png" arWidth="640" arHeight="480" duration="0" songTitle="" songArtist="" songAlbum="" songCopyrightUrl="" songArtistUrl="" songAudioFileUrl="" stabilizationMode="0" mediaItemType="2" />
    <MediaItem id="44" filePath="C:\Users\owner\Dropbox\Work\png\animation T=1.00044.png" arWidth="640" arHeight="480" duration="0" songTitle="" songArtist="" songAlbum="" songCopyrightUrl="" songArtistUrl="" songAudioFileUrl="" stabilizationMode="0" mediaItemType="2" />
    <MediaItem id="5212" filePath="C:\Users\owner\Dropbox\Work\png\animation T=1.05212.png" arWidth="640" arHeight="480" duration="0" songTitle="" songArtist="" songAlbum="" songCopyrightUrl="" songArtistUrl="" songAudioFileUrl="" stabilizationMode="0" mediaItemType="2" />
    <MediaItem id="45" filePath="C:\Users\owner\Dropbox\Work\png\animation T=1.00045.png" arWidth="640" arHeight="480" duration="0" songTitle="" songArtist="" songAlbum="" songCopyrightUrl="" songArtistUrl="" songAudioFileUrl="" stabilizationMode="0" mediaItemType="2" />
    <MediaItem id="5213" filePath="C:\Users\owner\Dropbox\Work\png\animation T=1.05213.png" arWidth="640" arHeight="480" duration="0" songTitle="" songArtist="" songAlbum="" songCopyrightUrl="" songArtistUrl="" songAudioFileUrl="" stabilizationMode="0" mediaItemType="2" />
    <MediaItem id="46" filePath="C:\Users\owner\Dropbox\Work\png\animation T=1.00046.png" arWidth="640" arHeight="480" duration="0" songTitle="" songArtist="" songAlbum="" songCopyrightUrl="" songArtistUrl="" songAudioFileUrl="" stabilizationMode="0" mediaItemType="2" />
    <MediaItem id="5214" filePath="C:\Users\owner\Dropbox\Work\png\animation T=1.05214.png" arWidth="640" arHeight="480" duration="0" songTitle="" songArtist="" songAlbum="" songCopyrightUrl="" songArtistUrl="" songAudioFileUrl="" stabilizationMode="0" mediaItemType="2" />
    <MediaItem id="47" filePath="C:\Users\owner\Dropbox\Work\png\animation T=1.00047.png" arWidth="640" arHeight="480" duration="0" songTitle="" songArtist="" songAlbum="" songCopyrightUrl="" songArtistUrl="" songAudioFileUrl="" stabilizationMode="0" mediaItemType="2" />
    <MediaItem id="5215" filePath="C:\Users\owner\Dropbox\Work\png\animation T=1.05215.png" arWidth="640" arHeight="480" duration="0" songTitle="" songArtist="" songAlbum="" songCopyrightUrl="" songArtistUrl="" songAudioFileUrl="" stabilizationMode="0" mediaItemType="2" />
    <MediaItem id="48" filePath="C:\Users\owner\Dropbox\Work\png\animation T=1.00048.png" arWidth="640" arHeight="480" duration="0" songTitle="" songArtist="" songAlbum="" songCopyrightUrl="" songArtistUrl="" songAudioFileUrl="" stabilizationMode="0" mediaItemType="2" />
    <MediaItem id="5216" filePath="C:\Users\owner\Dropbox\Work\png\animation T=1.05216.png" arWidth="640" arHeight="480" duration="0" songTitle="" songArtist="" songAlbum="" songCopyrightUrl="" songArtistUrl="" songAudioFileUrl="" stabilizationMode="0" mediaItemType="2" />
    <MediaItem id="49" filePath="C:\Users\owner\Dropbox\Work\png\animation T=1.00049.png" arWidth="640" arHeight="480" duration="0" songTitle="" songArtist="" songAlbum="" songCopyrightUrl="" songArtistUrl="" songAudioFileUrl="" stabilizationMode="0" mediaItemType="2" />
    <MediaItem id="5217" filePath="C:\Users\owner\Dropbox\Work\png\animation T=1.05217.png" arWidth="640" arHeight="480" duration="0" songTitle="" songArtist="" songAlbum="" songCopyrightUrl="" songArtistUrl="" songAudioFileUrl="" stabilizationMode="0" mediaItemType="2" />
    <MediaItem id="50" filePath="C:\Users\owner\Dropbox\Work\png\animation T=1.00050.png" arWidth="640" arHeight="480" duration="0" songTitle="" songArtist="" songAlbum="" songCopyrightUrl="" songArtistUrl="" songAudioFileUrl="" stabilizationMode="0" mediaItemType="2" />
    <MediaItem id="5218" filePath="C:\Users\owner\Dropbox\Work\png\animation T=1.05218.png" arWidth="640" arHeight="480" duration="0" songTitle="" songArtist="" songAlbum="" songCopyrightUrl="" songArtistUrl="" songAudioFileUrl="" stabilizationMode="0" mediaItemType="2" />
    <MediaItem id="51" filePath="C:\Users\owner\Dropbox\Work\png\animation T=1.00051.png" arWidth="640" arHeight="480" duration="0" songTitle="" songArtist="" songAlbum="" songCopyrightUrl="" songArtistUrl="" songAudioFileUrl="" stabilizationMode="0" mediaItemType="2" />
    <MediaItem id="5219" filePath="C:\Users\owner\Dropbox\Work\png\animation T=1.05219.png" arWidth="640" arHeight="480" duration="0" songTitle="" songArtist="" songAlbum="" songCopyrightUrl="" songArtistUrl="" songAudioFileUrl="" stabilizationMode="0" mediaItemType="2" />
    <MediaItem id="52" filePath="C:\Users\owner\Dropbox\Work\png\animation T=1.00052.png" arWidth="640" arHeight="480" duration="0" songTitle="" songArtist="" songAlbum="" songCopyrightUrl="" songArtistUrl="" songAudioFileUrl="" stabilizationMode="0" mediaItemType="2" />
    <MediaItem id="5220" filePath="C:\Users\owner\Dropbox\Work\png\animation T=1.05220.png" arWidth="640" arHeight="480" duration="0" songTitle="" songArtist="" songAlbum="" songCopyrightUrl="" songArtistUrl="" songAudioFileUrl="" stabilizationMode="0" mediaItemType="2" />
    <MediaItem id="53" filePath="C:\Users\owner\Dropbox\Work\png\animation T=1.00053.png" arWidth="640" arHeight="480" duration="0" songTitle="" songArtist="" songAlbum="" songCopyrightUrl="" songArtistUrl="" songAudioFileUrl="" stabilizationMode="0" mediaItemType="2" />
    <MediaItem id="5221" filePath="C:\Users\owner\Dropbox\Work\png\animation T=1.05221.png" arWidth="640" arHeight="480" duration="0" songTitle="" songArtist="" songAlbum="" songCopyrightUrl="" songArtistUrl="" songAudioFileUrl="" stabilizationMode="0" mediaItemType="2" />
    <MediaItem id="54" filePath="C:\Users\owner\Dropbox\Work\png\animation T=1.00054.png" arWidth="640" arHeight="480" duration="0" songTitle="" songArtist="" songAlbum="" songCopyrightUrl="" songArtistUrl="" songAudioFileUrl="" stabilizationMode="0" mediaItemType="2" />
    <MediaItem id="5222" filePath="C:\Users\owner\Dropbox\Work\png\animation T=1.05222.png" arWidth="640" arHeight="480" duration="0" songTitle="" songArtist="" songAlbum="" songCopyrightUrl="" songArtistUrl="" songAudioFileUrl="" stabilizationMode="0" mediaItemType="2" />
    <MediaItem id="55" filePath="C:\Users\owner\Dropbox\Work\png\animation T=1.00055.png" arWidth="640" arHeight="480" duration="0" songTitle="" songArtist="" songAlbum="" songCopyrightUrl="" songArtistUrl="" songAudioFileUrl="" stabilizationMode="0" mediaItemType="2" />
    <MediaItem id="5223" filePath="C:\Users\owner\Dropbox\Work\png\animation T=1.05223.png" arWidth="640" arHeight="480" duration="0" songTitle="" songArtist="" songAlbum="" songCopyrightUrl="" songArtistUrl="" songAudioFileUrl="" stabilizationMode="0" mediaItemType="2" />
    <MediaItem id="56" filePath="C:\Users\owner\Dropbox\Work\png\animation T=1.00056.png" arWidth="640" arHeight="480" duration="0" songTitle="" songArtist="" songAlbum="" songCopyrightUrl="" songArtistUrl="" songAudioFileUrl="" stabilizationMode="0" mediaItemType="2" />
    <MediaItem id="5224" filePath="C:\Users\owner\Dropbox\Work\png\animation T=1.05224.png" arWidth="640" arHeight="480" duration="0" songTitle="" songArtist="" songAlbum="" songCopyrightUrl="" songArtistUrl="" songAudioFileUrl="" stabilizationMode="0" mediaItemType="2" />
    <MediaItem id="57" filePath="C:\Users\owner\Dropbox\Work\png\animation T=1.00057.png" arWidth="640" arHeight="480" duration="0" songTitle="" songArtist="" songAlbum="" songCopyrightUrl="" songArtistUrl="" songAudioFileUrl="" stabilizationMode="0" mediaItemType="2" />
    <MediaItem id="5225" filePath="C:\Users\owner\Dropbox\Work\png\animation T=1.05225.png" arWidth="640" arHeight="480" duration="0" songTitle="" songArtist="" songAlbum="" songCopyrightUrl="" songArtistUrl="" songAudioFileUrl="" stabilizationMode="0" mediaItemType="2" />
    <MediaItem id="58" filePath="C:\Users\owner\Dropbox\Work\png\animation T=1.00058.png" arWidth="640" arHeight="480" duration="0" songTitle="" songArtist="" songAlbum="" songCopyrightUrl="" songArtistUrl="" songAudioFileUrl="" stabilizationMode="0" mediaItemType="2" />
    <MediaItem id="5226" filePath="C:\Users\owner\Dropbox\Work\png\animation T=1.05226.png" arWidth="640" arHeight="480" duration="0" songTitle="" songArtist="" songAlbum="" songCopyrightUrl="" songArtistUrl="" songAudioFileUrl="" stabilizationMode="0" mediaItemType="2" />
    <MediaItem id="59" filePath="C:\Users\owner\Dropbox\Work\png\animation T=1.00059.png" arWidth="640" arHeight="480" duration="0" songTitle="" songArtist="" songAlbum="" songCopyrightUrl="" songArtistUrl="" songAudioFileUrl="" stabilizationMode="0" mediaItemType="2" />
    <MediaItem id="5227" filePath="C:\Users\owner\Dropbox\Work\png\animation T=1.05227.png" arWidth="640" arHeight="480" duration="0" songTitle="" songArtist="" songAlbum="" songCopyrightUrl="" songArtistUrl="" songAudioFileUrl="" stabilizationMode="0" mediaItemType="2" />
    <MediaItem id="60" filePath="C:\Users\owner\Dropbox\Work\png\animation T=1.00060.png" arWidth="640" arHeight="480" duration="0" songTitle="" songArtist="" songAlbum="" songCopyrightUrl="" songArtistUrl="" songAudioFileUrl="" stabilizationMode="0" mediaItemType="2" />
    <MediaItem id="5228" filePath="C:\Users\owner\Dropbox\Work\png\animation T=1.05228.png" arWidth="640" arHeight="480" duration="0" songTitle="" songArtist="" songAlbum="" songCopyrightUrl="" songArtistUrl="" songAudioFileUrl="" stabilizationMode="0" mediaItemType="2" />
    <MediaItem id="61" filePath="C:\Users\owner\Dropbox\Work\png\animation T=1.00061.png" arWidth="640" arHeight="480" duration="0" songTitle="" songArtist="" songAlbum="" songCopyrightUrl="" songArtistUrl="" songAudioFileUrl="" stabilizationMode="0" mediaItemType="2" />
    <MediaItem id="5229" filePath="C:\Users\owner\Dropbox\Work\png\animation T=1.05229.png" arWidth="640" arHeight="480" duration="0" songTitle="" songArtist="" songAlbum="" songCopyrightUrl="" songArtistUrl="" songAudioFileUrl="" stabilizationMode="0" mediaItemType="2" />
    <MediaItem id="62" filePath="C:\Users\owner\Dropbox\Work\png\animation T=1.00062.png" arWidth="640" arHeight="480" duration="0" songTitle="" songArtist="" songAlbum="" songCopyrightUrl="" songArtistUrl="" songAudioFileUrl="" stabilizationMode="0" mediaItemType="2" />
    <MediaItem id="5230" filePath="C:\Users\owner\Dropbox\Work\png\animation T=1.05230.png" arWidth="640" arHeight="480" duration="0" songTitle="" songArtist="" songAlbum="" songCopyrightUrl="" songArtistUrl="" songAudioFileUrl="" stabilizationMode="0" mediaItemType="2" />
    <MediaItem id="63" filePath="C:\Users\owner\Dropbox\Work\png\animation T=1.00063.png" arWidth="640" arHeight="480" duration="0" songTitle="" songArtist="" songAlbum="" songCopyrightUrl="" songArtistUrl="" songAudioFileUrl="" stabilizationMode="0" mediaItemType="2" />
    <MediaItem id="5231" filePath="C:\Users\owner\Dropbox\Work\png\animation T=1.05231.png" arWidth="640" arHeight="480" duration="0" songTitle="" songArtist="" songAlbum="" songCopyrightUrl="" songArtistUrl="" songAudioFileUrl="" stabilizationMode="0" mediaItemType="2" />
    <MediaItem id="64" filePath="C:\Users\owner\Dropbox\Work\png\animation T=1.00064.png" arWidth="640" arHeight="480" duration="0" songTitle="" songArtist="" songAlbum="" songCopyrightUrl="" songArtistUrl="" songAudioFileUrl="" stabilizationMode="0" mediaItemType="2" />
    <MediaItem id="5232" filePath="C:\Users\owner\Dropbox\Work\png\animation T=1.05232.png" arWidth="640" arHeight="480" duration="0" songTitle="" songArtist="" songAlbum="" songCopyrightUrl="" songArtistUrl="" songAudioFileUrl="" stabilizationMode="0" mediaItemType="2" />
    <MediaItem id="65" filePath="C:\Users\owner\Dropbox\Work\png\animation T=1.00065.png" arWidth="640" arHeight="480" duration="0" songTitle="" songArtist="" songAlbum="" songCopyrightUrl="" songArtistUrl="" songAudioFileUrl="" stabilizationMode="0" mediaItemType="2" />
    <MediaItem id="5233" filePath="C:\Users\owner\Dropbox\Work\png\animation T=1.05233.png" arWidth="640" arHeight="480" duration="0" songTitle="" songArtist="" songAlbum="" songCopyrightUrl="" songArtistUrl="" songAudioFileUrl="" stabilizationMode="0" mediaItemType="2" />
    <MediaItem id="66" filePath="C:\Users\owner\Dropbox\Work\png\animation T=1.00066.png" arWidth="640" arHeight="480" duration="0" songTitle="" songArtist="" songAlbum="" songCopyrightUrl="" songArtistUrl="" songAudioFileUrl="" stabilizationMode="0" mediaItemType="2" />
    <MediaItem id="5234" filePath="C:\Users\owner\Dropbox\Work\png\animation T=1.05234.png" arWidth="640" arHeight="480" duration="0" songTitle="" songArtist="" songAlbum="" songCopyrightUrl="" songArtistUrl="" songAudioFileUrl="" stabilizationMode="0" mediaItemType="2" />
    <MediaItem id="67" filePath="C:\Users\owner\Dropbox\Work\png\animation T=1.00067.png" arWidth="640" arHeight="480" duration="0" songTitle="" songArtist="" songAlbum="" songCopyrightUrl="" songArtistUrl="" songAudioFileUrl="" stabilizationMode="0" mediaItemType="2" />
    <MediaItem id="5235" filePath="C:\Users\owner\Dropbox\Work\png\animation T=1.05235.png" arWidth="640" arHeight="480" duration="0" songTitle="" songArtist="" songAlbum="" songCopyrightUrl="" songArtistUrl="" songAudioFileUrl="" stabilizationMode="0" mediaItemType="2" />
    <MediaItem id="68" filePath="C:\Users\owner\Dropbox\Work\png\animation T=1.00068.png" arWidth="640" arHeight="480" duration="0" songTitle="" songArtist="" songAlbum="" songCopyrightUrl="" songArtistUrl="" songAudioFileUrl="" stabilizationMode="0" mediaItemType="2" />
    <MediaItem id="5236" filePath="C:\Users\owner\Dropbox\Work\png\animation T=1.05236.png" arWidth="640" arHeight="480" duration="0" songTitle="" songArtist="" songAlbum="" songCopyrightUrl="" songArtistUrl="" songAudioFileUrl="" stabilizationMode="0" mediaItemType="2" />
    <MediaItem id="69" filePath="C:\Users\owner\Dropbox\Work\png\animation T=1.00069.png" arWidth="640" arHeight="480" duration="0" songTitle="" songArtist="" songAlbum="" songCopyrightUrl="" songArtistUrl="" songAudioFileUrl="" stabilizationMode="0" mediaItemType="2" />
    <MediaItem id="5237" filePath="C:\Users\owner\Dropbox\Work\png\animation T=1.05237.png" arWidth="640" arHeight="480" duration="0" songTitle="" songArtist="" songAlbum="" songCopyrightUrl="" songArtistUrl="" songAudioFileUrl="" stabilizationMode="0" mediaItemType="2" />
    <MediaItem id="70" filePath="C:\Users\owner\Dropbox\Work\png\animation T=1.00070.png" arWidth="640" arHeight="480" duration="0" songTitle="" songArtist="" songAlbum="" songCopyrightUrl="" songArtistUrl="" songAudioFileUrl="" stabilizationMode="0" mediaItemType="2" />
    <MediaItem id="5238" filePath="C:\Users\owner\Dropbox\Work\png\animation T=1.05238.png" arWidth="640" arHeight="480" duration="0" songTitle="" songArtist="" songAlbum="" songCopyrightUrl="" songArtistUrl="" songAudioFileUrl="" stabilizationMode="0" mediaItemType="2" />
    <MediaItem id="71" filePath="C:\Users\owner\Dropbox\Work\png\animation T=1.00071.png" arWidth="640" arHeight="480" duration="0" songTitle="" songArtist="" songAlbum="" songCopyrightUrl="" songArtistUrl="" songAudioFileUrl="" stabilizationMode="0" mediaItemType="2" />
    <MediaItem id="5239" filePath="C:\Users\owner\Dropbox\Work\png\animation T=1.05239.png" arWidth="640" arHeight="480" duration="0" songTitle="" songArtist="" songAlbum="" songCopyrightUrl="" songArtistUrl="" songAudioFileUrl="" stabilizationMode="0" mediaItemType="2" />
    <MediaItem id="72" filePath="C:\Users\owner\Dropbox\Work\png\animation T=1.00072.png" arWidth="640" arHeight="480" duration="0" songTitle="" songArtist="" songAlbum="" songCopyrightUrl="" songArtistUrl="" songAudioFileUrl="" stabilizationMode="0" mediaItemType="2" />
    <MediaItem id="5240" filePath="C:\Users\owner\Dropbox\Work\png\animation T=1.05240.png" arWidth="640" arHeight="480" duration="0" songTitle="" songArtist="" songAlbum="" songCopyrightUrl="" songArtistUrl="" songAudioFileUrl="" stabilizationMode="0" mediaItemType="2" />
    <MediaItem id="73" filePath="C:\Users\owner\Dropbox\Work\png\animation T=1.00073.png" arWidth="640" arHeight="480" duration="0" songTitle="" songArtist="" songAlbum="" songCopyrightUrl="" songArtistUrl="" songAudioFileUrl="" stabilizationMode="0" mediaItemType="2" />
    <MediaItem id="5241" filePath="C:\Users\owner\Dropbox\Work\png\animation T=1.05241.png" arWidth="640" arHeight="480" duration="0" songTitle="" songArtist="" songAlbum="" songCopyrightUrl="" songArtistUrl="" songAudioFileUrl="" stabilizationMode="0" mediaItemType="2" />
    <MediaItem id="74" filePath="C:\Users\owner\Dropbox\Work\png\animation T=1.00074.png" arWidth="640" arHeight="480" duration="0" songTitle="" songArtist="" songAlbum="" songCopyrightUrl="" songArtistUrl="" songAudioFileUrl="" stabilizationMode="0" mediaItemType="2" />
    <MediaItem id="5242" filePath="C:\Users\owner\Dropbox\Work\png\animation T=1.05242.png" arWidth="640" arHeight="480" duration="0" songTitle="" songArtist="" songAlbum="" songCopyrightUrl="" songArtistUrl="" songAudioFileUrl="" stabilizationMode="0" mediaItemType="2" />
    <MediaItem id="75" filePath="C:\Users\owner\Dropbox\Work\png\animation T=1.00075.png" arWidth="640" arHeight="480" duration="0" songTitle="" songArtist="" songAlbum="" songCopyrightUrl="" songArtistUrl="" songAudioFileUrl="" stabilizationMode="0" mediaItemType="2" />
    <MediaItem id="5243" filePath="C:\Users\owner\Dropbox\Work\png\animation T=1.05243.png" arWidth="640" arHeight="480" duration="0" songTitle="" songArtist="" songAlbum="" songCopyrightUrl="" songArtistUrl="" songAudioFileUrl="" stabilizationMode="0" mediaItemType="2" />
    <MediaItem id="76" filePath="C:\Users\owner\Dropbox\Work\png\animation T=1.00076.png" arWidth="640" arHeight="480" duration="0" songTitle="" songArtist="" songAlbum="" songCopyrightUrl="" songArtistUrl="" songAudioFileUrl="" stabilizationMode="0" mediaItemType="2" />
    <MediaItem id="5244" filePath="C:\Users\owner\Dropbox\Work\png\animation T=1.05244.png" arWidth="640" arHeight="480" duration="0" songTitle="" songArtist="" songAlbum="" songCopyrightUrl="" songArtistUrl="" songAudioFileUrl="" stabilizationMode="0" mediaItemType="2" />
    <MediaItem id="77" filePath="C:\Users\owner\Dropbox\Work\png\animation T=1.00077.png" arWidth="640" arHeight="480" duration="0" songTitle="" songArtist="" songAlbum="" songCopyrightUrl="" songArtistUrl="" songAudioFileUrl="" stabilizationMode="0" mediaItemType="2" />
    <MediaItem id="5245" filePath="C:\Users\owner\Dropbox\Work\png\animation T=1.05245.png" arWidth="640" arHeight="480" duration="0" songTitle="" songArtist="" songAlbum="" songCopyrightUrl="" songArtistUrl="" songAudioFileUrl="" stabilizationMode="0" mediaItemType="2" />
    <MediaItem id="78" filePath="C:\Users\owner\Dropbox\Work\png\animation T=1.00078.png" arWidth="640" arHeight="480" duration="0" songTitle="" songArtist="" songAlbum="" songCopyrightUrl="" songArtistUrl="" songAudioFileUrl="" stabilizationMode="0" mediaItemType="2" />
    <MediaItem id="5246" filePath="C:\Users\owner\Dropbox\Work\png\animation T=1.05246.png" arWidth="640" arHeight="480" duration="0" songTitle="" songArtist="" songAlbum="" songCopyrightUrl="" songArtistUrl="" songAudioFileUrl="" stabilizationMode="0" mediaItemType="2" />
    <MediaItem id="79" filePath="C:\Users\owner\Dropbox\Work\png\animation T=1.00079.png" arWidth="640" arHeight="480" duration="0" songTitle="" songArtist="" songAlbum="" songCopyrightUrl="" songArtistUrl="" songAudioFileUrl="" stabilizationMode="0" mediaItemType="2" />
    <MediaItem id="5247" filePath="C:\Users\owner\Dropbox\Work\png\animation T=1.05247.png" arWidth="640" arHeight="480" duration="0" songTitle="" songArtist="" songAlbum="" songCopyrightUrl="" songArtistUrl="" songAudioFileUrl="" stabilizationMode="0" mediaItemType="2" />
    <MediaItem id="80" filePath="C:\Users\owner\Dropbox\Work\png\animation T=1.00080.png" arWidth="640" arHeight="480" duration="0" songTitle="" songArtist="" songAlbum="" songCopyrightUrl="" songArtistUrl="" songAudioFileUrl="" stabilizationMode="0" mediaItemType="2" />
    <MediaItem id="5248" filePath="C:\Users\owner\Dropbox\Work\png\animation T=1.05248.png" arWidth="640" arHeight="480" duration="0" songTitle="" songArtist="" songAlbum="" songCopyrightUrl="" songArtistUrl="" songAudioFileUrl="" stabilizationMode="0" mediaItemType="2" />
    <MediaItem id="81" filePath="C:\Users\owner\Dropbox\Work\png\animation T=1.00081.png" arWidth="640" arHeight="480" duration="0" songTitle="" songArtist="" songAlbum="" songCopyrightUrl="" songArtistUrl="" songAudioFileUrl="" stabilizationMode="0" mediaItemType="2" />
    <MediaItem id="5249" filePath="C:\Users\owner\Dropbox\Work\png\animation T=1.05249.png" arWidth="640" arHeight="480" duration="0" songTitle="" songArtist="" songAlbum="" songCopyrightUrl="" songArtistUrl="" songAudioFileUrl="" stabilizationMode="0" mediaItemType="2" />
    <MediaItem id="82" filePath="C:\Users\owner\Dropbox\Work\png\animation T=1.00082.png" arWidth="640" arHeight="480" duration="0" songTitle="" songArtist="" songAlbum="" songCopyrightUrl="" songArtistUrl="" songAudioFileUrl="" stabilizationMode="0" mediaItemType="2" />
    <MediaItem id="5250" filePath="C:\Users\owner\Dropbox\Work\png\animation T=1.05250.png" arWidth="640" arHeight="480" duration="0" songTitle="" songArtist="" songAlbum="" songCopyrightUrl="" songArtistUrl="" songAudioFileUrl="" stabilizationMode="0" mediaItemType="2" />
    <MediaItem id="83" filePath="C:\Users\owner\Dropbox\Work\png\animation T=1.00083.png" arWidth="640" arHeight="480" duration="0" songTitle="" songArtist="" songAlbum="" songCopyrightUrl="" songArtistUrl="" songAudioFileUrl="" stabilizationMode="0" mediaItemType="2" />
    <MediaItem id="5251" filePath="C:\Users\owner\Dropbox\Work\png\animation T=1.05251.png" arWidth="640" arHeight="480" duration="0" songTitle="" songArtist="" songAlbum="" songCopyrightUrl="" songArtistUrl="" songAudioFileUrl="" stabilizationMode="0" mediaItemType="2" />
    <MediaItem id="84" filePath="C:\Users\owner\Dropbox\Work\png\animation T=1.00084.png" arWidth="640" arHeight="480" duration="0" songTitle="" songArtist="" songAlbum="" songCopyrightUrl="" songArtistUrl="" songAudioFileUrl="" stabilizationMode="0" mediaItemType="2" />
    <MediaItem id="5252" filePath="C:\Users\owner\Dropbox\Work\png\animation T=1.05252.png" arWidth="640" arHeight="480" duration="0" songTitle="" songArtist="" songAlbum="" songCopyrightUrl="" songArtistUrl="" songAudioFileUrl="" stabilizationMode="0" mediaItemType="2" />
    <MediaItem id="85" filePath="C:\Users\owner\Dropbox\Work\png\animation T=1.00085.png" arWidth="640" arHeight="480" duration="0" songTitle="" songArtist="" songAlbum="" songCopyrightUrl="" songArtistUrl="" songAudioFileUrl="" stabilizationMode="0" mediaItemType="2" />
    <MediaItem id="5253" filePath="C:\Users\owner\Dropbox\Work\png\animation T=1.05253.png" arWidth="640" arHeight="480" duration="0" songTitle="" songArtist="" songAlbum="" songCopyrightUrl="" songArtistUrl="" songAudioFileUrl="" stabilizationMode="0" mediaItemType="2" />
    <MediaItem id="86" filePath="C:\Users\owner\Dropbox\Work\png\animation T=1.00086.png" arWidth="640" arHeight="480" duration="0" songTitle="" songArtist="" songAlbum="" songCopyrightUrl="" songArtistUrl="" songAudioFileUrl="" stabilizationMode="0" mediaItemType="2" />
    <MediaItem id="5254" filePath="C:\Users\owner\Dropbox\Work\png\animation T=1.05254.png" arWidth="640" arHeight="480" duration="0" songTitle="" songArtist="" songAlbum="" songCopyrightUrl="" songArtistUrl="" songAudioFileUrl="" stabilizationMode="0" mediaItemType="2" />
    <MediaItem id="87" filePath="C:\Users\owner\Dropbox\Work\png\animation T=1.00087.png" arWidth="640" arHeight="480" duration="0" songTitle="" songArtist="" songAlbum="" songCopyrightUrl="" songArtistUrl="" songAudioFileUrl="" stabilizationMode="0" mediaItemType="2" />
    <MediaItem id="5255" filePath="C:\Users\owner\Dropbox\Work\png\animation T=1.05255.png" arWidth="640" arHeight="480" duration="0" songTitle="" songArtist="" songAlbum="" songCopyrightUrl="" songArtistUrl="" songAudioFileUrl="" stabilizationMode="0" mediaItemType="2" />
    <MediaItem id="88" filePath="C:\Users\owner\Dropbox\Work\png\animation T=1.00088.png" arWidth="640" arHeight="480" duration="0" songTitle="" songArtist="" songAlbum="" songCopyrightUrl="" songArtistUrl="" songAudioFileUrl="" stabilizationMode="0" mediaItemType="2" />
    <MediaItem id="5256" filePath="C:\Users\owner\Dropbox\Work\png\animation T=1.05256.png" arWidth="640" arHeight="480" duration="0" songTitle="" songArtist="" songAlbum="" songCopyrightUrl="" songArtistUrl="" songAudioFileUrl="" stabilizationMode="0" mediaItemType="2" />
    <MediaItem id="89" filePath="C:\Users\owner\Dropbox\Work\png\animation T=1.00089.png" arWidth="640" arHeight="480" duration="0" songTitle="" songArtist="" songAlbum="" songCopyrightUrl="" songArtistUrl="" songAudioFileUrl="" stabilizationMode="0" mediaItemType="2" />
    <MediaItem id="5257" filePath="C:\Users\owner\Dropbox\Work\png\animation T=1.05257.png" arWidth="640" arHeight="480" duration="0" songTitle="" songArtist="" songAlbum="" songCopyrightUrl="" songArtistUrl="" songAudioFileUrl="" stabilizationMode="0" mediaItemType="2" />
    <MediaItem id="90" filePath="C:\Users\owner\Dropbox\Work\png\animation T=1.00090.png" arWidth="640" arHeight="480" duration="0" songTitle="" songArtist="" songAlbum="" songCopyrightUrl="" songArtistUrl="" songAudioFileUrl="" stabilizationMode="0" mediaItemType="2" />
    <MediaItem id="5258" filePath="C:\Users\owner\Dropbox\Work\png\animation T=1.05258.png" arWidth="640" arHeight="480" duration="0" songTitle="" songArtist="" songAlbum="" songCopyrightUrl="" songArtistUrl="" songAudioFileUrl="" stabilizationMode="0" mediaItemType="2" />
    <MediaItem id="91" filePath="C:\Users\owner\Dropbox\Work\png\animation T=1.00091.png" arWidth="640" arHeight="480" duration="0" songTitle="" songArtist="" songAlbum="" songCopyrightUrl="" songArtistUrl="" songAudioFileUrl="" stabilizationMode="0" mediaItemType="2" />
    <MediaItem id="5259" filePath="C:\Users\owner\Dropbox\Work\png\animation T=1.05259.png" arWidth="640" arHeight="480" duration="0" songTitle="" songArtist="" songAlbum="" songCopyrightUrl="" songArtistUrl="" songAudioFileUrl="" stabilizationMode="0" mediaItemType="2" />
    <MediaItem id="92" filePath="C:\Users\owner\Dropbox\Work\png\animation T=1.00092.png" arWidth="640" arHeight="480" duration="0" songTitle="" songArtist="" songAlbum="" songCopyrightUrl="" songArtistUrl="" songAudioFileUrl="" stabilizationMode="0" mediaItemType="2" />
    <MediaItem id="5260" filePath="C:\Users\owner\Dropbox\Work\png\animation T=1.05260.png" arWidth="640" arHeight="480" duration="0" songTitle="" songArtist="" songAlbum="" songCopyrightUrl="" songArtistUrl="" songAudioFileUrl="" stabilizationMode="0" mediaItemType="2" />
    <MediaItem id="93" filePath="C:\Users\owner\Dropbox\Work\png\animation T=1.00093.png" arWidth="640" arHeight="480" duration="0" songTitle="" songArtist="" songAlbum="" songCopyrightUrl="" songArtistUrl="" songAudioFileUrl="" stabilizationMode="0" mediaItemType="2" />
    <MediaItem id="5261" filePath="C:\Users\owner\Dropbox\Work\png\animation T=1.05261.png" arWidth="640" arHeight="480" duration="0" songTitle="" songArtist="" songAlbum="" songCopyrightUrl="" songArtistUrl="" songAudioFileUrl="" stabilizationMode="0" mediaItemType="2" />
    <MediaItem id="94" filePath="C:\Users\owner\Dropbox\Work\png\animation T=1.00094.png" arWidth="640" arHeight="480" duration="0" songTitle="" songArtist="" songAlbum="" songCopyrightUrl="" songArtistUrl="" songAudioFileUrl="" stabilizationMode="0" mediaItemType="2" />
    <MediaItem id="5262" filePath="C:\Users\owner\Dropbox\Work\png\animation T=1.05262.png" arWidth="640" arHeight="480" duration="0" songTitle="" songArtist="" songAlbum="" songCopyrightUrl="" songArtistUrl="" songAudioFileUrl="" stabilizationMode="0" mediaItemType="2" />
    <MediaItem id="95" filePath="C:\Users\owner\Dropbox\Work\png\animation T=1.00095.png" arWidth="640" arHeight="480" duration="0" songTitle="" songArtist="" songAlbum="" songCopyrightUrl="" songArtistUrl="" songAudioFileUrl="" stabilizationMode="0" mediaItemType="2" />
    <MediaItem id="5263" filePath="C:\Users\owner\Dropbox\Work\png\animation T=1.05263.png" arWidth="640" arHeight="480" duration="0" songTitle="" songArtist="" songAlbum="" songCopyrightUrl="" songArtistUrl="" songAudioFileUrl="" stabilizationMode="0" mediaItemType="2" />
    <MediaItem id="96" filePath="C:\Users\owner\Dropbox\Work\png\animation T=1.00096.png" arWidth="640" arHeight="480" duration="0" songTitle="" songArtist="" songAlbum="" songCopyrightUrl="" songArtistUrl="" songAudioFileUrl="" stabilizationMode="0" mediaItemType="2" />
    <MediaItem id="5264" filePath="C:\Users\owner\Dropbox\Work\png\animation T=1.05264.png" arWidth="640" arHeight="480" duration="0" songTitle="" songArtist="" songAlbum="" songCopyrightUrl="" songArtistUrl="" songAudioFileUrl="" stabilizationMode="0" mediaItemType="2" />
    <MediaItem id="97" filePath="C:\Users\owner\Dropbox\Work\png\animation T=1.00097.png" arWidth="640" arHeight="480" duration="0" songTitle="" songArtist="" songAlbum="" songCopyrightUrl="" songArtistUrl="" songAudioFileUrl="" stabilizationMode="0" mediaItemType="2" />
    <MediaItem id="5265" filePath="C:\Users\owner\Dropbox\Work\png\animation T=1.05265.png" arWidth="640" arHeight="480" duration="0" songTitle="" songArtist="" songAlbum="" songCopyrightUrl="" songArtistUrl="" songAudioFileUrl="" stabilizationMode="0" mediaItemType="2" />
    <MediaItem id="98" filePath="C:\Users\owner\Dropbox\Work\png\animation T=1.00098.png" arWidth="640" arHeight="480" duration="0" songTitle="" songArtist="" songAlbum="" songCopyrightUrl="" songArtistUrl="" songAudioFileUrl="" stabilizationMode="0" mediaItemType="2" />
    <MediaItem id="5266" filePath="C:\Users\owner\Dropbox\Work\png\animation T=1.05266.png" arWidth="640" arHeight="480" duration="0" songTitle="" songArtist="" songAlbum="" songCopyrightUrl="" songArtistUrl="" songAudioFileUrl="" stabilizationMode="0" mediaItemType="2" />
    <MediaItem id="99" filePath="C:\Users\owner\Dropbox\Work\png\animation T=1.00099.png" arWidth="640" arHeight="480" duration="0" songTitle="" songArtist="" songAlbum="" songCopyrightUrl="" songArtistUrl="" songAudioFileUrl="" stabilizationMode="0" mediaItemType="2" />
    <MediaItem id="5267" filePath="C:\Users\owner\Dropbox\Work\png\animation T=1.05267.png" arWidth="640" arHeight="480" duration="0" songTitle="" songArtist="" songAlbum="" songCopyrightUrl="" songArtistUrl="" songAudioFileUrl="" stabilizationMode="0" mediaItemType="2" />
    <MediaItem id="100" filePath="C:\Users\owner\Dropbox\Work\png\animation T=1.00100.png" arWidth="640" arHeight="480" duration="0" songTitle="" songArtist="" songAlbum="" songCopyrightUrl="" songArtistUrl="" songAudioFileUrl="" stabilizationMode="0" mediaItemType="2" />
    <MediaItem id="5268" filePath="C:\Users\owner\Dropbox\Work\png\animation T=1.05268.png" arWidth="640" arHeight="480" duration="0" songTitle="" songArtist="" songAlbum="" songCopyrightUrl="" songArtistUrl="" songAudioFileUrl="" stabilizationMode="0" mediaItemType="2" />
    <MediaItem id="101" filePath="C:\Users\owner\Dropbox\Work\png\animation T=1.00101.png" arWidth="640" arHeight="480" duration="0" songTitle="" songArtist="" songAlbum="" songCopyrightUrl="" songArtistUrl="" songAudioFileUrl="" stabilizationMode="0" mediaItemType="2" />
    <MediaItem id="5269" filePath="C:\Users\owner\Dropbox\Work\png\animation T=1.05269.png" arWidth="640" arHeight="480" duration="0" songTitle="" songArtist="" songAlbum="" songCopyrightUrl="" songArtistUrl="" songAudioFileUrl="" stabilizationMode="0" mediaItemType="2" />
    <MediaItem id="102" filePath="C:\Users\owner\Dropbox\Work\png\animation T=1.00102.png" arWidth="640" arHeight="480" duration="0" songTitle="" songArtist="" songAlbum="" songCopyrightUrl="" songArtistUrl="" songAudioFileUrl="" stabilizationMode="0" mediaItemType="2" />
    <MediaItem id="5270" filePath="C:\Users\owner\Dropbox\Work\png\animation T=1.05270.png" arWidth="640" arHeight="480" duration="0" songTitle="" songArtist="" songAlbum="" songCopyrightUrl="" songArtistUrl="" songAudioFileUrl="" stabilizationMode="0" mediaItemType="2" />
    <MediaItem id="103" filePath="C:\Users\owner\Dropbox\Work\png\animation T=1.00103.png" arWidth="640" arHeight="480" duration="0" songTitle="" songArtist="" songAlbum="" songCopyrightUrl="" songArtistUrl="" songAudioFileUrl="" stabilizationMode="0" mediaItemType="2" />
    <MediaItem id="5271" filePath="C:\Users\owner\Dropbox\Work\png\animation T=1.05271.png" arWidth="640" arHeight="480" duration="0" songTitle="" songArtist="" songAlbum="" songCopyrightUrl="" songArtistUrl="" songAudioFileUrl="" stabilizationMode="0" mediaItemType="2" />
    <MediaItem id="104" filePath="C:\Users\owner\Dropbox\Work\png\animation T=1.00104.png" arWidth="640" arHeight="480" duration="0" songTitle="" songArtist="" songAlbum="" songCopyrightUrl="" songArtistUrl="" songAudioFileUrl="" stabilizationMode="0" mediaItemType="2" />
    <MediaItem id="5272" filePath="C:\Users\owner\Dropbox\Work\png\animation T=1.05272.png" arWidth="640" arHeight="480" duration="0" songTitle="" songArtist="" songAlbum="" songCopyrightUrl="" songArtistUrl="" songAudioFileUrl="" stabilizationMode="0" mediaItemType="2" />
    <MediaItem id="105" filePath="C:\Users\owner\Dropbox\Work\png\animation T=1.00105.png" arWidth="640" arHeight="480" duration="0" songTitle="" songArtist="" songAlbum="" songCopyrightUrl="" songArtistUrl="" songAudioFileUrl="" stabilizationMode="0" mediaItemType="2" />
    <MediaItem id="5273" filePath="C:\Users\owner\Dropbox\Work\png\animation T=1.05273.png" arWidth="640" arHeight="480" duration="0" songTitle="" songArtist="" songAlbum="" songCopyrightUrl="" songArtistUrl="" songAudioFileUrl="" stabilizationMode="0" mediaItemType="2" />
    <MediaItem id="106" filePath="C:\Users\owner\Dropbox\Work\png\animation T=1.00106.png" arWidth="640" arHeight="480" duration="0" songTitle="" songArtist="" songAlbum="" songCopyrightUrl="" songArtistUrl="" songAudioFileUrl="" stabilizationMode="0" mediaItemType="2" />
    <MediaItem id="5274" filePath="C:\Users\owner\Dropbox\Work\png\animation T=1.05274.png" arWidth="640" arHeight="480" duration="0" songTitle="" songArtist="" songAlbum="" songCopyrightUrl="" songArtistUrl="" songAudioFileUrl="" stabilizationMode="0" mediaItemType="2" />
    <MediaItem id="107" filePath="C:\Users\owner\Dropbox\Work\png\animation T=1.00107.png" arWidth="640" arHeight="480" duration="0" songTitle="" songArtist="" songAlbum="" songCopyrightUrl="" songArtistUrl="" songAudioFileUrl="" stabilizationMode="0" mediaItemType="2" />
    <MediaItem id="5275" filePath="C:\Users\owner\Dropbox\Work\png\animation T=1.05275.png" arWidth="640" arHeight="480" duration="0" songTitle="" songArtist="" songAlbum="" songCopyrightUrl="" songArtistUrl="" songAudioFileUrl="" stabilizationMode="0" mediaItemType="2" />
    <MediaItem id="108" filePath="C:\Users\owner\Dropbox\Work\png\animation T=1.00108.png" arWidth="640" arHeight="480" duration="0" songTitle="" songArtist="" songAlbum="" songCopyrightUrl="" songArtistUrl="" songAudioFileUrl="" stabilizationMode="0" mediaItemType="2" />
    <MediaItem id="5276" filePath="C:\Users\owner\Dropbox\Work\png\animation T=1.05276.png" arWidth="640" arHeight="480" duration="0" songTitle="" songArtist="" songAlbum="" songCopyrightUrl="" songArtistUrl="" songAudioFileUrl="" stabilizationMode="0" mediaItemType="2" />
    <MediaItem id="109" filePath="C:\Users\owner\Dropbox\Work\png\animation T=1.00109.png" arWidth="640" arHeight="480" duration="0" songTitle="" songArtist="" songAlbum="" songCopyrightUrl="" songArtistUrl="" songAudioFileUrl="" stabilizationMode="0" mediaItemType="2" />
    <MediaItem id="5277" filePath="C:\Users\owner\Dropbox\Work\png\animation T=1.05277.png" arWidth="640" arHeight="480" duration="0" songTitle="" songArtist="" songAlbum="" songCopyrightUrl="" songArtistUrl="" songAudioFileUrl="" stabilizationMode="0" mediaItemType="2" />
    <MediaItem id="110" filePath="C:\Users\owner\Dropbox\Work\png\animation T=1.00110.png" arWidth="640" arHeight="480" duration="0" songTitle="" songArtist="" songAlbum="" songCopyrightUrl="" songArtistUrl="" songAudioFileUrl="" stabilizationMode="0" mediaItemType="2" />
    <MediaItem id="5278" filePath="C:\Users\owner\Dropbox\Work\png\animation T=1.05278.png" arWidth="640" arHeight="480" duration="0" songTitle="" songArtist="" songAlbum="" songCopyrightUrl="" songArtistUrl="" songAudioFileUrl="" stabilizationMode="0" mediaItemType="2" />
    <MediaItem id="111" filePath="C:\Users\owner\Dropbox\Work\png\animation T=1.00111.png" arWidth="640" arHeight="480" duration="0" songTitle="" songArtist="" songAlbum="" songCopyrightUrl="" songArtistUrl="" songAudioFileUrl="" stabilizationMode="0" mediaItemType="2" />
    <MediaItem id="5279" filePath="C:\Users\owner\Dropbox\Work\png\animation T=1.05279.png" arWidth="640" arHeight="480" duration="0" songTitle="" songArtist="" songAlbum="" songCopyrightUrl="" songArtistUrl="" songAudioFileUrl="" stabilizationMode="0" mediaItemType="2" />
    <MediaItem id="112" filePath="C:\Users\owner\Dropbox\Work\png\animation T=1.00112.png" arWidth="640" arHeight="480" duration="0" songTitle="" songArtist="" songAlbum="" songCopyrightUrl="" songArtistUrl="" songAudioFileUrl="" stabilizationMode="0" mediaItemType="2" />
    <MediaItem id="5280" filePath="C:\Users\owner\Dropbox\Work\png\animation T=1.05280.png" arWidth="640" arHeight="480" duration="0" songTitle="" songArtist="" songAlbum="" songCopyrightUrl="" songArtistUrl="" songAudioFileUrl="" stabilizationMode="0" mediaItemType="2" />
    <MediaItem id="113" filePath="C:\Users\owner\Dropbox\Work\png\animation T=1.00113.png" arWidth="640" arHeight="480" duration="0" songTitle="" songArtist="" songAlbum="" songCopyrightUrl="" songArtistUrl="" songAudioFileUrl="" stabilizationMode="0" mediaItemType="2" />
    <MediaItem id="5281" filePath="C:\Users\owner\Dropbox\Work\png\animation T=1.05281.png" arWidth="640" arHeight="480" duration="0" songTitle="" songArtist="" songAlbum="" songCopyrightUrl="" songArtistUrl="" songAudioFileUrl="" stabilizationMode="0" mediaItemType="2" />
    <MediaItem id="114" filePath="C:\Users\owner\Dropbox\Work\png\animation T=1.00114.png" arWidth="640" arHeight="480" duration="0" songTitle="" songArtist="" songAlbum="" songCopyrightUrl="" songArtistUrl="" songAudioFileUrl="" stabilizationMode="0" mediaItemType="2" />
    <MediaItem id="5282" filePath="C:\Users\owner\Dropbox\Work\png\animation T=1.05282.png" arWidth="640" arHeight="480" duration="0" songTitle="" songArtist="" songAlbum="" songCopyrightUrl="" songArtistUrl="" songAudioFileUrl="" stabilizationMode="0" mediaItemType="2" />
    <MediaItem id="115" filePath="C:\Users\owner\Dropbox\Work\png\animation T=1.00115.png" arWidth="640" arHeight="480" duration="0" songTitle="" songArtist="" songAlbum="" songCopyrightUrl="" songArtistUrl="" songAudioFileUrl="" stabilizationMode="0" mediaItemType="2" />
    <MediaItem id="5283" filePath="C:\Users\owner\Dropbox\Work\png\animation T=1.05283.png" arWidth="640" arHeight="480" duration="0" songTitle="" songArtist="" songAlbum="" songCopyrightUrl="" songArtistUrl="" songAudioFileUrl="" stabilizationMode="0" mediaItemType="2" />
    <MediaItem id="116" filePath="C:\Users\owner\Dropbox\Work\png\animation T=1.00116.png" arWidth="640" arHeight="480" duration="0" songTitle="" songArtist="" songAlbum="" songCopyrightUrl="" songArtistUrl="" songAudioFileUrl="" stabilizationMode="0" mediaItemType="2" />
    <MediaItem id="5284" filePath="C:\Users\owner\Dropbox\Work\png\animation T=1.05284.png" arWidth="640" arHeight="480" duration="0" songTitle="" songArtist="" songAlbum="" songCopyrightUrl="" songArtistUrl="" songAudioFileUrl="" stabilizationMode="0" mediaItemType="2" />
    <MediaItem id="117" filePath="C:\Users\owner\Dropbox\Work\png\animation T=1.00117.png" arWidth="640" arHeight="480" duration="0" songTitle="" songArtist="" songAlbum="" songCopyrightUrl="" songArtistUrl="" songAudioFileUrl="" stabilizationMode="0" mediaItemType="2" />
    <MediaItem id="5285" filePath="C:\Users\owner\Dropbox\Work\png\animation T=1.05285.png" arWidth="640" arHeight="480" duration="0" songTitle="" songArtist="" songAlbum="" songCopyrightUrl="" songArtistUrl="" songAudioFileUrl="" stabilizationMode="0" mediaItemType="2" />
    <MediaItem id="118" filePath="C:\Users\owner\Dropbox\Work\png\animation T=1.00118.png" arWidth="640" arHeight="480" duration="0" songTitle="" songArtist="" songAlbum="" songCopyrightUrl="" songArtistUrl="" songAudioFileUrl="" stabilizationMode="0" mediaItemType="2" />
    <MediaItem id="5286" filePath="C:\Users\owner\Dropbox\Work\png\animation T=1.05286.png" arWidth="640" arHeight="480" duration="0" songTitle="" songArtist="" songAlbum="" songCopyrightUrl="" songArtistUrl="" songAudioFileUrl="" stabilizationMode="0" mediaItemType="2" />
    <MediaItem id="119" filePath="C:\Users\owner\Dropbox\Work\png\animation T=1.00119.png" arWidth="640" arHeight="480" duration="0" songTitle="" songArtist="" songAlbum="" songCopyrightUrl="" songArtistUrl="" songAudioFileUrl="" stabilizationMode="0" mediaItemType="2" />
    <MediaItem id="5287" filePath="C:\Users\owner\Dropbox\Work\png\animation T=1.05287.png" arWidth="640" arHeight="480" duration="0" songTitle="" songArtist="" songAlbum="" songCopyrightUrl="" songArtistUrl="" songAudioFileUrl="" stabilizationMode="0" mediaItemType="2" />
    <MediaItem id="120" filePath="C:\Users\owner\Dropbox\Work\png\animation T=1.00120.png" arWidth="640" arHeight="480" duration="0" songTitle="" songArtist="" songAlbum="" songCopyrightUrl="" songArtistUrl="" songAudioFileUrl="" stabilizationMode="0" mediaItemType="2" />
    <MediaItem id="5288" filePath="C:\Users\owner\Dropbox\Work\png\animation T=1.05288.png" arWidth="640" arHeight="480" duration="0" songTitle="" songArtist="" songAlbum="" songCopyrightUrl="" songArtistUrl="" songAudioFileUrl="" stabilizationMode="0" mediaItemType="2" />
    <MediaItem id="121" filePath="C:\Users\owner\Dropbox\Work\png\animation T=1.00121.png" arWidth="640" arHeight="480" duration="0" songTitle="" songArtist="" songAlbum="" songCopyrightUrl="" songArtistUrl="" songAudioFileUrl="" stabilizationMode="0" mediaItemType="2" />
    <MediaItem id="5289" filePath="C:\Users\owner\Dropbox\Work\png\animation T=1.05289.png" arWidth="640" arHeight="480" duration="0" songTitle="" songArtist="" songAlbum="" songCopyrightUrl="" songArtistUrl="" songAudioFileUrl="" stabilizationMode="0" mediaItemType="2" />
    <MediaItem id="122" filePath="C:\Users\owner\Dropbox\Work\png\animation T=1.00122.png" arWidth="640" arHeight="480" duration="0" songTitle="" songArtist="" songAlbum="" songCopyrightUrl="" songArtistUrl="" songAudioFileUrl="" stabilizationMode="0" mediaItemType="2" />
    <MediaItem id="5290" filePath="C:\Users\owner\Dropbox\Work\png\animation T=1.05290.png" arWidth="640" arHeight="480" duration="0" songTitle="" songArtist="" songAlbum="" songCopyrightUrl="" songArtistUrl="" songAudioFileUrl="" stabilizationMode="0" mediaItemType="2" />
    <MediaItem id="123" filePath="C:\Users\owner\Dropbox\Work\png\animation T=1.00123.png" arWidth="640" arHeight="480" duration="0" songTitle="" songArtist="" songAlbum="" songCopyrightUrl="" songArtistUrl="" songAudioFileUrl="" stabilizationMode="0" mediaItemType="2" />
    <MediaItem id="5291" filePath="C:\Users\owner\Dropbox\Work\png\animation T=1.05291.png" arWidth="640" arHeight="480" duration="0" songTitle="" songArtist="" songAlbum="" songCopyrightUrl="" songArtistUrl="" songAudioFileUrl="" stabilizationMode="0" mediaItemType="2" />
    <MediaItem id="124" filePath="C:\Users\owner\Dropbox\Work\png\animation T=1.00124.png" arWidth="640" arHeight="480" duration="0" songTitle="" songArtist="" songAlbum="" songCopyrightUrl="" songArtistUrl="" songAudioFileUrl="" stabilizationMode="0" mediaItemType="2" />
    <MediaItem id="5292" filePath="C:\Users\owner\Dropbox\Work\png\animation T=1.05292.png" arWidth="640" arHeight="480" duration="0" songTitle="" songArtist="" songAlbum="" songCopyrightUrl="" songArtistUrl="" songAudioFileUrl="" stabilizationMode="0" mediaItemType="2" />
    <MediaItem id="125" filePath="C:\Users\owner\Dropbox\Work\png\animation T=1.00125.png" arWidth="640" arHeight="480" duration="0" songTitle="" songArtist="" songAlbum="" songCopyrightUrl="" songArtistUrl="" songAudioFileUrl="" stabilizationMode="0" mediaItemType="2" />
    <MediaItem id="5293" filePath="C:\Users\owner\Dropbox\Work\png\animation T=1.05293.png" arWidth="640" arHeight="480" duration="0" songTitle="" songArtist="" songAlbum="" songCopyrightUrl="" songArtistUrl="" songAudioFileUrl="" stabilizationMode="0" mediaItemType="2" />
    <MediaItem id="126" filePath="C:\Users\owner\Dropbox\Work\png\animation T=1.00126.png" arWidth="640" arHeight="480" duration="0" songTitle="" songArtist="" songAlbum="" songCopyrightUrl="" songArtistUrl="" songAudioFileUrl="" stabilizationMode="0" mediaItemType="2" />
    <MediaItem id="5294" filePath="C:\Users\owner\Dropbox\Work\png\animation T=1.05294.png" arWidth="640" arHeight="480" duration="0" songTitle="" songArtist="" songAlbum="" songCopyrightUrl="" songArtistUrl="" songAudioFileUrl="" stabilizationMode="0" mediaItemType="2" />
    <MediaItem id="127" filePath="C:\Users\owner\Dropbox\Work\png\animation T=1.00127.png" arWidth="640" arHeight="480" duration="0" songTitle="" songArtist="" songAlbum="" songCopyrightUrl="" songArtistUrl="" songAudioFileUrl="" stabilizationMode="0" mediaItemType="2" />
    <MediaItem id="5295" filePath="C:\Users\owner\Dropbox\Work\png\animation T=1.05295.png" arWidth="640" arHeight="480" duration="0" songTitle="" songArtist="" songAlbum="" songCopyrightUrl="" songArtistUrl="" songAudioFileUrl="" stabilizationMode="0" mediaItemType="2" />
    <MediaItem id="128" filePath="C:\Users\owner\Dropbox\Work\png\animation T=1.00128.png" arWidth="640" arHeight="480" duration="0" songTitle="" songArtist="" songAlbum="" songCopyrightUrl="" songArtistUrl="" songAudioFileUrl="" stabilizationMode="0" mediaItemType="2" />
    <MediaItem id="5296" filePath="C:\Users\owner\Dropbox\Work\png\animation T=1.05296.png" arWidth="640" arHeight="480" duration="0" songTitle="" songArtist="" songAlbum="" songCopyrightUrl="" songArtistUrl="" songAudioFileUrl="" stabilizationMode="0" mediaItemType="2" />
    <MediaItem id="129" filePath="C:\Users\owner\Dropbox\Work\png\animation T=1.00129.png" arWidth="640" arHeight="480" duration="0" songTitle="" songArtist="" songAlbum="" songCopyrightUrl="" songArtistUrl="" songAudioFileUrl="" stabilizationMode="0" mediaItemType="2" />
    <MediaItem id="5297" filePath="C:\Users\owner\Dropbox\Work\png\animation T=1.05297.png" arWidth="640" arHeight="480" duration="0" songTitle="" songArtist="" songAlbum="" songCopyrightUrl="" songArtistUrl="" songAudioFileUrl="" stabilizationMode="0" mediaItemType="2" />
    <MediaItem id="130" filePath="C:\Users\owner\Dropbox\Work\png\animation T=1.00130.png" arWidth="640" arHeight="480" duration="0" songTitle="" songArtist="" songAlbum="" songCopyrightUrl="" songArtistUrl="" songAudioFileUrl="" stabilizationMode="0" mediaItemType="2" />
    <MediaItem id="5298" filePath="C:\Users\owner\Dropbox\Work\png\animation T=1.05298.png" arWidth="640" arHeight="480" duration="0" songTitle="" songArtist="" songAlbum="" songCopyrightUrl="" songArtistUrl="" songAudioFileUrl="" stabilizationMode="0" mediaItemType="2" />
    <MediaItem id="131" filePath="C:\Users\owner\Dropbox\Work\png\animation T=1.00131.png" arWidth="640" arHeight="480" duration="0" songTitle="" songArtist="" songAlbum="" songCopyrightUrl="" songArtistUrl="" songAudioFileUrl="" stabilizationMode="0" mediaItemType="2" />
    <MediaItem id="5299" filePath="C:\Users\owner\Dropbox\Work\png\animation T=1.05299.png" arWidth="640" arHeight="480" duration="0" songTitle="" songArtist="" songAlbum="" songCopyrightUrl="" songArtistUrl="" songAudioFileUrl="" stabilizationMode="0" mediaItemType="2" />
    <MediaItem id="132" filePath="C:\Users\owner\Dropbox\Work\png\animation T=1.00132.png" arWidth="640" arHeight="480" duration="0" songTitle="" songArtist="" songAlbum="" songCopyrightUrl="" songArtistUrl="" songAudioFileUrl="" stabilizationMode="0" mediaItemType="2" />
    <MediaItem id="5300" filePath="C:\Users\owner\Dropbox\Work\png\animation T=1.05300.png" arWidth="640" arHeight="480" duration="0" songTitle="" songArtist="" songAlbum="" songCopyrightUrl="" songArtistUrl="" songAudioFileUrl="" stabilizationMode="0" mediaItemType="2" />
    <MediaItem id="133" filePath="C:\Users\owner\Dropbox\Work\png\animation T=1.00133.png" arWidth="640" arHeight="480" duration="0" songTitle="" songArtist="" songAlbum="" songCopyrightUrl="" songArtistUrl="" songAudioFileUrl="" stabilizationMode="0" mediaItemType="2" />
    <MediaItem id="5301" filePath="C:\Users\owner\Dropbox\Work\png\animation T=1.05301.png" arWidth="640" arHeight="480" duration="0" songTitle="" songArtist="" songAlbum="" songCopyrightUrl="" songArtistUrl="" songAudioFileUrl="" stabilizationMode="0" mediaItemType="2" />
    <MediaItem id="134" filePath="C:\Users\owner\Dropbox\Work\png\animation T=1.00134.png" arWidth="640" arHeight="480" duration="0" songTitle="" songArtist="" songAlbum="" songCopyrightUrl="" songArtistUrl="" songAudioFileUrl="" stabilizationMode="0" mediaItemType="2" />
    <MediaItem id="5302" filePath="C:\Users\owner\Dropbox\Work\png\animation T=1.05302.png" arWidth="640" arHeight="480" duration="0" songTitle="" songArtist="" songAlbum="" songCopyrightUrl="" songArtistUrl="" songAudioFileUrl="" stabilizationMode="0" mediaItemType="2" />
    <MediaItem id="135" filePath="C:\Users\owner\Dropbox\Work\png\animation T=1.00135.png" arWidth="640" arHeight="480" duration="0" songTitle="" songArtist="" songAlbum="" songCopyrightUrl="" songArtistUrl="" songAudioFileUrl="" stabilizationMode="0" mediaItemType="2" />
    <MediaItem id="5303" filePath="C:\Users\owner\Dropbox\Work\png\animation T=1.05303.png" arWidth="640" arHeight="480" duration="0" songTitle="" songArtist="" songAlbum="" songCopyrightUrl="" songArtistUrl="" songAudioFileUrl="" stabilizationMode="0" mediaItemType="2" />
    <MediaItem id="136" filePath="C:\Users\owner\Dropbox\Work\png\animation T=1.00136.png" arWidth="640" arHeight="480" duration="0" songTitle="" songArtist="" songAlbum="" songCopyrightUrl="" songArtistUrl="" songAudioFileUrl="" stabilizationMode="0" mediaItemType="2" />
    <MediaItem id="5304" filePath="C:\Users\owner\Dropbox\Work\png\animation T=1.05304.png" arWidth="640" arHeight="480" duration="0" songTitle="" songArtist="" songAlbum="" songCopyrightUrl="" songArtistUrl="" songAudioFileUrl="" stabilizationMode="0" mediaItemType="2" />
    <MediaItem id="137" filePath="C:\Users\owner\Dropbox\Work\png\animation T=1.00137.png" arWidth="640" arHeight="480" duration="0" songTitle="" songArtist="" songAlbum="" songCopyrightUrl="" songArtistUrl="" songAudioFileUrl="" stabilizationMode="0" mediaItemType="2" />
    <MediaItem id="5305" filePath="C:\Users\owner\Dropbox\Work\png\animation T=1.05305.png" arWidth="640" arHeight="480" duration="0" songTitle="" songArtist="" songAlbum="" songCopyrightUrl="" songArtistUrl="" songAudioFileUrl="" stabilizationMode="0" mediaItemType="2" />
    <MediaItem id="138" filePath="C:\Users\owner\Dropbox\Work\png\animation T=1.00138.png" arWidth="640" arHeight="480" duration="0" songTitle="" songArtist="" songAlbum="" songCopyrightUrl="" songArtistUrl="" songAudioFileUrl="" stabilizationMode="0" mediaItemType="2" />
    <MediaItem id="5306" filePath="C:\Users\owner\Dropbox\Work\png\animation T=1.05306.png" arWidth="640" arHeight="480" duration="0" songTitle="" songArtist="" songAlbum="" songCopyrightUrl="" songArtistUrl="" songAudioFileUrl="" stabilizationMode="0" mediaItemType="2" />
    <MediaItem id="139" filePath="C:\Users\owner\Dropbox\Work\png\animation T=1.00139.png" arWidth="640" arHeight="480" duration="0" songTitle="" songArtist="" songAlbum="" songCopyrightUrl="" songArtistUrl="" songAudioFileUrl="" stabilizationMode="0" mediaItemType="2" />
    <MediaItem id="5307" filePath="C:\Users\owner\Dropbox\Work\png\animation T=1.05307.png" arWidth="640" arHeight="480" duration="0" songTitle="" songArtist="" songAlbum="" songCopyrightUrl="" songArtistUrl="" songAudioFileUrl="" stabilizationMode="0" mediaItemType="2" />
    <MediaItem id="140" filePath="C:\Users\owner\Dropbox\Work\png\animation T=1.00140.png" arWidth="640" arHeight="480" duration="0" songTitle="" songArtist="" songAlbum="" songCopyrightUrl="" songArtistUrl="" songAudioFileUrl="" stabilizationMode="0" mediaItemType="2" />
    <MediaItem id="5308" filePath="C:\Users\owner\Dropbox\Work\png\animation T=1.05308.png" arWidth="640" arHeight="480" duration="0" songTitle="" songArtist="" songAlbum="" songCopyrightUrl="" songArtistUrl="" songAudioFileUrl="" stabilizationMode="0" mediaItemType="2" />
    <MediaItem id="141" filePath="C:\Users\owner\Dropbox\Work\png\animation T=1.00141.png" arWidth="640" arHeight="480" duration="0" songTitle="" songArtist="" songAlbum="" songCopyrightUrl="" songArtistUrl="" songAudioFileUrl="" stabilizationMode="0" mediaItemType="2" />
    <MediaItem id="5309" filePath="C:\Users\owner\Dropbox\Work\png\animation T=1.05309.png" arWidth="640" arHeight="480" duration="0" songTitle="" songArtist="" songAlbum="" songCopyrightUrl="" songArtistUrl="" songAudioFileUrl="" stabilizationMode="0" mediaItemType="2" />
    <MediaItem id="142" filePath="C:\Users\owner\Dropbox\Work\png\animation T=1.00142.png" arWidth="640" arHeight="480" duration="0" songTitle="" songArtist="" songAlbum="" songCopyrightUrl="" songArtistUrl="" songAudioFileUrl="" stabilizationMode="0" mediaItemType="2" />
    <MediaItem id="5310" filePath="C:\Users\owner\Dropbox\Work\png\animation T=1.05310.png" arWidth="640" arHeight="480" duration="0" songTitle="" songArtist="" songAlbum="" songCopyrightUrl="" songArtistUrl="" songAudioFileUrl="" stabilizationMode="0" mediaItemType="2" />
    <MediaItem id="143" filePath="C:\Users\owner\Dropbox\Work\png\animation T=1.00143.png" arWidth="640" arHeight="480" duration="0" songTitle="" songArtist="" songAlbum="" songCopyrightUrl="" songArtistUrl="" songAudioFileUrl="" stabilizationMode="0" mediaItemType="2" />
    <MediaItem id="5311" filePath="C:\Users\owner\Dropbox\Work\png\animation T=1.05311.png" arWidth="640" arHeight="480" duration="0" songTitle="" songArtist="" songAlbum="" songCopyrightUrl="" songArtistUrl="" songAudioFileUrl="" stabilizationMode="0" mediaItemType="2" />
    <MediaItem id="144" filePath="C:\Users\owner\Dropbox\Work\png\animation T=1.00144.png" arWidth="640" arHeight="480" duration="0" songTitle="" songArtist="" songAlbum="" songCopyrightUrl="" songArtistUrl="" songAudioFileUrl="" stabilizationMode="0" mediaItemType="2" />
    <MediaItem id="5312" filePath="C:\Users\owner\Dropbox\Work\png\animation T=1.05312.png" arWidth="640" arHeight="480" duration="0" songTitle="" songArtist="" songAlbum="" songCopyrightUrl="" songArtistUrl="" songAudioFileUrl="" stabilizationMode="0" mediaItemType="2" />
    <MediaItem id="145" filePath="C:\Users\owner\Dropbox\Work\png\animation T=1.00145.png" arWidth="640" arHeight="480" duration="0" songTitle="" songArtist="" songAlbum="" songCopyrightUrl="" songArtistUrl="" songAudioFileUrl="" stabilizationMode="0" mediaItemType="2" />
    <MediaItem id="5313" filePath="C:\Users\owner\Dropbox\Work\png\animation T=1.05313.png" arWidth="640" arHeight="480" duration="0" songTitle="" songArtist="" songAlbum="" songCopyrightUrl="" songArtistUrl="" songAudioFileUrl="" stabilizationMode="0" mediaItemType="2" />
    <MediaItem id="146" filePath="C:\Users\owner\Dropbox\Work\png\animation T=1.00146.png" arWidth="640" arHeight="480" duration="0" songTitle="" songArtist="" songAlbum="" songCopyrightUrl="" songArtistUrl="" songAudioFileUrl="" stabilizationMode="0" mediaItemType="2" />
    <MediaItem id="5314" filePath="C:\Users\owner\Dropbox\Work\png\animation T=1.05314.png" arWidth="640" arHeight="480" duration="0" songTitle="" songArtist="" songAlbum="" songCopyrightUrl="" songArtistUrl="" songAudioFileUrl="" stabilizationMode="0" mediaItemType="2" />
    <MediaItem id="147" filePath="C:\Users\owner\Dropbox\Work\png\animation T=1.00147.png" arWidth="640" arHeight="480" duration="0" songTitle="" songArtist="" songAlbum="" songCopyrightUrl="" songArtistUrl="" songAudioFileUrl="" stabilizationMode="0" mediaItemType="2" />
    <MediaItem id="5315" filePath="C:\Users\owner\Dropbox\Work\png\animation T=1.05315.png" arWidth="640" arHeight="480" duration="0" songTitle="" songArtist="" songAlbum="" songCopyrightUrl="" songArtistUrl="" songAudioFileUrl="" stabilizationMode="0" mediaItemType="2" />
    <MediaItem id="148" filePath="C:\Users\owner\Dropbox\Work\png\animation T=1.00148.png" arWidth="640" arHeight="480" duration="0" songTitle="" songArtist="" songAlbum="" songCopyrightUrl="" songArtistUrl="" songAudioFileUrl="" stabilizationMode="0" mediaItemType="2" />
    <MediaItem id="5316" filePath="C:\Users\owner\Dropbox\Work\png\animation T=1.05316.png" arWidth="640" arHeight="480" duration="0" songTitle="" songArtist="" songAlbum="" songCopyrightUrl="" songArtistUrl="" songAudioFileUrl="" stabilizationMode="0" mediaItemType="2" />
    <MediaItem id="149" filePath="C:\Users\owner\Dropbox\Work\png\animation T=1.00149.png" arWidth="640" arHeight="480" duration="0" songTitle="" songArtist="" songAlbum="" songCopyrightUrl="" songArtistUrl="" songAudioFileUrl="" stabilizationMode="0" mediaItemType="2" />
    <MediaItem id="5317" filePath="C:\Users\owner\Dropbox\Work\png\animation T=1.05317.png" arWidth="640" arHeight="480" duration="0" songTitle="" songArtist="" songAlbum="" songCopyrightUrl="" songArtistUrl="" songAudioFileUrl="" stabilizationMode="0" mediaItemType="2" />
    <MediaItem id="150" filePath="C:\Users\owner\Dropbox\Work\png\animation T=1.00150.png" arWidth="640" arHeight="480" duration="0" songTitle="" songArtist="" songAlbum="" songCopyrightUrl="" songArtistUrl="" songAudioFileUrl="" stabilizationMode="0" mediaItemType="2" />
    <MediaItem id="5318" filePath="C:\Users\owner\Dropbox\Work\png\animation T=1.05318.png" arWidth="640" arHeight="480" duration="0" songTitle="" songArtist="" songAlbum="" songCopyrightUrl="" songArtistUrl="" songAudioFileUrl="" stabilizationMode="0" mediaItemType="2" />
    <MediaItem id="151" filePath="C:\Users\owner\Dropbox\Work\png\animation T=1.00151.png" arWidth="640" arHeight="480" duration="0" songTitle="" songArtist="" songAlbum="" songCopyrightUrl="" songArtistUrl="" songAudioFileUrl="" stabilizationMode="0" mediaItemType="2" />
    <MediaItem id="5319" filePath="C:\Users\owner\Dropbox\Work\png\animation T=1.05319.png" arWidth="640" arHeight="480" duration="0" songTitle="" songArtist="" songAlbum="" songCopyrightUrl="" songArtistUrl="" songAudioFileUrl="" stabilizationMode="0" mediaItemType="2" />
    <MediaItem id="152" filePath="C:\Users\owner\Dropbox\Work\png\animation T=1.00152.png" arWidth="640" arHeight="480" duration="0" songTitle="" songArtist="" songAlbum="" songCopyrightUrl="" songArtistUrl="" songAudioFileUrl="" stabilizationMode="0" mediaItemType="2" />
    <MediaItem id="5320" filePath="C:\Users\owner\Dropbox\Work\png\animation T=1.05320.png" arWidth="640" arHeight="480" duration="0" songTitle="" songArtist="" songAlbum="" songCopyrightUrl="" songArtistUrl="" songAudioFileUrl="" stabilizationMode="0" mediaItemType="2" />
    <MediaItem id="153" filePath="C:\Users\owner\Dropbox\Work\png\animation T=1.00153.png" arWidth="640" arHeight="480" duration="0" songTitle="" songArtist="" songAlbum="" songCopyrightUrl="" songArtistUrl="" songAudioFileUrl="" stabilizationMode="0" mediaItemType="2" />
    <MediaItem id="5321" filePath="C:\Users\owner\Dropbox\Work\png\animation T=1.05321.png" arWidth="640" arHeight="480" duration="0" songTitle="" songArtist="" songAlbum="" songCopyrightUrl="" songArtistUrl="" songAudioFileUrl="" stabilizationMode="0" mediaItemType="2" />
    <MediaItem id="154" filePath="C:\Users\owner\Dropbox\Work\png\animation T=1.00154.png" arWidth="640" arHeight="480" duration="0" songTitle="" songArtist="" songAlbum="" songCopyrightUrl="" songArtistUrl="" songAudioFileUrl="" stabilizationMode="0" mediaItemType="2" />
    <MediaItem id="5322" filePath="C:\Users\owner\Dropbox\Work\png\animation T=1.05322.png" arWidth="640" arHeight="480" duration="0" songTitle="" songArtist="" songAlbum="" songCopyrightUrl="" songArtistUrl="" songAudioFileUrl="" stabilizationMode="0" mediaItemType="2" />
    <MediaItem id="155" filePath="C:\Users\owner\Dropbox\Work\png\animation T=1.00155.png" arWidth="640" arHeight="480" duration="0" songTitle="" songArtist="" songAlbum="" songCopyrightUrl="" songArtistUrl="" songAudioFileUrl="" stabilizationMode="0" mediaItemType="2" />
    <MediaItem id="5323" filePath="C:\Users\owner\Dropbox\Work\png\animation T=1.05323.png" arWidth="640" arHeight="480" duration="0" songTitle="" songArtist="" songAlbum="" songCopyrightUrl="" songArtistUrl="" songAudioFileUrl="" stabilizationMode="0" mediaItemType="2" />
    <MediaItem id="156" filePath="C:\Users\owner\Dropbox\Work\png\animation T=1.00156.png" arWidth="640" arHeight="480" duration="0" songTitle="" songArtist="" songAlbum="" songCopyrightUrl="" songArtistUrl="" songAudioFileUrl="" stabilizationMode="0" mediaItemType="2" />
    <MediaItem id="5324" filePath="C:\Users\owner\Dropbox\Work\png\animation T=1.05324.png" arWidth="640" arHeight="480" duration="0" songTitle="" songArtist="" songAlbum="" songCopyrightUrl="" songArtistUrl="" songAudioFileUrl="" stabilizationMode="0" mediaItemType="2" />
    <MediaItem id="157" filePath="C:\Users\owner\Dropbox\Work\png\animation T=1.00157.png" arWidth="640" arHeight="480" duration="0" songTitle="" songArtist="" songAlbum="" songCopyrightUrl="" songArtistUrl="" songAudioFileUrl="" stabilizationMode="0" mediaItemType="2" />
    <MediaItem id="5325" filePath="C:\Users\owner\Dropbox\Work\png\animation T=1.05325.png" arWidth="640" arHeight="480" duration="0" songTitle="" songArtist="" songAlbum="" songCopyrightUrl="" songArtistUrl="" songAudioFileUrl="" stabilizationMode="0" mediaItemType="2" />
    <MediaItem id="158" filePath="C:\Users\owner\Dropbox\Work\png\animation T=1.00158.png" arWidth="640" arHeight="480" duration="0" songTitle="" songArtist="" songAlbum="" songCopyrightUrl="" songArtistUrl="" songAudioFileUrl="" stabilizationMode="0" mediaItemType="2" />
    <MediaItem id="5326" filePath="C:\Users\owner\Dropbox\Work\png\animation T=1.05326.png" arWidth="640" arHeight="480" duration="0" songTitle="" songArtist="" songAlbum="" songCopyrightUrl="" songArtistUrl="" songAudioFileUrl="" stabilizationMode="0" mediaItemType="2" />
    <MediaItem id="159" filePath="C:\Users\owner\Dropbox\Work\png\animation T=1.00159.png" arWidth="640" arHeight="480" duration="0" songTitle="" songArtist="" songAlbum="" songCopyrightUrl="" songArtistUrl="" songAudioFileUrl="" stabilizationMode="0" mediaItemType="2" />
    <MediaItem id="5327" filePath="C:\Users\owner\Dropbox\Work\png\animation T=1.05327.png" arWidth="640" arHeight="480" duration="0" songTitle="" songArtist="" songAlbum="" songCopyrightUrl="" songArtistUrl="" songAudioFileUrl="" stabilizationMode="0" mediaItemType="2" />
    <MediaItem id="160" filePath="C:\Users\owner\Dropbox\Work\png\animation T=1.00160.png" arWidth="640" arHeight="480" duration="0" songTitle="" songArtist="" songAlbum="" songCopyrightUrl="" songArtistUrl="" songAudioFileUrl="" stabilizationMode="0" mediaItemType="2" />
    <MediaItem id="5328" filePath="C:\Users\owner\Dropbox\Work\png\animation T=1.05328.png" arWidth="640" arHeight="480" duration="0" songTitle="" songArtist="" songAlbum="" songCopyrightUrl="" songArtistUrl="" songAudioFileUrl="" stabilizationMode="0" mediaItemType="2" />
    <MediaItem id="161" filePath="C:\Users\owner\Dropbox\Work\png\animation T=1.00161.png" arWidth="640" arHeight="480" duration="0" songTitle="" songArtist="" songAlbum="" songCopyrightUrl="" songArtistUrl="" songAudioFileUrl="" stabilizationMode="0" mediaItemType="2" />
    <MediaItem id="5329" filePath="C:\Users\owner\Dropbox\Work\png\animation T=1.05329.png" arWidth="640" arHeight="480" duration="0" songTitle="" songArtist="" songAlbum="" songCopyrightUrl="" songArtistUrl="" songAudioFileUrl="" stabilizationMode="0" mediaItemType="2" />
    <MediaItem id="162" filePath="C:\Users\owner\Dropbox\Work\png\animation T=1.00162.png" arWidth="640" arHeight="480" duration="0" songTitle="" songArtist="" songAlbum="" songCopyrightUrl="" songArtistUrl="" songAudioFileUrl="" stabilizationMode="0" mediaItemType="2" />
    <MediaItem id="5330" filePath="C:\Users\owner\Dropbox\Work\png\animation T=1.05330.png" arWidth="640" arHeight="480" duration="0" songTitle="" songArtist="" songAlbum="" songCopyrightUrl="" songArtistUrl="" songAudioFileUrl="" stabilizationMode="0" mediaItemType="2" />
    <MediaItem id="163" filePath="C:\Users\owner\Dropbox\Work\png\animation T=1.00163.png" arWidth="640" arHeight="480" duration="0" songTitle="" songArtist="" songAlbum="" songCopyrightUrl="" songArtistUrl="" songAudioFileUrl="" stabilizationMode="0" mediaItemType="2" />
    <MediaItem id="5331" filePath="C:\Users\owner\Dropbox\Work\png\animation T=1.05331.png" arWidth="640" arHeight="480" duration="0" songTitle="" songArtist="" songAlbum="" songCopyrightUrl="" songArtistUrl="" songAudioFileUrl="" stabilizationMode="0" mediaItemType="2" />
    <MediaItem id="164" filePath="C:\Users\owner\Dropbox\Work\png\animation T=1.00164.png" arWidth="640" arHeight="480" duration="0" songTitle="" songArtist="" songAlbum="" songCopyrightUrl="" songArtistUrl="" songAudioFileUrl="" stabilizationMode="0" mediaItemType="2" />
    <MediaItem id="5332" filePath="C:\Users\owner\Dropbox\Work\png\animation T=1.05332.png" arWidth="640" arHeight="480" duration="0" songTitle="" songArtist="" songAlbum="" songCopyrightUrl="" songArtistUrl="" songAudioFileUrl="" stabilizationMode="0" mediaItemType="2" />
    <MediaItem id="165" filePath="C:\Users\owner\Dropbox\Work\png\animation T=1.00165.png" arWidth="640" arHeight="480" duration="0" songTitle="" songArtist="" songAlbum="" songCopyrightUrl="" songArtistUrl="" songAudioFileUrl="" stabilizationMode="0" mediaItemType="2" />
    <MediaItem id="5333" filePath="C:\Users\owner\Dropbox\Work\png\animation T=1.05333.png" arWidth="640" arHeight="480" duration="0" songTitle="" songArtist="" songAlbum="" songCopyrightUrl="" songArtistUrl="" songAudioFileUrl="" stabilizationMode="0" mediaItemType="2" />
    <MediaItem id="166" filePath="C:\Users\owner\Dropbox\Work\png\animation T=1.00166.png" arWidth="640" arHeight="480" duration="0" songTitle="" songArtist="" songAlbum="" songCopyrightUrl="" songArtistUrl="" songAudioFileUrl="" stabilizationMode="0" mediaItemType="2" />
    <MediaItem id="5334" filePath="C:\Users\owner\Dropbox\Work\png\animation T=1.05334.png" arWidth="640" arHeight="480" duration="0" songTitle="" songArtist="" songAlbum="" songCopyrightUrl="" songArtistUrl="" songAudioFileUrl="" stabilizationMode="0" mediaItemType="2" />
    <MediaItem id="167" filePath="C:\Users\owner\Dropbox\Work\png\animation T=1.00167.png" arWidth="640" arHeight="480" duration="0" songTitle="" songArtist="" songAlbum="" songCopyrightUrl="" songArtistUrl="" songAudioFileUrl="" stabilizationMode="0" mediaItemType="2" />
    <MediaItem id="5335" filePath="C:\Users\owner\Dropbox\Work\png\animation T=1.05335.png" arWidth="640" arHeight="480" duration="0" songTitle="" songArtist="" songAlbum="" songCopyrightUrl="" songArtistUrl="" songAudioFileUrl="" stabilizationMode="0" mediaItemType="2" />
    <MediaItem id="168" filePath="C:\Users\owner\Dropbox\Work\png\animation T=1.00168.png" arWidth="640" arHeight="480" duration="0" songTitle="" songArtist="" songAlbum="" songCopyrightUrl="" songArtistUrl="" songAudioFileUrl="" stabilizationMode="0" mediaItemType="2" />
    <MediaItem id="5336" filePath="C:\Users\owner\Dropbox\Work\png\animation T=1.05336.png" arWidth="640" arHeight="480" duration="0" songTitle="" songArtist="" songAlbum="" songCopyrightUrl="" songArtistUrl="" songAudioFileUrl="" stabilizationMode="0" mediaItemType="2" />
    <MediaItem id="169" filePath="C:\Users\owner\Dropbox\Work\png\animation T=1.00169.png" arWidth="640" arHeight="480" duration="0" songTitle="" songArtist="" songAlbum="" songCopyrightUrl="" songArtistUrl="" songAudioFileUrl="" stabilizationMode="0" mediaItemType="2" />
    <MediaItem id="5337" filePath="C:\Users\owner\Dropbox\Work\png\animation T=1.05337.png" arWidth="640" arHeight="480" duration="0" songTitle="" songArtist="" songAlbum="" songCopyrightUrl="" songArtistUrl="" songAudioFileUrl="" stabilizationMode="0" mediaItemType="2" />
    <MediaItem id="170" filePath="C:\Users\owner\Dropbox\Work\png\animation T=1.00170.png" arWidth="640" arHeight="480" duration="0" songTitle="" songArtist="" songAlbum="" songCopyrightUrl="" songArtistUrl="" songAudioFileUrl="" stabilizationMode="0" mediaItemType="2" />
    <MediaItem id="5338" filePath="C:\Users\owner\Dropbox\Work\png\animation T=1.05338.png" arWidth="640" arHeight="480" duration="0" songTitle="" songArtist="" songAlbum="" songCopyrightUrl="" songArtistUrl="" songAudioFileUrl="" stabilizationMode="0" mediaItemType="2" />
    <MediaItem id="171" filePath="C:\Users\owner\Dropbox\Work\png\animation T=1.00171.png" arWidth="640" arHeight="480" duration="0" songTitle="" songArtist="" songAlbum="" songCopyrightUrl="" songArtistUrl="" songAudioFileUrl="" stabilizationMode="0" mediaItemType="2" />
    <MediaItem id="5339" filePath="C:\Users\owner\Dropbox\Work\png\animation T=1.05339.png" arWidth="640" arHeight="480" duration="0" songTitle="" songArtist="" songAlbum="" songCopyrightUrl="" songArtistUrl="" songAudioFileUrl="" stabilizationMode="0" mediaItemType="2" />
    <MediaItem id="172" filePath="C:\Users\owner\Dropbox\Work\png\animation T=1.00172.png" arWidth="640" arHeight="480" duration="0" songTitle="" songArtist="" songAlbum="" songCopyrightUrl="" songArtistUrl="" songAudioFileUrl="" stabilizationMode="0" mediaItemType="2" />
    <MediaItem id="5340" filePath="C:\Users\owner\Dropbox\Work\png\animation T=1.05340.png" arWidth="640" arHeight="480" duration="0" songTitle="" songArtist="" songAlbum="" songCopyrightUrl="" songArtistUrl="" songAudioFileUrl="" stabilizationMode="0" mediaItemType="2" />
    <MediaItem id="173" filePath="C:\Users\owner\Dropbox\Work\png\animation T=1.00173.png" arWidth="640" arHeight="480" duration="0" songTitle="" songArtist="" songAlbum="" songCopyrightUrl="" songArtistUrl="" songAudioFileUrl="" stabilizationMode="0" mediaItemType="2" />
    <MediaItem id="5341" filePath="C:\Users\owner\Dropbox\Work\png\animation T=1.05341.png" arWidth="640" arHeight="480" duration="0" songTitle="" songArtist="" songAlbum="" songCopyrightUrl="" songArtistUrl="" songAudioFileUrl="" stabilizationMode="0" mediaItemType="2" />
    <MediaItem id="174" filePath="C:\Users\owner\Dropbox\Work\png\animation T=1.00174.png" arWidth="640" arHeight="480" duration="0" songTitle="" songArtist="" songAlbum="" songCopyrightUrl="" songArtistUrl="" songAudioFileUrl="" stabilizationMode="0" mediaItemType="2" />
    <MediaItem id="5342" filePath="C:\Users\owner\Dropbox\Work\png\animation T=1.05342.png" arWidth="640" arHeight="480" duration="0" songTitle="" songArtist="" songAlbum="" songCopyrightUrl="" songArtistUrl="" songAudioFileUrl="" stabilizationMode="0" mediaItemType="2" />
    <MediaItem id="175" filePath="C:\Users\owner\Dropbox\Work\png\animation T=1.00175.png" arWidth="640" arHeight="480" duration="0" songTitle="" songArtist="" songAlbum="" songCopyrightUrl="" songArtistUrl="" songAudioFileUrl="" stabilizationMode="0" mediaItemType="2" />
    <MediaItem id="5343" filePath="C:\Users\owner\Dropbox\Work\png\animation T=1.05343.png" arWidth="640" arHeight="480" duration="0" songTitle="" songArtist="" songAlbum="" songCopyrightUrl="" songArtistUrl="" songAudioFileUrl="" stabilizationMode="0" mediaItemType="2" />
    <MediaItem id="176" filePath="C:\Users\owner\Dropbox\Work\png\animation T=1.00176.png" arWidth="640" arHeight="480" duration="0" songTitle="" songArtist="" songAlbum="" songCopyrightUrl="" songArtistUrl="" songAudioFileUrl="" stabilizationMode="0" mediaItemType="2" />
    <MediaItem id="5344" filePath="C:\Users\owner\Dropbox\Work\png\animation T=1.05344.png" arWidth="640" arHeight="480" duration="0" songTitle="" songArtist="" songAlbum="" songCopyrightUrl="" songArtistUrl="" songAudioFileUrl="" stabilizationMode="0" mediaItemType="2" />
    <MediaItem id="177" filePath="C:\Users\owner\Dropbox\Work\png\animation T=1.00177.png" arWidth="640" arHeight="480" duration="0" songTitle="" songArtist="" songAlbum="" songCopyrightUrl="" songArtistUrl="" songAudioFileUrl="" stabilizationMode="0" mediaItemType="2" />
    <MediaItem id="5345" filePath="C:\Users\owner\Dropbox\Work\png\animation T=1.05345.png" arWidth="640" arHeight="480" duration="0" songTitle="" songArtist="" songAlbum="" songCopyrightUrl="" songArtistUrl="" songAudioFileUrl="" stabilizationMode="0" mediaItemType="2" />
    <MediaItem id="178" filePath="C:\Users\owner\Dropbox\Work\png\animation T=1.00178.png" arWidth="640" arHeight="480" duration="0" songTitle="" songArtist="" songAlbum="" songCopyrightUrl="" songArtistUrl="" songAudioFileUrl="" stabilizationMode="0" mediaItemType="2" />
    <MediaItem id="5346" filePath="C:\Users\owner\Dropbox\Work\png\animation T=1.05346.png" arWidth="640" arHeight="480" duration="0" songTitle="" songArtist="" songAlbum="" songCopyrightUrl="" songArtistUrl="" songAudioFileUrl="" stabilizationMode="0" mediaItemType="2" />
    <MediaItem id="179" filePath="C:\Users\owner\Dropbox\Work\png\animation T=1.00179.png" arWidth="640" arHeight="480" duration="0" songTitle="" songArtist="" songAlbum="" songCopyrightUrl="" songArtistUrl="" songAudioFileUrl="" stabilizationMode="0" mediaItemType="2" />
    <MediaItem id="5347" filePath="C:\Users\owner\Dropbox\Work\png\animation T=1.05347.png" arWidth="640" arHeight="480" duration="0" songTitle="" songArtist="" songAlbum="" songCopyrightUrl="" songArtistUrl="" songAudioFileUrl="" stabilizationMode="0" mediaItemType="2" />
    <MediaItem id="180" filePath="C:\Users\owner\Dropbox\Work\png\animation T=1.00180.png" arWidth="640" arHeight="480" duration="0" songTitle="" songArtist="" songAlbum="" songCopyrightUrl="" songArtistUrl="" songAudioFileUrl="" stabilizationMode="0" mediaItemType="2" />
    <MediaItem id="5348" filePath="C:\Users\owner\Dropbox\Work\png\animation T=1.05348.png" arWidth="640" arHeight="480" duration="0" songTitle="" songArtist="" songAlbum="" songCopyrightUrl="" songArtistUrl="" songAudioFileUrl="" stabilizationMode="0" mediaItemType="2" />
    <MediaItem id="181" filePath="C:\Users\owner\Dropbox\Work\png\animation T=1.00181.png" arWidth="640" arHeight="480" duration="0" songTitle="" songArtist="" songAlbum="" songCopyrightUrl="" songArtistUrl="" songAudioFileUrl="" stabilizationMode="0" mediaItemType="2" />
    <MediaItem id="5349" filePath="C:\Users\owner\Dropbox\Work\png\animation T=1.05349.png" arWidth="640" arHeight="480" duration="0" songTitle="" songArtist="" songAlbum="" songCopyrightUrl="" songArtistUrl="" songAudioFileUrl="" stabilizationMode="0" mediaItemType="2" />
    <MediaItem id="182" filePath="C:\Users\owner\Dropbox\Work\png\animation T=1.00182.png" arWidth="640" arHeight="480" duration="0" songTitle="" songArtist="" songAlbum="" songCopyrightUrl="" songArtistUrl="" songAudioFileUrl="" stabilizationMode="0" mediaItemType="2" />
    <MediaItem id="5350" filePath="C:\Users\owner\Dropbox\Work\png\animation T=1.05350.png" arWidth="640" arHeight="480" duration="0" songTitle="" songArtist="" songAlbum="" songCopyrightUrl="" songArtistUrl="" songAudioFileUrl="" stabilizationMode="0" mediaItemType="2" />
    <MediaItem id="183" filePath="C:\Users\owner\Dropbox\Work\png\animation T=1.00183.png" arWidth="640" arHeight="480" duration="0" songTitle="" songArtist="" songAlbum="" songCopyrightUrl="" songArtistUrl="" songAudioFileUrl="" stabilizationMode="0" mediaItemType="2" />
    <MediaItem id="5351" filePath="C:\Users\owner\Dropbox\Work\png\animation T=1.05351.png" arWidth="640" arHeight="480" duration="0" songTitle="" songArtist="" songAlbum="" songCopyrightUrl="" songArtistUrl="" songAudioFileUrl="" stabilizationMode="0" mediaItemType="2" />
    <MediaItem id="184" filePath="C:\Users\owner\Dropbox\Work\png\animation T=1.00184.png" arWidth="640" arHeight="480" duration="0" songTitle="" songArtist="" songAlbum="" songCopyrightUrl="" songArtistUrl="" songAudioFileUrl="" stabilizationMode="0" mediaItemType="2" />
    <MediaItem id="5352" filePath="C:\Users\owner\Dropbox\Work\png\animation T=1.05352.png" arWidth="640" arHeight="480" duration="0" songTitle="" songArtist="" songAlbum="" songCopyrightUrl="" songArtistUrl="" songAudioFileUrl="" stabilizationMode="0" mediaItemType="2" />
    <MediaItem id="185" filePath="C:\Users\owner\Dropbox\Work\png\animation T=1.00185.png" arWidth="640" arHeight="480" duration="0" songTitle="" songArtist="" songAlbum="" songCopyrightUrl="" songArtistUrl="" songAudioFileUrl="" stabilizationMode="0" mediaItemType="2" />
    <MediaItem id="5353" filePath="C:\Users\owner\Dropbox\Work\png\animation T=1.05353.png" arWidth="640" arHeight="480" duration="0" songTitle="" songArtist="" songAlbum="" songCopyrightUrl="" songArtistUrl="" songAudioFileUrl="" stabilizationMode="0" mediaItemType="2" />
    <MediaItem id="186" filePath="C:\Users\owner\Dropbox\Work\png\animation T=1.00186.png" arWidth="640" arHeight="480" duration="0" songTitle="" songArtist="" songAlbum="" songCopyrightUrl="" songArtistUrl="" songAudioFileUrl="" stabilizationMode="0" mediaItemType="2" />
    <MediaItem id="5354" filePath="C:\Users\owner\Dropbox\Work\png\animation T=1.05354.png" arWidth="640" arHeight="480" duration="0" songTitle="" songArtist="" songAlbum="" songCopyrightUrl="" songArtistUrl="" songAudioFileUrl="" stabilizationMode="0" mediaItemType="2" />
    <MediaItem id="187" filePath="C:\Users\owner\Dropbox\Work\png\animation T=1.00187.png" arWidth="640" arHeight="480" duration="0" songTitle="" songArtist="" songAlbum="" songCopyrightUrl="" songArtistUrl="" songAudioFileUrl="" stabilizationMode="0" mediaItemType="2" />
    <MediaItem id="5355" filePath="C:\Users\owner\Dropbox\Work\png\animation T=1.05355.png" arWidth="640" arHeight="480" duration="0" songTitle="" songArtist="" songAlbum="" songCopyrightUrl="" songArtistUrl="" songAudioFileUrl="" stabilizationMode="0" mediaItemType="2" />
    <MediaItem id="188" filePath="C:\Users\owner\Dropbox\Work\png\animation T=1.00188.png" arWidth="640" arHeight="480" duration="0" songTitle="" songArtist="" songAlbum="" songCopyrightUrl="" songArtistUrl="" songAudioFileUrl="" stabilizationMode="0" mediaItemType="2" />
    <MediaItem id="5356" filePath="C:\Users\owner\Dropbox\Work\png\animation T=1.05356.png" arWidth="640" arHeight="480" duration="0" songTitle="" songArtist="" songAlbum="" songCopyrightUrl="" songArtistUrl="" songAudioFileUrl="" stabilizationMode="0" mediaItemType="2" />
    <MediaItem id="189" filePath="C:\Users\owner\Dropbox\Work\png\animation T=1.00189.png" arWidth="640" arHeight="480" duration="0" songTitle="" songArtist="" songAlbum="" songCopyrightUrl="" songArtistUrl="" songAudioFileUrl="" stabilizationMode="0" mediaItemType="2" />
    <MediaItem id="5357" filePath="C:\Users\owner\Dropbox\Work\png\animation T=1.05357.png" arWidth="640" arHeight="480" duration="0" songTitle="" songArtist="" songAlbum="" songCopyrightUrl="" songArtistUrl="" songAudioFileUrl="" stabilizationMode="0" mediaItemType="2" />
    <MediaItem id="190" filePath="C:\Users\owner\Dropbox\Work\png\animation T=1.00190.png" arWidth="640" arHeight="480" duration="0" songTitle="" songArtist="" songAlbum="" songCopyrightUrl="" songArtistUrl="" songAudioFileUrl="" stabilizationMode="0" mediaItemType="2" />
    <MediaItem id="5358" filePath="C:\Users\owner\Dropbox\Work\png\animation T=1.05358.png" arWidth="640" arHeight="480" duration="0" songTitle="" songArtist="" songAlbum="" songCopyrightUrl="" songArtistUrl="" songAudioFileUrl="" stabilizationMode="0" mediaItemType="2" />
    <MediaItem id="191" filePath="C:\Users\owner\Dropbox\Work\png\animation T=1.00191.png" arWidth="640" arHeight="480" duration="0" songTitle="" songArtist="" songAlbum="" songCopyrightUrl="" songArtistUrl="" songAudioFileUrl="" stabilizationMode="0" mediaItemType="2" />
    <MediaItem id="5359" filePath="C:\Users\owner\Dropbox\Work\png\animation T=1.05359.png" arWidth="640" arHeight="480" duration="0" songTitle="" songArtist="" songAlbum="" songCopyrightUrl="" songArtistUrl="" songAudioFileUrl="" stabilizationMode="0" mediaItemType="2" />
    <MediaItem id="192" filePath="C:\Users\owner\Dropbox\Work\png\animation T=1.00192.png" arWidth="640" arHeight="480" duration="0" songTitle="" songArtist="" songAlbum="" songCopyrightUrl="" songArtistUrl="" songAudioFileUrl="" stabilizationMode="0" mediaItemType="2" />
    <MediaItem id="5360" filePath="C:\Users\owner\Dropbox\Work\png\animation T=1.05360.png" arWidth="640" arHeight="480" duration="0" songTitle="" songArtist="" songAlbum="" songCopyrightUrl="" songArtistUrl="" songAudioFileUrl="" stabilizationMode="0" mediaItemType="2" />
    <MediaItem id="193" filePath="C:\Users\owner\Dropbox\Work\png\animation T=1.00193.png" arWidth="640" arHeight="480" duration="0" songTitle="" songArtist="" songAlbum="" songCopyrightUrl="" songArtistUrl="" songAudioFileUrl="" stabilizationMode="0" mediaItemType="2" />
    <MediaItem id="5361" filePath="C:\Users\owner\Dropbox\Work\png\animation T=1.05361.png" arWidth="640" arHeight="480" duration="0" songTitle="" songArtist="" songAlbum="" songCopyrightUrl="" songArtistUrl="" songAudioFileUrl="" stabilizationMode="0" mediaItemType="2" />
    <MediaItem id="194" filePath="C:\Users\owner\Dropbox\Work\png\animation T=1.00194.png" arWidth="640" arHeight="480" duration="0" songTitle="" songArtist="" songAlbum="" songCopyrightUrl="" songArtistUrl="" songAudioFileUrl="" stabilizationMode="0" mediaItemType="2" />
    <MediaItem id="5362" filePath="C:\Users\owner\Dropbox\Work\png\animation T=1.05362.png" arWidth="640" arHeight="480" duration="0" songTitle="" songArtist="" songAlbum="" songCopyrightUrl="" songArtistUrl="" songAudioFileUrl="" stabilizationMode="0" mediaItemType="2" />
    <MediaItem id="195" filePath="C:\Users\owner\Dropbox\Work\png\animation T=1.00195.png" arWidth="640" arHeight="480" duration="0" songTitle="" songArtist="" songAlbum="" songCopyrightUrl="" songArtistUrl="" songAudioFileUrl="" stabilizationMode="0" mediaItemType="2" />
    <MediaItem id="5363" filePath="C:\Users\owner\Dropbox\Work\png\animation T=1.05363.png" arWidth="640" arHeight="480" duration="0" songTitle="" songArtist="" songAlbum="" songCopyrightUrl="" songArtistUrl="" songAudioFileUrl="" stabilizationMode="0" mediaItemType="2" />
    <MediaItem id="196" filePath="C:\Users\owner\Dropbox\Work\png\animation T=1.00196.png" arWidth="640" arHeight="480" duration="0" songTitle="" songArtist="" songAlbum="" songCopyrightUrl="" songArtistUrl="" songAudioFileUrl="" stabilizationMode="0" mediaItemType="2" />
    <MediaItem id="5364" filePath="C:\Users\owner\Dropbox\Work\png\animation T=1.05364.png" arWidth="640" arHeight="480" duration="0" songTitle="" songArtist="" songAlbum="" songCopyrightUrl="" songArtistUrl="" songAudioFileUrl="" stabilizationMode="0" mediaItemType="2" />
    <MediaItem id="197" filePath="C:\Users\owner\Dropbox\Work\png\animation T=1.00197.png" arWidth="640" arHeight="480" duration="0" songTitle="" songArtist="" songAlbum="" songCopyrightUrl="" songArtistUrl="" songAudioFileUrl="" stabilizationMode="0" mediaItemType="2" />
    <MediaItem id="5365" filePath="C:\Users\owner\Dropbox\Work\png\animation T=1.05365.png" arWidth="640" arHeight="480" duration="0" songTitle="" songArtist="" songAlbum="" songCopyrightUrl="" songArtistUrl="" songAudioFileUrl="" stabilizationMode="0" mediaItemType="2" />
    <MediaItem id="198" filePath="C:\Users\owner\Dropbox\Work\png\animation T=1.00198.png" arWidth="640" arHeight="480" duration="0" songTitle="" songArtist="" songAlbum="" songCopyrightUrl="" songArtistUrl="" songAudioFileUrl="" stabilizationMode="0" mediaItemType="2" />
    <MediaItem id="5366" filePath="C:\Users\owner\Dropbox\Work\png\animation T=1.05366.png" arWidth="640" arHeight="480" duration="0" songTitle="" songArtist="" songAlbum="" songCopyrightUrl="" songArtistUrl="" songAudioFileUrl="" stabilizationMode="0" mediaItemType="2" />
    <MediaItem id="199" filePath="C:\Users\owner\Dropbox\Work\png\animation T=1.00199.png" arWidth="640" arHeight="480" duration="0" songTitle="" songArtist="" songAlbum="" songCopyrightUrl="" songArtistUrl="" songAudioFileUrl="" stabilizationMode="0" mediaItemType="2" />
    <MediaItem id="5367" filePath="C:\Users\owner\Dropbox\Work\png\animation T=1.05367.png" arWidth="640" arHeight="480" duration="0" songTitle="" songArtist="" songAlbum="" songCopyrightUrl="" songArtistUrl="" songAudioFileUrl="" stabilizationMode="0" mediaItemType="2" />
    <MediaItem id="200" filePath="C:\Users\owner\Dropbox\Work\png\animation T=1.00200.png" arWidth="640" arHeight="480" duration="0" songTitle="" songArtist="" songAlbum="" songCopyrightUrl="" songArtistUrl="" songAudioFileUrl="" stabilizationMode="0" mediaItemType="2" />
    <MediaItem id="5368" filePath="C:\Users\owner\Dropbox\Work\png\animation T=1.05368.png" arWidth="640" arHeight="480" duration="0" songTitle="" songArtist="" songAlbum="" songCopyrightUrl="" songArtistUrl="" songAudioFileUrl="" stabilizationMode="0" mediaItemType="2" />
    <MediaItem id="201" filePath="C:\Users\owner\Dropbox\Work\png\animation T=1.00201.png" arWidth="640" arHeight="480" duration="0" songTitle="" songArtist="" songAlbum="" songCopyrightUrl="" songArtistUrl="" songAudioFileUrl="" stabilizationMode="0" mediaItemType="2" />
    <MediaItem id="5369" filePath="C:\Users\owner\Dropbox\Work\png\animation T=1.05369.png" arWidth="640" arHeight="480" duration="0" songTitle="" songArtist="" songAlbum="" songCopyrightUrl="" songArtistUrl="" songAudioFileUrl="" stabilizationMode="0" mediaItemType="2" />
    <MediaItem id="202" filePath="C:\Users\owner\Dropbox\Work\png\animation T=1.00202.png" arWidth="640" arHeight="480" duration="0" songTitle="" songArtist="" songAlbum="" songCopyrightUrl="" songArtistUrl="" songAudioFileUrl="" stabilizationMode="0" mediaItemType="2" />
    <MediaItem id="5370" filePath="C:\Users\owner\Dropbox\Work\png\animation T=1.05370.png" arWidth="640" arHeight="480" duration="0" songTitle="" songArtist="" songAlbum="" songCopyrightUrl="" songArtistUrl="" songAudioFileUrl="" stabilizationMode="0" mediaItemType="2" />
    <MediaItem id="203" filePath="C:\Users\owner\Dropbox\Work\png\animation T=1.00203.png" arWidth="640" arHeight="480" duration="0" songTitle="" songArtist="" songAlbum="" songCopyrightUrl="" songArtistUrl="" songAudioFileUrl="" stabilizationMode="0" mediaItemType="2" />
    <MediaItem id="5371" filePath="C:\Users\owner\Dropbox\Work\png\animation T=1.05371.png" arWidth="640" arHeight="480" duration="0" songTitle="" songArtist="" songAlbum="" songCopyrightUrl="" songArtistUrl="" songAudioFileUrl="" stabilizationMode="0" mediaItemType="2" />
    <MediaItem id="204" filePath="C:\Users\owner\Dropbox\Work\png\animation T=1.00204.png" arWidth="640" arHeight="480" duration="0" songTitle="" songArtist="" songAlbum="" songCopyrightUrl="" songArtistUrl="" songAudioFileUrl="" stabilizationMode="0" mediaItemType="2" />
    <MediaItem id="5372" filePath="C:\Users\owner\Dropbox\Work\png\animation T=1.05372.png" arWidth="640" arHeight="480" duration="0" songTitle="" songArtist="" songAlbum="" songCopyrightUrl="" songArtistUrl="" songAudioFileUrl="" stabilizationMode="0" mediaItemType="2" />
    <MediaItem id="205" filePath="C:\Users\owner\Dropbox\Work\png\animation T=1.00205.png" arWidth="640" arHeight="480" duration="0" songTitle="" songArtist="" songAlbum="" songCopyrightUrl="" songArtistUrl="" songAudioFileUrl="" stabilizationMode="0" mediaItemType="2" />
    <MediaItem id="5373" filePath="C:\Users\owner\Dropbox\Work\png\animation T=1.05373.png" arWidth="640" arHeight="480" duration="0" songTitle="" songArtist="" songAlbum="" songCopyrightUrl="" songArtistUrl="" songAudioFileUrl="" stabilizationMode="0" mediaItemType="2" />
    <MediaItem id="206" filePath="C:\Users\owner\Dropbox\Work\png\animation T=1.00206.png" arWidth="640" arHeight="480" duration="0" songTitle="" songArtist="" songAlbum="" songCopyrightUrl="" songArtistUrl="" songAudioFileUrl="" stabilizationMode="0" mediaItemType="2" />
    <MediaItem id="5374" filePath="C:\Users\owner\Dropbox\Work\png\animation T=1.05374.png" arWidth="640" arHeight="480" duration="0" songTitle="" songArtist="" songAlbum="" songCopyrightUrl="" songArtistUrl="" songAudioFileUrl="" stabilizationMode="0" mediaItemType="2" />
    <MediaItem id="207" filePath="C:\Users\owner\Dropbox\Work\png\animation T=1.00207.png" arWidth="640" arHeight="480" duration="0" songTitle="" songArtist="" songAlbum="" songCopyrightUrl="" songArtistUrl="" songAudioFileUrl="" stabilizationMode="0" mediaItemType="2" />
    <MediaItem id="5375" filePath="C:\Users\owner\Dropbox\Work\png\animation T=1.05375.png" arWidth="640" arHeight="480" duration="0" songTitle="" songArtist="" songAlbum="" songCopyrightUrl="" songArtistUrl="" songAudioFileUrl="" stabilizationMode="0" mediaItemType="2" />
    <MediaItem id="208" filePath="C:\Users\owner\Dropbox\Work\png\animation T=1.00208.png" arWidth="640" arHeight="480" duration="0" songTitle="" songArtist="" songAlbum="" songCopyrightUrl="" songArtistUrl="" songAudioFileUrl="" stabilizationMode="0" mediaItemType="2" />
    <MediaItem id="5376" filePath="C:\Users\owner\Dropbox\Work\png\animation T=1.05376.png" arWidth="640" arHeight="480" duration="0" songTitle="" songArtist="" songAlbum="" songCopyrightUrl="" songArtistUrl="" songAudioFileUrl="" stabilizationMode="0" mediaItemType="2" />
    <MediaItem id="209" filePath="C:\Users\owner\Dropbox\Work\png\animation T=1.00209.png" arWidth="640" arHeight="480" duration="0" songTitle="" songArtist="" songAlbum="" songCopyrightUrl="" songArtistUrl="" songAudioFileUrl="" stabilizationMode="0" mediaItemType="2" />
    <MediaItem id="5377" filePath="C:\Users\owner\Dropbox\Work\png\animation T=1.05377.png" arWidth="640" arHeight="480" duration="0" songTitle="" songArtist="" songAlbum="" songCopyrightUrl="" songArtistUrl="" songAudioFileUrl="" stabilizationMode="0" mediaItemType="2" />
    <MediaItem id="210" filePath="C:\Users\owner\Dropbox\Work\png\animation T=1.00210.png" arWidth="640" arHeight="480" duration="0" songTitle="" songArtist="" songAlbum="" songCopyrightUrl="" songArtistUrl="" songAudioFileUrl="" stabilizationMode="0" mediaItemType="2" />
    <MediaItem id="5378" filePath="C:\Users\owner\Dropbox\Work\png\animation T=1.05378.png" arWidth="640" arHeight="480" duration="0" songTitle="" songArtist="" songAlbum="" songCopyrightUrl="" songArtistUrl="" songAudioFileUrl="" stabilizationMode="0" mediaItemType="2" />
    <MediaItem id="211" filePath="C:\Users\owner\Dropbox\Work\png\animation T=1.00211.png" arWidth="640" arHeight="480" duration="0" songTitle="" songArtist="" songAlbum="" songCopyrightUrl="" songArtistUrl="" songAudioFileUrl="" stabilizationMode="0" mediaItemType="2" />
    <MediaItem id="5379" filePath="C:\Users\owner\Dropbox\Work\png\animation T=1.05379.png" arWidth="640" arHeight="480" duration="0" songTitle="" songArtist="" songAlbum="" songCopyrightUrl="" songArtistUrl="" songAudioFileUrl="" stabilizationMode="0" mediaItemType="2" />
    <MediaItem id="212" filePath="C:\Users\owner\Dropbox\Work\png\animation T=1.00212.png" arWidth="640" arHeight="480" duration="0" songTitle="" songArtist="" songAlbum="" songCopyrightUrl="" songArtistUrl="" songAudioFileUrl="" stabilizationMode="0" mediaItemType="2" />
    <MediaItem id="5380" filePath="C:\Users\owner\Dropbox\Work\png\animation T=1.05380.png" arWidth="640" arHeight="480" duration="0" songTitle="" songArtist="" songAlbum="" songCopyrightUrl="" songArtistUrl="" songAudioFileUrl="" stabilizationMode="0" mediaItemType="2" />
    <MediaItem id="213" filePath="C:\Users\owner\Dropbox\Work\png\animation T=1.00213.png" arWidth="640" arHeight="480" duration="0" songTitle="" songArtist="" songAlbum="" songCopyrightUrl="" songArtistUrl="" songAudioFileUrl="" stabilizationMode="0" mediaItemType="2" />
    <MediaItem id="5381" filePath="C:\Users\owner\Dropbox\Work\png\animation T=1.05381.png" arWidth="640" arHeight="480" duration="0" songTitle="" songArtist="" songAlbum="" songCopyrightUrl="" songArtistUrl="" songAudioFileUrl="" stabilizationMode="0" mediaItemType="2" />
    <MediaItem id="214" filePath="C:\Users\owner\Dropbox\Work\png\animation T=1.00214.png" arWidth="640" arHeight="480" duration="0" songTitle="" songArtist="" songAlbum="" songCopyrightUrl="" songArtistUrl="" songAudioFileUrl="" stabilizationMode="0" mediaItemType="2" />
    <MediaItem id="5382" filePath="C:\Users\owner\Dropbox\Work\png\animation T=1.05382.png" arWidth="640" arHeight="480" duration="0" songTitle="" songArtist="" songAlbum="" songCopyrightUrl="" songArtistUrl="" songAudioFileUrl="" stabilizationMode="0" mediaItemType="2" />
    <MediaItem id="215" filePath="C:\Users\owner\Dropbox\Work\png\animation T=1.00215.png" arWidth="640" arHeight="480" duration="0" songTitle="" songArtist="" songAlbum="" songCopyrightUrl="" songArtistUrl="" songAudioFileUrl="" stabilizationMode="0" mediaItemType="2" />
    <MediaItem id="5383" filePath="C:\Users\owner\Dropbox\Work\png\animation T=1.05383.png" arWidth="640" arHeight="480" duration="0" songTitle="" songArtist="" songAlbum="" songCopyrightUrl="" songArtistUrl="" songAudioFileUrl="" stabilizationMode="0" mediaItemType="2" />
    <MediaItem id="216" filePath="C:\Users\owner\Dropbox\Work\png\animation T=1.00216.png" arWidth="640" arHeight="480" duration="0" songTitle="" songArtist="" songAlbum="" songCopyrightUrl="" songArtistUrl="" songAudioFileUrl="" stabilizationMode="0" mediaItemType="2" />
    <MediaItem id="5384" filePath="C:\Users\owner\Dropbox\Work\png\animation T=1.05384.png" arWidth="640" arHeight="480" duration="0" songTitle="" songArtist="" songAlbum="" songCopyrightUrl="" songArtistUrl="" songAudioFileUrl="" stabilizationMode="0" mediaItemType="2" />
    <MediaItem id="217" filePath="C:\Users\owner\Dropbox\Work\png\animation T=1.00217.png" arWidth="640" arHeight="480" duration="0" songTitle="" songArtist="" songAlbum="" songCopyrightUrl="" songArtistUrl="" songAudioFileUrl="" stabilizationMode="0" mediaItemType="2" />
    <MediaItem id="5385" filePath="C:\Users\owner\Dropbox\Work\png\animation T=1.05385.png" arWidth="640" arHeight="480" duration="0" songTitle="" songArtist="" songAlbum="" songCopyrightUrl="" songArtistUrl="" songAudioFileUrl="" stabilizationMode="0" mediaItemType="2" />
    <MediaItem id="218" filePath="C:\Users\owner\Dropbox\Work\png\animation T=1.00218.png" arWidth="640" arHeight="480" duration="0" songTitle="" songArtist="" songAlbum="" songCopyrightUrl="" songArtistUrl="" songAudioFileUrl="" stabilizationMode="0" mediaItemType="2" />
    <MediaItem id="5386" filePath="C:\Users\owner\Dropbox\Work\png\animation T=1.05386.png" arWidth="640" arHeight="480" duration="0" songTitle="" songArtist="" songAlbum="" songCopyrightUrl="" songArtistUrl="" songAudioFileUrl="" stabilizationMode="0" mediaItemType="2" />
    <MediaItem id="219" filePath="C:\Users\owner\Dropbox\Work\png\animation T=1.00219.png" arWidth="640" arHeight="480" duration="0" songTitle="" songArtist="" songAlbum="" songCopyrightUrl="" songArtistUrl="" songAudioFileUrl="" stabilizationMode="0" mediaItemType="2" />
    <MediaItem id="5387" filePath="C:\Users\owner\Dropbox\Work\png\animation T=1.05387.png" arWidth="640" arHeight="480" duration="0" songTitle="" songArtist="" songAlbum="" songCopyrightUrl="" songArtistUrl="" songAudioFileUrl="" stabilizationMode="0" mediaItemType="2" />
    <MediaItem id="220" filePath="C:\Users\owner\Dropbox\Work\png\animation T=1.00220.png" arWidth="640" arHeight="480" duration="0" songTitle="" songArtist="" songAlbum="" songCopyrightUrl="" songArtistUrl="" songAudioFileUrl="" stabilizationMode="0" mediaItemType="2" />
    <MediaItem id="5388" filePath="C:\Users\owner\Dropbox\Work\png\animation T=1.05388.png" arWidth="640" arHeight="480" duration="0" songTitle="" songArtist="" songAlbum="" songCopyrightUrl="" songArtistUrl="" songAudioFileUrl="" stabilizationMode="0" mediaItemType="2" />
    <MediaItem id="221" filePath="C:\Users\owner\Dropbox\Work\png\animation T=1.00221.png" arWidth="640" arHeight="480" duration="0" songTitle="" songArtist="" songAlbum="" songCopyrightUrl="" songArtistUrl="" songAudioFileUrl="" stabilizationMode="0" mediaItemType="2" />
    <MediaItem id="5389" filePath="C:\Users\owner\Dropbox\Work\png\animation T=1.05389.png" arWidth="640" arHeight="480" duration="0" songTitle="" songArtist="" songAlbum="" songCopyrightUrl="" songArtistUrl="" songAudioFileUrl="" stabilizationMode="0" mediaItemType="2" />
    <MediaItem id="222" filePath="C:\Users\owner\Dropbox\Work\png\animation T=1.00222.png" arWidth="640" arHeight="480" duration="0" songTitle="" songArtist="" songAlbum="" songCopyrightUrl="" songArtistUrl="" songAudioFileUrl="" stabilizationMode="0" mediaItemType="2" />
    <MediaItem id="5390" filePath="C:\Users\owner\Dropbox\Work\png\animation T=1.05390.png" arWidth="640" arHeight="480" duration="0" songTitle="" songArtist="" songAlbum="" songCopyrightUrl="" songArtistUrl="" songAudioFileUrl="" stabilizationMode="0" mediaItemType="2" />
    <MediaItem id="223" filePath="C:\Users\owner\Dropbox\Work\png\animation T=1.00223.png" arWidth="640" arHeight="480" duration="0" songTitle="" songArtist="" songAlbum="" songCopyrightUrl="" songArtistUrl="" songAudioFileUrl="" stabilizationMode="0" mediaItemType="2" />
    <MediaItem id="5391" filePath="C:\Users\owner\Dropbox\Work\png\animation T=1.05391.png" arWidth="640" arHeight="480" duration="0" songTitle="" songArtist="" songAlbum="" songCopyrightUrl="" songArtistUrl="" songAudioFileUrl="" stabilizationMode="0" mediaItemType="2" />
    <MediaItem id="224" filePath="C:\Users\owner\Dropbox\Work\png\animation T=1.00224.png" arWidth="640" arHeight="480" duration="0" songTitle="" songArtist="" songAlbum="" songCopyrightUrl="" songArtistUrl="" songAudioFileUrl="" stabilizationMode="0" mediaItemType="2" />
    <MediaItem id="5392" filePath="C:\Users\owner\Dropbox\Work\png\animation T=1.05392.png" arWidth="640" arHeight="480" duration="0" songTitle="" songArtist="" songAlbum="" songCopyrightUrl="" songArtistUrl="" songAudioFileUrl="" stabilizationMode="0" mediaItemType="2" />
    <MediaItem id="225" filePath="C:\Users\owner\Dropbox\Work\png\animation T=1.00225.png" arWidth="640" arHeight="480" duration="0" songTitle="" songArtist="" songAlbum="" songCopyrightUrl="" songArtistUrl="" songAudioFileUrl="" stabilizationMode="0" mediaItemType="2" />
    <MediaItem id="5393" filePath="C:\Users\owner\Dropbox\Work\png\animation T=1.05393.png" arWidth="640" arHeight="480" duration="0" songTitle="" songArtist="" songAlbum="" songCopyrightUrl="" songArtistUrl="" songAudioFileUrl="" stabilizationMode="0" mediaItemType="2" />
    <MediaItem id="226" filePath="C:\Users\owner\Dropbox\Work\png\animation T=1.00226.png" arWidth="640" arHeight="480" duration="0" songTitle="" songArtist="" songAlbum="" songCopyrightUrl="" songArtistUrl="" songAudioFileUrl="" stabilizationMode="0" mediaItemType="2" />
    <MediaItem id="5394" filePath="C:\Users\owner\Dropbox\Work\png\animation T=1.05394.png" arWidth="640" arHeight="480" duration="0" songTitle="" songArtist="" songAlbum="" songCopyrightUrl="" songArtistUrl="" songAudioFileUrl="" stabilizationMode="0" mediaItemType="2" />
    <MediaItem id="227" filePath="C:\Users\owner\Dropbox\Work\png\animation T=1.00227.png" arWidth="640" arHeight="480" duration="0" songTitle="" songArtist="" songAlbum="" songCopyrightUrl="" songArtistUrl="" songAudioFileUrl="" stabilizationMode="0" mediaItemType="2" />
    <MediaItem id="5395" filePath="C:\Users\owner\Dropbox\Work\png\animation T=1.05395.png" arWidth="640" arHeight="480" duration="0" songTitle="" songArtist="" songAlbum="" songCopyrightUrl="" songArtistUrl="" songAudioFileUrl="" stabilizationMode="0" mediaItemType="2" />
    <MediaItem id="228" filePath="C:\Users\owner\Dropbox\Work\png\animation T=1.00228.png" arWidth="640" arHeight="480" duration="0" songTitle="" songArtist="" songAlbum="" songCopyrightUrl="" songArtistUrl="" songAudioFileUrl="" stabilizationMode="0" mediaItemType="2" />
    <MediaItem id="5396" filePath="C:\Users\owner\Dropbox\Work\png\animation T=1.05396.png" arWidth="640" arHeight="480" duration="0" songTitle="" songArtist="" songAlbum="" songCopyrightUrl="" songArtistUrl="" songAudioFileUrl="" stabilizationMode="0" mediaItemType="2" />
    <MediaItem id="229" filePath="C:\Users\owner\Dropbox\Work\png\animation T=1.00229.png" arWidth="640" arHeight="480" duration="0" songTitle="" songArtist="" songAlbum="" songCopyrightUrl="" songArtistUrl="" songAudioFileUrl="" stabilizationMode="0" mediaItemType="2" />
    <MediaItem id="5397" filePath="C:\Users\owner\Dropbox\Work\png\animation T=1.05397.png" arWidth="640" arHeight="480" duration="0" songTitle="" songArtist="" songAlbum="" songCopyrightUrl="" songArtistUrl="" songAudioFileUrl="" stabilizationMode="0" mediaItemType="2" />
    <MediaItem id="230" filePath="C:\Users\owner\Dropbox\Work\png\animation T=1.00230.png" arWidth="640" arHeight="480" duration="0" songTitle="" songArtist="" songAlbum="" songCopyrightUrl="" songArtistUrl="" songAudioFileUrl="" stabilizationMode="0" mediaItemType="2" />
    <MediaItem id="5398" filePath="C:\Users\owner\Dropbox\Work\png\animation T=1.05398.png" arWidth="640" arHeight="480" duration="0" songTitle="" songArtist="" songAlbum="" songCopyrightUrl="" songArtistUrl="" songAudioFileUrl="" stabilizationMode="0" mediaItemType="2" />
    <MediaItem id="231" filePath="C:\Users\owner\Dropbox\Work\png\animation T=1.00231.png" arWidth="640" arHeight="480" duration="0" songTitle="" songArtist="" songAlbum="" songCopyrightUrl="" songArtistUrl="" songAudioFileUrl="" stabilizationMode="0" mediaItemType="2" />
    <MediaItem id="5399" filePath="C:\Users\owner\Dropbox\Work\png\animation T=1.05399.png" arWidth="640" arHeight="480" duration="0" songTitle="" songArtist="" songAlbum="" songCopyrightUrl="" songArtistUrl="" songAudioFileUrl="" stabilizationMode="0" mediaItemType="2" />
    <MediaItem id="232" filePath="C:\Users\owner\Dropbox\Work\png\animation T=1.00232.png" arWidth="640" arHeight="480" duration="0" songTitle="" songArtist="" songAlbum="" songCopyrightUrl="" songArtistUrl="" songAudioFileUrl="" stabilizationMode="0" mediaItemType="2" />
    <MediaItem id="5400" filePath="C:\Users\owner\Dropbox\Work\png\animation T=1.05400.png" arWidth="640" arHeight="480" duration="0" songTitle="" songArtist="" songAlbum="" songCopyrightUrl="" songArtistUrl="" songAudioFileUrl="" stabilizationMode="0" mediaItemType="2" />
    <MediaItem id="233" filePath="C:\Users\owner\Dropbox\Work\png\animation T=1.00233.png" arWidth="640" arHeight="480" duration="0" songTitle="" songArtist="" songAlbum="" songCopyrightUrl="" songArtistUrl="" songAudioFileUrl="" stabilizationMode="0" mediaItemType="2" />
    <MediaItem id="5401" filePath="C:\Users\owner\Dropbox\Work\png\animation T=1.05401.png" arWidth="640" arHeight="480" duration="0" songTitle="" songArtist="" songAlbum="" songCopyrightUrl="" songArtistUrl="" songAudioFileUrl="" stabilizationMode="0" mediaItemType="2" />
    <MediaItem id="234" filePath="C:\Users\owner\Dropbox\Work\png\animation T=1.00234.png" arWidth="640" arHeight="480" duration="0" songTitle="" songArtist="" songAlbum="" songCopyrightUrl="" songArtistUrl="" songAudioFileUrl="" stabilizationMode="0" mediaItemType="2" />
    <MediaItem id="5402" filePath="C:\Users\owner\Dropbox\Work\png\animation T=1.05402.png" arWidth="640" arHeight="480" duration="0" songTitle="" songArtist="" songAlbum="" songCopyrightUrl="" songArtistUrl="" songAudioFileUrl="" stabilizationMode="0" mediaItemType="2" />
    <MediaItem id="235" filePath="C:\Users\owner\Dropbox\Work\png\animation T=1.00235.png" arWidth="640" arHeight="480" duration="0" songTitle="" songArtist="" songAlbum="" songCopyrightUrl="" songArtistUrl="" songAudioFileUrl="" stabilizationMode="0" mediaItemType="2" />
    <MediaItem id="5403" filePath="C:\Users\owner\Dropbox\Work\png\animation T=1.05403.png" arWidth="640" arHeight="480" duration="0" songTitle="" songArtist="" songAlbum="" songCopyrightUrl="" songArtistUrl="" songAudioFileUrl="" stabilizationMode="0" mediaItemType="2" />
    <MediaItem id="236" filePath="C:\Users\owner\Dropbox\Work\png\animation T=1.00236.png" arWidth="640" arHeight="480" duration="0" songTitle="" songArtist="" songAlbum="" songCopyrightUrl="" songArtistUrl="" songAudioFileUrl="" stabilizationMode="0" mediaItemType="2" />
    <MediaItem id="5404" filePath="C:\Users\owner\Dropbox\Work\png\animation T=1.05404.png" arWidth="640" arHeight="480" duration="0" songTitle="" songArtist="" songAlbum="" songCopyrightUrl="" songArtistUrl="" songAudioFileUrl="" stabilizationMode="0" mediaItemType="2" />
    <MediaItem id="237" filePath="C:\Users\owner\Dropbox\Work\png\animation T=1.00237.png" arWidth="640" arHeight="480" duration="0" songTitle="" songArtist="" songAlbum="" songCopyrightUrl="" songArtistUrl="" songAudioFileUrl="" stabilizationMode="0" mediaItemType="2" />
    <MediaItem id="5405" filePath="C:\Users\owner\Dropbox\Work\png\animation T=1.05405.png" arWidth="640" arHeight="480" duration="0" songTitle="" songArtist="" songAlbum="" songCopyrightUrl="" songArtistUrl="" songAudioFileUrl="" stabilizationMode="0" mediaItemType="2" />
    <MediaItem id="238" filePath="C:\Users\owner\Dropbox\Work\png\animation T=1.00238.png" arWidth="640" arHeight="480" duration="0" songTitle="" songArtist="" songAlbum="" songCopyrightUrl="" songArtistUrl="" songAudioFileUrl="" stabilizationMode="0" mediaItemType="2" />
    <MediaItem id="5406" filePath="C:\Users\owner\Dropbox\Work\png\animation T=1.05406.png" arWidth="640" arHeight="480" duration="0" songTitle="" songArtist="" songAlbum="" songCopyrightUrl="" songArtistUrl="" songAudioFileUrl="" stabilizationMode="0" mediaItemType="2" />
    <MediaItem id="239" filePath="C:\Users\owner\Dropbox\Work\png\animation T=1.00239.png" arWidth="640" arHeight="480" duration="0" songTitle="" songArtist="" songAlbum="" songCopyrightUrl="" songArtistUrl="" songAudioFileUrl="" stabilizationMode="0" mediaItemType="2" />
    <MediaItem id="5407" filePath="C:\Users\owner\Dropbox\Work\png\animation T=1.05407.png" arWidth="640" arHeight="480" duration="0" songTitle="" songArtist="" songAlbum="" songCopyrightUrl="" songArtistUrl="" songAudioFileUrl="" stabilizationMode="0" mediaItemType="2" />
    <MediaItem id="240" filePath="C:\Users\owner\Dropbox\Work\png\animation T=1.00240.png" arWidth="640" arHeight="480" duration="0" songTitle="" songArtist="" songAlbum="" songCopyrightUrl="" songArtistUrl="" songAudioFileUrl="" stabilizationMode="0" mediaItemType="2" />
    <MediaItem id="5408" filePath="C:\Users\owner\Dropbox\Work\png\animation T=1.05408.png" arWidth="640" arHeight="480" duration="0" songTitle="" songArtist="" songAlbum="" songCopyrightUrl="" songArtistUrl="" songAudioFileUrl="" stabilizationMode="0" mediaItemType="2" />
    <MediaItem id="241" filePath="C:\Users\owner\Dropbox\Work\png\animation T=1.00241.png" arWidth="640" arHeight="480" duration="0" songTitle="" songArtist="" songAlbum="" songCopyrightUrl="" songArtistUrl="" songAudioFileUrl="" stabilizationMode="0" mediaItemType="2" />
    <MediaItem id="5409" filePath="C:\Users\owner\Dropbox\Work\png\animation T=1.05409.png" arWidth="640" arHeight="480" duration="0" songTitle="" songArtist="" songAlbum="" songCopyrightUrl="" songArtistUrl="" songAudioFileUrl="" stabilizationMode="0" mediaItemType="2" />
    <MediaItem id="242" filePath="C:\Users\owner\Dropbox\Work\png\animation T=1.00242.png" arWidth="640" arHeight="480" duration="0" songTitle="" songArtist="" songAlbum="" songCopyrightUrl="" songArtistUrl="" songAudioFileUrl="" stabilizationMode="0" mediaItemType="2" />
    <MediaItem id="5410" filePath="C:\Users\owner\Dropbox\Work\png\animation T=1.05410.png" arWidth="640" arHeight="480" duration="0" songTitle="" songArtist="" songAlbum="" songCopyrightUrl="" songArtistUrl="" songAudioFileUrl="" stabilizationMode="0" mediaItemType="2" />
    <MediaItem id="243" filePath="C:\Users\owner\Dropbox\Work\png\animation T=1.00243.png" arWidth="640" arHeight="480" duration="0" songTitle="" songArtist="" songAlbum="" songCopyrightUrl="" songArtistUrl="" songAudioFileUrl="" stabilizationMode="0" mediaItemType="2" />
    <MediaItem id="5411" filePath="C:\Users\owner\Dropbox\Work\png\animation T=1.05411.png" arWidth="640" arHeight="480" duration="0" songTitle="" songArtist="" songAlbum="" songCopyrightUrl="" songArtistUrl="" songAudioFileUrl="" stabilizationMode="0" mediaItemType="2" />
    <MediaItem id="244" filePath="C:\Users\owner\Dropbox\Work\png\animation T=1.00244.png" arWidth="640" arHeight="480" duration="0" songTitle="" songArtist="" songAlbum="" songCopyrightUrl="" songArtistUrl="" songAudioFileUrl="" stabilizationMode="0" mediaItemType="2" />
    <MediaItem id="5412" filePath="C:\Users\owner\Dropbox\Work\png\animation T=1.05412.png" arWidth="640" arHeight="480" duration="0" songTitle="" songArtist="" songAlbum="" songCopyrightUrl="" songArtistUrl="" songAudioFileUrl="" stabilizationMode="0" mediaItemType="2" />
    <MediaItem id="245" filePath="C:\Users\owner\Dropbox\Work\png\animation T=1.00245.png" arWidth="640" arHeight="480" duration="0" songTitle="" songArtist="" songAlbum="" songCopyrightUrl="" songArtistUrl="" songAudioFileUrl="" stabilizationMode="0" mediaItemType="2" />
    <MediaItem id="5413" filePath="C:\Users\owner\Dropbox\Work\png\animation T=1.05413.png" arWidth="640" arHeight="480" duration="0" songTitle="" songArtist="" songAlbum="" songCopyrightUrl="" songArtistUrl="" songAudioFileUrl="" stabilizationMode="0" mediaItemType="2" />
    <MediaItem id="246" filePath="C:\Users\owner\Dropbox\Work\png\animation T=1.00246.png" arWidth="640" arHeight="480" duration="0" songTitle="" songArtist="" songAlbum="" songCopyrightUrl="" songArtistUrl="" songAudioFileUrl="" stabilizationMode="0" mediaItemType="2" />
    <MediaItem id="5414" filePath="C:\Users\owner\Dropbox\Work\png\animation T=1.05414.png" arWidth="640" arHeight="480" duration="0" songTitle="" songArtist="" songAlbum="" songCopyrightUrl="" songArtistUrl="" songAudioFileUrl="" stabilizationMode="0" mediaItemType="2" />
    <MediaItem id="247" filePath="C:\Users\owner\Dropbox\Work\png\animation T=1.00247.png" arWidth="640" arHeight="480" duration="0" songTitle="" songArtist="" songAlbum="" songCopyrightUrl="" songArtistUrl="" songAudioFileUrl="" stabilizationMode="0" mediaItemType="2" />
    <MediaItem id="5415" filePath="C:\Users\owner\Dropbox\Work\png\animation T=1.05415.png" arWidth="640" arHeight="480" duration="0" songTitle="" songArtist="" songAlbum="" songCopyrightUrl="" songArtistUrl="" songAudioFileUrl="" stabilizationMode="0" mediaItemType="2" />
    <MediaItem id="248" filePath="C:\Users\owner\Dropbox\Work\png\animation T=1.00248.png" arWidth="640" arHeight="480" duration="0" songTitle="" songArtist="" songAlbum="" songCopyrightUrl="" songArtistUrl="" songAudioFileUrl="" stabilizationMode="0" mediaItemType="2" />
    <MediaItem id="5416" filePath="C:\Users\owner\Dropbox\Work\png\animation T=1.05416.png" arWidth="640" arHeight="480" duration="0" songTitle="" songArtist="" songAlbum="" songCopyrightUrl="" songArtistUrl="" songAudioFileUrl="" stabilizationMode="0" mediaItemType="2" />
    <MediaItem id="249" filePath="C:\Users\owner\Dropbox\Work\png\animation T=1.00249.png" arWidth="640" arHeight="480" duration="0" songTitle="" songArtist="" songAlbum="" songCopyrightUrl="" songArtistUrl="" songAudioFileUrl="" stabilizationMode="0" mediaItemType="2" />
    <MediaItem id="5417" filePath="C:\Users\owner\Dropbox\Work\png\animation T=1.05417.png" arWidth="640" arHeight="480" duration="0" songTitle="" songArtist="" songAlbum="" songCopyrightUrl="" songArtistUrl="" songAudioFileUrl="" stabilizationMode="0" mediaItemType="2" />
    <MediaItem id="250" filePath="C:\Users\owner\Dropbox\Work\png\animation T=1.00250.png" arWidth="640" arHeight="480" duration="0" songTitle="" songArtist="" songAlbum="" songCopyrightUrl="" songArtistUrl="" songAudioFileUrl="" stabilizationMode="0" mediaItemType="2" />
    <MediaItem id="5418" filePath="C:\Users\owner\Dropbox\Work\png\animation T=1.05418.png" arWidth="640" arHeight="480" duration="0" songTitle="" songArtist="" songAlbum="" songCopyrightUrl="" songArtistUrl="" songAudioFileUrl="" stabilizationMode="0" mediaItemType="2" />
    <MediaItem id="251" filePath="C:\Users\owner\Dropbox\Work\png\animation T=1.00251.png" arWidth="640" arHeight="480" duration="0" songTitle="" songArtist="" songAlbum="" songCopyrightUrl="" songArtistUrl="" songAudioFileUrl="" stabilizationMode="0" mediaItemType="2" />
    <MediaItem id="5419" filePath="C:\Users\owner\Dropbox\Work\png\animation T=1.05419.png" arWidth="640" arHeight="480" duration="0" songTitle="" songArtist="" songAlbum="" songCopyrightUrl="" songArtistUrl="" songAudioFileUrl="" stabilizationMode="0" mediaItemType="2" />
    <MediaItem id="252" filePath="C:\Users\owner\Dropbox\Work\png\animation T=1.00252.png" arWidth="640" arHeight="480" duration="0" songTitle="" songArtist="" songAlbum="" songCopyrightUrl="" songArtistUrl="" songAudioFileUrl="" stabilizationMode="0" mediaItemType="2" />
    <MediaItem id="5420" filePath="C:\Users\owner\Dropbox\Work\png\animation T=1.05420.png" arWidth="640" arHeight="480" duration="0" songTitle="" songArtist="" songAlbum="" songCopyrightUrl="" songArtistUrl="" songAudioFileUrl="" stabilizationMode="0" mediaItemType="2" />
    <MediaItem id="253" filePath="C:\Users\owner\Dropbox\Work\png\animation T=1.00253.png" arWidth="640" arHeight="480" duration="0" songTitle="" songArtist="" songAlbum="" songCopyrightUrl="" songArtistUrl="" songAudioFileUrl="" stabilizationMode="0" mediaItemType="2" />
    <MediaItem id="5421" filePath="C:\Users\owner\Dropbox\Work\png\animation T=1.05421.png" arWidth="640" arHeight="480" duration="0" songTitle="" songArtist="" songAlbum="" songCopyrightUrl="" songArtistUrl="" songAudioFileUrl="" stabilizationMode="0" mediaItemType="2" />
    <MediaItem id="254" filePath="C:\Users\owner\Dropbox\Work\png\animation T=1.00254.png" arWidth="640" arHeight="480" duration="0" songTitle="" songArtist="" songAlbum="" songCopyrightUrl="" songArtistUrl="" songAudioFileUrl="" stabilizationMode="0" mediaItemType="2" />
    <MediaItem id="5422" filePath="C:\Users\owner\Dropbox\Work\png\animation T=1.05422.png" arWidth="640" arHeight="480" duration="0" songTitle="" songArtist="" songAlbum="" songCopyrightUrl="" songArtistUrl="" songAudioFileUrl="" stabilizationMode="0" mediaItemType="2" />
    <MediaItem id="255" filePath="C:\Users\owner\Dropbox\Work\png\animation T=1.00255.png" arWidth="640" arHeight="480" duration="0" songTitle="" songArtist="" songAlbum="" songCopyrightUrl="" songArtistUrl="" songAudioFileUrl="" stabilizationMode="0" mediaItemType="2" />
    <MediaItem id="5423" filePath="C:\Users\owner\Dropbox\Work\png\animation T=1.05423.png" arWidth="640" arHeight="480" duration="0" songTitle="" songArtist="" songAlbum="" songCopyrightUrl="" songArtistUrl="" songAudioFileUrl="" stabilizationMode="0" mediaItemType="2" />
    <MediaItem id="256" filePath="C:\Users\owner\Dropbox\Work\png\animation T=1.00256.png" arWidth="640" arHeight="480" duration="0" songTitle="" songArtist="" songAlbum="" songCopyrightUrl="" songArtistUrl="" songAudioFileUrl="" stabilizationMode="0" mediaItemType="2" />
    <MediaItem id="5424" filePath="C:\Users\owner\Dropbox\Work\png\animation T=1.05424.png" arWidth="640" arHeight="480" duration="0" songTitle="" songArtist="" songAlbum="" songCopyrightUrl="" songArtistUrl="" songAudioFileUrl="" stabilizationMode="0" mediaItemType="2" />
    <MediaItem id="257" filePath="C:\Users\owner\Dropbox\Work\png\animation T=1.00257.png" arWidth="640" arHeight="480" duration="0" songTitle="" songArtist="" songAlbum="" songCopyrightUrl="" songArtistUrl="" songAudioFileUrl="" stabilizationMode="0" mediaItemType="2" />
    <MediaItem id="5425" filePath="C:\Users\owner\Dropbox\Work\png\animation T=1.05425.png" arWidth="640" arHeight="480" duration="0" songTitle="" songArtist="" songAlbum="" songCopyrightUrl="" songArtistUrl="" songAudioFileUrl="" stabilizationMode="0" mediaItemType="2" />
    <MediaItem id="258" filePath="C:\Users\owner\Dropbox\Work\png\animation T=1.00258.png" arWidth="640" arHeight="480" duration="0" songTitle="" songArtist="" songAlbum="" songCopyrightUrl="" songArtistUrl="" songAudioFileUrl="" stabilizationMode="0" mediaItemType="2" />
    <MediaItem id="5426" filePath="C:\Users\owner\Dropbox\Work\png\animation T=1.05426.png" arWidth="640" arHeight="480" duration="0" songTitle="" songArtist="" songAlbum="" songCopyrightUrl="" songArtistUrl="" songAudioFileUrl="" stabilizationMode="0" mediaItemType="2" />
    <MediaItem id="259" filePath="C:\Users\owner\Dropbox\Work\png\animation T=1.00259.png" arWidth="640" arHeight="480" duration="0" songTitle="" songArtist="" songAlbum="" songCopyrightUrl="" songArtistUrl="" songAudioFileUrl="" stabilizationMode="0" mediaItemType="2" />
    <MediaItem id="5427" filePath="C:\Users\owner\Dropbox\Work\png\animation T=1.05427.png" arWidth="640" arHeight="480" duration="0" songTitle="" songArtist="" songAlbum="" songCopyrightUrl="" songArtistUrl="" songAudioFileUrl="" stabilizationMode="0" mediaItemType="2" />
    <MediaItem id="260" filePath="C:\Users\owner\Dropbox\Work\png\animation T=1.00260.png" arWidth="640" arHeight="480" duration="0" songTitle="" songArtist="" songAlbum="" songCopyrightUrl="" songArtistUrl="" songAudioFileUrl="" stabilizationMode="0" mediaItemType="2" />
    <MediaItem id="5428" filePath="C:\Users\owner\Dropbox\Work\png\animation T=1.05428.png" arWidth="640" arHeight="480" duration="0" songTitle="" songArtist="" songAlbum="" songCopyrightUrl="" songArtistUrl="" songAudioFileUrl="" stabilizationMode="0" mediaItemType="2" />
    <MediaItem id="261" filePath="C:\Users\owner\Dropbox\Work\png\animation T=1.00261.png" arWidth="640" arHeight="480" duration="0" songTitle="" songArtist="" songAlbum="" songCopyrightUrl="" songArtistUrl="" songAudioFileUrl="" stabilizationMode="0" mediaItemType="2" />
    <MediaItem id="5429" filePath="C:\Users\owner\Dropbox\Work\png\animation T=1.05429.png" arWidth="640" arHeight="480" duration="0" songTitle="" songArtist="" songAlbum="" songCopyrightUrl="" songArtistUrl="" songAudioFileUrl="" stabilizationMode="0" mediaItemType="2" />
    <MediaItem id="262" filePath="C:\Users\owner\Dropbox\Work\png\animation T=1.00262.png" arWidth="640" arHeight="480" duration="0" songTitle="" songArtist="" songAlbum="" songCopyrightUrl="" songArtistUrl="" songAudioFileUrl="" stabilizationMode="0" mediaItemType="2" />
    <MediaItem id="5430" filePath="C:\Users\owner\Dropbox\Work\png\animation T=1.05430.png" arWidth="640" arHeight="480" duration="0" songTitle="" songArtist="" songAlbum="" songCopyrightUrl="" songArtistUrl="" songAudioFileUrl="" stabilizationMode="0" mediaItemType="2" />
    <MediaItem id="263" filePath="C:\Users\owner\Dropbox\Work\png\animation T=1.00263.png" arWidth="640" arHeight="480" duration="0" songTitle="" songArtist="" songAlbum="" songCopyrightUrl="" songArtistUrl="" songAudioFileUrl="" stabilizationMode="0" mediaItemType="2" />
    <MediaItem id="5431" filePath="C:\Users\owner\Dropbox\Work\png\animation T=1.05431.png" arWidth="640" arHeight="480" duration="0" songTitle="" songArtist="" songAlbum="" songCopyrightUrl="" songArtistUrl="" songAudioFileUrl="" stabilizationMode="0" mediaItemType="2" />
    <MediaItem id="264" filePath="C:\Users\owner\Dropbox\Work\png\animation T=1.00264.png" arWidth="640" arHeight="480" duration="0" songTitle="" songArtist="" songAlbum="" songCopyrightUrl="" songArtistUrl="" songAudioFileUrl="" stabilizationMode="0" mediaItemType="2" />
    <MediaItem id="5432" filePath="C:\Users\owner\Dropbox\Work\png\animation T=1.05432.png" arWidth="640" arHeight="480" duration="0" songTitle="" songArtist="" songAlbum="" songCopyrightUrl="" songArtistUrl="" songAudioFileUrl="" stabilizationMode="0" mediaItemType="2" />
    <MediaItem id="265" filePath="C:\Users\owner\Dropbox\Work\png\animation T=1.00265.png" arWidth="640" arHeight="480" duration="0" songTitle="" songArtist="" songAlbum="" songCopyrightUrl="" songArtistUrl="" songAudioFileUrl="" stabilizationMode="0" mediaItemType="2" />
    <MediaItem id="5433" filePath="C:\Users\owner\Dropbox\Work\png\animation T=1.05433.png" arWidth="640" arHeight="480" duration="0" songTitle="" songArtist="" songAlbum="" songCopyrightUrl="" songArtistUrl="" songAudioFileUrl="" stabilizationMode="0" mediaItemType="2" />
    <MediaItem id="266" filePath="C:\Users\owner\Dropbox\Work\png\animation T=1.00266.png" arWidth="640" arHeight="480" duration="0" songTitle="" songArtist="" songAlbum="" songCopyrightUrl="" songArtistUrl="" songAudioFileUrl="" stabilizationMode="0" mediaItemType="2" />
    <MediaItem id="5434" filePath="C:\Users\owner\Dropbox\Work\png\animation T=1.05434.png" arWidth="640" arHeight="480" duration="0" songTitle="" songArtist="" songAlbum="" songCopyrightUrl="" songArtistUrl="" songAudioFileUrl="" stabilizationMode="0" mediaItemType="2" />
    <MediaItem id="267" filePath="C:\Users\owner\Dropbox\Work\png\animation T=1.00267.png" arWidth="640" arHeight="480" duration="0" songTitle="" songArtist="" songAlbum="" songCopyrightUrl="" songArtistUrl="" songAudioFileUrl="" stabilizationMode="0" mediaItemType="2" />
    <MediaItem id="5435" filePath="C:\Users\owner\Dropbox\Work\png\animation T=1.05435.png" arWidth="640" arHeight="480" duration="0" songTitle="" songArtist="" songAlbum="" songCopyrightUrl="" songArtistUrl="" songAudioFileUrl="" stabilizationMode="0" mediaItemType="2" />
    <MediaItem id="268" filePath="C:\Users\owner\Dropbox\Work\png\animation T=1.00268.png" arWidth="640" arHeight="480" duration="0" songTitle="" songArtist="" songAlbum="" songCopyrightUrl="" songArtistUrl="" songAudioFileUrl="" stabilizationMode="0" mediaItemType="2" />
    <MediaItem id="5436" filePath="C:\Users\owner\Dropbox\Work\png\animation T=1.05436.png" arWidth="640" arHeight="480" duration="0" songTitle="" songArtist="" songAlbum="" songCopyrightUrl="" songArtistUrl="" songAudioFileUrl="" stabilizationMode="0" mediaItemType="2" />
    <MediaItem id="269" filePath="C:\Users\owner\Dropbox\Work\png\animation T=1.00269.png" arWidth="640" arHeight="480" duration="0" songTitle="" songArtist="" songAlbum="" songCopyrightUrl="" songArtistUrl="" songAudioFileUrl="" stabilizationMode="0" mediaItemType="2" />
    <MediaItem id="5437" filePath="C:\Users\owner\Dropbox\Work\png\animation T=1.05437.png" arWidth="640" arHeight="480" duration="0" songTitle="" songArtist="" songAlbum="" songCopyrightUrl="" songArtistUrl="" songAudioFileUrl="" stabilizationMode="0" mediaItemType="2" />
    <MediaItem id="270" filePath="C:\Users\owner\Dropbox\Work\png\animation T=1.00270.png" arWidth="640" arHeight="480" duration="0" songTitle="" songArtist="" songAlbum="" songCopyrightUrl="" songArtistUrl="" songAudioFileUrl="" stabilizationMode="0" mediaItemType="2" />
    <MediaItem id="5438" filePath="C:\Users\owner\Dropbox\Work\png\animation T=1.05438.png" arWidth="640" arHeight="480" duration="0" songTitle="" songArtist="" songAlbum="" songCopyrightUrl="" songArtistUrl="" songAudioFileUrl="" stabilizationMode="0" mediaItemType="2" />
    <MediaItem id="271" filePath="C:\Users\owner\Dropbox\Work\png\animation T=1.00271.png" arWidth="640" arHeight="480" duration="0" songTitle="" songArtist="" songAlbum="" songCopyrightUrl="" songArtistUrl="" songAudioFileUrl="" stabilizationMode="0" mediaItemType="2" />
    <MediaItem id="5439" filePath="C:\Users\owner\Dropbox\Work\png\animation T=1.05439.png" arWidth="640" arHeight="480" duration="0" songTitle="" songArtist="" songAlbum="" songCopyrightUrl="" songArtistUrl="" songAudioFileUrl="" stabilizationMode="0" mediaItemType="2" />
    <MediaItem id="272" filePath="C:\Users\owner\Dropbox\Work\png\animation T=1.00272.png" arWidth="640" arHeight="480" duration="0" songTitle="" songArtist="" songAlbum="" songCopyrightUrl="" songArtistUrl="" songAudioFileUrl="" stabilizationMode="0" mediaItemType="2" />
    <MediaItem id="5440" filePath="C:\Users\owner\Dropbox\Work\png\animation T=1.05440.png" arWidth="640" arHeight="480" duration="0" songTitle="" songArtist="" songAlbum="" songCopyrightUrl="" songArtistUrl="" songAudioFileUrl="" stabilizationMode="0" mediaItemType="2" />
    <MediaItem id="273" filePath="C:\Users\owner\Dropbox\Work\png\animation T=1.00273.png" arWidth="640" arHeight="480" duration="0" songTitle="" songArtist="" songAlbum="" songCopyrightUrl="" songArtistUrl="" songAudioFileUrl="" stabilizationMode="0" mediaItemType="2" />
    <MediaItem id="5441" filePath="C:\Users\owner\Dropbox\Work\png\animation T=1.05441.png" arWidth="640" arHeight="480" duration="0" songTitle="" songArtist="" songAlbum="" songCopyrightUrl="" songArtistUrl="" songAudioFileUrl="" stabilizationMode="0" mediaItemType="2" />
    <MediaItem id="274" filePath="C:\Users\owner\Dropbox\Work\png\animation T=1.00274.png" arWidth="640" arHeight="480" duration="0" songTitle="" songArtist="" songAlbum="" songCopyrightUrl="" songArtistUrl="" songAudioFileUrl="" stabilizationMode="0" mediaItemType="2" />
    <MediaItem id="5442" filePath="C:\Users\owner\Dropbox\Work\png\animation T=1.05442.png" arWidth="640" arHeight="480" duration="0" songTitle="" songArtist="" songAlbum="" songCopyrightUrl="" songArtistUrl="" songAudioFileUrl="" stabilizationMode="0" mediaItemType="2" />
    <MediaItem id="275" filePath="C:\Users\owner\Dropbox\Work\png\animation T=1.00275.png" arWidth="640" arHeight="480" duration="0" songTitle="" songArtist="" songAlbum="" songCopyrightUrl="" songArtistUrl="" songAudioFileUrl="" stabilizationMode="0" mediaItemType="2" />
    <MediaItem id="5443" filePath="C:\Users\owner\Dropbox\Work\png\animation T=1.05443.png" arWidth="640" arHeight="480" duration="0" songTitle="" songArtist="" songAlbum="" songCopyrightUrl="" songArtistUrl="" songAudioFileUrl="" stabilizationMode="0" mediaItemType="2" />
    <MediaItem id="276" filePath="C:\Users\owner\Dropbox\Work\png\animation T=1.00276.png" arWidth="640" arHeight="480" duration="0" songTitle="" songArtist="" songAlbum="" songCopyrightUrl="" songArtistUrl="" songAudioFileUrl="" stabilizationMode="0" mediaItemType="2" />
    <MediaItem id="5444" filePath="C:\Users\owner\Dropbox\Work\png\animation T=1.05444.png" arWidth="640" arHeight="480" duration="0" songTitle="" songArtist="" songAlbum="" songCopyrightUrl="" songArtistUrl="" songAudioFileUrl="" stabilizationMode="0" mediaItemType="2" />
    <MediaItem id="277" filePath="C:\Users\owner\Dropbox\Work\png\animation T=1.00277.png" arWidth="640" arHeight="480" duration="0" songTitle="" songArtist="" songAlbum="" songCopyrightUrl="" songArtistUrl="" songAudioFileUrl="" stabilizationMode="0" mediaItemType="2" />
    <MediaItem id="5445" filePath="C:\Users\owner\Dropbox\Work\png\animation T=1.05445.png" arWidth="640" arHeight="480" duration="0" songTitle="" songArtist="" songAlbum="" songCopyrightUrl="" songArtistUrl="" songAudioFileUrl="" stabilizationMode="0" mediaItemType="2" />
    <MediaItem id="278" filePath="C:\Users\owner\Dropbox\Work\png\animation T=1.00278.png" arWidth="640" arHeight="480" duration="0" songTitle="" songArtist="" songAlbum="" songCopyrightUrl="" songArtistUrl="" songAudioFileUrl="" stabilizationMode="0" mediaItemType="2" />
    <MediaItem id="5446" filePath="C:\Users\owner\Dropbox\Work\png\animation T=1.05446.png" arWidth="640" arHeight="480" duration="0" songTitle="" songArtist="" songAlbum="" songCopyrightUrl="" songArtistUrl="" songAudioFileUrl="" stabilizationMode="0" mediaItemType="2" />
    <MediaItem id="279" filePath="C:\Users\owner\Dropbox\Work\png\animation T=1.00279.png" arWidth="640" arHeight="480" duration="0" songTitle="" songArtist="" songAlbum="" songCopyrightUrl="" songArtistUrl="" songAudioFileUrl="" stabilizationMode="0" mediaItemType="2" />
    <MediaItem id="5447" filePath="C:\Users\owner\Dropbox\Work\png\animation T=1.05447.png" arWidth="640" arHeight="480" duration="0" songTitle="" songArtist="" songAlbum="" songCopyrightUrl="" songArtistUrl="" songAudioFileUrl="" stabilizationMode="0" mediaItemType="2" />
    <MediaItem id="280" filePath="C:\Users\owner\Dropbox\Work\png\animation T=1.00280.png" arWidth="640" arHeight="480" duration="0" songTitle="" songArtist="" songAlbum="" songCopyrightUrl="" songArtistUrl="" songAudioFileUrl="" stabilizationMode="0" mediaItemType="2" />
    <MediaItem id="5448" filePath="C:\Users\owner\Dropbox\Work\png\animation T=1.05448.png" arWidth="640" arHeight="480" duration="0" songTitle="" songArtist="" songAlbum="" songCopyrightUrl="" songArtistUrl="" songAudioFileUrl="" stabilizationMode="0" mediaItemType="2" />
    <MediaItem id="281" filePath="C:\Users\owner\Dropbox\Work\png\animation T=1.00281.png" arWidth="640" arHeight="480" duration="0" songTitle="" songArtist="" songAlbum="" songCopyrightUrl="" songArtistUrl="" songAudioFileUrl="" stabilizationMode="0" mediaItemType="2" />
    <MediaItem id="5449" filePath="C:\Users\owner\Dropbox\Work\png\animation T=1.05449.png" arWidth="640" arHeight="480" duration="0" songTitle="" songArtist="" songAlbum="" songCopyrightUrl="" songArtistUrl="" songAudioFileUrl="" stabilizationMode="0" mediaItemType="2" />
    <MediaItem id="282" filePath="C:\Users\owner\Dropbox\Work\png\animation T=1.00282.png" arWidth="640" arHeight="480" duration="0" songTitle="" songArtist="" songAlbum="" songCopyrightUrl="" songArtistUrl="" songAudioFileUrl="" stabilizationMode="0" mediaItemType="2" />
    <MediaItem id="5450" filePath="C:\Users\owner\Dropbox\Work\png\animation T=1.05450.png" arWidth="640" arHeight="480" duration="0" songTitle="" songArtist="" songAlbum="" songCopyrightUrl="" songArtistUrl="" songAudioFileUrl="" stabilizationMode="0" mediaItemType="2" />
    <MediaItem id="283" filePath="C:\Users\owner\Dropbox\Work\png\animation T=1.00283.png" arWidth="640" arHeight="480" duration="0" songTitle="" songArtist="" songAlbum="" songCopyrightUrl="" songArtistUrl="" songAudioFileUrl="" stabilizationMode="0" mediaItemType="2" />
    <MediaItem id="5451" filePath="C:\Users\owner\Dropbox\Work\png\animation T=1.05451.png" arWidth="640" arHeight="480" duration="0" songTitle="" songArtist="" songAlbum="" songCopyrightUrl="" songArtistUrl="" songAudioFileUrl="" stabilizationMode="0" mediaItemType="2" />
    <MediaItem id="284" filePath="C:\Users\owner\Dropbox\Work\png\animation T=1.00284.png" arWidth="640" arHeight="480" duration="0" songTitle="" songArtist="" songAlbum="" songCopyrightUrl="" songArtistUrl="" songAudioFileUrl="" stabilizationMode="0" mediaItemType="2" />
    <MediaItem id="5452" filePath="C:\Users\owner\Dropbox\Work\png\animation T=1.05452.png" arWidth="640" arHeight="480" duration="0" songTitle="" songArtist="" songAlbum="" songCopyrightUrl="" songArtistUrl="" songAudioFileUrl="" stabilizationMode="0" mediaItemType="2" />
    <MediaItem id="285" filePath="C:\Users\owner\Dropbox\Work\png\animation T=1.00285.png" arWidth="640" arHeight="480" duration="0" songTitle="" songArtist="" songAlbum="" songCopyrightUrl="" songArtistUrl="" songAudioFileUrl="" stabilizationMode="0" mediaItemType="2" />
    <MediaItem id="5453" filePath="C:\Users\owner\Dropbox\Work\png\animation T=1.05453.png" arWidth="640" arHeight="480" duration="0" songTitle="" songArtist="" songAlbum="" songCopyrightUrl="" songArtistUrl="" songAudioFileUrl="" stabilizationMode="0" mediaItemType="2" />
    <MediaItem id="286" filePath="C:\Users\owner\Dropbox\Work\png\animation T=1.00286.png" arWidth="640" arHeight="480" duration="0" songTitle="" songArtist="" songAlbum="" songCopyrightUrl="" songArtistUrl="" songAudioFileUrl="" stabilizationMode="0" mediaItemType="2" />
    <MediaItem id="5454" filePath="C:\Users\owner\Dropbox\Work\png\animation T=1.05454.png" arWidth="640" arHeight="480" duration="0" songTitle="" songArtist="" songAlbum="" songCopyrightUrl="" songArtistUrl="" songAudioFileUrl="" stabilizationMode="0" mediaItemType="2" />
    <MediaItem id="287" filePath="C:\Users\owner\Dropbox\Work\png\animation T=1.00287.png" arWidth="640" arHeight="480" duration="0" songTitle="" songArtist="" songAlbum="" songCopyrightUrl="" songArtistUrl="" songAudioFileUrl="" stabilizationMode="0" mediaItemType="2" />
    <MediaItem id="5455" filePath="C:\Users\owner\Dropbox\Work\png\animation T=1.05455.png" arWidth="640" arHeight="480" duration="0" songTitle="" songArtist="" songAlbum="" songCopyrightUrl="" songArtistUrl="" songAudioFileUrl="" stabilizationMode="0" mediaItemType="2" />
    <MediaItem id="288" filePath="C:\Users\owner\Dropbox\Work\png\animation T=1.00288.png" arWidth="640" arHeight="480" duration="0" songTitle="" songArtist="" songAlbum="" songCopyrightUrl="" songArtistUrl="" songAudioFileUrl="" stabilizationMode="0" mediaItemType="2" />
    <MediaItem id="5456" filePath="C:\Users\owner\Dropbox\Work\png\animation T=1.05456.png" arWidth="640" arHeight="480" duration="0" songTitle="" songArtist="" songAlbum="" songCopyrightUrl="" songArtistUrl="" songAudioFileUrl="" stabilizationMode="0" mediaItemType="2" />
    <MediaItem id="289" filePath="C:\Users\owner\Dropbox\Work\png\animation T=1.00289.png" arWidth="640" arHeight="480" duration="0" songTitle="" songArtist="" songAlbum="" songCopyrightUrl="" songArtistUrl="" songAudioFileUrl="" stabilizationMode="0" mediaItemType="2" />
    <MediaItem id="5457" filePath="C:\Users\owner\Dropbox\Work\png\animation T=1.05457.png" arWidth="640" arHeight="480" duration="0" songTitle="" songArtist="" songAlbum="" songCopyrightUrl="" songArtistUrl="" songAudioFileUrl="" stabilizationMode="0" mediaItemType="2" />
    <MediaItem id="290" filePath="C:\Users\owner\Dropbox\Work\png\animation T=1.00290.png" arWidth="640" arHeight="480" duration="0" songTitle="" songArtist="" songAlbum="" songCopyrightUrl="" songArtistUrl="" songAudioFileUrl="" stabilizationMode="0" mediaItemType="2" />
    <MediaItem id="5458" filePath="C:\Users\owner\Dropbox\Work\png\animation T=1.05458.png" arWidth="640" arHeight="480" duration="0" songTitle="" songArtist="" songAlbum="" songCopyrightUrl="" songArtistUrl="" songAudioFileUrl="" stabilizationMode="0" mediaItemType="2" />
    <MediaItem id="291" filePath="C:\Users\owner\Dropbox\Work\png\animation T=1.00291.png" arWidth="640" arHeight="480" duration="0" songTitle="" songArtist="" songAlbum="" songCopyrightUrl="" songArtistUrl="" songAudioFileUrl="" stabilizationMode="0" mediaItemType="2" />
    <MediaItem id="5459" filePath="C:\Users\owner\Dropbox\Work\png\animation T=1.05459.png" arWidth="640" arHeight="480" duration="0" songTitle="" songArtist="" songAlbum="" songCopyrightUrl="" songArtistUrl="" songAudioFileUrl="" stabilizationMode="0" mediaItemType="2" />
    <MediaItem id="292" filePath="C:\Users\owner\Dropbox\Work\png\animation T=1.00292.png" arWidth="640" arHeight="480" duration="0" songTitle="" songArtist="" songAlbum="" songCopyrightUrl="" songArtistUrl="" songAudioFileUrl="" stabilizationMode="0" mediaItemType="2" />
    <MediaItem id="5460" filePath="C:\Users\owner\Dropbox\Work\png\animation T=1.05460.png" arWidth="640" arHeight="480" duration="0" songTitle="" songArtist="" songAlbum="" songCopyrightUrl="" songArtistUrl="" songAudioFileUrl="" stabilizationMode="0" mediaItemType="2" />
    <MediaItem id="293" filePath="C:\Users\owner\Dropbox\Work\png\animation T=1.00293.png" arWidth="640" arHeight="480" duration="0" songTitle="" songArtist="" songAlbum="" songCopyrightUrl="" songArtistUrl="" songAudioFileUrl="" stabilizationMode="0" mediaItemType="2" />
    <MediaItem id="5461" filePath="C:\Users\owner\Dropbox\Work\png\animation T=1.05461.png" arWidth="640" arHeight="480" duration="0" songTitle="" songArtist="" songAlbum="" songCopyrightUrl="" songArtistUrl="" songAudioFileUrl="" stabilizationMode="0" mediaItemType="2" />
    <MediaItem id="294" filePath="C:\Users\owner\Dropbox\Work\png\animation T=1.00294.png" arWidth="640" arHeight="480" duration="0" songTitle="" songArtist="" songAlbum="" songCopyrightUrl="" songArtistUrl="" songAudioFileUrl="" stabilizationMode="0" mediaItemType="2" />
    <MediaItem id="5462" filePath="C:\Users\owner\Dropbox\Work\png\animation T=1.05462.png" arWidth="640" arHeight="480" duration="0" songTitle="" songArtist="" songAlbum="" songCopyrightUrl="" songArtistUrl="" songAudioFileUrl="" stabilizationMode="0" mediaItemType="2" />
    <MediaItem id="295" filePath="C:\Users\owner\Dropbox\Work\png\animation T=1.00295.png" arWidth="640" arHeight="480" duration="0" songTitle="" songArtist="" songAlbum="" songCopyrightUrl="" songArtistUrl="" songAudioFileUrl="" stabilizationMode="0" mediaItemType="2" />
    <MediaItem id="5463" filePath="C:\Users\owner\Dropbox\Work\png\animation T=1.05463.png" arWidth="640" arHeight="480" duration="0" songTitle="" songArtist="" songAlbum="" songCopyrightUrl="" songArtistUrl="" songAudioFileUrl="" stabilizationMode="0" mediaItemType="2" />
    <MediaItem id="296" filePath="C:\Users\owner\Dropbox\Work\png\animation T=1.00296.png" arWidth="640" arHeight="480" duration="0" songTitle="" songArtist="" songAlbum="" songCopyrightUrl="" songArtistUrl="" songAudioFileUrl="" stabilizationMode="0" mediaItemType="2" />
    <MediaItem id="5464" filePath="C:\Users\owner\Dropbox\Work\png\animation T=1.05464.png" arWidth="640" arHeight="480" duration="0" songTitle="" songArtist="" songAlbum="" songCopyrightUrl="" songArtistUrl="" songAudioFileUrl="" stabilizationMode="0" mediaItemType="2" />
    <MediaItem id="297" filePath="C:\Users\owner\Dropbox\Work\png\animation T=1.00297.png" arWidth="640" arHeight="480" duration="0" songTitle="" songArtist="" songAlbum="" songCopyrightUrl="" songArtistUrl="" songAudioFileUrl="" stabilizationMode="0" mediaItemType="2" />
    <MediaItem id="5465" filePath="C:\Users\owner\Dropbox\Work\png\animation T=1.05465.png" arWidth="640" arHeight="480" duration="0" songTitle="" songArtist="" songAlbum="" songCopyrightUrl="" songArtistUrl="" songAudioFileUrl="" stabilizationMode="0" mediaItemType="2" />
    <MediaItem id="298" filePath="C:\Users\owner\Dropbox\Work\png\animation T=1.00298.png" arWidth="640" arHeight="480" duration="0" songTitle="" songArtist="" songAlbum="" songCopyrightUrl="" songArtistUrl="" songAudioFileUrl="" stabilizationMode="0" mediaItemType="2" />
    <MediaItem id="5466" filePath="C:\Users\owner\Dropbox\Work\png\animation T=1.05466.png" arWidth="640" arHeight="480" duration="0" songTitle="" songArtist="" songAlbum="" songCopyrightUrl="" songArtistUrl="" songAudioFileUrl="" stabilizationMode="0" mediaItemType="2" />
    <MediaItem id="299" filePath="C:\Users\owner\Dropbox\Work\png\animation T=1.00299.png" arWidth="640" arHeight="480" duration="0" songTitle="" songArtist="" songAlbum="" songCopyrightUrl="" songArtistUrl="" songAudioFileUrl="" stabilizationMode="0" mediaItemType="2" />
    <MediaItem id="5467" filePath="C:\Users\owner\Dropbox\Work\png\animation T=1.05467.png" arWidth="640" arHeight="480" duration="0" songTitle="" songArtist="" songAlbum="" songCopyrightUrl="" songArtistUrl="" songAudioFileUrl="" stabilizationMode="0" mediaItemType="2" />
    <MediaItem id="300" filePath="C:\Users\owner\Dropbox\Work\png\animation T=1.00300.png" arWidth="640" arHeight="480" duration="0" songTitle="" songArtist="" songAlbum="" songCopyrightUrl="" songArtistUrl="" songAudioFileUrl="" stabilizationMode="0" mediaItemType="2" />
    <MediaItem id="5468" filePath="C:\Users\owner\Dropbox\Work\png\animation T=1.05468.png" arWidth="640" arHeight="480" duration="0" songTitle="" songArtist="" songAlbum="" songCopyrightUrl="" songArtistUrl="" songAudioFileUrl="" stabilizationMode="0" mediaItemType="2" />
    <MediaItem id="301" filePath="C:\Users\owner\Dropbox\Work\png\animation T=1.00301.png" arWidth="640" arHeight="480" duration="0" songTitle="" songArtist="" songAlbum="" songCopyrightUrl="" songArtistUrl="" songAudioFileUrl="" stabilizationMode="0" mediaItemType="2" />
    <MediaItem id="5469" filePath="C:\Users\owner\Dropbox\Work\png\animation T=1.05469.png" arWidth="640" arHeight="480" duration="0" songTitle="" songArtist="" songAlbum="" songCopyrightUrl="" songArtistUrl="" songAudioFileUrl="" stabilizationMode="0" mediaItemType="2" />
    <MediaItem id="302" filePath="C:\Users\owner\Dropbox\Work\png\animation T=1.00302.png" arWidth="640" arHeight="480" duration="0" songTitle="" songArtist="" songAlbum="" songCopyrightUrl="" songArtistUrl="" songAudioFileUrl="" stabilizationMode="0" mediaItemType="2" />
    <MediaItem id="5470" filePath="C:\Users\owner\Dropbox\Work\png\animation T=1.05470.png" arWidth="640" arHeight="480" duration="0" songTitle="" songArtist="" songAlbum="" songCopyrightUrl="" songArtistUrl="" songAudioFileUrl="" stabilizationMode="0" mediaItemType="2" />
    <MediaItem id="303" filePath="C:\Users\owner\Dropbox\Work\png\animation T=1.00303.png" arWidth="640" arHeight="480" duration="0" songTitle="" songArtist="" songAlbum="" songCopyrightUrl="" songArtistUrl="" songAudioFileUrl="" stabilizationMode="0" mediaItemType="2" />
    <MediaItem id="5471" filePath="C:\Users\owner\Dropbox\Work\png\animation T=1.05471.png" arWidth="640" arHeight="480" duration="0" songTitle="" songArtist="" songAlbum="" songCopyrightUrl="" songArtistUrl="" songAudioFileUrl="" stabilizationMode="0" mediaItemType="2" />
    <MediaItem id="304" filePath="C:\Users\owner\Dropbox\Work\png\animation T=1.00304.png" arWidth="640" arHeight="480" duration="0" songTitle="" songArtist="" songAlbum="" songCopyrightUrl="" songArtistUrl="" songAudioFileUrl="" stabilizationMode="0" mediaItemType="2" />
    <MediaItem id="5472" filePath="C:\Users\owner\Dropbox\Work\png\animation T=1.05472.png" arWidth="640" arHeight="480" duration="0" songTitle="" songArtist="" songAlbum="" songCopyrightUrl="" songArtistUrl="" songAudioFileUrl="" stabilizationMode="0" mediaItemType="2" />
    <MediaItem id="305" filePath="C:\Users\owner\Dropbox\Work\png\animation T=1.00305.png" arWidth="640" arHeight="480" duration="0" songTitle="" songArtist="" songAlbum="" songCopyrightUrl="" songArtistUrl="" songAudioFileUrl="" stabilizationMode="0" mediaItemType="2" />
    <MediaItem id="5473" filePath="C:\Users\owner\Dropbox\Work\png\animation T=1.05473.png" arWidth="640" arHeight="480" duration="0" songTitle="" songArtist="" songAlbum="" songCopyrightUrl="" songArtistUrl="" songAudioFileUrl="" stabilizationMode="0" mediaItemType="2" />
    <MediaItem id="306" filePath="C:\Users\owner\Dropbox\Work\png\animation T=1.00306.png" arWidth="640" arHeight="480" duration="0" songTitle="" songArtist="" songAlbum="" songCopyrightUrl="" songArtistUrl="" songAudioFileUrl="" stabilizationMode="0" mediaItemType="2" />
    <MediaItem id="5474" filePath="C:\Users\owner\Dropbox\Work\png\animation T=1.05474.png" arWidth="640" arHeight="480" duration="0" songTitle="" songArtist="" songAlbum="" songCopyrightUrl="" songArtistUrl="" songAudioFileUrl="" stabilizationMode="0" mediaItemType="2" />
    <MediaItem id="307" filePath="C:\Users\owner\Dropbox\Work\png\animation T=1.00307.png" arWidth="640" arHeight="480" duration="0" songTitle="" songArtist="" songAlbum="" songCopyrightUrl="" songArtistUrl="" songAudioFileUrl="" stabilizationMode="0" mediaItemType="2" />
    <MediaItem id="5475" filePath="C:\Users\owner\Dropbox\Work\png\animation T=1.05475.png" arWidth="640" arHeight="480" duration="0" songTitle="" songArtist="" songAlbum="" songCopyrightUrl="" songArtistUrl="" songAudioFileUrl="" stabilizationMode="0" mediaItemType="2" />
    <MediaItem id="308" filePath="C:\Users\owner\Dropbox\Work\png\animation T=1.00308.png" arWidth="640" arHeight="480" duration="0" songTitle="" songArtist="" songAlbum="" songCopyrightUrl="" songArtistUrl="" songAudioFileUrl="" stabilizationMode="0" mediaItemType="2" />
    <MediaItem id="5476" filePath="C:\Users\owner\Dropbox\Work\png\animation T=1.05476.png" arWidth="640" arHeight="480" duration="0" songTitle="" songArtist="" songAlbum="" songCopyrightUrl="" songArtistUrl="" songAudioFileUrl="" stabilizationMode="0" mediaItemType="2" />
    <MediaItem id="309" filePath="C:\Users\owner\Dropbox\Work\png\animation T=1.00309.png" arWidth="640" arHeight="480" duration="0" songTitle="" songArtist="" songAlbum="" songCopyrightUrl="" songArtistUrl="" songAudioFileUrl="" stabilizationMode="0" mediaItemType="2" />
    <MediaItem id="5477" filePath="C:\Users\owner\Dropbox\Work\png\animation T=1.05477.png" arWidth="640" arHeight="480" duration="0" songTitle="" songArtist="" songAlbum="" songCopyrightUrl="" songArtistUrl="" songAudioFileUrl="" stabilizationMode="0" mediaItemType="2" />
    <MediaItem id="310" filePath="C:\Users\owner\Dropbox\Work\png\animation T=1.00310.png" arWidth="640" arHeight="480" duration="0" songTitle="" songArtist="" songAlbum="" songCopyrightUrl="" songArtistUrl="" songAudioFileUrl="" stabilizationMode="0" mediaItemType="2" />
    <MediaItem id="5478" filePath="C:\Users\owner\Dropbox\Work\png\animation T=1.05478.png" arWidth="640" arHeight="480" duration="0" songTitle="" songArtist="" songAlbum="" songCopyrightUrl="" songArtistUrl="" songAudioFileUrl="" stabilizationMode="0" mediaItemType="2" />
    <MediaItem id="311" filePath="C:\Users\owner\Dropbox\Work\png\animation T=1.00311.png" arWidth="640" arHeight="480" duration="0" songTitle="" songArtist="" songAlbum="" songCopyrightUrl="" songArtistUrl="" songAudioFileUrl="" stabilizationMode="0" mediaItemType="2" />
    <MediaItem id="5479" filePath="C:\Users\owner\Dropbox\Work\png\animation T=1.05479.png" arWidth="640" arHeight="480" duration="0" songTitle="" songArtist="" songAlbum="" songCopyrightUrl="" songArtistUrl="" songAudioFileUrl="" stabilizationMode="0" mediaItemType="2" />
    <MediaItem id="312" filePath="C:\Users\owner\Dropbox\Work\png\animation T=1.00312.png" arWidth="640" arHeight="480" duration="0" songTitle="" songArtist="" songAlbum="" songCopyrightUrl="" songArtistUrl="" songAudioFileUrl="" stabilizationMode="0" mediaItemType="2" />
    <MediaItem id="5480" filePath="C:\Users\owner\Dropbox\Work\png\animation T=1.05480.png" arWidth="640" arHeight="480" duration="0" songTitle="" songArtist="" songAlbum="" songCopyrightUrl="" songArtistUrl="" songAudioFileUrl="" stabilizationMode="0" mediaItemType="2" />
    <MediaItem id="313" filePath="C:\Users\owner\Dropbox\Work\png\animation T=1.00313.png" arWidth="640" arHeight="480" duration="0" songTitle="" songArtist="" songAlbum="" songCopyrightUrl="" songArtistUrl="" songAudioFileUrl="" stabilizationMode="0" mediaItemType="2" />
    <MediaItem id="5481" filePath="C:\Users\owner\Dropbox\Work\png\animation T=1.05481.png" arWidth="640" arHeight="480" duration="0" songTitle="" songArtist="" songAlbum="" songCopyrightUrl="" songArtistUrl="" songAudioFileUrl="" stabilizationMode="0" mediaItemType="2" />
    <MediaItem id="314" filePath="C:\Users\owner\Dropbox\Work\png\animation T=1.00314.png" arWidth="640" arHeight="480" duration="0" songTitle="" songArtist="" songAlbum="" songCopyrightUrl="" songArtistUrl="" songAudioFileUrl="" stabilizationMode="0" mediaItemType="2" />
    <MediaItem id="5482" filePath="C:\Users\owner\Dropbox\Work\png\animation T=1.05482.png" arWidth="640" arHeight="480" duration="0" songTitle="" songArtist="" songAlbum="" songCopyrightUrl="" songArtistUrl="" songAudioFileUrl="" stabilizationMode="0" mediaItemType="2" />
    <MediaItem id="315" filePath="C:\Users\owner\Dropbox\Work\png\animation T=1.00315.png" arWidth="640" arHeight="480" duration="0" songTitle="" songArtist="" songAlbum="" songCopyrightUrl="" songArtistUrl="" songAudioFileUrl="" stabilizationMode="0" mediaItemType="2" />
    <MediaItem id="5483" filePath="C:\Users\owner\Dropbox\Work\png\animation T=1.05483.png" arWidth="640" arHeight="480" duration="0" songTitle="" songArtist="" songAlbum="" songCopyrightUrl="" songArtistUrl="" songAudioFileUrl="" stabilizationMode="0" mediaItemType="2" />
    <MediaItem id="316" filePath="C:\Users\owner\Dropbox\Work\png\animation T=1.00316.png" arWidth="640" arHeight="480" duration="0" songTitle="" songArtist="" songAlbum="" songCopyrightUrl="" songArtistUrl="" songAudioFileUrl="" stabilizationMode="0" mediaItemType="2" />
    <MediaItem id="5484" filePath="C:\Users\owner\Dropbox\Work\png\animation T=1.05484.png" arWidth="640" arHeight="480" duration="0" songTitle="" songArtist="" songAlbum="" songCopyrightUrl="" songArtistUrl="" songAudioFileUrl="" stabilizationMode="0" mediaItemType="2" />
    <MediaItem id="317" filePath="C:\Users\owner\Dropbox\Work\png\animation T=1.00317.png" arWidth="640" arHeight="480" duration="0" songTitle="" songArtist="" songAlbum="" songCopyrightUrl="" songArtistUrl="" songAudioFileUrl="" stabilizationMode="0" mediaItemType="2" />
    <MediaItem id="5485" filePath="C:\Users\owner\Dropbox\Work\png\animation T=1.05485.png" arWidth="640" arHeight="480" duration="0" songTitle="" songArtist="" songAlbum="" songCopyrightUrl="" songArtistUrl="" songAudioFileUrl="" stabilizationMode="0" mediaItemType="2" />
    <MediaItem id="318" filePath="C:\Users\owner\Dropbox\Work\png\animation T=1.00318.png" arWidth="640" arHeight="480" duration="0" songTitle="" songArtist="" songAlbum="" songCopyrightUrl="" songArtistUrl="" songAudioFileUrl="" stabilizationMode="0" mediaItemType="2" />
    <MediaItem id="5486" filePath="C:\Users\owner\Dropbox\Work\png\animation T=1.05486.png" arWidth="640" arHeight="480" duration="0" songTitle="" songArtist="" songAlbum="" songCopyrightUrl="" songArtistUrl="" songAudioFileUrl="" stabilizationMode="0" mediaItemType="2" />
    <MediaItem id="319" filePath="C:\Users\owner\Dropbox\Work\png\animation T=1.00319.png" arWidth="640" arHeight="480" duration="0" songTitle="" songArtist="" songAlbum="" songCopyrightUrl="" songArtistUrl="" songAudioFileUrl="" stabilizationMode="0" mediaItemType="2" />
    <MediaItem id="5487" filePath="C:\Users\owner\Dropbox\Work\png\animation T=1.05487.png" arWidth="640" arHeight="480" duration="0" songTitle="" songArtist="" songAlbum="" songCopyrightUrl="" songArtistUrl="" songAudioFileUrl="" stabilizationMode="0" mediaItemType="2" />
    <MediaItem id="320" filePath="C:\Users\owner\Dropbox\Work\png\animation T=1.00320.png" arWidth="640" arHeight="480" duration="0" songTitle="" songArtist="" songAlbum="" songCopyrightUrl="" songArtistUrl="" songAudioFileUrl="" stabilizationMode="0" mediaItemType="2" />
    <MediaItem id="5488" filePath="C:\Users\owner\Dropbox\Work\png\animation T=1.05488.png" arWidth="640" arHeight="480" duration="0" songTitle="" songArtist="" songAlbum="" songCopyrightUrl="" songArtistUrl="" songAudioFileUrl="" stabilizationMode="0" mediaItemType="2" />
    <MediaItem id="321" filePath="C:\Users\owner\Dropbox\Work\png\animation T=1.00321.png" arWidth="640" arHeight="480" duration="0" songTitle="" songArtist="" songAlbum="" songCopyrightUrl="" songArtistUrl="" songAudioFileUrl="" stabilizationMode="0" mediaItemType="2" />
    <MediaItem id="5489" filePath="C:\Users\owner\Dropbox\Work\png\animation T=1.05489.png" arWidth="640" arHeight="480" duration="0" songTitle="" songArtist="" songAlbum="" songCopyrightUrl="" songArtistUrl="" songAudioFileUrl="" stabilizationMode="0" mediaItemType="2" />
    <MediaItem id="322" filePath="C:\Users\owner\Dropbox\Work\png\animation T=1.00322.png" arWidth="640" arHeight="480" duration="0" songTitle="" songArtist="" songAlbum="" songCopyrightUrl="" songArtistUrl="" songAudioFileUrl="" stabilizationMode="0" mediaItemType="2" />
    <MediaItem id="5490" filePath="C:\Users\owner\Dropbox\Work\png\animation T=1.05490.png" arWidth="640" arHeight="480" duration="0" songTitle="" songArtist="" songAlbum="" songCopyrightUrl="" songArtistUrl="" songAudioFileUrl="" stabilizationMode="0" mediaItemType="2" />
    <MediaItem id="323" filePath="C:\Users\owner\Dropbox\Work\png\animation T=1.00323.png" arWidth="640" arHeight="480" duration="0" songTitle="" songArtist="" songAlbum="" songCopyrightUrl="" songArtistUrl="" songAudioFileUrl="" stabilizationMode="0" mediaItemType="2" />
    <MediaItem id="5491" filePath="C:\Users\owner\Dropbox\Work\png\animation T=1.05491.png" arWidth="640" arHeight="480" duration="0" songTitle="" songArtist="" songAlbum="" songCopyrightUrl="" songArtistUrl="" songAudioFileUrl="" stabilizationMode="0" mediaItemType="2" />
    <MediaItem id="324" filePath="C:\Users\owner\Dropbox\Work\png\animation T=1.00324.png" arWidth="640" arHeight="480" duration="0" songTitle="" songArtist="" songAlbum="" songCopyrightUrl="" songArtistUrl="" songAudioFileUrl="" stabilizationMode="0" mediaItemType="2" />
    <MediaItem id="5492" filePath="C:\Users\owner\Dropbox\Work\png\animation T=1.05492.png" arWidth="640" arHeight="480" duration="0" songTitle="" songArtist="" songAlbum="" songCopyrightUrl="" songArtistUrl="" songAudioFileUrl="" stabilizationMode="0" mediaItemType="2" />
    <MediaItem id="325" filePath="C:\Users\owner\Dropbox\Work\png\animation T=1.00325.png" arWidth="640" arHeight="480" duration="0" songTitle="" songArtist="" songAlbum="" songCopyrightUrl="" songArtistUrl="" songAudioFileUrl="" stabilizationMode="0" mediaItemType="2" />
    <MediaItem id="5493" filePath="C:\Users\owner\Dropbox\Work\png\animation T=1.05493.png" arWidth="640" arHeight="480" duration="0" songTitle="" songArtist="" songAlbum="" songCopyrightUrl="" songArtistUrl="" songAudioFileUrl="" stabilizationMode="0" mediaItemType="2" />
    <MediaItem id="326" filePath="C:\Users\owner\Dropbox\Work\png\animation T=1.00326.png" arWidth="640" arHeight="480" duration="0" songTitle="" songArtist="" songAlbum="" songCopyrightUrl="" songArtistUrl="" songAudioFileUrl="" stabilizationMode="0" mediaItemType="2" />
    <MediaItem id="5494" filePath="C:\Users\owner\Dropbox\Work\png\animation T=1.05494.png" arWidth="640" arHeight="480" duration="0" songTitle="" songArtist="" songAlbum="" songCopyrightUrl="" songArtistUrl="" songAudioFileUrl="" stabilizationMode="0" mediaItemType="2" />
    <MediaItem id="327" filePath="C:\Users\owner\Dropbox\Work\png\animation T=1.00327.png" arWidth="640" arHeight="480" duration="0" songTitle="" songArtist="" songAlbum="" songCopyrightUrl="" songArtistUrl="" songAudioFileUrl="" stabilizationMode="0" mediaItemType="2" />
    <MediaItem id="5495" filePath="C:\Users\owner\Dropbox\Work\png\animation T=1.05495.png" arWidth="640" arHeight="480" duration="0" songTitle="" songArtist="" songAlbum="" songCopyrightUrl="" songArtistUrl="" songAudioFileUrl="" stabilizationMode="0" mediaItemType="2" />
    <MediaItem id="328" filePath="C:\Users\owner\Dropbox\Work\png\animation T=1.00328.png" arWidth="640" arHeight="480" duration="0" songTitle="" songArtist="" songAlbum="" songCopyrightUrl="" songArtistUrl="" songAudioFileUrl="" stabilizationMode="0" mediaItemType="2" />
    <MediaItem id="5496" filePath="C:\Users\owner\Dropbox\Work\png\animation T=1.05496.png" arWidth="640" arHeight="480" duration="0" songTitle="" songArtist="" songAlbum="" songCopyrightUrl="" songArtistUrl="" songAudioFileUrl="" stabilizationMode="0" mediaItemType="2" />
    <MediaItem id="329" filePath="C:\Users\owner\Dropbox\Work\png\animation T=1.00329.png" arWidth="640" arHeight="480" duration="0" songTitle="" songArtist="" songAlbum="" songCopyrightUrl="" songArtistUrl="" songAudioFileUrl="" stabilizationMode="0" mediaItemType="2" />
    <MediaItem id="5497" filePath="C:\Users\owner\Dropbox\Work\png\animation T=1.05497.png" arWidth="640" arHeight="480" duration="0" songTitle="" songArtist="" songAlbum="" songCopyrightUrl="" songArtistUrl="" songAudioFileUrl="" stabilizationMode="0" mediaItemType="2" />
    <MediaItem id="330" filePath="C:\Users\owner\Dropbox\Work\png\animation T=1.00330.png" arWidth="640" arHeight="480" duration="0" songTitle="" songArtist="" songAlbum="" songCopyrightUrl="" songArtistUrl="" songAudioFileUrl="" stabilizationMode="0" mediaItemType="2" />
    <MediaItem id="5498" filePath="C:\Users\owner\Dropbox\Work\png\animation T=1.05498.png" arWidth="640" arHeight="480" duration="0" songTitle="" songArtist="" songAlbum="" songCopyrightUrl="" songArtistUrl="" songAudioFileUrl="" stabilizationMode="0" mediaItemType="2" />
    <MediaItem id="331" filePath="C:\Users\owner\Dropbox\Work\png\animation T=1.00331.png" arWidth="640" arHeight="480" duration="0" songTitle="" songArtist="" songAlbum="" songCopyrightUrl="" songArtistUrl="" songAudioFileUrl="" stabilizationMode="0" mediaItemType="2" />
    <MediaItem id="5499" filePath="C:\Users\owner\Dropbox\Work\png\animation T=1.05499.png" arWidth="640" arHeight="480" duration="0" songTitle="" songArtist="" songAlbum="" songCopyrightUrl="" songArtistUrl="" songAudioFileUrl="" stabilizationMode="0" mediaItemType="2" />
    <MediaItem id="332" filePath="C:\Users\owner\Dropbox\Work\png\animation T=1.00332.png" arWidth="640" arHeight="480" duration="0" songTitle="" songArtist="" songAlbum="" songCopyrightUrl="" songArtistUrl="" songAudioFileUrl="" stabilizationMode="0" mediaItemType="2" />
    <MediaItem id="5500" filePath="C:\Users\owner\Dropbox\Work\png\animation T=1.05500.png" arWidth="640" arHeight="480" duration="0" songTitle="" songArtist="" songAlbum="" songCopyrightUrl="" songArtistUrl="" songAudioFileUrl="" stabilizationMode="0" mediaItemType="2" />
    <MediaItem id="333" filePath="C:\Users\owner\Dropbox\Work\png\animation T=1.00333.png" arWidth="640" arHeight="480" duration="0" songTitle="" songArtist="" songAlbum="" songCopyrightUrl="" songArtistUrl="" songAudioFileUrl="" stabilizationMode="0" mediaItemType="2" />
    <MediaItem id="5501" filePath="C:\Users\owner\Dropbox\Work\png\animation T=1.05501.png" arWidth="640" arHeight="480" duration="0" songTitle="" songArtist="" songAlbum="" songCopyrightUrl="" songArtistUrl="" songAudioFileUrl="" stabilizationMode="0" mediaItemType="2" />
    <MediaItem id="334" filePath="C:\Users\owner\Dropbox\Work\png\animation T=1.00334.png" arWidth="640" arHeight="480" duration="0" songTitle="" songArtist="" songAlbum="" songCopyrightUrl="" songArtistUrl="" songAudioFileUrl="" stabilizationMode="0" mediaItemType="2" />
    <MediaItem id="5502" filePath="C:\Users\owner\Dropbox\Work\png\animation T=1.05502.png" arWidth="640" arHeight="480" duration="0" songTitle="" songArtist="" songAlbum="" songCopyrightUrl="" songArtistUrl="" songAudioFileUrl="" stabilizationMode="0" mediaItemType="2" />
    <MediaItem id="335" filePath="C:\Users\owner\Dropbox\Work\png\animation T=1.00335.png" arWidth="640" arHeight="480" duration="0" songTitle="" songArtist="" songAlbum="" songCopyrightUrl="" songArtistUrl="" songAudioFileUrl="" stabilizationMode="0" mediaItemType="2" />
    <MediaItem id="5503" filePath="C:\Users\owner\Dropbox\Work\png\animation T=1.05503.png" arWidth="640" arHeight="480" duration="0" songTitle="" songArtist="" songAlbum="" songCopyrightUrl="" songArtistUrl="" songAudioFileUrl="" stabilizationMode="0" mediaItemType="2" />
    <MediaItem id="336" filePath="C:\Users\owner\Dropbox\Work\png\animation T=1.00336.png" arWidth="640" arHeight="480" duration="0" songTitle="" songArtist="" songAlbum="" songCopyrightUrl="" songArtistUrl="" songAudioFileUrl="" stabilizationMode="0" mediaItemType="2" />
    <MediaItem id="5504" filePath="C:\Users\owner\Dropbox\Work\png\animation T=1.05504.png" arWidth="640" arHeight="480" duration="0" songTitle="" songArtist="" songAlbum="" songCopyrightUrl="" songArtistUrl="" songAudioFileUrl="" stabilizationMode="0" mediaItemType="2" />
    <MediaItem id="337" filePath="C:\Users\owner\Dropbox\Work\png\animation T=1.00337.png" arWidth="640" arHeight="480" duration="0" songTitle="" songArtist="" songAlbum="" songCopyrightUrl="" songArtistUrl="" songAudioFileUrl="" stabilizationMode="0" mediaItemType="2" />
    <MediaItem id="5505" filePath="C:\Users\owner\Dropbox\Work\png\animation T=1.05505.png" arWidth="640" arHeight="480" duration="0" songTitle="" songArtist="" songAlbum="" songCopyrightUrl="" songArtistUrl="" songAudioFileUrl="" stabilizationMode="0" mediaItemType="2" />
    <MediaItem id="338" filePath="C:\Users\owner\Dropbox\Work\png\animation T=1.00338.png" arWidth="640" arHeight="480" duration="0" songTitle="" songArtist="" songAlbum="" songCopyrightUrl="" songArtistUrl="" songAudioFileUrl="" stabilizationMode="0" mediaItemType="2" />
    <MediaItem id="5506" filePath="C:\Users\owner\Dropbox\Work\png\animation T=1.05506.png" arWidth="640" arHeight="480" duration="0" songTitle="" songArtist="" songAlbum="" songCopyrightUrl="" songArtistUrl="" songAudioFileUrl="" stabilizationMode="0" mediaItemType="2" />
    <MediaItem id="339" filePath="C:\Users\owner\Dropbox\Work\png\animation T=1.00339.png" arWidth="640" arHeight="480" duration="0" songTitle="" songArtist="" songAlbum="" songCopyrightUrl="" songArtistUrl="" songAudioFileUrl="" stabilizationMode="0" mediaItemType="2" />
    <MediaItem id="5507" filePath="C:\Users\owner\Dropbox\Work\png\animation T=1.05507.png" arWidth="640" arHeight="480" duration="0" songTitle="" songArtist="" songAlbum="" songCopyrightUrl="" songArtistUrl="" songAudioFileUrl="" stabilizationMode="0" mediaItemType="2" />
    <MediaItem id="340" filePath="C:\Users\owner\Dropbox\Work\png\animation T=1.00340.png" arWidth="640" arHeight="480" duration="0" songTitle="" songArtist="" songAlbum="" songCopyrightUrl="" songArtistUrl="" songAudioFileUrl="" stabilizationMode="0" mediaItemType="2" />
    <MediaItem id="5508" filePath="C:\Users\owner\Dropbox\Work\png\animation T=1.05508.png" arWidth="640" arHeight="480" duration="0" songTitle="" songArtist="" songAlbum="" songCopyrightUrl="" songArtistUrl="" songAudioFileUrl="" stabilizationMode="0" mediaItemType="2" />
    <MediaItem id="341" filePath="C:\Users\owner\Dropbox\Work\png\animation T=1.00341.png" arWidth="640" arHeight="480" duration="0" songTitle="" songArtist="" songAlbum="" songCopyrightUrl="" songArtistUrl="" songAudioFileUrl="" stabilizationMode="0" mediaItemType="2" />
    <MediaItem id="5509" filePath="C:\Users\owner\Dropbox\Work\png\animation T=1.05509.png" arWidth="640" arHeight="480" duration="0" songTitle="" songArtist="" songAlbum="" songCopyrightUrl="" songArtistUrl="" songAudioFileUrl="" stabilizationMode="0" mediaItemType="2" />
    <MediaItem id="342" filePath="C:\Users\owner\Dropbox\Work\png\animation T=1.00342.png" arWidth="640" arHeight="480" duration="0" songTitle="" songArtist="" songAlbum="" songCopyrightUrl="" songArtistUrl="" songAudioFileUrl="" stabilizationMode="0" mediaItemType="2" />
    <MediaItem id="5510" filePath="C:\Users\owner\Dropbox\Work\png\animation T=1.05510.png" arWidth="640" arHeight="480" duration="0" songTitle="" songArtist="" songAlbum="" songCopyrightUrl="" songArtistUrl="" songAudioFileUrl="" stabilizationMode="0" mediaItemType="2" />
    <MediaItem id="343" filePath="C:\Users\owner\Dropbox\Work\png\animation T=1.00343.png" arWidth="640" arHeight="480" duration="0" songTitle="" songArtist="" songAlbum="" songCopyrightUrl="" songArtistUrl="" songAudioFileUrl="" stabilizationMode="0" mediaItemType="2" />
    <MediaItem id="5511" filePath="C:\Users\owner\Dropbox\Work\png\animation T=1.05511.png" arWidth="640" arHeight="480" duration="0" songTitle="" songArtist="" songAlbum="" songCopyrightUrl="" songArtistUrl="" songAudioFileUrl="" stabilizationMode="0" mediaItemType="2" />
    <MediaItem id="344" filePath="C:\Users\owner\Dropbox\Work\png\animation T=1.00344.png" arWidth="640" arHeight="480" duration="0" songTitle="" songArtist="" songAlbum="" songCopyrightUrl="" songArtistUrl="" songAudioFileUrl="" stabilizationMode="0" mediaItemType="2" />
    <MediaItem id="5512" filePath="C:\Users\owner\Dropbox\Work\png\animation T=1.05512.png" arWidth="640" arHeight="480" duration="0" songTitle="" songArtist="" songAlbum="" songCopyrightUrl="" songArtistUrl="" songAudioFileUrl="" stabilizationMode="0" mediaItemType="2" />
    <MediaItem id="345" filePath="C:\Users\owner\Dropbox\Work\png\animation T=1.00345.png" arWidth="640" arHeight="480" duration="0" songTitle="" songArtist="" songAlbum="" songCopyrightUrl="" songArtistUrl="" songAudioFileUrl="" stabilizationMode="0" mediaItemType="2" />
    <MediaItem id="5513" filePath="C:\Users\owner\Dropbox\Work\png\animation T=1.05513.png" arWidth="640" arHeight="480" duration="0" songTitle="" songArtist="" songAlbum="" songCopyrightUrl="" songArtistUrl="" songAudioFileUrl="" stabilizationMode="0" mediaItemType="2" />
    <MediaItem id="346" filePath="C:\Users\owner\Dropbox\Work\png\animation T=1.00346.png" arWidth="640" arHeight="480" duration="0" songTitle="" songArtist="" songAlbum="" songCopyrightUrl="" songArtistUrl="" songAudioFileUrl="" stabilizationMode="0" mediaItemType="2" />
    <MediaItem id="5514" filePath="C:\Users\owner\Dropbox\Work\png\animation T=1.05514.png" arWidth="640" arHeight="480" duration="0" songTitle="" songArtist="" songAlbum="" songCopyrightUrl="" songArtistUrl="" songAudioFileUrl="" stabilizationMode="0" mediaItemType="2" />
    <MediaItem id="347" filePath="C:\Users\owner\Dropbox\Work\png\animation T=1.00347.png" arWidth="640" arHeight="480" duration="0" songTitle="" songArtist="" songAlbum="" songCopyrightUrl="" songArtistUrl="" songAudioFileUrl="" stabilizationMode="0" mediaItemType="2" />
    <MediaItem id="5515" filePath="C:\Users\owner\Dropbox\Work\png\animation T=1.05515.png" arWidth="640" arHeight="480" duration="0" songTitle="" songArtist="" songAlbum="" songCopyrightUrl="" songArtistUrl="" songAudioFileUrl="" stabilizationMode="0" mediaItemType="2" />
    <MediaItem id="348" filePath="C:\Users\owner\Dropbox\Work\png\animation T=1.00348.png" arWidth="640" arHeight="480" duration="0" songTitle="" songArtist="" songAlbum="" songCopyrightUrl="" songArtistUrl="" songAudioFileUrl="" stabilizationMode="0" mediaItemType="2" />
    <MediaItem id="5516" filePath="C:\Users\owner\Dropbox\Work\png\animation T=1.05516.png" arWidth="640" arHeight="480" duration="0" songTitle="" songArtist="" songAlbum="" songCopyrightUrl="" songArtistUrl="" songAudioFileUrl="" stabilizationMode="0" mediaItemType="2" />
    <MediaItem id="349" filePath="C:\Users\owner\Dropbox\Work\png\animation T=1.00349.png" arWidth="640" arHeight="480" duration="0" songTitle="" songArtist="" songAlbum="" songCopyrightUrl="" songArtistUrl="" songAudioFileUrl="" stabilizationMode="0" mediaItemType="2" />
    <MediaItem id="5517" filePath="C:\Users\owner\Dropbox\Work\png\animation T=1.05517.png" arWidth="640" arHeight="480" duration="0" songTitle="" songArtist="" songAlbum="" songCopyrightUrl="" songArtistUrl="" songAudioFileUrl="" stabilizationMode="0" mediaItemType="2" />
    <MediaItem id="350" filePath="C:\Users\owner\Dropbox\Work\png\animation T=1.00350.png" arWidth="640" arHeight="480" duration="0" songTitle="" songArtist="" songAlbum="" songCopyrightUrl="" songArtistUrl="" songAudioFileUrl="" stabilizationMode="0" mediaItemType="2" />
    <MediaItem id="5518" filePath="C:\Users\owner\Dropbox\Work\png\animation T=1.05518.png" arWidth="640" arHeight="480" duration="0" songTitle="" songArtist="" songAlbum="" songCopyrightUrl="" songArtistUrl="" songAudioFileUrl="" stabilizationMode="0" mediaItemType="2" />
    <MediaItem id="351" filePath="C:\Users\owner\Dropbox\Work\png\animation T=1.00351.png" arWidth="640" arHeight="480" duration="0" songTitle="" songArtist="" songAlbum="" songCopyrightUrl="" songArtistUrl="" songAudioFileUrl="" stabilizationMode="0" mediaItemType="2" />
    <MediaItem id="5519" filePath="C:\Users\owner\Dropbox\Work\png\animation T=1.05519.png" arWidth="640" arHeight="480" duration="0" songTitle="" songArtist="" songAlbum="" songCopyrightUrl="" songArtistUrl="" songAudioFileUrl="" stabilizationMode="0" mediaItemType="2" />
    <MediaItem id="352" filePath="C:\Users\owner\Dropbox\Work\png\animation T=1.00352.png" arWidth="640" arHeight="480" duration="0" songTitle="" songArtist="" songAlbum="" songCopyrightUrl="" songArtistUrl="" songAudioFileUrl="" stabilizationMode="0" mediaItemType="2" />
    <MediaItem id="5520" filePath="C:\Users\owner\Dropbox\Work\png\animation T=1.05520.png" arWidth="640" arHeight="480" duration="0" songTitle="" songArtist="" songAlbum="" songCopyrightUrl="" songArtistUrl="" songAudioFileUrl="" stabilizationMode="0" mediaItemType="2" />
    <MediaItem id="353" filePath="C:\Users\owner\Dropbox\Work\png\animation T=1.00353.png" arWidth="640" arHeight="480" duration="0" songTitle="" songArtist="" songAlbum="" songCopyrightUrl="" songArtistUrl="" songAudioFileUrl="" stabilizationMode="0" mediaItemType="2" />
    <MediaItem id="5521" filePath="C:\Users\owner\Dropbox\Work\png\animation T=1.05521.png" arWidth="640" arHeight="480" duration="0" songTitle="" songArtist="" songAlbum="" songCopyrightUrl="" songArtistUrl="" songAudioFileUrl="" stabilizationMode="0" mediaItemType="2" />
    <MediaItem id="354" filePath="C:\Users\owner\Dropbox\Work\png\animation T=1.00354.png" arWidth="640" arHeight="480" duration="0" songTitle="" songArtist="" songAlbum="" songCopyrightUrl="" songArtistUrl="" songAudioFileUrl="" stabilizationMode="0" mediaItemType="2" />
    <MediaItem id="5522" filePath="C:\Users\owner\Dropbox\Work\png\animation T=1.05522.png" arWidth="640" arHeight="480" duration="0" songTitle="" songArtist="" songAlbum="" songCopyrightUrl="" songArtistUrl="" songAudioFileUrl="" stabilizationMode="0" mediaItemType="2" />
    <MediaItem id="355" filePath="C:\Users\owner\Dropbox\Work\png\animation T=1.00355.png" arWidth="640" arHeight="480" duration="0" songTitle="" songArtist="" songAlbum="" songCopyrightUrl="" songArtistUrl="" songAudioFileUrl="" stabilizationMode="0" mediaItemType="2" />
    <MediaItem id="5523" filePath="C:\Users\owner\Dropbox\Work\png\animation T=1.05523.png" arWidth="640" arHeight="480" duration="0" songTitle="" songArtist="" songAlbum="" songCopyrightUrl="" songArtistUrl="" songAudioFileUrl="" stabilizationMode="0" mediaItemType="2" />
    <MediaItem id="356" filePath="C:\Users\owner\Dropbox\Work\png\animation T=1.00356.png" arWidth="640" arHeight="480" duration="0" songTitle="" songArtist="" songAlbum="" songCopyrightUrl="" songArtistUrl="" songAudioFileUrl="" stabilizationMode="0" mediaItemType="2" />
    <MediaItem id="5524" filePath="C:\Users\owner\Dropbox\Work\png\animation T=1.05524.png" arWidth="640" arHeight="480" duration="0" songTitle="" songArtist="" songAlbum="" songCopyrightUrl="" songArtistUrl="" songAudioFileUrl="" stabilizationMode="0" mediaItemType="2" />
    <MediaItem id="357" filePath="C:\Users\owner\Dropbox\Work\png\animation T=1.00357.png" arWidth="640" arHeight="480" duration="0" songTitle="" songArtist="" songAlbum="" songCopyrightUrl="" songArtistUrl="" songAudioFileUrl="" stabilizationMode="0" mediaItemType="2" />
    <MediaItem id="5525" filePath="C:\Users\owner\Dropbox\Work\png\animation T=1.05525.png" arWidth="640" arHeight="480" duration="0" songTitle="" songArtist="" songAlbum="" songCopyrightUrl="" songArtistUrl="" songAudioFileUrl="" stabilizationMode="0" mediaItemType="2" />
    <MediaItem id="358" filePath="C:\Users\owner\Dropbox\Work\png\animation T=1.00358.png" arWidth="640" arHeight="480" duration="0" songTitle="" songArtist="" songAlbum="" songCopyrightUrl="" songArtistUrl="" songAudioFileUrl="" stabilizationMode="0" mediaItemType="2" />
    <MediaItem id="5526" filePath="C:\Users\owner\Dropbox\Work\png\animation T=1.05526.png" arWidth="640" arHeight="480" duration="0" songTitle="" songArtist="" songAlbum="" songCopyrightUrl="" songArtistUrl="" songAudioFileUrl="" stabilizationMode="0" mediaItemType="2" />
    <MediaItem id="359" filePath="C:\Users\owner\Dropbox\Work\png\animation T=1.00359.png" arWidth="640" arHeight="480" duration="0" songTitle="" songArtist="" songAlbum="" songCopyrightUrl="" songArtistUrl="" songAudioFileUrl="" stabilizationMode="0" mediaItemType="2" />
    <MediaItem id="5527" filePath="C:\Users\owner\Dropbox\Work\png\animation T=1.05527.png" arWidth="640" arHeight="480" duration="0" songTitle="" songArtist="" songAlbum="" songCopyrightUrl="" songArtistUrl="" songAudioFileUrl="" stabilizationMode="0" mediaItemType="2" />
    <MediaItem id="360" filePath="C:\Users\owner\Dropbox\Work\png\animation T=1.00360.png" arWidth="640" arHeight="480" duration="0" songTitle="" songArtist="" songAlbum="" songCopyrightUrl="" songArtistUrl="" songAudioFileUrl="" stabilizationMode="0" mediaItemType="2" />
    <MediaItem id="5528" filePath="C:\Users\owner\Dropbox\Work\png\animation T=1.05528.png" arWidth="640" arHeight="480" duration="0" songTitle="" songArtist="" songAlbum="" songCopyrightUrl="" songArtistUrl="" songAudioFileUrl="" stabilizationMode="0" mediaItemType="2" />
    <MediaItem id="361" filePath="C:\Users\owner\Dropbox\Work\png\animation T=1.00361.png" arWidth="640" arHeight="480" duration="0" songTitle="" songArtist="" songAlbum="" songCopyrightUrl="" songArtistUrl="" songAudioFileUrl="" stabilizationMode="0" mediaItemType="2" />
    <MediaItem id="5529" filePath="C:\Users\owner\Dropbox\Work\png\animation T=1.05529.png" arWidth="640" arHeight="480" duration="0" songTitle="" songArtist="" songAlbum="" songCopyrightUrl="" songArtistUrl="" songAudioFileUrl="" stabilizationMode="0" mediaItemType="2" />
    <MediaItem id="362" filePath="C:\Users\owner\Dropbox\Work\png\animation T=1.00362.png" arWidth="640" arHeight="480" duration="0" songTitle="" songArtist="" songAlbum="" songCopyrightUrl="" songArtistUrl="" songAudioFileUrl="" stabilizationMode="0" mediaItemType="2" />
    <MediaItem id="5530" filePath="C:\Users\owner\Dropbox\Work\png\animation T=1.05530.png" arWidth="640" arHeight="480" duration="0" songTitle="" songArtist="" songAlbum="" songCopyrightUrl="" songArtistUrl="" songAudioFileUrl="" stabilizationMode="0" mediaItemType="2" />
    <MediaItem id="363" filePath="C:\Users\owner\Dropbox\Work\png\animation T=1.00363.png" arWidth="640" arHeight="480" duration="0" songTitle="" songArtist="" songAlbum="" songCopyrightUrl="" songArtistUrl="" songAudioFileUrl="" stabilizationMode="0" mediaItemType="2" />
    <MediaItem id="5531" filePath="C:\Users\owner\Dropbox\Work\png\animation T=1.05531.png" arWidth="640" arHeight="480" duration="0" songTitle="" songArtist="" songAlbum="" songCopyrightUrl="" songArtistUrl="" songAudioFileUrl="" stabilizationMode="0" mediaItemType="2" />
    <MediaItem id="364" filePath="C:\Users\owner\Dropbox\Work\png\animation T=1.00364.png" arWidth="640" arHeight="480" duration="0" songTitle="" songArtist="" songAlbum="" songCopyrightUrl="" songArtistUrl="" songAudioFileUrl="" stabilizationMode="0" mediaItemType="2" />
    <MediaItem id="5532" filePath="C:\Users\owner\Dropbox\Work\png\animation T=1.05532.png" arWidth="640" arHeight="480" duration="0" songTitle="" songArtist="" songAlbum="" songCopyrightUrl="" songArtistUrl="" songAudioFileUrl="" stabilizationMode="0" mediaItemType="2" />
    <MediaItem id="365" filePath="C:\Users\owner\Dropbox\Work\png\animation T=1.00365.png" arWidth="640" arHeight="480" duration="0" songTitle="" songArtist="" songAlbum="" songCopyrightUrl="" songArtistUrl="" songAudioFileUrl="" stabilizationMode="0" mediaItemType="2" />
    <MediaItem id="5533" filePath="C:\Users\owner\Dropbox\Work\png\animation T=1.05533.png" arWidth="640" arHeight="480" duration="0" songTitle="" songArtist="" songAlbum="" songCopyrightUrl="" songArtistUrl="" songAudioFileUrl="" stabilizationMode="0" mediaItemType="2" />
    <MediaItem id="366" filePath="C:\Users\owner\Dropbox\Work\png\animation T=1.00366.png" arWidth="640" arHeight="480" duration="0" songTitle="" songArtist="" songAlbum="" songCopyrightUrl="" songArtistUrl="" songAudioFileUrl="" stabilizationMode="0" mediaItemType="2" />
    <MediaItem id="5534" filePath="C:\Users\owner\Dropbox\Work\png\animation T=1.05534.png" arWidth="640" arHeight="480" duration="0" songTitle="" songArtist="" songAlbum="" songCopyrightUrl="" songArtistUrl="" songAudioFileUrl="" stabilizationMode="0" mediaItemType="2" />
    <MediaItem id="367" filePath="C:\Users\owner\Dropbox\Work\png\animation T=1.00367.png" arWidth="640" arHeight="480" duration="0" songTitle="" songArtist="" songAlbum="" songCopyrightUrl="" songArtistUrl="" songAudioFileUrl="" stabilizationMode="0" mediaItemType="2" />
    <MediaItem id="5535" filePath="C:\Users\owner\Dropbox\Work\png\animation T=1.05535.png" arWidth="640" arHeight="480" duration="0" songTitle="" songArtist="" songAlbum="" songCopyrightUrl="" songArtistUrl="" songAudioFileUrl="" stabilizationMode="0" mediaItemType="2" />
    <MediaItem id="368" filePath="C:\Users\owner\Dropbox\Work\png\animation T=1.00368.png" arWidth="640" arHeight="480" duration="0" songTitle="" songArtist="" songAlbum="" songCopyrightUrl="" songArtistUrl="" songAudioFileUrl="" stabilizationMode="0" mediaItemType="2" />
    <MediaItem id="5536" filePath="C:\Users\owner\Dropbox\Work\png\animation T=1.05536.png" arWidth="640" arHeight="480" duration="0" songTitle="" songArtist="" songAlbum="" songCopyrightUrl="" songArtistUrl="" songAudioFileUrl="" stabilizationMode="0" mediaItemType="2" />
    <MediaItem id="369" filePath="C:\Users\owner\Dropbox\Work\png\animation T=1.00369.png" arWidth="640" arHeight="480" duration="0" songTitle="" songArtist="" songAlbum="" songCopyrightUrl="" songArtistUrl="" songAudioFileUrl="" stabilizationMode="0" mediaItemType="2" />
    <MediaItem id="5537" filePath="C:\Users\owner\Dropbox\Work\png\animation T=1.05537.png" arWidth="640" arHeight="480" duration="0" songTitle="" songArtist="" songAlbum="" songCopyrightUrl="" songArtistUrl="" songAudioFileUrl="" stabilizationMode="0" mediaItemType="2" />
    <MediaItem id="370" filePath="C:\Users\owner\Dropbox\Work\png\animation T=1.00370.png" arWidth="640" arHeight="480" duration="0" songTitle="" songArtist="" songAlbum="" songCopyrightUrl="" songArtistUrl="" songAudioFileUrl="" stabilizationMode="0" mediaItemType="2" />
    <MediaItem id="5538" filePath="C:\Users\owner\Dropbox\Work\png\animation T=1.05538.png" arWidth="640" arHeight="480" duration="0" songTitle="" songArtist="" songAlbum="" songCopyrightUrl="" songArtistUrl="" songAudioFileUrl="" stabilizationMode="0" mediaItemType="2" />
    <MediaItem id="371" filePath="C:\Users\owner\Dropbox\Work\png\animation T=1.00371.png" arWidth="640" arHeight="480" duration="0" songTitle="" songArtist="" songAlbum="" songCopyrightUrl="" songArtistUrl="" songAudioFileUrl="" stabilizationMode="0" mediaItemType="2" />
    <MediaItem id="5539" filePath="C:\Users\owner\Dropbox\Work\png\animation T=1.05539.png" arWidth="640" arHeight="480" duration="0" songTitle="" songArtist="" songAlbum="" songCopyrightUrl="" songArtistUrl="" songAudioFileUrl="" stabilizationMode="0" mediaItemType="2" />
    <MediaItem id="372" filePath="C:\Users\owner\Dropbox\Work\png\animation T=1.00372.png" arWidth="640" arHeight="480" duration="0" songTitle="" songArtist="" songAlbum="" songCopyrightUrl="" songArtistUrl="" songAudioFileUrl="" stabilizationMode="0" mediaItemType="2" />
    <MediaItem id="5540" filePath="C:\Users\owner\Dropbox\Work\png\animation T=1.05540.png" arWidth="640" arHeight="480" duration="0" songTitle="" songArtist="" songAlbum="" songCopyrightUrl="" songArtistUrl="" songAudioFileUrl="" stabilizationMode="0" mediaItemType="2" />
    <MediaItem id="373" filePath="C:\Users\owner\Dropbox\Work\png\animation T=1.00373.png" arWidth="640" arHeight="480" duration="0" songTitle="" songArtist="" songAlbum="" songCopyrightUrl="" songArtistUrl="" songAudioFileUrl="" stabilizationMode="0" mediaItemType="2" />
    <MediaItem id="5541" filePath="C:\Users\owner\Dropbox\Work\png\animation T=1.05541.png" arWidth="640" arHeight="480" duration="0" songTitle="" songArtist="" songAlbum="" songCopyrightUrl="" songArtistUrl="" songAudioFileUrl="" stabilizationMode="0" mediaItemType="2" />
    <MediaItem id="374" filePath="C:\Users\owner\Dropbox\Work\png\animation T=1.00374.png" arWidth="640" arHeight="480" duration="0" songTitle="" songArtist="" songAlbum="" songCopyrightUrl="" songArtistUrl="" songAudioFileUrl="" stabilizationMode="0" mediaItemType="2" />
    <MediaItem id="5542" filePath="C:\Users\owner\Dropbox\Work\png\animation T=1.05542.png" arWidth="640" arHeight="480" duration="0" songTitle="" songArtist="" songAlbum="" songCopyrightUrl="" songArtistUrl="" songAudioFileUrl="" stabilizationMode="0" mediaItemType="2" />
    <MediaItem id="375" filePath="C:\Users\owner\Dropbox\Work\png\animation T=1.00375.png" arWidth="640" arHeight="480" duration="0" songTitle="" songArtist="" songAlbum="" songCopyrightUrl="" songArtistUrl="" songAudioFileUrl="" stabilizationMode="0" mediaItemType="2" />
    <MediaItem id="5543" filePath="C:\Users\owner\Dropbox\Work\png\animation T=1.05543.png" arWidth="640" arHeight="480" duration="0" songTitle="" songArtist="" songAlbum="" songCopyrightUrl="" songArtistUrl="" songAudioFileUrl="" stabilizationMode="0" mediaItemType="2" />
    <MediaItem id="376" filePath="C:\Users\owner\Dropbox\Work\png\animation T=1.00376.png" arWidth="640" arHeight="480" duration="0" songTitle="" songArtist="" songAlbum="" songCopyrightUrl="" songArtistUrl="" songAudioFileUrl="" stabilizationMode="0" mediaItemType="2" />
    <MediaItem id="5544" filePath="C:\Users\owner\Dropbox\Work\png\animation T=1.05544.png" arWidth="640" arHeight="480" duration="0" songTitle="" songArtist="" songAlbum="" songCopyrightUrl="" songArtistUrl="" songAudioFileUrl="" stabilizationMode="0" mediaItemType="2" />
    <MediaItem id="377" filePath="C:\Users\owner\Dropbox\Work\png\animation T=1.00377.png" arWidth="640" arHeight="480" duration="0" songTitle="" songArtist="" songAlbum="" songCopyrightUrl="" songArtistUrl="" songAudioFileUrl="" stabilizationMode="0" mediaItemType="2" />
    <MediaItem id="5545" filePath="C:\Users\owner\Dropbox\Work\png\animation T=1.05545.png" arWidth="640" arHeight="480" duration="0" songTitle="" songArtist="" songAlbum="" songCopyrightUrl="" songArtistUrl="" songAudioFileUrl="" stabilizationMode="0" mediaItemType="2" />
    <MediaItem id="378" filePath="C:\Users\owner\Dropbox\Work\png\animation T=1.00378.png" arWidth="640" arHeight="480" duration="0" songTitle="" songArtist="" songAlbum="" songCopyrightUrl="" songArtistUrl="" songAudioFileUrl="" stabilizationMode="0" mediaItemType="2" />
    <MediaItem id="5546" filePath="C:\Users\owner\Dropbox\Work\png\animation T=1.05546.png" arWidth="640" arHeight="480" duration="0" songTitle="" songArtist="" songAlbum="" songCopyrightUrl="" songArtistUrl="" songAudioFileUrl="" stabilizationMode="0" mediaItemType="2" />
    <MediaItem id="379" filePath="C:\Users\owner\Dropbox\Work\png\animation T=1.00379.png" arWidth="640" arHeight="480" duration="0" songTitle="" songArtist="" songAlbum="" songCopyrightUrl="" songArtistUrl="" songAudioFileUrl="" stabilizationMode="0" mediaItemType="2" />
    <MediaItem id="5547" filePath="C:\Users\owner\Dropbox\Work\png\animation T=1.05547.png" arWidth="640" arHeight="480" duration="0" songTitle="" songArtist="" songAlbum="" songCopyrightUrl="" songArtistUrl="" songAudioFileUrl="" stabilizationMode="0" mediaItemType="2" />
    <MediaItem id="380" filePath="C:\Users\owner\Dropbox\Work\png\animation T=1.00380.png" arWidth="640" arHeight="480" duration="0" songTitle="" songArtist="" songAlbum="" songCopyrightUrl="" songArtistUrl="" songAudioFileUrl="" stabilizationMode="0" mediaItemType="2" />
    <MediaItem id="5548" filePath="C:\Users\owner\Dropbox\Work\png\animation T=1.05548.png" arWidth="640" arHeight="480" duration="0" songTitle="" songArtist="" songAlbum="" songCopyrightUrl="" songArtistUrl="" songAudioFileUrl="" stabilizationMode="0" mediaItemType="2" />
    <MediaItem id="381" filePath="C:\Users\owner\Dropbox\Work\png\animation T=1.00381.png" arWidth="640" arHeight="480" duration="0" songTitle="" songArtist="" songAlbum="" songCopyrightUrl="" songArtistUrl="" songAudioFileUrl="" stabilizationMode="0" mediaItemType="2" />
    <MediaItem id="5549" filePath="C:\Users\owner\Dropbox\Work\png\animation T=1.05549.png" arWidth="640" arHeight="480" duration="0" songTitle="" songArtist="" songAlbum="" songCopyrightUrl="" songArtistUrl="" songAudioFileUrl="" stabilizationMode="0" mediaItemType="2" />
    <MediaItem id="382" filePath="C:\Users\owner\Dropbox\Work\png\animation T=1.00382.png" arWidth="640" arHeight="480" duration="0" songTitle="" songArtist="" songAlbum="" songCopyrightUrl="" songArtistUrl="" songAudioFileUrl="" stabilizationMode="0" mediaItemType="2" />
    <MediaItem id="5550" filePath="C:\Users\owner\Dropbox\Work\png\animation T=1.05550.png" arWidth="640" arHeight="480" duration="0" songTitle="" songArtist="" songAlbum="" songCopyrightUrl="" songArtistUrl="" songAudioFileUrl="" stabilizationMode="0" mediaItemType="2" />
    <MediaItem id="383" filePath="C:\Users\owner\Dropbox\Work\png\animation T=1.00383.png" arWidth="640" arHeight="480" duration="0" songTitle="" songArtist="" songAlbum="" songCopyrightUrl="" songArtistUrl="" songAudioFileUrl="" stabilizationMode="0" mediaItemType="2" />
    <MediaItem id="5551" filePath="C:\Users\owner\Dropbox\Work\png\animation T=1.05551.png" arWidth="640" arHeight="480" duration="0" songTitle="" songArtist="" songAlbum="" songCopyrightUrl="" songArtistUrl="" songAudioFileUrl="" stabilizationMode="0" mediaItemType="2" />
    <MediaItem id="384" filePath="C:\Users\owner\Dropbox\Work\png\animation T=1.00384.png" arWidth="640" arHeight="480" duration="0" songTitle="" songArtist="" songAlbum="" songCopyrightUrl="" songArtistUrl="" songAudioFileUrl="" stabilizationMode="0" mediaItemType="2" />
    <MediaItem id="5552" filePath="C:\Users\owner\Dropbox\Work\png\animation T=1.05552.png" arWidth="640" arHeight="480" duration="0" songTitle="" songArtist="" songAlbum="" songCopyrightUrl="" songArtistUrl="" songAudioFileUrl="" stabilizationMode="0" mediaItemType="2" />
    <MediaItem id="385" filePath="C:\Users\owner\Dropbox\Work\png\animation T=1.00385.png" arWidth="640" arHeight="480" duration="0" songTitle="" songArtist="" songAlbum="" songCopyrightUrl="" songArtistUrl="" songAudioFileUrl="" stabilizationMode="0" mediaItemType="2" />
    <MediaItem id="5553" filePath="C:\Users\owner\Dropbox\Work\png\animation T=1.05553.png" arWidth="640" arHeight="480" duration="0" songTitle="" songArtist="" songAlbum="" songCopyrightUrl="" songArtistUrl="" songAudioFileUrl="" stabilizationMode="0" mediaItemType="2" />
    <MediaItem id="386" filePath="C:\Users\owner\Dropbox\Work\png\animation T=1.00386.png" arWidth="640" arHeight="480" duration="0" songTitle="" songArtist="" songAlbum="" songCopyrightUrl="" songArtistUrl="" songAudioFileUrl="" stabilizationMode="0" mediaItemType="2" />
    <MediaItem id="5554" filePath="C:\Users\owner\Dropbox\Work\png\animation T=1.05554.png" arWidth="640" arHeight="480" duration="0" songTitle="" songArtist="" songAlbum="" songCopyrightUrl="" songArtistUrl="" songAudioFileUrl="" stabilizationMode="0" mediaItemType="2" />
    <MediaItem id="387" filePath="C:\Users\owner\Dropbox\Work\png\animation T=1.00387.png" arWidth="640" arHeight="480" duration="0" songTitle="" songArtist="" songAlbum="" songCopyrightUrl="" songArtistUrl="" songAudioFileUrl="" stabilizationMode="0" mediaItemType="2" />
    <MediaItem id="5555" filePath="C:\Users\owner\Dropbox\Work\png\animation T=1.05555.png" arWidth="640" arHeight="480" duration="0" songTitle="" songArtist="" songAlbum="" songCopyrightUrl="" songArtistUrl="" songAudioFileUrl="" stabilizationMode="0" mediaItemType="2" />
    <MediaItem id="388" filePath="C:\Users\owner\Dropbox\Work\png\animation T=1.00388.png" arWidth="640" arHeight="480" duration="0" songTitle="" songArtist="" songAlbum="" songCopyrightUrl="" songArtistUrl="" songAudioFileUrl="" stabilizationMode="0" mediaItemType="2" />
    <MediaItem id="5556" filePath="C:\Users\owner\Dropbox\Work\png\animation T=1.05556.png" arWidth="640" arHeight="480" duration="0" songTitle="" songArtist="" songAlbum="" songCopyrightUrl="" songArtistUrl="" songAudioFileUrl="" stabilizationMode="0" mediaItemType="2" />
    <MediaItem id="389" filePath="C:\Users\owner\Dropbox\Work\png\animation T=1.00389.png" arWidth="640" arHeight="480" duration="0" songTitle="" songArtist="" songAlbum="" songCopyrightUrl="" songArtistUrl="" songAudioFileUrl="" stabilizationMode="0" mediaItemType="2" />
    <MediaItem id="5557" filePath="C:\Users\owner\Dropbox\Work\png\animation T=1.05557.png" arWidth="640" arHeight="480" duration="0" songTitle="" songArtist="" songAlbum="" songCopyrightUrl="" songArtistUrl="" songAudioFileUrl="" stabilizationMode="0" mediaItemType="2" />
    <MediaItem id="390" filePath="C:\Users\owner\Dropbox\Work\png\animation T=1.00390.png" arWidth="640" arHeight="480" duration="0" songTitle="" songArtist="" songAlbum="" songCopyrightUrl="" songArtistUrl="" songAudioFileUrl="" stabilizationMode="0" mediaItemType="2" />
    <MediaItem id="5558" filePath="C:\Users\owner\Dropbox\Work\png\animation T=1.05558.png" arWidth="640" arHeight="480" duration="0" songTitle="" songArtist="" songAlbum="" songCopyrightUrl="" songArtistUrl="" songAudioFileUrl="" stabilizationMode="0" mediaItemType="2" />
    <MediaItem id="391" filePath="C:\Users\owner\Dropbox\Work\png\animation T=1.00391.png" arWidth="640" arHeight="480" duration="0" songTitle="" songArtist="" songAlbum="" songCopyrightUrl="" songArtistUrl="" songAudioFileUrl="" stabilizationMode="0" mediaItemType="2" />
    <MediaItem id="5559" filePath="C:\Users\owner\Dropbox\Work\png\animation T=1.05559.png" arWidth="640" arHeight="480" duration="0" songTitle="" songArtist="" songAlbum="" songCopyrightUrl="" songArtistUrl="" songAudioFileUrl="" stabilizationMode="0" mediaItemType="2" />
    <MediaItem id="392" filePath="C:\Users\owner\Dropbox\Work\png\animation T=1.00392.png" arWidth="640" arHeight="480" duration="0" songTitle="" songArtist="" songAlbum="" songCopyrightUrl="" songArtistUrl="" songAudioFileUrl="" stabilizationMode="0" mediaItemType="2" />
    <MediaItem id="5560" filePath="C:\Users\owner\Dropbox\Work\png\animation T=1.05560.png" arWidth="640" arHeight="480" duration="0" songTitle="" songArtist="" songAlbum="" songCopyrightUrl="" songArtistUrl="" songAudioFileUrl="" stabilizationMode="0" mediaItemType="2" />
    <MediaItem id="393" filePath="C:\Users\owner\Dropbox\Work\png\animation T=1.00393.png" arWidth="640" arHeight="480" duration="0" songTitle="" songArtist="" songAlbum="" songCopyrightUrl="" songArtistUrl="" songAudioFileUrl="" stabilizationMode="0" mediaItemType="2" />
    <MediaItem id="5561" filePath="C:\Users\owner\Dropbox\Work\png\animation T=1.05561.png" arWidth="640" arHeight="480" duration="0" songTitle="" songArtist="" songAlbum="" songCopyrightUrl="" songArtistUrl="" songAudioFileUrl="" stabilizationMode="0" mediaItemType="2" />
    <MediaItem id="394" filePath="C:\Users\owner\Dropbox\Work\png\animation T=1.00394.png" arWidth="640" arHeight="480" duration="0" songTitle="" songArtist="" songAlbum="" songCopyrightUrl="" songArtistUrl="" songAudioFileUrl="" stabilizationMode="0" mediaItemType="2" />
    <MediaItem id="5562" filePath="C:\Users\owner\Dropbox\Work\png\animation T=1.05562.png" arWidth="640" arHeight="480" duration="0" songTitle="" songArtist="" songAlbum="" songCopyrightUrl="" songArtistUrl="" songAudioFileUrl="" stabilizationMode="0" mediaItemType="2" />
    <MediaItem id="395" filePath="C:\Users\owner\Dropbox\Work\png\animation T=1.00395.png" arWidth="640" arHeight="480" duration="0" songTitle="" songArtist="" songAlbum="" songCopyrightUrl="" songArtistUrl="" songAudioFileUrl="" stabilizationMode="0" mediaItemType="2" />
    <MediaItem id="5563" filePath="C:\Users\owner\Dropbox\Work\png\animation T=1.05563.png" arWidth="640" arHeight="480" duration="0" songTitle="" songArtist="" songAlbum="" songCopyrightUrl="" songArtistUrl="" songAudioFileUrl="" stabilizationMode="0" mediaItemType="2" />
    <MediaItem id="396" filePath="C:\Users\owner\Dropbox\Work\png\animation T=1.00396.png" arWidth="640" arHeight="480" duration="0" songTitle="" songArtist="" songAlbum="" songCopyrightUrl="" songArtistUrl="" songAudioFileUrl="" stabilizationMode="0" mediaItemType="2" />
    <MediaItem id="5564" filePath="C:\Users\owner\Dropbox\Work\png\animation T=1.05564.png" arWidth="640" arHeight="480" duration="0" songTitle="" songArtist="" songAlbum="" songCopyrightUrl="" songArtistUrl="" songAudioFileUrl="" stabilizationMode="0" mediaItemType="2" />
    <MediaItem id="397" filePath="C:\Users\owner\Dropbox\Work\png\animation T=1.00397.png" arWidth="640" arHeight="480" duration="0" songTitle="" songArtist="" songAlbum="" songCopyrightUrl="" songArtistUrl="" songAudioFileUrl="" stabilizationMode="0" mediaItemType="2" />
    <MediaItem id="5565" filePath="C:\Users\owner\Dropbox\Work\png\animation T=1.05565.png" arWidth="640" arHeight="480" duration="0" songTitle="" songArtist="" songAlbum="" songCopyrightUrl="" songArtistUrl="" songAudioFileUrl="" stabilizationMode="0" mediaItemType="2" />
    <MediaItem id="398" filePath="C:\Users\owner\Dropbox\Work\png\animation T=1.00398.png" arWidth="640" arHeight="480" duration="0" songTitle="" songArtist="" songAlbum="" songCopyrightUrl="" songArtistUrl="" songAudioFileUrl="" stabilizationMode="0" mediaItemType="2" />
    <MediaItem id="5566" filePath="C:\Users\owner\Dropbox\Work\png\animation T=1.05566.png" arWidth="640" arHeight="480" duration="0" songTitle="" songArtist="" songAlbum="" songCopyrightUrl="" songArtistUrl="" songAudioFileUrl="" stabilizationMode="0" mediaItemType="2" />
    <MediaItem id="399" filePath="C:\Users\owner\Dropbox\Work\png\animation T=1.00399.png" arWidth="640" arHeight="480" duration="0" songTitle="" songArtist="" songAlbum="" songCopyrightUrl="" songArtistUrl="" songAudioFileUrl="" stabilizationMode="0" mediaItemType="2" />
    <MediaItem id="5567" filePath="C:\Users\owner\Dropbox\Work\png\animation T=1.05567.png" arWidth="640" arHeight="480" duration="0" songTitle="" songArtist="" songAlbum="" songCopyrightUrl="" songArtistUrl="" songAudioFileUrl="" stabilizationMode="0" mediaItemType="2" />
    <MediaItem id="400" filePath="C:\Users\owner\Dropbox\Work\png\animation T=1.00400.png" arWidth="640" arHeight="480" duration="0" songTitle="" songArtist="" songAlbum="" songCopyrightUrl="" songArtistUrl="" songAudioFileUrl="" stabilizationMode="0" mediaItemType="2" />
    <MediaItem id="5568" filePath="C:\Users\owner\Dropbox\Work\png\animation T=1.05568.png" arWidth="640" arHeight="480" duration="0" songTitle="" songArtist="" songAlbum="" songCopyrightUrl="" songArtistUrl="" songAudioFileUrl="" stabilizationMode="0" mediaItemType="2" />
    <MediaItem id="401" filePath="C:\Users\owner\Dropbox\Work\png\animation T=1.00401.png" arWidth="640" arHeight="480" duration="0" songTitle="" songArtist="" songAlbum="" songCopyrightUrl="" songArtistUrl="" songAudioFileUrl="" stabilizationMode="0" mediaItemType="2" />
    <MediaItem id="5569" filePath="C:\Users\owner\Dropbox\Work\png\animation T=1.05569.png" arWidth="640" arHeight="480" duration="0" songTitle="" songArtist="" songAlbum="" songCopyrightUrl="" songArtistUrl="" songAudioFileUrl="" stabilizationMode="0" mediaItemType="2" />
    <MediaItem id="402" filePath="C:\Users\owner\Dropbox\Work\png\animation T=1.00402.png" arWidth="640" arHeight="480" duration="0" songTitle="" songArtist="" songAlbum="" songCopyrightUrl="" songArtistUrl="" songAudioFileUrl="" stabilizationMode="0" mediaItemType="2" />
    <MediaItem id="5570" filePath="C:\Users\owner\Dropbox\Work\png\animation T=1.05570.png" arWidth="640" arHeight="480" duration="0" songTitle="" songArtist="" songAlbum="" songCopyrightUrl="" songArtistUrl="" songAudioFileUrl="" stabilizationMode="0" mediaItemType="2" />
    <MediaItem id="403" filePath="C:\Users\owner\Dropbox\Work\png\animation T=1.00403.png" arWidth="640" arHeight="480" duration="0" songTitle="" songArtist="" songAlbum="" songCopyrightUrl="" songArtistUrl="" songAudioFileUrl="" stabilizationMode="0" mediaItemType="2" />
    <MediaItem id="5571" filePath="C:\Users\owner\Dropbox\Work\png\animation T=1.05571.png" arWidth="640" arHeight="480" duration="0" songTitle="" songArtist="" songAlbum="" songCopyrightUrl="" songArtistUrl="" songAudioFileUrl="" stabilizationMode="0" mediaItemType="2" />
    <MediaItem id="404" filePath="C:\Users\owner\Dropbox\Work\png\animation T=1.00404.png" arWidth="640" arHeight="480" duration="0" songTitle="" songArtist="" songAlbum="" songCopyrightUrl="" songArtistUrl="" songAudioFileUrl="" stabilizationMode="0" mediaItemType="2" />
    <MediaItem id="5572" filePath="C:\Users\owner\Dropbox\Work\png\animation T=1.05572.png" arWidth="640" arHeight="480" duration="0" songTitle="" songArtist="" songAlbum="" songCopyrightUrl="" songArtistUrl="" songAudioFileUrl="" stabilizationMode="0" mediaItemType="2" />
    <MediaItem id="405" filePath="C:\Users\owner\Dropbox\Work\png\animation T=1.00405.png" arWidth="640" arHeight="480" duration="0" songTitle="" songArtist="" songAlbum="" songCopyrightUrl="" songArtistUrl="" songAudioFileUrl="" stabilizationMode="0" mediaItemType="2" />
    <MediaItem id="5573" filePath="C:\Users\owner\Dropbox\Work\png\animation T=1.05573.png" arWidth="640" arHeight="480" duration="0" songTitle="" songArtist="" songAlbum="" songCopyrightUrl="" songArtistUrl="" songAudioFileUrl="" stabilizationMode="0" mediaItemType="2" />
    <MediaItem id="406" filePath="C:\Users\owner\Dropbox\Work\png\animation T=1.00406.png" arWidth="640" arHeight="480" duration="0" songTitle="" songArtist="" songAlbum="" songCopyrightUrl="" songArtistUrl="" songAudioFileUrl="" stabilizationMode="0" mediaItemType="2" />
    <MediaItem id="5574" filePath="C:\Users\owner\Dropbox\Work\png\animation T=1.05574.png" arWidth="640" arHeight="480" duration="0" songTitle="" songArtist="" songAlbum="" songCopyrightUrl="" songArtistUrl="" songAudioFileUrl="" stabilizationMode="0" mediaItemType="2" />
    <MediaItem id="407" filePath="C:\Users\owner\Dropbox\Work\png\animation T=1.00407.png" arWidth="640" arHeight="480" duration="0" songTitle="" songArtist="" songAlbum="" songCopyrightUrl="" songArtistUrl="" songAudioFileUrl="" stabilizationMode="0" mediaItemType="2" />
    <MediaItem id="5575" filePath="C:\Users\owner\Dropbox\Work\png\animation T=1.05575.png" arWidth="640" arHeight="480" duration="0" songTitle="" songArtist="" songAlbum="" songCopyrightUrl="" songArtistUrl="" songAudioFileUrl="" stabilizationMode="0" mediaItemType="2" />
    <MediaItem id="408" filePath="C:\Users\owner\Dropbox\Work\png\animation T=1.00408.png" arWidth="640" arHeight="480" duration="0" songTitle="" songArtist="" songAlbum="" songCopyrightUrl="" songArtistUrl="" songAudioFileUrl="" stabilizationMode="0" mediaItemType="2" />
    <MediaItem id="5576" filePath="C:\Users\owner\Dropbox\Work\png\animation T=1.05576.png" arWidth="640" arHeight="480" duration="0" songTitle="" songArtist="" songAlbum="" songCopyrightUrl="" songArtistUrl="" songAudioFileUrl="" stabilizationMode="0" mediaItemType="2" />
    <MediaItem id="409" filePath="C:\Users\owner\Dropbox\Work\png\animation T=1.00409.png" arWidth="640" arHeight="480" duration="0" songTitle="" songArtist="" songAlbum="" songCopyrightUrl="" songArtistUrl="" songAudioFileUrl="" stabilizationMode="0" mediaItemType="2" />
    <MediaItem id="5577" filePath="C:\Users\owner\Dropbox\Work\png\animation T=1.05577.png" arWidth="640" arHeight="480" duration="0" songTitle="" songArtist="" songAlbum="" songCopyrightUrl="" songArtistUrl="" songAudioFileUrl="" stabilizationMode="0" mediaItemType="2" />
    <MediaItem id="410" filePath="C:\Users\owner\Dropbox\Work\png\animation T=1.00410.png" arWidth="640" arHeight="480" duration="0" songTitle="" songArtist="" songAlbum="" songCopyrightUrl="" songArtistUrl="" songAudioFileUrl="" stabilizationMode="0" mediaItemType="2" />
    <MediaItem id="5578" filePath="C:\Users\owner\Dropbox\Work\png\animation T=1.05578.png" arWidth="640" arHeight="480" duration="0" songTitle="" songArtist="" songAlbum="" songCopyrightUrl="" songArtistUrl="" songAudioFileUrl="" stabilizationMode="0" mediaItemType="2" />
    <MediaItem id="411" filePath="C:\Users\owner\Dropbox\Work\png\animation T=1.00411.png" arWidth="640" arHeight="480" duration="0" songTitle="" songArtist="" songAlbum="" songCopyrightUrl="" songArtistUrl="" songAudioFileUrl="" stabilizationMode="0" mediaItemType="2" />
    <MediaItem id="5579" filePath="C:\Users\owner\Dropbox\Work\png\animation T=1.05579.png" arWidth="640" arHeight="480" duration="0" songTitle="" songArtist="" songAlbum="" songCopyrightUrl="" songArtistUrl="" songAudioFileUrl="" stabilizationMode="0" mediaItemType="2" />
    <MediaItem id="412" filePath="C:\Users\owner\Dropbox\Work\png\animation T=1.00412.png" arWidth="640" arHeight="480" duration="0" songTitle="" songArtist="" songAlbum="" songCopyrightUrl="" songArtistUrl="" songAudioFileUrl="" stabilizationMode="0" mediaItemType="2" />
    <MediaItem id="5580" filePath="C:\Users\owner\Dropbox\Work\png\animation T=1.05580.png" arWidth="640" arHeight="480" duration="0" songTitle="" songArtist="" songAlbum="" songCopyrightUrl="" songArtistUrl="" songAudioFileUrl="" stabilizationMode="0" mediaItemType="2" />
    <MediaItem id="413" filePath="C:\Users\owner\Dropbox\Work\png\animation T=1.00413.png" arWidth="640" arHeight="480" duration="0" songTitle="" songArtist="" songAlbum="" songCopyrightUrl="" songArtistUrl="" songAudioFileUrl="" stabilizationMode="0" mediaItemType="2" />
    <MediaItem id="5581" filePath="C:\Users\owner\Dropbox\Work\png\animation T=1.05581.png" arWidth="640" arHeight="480" duration="0" songTitle="" songArtist="" songAlbum="" songCopyrightUrl="" songArtistUrl="" songAudioFileUrl="" stabilizationMode="0" mediaItemType="2" />
    <MediaItem id="414" filePath="C:\Users\owner\Dropbox\Work\png\animation T=1.00414.png" arWidth="640" arHeight="480" duration="0" songTitle="" songArtist="" songAlbum="" songCopyrightUrl="" songArtistUrl="" songAudioFileUrl="" stabilizationMode="0" mediaItemType="2" />
    <MediaItem id="5582" filePath="C:\Users\owner\Dropbox\Work\png\animation T=1.05582.png" arWidth="640" arHeight="480" duration="0" songTitle="" songArtist="" songAlbum="" songCopyrightUrl="" songArtistUrl="" songAudioFileUrl="" stabilizationMode="0" mediaItemType="2" />
    <MediaItem id="415" filePath="C:\Users\owner\Dropbox\Work\png\animation T=1.00415.png" arWidth="640" arHeight="480" duration="0" songTitle="" songArtist="" songAlbum="" songCopyrightUrl="" songArtistUrl="" songAudioFileUrl="" stabilizationMode="0" mediaItemType="2" />
    <MediaItem id="5583" filePath="C:\Users\owner\Dropbox\Work\png\animation T=1.05583.png" arWidth="640" arHeight="480" duration="0" songTitle="" songArtist="" songAlbum="" songCopyrightUrl="" songArtistUrl="" songAudioFileUrl="" stabilizationMode="0" mediaItemType="2" />
    <MediaItem id="416" filePath="C:\Users\owner\Dropbox\Work\png\animation T=1.00416.png" arWidth="640" arHeight="480" duration="0" songTitle="" songArtist="" songAlbum="" songCopyrightUrl="" songArtistUrl="" songAudioFileUrl="" stabilizationMode="0" mediaItemType="2" />
    <MediaItem id="5584" filePath="C:\Users\owner\Dropbox\Work\png\animation T=1.05584.png" arWidth="640" arHeight="480" duration="0" songTitle="" songArtist="" songAlbum="" songCopyrightUrl="" songArtistUrl="" songAudioFileUrl="" stabilizationMode="0" mediaItemType="2" />
    <MediaItem id="417" filePath="C:\Users\owner\Dropbox\Work\png\animation T=1.00417.png" arWidth="640" arHeight="480" duration="0" songTitle="" songArtist="" songAlbum="" songCopyrightUrl="" songArtistUrl="" songAudioFileUrl="" stabilizationMode="0" mediaItemType="2" />
    <MediaItem id="5585" filePath="C:\Users\owner\Dropbox\Work\png\animation T=1.05585.png" arWidth="640" arHeight="480" duration="0" songTitle="" songArtist="" songAlbum="" songCopyrightUrl="" songArtistUrl="" songAudioFileUrl="" stabilizationMode="0" mediaItemType="2" />
    <MediaItem id="418" filePath="C:\Users\owner\Dropbox\Work\png\animation T=1.00418.png" arWidth="640" arHeight="480" duration="0" songTitle="" songArtist="" songAlbum="" songCopyrightUrl="" songArtistUrl="" songAudioFileUrl="" stabilizationMode="0" mediaItemType="2" />
    <MediaItem id="5586" filePath="C:\Users\owner\Dropbox\Work\png\animation T=1.05586.png" arWidth="640" arHeight="480" duration="0" songTitle="" songArtist="" songAlbum="" songCopyrightUrl="" songArtistUrl="" songAudioFileUrl="" stabilizationMode="0" mediaItemType="2" />
    <MediaItem id="419" filePath="C:\Users\owner\Dropbox\Work\png\animation T=1.00419.png" arWidth="640" arHeight="480" duration="0" songTitle="" songArtist="" songAlbum="" songCopyrightUrl="" songArtistUrl="" songAudioFileUrl="" stabilizationMode="0" mediaItemType="2" />
    <MediaItem id="5587" filePath="C:\Users\owner\Dropbox\Work\png\animation T=1.05587.png" arWidth="640" arHeight="480" duration="0" songTitle="" songArtist="" songAlbum="" songCopyrightUrl="" songArtistUrl="" songAudioFileUrl="" stabilizationMode="0" mediaItemType="2" />
    <MediaItem id="420" filePath="C:\Users\owner\Dropbox\Work\png\animation T=1.00420.png" arWidth="640" arHeight="480" duration="0" songTitle="" songArtist="" songAlbum="" songCopyrightUrl="" songArtistUrl="" songAudioFileUrl="" stabilizationMode="0" mediaItemType="2" />
    <MediaItem id="5588" filePath="C:\Users\owner\Dropbox\Work\png\animation T=1.05588.png" arWidth="640" arHeight="480" duration="0" songTitle="" songArtist="" songAlbum="" songCopyrightUrl="" songArtistUrl="" songAudioFileUrl="" stabilizationMode="0" mediaItemType="2" />
    <MediaItem id="421" filePath="C:\Users\owner\Dropbox\Work\png\animation T=1.00421.png" arWidth="640" arHeight="480" duration="0" songTitle="" songArtist="" songAlbum="" songCopyrightUrl="" songArtistUrl="" songAudioFileUrl="" stabilizationMode="0" mediaItemType="2" />
    <MediaItem id="5589" filePath="C:\Users\owner\Dropbox\Work\png\animation T=1.05589.png" arWidth="640" arHeight="480" duration="0" songTitle="" songArtist="" songAlbum="" songCopyrightUrl="" songArtistUrl="" songAudioFileUrl="" stabilizationMode="0" mediaItemType="2" />
    <MediaItem id="422" filePath="C:\Users\owner\Dropbox\Work\png\animation T=1.00422.png" arWidth="640" arHeight="480" duration="0" songTitle="" songArtist="" songAlbum="" songCopyrightUrl="" songArtistUrl="" songAudioFileUrl="" stabilizationMode="0" mediaItemType="2" />
    <MediaItem id="5590" filePath="C:\Users\owner\Dropbox\Work\png\animation T=1.05590.png" arWidth="640" arHeight="480" duration="0" songTitle="" songArtist="" songAlbum="" songCopyrightUrl="" songArtistUrl="" songAudioFileUrl="" stabilizationMode="0" mediaItemType="2" />
    <MediaItem id="423" filePath="C:\Users\owner\Dropbox\Work\png\animation T=1.00423.png" arWidth="640" arHeight="480" duration="0" songTitle="" songArtist="" songAlbum="" songCopyrightUrl="" songArtistUrl="" songAudioFileUrl="" stabilizationMode="0" mediaItemType="2" />
    <MediaItem id="5591" filePath="C:\Users\owner\Dropbox\Work\png\animation T=1.05591.png" arWidth="640" arHeight="480" duration="0" songTitle="" songArtist="" songAlbum="" songCopyrightUrl="" songArtistUrl="" songAudioFileUrl="" stabilizationMode="0" mediaItemType="2" />
    <MediaItem id="424" filePath="C:\Users\owner\Dropbox\Work\png\animation T=1.00424.png" arWidth="640" arHeight="480" duration="0" songTitle="" songArtist="" songAlbum="" songCopyrightUrl="" songArtistUrl="" songAudioFileUrl="" stabilizationMode="0" mediaItemType="2" />
    <MediaItem id="5592" filePath="C:\Users\owner\Dropbox\Work\png\animation T=1.05592.png" arWidth="640" arHeight="480" duration="0" songTitle="" songArtist="" songAlbum="" songCopyrightUrl="" songArtistUrl="" songAudioFileUrl="" stabilizationMode="0" mediaItemType="2" />
    <MediaItem id="425" filePath="C:\Users\owner\Dropbox\Work\png\animation T=1.00425.png" arWidth="640" arHeight="480" duration="0" songTitle="" songArtist="" songAlbum="" songCopyrightUrl="" songArtistUrl="" songAudioFileUrl="" stabilizationMode="0" mediaItemType="2" />
    <MediaItem id="5593" filePath="C:\Users\owner\Dropbox\Work\png\animation T=1.05593.png" arWidth="640" arHeight="480" duration="0" songTitle="" songArtist="" songAlbum="" songCopyrightUrl="" songArtistUrl="" songAudioFileUrl="" stabilizationMode="0" mediaItemType="2" />
    <MediaItem id="426" filePath="C:\Users\owner\Dropbox\Work\png\animation T=1.00426.png" arWidth="640" arHeight="480" duration="0" songTitle="" songArtist="" songAlbum="" songCopyrightUrl="" songArtistUrl="" songAudioFileUrl="" stabilizationMode="0" mediaItemType="2" />
    <MediaItem id="5594" filePath="C:\Users\owner\Dropbox\Work\png\animation T=1.05594.png" arWidth="640" arHeight="480" duration="0" songTitle="" songArtist="" songAlbum="" songCopyrightUrl="" songArtistUrl="" songAudioFileUrl="" stabilizationMode="0" mediaItemType="2" />
    <MediaItem id="427" filePath="C:\Users\owner\Dropbox\Work\png\animation T=1.00427.png" arWidth="640" arHeight="480" duration="0" songTitle="" songArtist="" songAlbum="" songCopyrightUrl="" songArtistUrl="" songAudioFileUrl="" stabilizationMode="0" mediaItemType="2" />
    <MediaItem id="5595" filePath="C:\Users\owner\Dropbox\Work\png\animation T=1.05595.png" arWidth="640" arHeight="480" duration="0" songTitle="" songArtist="" songAlbum="" songCopyrightUrl="" songArtistUrl="" songAudioFileUrl="" stabilizationMode="0" mediaItemType="2" />
    <MediaItem id="428" filePath="C:\Users\owner\Dropbox\Work\png\animation T=1.00428.png" arWidth="640" arHeight="480" duration="0" songTitle="" songArtist="" songAlbum="" songCopyrightUrl="" songArtistUrl="" songAudioFileUrl="" stabilizationMode="0" mediaItemType="2" />
    <MediaItem id="5596" filePath="C:\Users\owner\Dropbox\Work\png\animation T=1.05596.png" arWidth="640" arHeight="480" duration="0" songTitle="" songArtist="" songAlbum="" songCopyrightUrl="" songArtistUrl="" songAudioFileUrl="" stabilizationMode="0" mediaItemType="2" />
    <MediaItem id="429" filePath="C:\Users\owner\Dropbox\Work\png\animation T=1.00429.png" arWidth="640" arHeight="480" duration="0" songTitle="" songArtist="" songAlbum="" songCopyrightUrl="" songArtistUrl="" songAudioFileUrl="" stabilizationMode="0" mediaItemType="2" />
    <MediaItem id="5597" filePath="C:\Users\owner\Dropbox\Work\png\animation T=1.05597.png" arWidth="640" arHeight="480" duration="0" songTitle="" songArtist="" songAlbum="" songCopyrightUrl="" songArtistUrl="" songAudioFileUrl="" stabilizationMode="0" mediaItemType="2" />
    <MediaItem id="430" filePath="C:\Users\owner\Dropbox\Work\png\animation T=1.00430.png" arWidth="640" arHeight="480" duration="0" songTitle="" songArtist="" songAlbum="" songCopyrightUrl="" songArtistUrl="" songAudioFileUrl="" stabilizationMode="0" mediaItemType="2" />
    <MediaItem id="5598" filePath="C:\Users\owner\Dropbox\Work\png\animation T=1.05598.png" arWidth="640" arHeight="480" duration="0" songTitle="" songArtist="" songAlbum="" songCopyrightUrl="" songArtistUrl="" songAudioFileUrl="" stabilizationMode="0" mediaItemType="2" />
    <MediaItem id="431" filePath="C:\Users\owner\Dropbox\Work\png\animation T=1.00431.png" arWidth="640" arHeight="480" duration="0" songTitle="" songArtist="" songAlbum="" songCopyrightUrl="" songArtistUrl="" songAudioFileUrl="" stabilizationMode="0" mediaItemType="2" />
    <MediaItem id="5599" filePath="C:\Users\owner\Dropbox\Work\png\animation T=1.05599.png" arWidth="640" arHeight="480" duration="0" songTitle="" songArtist="" songAlbum="" songCopyrightUrl="" songArtistUrl="" songAudioFileUrl="" stabilizationMode="0" mediaItemType="2" />
    <MediaItem id="432" filePath="C:\Users\owner\Dropbox\Work\png\animation T=1.00432.png" arWidth="640" arHeight="480" duration="0" songTitle="" songArtist="" songAlbum="" songCopyrightUrl="" songArtistUrl="" songAudioFileUrl="" stabilizationMode="0" mediaItemType="2" />
    <MediaItem id="5600" filePath="C:\Users\owner\Dropbox\Work\png\animation T=1.05600.png" arWidth="640" arHeight="480" duration="0" songTitle="" songArtist="" songAlbum="" songCopyrightUrl="" songArtistUrl="" songAudioFileUrl="" stabilizationMode="0" mediaItemType="2" />
    <MediaItem id="433" filePath="C:\Users\owner\Dropbox\Work\png\animation T=1.00433.png" arWidth="640" arHeight="480" duration="0" songTitle="" songArtist="" songAlbum="" songCopyrightUrl="" songArtistUrl="" songAudioFileUrl="" stabilizationMode="0" mediaItemType="2" />
    <MediaItem id="5601" filePath="C:\Users\owner\Dropbox\Work\png\animation T=1.05601.png" arWidth="640" arHeight="480" duration="0" songTitle="" songArtist="" songAlbum="" songCopyrightUrl="" songArtistUrl="" songAudioFileUrl="" stabilizationMode="0" mediaItemType="2" />
    <MediaItem id="434" filePath="C:\Users\owner\Dropbox\Work\png\animation T=1.00434.png" arWidth="640" arHeight="480" duration="0" songTitle="" songArtist="" songAlbum="" songCopyrightUrl="" songArtistUrl="" songAudioFileUrl="" stabilizationMode="0" mediaItemType="2" />
    <MediaItem id="5602" filePath="C:\Users\owner\Dropbox\Work\png\animation T=1.05602.png" arWidth="640" arHeight="480" duration="0" songTitle="" songArtist="" songAlbum="" songCopyrightUrl="" songArtistUrl="" songAudioFileUrl="" stabilizationMode="0" mediaItemType="2" />
    <MediaItem id="435" filePath="C:\Users\owner\Dropbox\Work\png\animation T=1.00435.png" arWidth="640" arHeight="480" duration="0" songTitle="" songArtist="" songAlbum="" songCopyrightUrl="" songArtistUrl="" songAudioFileUrl="" stabilizationMode="0" mediaItemType="2" />
    <MediaItem id="5603" filePath="C:\Users\owner\Dropbox\Work\png\animation T=1.05603.png" arWidth="640" arHeight="480" duration="0" songTitle="" songArtist="" songAlbum="" songCopyrightUrl="" songArtistUrl="" songAudioFileUrl="" stabilizationMode="0" mediaItemType="2" />
    <MediaItem id="436" filePath="C:\Users\owner\Dropbox\Work\png\animation T=1.00436.png" arWidth="640" arHeight="480" duration="0" songTitle="" songArtist="" songAlbum="" songCopyrightUrl="" songArtistUrl="" songAudioFileUrl="" stabilizationMode="0" mediaItemType="2" />
    <MediaItem id="5604" filePath="C:\Users\owner\Dropbox\Work\png\animation T=1.05604.png" arWidth="640" arHeight="480" duration="0" songTitle="" songArtist="" songAlbum="" songCopyrightUrl="" songArtistUrl="" songAudioFileUrl="" stabilizationMode="0" mediaItemType="2" />
    <MediaItem id="437" filePath="C:\Users\owner\Dropbox\Work\png\animation T=1.00437.png" arWidth="640" arHeight="480" duration="0" songTitle="" songArtist="" songAlbum="" songCopyrightUrl="" songArtistUrl="" songAudioFileUrl="" stabilizationMode="0" mediaItemType="2" />
    <MediaItem id="5605" filePath="C:\Users\owner\Dropbox\Work\png\animation T=1.05605.png" arWidth="640" arHeight="480" duration="0" songTitle="" songArtist="" songAlbum="" songCopyrightUrl="" songArtistUrl="" songAudioFileUrl="" stabilizationMode="0" mediaItemType="2" />
    <MediaItem id="438" filePath="C:\Users\owner\Dropbox\Work\png\animation T=1.00438.png" arWidth="640" arHeight="480" duration="0" songTitle="" songArtist="" songAlbum="" songCopyrightUrl="" songArtistUrl="" songAudioFileUrl="" stabilizationMode="0" mediaItemType="2" />
    <MediaItem id="5606" filePath="C:\Users\owner\Dropbox\Work\png\animation T=1.05606.png" arWidth="640" arHeight="480" duration="0" songTitle="" songArtist="" songAlbum="" songCopyrightUrl="" songArtistUrl="" songAudioFileUrl="" stabilizationMode="0" mediaItemType="2" />
    <MediaItem id="439" filePath="C:\Users\owner\Dropbox\Work\png\animation T=1.00439.png" arWidth="640" arHeight="480" duration="0" songTitle="" songArtist="" songAlbum="" songCopyrightUrl="" songArtistUrl="" songAudioFileUrl="" stabilizationMode="0" mediaItemType="2" />
    <MediaItem id="5607" filePath="C:\Users\owner\Dropbox\Work\png\animation T=1.05607.png" arWidth="640" arHeight="480" duration="0" songTitle="" songArtist="" songAlbum="" songCopyrightUrl="" songArtistUrl="" songAudioFileUrl="" stabilizationMode="0" mediaItemType="2" />
    <MediaItem id="440" filePath="C:\Users\owner\Dropbox\Work\png\animation T=1.00440.png" arWidth="640" arHeight="480" duration="0" songTitle="" songArtist="" songAlbum="" songCopyrightUrl="" songArtistUrl="" songAudioFileUrl="" stabilizationMode="0" mediaItemType="2" />
    <MediaItem id="5608" filePath="C:\Users\owner\Dropbox\Work\png\animation T=1.05608.png" arWidth="640" arHeight="480" duration="0" songTitle="" songArtist="" songAlbum="" songCopyrightUrl="" songArtistUrl="" songAudioFileUrl="" stabilizationMode="0" mediaItemType="2" />
    <MediaItem id="441" filePath="C:\Users\owner\Dropbox\Work\png\animation T=1.00441.png" arWidth="640" arHeight="480" duration="0" songTitle="" songArtist="" songAlbum="" songCopyrightUrl="" songArtistUrl="" songAudioFileUrl="" stabilizationMode="0" mediaItemType="2" />
    <MediaItem id="5609" filePath="C:\Users\owner\Dropbox\Work\png\animation T=1.05609.png" arWidth="640" arHeight="480" duration="0" songTitle="" songArtist="" songAlbum="" songCopyrightUrl="" songArtistUrl="" songAudioFileUrl="" stabilizationMode="0" mediaItemType="2" />
    <MediaItem id="442" filePath="C:\Users\owner\Dropbox\Work\png\animation T=1.00442.png" arWidth="640" arHeight="480" duration="0" songTitle="" songArtist="" songAlbum="" songCopyrightUrl="" songArtistUrl="" songAudioFileUrl="" stabilizationMode="0" mediaItemType="2" />
    <MediaItem id="5610" filePath="C:\Users\owner\Dropbox\Work\png\animation T=1.05610.png" arWidth="640" arHeight="480" duration="0" songTitle="" songArtist="" songAlbum="" songCopyrightUrl="" songArtistUrl="" songAudioFileUrl="" stabilizationMode="0" mediaItemType="2" />
    <MediaItem id="443" filePath="C:\Users\owner\Dropbox\Work\png\animation T=1.00443.png" arWidth="640" arHeight="480" duration="0" songTitle="" songArtist="" songAlbum="" songCopyrightUrl="" songArtistUrl="" songAudioFileUrl="" stabilizationMode="0" mediaItemType="2" />
    <MediaItem id="5611" filePath="C:\Users\owner\Dropbox\Work\png\animation T=1.05611.png" arWidth="640" arHeight="480" duration="0" songTitle="" songArtist="" songAlbum="" songCopyrightUrl="" songArtistUrl="" songAudioFileUrl="" stabilizationMode="0" mediaItemType="2" />
    <MediaItem id="444" filePath="C:\Users\owner\Dropbox\Work\png\animation T=1.00444.png" arWidth="640" arHeight="480" duration="0" songTitle="" songArtist="" songAlbum="" songCopyrightUrl="" songArtistUrl="" songAudioFileUrl="" stabilizationMode="0" mediaItemType="2" />
    <MediaItem id="5612" filePath="C:\Users\owner\Dropbox\Work\png\animation T=1.05612.png" arWidth="640" arHeight="480" duration="0" songTitle="" songArtist="" songAlbum="" songCopyrightUrl="" songArtistUrl="" songAudioFileUrl="" stabilizationMode="0" mediaItemType="2" />
    <MediaItem id="445" filePath="C:\Users\owner\Dropbox\Work\png\animation T=1.00445.png" arWidth="640" arHeight="480" duration="0" songTitle="" songArtist="" songAlbum="" songCopyrightUrl="" songArtistUrl="" songAudioFileUrl="" stabilizationMode="0" mediaItemType="2" />
    <MediaItem id="5613" filePath="C:\Users\owner\Dropbox\Work\png\animation T=1.05613.png" arWidth="640" arHeight="480" duration="0" songTitle="" songArtist="" songAlbum="" songCopyrightUrl="" songArtistUrl="" songAudioFileUrl="" stabilizationMode="0" mediaItemType="2" />
    <MediaItem id="446" filePath="C:\Users\owner\Dropbox\Work\png\animation T=1.00446.png" arWidth="640" arHeight="480" duration="0" songTitle="" songArtist="" songAlbum="" songCopyrightUrl="" songArtistUrl="" songAudioFileUrl="" stabilizationMode="0" mediaItemType="2" />
    <MediaItem id="5614" filePath="C:\Users\owner\Dropbox\Work\png\animation T=1.05614.png" arWidth="640" arHeight="480" duration="0" songTitle="" songArtist="" songAlbum="" songCopyrightUrl="" songArtistUrl="" songAudioFileUrl="" stabilizationMode="0" mediaItemType="2" />
    <MediaItem id="447" filePath="C:\Users\owner\Dropbox\Work\png\animation T=1.00447.png" arWidth="640" arHeight="480" duration="0" songTitle="" songArtist="" songAlbum="" songCopyrightUrl="" songArtistUrl="" songAudioFileUrl="" stabilizationMode="0" mediaItemType="2" />
    <MediaItem id="5615" filePath="C:\Users\owner\Dropbox\Work\png\animation T=1.05615.png" arWidth="640" arHeight="480" duration="0" songTitle="" songArtist="" songAlbum="" songCopyrightUrl="" songArtistUrl="" songAudioFileUrl="" stabilizationMode="0" mediaItemType="2" />
    <MediaItem id="448" filePath="C:\Users\owner\Dropbox\Work\png\animation T=1.00448.png" arWidth="640" arHeight="480" duration="0" songTitle="" songArtist="" songAlbum="" songCopyrightUrl="" songArtistUrl="" songAudioFileUrl="" stabilizationMode="0" mediaItemType="2" />
    <MediaItem id="5616" filePath="C:\Users\owner\Dropbox\Work\png\animation T=1.05616.png" arWidth="640" arHeight="480" duration="0" songTitle="" songArtist="" songAlbum="" songCopyrightUrl="" songArtistUrl="" songAudioFileUrl="" stabilizationMode="0" mediaItemType="2" />
    <MediaItem id="449" filePath="C:\Users\owner\Dropbox\Work\png\animation T=1.00449.png" arWidth="640" arHeight="480" duration="0" songTitle="" songArtist="" songAlbum="" songCopyrightUrl="" songArtistUrl="" songAudioFileUrl="" stabilizationMode="0" mediaItemType="2" />
    <MediaItem id="5617" filePath="C:\Users\owner\Dropbox\Work\png\animation T=1.05617.png" arWidth="640" arHeight="480" duration="0" songTitle="" songArtist="" songAlbum="" songCopyrightUrl="" songArtistUrl="" songAudioFileUrl="" stabilizationMode="0" mediaItemType="2" />
    <MediaItem id="450" filePath="C:\Users\owner\Dropbox\Work\png\animation T=1.00450.png" arWidth="640" arHeight="480" duration="0" songTitle="" songArtist="" songAlbum="" songCopyrightUrl="" songArtistUrl="" songAudioFileUrl="" stabilizationMode="0" mediaItemType="2" />
    <MediaItem id="5618" filePath="C:\Users\owner\Dropbox\Work\png\animation T=1.05618.png" arWidth="640" arHeight="480" duration="0" songTitle="" songArtist="" songAlbum="" songCopyrightUrl="" songArtistUrl="" songAudioFileUrl="" stabilizationMode="0" mediaItemType="2" />
    <MediaItem id="451" filePath="C:\Users\owner\Dropbox\Work\png\animation T=1.00451.png" arWidth="640" arHeight="480" duration="0" songTitle="" songArtist="" songAlbum="" songCopyrightUrl="" songArtistUrl="" songAudioFileUrl="" stabilizationMode="0" mediaItemType="2" />
    <MediaItem id="5619" filePath="C:\Users\owner\Dropbox\Work\png\animation T=1.05619.png" arWidth="640" arHeight="480" duration="0" songTitle="" songArtist="" songAlbum="" songCopyrightUrl="" songArtistUrl="" songAudioFileUrl="" stabilizationMode="0" mediaItemType="2" />
    <MediaItem id="452" filePath="C:\Users\owner\Dropbox\Work\png\animation T=1.00452.png" arWidth="640" arHeight="480" duration="0" songTitle="" songArtist="" songAlbum="" songCopyrightUrl="" songArtistUrl="" songAudioFileUrl="" stabilizationMode="0" mediaItemType="2" />
    <MediaItem id="5620" filePath="C:\Users\owner\Dropbox\Work\png\animation T=1.05620.png" arWidth="640" arHeight="480" duration="0" songTitle="" songArtist="" songAlbum="" songCopyrightUrl="" songArtistUrl="" songAudioFileUrl="" stabilizationMode="0" mediaItemType="2" />
    <MediaItem id="453" filePath="C:\Users\owner\Dropbox\Work\png\animation T=1.00453.png" arWidth="640" arHeight="480" duration="0" songTitle="" songArtist="" songAlbum="" songCopyrightUrl="" songArtistUrl="" songAudioFileUrl="" stabilizationMode="0" mediaItemType="2" />
    <MediaItem id="5621" filePath="C:\Users\owner\Dropbox\Work\png\animation T=1.05621.png" arWidth="640" arHeight="480" duration="0" songTitle="" songArtist="" songAlbum="" songCopyrightUrl="" songArtistUrl="" songAudioFileUrl="" stabilizationMode="0" mediaItemType="2" />
    <MediaItem id="454" filePath="C:\Users\owner\Dropbox\Work\png\animation T=1.00454.png" arWidth="640" arHeight="480" duration="0" songTitle="" songArtist="" songAlbum="" songCopyrightUrl="" songArtistUrl="" songAudioFileUrl="" stabilizationMode="0" mediaItemType="2" />
    <MediaItem id="5622" filePath="C:\Users\owner\Dropbox\Work\png\animation T=1.05622.png" arWidth="640" arHeight="480" duration="0" songTitle="" songArtist="" songAlbum="" songCopyrightUrl="" songArtistUrl="" songAudioFileUrl="" stabilizationMode="0" mediaItemType="2" />
    <MediaItem id="455" filePath="C:\Users\owner\Dropbox\Work\png\animation T=1.00455.png" arWidth="640" arHeight="480" duration="0" songTitle="" songArtist="" songAlbum="" songCopyrightUrl="" songArtistUrl="" songAudioFileUrl="" stabilizationMode="0" mediaItemType="2" />
    <MediaItem id="5623" filePath="C:\Users\owner\Dropbox\Work\png\animation T=1.05623.png" arWidth="640" arHeight="480" duration="0" songTitle="" songArtist="" songAlbum="" songCopyrightUrl="" songArtistUrl="" songAudioFileUrl="" stabilizationMode="0" mediaItemType="2" />
    <MediaItem id="456" filePath="C:\Users\owner\Dropbox\Work\png\animation T=1.00456.png" arWidth="640" arHeight="480" duration="0" songTitle="" songArtist="" songAlbum="" songCopyrightUrl="" songArtistUrl="" songAudioFileUrl="" stabilizationMode="0" mediaItemType="2" />
    <MediaItem id="5624" filePath="C:\Users\owner\Dropbox\Work\png\animation T=1.05624.png" arWidth="640" arHeight="480" duration="0" songTitle="" songArtist="" songAlbum="" songCopyrightUrl="" songArtistUrl="" songAudioFileUrl="" stabilizationMode="0" mediaItemType="2" />
    <MediaItem id="457" filePath="C:\Users\owner\Dropbox\Work\png\animation T=1.00457.png" arWidth="640" arHeight="480" duration="0" songTitle="" songArtist="" songAlbum="" songCopyrightUrl="" songArtistUrl="" songAudioFileUrl="" stabilizationMode="0" mediaItemType="2" />
    <MediaItem id="5625" filePath="C:\Users\owner\Dropbox\Work\png\animation T=1.05625.png" arWidth="640" arHeight="480" duration="0" songTitle="" songArtist="" songAlbum="" songCopyrightUrl="" songArtistUrl="" songAudioFileUrl="" stabilizationMode="0" mediaItemType="2" />
    <MediaItem id="458" filePath="C:\Users\owner\Dropbox\Work\png\animation T=1.00458.png" arWidth="640" arHeight="480" duration="0" songTitle="" songArtist="" songAlbum="" songCopyrightUrl="" songArtistUrl="" songAudioFileUrl="" stabilizationMode="0" mediaItemType="2" />
    <MediaItem id="5626" filePath="C:\Users\owner\Dropbox\Work\png\animation T=1.05626.png" arWidth="640" arHeight="480" duration="0" songTitle="" songArtist="" songAlbum="" songCopyrightUrl="" songArtistUrl="" songAudioFileUrl="" stabilizationMode="0" mediaItemType="2" />
    <MediaItem id="459" filePath="C:\Users\owner\Dropbox\Work\png\animation T=1.00459.png" arWidth="640" arHeight="480" duration="0" songTitle="" songArtist="" songAlbum="" songCopyrightUrl="" songArtistUrl="" songAudioFileUrl="" stabilizationMode="0" mediaItemType="2" />
    <MediaItem id="5627" filePath="C:\Users\owner\Dropbox\Work\png\animation T=1.05627.png" arWidth="640" arHeight="480" duration="0" songTitle="" songArtist="" songAlbum="" songCopyrightUrl="" songArtistUrl="" songAudioFileUrl="" stabilizationMode="0" mediaItemType="2" />
    <MediaItem id="460" filePath="C:\Users\owner\Dropbox\Work\png\animation T=1.00460.png" arWidth="640" arHeight="480" duration="0" songTitle="" songArtist="" songAlbum="" songCopyrightUrl="" songArtistUrl="" songAudioFileUrl="" stabilizationMode="0" mediaItemType="2" />
    <MediaItem id="5628" filePath="C:\Users\owner\Dropbox\Work\png\animation T=1.05628.png" arWidth="640" arHeight="480" duration="0" songTitle="" songArtist="" songAlbum="" songCopyrightUrl="" songArtistUrl="" songAudioFileUrl="" stabilizationMode="0" mediaItemType="2" />
    <MediaItem id="461" filePath="C:\Users\owner\Dropbox\Work\png\animation T=1.00461.png" arWidth="640" arHeight="480" duration="0" songTitle="" songArtist="" songAlbum="" songCopyrightUrl="" songArtistUrl="" songAudioFileUrl="" stabilizationMode="0" mediaItemType="2" />
    <MediaItem id="5629" filePath="C:\Users\owner\Dropbox\Work\png\animation T=1.05629.png" arWidth="640" arHeight="480" duration="0" songTitle="" songArtist="" songAlbum="" songCopyrightUrl="" songArtistUrl="" songAudioFileUrl="" stabilizationMode="0" mediaItemType="2" />
    <MediaItem id="462" filePath="C:\Users\owner\Dropbox\Work\png\animation T=1.00462.png" arWidth="640" arHeight="480" duration="0" songTitle="" songArtist="" songAlbum="" songCopyrightUrl="" songArtistUrl="" songAudioFileUrl="" stabilizationMode="0" mediaItemType="2" />
    <MediaItem id="5630" filePath="C:\Users\owner\Dropbox\Work\png\animation T=1.05630.png" arWidth="640" arHeight="480" duration="0" songTitle="" songArtist="" songAlbum="" songCopyrightUrl="" songArtistUrl="" songAudioFileUrl="" stabilizationMode="0" mediaItemType="2" />
    <MediaItem id="463" filePath="C:\Users\owner\Dropbox\Work\png\animation T=1.00463.png" arWidth="640" arHeight="480" duration="0" songTitle="" songArtist="" songAlbum="" songCopyrightUrl="" songArtistUrl="" songAudioFileUrl="" stabilizationMode="0" mediaItemType="2" />
    <MediaItem id="5631" filePath="C:\Users\owner\Dropbox\Work\png\animation T=1.05631.png" arWidth="640" arHeight="480" duration="0" songTitle="" songArtist="" songAlbum="" songCopyrightUrl="" songArtistUrl="" songAudioFileUrl="" stabilizationMode="0" mediaItemType="2" />
    <MediaItem id="464" filePath="C:\Users\owner\Dropbox\Work\png\animation T=1.00464.png" arWidth="640" arHeight="480" duration="0" songTitle="" songArtist="" songAlbum="" songCopyrightUrl="" songArtistUrl="" songAudioFileUrl="" stabilizationMode="0" mediaItemType="2" />
    <MediaItem id="5632" filePath="C:\Users\owner\Dropbox\Work\png\animation T=1.05632.png" arWidth="640" arHeight="480" duration="0" songTitle="" songArtist="" songAlbum="" songCopyrightUrl="" songArtistUrl="" songAudioFileUrl="" stabilizationMode="0" mediaItemType="2" />
    <MediaItem id="465" filePath="C:\Users\owner\Dropbox\Work\png\animation T=1.00465.png" arWidth="640" arHeight="480" duration="0" songTitle="" songArtist="" songAlbum="" songCopyrightUrl="" songArtistUrl="" songAudioFileUrl="" stabilizationMode="0" mediaItemType="2" />
    <MediaItem id="5633" filePath="C:\Users\owner\Dropbox\Work\png\animation T=1.05633.png" arWidth="640" arHeight="480" duration="0" songTitle="" songArtist="" songAlbum="" songCopyrightUrl="" songArtistUrl="" songAudioFileUrl="" stabilizationMode="0" mediaItemType="2" />
    <MediaItem id="466" filePath="C:\Users\owner\Dropbox\Work\png\animation T=1.00466.png" arWidth="640" arHeight="480" duration="0" songTitle="" songArtist="" songAlbum="" songCopyrightUrl="" songArtistUrl="" songAudioFileUrl="" stabilizationMode="0" mediaItemType="2" />
    <MediaItem id="5634" filePath="C:\Users\owner\Dropbox\Work\png\animation T=1.05634.png" arWidth="640" arHeight="480" duration="0" songTitle="" songArtist="" songAlbum="" songCopyrightUrl="" songArtistUrl="" songAudioFileUrl="" stabilizationMode="0" mediaItemType="2" />
    <MediaItem id="467" filePath="C:\Users\owner\Dropbox\Work\png\animation T=1.00467.png" arWidth="640" arHeight="480" duration="0" songTitle="" songArtist="" songAlbum="" songCopyrightUrl="" songArtistUrl="" songAudioFileUrl="" stabilizationMode="0" mediaItemType="2" />
    <MediaItem id="5635" filePath="C:\Users\owner\Dropbox\Work\png\animation T=1.05635.png" arWidth="640" arHeight="480" duration="0" songTitle="" songArtist="" songAlbum="" songCopyrightUrl="" songArtistUrl="" songAudioFileUrl="" stabilizationMode="0" mediaItemType="2" />
    <MediaItem id="468" filePath="C:\Users\owner\Dropbox\Work\png\animation T=1.00468.png" arWidth="640" arHeight="480" duration="0" songTitle="" songArtist="" songAlbum="" songCopyrightUrl="" songArtistUrl="" songAudioFileUrl="" stabilizationMode="0" mediaItemType="2" />
    <MediaItem id="5636" filePath="C:\Users\owner\Dropbox\Work\png\animation T=1.05636.png" arWidth="640" arHeight="480" duration="0" songTitle="" songArtist="" songAlbum="" songCopyrightUrl="" songArtistUrl="" songAudioFileUrl="" stabilizationMode="0" mediaItemType="2" />
    <MediaItem id="469" filePath="C:\Users\owner\Dropbox\Work\png\animation T=1.00469.png" arWidth="640" arHeight="480" duration="0" songTitle="" songArtist="" songAlbum="" songCopyrightUrl="" songArtistUrl="" songAudioFileUrl="" stabilizationMode="0" mediaItemType="2" />
    <MediaItem id="5637" filePath="C:\Users\owner\Dropbox\Work\png\animation T=1.05637.png" arWidth="640" arHeight="480" duration="0" songTitle="" songArtist="" songAlbum="" songCopyrightUrl="" songArtistUrl="" songAudioFileUrl="" stabilizationMode="0" mediaItemType="2" />
    <MediaItem id="470" filePath="C:\Users\owner\Dropbox\Work\png\animation T=1.00470.png" arWidth="640" arHeight="480" duration="0" songTitle="" songArtist="" songAlbum="" songCopyrightUrl="" songArtistUrl="" songAudioFileUrl="" stabilizationMode="0" mediaItemType="2" />
    <MediaItem id="5638" filePath="C:\Users\owner\Dropbox\Work\png\animation T=1.05638.png" arWidth="640" arHeight="480" duration="0" songTitle="" songArtist="" songAlbum="" songCopyrightUrl="" songArtistUrl="" songAudioFileUrl="" stabilizationMode="0" mediaItemType="2" />
    <MediaItem id="471" filePath="C:\Users\owner\Dropbox\Work\png\animation T=1.00471.png" arWidth="640" arHeight="480" duration="0" songTitle="" songArtist="" songAlbum="" songCopyrightUrl="" songArtistUrl="" songAudioFileUrl="" stabilizationMode="0" mediaItemType="2" />
    <MediaItem id="5639" filePath="C:\Users\owner\Dropbox\Work\png\animation T=1.05639.png" arWidth="640" arHeight="480" duration="0" songTitle="" songArtist="" songAlbum="" songCopyrightUrl="" songArtistUrl="" songAudioFileUrl="" stabilizationMode="0" mediaItemType="2" />
    <MediaItem id="472" filePath="C:\Users\owner\Dropbox\Work\png\animation T=1.00472.png" arWidth="640" arHeight="480" duration="0" songTitle="" songArtist="" songAlbum="" songCopyrightUrl="" songArtistUrl="" songAudioFileUrl="" stabilizationMode="0" mediaItemType="2" />
    <MediaItem id="5640" filePath="C:\Users\owner\Dropbox\Work\png\animation T=1.05640.png" arWidth="640" arHeight="480" duration="0" songTitle="" songArtist="" songAlbum="" songCopyrightUrl="" songArtistUrl="" songAudioFileUrl="" stabilizationMode="0" mediaItemType="2" />
    <MediaItem id="473" filePath="C:\Users\owner\Dropbox\Work\png\animation T=1.00473.png" arWidth="640" arHeight="480" duration="0" songTitle="" songArtist="" songAlbum="" songCopyrightUrl="" songArtistUrl="" songAudioFileUrl="" stabilizationMode="0" mediaItemType="2" />
    <MediaItem id="5641" filePath="C:\Users\owner\Dropbox\Work\png\animation T=1.05641.png" arWidth="640" arHeight="480" duration="0" songTitle="" songArtist="" songAlbum="" songCopyrightUrl="" songArtistUrl="" songAudioFileUrl="" stabilizationMode="0" mediaItemType="2" />
    <MediaItem id="474" filePath="C:\Users\owner\Dropbox\Work\png\animation T=1.00474.png" arWidth="640" arHeight="480" duration="0" songTitle="" songArtist="" songAlbum="" songCopyrightUrl="" songArtistUrl="" songAudioFileUrl="" stabilizationMode="0" mediaItemType="2" />
    <MediaItem id="5642" filePath="C:\Users\owner\Dropbox\Work\png\animation T=1.05642.png" arWidth="640" arHeight="480" duration="0" songTitle="" songArtist="" songAlbum="" songCopyrightUrl="" songArtistUrl="" songAudioFileUrl="" stabilizationMode="0" mediaItemType="2" />
    <MediaItem id="475" filePath="C:\Users\owner\Dropbox\Work\png\animation T=1.00475.png" arWidth="640" arHeight="480" duration="0" songTitle="" songArtist="" songAlbum="" songCopyrightUrl="" songArtistUrl="" songAudioFileUrl="" stabilizationMode="0" mediaItemType="2" />
    <MediaItem id="5643" filePath="C:\Users\owner\Dropbox\Work\png\animation T=1.05643.png" arWidth="640" arHeight="480" duration="0" songTitle="" songArtist="" songAlbum="" songCopyrightUrl="" songArtistUrl="" songAudioFileUrl="" stabilizationMode="0" mediaItemType="2" />
    <MediaItem id="476" filePath="C:\Users\owner\Dropbox\Work\png\animation T=1.00476.png" arWidth="640" arHeight="480" duration="0" songTitle="" songArtist="" songAlbum="" songCopyrightUrl="" songArtistUrl="" songAudioFileUrl="" stabilizationMode="0" mediaItemType="2" />
    <MediaItem id="5644" filePath="C:\Users\owner\Dropbox\Work\png\animation T=1.05644.png" arWidth="640" arHeight="480" duration="0" songTitle="" songArtist="" songAlbum="" songCopyrightUrl="" songArtistUrl="" songAudioFileUrl="" stabilizationMode="0" mediaItemType="2" />
    <MediaItem id="477" filePath="C:\Users\owner\Dropbox\Work\png\animation T=1.00477.png" arWidth="640" arHeight="480" duration="0" songTitle="" songArtist="" songAlbum="" songCopyrightUrl="" songArtistUrl="" songAudioFileUrl="" stabilizationMode="0" mediaItemType="2" />
    <MediaItem id="5645" filePath="C:\Users\owner\Dropbox\Work\png\animation T=1.05645.png" arWidth="640" arHeight="480" duration="0" songTitle="" songArtist="" songAlbum="" songCopyrightUrl="" songArtistUrl="" songAudioFileUrl="" stabilizationMode="0" mediaItemType="2" />
    <MediaItem id="478" filePath="C:\Users\owner\Dropbox\Work\png\animation T=1.00478.png" arWidth="640" arHeight="480" duration="0" songTitle="" songArtist="" songAlbum="" songCopyrightUrl="" songArtistUrl="" songAudioFileUrl="" stabilizationMode="0" mediaItemType="2" />
    <MediaItem id="5646" filePath="C:\Users\owner\Dropbox\Work\png\animation T=1.05646.png" arWidth="640" arHeight="480" duration="0" songTitle="" songArtist="" songAlbum="" songCopyrightUrl="" songArtistUrl="" songAudioFileUrl="" stabilizationMode="0" mediaItemType="2" />
    <MediaItem id="479" filePath="C:\Users\owner\Dropbox\Work\png\animation T=1.00479.png" arWidth="640" arHeight="480" duration="0" songTitle="" songArtist="" songAlbum="" songCopyrightUrl="" songArtistUrl="" songAudioFileUrl="" stabilizationMode="0" mediaItemType="2" />
    <MediaItem id="5647" filePath="C:\Users\owner\Dropbox\Work\png\animation T=1.05647.png" arWidth="640" arHeight="480" duration="0" songTitle="" songArtist="" songAlbum="" songCopyrightUrl="" songArtistUrl="" songAudioFileUrl="" stabilizationMode="0" mediaItemType="2" />
    <MediaItem id="480" filePath="C:\Users\owner\Dropbox\Work\png\animation T=1.00480.png" arWidth="640" arHeight="480" duration="0" songTitle="" songArtist="" songAlbum="" songCopyrightUrl="" songArtistUrl="" songAudioFileUrl="" stabilizationMode="0" mediaItemType="2" />
    <MediaItem id="5648" filePath="C:\Users\owner\Dropbox\Work\png\animation T=1.05648.png" arWidth="640" arHeight="480" duration="0" songTitle="" songArtist="" songAlbum="" songCopyrightUrl="" songArtistUrl="" songAudioFileUrl="" stabilizationMode="0" mediaItemType="2" />
    <MediaItem id="481" filePath="C:\Users\owner\Dropbox\Work\png\animation T=1.00481.png" arWidth="640" arHeight="480" duration="0" songTitle="" songArtist="" songAlbum="" songCopyrightUrl="" songArtistUrl="" songAudioFileUrl="" stabilizationMode="0" mediaItemType="2" />
    <MediaItem id="5649" filePath="C:\Users\owner\Dropbox\Work\png\animation T=1.05649.png" arWidth="640" arHeight="480" duration="0" songTitle="" songArtist="" songAlbum="" songCopyrightUrl="" songArtistUrl="" songAudioFileUrl="" stabilizationMode="0" mediaItemType="2" />
    <MediaItem id="482" filePath="C:\Users\owner\Dropbox\Work\png\animation T=1.00482.png" arWidth="640" arHeight="480" duration="0" songTitle="" songArtist="" songAlbum="" songCopyrightUrl="" songArtistUrl="" songAudioFileUrl="" stabilizationMode="0" mediaItemType="2" />
    <MediaItem id="5650" filePath="C:\Users\owner\Dropbox\Work\png\animation T=1.05650.png" arWidth="640" arHeight="480" duration="0" songTitle="" songArtist="" songAlbum="" songCopyrightUrl="" songArtistUrl="" songAudioFileUrl="" stabilizationMode="0" mediaItemType="2" />
    <MediaItem id="483" filePath="C:\Users\owner\Dropbox\Work\png\animation T=1.00483.png" arWidth="640" arHeight="480" duration="0" songTitle="" songArtist="" songAlbum="" songCopyrightUrl="" songArtistUrl="" songAudioFileUrl="" stabilizationMode="0" mediaItemType="2" />
    <MediaItem id="5651" filePath="C:\Users\owner\Dropbox\Work\png\animation T=1.05651.png" arWidth="640" arHeight="480" duration="0" songTitle="" songArtist="" songAlbum="" songCopyrightUrl="" songArtistUrl="" songAudioFileUrl="" stabilizationMode="0" mediaItemType="2" />
    <MediaItem id="484" filePath="C:\Users\owner\Dropbox\Work\png\animation T=1.00484.png" arWidth="640" arHeight="480" duration="0" songTitle="" songArtist="" songAlbum="" songCopyrightUrl="" songArtistUrl="" songAudioFileUrl="" stabilizationMode="0" mediaItemType="2" />
    <MediaItem id="5652" filePath="C:\Users\owner\Dropbox\Work\png\animation T=1.05652.png" arWidth="640" arHeight="480" duration="0" songTitle="" songArtist="" songAlbum="" songCopyrightUrl="" songArtistUrl="" songAudioFileUrl="" stabilizationMode="0" mediaItemType="2" />
    <MediaItem id="485" filePath="C:\Users\owner\Dropbox\Work\png\animation T=1.00485.png" arWidth="640" arHeight="480" duration="0" songTitle="" songArtist="" songAlbum="" songCopyrightUrl="" songArtistUrl="" songAudioFileUrl="" stabilizationMode="0" mediaItemType="2" />
    <MediaItem id="5653" filePath="C:\Users\owner\Dropbox\Work\png\animation T=1.05653.png" arWidth="640" arHeight="480" duration="0" songTitle="" songArtist="" songAlbum="" songCopyrightUrl="" songArtistUrl="" songAudioFileUrl="" stabilizationMode="0" mediaItemType="2" />
    <MediaItem id="486" filePath="C:\Users\owner\Dropbox\Work\png\animation T=1.00486.png" arWidth="640" arHeight="480" duration="0" songTitle="" songArtist="" songAlbum="" songCopyrightUrl="" songArtistUrl="" songAudioFileUrl="" stabilizationMode="0" mediaItemType="2" />
    <MediaItem id="5654" filePath="C:\Users\owner\Dropbox\Work\png\animation T=1.05654.png" arWidth="640" arHeight="480" duration="0" songTitle="" songArtist="" songAlbum="" songCopyrightUrl="" songArtistUrl="" songAudioFileUrl="" stabilizationMode="0" mediaItemType="2" />
    <MediaItem id="487" filePath="C:\Users\owner\Dropbox\Work\png\animation T=1.00487.png" arWidth="640" arHeight="480" duration="0" songTitle="" songArtist="" songAlbum="" songCopyrightUrl="" songArtistUrl="" songAudioFileUrl="" stabilizationMode="0" mediaItemType="2" />
    <MediaItem id="5655" filePath="C:\Users\owner\Dropbox\Work\png\animation T=1.05655.png" arWidth="640" arHeight="480" duration="0" songTitle="" songArtist="" songAlbum="" songCopyrightUrl="" songArtistUrl="" songAudioFileUrl="" stabilizationMode="0" mediaItemType="2" />
    <MediaItem id="488" filePath="C:\Users\owner\Dropbox\Work\png\animation T=1.00488.png" arWidth="640" arHeight="480" duration="0" songTitle="" songArtist="" songAlbum="" songCopyrightUrl="" songArtistUrl="" songAudioFileUrl="" stabilizationMode="0" mediaItemType="2" />
    <MediaItem id="5656" filePath="C:\Users\owner\Dropbox\Work\png\animation T=1.05656.png" arWidth="640" arHeight="480" duration="0" songTitle="" songArtist="" songAlbum="" songCopyrightUrl="" songArtistUrl="" songAudioFileUrl="" stabilizationMode="0" mediaItemType="2" />
    <MediaItem id="489" filePath="C:\Users\owner\Dropbox\Work\png\animation T=1.00489.png" arWidth="640" arHeight="480" duration="0" songTitle="" songArtist="" songAlbum="" songCopyrightUrl="" songArtistUrl="" songAudioFileUrl="" stabilizationMode="0" mediaItemType="2" />
    <MediaItem id="5657" filePath="C:\Users\owner\Dropbox\Work\png\animation T=1.05657.png" arWidth="640" arHeight="480" duration="0" songTitle="" songArtist="" songAlbum="" songCopyrightUrl="" songArtistUrl="" songAudioFileUrl="" stabilizationMode="0" mediaItemType="2" />
    <MediaItem id="490" filePath="C:\Users\owner\Dropbox\Work\png\animation T=1.00490.png" arWidth="640" arHeight="480" duration="0" songTitle="" songArtist="" songAlbum="" songCopyrightUrl="" songArtistUrl="" songAudioFileUrl="" stabilizationMode="0" mediaItemType="2" />
    <MediaItem id="5658" filePath="C:\Users\owner\Dropbox\Work\png\animation T=1.05658.png" arWidth="640" arHeight="480" duration="0" songTitle="" songArtist="" songAlbum="" songCopyrightUrl="" songArtistUrl="" songAudioFileUrl="" stabilizationMode="0" mediaItemType="2" />
    <MediaItem id="491" filePath="C:\Users\owner\Dropbox\Work\png\animation T=1.00491.png" arWidth="640" arHeight="480" duration="0" songTitle="" songArtist="" songAlbum="" songCopyrightUrl="" songArtistUrl="" songAudioFileUrl="" stabilizationMode="0" mediaItemType="2" />
    <MediaItem id="5659" filePath="C:\Users\owner\Dropbox\Work\png\animation T=1.05659.png" arWidth="640" arHeight="480" duration="0" songTitle="" songArtist="" songAlbum="" songCopyrightUrl="" songArtistUrl="" songAudioFileUrl="" stabilizationMode="0" mediaItemType="2" />
    <MediaItem id="492" filePath="C:\Users\owner\Dropbox\Work\png\animation T=1.00492.png" arWidth="640" arHeight="480" duration="0" songTitle="" songArtist="" songAlbum="" songCopyrightUrl="" songArtistUrl="" songAudioFileUrl="" stabilizationMode="0" mediaItemType="2" />
    <MediaItem id="5660" filePath="C:\Users\owner\Dropbox\Work\png\animation T=1.05660.png" arWidth="640" arHeight="480" duration="0" songTitle="" songArtist="" songAlbum="" songCopyrightUrl="" songArtistUrl="" songAudioFileUrl="" stabilizationMode="0" mediaItemType="2" />
    <MediaItem id="493" filePath="C:\Users\owner\Dropbox\Work\png\animation T=1.00493.png" arWidth="640" arHeight="480" duration="0" songTitle="" songArtist="" songAlbum="" songCopyrightUrl="" songArtistUrl="" songAudioFileUrl="" stabilizationMode="0" mediaItemType="2" />
    <MediaItem id="5661" filePath="C:\Users\owner\Dropbox\Work\png\animation T=1.05661.png" arWidth="640" arHeight="480" duration="0" songTitle="" songArtist="" songAlbum="" songCopyrightUrl="" songArtistUrl="" songAudioFileUrl="" stabilizationMode="0" mediaItemType="2" />
    <MediaItem id="494" filePath="C:\Users\owner\Dropbox\Work\png\animation T=1.00494.png" arWidth="640" arHeight="480" duration="0" songTitle="" songArtist="" songAlbum="" songCopyrightUrl="" songArtistUrl="" songAudioFileUrl="" stabilizationMode="0" mediaItemType="2" />
    <MediaItem id="5662" filePath="C:\Users\owner\Dropbox\Work\png\animation T=1.05662.png" arWidth="640" arHeight="480" duration="0" songTitle="" songArtist="" songAlbum="" songCopyrightUrl="" songArtistUrl="" songAudioFileUrl="" stabilizationMode="0" mediaItemType="2" />
    <MediaItem id="495" filePath="C:\Users\owner\Dropbox\Work\png\animation T=1.00495.png" arWidth="640" arHeight="480" duration="0" songTitle="" songArtist="" songAlbum="" songCopyrightUrl="" songArtistUrl="" songAudioFileUrl="" stabilizationMode="0" mediaItemType="2" />
    <MediaItem id="5663" filePath="C:\Users\owner\Dropbox\Work\png\animation T=1.05663.png" arWidth="640" arHeight="480" duration="0" songTitle="" songArtist="" songAlbum="" songCopyrightUrl="" songArtistUrl="" songAudioFileUrl="" stabilizationMode="0" mediaItemType="2" />
    <MediaItem id="496" filePath="C:\Users\owner\Dropbox\Work\png\animation T=1.00496.png" arWidth="640" arHeight="480" duration="0" songTitle="" songArtist="" songAlbum="" songCopyrightUrl="" songArtistUrl="" songAudioFileUrl="" stabilizationMode="0" mediaItemType="2" />
    <MediaItem id="5664" filePath="C:\Users\owner\Dropbox\Work\png\animation T=1.05664.png" arWidth="640" arHeight="480" duration="0" songTitle="" songArtist="" songAlbum="" songCopyrightUrl="" songArtistUrl="" songAudioFileUrl="" stabilizationMode="0" mediaItemType="2" />
    <MediaItem id="497" filePath="C:\Users\owner\Dropbox\Work\png\animation T=1.00497.png" arWidth="640" arHeight="480" duration="0" songTitle="" songArtist="" songAlbum="" songCopyrightUrl="" songArtistUrl="" songAudioFileUrl="" stabilizationMode="0" mediaItemType="2" />
    <MediaItem id="5665" filePath="C:\Users\owner\Dropbox\Work\png\animation T=1.05665.png" arWidth="640" arHeight="480" duration="0" songTitle="" songArtist="" songAlbum="" songCopyrightUrl="" songArtistUrl="" songAudioFileUrl="" stabilizationMode="0" mediaItemType="2" />
    <MediaItem id="498" filePath="C:\Users\owner\Dropbox\Work\png\animation T=1.00498.png" arWidth="640" arHeight="480" duration="0" songTitle="" songArtist="" songAlbum="" songCopyrightUrl="" songArtistUrl="" songAudioFileUrl="" stabilizationMode="0" mediaItemType="2" />
    <MediaItem id="5666" filePath="C:\Users\owner\Dropbox\Work\png\animation T=1.05666.png" arWidth="640" arHeight="480" duration="0" songTitle="" songArtist="" songAlbum="" songCopyrightUrl="" songArtistUrl="" songAudioFileUrl="" stabilizationMode="0" mediaItemType="2" />
    <MediaItem id="499" filePath="C:\Users\owner\Dropbox\Work\png\animation T=1.00499.png" arWidth="640" arHeight="480" duration="0" songTitle="" songArtist="" songAlbum="" songCopyrightUrl="" songArtistUrl="" songAudioFileUrl="" stabilizationMode="0" mediaItemType="2" />
    <MediaItem id="5667" filePath="C:\Users\owner\Dropbox\Work\png\animation T=1.05667.png" arWidth="640" arHeight="480" duration="0" songTitle="" songArtist="" songAlbum="" songCopyrightUrl="" songArtistUrl="" songAudioFileUrl="" stabilizationMode="0" mediaItemType="2" />
    <MediaItem id="500" filePath="C:\Users\owner\Dropbox\Work\png\animation T=1.00500.png" arWidth="640" arHeight="480" duration="0" songTitle="" songArtist="" songAlbum="" songCopyrightUrl="" songArtistUrl="" songAudioFileUrl="" stabilizationMode="0" mediaItemType="2" />
    <MediaItem id="5668" filePath="C:\Users\owner\Dropbox\Work\png\animation T=1.05668.png" arWidth="640" arHeight="480" duration="0" songTitle="" songArtist="" songAlbum="" songCopyrightUrl="" songArtistUrl="" songAudioFileUrl="" stabilizationMode="0" mediaItemType="2" />
    <MediaItem id="501" filePath="C:\Users\owner\Dropbox\Work\png\animation T=1.00501.png" arWidth="640" arHeight="480" duration="0" songTitle="" songArtist="" songAlbum="" songCopyrightUrl="" songArtistUrl="" songAudioFileUrl="" stabilizationMode="0" mediaItemType="2" />
    <MediaItem id="5669" filePath="C:\Users\owner\Dropbox\Work\png\animation T=1.05669.png" arWidth="640" arHeight="480" duration="0" songTitle="" songArtist="" songAlbum="" songCopyrightUrl="" songArtistUrl="" songAudioFileUrl="" stabilizationMode="0" mediaItemType="2" />
    <MediaItem id="502" filePath="C:\Users\owner\Dropbox\Work\png\animation T=1.00502.png" arWidth="640" arHeight="480" duration="0" songTitle="" songArtist="" songAlbum="" songCopyrightUrl="" songArtistUrl="" songAudioFileUrl="" stabilizationMode="0" mediaItemType="2" />
    <MediaItem id="5670" filePath="C:\Users\owner\Dropbox\Work\png\animation T=1.05670.png" arWidth="640" arHeight="480" duration="0" songTitle="" songArtist="" songAlbum="" songCopyrightUrl="" songArtistUrl="" songAudioFileUrl="" stabilizationMode="0" mediaItemType="2" />
    <MediaItem id="503" filePath="C:\Users\owner\Dropbox\Work\png\animation T=1.00503.png" arWidth="640" arHeight="480" duration="0" songTitle="" songArtist="" songAlbum="" songCopyrightUrl="" songArtistUrl="" songAudioFileUrl="" stabilizationMode="0" mediaItemType="2" />
    <MediaItem id="5671" filePath="C:\Users\owner\Dropbox\Work\png\animation T=1.05671.png" arWidth="640" arHeight="480" duration="0" songTitle="" songArtist="" songAlbum="" songCopyrightUrl="" songArtistUrl="" songAudioFileUrl="" stabilizationMode="0" mediaItemType="2" />
    <MediaItem id="504" filePath="C:\Users\owner\Dropbox\Work\png\animation T=1.00504.png" arWidth="640" arHeight="480" duration="0" songTitle="" songArtist="" songAlbum="" songCopyrightUrl="" songArtistUrl="" songAudioFileUrl="" stabilizationMode="0" mediaItemType="2" />
    <MediaItem id="5672" filePath="C:\Users\owner\Dropbox\Work\png\animation T=1.05672.png" arWidth="640" arHeight="480" duration="0" songTitle="" songArtist="" songAlbum="" songCopyrightUrl="" songArtistUrl="" songAudioFileUrl="" stabilizationMode="0" mediaItemType="2" />
    <MediaItem id="505" filePath="C:\Users\owner\Dropbox\Work\png\animation T=1.00505.png" arWidth="640" arHeight="480" duration="0" songTitle="" songArtist="" songAlbum="" songCopyrightUrl="" songArtistUrl="" songAudioFileUrl="" stabilizationMode="0" mediaItemType="2" />
    <MediaItem id="5673" filePath="C:\Users\owner\Dropbox\Work\png\animation T=1.05673.png" arWidth="640" arHeight="480" duration="0" songTitle="" songArtist="" songAlbum="" songCopyrightUrl="" songArtistUrl="" songAudioFileUrl="" stabilizationMode="0" mediaItemType="2" />
    <MediaItem id="506" filePath="C:\Users\owner\Dropbox\Work\png\animation T=1.00506.png" arWidth="640" arHeight="480" duration="0" songTitle="" songArtist="" songAlbum="" songCopyrightUrl="" songArtistUrl="" songAudioFileUrl="" stabilizationMode="0" mediaItemType="2" />
    <MediaItem id="5674" filePath="C:\Users\owner\Dropbox\Work\png\animation T=1.05674.png" arWidth="640" arHeight="480" duration="0" songTitle="" songArtist="" songAlbum="" songCopyrightUrl="" songArtistUrl="" songAudioFileUrl="" stabilizationMode="0" mediaItemType="2" />
    <MediaItem id="507" filePath="C:\Users\owner\Dropbox\Work\png\animation T=1.00507.png" arWidth="640" arHeight="480" duration="0" songTitle="" songArtist="" songAlbum="" songCopyrightUrl="" songArtistUrl="" songAudioFileUrl="" stabilizationMode="0" mediaItemType="2" />
    <MediaItem id="5675" filePath="C:\Users\owner\Dropbox\Work\png\animation T=1.05675.png" arWidth="640" arHeight="480" duration="0" songTitle="" songArtist="" songAlbum="" songCopyrightUrl="" songArtistUrl="" songAudioFileUrl="" stabilizationMode="0" mediaItemType="2" />
    <MediaItem id="508" filePath="C:\Users\owner\Dropbox\Work\png\animation T=1.00508.png" arWidth="640" arHeight="480" duration="0" songTitle="" songArtist="" songAlbum="" songCopyrightUrl="" songArtistUrl="" songAudioFileUrl="" stabilizationMode="0" mediaItemType="2" />
    <MediaItem id="5676" filePath="C:\Users\owner\Dropbox\Work\png\animation T=1.05676.png" arWidth="640" arHeight="480" duration="0" songTitle="" songArtist="" songAlbum="" songCopyrightUrl="" songArtistUrl="" songAudioFileUrl="" stabilizationMode="0" mediaItemType="2" />
    <MediaItem id="509" filePath="C:\Users\owner\Dropbox\Work\png\animation T=1.00509.png" arWidth="640" arHeight="480" duration="0" songTitle="" songArtist="" songAlbum="" songCopyrightUrl="" songArtistUrl="" songAudioFileUrl="" stabilizationMode="0" mediaItemType="2" />
    <MediaItem id="5677" filePath="C:\Users\owner\Dropbox\Work\png\animation T=1.05677.png" arWidth="640" arHeight="480" duration="0" songTitle="" songArtist="" songAlbum="" songCopyrightUrl="" songArtistUrl="" songAudioFileUrl="" stabilizationMode="0" mediaItemType="2" />
    <MediaItem id="510" filePath="C:\Users\owner\Dropbox\Work\png\animation T=1.00510.png" arWidth="640" arHeight="480" duration="0" songTitle="" songArtist="" songAlbum="" songCopyrightUrl="" songArtistUrl="" songAudioFileUrl="" stabilizationMode="0" mediaItemType="2" />
    <MediaItem id="5678" filePath="C:\Users\owner\Dropbox\Work\png\animation T=1.05678.png" arWidth="640" arHeight="480" duration="0" songTitle="" songArtist="" songAlbum="" songCopyrightUrl="" songArtistUrl="" songAudioFileUrl="" stabilizationMode="0" mediaItemType="2" />
    <MediaItem id="511" filePath="C:\Users\owner\Dropbox\Work\png\animation T=1.00511.png" arWidth="640" arHeight="480" duration="0" songTitle="" songArtist="" songAlbum="" songCopyrightUrl="" songArtistUrl="" songAudioFileUrl="" stabilizationMode="0" mediaItemType="2" />
    <MediaItem id="5679" filePath="C:\Users\owner\Dropbox\Work\png\animation T=1.05679.png" arWidth="640" arHeight="480" duration="0" songTitle="" songArtist="" songAlbum="" songCopyrightUrl="" songArtistUrl="" songAudioFileUrl="" stabilizationMode="0" mediaItemType="2" />
    <MediaItem id="512" filePath="C:\Users\owner\Dropbox\Work\png\animation T=1.00512.png" arWidth="640" arHeight="480" duration="0" songTitle="" songArtist="" songAlbum="" songCopyrightUrl="" songArtistUrl="" songAudioFileUrl="" stabilizationMode="0" mediaItemType="2" />
    <MediaItem id="5680" filePath="C:\Users\owner\Dropbox\Work\png\animation T=1.05680.png" arWidth="640" arHeight="480" duration="0" songTitle="" songArtist="" songAlbum="" songCopyrightUrl="" songArtistUrl="" songAudioFileUrl="" stabilizationMode="0" mediaItemType="2" />
    <MediaItem id="513" filePath="C:\Users\owner\Dropbox\Work\png\animation T=1.00513.png" arWidth="640" arHeight="480" duration="0" songTitle="" songArtist="" songAlbum="" songCopyrightUrl="" songArtistUrl="" songAudioFileUrl="" stabilizationMode="0" mediaItemType="2" />
    <MediaItem id="5681" filePath="C:\Users\owner\Dropbox\Work\png\animation T=1.05681.png" arWidth="640" arHeight="480" duration="0" songTitle="" songArtist="" songAlbum="" songCopyrightUrl="" songArtistUrl="" songAudioFileUrl="" stabilizationMode="0" mediaItemType="2" />
    <MediaItem id="514" filePath="C:\Users\owner\Dropbox\Work\png\animation T=1.00514.png" arWidth="640" arHeight="480" duration="0" songTitle="" songArtist="" songAlbum="" songCopyrightUrl="" songArtistUrl="" songAudioFileUrl="" stabilizationMode="0" mediaItemType="2" />
    <MediaItem id="5682" filePath="C:\Users\owner\Dropbox\Work\png\animation T=1.05682.png" arWidth="640" arHeight="480" duration="0" songTitle="" songArtist="" songAlbum="" songCopyrightUrl="" songArtistUrl="" songAudioFileUrl="" stabilizationMode="0" mediaItemType="2" />
    <MediaItem id="515" filePath="C:\Users\owner\Dropbox\Work\png\animation T=1.00515.png" arWidth="640" arHeight="480" duration="0" songTitle="" songArtist="" songAlbum="" songCopyrightUrl="" songArtistUrl="" songAudioFileUrl="" stabilizationMode="0" mediaItemType="2" />
    <MediaItem id="5683" filePath="C:\Users\owner\Dropbox\Work\png\animation T=1.05683.png" arWidth="640" arHeight="480" duration="0" songTitle="" songArtist="" songAlbum="" songCopyrightUrl="" songArtistUrl="" songAudioFileUrl="" stabilizationMode="0" mediaItemType="2" />
    <MediaItem id="516" filePath="C:\Users\owner\Dropbox\Work\png\animation T=1.00516.png" arWidth="640" arHeight="480" duration="0" songTitle="" songArtist="" songAlbum="" songCopyrightUrl="" songArtistUrl="" songAudioFileUrl="" stabilizationMode="0" mediaItemType="2" />
    <MediaItem id="5684" filePath="C:\Users\owner\Dropbox\Work\png\animation T=1.05684.png" arWidth="640" arHeight="480" duration="0" songTitle="" songArtist="" songAlbum="" songCopyrightUrl="" songArtistUrl="" songAudioFileUrl="" stabilizationMode="0" mediaItemType="2" />
    <MediaItem id="517" filePath="C:\Users\owner\Dropbox\Work\png\animation T=1.00517.png" arWidth="640" arHeight="480" duration="0" songTitle="" songArtist="" songAlbum="" songCopyrightUrl="" songArtistUrl="" songAudioFileUrl="" stabilizationMode="0" mediaItemType="2" />
    <MediaItem id="5685" filePath="C:\Users\owner\Dropbox\Work\png\animation T=1.05685.png" arWidth="640" arHeight="480" duration="0" songTitle="" songArtist="" songAlbum="" songCopyrightUrl="" songArtistUrl="" songAudioFileUrl="" stabilizationMode="0" mediaItemType="2" />
    <MediaItem id="518" filePath="C:\Users\owner\Dropbox\Work\png\animation T=1.00518.png" arWidth="640" arHeight="480" duration="0" songTitle="" songArtist="" songAlbum="" songCopyrightUrl="" songArtistUrl="" songAudioFileUrl="" stabilizationMode="0" mediaItemType="2" />
    <MediaItem id="5686" filePath="C:\Users\owner\Dropbox\Work\png\animation T=1.05686.png" arWidth="640" arHeight="480" duration="0" songTitle="" songArtist="" songAlbum="" songCopyrightUrl="" songArtistUrl="" songAudioFileUrl="" stabilizationMode="0" mediaItemType="2" />
    <MediaItem id="519" filePath="C:\Users\owner\Dropbox\Work\png\animation T=1.00519.png" arWidth="640" arHeight="480" duration="0" songTitle="" songArtist="" songAlbum="" songCopyrightUrl="" songArtistUrl="" songAudioFileUrl="" stabilizationMode="0" mediaItemType="2" />
    <MediaItem id="5687" filePath="C:\Users\owner\Dropbox\Work\png\animation T=1.05687.png" arWidth="640" arHeight="480" duration="0" songTitle="" songArtist="" songAlbum="" songCopyrightUrl="" songArtistUrl="" songAudioFileUrl="" stabilizationMode="0" mediaItemType="2" />
    <MediaItem id="520" filePath="C:\Users\owner\Dropbox\Work\png\animation T=1.00520.png" arWidth="640" arHeight="480" duration="0" songTitle="" songArtist="" songAlbum="" songCopyrightUrl="" songArtistUrl="" songAudioFileUrl="" stabilizationMode="0" mediaItemType="2" />
    <MediaItem id="5688" filePath="C:\Users\owner\Dropbox\Work\png\animation T=1.05688.png" arWidth="640" arHeight="480" duration="0" songTitle="" songArtist="" songAlbum="" songCopyrightUrl="" songArtistUrl="" songAudioFileUrl="" stabilizationMode="0" mediaItemType="2" />
    <MediaItem id="521" filePath="C:\Users\owner\Dropbox\Work\png\animation T=1.00521.png" arWidth="640" arHeight="480" duration="0" songTitle="" songArtist="" songAlbum="" songCopyrightUrl="" songArtistUrl="" songAudioFileUrl="" stabilizationMode="0" mediaItemType="2" />
    <MediaItem id="5689" filePath="C:\Users\owner\Dropbox\Work\png\animation T=1.05689.png" arWidth="640" arHeight="480" duration="0" songTitle="" songArtist="" songAlbum="" songCopyrightUrl="" songArtistUrl="" songAudioFileUrl="" stabilizationMode="0" mediaItemType="2" />
    <MediaItem id="522" filePath="C:\Users\owner\Dropbox\Work\png\animation T=1.00522.png" arWidth="640" arHeight="480" duration="0" songTitle="" songArtist="" songAlbum="" songCopyrightUrl="" songArtistUrl="" songAudioFileUrl="" stabilizationMode="0" mediaItemType="2" />
    <MediaItem id="5690" filePath="C:\Users\owner\Dropbox\Work\png\animation T=1.05690.png" arWidth="640" arHeight="480" duration="0" songTitle="" songArtist="" songAlbum="" songCopyrightUrl="" songArtistUrl="" songAudioFileUrl="" stabilizationMode="0" mediaItemType="2" />
    <MediaItem id="523" filePath="C:\Users\owner\Dropbox\Work\png\animation T=1.00523.png" arWidth="640" arHeight="480" duration="0" songTitle="" songArtist="" songAlbum="" songCopyrightUrl="" songArtistUrl="" songAudioFileUrl="" stabilizationMode="0" mediaItemType="2" />
    <MediaItem id="5691" filePath="C:\Users\owner\Dropbox\Work\png\animation T=1.05691.png" arWidth="640" arHeight="480" duration="0" songTitle="" songArtist="" songAlbum="" songCopyrightUrl="" songArtistUrl="" songAudioFileUrl="" stabilizationMode="0" mediaItemType="2" />
    <MediaItem id="524" filePath="C:\Users\owner\Dropbox\Work\png\animation T=1.00524.png" arWidth="640" arHeight="480" duration="0" songTitle="" songArtist="" songAlbum="" songCopyrightUrl="" songArtistUrl="" songAudioFileUrl="" stabilizationMode="0" mediaItemType="2" />
    <MediaItem id="5692" filePath="C:\Users\owner\Dropbox\Work\png\animation T=1.05692.png" arWidth="640" arHeight="480" duration="0" songTitle="" songArtist="" songAlbum="" songCopyrightUrl="" songArtistUrl="" songAudioFileUrl="" stabilizationMode="0" mediaItemType="2" />
    <MediaItem id="525" filePath="C:\Users\owner\Dropbox\Work\png\animation T=1.00525.png" arWidth="640" arHeight="480" duration="0" songTitle="" songArtist="" songAlbum="" songCopyrightUrl="" songArtistUrl="" songAudioFileUrl="" stabilizationMode="0" mediaItemType="2" />
    <MediaItem id="5693" filePath="C:\Users\owner\Dropbox\Work\png\animation T=1.05693.png" arWidth="640" arHeight="480" duration="0" songTitle="" songArtist="" songAlbum="" songCopyrightUrl="" songArtistUrl="" songAudioFileUrl="" stabilizationMode="0" mediaItemType="2" />
    <MediaItem id="526" filePath="C:\Users\owner\Dropbox\Work\png\animation T=1.00526.png" arWidth="640" arHeight="480" duration="0" songTitle="" songArtist="" songAlbum="" songCopyrightUrl="" songArtistUrl="" songAudioFileUrl="" stabilizationMode="0" mediaItemType="2" />
    <MediaItem id="5694" filePath="C:\Users\owner\Dropbox\Work\png\animation T=1.05694.png" arWidth="640" arHeight="480" duration="0" songTitle="" songArtist="" songAlbum="" songCopyrightUrl="" songArtistUrl="" songAudioFileUrl="" stabilizationMode="0" mediaItemType="2" />
    <MediaItem id="527" filePath="C:\Users\owner\Dropbox\Work\png\animation T=1.00527.png" arWidth="640" arHeight="480" duration="0" songTitle="" songArtist="" songAlbum="" songCopyrightUrl="" songArtistUrl="" songAudioFileUrl="" stabilizationMode="0" mediaItemType="2" />
    <MediaItem id="5695" filePath="C:\Users\owner\Dropbox\Work\png\animation T=1.05695.png" arWidth="640" arHeight="480" duration="0" songTitle="" songArtist="" songAlbum="" songCopyrightUrl="" songArtistUrl="" songAudioFileUrl="" stabilizationMode="0" mediaItemType="2" />
    <MediaItem id="528" filePath="C:\Users\owner\Dropbox\Work\png\animation T=1.00528.png" arWidth="640" arHeight="480" duration="0" songTitle="" songArtist="" songAlbum="" songCopyrightUrl="" songArtistUrl="" songAudioFileUrl="" stabilizationMode="0" mediaItemType="2" />
    <MediaItem id="5696" filePath="C:\Users\owner\Dropbox\Work\png\animation T=1.05696.png" arWidth="640" arHeight="480" duration="0" songTitle="" songArtist="" songAlbum="" songCopyrightUrl="" songArtistUrl="" songAudioFileUrl="" stabilizationMode="0" mediaItemType="2" />
    <MediaItem id="529" filePath="C:\Users\owner\Dropbox\Work\png\animation T=1.00529.png" arWidth="640" arHeight="480" duration="0" songTitle="" songArtist="" songAlbum="" songCopyrightUrl="" songArtistUrl="" songAudioFileUrl="" stabilizationMode="0" mediaItemType="2" />
    <MediaItem id="5697" filePath="C:\Users\owner\Dropbox\Work\png\animation T=1.05697.png" arWidth="640" arHeight="480" duration="0" songTitle="" songArtist="" songAlbum="" songCopyrightUrl="" songArtistUrl="" songAudioFileUrl="" stabilizationMode="0" mediaItemType="2" />
    <MediaItem id="530" filePath="C:\Users\owner\Dropbox\Work\png\animation T=1.00530.png" arWidth="640" arHeight="480" duration="0" songTitle="" songArtist="" songAlbum="" songCopyrightUrl="" songArtistUrl="" songAudioFileUrl="" stabilizationMode="0" mediaItemType="2" />
    <MediaItem id="5698" filePath="C:\Users\owner\Dropbox\Work\png\animation T=1.05698.png" arWidth="640" arHeight="480" duration="0" songTitle="" songArtist="" songAlbum="" songCopyrightUrl="" songArtistUrl="" songAudioFileUrl="" stabilizationMode="0" mediaItemType="2" />
    <MediaItem id="531" filePath="C:\Users\owner\Dropbox\Work\png\animation T=1.00531.png" arWidth="640" arHeight="480" duration="0" songTitle="" songArtist="" songAlbum="" songCopyrightUrl="" songArtistUrl="" songAudioFileUrl="" stabilizationMode="0" mediaItemType="2" />
    <MediaItem id="5699" filePath="C:\Users\owner\Dropbox\Work\png\animation T=1.05699.png" arWidth="640" arHeight="480" duration="0" songTitle="" songArtist="" songAlbum="" songCopyrightUrl="" songArtistUrl="" songAudioFileUrl="" stabilizationMode="0" mediaItemType="2" />
    <MediaItem id="532" filePath="C:\Users\owner\Dropbox\Work\png\animation T=1.00532.png" arWidth="640" arHeight="480" duration="0" songTitle="" songArtist="" songAlbum="" songCopyrightUrl="" songArtistUrl="" songAudioFileUrl="" stabilizationMode="0" mediaItemType="2" />
    <MediaItem id="5700" filePath="C:\Users\owner\Dropbox\Work\png\animation T=1.05700.png" arWidth="640" arHeight="480" duration="0" songTitle="" songArtist="" songAlbum="" songCopyrightUrl="" songArtistUrl="" songAudioFileUrl="" stabilizationMode="0" mediaItemType="2" />
    <MediaItem id="533" filePath="C:\Users\owner\Dropbox\Work\png\animation T=1.00533.png" arWidth="640" arHeight="480" duration="0" songTitle="" songArtist="" songAlbum="" songCopyrightUrl="" songArtistUrl="" songAudioFileUrl="" stabilizationMode="0" mediaItemType="2" />
    <MediaItem id="5701" filePath="C:\Users\owner\Dropbox\Work\png\animation T=1.05701.png" arWidth="640" arHeight="480" duration="0" songTitle="" songArtist="" songAlbum="" songCopyrightUrl="" songArtistUrl="" songAudioFileUrl="" stabilizationMode="0" mediaItemType="2" />
    <MediaItem id="534" filePath="C:\Users\owner\Dropbox\Work\png\animation T=1.00534.png" arWidth="640" arHeight="480" duration="0" songTitle="" songArtist="" songAlbum="" songCopyrightUrl="" songArtistUrl="" songAudioFileUrl="" stabilizationMode="0" mediaItemType="2" />
    <MediaItem id="5702" filePath="C:\Users\owner\Dropbox\Work\png\animation T=1.05702.png" arWidth="640" arHeight="480" duration="0" songTitle="" songArtist="" songAlbum="" songCopyrightUrl="" songArtistUrl="" songAudioFileUrl="" stabilizationMode="0" mediaItemType="2" />
    <MediaItem id="535" filePath="C:\Users\owner\Dropbox\Work\png\animation T=1.00535.png" arWidth="640" arHeight="480" duration="0" songTitle="" songArtist="" songAlbum="" songCopyrightUrl="" songArtistUrl="" songAudioFileUrl="" stabilizationMode="0" mediaItemType="2" />
    <MediaItem id="5703" filePath="C:\Users\owner\Dropbox\Work\png\animation T=1.05703.png" arWidth="640" arHeight="480" duration="0" songTitle="" songArtist="" songAlbum="" songCopyrightUrl="" songArtistUrl="" songAudioFileUrl="" stabilizationMode="0" mediaItemType="2" />
    <MediaItem id="536" filePath="C:\Users\owner\Dropbox\Work\png\animation T=1.00536.png" arWidth="640" arHeight="480" duration="0" songTitle="" songArtist="" songAlbum="" songCopyrightUrl="" songArtistUrl="" songAudioFileUrl="" stabilizationMode="0" mediaItemType="2" />
    <MediaItem id="5704" filePath="C:\Users\owner\Dropbox\Work\png\animation T=1.05704.png" arWidth="640" arHeight="480" duration="0" songTitle="" songArtist="" songAlbum="" songCopyrightUrl="" songArtistUrl="" songAudioFileUrl="" stabilizationMode="0" mediaItemType="2" />
    <MediaItem id="537" filePath="C:\Users\owner\Dropbox\Work\png\animation T=1.00537.png" arWidth="640" arHeight="480" duration="0" songTitle="" songArtist="" songAlbum="" songCopyrightUrl="" songArtistUrl="" songAudioFileUrl="" stabilizationMode="0" mediaItemType="2" />
    <MediaItem id="5705" filePath="C:\Users\owner\Dropbox\Work\png\animation T=1.05705.png" arWidth="640" arHeight="480" duration="0" songTitle="" songArtist="" songAlbum="" songCopyrightUrl="" songArtistUrl="" songAudioFileUrl="" stabilizationMode="0" mediaItemType="2" />
    <MediaItem id="538" filePath="C:\Users\owner\Dropbox\Work\png\animation T=1.00538.png" arWidth="640" arHeight="480" duration="0" songTitle="" songArtist="" songAlbum="" songCopyrightUrl="" songArtistUrl="" songAudioFileUrl="" stabilizationMode="0" mediaItemType="2" />
    <MediaItem id="5706" filePath="C:\Users\owner\Dropbox\Work\png\animation T=1.05706.png" arWidth="640" arHeight="480" duration="0" songTitle="" songArtist="" songAlbum="" songCopyrightUrl="" songArtistUrl="" songAudioFileUrl="" stabilizationMode="0" mediaItemType="2" />
    <MediaItem id="539" filePath="C:\Users\owner\Dropbox\Work\png\animation T=1.00539.png" arWidth="640" arHeight="480" duration="0" songTitle="" songArtist="" songAlbum="" songCopyrightUrl="" songArtistUrl="" songAudioFileUrl="" stabilizationMode="0" mediaItemType="2" />
    <MediaItem id="5707" filePath="C:\Users\owner\Dropbox\Work\png\animation T=1.05707.png" arWidth="640" arHeight="480" duration="0" songTitle="" songArtist="" songAlbum="" songCopyrightUrl="" songArtistUrl="" songAudioFileUrl="" stabilizationMode="0" mediaItemType="2" />
    <MediaItem id="540" filePath="C:\Users\owner\Dropbox\Work\png\animation T=1.00540.png" arWidth="640" arHeight="480" duration="0" songTitle="" songArtist="" songAlbum="" songCopyrightUrl="" songArtistUrl="" songAudioFileUrl="" stabilizationMode="0" mediaItemType="2" />
    <MediaItem id="5708" filePath="C:\Users\owner\Dropbox\Work\png\animation T=1.05708.png" arWidth="640" arHeight="480" duration="0" songTitle="" songArtist="" songAlbum="" songCopyrightUrl="" songArtistUrl="" songAudioFileUrl="" stabilizationMode="0" mediaItemType="2" />
    <MediaItem id="541" filePath="C:\Users\owner\Dropbox\Work\png\animation T=1.00541.png" arWidth="640" arHeight="480" duration="0" songTitle="" songArtist="" songAlbum="" songCopyrightUrl="" songArtistUrl="" songAudioFileUrl="" stabilizationMode="0" mediaItemType="2" />
    <MediaItem id="5709" filePath="C:\Users\owner\Dropbox\Work\png\animation T=1.05709.png" arWidth="640" arHeight="480" duration="0" songTitle="" songArtist="" songAlbum="" songCopyrightUrl="" songArtistUrl="" songAudioFileUrl="" stabilizationMode="0" mediaItemType="2" />
    <MediaItem id="542" filePath="C:\Users\owner\Dropbox\Work\png\animation T=1.00542.png" arWidth="640" arHeight="480" duration="0" songTitle="" songArtist="" songAlbum="" songCopyrightUrl="" songArtistUrl="" songAudioFileUrl="" stabilizationMode="0" mediaItemType="2" />
    <MediaItem id="5710" filePath="C:\Users\owner\Dropbox\Work\png\animation T=1.05710.png" arWidth="640" arHeight="480" duration="0" songTitle="" songArtist="" songAlbum="" songCopyrightUrl="" songArtistUrl="" songAudioFileUrl="" stabilizationMode="0" mediaItemType="2" />
    <MediaItem id="543" filePath="C:\Users\owner\Dropbox\Work\png\animation T=1.00543.png" arWidth="640" arHeight="480" duration="0" songTitle="" songArtist="" songAlbum="" songCopyrightUrl="" songArtistUrl="" songAudioFileUrl="" stabilizationMode="0" mediaItemType="2" />
    <MediaItem id="5711" filePath="C:\Users\owner\Dropbox\Work\png\animation T=1.05711.png" arWidth="640" arHeight="480" duration="0" songTitle="" songArtist="" songAlbum="" songCopyrightUrl="" songArtistUrl="" songAudioFileUrl="" stabilizationMode="0" mediaItemType="2" />
    <MediaItem id="544" filePath="C:\Users\owner\Dropbox\Work\png\animation T=1.00544.png" arWidth="640" arHeight="480" duration="0" songTitle="" songArtist="" songAlbum="" songCopyrightUrl="" songArtistUrl="" songAudioFileUrl="" stabilizationMode="0" mediaItemType="2" />
    <MediaItem id="5712" filePath="C:\Users\owner\Dropbox\Work\png\animation T=1.05712.png" arWidth="640" arHeight="480" duration="0" songTitle="" songArtist="" songAlbum="" songCopyrightUrl="" songArtistUrl="" songAudioFileUrl="" stabilizationMode="0" mediaItemType="2" />
    <MediaItem id="545" filePath="C:\Users\owner\Dropbox\Work\png\animation T=1.00545.png" arWidth="640" arHeight="480" duration="0" songTitle="" songArtist="" songAlbum="" songCopyrightUrl="" songArtistUrl="" songAudioFileUrl="" stabilizationMode="0" mediaItemType="2" />
    <MediaItem id="5713" filePath="C:\Users\owner\Dropbox\Work\png\animation T=1.05713.png" arWidth="640" arHeight="480" duration="0" songTitle="" songArtist="" songAlbum="" songCopyrightUrl="" songArtistUrl="" songAudioFileUrl="" stabilizationMode="0" mediaItemType="2" />
    <MediaItem id="546" filePath="C:\Users\owner\Dropbox\Work\png\animation T=1.00546.png" arWidth="640" arHeight="480" duration="0" songTitle="" songArtist="" songAlbum="" songCopyrightUrl="" songArtistUrl="" songAudioFileUrl="" stabilizationMode="0" mediaItemType="2" />
    <MediaItem id="5714" filePath="C:\Users\owner\Dropbox\Work\png\animation T=1.05714.png" arWidth="640" arHeight="480" duration="0" songTitle="" songArtist="" songAlbum="" songCopyrightUrl="" songArtistUrl="" songAudioFileUrl="" stabilizationMode="0" mediaItemType="2" />
    <MediaItem id="547" filePath="C:\Users\owner\Dropbox\Work\png\animation T=1.00547.png" arWidth="640" arHeight="480" duration="0" songTitle="" songArtist="" songAlbum="" songCopyrightUrl="" songArtistUrl="" songAudioFileUrl="" stabilizationMode="0" mediaItemType="2" />
    <MediaItem id="5715" filePath="C:\Users\owner\Dropbox\Work\png\animation T=1.05715.png" arWidth="640" arHeight="480" duration="0" songTitle="" songArtist="" songAlbum="" songCopyrightUrl="" songArtistUrl="" songAudioFileUrl="" stabilizationMode="0" mediaItemType="2" />
    <MediaItem id="548" filePath="C:\Users\owner\Dropbox\Work\png\animation T=1.00548.png" arWidth="640" arHeight="480" duration="0" songTitle="" songArtist="" songAlbum="" songCopyrightUrl="" songArtistUrl="" songAudioFileUrl="" stabilizationMode="0" mediaItemType="2" />
    <MediaItem id="5716" filePath="C:\Users\owner\Dropbox\Work\png\animation T=1.05716.png" arWidth="640" arHeight="480" duration="0" songTitle="" songArtist="" songAlbum="" songCopyrightUrl="" songArtistUrl="" songAudioFileUrl="" stabilizationMode="0" mediaItemType="2" />
    <MediaItem id="549" filePath="C:\Users\owner\Dropbox\Work\png\animation T=1.00549.png" arWidth="640" arHeight="480" duration="0" songTitle="" songArtist="" songAlbum="" songCopyrightUrl="" songArtistUrl="" songAudioFileUrl="" stabilizationMode="0" mediaItemType="2" />
    <MediaItem id="5717" filePath="C:\Users\owner\Dropbox\Work\png\animation T=1.05717.png" arWidth="640" arHeight="480" duration="0" songTitle="" songArtist="" songAlbum="" songCopyrightUrl="" songArtistUrl="" songAudioFileUrl="" stabilizationMode="0" mediaItemType="2" />
    <MediaItem id="550" filePath="C:\Users\owner\Dropbox\Work\png\animation T=1.00550.png" arWidth="640" arHeight="480" duration="0" songTitle="" songArtist="" songAlbum="" songCopyrightUrl="" songArtistUrl="" songAudioFileUrl="" stabilizationMode="0" mediaItemType="2" />
    <MediaItem id="5718" filePath="C:\Users\owner\Dropbox\Work\png\animation T=1.05718.png" arWidth="640" arHeight="480" duration="0" songTitle="" songArtist="" songAlbum="" songCopyrightUrl="" songArtistUrl="" songAudioFileUrl="" stabilizationMode="0" mediaItemType="2" />
    <MediaItem id="551" filePath="C:\Users\owner\Dropbox\Work\png\animation T=1.00551.png" arWidth="640" arHeight="480" duration="0" songTitle="" songArtist="" songAlbum="" songCopyrightUrl="" songArtistUrl="" songAudioFileUrl="" stabilizationMode="0" mediaItemType="2" />
    <MediaItem id="5719" filePath="C:\Users\owner\Dropbox\Work\png\animation T=1.05719.png" arWidth="640" arHeight="480" duration="0" songTitle="" songArtist="" songAlbum="" songCopyrightUrl="" songArtistUrl="" songAudioFileUrl="" stabilizationMode="0" mediaItemType="2" />
    <MediaItem id="552" filePath="C:\Users\owner\Dropbox\Work\png\animation T=1.00552.png" arWidth="640" arHeight="480" duration="0" songTitle="" songArtist="" songAlbum="" songCopyrightUrl="" songArtistUrl="" songAudioFileUrl="" stabilizationMode="0" mediaItemType="2" />
    <MediaItem id="5720" filePath="C:\Users\owner\Dropbox\Work\png\animation T=1.05720.png" arWidth="640" arHeight="480" duration="0" songTitle="" songArtist="" songAlbum="" songCopyrightUrl="" songArtistUrl="" songAudioFileUrl="" stabilizationMode="0" mediaItemType="2" />
    <MediaItem id="553" filePath="C:\Users\owner\Dropbox\Work\png\animation T=1.00553.png" arWidth="640" arHeight="480" duration="0" songTitle="" songArtist="" songAlbum="" songCopyrightUrl="" songArtistUrl="" songAudioFileUrl="" stabilizationMode="0" mediaItemType="2" />
    <MediaItem id="5721" filePath="C:\Users\owner\Dropbox\Work\png\animation T=1.05721.png" arWidth="640" arHeight="480" duration="0" songTitle="" songArtist="" songAlbum="" songCopyrightUrl="" songArtistUrl="" songAudioFileUrl="" stabilizationMode="0" mediaItemType="2" />
    <MediaItem id="554" filePath="C:\Users\owner\Dropbox\Work\png\animation T=1.00554.png" arWidth="640" arHeight="480" duration="0" songTitle="" songArtist="" songAlbum="" songCopyrightUrl="" songArtistUrl="" songAudioFileUrl="" stabilizationMode="0" mediaItemType="2" />
    <MediaItem id="5722" filePath="C:\Users\owner\Dropbox\Work\png\animation T=1.05722.png" arWidth="640" arHeight="480" duration="0" songTitle="" songArtist="" songAlbum="" songCopyrightUrl="" songArtistUrl="" songAudioFileUrl="" stabilizationMode="0" mediaItemType="2" />
    <MediaItem id="555" filePath="C:\Users\owner\Dropbox\Work\png\animation T=1.00555.png" arWidth="640" arHeight="480" duration="0" songTitle="" songArtist="" songAlbum="" songCopyrightUrl="" songArtistUrl="" songAudioFileUrl="" stabilizationMode="0" mediaItemType="2" />
    <MediaItem id="5723" filePath="C:\Users\owner\Dropbox\Work\png\animation T=1.05723.png" arWidth="640" arHeight="480" duration="0" songTitle="" songArtist="" songAlbum="" songCopyrightUrl="" songArtistUrl="" songAudioFileUrl="" stabilizationMode="0" mediaItemType="2" />
    <MediaItem id="556" filePath="C:\Users\owner\Dropbox\Work\png\animation T=1.00556.png" arWidth="640" arHeight="480" duration="0" songTitle="" songArtist="" songAlbum="" songCopyrightUrl="" songArtistUrl="" songAudioFileUrl="" stabilizationMode="0" mediaItemType="2" />
    <MediaItem id="5724" filePath="C:\Users\owner\Dropbox\Work\png\animation T=1.05724.png" arWidth="640" arHeight="480" duration="0" songTitle="" songArtist="" songAlbum="" songCopyrightUrl="" songArtistUrl="" songAudioFileUrl="" stabilizationMode="0" mediaItemType="2" />
    <MediaItem id="557" filePath="C:\Users\owner\Dropbox\Work\png\animation T=1.00557.png" arWidth="640" arHeight="480" duration="0" songTitle="" songArtist="" songAlbum="" songCopyrightUrl="" songArtistUrl="" songAudioFileUrl="" stabilizationMode="0" mediaItemType="2" />
    <MediaItem id="5725" filePath="C:\Users\owner\Dropbox\Work\png\animation T=1.05725.png" arWidth="640" arHeight="480" duration="0" songTitle="" songArtist="" songAlbum="" songCopyrightUrl="" songArtistUrl="" songAudioFileUrl="" stabilizationMode="0" mediaItemType="2" />
    <MediaItem id="558" filePath="C:\Users\owner\Dropbox\Work\png\animation T=1.00558.png" arWidth="640" arHeight="480" duration="0" songTitle="" songArtist="" songAlbum="" songCopyrightUrl="" songArtistUrl="" songAudioFileUrl="" stabilizationMode="0" mediaItemType="2" />
    <MediaItem id="5726" filePath="C:\Users\owner\Dropbox\Work\png\animation T=1.05726.png" arWidth="640" arHeight="480" duration="0" songTitle="" songArtist="" songAlbum="" songCopyrightUrl="" songArtistUrl="" songAudioFileUrl="" stabilizationMode="0" mediaItemType="2" />
    <MediaItem id="559" filePath="C:\Users\owner\Dropbox\Work\png\animation T=1.00559.png" arWidth="640" arHeight="480" duration="0" songTitle="" songArtist="" songAlbum="" songCopyrightUrl="" songArtistUrl="" songAudioFileUrl="" stabilizationMode="0" mediaItemType="2" />
    <MediaItem id="5727" filePath="C:\Users\owner\Dropbox\Work\png\animation T=1.05727.png" arWidth="640" arHeight="480" duration="0" songTitle="" songArtist="" songAlbum="" songCopyrightUrl="" songArtistUrl="" songAudioFileUrl="" stabilizationMode="0" mediaItemType="2" />
    <MediaItem id="560" filePath="C:\Users\owner\Dropbox\Work\png\animation T=1.00560.png" arWidth="640" arHeight="480" duration="0" songTitle="" songArtist="" songAlbum="" songCopyrightUrl="" songArtistUrl="" songAudioFileUrl="" stabilizationMode="0" mediaItemType="2" />
    <MediaItem id="5728" filePath="C:\Users\owner\Dropbox\Work\png\animation T=1.05728.png" arWidth="640" arHeight="480" duration="0" songTitle="" songArtist="" songAlbum="" songCopyrightUrl="" songArtistUrl="" songAudioFileUrl="" stabilizationMode="0" mediaItemType="2" />
    <MediaItem id="561" filePath="C:\Users\owner\Dropbox\Work\png\animation T=1.00561.png" arWidth="640" arHeight="480" duration="0" songTitle="" songArtist="" songAlbum="" songCopyrightUrl="" songArtistUrl="" songAudioFileUrl="" stabilizationMode="0" mediaItemType="2" />
    <MediaItem id="5729" filePath="C:\Users\owner\Dropbox\Work\png\animation T=1.05729.png" arWidth="640" arHeight="480" duration="0" songTitle="" songArtist="" songAlbum="" songCopyrightUrl="" songArtistUrl="" songAudioFileUrl="" stabilizationMode="0" mediaItemType="2" />
    <MediaItem id="562" filePath="C:\Users\owner\Dropbox\Work\png\animation T=1.00562.png" arWidth="640" arHeight="480" duration="0" songTitle="" songArtist="" songAlbum="" songCopyrightUrl="" songArtistUrl="" songAudioFileUrl="" stabilizationMode="0" mediaItemType="2" />
    <MediaItem id="5730" filePath="C:\Users\owner\Dropbox\Work\png\animation T=1.05730.png" arWidth="640" arHeight="480" duration="0" songTitle="" songArtist="" songAlbum="" songCopyrightUrl="" songArtistUrl="" songAudioFileUrl="" stabilizationMode="0" mediaItemType="2" />
    <MediaItem id="563" filePath="C:\Users\owner\Dropbox\Work\png\animation T=1.00563.png" arWidth="640" arHeight="480" duration="0" songTitle="" songArtist="" songAlbum="" songCopyrightUrl="" songArtistUrl="" songAudioFileUrl="" stabilizationMode="0" mediaItemType="2" />
    <MediaItem id="5731" filePath="C:\Users\owner\Dropbox\Work\png\animation T=1.05731.png" arWidth="640" arHeight="480" duration="0" songTitle="" songArtist="" songAlbum="" songCopyrightUrl="" songArtistUrl="" songAudioFileUrl="" stabilizationMode="0" mediaItemType="2" />
    <MediaItem id="564" filePath="C:\Users\owner\Dropbox\Work\png\animation T=1.00564.png" arWidth="640" arHeight="480" duration="0" songTitle="" songArtist="" songAlbum="" songCopyrightUrl="" songArtistUrl="" songAudioFileUrl="" stabilizationMode="0" mediaItemType="2" />
    <MediaItem id="5732" filePath="C:\Users\owner\Dropbox\Work\png\animation T=1.05732.png" arWidth="640" arHeight="480" duration="0" songTitle="" songArtist="" songAlbum="" songCopyrightUrl="" songArtistUrl="" songAudioFileUrl="" stabilizationMode="0" mediaItemType="2" />
    <MediaItem id="565" filePath="C:\Users\owner\Dropbox\Work\png\animation T=1.00565.png" arWidth="640" arHeight="480" duration="0" songTitle="" songArtist="" songAlbum="" songCopyrightUrl="" songArtistUrl="" songAudioFileUrl="" stabilizationMode="0" mediaItemType="2" />
    <MediaItem id="5733" filePath="C:\Users\owner\Dropbox\Work\png\animation T=1.05733.png" arWidth="640" arHeight="480" duration="0" songTitle="" songArtist="" songAlbum="" songCopyrightUrl="" songArtistUrl="" songAudioFileUrl="" stabilizationMode="0" mediaItemType="2" />
    <MediaItem id="566" filePath="C:\Users\owner\Dropbox\Work\png\animation T=1.00566.png" arWidth="640" arHeight="480" duration="0" songTitle="" songArtist="" songAlbum="" songCopyrightUrl="" songArtistUrl="" songAudioFileUrl="" stabilizationMode="0" mediaItemType="2" />
    <MediaItem id="5734" filePath="C:\Users\owner\Dropbox\Work\png\animation T=1.05734.png" arWidth="640" arHeight="480" duration="0" songTitle="" songArtist="" songAlbum="" songCopyrightUrl="" songArtistUrl="" songAudioFileUrl="" stabilizationMode="0" mediaItemType="2" />
    <MediaItem id="567" filePath="C:\Users\owner\Dropbox\Work\png\animation T=1.00567.png" arWidth="640" arHeight="480" duration="0" songTitle="" songArtist="" songAlbum="" songCopyrightUrl="" songArtistUrl="" songAudioFileUrl="" stabilizationMode="0" mediaItemType="2" />
    <MediaItem id="5735" filePath="C:\Users\owner\Dropbox\Work\png\animation T=1.05735.png" arWidth="640" arHeight="480" duration="0" songTitle="" songArtist="" songAlbum="" songCopyrightUrl="" songArtistUrl="" songAudioFileUrl="" stabilizationMode="0" mediaItemType="2" />
    <MediaItem id="568" filePath="C:\Users\owner\Dropbox\Work\png\animation T=1.00568.png" arWidth="640" arHeight="480" duration="0" songTitle="" songArtist="" songAlbum="" songCopyrightUrl="" songArtistUrl="" songAudioFileUrl="" stabilizationMode="0" mediaItemType="2" />
    <MediaItem id="5736" filePath="C:\Users\owner\Dropbox\Work\png\animation T=1.05736.png" arWidth="640" arHeight="480" duration="0" songTitle="" songArtist="" songAlbum="" songCopyrightUrl="" songArtistUrl="" songAudioFileUrl="" stabilizationMode="0" mediaItemType="2" />
    <MediaItem id="569" filePath="C:\Users\owner\Dropbox\Work\png\animation T=1.00569.png" arWidth="640" arHeight="480" duration="0" songTitle="" songArtist="" songAlbum="" songCopyrightUrl="" songArtistUrl="" songAudioFileUrl="" stabilizationMode="0" mediaItemType="2" />
    <MediaItem id="5737" filePath="C:\Users\owner\Dropbox\Work\png\animation T=1.05737.png" arWidth="640" arHeight="480" duration="0" songTitle="" songArtist="" songAlbum="" songCopyrightUrl="" songArtistUrl="" songAudioFileUrl="" stabilizationMode="0" mediaItemType="2" />
    <MediaItem id="570" filePath="C:\Users\owner\Dropbox\Work\png\animation T=1.00570.png" arWidth="640" arHeight="480" duration="0" songTitle="" songArtist="" songAlbum="" songCopyrightUrl="" songArtistUrl="" songAudioFileUrl="" stabilizationMode="0" mediaItemType="2" />
    <MediaItem id="5738" filePath="C:\Users\owner\Dropbox\Work\png\animation T=1.05738.png" arWidth="640" arHeight="480" duration="0" songTitle="" songArtist="" songAlbum="" songCopyrightUrl="" songArtistUrl="" songAudioFileUrl="" stabilizationMode="0" mediaItemType="2" />
    <MediaItem id="571" filePath="C:\Users\owner\Dropbox\Work\png\animation T=1.00571.png" arWidth="640" arHeight="480" duration="0" songTitle="" songArtist="" songAlbum="" songCopyrightUrl="" songArtistUrl="" songAudioFileUrl="" stabilizationMode="0" mediaItemType="2" />
    <MediaItem id="5739" filePath="C:\Users\owner\Dropbox\Work\png\animation T=1.05739.png" arWidth="640" arHeight="480" duration="0" songTitle="" songArtist="" songAlbum="" songCopyrightUrl="" songArtistUrl="" songAudioFileUrl="" stabilizationMode="0" mediaItemType="2" />
    <MediaItem id="572" filePath="C:\Users\owner\Dropbox\Work\png\animation T=1.00572.png" arWidth="640" arHeight="480" duration="0" songTitle="" songArtist="" songAlbum="" songCopyrightUrl="" songArtistUrl="" songAudioFileUrl="" stabilizationMode="0" mediaItemType="2" />
    <MediaItem id="5740" filePath="C:\Users\owner\Dropbox\Work\png\animation T=1.05740.png" arWidth="640" arHeight="480" duration="0" songTitle="" songArtist="" songAlbum="" songCopyrightUrl="" songArtistUrl="" songAudioFileUrl="" stabilizationMode="0" mediaItemType="2" />
    <MediaItem id="573" filePath="C:\Users\owner\Dropbox\Work\png\animation T=1.00573.png" arWidth="640" arHeight="480" duration="0" songTitle="" songArtist="" songAlbum="" songCopyrightUrl="" songArtistUrl="" songAudioFileUrl="" stabilizationMode="0" mediaItemType="2" />
    <MediaItem id="5741" filePath="C:\Users\owner\Dropbox\Work\png\animation T=1.05741.png" arWidth="640" arHeight="480" duration="0" songTitle="" songArtist="" songAlbum="" songCopyrightUrl="" songArtistUrl="" songAudioFileUrl="" stabilizationMode="0" mediaItemType="2" />
    <MediaItem id="574" filePath="C:\Users\owner\Dropbox\Work\png\animation T=1.00574.png" arWidth="640" arHeight="480" duration="0" songTitle="" songArtist="" songAlbum="" songCopyrightUrl="" songArtistUrl="" songAudioFileUrl="" stabilizationMode="0" mediaItemType="2" />
    <MediaItem id="5742" filePath="C:\Users\owner\Dropbox\Work\png\animation T=1.05742.png" arWidth="640" arHeight="480" duration="0" songTitle="" songArtist="" songAlbum="" songCopyrightUrl="" songArtistUrl="" songAudioFileUrl="" stabilizationMode="0" mediaItemType="2" />
    <MediaItem id="575" filePath="C:\Users\owner\Dropbox\Work\png\animation T=1.00575.png" arWidth="640" arHeight="480" duration="0" songTitle="" songArtist="" songAlbum="" songCopyrightUrl="" songArtistUrl="" songAudioFileUrl="" stabilizationMode="0" mediaItemType="2" />
    <MediaItem id="5743" filePath="C:\Users\owner\Dropbox\Work\png\animation T=1.05743.png" arWidth="640" arHeight="480" duration="0" songTitle="" songArtist="" songAlbum="" songCopyrightUrl="" songArtistUrl="" songAudioFileUrl="" stabilizationMode="0" mediaItemType="2" />
    <MediaItem id="576" filePath="C:\Users\owner\Dropbox\Work\png\animation T=1.00576.png" arWidth="640" arHeight="480" duration="0" songTitle="" songArtist="" songAlbum="" songCopyrightUrl="" songArtistUrl="" songAudioFileUrl="" stabilizationMode="0" mediaItemType="2" />
    <MediaItem id="5744" filePath="C:\Users\owner\Dropbox\Work\png\animation T=1.05744.png" arWidth="640" arHeight="480" duration="0" songTitle="" songArtist="" songAlbum="" songCopyrightUrl="" songArtistUrl="" songAudioFileUrl="" stabilizationMode="0" mediaItemType="2" />
    <MediaItem id="577" filePath="C:\Users\owner\Dropbox\Work\png\animation T=1.00577.png" arWidth="640" arHeight="480" duration="0" songTitle="" songArtist="" songAlbum="" songCopyrightUrl="" songArtistUrl="" songAudioFileUrl="" stabilizationMode="0" mediaItemType="2" />
    <MediaItem id="5745" filePath="C:\Users\owner\Dropbox\Work\png\animation T=1.05745.png" arWidth="640" arHeight="480" duration="0" songTitle="" songArtist="" songAlbum="" songCopyrightUrl="" songArtistUrl="" songAudioFileUrl="" stabilizationMode="0" mediaItemType="2" />
    <MediaItem id="578" filePath="C:\Users\owner\Dropbox\Work\png\animation T=1.00578.png" arWidth="640" arHeight="480" duration="0" songTitle="" songArtist="" songAlbum="" songCopyrightUrl="" songArtistUrl="" songAudioFileUrl="" stabilizationMode="0" mediaItemType="2" />
    <MediaItem id="5746" filePath="C:\Users\owner\Dropbox\Work\png\animation T=1.05746.png" arWidth="640" arHeight="480" duration="0" songTitle="" songArtist="" songAlbum="" songCopyrightUrl="" songArtistUrl="" songAudioFileUrl="" stabilizationMode="0" mediaItemType="2" />
    <MediaItem id="579" filePath="C:\Users\owner\Dropbox\Work\png\animation T=1.00579.png" arWidth="640" arHeight="480" duration="0" songTitle="" songArtist="" songAlbum="" songCopyrightUrl="" songArtistUrl="" songAudioFileUrl="" stabilizationMode="0" mediaItemType="2" />
    <MediaItem id="5747" filePath="C:\Users\owner\Dropbox\Work\png\animation T=1.05747.png" arWidth="640" arHeight="480" duration="0" songTitle="" songArtist="" songAlbum="" songCopyrightUrl="" songArtistUrl="" songAudioFileUrl="" stabilizationMode="0" mediaItemType="2" />
    <MediaItem id="580" filePath="C:\Users\owner\Dropbox\Work\png\animation T=1.00580.png" arWidth="640" arHeight="480" duration="0" songTitle="" songArtist="" songAlbum="" songCopyrightUrl="" songArtistUrl="" songAudioFileUrl="" stabilizationMode="0" mediaItemType="2" />
    <MediaItem id="5748" filePath="C:\Users\owner\Dropbox\Work\png\animation T=1.05748.png" arWidth="640" arHeight="480" duration="0" songTitle="" songArtist="" songAlbum="" songCopyrightUrl="" songArtistUrl="" songAudioFileUrl="" stabilizationMode="0" mediaItemType="2" />
    <MediaItem id="581" filePath="C:\Users\owner\Dropbox\Work\png\animation T=1.00581.png" arWidth="640" arHeight="480" duration="0" songTitle="" songArtist="" songAlbum="" songCopyrightUrl="" songArtistUrl="" songAudioFileUrl="" stabilizationMode="0" mediaItemType="2" />
    <MediaItem id="5749" filePath="C:\Users\owner\Dropbox\Work\png\animation T=1.05749.png" arWidth="640" arHeight="480" duration="0" songTitle="" songArtist="" songAlbum="" songCopyrightUrl="" songArtistUrl="" songAudioFileUrl="" stabilizationMode="0" mediaItemType="2" />
    <MediaItem id="582" filePath="C:\Users\owner\Dropbox\Work\png\animation T=1.00582.png" arWidth="640" arHeight="480" duration="0" songTitle="" songArtist="" songAlbum="" songCopyrightUrl="" songArtistUrl="" songAudioFileUrl="" stabilizationMode="0" mediaItemType="2" />
    <MediaItem id="5750" filePath="C:\Users\owner\Dropbox\Work\png\animation T=1.05750.png" arWidth="640" arHeight="480" duration="0" songTitle="" songArtist="" songAlbum="" songCopyrightUrl="" songArtistUrl="" songAudioFileUrl="" stabilizationMode="0" mediaItemType="2" />
    <MediaItem id="583" filePath="C:\Users\owner\Dropbox\Work\png\animation T=1.00583.png" arWidth="640" arHeight="480" duration="0" songTitle="" songArtist="" songAlbum="" songCopyrightUrl="" songArtistUrl="" songAudioFileUrl="" stabilizationMode="0" mediaItemType="2" />
    <MediaItem id="5751" filePath="C:\Users\owner\Dropbox\Work\png\animation T=1.05751.png" arWidth="640" arHeight="480" duration="0" songTitle="" songArtist="" songAlbum="" songCopyrightUrl="" songArtistUrl="" songAudioFileUrl="" stabilizationMode="0" mediaItemType="2" />
    <MediaItem id="584" filePath="C:\Users\owner\Dropbox\Work\png\animation T=1.00584.png" arWidth="640" arHeight="480" duration="0" songTitle="" songArtist="" songAlbum="" songCopyrightUrl="" songArtistUrl="" songAudioFileUrl="" stabilizationMode="0" mediaItemType="2" />
    <MediaItem id="5752" filePath="C:\Users\owner\Dropbox\Work\png\animation T=1.05752.png" arWidth="640" arHeight="480" duration="0" songTitle="" songArtist="" songAlbum="" songCopyrightUrl="" songArtistUrl="" songAudioFileUrl="" stabilizationMode="0" mediaItemType="2" />
    <MediaItem id="585" filePath="C:\Users\owner\Dropbox\Work\png\animation T=1.00585.png" arWidth="640" arHeight="480" duration="0" songTitle="" songArtist="" songAlbum="" songCopyrightUrl="" songArtistUrl="" songAudioFileUrl="" stabilizationMode="0" mediaItemType="2" />
    <MediaItem id="5753" filePath="C:\Users\owner\Dropbox\Work\png\animation T=1.05753.png" arWidth="640" arHeight="480" duration="0" songTitle="" songArtist="" songAlbum="" songCopyrightUrl="" songArtistUrl="" songAudioFileUrl="" stabilizationMode="0" mediaItemType="2" />
    <MediaItem id="586" filePath="C:\Users\owner\Dropbox\Work\png\animation T=1.00586.png" arWidth="640" arHeight="480" duration="0" songTitle="" songArtist="" songAlbum="" songCopyrightUrl="" songArtistUrl="" songAudioFileUrl="" stabilizationMode="0" mediaItemType="2" />
    <MediaItem id="5754" filePath="C:\Users\owner\Dropbox\Work\png\animation T=1.05754.png" arWidth="640" arHeight="480" duration="0" songTitle="" songArtist="" songAlbum="" songCopyrightUrl="" songArtistUrl="" songAudioFileUrl="" stabilizationMode="0" mediaItemType="2" />
    <MediaItem id="587" filePath="C:\Users\owner\Dropbox\Work\png\animation T=1.00587.png" arWidth="640" arHeight="480" duration="0" songTitle="" songArtist="" songAlbum="" songCopyrightUrl="" songArtistUrl="" songAudioFileUrl="" stabilizationMode="0" mediaItemType="2" />
    <MediaItem id="5755" filePath="C:\Users\owner\Dropbox\Work\png\animation T=1.05755.png" arWidth="640" arHeight="480" duration="0" songTitle="" songArtist="" songAlbum="" songCopyrightUrl="" songArtistUrl="" songAudioFileUrl="" stabilizationMode="0" mediaItemType="2" />
    <MediaItem id="588" filePath="C:\Users\owner\Dropbox\Work\png\animation T=1.00588.png" arWidth="640" arHeight="480" duration="0" songTitle="" songArtist="" songAlbum="" songCopyrightUrl="" songArtistUrl="" songAudioFileUrl="" stabilizationMode="0" mediaItemType="2" />
    <MediaItem id="5756" filePath="C:\Users\owner\Dropbox\Work\png\animation T=1.05756.png" arWidth="640" arHeight="480" duration="0" songTitle="" songArtist="" songAlbum="" songCopyrightUrl="" songArtistUrl="" songAudioFileUrl="" stabilizationMode="0" mediaItemType="2" />
    <MediaItem id="589" filePath="C:\Users\owner\Dropbox\Work\png\animation T=1.00589.png" arWidth="640" arHeight="480" duration="0" songTitle="" songArtist="" songAlbum="" songCopyrightUrl="" songArtistUrl="" songAudioFileUrl="" stabilizationMode="0" mediaItemType="2" />
    <MediaItem id="5757" filePath="C:\Users\owner\Dropbox\Work\png\animation T=1.05757.png" arWidth="640" arHeight="480" duration="0" songTitle="" songArtist="" songAlbum="" songCopyrightUrl="" songArtistUrl="" songAudioFileUrl="" stabilizationMode="0" mediaItemType="2" />
    <MediaItem id="590" filePath="C:\Users\owner\Dropbox\Work\png\animation T=1.00590.png" arWidth="640" arHeight="480" duration="0" songTitle="" songArtist="" songAlbum="" songCopyrightUrl="" songArtistUrl="" songAudioFileUrl="" stabilizationMode="0" mediaItemType="2" />
    <MediaItem id="5758" filePath="C:\Users\owner\Dropbox\Work\png\animation T=1.05758.png" arWidth="640" arHeight="480" duration="0" songTitle="" songArtist="" songAlbum="" songCopyrightUrl="" songArtistUrl="" songAudioFileUrl="" stabilizationMode="0" mediaItemType="2" />
    <MediaItem id="591" filePath="C:\Users\owner\Dropbox\Work\png\animation T=1.00591.png" arWidth="640" arHeight="480" duration="0" songTitle="" songArtist="" songAlbum="" songCopyrightUrl="" songArtistUrl="" songAudioFileUrl="" stabilizationMode="0" mediaItemType="2" />
    <MediaItem id="5759" filePath="C:\Users\owner\Dropbox\Work\png\animation T=1.05759.png" arWidth="640" arHeight="480" duration="0" songTitle="" songArtist="" songAlbum="" songCopyrightUrl="" songArtistUrl="" songAudioFileUrl="" stabilizationMode="0" mediaItemType="2" />
    <MediaItem id="592" filePath="C:\Users\owner\Dropbox\Work\png\animation T=1.00592.png" arWidth="640" arHeight="480" duration="0" songTitle="" songArtist="" songAlbum="" songCopyrightUrl="" songArtistUrl="" songAudioFileUrl="" stabilizationMode="0" mediaItemType="2" />
    <MediaItem id="5760" filePath="C:\Users\owner\Dropbox\Work\png\animation T=1.05760.png" arWidth="640" arHeight="480" duration="0" songTitle="" songArtist="" songAlbum="" songCopyrightUrl="" songArtistUrl="" songAudioFileUrl="" stabilizationMode="0" mediaItemType="2" />
    <MediaItem id="593" filePath="C:\Users\owner\Dropbox\Work\png\animation T=1.00593.png" arWidth="640" arHeight="480" duration="0" songTitle="" songArtist="" songAlbum="" songCopyrightUrl="" songArtistUrl="" songAudioFileUrl="" stabilizationMode="0" mediaItemType="2" />
    <MediaItem id="5761" filePath="C:\Users\owner\Dropbox\Work\png\animation T=1.05761.png" arWidth="640" arHeight="480" duration="0" songTitle="" songArtist="" songAlbum="" songCopyrightUrl="" songArtistUrl="" songAudioFileUrl="" stabilizationMode="0" mediaItemType="2" />
    <MediaItem id="594" filePath="C:\Users\owner\Dropbox\Work\png\animation T=1.00594.png" arWidth="640" arHeight="480" duration="0" songTitle="" songArtist="" songAlbum="" songCopyrightUrl="" songArtistUrl="" songAudioFileUrl="" stabilizationMode="0" mediaItemType="2" />
    <MediaItem id="5762" filePath="C:\Users\owner\Dropbox\Work\png\animation T=1.05762.png" arWidth="640" arHeight="480" duration="0" songTitle="" songArtist="" songAlbum="" songCopyrightUrl="" songArtistUrl="" songAudioFileUrl="" stabilizationMode="0" mediaItemType="2" />
    <MediaItem id="595" filePath="C:\Users\owner\Dropbox\Work\png\animation T=1.00595.png" arWidth="640" arHeight="480" duration="0" songTitle="" songArtist="" songAlbum="" songCopyrightUrl="" songArtistUrl="" songAudioFileUrl="" stabilizationMode="0" mediaItemType="2" />
    <MediaItem id="5763" filePath="C:\Users\owner\Dropbox\Work\png\animation T=1.05763.png" arWidth="640" arHeight="480" duration="0" songTitle="" songArtist="" songAlbum="" songCopyrightUrl="" songArtistUrl="" songAudioFileUrl="" stabilizationMode="0" mediaItemType="2" />
    <MediaItem id="596" filePath="C:\Users\owner\Dropbox\Work\png\animation T=1.00596.png" arWidth="640" arHeight="480" duration="0" songTitle="" songArtist="" songAlbum="" songCopyrightUrl="" songArtistUrl="" songAudioFileUrl="" stabilizationMode="0" mediaItemType="2" />
    <MediaItem id="5764" filePath="C:\Users\owner\Dropbox\Work\png\animation T=1.05764.png" arWidth="640" arHeight="480" duration="0" songTitle="" songArtist="" songAlbum="" songCopyrightUrl="" songArtistUrl="" songAudioFileUrl="" stabilizationMode="0" mediaItemType="2" />
    <MediaItem id="597" filePath="C:\Users\owner\Dropbox\Work\png\animation T=1.00597.png" arWidth="640" arHeight="480" duration="0" songTitle="" songArtist="" songAlbum="" songCopyrightUrl="" songArtistUrl="" songAudioFileUrl="" stabilizationMode="0" mediaItemType="2" />
    <MediaItem id="5765" filePath="C:\Users\owner\Dropbox\Work\png\animation T=1.05765.png" arWidth="640" arHeight="480" duration="0" songTitle="" songArtist="" songAlbum="" songCopyrightUrl="" songArtistUrl="" songAudioFileUrl="" stabilizationMode="0" mediaItemType="2" />
    <MediaItem id="598" filePath="C:\Users\owner\Dropbox\Work\png\animation T=1.00598.png" arWidth="640" arHeight="480" duration="0" songTitle="" songArtist="" songAlbum="" songCopyrightUrl="" songArtistUrl="" songAudioFileUrl="" stabilizationMode="0" mediaItemType="2" />
    <MediaItem id="5766" filePath="C:\Users\owner\Dropbox\Work\png\animation T=1.05766.png" arWidth="640" arHeight="480" duration="0" songTitle="" songArtist="" songAlbum="" songCopyrightUrl="" songArtistUrl="" songAudioFileUrl="" stabilizationMode="0" mediaItemType="2" />
    <MediaItem id="599" filePath="C:\Users\owner\Dropbox\Work\png\animation T=1.00599.png" arWidth="640" arHeight="480" duration="0" songTitle="" songArtist="" songAlbum="" songCopyrightUrl="" songArtistUrl="" songAudioFileUrl="" stabilizationMode="0" mediaItemType="2" />
    <MediaItem id="5767" filePath="C:\Users\owner\Dropbox\Work\png\animation T=1.05767.png" arWidth="640" arHeight="480" duration="0" songTitle="" songArtist="" songAlbum="" songCopyrightUrl="" songArtistUrl="" songAudioFileUrl="" stabilizationMode="0" mediaItemType="2" />
    <MediaItem id="600" filePath="C:\Users\owner\Dropbox\Work\png\animation T=1.00600.png" arWidth="640" arHeight="480" duration="0" songTitle="" songArtist="" songAlbum="" songCopyrightUrl="" songArtistUrl="" songAudioFileUrl="" stabilizationMode="0" mediaItemType="2" />
    <MediaItem id="5768" filePath="C:\Users\owner\Dropbox\Work\png\animation T=1.05768.png" arWidth="640" arHeight="480" duration="0" songTitle="" songArtist="" songAlbum="" songCopyrightUrl="" songArtistUrl="" songAudioFileUrl="" stabilizationMode="0" mediaItemType="2" />
    <MediaItem id="601" filePath="C:\Users\owner\Dropbox\Work\png\animation T=1.00601.png" arWidth="640" arHeight="480" duration="0" songTitle="" songArtist="" songAlbum="" songCopyrightUrl="" songArtistUrl="" songAudioFileUrl="" stabilizationMode="0" mediaItemType="2" />
    <MediaItem id="5769" filePath="C:\Users\owner\Dropbox\Work\png\animation T=1.05769.png" arWidth="640" arHeight="480" duration="0" songTitle="" songArtist="" songAlbum="" songCopyrightUrl="" songArtistUrl="" songAudioFileUrl="" stabilizationMode="0" mediaItemType="2" />
    <MediaItem id="602" filePath="C:\Users\owner\Dropbox\Work\png\animation T=1.00602.png" arWidth="640" arHeight="480" duration="0" songTitle="" songArtist="" songAlbum="" songCopyrightUrl="" songArtistUrl="" songAudioFileUrl="" stabilizationMode="0" mediaItemType="2" />
    <MediaItem id="5770" filePath="C:\Users\owner\Dropbox\Work\png\animation T=1.05770.png" arWidth="640" arHeight="480" duration="0" songTitle="" songArtist="" songAlbum="" songCopyrightUrl="" songArtistUrl="" songAudioFileUrl="" stabilizationMode="0" mediaItemType="2" />
    <MediaItem id="603" filePath="C:\Users\owner\Dropbox\Work\png\animation T=1.00603.png" arWidth="640" arHeight="480" duration="0" songTitle="" songArtist="" songAlbum="" songCopyrightUrl="" songArtistUrl="" songAudioFileUrl="" stabilizationMode="0" mediaItemType="2" />
    <MediaItem id="5771" filePath="C:\Users\owner\Dropbox\Work\png\animation T=1.05771.png" arWidth="640" arHeight="480" duration="0" songTitle="" songArtist="" songAlbum="" songCopyrightUrl="" songArtistUrl="" songAudioFileUrl="" stabilizationMode="0" mediaItemType="2" />
    <MediaItem id="604" filePath="C:\Users\owner\Dropbox\Work\png\animation T=1.00604.png" arWidth="640" arHeight="480" duration="0" songTitle="" songArtist="" songAlbum="" songCopyrightUrl="" songArtistUrl="" songAudioFileUrl="" stabilizationMode="0" mediaItemType="2" />
    <MediaItem id="5772" filePath="C:\Users\owner\Dropbox\Work\png\animation T=1.05772.png" arWidth="640" arHeight="480" duration="0" songTitle="" songArtist="" songAlbum="" songCopyrightUrl="" songArtistUrl="" songAudioFileUrl="" stabilizationMode="0" mediaItemType="2" />
    <MediaItem id="605" filePath="C:\Users\owner\Dropbox\Work\png\animation T=1.00605.png" arWidth="640" arHeight="480" duration="0" songTitle="" songArtist="" songAlbum="" songCopyrightUrl="" songArtistUrl="" songAudioFileUrl="" stabilizationMode="0" mediaItemType="2" />
    <MediaItem id="5773" filePath="C:\Users\owner\Dropbox\Work\png\animation T=1.05773.png" arWidth="640" arHeight="480" duration="0" songTitle="" songArtist="" songAlbum="" songCopyrightUrl="" songArtistUrl="" songAudioFileUrl="" stabilizationMode="0" mediaItemType="2" />
    <MediaItem id="606" filePath="C:\Users\owner\Dropbox\Work\png\animation T=1.00606.png" arWidth="640" arHeight="480" duration="0" songTitle="" songArtist="" songAlbum="" songCopyrightUrl="" songArtistUrl="" songAudioFileUrl="" stabilizationMode="0" mediaItemType="2" />
    <MediaItem id="5774" filePath="C:\Users\owner\Dropbox\Work\png\animation T=1.05774.png" arWidth="640" arHeight="480" duration="0" songTitle="" songArtist="" songAlbum="" songCopyrightUrl="" songArtistUrl="" songAudioFileUrl="" stabilizationMode="0" mediaItemType="2" />
    <MediaItem id="607" filePath="C:\Users\owner\Dropbox\Work\png\animation T=1.00607.png" arWidth="640" arHeight="480" duration="0" songTitle="" songArtist="" songAlbum="" songCopyrightUrl="" songArtistUrl="" songAudioFileUrl="" stabilizationMode="0" mediaItemType="2" />
    <MediaItem id="5775" filePath="C:\Users\owner\Dropbox\Work\png\animation T=1.05775.png" arWidth="640" arHeight="480" duration="0" songTitle="" songArtist="" songAlbum="" songCopyrightUrl="" songArtistUrl="" songAudioFileUrl="" stabilizationMode="0" mediaItemType="2" />
    <MediaItem id="608" filePath="C:\Users\owner\Dropbox\Work\png\animation T=1.00608.png" arWidth="640" arHeight="480" duration="0" songTitle="" songArtist="" songAlbum="" songCopyrightUrl="" songArtistUrl="" songAudioFileUrl="" stabilizationMode="0" mediaItemType="2" />
    <MediaItem id="5776" filePath="C:\Users\owner\Dropbox\Work\png\animation T=1.05776.png" arWidth="640" arHeight="480" duration="0" songTitle="" songArtist="" songAlbum="" songCopyrightUrl="" songArtistUrl="" songAudioFileUrl="" stabilizationMode="0" mediaItemType="2" />
    <MediaItem id="609" filePath="C:\Users\owner\Dropbox\Work\png\animation T=1.00609.png" arWidth="640" arHeight="480" duration="0" songTitle="" songArtist="" songAlbum="" songCopyrightUrl="" songArtistUrl="" songAudioFileUrl="" stabilizationMode="0" mediaItemType="2" />
    <MediaItem id="5777" filePath="C:\Users\owner\Dropbox\Work\png\animation T=1.05777.png" arWidth="640" arHeight="480" duration="0" songTitle="" songArtist="" songAlbum="" songCopyrightUrl="" songArtistUrl="" songAudioFileUrl="" stabilizationMode="0" mediaItemType="2" />
    <MediaItem id="610" filePath="C:\Users\owner\Dropbox\Work\png\animation T=1.00610.png" arWidth="640" arHeight="480" duration="0" songTitle="" songArtist="" songAlbum="" songCopyrightUrl="" songArtistUrl="" songAudioFileUrl="" stabilizationMode="0" mediaItemType="2" />
    <MediaItem id="5778" filePath="C:\Users\owner\Dropbox\Work\png\animation T=1.05778.png" arWidth="640" arHeight="480" duration="0" songTitle="" songArtist="" songAlbum="" songCopyrightUrl="" songArtistUrl="" songAudioFileUrl="" stabilizationMode="0" mediaItemType="2" />
    <MediaItem id="611" filePath="C:\Users\owner\Dropbox\Work\png\animation T=1.00611.png" arWidth="640" arHeight="480" duration="0" songTitle="" songArtist="" songAlbum="" songCopyrightUrl="" songArtistUrl="" songAudioFileUrl="" stabilizationMode="0" mediaItemType="2" />
    <MediaItem id="5779" filePath="C:\Users\owner\Dropbox\Work\png\animation T=1.05779.png" arWidth="640" arHeight="480" duration="0" songTitle="" songArtist="" songAlbum="" songCopyrightUrl="" songArtistUrl="" songAudioFileUrl="" stabilizationMode="0" mediaItemType="2" />
    <MediaItem id="612" filePath="C:\Users\owner\Dropbox\Work\png\animation T=1.00612.png" arWidth="640" arHeight="480" duration="0" songTitle="" songArtist="" songAlbum="" songCopyrightUrl="" songArtistUrl="" songAudioFileUrl="" stabilizationMode="0" mediaItemType="2" />
    <MediaItem id="5780" filePath="C:\Users\owner\Dropbox\Work\png\animation T=1.05780.png" arWidth="640" arHeight="480" duration="0" songTitle="" songArtist="" songAlbum="" songCopyrightUrl="" songArtistUrl="" songAudioFileUrl="" stabilizationMode="0" mediaItemType="2" />
    <MediaItem id="613" filePath="C:\Users\owner\Dropbox\Work\png\animation T=1.00613.png" arWidth="640" arHeight="480" duration="0" songTitle="" songArtist="" songAlbum="" songCopyrightUrl="" songArtistUrl="" songAudioFileUrl="" stabilizationMode="0" mediaItemType="2" />
    <MediaItem id="5781" filePath="C:\Users\owner\Dropbox\Work\png\animation T=1.05781.png" arWidth="640" arHeight="480" duration="0" songTitle="" songArtist="" songAlbum="" songCopyrightUrl="" songArtistUrl="" songAudioFileUrl="" stabilizationMode="0" mediaItemType="2" />
    <MediaItem id="614" filePath="C:\Users\owner\Dropbox\Work\png\animation T=1.00614.png" arWidth="640" arHeight="480" duration="0" songTitle="" songArtist="" songAlbum="" songCopyrightUrl="" songArtistUrl="" songAudioFileUrl="" stabilizationMode="0" mediaItemType="2" />
    <MediaItem id="5782" filePath="C:\Users\owner\Dropbox\Work\png\animation T=1.05782.png" arWidth="640" arHeight="480" duration="0" songTitle="" songArtist="" songAlbum="" songCopyrightUrl="" songArtistUrl="" songAudioFileUrl="" stabilizationMode="0" mediaItemType="2" />
    <MediaItem id="615" filePath="C:\Users\owner\Dropbox\Work\png\animation T=1.00615.png" arWidth="640" arHeight="480" duration="0" songTitle="" songArtist="" songAlbum="" songCopyrightUrl="" songArtistUrl="" songAudioFileUrl="" stabilizationMode="0" mediaItemType="2" />
    <MediaItem id="5783" filePath="C:\Users\owner\Dropbox\Work\png\animation T=1.05783.png" arWidth="640" arHeight="480" duration="0" songTitle="" songArtist="" songAlbum="" songCopyrightUrl="" songArtistUrl="" songAudioFileUrl="" stabilizationMode="0" mediaItemType="2" />
    <MediaItem id="616" filePath="C:\Users\owner\Dropbox\Work\png\animation T=1.00616.png" arWidth="640" arHeight="480" duration="0" songTitle="" songArtist="" songAlbum="" songCopyrightUrl="" songArtistUrl="" songAudioFileUrl="" stabilizationMode="0" mediaItemType="2" />
    <MediaItem id="5784" filePath="C:\Users\owner\Dropbox\Work\png\animation T=1.05784.png" arWidth="640" arHeight="480" duration="0" songTitle="" songArtist="" songAlbum="" songCopyrightUrl="" songArtistUrl="" songAudioFileUrl="" stabilizationMode="0" mediaItemType="2" />
    <MediaItem id="617" filePath="C:\Users\owner\Dropbox\Work\png\animation T=1.00617.png" arWidth="640" arHeight="480" duration="0" songTitle="" songArtist="" songAlbum="" songCopyrightUrl="" songArtistUrl="" songAudioFileUrl="" stabilizationMode="0" mediaItemType="2" />
    <MediaItem id="5785" filePath="C:\Users\owner\Dropbox\Work\png\animation T=1.05785.png" arWidth="640" arHeight="480" duration="0" songTitle="" songArtist="" songAlbum="" songCopyrightUrl="" songArtistUrl="" songAudioFileUrl="" stabilizationMode="0" mediaItemType="2" />
    <MediaItem id="618" filePath="C:\Users\owner\Dropbox\Work\png\animation T=1.00618.png" arWidth="640" arHeight="480" duration="0" songTitle="" songArtist="" songAlbum="" songCopyrightUrl="" songArtistUrl="" songAudioFileUrl="" stabilizationMode="0" mediaItemType="2" />
    <MediaItem id="5786" filePath="C:\Users\owner\Dropbox\Work\png\animation T=1.05786.png" arWidth="640" arHeight="480" duration="0" songTitle="" songArtist="" songAlbum="" songCopyrightUrl="" songArtistUrl="" songAudioFileUrl="" stabilizationMode="0" mediaItemType="2" />
    <MediaItem id="619" filePath="C:\Users\owner\Dropbox\Work\png\animation T=1.00619.png" arWidth="640" arHeight="480" duration="0" songTitle="" songArtist="" songAlbum="" songCopyrightUrl="" songArtistUrl="" songAudioFileUrl="" stabilizationMode="0" mediaItemType="2" />
    <MediaItem id="5787" filePath="C:\Users\owner\Dropbox\Work\png\animation T=1.05787.png" arWidth="640" arHeight="480" duration="0" songTitle="" songArtist="" songAlbum="" songCopyrightUrl="" songArtistUrl="" songAudioFileUrl="" stabilizationMode="0" mediaItemType="2" />
    <MediaItem id="620" filePath="C:\Users\owner\Dropbox\Work\png\animation T=1.00620.png" arWidth="640" arHeight="480" duration="0" songTitle="" songArtist="" songAlbum="" songCopyrightUrl="" songArtistUrl="" songAudioFileUrl="" stabilizationMode="0" mediaItemType="2" />
    <MediaItem id="5788" filePath="C:\Users\owner\Dropbox\Work\png\animation T=1.05788.png" arWidth="640" arHeight="480" duration="0" songTitle="" songArtist="" songAlbum="" songCopyrightUrl="" songArtistUrl="" songAudioFileUrl="" stabilizationMode="0" mediaItemType="2" />
    <MediaItem id="621" filePath="C:\Users\owner\Dropbox\Work\png\animation T=1.00621.png" arWidth="640" arHeight="480" duration="0" songTitle="" songArtist="" songAlbum="" songCopyrightUrl="" songArtistUrl="" songAudioFileUrl="" stabilizationMode="0" mediaItemType="2" />
    <MediaItem id="5789" filePath="C:\Users\owner\Dropbox\Work\png\animation T=1.05789.png" arWidth="640" arHeight="480" duration="0" songTitle="" songArtist="" songAlbum="" songCopyrightUrl="" songArtistUrl="" songAudioFileUrl="" stabilizationMode="0" mediaItemType="2" />
    <MediaItem id="622" filePath="C:\Users\owner\Dropbox\Work\png\animation T=1.00622.png" arWidth="640" arHeight="480" duration="0" songTitle="" songArtist="" songAlbum="" songCopyrightUrl="" songArtistUrl="" songAudioFileUrl="" stabilizationMode="0" mediaItemType="2" />
    <MediaItem id="5790" filePath="C:\Users\owner\Dropbox\Work\png\animation T=1.05790.png" arWidth="640" arHeight="480" duration="0" songTitle="" songArtist="" songAlbum="" songCopyrightUrl="" songArtistUrl="" songAudioFileUrl="" stabilizationMode="0" mediaItemType="2" />
    <MediaItem id="623" filePath="C:\Users\owner\Dropbox\Work\png\animation T=1.00623.png" arWidth="640" arHeight="480" duration="0" songTitle="" songArtist="" songAlbum="" songCopyrightUrl="" songArtistUrl="" songAudioFileUrl="" stabilizationMode="0" mediaItemType="2" />
    <MediaItem id="5791" filePath="C:\Users\owner\Dropbox\Work\png\animation T=1.05791.png" arWidth="640" arHeight="480" duration="0" songTitle="" songArtist="" songAlbum="" songCopyrightUrl="" songArtistUrl="" songAudioFileUrl="" stabilizationMode="0" mediaItemType="2" />
    <MediaItem id="624" filePath="C:\Users\owner\Dropbox\Work\png\animation T=1.00624.png" arWidth="640" arHeight="480" duration="0" songTitle="" songArtist="" songAlbum="" songCopyrightUrl="" songArtistUrl="" songAudioFileUrl="" stabilizationMode="0" mediaItemType="2" />
    <MediaItem id="5792" filePath="C:\Users\owner\Dropbox\Work\png\animation T=1.05792.png" arWidth="640" arHeight="480" duration="0" songTitle="" songArtist="" songAlbum="" songCopyrightUrl="" songArtistUrl="" songAudioFileUrl="" stabilizationMode="0" mediaItemType="2" />
    <MediaItem id="625" filePath="C:\Users\owner\Dropbox\Work\png\animation T=1.00625.png" arWidth="640" arHeight="480" duration="0" songTitle="" songArtist="" songAlbum="" songCopyrightUrl="" songArtistUrl="" songAudioFileUrl="" stabilizationMode="0" mediaItemType="2" />
    <MediaItem id="5793" filePath="C:\Users\owner\Dropbox\Work\png\animation T=1.05793.png" arWidth="640" arHeight="480" duration="0" songTitle="" songArtist="" songAlbum="" songCopyrightUrl="" songArtistUrl="" songAudioFileUrl="" stabilizationMode="0" mediaItemType="2" />
    <MediaItem id="626" filePath="C:\Users\owner\Dropbox\Work\png\animation T=1.00626.png" arWidth="640" arHeight="480" duration="0" songTitle="" songArtist="" songAlbum="" songCopyrightUrl="" songArtistUrl="" songAudioFileUrl="" stabilizationMode="0" mediaItemType="2" />
    <MediaItem id="5794" filePath="C:\Users\owner\Dropbox\Work\png\animation T=1.05794.png" arWidth="640" arHeight="480" duration="0" songTitle="" songArtist="" songAlbum="" songCopyrightUrl="" songArtistUrl="" songAudioFileUrl="" stabilizationMode="0" mediaItemType="2" />
    <MediaItem id="627" filePath="C:\Users\owner\Dropbox\Work\png\animation T=1.00627.png" arWidth="640" arHeight="480" duration="0" songTitle="" songArtist="" songAlbum="" songCopyrightUrl="" songArtistUrl="" songAudioFileUrl="" stabilizationMode="0" mediaItemType="2" />
    <MediaItem id="5795" filePath="C:\Users\owner\Dropbox\Work\png\animation T=1.05795.png" arWidth="640" arHeight="480" duration="0" songTitle="" songArtist="" songAlbum="" songCopyrightUrl="" songArtistUrl="" songAudioFileUrl="" stabilizationMode="0" mediaItemType="2" />
    <MediaItem id="628" filePath="C:\Users\owner\Dropbox\Work\png\animation T=1.00628.png" arWidth="640" arHeight="480" duration="0" songTitle="" songArtist="" songAlbum="" songCopyrightUrl="" songArtistUrl="" songAudioFileUrl="" stabilizationMode="0" mediaItemType="2" />
    <MediaItem id="5796" filePath="C:\Users\owner\Dropbox\Work\png\animation T=1.05796.png" arWidth="640" arHeight="480" duration="0" songTitle="" songArtist="" songAlbum="" songCopyrightUrl="" songArtistUrl="" songAudioFileUrl="" stabilizationMode="0" mediaItemType="2" />
    <MediaItem id="629" filePath="C:\Users\owner\Dropbox\Work\png\animation T=1.00629.png" arWidth="640" arHeight="480" duration="0" songTitle="" songArtist="" songAlbum="" songCopyrightUrl="" songArtistUrl="" songAudioFileUrl="" stabilizationMode="0" mediaItemType="2" />
    <MediaItem id="5797" filePath="C:\Users\owner\Dropbox\Work\png\animation T=1.05797.png" arWidth="640" arHeight="480" duration="0" songTitle="" songArtist="" songAlbum="" songCopyrightUrl="" songArtistUrl="" songAudioFileUrl="" stabilizationMode="0" mediaItemType="2" />
    <MediaItem id="630" filePath="C:\Users\owner\Dropbox\Work\png\animation T=1.00630.png" arWidth="640" arHeight="480" duration="0" songTitle="" songArtist="" songAlbum="" songCopyrightUrl="" songArtistUrl="" songAudioFileUrl="" stabilizationMode="0" mediaItemType="2" />
    <MediaItem id="5798" filePath="C:\Users\owner\Dropbox\Work\png\animation T=1.05798.png" arWidth="640" arHeight="480" duration="0" songTitle="" songArtist="" songAlbum="" songCopyrightUrl="" songArtistUrl="" songAudioFileUrl="" stabilizationMode="0" mediaItemType="2" />
    <MediaItem id="631" filePath="C:\Users\owner\Dropbox\Work\png\animation T=1.00631.png" arWidth="640" arHeight="480" duration="0" songTitle="" songArtist="" songAlbum="" songCopyrightUrl="" songArtistUrl="" songAudioFileUrl="" stabilizationMode="0" mediaItemType="2" />
    <MediaItem id="5799" filePath="C:\Users\owner\Dropbox\Work\png\animation T=1.05799.png" arWidth="640" arHeight="480" duration="0" songTitle="" songArtist="" songAlbum="" songCopyrightUrl="" songArtistUrl="" songAudioFileUrl="" stabilizationMode="0" mediaItemType="2" />
    <MediaItem id="632" filePath="C:\Users\owner\Dropbox\Work\png\animation T=1.00632.png" arWidth="640" arHeight="480" duration="0" songTitle="" songArtist="" songAlbum="" songCopyrightUrl="" songArtistUrl="" songAudioFileUrl="" stabilizationMode="0" mediaItemType="2" />
    <MediaItem id="5800" filePath="C:\Users\owner\Dropbox\Work\png\animation T=1.05800.png" arWidth="640" arHeight="480" duration="0" songTitle="" songArtist="" songAlbum="" songCopyrightUrl="" songArtistUrl="" songAudioFileUrl="" stabilizationMode="0" mediaItemType="2" />
    <MediaItem id="633" filePath="C:\Users\owner\Dropbox\Work\png\animation T=1.00633.png" arWidth="640" arHeight="480" duration="0" songTitle="" songArtist="" songAlbum="" songCopyrightUrl="" songArtistUrl="" songAudioFileUrl="" stabilizationMode="0" mediaItemType="2" />
    <MediaItem id="5801" filePath="C:\Users\owner\Dropbox\Work\png\animation T=1.05801.png" arWidth="640" arHeight="480" duration="0" songTitle="" songArtist="" songAlbum="" songCopyrightUrl="" songArtistUrl="" songAudioFileUrl="" stabilizationMode="0" mediaItemType="2" />
    <MediaItem id="634" filePath="C:\Users\owner\Dropbox\Work\png\animation T=1.00634.png" arWidth="640" arHeight="480" duration="0" songTitle="" songArtist="" songAlbum="" songCopyrightUrl="" songArtistUrl="" songAudioFileUrl="" stabilizationMode="0" mediaItemType="2" />
    <MediaItem id="5802" filePath="C:\Users\owner\Dropbox\Work\png\animation T=1.05802.png" arWidth="640" arHeight="480" duration="0" songTitle="" songArtist="" songAlbum="" songCopyrightUrl="" songArtistUrl="" songAudioFileUrl="" stabilizationMode="0" mediaItemType="2" />
    <MediaItem id="635" filePath="C:\Users\owner\Dropbox\Work\png\animation T=1.00635.png" arWidth="640" arHeight="480" duration="0" songTitle="" songArtist="" songAlbum="" songCopyrightUrl="" songArtistUrl="" songAudioFileUrl="" stabilizationMode="0" mediaItemType="2" />
    <MediaItem id="5803" filePath="C:\Users\owner\Dropbox\Work\png\animation T=1.05803.png" arWidth="640" arHeight="480" duration="0" songTitle="" songArtist="" songAlbum="" songCopyrightUrl="" songArtistUrl="" songAudioFileUrl="" stabilizationMode="0" mediaItemType="2" />
    <MediaItem id="636" filePath="C:\Users\owner\Dropbox\Work\png\animation T=1.00636.png" arWidth="640" arHeight="480" duration="0" songTitle="" songArtist="" songAlbum="" songCopyrightUrl="" songArtistUrl="" songAudioFileUrl="" stabilizationMode="0" mediaItemType="2" />
    <MediaItem id="5804" filePath="C:\Users\owner\Dropbox\Work\png\animation T=1.05804.png" arWidth="640" arHeight="480" duration="0" songTitle="" songArtist="" songAlbum="" songCopyrightUrl="" songArtistUrl="" songAudioFileUrl="" stabilizationMode="0" mediaItemType="2" />
    <MediaItem id="637" filePath="C:\Users\owner\Dropbox\Work\png\animation T=1.00637.png" arWidth="640" arHeight="480" duration="0" songTitle="" songArtist="" songAlbum="" songCopyrightUrl="" songArtistUrl="" songAudioFileUrl="" stabilizationMode="0" mediaItemType="2" />
    <MediaItem id="5805" filePath="C:\Users\owner\Dropbox\Work\png\animation T=1.05805.png" arWidth="640" arHeight="480" duration="0" songTitle="" songArtist="" songAlbum="" songCopyrightUrl="" songArtistUrl="" songAudioFileUrl="" stabilizationMode="0" mediaItemType="2" />
    <MediaItem id="638" filePath="C:\Users\owner\Dropbox\Work\png\animation T=1.00638.png" arWidth="640" arHeight="480" duration="0" songTitle="" songArtist="" songAlbum="" songCopyrightUrl="" songArtistUrl="" songAudioFileUrl="" stabilizationMode="0" mediaItemType="2" />
    <MediaItem id="5806" filePath="C:\Users\owner\Dropbox\Work\png\animation T=1.05806.png" arWidth="640" arHeight="480" duration="0" songTitle="" songArtist="" songAlbum="" songCopyrightUrl="" songArtistUrl="" songAudioFileUrl="" stabilizationMode="0" mediaItemType="2" />
    <MediaItem id="639" filePath="C:\Users\owner\Dropbox\Work\png\animation T=1.00639.png" arWidth="640" arHeight="480" duration="0" songTitle="" songArtist="" songAlbum="" songCopyrightUrl="" songArtistUrl="" songAudioFileUrl="" stabilizationMode="0" mediaItemType="2" />
    <MediaItem id="5807" filePath="C:\Users\owner\Dropbox\Work\png\animation T=1.05807.png" arWidth="640" arHeight="480" duration="0" songTitle="" songArtist="" songAlbum="" songCopyrightUrl="" songArtistUrl="" songAudioFileUrl="" stabilizationMode="0" mediaItemType="2" />
    <MediaItem id="640" filePath="C:\Users\owner\Dropbox\Work\png\animation T=1.00640.png" arWidth="640" arHeight="480" duration="0" songTitle="" songArtist="" songAlbum="" songCopyrightUrl="" songArtistUrl="" songAudioFileUrl="" stabilizationMode="0" mediaItemType="2" />
    <MediaItem id="5808" filePath="C:\Users\owner\Dropbox\Work\png\animation T=1.05808.png" arWidth="640" arHeight="480" duration="0" songTitle="" songArtist="" songAlbum="" songCopyrightUrl="" songArtistUrl="" songAudioFileUrl="" stabilizationMode="0" mediaItemType="2" />
    <MediaItem id="641" filePath="C:\Users\owner\Dropbox\Work\png\animation T=1.00641.png" arWidth="640" arHeight="480" duration="0" songTitle="" songArtist="" songAlbum="" songCopyrightUrl="" songArtistUrl="" songAudioFileUrl="" stabilizationMode="0" mediaItemType="2" />
    <MediaItem id="5809" filePath="C:\Users\owner\Dropbox\Work\png\animation T=1.05809.png" arWidth="640" arHeight="480" duration="0" songTitle="" songArtist="" songAlbum="" songCopyrightUrl="" songArtistUrl="" songAudioFileUrl="" stabilizationMode="0" mediaItemType="2" />
    <MediaItem id="642" filePath="C:\Users\owner\Dropbox\Work\png\animation T=1.00642.png" arWidth="640" arHeight="480" duration="0" songTitle="" songArtist="" songAlbum="" songCopyrightUrl="" songArtistUrl="" songAudioFileUrl="" stabilizationMode="0" mediaItemType="2" />
    <MediaItem id="5810" filePath="C:\Users\owner\Dropbox\Work\png\animation T=1.05810.png" arWidth="640" arHeight="480" duration="0" songTitle="" songArtist="" songAlbum="" songCopyrightUrl="" songArtistUrl="" songAudioFileUrl="" stabilizationMode="0" mediaItemType="2" />
    <MediaItem id="643" filePath="C:\Users\owner\Dropbox\Work\png\animation T=1.00643.png" arWidth="640" arHeight="480" duration="0" songTitle="" songArtist="" songAlbum="" songCopyrightUrl="" songArtistUrl="" songAudioFileUrl="" stabilizationMode="0" mediaItemType="2" />
    <MediaItem id="5811" filePath="C:\Users\owner\Dropbox\Work\png\animation T=1.05811.png" arWidth="640" arHeight="480" duration="0" songTitle="" songArtist="" songAlbum="" songCopyrightUrl="" songArtistUrl="" songAudioFileUrl="" stabilizationMode="0" mediaItemType="2" />
    <MediaItem id="644" filePath="C:\Users\owner\Dropbox\Work\png\animation T=1.00644.png" arWidth="640" arHeight="480" duration="0" songTitle="" songArtist="" songAlbum="" songCopyrightUrl="" songArtistUrl="" songAudioFileUrl="" stabilizationMode="0" mediaItemType="2" />
    <MediaItem id="5812" filePath="C:\Users\owner\Dropbox\Work\png\animation T=1.05812.png" arWidth="640" arHeight="480" duration="0" songTitle="" songArtist="" songAlbum="" songCopyrightUrl="" songArtistUrl="" songAudioFileUrl="" stabilizationMode="0" mediaItemType="2" />
    <MediaItem id="645" filePath="C:\Users\owner\Dropbox\Work\png\animation T=1.00645.png" arWidth="640" arHeight="480" duration="0" songTitle="" songArtist="" songAlbum="" songCopyrightUrl="" songArtistUrl="" songAudioFileUrl="" stabilizationMode="0" mediaItemType="2" />
    <MediaItem id="5813" filePath="C:\Users\owner\Dropbox\Work\png\animation T=1.05813.png" arWidth="640" arHeight="480" duration="0" songTitle="" songArtist="" songAlbum="" songCopyrightUrl="" songArtistUrl="" songAudioFileUrl="" stabilizationMode="0" mediaItemType="2" />
    <MediaItem id="646" filePath="C:\Users\owner\Dropbox\Work\png\animation T=1.00646.png" arWidth="640" arHeight="480" duration="0" songTitle="" songArtist="" songAlbum="" songCopyrightUrl="" songArtistUrl="" songAudioFileUrl="" stabilizationMode="0" mediaItemType="2" />
    <MediaItem id="5814" filePath="C:\Users\owner\Dropbox\Work\png\animation T=1.05814.png" arWidth="640" arHeight="480" duration="0" songTitle="" songArtist="" songAlbum="" songCopyrightUrl="" songArtistUrl="" songAudioFileUrl="" stabilizationMode="0" mediaItemType="2" />
    <MediaItem id="647" filePath="C:\Users\owner\Dropbox\Work\png\animation T=1.00647.png" arWidth="640" arHeight="480" duration="0" songTitle="" songArtist="" songAlbum="" songCopyrightUrl="" songArtistUrl="" songAudioFileUrl="" stabilizationMode="0" mediaItemType="2" />
    <MediaItem id="5815" filePath="C:\Users\owner\Dropbox\Work\png\animation T=1.05815.png" arWidth="640" arHeight="480" duration="0" songTitle="" songArtist="" songAlbum="" songCopyrightUrl="" songArtistUrl="" songAudioFileUrl="" stabilizationMode="0" mediaItemType="2" />
    <MediaItem id="648" filePath="C:\Users\owner\Dropbox\Work\png\animation T=1.00648.png" arWidth="640" arHeight="480" duration="0" songTitle="" songArtist="" songAlbum="" songCopyrightUrl="" songArtistUrl="" songAudioFileUrl="" stabilizationMode="0" mediaItemType="2" />
    <MediaItem id="5816" filePath="C:\Users\owner\Dropbox\Work\png\animation T=1.05816.png" arWidth="640" arHeight="480" duration="0" songTitle="" songArtist="" songAlbum="" songCopyrightUrl="" songArtistUrl="" songAudioFileUrl="" stabilizationMode="0" mediaItemType="2" />
    <MediaItem id="649" filePath="C:\Users\owner\Dropbox\Work\png\animation T=1.00649.png" arWidth="640" arHeight="480" duration="0" songTitle="" songArtist="" songAlbum="" songCopyrightUrl="" songArtistUrl="" songAudioFileUrl="" stabilizationMode="0" mediaItemType="2" />
    <MediaItem id="5817" filePath="C:\Users\owner\Dropbox\Work\png\animation T=1.05817.png" arWidth="640" arHeight="480" duration="0" songTitle="" songArtist="" songAlbum="" songCopyrightUrl="" songArtistUrl="" songAudioFileUrl="" stabilizationMode="0" mediaItemType="2" />
    <MediaItem id="650" filePath="C:\Users\owner\Dropbox\Work\png\animation T=1.00650.png" arWidth="640" arHeight="480" duration="0" songTitle="" songArtist="" songAlbum="" songCopyrightUrl="" songArtistUrl="" songAudioFileUrl="" stabilizationMode="0" mediaItemType="2" />
    <MediaItem id="5818" filePath="C:\Users\owner\Dropbox\Work\png\animation T=1.05818.png" arWidth="640" arHeight="480" duration="0" songTitle="" songArtist="" songAlbum="" songCopyrightUrl="" songArtistUrl="" songAudioFileUrl="" stabilizationMode="0" mediaItemType="2" />
    <MediaItem id="651" filePath="C:\Users\owner\Dropbox\Work\png\animation T=1.00651.png" arWidth="640" arHeight="480" duration="0" songTitle="" songArtist="" songAlbum="" songCopyrightUrl="" songArtistUrl="" songAudioFileUrl="" stabilizationMode="0" mediaItemType="2" />
    <MediaItem id="5819" filePath="C:\Users\owner\Dropbox\Work\png\animation T=1.05819.png" arWidth="640" arHeight="480" duration="0" songTitle="" songArtist="" songAlbum="" songCopyrightUrl="" songArtistUrl="" songAudioFileUrl="" stabilizationMode="0" mediaItemType="2" />
    <MediaItem id="652" filePath="C:\Users\owner\Dropbox\Work\png\animation T=1.00652.png" arWidth="640" arHeight="480" duration="0" songTitle="" songArtist="" songAlbum="" songCopyrightUrl="" songArtistUrl="" songAudioFileUrl="" stabilizationMode="0" mediaItemType="2" />
    <MediaItem id="5820" filePath="C:\Users\owner\Dropbox\Work\png\animation T=1.05820.png" arWidth="640" arHeight="480" duration="0" songTitle="" songArtist="" songAlbum="" songCopyrightUrl="" songArtistUrl="" songAudioFileUrl="" stabilizationMode="0" mediaItemType="2" />
    <MediaItem id="653" filePath="C:\Users\owner\Dropbox\Work\png\animation T=1.00653.png" arWidth="640" arHeight="480" duration="0" songTitle="" songArtist="" songAlbum="" songCopyrightUrl="" songArtistUrl="" songAudioFileUrl="" stabilizationMode="0" mediaItemType="2" />
    <MediaItem id="5821" filePath="C:\Users\owner\Dropbox\Work\png\animation T=1.05821.png" arWidth="640" arHeight="480" duration="0" songTitle="" songArtist="" songAlbum="" songCopyrightUrl="" songArtistUrl="" songAudioFileUrl="" stabilizationMode="0" mediaItemType="2" />
    <MediaItem id="654" filePath="C:\Users\owner\Dropbox\Work\png\animation T=1.00654.png" arWidth="640" arHeight="480" duration="0" songTitle="" songArtist="" songAlbum="" songCopyrightUrl="" songArtistUrl="" songAudioFileUrl="" stabilizationMode="0" mediaItemType="2" />
    <MediaItem id="5822" filePath="C:\Users\owner\Dropbox\Work\png\animation T=1.05822.png" arWidth="640" arHeight="480" duration="0" songTitle="" songArtist="" songAlbum="" songCopyrightUrl="" songArtistUrl="" songAudioFileUrl="" stabilizationMode="0" mediaItemType="2" />
    <MediaItem id="655" filePath="C:\Users\owner\Dropbox\Work\png\animation T=1.00655.png" arWidth="640" arHeight="480" duration="0" songTitle="" songArtist="" songAlbum="" songCopyrightUrl="" songArtistUrl="" songAudioFileUrl="" stabilizationMode="0" mediaItemType="2" />
    <MediaItem id="5823" filePath="C:\Users\owner\Dropbox\Work\png\animation T=1.05823.png" arWidth="640" arHeight="480" duration="0" songTitle="" songArtist="" songAlbum="" songCopyrightUrl="" songArtistUrl="" songAudioFileUrl="" stabilizationMode="0" mediaItemType="2" />
    <MediaItem id="656" filePath="C:\Users\owner\Dropbox\Work\png\animation T=1.00656.png" arWidth="640" arHeight="480" duration="0" songTitle="" songArtist="" songAlbum="" songCopyrightUrl="" songArtistUrl="" songAudioFileUrl="" stabilizationMode="0" mediaItemType="2" />
    <MediaItem id="5824" filePath="C:\Users\owner\Dropbox\Work\png\animation T=1.05824.png" arWidth="640" arHeight="480" duration="0" songTitle="" songArtist="" songAlbum="" songCopyrightUrl="" songArtistUrl="" songAudioFileUrl="" stabilizationMode="0" mediaItemType="2" />
    <MediaItem id="657" filePath="C:\Users\owner\Dropbox\Work\png\animation T=1.00657.png" arWidth="640" arHeight="480" duration="0" songTitle="" songArtist="" songAlbum="" songCopyrightUrl="" songArtistUrl="" songAudioFileUrl="" stabilizationMode="0" mediaItemType="2" />
    <MediaItem id="5825" filePath="C:\Users\owner\Dropbox\Work\png\animation T=1.05825.png" arWidth="640" arHeight="480" duration="0" songTitle="" songArtist="" songAlbum="" songCopyrightUrl="" songArtistUrl="" songAudioFileUrl="" stabilizationMode="0" mediaItemType="2" />
    <MediaItem id="658" filePath="C:\Users\owner\Dropbox\Work\png\animation T=1.00658.png" arWidth="640" arHeight="480" duration="0" songTitle="" songArtist="" songAlbum="" songCopyrightUrl="" songArtistUrl="" songAudioFileUrl="" stabilizationMode="0" mediaItemType="2" />
    <MediaItem id="5826" filePath="C:\Users\owner\Dropbox\Work\png\animation T=1.05826.png" arWidth="640" arHeight="480" duration="0" songTitle="" songArtist="" songAlbum="" songCopyrightUrl="" songArtistUrl="" songAudioFileUrl="" stabilizationMode="0" mediaItemType="2" />
    <MediaItem id="659" filePath="C:\Users\owner\Dropbox\Work\png\animation T=1.00659.png" arWidth="640" arHeight="480" duration="0" songTitle="" songArtist="" songAlbum="" songCopyrightUrl="" songArtistUrl="" songAudioFileUrl="" stabilizationMode="0" mediaItemType="2" />
    <MediaItem id="5827" filePath="C:\Users\owner\Dropbox\Work\png\animation T=1.05827.png" arWidth="640" arHeight="480" duration="0" songTitle="" songArtist="" songAlbum="" songCopyrightUrl="" songArtistUrl="" songAudioFileUrl="" stabilizationMode="0" mediaItemType="2" />
    <MediaItem id="660" filePath="C:\Users\owner\Dropbox\Work\png\animation T=1.00660.png" arWidth="640" arHeight="480" duration="0" songTitle="" songArtist="" songAlbum="" songCopyrightUrl="" songArtistUrl="" songAudioFileUrl="" stabilizationMode="0" mediaItemType="2" />
    <MediaItem id="5828" filePath="C:\Users\owner\Dropbox\Work\png\animation T=1.05828.png" arWidth="640" arHeight="480" duration="0" songTitle="" songArtist="" songAlbum="" songCopyrightUrl="" songArtistUrl="" songAudioFileUrl="" stabilizationMode="0" mediaItemType="2" />
    <MediaItem id="661" filePath="C:\Users\owner\Dropbox\Work\png\animation T=1.00661.png" arWidth="640" arHeight="480" duration="0" songTitle="" songArtist="" songAlbum="" songCopyrightUrl="" songArtistUrl="" songAudioFileUrl="" stabilizationMode="0" mediaItemType="2" />
    <MediaItem id="5829" filePath="C:\Users\owner\Dropbox\Work\png\animation T=1.05829.png" arWidth="640" arHeight="480" duration="0" songTitle="" songArtist="" songAlbum="" songCopyrightUrl="" songArtistUrl="" songAudioFileUrl="" stabilizationMode="0" mediaItemType="2" />
    <MediaItem id="662" filePath="C:\Users\owner\Dropbox\Work\png\animation T=1.00662.png" arWidth="640" arHeight="480" duration="0" songTitle="" songArtist="" songAlbum="" songCopyrightUrl="" songArtistUrl="" songAudioFileUrl="" stabilizationMode="0" mediaItemType="2" />
    <MediaItem id="5830" filePath="C:\Users\owner\Dropbox\Work\png\animation T=1.05830.png" arWidth="640" arHeight="480" duration="0" songTitle="" songArtist="" songAlbum="" songCopyrightUrl="" songArtistUrl="" songAudioFileUrl="" stabilizationMode="0" mediaItemType="2" />
    <MediaItem id="663" filePath="C:\Users\owner\Dropbox\Work\png\animation T=1.00663.png" arWidth="640" arHeight="480" duration="0" songTitle="" songArtist="" songAlbum="" songCopyrightUrl="" songArtistUrl="" songAudioFileUrl="" stabilizationMode="0" mediaItemType="2" />
    <MediaItem id="5831" filePath="C:\Users\owner\Dropbox\Work\png\animation T=1.05831.png" arWidth="640" arHeight="480" duration="0" songTitle="" songArtist="" songAlbum="" songCopyrightUrl="" songArtistUrl="" songAudioFileUrl="" stabilizationMode="0" mediaItemType="2" />
    <MediaItem id="664" filePath="C:\Users\owner\Dropbox\Work\png\animation T=1.00664.png" arWidth="640" arHeight="480" duration="0" songTitle="" songArtist="" songAlbum="" songCopyrightUrl="" songArtistUrl="" songAudioFileUrl="" stabilizationMode="0" mediaItemType="2" />
    <MediaItem id="5832" filePath="C:\Users\owner\Dropbox\Work\png\animation T=1.05832.png" arWidth="640" arHeight="480" duration="0" songTitle="" songArtist="" songAlbum="" songCopyrightUrl="" songArtistUrl="" songAudioFileUrl="" stabilizationMode="0" mediaItemType="2" />
    <MediaItem id="665" filePath="C:\Users\owner\Dropbox\Work\png\animation T=1.00665.png" arWidth="640" arHeight="480" duration="0" songTitle="" songArtist="" songAlbum="" songCopyrightUrl="" songArtistUrl="" songAudioFileUrl="" stabilizationMode="0" mediaItemType="2" />
    <MediaItem id="5833" filePath="C:\Users\owner\Dropbox\Work\png\animation T=1.05833.png" arWidth="640" arHeight="480" duration="0" songTitle="" songArtist="" songAlbum="" songCopyrightUrl="" songArtistUrl="" songAudioFileUrl="" stabilizationMode="0" mediaItemType="2" />
    <MediaItem id="666" filePath="C:\Users\owner\Dropbox\Work\png\animation T=1.00666.png" arWidth="640" arHeight="480" duration="0" songTitle="" songArtist="" songAlbum="" songCopyrightUrl="" songArtistUrl="" songAudioFileUrl="" stabilizationMode="0" mediaItemType="2" />
    <MediaItem id="5834" filePath="C:\Users\owner\Dropbox\Work\png\animation T=1.05834.png" arWidth="640" arHeight="480" duration="0" songTitle="" songArtist="" songAlbum="" songCopyrightUrl="" songArtistUrl="" songAudioFileUrl="" stabilizationMode="0" mediaItemType="2" />
    <MediaItem id="667" filePath="C:\Users\owner\Dropbox\Work\png\animation T=1.00667.png" arWidth="640" arHeight="480" duration="0" songTitle="" songArtist="" songAlbum="" songCopyrightUrl="" songArtistUrl="" songAudioFileUrl="" stabilizationMode="0" mediaItemType="2" />
    <MediaItem id="5835" filePath="C:\Users\owner\Dropbox\Work\png\animation T=1.05835.png" arWidth="640" arHeight="480" duration="0" songTitle="" songArtist="" songAlbum="" songCopyrightUrl="" songArtistUrl="" songAudioFileUrl="" stabilizationMode="0" mediaItemType="2" />
    <MediaItem id="668" filePath="C:\Users\owner\Dropbox\Work\png\animation T=1.00668.png" arWidth="640" arHeight="480" duration="0" songTitle="" songArtist="" songAlbum="" songCopyrightUrl="" songArtistUrl="" songAudioFileUrl="" stabilizationMode="0" mediaItemType="2" />
    <MediaItem id="5836" filePath="C:\Users\owner\Dropbox\Work\png\animation T=1.05836.png" arWidth="640" arHeight="480" duration="0" songTitle="" songArtist="" songAlbum="" songCopyrightUrl="" songArtistUrl="" songAudioFileUrl="" stabilizationMode="0" mediaItemType="2" />
    <MediaItem id="669" filePath="C:\Users\owner\Dropbox\Work\png\animation T=1.00669.png" arWidth="640" arHeight="480" duration="0" songTitle="" songArtist="" songAlbum="" songCopyrightUrl="" songArtistUrl="" songAudioFileUrl="" stabilizationMode="0" mediaItemType="2" />
    <MediaItem id="5837" filePath="C:\Users\owner\Dropbox\Work\png\animation T=1.05837.png" arWidth="640" arHeight="480" duration="0" songTitle="" songArtist="" songAlbum="" songCopyrightUrl="" songArtistUrl="" songAudioFileUrl="" stabilizationMode="0" mediaItemType="2" />
    <MediaItem id="670" filePath="C:\Users\owner\Dropbox\Work\png\animation T=1.00670.png" arWidth="640" arHeight="480" duration="0" songTitle="" songArtist="" songAlbum="" songCopyrightUrl="" songArtistUrl="" songAudioFileUrl="" stabilizationMode="0" mediaItemType="2" />
    <MediaItem id="5838" filePath="C:\Users\owner\Dropbox\Work\png\animation T=1.05838.png" arWidth="640" arHeight="480" duration="0" songTitle="" songArtist="" songAlbum="" songCopyrightUrl="" songArtistUrl="" songAudioFileUrl="" stabilizationMode="0" mediaItemType="2" />
    <MediaItem id="671" filePath="C:\Users\owner\Dropbox\Work\png\animation T=1.00671.png" arWidth="640" arHeight="480" duration="0" songTitle="" songArtist="" songAlbum="" songCopyrightUrl="" songArtistUrl="" songAudioFileUrl="" stabilizationMode="0" mediaItemType="2" />
    <MediaItem id="5839" filePath="C:\Users\owner\Dropbox\Work\png\animation T=1.05839.png" arWidth="640" arHeight="480" duration="0" songTitle="" songArtist="" songAlbum="" songCopyrightUrl="" songArtistUrl="" songAudioFileUrl="" stabilizationMode="0" mediaItemType="2" />
    <MediaItem id="672" filePath="C:\Users\owner\Dropbox\Work\png\animation T=1.00672.png" arWidth="640" arHeight="480" duration="0" songTitle="" songArtist="" songAlbum="" songCopyrightUrl="" songArtistUrl="" songAudioFileUrl="" stabilizationMode="0" mediaItemType="2" />
    <MediaItem id="5840" filePath="C:\Users\owner\Dropbox\Work\png\animation T=1.05840.png" arWidth="640" arHeight="480" duration="0" songTitle="" songArtist="" songAlbum="" songCopyrightUrl="" songArtistUrl="" songAudioFileUrl="" stabilizationMode="0" mediaItemType="2" />
    <MediaItem id="673" filePath="C:\Users\owner\Dropbox\Work\png\animation T=1.00673.png" arWidth="640" arHeight="480" duration="0" songTitle="" songArtist="" songAlbum="" songCopyrightUrl="" songArtistUrl="" songAudioFileUrl="" stabilizationMode="0" mediaItemType="2" />
    <MediaItem id="5841" filePath="C:\Users\owner\Dropbox\Work\png\animation T=1.05841.png" arWidth="640" arHeight="480" duration="0" songTitle="" songArtist="" songAlbum="" songCopyrightUrl="" songArtistUrl="" songAudioFileUrl="" stabilizationMode="0" mediaItemType="2" />
    <MediaItem id="674" filePath="C:\Users\owner\Dropbox\Work\png\animation T=1.00674.png" arWidth="640" arHeight="480" duration="0" songTitle="" songArtist="" songAlbum="" songCopyrightUrl="" songArtistUrl="" songAudioFileUrl="" stabilizationMode="0" mediaItemType="2" />
    <MediaItem id="5842" filePath="C:\Users\owner\Dropbox\Work\png\animation T=1.05842.png" arWidth="640" arHeight="480" duration="0" songTitle="" songArtist="" songAlbum="" songCopyrightUrl="" songArtistUrl="" songAudioFileUrl="" stabilizationMode="0" mediaItemType="2" />
    <MediaItem id="675" filePath="C:\Users\owner\Dropbox\Work\png\animation T=1.00675.png" arWidth="640" arHeight="480" duration="0" songTitle="" songArtist="" songAlbum="" songCopyrightUrl="" songArtistUrl="" songAudioFileUrl="" stabilizationMode="0" mediaItemType="2" />
    <MediaItem id="5843" filePath="C:\Users\owner\Dropbox\Work\png\animation T=1.05843.png" arWidth="640" arHeight="480" duration="0" songTitle="" songArtist="" songAlbum="" songCopyrightUrl="" songArtistUrl="" songAudioFileUrl="" stabilizationMode="0" mediaItemType="2" />
    <MediaItem id="676" filePath="C:\Users\owner\Dropbox\Work\png\animation T=1.00676.png" arWidth="640" arHeight="480" duration="0" songTitle="" songArtist="" songAlbum="" songCopyrightUrl="" songArtistUrl="" songAudioFileUrl="" stabilizationMode="0" mediaItemType="2" />
    <MediaItem id="5844" filePath="C:\Users\owner\Dropbox\Work\png\animation T=1.05844.png" arWidth="640" arHeight="480" duration="0" songTitle="" songArtist="" songAlbum="" songCopyrightUrl="" songArtistUrl="" songAudioFileUrl="" stabilizationMode="0" mediaItemType="2" />
    <MediaItem id="677" filePath="C:\Users\owner\Dropbox\Work\png\animation T=1.00677.png" arWidth="640" arHeight="480" duration="0" songTitle="" songArtist="" songAlbum="" songCopyrightUrl="" songArtistUrl="" songAudioFileUrl="" stabilizationMode="0" mediaItemType="2" />
    <MediaItem id="5845" filePath="C:\Users\owner\Dropbox\Work\png\animation T=1.05845.png" arWidth="640" arHeight="480" duration="0" songTitle="" songArtist="" songAlbum="" songCopyrightUrl="" songArtistUrl="" songAudioFileUrl="" stabilizationMode="0" mediaItemType="2" />
    <MediaItem id="678" filePath="C:\Users\owner\Dropbox\Work\png\animation T=1.00678.png" arWidth="640" arHeight="480" duration="0" songTitle="" songArtist="" songAlbum="" songCopyrightUrl="" songArtistUrl="" songAudioFileUrl="" stabilizationMode="0" mediaItemType="2" />
    <MediaItem id="5846" filePath="C:\Users\owner\Dropbox\Work\png\animation T=1.05846.png" arWidth="640" arHeight="480" duration="0" songTitle="" songArtist="" songAlbum="" songCopyrightUrl="" songArtistUrl="" songAudioFileUrl="" stabilizationMode="0" mediaItemType="2" />
    <MediaItem id="679" filePath="C:\Users\owner\Dropbox\Work\png\animation T=1.00679.png" arWidth="640" arHeight="480" duration="0" songTitle="" songArtist="" songAlbum="" songCopyrightUrl="" songArtistUrl="" songAudioFileUrl="" stabilizationMode="0" mediaItemType="2" />
    <MediaItem id="5847" filePath="C:\Users\owner\Dropbox\Work\png\animation T=1.05847.png" arWidth="640" arHeight="480" duration="0" songTitle="" songArtist="" songAlbum="" songCopyrightUrl="" songArtistUrl="" songAudioFileUrl="" stabilizationMode="0" mediaItemType="2" />
    <MediaItem id="680" filePath="C:\Users\owner\Dropbox\Work\png\animation T=1.00680.png" arWidth="640" arHeight="480" duration="0" songTitle="" songArtist="" songAlbum="" songCopyrightUrl="" songArtistUrl="" songAudioFileUrl="" stabilizationMode="0" mediaItemType="2" />
    <MediaItem id="5848" filePath="C:\Users\owner\Dropbox\Work\png\animation T=1.05848.png" arWidth="640" arHeight="480" duration="0" songTitle="" songArtist="" songAlbum="" songCopyrightUrl="" songArtistUrl="" songAudioFileUrl="" stabilizationMode="0" mediaItemType="2" />
    <MediaItem id="681" filePath="C:\Users\owner\Dropbox\Work\png\animation T=1.00681.png" arWidth="640" arHeight="480" duration="0" songTitle="" songArtist="" songAlbum="" songCopyrightUrl="" songArtistUrl="" songAudioFileUrl="" stabilizationMode="0" mediaItemType="2" />
    <MediaItem id="5849" filePath="C:\Users\owner\Dropbox\Work\png\animation T=1.05849.png" arWidth="640" arHeight="480" duration="0" songTitle="" songArtist="" songAlbum="" songCopyrightUrl="" songArtistUrl="" songAudioFileUrl="" stabilizationMode="0" mediaItemType="2" />
    <MediaItem id="682" filePath="C:\Users\owner\Dropbox\Work\png\animation T=1.00682.png" arWidth="640" arHeight="480" duration="0" songTitle="" songArtist="" songAlbum="" songCopyrightUrl="" songArtistUrl="" songAudioFileUrl="" stabilizationMode="0" mediaItemType="2" />
    <MediaItem id="5850" filePath="C:\Users\owner\Dropbox\Work\png\animation T=1.05850.png" arWidth="640" arHeight="480" duration="0" songTitle="" songArtist="" songAlbum="" songCopyrightUrl="" songArtistUrl="" songAudioFileUrl="" stabilizationMode="0" mediaItemType="2" />
    <MediaItem id="683" filePath="C:\Users\owner\Dropbox\Work\png\animation T=1.00683.png" arWidth="640" arHeight="480" duration="0" songTitle="" songArtist="" songAlbum="" songCopyrightUrl="" songArtistUrl="" songAudioFileUrl="" stabilizationMode="0" mediaItemType="2" />
    <MediaItem id="5851" filePath="C:\Users\owner\Dropbox\Work\png\animation T=1.05851.png" arWidth="640" arHeight="480" duration="0" songTitle="" songArtist="" songAlbum="" songCopyrightUrl="" songArtistUrl="" songAudioFileUrl="" stabilizationMode="0" mediaItemType="2" />
    <MediaItem id="684" filePath="C:\Users\owner\Dropbox\Work\png\animation T=1.00684.png" arWidth="640" arHeight="480" duration="0" songTitle="" songArtist="" songAlbum="" songCopyrightUrl="" songArtistUrl="" songAudioFileUrl="" stabilizationMode="0" mediaItemType="2" />
    <MediaItem id="5852" filePath="C:\Users\owner\Dropbox\Work\png\animation T=1.05852.png" arWidth="640" arHeight="480" duration="0" songTitle="" songArtist="" songAlbum="" songCopyrightUrl="" songArtistUrl="" songAudioFileUrl="" stabilizationMode="0" mediaItemType="2" />
    <MediaItem id="685" filePath="C:\Users\owner\Dropbox\Work\png\animation T=1.00685.png" arWidth="640" arHeight="480" duration="0" songTitle="" songArtist="" songAlbum="" songCopyrightUrl="" songArtistUrl="" songAudioFileUrl="" stabilizationMode="0" mediaItemType="2" />
    <MediaItem id="5853" filePath="C:\Users\owner\Dropbox\Work\png\animation T=1.05853.png" arWidth="640" arHeight="480" duration="0" songTitle="" songArtist="" songAlbum="" songCopyrightUrl="" songArtistUrl="" songAudioFileUrl="" stabilizationMode="0" mediaItemType="2" />
    <MediaItem id="686" filePath="C:\Users\owner\Dropbox\Work\png\animation T=1.00686.png" arWidth="640" arHeight="480" duration="0" songTitle="" songArtist="" songAlbum="" songCopyrightUrl="" songArtistUrl="" songAudioFileUrl="" stabilizationMode="0" mediaItemType="2" />
    <MediaItem id="5854" filePath="C:\Users\owner\Dropbox\Work\png\animation T=1.05854.png" arWidth="640" arHeight="480" duration="0" songTitle="" songArtist="" songAlbum="" songCopyrightUrl="" songArtistUrl="" songAudioFileUrl="" stabilizationMode="0" mediaItemType="2" />
    <MediaItem id="687" filePath="C:\Users\owner\Dropbox\Work\png\animation T=1.00687.png" arWidth="640" arHeight="480" duration="0" songTitle="" songArtist="" songAlbum="" songCopyrightUrl="" songArtistUrl="" songAudioFileUrl="" stabilizationMode="0" mediaItemType="2" />
    <MediaItem id="5855" filePath="C:\Users\owner\Dropbox\Work\png\animation T=1.05855.png" arWidth="640" arHeight="480" duration="0" songTitle="" songArtist="" songAlbum="" songCopyrightUrl="" songArtistUrl="" songAudioFileUrl="" stabilizationMode="0" mediaItemType="2" />
    <MediaItem id="688" filePath="C:\Users\owner\Dropbox\Work\png\animation T=1.00688.png" arWidth="640" arHeight="480" duration="0" songTitle="" songArtist="" songAlbum="" songCopyrightUrl="" songArtistUrl="" songAudioFileUrl="" stabilizationMode="0" mediaItemType="2" />
    <MediaItem id="5856" filePath="C:\Users\owner\Dropbox\Work\png\animation T=1.05856.png" arWidth="640" arHeight="480" duration="0" songTitle="" songArtist="" songAlbum="" songCopyrightUrl="" songArtistUrl="" songAudioFileUrl="" stabilizationMode="0" mediaItemType="2" />
    <MediaItem id="689" filePath="C:\Users\owner\Dropbox\Work\png\animation T=1.00689.png" arWidth="640" arHeight="480" duration="0" songTitle="" songArtist="" songAlbum="" songCopyrightUrl="" songArtistUrl="" songAudioFileUrl="" stabilizationMode="0" mediaItemType="2" />
    <MediaItem id="5857" filePath="C:\Users\owner\Dropbox\Work\png\animation T=1.05857.png" arWidth="640" arHeight="480" duration="0" songTitle="" songArtist="" songAlbum="" songCopyrightUrl="" songArtistUrl="" songAudioFileUrl="" stabilizationMode="0" mediaItemType="2" />
    <MediaItem id="690" filePath="C:\Users\owner\Dropbox\Work\png\animation T=1.00690.png" arWidth="640" arHeight="480" duration="0" songTitle="" songArtist="" songAlbum="" songCopyrightUrl="" songArtistUrl="" songAudioFileUrl="" stabilizationMode="0" mediaItemType="2" />
    <MediaItem id="5858" filePath="C:\Users\owner\Dropbox\Work\png\animation T=1.05858.png" arWidth="640" arHeight="480" duration="0" songTitle="" songArtist="" songAlbum="" songCopyrightUrl="" songArtistUrl="" songAudioFileUrl="" stabilizationMode="0" mediaItemType="2" />
    <MediaItem id="691" filePath="C:\Users\owner\Dropbox\Work\png\animation T=1.00691.png" arWidth="640" arHeight="480" duration="0" songTitle="" songArtist="" songAlbum="" songCopyrightUrl="" songArtistUrl="" songAudioFileUrl="" stabilizationMode="0" mediaItemType="2" />
    <MediaItem id="5859" filePath="C:\Users\owner\Dropbox\Work\png\animation T=1.05859.png" arWidth="640" arHeight="480" duration="0" songTitle="" songArtist="" songAlbum="" songCopyrightUrl="" songArtistUrl="" songAudioFileUrl="" stabilizationMode="0" mediaItemType="2" />
    <MediaItem id="692" filePath="C:\Users\owner\Dropbox\Work\png\animation T=1.00692.png" arWidth="640" arHeight="480" duration="0" songTitle="" songArtist="" songAlbum="" songCopyrightUrl="" songArtistUrl="" songAudioFileUrl="" stabilizationMode="0" mediaItemType="2" />
    <MediaItem id="5860" filePath="C:\Users\owner\Dropbox\Work\png\animation T=1.05860.png" arWidth="640" arHeight="480" duration="0" songTitle="" songArtist="" songAlbum="" songCopyrightUrl="" songArtistUrl="" songAudioFileUrl="" stabilizationMode="0" mediaItemType="2" />
    <MediaItem id="693" filePath="C:\Users\owner\Dropbox\Work\png\animation T=1.00693.png" arWidth="640" arHeight="480" duration="0" songTitle="" songArtist="" songAlbum="" songCopyrightUrl="" songArtistUrl="" songAudioFileUrl="" stabilizationMode="0" mediaItemType="2" />
    <MediaItem id="5861" filePath="C:\Users\owner\Dropbox\Work\png\animation T=1.05861.png" arWidth="640" arHeight="480" duration="0" songTitle="" songArtist="" songAlbum="" songCopyrightUrl="" songArtistUrl="" songAudioFileUrl="" stabilizationMode="0" mediaItemType="2" />
    <MediaItem id="694" filePath="C:\Users\owner\Dropbox\Work\png\animation T=1.00694.png" arWidth="640" arHeight="480" duration="0" songTitle="" songArtist="" songAlbum="" songCopyrightUrl="" songArtistUrl="" songAudioFileUrl="" stabilizationMode="0" mediaItemType="2" />
    <MediaItem id="5862" filePath="C:\Users\owner\Dropbox\Work\png\animation T=1.05862.png" arWidth="640" arHeight="480" duration="0" songTitle="" songArtist="" songAlbum="" songCopyrightUrl="" songArtistUrl="" songAudioFileUrl="" stabilizationMode="0" mediaItemType="2" />
    <MediaItem id="695" filePath="C:\Users\owner\Dropbox\Work\png\animation T=1.00695.png" arWidth="640" arHeight="480" duration="0" songTitle="" songArtist="" songAlbum="" songCopyrightUrl="" songArtistUrl="" songAudioFileUrl="" stabilizationMode="0" mediaItemType="2" />
    <MediaItem id="5863" filePath="C:\Users\owner\Dropbox\Work\png\animation T=1.05863.png" arWidth="640" arHeight="480" duration="0" songTitle="" songArtist="" songAlbum="" songCopyrightUrl="" songArtistUrl="" songAudioFileUrl="" stabilizationMode="0" mediaItemType="2" />
    <MediaItem id="696" filePath="C:\Users\owner\Dropbox\Work\png\animation T=1.00696.png" arWidth="640" arHeight="480" duration="0" songTitle="" songArtist="" songAlbum="" songCopyrightUrl="" songArtistUrl="" songAudioFileUrl="" stabilizationMode="0" mediaItemType="2" />
    <MediaItem id="5864" filePath="C:\Users\owner\Dropbox\Work\png\animation T=1.05864.png" arWidth="640" arHeight="480" duration="0" songTitle="" songArtist="" songAlbum="" songCopyrightUrl="" songArtistUrl="" songAudioFileUrl="" stabilizationMode="0" mediaItemType="2" />
    <MediaItem id="697" filePath="C:\Users\owner\Dropbox\Work\png\animation T=1.00697.png" arWidth="640" arHeight="480" duration="0" songTitle="" songArtist="" songAlbum="" songCopyrightUrl="" songArtistUrl="" songAudioFileUrl="" stabilizationMode="0" mediaItemType="2" />
    <MediaItem id="5865" filePath="C:\Users\owner\Dropbox\Work\png\animation T=1.05865.png" arWidth="640" arHeight="480" duration="0" songTitle="" songArtist="" songAlbum="" songCopyrightUrl="" songArtistUrl="" songAudioFileUrl="" stabilizationMode="0" mediaItemType="2" />
    <MediaItem id="698" filePath="C:\Users\owner\Dropbox\Work\png\animation T=1.00698.png" arWidth="640" arHeight="480" duration="0" songTitle="" songArtist="" songAlbum="" songCopyrightUrl="" songArtistUrl="" songAudioFileUrl="" stabilizationMode="0" mediaItemType="2" />
    <MediaItem id="5866" filePath="C:\Users\owner\Dropbox\Work\png\animation T=1.05866.png" arWidth="640" arHeight="480" duration="0" songTitle="" songArtist="" songAlbum="" songCopyrightUrl="" songArtistUrl="" songAudioFileUrl="" stabilizationMode="0" mediaItemType="2" />
    <MediaItem id="699" filePath="C:\Users\owner\Dropbox\Work\png\animation T=1.00699.png" arWidth="640" arHeight="480" duration="0" songTitle="" songArtist="" songAlbum="" songCopyrightUrl="" songArtistUrl="" songAudioFileUrl="" stabilizationMode="0" mediaItemType="2" />
    <MediaItem id="5867" filePath="C:\Users\owner\Dropbox\Work\png\animation T=1.05867.png" arWidth="640" arHeight="480" duration="0" songTitle="" songArtist="" songAlbum="" songCopyrightUrl="" songArtistUrl="" songAudioFileUrl="" stabilizationMode="0" mediaItemType="2" />
    <MediaItem id="700" filePath="C:\Users\owner\Dropbox\Work\png\animation T=1.00700.png" arWidth="640" arHeight="480" duration="0" songTitle="" songArtist="" songAlbum="" songCopyrightUrl="" songArtistUrl="" songAudioFileUrl="" stabilizationMode="0" mediaItemType="2" />
    <MediaItem id="5868" filePath="C:\Users\owner\Dropbox\Work\png\animation T=1.05868.png" arWidth="640" arHeight="480" duration="0" songTitle="" songArtist="" songAlbum="" songCopyrightUrl="" songArtistUrl="" songAudioFileUrl="" stabilizationMode="0" mediaItemType="2" />
    <MediaItem id="701" filePath="C:\Users\owner\Dropbox\Work\png\animation T=1.00701.png" arWidth="640" arHeight="480" duration="0" songTitle="" songArtist="" songAlbum="" songCopyrightUrl="" songArtistUrl="" songAudioFileUrl="" stabilizationMode="0" mediaItemType="2" />
    <MediaItem id="5869" filePath="C:\Users\owner\Dropbox\Work\png\animation T=1.05869.png" arWidth="640" arHeight="480" duration="0" songTitle="" songArtist="" songAlbum="" songCopyrightUrl="" songArtistUrl="" songAudioFileUrl="" stabilizationMode="0" mediaItemType="2" />
    <MediaItem id="702" filePath="C:\Users\owner\Dropbox\Work\png\animation T=1.00702.png" arWidth="640" arHeight="480" duration="0" songTitle="" songArtist="" songAlbum="" songCopyrightUrl="" songArtistUrl="" songAudioFileUrl="" stabilizationMode="0" mediaItemType="2" />
    <MediaItem id="5870" filePath="C:\Users\owner\Dropbox\Work\png\animation T=1.05870.png" arWidth="640" arHeight="480" duration="0" songTitle="" songArtist="" songAlbum="" songCopyrightUrl="" songArtistUrl="" songAudioFileUrl="" stabilizationMode="0" mediaItemType="2" />
    <MediaItem id="703" filePath="C:\Users\owner\Dropbox\Work\png\animation T=1.00703.png" arWidth="640" arHeight="480" duration="0" songTitle="" songArtist="" songAlbum="" songCopyrightUrl="" songArtistUrl="" songAudioFileUrl="" stabilizationMode="0" mediaItemType="2" />
    <MediaItem id="5871" filePath="C:\Users\owner\Dropbox\Work\png\animation T=1.05871.png" arWidth="640" arHeight="480" duration="0" songTitle="" songArtist="" songAlbum="" songCopyrightUrl="" songArtistUrl="" songAudioFileUrl="" stabilizationMode="0" mediaItemType="2" />
    <MediaItem id="704" filePath="C:\Users\owner\Dropbox\Work\png\animation T=1.00704.png" arWidth="640" arHeight="480" duration="0" songTitle="" songArtist="" songAlbum="" songCopyrightUrl="" songArtistUrl="" songAudioFileUrl="" stabilizationMode="0" mediaItemType="2" />
    <MediaItem id="5872" filePath="C:\Users\owner\Dropbox\Work\png\animation T=1.05872.png" arWidth="640" arHeight="480" duration="0" songTitle="" songArtist="" songAlbum="" songCopyrightUrl="" songArtistUrl="" songAudioFileUrl="" stabilizationMode="0" mediaItemType="2" />
    <MediaItem id="705" filePath="C:\Users\owner\Dropbox\Work\png\animation T=1.00705.png" arWidth="640" arHeight="480" duration="0" songTitle="" songArtist="" songAlbum="" songCopyrightUrl="" songArtistUrl="" songAudioFileUrl="" stabilizationMode="0" mediaItemType="2" />
    <MediaItem id="5873" filePath="C:\Users\owner\Dropbox\Work\png\animation T=1.05873.png" arWidth="640" arHeight="480" duration="0" songTitle="" songArtist="" songAlbum="" songCopyrightUrl="" songArtistUrl="" songAudioFileUrl="" stabilizationMode="0" mediaItemType="2" />
    <MediaItem id="706" filePath="C:\Users\owner\Dropbox\Work\png\animation T=1.00706.png" arWidth="640" arHeight="480" duration="0" songTitle="" songArtist="" songAlbum="" songCopyrightUrl="" songArtistUrl="" songAudioFileUrl="" stabilizationMode="0" mediaItemType="2" />
    <MediaItem id="5874" filePath="C:\Users\owner\Dropbox\Work\png\animation T=1.05874.png" arWidth="640" arHeight="480" duration="0" songTitle="" songArtist="" songAlbum="" songCopyrightUrl="" songArtistUrl="" songAudioFileUrl="" stabilizationMode="0" mediaItemType="2" />
    <MediaItem id="707" filePath="C:\Users\owner\Dropbox\Work\png\animation T=1.00707.png" arWidth="640" arHeight="480" duration="0" songTitle="" songArtist="" songAlbum="" songCopyrightUrl="" songArtistUrl="" songAudioFileUrl="" stabilizationMode="0" mediaItemType="2" />
    <MediaItem id="5875" filePath="C:\Users\owner\Dropbox\Work\png\animation T=1.05875.png" arWidth="640" arHeight="480" duration="0" songTitle="" songArtist="" songAlbum="" songCopyrightUrl="" songArtistUrl="" songAudioFileUrl="" stabilizationMode="0" mediaItemType="2" />
    <MediaItem id="708" filePath="C:\Users\owner\Dropbox\Work\png\animation T=1.00708.png" arWidth="640" arHeight="480" duration="0" songTitle="" songArtist="" songAlbum="" songCopyrightUrl="" songArtistUrl="" songAudioFileUrl="" stabilizationMode="0" mediaItemType="2" />
    <MediaItem id="5876" filePath="C:\Users\owner\Dropbox\Work\png\animation T=1.05876.png" arWidth="640" arHeight="480" duration="0" songTitle="" songArtist="" songAlbum="" songCopyrightUrl="" songArtistUrl="" songAudioFileUrl="" stabilizationMode="0" mediaItemType="2" />
    <MediaItem id="709" filePath="C:\Users\owner\Dropbox\Work\png\animation T=1.00709.png" arWidth="640" arHeight="480" duration="0" songTitle="" songArtist="" songAlbum="" songCopyrightUrl="" songArtistUrl="" songAudioFileUrl="" stabilizationMode="0" mediaItemType="2" />
    <MediaItem id="5877" filePath="C:\Users\owner\Dropbox\Work\png\animation T=1.05877.png" arWidth="640" arHeight="480" duration="0" songTitle="" songArtist="" songAlbum="" songCopyrightUrl="" songArtistUrl="" songAudioFileUrl="" stabilizationMode="0" mediaItemType="2" />
    <MediaItem id="710" filePath="C:\Users\owner\Dropbox\Work\png\animation T=1.00710.png" arWidth="640" arHeight="480" duration="0" songTitle="" songArtist="" songAlbum="" songCopyrightUrl="" songArtistUrl="" songAudioFileUrl="" stabilizationMode="0" mediaItemType="2" />
    <MediaItem id="5878" filePath="C:\Users\owner\Dropbox\Work\png\animation T=1.05878.png" arWidth="640" arHeight="480" duration="0" songTitle="" songArtist="" songAlbum="" songCopyrightUrl="" songArtistUrl="" songAudioFileUrl="" stabilizationMode="0" mediaItemType="2" />
    <MediaItem id="711" filePath="C:\Users\owner\Dropbox\Work\png\animation T=1.00711.png" arWidth="640" arHeight="480" duration="0" songTitle="" songArtist="" songAlbum="" songCopyrightUrl="" songArtistUrl="" songAudioFileUrl="" stabilizationMode="0" mediaItemType="2" />
    <MediaItem id="5879" filePath="C:\Users\owner\Dropbox\Work\png\animation T=1.05879.png" arWidth="640" arHeight="480" duration="0" songTitle="" songArtist="" songAlbum="" songCopyrightUrl="" songArtistUrl="" songAudioFileUrl="" stabilizationMode="0" mediaItemType="2" />
    <MediaItem id="712" filePath="C:\Users\owner\Dropbox\Work\png\animation T=1.00712.png" arWidth="640" arHeight="480" duration="0" songTitle="" songArtist="" songAlbum="" songCopyrightUrl="" songArtistUrl="" songAudioFileUrl="" stabilizationMode="0" mediaItemType="2" />
    <MediaItem id="5880" filePath="C:\Users\owner\Dropbox\Work\png\animation T=1.05880.png" arWidth="640" arHeight="480" duration="0" songTitle="" songArtist="" songAlbum="" songCopyrightUrl="" songArtistUrl="" songAudioFileUrl="" stabilizationMode="0" mediaItemType="2" />
    <MediaItem id="713" filePath="C:\Users\owner\Dropbox\Work\png\animation T=1.00713.png" arWidth="640" arHeight="480" duration="0" songTitle="" songArtist="" songAlbum="" songCopyrightUrl="" songArtistUrl="" songAudioFileUrl="" stabilizationMode="0" mediaItemType="2" />
    <MediaItem id="5881" filePath="C:\Users\owner\Dropbox\Work\png\animation T=1.05881.png" arWidth="640" arHeight="480" duration="0" songTitle="" songArtist="" songAlbum="" songCopyrightUrl="" songArtistUrl="" songAudioFileUrl="" stabilizationMode="0" mediaItemType="2" />
    <MediaItem id="714" filePath="C:\Users\owner\Dropbox\Work\png\animation T=1.00714.png" arWidth="640" arHeight="480" duration="0" songTitle="" songArtist="" songAlbum="" songCopyrightUrl="" songArtistUrl="" songAudioFileUrl="" stabilizationMode="0" mediaItemType="2" />
    <MediaItem id="5882" filePath="C:\Users\owner\Dropbox\Work\png\animation T=1.05882.png" arWidth="640" arHeight="480" duration="0" songTitle="" songArtist="" songAlbum="" songCopyrightUrl="" songArtistUrl="" songAudioFileUrl="" stabilizationMode="0" mediaItemType="2" />
    <MediaItem id="715" filePath="C:\Users\owner\Dropbox\Work\png\animation T=1.00715.png" arWidth="640" arHeight="480" duration="0" songTitle="" songArtist="" songAlbum="" songCopyrightUrl="" songArtistUrl="" songAudioFileUrl="" stabilizationMode="0" mediaItemType="2" />
    <MediaItem id="5883" filePath="C:\Users\owner\Dropbox\Work\png\animation T=1.05883.png" arWidth="640" arHeight="480" duration="0" songTitle="" songArtist="" songAlbum="" songCopyrightUrl="" songArtistUrl="" songAudioFileUrl="" stabilizationMode="0" mediaItemType="2" />
    <MediaItem id="716" filePath="C:\Users\owner\Dropbox\Work\png\animation T=1.00716.png" arWidth="640" arHeight="480" duration="0" songTitle="" songArtist="" songAlbum="" songCopyrightUrl="" songArtistUrl="" songAudioFileUrl="" stabilizationMode="0" mediaItemType="2" />
    <MediaItem id="5884" filePath="C:\Users\owner\Dropbox\Work\png\animation T=1.05884.png" arWidth="640" arHeight="480" duration="0" songTitle="" songArtist="" songAlbum="" songCopyrightUrl="" songArtistUrl="" songAudioFileUrl="" stabilizationMode="0" mediaItemType="2" />
    <MediaItem id="717" filePath="C:\Users\owner\Dropbox\Work\png\animation T=1.00717.png" arWidth="640" arHeight="480" duration="0" songTitle="" songArtist="" songAlbum="" songCopyrightUrl="" songArtistUrl="" songAudioFileUrl="" stabilizationMode="0" mediaItemType="2" />
    <MediaItem id="5885" filePath="C:\Users\owner\Dropbox\Work\png\animation T=1.05885.png" arWidth="640" arHeight="480" duration="0" songTitle="" songArtist="" songAlbum="" songCopyrightUrl="" songArtistUrl="" songAudioFileUrl="" stabilizationMode="0" mediaItemType="2" />
    <MediaItem id="718" filePath="C:\Users\owner\Dropbox\Work\png\animation T=1.00718.png" arWidth="640" arHeight="480" duration="0" songTitle="" songArtist="" songAlbum="" songCopyrightUrl="" songArtistUrl="" songAudioFileUrl="" stabilizationMode="0" mediaItemType="2" />
    <MediaItem id="5886" filePath="C:\Users\owner\Dropbox\Work\png\animation T=1.05886.png" arWidth="640" arHeight="480" duration="0" songTitle="" songArtist="" songAlbum="" songCopyrightUrl="" songArtistUrl="" songAudioFileUrl="" stabilizationMode="0" mediaItemType="2" />
    <MediaItem id="719" filePath="C:\Users\owner\Dropbox\Work\png\animation T=1.00719.png" arWidth="640" arHeight="480" duration="0" songTitle="" songArtist="" songAlbum="" songCopyrightUrl="" songArtistUrl="" songAudioFileUrl="" stabilizationMode="0" mediaItemType="2" />
    <MediaItem id="5887" filePath="C:\Users\owner\Dropbox\Work\png\animation T=1.05887.png" arWidth="640" arHeight="480" duration="0" songTitle="" songArtist="" songAlbum="" songCopyrightUrl="" songArtistUrl="" songAudioFileUrl="" stabilizationMode="0" mediaItemType="2" />
    <MediaItem id="720" filePath="C:\Users\owner\Dropbox\Work\png\animation T=1.00720.png" arWidth="640" arHeight="480" duration="0" songTitle="" songArtist="" songAlbum="" songCopyrightUrl="" songArtistUrl="" songAudioFileUrl="" stabilizationMode="0" mediaItemType="2" />
    <MediaItem id="5888" filePath="C:\Users\owner\Dropbox\Work\png\animation T=1.05888.png" arWidth="640" arHeight="480" duration="0" songTitle="" songArtist="" songAlbum="" songCopyrightUrl="" songArtistUrl="" songAudioFileUrl="" stabilizationMode="0" mediaItemType="2" />
    <MediaItem id="721" filePath="C:\Users\owner\Dropbox\Work\png\animation T=1.00721.png" arWidth="640" arHeight="480" duration="0" songTitle="" songArtist="" songAlbum="" songCopyrightUrl="" songArtistUrl="" songAudioFileUrl="" stabilizationMode="0" mediaItemType="2" />
    <MediaItem id="5889" filePath="C:\Users\owner\Dropbox\Work\png\animation T=1.05889.png" arWidth="640" arHeight="480" duration="0" songTitle="" songArtist="" songAlbum="" songCopyrightUrl="" songArtistUrl="" songAudioFileUrl="" stabilizationMode="0" mediaItemType="2" />
    <MediaItem id="722" filePath="C:\Users\owner\Dropbox\Work\png\animation T=1.00722.png" arWidth="640" arHeight="480" duration="0" songTitle="" songArtist="" songAlbum="" songCopyrightUrl="" songArtistUrl="" songAudioFileUrl="" stabilizationMode="0" mediaItemType="2" />
    <MediaItem id="5890" filePath="C:\Users\owner\Dropbox\Work\png\animation T=1.05890.png" arWidth="640" arHeight="480" duration="0" songTitle="" songArtist="" songAlbum="" songCopyrightUrl="" songArtistUrl="" songAudioFileUrl="" stabilizationMode="0" mediaItemType="2" />
    <MediaItem id="723" filePath="C:\Users\owner\Dropbox\Work\png\animation T=1.00723.png" arWidth="640" arHeight="480" duration="0" songTitle="" songArtist="" songAlbum="" songCopyrightUrl="" songArtistUrl="" songAudioFileUrl="" stabilizationMode="0" mediaItemType="2" />
    <MediaItem id="5891" filePath="C:\Users\owner\Dropbox\Work\png\animation T=1.05891.png" arWidth="640" arHeight="480" duration="0" songTitle="" songArtist="" songAlbum="" songCopyrightUrl="" songArtistUrl="" songAudioFileUrl="" stabilizationMode="0" mediaItemType="2" />
    <MediaItem id="724" filePath="C:\Users\owner\Dropbox\Work\png\animation T=1.00724.png" arWidth="640" arHeight="480" duration="0" songTitle="" songArtist="" songAlbum="" songCopyrightUrl="" songArtistUrl="" songAudioFileUrl="" stabilizationMode="0" mediaItemType="2" />
    <MediaItem id="5892" filePath="C:\Users\owner\Dropbox\Work\png\animation T=1.05892.png" arWidth="640" arHeight="480" duration="0" songTitle="" songArtist="" songAlbum="" songCopyrightUrl="" songArtistUrl="" songAudioFileUrl="" stabilizationMode="0" mediaItemType="2" />
    <MediaItem id="725" filePath="C:\Users\owner\Dropbox\Work\png\animation T=1.00725.png" arWidth="640" arHeight="480" duration="0" songTitle="" songArtist="" songAlbum="" songCopyrightUrl="" songArtistUrl="" songAudioFileUrl="" stabilizationMode="0" mediaItemType="2" />
    <MediaItem id="5893" filePath="C:\Users\owner\Dropbox\Work\png\animation T=1.05893.png" arWidth="640" arHeight="480" duration="0" songTitle="" songArtist="" songAlbum="" songCopyrightUrl="" songArtistUrl="" songAudioFileUrl="" stabilizationMode="0" mediaItemType="2" />
    <MediaItem id="726" filePath="C:\Users\owner\Dropbox\Work\png\animation T=1.00726.png" arWidth="640" arHeight="480" duration="0" songTitle="" songArtist="" songAlbum="" songCopyrightUrl="" songArtistUrl="" songAudioFileUrl="" stabilizationMode="0" mediaItemType="2" />
    <MediaItem id="5894" filePath="C:\Users\owner\Dropbox\Work\png\animation T=1.05894.png" arWidth="640" arHeight="480" duration="0" songTitle="" songArtist="" songAlbum="" songCopyrightUrl="" songArtistUrl="" songAudioFileUrl="" stabilizationMode="0" mediaItemType="2" />
    <MediaItem id="727" filePath="C:\Users\owner\Dropbox\Work\png\animation T=1.00727.png" arWidth="640" arHeight="480" duration="0" songTitle="" songArtist="" songAlbum="" songCopyrightUrl="" songArtistUrl="" songAudioFileUrl="" stabilizationMode="0" mediaItemType="2" />
    <MediaItem id="5895" filePath="C:\Users\owner\Dropbox\Work\png\animation T=1.05895.png" arWidth="640" arHeight="480" duration="0" songTitle="" songArtist="" songAlbum="" songCopyrightUrl="" songArtistUrl="" songAudioFileUrl="" stabilizationMode="0" mediaItemType="2" />
    <MediaItem id="728" filePath="C:\Users\owner\Dropbox\Work\png\animation T=1.00728.png" arWidth="640" arHeight="480" duration="0" songTitle="" songArtist="" songAlbum="" songCopyrightUrl="" songArtistUrl="" songAudioFileUrl="" stabilizationMode="0" mediaItemType="2" />
    <MediaItem id="5896" filePath="C:\Users\owner\Dropbox\Work\png\animation T=1.05896.png" arWidth="640" arHeight="480" duration="0" songTitle="" songArtist="" songAlbum="" songCopyrightUrl="" songArtistUrl="" songAudioFileUrl="" stabilizationMode="0" mediaItemType="2" />
    <MediaItem id="729" filePath="C:\Users\owner\Dropbox\Work\png\animation T=1.00729.png" arWidth="640" arHeight="480" duration="0" songTitle="" songArtist="" songAlbum="" songCopyrightUrl="" songArtistUrl="" songAudioFileUrl="" stabilizationMode="0" mediaItemType="2" />
    <MediaItem id="5897" filePath="C:\Users\owner\Dropbox\Work\png\animation T=1.05897.png" arWidth="640" arHeight="480" duration="0" songTitle="" songArtist="" songAlbum="" songCopyrightUrl="" songArtistUrl="" songAudioFileUrl="" stabilizationMode="0" mediaItemType="2" />
    <MediaItem id="730" filePath="C:\Users\owner\Dropbox\Work\png\animation T=1.00730.png" arWidth="640" arHeight="480" duration="0" songTitle="" songArtist="" songAlbum="" songCopyrightUrl="" songArtistUrl="" songAudioFileUrl="" stabilizationMode="0" mediaItemType="2" />
    <MediaItem id="5898" filePath="C:\Users\owner\Dropbox\Work\png\animation T=1.05898.png" arWidth="640" arHeight="480" duration="0" songTitle="" songArtist="" songAlbum="" songCopyrightUrl="" songArtistUrl="" songAudioFileUrl="" stabilizationMode="0" mediaItemType="2" />
    <MediaItem id="731" filePath="C:\Users\owner\Dropbox\Work\png\animation T=1.00731.png" arWidth="640" arHeight="480" duration="0" songTitle="" songArtist="" songAlbum="" songCopyrightUrl="" songArtistUrl="" songAudioFileUrl="" stabilizationMode="0" mediaItemType="2" />
    <MediaItem id="5899" filePath="C:\Users\owner\Dropbox\Work\png\animation T=1.05899.png" arWidth="640" arHeight="480" duration="0" songTitle="" songArtist="" songAlbum="" songCopyrightUrl="" songArtistUrl="" songAudioFileUrl="" stabilizationMode="0" mediaItemType="2" />
    <MediaItem id="732" filePath="C:\Users\owner\Dropbox\Work\png\animation T=1.00732.png" arWidth="640" arHeight="480" duration="0" songTitle="" songArtist="" songAlbum="" songCopyrightUrl="" songArtistUrl="" songAudioFileUrl="" stabilizationMode="0" mediaItemType="2" />
    <MediaItem id="5900" filePath="C:\Users\owner\Dropbox\Work\png\animation T=1.05900.png" arWidth="640" arHeight="480" duration="0" songTitle="" songArtist="" songAlbum="" songCopyrightUrl="" songArtistUrl="" songAudioFileUrl="" stabilizationMode="0" mediaItemType="2" />
    <MediaItem id="733" filePath="C:\Users\owner\Dropbox\Work\png\animation T=1.00733.png" arWidth="640" arHeight="480" duration="0" songTitle="" songArtist="" songAlbum="" songCopyrightUrl="" songArtistUrl="" songAudioFileUrl="" stabilizationMode="0" mediaItemType="2" />
    <MediaItem id="5901" filePath="C:\Users\owner\Dropbox\Work\png\animation T=1.05901.png" arWidth="640" arHeight="480" duration="0" songTitle="" songArtist="" songAlbum="" songCopyrightUrl="" songArtistUrl="" songAudioFileUrl="" stabilizationMode="0" mediaItemType="2" />
    <MediaItem id="734" filePath="C:\Users\owner\Dropbox\Work\png\animation T=1.00734.png" arWidth="640" arHeight="480" duration="0" songTitle="" songArtist="" songAlbum="" songCopyrightUrl="" songArtistUrl="" songAudioFileUrl="" stabilizationMode="0" mediaItemType="2" />
    <MediaItem id="5902" filePath="C:\Users\owner\Dropbox\Work\png\animation T=1.05902.png" arWidth="640" arHeight="480" duration="0" songTitle="" songArtist="" songAlbum="" songCopyrightUrl="" songArtistUrl="" songAudioFileUrl="" stabilizationMode="0" mediaItemType="2" />
    <MediaItem id="735" filePath="C:\Users\owner\Dropbox\Work\png\animation T=1.00735.png" arWidth="640" arHeight="480" duration="0" songTitle="" songArtist="" songAlbum="" songCopyrightUrl="" songArtistUrl="" songAudioFileUrl="" stabilizationMode="0" mediaItemType="2" />
    <MediaItem id="5903" filePath="C:\Users\owner\Dropbox\Work\png\animation T=1.05903.png" arWidth="640" arHeight="480" duration="0" songTitle="" songArtist="" songAlbum="" songCopyrightUrl="" songArtistUrl="" songAudioFileUrl="" stabilizationMode="0" mediaItemType="2" />
    <MediaItem id="736" filePath="C:\Users\owner\Dropbox\Work\png\animation T=1.00736.png" arWidth="640" arHeight="480" duration="0" songTitle="" songArtist="" songAlbum="" songCopyrightUrl="" songArtistUrl="" songAudioFileUrl="" stabilizationMode="0" mediaItemType="2" />
    <MediaItem id="5904" filePath="C:\Users\owner\Dropbox\Work\png\animation T=1.05904.png" arWidth="640" arHeight="480" duration="0" songTitle="" songArtist="" songAlbum="" songCopyrightUrl="" songArtistUrl="" songAudioFileUrl="" stabilizationMode="0" mediaItemType="2" />
    <MediaItem id="737" filePath="C:\Users\owner\Dropbox\Work\png\animation T=1.00737.png" arWidth="640" arHeight="480" duration="0" songTitle="" songArtist="" songAlbum="" songCopyrightUrl="" songArtistUrl="" songAudioFileUrl="" stabilizationMode="0" mediaItemType="2" />
    <MediaItem id="5905" filePath="C:\Users\owner\Dropbox\Work\png\animation T=1.05905.png" arWidth="640" arHeight="480" duration="0" songTitle="" songArtist="" songAlbum="" songCopyrightUrl="" songArtistUrl="" songAudioFileUrl="" stabilizationMode="0" mediaItemType="2" />
    <MediaItem id="738" filePath="C:\Users\owner\Dropbox\Work\png\animation T=1.00738.png" arWidth="640" arHeight="480" duration="0" songTitle="" songArtist="" songAlbum="" songCopyrightUrl="" songArtistUrl="" songAudioFileUrl="" stabilizationMode="0" mediaItemType="2" />
    <MediaItem id="5906" filePath="C:\Users\owner\Dropbox\Work\png\animation T=1.05906.png" arWidth="640" arHeight="480" duration="0" songTitle="" songArtist="" songAlbum="" songCopyrightUrl="" songArtistUrl="" songAudioFileUrl="" stabilizationMode="0" mediaItemType="2" />
    <MediaItem id="739" filePath="C:\Users\owner\Dropbox\Work\png\animation T=1.00739.png" arWidth="640" arHeight="480" duration="0" songTitle="" songArtist="" songAlbum="" songCopyrightUrl="" songArtistUrl="" songAudioFileUrl="" stabilizationMode="0" mediaItemType="2" />
    <MediaItem id="5907" filePath="C:\Users\owner\Dropbox\Work\png\animation T=1.05907.png" arWidth="640" arHeight="480" duration="0" songTitle="" songArtist="" songAlbum="" songCopyrightUrl="" songArtistUrl="" songAudioFileUrl="" stabilizationMode="0" mediaItemType="2" />
    <MediaItem id="740" filePath="C:\Users\owner\Dropbox\Work\png\animation T=1.00740.png" arWidth="640" arHeight="480" duration="0" songTitle="" songArtist="" songAlbum="" songCopyrightUrl="" songArtistUrl="" songAudioFileUrl="" stabilizationMode="0" mediaItemType="2" />
    <MediaItem id="5908" filePath="C:\Users\owner\Dropbox\Work\png\animation T=1.05908.png" arWidth="640" arHeight="480" duration="0" songTitle="" songArtist="" songAlbum="" songCopyrightUrl="" songArtistUrl="" songAudioFileUrl="" stabilizationMode="0" mediaItemType="2" />
    <MediaItem id="741" filePath="C:\Users\owner\Dropbox\Work\png\animation T=1.00741.png" arWidth="640" arHeight="480" duration="0" songTitle="" songArtist="" songAlbum="" songCopyrightUrl="" songArtistUrl="" songAudioFileUrl="" stabilizationMode="0" mediaItemType="2" />
    <MediaItem id="5909" filePath="C:\Users\owner\Dropbox\Work\png\animation T=1.05909.png" arWidth="640" arHeight="480" duration="0" songTitle="" songArtist="" songAlbum="" songCopyrightUrl="" songArtistUrl="" songAudioFileUrl="" stabilizationMode="0" mediaItemType="2" />
    <MediaItem id="742" filePath="C:\Users\owner\Dropbox\Work\png\animation T=1.00742.png" arWidth="640" arHeight="480" duration="0" songTitle="" songArtist="" songAlbum="" songCopyrightUrl="" songArtistUrl="" songAudioFileUrl="" stabilizationMode="0" mediaItemType="2" />
    <MediaItem id="5910" filePath="C:\Users\owner\Dropbox\Work\png\animation T=1.05910.png" arWidth="640" arHeight="480" duration="0" songTitle="" songArtist="" songAlbum="" songCopyrightUrl="" songArtistUrl="" songAudioFileUrl="" stabilizationMode="0" mediaItemType="2" />
    <MediaItem id="743" filePath="C:\Users\owner\Dropbox\Work\png\animation T=1.00743.png" arWidth="640" arHeight="480" duration="0" songTitle="" songArtist="" songAlbum="" songCopyrightUrl="" songArtistUrl="" songAudioFileUrl="" stabilizationMode="0" mediaItemType="2" />
    <MediaItem id="5911" filePath="C:\Users\owner\Dropbox\Work\png\animation T=1.05911.png" arWidth="640" arHeight="480" duration="0" songTitle="" songArtist="" songAlbum="" songCopyrightUrl="" songArtistUrl="" songAudioFileUrl="" stabilizationMode="0" mediaItemType="2" />
    <MediaItem id="744" filePath="C:\Users\owner\Dropbox\Work\png\animation T=1.00744.png" arWidth="640" arHeight="480" duration="0" songTitle="" songArtist="" songAlbum="" songCopyrightUrl="" songArtistUrl="" songAudioFileUrl="" stabilizationMode="0" mediaItemType="2" />
    <MediaItem id="5912" filePath="C:\Users\owner\Dropbox\Work\png\animation T=1.05912.png" arWidth="640" arHeight="480" duration="0" songTitle="" songArtist="" songAlbum="" songCopyrightUrl="" songArtistUrl="" songAudioFileUrl="" stabilizationMode="0" mediaItemType="2" />
    <MediaItem id="745" filePath="C:\Users\owner\Dropbox\Work\png\animation T=1.00745.png" arWidth="640" arHeight="480" duration="0" songTitle="" songArtist="" songAlbum="" songCopyrightUrl="" songArtistUrl="" songAudioFileUrl="" stabilizationMode="0" mediaItemType="2" />
    <MediaItem id="5913" filePath="C:\Users\owner\Dropbox\Work\png\animation T=1.05913.png" arWidth="640" arHeight="480" duration="0" songTitle="" songArtist="" songAlbum="" songCopyrightUrl="" songArtistUrl="" songAudioFileUrl="" stabilizationMode="0" mediaItemType="2" />
    <MediaItem id="746" filePath="C:\Users\owner\Dropbox\Work\png\animation T=1.00746.png" arWidth="640" arHeight="480" duration="0" songTitle="" songArtist="" songAlbum="" songCopyrightUrl="" songArtistUrl="" songAudioFileUrl="" stabilizationMode="0" mediaItemType="2" />
    <MediaItem id="5914" filePath="C:\Users\owner\Dropbox\Work\png\animation T=1.05914.png" arWidth="640" arHeight="480" duration="0" songTitle="" songArtist="" songAlbum="" songCopyrightUrl="" songArtistUrl="" songAudioFileUrl="" stabilizationMode="0" mediaItemType="2" />
    <MediaItem id="747" filePath="C:\Users\owner\Dropbox\Work\png\animation T=1.00747.png" arWidth="640" arHeight="480" duration="0" songTitle="" songArtist="" songAlbum="" songCopyrightUrl="" songArtistUrl="" songAudioFileUrl="" stabilizationMode="0" mediaItemType="2" />
    <MediaItem id="5915" filePath="C:\Users\owner\Dropbox\Work\png\animation T=1.05915.png" arWidth="640" arHeight="480" duration="0" songTitle="" songArtist="" songAlbum="" songCopyrightUrl="" songArtistUrl="" songAudioFileUrl="" stabilizationMode="0" mediaItemType="2" />
    <MediaItem id="748" filePath="C:\Users\owner\Dropbox\Work\png\animation T=1.00748.png" arWidth="640" arHeight="480" duration="0" songTitle="" songArtist="" songAlbum="" songCopyrightUrl="" songArtistUrl="" songAudioFileUrl="" stabilizationMode="0" mediaItemType="2" />
    <MediaItem id="5916" filePath="C:\Users\owner\Dropbox\Work\png\animation T=1.05916.png" arWidth="640" arHeight="480" duration="0" songTitle="" songArtist="" songAlbum="" songCopyrightUrl="" songArtistUrl="" songAudioFileUrl="" stabilizationMode="0" mediaItemType="2" />
    <MediaItem id="749" filePath="C:\Users\owner\Dropbox\Work\png\animation T=1.00749.png" arWidth="640" arHeight="480" duration="0" songTitle="" songArtist="" songAlbum="" songCopyrightUrl="" songArtistUrl="" songAudioFileUrl="" stabilizationMode="0" mediaItemType="2" />
    <MediaItem id="5917" filePath="C:\Users\owner\Dropbox\Work\png\animation T=1.05917.png" arWidth="640" arHeight="480" duration="0" songTitle="" songArtist="" songAlbum="" songCopyrightUrl="" songArtistUrl="" songAudioFileUrl="" stabilizationMode="0" mediaItemType="2" />
    <MediaItem id="750" filePath="C:\Users\owner\Dropbox\Work\png\animation T=1.00750.png" arWidth="640" arHeight="480" duration="0" songTitle="" songArtist="" songAlbum="" songCopyrightUrl="" songArtistUrl="" songAudioFileUrl="" stabilizationMode="0" mediaItemType="2" />
    <MediaItem id="5918" filePath="C:\Users\owner\Dropbox\Work\png\animation T=1.05918.png" arWidth="640" arHeight="480" duration="0" songTitle="" songArtist="" songAlbum="" songCopyrightUrl="" songArtistUrl="" songAudioFileUrl="" stabilizationMode="0" mediaItemType="2" />
    <MediaItem id="751" filePath="C:\Users\owner\Dropbox\Work\png\animation T=1.00751.png" arWidth="640" arHeight="480" duration="0" songTitle="" songArtist="" songAlbum="" songCopyrightUrl="" songArtistUrl="" songAudioFileUrl="" stabilizationMode="0" mediaItemType="2" />
    <MediaItem id="5919" filePath="C:\Users\owner\Dropbox\Work\png\animation T=1.05919.png" arWidth="640" arHeight="480" duration="0" songTitle="" songArtist="" songAlbum="" songCopyrightUrl="" songArtistUrl="" songAudioFileUrl="" stabilizationMode="0" mediaItemType="2" />
    <MediaItem id="752" filePath="C:\Users\owner\Dropbox\Work\png\animation T=1.00752.png" arWidth="640" arHeight="480" duration="0" songTitle="" songArtist="" songAlbum="" songCopyrightUrl="" songArtistUrl="" songAudioFileUrl="" stabilizationMode="0" mediaItemType="2" />
    <MediaItem id="5920" filePath="C:\Users\owner\Dropbox\Work\png\animation T=1.05920.png" arWidth="640" arHeight="480" duration="0" songTitle="" songArtist="" songAlbum="" songCopyrightUrl="" songArtistUrl="" songAudioFileUrl="" stabilizationMode="0" mediaItemType="2" />
    <MediaItem id="753" filePath="C:\Users\owner\Dropbox\Work\png\animation T=1.00753.png" arWidth="640" arHeight="480" duration="0" songTitle="" songArtist="" songAlbum="" songCopyrightUrl="" songArtistUrl="" songAudioFileUrl="" stabilizationMode="0" mediaItemType="2" />
    <MediaItem id="5921" filePath="C:\Users\owner\Dropbox\Work\png\animation T=1.05921.png" arWidth="640" arHeight="480" duration="0" songTitle="" songArtist="" songAlbum="" songCopyrightUrl="" songArtistUrl="" songAudioFileUrl="" stabilizationMode="0" mediaItemType="2" />
    <MediaItem id="754" filePath="C:\Users\owner\Dropbox\Work\png\animation T=1.00754.png" arWidth="640" arHeight="480" duration="0" songTitle="" songArtist="" songAlbum="" songCopyrightUrl="" songArtistUrl="" songAudioFileUrl="" stabilizationMode="0" mediaItemType="2" />
    <MediaItem id="5922" filePath="C:\Users\owner\Dropbox\Work\png\animation T=1.05922.png" arWidth="640" arHeight="480" duration="0" songTitle="" songArtist="" songAlbum="" songCopyrightUrl="" songArtistUrl="" songAudioFileUrl="" stabilizationMode="0" mediaItemType="2" />
    <MediaItem id="755" filePath="C:\Users\owner\Dropbox\Work\png\animation T=1.00755.png" arWidth="640" arHeight="480" duration="0" songTitle="" songArtist="" songAlbum="" songCopyrightUrl="" songArtistUrl="" songAudioFileUrl="" stabilizationMode="0" mediaItemType="2" />
    <MediaItem id="5923" filePath="C:\Users\owner\Dropbox\Work\png\animation T=1.05923.png" arWidth="640" arHeight="480" duration="0" songTitle="" songArtist="" songAlbum="" songCopyrightUrl="" songArtistUrl="" songAudioFileUrl="" stabilizationMode="0" mediaItemType="2" />
    <MediaItem id="756" filePath="C:\Users\owner\Dropbox\Work\png\animation T=1.00756.png" arWidth="640" arHeight="480" duration="0" songTitle="" songArtist="" songAlbum="" songCopyrightUrl="" songArtistUrl="" songAudioFileUrl="" stabilizationMode="0" mediaItemType="2" />
    <MediaItem id="5924" filePath="C:\Users\owner\Dropbox\Work\png\animation T=1.05924.png" arWidth="640" arHeight="480" duration="0" songTitle="" songArtist="" songAlbum="" songCopyrightUrl="" songArtistUrl="" songAudioFileUrl="" stabilizationMode="0" mediaItemType="2" />
    <MediaItem id="757" filePath="C:\Users\owner\Dropbox\Work\png\animation T=1.00757.png" arWidth="640" arHeight="480" duration="0" songTitle="" songArtist="" songAlbum="" songCopyrightUrl="" songArtistUrl="" songAudioFileUrl="" stabilizationMode="0" mediaItemType="2" />
    <MediaItem id="5925" filePath="C:\Users\owner\Dropbox\Work\png\animation T=1.05925.png" arWidth="640" arHeight="480" duration="0" songTitle="" songArtist="" songAlbum="" songCopyrightUrl="" songArtistUrl="" songAudioFileUrl="" stabilizationMode="0" mediaItemType="2" />
    <MediaItem id="758" filePath="C:\Users\owner\Dropbox\Work\png\animation T=1.00758.png" arWidth="640" arHeight="480" duration="0" songTitle="" songArtist="" songAlbum="" songCopyrightUrl="" songArtistUrl="" songAudioFileUrl="" stabilizationMode="0" mediaItemType="2" />
    <MediaItem id="5926" filePath="C:\Users\owner\Dropbox\Work\png\animation T=1.05926.png" arWidth="640" arHeight="480" duration="0" songTitle="" songArtist="" songAlbum="" songCopyrightUrl="" songArtistUrl="" songAudioFileUrl="" stabilizationMode="0" mediaItemType="2" />
    <MediaItem id="759" filePath="C:\Users\owner\Dropbox\Work\png\animation T=1.00759.png" arWidth="640" arHeight="480" duration="0" songTitle="" songArtist="" songAlbum="" songCopyrightUrl="" songArtistUrl="" songAudioFileUrl="" stabilizationMode="0" mediaItemType="2" />
    <MediaItem id="5927" filePath="C:\Users\owner\Dropbox\Work\png\animation T=1.05927.png" arWidth="640" arHeight="480" duration="0" songTitle="" songArtist="" songAlbum="" songCopyrightUrl="" songArtistUrl="" songAudioFileUrl="" stabilizationMode="0" mediaItemType="2" />
    <MediaItem id="760" filePath="C:\Users\owner\Dropbox\Work\png\animation T=1.00760.png" arWidth="640" arHeight="480" duration="0" songTitle="" songArtist="" songAlbum="" songCopyrightUrl="" songArtistUrl="" songAudioFileUrl="" stabilizationMode="0" mediaItemType="2" />
    <MediaItem id="5928" filePath="C:\Users\owner\Dropbox\Work\png\animation T=1.05928.png" arWidth="640" arHeight="480" duration="0" songTitle="" songArtist="" songAlbum="" songCopyrightUrl="" songArtistUrl="" songAudioFileUrl="" stabilizationMode="0" mediaItemType="2" />
    <MediaItem id="761" filePath="C:\Users\owner\Dropbox\Work\png\animation T=1.00761.png" arWidth="640" arHeight="480" duration="0" songTitle="" songArtist="" songAlbum="" songCopyrightUrl="" songArtistUrl="" songAudioFileUrl="" stabilizationMode="0" mediaItemType="2" />
    <MediaItem id="5929" filePath="C:\Users\owner\Dropbox\Work\png\animation T=1.05929.png" arWidth="640" arHeight="480" duration="0" songTitle="" songArtist="" songAlbum="" songCopyrightUrl="" songArtistUrl="" songAudioFileUrl="" stabilizationMode="0" mediaItemType="2" />
    <MediaItem id="762" filePath="C:\Users\owner\Dropbox\Work\png\animation T=1.00762.png" arWidth="640" arHeight="480" duration="0" songTitle="" songArtist="" songAlbum="" songCopyrightUrl="" songArtistUrl="" songAudioFileUrl="" stabilizationMode="0" mediaItemType="2" />
    <MediaItem id="5930" filePath="C:\Users\owner\Dropbox\Work\png\animation T=1.05930.png" arWidth="640" arHeight="480" duration="0" songTitle="" songArtist="" songAlbum="" songCopyrightUrl="" songArtistUrl="" songAudioFileUrl="" stabilizationMode="0" mediaItemType="2" />
    <MediaItem id="763" filePath="C:\Users\owner\Dropbox\Work\png\animation T=1.00763.png" arWidth="640" arHeight="480" duration="0" songTitle="" songArtist="" songAlbum="" songCopyrightUrl="" songArtistUrl="" songAudioFileUrl="" stabilizationMode="0" mediaItemType="2" />
    <MediaItem id="5931" filePath="C:\Users\owner\Dropbox\Work\png\animation T=1.05931.png" arWidth="640" arHeight="480" duration="0" songTitle="" songArtist="" songAlbum="" songCopyrightUrl="" songArtistUrl="" songAudioFileUrl="" stabilizationMode="0" mediaItemType="2" />
    <MediaItem id="764" filePath="C:\Users\owner\Dropbox\Work\png\animation T=1.00764.png" arWidth="640" arHeight="480" duration="0" songTitle="" songArtist="" songAlbum="" songCopyrightUrl="" songArtistUrl="" songAudioFileUrl="" stabilizationMode="0" mediaItemType="2" />
    <MediaItem id="5932" filePath="C:\Users\owner\Dropbox\Work\png\animation T=1.05932.png" arWidth="640" arHeight="480" duration="0" songTitle="" songArtist="" songAlbum="" songCopyrightUrl="" songArtistUrl="" songAudioFileUrl="" stabilizationMode="0" mediaItemType="2" />
    <MediaItem id="765" filePath="C:\Users\owner\Dropbox\Work\png\animation T=1.00765.png" arWidth="640" arHeight="480" duration="0" songTitle="" songArtist="" songAlbum="" songCopyrightUrl="" songArtistUrl="" songAudioFileUrl="" stabilizationMode="0" mediaItemType="2" />
    <MediaItem id="5933" filePath="C:\Users\owner\Dropbox\Work\png\animation T=1.05933.png" arWidth="640" arHeight="480" duration="0" songTitle="" songArtist="" songAlbum="" songCopyrightUrl="" songArtistUrl="" songAudioFileUrl="" stabilizationMode="0" mediaItemType="2" />
    <MediaItem id="766" filePath="C:\Users\owner\Dropbox\Work\png\animation T=1.00766.png" arWidth="640" arHeight="480" duration="0" songTitle="" songArtist="" songAlbum="" songCopyrightUrl="" songArtistUrl="" songAudioFileUrl="" stabilizationMode="0" mediaItemType="2" />
    <MediaItem id="5934" filePath="C:\Users\owner\Dropbox\Work\png\animation T=1.05934.png" arWidth="640" arHeight="480" duration="0" songTitle="" songArtist="" songAlbum="" songCopyrightUrl="" songArtistUrl="" songAudioFileUrl="" stabilizationMode="0" mediaItemType="2" />
    <MediaItem id="767" filePath="C:\Users\owner\Dropbox\Work\png\animation T=1.00767.png" arWidth="640" arHeight="480" duration="0" songTitle="" songArtist="" songAlbum="" songCopyrightUrl="" songArtistUrl="" songAudioFileUrl="" stabilizationMode="0" mediaItemType="2" />
    <MediaItem id="5935" filePath="C:\Users\owner\Dropbox\Work\png\animation T=1.05935.png" arWidth="640" arHeight="480" duration="0" songTitle="" songArtist="" songAlbum="" songCopyrightUrl="" songArtistUrl="" songAudioFileUrl="" stabilizationMode="0" mediaItemType="2" />
    <MediaItem id="768" filePath="C:\Users\owner\Dropbox\Work\png\animation T=1.00768.png" arWidth="640" arHeight="480" duration="0" songTitle="" songArtist="" songAlbum="" songCopyrightUrl="" songArtistUrl="" songAudioFileUrl="" stabilizationMode="0" mediaItemType="2" />
    <MediaItem id="5936" filePath="C:\Users\owner\Dropbox\Work\png\animation T=1.05936.png" arWidth="640" arHeight="480" duration="0" songTitle="" songArtist="" songAlbum="" songCopyrightUrl="" songArtistUrl="" songAudioFileUrl="" stabilizationMode="0" mediaItemType="2" />
    <MediaItem id="769" filePath="C:\Users\owner\Dropbox\Work\png\animation T=1.00769.png" arWidth="640" arHeight="480" duration="0" songTitle="" songArtist="" songAlbum="" songCopyrightUrl="" songArtistUrl="" songAudioFileUrl="" stabilizationMode="0" mediaItemType="2" />
    <MediaItem id="5937" filePath="C:\Users\owner\Dropbox\Work\png\animation T=1.05937.png" arWidth="640" arHeight="480" duration="0" songTitle="" songArtist="" songAlbum="" songCopyrightUrl="" songArtistUrl="" songAudioFileUrl="" stabilizationMode="0" mediaItemType="2" />
    <MediaItem id="770" filePath="C:\Users\owner\Dropbox\Work\png\animation T=1.00770.png" arWidth="640" arHeight="480" duration="0" songTitle="" songArtist="" songAlbum="" songCopyrightUrl="" songArtistUrl="" songAudioFileUrl="" stabilizationMode="0" mediaItemType="2" />
    <MediaItem id="5938" filePath="C:\Users\owner\Dropbox\Work\png\animation T=1.05938.png" arWidth="640" arHeight="480" duration="0" songTitle="" songArtist="" songAlbum="" songCopyrightUrl="" songArtistUrl="" songAudioFileUrl="" stabilizationMode="0" mediaItemType="2" />
    <MediaItem id="771" filePath="C:\Users\owner\Dropbox\Work\png\animation T=1.00771.png" arWidth="640" arHeight="480" duration="0" songTitle="" songArtist="" songAlbum="" songCopyrightUrl="" songArtistUrl="" songAudioFileUrl="" stabilizationMode="0" mediaItemType="2" />
    <MediaItem id="5939" filePath="C:\Users\owner\Dropbox\Work\png\animation T=1.05939.png" arWidth="640" arHeight="480" duration="0" songTitle="" songArtist="" songAlbum="" songCopyrightUrl="" songArtistUrl="" songAudioFileUrl="" stabilizationMode="0" mediaItemType="2" />
    <MediaItem id="772" filePath="C:\Users\owner\Dropbox\Work\png\animation T=1.00772.png" arWidth="640" arHeight="480" duration="0" songTitle="" songArtist="" songAlbum="" songCopyrightUrl="" songArtistUrl="" songAudioFileUrl="" stabilizationMode="0" mediaItemType="2" />
    <MediaItem id="5940" filePath="C:\Users\owner\Dropbox\Work\png\animation T=1.05940.png" arWidth="640" arHeight="480" duration="0" songTitle="" songArtist="" songAlbum="" songCopyrightUrl="" songArtistUrl="" songAudioFileUrl="" stabilizationMode="0" mediaItemType="2" />
    <MediaItem id="773" filePath="C:\Users\owner\Dropbox\Work\png\animation T=1.00773.png" arWidth="640" arHeight="480" duration="0" songTitle="" songArtist="" songAlbum="" songCopyrightUrl="" songArtistUrl="" songAudioFileUrl="" stabilizationMode="0" mediaItemType="2" />
    <MediaItem id="5941" filePath="C:\Users\owner\Dropbox\Work\png\animation T=1.05941.png" arWidth="640" arHeight="480" duration="0" songTitle="" songArtist="" songAlbum="" songCopyrightUrl="" songArtistUrl="" songAudioFileUrl="" stabilizationMode="0" mediaItemType="2" />
    <MediaItem id="774" filePath="C:\Users\owner\Dropbox\Work\png\animation T=1.00774.png" arWidth="640" arHeight="480" duration="0" songTitle="" songArtist="" songAlbum="" songCopyrightUrl="" songArtistUrl="" songAudioFileUrl="" stabilizationMode="0" mediaItemType="2" />
    <MediaItem id="5942" filePath="C:\Users\owner\Dropbox\Work\png\animation T=1.05942.png" arWidth="640" arHeight="480" duration="0" songTitle="" songArtist="" songAlbum="" songCopyrightUrl="" songArtistUrl="" songAudioFileUrl="" stabilizationMode="0" mediaItemType="2" />
    <MediaItem id="775" filePath="C:\Users\owner\Dropbox\Work\png\animation T=1.00775.png" arWidth="640" arHeight="480" duration="0" songTitle="" songArtist="" songAlbum="" songCopyrightUrl="" songArtistUrl="" songAudioFileUrl="" stabilizationMode="0" mediaItemType="2" />
    <MediaItem id="5943" filePath="C:\Users\owner\Dropbox\Work\png\animation T=1.05943.png" arWidth="640" arHeight="480" duration="0" songTitle="" songArtist="" songAlbum="" songCopyrightUrl="" songArtistUrl="" songAudioFileUrl="" stabilizationMode="0" mediaItemType="2" />
    <MediaItem id="776" filePath="C:\Users\owner\Dropbox\Work\png\animation T=1.00776.png" arWidth="640" arHeight="480" duration="0" songTitle="" songArtist="" songAlbum="" songCopyrightUrl="" songArtistUrl="" songAudioFileUrl="" stabilizationMode="0" mediaItemType="2" />
    <MediaItem id="5944" filePath="C:\Users\owner\Dropbox\Work\png\animation T=1.05944.png" arWidth="640" arHeight="480" duration="0" songTitle="" songArtist="" songAlbum="" songCopyrightUrl="" songArtistUrl="" songAudioFileUrl="" stabilizationMode="0" mediaItemType="2" />
    <MediaItem id="777" filePath="C:\Users\owner\Dropbox\Work\png\animation T=1.00777.png" arWidth="640" arHeight="480" duration="0" songTitle="" songArtist="" songAlbum="" songCopyrightUrl="" songArtistUrl="" songAudioFileUrl="" stabilizationMode="0" mediaItemType="2" />
    <MediaItem id="5945" filePath="C:\Users\owner\Dropbox\Work\png\animation T=1.05945.png" arWidth="640" arHeight="480" duration="0" songTitle="" songArtist="" songAlbum="" songCopyrightUrl="" songArtistUrl="" songAudioFileUrl="" stabilizationMode="0" mediaItemType="2" />
    <MediaItem id="778" filePath="C:\Users\owner\Dropbox\Work\png\animation T=1.00778.png" arWidth="640" arHeight="480" duration="0" songTitle="" songArtist="" songAlbum="" songCopyrightUrl="" songArtistUrl="" songAudioFileUrl="" stabilizationMode="0" mediaItemType="2" />
    <MediaItem id="5946" filePath="C:\Users\owner\Dropbox\Work\png\animation T=1.05946.png" arWidth="640" arHeight="480" duration="0" songTitle="" songArtist="" songAlbum="" songCopyrightUrl="" songArtistUrl="" songAudioFileUrl="" stabilizationMode="0" mediaItemType="2" />
    <MediaItem id="779" filePath="C:\Users\owner\Dropbox\Work\png\animation T=1.00779.png" arWidth="640" arHeight="480" duration="0" songTitle="" songArtist="" songAlbum="" songCopyrightUrl="" songArtistUrl="" songAudioFileUrl="" stabilizationMode="0" mediaItemType="2" />
    <MediaItem id="5947" filePath="C:\Users\owner\Dropbox\Work\png\animation T=1.05947.png" arWidth="640" arHeight="480" duration="0" songTitle="" songArtist="" songAlbum="" songCopyrightUrl="" songArtistUrl="" songAudioFileUrl="" stabilizationMode="0" mediaItemType="2" />
    <MediaItem id="780" filePath="C:\Users\owner\Dropbox\Work\png\animation T=1.00780.png" arWidth="640" arHeight="480" duration="0" songTitle="" songArtist="" songAlbum="" songCopyrightUrl="" songArtistUrl="" songAudioFileUrl="" stabilizationMode="0" mediaItemType="2" />
    <MediaItem id="5948" filePath="C:\Users\owner\Dropbox\Work\png\animation T=1.05948.png" arWidth="640" arHeight="480" duration="0" songTitle="" songArtist="" songAlbum="" songCopyrightUrl="" songArtistUrl="" songAudioFileUrl="" stabilizationMode="0" mediaItemType="2" />
    <MediaItem id="781" filePath="C:\Users\owner\Dropbox\Work\png\animation T=1.00781.png" arWidth="640" arHeight="480" duration="0" songTitle="" songArtist="" songAlbum="" songCopyrightUrl="" songArtistUrl="" songAudioFileUrl="" stabilizationMode="0" mediaItemType="2" />
    <MediaItem id="5949" filePath="C:\Users\owner\Dropbox\Work\png\animation T=1.05949.png" arWidth="640" arHeight="480" duration="0" songTitle="" songArtist="" songAlbum="" songCopyrightUrl="" songArtistUrl="" songAudioFileUrl="" stabilizationMode="0" mediaItemType="2" />
    <MediaItem id="782" filePath="C:\Users\owner\Dropbox\Work\png\animation T=1.00782.png" arWidth="640" arHeight="480" duration="0" songTitle="" songArtist="" songAlbum="" songCopyrightUrl="" songArtistUrl="" songAudioFileUrl="" stabilizationMode="0" mediaItemType="2" />
    <MediaItem id="5950" filePath="C:\Users\owner\Dropbox\Work\png\animation T=1.05950.png" arWidth="640" arHeight="480" duration="0" songTitle="" songArtist="" songAlbum="" songCopyrightUrl="" songArtistUrl="" songAudioFileUrl="" stabilizationMode="0" mediaItemType="2" />
    <MediaItem id="783" filePath="C:\Users\owner\Dropbox\Work\png\animation T=1.00783.png" arWidth="640" arHeight="480" duration="0" songTitle="" songArtist="" songAlbum="" songCopyrightUrl="" songArtistUrl="" songAudioFileUrl="" stabilizationMode="0" mediaItemType="2" />
    <MediaItem id="5951" filePath="C:\Users\owner\Dropbox\Work\png\animation T=1.05951.png" arWidth="640" arHeight="480" duration="0" songTitle="" songArtist="" songAlbum="" songCopyrightUrl="" songArtistUrl="" songAudioFileUrl="" stabilizationMode="0" mediaItemType="2" />
    <MediaItem id="784" filePath="C:\Users\owner\Dropbox\Work\png\animation T=1.00784.png" arWidth="640" arHeight="480" duration="0" songTitle="" songArtist="" songAlbum="" songCopyrightUrl="" songArtistUrl="" songAudioFileUrl="" stabilizationMode="0" mediaItemType="2" />
    <MediaItem id="5952" filePath="C:\Users\owner\Dropbox\Work\png\animation T=1.05952.png" arWidth="640" arHeight="480" duration="0" songTitle="" songArtist="" songAlbum="" songCopyrightUrl="" songArtistUrl="" songAudioFileUrl="" stabilizationMode="0" mediaItemType="2" />
    <MediaItem id="785" filePath="C:\Users\owner\Dropbox\Work\png\animation T=1.00785.png" arWidth="640" arHeight="480" duration="0" songTitle="" songArtist="" songAlbum="" songCopyrightUrl="" songArtistUrl="" songAudioFileUrl="" stabilizationMode="0" mediaItemType="2" />
    <MediaItem id="5953" filePath="C:\Users\owner\Dropbox\Work\png\animation T=1.05953.png" arWidth="640" arHeight="480" duration="0" songTitle="" songArtist="" songAlbum="" songCopyrightUrl="" songArtistUrl="" songAudioFileUrl="" stabilizationMode="0" mediaItemType="2" />
    <MediaItem id="786" filePath="C:\Users\owner\Dropbox\Work\png\animation T=1.00786.png" arWidth="640" arHeight="480" duration="0" songTitle="" songArtist="" songAlbum="" songCopyrightUrl="" songArtistUrl="" songAudioFileUrl="" stabilizationMode="0" mediaItemType="2" />
    <MediaItem id="5954" filePath="C:\Users\owner\Dropbox\Work\png\animation T=1.05954.png" arWidth="640" arHeight="480" duration="0" songTitle="" songArtist="" songAlbum="" songCopyrightUrl="" songArtistUrl="" songAudioFileUrl="" stabilizationMode="0" mediaItemType="2" />
    <MediaItem id="787" filePath="C:\Users\owner\Dropbox\Work\png\animation T=1.00787.png" arWidth="640" arHeight="480" duration="0" songTitle="" songArtist="" songAlbum="" songCopyrightUrl="" songArtistUrl="" songAudioFileUrl="" stabilizationMode="0" mediaItemType="2" />
    <MediaItem id="5955" filePath="C:\Users\owner\Dropbox\Work\png\animation T=1.05955.png" arWidth="640" arHeight="480" duration="0" songTitle="" songArtist="" songAlbum="" songCopyrightUrl="" songArtistUrl="" songAudioFileUrl="" stabilizationMode="0" mediaItemType="2" />
    <MediaItem id="788" filePath="C:\Users\owner\Dropbox\Work\png\animation T=1.00788.png" arWidth="640" arHeight="480" duration="0" songTitle="" songArtist="" songAlbum="" songCopyrightUrl="" songArtistUrl="" songAudioFileUrl="" stabilizationMode="0" mediaItemType="2" />
    <MediaItem id="5956" filePath="C:\Users\owner\Dropbox\Work\png\animation T=1.05956.png" arWidth="640" arHeight="480" duration="0" songTitle="" songArtist="" songAlbum="" songCopyrightUrl="" songArtistUrl="" songAudioFileUrl="" stabilizationMode="0" mediaItemType="2" />
    <MediaItem id="789" filePath="C:\Users\owner\Dropbox\Work\png\animation T=1.00789.png" arWidth="640" arHeight="480" duration="0" songTitle="" songArtist="" songAlbum="" songCopyrightUrl="" songArtistUrl="" songAudioFileUrl="" stabilizationMode="0" mediaItemType="2" />
    <MediaItem id="5957" filePath="C:\Users\owner\Dropbox\Work\png\animation T=1.05957.png" arWidth="640" arHeight="480" duration="0" songTitle="" songArtist="" songAlbum="" songCopyrightUrl="" songArtistUrl="" songAudioFileUrl="" stabilizationMode="0" mediaItemType="2" />
    <MediaItem id="790" filePath="C:\Users\owner\Dropbox\Work\png\animation T=1.00790.png" arWidth="640" arHeight="480" duration="0" songTitle="" songArtist="" songAlbum="" songCopyrightUrl="" songArtistUrl="" songAudioFileUrl="" stabilizationMode="0" mediaItemType="2" />
    <MediaItem id="5958" filePath="C:\Users\owner\Dropbox\Work\png\animation T=1.05958.png" arWidth="640" arHeight="480" duration="0" songTitle="" songArtist="" songAlbum="" songCopyrightUrl="" songArtistUrl="" songAudioFileUrl="" stabilizationMode="0" mediaItemType="2" />
    <MediaItem id="791" filePath="C:\Users\owner\Dropbox\Work\png\animation T=1.00791.png" arWidth="640" arHeight="480" duration="0" songTitle="" songArtist="" songAlbum="" songCopyrightUrl="" songArtistUrl="" songAudioFileUrl="" stabilizationMode="0" mediaItemType="2" />
    <MediaItem id="5959" filePath="C:\Users\owner\Dropbox\Work\png\animation T=1.05959.png" arWidth="640" arHeight="480" duration="0" songTitle="" songArtist="" songAlbum="" songCopyrightUrl="" songArtistUrl="" songAudioFileUrl="" stabilizationMode="0" mediaItemType="2" />
    <MediaItem id="792" filePath="C:\Users\owner\Dropbox\Work\png\animation T=1.00792.png" arWidth="640" arHeight="480" duration="0" songTitle="" songArtist="" songAlbum="" songCopyrightUrl="" songArtistUrl="" songAudioFileUrl="" stabilizationMode="0" mediaItemType="2" />
    <MediaItem id="5960" filePath="C:\Users\owner\Dropbox\Work\png\animation T=1.05960.png" arWidth="640" arHeight="480" duration="0" songTitle="" songArtist="" songAlbum="" songCopyrightUrl="" songArtistUrl="" songAudioFileUrl="" stabilizationMode="0" mediaItemType="2" />
    <MediaItem id="793" filePath="C:\Users\owner\Dropbox\Work\png\animation T=1.00793.png" arWidth="640" arHeight="480" duration="0" songTitle="" songArtist="" songAlbum="" songCopyrightUrl="" songArtistUrl="" songAudioFileUrl="" stabilizationMode="0" mediaItemType="2" />
    <MediaItem id="5961" filePath="C:\Users\owner\Dropbox\Work\png\animation T=1.05961.png" arWidth="640" arHeight="480" duration="0" songTitle="" songArtist="" songAlbum="" songCopyrightUrl="" songArtistUrl="" songAudioFileUrl="" stabilizationMode="0" mediaItemType="2" />
    <MediaItem id="794" filePath="C:\Users\owner\Dropbox\Work\png\animation T=1.00794.png" arWidth="640" arHeight="480" duration="0" songTitle="" songArtist="" songAlbum="" songCopyrightUrl="" songArtistUrl="" songAudioFileUrl="" stabilizationMode="0" mediaItemType="2" />
    <MediaItem id="5962" filePath="C:\Users\owner\Dropbox\Work\png\animation T=1.05962.png" arWidth="640" arHeight="480" duration="0" songTitle="" songArtist="" songAlbum="" songCopyrightUrl="" songArtistUrl="" songAudioFileUrl="" stabilizationMode="0" mediaItemType="2" />
    <MediaItem id="795" filePath="C:\Users\owner\Dropbox\Work\png\animation T=1.00795.png" arWidth="640" arHeight="480" duration="0" songTitle="" songArtist="" songAlbum="" songCopyrightUrl="" songArtistUrl="" songAudioFileUrl="" stabilizationMode="0" mediaItemType="2" />
    <MediaItem id="5963" filePath="C:\Users\owner\Dropbox\Work\png\animation T=1.05963.png" arWidth="640" arHeight="480" duration="0" songTitle="" songArtist="" songAlbum="" songCopyrightUrl="" songArtistUrl="" songAudioFileUrl="" stabilizationMode="0" mediaItemType="2" />
    <MediaItem id="796" filePath="C:\Users\owner\Dropbox\Work\png\animation T=1.00796.png" arWidth="640" arHeight="480" duration="0" songTitle="" songArtist="" songAlbum="" songCopyrightUrl="" songArtistUrl="" songAudioFileUrl="" stabilizationMode="0" mediaItemType="2" />
    <MediaItem id="5964" filePath="C:\Users\owner\Dropbox\Work\png\animation T=1.05964.png" arWidth="640" arHeight="480" duration="0" songTitle="" songArtist="" songAlbum="" songCopyrightUrl="" songArtistUrl="" songAudioFileUrl="" stabilizationMode="0" mediaItemType="2" />
    <MediaItem id="797" filePath="C:\Users\owner\Dropbox\Work\png\animation T=1.00797.png" arWidth="640" arHeight="480" duration="0" songTitle="" songArtist="" songAlbum="" songCopyrightUrl="" songArtistUrl="" songAudioFileUrl="" stabilizationMode="0" mediaItemType="2" />
    <MediaItem id="5965" filePath="C:\Users\owner\Dropbox\Work\png\animation T=1.05965.png" arWidth="640" arHeight="480" duration="0" songTitle="" songArtist="" songAlbum="" songCopyrightUrl="" songArtistUrl="" songAudioFileUrl="" stabilizationMode="0" mediaItemType="2" />
    <MediaItem id="798" filePath="C:\Users\owner\Dropbox\Work\png\animation T=1.00798.png" arWidth="640" arHeight="480" duration="0" songTitle="" songArtist="" songAlbum="" songCopyrightUrl="" songArtistUrl="" songAudioFileUrl="" stabilizationMode="0" mediaItemType="2" />
    <MediaItem id="5966" filePath="C:\Users\owner\Dropbox\Work\png\animation T=1.05966.png" arWidth="640" arHeight="480" duration="0" songTitle="" songArtist="" songAlbum="" songCopyrightUrl="" songArtistUrl="" songAudioFileUrl="" stabilizationMode="0" mediaItemType="2" />
    <MediaItem id="799" filePath="C:\Users\owner\Dropbox\Work\png\animation T=1.00799.png" arWidth="640" arHeight="480" duration="0" songTitle="" songArtist="" songAlbum="" songCopyrightUrl="" songArtistUrl="" songAudioFileUrl="" stabilizationMode="0" mediaItemType="2" />
    <MediaItem id="5967" filePath="C:\Users\owner\Dropbox\Work\png\animation T=1.05967.png" arWidth="640" arHeight="480" duration="0" songTitle="" songArtist="" songAlbum="" songCopyrightUrl="" songArtistUrl="" songAudioFileUrl="" stabilizationMode="0" mediaItemType="2" />
    <MediaItem id="800" filePath="C:\Users\owner\Dropbox\Work\png\animation T=1.00800.png" arWidth="640" arHeight="480" duration="0" songTitle="" songArtist="" songAlbum="" songCopyrightUrl="" songArtistUrl="" songAudioFileUrl="" stabilizationMode="0" mediaItemType="2" />
    <MediaItem id="5968" filePath="C:\Users\owner\Dropbox\Work\png\animation T=1.05968.png" arWidth="640" arHeight="480" duration="0" songTitle="" songArtist="" songAlbum="" songCopyrightUrl="" songArtistUrl="" songAudioFileUrl="" stabilizationMode="0" mediaItemType="2" />
    <MediaItem id="801" filePath="C:\Users\owner\Dropbox\Work\png\animation T=1.00801.png" arWidth="640" arHeight="480" duration="0" songTitle="" songArtist="" songAlbum="" songCopyrightUrl="" songArtistUrl="" songAudioFileUrl="" stabilizationMode="0" mediaItemType="2" />
    <MediaItem id="5969" filePath="C:\Users\owner\Dropbox\Work\png\animation T=1.05969.png" arWidth="640" arHeight="480" duration="0" songTitle="" songArtist="" songAlbum="" songCopyrightUrl="" songArtistUrl="" songAudioFileUrl="" stabilizationMode="0" mediaItemType="2" />
    <MediaItem id="802" filePath="C:\Users\owner\Dropbox\Work\png\animation T=1.00802.png" arWidth="640" arHeight="480" duration="0" songTitle="" songArtist="" songAlbum="" songCopyrightUrl="" songArtistUrl="" songAudioFileUrl="" stabilizationMode="0" mediaItemType="2" />
    <MediaItem id="5970" filePath="C:\Users\owner\Dropbox\Work\png\animation T=1.05970.png" arWidth="640" arHeight="480" duration="0" songTitle="" songArtist="" songAlbum="" songCopyrightUrl="" songArtistUrl="" songAudioFileUrl="" stabilizationMode="0" mediaItemType="2" />
    <MediaItem id="803" filePath="C:\Users\owner\Dropbox\Work\png\animation T=1.00803.png" arWidth="640" arHeight="480" duration="0" songTitle="" songArtist="" songAlbum="" songCopyrightUrl="" songArtistUrl="" songAudioFileUrl="" stabilizationMode="0" mediaItemType="2" />
    <MediaItem id="5971" filePath="C:\Users\owner\Dropbox\Work\png\animation T=1.05971.png" arWidth="640" arHeight="480" duration="0" songTitle="" songArtist="" songAlbum="" songCopyrightUrl="" songArtistUrl="" songAudioFileUrl="" stabilizationMode="0" mediaItemType="2" />
    <MediaItem id="804" filePath="C:\Users\owner\Dropbox\Work\png\animation T=1.00804.png" arWidth="640" arHeight="480" duration="0" songTitle="" songArtist="" songAlbum="" songCopyrightUrl="" songArtistUrl="" songAudioFileUrl="" stabilizationMode="0" mediaItemType="2" />
    <MediaItem id="5972" filePath="C:\Users\owner\Dropbox\Work\png\animation T=1.05972.png" arWidth="640" arHeight="480" duration="0" songTitle="" songArtist="" songAlbum="" songCopyrightUrl="" songArtistUrl="" songAudioFileUrl="" stabilizationMode="0" mediaItemType="2" />
    <MediaItem id="805" filePath="C:\Users\owner\Dropbox\Work\png\animation T=1.00805.png" arWidth="640" arHeight="480" duration="0" songTitle="" songArtist="" songAlbum="" songCopyrightUrl="" songArtistUrl="" songAudioFileUrl="" stabilizationMode="0" mediaItemType="2" />
    <MediaItem id="5973" filePath="C:\Users\owner\Dropbox\Work\png\animation T=1.05973.png" arWidth="640" arHeight="480" duration="0" songTitle="" songArtist="" songAlbum="" songCopyrightUrl="" songArtistUrl="" songAudioFileUrl="" stabilizationMode="0" mediaItemType="2" />
    <MediaItem id="806" filePath="C:\Users\owner\Dropbox\Work\png\animation T=1.00806.png" arWidth="640" arHeight="480" duration="0" songTitle="" songArtist="" songAlbum="" songCopyrightUrl="" songArtistUrl="" songAudioFileUrl="" stabilizationMode="0" mediaItemType="2" />
    <MediaItem id="5974" filePath="C:\Users\owner\Dropbox\Work\png\animation T=1.05974.png" arWidth="640" arHeight="480" duration="0" songTitle="" songArtist="" songAlbum="" songCopyrightUrl="" songArtistUrl="" songAudioFileUrl="" stabilizationMode="0" mediaItemType="2" />
    <MediaItem id="807" filePath="C:\Users\owner\Dropbox\Work\png\animation T=1.00807.png" arWidth="640" arHeight="480" duration="0" songTitle="" songArtist="" songAlbum="" songCopyrightUrl="" songArtistUrl="" songAudioFileUrl="" stabilizationMode="0" mediaItemType="2" />
    <MediaItem id="5975" filePath="C:\Users\owner\Dropbox\Work\png\animation T=1.05975.png" arWidth="640" arHeight="480" duration="0" songTitle="" songArtist="" songAlbum="" songCopyrightUrl="" songArtistUrl="" songAudioFileUrl="" stabilizationMode="0" mediaItemType="2" />
    <MediaItem id="808" filePath="C:\Users\owner\Dropbox\Work\png\animation T=1.00808.png" arWidth="640" arHeight="480" duration="0" songTitle="" songArtist="" songAlbum="" songCopyrightUrl="" songArtistUrl="" songAudioFileUrl="" stabilizationMode="0" mediaItemType="2" />
    <MediaItem id="5976" filePath="C:\Users\owner\Dropbox\Work\png\animation T=1.05976.png" arWidth="640" arHeight="480" duration="0" songTitle="" songArtist="" songAlbum="" songCopyrightUrl="" songArtistUrl="" songAudioFileUrl="" stabilizationMode="0" mediaItemType="2" />
    <MediaItem id="809" filePath="C:\Users\owner\Dropbox\Work\png\animation T=1.00809.png" arWidth="640" arHeight="480" duration="0" songTitle="" songArtist="" songAlbum="" songCopyrightUrl="" songArtistUrl="" songAudioFileUrl="" stabilizationMode="0" mediaItemType="2" />
    <MediaItem id="5977" filePath="C:\Users\owner\Dropbox\Work\png\animation T=1.05977.png" arWidth="640" arHeight="480" duration="0" songTitle="" songArtist="" songAlbum="" songCopyrightUrl="" songArtistUrl="" songAudioFileUrl="" stabilizationMode="0" mediaItemType="2" />
    <MediaItem id="810" filePath="C:\Users\owner\Dropbox\Work\png\animation T=1.00810.png" arWidth="640" arHeight="480" duration="0" songTitle="" songArtist="" songAlbum="" songCopyrightUrl="" songArtistUrl="" songAudioFileUrl="" stabilizationMode="0" mediaItemType="2" />
    <MediaItem id="5978" filePath="C:\Users\owner\Dropbox\Work\png\animation T=1.05978.png" arWidth="640" arHeight="480" duration="0" songTitle="" songArtist="" songAlbum="" songCopyrightUrl="" songArtistUrl="" songAudioFileUrl="" stabilizationMode="0" mediaItemType="2" />
    <MediaItem id="811" filePath="C:\Users\owner\Dropbox\Work\png\animation T=1.00811.png" arWidth="640" arHeight="480" duration="0" songTitle="" songArtist="" songAlbum="" songCopyrightUrl="" songArtistUrl="" songAudioFileUrl="" stabilizationMode="0" mediaItemType="2" />
    <MediaItem id="5979" filePath="C:\Users\owner\Dropbox\Work\png\animation T=1.05979.png" arWidth="640" arHeight="480" duration="0" songTitle="" songArtist="" songAlbum="" songCopyrightUrl="" songArtistUrl="" songAudioFileUrl="" stabilizationMode="0" mediaItemType="2" />
    <MediaItem id="812" filePath="C:\Users\owner\Dropbox\Work\png\animation T=1.00812.png" arWidth="640" arHeight="480" duration="0" songTitle="" songArtist="" songAlbum="" songCopyrightUrl="" songArtistUrl="" songAudioFileUrl="" stabilizationMode="0" mediaItemType="2" />
    <MediaItem id="5980" filePath="C:\Users\owner\Dropbox\Work\png\animation T=1.05980.png" arWidth="640" arHeight="480" duration="0" songTitle="" songArtist="" songAlbum="" songCopyrightUrl="" songArtistUrl="" songAudioFileUrl="" stabilizationMode="0" mediaItemType="2" />
    <MediaItem id="813" filePath="C:\Users\owner\Dropbox\Work\png\animation T=1.00813.png" arWidth="640" arHeight="480" duration="0" songTitle="" songArtist="" songAlbum="" songCopyrightUrl="" songArtistUrl="" songAudioFileUrl="" stabilizationMode="0" mediaItemType="2" />
    <MediaItem id="5981" filePath="C:\Users\owner\Dropbox\Work\png\animation T=1.05981.png" arWidth="640" arHeight="480" duration="0" songTitle="" songArtist="" songAlbum="" songCopyrightUrl="" songArtistUrl="" songAudioFileUrl="" stabilizationMode="0" mediaItemType="2" />
    <MediaItem id="814" filePath="C:\Users\owner\Dropbox\Work\png\animation T=1.00814.png" arWidth="640" arHeight="480" duration="0" songTitle="" songArtist="" songAlbum="" songCopyrightUrl="" songArtistUrl="" songAudioFileUrl="" stabilizationMode="0" mediaItemType="2" />
    <MediaItem id="5982" filePath="C:\Users\owner\Dropbox\Work\png\animation T=1.05982.png" arWidth="640" arHeight="480" duration="0" songTitle="" songArtist="" songAlbum="" songCopyrightUrl="" songArtistUrl="" songAudioFileUrl="" stabilizationMode="0" mediaItemType="2" />
    <MediaItem id="815" filePath="C:\Users\owner\Dropbox\Work\png\animation T=1.00815.png" arWidth="640" arHeight="480" duration="0" songTitle="" songArtist="" songAlbum="" songCopyrightUrl="" songArtistUrl="" songAudioFileUrl="" stabilizationMode="0" mediaItemType="2" />
    <MediaItem id="5983" filePath="C:\Users\owner\Dropbox\Work\png\animation T=1.05983.png" arWidth="640" arHeight="480" duration="0" songTitle="" songArtist="" songAlbum="" songCopyrightUrl="" songArtistUrl="" songAudioFileUrl="" stabilizationMode="0" mediaItemType="2" />
    <MediaItem id="816" filePath="C:\Users\owner\Dropbox\Work\png\animation T=1.00816.png" arWidth="640" arHeight="480" duration="0" songTitle="" songArtist="" songAlbum="" songCopyrightUrl="" songArtistUrl="" songAudioFileUrl="" stabilizationMode="0" mediaItemType="2" />
    <MediaItem id="5984" filePath="C:\Users\owner\Dropbox\Work\png\animation T=1.05984.png" arWidth="640" arHeight="480" duration="0" songTitle="" songArtist="" songAlbum="" songCopyrightUrl="" songArtistUrl="" songAudioFileUrl="" stabilizationMode="0" mediaItemType="2" />
    <MediaItem id="817" filePath="C:\Users\owner\Dropbox\Work\png\animation T=1.00817.png" arWidth="640" arHeight="480" duration="0" songTitle="" songArtist="" songAlbum="" songCopyrightUrl="" songArtistUrl="" songAudioFileUrl="" stabilizationMode="0" mediaItemType="2" />
    <MediaItem id="5985" filePath="C:\Users\owner\Dropbox\Work\png\animation T=1.05985.png" arWidth="640" arHeight="480" duration="0" songTitle="" songArtist="" songAlbum="" songCopyrightUrl="" songArtistUrl="" songAudioFileUrl="" stabilizationMode="0" mediaItemType="2" />
    <MediaItem id="818" filePath="C:\Users\owner\Dropbox\Work\png\animation T=1.00818.png" arWidth="640" arHeight="480" duration="0" songTitle="" songArtist="" songAlbum="" songCopyrightUrl="" songArtistUrl="" songAudioFileUrl="" stabilizationMode="0" mediaItemType="2" />
    <MediaItem id="5986" filePath="C:\Users\owner\Dropbox\Work\png\animation T=1.05986.png" arWidth="640" arHeight="480" duration="0" songTitle="" songArtist="" songAlbum="" songCopyrightUrl="" songArtistUrl="" songAudioFileUrl="" stabilizationMode="0" mediaItemType="2" />
    <MediaItem id="819" filePath="C:\Users\owner\Dropbox\Work\png\animation T=1.00819.png" arWidth="640" arHeight="480" duration="0" songTitle="" songArtist="" songAlbum="" songCopyrightUrl="" songArtistUrl="" songAudioFileUrl="" stabilizationMode="0" mediaItemType="2" />
    <MediaItem id="5987" filePath="C:\Users\owner\Dropbox\Work\png\animation T=1.05987.png" arWidth="640" arHeight="480" duration="0" songTitle="" songArtist="" songAlbum="" songCopyrightUrl="" songArtistUrl="" songAudioFileUrl="" stabilizationMode="0" mediaItemType="2" />
    <MediaItem id="820" filePath="C:\Users\owner\Dropbox\Work\png\animation T=1.00820.png" arWidth="640" arHeight="480" duration="0" songTitle="" songArtist="" songAlbum="" songCopyrightUrl="" songArtistUrl="" songAudioFileUrl="" stabilizationMode="0" mediaItemType="2" />
    <MediaItem id="5988" filePath="C:\Users\owner\Dropbox\Work\png\animation T=1.05988.png" arWidth="640" arHeight="480" duration="0" songTitle="" songArtist="" songAlbum="" songCopyrightUrl="" songArtistUrl="" songAudioFileUrl="" stabilizationMode="0" mediaItemType="2" />
    <MediaItem id="821" filePath="C:\Users\owner\Dropbox\Work\png\animation T=1.00821.png" arWidth="640" arHeight="480" duration="0" songTitle="" songArtist="" songAlbum="" songCopyrightUrl="" songArtistUrl="" songAudioFileUrl="" stabilizationMode="0" mediaItemType="2" />
    <MediaItem id="5989" filePath="C:\Users\owner\Dropbox\Work\png\animation T=1.05989.png" arWidth="640" arHeight="480" duration="0" songTitle="" songArtist="" songAlbum="" songCopyrightUrl="" songArtistUrl="" songAudioFileUrl="" stabilizationMode="0" mediaItemType="2" />
    <MediaItem id="822" filePath="C:\Users\owner\Dropbox\Work\png\animation T=1.00822.png" arWidth="640" arHeight="480" duration="0" songTitle="" songArtist="" songAlbum="" songCopyrightUrl="" songArtistUrl="" songAudioFileUrl="" stabilizationMode="0" mediaItemType="2" />
    <MediaItem id="5990" filePath="C:\Users\owner\Dropbox\Work\png\animation T=1.05990.png" arWidth="640" arHeight="480" duration="0" songTitle="" songArtist="" songAlbum="" songCopyrightUrl="" songArtistUrl="" songAudioFileUrl="" stabilizationMode="0" mediaItemType="2" />
    <MediaItem id="823" filePath="C:\Users\owner\Dropbox\Work\png\animation T=1.00823.png" arWidth="640" arHeight="480" duration="0" songTitle="" songArtist="" songAlbum="" songCopyrightUrl="" songArtistUrl="" songAudioFileUrl="" stabilizationMode="0" mediaItemType="2" />
    <MediaItem id="5991" filePath="C:\Users\owner\Dropbox\Work\png\animation T=1.05991.png" arWidth="640" arHeight="480" duration="0" songTitle="" songArtist="" songAlbum="" songCopyrightUrl="" songArtistUrl="" songAudioFileUrl="" stabilizationMode="0" mediaItemType="2" />
    <MediaItem id="824" filePath="C:\Users\owner\Dropbox\Work\png\animation T=1.00824.png" arWidth="640" arHeight="480" duration="0" songTitle="" songArtist="" songAlbum="" songCopyrightUrl="" songArtistUrl="" songAudioFileUrl="" stabilizationMode="0" mediaItemType="2" />
    <MediaItem id="5992" filePath="C:\Users\owner\Dropbox\Work\png\animation T=1.05992.png" arWidth="640" arHeight="480" duration="0" songTitle="" songArtist="" songAlbum="" songCopyrightUrl="" songArtistUrl="" songAudioFileUrl="" stabilizationMode="0" mediaItemType="2" />
    <MediaItem id="825" filePath="C:\Users\owner\Dropbox\Work\png\animation T=1.00825.png" arWidth="640" arHeight="480" duration="0" songTitle="" songArtist="" songAlbum="" songCopyrightUrl="" songArtistUrl="" songAudioFileUrl="" stabilizationMode="0" mediaItemType="2" />
    <MediaItem id="5993" filePath="C:\Users\owner\Dropbox\Work\png\animation T=1.05993.png" arWidth="640" arHeight="480" duration="0" songTitle="" songArtist="" songAlbum="" songCopyrightUrl="" songArtistUrl="" songAudioFileUrl="" stabilizationMode="0" mediaItemType="2" />
    <MediaItem id="826" filePath="C:\Users\owner\Dropbox\Work\png\animation T=1.00826.png" arWidth="640" arHeight="480" duration="0" songTitle="" songArtist="" songAlbum="" songCopyrightUrl="" songArtistUrl="" songAudioFileUrl="" stabilizationMode="0" mediaItemType="2" />
    <MediaItem id="5994" filePath="C:\Users\owner\Dropbox\Work\png\animation T=1.05994.png" arWidth="640" arHeight="480" duration="0" songTitle="" songArtist="" songAlbum="" songCopyrightUrl="" songArtistUrl="" songAudioFileUrl="" stabilizationMode="0" mediaItemType="2" />
    <MediaItem id="827" filePath="C:\Users\owner\Dropbox\Work\png\animation T=1.00827.png" arWidth="640" arHeight="480" duration="0" songTitle="" songArtist="" songAlbum="" songCopyrightUrl="" songArtistUrl="" songAudioFileUrl="" stabilizationMode="0" mediaItemType="2" />
    <MediaItem id="5995" filePath="C:\Users\owner\Dropbox\Work\png\animation T=1.05995.png" arWidth="640" arHeight="480" duration="0" songTitle="" songArtist="" songAlbum="" songCopyrightUrl="" songArtistUrl="" songAudioFileUrl="" stabilizationMode="0" mediaItemType="2" />
    <MediaItem id="828" filePath="C:\Users\owner\Dropbox\Work\png\animation T=1.00828.png" arWidth="640" arHeight="480" duration="0" songTitle="" songArtist="" songAlbum="" songCopyrightUrl="" songArtistUrl="" songAudioFileUrl="" stabilizationMode="0" mediaItemType="2" />
    <MediaItem id="5996" filePath="C:\Users\owner\Dropbox\Work\png\animation T=1.05996.png" arWidth="640" arHeight="480" duration="0" songTitle="" songArtist="" songAlbum="" songCopyrightUrl="" songArtistUrl="" songAudioFileUrl="" stabilizationMode="0" mediaItemType="2" />
    <MediaItem id="829" filePath="C:\Users\owner\Dropbox\Work\png\animation T=1.00829.png" arWidth="640" arHeight="480" duration="0" songTitle="" songArtist="" songAlbum="" songCopyrightUrl="" songArtistUrl="" songAudioFileUrl="" stabilizationMode="0" mediaItemType="2" />
    <MediaItem id="5997" filePath="C:\Users\owner\Dropbox\Work\png\animation T=1.05997.png" arWidth="640" arHeight="480" duration="0" songTitle="" songArtist="" songAlbum="" songCopyrightUrl="" songArtistUrl="" songAudioFileUrl="" stabilizationMode="0" mediaItemType="2" />
    <MediaItem id="830" filePath="C:\Users\owner\Dropbox\Work\png\animation T=1.00830.png" arWidth="640" arHeight="480" duration="0" songTitle="" songArtist="" songAlbum="" songCopyrightUrl="" songArtistUrl="" songAudioFileUrl="" stabilizationMode="0" mediaItemType="2" />
    <MediaItem id="5998" filePath="C:\Users\owner\Dropbox\Work\png\animation T=1.05998.png" arWidth="640" arHeight="480" duration="0" songTitle="" songArtist="" songAlbum="" songCopyrightUrl="" songArtistUrl="" songAudioFileUrl="" stabilizationMode="0" mediaItemType="2" />
    <MediaItem id="831" filePath="C:\Users\owner\Dropbox\Work\png\animation T=1.00831.png" arWidth="640" arHeight="480" duration="0" songTitle="" songArtist="" songAlbum="" songCopyrightUrl="" songArtistUrl="" songAudioFileUrl="" stabilizationMode="0" mediaItemType="2" />
    <MediaItem id="5999" filePath="C:\Users\owner\Dropbox\Work\png\animation T=1.05999.png" arWidth="640" arHeight="480" duration="0" songTitle="" songArtist="" songAlbum="" songCopyrightUrl="" songArtistUrl="" songAudioFileUrl="" stabilizationMode="0" mediaItemType="2" />
    <MediaItem id="832" filePath="C:\Users\owner\Dropbox\Work\png\animation T=1.00832.png" arWidth="640" arHeight="480" duration="0" songTitle="" songArtist="" songAlbum="" songCopyrightUrl="" songArtistUrl="" songAudioFileUrl="" stabilizationMode="0" mediaItemType="2" />
    <MediaItem id="6000" filePath="C:\Users\owner\Dropbox\Work\png\animation T=1.06000.png" arWidth="640" arHeight="480" duration="0" songTitle="" songArtist="" songAlbum="" songCopyrightUrl="" songArtistUrl="" songAudioFileUrl="" stabilizationMode="0" mediaItemType="2" />
    <MediaItem id="833" filePath="C:\Users\owner\Dropbox\Work\png\animation T=1.00833.png" arWidth="640" arHeight="480" duration="0" songTitle="" songArtist="" songAlbum="" songCopyrightUrl="" songArtistUrl="" songAudioFileUrl="" stabilizationMode="0" mediaItemType="2" />
    <MediaItem id="834" filePath="C:\Users\owner\Dropbox\Work\png\animation T=1.00834.png" arWidth="640" arHeight="480" duration="0" songTitle="" songArtist="" songAlbum="" songCopyrightUrl="" songArtistUrl="" songAudioFileUrl="" stabilizationMode="0" mediaItemType="2" />
    <MediaItem id="835" filePath="C:\Users\owner\Dropbox\Work\png\animation T=1.00835.png" arWidth="640" arHeight="480" duration="0" songTitle="" songArtist="" songAlbum="" songCopyrightUrl="" songArtistUrl="" songAudioFileUrl="" stabilizationMode="0" mediaItemType="2" />
    <MediaItem id="836" filePath="C:\Users\owner\Dropbox\Work\png\animation T=1.00836.png" arWidth="640" arHeight="480" duration="0" songTitle="" songArtist="" songAlbum="" songCopyrightUrl="" songArtistUrl="" songAudioFileUrl="" stabilizationMode="0" mediaItemType="2" />
    <MediaItem id="837" filePath="C:\Users\owner\Dropbox\Work\png\animation T=1.00837.png" arWidth="640" arHeight="480" duration="0" songTitle="" songArtist="" songAlbum="" songCopyrightUrl="" songArtistUrl="" songAudioFileUrl="" stabilizationMode="0" mediaItemType="2" />
    <MediaItem id="838" filePath="C:\Users\owner\Dropbox\Work\png\animation T=1.00838.png" arWidth="640" arHeight="480" duration="0" songTitle="" songArtist="" songAlbum="" songCopyrightUrl="" songArtistUrl="" songAudioFileUrl="" stabilizationMode="0" mediaItemType="2" />
    <MediaItem id="839" filePath="C:\Users\owner\Dropbox\Work\png\animation T=1.00839.png" arWidth="640" arHeight="480" duration="0" songTitle="" songArtist="" songAlbum="" songCopyrightUrl="" songArtistUrl="" songAudioFileUrl="" stabilizationMode="0" mediaItemType="2" />
    <MediaItem id="840" filePath="C:\Users\owner\Dropbox\Work\png\animation T=1.00840.png" arWidth="640" arHeight="480" duration="0" songTitle="" songArtist="" songAlbum="" songCopyrightUrl="" songArtistUrl="" songAudioFileUrl="" stabilizationMode="0" mediaItemType="2" />
    <MediaItem id="841" filePath="C:\Users\owner\Dropbox\Work\png\animation T=1.00841.png" arWidth="640" arHeight="480" duration="0" songTitle="" songArtist="" songAlbum="" songCopyrightUrl="" songArtistUrl="" songAudioFileUrl="" stabilizationMode="0" mediaItemType="2" />
    <MediaItem id="842" filePath="C:\Users\owner\Dropbox\Work\png\animation T=1.00842.png" arWidth="640" arHeight="480" duration="0" songTitle="" songArtist="" songAlbum="" songCopyrightUrl="" songArtistUrl="" songAudioFileUrl="" stabilizationMode="0" mediaItemType="2" />
    <MediaItem id="843" filePath="C:\Users\owner\Dropbox\Work\png\animation T=1.00843.png" arWidth="640" arHeight="480" duration="0" songTitle="" songArtist="" songAlbum="" songCopyrightUrl="" songArtistUrl="" songAudioFileUrl="" stabilizationMode="0" mediaItemType="2" />
    <MediaItem id="844" filePath="C:\Users\owner\Dropbox\Work\png\animation T=1.00844.png" arWidth="640" arHeight="480" duration="0" songTitle="" songArtist="" songAlbum="" songCopyrightUrl="" songArtistUrl="" songAudioFileUrl="" stabilizationMode="0" mediaItemType="2" />
    <MediaItem id="845" filePath="C:\Users\owner\Dropbox\Work\png\animation T=1.00845.png" arWidth="640" arHeight="480" duration="0" songTitle="" songArtist="" songAlbum="" songCopyrightUrl="" songArtistUrl="" songAudioFileUrl="" stabilizationMode="0" mediaItemType="2" />
    <MediaItem id="846" filePath="C:\Users\owner\Dropbox\Work\png\animation T=1.00846.png" arWidth="640" arHeight="480" duration="0" songTitle="" songArtist="" songAlbum="" songCopyrightUrl="" songArtistUrl="" songAudioFileUrl="" stabilizationMode="0" mediaItemType="2" />
    <MediaItem id="847" filePath="C:\Users\owner\Dropbox\Work\png\animation T=1.00847.png" arWidth="640" arHeight="480" duration="0" songTitle="" songArtist="" songAlbum="" songCopyrightUrl="" songArtistUrl="" songAudioFileUrl="" stabilizationMode="0" mediaItemType="2" />
    <MediaItem id="848" filePath="C:\Users\owner\Dropbox\Work\png\animation T=1.00848.png" arWidth="640" arHeight="480" duration="0" songTitle="" songArtist="" songAlbum="" songCopyrightUrl="" songArtistUrl="" songAudioFileUrl="" stabilizationMode="0" mediaItemType="2" />
    <MediaItem id="849" filePath="C:\Users\owner\Dropbox\Work\png\animation T=1.00849.png" arWidth="640" arHeight="480" duration="0" songTitle="" songArtist="" songAlbum="" songCopyrightUrl="" songArtistUrl="" songAudioFileUrl="" stabilizationMode="0" mediaItemType="2" />
    <MediaItem id="850" filePath="C:\Users\owner\Dropbox\Work\png\animation T=1.00850.png" arWidth="640" arHeight="480" duration="0" songTitle="" songArtist="" songAlbum="" songCopyrightUrl="" songArtistUrl="" songAudioFileUrl="" stabilizationMode="0" mediaItemType="2" />
    <MediaItem id="851" filePath="C:\Users\owner\Dropbox\Work\png\animation T=1.00851.png" arWidth="640" arHeight="480" duration="0" songTitle="" songArtist="" songAlbum="" songCopyrightUrl="" songArtistUrl="" songAudioFileUrl="" stabilizationMode="0" mediaItemType="2" />
    <MediaItem id="852" filePath="C:\Users\owner\Dropbox\Work\png\animation T=1.00852.png" arWidth="640" arHeight="480" duration="0" songTitle="" songArtist="" songAlbum="" songCopyrightUrl="" songArtistUrl="" songAudioFileUrl="" stabilizationMode="0" mediaItemType="2" />
    <MediaItem id="853" filePath="C:\Users\owner\Dropbox\Work\png\animation T=1.00853.png" arWidth="640" arHeight="480" duration="0" songTitle="" songArtist="" songAlbum="" songCopyrightUrl="" songArtistUrl="" songAudioFileUrl="" stabilizationMode="0" mediaItemType="2" />
    <MediaItem id="854" filePath="C:\Users\owner\Dropbox\Work\png\animation T=1.00854.png" arWidth="640" arHeight="480" duration="0" songTitle="" songArtist="" songAlbum="" songCopyrightUrl="" songArtistUrl="" songAudioFileUrl="" stabilizationMode="0" mediaItemType="2" />
    <MediaItem id="855" filePath="C:\Users\owner\Dropbox\Work\png\animation T=1.00855.png" arWidth="640" arHeight="480" duration="0" songTitle="" songArtist="" songAlbum="" songCopyrightUrl="" songArtistUrl="" songAudioFileUrl="" stabilizationMode="0" mediaItemType="2" />
    <MediaItem id="856" filePath="C:\Users\owner\Dropbox\Work\png\animation T=1.00856.png" arWidth="640" arHeight="480" duration="0" songTitle="" songArtist="" songAlbum="" songCopyrightUrl="" songArtistUrl="" songAudioFileUrl="" stabilizationMode="0" mediaItemType="2" />
    <MediaItem id="857" filePath="C:\Users\owner\Dropbox\Work\png\animation T=1.00857.png" arWidth="640" arHeight="480" duration="0" songTitle="" songArtist="" songAlbum="" songCopyrightUrl="" songArtistUrl="" songAudioFileUrl="" stabilizationMode="0" mediaItemType="2" />
    <MediaItem id="858" filePath="C:\Users\owner\Dropbox\Work\png\animation T=1.00858.png" arWidth="640" arHeight="480" duration="0" songTitle="" songArtist="" songAlbum="" songCopyrightUrl="" songArtistUrl="" songAudioFileUrl="" stabilizationMode="0" mediaItemType="2" />
    <MediaItem id="859" filePath="C:\Users\owner\Dropbox\Work\png\animation T=1.00859.png" arWidth="640" arHeight="480" duration="0" songTitle="" songArtist="" songAlbum="" songCopyrightUrl="" songArtistUrl="" songAudioFileUrl="" stabilizationMode="0" mediaItemType="2" />
    <MediaItem id="860" filePath="C:\Users\owner\Dropbox\Work\png\animation T=1.00860.png" arWidth="640" arHeight="480" duration="0" songTitle="" songArtist="" songAlbum="" songCopyrightUrl="" songArtistUrl="" songAudioFileUrl="" stabilizationMode="0" mediaItemType="2" />
    <MediaItem id="861" filePath="C:\Users\owner\Dropbox\Work\png\animation T=1.00861.png" arWidth="640" arHeight="480" duration="0" songTitle="" songArtist="" songAlbum="" songCopyrightUrl="" songArtistUrl="" songAudioFileUrl="" stabilizationMode="0" mediaItemType="2" />
    <MediaItem id="862" filePath="C:\Users\owner\Dropbox\Work\png\animation T=1.00862.png" arWidth="640" arHeight="480" duration="0" songTitle="" songArtist="" songAlbum="" songCopyrightUrl="" songArtistUrl="" songAudioFileUrl="" stabilizationMode="0" mediaItemType="2" />
    <MediaItem id="863" filePath="C:\Users\owner\Dropbox\Work\png\animation T=1.00863.png" arWidth="640" arHeight="480" duration="0" songTitle="" songArtist="" songAlbum="" songCopyrightUrl="" songArtistUrl="" songAudioFileUrl="" stabilizationMode="0" mediaItemType="2" />
    <MediaItem id="864" filePath="C:\Users\owner\Dropbox\Work\png\animation T=1.00864.png" arWidth="640" arHeight="480" duration="0" songTitle="" songArtist="" songAlbum="" songCopyrightUrl="" songArtistUrl="" songAudioFileUrl="" stabilizationMode="0" mediaItemType="2" />
    <MediaItem id="865" filePath="C:\Users\owner\Dropbox\Work\png\animation T=1.00865.png" arWidth="640" arHeight="480" duration="0" songTitle="" songArtist="" songAlbum="" songCopyrightUrl="" songArtistUrl="" songAudioFileUrl="" stabilizationMode="0" mediaItemType="2" />
    <MediaItem id="866" filePath="C:\Users\owner\Dropbox\Work\png\animation T=1.00866.png" arWidth="640" arHeight="480" duration="0" songTitle="" songArtist="" songAlbum="" songCopyrightUrl="" songArtistUrl="" songAudioFileUrl="" stabilizationMode="0" mediaItemType="2" />
    <MediaItem id="867" filePath="C:\Users\owner\Dropbox\Work\png\animation T=1.00867.png" arWidth="640" arHeight="480" duration="0" songTitle="" songArtist="" songAlbum="" songCopyrightUrl="" songArtistUrl="" songAudioFileUrl="" stabilizationMode="0" mediaItemType="2" />
    <MediaItem id="868" filePath="C:\Users\owner\Dropbox\Work\png\animation T=1.00868.png" arWidth="640" arHeight="480" duration="0" songTitle="" songArtist="" songAlbum="" songCopyrightUrl="" songArtistUrl="" songAudioFileUrl="" stabilizationMode="0" mediaItemType="2" />
    <MediaItem id="869" filePath="C:\Users\owner\Dropbox\Work\png\animation T=1.00869.png" arWidth="640" arHeight="480" duration="0" songTitle="" songArtist="" songAlbum="" songCopyrightUrl="" songArtistUrl="" songAudioFileUrl="" stabilizationMode="0" mediaItemType="2" />
    <MediaItem id="870" filePath="C:\Users\owner\Dropbox\Work\png\animation T=1.00870.png" arWidth="640" arHeight="480" duration="0" songTitle="" songArtist="" songAlbum="" songCopyrightUrl="" songArtistUrl="" songAudioFileUrl="" stabilizationMode="0" mediaItemType="2" />
    <MediaItem id="871" filePath="C:\Users\owner\Dropbox\Work\png\animation T=1.00871.png" arWidth="640" arHeight="480" duration="0" songTitle="" songArtist="" songAlbum="" songCopyrightUrl="" songArtistUrl="" songAudioFileUrl="" stabilizationMode="0" mediaItemType="2" />
    <MediaItem id="872" filePath="C:\Users\owner\Dropbox\Work\png\animation T=1.00872.png" arWidth="640" arHeight="480" duration="0" songTitle="" songArtist="" songAlbum="" songCopyrightUrl="" songArtistUrl="" songAudioFileUrl="" stabilizationMode="0" mediaItemType="2" />
    <MediaItem id="873" filePath="C:\Users\owner\Dropbox\Work\png\animation T=1.00873.png" arWidth="640" arHeight="480" duration="0" songTitle="" songArtist="" songAlbum="" songCopyrightUrl="" songArtistUrl="" songAudioFileUrl="" stabilizationMode="0" mediaItemType="2" />
    <MediaItem id="874" filePath="C:\Users\owner\Dropbox\Work\png\animation T=1.00874.png" arWidth="640" arHeight="480" duration="0" songTitle="" songArtist="" songAlbum="" songCopyrightUrl="" songArtistUrl="" songAudioFileUrl="" stabilizationMode="0" mediaItemType="2" />
    <MediaItem id="875" filePath="C:\Users\owner\Dropbox\Work\png\animation T=1.00875.png" arWidth="640" arHeight="480" duration="0" songTitle="" songArtist="" songAlbum="" songCopyrightUrl="" songArtistUrl="" songAudioFileUrl="" stabilizationMode="0" mediaItemType="2" />
    <MediaItem id="876" filePath="C:\Users\owner\Dropbox\Work\png\animation T=1.00876.png" arWidth="640" arHeight="480" duration="0" songTitle="" songArtist="" songAlbum="" songCopyrightUrl="" songArtistUrl="" songAudioFileUrl="" stabilizationMode="0" mediaItemType="2" />
    <MediaItem id="877" filePath="C:\Users\owner\Dropbox\Work\png\animation T=1.00877.png" arWidth="640" arHeight="480" duration="0" songTitle="" songArtist="" songAlbum="" songCopyrightUrl="" songArtistUrl="" songAudioFileUrl="" stabilizationMode="0" mediaItemType="2" />
    <MediaItem id="878" filePath="C:\Users\owner\Dropbox\Work\png\animation T=1.00878.png" arWidth="640" arHeight="480" duration="0" songTitle="" songArtist="" songAlbum="" songCopyrightUrl="" songArtistUrl="" songAudioFileUrl="" stabilizationMode="0" mediaItemType="2" />
    <MediaItem id="879" filePath="C:\Users\owner\Dropbox\Work\png\animation T=1.00879.png" arWidth="640" arHeight="480" duration="0" songTitle="" songArtist="" songAlbum="" songCopyrightUrl="" songArtistUrl="" songAudioFileUrl="" stabilizationMode="0" mediaItemType="2" />
    <MediaItem id="880" filePath="C:\Users\owner\Dropbox\Work\png\animation T=1.00880.png" arWidth="640" arHeight="480" duration="0" songTitle="" songArtist="" songAlbum="" songCopyrightUrl="" songArtistUrl="" songAudioFileUrl="" stabilizationMode="0" mediaItemType="2" />
    <MediaItem id="881" filePath="C:\Users\owner\Dropbox\Work\png\animation T=1.00881.png" arWidth="640" arHeight="480" duration="0" songTitle="" songArtist="" songAlbum="" songCopyrightUrl="" songArtistUrl="" songAudioFileUrl="" stabilizationMode="0" mediaItemType="2" />
    <MediaItem id="882" filePath="C:\Users\owner\Dropbox\Work\png\animation T=1.00882.png" arWidth="640" arHeight="480" duration="0" songTitle="" songArtist="" songAlbum="" songCopyrightUrl="" songArtistUrl="" songAudioFileUrl="" stabilizationMode="0" mediaItemType="2" />
    <MediaItem id="883" filePath="C:\Users\owner\Dropbox\Work\png\animation T=1.00883.png" arWidth="640" arHeight="480" duration="0" songTitle="" songArtist="" songAlbum="" songCopyrightUrl="" songArtistUrl="" songAudioFileUrl="" stabilizationMode="0" mediaItemType="2" />
    <MediaItem id="884" filePath="C:\Users\owner\Dropbox\Work\png\animation T=1.00884.png" arWidth="640" arHeight="480" duration="0" songTitle="" songArtist="" songAlbum="" songCopyrightUrl="" songArtistUrl="" songAudioFileUrl="" stabilizationMode="0" mediaItemType="2" />
    <MediaItem id="885" filePath="C:\Users\owner\Dropbox\Work\png\animation T=1.00885.png" arWidth="640" arHeight="480" duration="0" songTitle="" songArtist="" songAlbum="" songCopyrightUrl="" songArtistUrl="" songAudioFileUrl="" stabilizationMode="0" mediaItemType="2" />
    <MediaItem id="886" filePath="C:\Users\owner\Dropbox\Work\png\animation T=1.00886.png" arWidth="640" arHeight="480" duration="0" songTitle="" songArtist="" songAlbum="" songCopyrightUrl="" songArtistUrl="" songAudioFileUrl="" stabilizationMode="0" mediaItemType="2" />
    <MediaItem id="887" filePath="C:\Users\owner\Dropbox\Work\png\animation T=1.00887.png" arWidth="640" arHeight="480" duration="0" songTitle="" songArtist="" songAlbum="" songCopyrightUrl="" songArtistUrl="" songAudioFileUrl="" stabilizationMode="0" mediaItemType="2" />
    <MediaItem id="888" filePath="C:\Users\owner\Dropbox\Work\png\animation T=1.00888.png" arWidth="640" arHeight="480" duration="0" songTitle="" songArtist="" songAlbum="" songCopyrightUrl="" songArtistUrl="" songAudioFileUrl="" stabilizationMode="0" mediaItemType="2" />
    <MediaItem id="889" filePath="C:\Users\owner\Dropbox\Work\png\animation T=1.00889.png" arWidth="640" arHeight="480" duration="0" songTitle="" songArtist="" songAlbum="" songCopyrightUrl="" songArtistUrl="" songAudioFileUrl="" stabilizationMode="0" mediaItemType="2" />
    <MediaItem id="890" filePath="C:\Users\owner\Dropbox\Work\png\animation T=1.00890.png" arWidth="640" arHeight="480" duration="0" songTitle="" songArtist="" songAlbum="" songCopyrightUrl="" songArtistUrl="" songAudioFileUrl="" stabilizationMode="0" mediaItemType="2" />
    <MediaItem id="891" filePath="C:\Users\owner\Dropbox\Work\png\animation T=1.00891.png" arWidth="640" arHeight="480" duration="0" songTitle="" songArtist="" songAlbum="" songCopyrightUrl="" songArtistUrl="" songAudioFileUrl="" stabilizationMode="0" mediaItemType="2" />
    <MediaItem id="892" filePath="C:\Users\owner\Dropbox\Work\png\animation T=1.00892.png" arWidth="640" arHeight="480" duration="0" songTitle="" songArtist="" songAlbum="" songCopyrightUrl="" songArtistUrl="" songAudioFileUrl="" stabilizationMode="0" mediaItemType="2" />
    <MediaItem id="893" filePath="C:\Users\owner\Dropbox\Work\png\animation T=1.00893.png" arWidth="640" arHeight="480" duration="0" songTitle="" songArtist="" songAlbum="" songCopyrightUrl="" songArtistUrl="" songAudioFileUrl="" stabilizationMode="0" mediaItemType="2" />
    <MediaItem id="894" filePath="C:\Users\owner\Dropbox\Work\png\animation T=1.00894.png" arWidth="640" arHeight="480" duration="0" songTitle="" songArtist="" songAlbum="" songCopyrightUrl="" songArtistUrl="" songAudioFileUrl="" stabilizationMode="0" mediaItemType="2" />
    <MediaItem id="895" filePath="C:\Users\owner\Dropbox\Work\png\animation T=1.00895.png" arWidth="640" arHeight="480" duration="0" songTitle="" songArtist="" songAlbum="" songCopyrightUrl="" songArtistUrl="" songAudioFileUrl="" stabilizationMode="0" mediaItemType="2" />
    <MediaItem id="896" filePath="C:\Users\owner\Dropbox\Work\png\animation T=1.00896.png" arWidth="640" arHeight="480" duration="0" songTitle="" songArtist="" songAlbum="" songCopyrightUrl="" songArtistUrl="" songAudioFileUrl="" stabilizationMode="0" mediaItemType="2" />
    <MediaItem id="897" filePath="C:\Users\owner\Dropbox\Work\png\animation T=1.00897.png" arWidth="640" arHeight="480" duration="0" songTitle="" songArtist="" songAlbum="" songCopyrightUrl="" songArtistUrl="" songAudioFileUrl="" stabilizationMode="0" mediaItemType="2" />
    <MediaItem id="898" filePath="C:\Users\owner\Dropbox\Work\png\animation T=1.00898.png" arWidth="640" arHeight="480" duration="0" songTitle="" songArtist="" songAlbum="" songCopyrightUrl="" songArtistUrl="" songAudioFileUrl="" stabilizationMode="0" mediaItemType="2" />
    <MediaItem id="899" filePath="C:\Users\owner\Dropbox\Work\png\animation T=1.00899.png" arWidth="640" arHeight="480" duration="0" songTitle="" songArtist="" songAlbum="" songCopyrightUrl="" songArtistUrl="" songAudioFileUrl="" stabilizationMode="0" mediaItemType="2" />
    <MediaItem id="900" filePath="C:\Users\owner\Dropbox\Work\png\animation T=1.00900.png" arWidth="640" arHeight="480" duration="0" songTitle="" songArtist="" songAlbum="" songCopyrightUrl="" songArtistUrl="" songAudioFileUrl="" stabilizationMode="0" mediaItemType="2" />
    <MediaItem id="901" filePath="C:\Users\owner\Dropbox\Work\png\animation T=1.00901.png" arWidth="640" arHeight="480" duration="0" songTitle="" songArtist="" songAlbum="" songCopyrightUrl="" songArtistUrl="" songAudioFileUrl="" stabilizationMode="0" mediaItemType="2" />
    <MediaItem id="902" filePath="C:\Users\owner\Dropbox\Work\png\animation T=1.00902.png" arWidth="640" arHeight="480" duration="0" songTitle="" songArtist="" songAlbum="" songCopyrightUrl="" songArtistUrl="" songAudioFileUrl="" stabilizationMode="0" mediaItemType="2" />
    <MediaItem id="903" filePath="C:\Users\owner\Dropbox\Work\png\animation T=1.00903.png" arWidth="640" arHeight="480" duration="0" songTitle="" songArtist="" songAlbum="" songCopyrightUrl="" songArtistUrl="" songAudioFileUrl="" stabilizationMode="0" mediaItemType="2" />
    <MediaItem id="904" filePath="C:\Users\owner\Dropbox\Work\png\animation T=1.00904.png" arWidth="640" arHeight="480" duration="0" songTitle="" songArtist="" songAlbum="" songCopyrightUrl="" songArtistUrl="" songAudioFileUrl="" stabilizationMode="0" mediaItemType="2" />
    <MediaItem id="905" filePath="C:\Users\owner\Dropbox\Work\png\animation T=1.00905.png" arWidth="640" arHeight="480" duration="0" songTitle="" songArtist="" songAlbum="" songCopyrightUrl="" songArtistUrl="" songAudioFileUrl="" stabilizationMode="0" mediaItemType="2" />
    <MediaItem id="906" filePath="C:\Users\owner\Dropbox\Work\png\animation T=1.00906.png" arWidth="640" arHeight="480" duration="0" songTitle="" songArtist="" songAlbum="" songCopyrightUrl="" songArtistUrl="" songAudioFileUrl="" stabilizationMode="0" mediaItemType="2" />
    <MediaItem id="907" filePath="C:\Users\owner\Dropbox\Work\png\animation T=1.00907.png" arWidth="640" arHeight="480" duration="0" songTitle="" songArtist="" songAlbum="" songCopyrightUrl="" songArtistUrl="" songAudioFileUrl="" stabilizationMode="0" mediaItemType="2" />
    <MediaItem id="908" filePath="C:\Users\owner\Dropbox\Work\png\animation T=1.00908.png" arWidth="640" arHeight="480" duration="0" songTitle="" songArtist="" songAlbum="" songCopyrightUrl="" songArtistUrl="" songAudioFileUrl="" stabilizationMode="0" mediaItemType="2" />
    <MediaItem id="909" filePath="C:\Users\owner\Dropbox\Work\png\animation T=1.00909.png" arWidth="640" arHeight="480" duration="0" songTitle="" songArtist="" songAlbum="" songCopyrightUrl="" songArtistUrl="" songAudioFileUrl="" stabilizationMode="0" mediaItemType="2" />
    <MediaItem id="910" filePath="C:\Users\owner\Dropbox\Work\png\animation T=1.00910.png" arWidth="640" arHeight="480" duration="0" songTitle="" songArtist="" songAlbum="" songCopyrightUrl="" songArtistUrl="" songAudioFileUrl="" stabilizationMode="0" mediaItemType="2" />
    <MediaItem id="911" filePath="C:\Users\owner\Dropbox\Work\png\animation T=1.00911.png" arWidth="640" arHeight="480" duration="0" songTitle="" songArtist="" songAlbum="" songCopyrightUrl="" songArtistUrl="" songAudioFileUrl="" stabilizationMode="0" mediaItemType="2" />
    <MediaItem id="912" filePath="C:\Users\owner\Dropbox\Work\png\animation T=1.00912.png" arWidth="640" arHeight="480" duration="0" songTitle="" songArtist="" songAlbum="" songCopyrightUrl="" songArtistUrl="" songAudioFileUrl="" stabilizationMode="0" mediaItemType="2" />
    <MediaItem id="913" filePath="C:\Users\owner\Dropbox\Work\png\animation T=1.00913.png" arWidth="640" arHeight="480" duration="0" songTitle="" songArtist="" songAlbum="" songCopyrightUrl="" songArtistUrl="" songAudioFileUrl="" stabilizationMode="0" mediaItemType="2" />
    <MediaItem id="914" filePath="C:\Users\owner\Dropbox\Work\png\animation T=1.00914.png" arWidth="640" arHeight="480" duration="0" songTitle="" songArtist="" songAlbum="" songCopyrightUrl="" songArtistUrl="" songAudioFileUrl="" stabilizationMode="0" mediaItemType="2" />
    <MediaItem id="915" filePath="C:\Users\owner\Dropbox\Work\png\animation T=1.00915.png" arWidth="640" arHeight="480" duration="0" songTitle="" songArtist="" songAlbum="" songCopyrightUrl="" songArtistUrl="" songAudioFileUrl="" stabilizationMode="0" mediaItemType="2" />
    <MediaItem id="916" filePath="C:\Users\owner\Dropbox\Work\png\animation T=1.00916.png" arWidth="640" arHeight="480" duration="0" songTitle="" songArtist="" songAlbum="" songCopyrightUrl="" songArtistUrl="" songAudioFileUrl="" stabilizationMode="0" mediaItemType="2" />
    <MediaItem id="917" filePath="C:\Users\owner\Dropbox\Work\png\animation T=1.00917.png" arWidth="640" arHeight="480" duration="0" songTitle="" songArtist="" songAlbum="" songCopyrightUrl="" songArtistUrl="" songAudioFileUrl="" stabilizationMode="0" mediaItemType="2" />
    <MediaItem id="918" filePath="C:\Users\owner\Dropbox\Work\png\animation T=1.00918.png" arWidth="640" arHeight="480" duration="0" songTitle="" songArtist="" songAlbum="" songCopyrightUrl="" songArtistUrl="" songAudioFileUrl="" stabilizationMode="0" mediaItemType="2" />
    <MediaItem id="919" filePath="C:\Users\owner\Dropbox\Work\png\animation T=1.00919.png" arWidth="640" arHeight="480" duration="0" songTitle="" songArtist="" songAlbum="" songCopyrightUrl="" songArtistUrl="" songAudioFileUrl="" stabilizationMode="0" mediaItemType="2" />
    <MediaItem id="920" filePath="C:\Users\owner\Dropbox\Work\png\animation T=1.00920.png" arWidth="640" arHeight="480" duration="0" songTitle="" songArtist="" songAlbum="" songCopyrightUrl="" songArtistUrl="" songAudioFileUrl="" stabilizationMode="0" mediaItemType="2" />
    <MediaItem id="921" filePath="C:\Users\owner\Dropbox\Work\png\animation T=1.00921.png" arWidth="640" arHeight="480" duration="0" songTitle="" songArtist="" songAlbum="" songCopyrightUrl="" songArtistUrl="" songAudioFileUrl="" stabilizationMode="0" mediaItemType="2" />
    <MediaItem id="922" filePath="C:\Users\owner\Dropbox\Work\png\animation T=1.00922.png" arWidth="640" arHeight="480" duration="0" songTitle="" songArtist="" songAlbum="" songCopyrightUrl="" songArtistUrl="" songAudioFileUrl="" stabilizationMode="0" mediaItemType="2" />
    <MediaItem id="923" filePath="C:\Users\owner\Dropbox\Work\png\animation T=1.00923.png" arWidth="640" arHeight="480" duration="0" songTitle="" songArtist="" songAlbum="" songCopyrightUrl="" songArtistUrl="" songAudioFileUrl="" stabilizationMode="0" mediaItemType="2" />
    <MediaItem id="924" filePath="C:\Users\owner\Dropbox\Work\png\animation T=1.00924.png" arWidth="640" arHeight="480" duration="0" songTitle="" songArtist="" songAlbum="" songCopyrightUrl="" songArtistUrl="" songAudioFileUrl="" stabilizationMode="0" mediaItemType="2" />
    <MediaItem id="925" filePath="C:\Users\owner\Dropbox\Work\png\animation T=1.00925.png" arWidth="640" arHeight="480" duration="0" songTitle="" songArtist="" songAlbum="" songCopyrightUrl="" songArtistUrl="" songAudioFileUrl="" stabilizationMode="0" mediaItemType="2" />
    <MediaItem id="926" filePath="C:\Users\owner\Dropbox\Work\png\animation T=1.00926.png" arWidth="640" arHeight="480" duration="0" songTitle="" songArtist="" songAlbum="" songCopyrightUrl="" songArtistUrl="" songAudioFileUrl="" stabilizationMode="0" mediaItemType="2" />
    <MediaItem id="927" filePath="C:\Users\owner\Dropbox\Work\png\animation T=1.00927.png" arWidth="640" arHeight="480" duration="0" songTitle="" songArtist="" songAlbum="" songCopyrightUrl="" songArtistUrl="" songAudioFileUrl="" stabilizationMode="0" mediaItemType="2" />
    <MediaItem id="928" filePath="C:\Users\owner\Dropbox\Work\png\animation T=1.00928.png" arWidth="640" arHeight="480" duration="0" songTitle="" songArtist="" songAlbum="" songCopyrightUrl="" songArtistUrl="" songAudioFileUrl="" stabilizationMode="0" mediaItemType="2" />
    <MediaItem id="929" filePath="C:\Users\owner\Dropbox\Work\png\animation T=1.00929.png" arWidth="640" arHeight="480" duration="0" songTitle="" songArtist="" songAlbum="" songCopyrightUrl="" songArtistUrl="" songAudioFileUrl="" stabilizationMode="0" mediaItemType="2" />
    <MediaItem id="930" filePath="C:\Users\owner\Dropbox\Work\png\animation T=1.00930.png" arWidth="640" arHeight="480" duration="0" songTitle="" songArtist="" songAlbum="" songCopyrightUrl="" songArtistUrl="" songAudioFileUrl="" stabilizationMode="0" mediaItemType="2" />
    <MediaItem id="931" filePath="C:\Users\owner\Dropbox\Work\png\animation T=1.00931.png" arWidth="640" arHeight="480" duration="0" songTitle="" songArtist="" songAlbum="" songCopyrightUrl="" songArtistUrl="" songAudioFileUrl="" stabilizationMode="0" mediaItemType="2" />
    <MediaItem id="932" filePath="C:\Users\owner\Dropbox\Work\png\animation T=1.00932.png" arWidth="640" arHeight="480" duration="0" songTitle="" songArtist="" songAlbum="" songCopyrightUrl="" songArtistUrl="" songAudioFileUrl="" stabilizationMode="0" mediaItemType="2" />
    <MediaItem id="933" filePath="C:\Users\owner\Dropbox\Work\png\animation T=1.00933.png" arWidth="640" arHeight="480" duration="0" songTitle="" songArtist="" songAlbum="" songCopyrightUrl="" songArtistUrl="" songAudioFileUrl="" stabilizationMode="0" mediaItemType="2" />
    <MediaItem id="934" filePath="C:\Users\owner\Dropbox\Work\png\animation T=1.00934.png" arWidth="640" arHeight="480" duration="0" songTitle="" songArtist="" songAlbum="" songCopyrightUrl="" songArtistUrl="" songAudioFileUrl="" stabilizationMode="0" mediaItemType="2" />
    <MediaItem id="935" filePath="C:\Users\owner\Dropbox\Work\png\animation T=1.00935.png" arWidth="640" arHeight="480" duration="0" songTitle="" songArtist="" songAlbum="" songCopyrightUrl="" songArtistUrl="" songAudioFileUrl="" stabilizationMode="0" mediaItemType="2" />
    <MediaItem id="936" filePath="C:\Users\owner\Dropbox\Work\png\animation T=1.00936.png" arWidth="640" arHeight="480" duration="0" songTitle="" songArtist="" songAlbum="" songCopyrightUrl="" songArtistUrl="" songAudioFileUrl="" stabilizationMode="0" mediaItemType="2" />
    <MediaItem id="937" filePath="C:\Users\owner\Dropbox\Work\png\animation T=1.00937.png" arWidth="640" arHeight="480" duration="0" songTitle="" songArtist="" songAlbum="" songCopyrightUrl="" songArtistUrl="" songAudioFileUrl="" stabilizationMode="0" mediaItemType="2" />
    <MediaItem id="938" filePath="C:\Users\owner\Dropbox\Work\png\animation T=1.00938.png" arWidth="640" arHeight="480" duration="0" songTitle="" songArtist="" songAlbum="" songCopyrightUrl="" songArtistUrl="" songAudioFileUrl="" stabilizationMode="0" mediaItemType="2" />
    <MediaItem id="939" filePath="C:\Users\owner\Dropbox\Work\png\animation T=1.00939.png" arWidth="640" arHeight="480" duration="0" songTitle="" songArtist="" songAlbum="" songCopyrightUrl="" songArtistUrl="" songAudioFileUrl="" stabilizationMode="0" mediaItemType="2" />
    <MediaItem id="940" filePath="C:\Users\owner\Dropbox\Work\png\animation T=1.00940.png" arWidth="640" arHeight="480" duration="0" songTitle="" songArtist="" songAlbum="" songCopyrightUrl="" songArtistUrl="" songAudioFileUrl="" stabilizationMode="0" mediaItemType="2" />
    <MediaItem id="941" filePath="C:\Users\owner\Dropbox\Work\png\animation T=1.00941.png" arWidth="640" arHeight="480" duration="0" songTitle="" songArtist="" songAlbum="" songCopyrightUrl="" songArtistUrl="" songAudioFileUrl="" stabilizationMode="0" mediaItemType="2" />
    <MediaItem id="942" filePath="C:\Users\owner\Dropbox\Work\png\animation T=1.00942.png" arWidth="640" arHeight="480" duration="0" songTitle="" songArtist="" songAlbum="" songCopyrightUrl="" songArtistUrl="" songAudioFileUrl="" stabilizationMode="0" mediaItemType="2" />
    <MediaItem id="943" filePath="C:\Users\owner\Dropbox\Work\png\animation T=1.00943.png" arWidth="640" arHeight="480" duration="0" songTitle="" songArtist="" songAlbum="" songCopyrightUrl="" songArtistUrl="" songAudioFileUrl="" stabilizationMode="0" mediaItemType="2" />
    <MediaItem id="944" filePath="C:\Users\owner\Dropbox\Work\png\animation T=1.00944.png" arWidth="640" arHeight="480" duration="0" songTitle="" songArtist="" songAlbum="" songCopyrightUrl="" songArtistUrl="" songAudioFileUrl="" stabilizationMode="0" mediaItemType="2" />
    <MediaItem id="945" filePath="C:\Users\owner\Dropbox\Work\png\animation T=1.00945.png" arWidth="640" arHeight="480" duration="0" songTitle="" songArtist="" songAlbum="" songCopyrightUrl="" songArtistUrl="" songAudioFileUrl="" stabilizationMode="0" mediaItemType="2" />
    <MediaItem id="946" filePath="C:\Users\owner\Dropbox\Work\png\animation T=1.00946.png" arWidth="640" arHeight="480" duration="0" songTitle="" songArtist="" songAlbum="" songCopyrightUrl="" songArtistUrl="" songAudioFileUrl="" stabilizationMode="0" mediaItemType="2" />
    <MediaItem id="947" filePath="C:\Users\owner\Dropbox\Work\png\animation T=1.00947.png" arWidth="640" arHeight="480" duration="0" songTitle="" songArtist="" songAlbum="" songCopyrightUrl="" songArtistUrl="" songAudioFileUrl="" stabilizationMode="0" mediaItemType="2" />
    <MediaItem id="948" filePath="C:\Users\owner\Dropbox\Work\png\animation T=1.00948.png" arWidth="640" arHeight="480" duration="0" songTitle="" songArtist="" songAlbum="" songCopyrightUrl="" songArtistUrl="" songAudioFileUrl="" stabilizationMode="0" mediaItemType="2" />
    <MediaItem id="949" filePath="C:\Users\owner\Dropbox\Work\png\animation T=1.00949.png" arWidth="640" arHeight="480" duration="0" songTitle="" songArtist="" songAlbum="" songCopyrightUrl="" songArtistUrl="" songAudioFileUrl="" stabilizationMode="0" mediaItemType="2" />
    <MediaItem id="950" filePath="C:\Users\owner\Dropbox\Work\png\animation T=1.00950.png" arWidth="640" arHeight="480" duration="0" songTitle="" songArtist="" songAlbum="" songCopyrightUrl="" songArtistUrl="" songAudioFileUrl="" stabilizationMode="0" mediaItemType="2" />
    <MediaItem id="951" filePath="C:\Users\owner\Dropbox\Work\png\animation T=1.00951.png" arWidth="640" arHeight="480" duration="0" songTitle="" songArtist="" songAlbum="" songCopyrightUrl="" songArtistUrl="" songAudioFileUrl="" stabilizationMode="0" mediaItemType="2" />
    <MediaItem id="952" filePath="C:\Users\owner\Dropbox\Work\png\animation T=1.00952.png" arWidth="640" arHeight="480" duration="0" songTitle="" songArtist="" songAlbum="" songCopyrightUrl="" songArtistUrl="" songAudioFileUrl="" stabilizationMode="0" mediaItemType="2" />
    <MediaItem id="953" filePath="C:\Users\owner\Dropbox\Work\png\animation T=1.00953.png" arWidth="640" arHeight="480" duration="0" songTitle="" songArtist="" songAlbum="" songCopyrightUrl="" songArtistUrl="" songAudioFileUrl="" stabilizationMode="0" mediaItemType="2" />
    <MediaItem id="954" filePath="C:\Users\owner\Dropbox\Work\png\animation T=1.00954.png" arWidth="640" arHeight="480" duration="0" songTitle="" songArtist="" songAlbum="" songCopyrightUrl="" songArtistUrl="" songAudioFileUrl="" stabilizationMode="0" mediaItemType="2" />
    <MediaItem id="955" filePath="C:\Users\owner\Dropbox\Work\png\animation T=1.00955.png" arWidth="640" arHeight="480" duration="0" songTitle="" songArtist="" songAlbum="" songCopyrightUrl="" songArtistUrl="" songAudioFileUrl="" stabilizationMode="0" mediaItemType="2" />
    <MediaItem id="956" filePath="C:\Users\owner\Dropbox\Work\png\animation T=1.00956.png" arWidth="640" arHeight="480" duration="0" songTitle="" songArtist="" songAlbum="" songCopyrightUrl="" songArtistUrl="" songAudioFileUrl="" stabilizationMode="0" mediaItemType="2" />
    <MediaItem id="957" filePath="C:\Users\owner\Dropbox\Work\png\animation T=1.00957.png" arWidth="640" arHeight="480" duration="0" songTitle="" songArtist="" songAlbum="" songCopyrightUrl="" songArtistUrl="" songAudioFileUrl="" stabilizationMode="0" mediaItemType="2" />
    <MediaItem id="958" filePath="C:\Users\owner\Dropbox\Work\png\animation T=1.00958.png" arWidth="640" arHeight="480" duration="0" songTitle="" songArtist="" songAlbum="" songCopyrightUrl="" songArtistUrl="" songAudioFileUrl="" stabilizationMode="0" mediaItemType="2" />
    <MediaItem id="959" filePath="C:\Users\owner\Dropbox\Work\png\animation T=1.00959.png" arWidth="640" arHeight="480" duration="0" songTitle="" songArtist="" songAlbum="" songCopyrightUrl="" songArtistUrl="" songAudioFileUrl="" stabilizationMode="0" mediaItemType="2" />
    <MediaItem id="960" filePath="C:\Users\owner\Dropbox\Work\png\animation T=1.00960.png" arWidth="640" arHeight="480" duration="0" songTitle="" songArtist="" songAlbum="" songCopyrightUrl="" songArtistUrl="" songAudioFileUrl="" stabilizationMode="0" mediaItemType="2" />
    <MediaItem id="961" filePath="C:\Users\owner\Dropbox\Work\png\animation T=1.00961.png" arWidth="640" arHeight="480" duration="0" songTitle="" songArtist="" songAlbum="" songCopyrightUrl="" songArtistUrl="" songAudioFileUrl="" stabilizationMode="0" mediaItemType="2" />
    <MediaItem id="962" filePath="C:\Users\owner\Dropbox\Work\png\animation T=1.00962.png" arWidth="640" arHeight="480" duration="0" songTitle="" songArtist="" songAlbum="" songCopyrightUrl="" songArtistUrl="" songAudioFileUrl="" stabilizationMode="0" mediaItemType="2" />
    <MediaItem id="963" filePath="C:\Users\owner\Dropbox\Work\png\animation T=1.00963.png" arWidth="640" arHeight="480" duration="0" songTitle="" songArtist="" songAlbum="" songCopyrightUrl="" songArtistUrl="" songAudioFileUrl="" stabilizationMode="0" mediaItemType="2" />
    <MediaItem id="964" filePath="C:\Users\owner\Dropbox\Work\png\animation T=1.00964.png" arWidth="640" arHeight="480" duration="0" songTitle="" songArtist="" songAlbum="" songCopyrightUrl="" songArtistUrl="" songAudioFileUrl="" stabilizationMode="0" mediaItemType="2" />
    <MediaItem id="965" filePath="C:\Users\owner\Dropbox\Work\png\animation T=1.00965.png" arWidth="640" arHeight="480" duration="0" songTitle="" songArtist="" songAlbum="" songCopyrightUrl="" songArtistUrl="" songAudioFileUrl="" stabilizationMode="0" mediaItemType="2" />
    <MediaItem id="966" filePath="C:\Users\owner\Dropbox\Work\png\animation T=1.00966.png" arWidth="640" arHeight="480" duration="0" songTitle="" songArtist="" songAlbum="" songCopyrightUrl="" songArtistUrl="" songAudioFileUrl="" stabilizationMode="0" mediaItemType="2" />
    <MediaItem id="967" filePath="C:\Users\owner\Dropbox\Work\png\animation T=1.00967.png" arWidth="640" arHeight="480" duration="0" songTitle="" songArtist="" songAlbum="" songCopyrightUrl="" songArtistUrl="" songAudioFileUrl="" stabilizationMode="0" mediaItemType="2" />
    <MediaItem id="968" filePath="C:\Users\owner\Dropbox\Work\png\animation T=1.00968.png" arWidth="640" arHeight="480" duration="0" songTitle="" songArtist="" songAlbum="" songCopyrightUrl="" songArtistUrl="" songAudioFileUrl="" stabilizationMode="0" mediaItemType="2" />
    <MediaItem id="969" filePath="C:\Users\owner\Dropbox\Work\png\animation T=1.00969.png" arWidth="640" arHeight="480" duration="0" songTitle="" songArtist="" songAlbum="" songCopyrightUrl="" songArtistUrl="" songAudioFileUrl="" stabilizationMode="0" mediaItemType="2" />
    <MediaItem id="970" filePath="C:\Users\owner\Dropbox\Work\png\animation T=1.00970.png" arWidth="640" arHeight="480" duration="0" songTitle="" songArtist="" songAlbum="" songCopyrightUrl="" songArtistUrl="" songAudioFileUrl="" stabilizationMode="0" mediaItemType="2" />
    <MediaItem id="971" filePath="C:\Users\owner\Dropbox\Work\png\animation T=1.00971.png" arWidth="640" arHeight="480" duration="0" songTitle="" songArtist="" songAlbum="" songCopyrightUrl="" songArtistUrl="" songAudioFileUrl="" stabilizationMode="0" mediaItemType="2" />
    <MediaItem id="972" filePath="C:\Users\owner\Dropbox\Work\png\animation T=1.00972.png" arWidth="640" arHeight="480" duration="0" songTitle="" songArtist="" songAlbum="" songCopyrightUrl="" songArtistUrl="" songAudioFileUrl="" stabilizationMode="0" mediaItemType="2" />
    <MediaItem id="973" filePath="C:\Users\owner\Dropbox\Work\png\animation T=1.00973.png" arWidth="640" arHeight="480" duration="0" songTitle="" songArtist="" songAlbum="" songCopyrightUrl="" songArtistUrl="" songAudioFileUrl="" stabilizationMode="0" mediaItemType="2" />
    <MediaItem id="974" filePath="C:\Users\owner\Dropbox\Work\png\animation T=1.00974.png" arWidth="640" arHeight="480" duration="0" songTitle="" songArtist="" songAlbum="" songCopyrightUrl="" songArtistUrl="" songAudioFileUrl="" stabilizationMode="0" mediaItemType="2" />
    <MediaItem id="975" filePath="C:\Users\owner\Dropbox\Work\png\animation T=1.00975.png" arWidth="640" arHeight="480" duration="0" songTitle="" songArtist="" songAlbum="" songCopyrightUrl="" songArtistUrl="" songAudioFileUrl="" stabilizationMode="0" mediaItemType="2" />
    <MediaItem id="976" filePath="C:\Users\owner\Dropbox\Work\png\animation T=1.00976.png" arWidth="640" arHeight="480" duration="0" songTitle="" songArtist="" songAlbum="" songCopyrightUrl="" songArtistUrl="" songAudioFileUrl="" stabilizationMode="0" mediaItemType="2" />
    <MediaItem id="977" filePath="C:\Users\owner\Dropbox\Work\png\animation T=1.00977.png" arWidth="640" arHeight="480" duration="0" songTitle="" songArtist="" songAlbum="" songCopyrightUrl="" songArtistUrl="" songAudioFileUrl="" stabilizationMode="0" mediaItemType="2" />
    <MediaItem id="978" filePath="C:\Users\owner\Dropbox\Work\png\animation T=1.00978.png" arWidth="640" arHeight="480" duration="0" songTitle="" songArtist="" songAlbum="" songCopyrightUrl="" songArtistUrl="" songAudioFileUrl="" stabilizationMode="0" mediaItemType="2" />
    <MediaItem id="979" filePath="C:\Users\owner\Dropbox\Work\png\animation T=1.00979.png" arWidth="640" arHeight="480" duration="0" songTitle="" songArtist="" songAlbum="" songCopyrightUrl="" songArtistUrl="" songAudioFileUrl="" stabilizationMode="0" mediaItemType="2" />
    <MediaItem id="980" filePath="C:\Users\owner\Dropbox\Work\png\animation T=1.00980.png" arWidth="640" arHeight="480" duration="0" songTitle="" songArtist="" songAlbum="" songCopyrightUrl="" songArtistUrl="" songAudioFileUrl="" stabilizationMode="0" mediaItemType="2" />
    <MediaItem id="981" filePath="C:\Users\owner\Dropbox\Work\png\animation T=1.00981.png" arWidth="640" arHeight="480" duration="0" songTitle="" songArtist="" songAlbum="" songCopyrightUrl="" songArtistUrl="" songAudioFileUrl="" stabilizationMode="0" mediaItemType="2" />
    <MediaItem id="982" filePath="C:\Users\owner\Dropbox\Work\png\animation T=1.00982.png" arWidth="640" arHeight="480" duration="0" songTitle="" songArtist="" songAlbum="" songCopyrightUrl="" songArtistUrl="" songAudioFileUrl="" stabilizationMode="0" mediaItemType="2" />
    <MediaItem id="983" filePath="C:\Users\owner\Dropbox\Work\png\animation T=1.00983.png" arWidth="640" arHeight="480" duration="0" songTitle="" songArtist="" songAlbum="" songCopyrightUrl="" songArtistUrl="" songAudioFileUrl="" stabilizationMode="0" mediaItemType="2" />
    <MediaItem id="984" filePath="C:\Users\owner\Dropbox\Work\png\animation T=1.00984.png" arWidth="640" arHeight="480" duration="0" songTitle="" songArtist="" songAlbum="" songCopyrightUrl="" songArtistUrl="" songAudioFileUrl="" stabilizationMode="0" mediaItemType="2" />
    <MediaItem id="985" filePath="C:\Users\owner\Dropbox\Work\png\animation T=1.00985.png" arWidth="640" arHeight="480" duration="0" songTitle="" songArtist="" songAlbum="" songCopyrightUrl="" songArtistUrl="" songAudioFileUrl="" stabilizationMode="0" mediaItemType="2" />
    <MediaItem id="986" filePath="C:\Users\owner\Dropbox\Work\png\animation T=1.00986.png" arWidth="640" arHeight="480" duration="0" songTitle="" songArtist="" songAlbum="" songCopyrightUrl="" songArtistUrl="" songAudioFileUrl="" stabilizationMode="0" mediaItemType="2" />
    <MediaItem id="987" filePath="C:\Users\owner\Dropbox\Work\png\animation T=1.00987.png" arWidth="640" arHeight="480" duration="0" songTitle="" songArtist="" songAlbum="" songCopyrightUrl="" songArtistUrl="" songAudioFileUrl="" stabilizationMode="0" mediaItemType="2" />
    <MediaItem id="988" filePath="C:\Users\owner\Dropbox\Work\png\animation T=1.00988.png" arWidth="640" arHeight="480" duration="0" songTitle="" songArtist="" songAlbum="" songCopyrightUrl="" songArtistUrl="" songAudioFileUrl="" stabilizationMode="0" mediaItemType="2" />
    <MediaItem id="989" filePath="C:\Users\owner\Dropbox\Work\png\animation T=1.00989.png" arWidth="640" arHeight="480" duration="0" songTitle="" songArtist="" songAlbum="" songCopyrightUrl="" songArtistUrl="" songAudioFileUrl="" stabilizationMode="0" mediaItemType="2" />
    <MediaItem id="990" filePath="C:\Users\owner\Dropbox\Work\png\animation T=1.00990.png" arWidth="640" arHeight="480" duration="0" songTitle="" songArtist="" songAlbum="" songCopyrightUrl="" songArtistUrl="" songAudioFileUrl="" stabilizationMode="0" mediaItemType="2" />
    <MediaItem id="991" filePath="C:\Users\owner\Dropbox\Work\png\animation T=1.00991.png" arWidth="640" arHeight="480" duration="0" songTitle="" songArtist="" songAlbum="" songCopyrightUrl="" songArtistUrl="" songAudioFileUrl="" stabilizationMode="0" mediaItemType="2" />
    <MediaItem id="992" filePath="C:\Users\owner\Dropbox\Work\png\animation T=1.00992.png" arWidth="640" arHeight="480" duration="0" songTitle="" songArtist="" songAlbum="" songCopyrightUrl="" songArtistUrl="" songAudioFileUrl="" stabilizationMode="0" mediaItemType="2" />
    <MediaItem id="993" filePath="C:\Users\owner\Dropbox\Work\png\animation T=1.00993.png" arWidth="640" arHeight="480" duration="0" songTitle="" songArtist="" songAlbum="" songCopyrightUrl="" songArtistUrl="" songAudioFileUrl="" stabilizationMode="0" mediaItemType="2" />
    <MediaItem id="994" filePath="C:\Users\owner\Dropbox\Work\png\animation T=1.00994.png" arWidth="640" arHeight="480" duration="0" songTitle="" songArtist="" songAlbum="" songCopyrightUrl="" songArtistUrl="" songAudioFileUrl="" stabilizationMode="0" mediaItemType="2" />
    <MediaItem id="995" filePath="C:\Users\owner\Dropbox\Work\png\animation T=1.00995.png" arWidth="640" arHeight="480" duration="0" songTitle="" songArtist="" songAlbum="" songCopyrightUrl="" songArtistUrl="" songAudioFileUrl="" stabilizationMode="0" mediaItemType="2" />
    <MediaItem id="996" filePath="C:\Users\owner\Dropbox\Work\png\animation T=1.00996.png" arWidth="640" arHeight="480" duration="0" songTitle="" songArtist="" songAlbum="" songCopyrightUrl="" songArtistUrl="" songAudioFileUrl="" stabilizationMode="0" mediaItemType="2" />
    <MediaItem id="997" filePath="C:\Users\owner\Dropbox\Work\png\animation T=1.00997.png" arWidth="640" arHeight="480" duration="0" songTitle="" songArtist="" songAlbum="" songCopyrightUrl="" songArtistUrl="" songAudioFileUrl="" stabilizationMode="0" mediaItemType="2" />
    <MediaItem id="998" filePath="C:\Users\owner\Dropbox\Work\png\animation T=1.00998.png" arWidth="640" arHeight="480" duration="0" songTitle="" songArtist="" songAlbum="" songCopyrightUrl="" songArtistUrl="" songAudioFileUrl="" stabilizationMode="0" mediaItemType="2" />
    <MediaItem id="999" filePath="C:\Users\owner\Dropbox\Work\png\animation T=1.00999.png" arWidth="640" arHeight="480" duration="0" songTitle="" songArtist="" songAlbum="" songCopyrightUrl="" songArtistUrl="" songAudioFileUrl="" stabilizationMode="0" mediaItemType="2" />
    <MediaItem id="1000" filePath="C:\Users\owner\Dropbox\Work\png\animation T=1.01000.png" arWidth="640" arHeight="480" duration="0" songTitle="" songArtist="" songAlbum="" songCopyrightUrl="" songArtistUrl="" songAudioFileUrl="" stabilizationMode="0" mediaItemType="2" />
    <MediaItem id="1001" filePath="C:\Users\owner\Dropbox\Work\png\animation T=1.01001.png" arWidth="640" arHeight="480" duration="0" songTitle="" songArtist="" songAlbum="" songCopyrightUrl="" songArtistUrl="" songAudioFileUrl="" stabilizationMode="0" mediaItemType="2" />
    <MediaItem id="1002" filePath="C:\Users\owner\Dropbox\Work\png\animation T=1.01002.png" arWidth="640" arHeight="480" duration="0" songTitle="" songArtist="" songAlbum="" songCopyrightUrl="" songArtistUrl="" songAudioFileUrl="" stabilizationMode="0" mediaItemType="2" />
    <MediaItem id="1003" filePath="C:\Users\owner\Dropbox\Work\png\animation T=1.01003.png" arWidth="640" arHeight="480" duration="0" songTitle="" songArtist="" songAlbum="" songCopyrightUrl="" songArtistUrl="" songAudioFileUrl="" stabilizationMode="0" mediaItemType="2" />
    <MediaItem id="1004" filePath="C:\Users\owner\Dropbox\Work\png\animation T=1.01004.png" arWidth="640" arHeight="480" duration="0" songTitle="" songArtist="" songAlbum="" songCopyrightUrl="" songArtistUrl="" songAudioFileUrl="" stabilizationMode="0" mediaItemType="2" />
    <MediaItem id="1005" filePath="C:\Users\owner\Dropbox\Work\png\animation T=1.01005.png" arWidth="640" arHeight="480" duration="0" songTitle="" songArtist="" songAlbum="" songCopyrightUrl="" songArtistUrl="" songAudioFileUrl="" stabilizationMode="0" mediaItemType="2" />
    <MediaItem id="1006" filePath="C:\Users\owner\Dropbox\Work\png\animation T=1.01006.png" arWidth="640" arHeight="480" duration="0" songTitle="" songArtist="" songAlbum="" songCopyrightUrl="" songArtistUrl="" songAudioFileUrl="" stabilizationMode="0" mediaItemType="2" />
    <MediaItem id="1007" filePath="C:\Users\owner\Dropbox\Work\png\animation T=1.01007.png" arWidth="640" arHeight="480" duration="0" songTitle="" songArtist="" songAlbum="" songCopyrightUrl="" songArtistUrl="" songAudioFileUrl="" stabilizationMode="0" mediaItemType="2" />
    <MediaItem id="1008" filePath="C:\Users\owner\Dropbox\Work\png\animation T=1.01008.png" arWidth="640" arHeight="480" duration="0" songTitle="" songArtist="" songAlbum="" songCopyrightUrl="" songArtistUrl="" songAudioFileUrl="" stabilizationMode="0" mediaItemType="2" />
    <MediaItem id="1009" filePath="C:\Users\owner\Dropbox\Work\png\animation T=1.01009.png" arWidth="640" arHeight="480" duration="0" songTitle="" songArtist="" songAlbum="" songCopyrightUrl="" songArtistUrl="" songAudioFileUrl="" stabilizationMode="0" mediaItemType="2" />
    <MediaItem id="1010" filePath="C:\Users\owner\Dropbox\Work\png\animation T=1.01010.png" arWidth="640" arHeight="480" duration="0" songTitle="" songArtist="" songAlbum="" songCopyrightUrl="" songArtistUrl="" songAudioFileUrl="" stabilizationMode="0" mediaItemType="2" />
    <MediaItem id="1011" filePath="C:\Users\owner\Dropbox\Work\png\animation T=1.01011.png" arWidth="640" arHeight="480" duration="0" songTitle="" songArtist="" songAlbum="" songCopyrightUrl="" songArtistUrl="" songAudioFileUrl="" stabilizationMode="0" mediaItemType="2" />
    <MediaItem id="1012" filePath="C:\Users\owner\Dropbox\Work\png\animation T=1.01012.png" arWidth="640" arHeight="480" duration="0" songTitle="" songArtist="" songAlbum="" songCopyrightUrl="" songArtistUrl="" songAudioFileUrl="" stabilizationMode="0" mediaItemType="2" />
    <MediaItem id="1013" filePath="C:\Users\owner\Dropbox\Work\png\animation T=1.01013.png" arWidth="640" arHeight="480" duration="0" songTitle="" songArtist="" songAlbum="" songCopyrightUrl="" songArtistUrl="" songAudioFileUrl="" stabilizationMode="0" mediaItemType="2" />
    <MediaItem id="1014" filePath="C:\Users\owner\Dropbox\Work\png\animation T=1.01014.png" arWidth="640" arHeight="480" duration="0" songTitle="" songArtist="" songAlbum="" songCopyrightUrl="" songArtistUrl="" songAudioFileUrl="" stabilizationMode="0" mediaItemType="2" />
    <MediaItem id="1015" filePath="C:\Users\owner\Dropbox\Work\png\animation T=1.01015.png" arWidth="640" arHeight="480" duration="0" songTitle="" songArtist="" songAlbum="" songCopyrightUrl="" songArtistUrl="" songAudioFileUrl="" stabilizationMode="0" mediaItemType="2" />
    <MediaItem id="1016" filePath="C:\Users\owner\Dropbox\Work\png\animation T=1.01016.png" arWidth="640" arHeight="480" duration="0" songTitle="" songArtist="" songAlbum="" songCopyrightUrl="" songArtistUrl="" songAudioFileUrl="" stabilizationMode="0" mediaItemType="2" />
    <MediaItem id="1017" filePath="C:\Users\owner\Dropbox\Work\png\animation T=1.01017.png" arWidth="640" arHeight="480" duration="0" songTitle="" songArtist="" songAlbum="" songCopyrightUrl="" songArtistUrl="" songAudioFileUrl="" stabilizationMode="0" mediaItemType="2" />
    <MediaItem id="1018" filePath="C:\Users\owner\Dropbox\Work\png\animation T=1.01018.png" arWidth="640" arHeight="480" duration="0" songTitle="" songArtist="" songAlbum="" songCopyrightUrl="" songArtistUrl="" songAudioFileUrl="" stabilizationMode="0" mediaItemType="2" />
    <MediaItem id="1019" filePath="C:\Users\owner\Dropbox\Work\png\animation T=1.01019.png" arWidth="640" arHeight="480" duration="0" songTitle="" songArtist="" songAlbum="" songCopyrightUrl="" songArtistUrl="" songAudioFileUrl="" stabilizationMode="0" mediaItemType="2" />
    <MediaItem id="1020" filePath="C:\Users\owner\Dropbox\Work\png\animation T=1.01020.png" arWidth="640" arHeight="480" duration="0" songTitle="" songArtist="" songAlbum="" songCopyrightUrl="" songArtistUrl="" songAudioFileUrl="" stabilizationMode="0" mediaItemType="2" />
    <MediaItem id="1021" filePath="C:\Users\owner\Dropbox\Work\png\animation T=1.01021.png" arWidth="640" arHeight="480" duration="0" songTitle="" songArtist="" songAlbum="" songCopyrightUrl="" songArtistUrl="" songAudioFileUrl="" stabilizationMode="0" mediaItemType="2" />
    <MediaItem id="1022" filePath="C:\Users\owner\Dropbox\Work\png\animation T=1.01022.png" arWidth="640" arHeight="480" duration="0" songTitle="" songArtist="" songAlbum="" songCopyrightUrl="" songArtistUrl="" songAudioFileUrl="" stabilizationMode="0" mediaItemType="2" />
    <MediaItem id="1023" filePath="C:\Users\owner\Dropbox\Work\png\animation T=1.01023.png" arWidth="640" arHeight="480" duration="0" songTitle="" songArtist="" songAlbum="" songCopyrightUrl="" songArtistUrl="" songAudioFileUrl="" stabilizationMode="0" mediaItemType="2" />
    <MediaItem id="1024" filePath="C:\Users\owner\Dropbox\Work\png\animation T=1.01024.png" arWidth="640" arHeight="480" duration="0" songTitle="" songArtist="" songAlbum="" songCopyrightUrl="" songArtistUrl="" songAudioFileUrl="" stabilizationMode="0" mediaItemType="2" />
    <MediaItem id="1025" filePath="C:\Users\owner\Dropbox\Work\png\animation T=1.01025.png" arWidth="640" arHeight="480" duration="0" songTitle="" songArtist="" songAlbum="" songCopyrightUrl="" songArtistUrl="" songAudioFileUrl="" stabilizationMode="0" mediaItemType="2" />
    <MediaItem id="1026" filePath="C:\Users\owner\Dropbox\Work\png\animation T=1.01026.png" arWidth="640" arHeight="480" duration="0" songTitle="" songArtist="" songAlbum="" songCopyrightUrl="" songArtistUrl="" songAudioFileUrl="" stabilizationMode="0" mediaItemType="2" />
    <MediaItem id="1027" filePath="C:\Users\owner\Dropbox\Work\png\animation T=1.01027.png" arWidth="640" arHeight="480" duration="0" songTitle="" songArtist="" songAlbum="" songCopyrightUrl="" songArtistUrl="" songAudioFileUrl="" stabilizationMode="0" mediaItemType="2" />
    <MediaItem id="1028" filePath="C:\Users\owner\Dropbox\Work\png\animation T=1.01028.png" arWidth="640" arHeight="480" duration="0" songTitle="" songArtist="" songAlbum="" songCopyrightUrl="" songArtistUrl="" songAudioFileUrl="" stabilizationMode="0" mediaItemType="2" />
    <MediaItem id="1029" filePath="C:\Users\owner\Dropbox\Work\png\animation T=1.01029.png" arWidth="640" arHeight="480" duration="0" songTitle="" songArtist="" songAlbum="" songCopyrightUrl="" songArtistUrl="" songAudioFileUrl="" stabilizationMode="0" mediaItemType="2" />
    <MediaItem id="1030" filePath="C:\Users\owner\Dropbox\Work\png\animation T=1.01030.png" arWidth="640" arHeight="480" duration="0" songTitle="" songArtist="" songAlbum="" songCopyrightUrl="" songArtistUrl="" songAudioFileUrl="" stabilizationMode="0" mediaItemType="2" />
    <MediaItem id="1031" filePath="C:\Users\owner\Dropbox\Work\png\animation T=1.01031.png" arWidth="640" arHeight="480" duration="0" songTitle="" songArtist="" songAlbum="" songCopyrightUrl="" songArtistUrl="" songAudioFileUrl="" stabilizationMode="0" mediaItemType="2" />
    <MediaItem id="1032" filePath="C:\Users\owner\Dropbox\Work\png\animation T=1.01032.png" arWidth="640" arHeight="480" duration="0" songTitle="" songArtist="" songAlbum="" songCopyrightUrl="" songArtistUrl="" songAudioFileUrl="" stabilizationMode="0" mediaItemType="2" />
    <MediaItem id="1033" filePath="C:\Users\owner\Dropbox\Work\png\animation T=1.01033.png" arWidth="640" arHeight="480" duration="0" songTitle="" songArtist="" songAlbum="" songCopyrightUrl="" songArtistUrl="" songAudioFileUrl="" stabilizationMode="0" mediaItemType="2" />
    <MediaItem id="1034" filePath="C:\Users\owner\Dropbox\Work\png\animation T=1.01034.png" arWidth="640" arHeight="480" duration="0" songTitle="" songArtist="" songAlbum="" songCopyrightUrl="" songArtistUrl="" songAudioFileUrl="" stabilizationMode="0" mediaItemType="2" />
    <MediaItem id="1035" filePath="C:\Users\owner\Dropbox\Work\png\animation T=1.01035.png" arWidth="640" arHeight="480" duration="0" songTitle="" songArtist="" songAlbum="" songCopyrightUrl="" songArtistUrl="" songAudioFileUrl="" stabilizationMode="0" mediaItemType="2" />
    <MediaItem id="1036" filePath="C:\Users\owner\Dropbox\Work\png\animation T=1.01036.png" arWidth="640" arHeight="480" duration="0" songTitle="" songArtist="" songAlbum="" songCopyrightUrl="" songArtistUrl="" songAudioFileUrl="" stabilizationMode="0" mediaItemType="2" />
    <MediaItem id="1037" filePath="C:\Users\owner\Dropbox\Work\png\animation T=1.01037.png" arWidth="640" arHeight="480" duration="0" songTitle="" songArtist="" songAlbum="" songCopyrightUrl="" songArtistUrl="" songAudioFileUrl="" stabilizationMode="0" mediaItemType="2" />
    <MediaItem id="1038" filePath="C:\Users\owner\Dropbox\Work\png\animation T=1.01038.png" arWidth="640" arHeight="480" duration="0" songTitle="" songArtist="" songAlbum="" songCopyrightUrl="" songArtistUrl="" songAudioFileUrl="" stabilizationMode="0" mediaItemType="2" />
    <MediaItem id="1039" filePath="C:\Users\owner\Dropbox\Work\png\animation T=1.01039.png" arWidth="640" arHeight="480" duration="0" songTitle="" songArtist="" songAlbum="" songCopyrightUrl="" songArtistUrl="" songAudioFileUrl="" stabilizationMode="0" mediaItemType="2" />
    <MediaItem id="1040" filePath="C:\Users\owner\Dropbox\Work\png\animation T=1.01040.png" arWidth="640" arHeight="480" duration="0" songTitle="" songArtist="" songAlbum="" songCopyrightUrl="" songArtistUrl="" songAudioFileUrl="" stabilizationMode="0" mediaItemType="2" />
    <MediaItem id="1041" filePath="C:\Users\owner\Dropbox\Work\png\animation T=1.01041.png" arWidth="640" arHeight="480" duration="0" songTitle="" songArtist="" songAlbum="" songCopyrightUrl="" songArtistUrl="" songAudioFileUrl="" stabilizationMode="0" mediaItemType="2" />
    <MediaItem id="1042" filePath="C:\Users\owner\Dropbox\Work\png\animation T=1.01042.png" arWidth="640" arHeight="480" duration="0" songTitle="" songArtist="" songAlbum="" songCopyrightUrl="" songArtistUrl="" songAudioFileUrl="" stabilizationMode="0" mediaItemType="2" />
    <MediaItem id="1043" filePath="C:\Users\owner\Dropbox\Work\png\animation T=1.01043.png" arWidth="640" arHeight="480" duration="0" songTitle="" songArtist="" songAlbum="" songCopyrightUrl="" songArtistUrl="" songAudioFileUrl="" stabilizationMode="0" mediaItemType="2" />
    <MediaItem id="1044" filePath="C:\Users\owner\Dropbox\Work\png\animation T=1.01044.png" arWidth="640" arHeight="480" duration="0" songTitle="" songArtist="" songAlbum="" songCopyrightUrl="" songArtistUrl="" songAudioFileUrl="" stabilizationMode="0" mediaItemType="2" />
    <MediaItem id="1045" filePath="C:\Users\owner\Dropbox\Work\png\animation T=1.01045.png" arWidth="640" arHeight="480" duration="0" songTitle="" songArtist="" songAlbum="" songCopyrightUrl="" songArtistUrl="" songAudioFileUrl="" stabilizationMode="0" mediaItemType="2" />
    <MediaItem id="1046" filePath="C:\Users\owner\Dropbox\Work\png\animation T=1.01046.png" arWidth="640" arHeight="480" duration="0" songTitle="" songArtist="" songAlbum="" songCopyrightUrl="" songArtistUrl="" songAudioFileUrl="" stabilizationMode="0" mediaItemType="2" />
    <MediaItem id="1047" filePath="C:\Users\owner\Dropbox\Work\png\animation T=1.01047.png" arWidth="640" arHeight="480" duration="0" songTitle="" songArtist="" songAlbum="" songCopyrightUrl="" songArtistUrl="" songAudioFileUrl="" stabilizationMode="0" mediaItemType="2" />
    <MediaItem id="1048" filePath="C:\Users\owner\Dropbox\Work\png\animation T=1.01048.png" arWidth="640" arHeight="480" duration="0" songTitle="" songArtist="" songAlbum="" songCopyrightUrl="" songArtistUrl="" songAudioFileUrl="" stabilizationMode="0" mediaItemType="2" />
    <MediaItem id="1049" filePath="C:\Users\owner\Dropbox\Work\png\animation T=1.01049.png" arWidth="640" arHeight="480" duration="0" songTitle="" songArtist="" songAlbum="" songCopyrightUrl="" songArtistUrl="" songAudioFileUrl="" stabilizationMode="0" mediaItemType="2" />
    <MediaItem id="1050" filePath="C:\Users\owner\Dropbox\Work\png\animation T=1.01050.png" arWidth="640" arHeight="480" duration="0" songTitle="" songArtist="" songAlbum="" songCopyrightUrl="" songArtistUrl="" songAudioFileUrl="" stabilizationMode="0" mediaItemType="2" />
    <MediaItem id="1051" filePath="C:\Users\owner\Dropbox\Work\png\animation T=1.01051.png" arWidth="640" arHeight="480" duration="0" songTitle="" songArtist="" songAlbum="" songCopyrightUrl="" songArtistUrl="" songAudioFileUrl="" stabilizationMode="0" mediaItemType="2" />
    <MediaItem id="1052" filePath="C:\Users\owner\Dropbox\Work\png\animation T=1.01052.png" arWidth="640" arHeight="480" duration="0" songTitle="" songArtist="" songAlbum="" songCopyrightUrl="" songArtistUrl="" songAudioFileUrl="" stabilizationMode="0" mediaItemType="2" />
    <MediaItem id="1053" filePath="C:\Users\owner\Dropbox\Work\png\animation T=1.01053.png" arWidth="640" arHeight="480" duration="0" songTitle="" songArtist="" songAlbum="" songCopyrightUrl="" songArtistUrl="" songAudioFileUrl="" stabilizationMode="0" mediaItemType="2" />
    <MediaItem id="1054" filePath="C:\Users\owner\Dropbox\Work\png\animation T=1.01054.png" arWidth="640" arHeight="480" duration="0" songTitle="" songArtist="" songAlbum="" songCopyrightUrl="" songArtistUrl="" songAudioFileUrl="" stabilizationMode="0" mediaItemType="2" />
    <MediaItem id="1055" filePath="C:\Users\owner\Dropbox\Work\png\animation T=1.01055.png" arWidth="640" arHeight="480" duration="0" songTitle="" songArtist="" songAlbum="" songCopyrightUrl="" songArtistUrl="" songAudioFileUrl="" stabilizationMode="0" mediaItemType="2" />
    <MediaItem id="1056" filePath="C:\Users\owner\Dropbox\Work\png\animation T=1.01056.png" arWidth="640" arHeight="480" duration="0" songTitle="" songArtist="" songAlbum="" songCopyrightUrl="" songArtistUrl="" songAudioFileUrl="" stabilizationMode="0" mediaItemType="2" />
    <MediaItem id="1057" filePath="C:\Users\owner\Dropbox\Work\png\animation T=1.01057.png" arWidth="640" arHeight="480" duration="0" songTitle="" songArtist="" songAlbum="" songCopyrightUrl="" songArtistUrl="" songAudioFileUrl="" stabilizationMode="0" mediaItemType="2" />
    <MediaItem id="1058" filePath="C:\Users\owner\Dropbox\Work\png\animation T=1.01058.png" arWidth="640" arHeight="480" duration="0" songTitle="" songArtist="" songAlbum="" songCopyrightUrl="" songArtistUrl="" songAudioFileUrl="" stabilizationMode="0" mediaItemType="2" />
    <MediaItem id="1059" filePath="C:\Users\owner\Dropbox\Work\png\animation T=1.01059.png" arWidth="640" arHeight="480" duration="0" songTitle="" songArtist="" songAlbum="" songCopyrightUrl="" songArtistUrl="" songAudioFileUrl="" stabilizationMode="0" mediaItemType="2" />
    <MediaItem id="1060" filePath="C:\Users\owner\Dropbox\Work\png\animation T=1.01060.png" arWidth="640" arHeight="480" duration="0" songTitle="" songArtist="" songAlbum="" songCopyrightUrl="" songArtistUrl="" songAudioFileUrl="" stabilizationMode="0" mediaItemType="2" />
    <MediaItem id="1061" filePath="C:\Users\owner\Dropbox\Work\png\animation T=1.01061.png" arWidth="640" arHeight="480" duration="0" songTitle="" songArtist="" songAlbum="" songCopyrightUrl="" songArtistUrl="" songAudioFileUrl="" stabilizationMode="0" mediaItemType="2" />
    <MediaItem id="1062" filePath="C:\Users\owner\Dropbox\Work\png\animation T=1.01062.png" arWidth="640" arHeight="480" duration="0" songTitle="" songArtist="" songAlbum="" songCopyrightUrl="" songArtistUrl="" songAudioFileUrl="" stabilizationMode="0" mediaItemType="2" />
    <MediaItem id="1063" filePath="C:\Users\owner\Dropbox\Work\png\animation T=1.01063.png" arWidth="640" arHeight="480" duration="0" songTitle="" songArtist="" songAlbum="" songCopyrightUrl="" songArtistUrl="" songAudioFileUrl="" stabilizationMode="0" mediaItemType="2" />
    <MediaItem id="1064" filePath="C:\Users\owner\Dropbox\Work\png\animation T=1.01064.png" arWidth="640" arHeight="480" duration="0" songTitle="" songArtist="" songAlbum="" songCopyrightUrl="" songArtistUrl="" songAudioFileUrl="" stabilizationMode="0" mediaItemType="2" />
    <MediaItem id="1065" filePath="C:\Users\owner\Dropbox\Work\png\animation T=1.01065.png" arWidth="640" arHeight="480" duration="0" songTitle="" songArtist="" songAlbum="" songCopyrightUrl="" songArtistUrl="" songAudioFileUrl="" stabilizationMode="0" mediaItemType="2" />
    <MediaItem id="1066" filePath="C:\Users\owner\Dropbox\Work\png\animation T=1.01066.png" arWidth="640" arHeight="480" duration="0" songTitle="" songArtist="" songAlbum="" songCopyrightUrl="" songArtistUrl="" songAudioFileUrl="" stabilizationMode="0" mediaItemType="2" />
    <MediaItem id="1067" filePath="C:\Users\owner\Dropbox\Work\png\animation T=1.01067.png" arWidth="640" arHeight="480" duration="0" songTitle="" songArtist="" songAlbum="" songCopyrightUrl="" songArtistUrl="" songAudioFileUrl="" stabilizationMode="0" mediaItemType="2" />
    <MediaItem id="1068" filePath="C:\Users\owner\Dropbox\Work\png\animation T=1.01068.png" arWidth="640" arHeight="480" duration="0" songTitle="" songArtist="" songAlbum="" songCopyrightUrl="" songArtistUrl="" songAudioFileUrl="" stabilizationMode="0" mediaItemType="2" />
    <MediaItem id="1069" filePath="C:\Users\owner\Dropbox\Work\png\animation T=1.01069.png" arWidth="640" arHeight="480" duration="0" songTitle="" songArtist="" songAlbum="" songCopyrightUrl="" songArtistUrl="" songAudioFileUrl="" stabilizationMode="0" mediaItemType="2" />
    <MediaItem id="1070" filePath="C:\Users\owner\Dropbox\Work\png\animation T=1.01070.png" arWidth="640" arHeight="480" duration="0" songTitle="" songArtist="" songAlbum="" songCopyrightUrl="" songArtistUrl="" songAudioFileUrl="" stabilizationMode="0" mediaItemType="2" />
    <MediaItem id="1071" filePath="C:\Users\owner\Dropbox\Work\png\animation T=1.01071.png" arWidth="640" arHeight="480" duration="0" songTitle="" songArtist="" songAlbum="" songCopyrightUrl="" songArtistUrl="" songAudioFileUrl="" stabilizationMode="0" mediaItemType="2" />
    <MediaItem id="1072" filePath="C:\Users\owner\Dropbox\Work\png\animation T=1.01072.png" arWidth="640" arHeight="480" duration="0" songTitle="" songArtist="" songAlbum="" songCopyrightUrl="" songArtistUrl="" songAudioFileUrl="" stabilizationMode="0" mediaItemType="2" />
    <MediaItem id="1073" filePath="C:\Users\owner\Dropbox\Work\png\animation T=1.01073.png" arWidth="640" arHeight="480" duration="0" songTitle="" songArtist="" songAlbum="" songCopyrightUrl="" songArtistUrl="" songAudioFileUrl="" stabilizationMode="0" mediaItemType="2" />
    <MediaItem id="1074" filePath="C:\Users\owner\Dropbox\Work\png\animation T=1.01074.png" arWidth="640" arHeight="480" duration="0" songTitle="" songArtist="" songAlbum="" songCopyrightUrl="" songArtistUrl="" songAudioFileUrl="" stabilizationMode="0" mediaItemType="2" />
    <MediaItem id="1075" filePath="C:\Users\owner\Dropbox\Work\png\animation T=1.01075.png" arWidth="640" arHeight="480" duration="0" songTitle="" songArtist="" songAlbum="" songCopyrightUrl="" songArtistUrl="" songAudioFileUrl="" stabilizationMode="0" mediaItemType="2" />
    <MediaItem id="1076" filePath="C:\Users\owner\Dropbox\Work\png\animation T=1.01076.png" arWidth="640" arHeight="480" duration="0" songTitle="" songArtist="" songAlbum="" songCopyrightUrl="" songArtistUrl="" songAudioFileUrl="" stabilizationMode="0" mediaItemType="2" />
    <MediaItem id="1077" filePath="C:\Users\owner\Dropbox\Work\png\animation T=1.01077.png" arWidth="640" arHeight="480" duration="0" songTitle="" songArtist="" songAlbum="" songCopyrightUrl="" songArtistUrl="" songAudioFileUrl="" stabilizationMode="0" mediaItemType="2" />
    <MediaItem id="1078" filePath="C:\Users\owner\Dropbox\Work\png\animation T=1.01078.png" arWidth="640" arHeight="480" duration="0" songTitle="" songArtist="" songAlbum="" songCopyrightUrl="" songArtistUrl="" songAudioFileUrl="" stabilizationMode="0" mediaItemType="2" />
    <MediaItem id="1079" filePath="C:\Users\owner\Dropbox\Work\png\animation T=1.01079.png" arWidth="640" arHeight="480" duration="0" songTitle="" songArtist="" songAlbum="" songCopyrightUrl="" songArtistUrl="" songAudioFileUrl="" stabilizationMode="0" mediaItemType="2" />
    <MediaItem id="1080" filePath="C:\Users\owner\Dropbox\Work\png\animation T=1.01080.png" arWidth="640" arHeight="480" duration="0" songTitle="" songArtist="" songAlbum="" songCopyrightUrl="" songArtistUrl="" songAudioFileUrl="" stabilizationMode="0" mediaItemType="2" />
    <MediaItem id="1081" filePath="C:\Users\owner\Dropbox\Work\png\animation T=1.01081.png" arWidth="640" arHeight="480" duration="0" songTitle="" songArtist="" songAlbum="" songCopyrightUrl="" songArtistUrl="" songAudioFileUrl="" stabilizationMode="0" mediaItemType="2" />
    <MediaItem id="1082" filePath="C:\Users\owner\Dropbox\Work\png\animation T=1.01082.png" arWidth="640" arHeight="480" duration="0" songTitle="" songArtist="" songAlbum="" songCopyrightUrl="" songArtistUrl="" songAudioFileUrl="" stabilizationMode="0" mediaItemType="2" />
    <MediaItem id="1083" filePath="C:\Users\owner\Dropbox\Work\png\animation T=1.01083.png" arWidth="640" arHeight="480" duration="0" songTitle="" songArtist="" songAlbum="" songCopyrightUrl="" songArtistUrl="" songAudioFileUrl="" stabilizationMode="0" mediaItemType="2" />
    <MediaItem id="1084" filePath="C:\Users\owner\Dropbox\Work\png\animation T=1.01084.png" arWidth="640" arHeight="480" duration="0" songTitle="" songArtist="" songAlbum="" songCopyrightUrl="" songArtistUrl="" songAudioFileUrl="" stabilizationMode="0" mediaItemType="2" />
    <MediaItem id="1085" filePath="C:\Users\owner\Dropbox\Work\png\animation T=1.01085.png" arWidth="640" arHeight="480" duration="0" songTitle="" songArtist="" songAlbum="" songCopyrightUrl="" songArtistUrl="" songAudioFileUrl="" stabilizationMode="0" mediaItemType="2" />
    <MediaItem id="1086" filePath="C:\Users\owner\Dropbox\Work\png\animation T=1.01086.png" arWidth="640" arHeight="480" duration="0" songTitle="" songArtist="" songAlbum="" songCopyrightUrl="" songArtistUrl="" songAudioFileUrl="" stabilizationMode="0" mediaItemType="2" />
    <MediaItem id="1087" filePath="C:\Users\owner\Dropbox\Work\png\animation T=1.01087.png" arWidth="640" arHeight="480" duration="0" songTitle="" songArtist="" songAlbum="" songCopyrightUrl="" songArtistUrl="" songAudioFileUrl="" stabilizationMode="0" mediaItemType="2" />
    <MediaItem id="1088" filePath="C:\Users\owner\Dropbox\Work\png\animation T=1.01088.png" arWidth="640" arHeight="480" duration="0" songTitle="" songArtist="" songAlbum="" songCopyrightUrl="" songArtistUrl="" songAudioFileUrl="" stabilizationMode="0" mediaItemType="2" />
    <MediaItem id="1089" filePath="C:\Users\owner\Dropbox\Work\png\animation T=1.01089.png" arWidth="640" arHeight="480" duration="0" songTitle="" songArtist="" songAlbum="" songCopyrightUrl="" songArtistUrl="" songAudioFileUrl="" stabilizationMode="0" mediaItemType="2" />
    <MediaItem id="1090" filePath="C:\Users\owner\Dropbox\Work\png\animation T=1.01090.png" arWidth="640" arHeight="480" duration="0" songTitle="" songArtist="" songAlbum="" songCopyrightUrl="" songArtistUrl="" songAudioFileUrl="" stabilizationMode="0" mediaItemType="2" />
    <MediaItem id="1091" filePath="C:\Users\owner\Dropbox\Work\png\animation T=1.01091.png" arWidth="640" arHeight="480" duration="0" songTitle="" songArtist="" songAlbum="" songCopyrightUrl="" songArtistUrl="" songAudioFileUrl="" stabilizationMode="0" mediaItemType="2" />
    <MediaItem id="1092" filePath="C:\Users\owner\Dropbox\Work\png\animation T=1.01092.png" arWidth="640" arHeight="480" duration="0" songTitle="" songArtist="" songAlbum="" songCopyrightUrl="" songArtistUrl="" songAudioFileUrl="" stabilizationMode="0" mediaItemType="2" />
    <MediaItem id="1093" filePath="C:\Users\owner\Dropbox\Work\png\animation T=1.01093.png" arWidth="640" arHeight="480" duration="0" songTitle="" songArtist="" songAlbum="" songCopyrightUrl="" songArtistUrl="" songAudioFileUrl="" stabilizationMode="0" mediaItemType="2" />
    <MediaItem id="1094" filePath="C:\Users\owner\Dropbox\Work\png\animation T=1.01094.png" arWidth="640" arHeight="480" duration="0" songTitle="" songArtist="" songAlbum="" songCopyrightUrl="" songArtistUrl="" songAudioFileUrl="" stabilizationMode="0" mediaItemType="2" />
    <MediaItem id="1095" filePath="C:\Users\owner\Dropbox\Work\png\animation T=1.01095.png" arWidth="640" arHeight="480" duration="0" songTitle="" songArtist="" songAlbum="" songCopyrightUrl="" songArtistUrl="" songAudioFileUrl="" stabilizationMode="0" mediaItemType="2" />
    <MediaItem id="1096" filePath="C:\Users\owner\Dropbox\Work\png\animation T=1.01096.png" arWidth="640" arHeight="480" duration="0" songTitle="" songArtist="" songAlbum="" songCopyrightUrl="" songArtistUrl="" songAudioFileUrl="" stabilizationMode="0" mediaItemType="2" />
    <MediaItem id="1097" filePath="C:\Users\owner\Dropbox\Work\png\animation T=1.01097.png" arWidth="640" arHeight="480" duration="0" songTitle="" songArtist="" songAlbum="" songCopyrightUrl="" songArtistUrl="" songAudioFileUrl="" stabilizationMode="0" mediaItemType="2" />
    <MediaItem id="1098" filePath="C:\Users\owner\Dropbox\Work\png\animation T=1.01098.png" arWidth="640" arHeight="480" duration="0" songTitle="" songArtist="" songAlbum="" songCopyrightUrl="" songArtistUrl="" songAudioFileUrl="" stabilizationMode="0" mediaItemType="2" />
    <MediaItem id="1099" filePath="C:\Users\owner\Dropbox\Work\png\animation T=1.01099.png" arWidth="640" arHeight="480" duration="0" songTitle="" songArtist="" songAlbum="" songCopyrightUrl="" songArtistUrl="" songAudioFileUrl="" stabilizationMode="0" mediaItemType="2" />
    <MediaItem id="1100" filePath="C:\Users\owner\Dropbox\Work\png\animation T=1.01100.png" arWidth="640" arHeight="480" duration="0" songTitle="" songArtist="" songAlbum="" songCopyrightUrl="" songArtistUrl="" songAudioFileUrl="" stabilizationMode="0" mediaItemType="2" />
    <MediaItem id="1101" filePath="C:\Users\owner\Dropbox\Work\png\animation T=1.01101.png" arWidth="640" arHeight="480" duration="0" songTitle="" songArtist="" songAlbum="" songCopyrightUrl="" songArtistUrl="" songAudioFileUrl="" stabilizationMode="0" mediaItemType="2" />
    <MediaItem id="1102" filePath="C:\Users\owner\Dropbox\Work\png\animation T=1.01102.png" arWidth="640" arHeight="480" duration="0" songTitle="" songArtist="" songAlbum="" songCopyrightUrl="" songArtistUrl="" songAudioFileUrl="" stabilizationMode="0" mediaItemType="2" />
    <MediaItem id="1103" filePath="C:\Users\owner\Dropbox\Work\png\animation T=1.01103.png" arWidth="640" arHeight="480" duration="0" songTitle="" songArtist="" songAlbum="" songCopyrightUrl="" songArtistUrl="" songAudioFileUrl="" stabilizationMode="0" mediaItemType="2" />
    <MediaItem id="1104" filePath="C:\Users\owner\Dropbox\Work\png\animation T=1.01104.png" arWidth="640" arHeight="480" duration="0" songTitle="" songArtist="" songAlbum="" songCopyrightUrl="" songArtistUrl="" songAudioFileUrl="" stabilizationMode="0" mediaItemType="2" />
    <MediaItem id="1105" filePath="C:\Users\owner\Dropbox\Work\png\animation T=1.01105.png" arWidth="640" arHeight="480" duration="0" songTitle="" songArtist="" songAlbum="" songCopyrightUrl="" songArtistUrl="" songAudioFileUrl="" stabilizationMode="0" mediaItemType="2" />
    <MediaItem id="1106" filePath="C:\Users\owner\Dropbox\Work\png\animation T=1.01106.png" arWidth="640" arHeight="480" duration="0" songTitle="" songArtist="" songAlbum="" songCopyrightUrl="" songArtistUrl="" songAudioFileUrl="" stabilizationMode="0" mediaItemType="2" />
    <MediaItem id="1107" filePath="C:\Users\owner\Dropbox\Work\png\animation T=1.01107.png" arWidth="640" arHeight="480" duration="0" songTitle="" songArtist="" songAlbum="" songCopyrightUrl="" songArtistUrl="" songAudioFileUrl="" stabilizationMode="0" mediaItemType="2" />
    <MediaItem id="1108" filePath="C:\Users\owner\Dropbox\Work\png\animation T=1.01108.png" arWidth="640" arHeight="480" duration="0" songTitle="" songArtist="" songAlbum="" songCopyrightUrl="" songArtistUrl="" songAudioFileUrl="" stabilizationMode="0" mediaItemType="2" />
    <MediaItem id="1109" filePath="C:\Users\owner\Dropbox\Work\png\animation T=1.01109.png" arWidth="640" arHeight="480" duration="0" songTitle="" songArtist="" songAlbum="" songCopyrightUrl="" songArtistUrl="" songAudioFileUrl="" stabilizationMode="0" mediaItemType="2" />
    <MediaItem id="1110" filePath="C:\Users\owner\Dropbox\Work\png\animation T=1.01110.png" arWidth="640" arHeight="480" duration="0" songTitle="" songArtist="" songAlbum="" songCopyrightUrl="" songArtistUrl="" songAudioFileUrl="" stabilizationMode="0" mediaItemType="2" />
    <MediaItem id="1111" filePath="C:\Users\owner\Dropbox\Work\png\animation T=1.01111.png" arWidth="640" arHeight="480" duration="0" songTitle="" songArtist="" songAlbum="" songCopyrightUrl="" songArtistUrl="" songAudioFileUrl="" stabilizationMode="0" mediaItemType="2" />
    <MediaItem id="1112" filePath="C:\Users\owner\Dropbox\Work\png\animation T=1.01112.png" arWidth="640" arHeight="480" duration="0" songTitle="" songArtist="" songAlbum="" songCopyrightUrl="" songArtistUrl="" songAudioFileUrl="" stabilizationMode="0" mediaItemType="2" />
    <MediaItem id="1113" filePath="C:\Users\owner\Dropbox\Work\png\animation T=1.01113.png" arWidth="640" arHeight="480" duration="0" songTitle="" songArtist="" songAlbum="" songCopyrightUrl="" songArtistUrl="" songAudioFileUrl="" stabilizationMode="0" mediaItemType="2" />
    <MediaItem id="1114" filePath="C:\Users\owner\Dropbox\Work\png\animation T=1.01114.png" arWidth="640" arHeight="480" duration="0" songTitle="" songArtist="" songAlbum="" songCopyrightUrl="" songArtistUrl="" songAudioFileUrl="" stabilizationMode="0" mediaItemType="2" />
    <MediaItem id="1115" filePath="C:\Users\owner\Dropbox\Work\png\animation T=1.01115.png" arWidth="640" arHeight="480" duration="0" songTitle="" songArtist="" songAlbum="" songCopyrightUrl="" songArtistUrl="" songAudioFileUrl="" stabilizationMode="0" mediaItemType="2" />
    <MediaItem id="1116" filePath="C:\Users\owner\Dropbox\Work\png\animation T=1.01116.png" arWidth="640" arHeight="480" duration="0" songTitle="" songArtist="" songAlbum="" songCopyrightUrl="" songArtistUrl="" songAudioFileUrl="" stabilizationMode="0" mediaItemType="2" />
    <MediaItem id="1117" filePath="C:\Users\owner\Dropbox\Work\png\animation T=1.01117.png" arWidth="640" arHeight="480" duration="0" songTitle="" songArtist="" songAlbum="" songCopyrightUrl="" songArtistUrl="" songAudioFileUrl="" stabilizationMode="0" mediaItemType="2" />
    <MediaItem id="1118" filePath="C:\Users\owner\Dropbox\Work\png\animation T=1.01118.png" arWidth="640" arHeight="480" duration="0" songTitle="" songArtist="" songAlbum="" songCopyrightUrl="" songArtistUrl="" songAudioFileUrl="" stabilizationMode="0" mediaItemType="2" />
    <MediaItem id="1119" filePath="C:\Users\owner\Dropbox\Work\png\animation T=1.01119.png" arWidth="640" arHeight="480" duration="0" songTitle="" songArtist="" songAlbum="" songCopyrightUrl="" songArtistUrl="" songAudioFileUrl="" stabilizationMode="0" mediaItemType="2" />
    <MediaItem id="1120" filePath="C:\Users\owner\Dropbox\Work\png\animation T=1.01120.png" arWidth="640" arHeight="480" duration="0" songTitle="" songArtist="" songAlbum="" songCopyrightUrl="" songArtistUrl="" songAudioFileUrl="" stabilizationMode="0" mediaItemType="2" />
    <MediaItem id="1121" filePath="C:\Users\owner\Dropbox\Work\png\animation T=1.01121.png" arWidth="640" arHeight="480" duration="0" songTitle="" songArtist="" songAlbum="" songCopyrightUrl="" songArtistUrl="" songAudioFileUrl="" stabilizationMode="0" mediaItemType="2" />
    <MediaItem id="1122" filePath="C:\Users\owner\Dropbox\Work\png\animation T=1.01122.png" arWidth="640" arHeight="480" duration="0" songTitle="" songArtist="" songAlbum="" songCopyrightUrl="" songArtistUrl="" songAudioFileUrl="" stabilizationMode="0" mediaItemType="2" />
    <MediaItem id="1123" filePath="C:\Users\owner\Dropbox\Work\png\animation T=1.01123.png" arWidth="640" arHeight="480" duration="0" songTitle="" songArtist="" songAlbum="" songCopyrightUrl="" songArtistUrl="" songAudioFileUrl="" stabilizationMode="0" mediaItemType="2" />
    <MediaItem id="1124" filePath="C:\Users\owner\Dropbox\Work\png\animation T=1.01124.png" arWidth="640" arHeight="480" duration="0" songTitle="" songArtist="" songAlbum="" songCopyrightUrl="" songArtistUrl="" songAudioFileUrl="" stabilizationMode="0" mediaItemType="2" />
    <MediaItem id="1125" filePath="C:\Users\owner\Dropbox\Work\png\animation T=1.01125.png" arWidth="640" arHeight="480" duration="0" songTitle="" songArtist="" songAlbum="" songCopyrightUrl="" songArtistUrl="" songAudioFileUrl="" stabilizationMode="0" mediaItemType="2" />
    <MediaItem id="1126" filePath="C:\Users\owner\Dropbox\Work\png\animation T=1.01126.png" arWidth="640" arHeight="480" duration="0" songTitle="" songArtist="" songAlbum="" songCopyrightUrl="" songArtistUrl="" songAudioFileUrl="" stabilizationMode="0" mediaItemType="2" />
    <MediaItem id="1127" filePath="C:\Users\owner\Dropbox\Work\png\animation T=1.01127.png" arWidth="640" arHeight="480" duration="0" songTitle="" songArtist="" songAlbum="" songCopyrightUrl="" songArtistUrl="" songAudioFileUrl="" stabilizationMode="0" mediaItemType="2" />
    <MediaItem id="1128" filePath="C:\Users\owner\Dropbox\Work\png\animation T=1.01128.png" arWidth="640" arHeight="480" duration="0" songTitle="" songArtist="" songAlbum="" songCopyrightUrl="" songArtistUrl="" songAudioFileUrl="" stabilizationMode="0" mediaItemType="2" />
    <MediaItem id="1129" filePath="C:\Users\owner\Dropbox\Work\png\animation T=1.01129.png" arWidth="640" arHeight="480" duration="0" songTitle="" songArtist="" songAlbum="" songCopyrightUrl="" songArtistUrl="" songAudioFileUrl="" stabilizationMode="0" mediaItemType="2" />
    <MediaItem id="1130" filePath="C:\Users\owner\Dropbox\Work\png\animation T=1.01130.png" arWidth="640" arHeight="480" duration="0" songTitle="" songArtist="" songAlbum="" songCopyrightUrl="" songArtistUrl="" songAudioFileUrl="" stabilizationMode="0" mediaItemType="2" />
    <MediaItem id="1131" filePath="C:\Users\owner\Dropbox\Work\png\animation T=1.01131.png" arWidth="640" arHeight="480" duration="0" songTitle="" songArtist="" songAlbum="" songCopyrightUrl="" songArtistUrl="" songAudioFileUrl="" stabilizationMode="0" mediaItemType="2" />
    <MediaItem id="1132" filePath="C:\Users\owner\Dropbox\Work\png\animation T=1.01132.png" arWidth="640" arHeight="480" duration="0" songTitle="" songArtist="" songAlbum="" songCopyrightUrl="" songArtistUrl="" songAudioFileUrl="" stabilizationMode="0" mediaItemType="2" />
    <MediaItem id="1133" filePath="C:\Users\owner\Dropbox\Work\png\animation T=1.01133.png" arWidth="640" arHeight="480" duration="0" songTitle="" songArtist="" songAlbum="" songCopyrightUrl="" songArtistUrl="" songAudioFileUrl="" stabilizationMode="0" mediaItemType="2" />
    <MediaItem id="1134" filePath="C:\Users\owner\Dropbox\Work\png\animation T=1.01134.png" arWidth="640" arHeight="480" duration="0" songTitle="" songArtist="" songAlbum="" songCopyrightUrl="" songArtistUrl="" songAudioFileUrl="" stabilizationMode="0" mediaItemType="2" />
    <MediaItem id="1135" filePath="C:\Users\owner\Dropbox\Work\png\animation T=1.01135.png" arWidth="640" arHeight="480" duration="0" songTitle="" songArtist="" songAlbum="" songCopyrightUrl="" songArtistUrl="" songAudioFileUrl="" stabilizationMode="0" mediaItemType="2" />
    <MediaItem id="1136" filePath="C:\Users\owner\Dropbox\Work\png\animation T=1.01136.png" arWidth="640" arHeight="480" duration="0" songTitle="" songArtist="" songAlbum="" songCopyrightUrl="" songArtistUrl="" songAudioFileUrl="" stabilizationMode="0" mediaItemType="2" />
    <MediaItem id="1137" filePath="C:\Users\owner\Dropbox\Work\png\animation T=1.01137.png" arWidth="640" arHeight="480" duration="0" songTitle="" songArtist="" songAlbum="" songCopyrightUrl="" songArtistUrl="" songAudioFileUrl="" stabilizationMode="0" mediaItemType="2" />
    <MediaItem id="1138" filePath="C:\Users\owner\Dropbox\Work\png\animation T=1.01138.png" arWidth="640" arHeight="480" duration="0" songTitle="" songArtist="" songAlbum="" songCopyrightUrl="" songArtistUrl="" songAudioFileUrl="" stabilizationMode="0" mediaItemType="2" />
    <MediaItem id="1139" filePath="C:\Users\owner\Dropbox\Work\png\animation T=1.01139.png" arWidth="640" arHeight="480" duration="0" songTitle="" songArtist="" songAlbum="" songCopyrightUrl="" songArtistUrl="" songAudioFileUrl="" stabilizationMode="0" mediaItemType="2" />
    <MediaItem id="1140" filePath="C:\Users\owner\Dropbox\Work\png\animation T=1.01140.png" arWidth="640" arHeight="480" duration="0" songTitle="" songArtist="" songAlbum="" songCopyrightUrl="" songArtistUrl="" songAudioFileUrl="" stabilizationMode="0" mediaItemType="2" />
    <MediaItem id="1141" filePath="C:\Users\owner\Dropbox\Work\png\animation T=1.01141.png" arWidth="640" arHeight="480" duration="0" songTitle="" songArtist="" songAlbum="" songCopyrightUrl="" songArtistUrl="" songAudioFileUrl="" stabilizationMode="0" mediaItemType="2" />
    <MediaItem id="1142" filePath="C:\Users\owner\Dropbox\Work\png\animation T=1.01142.png" arWidth="640" arHeight="480" duration="0" songTitle="" songArtist="" songAlbum="" songCopyrightUrl="" songArtistUrl="" songAudioFileUrl="" stabilizationMode="0" mediaItemType="2" />
    <MediaItem id="1143" filePath="C:\Users\owner\Dropbox\Work\png\animation T=1.01143.png" arWidth="640" arHeight="480" duration="0" songTitle="" songArtist="" songAlbum="" songCopyrightUrl="" songArtistUrl="" songAudioFileUrl="" stabilizationMode="0" mediaItemType="2" />
    <MediaItem id="1144" filePath="C:\Users\owner\Dropbox\Work\png\animation T=1.01144.png" arWidth="640" arHeight="480" duration="0" songTitle="" songArtist="" songAlbum="" songCopyrightUrl="" songArtistUrl="" songAudioFileUrl="" stabilizationMode="0" mediaItemType="2" />
    <MediaItem id="1145" filePath="C:\Users\owner\Dropbox\Work\png\animation T=1.01145.png" arWidth="640" arHeight="480" duration="0" songTitle="" songArtist="" songAlbum="" songCopyrightUrl="" songArtistUrl="" songAudioFileUrl="" stabilizationMode="0" mediaItemType="2" />
    <MediaItem id="1146" filePath="C:\Users\owner\Dropbox\Work\png\animation T=1.01146.png" arWidth="640" arHeight="480" duration="0" songTitle="" songArtist="" songAlbum="" songCopyrightUrl="" songArtistUrl="" songAudioFileUrl="" stabilizationMode="0" mediaItemType="2" />
    <MediaItem id="1147" filePath="C:\Users\owner\Dropbox\Work\png\animation T=1.01147.png" arWidth="640" arHeight="480" duration="0" songTitle="" songArtist="" songAlbum="" songCopyrightUrl="" songArtistUrl="" songAudioFileUrl="" stabilizationMode="0" mediaItemType="2" />
    <MediaItem id="1148" filePath="C:\Users\owner\Dropbox\Work\png\animation T=1.01148.png" arWidth="640" arHeight="480" duration="0" songTitle="" songArtist="" songAlbum="" songCopyrightUrl="" songArtistUrl="" songAudioFileUrl="" stabilizationMode="0" mediaItemType="2" />
    <MediaItem id="1149" filePath="C:\Users\owner\Dropbox\Work\png\animation T=1.01149.png" arWidth="640" arHeight="480" duration="0" songTitle="" songArtist="" songAlbum="" songCopyrightUrl="" songArtistUrl="" songAudioFileUrl="" stabilizationMode="0" mediaItemType="2" />
    <MediaItem id="1150" filePath="C:\Users\owner\Dropbox\Work\png\animation T=1.01150.png" arWidth="640" arHeight="480" duration="0" songTitle="" songArtist="" songAlbum="" songCopyrightUrl="" songArtistUrl="" songAudioFileUrl="" stabilizationMode="0" mediaItemType="2" />
    <MediaItem id="1151" filePath="C:\Users\owner\Dropbox\Work\png\animation T=1.01151.png" arWidth="640" arHeight="480" duration="0" songTitle="" songArtist="" songAlbum="" songCopyrightUrl="" songArtistUrl="" songAudioFileUrl="" stabilizationMode="0" mediaItemType="2" />
    <MediaItem id="1152" filePath="C:\Users\owner\Dropbox\Work\png\animation T=1.01152.png" arWidth="640" arHeight="480" duration="0" songTitle="" songArtist="" songAlbum="" songCopyrightUrl="" songArtistUrl="" songAudioFileUrl="" stabilizationMode="0" mediaItemType="2" />
    <MediaItem id="1153" filePath="C:\Users\owner\Dropbox\Work\png\animation T=1.01153.png" arWidth="640" arHeight="480" duration="0" songTitle="" songArtist="" songAlbum="" songCopyrightUrl="" songArtistUrl="" songAudioFileUrl="" stabilizationMode="0" mediaItemType="2" />
    <MediaItem id="1154" filePath="C:\Users\owner\Dropbox\Work\png\animation T=1.01154.png" arWidth="640" arHeight="480" duration="0" songTitle="" songArtist="" songAlbum="" songCopyrightUrl="" songArtistUrl="" songAudioFileUrl="" stabilizationMode="0" mediaItemType="2" />
    <MediaItem id="1155" filePath="C:\Users\owner\Dropbox\Work\png\animation T=1.01155.png" arWidth="640" arHeight="480" duration="0" songTitle="" songArtist="" songAlbum="" songCopyrightUrl="" songArtistUrl="" songAudioFileUrl="" stabilizationMode="0" mediaItemType="2" />
    <MediaItem id="1156" filePath="C:\Users\owner\Dropbox\Work\png\animation T=1.01156.png" arWidth="640" arHeight="480" duration="0" songTitle="" songArtist="" songAlbum="" songCopyrightUrl="" songArtistUrl="" songAudioFileUrl="" stabilizationMode="0" mediaItemType="2" />
    <MediaItem id="1157" filePath="C:\Users\owner\Dropbox\Work\png\animation T=1.01157.png" arWidth="640" arHeight="480" duration="0" songTitle="" songArtist="" songAlbum="" songCopyrightUrl="" songArtistUrl="" songAudioFileUrl="" stabilizationMode="0" mediaItemType="2" />
    <MediaItem id="1158" filePath="C:\Users\owner\Dropbox\Work\png\animation T=1.01158.png" arWidth="640" arHeight="480" duration="0" songTitle="" songArtist="" songAlbum="" songCopyrightUrl="" songArtistUrl="" songAudioFileUrl="" stabilizationMode="0" mediaItemType="2" />
    <MediaItem id="1159" filePath="C:\Users\owner\Dropbox\Work\png\animation T=1.01159.png" arWidth="640" arHeight="480" duration="0" songTitle="" songArtist="" songAlbum="" songCopyrightUrl="" songArtistUrl="" songAudioFileUrl="" stabilizationMode="0" mediaItemType="2" />
    <MediaItem id="1160" filePath="C:\Users\owner\Dropbox\Work\png\animation T=1.01160.png" arWidth="640" arHeight="480" duration="0" songTitle="" songArtist="" songAlbum="" songCopyrightUrl="" songArtistUrl="" songAudioFileUrl="" stabilizationMode="0" mediaItemType="2" />
    <MediaItem id="1161" filePath="C:\Users\owner\Dropbox\Work\png\animation T=1.01161.png" arWidth="640" arHeight="480" duration="0" songTitle="" songArtist="" songAlbum="" songCopyrightUrl="" songArtistUrl="" songAudioFileUrl="" stabilizationMode="0" mediaItemType="2" />
    <MediaItem id="1162" filePath="C:\Users\owner\Dropbox\Work\png\animation T=1.01162.png" arWidth="640" arHeight="480" duration="0" songTitle="" songArtist="" songAlbum="" songCopyrightUrl="" songArtistUrl="" songAudioFileUrl="" stabilizationMode="0" mediaItemType="2" />
    <MediaItem id="1163" filePath="C:\Users\owner\Dropbox\Work\png\animation T=1.01163.png" arWidth="640" arHeight="480" duration="0" songTitle="" songArtist="" songAlbum="" songCopyrightUrl="" songArtistUrl="" songAudioFileUrl="" stabilizationMode="0" mediaItemType="2" />
    <MediaItem id="1164" filePath="C:\Users\owner\Dropbox\Work\png\animation T=1.01164.png" arWidth="640" arHeight="480" duration="0" songTitle="" songArtist="" songAlbum="" songCopyrightUrl="" songArtistUrl="" songAudioFileUrl="" stabilizationMode="0" mediaItemType="2" />
    <MediaItem id="1165" filePath="C:\Users\owner\Dropbox\Work\png\animation T=1.01165.png" arWidth="640" arHeight="480" duration="0" songTitle="" songArtist="" songAlbum="" songCopyrightUrl="" songArtistUrl="" songAudioFileUrl="" stabilizationMode="0" mediaItemType="2" />
    <MediaItem id="1166" filePath="C:\Users\owner\Dropbox\Work\png\animation T=1.01166.png" arWidth="640" arHeight="480" duration="0" songTitle="" songArtist="" songAlbum="" songCopyrightUrl="" songArtistUrl="" songAudioFileUrl="" stabilizationMode="0" mediaItemType="2" />
    <MediaItem id="1167" filePath="C:\Users\owner\Dropbox\Work\png\animation T=1.01167.png" arWidth="640" arHeight="480" duration="0" songTitle="" songArtist="" songAlbum="" songCopyrightUrl="" songArtistUrl="" songAudioFileUrl="" stabilizationMode="0" mediaItemType="2" />
    <MediaItem id="1168" filePath="C:\Users\owner\Dropbox\Work\png\animation T=1.01168.png" arWidth="640" arHeight="480" duration="0" songTitle="" songArtist="" songAlbum="" songCopyrightUrl="" songArtistUrl="" songAudioFileUrl="" stabilizationMode="0" mediaItemType="2" />
    <MediaItem id="1169" filePath="C:\Users\owner\Dropbox\Work\png\animation T=1.01169.png" arWidth="640" arHeight="480" duration="0" songTitle="" songArtist="" songAlbum="" songCopyrightUrl="" songArtistUrl="" songAudioFileUrl="" stabilizationMode="0" mediaItemType="2" />
    <MediaItem id="1170" filePath="C:\Users\owner\Dropbox\Work\png\animation T=1.01170.png" arWidth="640" arHeight="480" duration="0" songTitle="" songArtist="" songAlbum="" songCopyrightUrl="" songArtistUrl="" songAudioFileUrl="" stabilizationMode="0" mediaItemType="2" />
    <MediaItem id="1171" filePath="C:\Users\owner\Dropbox\Work\png\animation T=1.01171.png" arWidth="640" arHeight="480" duration="0" songTitle="" songArtist="" songAlbum="" songCopyrightUrl="" songArtistUrl="" songAudioFileUrl="" stabilizationMode="0" mediaItemType="2" />
    <MediaItem id="1172" filePath="C:\Users\owner\Dropbox\Work\png\animation T=1.01172.png" arWidth="640" arHeight="480" duration="0" songTitle="" songArtist="" songAlbum="" songCopyrightUrl="" songArtistUrl="" songAudioFileUrl="" stabilizationMode="0" mediaItemType="2" />
    <MediaItem id="1173" filePath="C:\Users\owner\Dropbox\Work\png\animation T=1.01173.png" arWidth="640" arHeight="480" duration="0" songTitle="" songArtist="" songAlbum="" songCopyrightUrl="" songArtistUrl="" songAudioFileUrl="" stabilizationMode="0" mediaItemType="2" />
    <MediaItem id="1174" filePath="C:\Users\owner\Dropbox\Work\png\animation T=1.01174.png" arWidth="640" arHeight="480" duration="0" songTitle="" songArtist="" songAlbum="" songCopyrightUrl="" songArtistUrl="" songAudioFileUrl="" stabilizationMode="0" mediaItemType="2" />
    <MediaItem id="1175" filePath="C:\Users\owner\Dropbox\Work\png\animation T=1.01175.png" arWidth="640" arHeight="480" duration="0" songTitle="" songArtist="" songAlbum="" songCopyrightUrl="" songArtistUrl="" songAudioFileUrl="" stabilizationMode="0" mediaItemType="2" />
    <MediaItem id="1176" filePath="C:\Users\owner\Dropbox\Work\png\animation T=1.01176.png" arWidth="640" arHeight="480" duration="0" songTitle="" songArtist="" songAlbum="" songCopyrightUrl="" songArtistUrl="" songAudioFileUrl="" stabilizationMode="0" mediaItemType="2" />
    <MediaItem id="1177" filePath="C:\Users\owner\Dropbox\Work\png\animation T=1.01177.png" arWidth="640" arHeight="480" duration="0" songTitle="" songArtist="" songAlbum="" songCopyrightUrl="" songArtistUrl="" songAudioFileUrl="" stabilizationMode="0" mediaItemType="2" />
    <MediaItem id="1178" filePath="C:\Users\owner\Dropbox\Work\png\animation T=1.01178.png" arWidth="640" arHeight="480" duration="0" songTitle="" songArtist="" songAlbum="" songCopyrightUrl="" songArtistUrl="" songAudioFileUrl="" stabilizationMode="0" mediaItemType="2" />
    <MediaItem id="1179" filePath="C:\Users\owner\Dropbox\Work\png\animation T=1.01179.png" arWidth="640" arHeight="480" duration="0" songTitle="" songArtist="" songAlbum="" songCopyrightUrl="" songArtistUrl="" songAudioFileUrl="" stabilizationMode="0" mediaItemType="2" />
    <MediaItem id="1180" filePath="C:\Users\owner\Dropbox\Work\png\animation T=1.01180.png" arWidth="640" arHeight="480" duration="0" songTitle="" songArtist="" songAlbum="" songCopyrightUrl="" songArtistUrl="" songAudioFileUrl="" stabilizationMode="0" mediaItemType="2" />
    <MediaItem id="1181" filePath="C:\Users\owner\Dropbox\Work\png\animation T=1.01181.png" arWidth="640" arHeight="480" duration="0" songTitle="" songArtist="" songAlbum="" songCopyrightUrl="" songArtistUrl="" songAudioFileUrl="" stabilizationMode="0" mediaItemType="2" />
    <MediaItem id="1182" filePath="C:\Users\owner\Dropbox\Work\png\animation T=1.01182.png" arWidth="640" arHeight="480" duration="0" songTitle="" songArtist="" songAlbum="" songCopyrightUrl="" songArtistUrl="" songAudioFileUrl="" stabilizationMode="0" mediaItemType="2" />
    <MediaItem id="1183" filePath="C:\Users\owner\Dropbox\Work\png\animation T=1.01183.png" arWidth="640" arHeight="480" duration="0" songTitle="" songArtist="" songAlbum="" songCopyrightUrl="" songArtistUrl="" songAudioFileUrl="" stabilizationMode="0" mediaItemType="2" />
    <MediaItem id="1184" filePath="C:\Users\owner\Dropbox\Work\png\animation T=1.01184.png" arWidth="640" arHeight="480" duration="0" songTitle="" songArtist="" songAlbum="" songCopyrightUrl="" songArtistUrl="" songAudioFileUrl="" stabilizationMode="0" mediaItemType="2" />
    <MediaItem id="1185" filePath="C:\Users\owner\Dropbox\Work\png\animation T=1.01185.png" arWidth="640" arHeight="480" duration="0" songTitle="" songArtist="" songAlbum="" songCopyrightUrl="" songArtistUrl="" songAudioFileUrl="" stabilizationMode="0" mediaItemType="2" />
    <MediaItem id="1186" filePath="C:\Users\owner\Dropbox\Work\png\animation T=1.01186.png" arWidth="640" arHeight="480" duration="0" songTitle="" songArtist="" songAlbum="" songCopyrightUrl="" songArtistUrl="" songAudioFileUrl="" stabilizationMode="0" mediaItemType="2" />
    <MediaItem id="1187" filePath="C:\Users\owner\Dropbox\Work\png\animation T=1.01187.png" arWidth="640" arHeight="480" duration="0" songTitle="" songArtist="" songAlbum="" songCopyrightUrl="" songArtistUrl="" songAudioFileUrl="" stabilizationMode="0" mediaItemType="2" />
    <MediaItem id="1188" filePath="C:\Users\owner\Dropbox\Work\png\animation T=1.01188.png" arWidth="640" arHeight="480" duration="0" songTitle="" songArtist="" songAlbum="" songCopyrightUrl="" songArtistUrl="" songAudioFileUrl="" stabilizationMode="0" mediaItemType="2" />
    <MediaItem id="1189" filePath="C:\Users\owner\Dropbox\Work\png\animation T=1.01189.png" arWidth="640" arHeight="480" duration="0" songTitle="" songArtist="" songAlbum="" songCopyrightUrl="" songArtistUrl="" songAudioFileUrl="" stabilizationMode="0" mediaItemType="2" />
    <MediaItem id="1190" filePath="C:\Users\owner\Dropbox\Work\png\animation T=1.01190.png" arWidth="640" arHeight="480" duration="0" songTitle="" songArtist="" songAlbum="" songCopyrightUrl="" songArtistUrl="" songAudioFileUrl="" stabilizationMode="0" mediaItemType="2" />
    <MediaItem id="1191" filePath="C:\Users\owner\Dropbox\Work\png\animation T=1.01191.png" arWidth="640" arHeight="480" duration="0" songTitle="" songArtist="" songAlbum="" songCopyrightUrl="" songArtistUrl="" songAudioFileUrl="" stabilizationMode="0" mediaItemType="2" />
    <MediaItem id="1192" filePath="C:\Users\owner\Dropbox\Work\png\animation T=1.01192.png" arWidth="640" arHeight="480" duration="0" songTitle="" songArtist="" songAlbum="" songCopyrightUrl="" songArtistUrl="" songAudioFileUrl="" stabilizationMode="0" mediaItemType="2" />
    <MediaItem id="1193" filePath="C:\Users\owner\Dropbox\Work\png\animation T=1.01193.png" arWidth="640" arHeight="480" duration="0" songTitle="" songArtist="" songAlbum="" songCopyrightUrl="" songArtistUrl="" songAudioFileUrl="" stabilizationMode="0" mediaItemType="2" />
    <MediaItem id="1194" filePath="C:\Users\owner\Dropbox\Work\png\animation T=1.01194.png" arWidth="640" arHeight="480" duration="0" songTitle="" songArtist="" songAlbum="" songCopyrightUrl="" songArtistUrl="" songAudioFileUrl="" stabilizationMode="0" mediaItemType="2" />
    <MediaItem id="1195" filePath="C:\Users\owner\Dropbox\Work\png\animation T=1.01195.png" arWidth="640" arHeight="480" duration="0" songTitle="" songArtist="" songAlbum="" songCopyrightUrl="" songArtistUrl="" songAudioFileUrl="" stabilizationMode="0" mediaItemType="2" />
    <MediaItem id="1196" filePath="C:\Users\owner\Dropbox\Work\png\animation T=1.01196.png" arWidth="640" arHeight="480" duration="0" songTitle="" songArtist="" songAlbum="" songCopyrightUrl="" songArtistUrl="" songAudioFileUrl="" stabilizationMode="0" mediaItemType="2" />
    <MediaItem id="1197" filePath="C:\Users\owner\Dropbox\Work\png\animation T=1.01197.png" arWidth="640" arHeight="480" duration="0" songTitle="" songArtist="" songAlbum="" songCopyrightUrl="" songArtistUrl="" songAudioFileUrl="" stabilizationMode="0" mediaItemType="2" />
    <MediaItem id="1198" filePath="C:\Users\owner\Dropbox\Work\png\animation T=1.01198.png" arWidth="640" arHeight="480" duration="0" songTitle="" songArtist="" songAlbum="" songCopyrightUrl="" songArtistUrl="" songAudioFileUrl="" stabilizationMode="0" mediaItemType="2" />
    <MediaItem id="1199" filePath="C:\Users\owner\Dropbox\Work\png\animation T=1.01199.png" arWidth="640" arHeight="480" duration="0" songTitle="" songArtist="" songAlbum="" songCopyrightUrl="" songArtistUrl="" songAudioFileUrl="" stabilizationMode="0" mediaItemType="2" />
    <MediaItem id="1200" filePath="C:\Users\owner\Dropbox\Work\png\animation T=1.01200.png" arWidth="640" arHeight="480" duration="0" songTitle="" songArtist="" songAlbum="" songCopyrightUrl="" songArtistUrl="" songAudioFileUrl="" stabilizationMode="0" mediaItemType="2" />
    <MediaItem id="1201" filePath="C:\Users\owner\Dropbox\Work\png\animation T=1.01201.png" arWidth="640" arHeight="480" duration="0" songTitle="" songArtist="" songAlbum="" songCopyrightUrl="" songArtistUrl="" songAudioFileUrl="" stabilizationMode="0" mediaItemType="2" />
    <MediaItem id="1202" filePath="C:\Users\owner\Dropbox\Work\png\animation T=1.01202.png" arWidth="640" arHeight="480" duration="0" songTitle="" songArtist="" songAlbum="" songCopyrightUrl="" songArtistUrl="" songAudioFileUrl="" stabilizationMode="0" mediaItemType="2" />
    <MediaItem id="1203" filePath="C:\Users\owner\Dropbox\Work\png\animation T=1.01203.png" arWidth="640" arHeight="480" duration="0" songTitle="" songArtist="" songAlbum="" songCopyrightUrl="" songArtistUrl="" songAudioFileUrl="" stabilizationMode="0" mediaItemType="2" />
    <MediaItem id="1204" filePath="C:\Users\owner\Dropbox\Work\png\animation T=1.01204.png" arWidth="640" arHeight="480" duration="0" songTitle="" songArtist="" songAlbum="" songCopyrightUrl="" songArtistUrl="" songAudioFileUrl="" stabilizationMode="0" mediaItemType="2" />
    <MediaItem id="1205" filePath="C:\Users\owner\Dropbox\Work\png\animation T=1.01205.png" arWidth="640" arHeight="480" duration="0" songTitle="" songArtist="" songAlbum="" songCopyrightUrl="" songArtistUrl="" songAudioFileUrl="" stabilizationMode="0" mediaItemType="2" />
    <MediaItem id="1206" filePath="C:\Users\owner\Dropbox\Work\png\animation T=1.01206.png" arWidth="640" arHeight="480" duration="0" songTitle="" songArtist="" songAlbum="" songCopyrightUrl="" songArtistUrl="" songAudioFileUrl="" stabilizationMode="0" mediaItemType="2" />
    <MediaItem id="1207" filePath="C:\Users\owner\Dropbox\Work\png\animation T=1.01207.png" arWidth="640" arHeight="480" duration="0" songTitle="" songArtist="" songAlbum="" songCopyrightUrl="" songArtistUrl="" songAudioFileUrl="" stabilizationMode="0" mediaItemType="2" />
    <MediaItem id="1208" filePath="C:\Users\owner\Dropbox\Work\png\animation T=1.01208.png" arWidth="640" arHeight="480" duration="0" songTitle="" songArtist="" songAlbum="" songCopyrightUrl="" songArtistUrl="" songAudioFileUrl="" stabilizationMode="0" mediaItemType="2" />
    <MediaItem id="1209" filePath="C:\Users\owner\Dropbox\Work\png\animation T=1.01209.png" arWidth="640" arHeight="480" duration="0" songTitle="" songArtist="" songAlbum="" songCopyrightUrl="" songArtistUrl="" songAudioFileUrl="" stabilizationMode="0" mediaItemType="2" />
    <MediaItem id="1210" filePath="C:\Users\owner\Dropbox\Work\png\animation T=1.01210.png" arWidth="640" arHeight="480" duration="0" songTitle="" songArtist="" songAlbum="" songCopyrightUrl="" songArtistUrl="" songAudioFileUrl="" stabilizationMode="0" mediaItemType="2" />
    <MediaItem id="1211" filePath="C:\Users\owner\Dropbox\Work\png\animation T=1.01211.png" arWidth="640" arHeight="480" duration="0" songTitle="" songArtist="" songAlbum="" songCopyrightUrl="" songArtistUrl="" songAudioFileUrl="" stabilizationMode="0" mediaItemType="2" />
    <MediaItem id="1212" filePath="C:\Users\owner\Dropbox\Work\png\animation T=1.01212.png" arWidth="640" arHeight="480" duration="0" songTitle="" songArtist="" songAlbum="" songCopyrightUrl="" songArtistUrl="" songAudioFileUrl="" stabilizationMode="0" mediaItemType="2" />
    <MediaItem id="1213" filePath="C:\Users\owner\Dropbox\Work\png\animation T=1.01213.png" arWidth="640" arHeight="480" duration="0" songTitle="" songArtist="" songAlbum="" songCopyrightUrl="" songArtistUrl="" songAudioFileUrl="" stabilizationMode="0" mediaItemType="2" />
    <MediaItem id="1214" filePath="C:\Users\owner\Dropbox\Work\png\animation T=1.01214.png" arWidth="640" arHeight="480" duration="0" songTitle="" songArtist="" songAlbum="" songCopyrightUrl="" songArtistUrl="" songAudioFileUrl="" stabilizationMode="0" mediaItemType="2" />
    <MediaItem id="1215" filePath="C:\Users\owner\Dropbox\Work\png\animation T=1.01215.png" arWidth="640" arHeight="480" duration="0" songTitle="" songArtist="" songAlbum="" songCopyrightUrl="" songArtistUrl="" songAudioFileUrl="" stabilizationMode="0" mediaItemType="2" />
    <MediaItem id="1216" filePath="C:\Users\owner\Dropbox\Work\png\animation T=1.01216.png" arWidth="640" arHeight="480" duration="0" songTitle="" songArtist="" songAlbum="" songCopyrightUrl="" songArtistUrl="" songAudioFileUrl="" stabilizationMode="0" mediaItemType="2" />
    <MediaItem id="1217" filePath="C:\Users\owner\Dropbox\Work\png\animation T=1.01217.png" arWidth="640" arHeight="480" duration="0" songTitle="" songArtist="" songAlbum="" songCopyrightUrl="" songArtistUrl="" songAudioFileUrl="" stabilizationMode="0" mediaItemType="2" />
    <MediaItem id="1218" filePath="C:\Users\owner\Dropbox\Work\png\animation T=1.01218.png" arWidth="640" arHeight="480" duration="0" songTitle="" songArtist="" songAlbum="" songCopyrightUrl="" songArtistUrl="" songAudioFileUrl="" stabilizationMode="0" mediaItemType="2" />
    <MediaItem id="1219" filePath="C:\Users\owner\Dropbox\Work\png\animation T=1.01219.png" arWidth="640" arHeight="480" duration="0" songTitle="" songArtist="" songAlbum="" songCopyrightUrl="" songArtistUrl="" songAudioFileUrl="" stabilizationMode="0" mediaItemType="2" />
    <MediaItem id="1220" filePath="C:\Users\owner\Dropbox\Work\png\animation T=1.01220.png" arWidth="640" arHeight="480" duration="0" songTitle="" songArtist="" songAlbum="" songCopyrightUrl="" songArtistUrl="" songAudioFileUrl="" stabilizationMode="0" mediaItemType="2" />
    <MediaItem id="1221" filePath="C:\Users\owner\Dropbox\Work\png\animation T=1.01221.png" arWidth="640" arHeight="480" duration="0" songTitle="" songArtist="" songAlbum="" songCopyrightUrl="" songArtistUrl="" songAudioFileUrl="" stabilizationMode="0" mediaItemType="2" />
    <MediaItem id="1222" filePath="C:\Users\owner\Dropbox\Work\png\animation T=1.01222.png" arWidth="640" arHeight="480" duration="0" songTitle="" songArtist="" songAlbum="" songCopyrightUrl="" songArtistUrl="" songAudioFileUrl="" stabilizationMode="0" mediaItemType="2" />
    <MediaItem id="1223" filePath="C:\Users\owner\Dropbox\Work\png\animation T=1.01223.png" arWidth="640" arHeight="480" duration="0" songTitle="" songArtist="" songAlbum="" songCopyrightUrl="" songArtistUrl="" songAudioFileUrl="" stabilizationMode="0" mediaItemType="2" />
    <MediaItem id="1224" filePath="C:\Users\owner\Dropbox\Work\png\animation T=1.01224.png" arWidth="640" arHeight="480" duration="0" songTitle="" songArtist="" songAlbum="" songCopyrightUrl="" songArtistUrl="" songAudioFileUrl="" stabilizationMode="0" mediaItemType="2" />
    <MediaItem id="1225" filePath="C:\Users\owner\Dropbox\Work\png\animation T=1.01225.png" arWidth="640" arHeight="480" duration="0" songTitle="" songArtist="" songAlbum="" songCopyrightUrl="" songArtistUrl="" songAudioFileUrl="" stabilizationMode="0" mediaItemType="2" />
    <MediaItem id="1226" filePath="C:\Users\owner\Dropbox\Work\png\animation T=1.01226.png" arWidth="640" arHeight="480" duration="0" songTitle="" songArtist="" songAlbum="" songCopyrightUrl="" songArtistUrl="" songAudioFileUrl="" stabilizationMode="0" mediaItemType="2" />
    <MediaItem id="1227" filePath="C:\Users\owner\Dropbox\Work\png\animation T=1.01227.png" arWidth="640" arHeight="480" duration="0" songTitle="" songArtist="" songAlbum="" songCopyrightUrl="" songArtistUrl="" songAudioFileUrl="" stabilizationMode="0" mediaItemType="2" />
    <MediaItem id="1228" filePath="C:\Users\owner\Dropbox\Work\png\animation T=1.01228.png" arWidth="640" arHeight="480" duration="0" songTitle="" songArtist="" songAlbum="" songCopyrightUrl="" songArtistUrl="" songAudioFileUrl="" stabilizationMode="0" mediaItemType="2" />
    <MediaItem id="1229" filePath="C:\Users\owner\Dropbox\Work\png\animation T=1.01229.png" arWidth="640" arHeight="480" duration="0" songTitle="" songArtist="" songAlbum="" songCopyrightUrl="" songArtistUrl="" songAudioFileUrl="" stabilizationMode="0" mediaItemType="2" />
    <MediaItem id="1230" filePath="C:\Users\owner\Dropbox\Work\png\animation T=1.01230.png" arWidth="640" arHeight="480" duration="0" songTitle="" songArtist="" songAlbum="" songCopyrightUrl="" songArtistUrl="" songAudioFileUrl="" stabilizationMode="0" mediaItemType="2" />
    <MediaItem id="1231" filePath="C:\Users\owner\Dropbox\Work\png\animation T=1.01231.png" arWidth="640" arHeight="480" duration="0" songTitle="" songArtist="" songAlbum="" songCopyrightUrl="" songArtistUrl="" songAudioFileUrl="" stabilizationMode="0" mediaItemType="2" />
    <MediaItem id="1232" filePath="C:\Users\owner\Dropbox\Work\png\animation T=1.01232.png" arWidth="640" arHeight="480" duration="0" songTitle="" songArtist="" songAlbum="" songCopyrightUrl="" songArtistUrl="" songAudioFileUrl="" stabilizationMode="0" mediaItemType="2" />
    <MediaItem id="1233" filePath="C:\Users\owner\Dropbox\Work\png\animation T=1.01233.png" arWidth="640" arHeight="480" duration="0" songTitle="" songArtist="" songAlbum="" songCopyrightUrl="" songArtistUrl="" songAudioFileUrl="" stabilizationMode="0" mediaItemType="2" />
    <MediaItem id="1234" filePath="C:\Users\owner\Dropbox\Work\png\animation T=1.01234.png" arWidth="640" arHeight="480" duration="0" songTitle="" songArtist="" songAlbum="" songCopyrightUrl="" songArtistUrl="" songAudioFileUrl="" stabilizationMode="0" mediaItemType="2" />
    <MediaItem id="1235" filePath="C:\Users\owner\Dropbox\Work\png\animation T=1.01235.png" arWidth="640" arHeight="480" duration="0" songTitle="" songArtist="" songAlbum="" songCopyrightUrl="" songArtistUrl="" songAudioFileUrl="" stabilizationMode="0" mediaItemType="2" />
    <MediaItem id="1236" filePath="C:\Users\owner\Dropbox\Work\png\animation T=1.01236.png" arWidth="640" arHeight="480" duration="0" songTitle="" songArtist="" songAlbum="" songCopyrightUrl="" songArtistUrl="" songAudioFileUrl="" stabilizationMode="0" mediaItemType="2" />
    <MediaItem id="1237" filePath="C:\Users\owner\Dropbox\Work\png\animation T=1.01237.png" arWidth="640" arHeight="480" duration="0" songTitle="" songArtist="" songAlbum="" songCopyrightUrl="" songArtistUrl="" songAudioFileUrl="" stabilizationMode="0" mediaItemType="2" />
    <MediaItem id="1238" filePath="C:\Users\owner\Dropbox\Work\png\animation T=1.01238.png" arWidth="640" arHeight="480" duration="0" songTitle="" songArtist="" songAlbum="" songCopyrightUrl="" songArtistUrl="" songAudioFileUrl="" stabilizationMode="0" mediaItemType="2" />
    <MediaItem id="1239" filePath="C:\Users\owner\Dropbox\Work\png\animation T=1.01239.png" arWidth="640" arHeight="480" duration="0" songTitle="" songArtist="" songAlbum="" songCopyrightUrl="" songArtistUrl="" songAudioFileUrl="" stabilizationMode="0" mediaItemType="2" />
    <MediaItem id="1240" filePath="C:\Users\owner\Dropbox\Work\png\animation T=1.01240.png" arWidth="640" arHeight="480" duration="0" songTitle="" songArtist="" songAlbum="" songCopyrightUrl="" songArtistUrl="" songAudioFileUrl="" stabilizationMode="0" mediaItemType="2" />
    <MediaItem id="1241" filePath="C:\Users\owner\Dropbox\Work\png\animation T=1.01241.png" arWidth="640" arHeight="480" duration="0" songTitle="" songArtist="" songAlbum="" songCopyrightUrl="" songArtistUrl="" songAudioFileUrl="" stabilizationMode="0" mediaItemType="2" />
    <MediaItem id="1242" filePath="C:\Users\owner\Dropbox\Work\png\animation T=1.01242.png" arWidth="640" arHeight="480" duration="0" songTitle="" songArtist="" songAlbum="" songCopyrightUrl="" songArtistUrl="" songAudioFileUrl="" stabilizationMode="0" mediaItemType="2" />
    <MediaItem id="1243" filePath="C:\Users\owner\Dropbox\Work\png\animation T=1.01243.png" arWidth="640" arHeight="480" duration="0" songTitle="" songArtist="" songAlbum="" songCopyrightUrl="" songArtistUrl="" songAudioFileUrl="" stabilizationMode="0" mediaItemType="2" />
    <MediaItem id="1244" filePath="C:\Users\owner\Dropbox\Work\png\animation T=1.01244.png" arWidth="640" arHeight="480" duration="0" songTitle="" songArtist="" songAlbum="" songCopyrightUrl="" songArtistUrl="" songAudioFileUrl="" stabilizationMode="0" mediaItemType="2" />
    <MediaItem id="1245" filePath="C:\Users\owner\Dropbox\Work\png\animation T=1.01245.png" arWidth="640" arHeight="480" duration="0" songTitle="" songArtist="" songAlbum="" songCopyrightUrl="" songArtistUrl="" songAudioFileUrl="" stabilizationMode="0" mediaItemType="2" />
    <MediaItem id="1246" filePath="C:\Users\owner\Dropbox\Work\png\animation T=1.01246.png" arWidth="640" arHeight="480" duration="0" songTitle="" songArtist="" songAlbum="" songCopyrightUrl="" songArtistUrl="" songAudioFileUrl="" stabilizationMode="0" mediaItemType="2" />
    <MediaItem id="1247" filePath="C:\Users\owner\Dropbox\Work\png\animation T=1.01247.png" arWidth="640" arHeight="480" duration="0" songTitle="" songArtist="" songAlbum="" songCopyrightUrl="" songArtistUrl="" songAudioFileUrl="" stabilizationMode="0" mediaItemType="2" />
    <MediaItem id="1248" filePath="C:\Users\owner\Dropbox\Work\png\animation T=1.01248.png" arWidth="640" arHeight="480" duration="0" songTitle="" songArtist="" songAlbum="" songCopyrightUrl="" songArtistUrl="" songAudioFileUrl="" stabilizationMode="0" mediaItemType="2" />
    <MediaItem id="1249" filePath="C:\Users\owner\Dropbox\Work\png\animation T=1.01249.png" arWidth="640" arHeight="480" duration="0" songTitle="" songArtist="" songAlbum="" songCopyrightUrl="" songArtistUrl="" songAudioFileUrl="" stabilizationMode="0" mediaItemType="2" />
    <MediaItem id="1250" filePath="C:\Users\owner\Dropbox\Work\png\animation T=1.01250.png" arWidth="640" arHeight="480" duration="0" songTitle="" songArtist="" songAlbum="" songCopyrightUrl="" songArtistUrl="" songAudioFileUrl="" stabilizationMode="0" mediaItemType="2" />
    <MediaItem id="1251" filePath="C:\Users\owner\Dropbox\Work\png\animation T=1.01251.png" arWidth="640" arHeight="480" duration="0" songTitle="" songArtist="" songAlbum="" songCopyrightUrl="" songArtistUrl="" songAudioFileUrl="" stabilizationMode="0" mediaItemType="2" />
    <MediaItem id="1252" filePath="C:\Users\owner\Dropbox\Work\png\animation T=1.01252.png" arWidth="640" arHeight="480" duration="0" songTitle="" songArtist="" songAlbum="" songCopyrightUrl="" songArtistUrl="" songAudioFileUrl="" stabilizationMode="0" mediaItemType="2" />
    <MediaItem id="1253" filePath="C:\Users\owner\Dropbox\Work\png\animation T=1.01253.png" arWidth="640" arHeight="480" duration="0" songTitle="" songArtist="" songAlbum="" songCopyrightUrl="" songArtistUrl="" songAudioFileUrl="" stabilizationMode="0" mediaItemType="2" />
    <MediaItem id="1254" filePath="C:\Users\owner\Dropbox\Work\png\animation T=1.01254.png" arWidth="640" arHeight="480" duration="0" songTitle="" songArtist="" songAlbum="" songCopyrightUrl="" songArtistUrl="" songAudioFileUrl="" stabilizationMode="0" mediaItemType="2" />
    <MediaItem id="1255" filePath="C:\Users\owner\Dropbox\Work\png\animation T=1.01255.png" arWidth="640" arHeight="480" duration="0" songTitle="" songArtist="" songAlbum="" songCopyrightUrl="" songArtistUrl="" songAudioFileUrl="" stabilizationMode="0" mediaItemType="2" />
    <MediaItem id="1256" filePath="C:\Users\owner\Dropbox\Work\png\animation T=1.01256.png" arWidth="640" arHeight="480" duration="0" songTitle="" songArtist="" songAlbum="" songCopyrightUrl="" songArtistUrl="" songAudioFileUrl="" stabilizationMode="0" mediaItemType="2" />
    <MediaItem id="1257" filePath="C:\Users\owner\Dropbox\Work\png\animation T=1.01257.png" arWidth="640" arHeight="480" duration="0" songTitle="" songArtist="" songAlbum="" songCopyrightUrl="" songArtistUrl="" songAudioFileUrl="" stabilizationMode="0" mediaItemType="2" />
    <MediaItem id="1258" filePath="C:\Users\owner\Dropbox\Work\png\animation T=1.01258.png" arWidth="640" arHeight="480" duration="0" songTitle="" songArtist="" songAlbum="" songCopyrightUrl="" songArtistUrl="" songAudioFileUrl="" stabilizationMode="0" mediaItemType="2" />
    <MediaItem id="1259" filePath="C:\Users\owner\Dropbox\Work\png\animation T=1.01259.png" arWidth="640" arHeight="480" duration="0" songTitle="" songArtist="" songAlbum="" songCopyrightUrl="" songArtistUrl="" songAudioFileUrl="" stabilizationMode="0" mediaItemType="2" />
    <MediaItem id="1260" filePath="C:\Users\owner\Dropbox\Work\png\animation T=1.01260.png" arWidth="640" arHeight="480" duration="0" songTitle="" songArtist="" songAlbum="" songCopyrightUrl="" songArtistUrl="" songAudioFileUrl="" stabilizationMode="0" mediaItemType="2" />
    <MediaItem id="1261" filePath="C:\Users\owner\Dropbox\Work\png\animation T=1.01261.png" arWidth="640" arHeight="480" duration="0" songTitle="" songArtist="" songAlbum="" songCopyrightUrl="" songArtistUrl="" songAudioFileUrl="" stabilizationMode="0" mediaItemType="2" />
    <MediaItem id="1262" filePath="C:\Users\owner\Dropbox\Work\png\animation T=1.01262.png" arWidth="640" arHeight="480" duration="0" songTitle="" songArtist="" songAlbum="" songCopyrightUrl="" songArtistUrl="" songAudioFileUrl="" stabilizationMode="0" mediaItemType="2" />
    <MediaItem id="1263" filePath="C:\Users\owner\Dropbox\Work\png\animation T=1.01263.png" arWidth="640" arHeight="480" duration="0" songTitle="" songArtist="" songAlbum="" songCopyrightUrl="" songArtistUrl="" songAudioFileUrl="" stabilizationMode="0" mediaItemType="2" />
    <MediaItem id="1264" filePath="C:\Users\owner\Dropbox\Work\png\animation T=1.01264.png" arWidth="640" arHeight="480" duration="0" songTitle="" songArtist="" songAlbum="" songCopyrightUrl="" songArtistUrl="" songAudioFileUrl="" stabilizationMode="0" mediaItemType="2" />
    <MediaItem id="1265" filePath="C:\Users\owner\Dropbox\Work\png\animation T=1.01265.png" arWidth="640" arHeight="480" duration="0" songTitle="" songArtist="" songAlbum="" songCopyrightUrl="" songArtistUrl="" songAudioFileUrl="" stabilizationMode="0" mediaItemType="2" />
    <MediaItem id="1266" filePath="C:\Users\owner\Dropbox\Work\png\animation T=1.01266.png" arWidth="640" arHeight="480" duration="0" songTitle="" songArtist="" songAlbum="" songCopyrightUrl="" songArtistUrl="" songAudioFileUrl="" stabilizationMode="0" mediaItemType="2" />
    <MediaItem id="1267" filePath="C:\Users\owner\Dropbox\Work\png\animation T=1.01267.png" arWidth="640" arHeight="480" duration="0" songTitle="" songArtist="" songAlbum="" songCopyrightUrl="" songArtistUrl="" songAudioFileUrl="" stabilizationMode="0" mediaItemType="2" />
    <MediaItem id="1268" filePath="C:\Users\owner\Dropbox\Work\png\animation T=1.01268.png" arWidth="640" arHeight="480" duration="0" songTitle="" songArtist="" songAlbum="" songCopyrightUrl="" songArtistUrl="" songAudioFileUrl="" stabilizationMode="0" mediaItemType="2" />
    <MediaItem id="1269" filePath="C:\Users\owner\Dropbox\Work\png\animation T=1.01269.png" arWidth="640" arHeight="480" duration="0" songTitle="" songArtist="" songAlbum="" songCopyrightUrl="" songArtistUrl="" songAudioFileUrl="" stabilizationMode="0" mediaItemType="2" />
    <MediaItem id="1270" filePath="C:\Users\owner\Dropbox\Work\png\animation T=1.01270.png" arWidth="640" arHeight="480" duration="0" songTitle="" songArtist="" songAlbum="" songCopyrightUrl="" songArtistUrl="" songAudioFileUrl="" stabilizationMode="0" mediaItemType="2" />
    <MediaItem id="1271" filePath="C:\Users\owner\Dropbox\Work\png\animation T=1.01271.png" arWidth="640" arHeight="480" duration="0" songTitle="" songArtist="" songAlbum="" songCopyrightUrl="" songArtistUrl="" songAudioFileUrl="" stabilizationMode="0" mediaItemType="2" />
    <MediaItem id="1272" filePath="C:\Users\owner\Dropbox\Work\png\animation T=1.01272.png" arWidth="640" arHeight="480" duration="0" songTitle="" songArtist="" songAlbum="" songCopyrightUrl="" songArtistUrl="" songAudioFileUrl="" stabilizationMode="0" mediaItemType="2" />
    <MediaItem id="1273" filePath="C:\Users\owner\Dropbox\Work\png\animation T=1.01273.png" arWidth="640" arHeight="480" duration="0" songTitle="" songArtist="" songAlbum="" songCopyrightUrl="" songArtistUrl="" songAudioFileUrl="" stabilizationMode="0" mediaItemType="2" />
    <MediaItem id="1274" filePath="C:\Users\owner\Dropbox\Work\png\animation T=1.01274.png" arWidth="640" arHeight="480" duration="0" songTitle="" songArtist="" songAlbum="" songCopyrightUrl="" songArtistUrl="" songAudioFileUrl="" stabilizationMode="0" mediaItemType="2" />
    <MediaItem id="1275" filePath="C:\Users\owner\Dropbox\Work\png\animation T=1.01275.png" arWidth="640" arHeight="480" duration="0" songTitle="" songArtist="" songAlbum="" songCopyrightUrl="" songArtistUrl="" songAudioFileUrl="" stabilizationMode="0" mediaItemType="2" />
    <MediaItem id="1276" filePath="C:\Users\owner\Dropbox\Work\png\animation T=1.01276.png" arWidth="640" arHeight="480" duration="0" songTitle="" songArtist="" songAlbum="" songCopyrightUrl="" songArtistUrl="" songAudioFileUrl="" stabilizationMode="0" mediaItemType="2" />
    <MediaItem id="1277" filePath="C:\Users\owner\Dropbox\Work\png\animation T=1.01277.png" arWidth="640" arHeight="480" duration="0" songTitle="" songArtist="" songAlbum="" songCopyrightUrl="" songArtistUrl="" songAudioFileUrl="" stabilizationMode="0" mediaItemType="2" />
    <MediaItem id="1278" filePath="C:\Users\owner\Dropbox\Work\png\animation T=1.01278.png" arWidth="640" arHeight="480" duration="0" songTitle="" songArtist="" songAlbum="" songCopyrightUrl="" songArtistUrl="" songAudioFileUrl="" stabilizationMode="0" mediaItemType="2" />
    <MediaItem id="1279" filePath="C:\Users\owner\Dropbox\Work\png\animation T=1.01279.png" arWidth="640" arHeight="480" duration="0" songTitle="" songArtist="" songAlbum="" songCopyrightUrl="" songArtistUrl="" songAudioFileUrl="" stabilizationMode="0" mediaItemType="2" />
    <MediaItem id="1280" filePath="C:\Users\owner\Dropbox\Work\png\animation T=1.01280.png" arWidth="640" arHeight="480" duration="0" songTitle="" songArtist="" songAlbum="" songCopyrightUrl="" songArtistUrl="" songAudioFileUrl="" stabilizationMode="0" mediaItemType="2" />
    <MediaItem id="1281" filePath="C:\Users\owner\Dropbox\Work\png\animation T=1.01281.png" arWidth="640" arHeight="480" duration="0" songTitle="" songArtist="" songAlbum="" songCopyrightUrl="" songArtistUrl="" songAudioFileUrl="" stabilizationMode="0" mediaItemType="2" />
    <MediaItem id="1282" filePath="C:\Users\owner\Dropbox\Work\png\animation T=1.01282.png" arWidth="640" arHeight="480" duration="0" songTitle="" songArtist="" songAlbum="" songCopyrightUrl="" songArtistUrl="" songAudioFileUrl="" stabilizationMode="0" mediaItemType="2" />
    <MediaItem id="1283" filePath="C:\Users\owner\Dropbox\Work\png\animation T=1.01283.png" arWidth="640" arHeight="480" duration="0" songTitle="" songArtist="" songAlbum="" songCopyrightUrl="" songArtistUrl="" songAudioFileUrl="" stabilizationMode="0" mediaItemType="2" />
    <MediaItem id="1284" filePath="C:\Users\owner\Dropbox\Work\png\animation T=1.01284.png" arWidth="640" arHeight="480" duration="0" songTitle="" songArtist="" songAlbum="" songCopyrightUrl="" songArtistUrl="" songAudioFileUrl="" stabilizationMode="0" mediaItemType="2" />
    <MediaItem id="1285" filePath="C:\Users\owner\Dropbox\Work\png\animation T=1.01285.png" arWidth="640" arHeight="480" duration="0" songTitle="" songArtist="" songAlbum="" songCopyrightUrl="" songArtistUrl="" songAudioFileUrl="" stabilizationMode="0" mediaItemType="2" />
    <MediaItem id="1286" filePath="C:\Users\owner\Dropbox\Work\png\animation T=1.01286.png" arWidth="640" arHeight="480" duration="0" songTitle="" songArtist="" songAlbum="" songCopyrightUrl="" songArtistUrl="" songAudioFileUrl="" stabilizationMode="0" mediaItemType="2" />
    <MediaItem id="1287" filePath="C:\Users\owner\Dropbox\Work\png\animation T=1.01287.png" arWidth="640" arHeight="480" duration="0" songTitle="" songArtist="" songAlbum="" songCopyrightUrl="" songArtistUrl="" songAudioFileUrl="" stabilizationMode="0" mediaItemType="2" />
    <MediaItem id="1288" filePath="C:\Users\owner\Dropbox\Work\png\animation T=1.01288.png" arWidth="640" arHeight="480" duration="0" songTitle="" songArtist="" songAlbum="" songCopyrightUrl="" songArtistUrl="" songAudioFileUrl="" stabilizationMode="0" mediaItemType="2" />
    <MediaItem id="1289" filePath="C:\Users\owner\Dropbox\Work\png\animation T=1.01289.png" arWidth="640" arHeight="480" duration="0" songTitle="" songArtist="" songAlbum="" songCopyrightUrl="" songArtistUrl="" songAudioFileUrl="" stabilizationMode="0" mediaItemType="2" />
    <MediaItem id="1290" filePath="C:\Users\owner\Dropbox\Work\png\animation T=1.01290.png" arWidth="640" arHeight="480" duration="0" songTitle="" songArtist="" songAlbum="" songCopyrightUrl="" songArtistUrl="" songAudioFileUrl="" stabilizationMode="0" mediaItemType="2" />
    <MediaItem id="1291" filePath="C:\Users\owner\Dropbox\Work\png\animation T=1.01291.png" arWidth="640" arHeight="480" duration="0" songTitle="" songArtist="" songAlbum="" songCopyrightUrl="" songArtistUrl="" songAudioFileUrl="" stabilizationMode="0" mediaItemType="2" />
    <MediaItem id="1292" filePath="C:\Users\owner\Dropbox\Work\png\animation T=1.01292.png" arWidth="640" arHeight="480" duration="0" songTitle="" songArtist="" songAlbum="" songCopyrightUrl="" songArtistUrl="" songAudioFileUrl="" stabilizationMode="0" mediaItemType="2" />
    <MediaItem id="1293" filePath="C:\Users\owner\Dropbox\Work\png\animation T=1.01293.png" arWidth="640" arHeight="480" duration="0" songTitle="" songArtist="" songAlbum="" songCopyrightUrl="" songArtistUrl="" songAudioFileUrl="" stabilizationMode="0" mediaItemType="2" />
    <MediaItem id="1294" filePath="C:\Users\owner\Dropbox\Work\png\animation T=1.01294.png" arWidth="640" arHeight="480" duration="0" songTitle="" songArtist="" songAlbum="" songCopyrightUrl="" songArtistUrl="" songAudioFileUrl="" stabilizationMode="0" mediaItemType="2" />
    <MediaItem id="1295" filePath="C:\Users\owner\Dropbox\Work\png\animation T=1.01295.png" arWidth="640" arHeight="480" duration="0" songTitle="" songArtist="" songAlbum="" songCopyrightUrl="" songArtistUrl="" songAudioFileUrl="" stabilizationMode="0" mediaItemType="2" />
    <MediaItem id="1296" filePath="C:\Users\owner\Dropbox\Work\png\animation T=1.01296.png" arWidth="640" arHeight="480" duration="0" songTitle="" songArtist="" songAlbum="" songCopyrightUrl="" songArtistUrl="" songAudioFileUrl="" stabilizationMode="0" mediaItemType="2" />
    <MediaItem id="1297" filePath="C:\Users\owner\Dropbox\Work\png\animation T=1.01297.png" arWidth="640" arHeight="480" duration="0" songTitle="" songArtist="" songAlbum="" songCopyrightUrl="" songArtistUrl="" songAudioFileUrl="" stabilizationMode="0" mediaItemType="2" />
    <MediaItem id="1298" filePath="C:\Users\owner\Dropbox\Work\png\animation T=1.01298.png" arWidth="640" arHeight="480" duration="0" songTitle="" songArtist="" songAlbum="" songCopyrightUrl="" songArtistUrl="" songAudioFileUrl="" stabilizationMode="0" mediaItemType="2" />
    <MediaItem id="1299" filePath="C:\Users\owner\Dropbox\Work\png\animation T=1.01299.png" arWidth="640" arHeight="480" duration="0" songTitle="" songArtist="" songAlbum="" songCopyrightUrl="" songArtistUrl="" songAudioFileUrl="" stabilizationMode="0" mediaItemType="2" />
    <MediaItem id="1300" filePath="C:\Users\owner\Dropbox\Work\png\animation T=1.01300.png" arWidth="640" arHeight="480" duration="0" songTitle="" songArtist="" songAlbum="" songCopyrightUrl="" songArtistUrl="" songAudioFileUrl="" stabilizationMode="0" mediaItemType="2" />
    <MediaItem id="1301" filePath="C:\Users\owner\Dropbox\Work\png\animation T=1.01301.png" arWidth="640" arHeight="480" duration="0" songTitle="" songArtist="" songAlbum="" songCopyrightUrl="" songArtistUrl="" songAudioFileUrl="" stabilizationMode="0" mediaItemType="2" />
    <MediaItem id="1302" filePath="C:\Users\owner\Dropbox\Work\png\animation T=1.01302.png" arWidth="640" arHeight="480" duration="0" songTitle="" songArtist="" songAlbum="" songCopyrightUrl="" songArtistUrl="" songAudioFileUrl="" stabilizationMode="0" mediaItemType="2" />
    <MediaItem id="1303" filePath="C:\Users\owner\Dropbox\Work\png\animation T=1.01303.png" arWidth="640" arHeight="480" duration="0" songTitle="" songArtist="" songAlbum="" songCopyrightUrl="" songArtistUrl="" songAudioFileUrl="" stabilizationMode="0" mediaItemType="2" />
    <MediaItem id="1304" filePath="C:\Users\owner\Dropbox\Work\png\animation T=1.01304.png" arWidth="640" arHeight="480" duration="0" songTitle="" songArtist="" songAlbum="" songCopyrightUrl="" songArtistUrl="" songAudioFileUrl="" stabilizationMode="0" mediaItemType="2" />
    <MediaItem id="1305" filePath="C:\Users\owner\Dropbox\Work\png\animation T=1.01305.png" arWidth="640" arHeight="480" duration="0" songTitle="" songArtist="" songAlbum="" songCopyrightUrl="" songArtistUrl="" songAudioFileUrl="" stabilizationMode="0" mediaItemType="2" />
    <MediaItem id="1306" filePath="C:\Users\owner\Dropbox\Work\png\animation T=1.01306.png" arWidth="640" arHeight="480" duration="0" songTitle="" songArtist="" songAlbum="" songCopyrightUrl="" songArtistUrl="" songAudioFileUrl="" stabilizationMode="0" mediaItemType="2" />
    <MediaItem id="1307" filePath="C:\Users\owner\Dropbox\Work\png\animation T=1.01307.png" arWidth="640" arHeight="480" duration="0" songTitle="" songArtist="" songAlbum="" songCopyrightUrl="" songArtistUrl="" songAudioFileUrl="" stabilizationMode="0" mediaItemType="2" />
    <MediaItem id="1308" filePath="C:\Users\owner\Dropbox\Work\png\animation T=1.01308.png" arWidth="640" arHeight="480" duration="0" songTitle="" songArtist="" songAlbum="" songCopyrightUrl="" songArtistUrl="" songAudioFileUrl="" stabilizationMode="0" mediaItemType="2" />
    <MediaItem id="1309" filePath="C:\Users\owner\Dropbox\Work\png\animation T=1.01309.png" arWidth="640" arHeight="480" duration="0" songTitle="" songArtist="" songAlbum="" songCopyrightUrl="" songArtistUrl="" songAudioFileUrl="" stabilizationMode="0" mediaItemType="2" />
    <MediaItem id="1310" filePath="C:\Users\owner\Dropbox\Work\png\animation T=1.01310.png" arWidth="640" arHeight="480" duration="0" songTitle="" songArtist="" songAlbum="" songCopyrightUrl="" songArtistUrl="" songAudioFileUrl="" stabilizationMode="0" mediaItemType="2" />
    <MediaItem id="1311" filePath="C:\Users\owner\Dropbox\Work\png\animation T=1.01311.png" arWidth="640" arHeight="480" duration="0" songTitle="" songArtist="" songAlbum="" songCopyrightUrl="" songArtistUrl="" songAudioFileUrl="" stabilizationMode="0" mediaItemType="2" />
    <MediaItem id="1312" filePath="C:\Users\owner\Dropbox\Work\png\animation T=1.01312.png" arWidth="640" arHeight="480" duration="0" songTitle="" songArtist="" songAlbum="" songCopyrightUrl="" songArtistUrl="" songAudioFileUrl="" stabilizationMode="0" mediaItemType="2" />
    <MediaItem id="1313" filePath="C:\Users\owner\Dropbox\Work\png\animation T=1.01313.png" arWidth="640" arHeight="480" duration="0" songTitle="" songArtist="" songAlbum="" songCopyrightUrl="" songArtistUrl="" songAudioFileUrl="" stabilizationMode="0" mediaItemType="2" />
    <MediaItem id="1314" filePath="C:\Users\owner\Dropbox\Work\png\animation T=1.01314.png" arWidth="640" arHeight="480" duration="0" songTitle="" songArtist="" songAlbum="" songCopyrightUrl="" songArtistUrl="" songAudioFileUrl="" stabilizationMode="0" mediaItemType="2" />
    <MediaItem id="1315" filePath="C:\Users\owner\Dropbox\Work\png\animation T=1.01315.png" arWidth="640" arHeight="480" duration="0" songTitle="" songArtist="" songAlbum="" songCopyrightUrl="" songArtistUrl="" songAudioFileUrl="" stabilizationMode="0" mediaItemType="2" />
    <MediaItem id="1316" filePath="C:\Users\owner\Dropbox\Work\png\animation T=1.01316.png" arWidth="640" arHeight="480" duration="0" songTitle="" songArtist="" songAlbum="" songCopyrightUrl="" songArtistUrl="" songAudioFileUrl="" stabilizationMode="0" mediaItemType="2" />
    <MediaItem id="1317" filePath="C:\Users\owner\Dropbox\Work\png\animation T=1.01317.png" arWidth="640" arHeight="480" duration="0" songTitle="" songArtist="" songAlbum="" songCopyrightUrl="" songArtistUrl="" songAudioFileUrl="" stabilizationMode="0" mediaItemType="2" />
    <MediaItem id="1318" filePath="C:\Users\owner\Dropbox\Work\png\animation T=1.01318.png" arWidth="640" arHeight="480" duration="0" songTitle="" songArtist="" songAlbum="" songCopyrightUrl="" songArtistUrl="" songAudioFileUrl="" stabilizationMode="0" mediaItemType="2" />
    <MediaItem id="1319" filePath="C:\Users\owner\Dropbox\Work\png\animation T=1.01319.png" arWidth="640" arHeight="480" duration="0" songTitle="" songArtist="" songAlbum="" songCopyrightUrl="" songArtistUrl="" songAudioFileUrl="" stabilizationMode="0" mediaItemType="2" />
    <MediaItem id="1320" filePath="C:\Users\owner\Dropbox\Work\png\animation T=1.01320.png" arWidth="640" arHeight="480" duration="0" songTitle="" songArtist="" songAlbum="" songCopyrightUrl="" songArtistUrl="" songAudioFileUrl="" stabilizationMode="0" mediaItemType="2" />
    <MediaItem id="1321" filePath="C:\Users\owner\Dropbox\Work\png\animation T=1.01321.png" arWidth="640" arHeight="480" duration="0" songTitle="" songArtist="" songAlbum="" songCopyrightUrl="" songArtistUrl="" songAudioFileUrl="" stabilizationMode="0" mediaItemType="2" />
    <MediaItem id="1322" filePath="C:\Users\owner\Dropbox\Work\png\animation T=1.01322.png" arWidth="640" arHeight="480" duration="0" songTitle="" songArtist="" songAlbum="" songCopyrightUrl="" songArtistUrl="" songAudioFileUrl="" stabilizationMode="0" mediaItemType="2" />
    <MediaItem id="1323" filePath="C:\Users\owner\Dropbox\Work\png\animation T=1.01323.png" arWidth="640" arHeight="480" duration="0" songTitle="" songArtist="" songAlbum="" songCopyrightUrl="" songArtistUrl="" songAudioFileUrl="" stabilizationMode="0" mediaItemType="2" />
    <MediaItem id="1324" filePath="C:\Users\owner\Dropbox\Work\png\animation T=1.01324.png" arWidth="640" arHeight="480" duration="0" songTitle="" songArtist="" songAlbum="" songCopyrightUrl="" songArtistUrl="" songAudioFileUrl="" stabilizationMode="0" mediaItemType="2" />
    <MediaItem id="1325" filePath="C:\Users\owner\Dropbox\Work\png\animation T=1.01325.png" arWidth="640" arHeight="480" duration="0" songTitle="" songArtist="" songAlbum="" songCopyrightUrl="" songArtistUrl="" songAudioFileUrl="" stabilizationMode="0" mediaItemType="2" />
    <MediaItem id="1326" filePath="C:\Users\owner\Dropbox\Work\png\animation T=1.01326.png" arWidth="640" arHeight="480" duration="0" songTitle="" songArtist="" songAlbum="" songCopyrightUrl="" songArtistUrl="" songAudioFileUrl="" stabilizationMode="0" mediaItemType="2" />
    <MediaItem id="1327" filePath="C:\Users\owner\Dropbox\Work\png\animation T=1.01327.png" arWidth="640" arHeight="480" duration="0" songTitle="" songArtist="" songAlbum="" songCopyrightUrl="" songArtistUrl="" songAudioFileUrl="" stabilizationMode="0" mediaItemType="2" />
    <MediaItem id="1328" filePath="C:\Users\owner\Dropbox\Work\png\animation T=1.01328.png" arWidth="640" arHeight="480" duration="0" songTitle="" songArtist="" songAlbum="" songCopyrightUrl="" songArtistUrl="" songAudioFileUrl="" stabilizationMode="0" mediaItemType="2" />
    <MediaItem id="1329" filePath="C:\Users\owner\Dropbox\Work\png\animation T=1.01329.png" arWidth="640" arHeight="480" duration="0" songTitle="" songArtist="" songAlbum="" songCopyrightUrl="" songArtistUrl="" songAudioFileUrl="" stabilizationMode="0" mediaItemType="2" />
    <MediaItem id="1330" filePath="C:\Users\owner\Dropbox\Work\png\animation T=1.01330.png" arWidth="640" arHeight="480" duration="0" songTitle="" songArtist="" songAlbum="" songCopyrightUrl="" songArtistUrl="" songAudioFileUrl="" stabilizationMode="0" mediaItemType="2" />
    <MediaItem id="1331" filePath="C:\Users\owner\Dropbox\Work\png\animation T=1.01331.png" arWidth="640" arHeight="480" duration="0" songTitle="" songArtist="" songAlbum="" songCopyrightUrl="" songArtistUrl="" songAudioFileUrl="" stabilizationMode="0" mediaItemType="2" />
    <MediaItem id="1332" filePath="C:\Users\owner\Dropbox\Work\png\animation T=1.01332.png" arWidth="640" arHeight="480" duration="0" songTitle="" songArtist="" songAlbum="" songCopyrightUrl="" songArtistUrl="" songAudioFileUrl="" stabilizationMode="0" mediaItemType="2" />
    <MediaItem id="1333" filePath="C:\Users\owner\Dropbox\Work\png\animation T=1.01333.png" arWidth="640" arHeight="480" duration="0" songTitle="" songArtist="" songAlbum="" songCopyrightUrl="" songArtistUrl="" songAudioFileUrl="" stabilizationMode="0" mediaItemType="2" />
    <MediaItem id="1334" filePath="C:\Users\owner\Dropbox\Work\png\animation T=1.01334.png" arWidth="640" arHeight="480" duration="0" songTitle="" songArtist="" songAlbum="" songCopyrightUrl="" songArtistUrl="" songAudioFileUrl="" stabilizationMode="0" mediaItemType="2" />
    <MediaItem id="1335" filePath="C:\Users\owner\Dropbox\Work\png\animation T=1.01335.png" arWidth="640" arHeight="480" duration="0" songTitle="" songArtist="" songAlbum="" songCopyrightUrl="" songArtistUrl="" songAudioFileUrl="" stabilizationMode="0" mediaItemType="2" />
    <MediaItem id="1336" filePath="C:\Users\owner\Dropbox\Work\png\animation T=1.01336.png" arWidth="640" arHeight="480" duration="0" songTitle="" songArtist="" songAlbum="" songCopyrightUrl="" songArtistUrl="" songAudioFileUrl="" stabilizationMode="0" mediaItemType="2" />
    <MediaItem id="1337" filePath="C:\Users\owner\Dropbox\Work\png\animation T=1.01337.png" arWidth="640" arHeight="480" duration="0" songTitle="" songArtist="" songAlbum="" songCopyrightUrl="" songArtistUrl="" songAudioFileUrl="" stabilizationMode="0" mediaItemType="2" />
    <MediaItem id="1338" filePath="C:\Users\owner\Dropbox\Work\png\animation T=1.01338.png" arWidth="640" arHeight="480" duration="0" songTitle="" songArtist="" songAlbum="" songCopyrightUrl="" songArtistUrl="" songAudioFileUrl="" stabilizationMode="0" mediaItemType="2" />
    <MediaItem id="1339" filePath="C:\Users\owner\Dropbox\Work\png\animation T=1.01339.png" arWidth="640" arHeight="480" duration="0" songTitle="" songArtist="" songAlbum="" songCopyrightUrl="" songArtistUrl="" songAudioFileUrl="" stabilizationMode="0" mediaItemType="2" />
    <MediaItem id="1340" filePath="C:\Users\owner\Dropbox\Work\png\animation T=1.01340.png" arWidth="640" arHeight="480" duration="0" songTitle="" songArtist="" songAlbum="" songCopyrightUrl="" songArtistUrl="" songAudioFileUrl="" stabilizationMode="0" mediaItemType="2" />
    <MediaItem id="1341" filePath="C:\Users\owner\Dropbox\Work\png\animation T=1.01341.png" arWidth="640" arHeight="480" duration="0" songTitle="" songArtist="" songAlbum="" songCopyrightUrl="" songArtistUrl="" songAudioFileUrl="" stabilizationMode="0" mediaItemType="2" />
    <MediaItem id="1342" filePath="C:\Users\owner\Dropbox\Work\png\animation T=1.01342.png" arWidth="640" arHeight="480" duration="0" songTitle="" songArtist="" songAlbum="" songCopyrightUrl="" songArtistUrl="" songAudioFileUrl="" stabilizationMode="0" mediaItemType="2" />
    <MediaItem id="1343" filePath="C:\Users\owner\Dropbox\Work\png\animation T=1.01343.png" arWidth="640" arHeight="480" duration="0" songTitle="" songArtist="" songAlbum="" songCopyrightUrl="" songArtistUrl="" songAudioFileUrl="" stabilizationMode="0" mediaItemType="2" />
    <MediaItem id="1344" filePath="C:\Users\owner\Dropbox\Work\png\animation T=1.01344.png" arWidth="640" arHeight="480" duration="0" songTitle="" songArtist="" songAlbum="" songCopyrightUrl="" songArtistUrl="" songAudioFileUrl="" stabilizationMode="0" mediaItemType="2" />
    <MediaItem id="1345" filePath="C:\Users\owner\Dropbox\Work\png\animation T=1.01345.png" arWidth="640" arHeight="480" duration="0" songTitle="" songArtist="" songAlbum="" songCopyrightUrl="" songArtistUrl="" songAudioFileUrl="" stabilizationMode="0" mediaItemType="2" />
    <MediaItem id="1346" filePath="C:\Users\owner\Dropbox\Work\png\animation T=1.01346.png" arWidth="640" arHeight="480" duration="0" songTitle="" songArtist="" songAlbum="" songCopyrightUrl="" songArtistUrl="" songAudioFileUrl="" stabilizationMode="0" mediaItemType="2" />
    <MediaItem id="1347" filePath="C:\Users\owner\Dropbox\Work\png\animation T=1.01347.png" arWidth="640" arHeight="480" duration="0" songTitle="" songArtist="" songAlbum="" songCopyrightUrl="" songArtistUrl="" songAudioFileUrl="" stabilizationMode="0" mediaItemType="2" />
    <MediaItem id="1348" filePath="C:\Users\owner\Dropbox\Work\png\animation T=1.01348.png" arWidth="640" arHeight="480" duration="0" songTitle="" songArtist="" songAlbum="" songCopyrightUrl="" songArtistUrl="" songAudioFileUrl="" stabilizationMode="0" mediaItemType="2" />
    <MediaItem id="1349" filePath="C:\Users\owner\Dropbox\Work\png\animation T=1.01349.png" arWidth="640" arHeight="480" duration="0" songTitle="" songArtist="" songAlbum="" songCopyrightUrl="" songArtistUrl="" songAudioFileUrl="" stabilizationMode="0" mediaItemType="2" />
    <MediaItem id="1350" filePath="C:\Users\owner\Dropbox\Work\png\animation T=1.01350.png" arWidth="640" arHeight="480" duration="0" songTitle="" songArtist="" songAlbum="" songCopyrightUrl="" songArtistUrl="" songAudioFileUrl="" stabilizationMode="0" mediaItemType="2" />
    <MediaItem id="1351" filePath="C:\Users\owner\Dropbox\Work\png\animation T=1.01351.png" arWidth="640" arHeight="480" duration="0" songTitle="" songArtist="" songAlbum="" songCopyrightUrl="" songArtistUrl="" songAudioFileUrl="" stabilizationMode="0" mediaItemType="2" />
    <MediaItem id="1352" filePath="C:\Users\owner\Dropbox\Work\png\animation T=1.01352.png" arWidth="640" arHeight="480" duration="0" songTitle="" songArtist="" songAlbum="" songCopyrightUrl="" songArtistUrl="" songAudioFileUrl="" stabilizationMode="0" mediaItemType="2" />
    <MediaItem id="1353" filePath="C:\Users\owner\Dropbox\Work\png\animation T=1.01353.png" arWidth="640" arHeight="480" duration="0" songTitle="" songArtist="" songAlbum="" songCopyrightUrl="" songArtistUrl="" songAudioFileUrl="" stabilizationMode="0" mediaItemType="2" />
    <MediaItem id="1354" filePath="C:\Users\owner\Dropbox\Work\png\animation T=1.01354.png" arWidth="640" arHeight="480" duration="0" songTitle="" songArtist="" songAlbum="" songCopyrightUrl="" songArtistUrl="" songAudioFileUrl="" stabilizationMode="0" mediaItemType="2" />
    <MediaItem id="1355" filePath="C:\Users\owner\Dropbox\Work\png\animation T=1.01355.png" arWidth="640" arHeight="480" duration="0" songTitle="" songArtist="" songAlbum="" songCopyrightUrl="" songArtistUrl="" songAudioFileUrl="" stabilizationMode="0" mediaItemType="2" />
    <MediaItem id="1356" filePath="C:\Users\owner\Dropbox\Work\png\animation T=1.01356.png" arWidth="640" arHeight="480" duration="0" songTitle="" songArtist="" songAlbum="" songCopyrightUrl="" songArtistUrl="" songAudioFileUrl="" stabilizationMode="0" mediaItemType="2" />
    <MediaItem id="1357" filePath="C:\Users\owner\Dropbox\Work\png\animation T=1.01357.png" arWidth="640" arHeight="480" duration="0" songTitle="" songArtist="" songAlbum="" songCopyrightUrl="" songArtistUrl="" songAudioFileUrl="" stabilizationMode="0" mediaItemType="2" />
    <MediaItem id="1358" filePath="C:\Users\owner\Dropbox\Work\png\animation T=1.01358.png" arWidth="640" arHeight="480" duration="0" songTitle="" songArtist="" songAlbum="" songCopyrightUrl="" songArtistUrl="" songAudioFileUrl="" stabilizationMode="0" mediaItemType="2" />
    <MediaItem id="1359" filePath="C:\Users\owner\Dropbox\Work\png\animation T=1.01359.png" arWidth="640" arHeight="480" duration="0" songTitle="" songArtist="" songAlbum="" songCopyrightUrl="" songArtistUrl="" songAudioFileUrl="" stabilizationMode="0" mediaItemType="2" />
    <MediaItem id="1360" filePath="C:\Users\owner\Dropbox\Work\png\animation T=1.01360.png" arWidth="640" arHeight="480" duration="0" songTitle="" songArtist="" songAlbum="" songCopyrightUrl="" songArtistUrl="" songAudioFileUrl="" stabilizationMode="0" mediaItemType="2" />
    <MediaItem id="1361" filePath="C:\Users\owner\Dropbox\Work\png\animation T=1.01361.png" arWidth="640" arHeight="480" duration="0" songTitle="" songArtist="" songAlbum="" songCopyrightUrl="" songArtistUrl="" songAudioFileUrl="" stabilizationMode="0" mediaItemType="2" />
    <MediaItem id="1362" filePath="C:\Users\owner\Dropbox\Work\png\animation T=1.01362.png" arWidth="640" arHeight="480" duration="0" songTitle="" songArtist="" songAlbum="" songCopyrightUrl="" songArtistUrl="" songAudioFileUrl="" stabilizationMode="0" mediaItemType="2" />
    <MediaItem id="1363" filePath="C:\Users\owner\Dropbox\Work\png\animation T=1.01363.png" arWidth="640" arHeight="480" duration="0" songTitle="" songArtist="" songAlbum="" songCopyrightUrl="" songArtistUrl="" songAudioFileUrl="" stabilizationMode="0" mediaItemType="2" />
    <MediaItem id="1364" filePath="C:\Users\owner\Dropbox\Work\png\animation T=1.01364.png" arWidth="640" arHeight="480" duration="0" songTitle="" songArtist="" songAlbum="" songCopyrightUrl="" songArtistUrl="" songAudioFileUrl="" stabilizationMode="0" mediaItemType="2" />
    <MediaItem id="1365" filePath="C:\Users\owner\Dropbox\Work\png\animation T=1.01365.png" arWidth="640" arHeight="480" duration="0" songTitle="" songArtist="" songAlbum="" songCopyrightUrl="" songArtistUrl="" songAudioFileUrl="" stabilizationMode="0" mediaItemType="2" />
    <MediaItem id="1366" filePath="C:\Users\owner\Dropbox\Work\png\animation T=1.01366.png" arWidth="640" arHeight="480" duration="0" songTitle="" songArtist="" songAlbum="" songCopyrightUrl="" songArtistUrl="" songAudioFileUrl="" stabilizationMode="0" mediaItemType="2" />
    <MediaItem id="1367" filePath="C:\Users\owner\Dropbox\Work\png\animation T=1.01367.png" arWidth="640" arHeight="480" duration="0" songTitle="" songArtist="" songAlbum="" songCopyrightUrl="" songArtistUrl="" songAudioFileUrl="" stabilizationMode="0" mediaItemType="2" />
    <MediaItem id="1368" filePath="C:\Users\owner\Dropbox\Work\png\animation T=1.01368.png" arWidth="640" arHeight="480" duration="0" songTitle="" songArtist="" songAlbum="" songCopyrightUrl="" songArtistUrl="" songAudioFileUrl="" stabilizationMode="0" mediaItemType="2" />
    <MediaItem id="1369" filePath="C:\Users\owner\Dropbox\Work\png\animation T=1.01369.png" arWidth="640" arHeight="480" duration="0" songTitle="" songArtist="" songAlbum="" songCopyrightUrl="" songArtistUrl="" songAudioFileUrl="" stabilizationMode="0" mediaItemType="2" />
    <MediaItem id="1370" filePath="C:\Users\owner\Dropbox\Work\png\animation T=1.01370.png" arWidth="640" arHeight="480" duration="0" songTitle="" songArtist="" songAlbum="" songCopyrightUrl="" songArtistUrl="" songAudioFileUrl="" stabilizationMode="0" mediaItemType="2" />
    <MediaItem id="1371" filePath="C:\Users\owner\Dropbox\Work\png\animation T=1.01371.png" arWidth="640" arHeight="480" duration="0" songTitle="" songArtist="" songAlbum="" songCopyrightUrl="" songArtistUrl="" songAudioFileUrl="" stabilizationMode="0" mediaItemType="2" />
    <MediaItem id="1372" filePath="C:\Users\owner\Dropbox\Work\png\animation T=1.01372.png" arWidth="640" arHeight="480" duration="0" songTitle="" songArtist="" songAlbum="" songCopyrightUrl="" songArtistUrl="" songAudioFileUrl="" stabilizationMode="0" mediaItemType="2" />
    <MediaItem id="1373" filePath="C:\Users\owner\Dropbox\Work\png\animation T=1.01373.png" arWidth="640" arHeight="480" duration="0" songTitle="" songArtist="" songAlbum="" songCopyrightUrl="" songArtistUrl="" songAudioFileUrl="" stabilizationMode="0" mediaItemType="2" />
    <MediaItem id="1374" filePath="C:\Users\owner\Dropbox\Work\png\animation T=1.01374.png" arWidth="640" arHeight="480" duration="0" songTitle="" songArtist="" songAlbum="" songCopyrightUrl="" songArtistUrl="" songAudioFileUrl="" stabilizationMode="0" mediaItemType="2" />
    <MediaItem id="1375" filePath="C:\Users\owner\Dropbox\Work\png\animation T=1.01375.png" arWidth="640" arHeight="480" duration="0" songTitle="" songArtist="" songAlbum="" songCopyrightUrl="" songArtistUrl="" songAudioFileUrl="" stabilizationMode="0" mediaItemType="2" />
    <MediaItem id="1376" filePath="C:\Users\owner\Dropbox\Work\png\animation T=1.01376.png" arWidth="640" arHeight="480" duration="0" songTitle="" songArtist="" songAlbum="" songCopyrightUrl="" songArtistUrl="" songAudioFileUrl="" stabilizationMode="0" mediaItemType="2" />
    <MediaItem id="1377" filePath="C:\Users\owner\Dropbox\Work\png\animation T=1.01377.png" arWidth="640" arHeight="480" duration="0" songTitle="" songArtist="" songAlbum="" songCopyrightUrl="" songArtistUrl="" songAudioFileUrl="" stabilizationMode="0" mediaItemType="2" />
    <MediaItem id="1378" filePath="C:\Users\owner\Dropbox\Work\png\animation T=1.01378.png" arWidth="640" arHeight="480" duration="0" songTitle="" songArtist="" songAlbum="" songCopyrightUrl="" songArtistUrl="" songAudioFileUrl="" stabilizationMode="0" mediaItemType="2" />
    <MediaItem id="1379" filePath="C:\Users\owner\Dropbox\Work\png\animation T=1.01379.png" arWidth="640" arHeight="480" duration="0" songTitle="" songArtist="" songAlbum="" songCopyrightUrl="" songArtistUrl="" songAudioFileUrl="" stabilizationMode="0" mediaItemType="2" />
    <MediaItem id="1380" filePath="C:\Users\owner\Dropbox\Work\png\animation T=1.01380.png" arWidth="640" arHeight="480" duration="0" songTitle="" songArtist="" songAlbum="" songCopyrightUrl="" songArtistUrl="" songAudioFileUrl="" stabilizationMode="0" mediaItemType="2" />
    <MediaItem id="1381" filePath="C:\Users\owner\Dropbox\Work\png\animation T=1.01381.png" arWidth="640" arHeight="480" duration="0" songTitle="" songArtist="" songAlbum="" songCopyrightUrl="" songArtistUrl="" songAudioFileUrl="" stabilizationMode="0" mediaItemType="2" />
    <MediaItem id="1382" filePath="C:\Users\owner\Dropbox\Work\png\animation T=1.01382.png" arWidth="640" arHeight="480" duration="0" songTitle="" songArtist="" songAlbum="" songCopyrightUrl="" songArtistUrl="" songAudioFileUrl="" stabilizationMode="0" mediaItemType="2" />
    <MediaItem id="1383" filePath="C:\Users\owner\Dropbox\Work\png\animation T=1.01383.png" arWidth="640" arHeight="480" duration="0" songTitle="" songArtist="" songAlbum="" songCopyrightUrl="" songArtistUrl="" songAudioFileUrl="" stabilizationMode="0" mediaItemType="2" />
    <MediaItem id="1384" filePath="C:\Users\owner\Dropbox\Work\png\animation T=1.01384.png" arWidth="640" arHeight="480" duration="0" songTitle="" songArtist="" songAlbum="" songCopyrightUrl="" songArtistUrl="" songAudioFileUrl="" stabilizationMode="0" mediaItemType="2" />
    <MediaItem id="1385" filePath="C:\Users\owner\Dropbox\Work\png\animation T=1.01385.png" arWidth="640" arHeight="480" duration="0" songTitle="" songArtist="" songAlbum="" songCopyrightUrl="" songArtistUrl="" songAudioFileUrl="" stabilizationMode="0" mediaItemType="2" />
    <MediaItem id="1386" filePath="C:\Users\owner\Dropbox\Work\png\animation T=1.01386.png" arWidth="640" arHeight="480" duration="0" songTitle="" songArtist="" songAlbum="" songCopyrightUrl="" songArtistUrl="" songAudioFileUrl="" stabilizationMode="0" mediaItemType="2" />
    <MediaItem id="1387" filePath="C:\Users\owner\Dropbox\Work\png\animation T=1.01387.png" arWidth="640" arHeight="480" duration="0" songTitle="" songArtist="" songAlbum="" songCopyrightUrl="" songArtistUrl="" songAudioFileUrl="" stabilizationMode="0" mediaItemType="2" />
    <MediaItem id="1388" filePath="C:\Users\owner\Dropbox\Work\png\animation T=1.01388.png" arWidth="640" arHeight="480" duration="0" songTitle="" songArtist="" songAlbum="" songCopyrightUrl="" songArtistUrl="" songAudioFileUrl="" stabilizationMode="0" mediaItemType="2" />
    <MediaItem id="1389" filePath="C:\Users\owner\Dropbox\Work\png\animation T=1.01389.png" arWidth="640" arHeight="480" duration="0" songTitle="" songArtist="" songAlbum="" songCopyrightUrl="" songArtistUrl="" songAudioFileUrl="" stabilizationMode="0" mediaItemType="2" />
    <MediaItem id="1390" filePath="C:\Users\owner\Dropbox\Work\png\animation T=1.01390.png" arWidth="640" arHeight="480" duration="0" songTitle="" songArtist="" songAlbum="" songCopyrightUrl="" songArtistUrl="" songAudioFileUrl="" stabilizationMode="0" mediaItemType="2" />
    <MediaItem id="1391" filePath="C:\Users\owner\Dropbox\Work\png\animation T=1.01391.png" arWidth="640" arHeight="480" duration="0" songTitle="" songArtist="" songAlbum="" songCopyrightUrl="" songArtistUrl="" songAudioFileUrl="" stabilizationMode="0" mediaItemType="2" />
    <MediaItem id="1392" filePath="C:\Users\owner\Dropbox\Work\png\animation T=1.01392.png" arWidth="640" arHeight="480" duration="0" songTitle="" songArtist="" songAlbum="" songCopyrightUrl="" songArtistUrl="" songAudioFileUrl="" stabilizationMode="0" mediaItemType="2" />
    <MediaItem id="1393" filePath="C:\Users\owner\Dropbox\Work\png\animation T=1.01393.png" arWidth="640" arHeight="480" duration="0" songTitle="" songArtist="" songAlbum="" songCopyrightUrl="" songArtistUrl="" songAudioFileUrl="" stabilizationMode="0" mediaItemType="2" />
    <MediaItem id="1394" filePath="C:\Users\owner\Dropbox\Work\png\animation T=1.01394.png" arWidth="640" arHeight="480" duration="0" songTitle="" songArtist="" songAlbum="" songCopyrightUrl="" songArtistUrl="" songAudioFileUrl="" stabilizationMode="0" mediaItemType="2" />
    <MediaItem id="1395" filePath="C:\Users\owner\Dropbox\Work\png\animation T=1.01395.png" arWidth="640" arHeight="480" duration="0" songTitle="" songArtist="" songAlbum="" songCopyrightUrl="" songArtistUrl="" songAudioFileUrl="" stabilizationMode="0" mediaItemType="2" />
    <MediaItem id="1396" filePath="C:\Users\owner\Dropbox\Work\png\animation T=1.01396.png" arWidth="640" arHeight="480" duration="0" songTitle="" songArtist="" songAlbum="" songCopyrightUrl="" songArtistUrl="" songAudioFileUrl="" stabilizationMode="0" mediaItemType="2" />
    <MediaItem id="1397" filePath="C:\Users\owner\Dropbox\Work\png\animation T=1.01397.png" arWidth="640" arHeight="480" duration="0" songTitle="" songArtist="" songAlbum="" songCopyrightUrl="" songArtistUrl="" songAudioFileUrl="" stabilizationMode="0" mediaItemType="2" />
    <MediaItem id="1398" filePath="C:\Users\owner\Dropbox\Work\png\animation T=1.01398.png" arWidth="640" arHeight="480" duration="0" songTitle="" songArtist="" songAlbum="" songCopyrightUrl="" songArtistUrl="" songAudioFileUrl="" stabilizationMode="0" mediaItemType="2" />
    <MediaItem id="1399" filePath="C:\Users\owner\Dropbox\Work\png\animation T=1.01399.png" arWidth="640" arHeight="480" duration="0" songTitle="" songArtist="" songAlbum="" songCopyrightUrl="" songArtistUrl="" songAudioFileUrl="" stabilizationMode="0" mediaItemType="2" />
    <MediaItem id="1400" filePath="C:\Users\owner\Dropbox\Work\png\animation T=1.01400.png" arWidth="640" arHeight="480" duration="0" songTitle="" songArtist="" songAlbum="" songCopyrightUrl="" songArtistUrl="" songAudioFileUrl="" stabilizationMode="0" mediaItemType="2" />
    <MediaItem id="1401" filePath="C:\Users\owner\Dropbox\Work\png\animation T=1.01401.png" arWidth="640" arHeight="480" duration="0" songTitle="" songArtist="" songAlbum="" songCopyrightUrl="" songArtistUrl="" songAudioFileUrl="" stabilizationMode="0" mediaItemType="2" />
    <MediaItem id="1402" filePath="C:\Users\owner\Dropbox\Work\png\animation T=1.01402.png" arWidth="640" arHeight="480" duration="0" songTitle="" songArtist="" songAlbum="" songCopyrightUrl="" songArtistUrl="" songAudioFileUrl="" stabilizationMode="0" mediaItemType="2" />
    <MediaItem id="1403" filePath="C:\Users\owner\Dropbox\Work\png\animation T=1.01403.png" arWidth="640" arHeight="480" duration="0" songTitle="" songArtist="" songAlbum="" songCopyrightUrl="" songArtistUrl="" songAudioFileUrl="" stabilizationMode="0" mediaItemType="2" />
    <MediaItem id="1404" filePath="C:\Users\owner\Dropbox\Work\png\animation T=1.01404.png" arWidth="640" arHeight="480" duration="0" songTitle="" songArtist="" songAlbum="" songCopyrightUrl="" songArtistUrl="" songAudioFileUrl="" stabilizationMode="0" mediaItemType="2" />
    <MediaItem id="1405" filePath="C:\Users\owner\Dropbox\Work\png\animation T=1.01405.png" arWidth="640" arHeight="480" duration="0" songTitle="" songArtist="" songAlbum="" songCopyrightUrl="" songArtistUrl="" songAudioFileUrl="" stabilizationMode="0" mediaItemType="2" />
    <MediaItem id="1406" filePath="C:\Users\owner\Dropbox\Work\png\animation T=1.01406.png" arWidth="640" arHeight="480" duration="0" songTitle="" songArtist="" songAlbum="" songCopyrightUrl="" songArtistUrl="" songAudioFileUrl="" stabilizationMode="0" mediaItemType="2" />
    <MediaItem id="1407" filePath="C:\Users\owner\Dropbox\Work\png\animation T=1.01407.png" arWidth="640" arHeight="480" duration="0" songTitle="" songArtist="" songAlbum="" songCopyrightUrl="" songArtistUrl="" songAudioFileUrl="" stabilizationMode="0" mediaItemType="2" />
    <MediaItem id="1408" filePath="C:\Users\owner\Dropbox\Work\png\animation T=1.01408.png" arWidth="640" arHeight="480" duration="0" songTitle="" songArtist="" songAlbum="" songCopyrightUrl="" songArtistUrl="" songAudioFileUrl="" stabilizationMode="0" mediaItemType="2" />
    <MediaItem id="1409" filePath="C:\Users\owner\Dropbox\Work\png\animation T=1.01409.png" arWidth="640" arHeight="480" duration="0" songTitle="" songArtist="" songAlbum="" songCopyrightUrl="" songArtistUrl="" songAudioFileUrl="" stabilizationMode="0" mediaItemType="2" />
    <MediaItem id="1410" filePath="C:\Users\owner\Dropbox\Work\png\animation T=1.01410.png" arWidth="640" arHeight="480" duration="0" songTitle="" songArtist="" songAlbum="" songCopyrightUrl="" songArtistUrl="" songAudioFileUrl="" stabilizationMode="0" mediaItemType="2" />
    <MediaItem id="1411" filePath="C:\Users\owner\Dropbox\Work\png\animation T=1.01411.png" arWidth="640" arHeight="480" duration="0" songTitle="" songArtist="" songAlbum="" songCopyrightUrl="" songArtistUrl="" songAudioFileUrl="" stabilizationMode="0" mediaItemType="2" />
    <MediaItem id="1412" filePath="C:\Users\owner\Dropbox\Work\png\animation T=1.01412.png" arWidth="640" arHeight="480" duration="0" songTitle="" songArtist="" songAlbum="" songCopyrightUrl="" songArtistUrl="" songAudioFileUrl="" stabilizationMode="0" mediaItemType="2" />
    <MediaItem id="1413" filePath="C:\Users\owner\Dropbox\Work\png\animation T=1.01413.png" arWidth="640" arHeight="480" duration="0" songTitle="" songArtist="" songAlbum="" songCopyrightUrl="" songArtistUrl="" songAudioFileUrl="" stabilizationMode="0" mediaItemType="2" />
    <MediaItem id="1414" filePath="C:\Users\owner\Dropbox\Work\png\animation T=1.01414.png" arWidth="640" arHeight="480" duration="0" songTitle="" songArtist="" songAlbum="" songCopyrightUrl="" songArtistUrl="" songAudioFileUrl="" stabilizationMode="0" mediaItemType="2" />
    <MediaItem id="1415" filePath="C:\Users\owner\Dropbox\Work\png\animation T=1.01415.png" arWidth="640" arHeight="480" duration="0" songTitle="" songArtist="" songAlbum="" songCopyrightUrl="" songArtistUrl="" songAudioFileUrl="" stabilizationMode="0" mediaItemType="2" />
    <MediaItem id="1416" filePath="C:\Users\owner\Dropbox\Work\png\animation T=1.01416.png" arWidth="640" arHeight="480" duration="0" songTitle="" songArtist="" songAlbum="" songCopyrightUrl="" songArtistUrl="" songAudioFileUrl="" stabilizationMode="0" mediaItemType="2" />
    <MediaItem id="1417" filePath="C:\Users\owner\Dropbox\Work\png\animation T=1.01417.png" arWidth="640" arHeight="480" duration="0" songTitle="" songArtist="" songAlbum="" songCopyrightUrl="" songArtistUrl="" songAudioFileUrl="" stabilizationMode="0" mediaItemType="2" />
    <MediaItem id="1418" filePath="C:\Users\owner\Dropbox\Work\png\animation T=1.01418.png" arWidth="640" arHeight="480" duration="0" songTitle="" songArtist="" songAlbum="" songCopyrightUrl="" songArtistUrl="" songAudioFileUrl="" stabilizationMode="0" mediaItemType="2" />
    <MediaItem id="1419" filePath="C:\Users\owner\Dropbox\Work\png\animation T=1.01419.png" arWidth="640" arHeight="480" duration="0" songTitle="" songArtist="" songAlbum="" songCopyrightUrl="" songArtistUrl="" songAudioFileUrl="" stabilizationMode="0" mediaItemType="2" />
    <MediaItem id="1420" filePath="C:\Users\owner\Dropbox\Work\png\animation T=1.01420.png" arWidth="640" arHeight="480" duration="0" songTitle="" songArtist="" songAlbum="" songCopyrightUrl="" songArtistUrl="" songAudioFileUrl="" stabilizationMode="0" mediaItemType="2" />
    <MediaItem id="1421" filePath="C:\Users\owner\Dropbox\Work\png\animation T=1.01421.png" arWidth="640" arHeight="480" duration="0" songTitle="" songArtist="" songAlbum="" songCopyrightUrl="" songArtistUrl="" songAudioFileUrl="" stabilizationMode="0" mediaItemType="2" />
    <MediaItem id="1422" filePath="C:\Users\owner\Dropbox\Work\png\animation T=1.01422.png" arWidth="640" arHeight="480" duration="0" songTitle="" songArtist="" songAlbum="" songCopyrightUrl="" songArtistUrl="" songAudioFileUrl="" stabilizationMode="0" mediaItemType="2" />
    <MediaItem id="1423" filePath="C:\Users\owner\Dropbox\Work\png\animation T=1.01423.png" arWidth="640" arHeight="480" duration="0" songTitle="" songArtist="" songAlbum="" songCopyrightUrl="" songArtistUrl="" songAudioFileUrl="" stabilizationMode="0" mediaItemType="2" />
    <MediaItem id="1424" filePath="C:\Users\owner\Dropbox\Work\png\animation T=1.01424.png" arWidth="640" arHeight="480" duration="0" songTitle="" songArtist="" songAlbum="" songCopyrightUrl="" songArtistUrl="" songAudioFileUrl="" stabilizationMode="0" mediaItemType="2" />
    <MediaItem id="1425" filePath="C:\Users\owner\Dropbox\Work\png\animation T=1.01425.png" arWidth="640" arHeight="480" duration="0" songTitle="" songArtist="" songAlbum="" songCopyrightUrl="" songArtistUrl="" songAudioFileUrl="" stabilizationMode="0" mediaItemType="2" />
    <MediaItem id="1426" filePath="C:\Users\owner\Dropbox\Work\png\animation T=1.01426.png" arWidth="640" arHeight="480" duration="0" songTitle="" songArtist="" songAlbum="" songCopyrightUrl="" songArtistUrl="" songAudioFileUrl="" stabilizationMode="0" mediaItemType="2" />
    <MediaItem id="1427" filePath="C:\Users\owner\Dropbox\Work\png\animation T=1.01427.png" arWidth="640" arHeight="480" duration="0" songTitle="" songArtist="" songAlbum="" songCopyrightUrl="" songArtistUrl="" songAudioFileUrl="" stabilizationMode="0" mediaItemType="2" />
    <MediaItem id="1428" filePath="C:\Users\owner\Dropbox\Work\png\animation T=1.01428.png" arWidth="640" arHeight="480" duration="0" songTitle="" songArtist="" songAlbum="" songCopyrightUrl="" songArtistUrl="" songAudioFileUrl="" stabilizationMode="0" mediaItemType="2" />
    <MediaItem id="1429" filePath="C:\Users\owner\Dropbox\Work\png\animation T=1.01429.png" arWidth="640" arHeight="480" duration="0" songTitle="" songArtist="" songAlbum="" songCopyrightUrl="" songArtistUrl="" songAudioFileUrl="" stabilizationMode="0" mediaItemType="2" />
    <MediaItem id="1430" filePath="C:\Users\owner\Dropbox\Work\png\animation T=1.01430.png" arWidth="640" arHeight="480" duration="0" songTitle="" songArtist="" songAlbum="" songCopyrightUrl="" songArtistUrl="" songAudioFileUrl="" stabilizationMode="0" mediaItemType="2" />
    <MediaItem id="1431" filePath="C:\Users\owner\Dropbox\Work\png\animation T=1.01431.png" arWidth="640" arHeight="480" duration="0" songTitle="" songArtist="" songAlbum="" songCopyrightUrl="" songArtistUrl="" songAudioFileUrl="" stabilizationMode="0" mediaItemType="2" />
    <MediaItem id="1432" filePath="C:\Users\owner\Dropbox\Work\png\animation T=1.01432.png" arWidth="640" arHeight="480" duration="0" songTitle="" songArtist="" songAlbum="" songCopyrightUrl="" songArtistUrl="" songAudioFileUrl="" stabilizationMode="0" mediaItemType="2" />
    <MediaItem id="1433" filePath="C:\Users\owner\Dropbox\Work\png\animation T=1.01433.png" arWidth="640" arHeight="480" duration="0" songTitle="" songArtist="" songAlbum="" songCopyrightUrl="" songArtistUrl="" songAudioFileUrl="" stabilizationMode="0" mediaItemType="2" />
    <MediaItem id="1434" filePath="C:\Users\owner\Dropbox\Work\png\animation T=1.01434.png" arWidth="640" arHeight="480" duration="0" songTitle="" songArtist="" songAlbum="" songCopyrightUrl="" songArtistUrl="" songAudioFileUrl="" stabilizationMode="0" mediaItemType="2" />
    <MediaItem id="1435" filePath="C:\Users\owner\Dropbox\Work\png\animation T=1.01435.png" arWidth="640" arHeight="480" duration="0" songTitle="" songArtist="" songAlbum="" songCopyrightUrl="" songArtistUrl="" songAudioFileUrl="" stabilizationMode="0" mediaItemType="2" />
    <MediaItem id="1436" filePath="C:\Users\owner\Dropbox\Work\png\animation T=1.01436.png" arWidth="640" arHeight="480" duration="0" songTitle="" songArtist="" songAlbum="" songCopyrightUrl="" songArtistUrl="" songAudioFileUrl="" stabilizationMode="0" mediaItemType="2" />
    <MediaItem id="1437" filePath="C:\Users\owner\Dropbox\Work\png\animation T=1.01437.png" arWidth="640" arHeight="480" duration="0" songTitle="" songArtist="" songAlbum="" songCopyrightUrl="" songArtistUrl="" songAudioFileUrl="" stabilizationMode="0" mediaItemType="2" />
    <MediaItem id="1438" filePath="C:\Users\owner\Dropbox\Work\png\animation T=1.01438.png" arWidth="640" arHeight="480" duration="0" songTitle="" songArtist="" songAlbum="" songCopyrightUrl="" songArtistUrl="" songAudioFileUrl="" stabilizationMode="0" mediaItemType="2" />
    <MediaItem id="1439" filePath="C:\Users\owner\Dropbox\Work\png\animation T=1.01439.png" arWidth="640" arHeight="480" duration="0" songTitle="" songArtist="" songAlbum="" songCopyrightUrl="" songArtistUrl="" songAudioFileUrl="" stabilizationMode="0" mediaItemType="2" />
    <MediaItem id="1440" filePath="C:\Users\owner\Dropbox\Work\png\animation T=1.01440.png" arWidth="640" arHeight="480" duration="0" songTitle="" songArtist="" songAlbum="" songCopyrightUrl="" songArtistUrl="" songAudioFileUrl="" stabilizationMode="0" mediaItemType="2" />
    <MediaItem id="1441" filePath="C:\Users\owner\Dropbox\Work\png\animation T=1.01441.png" arWidth="640" arHeight="480" duration="0" songTitle="" songArtist="" songAlbum="" songCopyrightUrl="" songArtistUrl="" songAudioFileUrl="" stabilizationMode="0" mediaItemType="2" />
    <MediaItem id="1442" filePath="C:\Users\owner\Dropbox\Work\png\animation T=1.01442.png" arWidth="640" arHeight="480" duration="0" songTitle="" songArtist="" songAlbum="" songCopyrightUrl="" songArtistUrl="" songAudioFileUrl="" stabilizationMode="0" mediaItemType="2" />
    <MediaItem id="1443" filePath="C:\Users\owner\Dropbox\Work\png\animation T=1.01443.png" arWidth="640" arHeight="480" duration="0" songTitle="" songArtist="" songAlbum="" songCopyrightUrl="" songArtistUrl="" songAudioFileUrl="" stabilizationMode="0" mediaItemType="2" />
    <MediaItem id="1444" filePath="C:\Users\owner\Dropbox\Work\png\animation T=1.01444.png" arWidth="640" arHeight="480" duration="0" songTitle="" songArtist="" songAlbum="" songCopyrightUrl="" songArtistUrl="" songAudioFileUrl="" stabilizationMode="0" mediaItemType="2" />
    <MediaItem id="1445" filePath="C:\Users\owner\Dropbox\Work\png\animation T=1.01445.png" arWidth="640" arHeight="480" duration="0" songTitle="" songArtist="" songAlbum="" songCopyrightUrl="" songArtistUrl="" songAudioFileUrl="" stabilizationMode="0" mediaItemType="2" />
    <MediaItem id="1446" filePath="C:\Users\owner\Dropbox\Work\png\animation T=1.01446.png" arWidth="640" arHeight="480" duration="0" songTitle="" songArtist="" songAlbum="" songCopyrightUrl="" songArtistUrl="" songAudioFileUrl="" stabilizationMode="0" mediaItemType="2" />
    <MediaItem id="1447" filePath="C:\Users\owner\Dropbox\Work\png\animation T=1.01447.png" arWidth="640" arHeight="480" duration="0" songTitle="" songArtist="" songAlbum="" songCopyrightUrl="" songArtistUrl="" songAudioFileUrl="" stabilizationMode="0" mediaItemType="2" />
    <MediaItem id="1448" filePath="C:\Users\owner\Dropbox\Work\png\animation T=1.01448.png" arWidth="640" arHeight="480" duration="0" songTitle="" songArtist="" songAlbum="" songCopyrightUrl="" songArtistUrl="" songAudioFileUrl="" stabilizationMode="0" mediaItemType="2" />
    <MediaItem id="1449" filePath="C:\Users\owner\Dropbox\Work\png\animation T=1.01449.png" arWidth="640" arHeight="480" duration="0" songTitle="" songArtist="" songAlbum="" songCopyrightUrl="" songArtistUrl="" songAudioFileUrl="" stabilizationMode="0" mediaItemType="2" />
    <MediaItem id="1450" filePath="C:\Users\owner\Dropbox\Work\png\animation T=1.01450.png" arWidth="640" arHeight="480" duration="0" songTitle="" songArtist="" songAlbum="" songCopyrightUrl="" songArtistUrl="" songAudioFileUrl="" stabilizationMode="0" mediaItemType="2" />
    <MediaItem id="1451" filePath="C:\Users\owner\Dropbox\Work\png\animation T=1.01451.png" arWidth="640" arHeight="480" duration="0" songTitle="" songArtist="" songAlbum="" songCopyrightUrl="" songArtistUrl="" songAudioFileUrl="" stabilizationMode="0" mediaItemType="2" />
    <MediaItem id="1452" filePath="C:\Users\owner\Dropbox\Work\png\animation T=1.01452.png" arWidth="640" arHeight="480" duration="0" songTitle="" songArtist="" songAlbum="" songCopyrightUrl="" songArtistUrl="" songAudioFileUrl="" stabilizationMode="0" mediaItemType="2" />
    <MediaItem id="1453" filePath="C:\Users\owner\Dropbox\Work\png\animation T=1.01453.png" arWidth="640" arHeight="480" duration="0" songTitle="" songArtist="" songAlbum="" songCopyrightUrl="" songArtistUrl="" songAudioFileUrl="" stabilizationMode="0" mediaItemType="2" />
    <MediaItem id="1454" filePath="C:\Users\owner\Dropbox\Work\png\animation T=1.01454.png" arWidth="640" arHeight="480" duration="0" songTitle="" songArtist="" songAlbum="" songCopyrightUrl="" songArtistUrl="" songAudioFileUrl="" stabilizationMode="0" mediaItemType="2" />
    <MediaItem id="1455" filePath="C:\Users\owner\Dropbox\Work\png\animation T=1.01455.png" arWidth="640" arHeight="480" duration="0" songTitle="" songArtist="" songAlbum="" songCopyrightUrl="" songArtistUrl="" songAudioFileUrl="" stabilizationMode="0" mediaItemType="2" />
    <MediaItem id="1456" filePath="C:\Users\owner\Dropbox\Work\png\animation T=1.01456.png" arWidth="640" arHeight="480" duration="0" songTitle="" songArtist="" songAlbum="" songCopyrightUrl="" songArtistUrl="" songAudioFileUrl="" stabilizationMode="0" mediaItemType="2" />
    <MediaItem id="1457" filePath="C:\Users\owner\Dropbox\Work\png\animation T=1.01457.png" arWidth="640" arHeight="480" duration="0" songTitle="" songArtist="" songAlbum="" songCopyrightUrl="" songArtistUrl="" songAudioFileUrl="" stabilizationMode="0" mediaItemType="2" />
    <MediaItem id="1458" filePath="C:\Users\owner\Dropbox\Work\png\animation T=1.01458.png" arWidth="640" arHeight="480" duration="0" songTitle="" songArtist="" songAlbum="" songCopyrightUrl="" songArtistUrl="" songAudioFileUrl="" stabilizationMode="0" mediaItemType="2" />
    <MediaItem id="1459" filePath="C:\Users\owner\Dropbox\Work\png\animation T=1.01459.png" arWidth="640" arHeight="480" duration="0" songTitle="" songArtist="" songAlbum="" songCopyrightUrl="" songArtistUrl="" songAudioFileUrl="" stabilizationMode="0" mediaItemType="2" />
    <MediaItem id="1460" filePath="C:\Users\owner\Dropbox\Work\png\animation T=1.01460.png" arWidth="640" arHeight="480" duration="0" songTitle="" songArtist="" songAlbum="" songCopyrightUrl="" songArtistUrl="" songAudioFileUrl="" stabilizationMode="0" mediaItemType="2" />
    <MediaItem id="1461" filePath="C:\Users\owner\Dropbox\Work\png\animation T=1.01461.png" arWidth="640" arHeight="480" duration="0" songTitle="" songArtist="" songAlbum="" songCopyrightUrl="" songArtistUrl="" songAudioFileUrl="" stabilizationMode="0" mediaItemType="2" />
    <MediaItem id="1462" filePath="C:\Users\owner\Dropbox\Work\png\animation T=1.01462.png" arWidth="640" arHeight="480" duration="0" songTitle="" songArtist="" songAlbum="" songCopyrightUrl="" songArtistUrl="" songAudioFileUrl="" stabilizationMode="0" mediaItemType="2" />
    <MediaItem id="1463" filePath="C:\Users\owner\Dropbox\Work\png\animation T=1.01463.png" arWidth="640" arHeight="480" duration="0" songTitle="" songArtist="" songAlbum="" songCopyrightUrl="" songArtistUrl="" songAudioFileUrl="" stabilizationMode="0" mediaItemType="2" />
    <MediaItem id="1464" filePath="C:\Users\owner\Dropbox\Work\png\animation T=1.01464.png" arWidth="640" arHeight="480" duration="0" songTitle="" songArtist="" songAlbum="" songCopyrightUrl="" songArtistUrl="" songAudioFileUrl="" stabilizationMode="0" mediaItemType="2" />
    <MediaItem id="1465" filePath="C:\Users\owner\Dropbox\Work\png\animation T=1.01465.png" arWidth="640" arHeight="480" duration="0" songTitle="" songArtist="" songAlbum="" songCopyrightUrl="" songArtistUrl="" songAudioFileUrl="" stabilizationMode="0" mediaItemType="2" />
    <MediaItem id="1466" filePath="C:\Users\owner\Dropbox\Work\png\animation T=1.01466.png" arWidth="640" arHeight="480" duration="0" songTitle="" songArtist="" songAlbum="" songCopyrightUrl="" songArtistUrl="" songAudioFileUrl="" stabilizationMode="0" mediaItemType="2" />
    <MediaItem id="1467" filePath="C:\Users\owner\Dropbox\Work\png\animation T=1.01467.png" arWidth="640" arHeight="480" duration="0" songTitle="" songArtist="" songAlbum="" songCopyrightUrl="" songArtistUrl="" songAudioFileUrl="" stabilizationMode="0" mediaItemType="2" />
    <MediaItem id="1468" filePath="C:\Users\owner\Dropbox\Work\png\animation T=1.01468.png" arWidth="640" arHeight="480" duration="0" songTitle="" songArtist="" songAlbum="" songCopyrightUrl="" songArtistUrl="" songAudioFileUrl="" stabilizationMode="0" mediaItemType="2" />
    <MediaItem id="1469" filePath="C:\Users\owner\Dropbox\Work\png\animation T=1.01469.png" arWidth="640" arHeight="480" duration="0" songTitle="" songArtist="" songAlbum="" songCopyrightUrl="" songArtistUrl="" songAudioFileUrl="" stabilizationMode="0" mediaItemType="2" />
    <MediaItem id="1470" filePath="C:\Users\owner\Dropbox\Work\png\animation T=1.01470.png" arWidth="640" arHeight="480" duration="0" songTitle="" songArtist="" songAlbum="" songCopyrightUrl="" songArtistUrl="" songAudioFileUrl="" stabilizationMode="0" mediaItemType="2" />
    <MediaItem id="1471" filePath="C:\Users\owner\Dropbox\Work\png\animation T=1.01471.png" arWidth="640" arHeight="480" duration="0" songTitle="" songArtist="" songAlbum="" songCopyrightUrl="" songArtistUrl="" songAudioFileUrl="" stabilizationMode="0" mediaItemType="2" />
    <MediaItem id="1472" filePath="C:\Users\owner\Dropbox\Work\png\animation T=1.01472.png" arWidth="640" arHeight="480" duration="0" songTitle="" songArtist="" songAlbum="" songCopyrightUrl="" songArtistUrl="" songAudioFileUrl="" stabilizationMode="0" mediaItemType="2" />
    <MediaItem id="1473" filePath="C:\Users\owner\Dropbox\Work\png\animation T=1.01473.png" arWidth="640" arHeight="480" duration="0" songTitle="" songArtist="" songAlbum="" songCopyrightUrl="" songArtistUrl="" songAudioFileUrl="" stabilizationMode="0" mediaItemType="2" />
    <MediaItem id="1474" filePath="C:\Users\owner\Dropbox\Work\png\animation T=1.01474.png" arWidth="640" arHeight="480" duration="0" songTitle="" songArtist="" songAlbum="" songCopyrightUrl="" songArtistUrl="" songAudioFileUrl="" stabilizationMode="0" mediaItemType="2" />
    <MediaItem id="1475" filePath="C:\Users\owner\Dropbox\Work\png\animation T=1.01475.png" arWidth="640" arHeight="480" duration="0" songTitle="" songArtist="" songAlbum="" songCopyrightUrl="" songArtistUrl="" songAudioFileUrl="" stabilizationMode="0" mediaItemType="2" />
    <MediaItem id="1476" filePath="C:\Users\owner\Dropbox\Work\png\animation T=1.01476.png" arWidth="640" arHeight="480" duration="0" songTitle="" songArtist="" songAlbum="" songCopyrightUrl="" songArtistUrl="" songAudioFileUrl="" stabilizationMode="0" mediaItemType="2" />
    <MediaItem id="1477" filePath="C:\Users\owner\Dropbox\Work\png\animation T=1.01477.png" arWidth="640" arHeight="480" duration="0" songTitle="" songArtist="" songAlbum="" songCopyrightUrl="" songArtistUrl="" songAudioFileUrl="" stabilizationMode="0" mediaItemType="2" />
    <MediaItem id="1478" filePath="C:\Users\owner\Dropbox\Work\png\animation T=1.01478.png" arWidth="640" arHeight="480" duration="0" songTitle="" songArtist="" songAlbum="" songCopyrightUrl="" songArtistUrl="" songAudioFileUrl="" stabilizationMode="0" mediaItemType="2" />
    <MediaItem id="1479" filePath="C:\Users\owner\Dropbox\Work\png\animation T=1.01479.png" arWidth="640" arHeight="480" duration="0" songTitle="" songArtist="" songAlbum="" songCopyrightUrl="" songArtistUrl="" songAudioFileUrl="" stabilizationMode="0" mediaItemType="2" />
    <MediaItem id="1480" filePath="C:\Users\owner\Dropbox\Work\png\animation T=1.01480.png" arWidth="640" arHeight="480" duration="0" songTitle="" songArtist="" songAlbum="" songCopyrightUrl="" songArtistUrl="" songAudioFileUrl="" stabilizationMode="0" mediaItemType="2" />
    <MediaItem id="1481" filePath="C:\Users\owner\Dropbox\Work\png\animation T=1.01481.png" arWidth="640" arHeight="480" duration="0" songTitle="" songArtist="" songAlbum="" songCopyrightUrl="" songArtistUrl="" songAudioFileUrl="" stabilizationMode="0" mediaItemType="2" />
    <MediaItem id="1482" filePath="C:\Users\owner\Dropbox\Work\png\animation T=1.01482.png" arWidth="640" arHeight="480" duration="0" songTitle="" songArtist="" songAlbum="" songCopyrightUrl="" songArtistUrl="" songAudioFileUrl="" stabilizationMode="0" mediaItemType="2" />
    <MediaItem id="1483" filePath="C:\Users\owner\Dropbox\Work\png\animation T=1.01483.png" arWidth="640" arHeight="480" duration="0" songTitle="" songArtist="" songAlbum="" songCopyrightUrl="" songArtistUrl="" songAudioFileUrl="" stabilizationMode="0" mediaItemType="2" />
    <MediaItem id="1484" filePath="C:\Users\owner\Dropbox\Work\png\animation T=1.01484.png" arWidth="640" arHeight="480" duration="0" songTitle="" songArtist="" songAlbum="" songCopyrightUrl="" songArtistUrl="" songAudioFileUrl="" stabilizationMode="0" mediaItemType="2" />
    <MediaItem id="1485" filePath="C:\Users\owner\Dropbox\Work\png\animation T=1.01485.png" arWidth="640" arHeight="480" duration="0" songTitle="" songArtist="" songAlbum="" songCopyrightUrl="" songArtistUrl="" songAudioFileUrl="" stabilizationMode="0" mediaItemType="2" />
    <MediaItem id="1486" filePath="C:\Users\owner\Dropbox\Work\png\animation T=1.01486.png" arWidth="640" arHeight="480" duration="0" songTitle="" songArtist="" songAlbum="" songCopyrightUrl="" songArtistUrl="" songAudioFileUrl="" stabilizationMode="0" mediaItemType="2" />
    <MediaItem id="1487" filePath="C:\Users\owner\Dropbox\Work\png\animation T=1.01487.png" arWidth="640" arHeight="480" duration="0" songTitle="" songArtist="" songAlbum="" songCopyrightUrl="" songArtistUrl="" songAudioFileUrl="" stabilizationMode="0" mediaItemType="2" />
    <MediaItem id="1488" filePath="C:\Users\owner\Dropbox\Work\png\animation T=1.01488.png" arWidth="640" arHeight="480" duration="0" songTitle="" songArtist="" songAlbum="" songCopyrightUrl="" songArtistUrl="" songAudioFileUrl="" stabilizationMode="0" mediaItemType="2" />
    <MediaItem id="1489" filePath="C:\Users\owner\Dropbox\Work\png\animation T=1.01489.png" arWidth="640" arHeight="480" duration="0" songTitle="" songArtist="" songAlbum="" songCopyrightUrl="" songArtistUrl="" songAudioFileUrl="" stabilizationMode="0" mediaItemType="2" />
    <MediaItem id="1490" filePath="C:\Users\owner\Dropbox\Work\png\animation T=1.01490.png" arWidth="640" arHeight="480" duration="0" songTitle="" songArtist="" songAlbum="" songCopyrightUrl="" songArtistUrl="" songAudioFileUrl="" stabilizationMode="0" mediaItemType="2" />
    <MediaItem id="1491" filePath="C:\Users\owner\Dropbox\Work\png\animation T=1.01491.png" arWidth="640" arHeight="480" duration="0" songTitle="" songArtist="" songAlbum="" songCopyrightUrl="" songArtistUrl="" songAudioFileUrl="" stabilizationMode="0" mediaItemType="2" />
    <MediaItem id="1492" filePath="C:\Users\owner\Dropbox\Work\png\animation T=1.01492.png" arWidth="640" arHeight="480" duration="0" songTitle="" songArtist="" songAlbum="" songCopyrightUrl="" songArtistUrl="" songAudioFileUrl="" stabilizationMode="0" mediaItemType="2" />
    <MediaItem id="1493" filePath="C:\Users\owner\Dropbox\Work\png\animation T=1.01493.png" arWidth="640" arHeight="480" duration="0" songTitle="" songArtist="" songAlbum="" songCopyrightUrl="" songArtistUrl="" songAudioFileUrl="" stabilizationMode="0" mediaItemType="2" />
    <MediaItem id="1494" filePath="C:\Users\owner\Dropbox\Work\png\animation T=1.01494.png" arWidth="640" arHeight="480" duration="0" songTitle="" songArtist="" songAlbum="" songCopyrightUrl="" songArtistUrl="" songAudioFileUrl="" stabilizationMode="0" mediaItemType="2" />
    <MediaItem id="1495" filePath="C:\Users\owner\Dropbox\Work\png\animation T=1.01495.png" arWidth="640" arHeight="480" duration="0" songTitle="" songArtist="" songAlbum="" songCopyrightUrl="" songArtistUrl="" songAudioFileUrl="" stabilizationMode="0" mediaItemType="2" />
    <MediaItem id="1496" filePath="C:\Users\owner\Dropbox\Work\png\animation T=1.01496.png" arWidth="640" arHeight="480" duration="0" songTitle="" songArtist="" songAlbum="" songCopyrightUrl="" songArtistUrl="" songAudioFileUrl="" stabilizationMode="0" mediaItemType="2" />
    <MediaItem id="1497" filePath="C:\Users\owner\Dropbox\Work\png\animation T=1.01497.png" arWidth="640" arHeight="480" duration="0" songTitle="" songArtist="" songAlbum="" songCopyrightUrl="" songArtistUrl="" songAudioFileUrl="" stabilizationMode="0" mediaItemType="2" />
    <MediaItem id="1498" filePath="C:\Users\owner\Dropbox\Work\png\animation T=1.01498.png" arWidth="640" arHeight="480" duration="0" songTitle="" songArtist="" songAlbum="" songCopyrightUrl="" songArtistUrl="" songAudioFileUrl="" stabilizationMode="0" mediaItemType="2" />
    <MediaItem id="1499" filePath="C:\Users\owner\Dropbox\Work\png\animation T=1.01499.png" arWidth="640" arHeight="480" duration="0" songTitle="" songArtist="" songAlbum="" songCopyrightUrl="" songArtistUrl="" songAudioFileUrl="" stabilizationMode="0" mediaItemType="2" />
    <MediaItem id="1500" filePath="C:\Users\owner\Dropbox\Work\png\animation T=1.01500.png" arWidth="640" arHeight="480" duration="0" songTitle="" songArtist="" songAlbum="" songCopyrightUrl="" songArtistUrl="" songAudioFileUrl="" stabilizationMode="0" mediaItemType="2" />
    <MediaItem id="1501" filePath="C:\Users\owner\Dropbox\Work\png\animation T=1.01501.png" arWidth="640" arHeight="480" duration="0" songTitle="" songArtist="" songAlbum="" songCopyrightUrl="" songArtistUrl="" songAudioFileUrl="" stabilizationMode="0" mediaItemType="2" />
    <MediaItem id="1502" filePath="C:\Users\owner\Dropbox\Work\png\animation T=1.01502.png" arWidth="640" arHeight="480" duration="0" songTitle="" songArtist="" songAlbum="" songCopyrightUrl="" songArtistUrl="" songAudioFileUrl="" stabilizationMode="0" mediaItemType="2" />
    <MediaItem id="1503" filePath="C:\Users\owner\Dropbox\Work\png\animation T=1.01503.png" arWidth="640" arHeight="480" duration="0" songTitle="" songArtist="" songAlbum="" songCopyrightUrl="" songArtistUrl="" songAudioFileUrl="" stabilizationMode="0" mediaItemType="2" />
    <MediaItem id="1504" filePath="C:\Users\owner\Dropbox\Work\png\animation T=1.01504.png" arWidth="640" arHeight="480" duration="0" songTitle="" songArtist="" songAlbum="" songCopyrightUrl="" songArtistUrl="" songAudioFileUrl="" stabilizationMode="0" mediaItemType="2" />
    <MediaItem id="1505" filePath="C:\Users\owner\Dropbox\Work\png\animation T=1.01505.png" arWidth="640" arHeight="480" duration="0" songTitle="" songArtist="" songAlbum="" songCopyrightUrl="" songArtistUrl="" songAudioFileUrl="" stabilizationMode="0" mediaItemType="2" />
    <MediaItem id="1506" filePath="C:\Users\owner\Dropbox\Work\png\animation T=1.01506.png" arWidth="640" arHeight="480" duration="0" songTitle="" songArtist="" songAlbum="" songCopyrightUrl="" songArtistUrl="" songAudioFileUrl="" stabilizationMode="0" mediaItemType="2" />
    <MediaItem id="1507" filePath="C:\Users\owner\Dropbox\Work\png\animation T=1.01507.png" arWidth="640" arHeight="480" duration="0" songTitle="" songArtist="" songAlbum="" songCopyrightUrl="" songArtistUrl="" songAudioFileUrl="" stabilizationMode="0" mediaItemType="2" />
    <MediaItem id="1508" filePath="C:\Users\owner\Dropbox\Work\png\animation T=1.01508.png" arWidth="640" arHeight="480" duration="0" songTitle="" songArtist="" songAlbum="" songCopyrightUrl="" songArtistUrl="" songAudioFileUrl="" stabilizationMode="0" mediaItemType="2" />
    <MediaItem id="1509" filePath="C:\Users\owner\Dropbox\Work\png\animation T=1.01509.png" arWidth="640" arHeight="480" duration="0" songTitle="" songArtist="" songAlbum="" songCopyrightUrl="" songArtistUrl="" songAudioFileUrl="" stabilizationMode="0" mediaItemType="2" />
    <MediaItem id="1510" filePath="C:\Users\owner\Dropbox\Work\png\animation T=1.01510.png" arWidth="640" arHeight="480" duration="0" songTitle="" songArtist="" songAlbum="" songCopyrightUrl="" songArtistUrl="" songAudioFileUrl="" stabilizationMode="0" mediaItemType="2" />
    <MediaItem id="1511" filePath="C:\Users\owner\Dropbox\Work\png\animation T=1.01511.png" arWidth="640" arHeight="480" duration="0" songTitle="" songArtist="" songAlbum="" songCopyrightUrl="" songArtistUrl="" songAudioFileUrl="" stabilizationMode="0" mediaItemType="2" />
    <MediaItem id="1512" filePath="C:\Users\owner\Dropbox\Work\png\animation T=1.01512.png" arWidth="640" arHeight="480" duration="0" songTitle="" songArtist="" songAlbum="" songCopyrightUrl="" songArtistUrl="" songAudioFileUrl="" stabilizationMode="0" mediaItemType="2" />
    <MediaItem id="1513" filePath="C:\Users\owner\Dropbox\Work\png\animation T=1.01513.png" arWidth="640" arHeight="480" duration="0" songTitle="" songArtist="" songAlbum="" songCopyrightUrl="" songArtistUrl="" songAudioFileUrl="" stabilizationMode="0" mediaItemType="2" />
    <MediaItem id="1514" filePath="C:\Users\owner\Dropbox\Work\png\animation T=1.01514.png" arWidth="640" arHeight="480" duration="0" songTitle="" songArtist="" songAlbum="" songCopyrightUrl="" songArtistUrl="" songAudioFileUrl="" stabilizationMode="0" mediaItemType="2" />
    <MediaItem id="1515" filePath="C:\Users\owner\Dropbox\Work\png\animation T=1.01515.png" arWidth="640" arHeight="480" duration="0" songTitle="" songArtist="" songAlbum="" songCopyrightUrl="" songArtistUrl="" songAudioFileUrl="" stabilizationMode="0" mediaItemType="2" />
    <MediaItem id="1516" filePath="C:\Users\owner\Dropbox\Work\png\animation T=1.01516.png" arWidth="640" arHeight="480" duration="0" songTitle="" songArtist="" songAlbum="" songCopyrightUrl="" songArtistUrl="" songAudioFileUrl="" stabilizationMode="0" mediaItemType="2" />
    <MediaItem id="1517" filePath="C:\Users\owner\Dropbox\Work\png\animation T=1.01517.png" arWidth="640" arHeight="480" duration="0" songTitle="" songArtist="" songAlbum="" songCopyrightUrl="" songArtistUrl="" songAudioFileUrl="" stabilizationMode="0" mediaItemType="2" />
    <MediaItem id="1518" filePath="C:\Users\owner\Dropbox\Work\png\animation T=1.01518.png" arWidth="640" arHeight="480" duration="0" songTitle="" songArtist="" songAlbum="" songCopyrightUrl="" songArtistUrl="" songAudioFileUrl="" stabilizationMode="0" mediaItemType="2" />
    <MediaItem id="1519" filePath="C:\Users\owner\Dropbox\Work\png\animation T=1.01519.png" arWidth="640" arHeight="480" duration="0" songTitle="" songArtist="" songAlbum="" songCopyrightUrl="" songArtistUrl="" songAudioFileUrl="" stabilizationMode="0" mediaItemType="2" />
    <MediaItem id="1520" filePath="C:\Users\owner\Dropbox\Work\png\animation T=1.01520.png" arWidth="640" arHeight="480" duration="0" songTitle="" songArtist="" songAlbum="" songCopyrightUrl="" songArtistUrl="" songAudioFileUrl="" stabilizationMode="0" mediaItemType="2" />
    <MediaItem id="1521" filePath="C:\Users\owner\Dropbox\Work\png\animation T=1.01521.png" arWidth="640" arHeight="480" duration="0" songTitle="" songArtist="" songAlbum="" songCopyrightUrl="" songArtistUrl="" songAudioFileUrl="" stabilizationMode="0" mediaItemType="2" />
    <MediaItem id="1522" filePath="C:\Users\owner\Dropbox\Work\png\animation T=1.01522.png" arWidth="640" arHeight="480" duration="0" songTitle="" songArtist="" songAlbum="" songCopyrightUrl="" songArtistUrl="" songAudioFileUrl="" stabilizationMode="0" mediaItemType="2" />
    <MediaItem id="1523" filePath="C:\Users\owner\Dropbox\Work\png\animation T=1.01523.png" arWidth="640" arHeight="480" duration="0" songTitle="" songArtist="" songAlbum="" songCopyrightUrl="" songArtistUrl="" songAudioFileUrl="" stabilizationMode="0" mediaItemType="2" />
    <MediaItem id="1524" filePath="C:\Users\owner\Dropbox\Work\png\animation T=1.01524.png" arWidth="640" arHeight="480" duration="0" songTitle="" songArtist="" songAlbum="" songCopyrightUrl="" songArtistUrl="" songAudioFileUrl="" stabilizationMode="0" mediaItemType="2" />
    <MediaItem id="1525" filePath="C:\Users\owner\Dropbox\Work\png\animation T=1.01525.png" arWidth="640" arHeight="480" duration="0" songTitle="" songArtist="" songAlbum="" songCopyrightUrl="" songArtistUrl="" songAudioFileUrl="" stabilizationMode="0" mediaItemType="2" />
    <MediaItem id="1526" filePath="C:\Users\owner\Dropbox\Work\png\animation T=1.01526.png" arWidth="640" arHeight="480" duration="0" songTitle="" songArtist="" songAlbum="" songCopyrightUrl="" songArtistUrl="" songAudioFileUrl="" stabilizationMode="0" mediaItemType="2" />
    <MediaItem id="1527" filePath="C:\Users\owner\Dropbox\Work\png\animation T=1.01527.png" arWidth="640" arHeight="480" duration="0" songTitle="" songArtist="" songAlbum="" songCopyrightUrl="" songArtistUrl="" songAudioFileUrl="" stabilizationMode="0" mediaItemType="2" />
    <MediaItem id="1528" filePath="C:\Users\owner\Dropbox\Work\png\animation T=1.01528.png" arWidth="640" arHeight="480" duration="0" songTitle="" songArtist="" songAlbum="" songCopyrightUrl="" songArtistUrl="" songAudioFileUrl="" stabilizationMode="0" mediaItemType="2" />
    <MediaItem id="1529" filePath="C:\Users\owner\Dropbox\Work\png\animation T=1.01529.png" arWidth="640" arHeight="480" duration="0" songTitle="" songArtist="" songAlbum="" songCopyrightUrl="" songArtistUrl="" songAudioFileUrl="" stabilizationMode="0" mediaItemType="2" />
    <MediaItem id="1530" filePath="C:\Users\owner\Dropbox\Work\png\animation T=1.01530.png" arWidth="640" arHeight="480" duration="0" songTitle="" songArtist="" songAlbum="" songCopyrightUrl="" songArtistUrl="" songAudioFileUrl="" stabilizationMode="0" mediaItemType="2" />
    <MediaItem id="1531" filePath="C:\Users\owner\Dropbox\Work\png\animation T=1.01531.png" arWidth="640" arHeight="480" duration="0" songTitle="" songArtist="" songAlbum="" songCopyrightUrl="" songArtistUrl="" songAudioFileUrl="" stabilizationMode="0" mediaItemType="2" />
    <MediaItem id="1532" filePath="C:\Users\owner\Dropbox\Work\png\animation T=1.01532.png" arWidth="640" arHeight="480" duration="0" songTitle="" songArtist="" songAlbum="" songCopyrightUrl="" songArtistUrl="" songAudioFileUrl="" stabilizationMode="0" mediaItemType="2" />
    <MediaItem id="1533" filePath="C:\Users\owner\Dropbox\Work\png\animation T=1.01533.png" arWidth="640" arHeight="480" duration="0" songTitle="" songArtist="" songAlbum="" songCopyrightUrl="" songArtistUrl="" songAudioFileUrl="" stabilizationMode="0" mediaItemType="2" />
    <MediaItem id="1534" filePath="C:\Users\owner\Dropbox\Work\png\animation T=1.01534.png" arWidth="640" arHeight="480" duration="0" songTitle="" songArtist="" songAlbum="" songCopyrightUrl="" songArtistUrl="" songAudioFileUrl="" stabilizationMode="0" mediaItemType="2" />
    <MediaItem id="1535" filePath="C:\Users\owner\Dropbox\Work\png\animation T=1.01535.png" arWidth="640" arHeight="480" duration="0" songTitle="" songArtist="" songAlbum="" songCopyrightUrl="" songArtistUrl="" songAudioFileUrl="" stabilizationMode="0" mediaItemType="2" />
    <MediaItem id="1536" filePath="C:\Users\owner\Dropbox\Work\png\animation T=1.01536.png" arWidth="640" arHeight="480" duration="0" songTitle="" songArtist="" songAlbum="" songCopyrightUrl="" songArtistUrl="" songAudioFileUrl="" stabilizationMode="0" mediaItemType="2" />
    <MediaItem id="1537" filePath="C:\Users\owner\Dropbox\Work\png\animation T=1.01537.png" arWidth="640" arHeight="480" duration="0" songTitle="" songArtist="" songAlbum="" songCopyrightUrl="" songArtistUrl="" songAudioFileUrl="" stabilizationMode="0" mediaItemType="2" />
    <MediaItem id="1538" filePath="C:\Users\owner\Dropbox\Work\png\animation T=1.01538.png" arWidth="640" arHeight="480" duration="0" songTitle="" songArtist="" songAlbum="" songCopyrightUrl="" songArtistUrl="" songAudioFileUrl="" stabilizationMode="0" mediaItemType="2" />
    <MediaItem id="1539" filePath="C:\Users\owner\Dropbox\Work\png\animation T=1.01539.png" arWidth="640" arHeight="480" duration="0" songTitle="" songArtist="" songAlbum="" songCopyrightUrl="" songArtistUrl="" songAudioFileUrl="" stabilizationMode="0" mediaItemType="2" />
    <MediaItem id="1540" filePath="C:\Users\owner\Dropbox\Work\png\animation T=1.01540.png" arWidth="640" arHeight="480" duration="0" songTitle="" songArtist="" songAlbum="" songCopyrightUrl="" songArtistUrl="" songAudioFileUrl="" stabilizationMode="0" mediaItemType="2" />
    <MediaItem id="1541" filePath="C:\Users\owner\Dropbox\Work\png\animation T=1.01541.png" arWidth="640" arHeight="480" duration="0" songTitle="" songArtist="" songAlbum="" songCopyrightUrl="" songArtistUrl="" songAudioFileUrl="" stabilizationMode="0" mediaItemType="2" />
    <MediaItem id="1542" filePath="C:\Users\owner\Dropbox\Work\png\animation T=1.01542.png" arWidth="640" arHeight="480" duration="0" songTitle="" songArtist="" songAlbum="" songCopyrightUrl="" songArtistUrl="" songAudioFileUrl="" stabilizationMode="0" mediaItemType="2" />
    <MediaItem id="1543" filePath="C:\Users\owner\Dropbox\Work\png\animation T=1.01543.png" arWidth="640" arHeight="480" duration="0" songTitle="" songArtist="" songAlbum="" songCopyrightUrl="" songArtistUrl="" songAudioFileUrl="" stabilizationMode="0" mediaItemType="2" />
    <MediaItem id="1544" filePath="C:\Users\owner\Dropbox\Work\png\animation T=1.01544.png" arWidth="640" arHeight="480" duration="0" songTitle="" songArtist="" songAlbum="" songCopyrightUrl="" songArtistUrl="" songAudioFileUrl="" stabilizationMode="0" mediaItemType="2" />
    <MediaItem id="1545" filePath="C:\Users\owner\Dropbox\Work\png\animation T=1.01545.png" arWidth="640" arHeight="480" duration="0" songTitle="" songArtist="" songAlbum="" songCopyrightUrl="" songArtistUrl="" songAudioFileUrl="" stabilizationMode="0" mediaItemType="2" />
    <MediaItem id="1546" filePath="C:\Users\owner\Dropbox\Work\png\animation T=1.01546.png" arWidth="640" arHeight="480" duration="0" songTitle="" songArtist="" songAlbum="" songCopyrightUrl="" songArtistUrl="" songAudioFileUrl="" stabilizationMode="0" mediaItemType="2" />
    <MediaItem id="1547" filePath="C:\Users\owner\Dropbox\Work\png\animation T=1.01547.png" arWidth="640" arHeight="480" duration="0" songTitle="" songArtist="" songAlbum="" songCopyrightUrl="" songArtistUrl="" songAudioFileUrl="" stabilizationMode="0" mediaItemType="2" />
    <MediaItem id="1548" filePath="C:\Users\owner\Dropbox\Work\png\animation T=1.01548.png" arWidth="640" arHeight="480" duration="0" songTitle="" songArtist="" songAlbum="" songCopyrightUrl="" songArtistUrl="" songAudioFileUrl="" stabilizationMode="0" mediaItemType="2" />
    <MediaItem id="1549" filePath="C:\Users\owner\Dropbox\Work\png\animation T=1.01549.png" arWidth="640" arHeight="480" duration="0" songTitle="" songArtist="" songAlbum="" songCopyrightUrl="" songArtistUrl="" songAudioFileUrl="" stabilizationMode="0" mediaItemType="2" />
    <MediaItem id="1550" filePath="C:\Users\owner\Dropbox\Work\png\animation T=1.01550.png" arWidth="640" arHeight="480" duration="0" songTitle="" songArtist="" songAlbum="" songCopyrightUrl="" songArtistUrl="" songAudioFileUrl="" stabilizationMode="0" mediaItemType="2" />
    <MediaItem id="1551" filePath="C:\Users\owner\Dropbox\Work\png\animation T=1.01551.png" arWidth="640" arHeight="480" duration="0" songTitle="" songArtist="" songAlbum="" songCopyrightUrl="" songArtistUrl="" songAudioFileUrl="" stabilizationMode="0" mediaItemType="2" />
    <MediaItem id="1552" filePath="C:\Users\owner\Dropbox\Work\png\animation T=1.01552.png" arWidth="640" arHeight="480" duration="0" songTitle="" songArtist="" songAlbum="" songCopyrightUrl="" songArtistUrl="" songAudioFileUrl="" stabilizationMode="0" mediaItemType="2" />
    <MediaItem id="1553" filePath="C:\Users\owner\Dropbox\Work\png\animation T=1.01553.png" arWidth="640" arHeight="480" duration="0" songTitle="" songArtist="" songAlbum="" songCopyrightUrl="" songArtistUrl="" songAudioFileUrl="" stabilizationMode="0" mediaItemType="2" />
    <MediaItem id="1554" filePath="C:\Users\owner\Dropbox\Work\png\animation T=1.01554.png" arWidth="640" arHeight="480" duration="0" songTitle="" songArtist="" songAlbum="" songCopyrightUrl="" songArtistUrl="" songAudioFileUrl="" stabilizationMode="0" mediaItemType="2" />
    <MediaItem id="1555" filePath="C:\Users\owner\Dropbox\Work\png\animation T=1.01555.png" arWidth="640" arHeight="480" duration="0" songTitle="" songArtist="" songAlbum="" songCopyrightUrl="" songArtistUrl="" songAudioFileUrl="" stabilizationMode="0" mediaItemType="2" />
    <MediaItem id="1556" filePath="C:\Users\owner\Dropbox\Work\png\animation T=1.01556.png" arWidth="640" arHeight="480" duration="0" songTitle="" songArtist="" songAlbum="" songCopyrightUrl="" songArtistUrl="" songAudioFileUrl="" stabilizationMode="0" mediaItemType="2" />
    <MediaItem id="1557" filePath="C:\Users\owner\Dropbox\Work\png\animation T=1.01557.png" arWidth="640" arHeight="480" duration="0" songTitle="" songArtist="" songAlbum="" songCopyrightUrl="" songArtistUrl="" songAudioFileUrl="" stabilizationMode="0" mediaItemType="2" />
    <MediaItem id="1558" filePath="C:\Users\owner\Dropbox\Work\png\animation T=1.01558.png" arWidth="640" arHeight="480" duration="0" songTitle="" songArtist="" songAlbum="" songCopyrightUrl="" songArtistUrl="" songAudioFileUrl="" stabilizationMode="0" mediaItemType="2" />
    <MediaItem id="1559" filePath="C:\Users\owner\Dropbox\Work\png\animation T=1.01559.png" arWidth="640" arHeight="480" duration="0" songTitle="" songArtist="" songAlbum="" songCopyrightUrl="" songArtistUrl="" songAudioFileUrl="" stabilizationMode="0" mediaItemType="2" />
    <MediaItem id="1560" filePath="C:\Users\owner\Dropbox\Work\png\animation T=1.01560.png" arWidth="640" arHeight="480" duration="0" songTitle="" songArtist="" songAlbum="" songCopyrightUrl="" songArtistUrl="" songAudioFileUrl="" stabilizationMode="0" mediaItemType="2" />
    <MediaItem id="1561" filePath="C:\Users\owner\Dropbox\Work\png\animation T=1.01561.png" arWidth="640" arHeight="480" duration="0" songTitle="" songArtist="" songAlbum="" songCopyrightUrl="" songArtistUrl="" songAudioFileUrl="" stabilizationMode="0" mediaItemType="2" />
    <MediaItem id="1562" filePath="C:\Users\owner\Dropbox\Work\png\animation T=1.01562.png" arWidth="640" arHeight="480" duration="0" songTitle="" songArtist="" songAlbum="" songCopyrightUrl="" songArtistUrl="" songAudioFileUrl="" stabilizationMode="0" mediaItemType="2" />
    <MediaItem id="1563" filePath="C:\Users\owner\Dropbox\Work\png\animation T=1.01563.png" arWidth="640" arHeight="480" duration="0" songTitle="" songArtist="" songAlbum="" songCopyrightUrl="" songArtistUrl="" songAudioFileUrl="" stabilizationMode="0" mediaItemType="2" />
    <MediaItem id="1564" filePath="C:\Users\owner\Dropbox\Work\png\animation T=1.01564.png" arWidth="640" arHeight="480" duration="0" songTitle="" songArtist="" songAlbum="" songCopyrightUrl="" songArtistUrl="" songAudioFileUrl="" stabilizationMode="0" mediaItemType="2" />
    <MediaItem id="1565" filePath="C:\Users\owner\Dropbox\Work\png\animation T=1.01565.png" arWidth="640" arHeight="480" duration="0" songTitle="" songArtist="" songAlbum="" songCopyrightUrl="" songArtistUrl="" songAudioFileUrl="" stabilizationMode="0" mediaItemType="2" />
    <MediaItem id="1566" filePath="C:\Users\owner\Dropbox\Work\png\animation T=1.01566.png" arWidth="640" arHeight="480" duration="0" songTitle="" songArtist="" songAlbum="" songCopyrightUrl="" songArtistUrl="" songAudioFileUrl="" stabilizationMode="0" mediaItemType="2" />
    <MediaItem id="1567" filePath="C:\Users\owner\Dropbox\Work\png\animation T=1.01567.png" arWidth="640" arHeight="480" duration="0" songTitle="" songArtist="" songAlbum="" songCopyrightUrl="" songArtistUrl="" songAudioFileUrl="" stabilizationMode="0" mediaItemType="2" />
    <MediaItem id="1568" filePath="C:\Users\owner\Dropbox\Work\png\animation T=1.01568.png" arWidth="640" arHeight="480" duration="0" songTitle="" songArtist="" songAlbum="" songCopyrightUrl="" songArtistUrl="" songAudioFileUrl="" stabilizationMode="0" mediaItemType="2" />
    <MediaItem id="1569" filePath="C:\Users\owner\Dropbox\Work\png\animation T=1.01569.png" arWidth="640" arHeight="480" duration="0" songTitle="" songArtist="" songAlbum="" songCopyrightUrl="" songArtistUrl="" songAudioFileUrl="" stabilizationMode="0" mediaItemType="2" />
    <MediaItem id="1570" filePath="C:\Users\owner\Dropbox\Work\png\animation T=1.01570.png" arWidth="640" arHeight="480" duration="0" songTitle="" songArtist="" songAlbum="" songCopyrightUrl="" songArtistUrl="" songAudioFileUrl="" stabilizationMode="0" mediaItemType="2" />
    <MediaItem id="1571" filePath="C:\Users\owner\Dropbox\Work\png\animation T=1.01571.png" arWidth="640" arHeight="480" duration="0" songTitle="" songArtist="" songAlbum="" songCopyrightUrl="" songArtistUrl="" songAudioFileUrl="" stabilizationMode="0" mediaItemType="2" />
    <MediaItem id="1572" filePath="C:\Users\owner\Dropbox\Work\png\animation T=1.01572.png" arWidth="640" arHeight="480" duration="0" songTitle="" songArtist="" songAlbum="" songCopyrightUrl="" songArtistUrl="" songAudioFileUrl="" stabilizationMode="0" mediaItemType="2" />
    <MediaItem id="1573" filePath="C:\Users\owner\Dropbox\Work\png\animation T=1.01573.png" arWidth="640" arHeight="480" duration="0" songTitle="" songArtist="" songAlbum="" songCopyrightUrl="" songArtistUrl="" songAudioFileUrl="" stabilizationMode="0" mediaItemType="2" />
    <MediaItem id="1574" filePath="C:\Users\owner\Dropbox\Work\png\animation T=1.01574.png" arWidth="640" arHeight="480" duration="0" songTitle="" songArtist="" songAlbum="" songCopyrightUrl="" songArtistUrl="" songAudioFileUrl="" stabilizationMode="0" mediaItemType="2" />
    <MediaItem id="1575" filePath="C:\Users\owner\Dropbox\Work\png\animation T=1.01575.png" arWidth="640" arHeight="480" duration="0" songTitle="" songArtist="" songAlbum="" songCopyrightUrl="" songArtistUrl="" songAudioFileUrl="" stabilizationMode="0" mediaItemType="2" />
    <MediaItem id="1576" filePath="C:\Users\owner\Dropbox\Work\png\animation T=1.01576.png" arWidth="640" arHeight="480" duration="0" songTitle="" songArtist="" songAlbum="" songCopyrightUrl="" songArtistUrl="" songAudioFileUrl="" stabilizationMode="0" mediaItemType="2" />
    <MediaItem id="1577" filePath="C:\Users\owner\Dropbox\Work\png\animation T=1.01577.png" arWidth="640" arHeight="480" duration="0" songTitle="" songArtist="" songAlbum="" songCopyrightUrl="" songArtistUrl="" songAudioFileUrl="" stabilizationMode="0" mediaItemType="2" />
    <MediaItem id="1578" filePath="C:\Users\owner\Dropbox\Work\png\animation T=1.01578.png" arWidth="640" arHeight="480" duration="0" songTitle="" songArtist="" songAlbum="" songCopyrightUrl="" songArtistUrl="" songAudioFileUrl="" stabilizationMode="0" mediaItemType="2" />
    <MediaItem id="1579" filePath="C:\Users\owner\Dropbox\Work\png\animation T=1.01579.png" arWidth="640" arHeight="480" duration="0" songTitle="" songArtist="" songAlbum="" songCopyrightUrl="" songArtistUrl="" songAudioFileUrl="" stabilizationMode="0" mediaItemType="2" />
    <MediaItem id="1580" filePath="C:\Users\owner\Dropbox\Work\png\animation T=1.01580.png" arWidth="640" arHeight="480" duration="0" songTitle="" songArtist="" songAlbum="" songCopyrightUrl="" songArtistUrl="" songAudioFileUrl="" stabilizationMode="0" mediaItemType="2" />
    <MediaItem id="1581" filePath="C:\Users\owner\Dropbox\Work\png\animation T=1.01581.png" arWidth="640" arHeight="480" duration="0" songTitle="" songArtist="" songAlbum="" songCopyrightUrl="" songArtistUrl="" songAudioFileUrl="" stabilizationMode="0" mediaItemType="2" />
    <MediaItem id="1582" filePath="C:\Users\owner\Dropbox\Work\png\animation T=1.01582.png" arWidth="640" arHeight="480" duration="0" songTitle="" songArtist="" songAlbum="" songCopyrightUrl="" songArtistUrl="" songAudioFileUrl="" stabilizationMode="0" mediaItemType="2" />
    <MediaItem id="1583" filePath="C:\Users\owner\Dropbox\Work\png\animation T=1.01583.png" arWidth="640" arHeight="480" duration="0" songTitle="" songArtist="" songAlbum="" songCopyrightUrl="" songArtistUrl="" songAudioFileUrl="" stabilizationMode="0" mediaItemType="2" />
    <MediaItem id="1584" filePath="C:\Users\owner\Dropbox\Work\png\animation T=1.01584.png" arWidth="640" arHeight="480" duration="0" songTitle="" songArtist="" songAlbum="" songCopyrightUrl="" songArtistUrl="" songAudioFileUrl="" stabilizationMode="0" mediaItemType="2" />
    <MediaItem id="1585" filePath="C:\Users\owner\Dropbox\Work\png\animation T=1.01585.png" arWidth="640" arHeight="480" duration="0" songTitle="" songArtist="" songAlbum="" songCopyrightUrl="" songArtistUrl="" songAudioFileUrl="" stabilizationMode="0" mediaItemType="2" />
    <MediaItem id="1586" filePath="C:\Users\owner\Dropbox\Work\png\animation T=1.01586.png" arWidth="640" arHeight="480" duration="0" songTitle="" songArtist="" songAlbum="" songCopyrightUrl="" songArtistUrl="" songAudioFileUrl="" stabilizationMode="0" mediaItemType="2" />
    <MediaItem id="1587" filePath="C:\Users\owner\Dropbox\Work\png\animation T=1.01587.png" arWidth="640" arHeight="480" duration="0" songTitle="" songArtist="" songAlbum="" songCopyrightUrl="" songArtistUrl="" songAudioFileUrl="" stabilizationMode="0" mediaItemType="2" />
    <MediaItem id="1588" filePath="C:\Users\owner\Dropbox\Work\png\animation T=1.01588.png" arWidth="640" arHeight="480" duration="0" songTitle="" songArtist="" songAlbum="" songCopyrightUrl="" songArtistUrl="" songAudioFileUrl="" stabilizationMode="0" mediaItemType="2" />
    <MediaItem id="1589" filePath="C:\Users\owner\Dropbox\Work\png\animation T=1.01589.png" arWidth="640" arHeight="480" duration="0" songTitle="" songArtist="" songAlbum="" songCopyrightUrl="" songArtistUrl="" songAudioFileUrl="" stabilizationMode="0" mediaItemType="2" />
    <MediaItem id="1590" filePath="C:\Users\owner\Dropbox\Work\png\animation T=1.01590.png" arWidth="640" arHeight="480" duration="0" songTitle="" songArtist="" songAlbum="" songCopyrightUrl="" songArtistUrl="" songAudioFileUrl="" stabilizationMode="0" mediaItemType="2" />
    <MediaItem id="1591" filePath="C:\Users\owner\Dropbox\Work\png\animation T=1.01591.png" arWidth="640" arHeight="480" duration="0" songTitle="" songArtist="" songAlbum="" songCopyrightUrl="" songArtistUrl="" songAudioFileUrl="" stabilizationMode="0" mediaItemType="2" />
    <MediaItem id="1592" filePath="C:\Users\owner\Dropbox\Work\png\animation T=1.01592.png" arWidth="640" arHeight="480" duration="0" songTitle="" songArtist="" songAlbum="" songCopyrightUrl="" songArtistUrl="" songAudioFileUrl="" stabilizationMode="0" mediaItemType="2" />
    <MediaItem id="1593" filePath="C:\Users\owner\Dropbox\Work\png\animation T=1.01593.png" arWidth="640" arHeight="480" duration="0" songTitle="" songArtist="" songAlbum="" songCopyrightUrl="" songArtistUrl="" songAudioFileUrl="" stabilizationMode="0" mediaItemType="2" />
    <MediaItem id="1594" filePath="C:\Users\owner\Dropbox\Work\png\animation T=1.01594.png" arWidth="640" arHeight="480" duration="0" songTitle="" songArtist="" songAlbum="" songCopyrightUrl="" songArtistUrl="" songAudioFileUrl="" stabilizationMode="0" mediaItemType="2" />
    <MediaItem id="1595" filePath="C:\Users\owner\Dropbox\Work\png\animation T=1.01595.png" arWidth="640" arHeight="480" duration="0" songTitle="" songArtist="" songAlbum="" songCopyrightUrl="" songArtistUrl="" songAudioFileUrl="" stabilizationMode="0" mediaItemType="2" />
    <MediaItem id="1596" filePath="C:\Users\owner\Dropbox\Work\png\animation T=1.01596.png" arWidth="640" arHeight="480" duration="0" songTitle="" songArtist="" songAlbum="" songCopyrightUrl="" songArtistUrl="" songAudioFileUrl="" stabilizationMode="0" mediaItemType="2" />
    <MediaItem id="1597" filePath="C:\Users\owner\Dropbox\Work\png\animation T=1.01597.png" arWidth="640" arHeight="480" duration="0" songTitle="" songArtist="" songAlbum="" songCopyrightUrl="" songArtistUrl="" songAudioFileUrl="" stabilizationMode="0" mediaItemType="2" />
    <MediaItem id="1598" filePath="C:\Users\owner\Dropbox\Work\png\animation T=1.01598.png" arWidth="640" arHeight="480" duration="0" songTitle="" songArtist="" songAlbum="" songCopyrightUrl="" songArtistUrl="" songAudioFileUrl="" stabilizationMode="0" mediaItemType="2" />
    <MediaItem id="1599" filePath="C:\Users\owner\Dropbox\Work\png\animation T=1.01599.png" arWidth="640" arHeight="480" duration="0" songTitle="" songArtist="" songAlbum="" songCopyrightUrl="" songArtistUrl="" songAudioFileUrl="" stabilizationMode="0" mediaItemType="2" />
    <MediaItem id="1600" filePath="C:\Users\owner\Dropbox\Work\png\animation T=1.01600.png" arWidth="640" arHeight="480" duration="0" songTitle="" songArtist="" songAlbum="" songCopyrightUrl="" songArtistUrl="" songAudioFileUrl="" stabilizationMode="0" mediaItemType="2" />
    <MediaItem id="1601" filePath="C:\Users\owner\Dropbox\Work\png\animation T=1.01601.png" arWidth="640" arHeight="480" duration="0" songTitle="" songArtist="" songAlbum="" songCopyrightUrl="" songArtistUrl="" songAudioFileUrl="" stabilizationMode="0" mediaItemType="2" />
    <MediaItem id="1602" filePath="C:\Users\owner\Dropbox\Work\png\animation T=1.01602.png" arWidth="640" arHeight="480" duration="0" songTitle="" songArtist="" songAlbum="" songCopyrightUrl="" songArtistUrl="" songAudioFileUrl="" stabilizationMode="0" mediaItemType="2" />
    <MediaItem id="1603" filePath="C:\Users\owner\Dropbox\Work\png\animation T=1.01603.png" arWidth="640" arHeight="480" duration="0" songTitle="" songArtist="" songAlbum="" songCopyrightUrl="" songArtistUrl="" songAudioFileUrl="" stabilizationMode="0" mediaItemType="2" />
    <MediaItem id="1604" filePath="C:\Users\owner\Dropbox\Work\png\animation T=1.01604.png" arWidth="640" arHeight="480" duration="0" songTitle="" songArtist="" songAlbum="" songCopyrightUrl="" songArtistUrl="" songAudioFileUrl="" stabilizationMode="0" mediaItemType="2" />
    <MediaItem id="1605" filePath="C:\Users\owner\Dropbox\Work\png\animation T=1.01605.png" arWidth="640" arHeight="480" duration="0" songTitle="" songArtist="" songAlbum="" songCopyrightUrl="" songArtistUrl="" songAudioFileUrl="" stabilizationMode="0" mediaItemType="2" />
    <MediaItem id="1606" filePath="C:\Users\owner\Dropbox\Work\png\animation T=1.01606.png" arWidth="640" arHeight="480" duration="0" songTitle="" songArtist="" songAlbum="" songCopyrightUrl="" songArtistUrl="" songAudioFileUrl="" stabilizationMode="0" mediaItemType="2" />
    <MediaItem id="1607" filePath="C:\Users\owner\Dropbox\Work\png\animation T=1.01607.png" arWidth="640" arHeight="480" duration="0" songTitle="" songArtist="" songAlbum="" songCopyrightUrl="" songArtistUrl="" songAudioFileUrl="" stabilizationMode="0" mediaItemType="2" />
    <MediaItem id="1608" filePath="C:\Users\owner\Dropbox\Work\png\animation T=1.01608.png" arWidth="640" arHeight="480" duration="0" songTitle="" songArtist="" songAlbum="" songCopyrightUrl="" songArtistUrl="" songAudioFileUrl="" stabilizationMode="0" mediaItemType="2" />
    <MediaItem id="1609" filePath="C:\Users\owner\Dropbox\Work\png\animation T=1.01609.png" arWidth="640" arHeight="480" duration="0" songTitle="" songArtist="" songAlbum="" songCopyrightUrl="" songArtistUrl="" songAudioFileUrl="" stabilizationMode="0" mediaItemType="2" />
    <MediaItem id="1610" filePath="C:\Users\owner\Dropbox\Work\png\animation T=1.01610.png" arWidth="640" arHeight="480" duration="0" songTitle="" songArtist="" songAlbum="" songCopyrightUrl="" songArtistUrl="" songAudioFileUrl="" stabilizationMode="0" mediaItemType="2" />
    <MediaItem id="1611" filePath="C:\Users\owner\Dropbox\Work\png\animation T=1.01611.png" arWidth="640" arHeight="480" duration="0" songTitle="" songArtist="" songAlbum="" songCopyrightUrl="" songArtistUrl="" songAudioFileUrl="" stabilizationMode="0" mediaItemType="2" />
    <MediaItem id="1612" filePath="C:\Users\owner\Dropbox\Work\png\animation T=1.01612.png" arWidth="640" arHeight="480" duration="0" songTitle="" songArtist="" songAlbum="" songCopyrightUrl="" songArtistUrl="" songAudioFileUrl="" stabilizationMode="0" mediaItemType="2" />
    <MediaItem id="1613" filePath="C:\Users\owner\Dropbox\Work\png\animation T=1.01613.png" arWidth="640" arHeight="480" duration="0" songTitle="" songArtist="" songAlbum="" songCopyrightUrl="" songArtistUrl="" songAudioFileUrl="" stabilizationMode="0" mediaItemType="2" />
    <MediaItem id="1614" filePath="C:\Users\owner\Dropbox\Work\png\animation T=1.01614.png" arWidth="640" arHeight="480" duration="0" songTitle="" songArtist="" songAlbum="" songCopyrightUrl="" songArtistUrl="" songAudioFileUrl="" stabilizationMode="0" mediaItemType="2" />
    <MediaItem id="1615" filePath="C:\Users\owner\Dropbox\Work\png\animation T=1.01615.png" arWidth="640" arHeight="480" duration="0" songTitle="" songArtist="" songAlbum="" songCopyrightUrl="" songArtistUrl="" songAudioFileUrl="" stabilizationMode="0" mediaItemType="2" />
    <MediaItem id="1616" filePath="C:\Users\owner\Dropbox\Work\png\animation T=1.01616.png" arWidth="640" arHeight="480" duration="0" songTitle="" songArtist="" songAlbum="" songCopyrightUrl="" songArtistUrl="" songAudioFileUrl="" stabilizationMode="0" mediaItemType="2" />
    <MediaItem id="1617" filePath="C:\Users\owner\Dropbox\Work\png\animation T=1.01617.png" arWidth="640" arHeight="480" duration="0" songTitle="" songArtist="" songAlbum="" songCopyrightUrl="" songArtistUrl="" songAudioFileUrl="" stabilizationMode="0" mediaItemType="2" />
    <MediaItem id="1618" filePath="C:\Users\owner\Dropbox\Work\png\animation T=1.01618.png" arWidth="640" arHeight="480" duration="0" songTitle="" songArtist="" songAlbum="" songCopyrightUrl="" songArtistUrl="" songAudioFileUrl="" stabilizationMode="0" mediaItemType="2" />
    <MediaItem id="1619" filePath="C:\Users\owner\Dropbox\Work\png\animation T=1.01619.png" arWidth="640" arHeight="480" duration="0" songTitle="" songArtist="" songAlbum="" songCopyrightUrl="" songArtistUrl="" songAudioFileUrl="" stabilizationMode="0" mediaItemType="2" />
    <MediaItem id="1620" filePath="C:\Users\owner\Dropbox\Work\png\animation T=1.01620.png" arWidth="640" arHeight="480" duration="0" songTitle="" songArtist="" songAlbum="" songCopyrightUrl="" songArtistUrl="" songAudioFileUrl="" stabilizationMode="0" mediaItemType="2" />
    <MediaItem id="1621" filePath="C:\Users\owner\Dropbox\Work\png\animation T=1.01621.png" arWidth="640" arHeight="480" duration="0" songTitle="" songArtist="" songAlbum="" songCopyrightUrl="" songArtistUrl="" songAudioFileUrl="" stabilizationMode="0" mediaItemType="2" />
    <MediaItem id="1622" filePath="C:\Users\owner\Dropbox\Work\png\animation T=1.01622.png" arWidth="640" arHeight="480" duration="0" songTitle="" songArtist="" songAlbum="" songCopyrightUrl="" songArtistUrl="" songAudioFileUrl="" stabilizationMode="0" mediaItemType="2" />
    <MediaItem id="1623" filePath="C:\Users\owner\Dropbox\Work\png\animation T=1.01623.png" arWidth="640" arHeight="480" duration="0" songTitle="" songArtist="" songAlbum="" songCopyrightUrl="" songArtistUrl="" songAudioFileUrl="" stabilizationMode="0" mediaItemType="2" />
    <MediaItem id="1624" filePath="C:\Users\owner\Dropbox\Work\png\animation T=1.01624.png" arWidth="640" arHeight="480" duration="0" songTitle="" songArtist="" songAlbum="" songCopyrightUrl="" songArtistUrl="" songAudioFileUrl="" stabilizationMode="0" mediaItemType="2" />
    <MediaItem id="1625" filePath="C:\Users\owner\Dropbox\Work\png\animation T=1.01625.png" arWidth="640" arHeight="480" duration="0" songTitle="" songArtist="" songAlbum="" songCopyrightUrl="" songArtistUrl="" songAudioFileUrl="" stabilizationMode="0" mediaItemType="2" />
    <MediaItem id="1626" filePath="C:\Users\owner\Dropbox\Work\png\animation T=1.01626.png" arWidth="640" arHeight="480" duration="0" songTitle="" songArtist="" songAlbum="" songCopyrightUrl="" songArtistUrl="" songAudioFileUrl="" stabilizationMode="0" mediaItemType="2" />
    <MediaItem id="1627" filePath="C:\Users\owner\Dropbox\Work\png\animation T=1.01627.png" arWidth="640" arHeight="480" duration="0" songTitle="" songArtist="" songAlbum="" songCopyrightUrl="" songArtistUrl="" songAudioFileUrl="" stabilizationMode="0" mediaItemType="2" />
    <MediaItem id="1628" filePath="C:\Users\owner\Dropbox\Work\png\animation T=1.01628.png" arWidth="640" arHeight="480" duration="0" songTitle="" songArtist="" songAlbum="" songCopyrightUrl="" songArtistUrl="" songAudioFileUrl="" stabilizationMode="0" mediaItemType="2" />
    <MediaItem id="1629" filePath="C:\Users\owner\Dropbox\Work\png\animation T=1.01629.png" arWidth="640" arHeight="480" duration="0" songTitle="" songArtist="" songAlbum="" songCopyrightUrl="" songArtistUrl="" songAudioFileUrl="" stabilizationMode="0" mediaItemType="2" />
    <MediaItem id="1630" filePath="C:\Users\owner\Dropbox\Work\png\animation T=1.01630.png" arWidth="640" arHeight="480" duration="0" songTitle="" songArtist="" songAlbum="" songCopyrightUrl="" songArtistUrl="" songAudioFileUrl="" stabilizationMode="0" mediaItemType="2" />
    <MediaItem id="1631" filePath="C:\Users\owner\Dropbox\Work\png\animation T=1.01631.png" arWidth="640" arHeight="480" duration="0" songTitle="" songArtist="" songAlbum="" songCopyrightUrl="" songArtistUrl="" songAudioFileUrl="" stabilizationMode="0" mediaItemType="2" />
    <MediaItem id="1632" filePath="C:\Users\owner\Dropbox\Work\png\animation T=1.01632.png" arWidth="640" arHeight="480" duration="0" songTitle="" songArtist="" songAlbum="" songCopyrightUrl="" songArtistUrl="" songAudioFileUrl="" stabilizationMode="0" mediaItemType="2" />
    <MediaItem id="1633" filePath="C:\Users\owner\Dropbox\Work\png\animation T=1.01633.png" arWidth="640" arHeight="480" duration="0" songTitle="" songArtist="" songAlbum="" songCopyrightUrl="" songArtistUrl="" songAudioFileUrl="" stabilizationMode="0" mediaItemType="2" />
    <MediaItem id="1634" filePath="C:\Users\owner\Dropbox\Work\png\animation T=1.01634.png" arWidth="640" arHeight="480" duration="0" songTitle="" songArtist="" songAlbum="" songCopyrightUrl="" songArtistUrl="" songAudioFileUrl="" stabilizationMode="0" mediaItemType="2" />
    <MediaItem id="1635" filePath="C:\Users\owner\Dropbox\Work\png\animation T=1.01635.png" arWidth="640" arHeight="480" duration="0" songTitle="" songArtist="" songAlbum="" songCopyrightUrl="" songArtistUrl="" songAudioFileUrl="" stabilizationMode="0" mediaItemType="2" />
    <MediaItem id="1636" filePath="C:\Users\owner\Dropbox\Work\png\animation T=1.01636.png" arWidth="640" arHeight="480" duration="0" songTitle="" songArtist="" songAlbum="" songCopyrightUrl="" songArtistUrl="" songAudioFileUrl="" stabilizationMode="0" mediaItemType="2" />
    <MediaItem id="1637" filePath="C:\Users\owner\Dropbox\Work\png\animation T=1.01637.png" arWidth="640" arHeight="480" duration="0" songTitle="" songArtist="" songAlbum="" songCopyrightUrl="" songArtistUrl="" songAudioFileUrl="" stabilizationMode="0" mediaItemType="2" />
    <MediaItem id="1638" filePath="C:\Users\owner\Dropbox\Work\png\animation T=1.01638.png" arWidth="640" arHeight="480" duration="0" songTitle="" songArtist="" songAlbum="" songCopyrightUrl="" songArtistUrl="" songAudioFileUrl="" stabilizationMode="0" mediaItemType="2" />
    <MediaItem id="1639" filePath="C:\Users\owner\Dropbox\Work\png\animation T=1.01639.png" arWidth="640" arHeight="480" duration="0" songTitle="" songArtist="" songAlbum="" songCopyrightUrl="" songArtistUrl="" songAudioFileUrl="" stabilizationMode="0" mediaItemType="2" />
    <MediaItem id="1640" filePath="C:\Users\owner\Dropbox\Work\png\animation T=1.01640.png" arWidth="640" arHeight="480" duration="0" songTitle="" songArtist="" songAlbum="" songCopyrightUrl="" songArtistUrl="" songAudioFileUrl="" stabilizationMode="0" mediaItemType="2" />
    <MediaItem id="1641" filePath="C:\Users\owner\Dropbox\Work\png\animation T=1.01641.png" arWidth="640" arHeight="480" duration="0" songTitle="" songArtist="" songAlbum="" songCopyrightUrl="" songArtistUrl="" songAudioFileUrl="" stabilizationMode="0" mediaItemType="2" />
    <MediaItem id="1642" filePath="C:\Users\owner\Dropbox\Work\png\animation T=1.01642.png" arWidth="640" arHeight="480" duration="0" songTitle="" songArtist="" songAlbum="" songCopyrightUrl="" songArtistUrl="" songAudioFileUrl="" stabilizationMode="0" mediaItemType="2" />
    <MediaItem id="1643" filePath="C:\Users\owner\Dropbox\Work\png\animation T=1.01643.png" arWidth="640" arHeight="480" duration="0" songTitle="" songArtist="" songAlbum="" songCopyrightUrl="" songArtistUrl="" songAudioFileUrl="" stabilizationMode="0" mediaItemType="2" />
    <MediaItem id="1644" filePath="C:\Users\owner\Dropbox\Work\png\animation T=1.01644.png" arWidth="640" arHeight="480" duration="0" songTitle="" songArtist="" songAlbum="" songCopyrightUrl="" songArtistUrl="" songAudioFileUrl="" stabilizationMode="0" mediaItemType="2" />
    <MediaItem id="1645" filePath="C:\Users\owner\Dropbox\Work\png\animation T=1.01645.png" arWidth="640" arHeight="480" duration="0" songTitle="" songArtist="" songAlbum="" songCopyrightUrl="" songArtistUrl="" songAudioFileUrl="" stabilizationMode="0" mediaItemType="2" />
    <MediaItem id="1646" filePath="C:\Users\owner\Dropbox\Work\png\animation T=1.01646.png" arWidth="640" arHeight="480" duration="0" songTitle="" songArtist="" songAlbum="" songCopyrightUrl="" songArtistUrl="" songAudioFileUrl="" stabilizationMode="0" mediaItemType="2" />
    <MediaItem id="1647" filePath="C:\Users\owner\Dropbox\Work\png\animation T=1.01647.png" arWidth="640" arHeight="480" duration="0" songTitle="" songArtist="" songAlbum="" songCopyrightUrl="" songArtistUrl="" songAudioFileUrl="" stabilizationMode="0" mediaItemType="2" />
    <MediaItem id="1648" filePath="C:\Users\owner\Dropbox\Work\png\animation T=1.01648.png" arWidth="640" arHeight="480" duration="0" songTitle="" songArtist="" songAlbum="" songCopyrightUrl="" songArtistUrl="" songAudioFileUrl="" stabilizationMode="0" mediaItemType="2" />
    <MediaItem id="1649" filePath="C:\Users\owner\Dropbox\Work\png\animation T=1.01649.png" arWidth="640" arHeight="480" duration="0" songTitle="" songArtist="" songAlbum="" songCopyrightUrl="" songArtistUrl="" songAudioFileUrl="" stabilizationMode="0" mediaItemType="2" />
    <MediaItem id="1650" filePath="C:\Users\owner\Dropbox\Work\png\animation T=1.01650.png" arWidth="640" arHeight="480" duration="0" songTitle="" songArtist="" songAlbum="" songCopyrightUrl="" songArtistUrl="" songAudioFileUrl="" stabilizationMode="0" mediaItemType="2" />
    <MediaItem id="1651" filePath="C:\Users\owner\Dropbox\Work\png\animation T=1.01651.png" arWidth="640" arHeight="480" duration="0" songTitle="" songArtist="" songAlbum="" songCopyrightUrl="" songArtistUrl="" songAudioFileUrl="" stabilizationMode="0" mediaItemType="2" />
    <MediaItem id="1652" filePath="C:\Users\owner\Dropbox\Work\png\animation T=1.01652.png" arWidth="640" arHeight="480" duration="0" songTitle="" songArtist="" songAlbum="" songCopyrightUrl="" songArtistUrl="" songAudioFileUrl="" stabilizationMode="0" mediaItemType="2" />
    <MediaItem id="1653" filePath="C:\Users\owner\Dropbox\Work\png\animation T=1.01653.png" arWidth="640" arHeight="480" duration="0" songTitle="" songArtist="" songAlbum="" songCopyrightUrl="" songArtistUrl="" songAudioFileUrl="" stabilizationMode="0" mediaItemType="2" />
    <MediaItem id="1654" filePath="C:\Users\owner\Dropbox\Work\png\animation T=1.01654.png" arWidth="640" arHeight="480" duration="0" songTitle="" songArtist="" songAlbum="" songCopyrightUrl="" songArtistUrl="" songAudioFileUrl="" stabilizationMode="0" mediaItemType="2" />
    <MediaItem id="1655" filePath="C:\Users\owner\Dropbox\Work\png\animation T=1.01655.png" arWidth="640" arHeight="480" duration="0" songTitle="" songArtist="" songAlbum="" songCopyrightUrl="" songArtistUrl="" songAudioFileUrl="" stabilizationMode="0" mediaItemType="2" />
    <MediaItem id="1656" filePath="C:\Users\owner\Dropbox\Work\png\animation T=1.01656.png" arWidth="640" arHeight="480" duration="0" songTitle="" songArtist="" songAlbum="" songCopyrightUrl="" songArtistUrl="" songAudioFileUrl="" stabilizationMode="0" mediaItemType="2" />
    <MediaItem id="1657" filePath="C:\Users\owner\Dropbox\Work\png\animation T=1.01657.png" arWidth="640" arHeight="480" duration="0" songTitle="" songArtist="" songAlbum="" songCopyrightUrl="" songArtistUrl="" songAudioFileUrl="" stabilizationMode="0" mediaItemType="2" />
    <MediaItem id="1658" filePath="C:\Users\owner\Dropbox\Work\png\animation T=1.01658.png" arWidth="640" arHeight="480" duration="0" songTitle="" songArtist="" songAlbum="" songCopyrightUrl="" songArtistUrl="" songAudioFileUrl="" stabilizationMode="0" mediaItemType="2" />
    <MediaItem id="1659" filePath="C:\Users\owner\Dropbox\Work\png\animation T=1.01659.png" arWidth="640" arHeight="480" duration="0" songTitle="" songArtist="" songAlbum="" songCopyrightUrl="" songArtistUrl="" songAudioFileUrl="" stabilizationMode="0" mediaItemType="2" />
    <MediaItem id="1660" filePath="C:\Users\owner\Dropbox\Work\png\animation T=1.01660.png" arWidth="640" arHeight="480" duration="0" songTitle="" songArtist="" songAlbum="" songCopyrightUrl="" songArtistUrl="" songAudioFileUrl="" stabilizationMode="0" mediaItemType="2" />
    <MediaItem id="1661" filePath="C:\Users\owner\Dropbox\Work\png\animation T=1.01661.png" arWidth="640" arHeight="480" duration="0" songTitle="" songArtist="" songAlbum="" songCopyrightUrl="" songArtistUrl="" songAudioFileUrl="" stabilizationMode="0" mediaItemType="2" />
    <MediaItem id="1662" filePath="C:\Users\owner\Dropbox\Work\png\animation T=1.01662.png" arWidth="640" arHeight="480" duration="0" songTitle="" songArtist="" songAlbum="" songCopyrightUrl="" songArtistUrl="" songAudioFileUrl="" stabilizationMode="0" mediaItemType="2" />
    <MediaItem id="1663" filePath="C:\Users\owner\Dropbox\Work\png\animation T=1.01663.png" arWidth="640" arHeight="480" duration="0" songTitle="" songArtist="" songAlbum="" songCopyrightUrl="" songArtistUrl="" songAudioFileUrl="" stabilizationMode="0" mediaItemType="2" />
    <MediaItem id="1664" filePath="C:\Users\owner\Dropbox\Work\png\animation T=1.01664.png" arWidth="640" arHeight="480" duration="0" songTitle="" songArtist="" songAlbum="" songCopyrightUrl="" songArtistUrl="" songAudioFileUrl="" stabilizationMode="0" mediaItemType="2" />
    <MediaItem id="1665" filePath="C:\Users\owner\Dropbox\Work\png\animation T=1.01665.png" arWidth="640" arHeight="480" duration="0" songTitle="" songArtist="" songAlbum="" songCopyrightUrl="" songArtistUrl="" songAudioFileUrl="" stabilizationMode="0" mediaItemType="2" />
    <MediaItem id="1666" filePath="C:\Users\owner\Dropbox\Work\png\animation T=1.01666.png" arWidth="640" arHeight="480" duration="0" songTitle="" songArtist="" songAlbum="" songCopyrightUrl="" songArtistUrl="" songAudioFileUrl="" stabilizationMode="0" mediaItemType="2" />
    <MediaItem id="1667" filePath="C:\Users\owner\Dropbox\Work\png\animation T=1.01667.png" arWidth="640" arHeight="480" duration="0" songTitle="" songArtist="" songAlbum="" songCopyrightUrl="" songArtistUrl="" songAudioFileUrl="" stabilizationMode="0" mediaItemType="2" />
    <MediaItem id="1668" filePath="C:\Users\owner\Dropbox\Work\png\animation T=1.01668.png" arWidth="640" arHeight="480" duration="0" songTitle="" songArtist="" songAlbum="" songCopyrightUrl="" songArtistUrl="" songAudioFileUrl="" stabilizationMode="0" mediaItemType="2" />
    <MediaItem id="1669" filePath="C:\Users\owner\Dropbox\Work\png\animation T=1.01669.png" arWidth="640" arHeight="480" duration="0" songTitle="" songArtist="" songAlbum="" songCopyrightUrl="" songArtistUrl="" songAudioFileUrl="" stabilizationMode="0" mediaItemType="2" />
    <MediaItem id="1670" filePath="C:\Users\owner\Dropbox\Work\png\animation T=1.01670.png" arWidth="640" arHeight="480" duration="0" songTitle="" songArtist="" songAlbum="" songCopyrightUrl="" songArtistUrl="" songAudioFileUrl="" stabilizationMode="0" mediaItemType="2" />
    <MediaItem id="1671" filePath="C:\Users\owner\Dropbox\Work\png\animation T=1.01671.png" arWidth="640" arHeight="480" duration="0" songTitle="" songArtist="" songAlbum="" songCopyrightUrl="" songArtistUrl="" songAudioFileUrl="" stabilizationMode="0" mediaItemType="2" />
    <MediaItem id="1672" filePath="C:\Users\owner\Dropbox\Work\png\animation T=1.01672.png" arWidth="640" arHeight="480" duration="0" songTitle="" songArtist="" songAlbum="" songCopyrightUrl="" songArtistUrl="" songAudioFileUrl="" stabilizationMode="0" mediaItemType="2" />
    <MediaItem id="1673" filePath="C:\Users\owner\Dropbox\Work\png\animation T=1.01673.png" arWidth="640" arHeight="480" duration="0" songTitle="" songArtist="" songAlbum="" songCopyrightUrl="" songArtistUrl="" songAudioFileUrl="" stabilizationMode="0" mediaItemType="2" />
    <MediaItem id="1674" filePath="C:\Users\owner\Dropbox\Work\png\animation T=1.01674.png" arWidth="640" arHeight="480" duration="0" songTitle="" songArtist="" songAlbum="" songCopyrightUrl="" songArtistUrl="" songAudioFileUrl="" stabilizationMode="0" mediaItemType="2" />
    <MediaItem id="1675" filePath="C:\Users\owner\Dropbox\Work\png\animation T=1.01675.png" arWidth="640" arHeight="480" duration="0" songTitle="" songArtist="" songAlbum="" songCopyrightUrl="" songArtistUrl="" songAudioFileUrl="" stabilizationMode="0" mediaItemType="2" />
    <MediaItem id="1676" filePath="C:\Users\owner\Dropbox\Work\png\animation T=1.01676.png" arWidth="640" arHeight="480" duration="0" songTitle="" songArtist="" songAlbum="" songCopyrightUrl="" songArtistUrl="" songAudioFileUrl="" stabilizationMode="0" mediaItemType="2" />
    <MediaItem id="1677" filePath="C:\Users\owner\Dropbox\Work\png\animation T=1.01677.png" arWidth="640" arHeight="480" duration="0" songTitle="" songArtist="" songAlbum="" songCopyrightUrl="" songArtistUrl="" songAudioFileUrl="" stabilizationMode="0" mediaItemType="2" />
    <MediaItem id="1678" filePath="C:\Users\owner\Dropbox\Work\png\animation T=1.01678.png" arWidth="640" arHeight="480" duration="0" songTitle="" songArtist="" songAlbum="" songCopyrightUrl="" songArtistUrl="" songAudioFileUrl="" stabilizationMode="0" mediaItemType="2" />
    <MediaItem id="1679" filePath="C:\Users\owner\Dropbox\Work\png\animation T=1.01679.png" arWidth="640" arHeight="480" duration="0" songTitle="" songArtist="" songAlbum="" songCopyrightUrl="" songArtistUrl="" songAudioFileUrl="" stabilizationMode="0" mediaItemType="2" />
    <MediaItem id="1680" filePath="C:\Users\owner\Dropbox\Work\png\animation T=1.01680.png" arWidth="640" arHeight="480" duration="0" songTitle="" songArtist="" songAlbum="" songCopyrightUrl="" songArtistUrl="" songAudioFileUrl="" stabilizationMode="0" mediaItemType="2" />
    <MediaItem id="1681" filePath="C:\Users\owner\Dropbox\Work\png\animation T=1.01681.png" arWidth="640" arHeight="480" duration="0" songTitle="" songArtist="" songAlbum="" songCopyrightUrl="" songArtistUrl="" songAudioFileUrl="" stabilizationMode="0" mediaItemType="2" />
    <MediaItem id="1682" filePath="C:\Users\owner\Dropbox\Work\png\animation T=1.01682.png" arWidth="640" arHeight="480" duration="0" songTitle="" songArtist="" songAlbum="" songCopyrightUrl="" songArtistUrl="" songAudioFileUrl="" stabilizationMode="0" mediaItemType="2" />
    <MediaItem id="1683" filePath="C:\Users\owner\Dropbox\Work\png\animation T=1.01683.png" arWidth="640" arHeight="480" duration="0" songTitle="" songArtist="" songAlbum="" songCopyrightUrl="" songArtistUrl="" songAudioFileUrl="" stabilizationMode="0" mediaItemType="2" />
    <MediaItem id="1684" filePath="C:\Users\owner\Dropbox\Work\png\animation T=1.01684.png" arWidth="640" arHeight="480" duration="0" songTitle="" songArtist="" songAlbum="" songCopyrightUrl="" songArtistUrl="" songAudioFileUrl="" stabilizationMode="0" mediaItemType="2" />
    <MediaItem id="1685" filePath="C:\Users\owner\Dropbox\Work\png\animation T=1.01685.png" arWidth="640" arHeight="480" duration="0" songTitle="" songArtist="" songAlbum="" songCopyrightUrl="" songArtistUrl="" songAudioFileUrl="" stabilizationMode="0" mediaItemType="2" />
    <MediaItem id="1686" filePath="C:\Users\owner\Dropbox\Work\png\animation T=1.01686.png" arWidth="640" arHeight="480" duration="0" songTitle="" songArtist="" songAlbum="" songCopyrightUrl="" songArtistUrl="" songAudioFileUrl="" stabilizationMode="0" mediaItemType="2" />
    <MediaItem id="1687" filePath="C:\Users\owner\Dropbox\Work\png\animation T=1.01687.png" arWidth="640" arHeight="480" duration="0" songTitle="" songArtist="" songAlbum="" songCopyrightUrl="" songArtistUrl="" songAudioFileUrl="" stabilizationMode="0" mediaItemType="2" />
    <MediaItem id="1688" filePath="C:\Users\owner\Dropbox\Work\png\animation T=1.01688.png" arWidth="640" arHeight="480" duration="0" songTitle="" songArtist="" songAlbum="" songCopyrightUrl="" songArtistUrl="" songAudioFileUrl="" stabilizationMode="0" mediaItemType="2" />
    <MediaItem id="1689" filePath="C:\Users\owner\Dropbox\Work\png\animation T=1.01689.png" arWidth="640" arHeight="480" duration="0" songTitle="" songArtist="" songAlbum="" songCopyrightUrl="" songArtistUrl="" songAudioFileUrl="" stabilizationMode="0" mediaItemType="2" />
    <MediaItem id="1690" filePath="C:\Users\owner\Dropbox\Work\png\animation T=1.01690.png" arWidth="640" arHeight="480" duration="0" songTitle="" songArtist="" songAlbum="" songCopyrightUrl="" songArtistUrl="" songAudioFileUrl="" stabilizationMode="0" mediaItemType="2" />
    <MediaItem id="1691" filePath="C:\Users\owner\Dropbox\Work\png\animation T=1.01691.png" arWidth="640" arHeight="480" duration="0" songTitle="" songArtist="" songAlbum="" songCopyrightUrl="" songArtistUrl="" songAudioFileUrl="" stabilizationMode="0" mediaItemType="2" />
    <MediaItem id="1692" filePath="C:\Users\owner\Dropbox\Work\png\animation T=1.01692.png" arWidth="640" arHeight="480" duration="0" songTitle="" songArtist="" songAlbum="" songCopyrightUrl="" songArtistUrl="" songAudioFileUrl="" stabilizationMode="0" mediaItemType="2" />
    <MediaItem id="1693" filePath="C:\Users\owner\Dropbox\Work\png\animation T=1.01693.png" arWidth="640" arHeight="480" duration="0" songTitle="" songArtist="" songAlbum="" songCopyrightUrl="" songArtistUrl="" songAudioFileUrl="" stabilizationMode="0" mediaItemType="2" />
    <MediaItem id="1694" filePath="C:\Users\owner\Dropbox\Work\png\animation T=1.01694.png" arWidth="640" arHeight="480" duration="0" songTitle="" songArtist="" songAlbum="" songCopyrightUrl="" songArtistUrl="" songAudioFileUrl="" stabilizationMode="0" mediaItemType="2" />
    <MediaItem id="1695" filePath="C:\Users\owner\Dropbox\Work\png\animation T=1.01695.png" arWidth="640" arHeight="480" duration="0" songTitle="" songArtist="" songAlbum="" songCopyrightUrl="" songArtistUrl="" songAudioFileUrl="" stabilizationMode="0" mediaItemType="2" />
    <MediaItem id="1696" filePath="C:\Users\owner\Dropbox\Work\png\animation T=1.01696.png" arWidth="640" arHeight="480" duration="0" songTitle="" songArtist="" songAlbum="" songCopyrightUrl="" songArtistUrl="" songAudioFileUrl="" stabilizationMode="0" mediaItemType="2" />
    <MediaItem id="1697" filePath="C:\Users\owner\Dropbox\Work\png\animation T=1.01697.png" arWidth="640" arHeight="480" duration="0" songTitle="" songArtist="" songAlbum="" songCopyrightUrl="" songArtistUrl="" songAudioFileUrl="" stabilizationMode="0" mediaItemType="2" />
    <MediaItem id="1698" filePath="C:\Users\owner\Dropbox\Work\png\animation T=1.01698.png" arWidth="640" arHeight="480" duration="0" songTitle="" songArtist="" songAlbum="" songCopyrightUrl="" songArtistUrl="" songAudioFileUrl="" stabilizationMode="0" mediaItemType="2" />
    <MediaItem id="1699" filePath="C:\Users\owner\Dropbox\Work\png\animation T=1.01699.png" arWidth="640" arHeight="480" duration="0" songTitle="" songArtist="" songAlbum="" songCopyrightUrl="" songArtistUrl="" songAudioFileUrl="" stabilizationMode="0" mediaItemType="2" />
    <MediaItem id="1700" filePath="C:\Users\owner\Dropbox\Work\png\animation T=1.01700.png" arWidth="640" arHeight="480" duration="0" songTitle="" songArtist="" songAlbum="" songCopyrightUrl="" songArtistUrl="" songAudioFileUrl="" stabilizationMode="0" mediaItemType="2" />
    <MediaItem id="1701" filePath="C:\Users\owner\Dropbox\Work\png\animation T=1.01701.png" arWidth="640" arHeight="480" duration="0" songTitle="" songArtist="" songAlbum="" songCopyrightUrl="" songArtistUrl="" songAudioFileUrl="" stabilizationMode="0" mediaItemType="2" />
    <MediaItem id="1702" filePath="C:\Users\owner\Dropbox\Work\png\animation T=1.01702.png" arWidth="640" arHeight="480" duration="0" songTitle="" songArtist="" songAlbum="" songCopyrightUrl="" songArtistUrl="" songAudioFileUrl="" stabilizationMode="0" mediaItemType="2" />
    <MediaItem id="1703" filePath="C:\Users\owner\Dropbox\Work\png\animation T=1.01703.png" arWidth="640" arHeight="480" duration="0" songTitle="" songArtist="" songAlbum="" songCopyrightUrl="" songArtistUrl="" songAudioFileUrl="" stabilizationMode="0" mediaItemType="2" />
    <MediaItem id="1704" filePath="C:\Users\owner\Dropbox\Work\png\animation T=1.01704.png" arWidth="640" arHeight="480" duration="0" songTitle="" songArtist="" songAlbum="" songCopyrightUrl="" songArtistUrl="" songAudioFileUrl="" stabilizationMode="0" mediaItemType="2" />
    <MediaItem id="1705" filePath="C:\Users\owner\Dropbox\Work\png\animation T=1.01705.png" arWidth="640" arHeight="480" duration="0" songTitle="" songArtist="" songAlbum="" songCopyrightUrl="" songArtistUrl="" songAudioFileUrl="" stabilizationMode="0" mediaItemType="2" />
    <MediaItem id="1706" filePath="C:\Users\owner\Dropbox\Work\png\animation T=1.01706.png" arWidth="640" arHeight="480" duration="0" songTitle="" songArtist="" songAlbum="" songCopyrightUrl="" songArtistUrl="" songAudioFileUrl="" stabilizationMode="0" mediaItemType="2" />
    <MediaItem id="1707" filePath="C:\Users\owner\Dropbox\Work\png\animation T=1.01707.png" arWidth="640" arHeight="480" duration="0" songTitle="" songArtist="" songAlbum="" songCopyrightUrl="" songArtistUrl="" songAudioFileUrl="" stabilizationMode="0" mediaItemType="2" />
    <MediaItem id="1708" filePath="C:\Users\owner\Dropbox\Work\png\animation T=1.01708.png" arWidth="640" arHeight="480" duration="0" songTitle="" songArtist="" songAlbum="" songCopyrightUrl="" songArtistUrl="" songAudioFileUrl="" stabilizationMode="0" mediaItemType="2" />
    <MediaItem id="1709" filePath="C:\Users\owner\Dropbox\Work\png\animation T=1.01709.png" arWidth="640" arHeight="480" duration="0" songTitle="" songArtist="" songAlbum="" songCopyrightUrl="" songArtistUrl="" songAudioFileUrl="" stabilizationMode="0" mediaItemType="2" />
    <MediaItem id="1710" filePath="C:\Users\owner\Dropbox\Work\png\animation T=1.01710.png" arWidth="640" arHeight="480" duration="0" songTitle="" songArtist="" songAlbum="" songCopyrightUrl="" songArtistUrl="" songAudioFileUrl="" stabilizationMode="0" mediaItemType="2" />
    <MediaItem id="1711" filePath="C:\Users\owner\Dropbox\Work\png\animation T=1.01711.png" arWidth="640" arHeight="480" duration="0" songTitle="" songArtist="" songAlbum="" songCopyrightUrl="" songArtistUrl="" songAudioFileUrl="" stabilizationMode="0" mediaItemType="2" />
    <MediaItem id="1712" filePath="C:\Users\owner\Dropbox\Work\png\animation T=1.01712.png" arWidth="640" arHeight="480" duration="0" songTitle="" songArtist="" songAlbum="" songCopyrightUrl="" songArtistUrl="" songAudioFileUrl="" stabilizationMode="0" mediaItemType="2" />
    <MediaItem id="1713" filePath="C:\Users\owner\Dropbox\Work\png\animation T=1.01713.png" arWidth="640" arHeight="480" duration="0" songTitle="" songArtist="" songAlbum="" songCopyrightUrl="" songArtistUrl="" songAudioFileUrl="" stabilizationMode="0" mediaItemType="2" />
    <MediaItem id="1714" filePath="C:\Users\owner\Dropbox\Work\png\animation T=1.01714.png" arWidth="640" arHeight="480" duration="0" songTitle="" songArtist="" songAlbum="" songCopyrightUrl="" songArtistUrl="" songAudioFileUrl="" stabilizationMode="0" mediaItemType="2" />
    <MediaItem id="1715" filePath="C:\Users\owner\Dropbox\Work\png\animation T=1.01715.png" arWidth="640" arHeight="480" duration="0" songTitle="" songArtist="" songAlbum="" songCopyrightUrl="" songArtistUrl="" songAudioFileUrl="" stabilizationMode="0" mediaItemType="2" />
    <MediaItem id="1716" filePath="C:\Users\owner\Dropbox\Work\png\animation T=1.01716.png" arWidth="640" arHeight="480" duration="0" songTitle="" songArtist="" songAlbum="" songCopyrightUrl="" songArtistUrl="" songAudioFileUrl="" stabilizationMode="0" mediaItemType="2" />
    <MediaItem id="1717" filePath="C:\Users\owner\Dropbox\Work\png\animation T=1.01717.png" arWidth="640" arHeight="480" duration="0" songTitle="" songArtist="" songAlbum="" songCopyrightUrl="" songArtistUrl="" songAudioFileUrl="" stabilizationMode="0" mediaItemType="2" />
    <MediaItem id="1718" filePath="C:\Users\owner\Dropbox\Work\png\animation T=1.01718.png" arWidth="640" arHeight="480" duration="0" songTitle="" songArtist="" songAlbum="" songCopyrightUrl="" songArtistUrl="" songAudioFileUrl="" stabilizationMode="0" mediaItemType="2" />
    <MediaItem id="1719" filePath="C:\Users\owner\Dropbox\Work\png\animation T=1.01719.png" arWidth="640" arHeight="480" duration="0" songTitle="" songArtist="" songAlbum="" songCopyrightUrl="" songArtistUrl="" songAudioFileUrl="" stabilizationMode="0" mediaItemType="2" />
    <MediaItem id="1720" filePath="C:\Users\owner\Dropbox\Work\png\animation T=1.01720.png" arWidth="640" arHeight="480" duration="0" songTitle="" songArtist="" songAlbum="" songCopyrightUrl="" songArtistUrl="" songAudioFileUrl="" stabilizationMode="0" mediaItemType="2" />
    <MediaItem id="1721" filePath="C:\Users\owner\Dropbox\Work\png\animation T=1.01721.png" arWidth="640" arHeight="480" duration="0" songTitle="" songArtist="" songAlbum="" songCopyrightUrl="" songArtistUrl="" songAudioFileUrl="" stabilizationMode="0" mediaItemType="2" />
    <MediaItem id="1722" filePath="C:\Users\owner\Dropbox\Work\png\animation T=1.01722.png" arWidth="640" arHeight="480" duration="0" songTitle="" songArtist="" songAlbum="" songCopyrightUrl="" songArtistUrl="" songAudioFileUrl="" stabilizationMode="0" mediaItemType="2" />
    <MediaItem id="1723" filePath="C:\Users\owner\Dropbox\Work\png\animation T=1.01723.png" arWidth="640" arHeight="480" duration="0" songTitle="" songArtist="" songAlbum="" songCopyrightUrl="" songArtistUrl="" songAudioFileUrl="" stabilizationMode="0" mediaItemType="2" />
    <MediaItem id="1724" filePath="C:\Users\owner\Dropbox\Work\png\animation T=1.01724.png" arWidth="640" arHeight="480" duration="0" songTitle="" songArtist="" songAlbum="" songCopyrightUrl="" songArtistUrl="" songAudioFileUrl="" stabilizationMode="0" mediaItemType="2" />
    <MediaItem id="1725" filePath="C:\Users\owner\Dropbox\Work\png\animation T=1.01725.png" arWidth="640" arHeight="480" duration="0" songTitle="" songArtist="" songAlbum="" songCopyrightUrl="" songArtistUrl="" songAudioFileUrl="" stabilizationMode="0" mediaItemType="2" />
    <MediaItem id="1726" filePath="C:\Users\owner\Dropbox\Work\png\animation T=1.01726.png" arWidth="640" arHeight="480" duration="0" songTitle="" songArtist="" songAlbum="" songCopyrightUrl="" songArtistUrl="" songAudioFileUrl="" stabilizationMode="0" mediaItemType="2" />
    <MediaItem id="1727" filePath="C:\Users\owner\Dropbox\Work\png\animation T=1.01727.png" arWidth="640" arHeight="480" duration="0" songTitle="" songArtist="" songAlbum="" songCopyrightUrl="" songArtistUrl="" songAudioFileUrl="" stabilizationMode="0" mediaItemType="2" />
    <MediaItem id="1728" filePath="C:\Users\owner\Dropbox\Work\png\animation T=1.01728.png" arWidth="640" arHeight="480" duration="0" songTitle="" songArtist="" songAlbum="" songCopyrightUrl="" songArtistUrl="" songAudioFileUrl="" stabilizationMode="0" mediaItemType="2" />
    <MediaItem id="1729" filePath="C:\Users\owner\Dropbox\Work\png\animation T=1.01729.png" arWidth="640" arHeight="480" duration="0" songTitle="" songArtist="" songAlbum="" songCopyrightUrl="" songArtistUrl="" songAudioFileUrl="" stabilizationMode="0" mediaItemType="2" />
    <MediaItem id="1730" filePath="C:\Users\owner\Dropbox\Work\png\animation T=1.01730.png" arWidth="640" arHeight="480" duration="0" songTitle="" songArtist="" songAlbum="" songCopyrightUrl="" songArtistUrl="" songAudioFileUrl="" stabilizationMode="0" mediaItemType="2" />
    <MediaItem id="1731" filePath="C:\Users\owner\Dropbox\Work\png\animation T=1.01731.png" arWidth="640" arHeight="480" duration="0" songTitle="" songArtist="" songAlbum="" songCopyrightUrl="" songArtistUrl="" songAudioFileUrl="" stabilizationMode="0" mediaItemType="2" />
    <MediaItem id="1732" filePath="C:\Users\owner\Dropbox\Work\png\animation T=1.01732.png" arWidth="640" arHeight="480" duration="0" songTitle="" songArtist="" songAlbum="" songCopyrightUrl="" songArtistUrl="" songAudioFileUrl="" stabilizationMode="0" mediaItemType="2" />
    <MediaItem id="1733" filePath="C:\Users\owner\Dropbox\Work\png\animation T=1.01733.png" arWidth="640" arHeight="480" duration="0" songTitle="" songArtist="" songAlbum="" songCopyrightUrl="" songArtistUrl="" songAudioFileUrl="" stabilizationMode="0" mediaItemType="2" />
    <MediaItem id="1734" filePath="C:\Users\owner\Dropbox\Work\png\animation T=1.01734.png" arWidth="640" arHeight="480" duration="0" songTitle="" songArtist="" songAlbum="" songCopyrightUrl="" songArtistUrl="" songAudioFileUrl="" stabilizationMode="0" mediaItemType="2" />
    <MediaItem id="1735" filePath="C:\Users\owner\Dropbox\Work\png\animation T=1.01735.png" arWidth="640" arHeight="480" duration="0" songTitle="" songArtist="" songAlbum="" songCopyrightUrl="" songArtistUrl="" songAudioFileUrl="" stabilizationMode="0" mediaItemType="2" />
    <MediaItem id="1736" filePath="C:\Users\owner\Dropbox\Work\png\animation T=1.01736.png" arWidth="640" arHeight="480" duration="0" songTitle="" songArtist="" songAlbum="" songCopyrightUrl="" songArtistUrl="" songAudioFileUrl="" stabilizationMode="0" mediaItemType="2" />
    <MediaItem id="1737" filePath="C:\Users\owner\Dropbox\Work\png\animation T=1.01737.png" arWidth="640" arHeight="480" duration="0" songTitle="" songArtist="" songAlbum="" songCopyrightUrl="" songArtistUrl="" songAudioFileUrl="" stabilizationMode="0" mediaItemType="2" />
    <MediaItem id="1738" filePath="C:\Users\owner\Dropbox\Work\png\animation T=1.01738.png" arWidth="640" arHeight="480" duration="0" songTitle="" songArtist="" songAlbum="" songCopyrightUrl="" songArtistUrl="" songAudioFileUrl="" stabilizationMode="0" mediaItemType="2" />
    <MediaItem id="1739" filePath="C:\Users\owner\Dropbox\Work\png\animation T=1.01739.png" arWidth="640" arHeight="480" duration="0" songTitle="" songArtist="" songAlbum="" songCopyrightUrl="" songArtistUrl="" songAudioFileUrl="" stabilizationMode="0" mediaItemType="2" />
    <MediaItem id="1740" filePath="C:\Users\owner\Dropbox\Work\png\animation T=1.01740.png" arWidth="640" arHeight="480" duration="0" songTitle="" songArtist="" songAlbum="" songCopyrightUrl="" songArtistUrl="" songAudioFileUrl="" stabilizationMode="0" mediaItemType="2" />
    <MediaItem id="1741" filePath="C:\Users\owner\Dropbox\Work\png\animation T=1.01741.png" arWidth="640" arHeight="480" duration="0" songTitle="" songArtist="" songAlbum="" songCopyrightUrl="" songArtistUrl="" songAudioFileUrl="" stabilizationMode="0" mediaItemType="2" />
    <MediaItem id="1742" filePath="C:\Users\owner\Dropbox\Work\png\animation T=1.01742.png" arWidth="640" arHeight="480" duration="0" songTitle="" songArtist="" songAlbum="" songCopyrightUrl="" songArtistUrl="" songAudioFileUrl="" stabilizationMode="0" mediaItemType="2" />
    <MediaItem id="1743" filePath="C:\Users\owner\Dropbox\Work\png\animation T=1.01743.png" arWidth="640" arHeight="480" duration="0" songTitle="" songArtist="" songAlbum="" songCopyrightUrl="" songArtistUrl="" songAudioFileUrl="" stabilizationMode="0" mediaItemType="2" />
    <MediaItem id="1744" filePath="C:\Users\owner\Dropbox\Work\png\animation T=1.01744.png" arWidth="640" arHeight="480" duration="0" songTitle="" songArtist="" songAlbum="" songCopyrightUrl="" songArtistUrl="" songAudioFileUrl="" stabilizationMode="0" mediaItemType="2" />
    <MediaItem id="1745" filePath="C:\Users\owner\Dropbox\Work\png\animation T=1.01745.png" arWidth="640" arHeight="480" duration="0" songTitle="" songArtist="" songAlbum="" songCopyrightUrl="" songArtistUrl="" songAudioFileUrl="" stabilizationMode="0" mediaItemType="2" />
    <MediaItem id="1746" filePath="C:\Users\owner\Dropbox\Work\png\animation T=1.01746.png" arWidth="640" arHeight="480" duration="0" songTitle="" songArtist="" songAlbum="" songCopyrightUrl="" songArtistUrl="" songAudioFileUrl="" stabilizationMode="0" mediaItemType="2" />
    <MediaItem id="1747" filePath="C:\Users\owner\Dropbox\Work\png\animation T=1.01747.png" arWidth="640" arHeight="480" duration="0" songTitle="" songArtist="" songAlbum="" songCopyrightUrl="" songArtistUrl="" songAudioFileUrl="" stabilizationMode="0" mediaItemType="2" />
    <MediaItem id="1748" filePath="C:\Users\owner\Dropbox\Work\png\animation T=1.01748.png" arWidth="640" arHeight="480" duration="0" songTitle="" songArtist="" songAlbum="" songCopyrightUrl="" songArtistUrl="" songAudioFileUrl="" stabilizationMode="0" mediaItemType="2" />
    <MediaItem id="1749" filePath="C:\Users\owner\Dropbox\Work\png\animation T=1.01749.png" arWidth="640" arHeight="480" duration="0" songTitle="" songArtist="" songAlbum="" songCopyrightUrl="" songArtistUrl="" songAudioFileUrl="" stabilizationMode="0" mediaItemType="2" />
    <MediaItem id="1750" filePath="C:\Users\owner\Dropbox\Work\png\animation T=1.01750.png" arWidth="640" arHeight="480" duration="0" songTitle="" songArtist="" songAlbum="" songCopyrightUrl="" songArtistUrl="" songAudioFileUrl="" stabilizationMode="0" mediaItemType="2" />
    <MediaItem id="1751" filePath="C:\Users\owner\Dropbox\Work\png\animation T=1.01751.png" arWidth="640" arHeight="480" duration="0" songTitle="" songArtist="" songAlbum="" songCopyrightUrl="" songArtistUrl="" songAudioFileUrl="" stabilizationMode="0" mediaItemType="2" />
    <MediaItem id="1752" filePath="C:\Users\owner\Dropbox\Work\png\animation T=1.01752.png" arWidth="640" arHeight="480" duration="0" songTitle="" songArtist="" songAlbum="" songCopyrightUrl="" songArtistUrl="" songAudioFileUrl="" stabilizationMode="0" mediaItemType="2" />
    <MediaItem id="1753" filePath="C:\Users\owner\Dropbox\Work\png\animation T=1.01753.png" arWidth="640" arHeight="480" duration="0" songTitle="" songArtist="" songAlbum="" songCopyrightUrl="" songArtistUrl="" songAudioFileUrl="" stabilizationMode="0" mediaItemType="2" />
    <MediaItem id="1754" filePath="C:\Users\owner\Dropbox\Work\png\animation T=1.01754.png" arWidth="640" arHeight="480" duration="0" songTitle="" songArtist="" songAlbum="" songCopyrightUrl="" songArtistUrl="" songAudioFileUrl="" stabilizationMode="0" mediaItemType="2" />
    <MediaItem id="1755" filePath="C:\Users\owner\Dropbox\Work\png\animation T=1.01755.png" arWidth="640" arHeight="480" duration="0" songTitle="" songArtist="" songAlbum="" songCopyrightUrl="" songArtistUrl="" songAudioFileUrl="" stabilizationMode="0" mediaItemType="2" />
    <MediaItem id="1756" filePath="C:\Users\owner\Dropbox\Work\png\animation T=1.01756.png" arWidth="640" arHeight="480" duration="0" songTitle="" songArtist="" songAlbum="" songCopyrightUrl="" songArtistUrl="" songAudioFileUrl="" stabilizationMode="0" mediaItemType="2" />
    <MediaItem id="1757" filePath="C:\Users\owner\Dropbox\Work\png\animation T=1.01757.png" arWidth="640" arHeight="480" duration="0" songTitle="" songArtist="" songAlbum="" songCopyrightUrl="" songArtistUrl="" songAudioFileUrl="" stabilizationMode="0" mediaItemType="2" />
    <MediaItem id="1758" filePath="C:\Users\owner\Dropbox\Work\png\animation T=1.01758.png" arWidth="640" arHeight="480" duration="0" songTitle="" songArtist="" songAlbum="" songCopyrightUrl="" songArtistUrl="" songAudioFileUrl="" stabilizationMode="0" mediaItemType="2" />
    <MediaItem id="1759" filePath="C:\Users\owner\Dropbox\Work\png\animation T=1.01759.png" arWidth="640" arHeight="480" duration="0" songTitle="" songArtist="" songAlbum="" songCopyrightUrl="" songArtistUrl="" songAudioFileUrl="" stabilizationMode="0" mediaItemType="2" />
    <MediaItem id="1760" filePath="C:\Users\owner\Dropbox\Work\png\animation T=1.01760.png" arWidth="640" arHeight="480" duration="0" songTitle="" songArtist="" songAlbum="" songCopyrightUrl="" songArtistUrl="" songAudioFileUrl="" stabilizationMode="0" mediaItemType="2" />
    <MediaItem id="1761" filePath="C:\Users\owner\Dropbox\Work\png\animation T=1.01761.png" arWidth="640" arHeight="480" duration="0" songTitle="" songArtist="" songAlbum="" songCopyrightUrl="" songArtistUrl="" songAudioFileUrl="" stabilizationMode="0" mediaItemType="2" />
    <MediaItem id="1762" filePath="C:\Users\owner\Dropbox\Work\png\animation T=1.01762.png" arWidth="640" arHeight="480" duration="0" songTitle="" songArtist="" songAlbum="" songCopyrightUrl="" songArtistUrl="" songAudioFileUrl="" stabilizationMode="0" mediaItemType="2" />
    <MediaItem id="1763" filePath="C:\Users\owner\Dropbox\Work\png\animation T=1.01763.png" arWidth="640" arHeight="480" duration="0" songTitle="" songArtist="" songAlbum="" songCopyrightUrl="" songArtistUrl="" songAudioFileUrl="" stabilizationMode="0" mediaItemType="2" />
    <MediaItem id="1764" filePath="C:\Users\owner\Dropbox\Work\png\animation T=1.01764.png" arWidth="640" arHeight="480" duration="0" songTitle="" songArtist="" songAlbum="" songCopyrightUrl="" songArtistUrl="" songAudioFileUrl="" stabilizationMode="0" mediaItemType="2" />
    <MediaItem id="1765" filePath="C:\Users\owner\Dropbox\Work\png\animation T=1.01765.png" arWidth="640" arHeight="480" duration="0" songTitle="" songArtist="" songAlbum="" songCopyrightUrl="" songArtistUrl="" songAudioFileUrl="" stabilizationMode="0" mediaItemType="2" />
    <MediaItem id="1766" filePath="C:\Users\owner\Dropbox\Work\png\animation T=1.01766.png" arWidth="640" arHeight="480" duration="0" songTitle="" songArtist="" songAlbum="" songCopyrightUrl="" songArtistUrl="" songAudioFileUrl="" stabilizationMode="0" mediaItemType="2" />
    <MediaItem id="1767" filePath="C:\Users\owner\Dropbox\Work\png\animation T=1.01767.png" arWidth="640" arHeight="480" duration="0" songTitle="" songArtist="" songAlbum="" songCopyrightUrl="" songArtistUrl="" songAudioFileUrl="" stabilizationMode="0" mediaItemType="2" />
    <MediaItem id="1768" filePath="C:\Users\owner\Dropbox\Work\png\animation T=1.01768.png" arWidth="640" arHeight="480" duration="0" songTitle="" songArtist="" songAlbum="" songCopyrightUrl="" songArtistUrl="" songAudioFileUrl="" stabilizationMode="0" mediaItemType="2" />
    <MediaItem id="1769" filePath="C:\Users\owner\Dropbox\Work\png\animation T=1.01769.png" arWidth="640" arHeight="480" duration="0" songTitle="" songArtist="" songAlbum="" songCopyrightUrl="" songArtistUrl="" songAudioFileUrl="" stabilizationMode="0" mediaItemType="2" />
    <MediaItem id="1770" filePath="C:\Users\owner\Dropbox\Work\png\animation T=1.01770.png" arWidth="640" arHeight="480" duration="0" songTitle="" songArtist="" songAlbum="" songCopyrightUrl="" songArtistUrl="" songAudioFileUrl="" stabilizationMode="0" mediaItemType="2" />
    <MediaItem id="1771" filePath="C:\Users\owner\Dropbox\Work\png\animation T=1.01771.png" arWidth="640" arHeight="480" duration="0" songTitle="" songArtist="" songAlbum="" songCopyrightUrl="" songArtistUrl="" songAudioFileUrl="" stabilizationMode="0" mediaItemType="2" />
    <MediaItem id="1772" filePath="C:\Users\owner\Dropbox\Work\png\animation T=1.01772.png" arWidth="640" arHeight="480" duration="0" songTitle="" songArtist="" songAlbum="" songCopyrightUrl="" songArtistUrl="" songAudioFileUrl="" stabilizationMode="0" mediaItemType="2" />
    <MediaItem id="1773" filePath="C:\Users\owner\Dropbox\Work\png\animation T=1.01773.png" arWidth="640" arHeight="480" duration="0" songTitle="" songArtist="" songAlbum="" songCopyrightUrl="" songArtistUrl="" songAudioFileUrl="" stabilizationMode="0" mediaItemType="2" />
    <MediaItem id="1774" filePath="C:\Users\owner\Dropbox\Work\png\animation T=1.01774.png" arWidth="640" arHeight="480" duration="0" songTitle="" songArtist="" songAlbum="" songCopyrightUrl="" songArtistUrl="" songAudioFileUrl="" stabilizationMode="0" mediaItemType="2" />
    <MediaItem id="1775" filePath="C:\Users\owner\Dropbox\Work\png\animation T=1.01775.png" arWidth="640" arHeight="480" duration="0" songTitle="" songArtist="" songAlbum="" songCopyrightUrl="" songArtistUrl="" songAudioFileUrl="" stabilizationMode="0" mediaItemType="2" />
    <MediaItem id="1776" filePath="C:\Users\owner\Dropbox\Work\png\animation T=1.01776.png" arWidth="640" arHeight="480" duration="0" songTitle="" songArtist="" songAlbum="" songCopyrightUrl="" songArtistUrl="" songAudioFileUrl="" stabilizationMode="0" mediaItemType="2" />
    <MediaItem id="1777" filePath="C:\Users\owner\Dropbox\Work\png\animation T=1.01777.png" arWidth="640" arHeight="480" duration="0" songTitle="" songArtist="" songAlbum="" songCopyrightUrl="" songArtistUrl="" songAudioFileUrl="" stabilizationMode="0" mediaItemType="2" />
    <MediaItem id="1778" filePath="C:\Users\owner\Dropbox\Work\png\animation T=1.01778.png" arWidth="640" arHeight="480" duration="0" songTitle="" songArtist="" songAlbum="" songCopyrightUrl="" songArtistUrl="" songAudioFileUrl="" stabilizationMode="0" mediaItemType="2" />
    <MediaItem id="1779" filePath="C:\Users\owner\Dropbox\Work\png\animation T=1.01779.png" arWidth="640" arHeight="480" duration="0" songTitle="" songArtist="" songAlbum="" songCopyrightUrl="" songArtistUrl="" songAudioFileUrl="" stabilizationMode="0" mediaItemType="2" />
    <MediaItem id="1780" filePath="C:\Users\owner\Dropbox\Work\png\animation T=1.01780.png" arWidth="640" arHeight="480" duration="0" songTitle="" songArtist="" songAlbum="" songCopyrightUrl="" songArtistUrl="" songAudioFileUrl="" stabilizationMode="0" mediaItemType="2" />
    <MediaItem id="1781" filePath="C:\Users\owner\Dropbox\Work\png\animation T=1.01781.png" arWidth="640" arHeight="480" duration="0" songTitle="" songArtist="" songAlbum="" songCopyrightUrl="" songArtistUrl="" songAudioFileUrl="" stabilizationMode="0" mediaItemType="2" />
    <MediaItem id="1782" filePath="C:\Users\owner\Dropbox\Work\png\animation T=1.01782.png" arWidth="640" arHeight="480" duration="0" songTitle="" songArtist="" songAlbum="" songCopyrightUrl="" songArtistUrl="" songAudioFileUrl="" stabilizationMode="0" mediaItemType="2" />
    <MediaItem id="1783" filePath="C:\Users\owner\Dropbox\Work\png\animation T=1.01783.png" arWidth="640" arHeight="480" duration="0" songTitle="" songArtist="" songAlbum="" songCopyrightUrl="" songArtistUrl="" songAudioFileUrl="" stabilizationMode="0" mediaItemType="2" />
    <MediaItem id="1784" filePath="C:\Users\owner\Dropbox\Work\png\animation T=1.01784.png" arWidth="640" arHeight="480" duration="0" songTitle="" songArtist="" songAlbum="" songCopyrightUrl="" songArtistUrl="" songAudioFileUrl="" stabilizationMode="0" mediaItemType="2" />
    <MediaItem id="1785" filePath="C:\Users\owner\Dropbox\Work\png\animation T=1.01785.png" arWidth="640" arHeight="480" duration="0" songTitle="" songArtist="" songAlbum="" songCopyrightUrl="" songArtistUrl="" songAudioFileUrl="" stabilizationMode="0" mediaItemType="2" />
    <MediaItem id="1786" filePath="C:\Users\owner\Dropbox\Work\png\animation T=1.01786.png" arWidth="640" arHeight="480" duration="0" songTitle="" songArtist="" songAlbum="" songCopyrightUrl="" songArtistUrl="" songAudioFileUrl="" stabilizationMode="0" mediaItemType="2" />
    <MediaItem id="1787" filePath="C:\Users\owner\Dropbox\Work\png\animation T=1.01787.png" arWidth="640" arHeight="480" duration="0" songTitle="" songArtist="" songAlbum="" songCopyrightUrl="" songArtistUrl="" songAudioFileUrl="" stabilizationMode="0" mediaItemType="2" />
    <MediaItem id="1788" filePath="C:\Users\owner\Dropbox\Work\png\animation T=1.01788.png" arWidth="640" arHeight="480" duration="0" songTitle="" songArtist="" songAlbum="" songCopyrightUrl="" songArtistUrl="" songAudioFileUrl="" stabilizationMode="0" mediaItemType="2" />
    <MediaItem id="1789" filePath="C:\Users\owner\Dropbox\Work\png\animation T=1.01789.png" arWidth="640" arHeight="480" duration="0" songTitle="" songArtist="" songAlbum="" songCopyrightUrl="" songArtistUrl="" songAudioFileUrl="" stabilizationMode="0" mediaItemType="2" />
    <MediaItem id="1790" filePath="C:\Users\owner\Dropbox\Work\png\animation T=1.01790.png" arWidth="640" arHeight="480" duration="0" songTitle="" songArtist="" songAlbum="" songCopyrightUrl="" songArtistUrl="" songAudioFileUrl="" stabilizationMode="0" mediaItemType="2" />
    <MediaItem id="1791" filePath="C:\Users\owner\Dropbox\Work\png\animation T=1.01791.png" arWidth="640" arHeight="480" duration="0" songTitle="" songArtist="" songAlbum="" songCopyrightUrl="" songArtistUrl="" songAudioFileUrl="" stabilizationMode="0" mediaItemType="2" />
    <MediaItem id="1792" filePath="C:\Users\owner\Dropbox\Work\png\animation T=1.01792.png" arWidth="640" arHeight="480" duration="0" songTitle="" songArtist="" songAlbum="" songCopyrightUrl="" songArtistUrl="" songAudioFileUrl="" stabilizationMode="0" mediaItemType="2" />
    <MediaItem id="1793" filePath="C:\Users\owner\Dropbox\Work\png\animation T=1.01793.png" arWidth="640" arHeight="480" duration="0" songTitle="" songArtist="" songAlbum="" songCopyrightUrl="" songArtistUrl="" songAudioFileUrl="" stabilizationMode="0" mediaItemType="2" />
    <MediaItem id="1794" filePath="C:\Users\owner\Dropbox\Work\png\animation T=1.01794.png" arWidth="640" arHeight="480" duration="0" songTitle="" songArtist="" songAlbum="" songCopyrightUrl="" songArtistUrl="" songAudioFileUrl="" stabilizationMode="0" mediaItemType="2" />
    <MediaItem id="1795" filePath="C:\Users\owner\Dropbox\Work\png\animation T=1.01795.png" arWidth="640" arHeight="480" duration="0" songTitle="" songArtist="" songAlbum="" songCopyrightUrl="" songArtistUrl="" songAudioFileUrl="" stabilizationMode="0" mediaItemType="2" />
    <MediaItem id="1796" filePath="C:\Users\owner\Dropbox\Work\png\animation T=1.01796.png" arWidth="640" arHeight="480" duration="0" songTitle="" songArtist="" songAlbum="" songCopyrightUrl="" songArtistUrl="" songAudioFileUrl="" stabilizationMode="0" mediaItemType="2" />
    <MediaItem id="1797" filePath="C:\Users\owner\Dropbox\Work\png\animation T=1.01797.png" arWidth="640" arHeight="480" duration="0" songTitle="" songArtist="" songAlbum="" songCopyrightUrl="" songArtistUrl="" songAudioFileUrl="" stabilizationMode="0" mediaItemType="2" />
    <MediaItem id="1798" filePath="C:\Users\owner\Dropbox\Work\png\animation T=1.01798.png" arWidth="640" arHeight="480" duration="0" songTitle="" songArtist="" songAlbum="" songCopyrightUrl="" songArtistUrl="" songAudioFileUrl="" stabilizationMode="0" mediaItemType="2" />
    <MediaItem id="1799" filePath="C:\Users\owner\Dropbox\Work\png\animation T=1.01799.png" arWidth="640" arHeight="480" duration="0" songTitle="" songArtist="" songAlbum="" songCopyrightUrl="" songArtistUrl="" songAudioFileUrl="" stabilizationMode="0" mediaItemType="2" />
    <MediaItem id="1800" filePath="C:\Users\owner\Dropbox\Work\png\animation T=1.01800.png" arWidth="640" arHeight="480" duration="0" songTitle="" songArtist="" songAlbum="" songCopyrightUrl="" songArtistUrl="" songAudioFileUrl="" stabilizationMode="0" mediaItemType="2" />
    <MediaItem id="1801" filePath="C:\Users\owner\Dropbox\Work\png\animation T=1.01801.png" arWidth="640" arHeight="480" duration="0" songTitle="" songArtist="" songAlbum="" songCopyrightUrl="" songArtistUrl="" songAudioFileUrl="" stabilizationMode="0" mediaItemType="2" />
    <MediaItem id="1802" filePath="C:\Users\owner\Dropbox\Work\png\animation T=1.01802.png" arWidth="640" arHeight="480" duration="0" songTitle="" songArtist="" songAlbum="" songCopyrightUrl="" songArtistUrl="" songAudioFileUrl="" stabilizationMode="0" mediaItemType="2" />
    <MediaItem id="1803" filePath="C:\Users\owner\Dropbox\Work\png\animation T=1.01803.png" arWidth="640" arHeight="480" duration="0" songTitle="" songArtist="" songAlbum="" songCopyrightUrl="" songArtistUrl="" songAudioFileUrl="" stabilizationMode="0" mediaItemType="2" />
    <MediaItem id="1804" filePath="C:\Users\owner\Dropbox\Work\png\animation T=1.01804.png" arWidth="640" arHeight="480" duration="0" songTitle="" songArtist="" songAlbum="" songCopyrightUrl="" songArtistUrl="" songAudioFileUrl="" stabilizationMode="0" mediaItemType="2" />
    <MediaItem id="1805" filePath="C:\Users\owner\Dropbox\Work\png\animation T=1.01805.png" arWidth="640" arHeight="480" duration="0" songTitle="" songArtist="" songAlbum="" songCopyrightUrl="" songArtistUrl="" songAudioFileUrl="" stabilizationMode="0" mediaItemType="2" />
    <MediaItem id="1806" filePath="C:\Users\owner\Dropbox\Work\png\animation T=1.01806.png" arWidth="640" arHeight="480" duration="0" songTitle="" songArtist="" songAlbum="" songCopyrightUrl="" songArtistUrl="" songAudioFileUrl="" stabilizationMode="0" mediaItemType="2" />
    <MediaItem id="1807" filePath="C:\Users\owner\Dropbox\Work\png\animation T=1.01807.png" arWidth="640" arHeight="480" duration="0" songTitle="" songArtist="" songAlbum="" songCopyrightUrl="" songArtistUrl="" songAudioFileUrl="" stabilizationMode="0" mediaItemType="2" />
    <MediaItem id="1808" filePath="C:\Users\owner\Dropbox\Work\png\animation T=1.01808.png" arWidth="640" arHeight="480" duration="0" songTitle="" songArtist="" songAlbum="" songCopyrightUrl="" songArtistUrl="" songAudioFileUrl="" stabilizationMode="0" mediaItemType="2" />
    <MediaItem id="1809" filePath="C:\Users\owner\Dropbox\Work\png\animation T=1.01809.png" arWidth="640" arHeight="480" duration="0" songTitle="" songArtist="" songAlbum="" songCopyrightUrl="" songArtistUrl="" songAudioFileUrl="" stabilizationMode="0" mediaItemType="2" />
    <MediaItem id="1810" filePath="C:\Users\owner\Dropbox\Work\png\animation T=1.01810.png" arWidth="640" arHeight="480" duration="0" songTitle="" songArtist="" songAlbum="" songCopyrightUrl="" songArtistUrl="" songAudioFileUrl="" stabilizationMode="0" mediaItemType="2" />
    <MediaItem id="1811" filePath="C:\Users\owner\Dropbox\Work\png\animation T=1.01811.png" arWidth="640" arHeight="480" duration="0" songTitle="" songArtist="" songAlbum="" songCopyrightUrl="" songArtistUrl="" songAudioFileUrl="" stabilizationMode="0" mediaItemType="2" />
    <MediaItem id="1812" filePath="C:\Users\owner\Dropbox\Work\png\animation T=1.01812.png" arWidth="640" arHeight="480" duration="0" songTitle="" songArtist="" songAlbum="" songCopyrightUrl="" songArtistUrl="" songAudioFileUrl="" stabilizationMode="0" mediaItemType="2" />
    <MediaItem id="1813" filePath="C:\Users\owner\Dropbox\Work\png\animation T=1.01813.png" arWidth="640" arHeight="480" duration="0" songTitle="" songArtist="" songAlbum="" songCopyrightUrl="" songArtistUrl="" songAudioFileUrl="" stabilizationMode="0" mediaItemType="2" />
    <MediaItem id="1814" filePath="C:\Users\owner\Dropbox\Work\png\animation T=1.01814.png" arWidth="640" arHeight="480" duration="0" songTitle="" songArtist="" songAlbum="" songCopyrightUrl="" songArtistUrl="" songAudioFileUrl="" stabilizationMode="0" mediaItemType="2" />
    <MediaItem id="1815" filePath="C:\Users\owner\Dropbox\Work\png\animation T=1.01815.png" arWidth="640" arHeight="480" duration="0" songTitle="" songArtist="" songAlbum="" songCopyrightUrl="" songArtistUrl="" songAudioFileUrl="" stabilizationMode="0" mediaItemType="2" />
    <MediaItem id="1816" filePath="C:\Users\owner\Dropbox\Work\png\animation T=1.01816.png" arWidth="640" arHeight="480" duration="0" songTitle="" songArtist="" songAlbum="" songCopyrightUrl="" songArtistUrl="" songAudioFileUrl="" stabilizationMode="0" mediaItemType="2" />
    <MediaItem id="1817" filePath="C:\Users\owner\Dropbox\Work\png\animation T=1.01817.png" arWidth="640" arHeight="480" duration="0" songTitle="" songArtist="" songAlbum="" songCopyrightUrl="" songArtistUrl="" songAudioFileUrl="" stabilizationMode="0" mediaItemType="2" />
    <MediaItem id="1818" filePath="C:\Users\owner\Dropbox\Work\png\animation T=1.01818.png" arWidth="640" arHeight="480" duration="0" songTitle="" songArtist="" songAlbum="" songCopyrightUrl="" songArtistUrl="" songAudioFileUrl="" stabilizationMode="0" mediaItemType="2" />
    <MediaItem id="1819" filePath="C:\Users\owner\Dropbox\Work\png\animation T=1.01819.png" arWidth="640" arHeight="480" duration="0" songTitle="" songArtist="" songAlbum="" songCopyrightUrl="" songArtistUrl="" songAudioFileUrl="" stabilizationMode="0" mediaItemType="2" />
    <MediaItem id="1820" filePath="C:\Users\owner\Dropbox\Work\png\animation T=1.01820.png" arWidth="640" arHeight="480" duration="0" songTitle="" songArtist="" songAlbum="" songCopyrightUrl="" songArtistUrl="" songAudioFileUrl="" stabilizationMode="0" mediaItemType="2" />
    <MediaItem id="1821" filePath="C:\Users\owner\Dropbox\Work\png\animation T=1.01821.png" arWidth="640" arHeight="480" duration="0" songTitle="" songArtist="" songAlbum="" songCopyrightUrl="" songArtistUrl="" songAudioFileUrl="" stabilizationMode="0" mediaItemType="2" />
    <MediaItem id="1822" filePath="C:\Users\owner\Dropbox\Work\png\animation T=1.01822.png" arWidth="640" arHeight="480" duration="0" songTitle="" songArtist="" songAlbum="" songCopyrightUrl="" songArtistUrl="" songAudioFileUrl="" stabilizationMode="0" mediaItemType="2" />
    <MediaItem id="1823" filePath="C:\Users\owner\Dropbox\Work\png\animation T=1.01823.png" arWidth="640" arHeight="480" duration="0" songTitle="" songArtist="" songAlbum="" songCopyrightUrl="" songArtistUrl="" songAudioFileUrl="" stabilizationMode="0" mediaItemType="2" />
    <MediaItem id="1824" filePath="C:\Users\owner\Dropbox\Work\png\animation T=1.01824.png" arWidth="640" arHeight="480" duration="0" songTitle="" songArtist="" songAlbum="" songCopyrightUrl="" songArtistUrl="" songAudioFileUrl="" stabilizationMode="0" mediaItemType="2" />
    <MediaItem id="1825" filePath="C:\Users\owner\Dropbox\Work\png\animation T=1.01825.png" arWidth="640" arHeight="480" duration="0" songTitle="" songArtist="" songAlbum="" songCopyrightUrl="" songArtistUrl="" songAudioFileUrl="" stabilizationMode="0" mediaItemType="2" />
    <MediaItem id="1826" filePath="C:\Users\owner\Dropbox\Work\png\animation T=1.01826.png" arWidth="640" arHeight="480" duration="0" songTitle="" songArtist="" songAlbum="" songCopyrightUrl="" songArtistUrl="" songAudioFileUrl="" stabilizationMode="0" mediaItemType="2" />
    <MediaItem id="1827" filePath="C:\Users\owner\Dropbox\Work\png\animation T=1.01827.png" arWidth="640" arHeight="480" duration="0" songTitle="" songArtist="" songAlbum="" songCopyrightUrl="" songArtistUrl="" songAudioFileUrl="" stabilizationMode="0" mediaItemType="2" />
    <MediaItem id="1828" filePath="C:\Users\owner\Dropbox\Work\png\animation T=1.01828.png" arWidth="640" arHeight="480" duration="0" songTitle="" songArtist="" songAlbum="" songCopyrightUrl="" songArtistUrl="" songAudioFileUrl="" stabilizationMode="0" mediaItemType="2" />
    <MediaItem id="1829" filePath="C:\Users\owner\Dropbox\Work\png\animation T=1.01829.png" arWidth="640" arHeight="480" duration="0" songTitle="" songArtist="" songAlbum="" songCopyrightUrl="" songArtistUrl="" songAudioFileUrl="" stabilizationMode="0" mediaItemType="2" />
    <MediaItem id="1830" filePath="C:\Users\owner\Dropbox\Work\png\animation T=1.01830.png" arWidth="640" arHeight="480" duration="0" songTitle="" songArtist="" songAlbum="" songCopyrightUrl="" songArtistUrl="" songAudioFileUrl="" stabilizationMode="0" mediaItemType="2" />
    <MediaItem id="1831" filePath="C:\Users\owner\Dropbox\Work\png\animation T=1.01831.png" arWidth="640" arHeight="480" duration="0" songTitle="" songArtist="" songAlbum="" songCopyrightUrl="" songArtistUrl="" songAudioFileUrl="" stabilizationMode="0" mediaItemType="2" />
    <MediaItem id="1832" filePath="C:\Users\owner\Dropbox\Work\png\animation T=1.01832.png" arWidth="640" arHeight="480" duration="0" songTitle="" songArtist="" songAlbum="" songCopyrightUrl="" songArtistUrl="" songAudioFileUrl="" stabilizationMode="0" mediaItemType="2" />
    <MediaItem id="1833" filePath="C:\Users\owner\Dropbox\Work\png\animation T=1.01833.png" arWidth="640" arHeight="480" duration="0" songTitle="" songArtist="" songAlbum="" songCopyrightUrl="" songArtistUrl="" songAudioFileUrl="" stabilizationMode="0" mediaItemType="2" />
    <MediaItem id="1834" filePath="C:\Users\owner\Dropbox\Work\png\animation T=1.01834.png" arWidth="640" arHeight="480" duration="0" songTitle="" songArtist="" songAlbum="" songCopyrightUrl="" songArtistUrl="" songAudioFileUrl="" stabilizationMode="0" mediaItemType="2" />
    <MediaItem id="1835" filePath="C:\Users\owner\Dropbox\Work\png\animation T=1.01835.png" arWidth="640" arHeight="480" duration="0" songTitle="" songArtist="" songAlbum="" songCopyrightUrl="" songArtistUrl="" songAudioFileUrl="" stabilizationMode="0" mediaItemType="2" />
    <MediaItem id="1836" filePath="C:\Users\owner\Dropbox\Work\png\animation T=1.01836.png" arWidth="640" arHeight="480" duration="0" songTitle="" songArtist="" songAlbum="" songCopyrightUrl="" songArtistUrl="" songAudioFileUrl="" stabilizationMode="0" mediaItemType="2" />
    <MediaItem id="1837" filePath="C:\Users\owner\Dropbox\Work\png\animation T=1.01837.png" arWidth="640" arHeight="480" duration="0" songTitle="" songArtist="" songAlbum="" songCopyrightUrl="" songArtistUrl="" songAudioFileUrl="" stabilizationMode="0" mediaItemType="2" />
    <MediaItem id="1838" filePath="C:\Users\owner\Dropbox\Work\png\animation T=1.01838.png" arWidth="640" arHeight="480" duration="0" songTitle="" songArtist="" songAlbum="" songCopyrightUrl="" songArtistUrl="" songAudioFileUrl="" stabilizationMode="0" mediaItemType="2" />
    <MediaItem id="1839" filePath="C:\Users\owner\Dropbox\Work\png\animation T=1.01839.png" arWidth="640" arHeight="480" duration="0" songTitle="" songArtist="" songAlbum="" songCopyrightUrl="" songArtistUrl="" songAudioFileUrl="" stabilizationMode="0" mediaItemType="2" />
    <MediaItem id="1840" filePath="C:\Users\owner\Dropbox\Work\png\animation T=1.01840.png" arWidth="640" arHeight="480" duration="0" songTitle="" songArtist="" songAlbum="" songCopyrightUrl="" songArtistUrl="" songAudioFileUrl="" stabilizationMode="0" mediaItemType="2" />
    <MediaItem id="1841" filePath="C:\Users\owner\Dropbox\Work\png\animation T=1.01841.png" arWidth="640" arHeight="480" duration="0" songTitle="" songArtist="" songAlbum="" songCopyrightUrl="" songArtistUrl="" songAudioFileUrl="" stabilizationMode="0" mediaItemType="2" />
    <MediaItem id="1842" filePath="C:\Users\owner\Dropbox\Work\png\animation T=1.01842.png" arWidth="640" arHeight="480" duration="0" songTitle="" songArtist="" songAlbum="" songCopyrightUrl="" songArtistUrl="" songAudioFileUrl="" stabilizationMode="0" mediaItemType="2" />
    <MediaItem id="1843" filePath="C:\Users\owner\Dropbox\Work\png\animation T=1.01843.png" arWidth="640" arHeight="480" duration="0" songTitle="" songArtist="" songAlbum="" songCopyrightUrl="" songArtistUrl="" songAudioFileUrl="" stabilizationMode="0" mediaItemType="2" />
    <MediaItem id="1844" filePath="C:\Users\owner\Dropbox\Work\png\animation T=1.01844.png" arWidth="640" arHeight="480" duration="0" songTitle="" songArtist="" songAlbum="" songCopyrightUrl="" songArtistUrl="" songAudioFileUrl="" stabilizationMode="0" mediaItemType="2" />
    <MediaItem id="1845" filePath="C:\Users\owner\Dropbox\Work\png\animation T=1.01845.png" arWidth="640" arHeight="480" duration="0" songTitle="" songArtist="" songAlbum="" songCopyrightUrl="" songArtistUrl="" songAudioFileUrl="" stabilizationMode="0" mediaItemType="2" />
    <MediaItem id="1846" filePath="C:\Users\owner\Dropbox\Work\png\animation T=1.01846.png" arWidth="640" arHeight="480" duration="0" songTitle="" songArtist="" songAlbum="" songCopyrightUrl="" songArtistUrl="" songAudioFileUrl="" stabilizationMode="0" mediaItemType="2" />
    <MediaItem id="1847" filePath="C:\Users\owner\Dropbox\Work\png\animation T=1.01847.png" arWidth="640" arHeight="480" duration="0" songTitle="" songArtist="" songAlbum="" songCopyrightUrl="" songArtistUrl="" songAudioFileUrl="" stabilizationMode="0" mediaItemType="2" />
    <MediaItem id="1848" filePath="C:\Users\owner\Dropbox\Work\png\animation T=1.01848.png" arWidth="640" arHeight="480" duration="0" songTitle="" songArtist="" songAlbum="" songCopyrightUrl="" songArtistUrl="" songAudioFileUrl="" stabilizationMode="0" mediaItemType="2" />
    <MediaItem id="1849" filePath="C:\Users\owner\Dropbox\Work\png\animation T=1.01849.png" arWidth="640" arHeight="480" duration="0" songTitle="" songArtist="" songAlbum="" songCopyrightUrl="" songArtistUrl="" songAudioFileUrl="" stabilizationMode="0" mediaItemType="2" />
    <MediaItem id="1850" filePath="C:\Users\owner\Dropbox\Work\png\animation T=1.01850.png" arWidth="640" arHeight="480" duration="0" songTitle="" songArtist="" songAlbum="" songCopyrightUrl="" songArtistUrl="" songAudioFileUrl="" stabilizationMode="0" mediaItemType="2" />
    <MediaItem id="1851" filePath="C:\Users\owner\Dropbox\Work\png\animation T=1.01851.png" arWidth="640" arHeight="480" duration="0" songTitle="" songArtist="" songAlbum="" songCopyrightUrl="" songArtistUrl="" songAudioFileUrl="" stabilizationMode="0" mediaItemType="2" />
    <MediaItem id="1852" filePath="C:\Users\owner\Dropbox\Work\png\animation T=1.01852.png" arWidth="640" arHeight="480" duration="0" songTitle="" songArtist="" songAlbum="" songCopyrightUrl="" songArtistUrl="" songAudioFileUrl="" stabilizationMode="0" mediaItemType="2" />
    <MediaItem id="1853" filePath="C:\Users\owner\Dropbox\Work\png\animation T=1.01853.png" arWidth="640" arHeight="480" duration="0" songTitle="" songArtist="" songAlbum="" songCopyrightUrl="" songArtistUrl="" songAudioFileUrl="" stabilizationMode="0" mediaItemType="2" />
    <MediaItem id="1854" filePath="C:\Users\owner\Dropbox\Work\png\animation T=1.01854.png" arWidth="640" arHeight="480" duration="0" songTitle="" songArtist="" songAlbum="" songCopyrightUrl="" songArtistUrl="" songAudioFileUrl="" stabilizationMode="0" mediaItemType="2" />
    <MediaItem id="1855" filePath="C:\Users\owner\Dropbox\Work\png\animation T=1.01855.png" arWidth="640" arHeight="480" duration="0" songTitle="" songArtist="" songAlbum="" songCopyrightUrl="" songArtistUrl="" songAudioFileUrl="" stabilizationMode="0" mediaItemType="2" />
    <MediaItem id="1856" filePath="C:\Users\owner\Dropbox\Work\png\animation T=1.01856.png" arWidth="640" arHeight="480" duration="0" songTitle="" songArtist="" songAlbum="" songCopyrightUrl="" songArtistUrl="" songAudioFileUrl="" stabilizationMode="0" mediaItemType="2" />
    <MediaItem id="1857" filePath="C:\Users\owner\Dropbox\Work\png\animation T=1.01857.png" arWidth="640" arHeight="480" duration="0" songTitle="" songArtist="" songAlbum="" songCopyrightUrl="" songArtistUrl="" songAudioFileUrl="" stabilizationMode="0" mediaItemType="2" />
    <MediaItem id="1858" filePath="C:\Users\owner\Dropbox\Work\png\animation T=1.01858.png" arWidth="640" arHeight="480" duration="0" songTitle="" songArtist="" songAlbum="" songCopyrightUrl="" songArtistUrl="" songAudioFileUrl="" stabilizationMode="0" mediaItemType="2" />
    <MediaItem id="1859" filePath="C:\Users\owner\Dropbox\Work\png\animation T=1.01859.png" arWidth="640" arHeight="480" duration="0" songTitle="" songArtist="" songAlbum="" songCopyrightUrl="" songArtistUrl="" songAudioFileUrl="" stabilizationMode="0" mediaItemType="2" />
    <MediaItem id="1860" filePath="C:\Users\owner\Dropbox\Work\png\animation T=1.01860.png" arWidth="640" arHeight="480" duration="0" songTitle="" songArtist="" songAlbum="" songCopyrightUrl="" songArtistUrl="" songAudioFileUrl="" stabilizationMode="0" mediaItemType="2" />
    <MediaItem id="1861" filePath="C:\Users\owner\Dropbox\Work\png\animation T=1.01861.png" arWidth="640" arHeight="480" duration="0" songTitle="" songArtist="" songAlbum="" songCopyrightUrl="" songArtistUrl="" songAudioFileUrl="" stabilizationMode="0" mediaItemType="2" />
    <MediaItem id="1862" filePath="C:\Users\owner\Dropbox\Work\png\animation T=1.01862.png" arWidth="640" arHeight="480" duration="0" songTitle="" songArtist="" songAlbum="" songCopyrightUrl="" songArtistUrl="" songAudioFileUrl="" stabilizationMode="0" mediaItemType="2" />
    <MediaItem id="1863" filePath="C:\Users\owner\Dropbox\Work\png\animation T=1.01863.png" arWidth="640" arHeight="480" duration="0" songTitle="" songArtist="" songAlbum="" songCopyrightUrl="" songArtistUrl="" songAudioFileUrl="" stabilizationMode="0" mediaItemType="2" />
    <MediaItem id="1864" filePath="C:\Users\owner\Dropbox\Work\png\animation T=1.01864.png" arWidth="640" arHeight="480" duration="0" songTitle="" songArtist="" songAlbum="" songCopyrightUrl="" songArtistUrl="" songAudioFileUrl="" stabilizationMode="0" mediaItemType="2" />
    <MediaItem id="1865" filePath="C:\Users\owner\Dropbox\Work\png\animation T=1.01865.png" arWidth="640" arHeight="480" duration="0" songTitle="" songArtist="" songAlbum="" songCopyrightUrl="" songArtistUrl="" songAudioFileUrl="" stabilizationMode="0" mediaItemType="2" />
    <MediaItem id="1866" filePath="C:\Users\owner\Dropbox\Work\png\animation T=1.01866.png" arWidth="640" arHeight="480" duration="0" songTitle="" songArtist="" songAlbum="" songCopyrightUrl="" songArtistUrl="" songAudioFileUrl="" stabilizationMode="0" mediaItemType="2" />
    <MediaItem id="1867" filePath="C:\Users\owner\Dropbox\Work\png\animation T=1.01867.png" arWidth="640" arHeight="480" duration="0" songTitle="" songArtist="" songAlbum="" songCopyrightUrl="" songArtistUrl="" songAudioFileUrl="" stabilizationMode="0" mediaItemType="2" />
    <MediaItem id="1868" filePath="C:\Users\owner\Dropbox\Work\png\animation T=1.01868.png" arWidth="640" arHeight="480" duration="0" songTitle="" songArtist="" songAlbum="" songCopyrightUrl="" songArtistUrl="" songAudioFileUrl="" stabilizationMode="0" mediaItemType="2" />
    <MediaItem id="1869" filePath="C:\Users\owner\Dropbox\Work\png\animation T=1.01869.png" arWidth="640" arHeight="480" duration="0" songTitle="" songArtist="" songAlbum="" songCopyrightUrl="" songArtistUrl="" songAudioFileUrl="" stabilizationMode="0" mediaItemType="2" />
    <MediaItem id="1870" filePath="C:\Users\owner\Dropbox\Work\png\animation T=1.01870.png" arWidth="640" arHeight="480" duration="0" songTitle="" songArtist="" songAlbum="" songCopyrightUrl="" songArtistUrl="" songAudioFileUrl="" stabilizationMode="0" mediaItemType="2" />
    <MediaItem id="1871" filePath="C:\Users\owner\Dropbox\Work\png\animation T=1.01871.png" arWidth="640" arHeight="480" duration="0" songTitle="" songArtist="" songAlbum="" songCopyrightUrl="" songArtistUrl="" songAudioFileUrl="" stabilizationMode="0" mediaItemType="2" />
    <MediaItem id="1872" filePath="C:\Users\owner\Dropbox\Work\png\animation T=1.01872.png" arWidth="640" arHeight="480" duration="0" songTitle="" songArtist="" songAlbum="" songCopyrightUrl="" songArtistUrl="" songAudioFileUrl="" stabilizationMode="0" mediaItemType="2" />
    <MediaItem id="1873" filePath="C:\Users\owner\Dropbox\Work\png\animation T=1.01873.png" arWidth="640" arHeight="480" duration="0" songTitle="" songArtist="" songAlbum="" songCopyrightUrl="" songArtistUrl="" songAudioFileUrl="" stabilizationMode="0" mediaItemType="2" />
    <MediaItem id="1874" filePath="C:\Users\owner\Dropbox\Work\png\animation T=1.01874.png" arWidth="640" arHeight="480" duration="0" songTitle="" songArtist="" songAlbum="" songCopyrightUrl="" songArtistUrl="" songAudioFileUrl="" stabilizationMode="0" mediaItemType="2" />
    <MediaItem id="1875" filePath="C:\Users\owner\Dropbox\Work\png\animation T=1.01875.png" arWidth="640" arHeight="480" duration="0" songTitle="" songArtist="" songAlbum="" songCopyrightUrl="" songArtistUrl="" songAudioFileUrl="" stabilizationMode="0" mediaItemType="2" />
    <MediaItem id="1876" filePath="C:\Users\owner\Dropbox\Work\png\animation T=1.01876.png" arWidth="640" arHeight="480" duration="0" songTitle="" songArtist="" songAlbum="" songCopyrightUrl="" songArtistUrl="" songAudioFileUrl="" stabilizationMode="0" mediaItemType="2" />
    <MediaItem id="1877" filePath="C:\Users\owner\Dropbox\Work\png\animation T=1.01877.png" arWidth="640" arHeight="480" duration="0" songTitle="" songArtist="" songAlbum="" songCopyrightUrl="" songArtistUrl="" songAudioFileUrl="" stabilizationMode="0" mediaItemType="2" />
    <MediaItem id="1878" filePath="C:\Users\owner\Dropbox\Work\png\animation T=1.01878.png" arWidth="640" arHeight="480" duration="0" songTitle="" songArtist="" songAlbum="" songCopyrightUrl="" songArtistUrl="" songAudioFileUrl="" stabilizationMode="0" mediaItemType="2" />
    <MediaItem id="1879" filePath="C:\Users\owner\Dropbox\Work\png\animation T=1.01879.png" arWidth="640" arHeight="480" duration="0" songTitle="" songArtist="" songAlbum="" songCopyrightUrl="" songArtistUrl="" songAudioFileUrl="" stabilizationMode="0" mediaItemType="2" />
    <MediaItem id="1880" filePath="C:\Users\owner\Dropbox\Work\png\animation T=1.01880.png" arWidth="640" arHeight="480" duration="0" songTitle="" songArtist="" songAlbum="" songCopyrightUrl="" songArtistUrl="" songAudioFileUrl="" stabilizationMode="0" mediaItemType="2" />
    <MediaItem id="1881" filePath="C:\Users\owner\Dropbox\Work\png\animation T=1.01881.png" arWidth="640" arHeight="480" duration="0" songTitle="" songArtist="" songAlbum="" songCopyrightUrl="" songArtistUrl="" songAudioFileUrl="" stabilizationMode="0" mediaItemType="2" />
    <MediaItem id="1882" filePath="C:\Users\owner\Dropbox\Work\png\animation T=1.01882.png" arWidth="640" arHeight="480" duration="0" songTitle="" songArtist="" songAlbum="" songCopyrightUrl="" songArtistUrl="" songAudioFileUrl="" stabilizationMode="0" mediaItemType="2" />
    <MediaItem id="1883" filePath="C:\Users\owner\Dropbox\Work\png\animation T=1.01883.png" arWidth="640" arHeight="480" duration="0" songTitle="" songArtist="" songAlbum="" songCopyrightUrl="" songArtistUrl="" songAudioFileUrl="" stabilizationMode="0" mediaItemType="2" />
    <MediaItem id="1884" filePath="C:\Users\owner\Dropbox\Work\png\animation T=1.01884.png" arWidth="640" arHeight="480" duration="0" songTitle="" songArtist="" songAlbum="" songCopyrightUrl="" songArtistUrl="" songAudioFileUrl="" stabilizationMode="0" mediaItemType="2" />
    <MediaItem id="1885" filePath="C:\Users\owner\Dropbox\Work\png\animation T=1.01885.png" arWidth="640" arHeight="480" duration="0" songTitle="" songArtist="" songAlbum="" songCopyrightUrl="" songArtistUrl="" songAudioFileUrl="" stabilizationMode="0" mediaItemType="2" />
    <MediaItem id="1886" filePath="C:\Users\owner\Dropbox\Work\png\animation T=1.01886.png" arWidth="640" arHeight="480" duration="0" songTitle="" songArtist="" songAlbum="" songCopyrightUrl="" songArtistUrl="" songAudioFileUrl="" stabilizationMode="0" mediaItemType="2" />
    <MediaItem id="1887" filePath="C:\Users\owner\Dropbox\Work\png\animation T=1.01887.png" arWidth="640" arHeight="480" duration="0" songTitle="" songArtist="" songAlbum="" songCopyrightUrl="" songArtistUrl="" songAudioFileUrl="" stabilizationMode="0" mediaItemType="2" />
    <MediaItem id="1888" filePath="C:\Users\owner\Dropbox\Work\png\animation T=1.01888.png" arWidth="640" arHeight="480" duration="0" songTitle="" songArtist="" songAlbum="" songCopyrightUrl="" songArtistUrl="" songAudioFileUrl="" stabilizationMode="0" mediaItemType="2" />
    <MediaItem id="1889" filePath="C:\Users\owner\Dropbox\Work\png\animation T=1.01889.png" arWidth="640" arHeight="480" duration="0" songTitle="" songArtist="" songAlbum="" songCopyrightUrl="" songArtistUrl="" songAudioFileUrl="" stabilizationMode="0" mediaItemType="2" />
    <MediaItem id="1890" filePath="C:\Users\owner\Dropbox\Work\png\animation T=1.01890.png" arWidth="640" arHeight="480" duration="0" songTitle="" songArtist="" songAlbum="" songCopyrightUrl="" songArtistUrl="" songAudioFileUrl="" stabilizationMode="0" mediaItemType="2" />
    <MediaItem id="1891" filePath="C:\Users\owner\Dropbox\Work\png\animation T=1.01891.png" arWidth="640" arHeight="480" duration="0" songTitle="" songArtist="" songAlbum="" songCopyrightUrl="" songArtistUrl="" songAudioFileUrl="" stabilizationMode="0" mediaItemType="2" />
    <MediaItem id="1892" filePath="C:\Users\owner\Dropbox\Work\png\animation T=1.01892.png" arWidth="640" arHeight="480" duration="0" songTitle="" songArtist="" songAlbum="" songCopyrightUrl="" songArtistUrl="" songAudioFileUrl="" stabilizationMode="0" mediaItemType="2" />
    <MediaItem id="1893" filePath="C:\Users\owner\Dropbox\Work\png\animation T=1.01893.png" arWidth="640" arHeight="480" duration="0" songTitle="" songArtist="" songAlbum="" songCopyrightUrl="" songArtistUrl="" songAudioFileUrl="" stabilizationMode="0" mediaItemType="2" />
    <MediaItem id="1894" filePath="C:\Users\owner\Dropbox\Work\png\animation T=1.01894.png" arWidth="640" arHeight="480" duration="0" songTitle="" songArtist="" songAlbum="" songCopyrightUrl="" songArtistUrl="" songAudioFileUrl="" stabilizationMode="0" mediaItemType="2" />
    <MediaItem id="1895" filePath="C:\Users\owner\Dropbox\Work\png\animation T=1.01895.png" arWidth="640" arHeight="480" duration="0" songTitle="" songArtist="" songAlbum="" songCopyrightUrl="" songArtistUrl="" songAudioFileUrl="" stabilizationMode="0" mediaItemType="2" />
    <MediaItem id="1896" filePath="C:\Users\owner\Dropbox\Work\png\animation T=1.01896.png" arWidth="640" arHeight="480" duration="0" songTitle="" songArtist="" songAlbum="" songCopyrightUrl="" songArtistUrl="" songAudioFileUrl="" stabilizationMode="0" mediaItemType="2" />
    <MediaItem id="1897" filePath="C:\Users\owner\Dropbox\Work\png\animation T=1.01897.png" arWidth="640" arHeight="480" duration="0" songTitle="" songArtist="" songAlbum="" songCopyrightUrl="" songArtistUrl="" songAudioFileUrl="" stabilizationMode="0" mediaItemType="2" />
    <MediaItem id="1898" filePath="C:\Users\owner\Dropbox\Work\png\animation T=1.01898.png" arWidth="640" arHeight="480" duration="0" songTitle="" songArtist="" songAlbum="" songCopyrightUrl="" songArtistUrl="" songAudioFileUrl="" stabilizationMode="0" mediaItemType="2" />
    <MediaItem id="1899" filePath="C:\Users\owner\Dropbox\Work\png\animation T=1.01899.png" arWidth="640" arHeight="480" duration="0" songTitle="" songArtist="" songAlbum="" songCopyrightUrl="" songArtistUrl="" songAudioFileUrl="" stabilizationMode="0" mediaItemType="2" />
    <MediaItem id="1900" filePath="C:\Users\owner\Dropbox\Work\png\animation T=1.01900.png" arWidth="640" arHeight="480" duration="0" songTitle="" songArtist="" songAlbum="" songCopyrightUrl="" songArtistUrl="" songAudioFileUrl="" stabilizationMode="0" mediaItemType="2" />
    <MediaItem id="1901" filePath="C:\Users\owner\Dropbox\Work\png\animation T=1.01901.png" arWidth="640" arHeight="480" duration="0" songTitle="" songArtist="" songAlbum="" songCopyrightUrl="" songArtistUrl="" songAudioFileUrl="" stabilizationMode="0" mediaItemType="2" />
    <MediaItem id="1902" filePath="C:\Users\owner\Dropbox\Work\png\animation T=1.01902.png" arWidth="640" arHeight="480" duration="0" songTitle="" songArtist="" songAlbum="" songCopyrightUrl="" songArtistUrl="" songAudioFileUrl="" stabilizationMode="0" mediaItemType="2" />
    <MediaItem id="1903" filePath="C:\Users\owner\Dropbox\Work\png\animation T=1.01903.png" arWidth="640" arHeight="480" duration="0" songTitle="" songArtist="" songAlbum="" songCopyrightUrl="" songArtistUrl="" songAudioFileUrl="" stabilizationMode="0" mediaItemType="2" />
    <MediaItem id="1904" filePath="C:\Users\owner\Dropbox\Work\png\animation T=1.01904.png" arWidth="640" arHeight="480" duration="0" songTitle="" songArtist="" songAlbum="" songCopyrightUrl="" songArtistUrl="" songAudioFileUrl="" stabilizationMode="0" mediaItemType="2" />
    <MediaItem id="1905" filePath="C:\Users\owner\Dropbox\Work\png\animation T=1.01905.png" arWidth="640" arHeight="480" duration="0" songTitle="" songArtist="" songAlbum="" songCopyrightUrl="" songArtistUrl="" songAudioFileUrl="" stabilizationMode="0" mediaItemType="2" />
    <MediaItem id="1906" filePath="C:\Users\owner\Dropbox\Work\png\animation T=1.01906.png" arWidth="640" arHeight="480" duration="0" songTitle="" songArtist="" songAlbum="" songCopyrightUrl="" songArtistUrl="" songAudioFileUrl="" stabilizationMode="0" mediaItemType="2" />
    <MediaItem id="1907" filePath="C:\Users\owner\Dropbox\Work\png\animation T=1.01907.png" arWidth="640" arHeight="480" duration="0" songTitle="" songArtist="" songAlbum="" songCopyrightUrl="" songArtistUrl="" songAudioFileUrl="" stabilizationMode="0" mediaItemType="2" />
    <MediaItem id="1908" filePath="C:\Users\owner\Dropbox\Work\png\animation T=1.01908.png" arWidth="640" arHeight="480" duration="0" songTitle="" songArtist="" songAlbum="" songCopyrightUrl="" songArtistUrl="" songAudioFileUrl="" stabilizationMode="0" mediaItemType="2" />
    <MediaItem id="1909" filePath="C:\Users\owner\Dropbox\Work\png\animation T=1.01909.png" arWidth="640" arHeight="480" duration="0" songTitle="" songArtist="" songAlbum="" songCopyrightUrl="" songArtistUrl="" songAudioFileUrl="" stabilizationMode="0" mediaItemType="2" />
    <MediaItem id="1910" filePath="C:\Users\owner\Dropbox\Work\png\animation T=1.01910.png" arWidth="640" arHeight="480" duration="0" songTitle="" songArtist="" songAlbum="" songCopyrightUrl="" songArtistUrl="" songAudioFileUrl="" stabilizationMode="0" mediaItemType="2" />
    <MediaItem id="1911" filePath="C:\Users\owner\Dropbox\Work\png\animation T=1.01911.png" arWidth="640" arHeight="480" duration="0" songTitle="" songArtist="" songAlbum="" songCopyrightUrl="" songArtistUrl="" songAudioFileUrl="" stabilizationMode="0" mediaItemType="2" />
    <MediaItem id="1912" filePath="C:\Users\owner\Dropbox\Work\png\animation T=1.01912.png" arWidth="640" arHeight="480" duration="0" songTitle="" songArtist="" songAlbum="" songCopyrightUrl="" songArtistUrl="" songAudioFileUrl="" stabilizationMode="0" mediaItemType="2" />
    <MediaItem id="1913" filePath="C:\Users\owner\Dropbox\Work\png\animation T=1.01913.png" arWidth="640" arHeight="480" duration="0" songTitle="" songArtist="" songAlbum="" songCopyrightUrl="" songArtistUrl="" songAudioFileUrl="" stabilizationMode="0" mediaItemType="2" />
    <MediaItem id="1914" filePath="C:\Users\owner\Dropbox\Work\png\animation T=1.01914.png" arWidth="640" arHeight="480" duration="0" songTitle="" songArtist="" songAlbum="" songCopyrightUrl="" songArtistUrl="" songAudioFileUrl="" stabilizationMode="0" mediaItemType="2" />
    <MediaItem id="1915" filePath="C:\Users\owner\Dropbox\Work\png\animation T=1.01915.png" arWidth="640" arHeight="480" duration="0" songTitle="" songArtist="" songAlbum="" songCopyrightUrl="" songArtistUrl="" songAudioFileUrl="" stabilizationMode="0" mediaItemType="2" />
    <MediaItem id="1916" filePath="C:\Users\owner\Dropbox\Work\png\animation T=1.01916.png" arWidth="640" arHeight="480" duration="0" songTitle="" songArtist="" songAlbum="" songCopyrightUrl="" songArtistUrl="" songAudioFileUrl="" stabilizationMode="0" mediaItemType="2" />
    <MediaItem id="1917" filePath="C:\Users\owner\Dropbox\Work\png\animation T=1.01917.png" arWidth="640" arHeight="480" duration="0" songTitle="" songArtist="" songAlbum="" songCopyrightUrl="" songArtistUrl="" songAudioFileUrl="" stabilizationMode="0" mediaItemType="2" />
    <MediaItem id="1918" filePath="C:\Users\owner\Dropbox\Work\png\animation T=1.01918.png" arWidth="640" arHeight="480" duration="0" songTitle="" songArtist="" songAlbum="" songCopyrightUrl="" songArtistUrl="" songAudioFileUrl="" stabilizationMode="0" mediaItemType="2" />
    <MediaItem id="1919" filePath="C:\Users\owner\Dropbox\Work\png\animation T=1.01919.png" arWidth="640" arHeight="480" duration="0" songTitle="" songArtist="" songAlbum="" songCopyrightUrl="" songArtistUrl="" songAudioFileUrl="" stabilizationMode="0" mediaItemType="2" />
    <MediaItem id="1920" filePath="C:\Users\owner\Dropbox\Work\png\animation T=1.01920.png" arWidth="640" arHeight="480" duration="0" songTitle="" songArtist="" songAlbum="" songCopyrightUrl="" songArtistUrl="" songAudioFileUrl="" stabilizationMode="0" mediaItemType="2" />
    <MediaItem id="1921" filePath="C:\Users\owner\Dropbox\Work\png\animation T=1.01921.png" arWidth="640" arHeight="480" duration="0" songTitle="" songArtist="" songAlbum="" songCopyrightUrl="" songArtistUrl="" songAudioFileUrl="" stabilizationMode="0" mediaItemType="2" />
    <MediaItem id="1922" filePath="C:\Users\owner\Dropbox\Work\png\animation T=1.01922.png" arWidth="640" arHeight="480" duration="0" songTitle="" songArtist="" songAlbum="" songCopyrightUrl="" songArtistUrl="" songAudioFileUrl="" stabilizationMode="0" mediaItemType="2" />
    <MediaItem id="1923" filePath="C:\Users\owner\Dropbox\Work\png\animation T=1.01923.png" arWidth="640" arHeight="480" duration="0" songTitle="" songArtist="" songAlbum="" songCopyrightUrl="" songArtistUrl="" songAudioFileUrl="" stabilizationMode="0" mediaItemType="2" />
    <MediaItem id="1924" filePath="C:\Users\owner\Dropbox\Work\png\animation T=1.01924.png" arWidth="640" arHeight="480" duration="0" songTitle="" songArtist="" songAlbum="" songCopyrightUrl="" songArtistUrl="" songAudioFileUrl="" stabilizationMode="0" mediaItemType="2" />
    <MediaItem id="1925" filePath="C:\Users\owner\Dropbox\Work\png\animation T=1.01925.png" arWidth="640" arHeight="480" duration="0" songTitle="" songArtist="" songAlbum="" songCopyrightUrl="" songArtistUrl="" songAudioFileUrl="" stabilizationMode="0" mediaItemType="2" />
    <MediaItem id="1926" filePath="C:\Users\owner\Dropbox\Work\png\animation T=1.01926.png" arWidth="640" arHeight="480" duration="0" songTitle="" songArtist="" songAlbum="" songCopyrightUrl="" songArtistUrl="" songAudioFileUrl="" stabilizationMode="0" mediaItemType="2" />
    <MediaItem id="1927" filePath="C:\Users\owner\Dropbox\Work\png\animation T=1.01927.png" arWidth="640" arHeight="480" duration="0" songTitle="" songArtist="" songAlbum="" songCopyrightUrl="" songArtistUrl="" songAudioFileUrl="" stabilizationMode="0" mediaItemType="2" />
    <MediaItem id="1928" filePath="C:\Users\owner\Dropbox\Work\png\animation T=1.01928.png" arWidth="640" arHeight="480" duration="0" songTitle="" songArtist="" songAlbum="" songCopyrightUrl="" songArtistUrl="" songAudioFileUrl="" stabilizationMode="0" mediaItemType="2" />
    <MediaItem id="1929" filePath="C:\Users\owner\Dropbox\Work\png\animation T=1.01929.png" arWidth="640" arHeight="480" duration="0" songTitle="" songArtist="" songAlbum="" songCopyrightUrl="" songArtistUrl="" songAudioFileUrl="" stabilizationMode="0" mediaItemType="2" />
    <MediaItem id="1930" filePath="C:\Users\owner\Dropbox\Work\png\animation T=1.01930.png" arWidth="640" arHeight="480" duration="0" songTitle="" songArtist="" songAlbum="" songCopyrightUrl="" songArtistUrl="" songAudioFileUrl="" stabilizationMode="0" mediaItemType="2" />
    <MediaItem id="1931" filePath="C:\Users\owner\Dropbox\Work\png\animation T=1.01931.png" arWidth="640" arHeight="480" duration="0" songTitle="" songArtist="" songAlbum="" songCopyrightUrl="" songArtistUrl="" songAudioFileUrl="" stabilizationMode="0" mediaItemType="2" />
    <MediaItem id="1932" filePath="C:\Users\owner\Dropbox\Work\png\animation T=1.01932.png" arWidth="640" arHeight="480" duration="0" songTitle="" songArtist="" songAlbum="" songCopyrightUrl="" songArtistUrl="" songAudioFileUrl="" stabilizationMode="0" mediaItemType="2" />
    <MediaItem id="1933" filePath="C:\Users\owner\Dropbox\Work\png\animation T=1.01933.png" arWidth="640" arHeight="480" duration="0" songTitle="" songArtist="" songAlbum="" songCopyrightUrl="" songArtistUrl="" songAudioFileUrl="" stabilizationMode="0" mediaItemType="2" />
    <MediaItem id="1934" filePath="C:\Users\owner\Dropbox\Work\png\animation T=1.01934.png" arWidth="640" arHeight="480" duration="0" songTitle="" songArtist="" songAlbum="" songCopyrightUrl="" songArtistUrl="" songAudioFileUrl="" stabilizationMode="0" mediaItemType="2" />
    <MediaItem id="1935" filePath="C:\Users\owner\Dropbox\Work\png\animation T=1.01935.png" arWidth="640" arHeight="480" duration="0" songTitle="" songArtist="" songAlbum="" songCopyrightUrl="" songArtistUrl="" songAudioFileUrl="" stabilizationMode="0" mediaItemType="2" />
    <MediaItem id="1936" filePath="C:\Users\owner\Dropbox\Work\png\animation T=1.01936.png" arWidth="640" arHeight="480" duration="0" songTitle="" songArtist="" songAlbum="" songCopyrightUrl="" songArtistUrl="" songAudioFileUrl="" stabilizationMode="0" mediaItemType="2" />
    <MediaItem id="1937" filePath="C:\Users\owner\Dropbox\Work\png\animation T=1.01937.png" arWidth="640" arHeight="480" duration="0" songTitle="" songArtist="" songAlbum="" songCopyrightUrl="" songArtistUrl="" songAudioFileUrl="" stabilizationMode="0" mediaItemType="2" />
    <MediaItem id="1938" filePath="C:\Users\owner\Dropbox\Work\png\animation T=1.01938.png" arWidth="640" arHeight="480" duration="0" songTitle="" songArtist="" songAlbum="" songCopyrightUrl="" songArtistUrl="" songAudioFileUrl="" stabilizationMode="0" mediaItemType="2" />
    <MediaItem id="1939" filePath="C:\Users\owner\Dropbox\Work\png\animation T=1.01939.png" arWidth="640" arHeight="480" duration="0" songTitle="" songArtist="" songAlbum="" songCopyrightUrl="" songArtistUrl="" songAudioFileUrl="" stabilizationMode="0" mediaItemType="2" />
    <MediaItem id="1940" filePath="C:\Users\owner\Dropbox\Work\png\animation T=1.01940.png" arWidth="640" arHeight="480" duration="0" songTitle="" songArtist="" songAlbum="" songCopyrightUrl="" songArtistUrl="" songAudioFileUrl="" stabilizationMode="0" mediaItemType="2" />
    <MediaItem id="1941" filePath="C:\Users\owner\Dropbox\Work\png\animation T=1.01941.png" arWidth="640" arHeight="480" duration="0" songTitle="" songArtist="" songAlbum="" songCopyrightUrl="" songArtistUrl="" songAudioFileUrl="" stabilizationMode="0" mediaItemType="2" />
    <MediaItem id="1942" filePath="C:\Users\owner\Dropbox\Work\png\animation T=1.01942.png" arWidth="640" arHeight="480" duration="0" songTitle="" songArtist="" songAlbum="" songCopyrightUrl="" songArtistUrl="" songAudioFileUrl="" stabilizationMode="0" mediaItemType="2" />
    <MediaItem id="1943" filePath="C:\Users\owner\Dropbox\Work\png\animation T=1.01943.png" arWidth="640" arHeight="480" duration="0" songTitle="" songArtist="" songAlbum="" songCopyrightUrl="" songArtistUrl="" songAudioFileUrl="" stabilizationMode="0" mediaItemType="2" />
    <MediaItem id="1944" filePath="C:\Users\owner\Dropbox\Work\png\animation T=1.01944.png" arWidth="640" arHeight="480" duration="0" songTitle="" songArtist="" songAlbum="" songCopyrightUrl="" songArtistUrl="" songAudioFileUrl="" stabilizationMode="0" mediaItemType="2" />
    <MediaItem id="1945" filePath="C:\Users\owner\Dropbox\Work\png\animation T=1.01945.png" arWidth="640" arHeight="480" duration="0" songTitle="" songArtist="" songAlbum="" songCopyrightUrl="" songArtistUrl="" songAudioFileUrl="" stabilizationMode="0" mediaItemType="2" />
    <MediaItem id="1946" filePath="C:\Users\owner\Dropbox\Work\png\animation T=1.01946.png" arWidth="640" arHeight="480" duration="0" songTitle="" songArtist="" songAlbum="" songCopyrightUrl="" songArtistUrl="" songAudioFileUrl="" stabilizationMode="0" mediaItemType="2" />
    <MediaItem id="1947" filePath="C:\Users\owner\Dropbox\Work\png\animation T=1.01947.png" arWidth="640" arHeight="480" duration="0" songTitle="" songArtist="" songAlbum="" songCopyrightUrl="" songArtistUrl="" songAudioFileUrl="" stabilizationMode="0" mediaItemType="2" />
    <MediaItem id="1948" filePath="C:\Users\owner\Dropbox\Work\png\animation T=1.01948.png" arWidth="640" arHeight="480" duration="0" songTitle="" songArtist="" songAlbum="" songCopyrightUrl="" songArtistUrl="" songAudioFileUrl="" stabilizationMode="0" mediaItemType="2" />
    <MediaItem id="1949" filePath="C:\Users\owner\Dropbox\Work\png\animation T=1.01949.png" arWidth="640" arHeight="480" duration="0" songTitle="" songArtist="" songAlbum="" songCopyrightUrl="" songArtistUrl="" songAudioFileUrl="" stabilizationMode="0" mediaItemType="2" />
    <MediaItem id="1950" filePath="C:\Users\owner\Dropbox\Work\png\animation T=1.01950.png" arWidth="640" arHeight="480" duration="0" songTitle="" songArtist="" songAlbum="" songCopyrightUrl="" songArtistUrl="" songAudioFileUrl="" stabilizationMode="0" mediaItemType="2" />
    <MediaItem id="1951" filePath="C:\Users\owner\Dropbox\Work\png\animation T=1.01951.png" arWidth="640" arHeight="480" duration="0" songTitle="" songArtist="" songAlbum="" songCopyrightUrl="" songArtistUrl="" songAudioFileUrl="" stabilizationMode="0" mediaItemType="2" />
    <MediaItem id="1952" filePath="C:\Users\owner\Dropbox\Work\png\animation T=1.01952.png" arWidth="640" arHeight="480" duration="0" songTitle="" songArtist="" songAlbum="" songCopyrightUrl="" songArtistUrl="" songAudioFileUrl="" stabilizationMode="0" mediaItemType="2" />
    <MediaItem id="1953" filePath="C:\Users\owner\Dropbox\Work\png\animation T=1.01953.png" arWidth="640" arHeight="480" duration="0" songTitle="" songArtist="" songAlbum="" songCopyrightUrl="" songArtistUrl="" songAudioFileUrl="" stabilizationMode="0" mediaItemType="2" />
    <MediaItem id="1954" filePath="C:\Users\owner\Dropbox\Work\png\animation T=1.01954.png" arWidth="640" arHeight="480" duration="0" songTitle="" songArtist="" songAlbum="" songCopyrightUrl="" songArtistUrl="" songAudioFileUrl="" stabilizationMode="0" mediaItemType="2" />
    <MediaItem id="1955" filePath="C:\Users\owner\Dropbox\Work\png\animation T=1.01955.png" arWidth="640" arHeight="480" duration="0" songTitle="" songArtist="" songAlbum="" songCopyrightUrl="" songArtistUrl="" songAudioFileUrl="" stabilizationMode="0" mediaItemType="2" />
    <MediaItem id="1956" filePath="C:\Users\owner\Dropbox\Work\png\animation T=1.01956.png" arWidth="640" arHeight="480" duration="0" songTitle="" songArtist="" songAlbum="" songCopyrightUrl="" songArtistUrl="" songAudioFileUrl="" stabilizationMode="0" mediaItemType="2" />
    <MediaItem id="1957" filePath="C:\Users\owner\Dropbox\Work\png\animation T=1.01957.png" arWidth="640" arHeight="480" duration="0" songTitle="" songArtist="" songAlbum="" songCopyrightUrl="" songArtistUrl="" songAudioFileUrl="" stabilizationMode="0" mediaItemType="2" />
    <MediaItem id="1958" filePath="C:\Users\owner\Dropbox\Work\png\animation T=1.01958.png" arWidth="640" arHeight="480" duration="0" songTitle="" songArtist="" songAlbum="" songCopyrightUrl="" songArtistUrl="" songAudioFileUrl="" stabilizationMode="0" mediaItemType="2" />
    <MediaItem id="1959" filePath="C:\Users\owner\Dropbox\Work\png\animation T=1.01959.png" arWidth="640" arHeight="480" duration="0" songTitle="" songArtist="" songAlbum="" songCopyrightUrl="" songArtistUrl="" songAudioFileUrl="" stabilizationMode="0" mediaItemType="2" />
    <MediaItem id="1960" filePath="C:\Users\owner\Dropbox\Work\png\animation T=1.01960.png" arWidth="640" arHeight="480" duration="0" songTitle="" songArtist="" songAlbum="" songCopyrightUrl="" songArtistUrl="" songAudioFileUrl="" stabilizationMode="0" mediaItemType="2" />
    <MediaItem id="1961" filePath="C:\Users\owner\Dropbox\Work\png\animation T=1.01961.png" arWidth="640" arHeight="480" duration="0" songTitle="" songArtist="" songAlbum="" songCopyrightUrl="" songArtistUrl="" songAudioFileUrl="" stabilizationMode="0" mediaItemType="2" />
    <MediaItem id="1962" filePath="C:\Users\owner\Dropbox\Work\png\animation T=1.01962.png" arWidth="640" arHeight="480" duration="0" songTitle="" songArtist="" songAlbum="" songCopyrightUrl="" songArtistUrl="" songAudioFileUrl="" stabilizationMode="0" mediaItemType="2" />
    <MediaItem id="1963" filePath="C:\Users\owner\Dropbox\Work\png\animation T=1.01963.png" arWidth="640" arHeight="480" duration="0" songTitle="" songArtist="" songAlbum="" songCopyrightUrl="" songArtistUrl="" songAudioFileUrl="" stabilizationMode="0" mediaItemType="2" />
    <MediaItem id="1964" filePath="C:\Users\owner\Dropbox\Work\png\animation T=1.01964.png" arWidth="640" arHeight="480" duration="0" songTitle="" songArtist="" songAlbum="" songCopyrightUrl="" songArtistUrl="" songAudioFileUrl="" stabilizationMode="0" mediaItemType="2" />
    <MediaItem id="1965" filePath="C:\Users\owner\Dropbox\Work\png\animation T=1.01965.png" arWidth="640" arHeight="480" duration="0" songTitle="" songArtist="" songAlbum="" songCopyrightUrl="" songArtistUrl="" songAudioFileUrl="" stabilizationMode="0" mediaItemType="2" />
    <MediaItem id="1966" filePath="C:\Users\owner\Dropbox\Work\png\animation T=1.01966.png" arWidth="640" arHeight="480" duration="0" songTitle="" songArtist="" songAlbum="" songCopyrightUrl="" songArtistUrl="" songAudioFileUrl="" stabilizationMode="0" mediaItemType="2" />
    <MediaItem id="1967" filePath="C:\Users\owner\Dropbox\Work\png\animation T=1.01967.png" arWidth="640" arHeight="480" duration="0" songTitle="" songArtist="" songAlbum="" songCopyrightUrl="" songArtistUrl="" songAudioFileUrl="" stabilizationMode="0" mediaItemType="2" />
    <MediaItem id="1968" filePath="C:\Users\owner\Dropbox\Work\png\animation T=1.01968.png" arWidth="640" arHeight="480" duration="0" songTitle="" songArtist="" songAlbum="" songCopyrightUrl="" songArtistUrl="" songAudioFileUrl="" stabilizationMode="0" mediaItemType="2" />
    <MediaItem id="1969" filePath="C:\Users\owner\Dropbox\Work\png\animation T=1.01969.png" arWidth="640" arHeight="480" duration="0" songTitle="" songArtist="" songAlbum="" songCopyrightUrl="" songArtistUrl="" songAudioFileUrl="" stabilizationMode="0" mediaItemType="2" />
    <MediaItem id="1970" filePath="C:\Users\owner\Dropbox\Work\png\animation T=1.01970.png" arWidth="640" arHeight="480" duration="0" songTitle="" songArtist="" songAlbum="" songCopyrightUrl="" songArtistUrl="" songAudioFileUrl="" stabilizationMode="0" mediaItemType="2" />
    <MediaItem id="1971" filePath="C:\Users\owner\Dropbox\Work\png\animation T=1.01971.png" arWidth="640" arHeight="480" duration="0" songTitle="" songArtist="" songAlbum="" songCopyrightUrl="" songArtistUrl="" songAudioFileUrl="" stabilizationMode="0" mediaItemType="2" />
    <MediaItem id="1972" filePath="C:\Users\owner\Dropbox\Work\png\animation T=1.01972.png" arWidth="640" arHeight="480" duration="0" songTitle="" songArtist="" songAlbum="" songCopyrightUrl="" songArtistUrl="" songAudioFileUrl="" stabilizationMode="0" mediaItemType="2" />
    <MediaItem id="1973" filePath="C:\Users\owner\Dropbox\Work\png\animation T=1.01973.png" arWidth="640" arHeight="480" duration="0" songTitle="" songArtist="" songAlbum="" songCopyrightUrl="" songArtistUrl="" songAudioFileUrl="" stabilizationMode="0" mediaItemType="2" />
    <MediaItem id="1974" filePath="C:\Users\owner\Dropbox\Work\png\animation T=1.01974.png" arWidth="640" arHeight="480" duration="0" songTitle="" songArtist="" songAlbum="" songCopyrightUrl="" songArtistUrl="" songAudioFileUrl="" stabilizationMode="0" mediaItemType="2" />
    <MediaItem id="1975" filePath="C:\Users\owner\Dropbox\Work\png\animation T=1.01975.png" arWidth="640" arHeight="480" duration="0" songTitle="" songArtist="" songAlbum="" songCopyrightUrl="" songArtistUrl="" songAudioFileUrl="" stabilizationMode="0" mediaItemType="2" />
    <MediaItem id="1976" filePath="C:\Users\owner\Dropbox\Work\png\animation T=1.01976.png" arWidth="640" arHeight="480" duration="0" songTitle="" songArtist="" songAlbum="" songCopyrightUrl="" songArtistUrl="" songAudioFileUrl="" stabilizationMode="0" mediaItemType="2" />
    <MediaItem id="1977" filePath="C:\Users\owner\Dropbox\Work\png\animation T=1.01977.png" arWidth="640" arHeight="480" duration="0" songTitle="" songArtist="" songAlbum="" songCopyrightUrl="" songArtistUrl="" songAudioFileUrl="" stabilizationMode="0" mediaItemType="2" />
    <MediaItem id="1978" filePath="C:\Users\owner\Dropbox\Work\png\animation T=1.01978.png" arWidth="640" arHeight="480" duration="0" songTitle="" songArtist="" songAlbum="" songCopyrightUrl="" songArtistUrl="" songAudioFileUrl="" stabilizationMode="0" mediaItemType="2" />
    <MediaItem id="1979" filePath="C:\Users\owner\Dropbox\Work\png\animation T=1.01979.png" arWidth="640" arHeight="480" duration="0" songTitle="" songArtist="" songAlbum="" songCopyrightUrl="" songArtistUrl="" songAudioFileUrl="" stabilizationMode="0" mediaItemType="2" />
    <MediaItem id="1980" filePath="C:\Users\owner\Dropbox\Work\png\animation T=1.01980.png" arWidth="640" arHeight="480" duration="0" songTitle="" songArtist="" songAlbum="" songCopyrightUrl="" songArtistUrl="" songAudioFileUrl="" stabilizationMode="0" mediaItemType="2" />
    <MediaItem id="1981" filePath="C:\Users\owner\Dropbox\Work\png\animation T=1.01981.png" arWidth="640" arHeight="480" duration="0" songTitle="" songArtist="" songAlbum="" songCopyrightUrl="" songArtistUrl="" songAudioFileUrl="" stabilizationMode="0" mediaItemType="2" />
    <MediaItem id="1982" filePath="C:\Users\owner\Dropbox\Work\png\animation T=1.01982.png" arWidth="640" arHeight="480" duration="0" songTitle="" songArtist="" songAlbum="" songCopyrightUrl="" songArtistUrl="" songAudioFileUrl="" stabilizationMode="0" mediaItemType="2" />
    <MediaItem id="1983" filePath="C:\Users\owner\Dropbox\Work\png\animation T=1.01983.png" arWidth="640" arHeight="480" duration="0" songTitle="" songArtist="" songAlbum="" songCopyrightUrl="" songArtistUrl="" songAudioFileUrl="" stabilizationMode="0" mediaItemType="2" />
    <MediaItem id="1984" filePath="C:\Users\owner\Dropbox\Work\png\animation T=1.01984.png" arWidth="640" arHeight="480" duration="0" songTitle="" songArtist="" songAlbum="" songCopyrightUrl="" songArtistUrl="" songAudioFileUrl="" stabilizationMode="0" mediaItemType="2" />
    <MediaItem id="1985" filePath="C:\Users\owner\Dropbox\Work\png\animation T=1.01985.png" arWidth="640" arHeight="480" duration="0" songTitle="" songArtist="" songAlbum="" songCopyrightUrl="" songArtistUrl="" songAudioFileUrl="" stabilizationMode="0" mediaItemType="2" />
    <MediaItem id="1986" filePath="C:\Users\owner\Dropbox\Work\png\animation T=1.01986.png" arWidth="640" arHeight="480" duration="0" songTitle="" songArtist="" songAlbum="" songCopyrightUrl="" songArtistUrl="" songAudioFileUrl="" stabilizationMode="0" mediaItemType="2" />
    <MediaItem id="1987" filePath="C:\Users\owner\Dropbox\Work\png\animation T=1.01987.png" arWidth="640" arHeight="480" duration="0" songTitle="" songArtist="" songAlbum="" songCopyrightUrl="" songArtistUrl="" songAudioFileUrl="" stabilizationMode="0" mediaItemType="2" />
    <MediaItem id="1988" filePath="C:\Users\owner\Dropbox\Work\png\animation T=1.01988.png" arWidth="640" arHeight="480" duration="0" songTitle="" songArtist="" songAlbum="" songCopyrightUrl="" songArtistUrl="" songAudioFileUrl="" stabilizationMode="0" mediaItemType="2" />
    <MediaItem id="1989" filePath="C:\Users\owner\Dropbox\Work\png\animation T=1.01989.png" arWidth="640" arHeight="480" duration="0" songTitle="" songArtist="" songAlbum="" songCopyrightUrl="" songArtistUrl="" songAudioFileUrl="" stabilizationMode="0" mediaItemType="2" />
    <MediaItem id="1990" filePath="C:\Users\owner\Dropbox\Work\png\animation T=1.01990.png" arWidth="640" arHeight="480" duration="0" songTitle="" songArtist="" songAlbum="" songCopyrightUrl="" songArtistUrl="" songAudioFileUrl="" stabilizationMode="0" mediaItemType="2" />
    <MediaItem id="1991" filePath="C:\Users\owner\Dropbox\Work\png\animation T=1.01991.png" arWidth="640" arHeight="480" duration="0" songTitle="" songArtist="" songAlbum="" songCopyrightUrl="" songArtistUrl="" songAudioFileUrl="" stabilizationMode="0" mediaItemType="2" />
    <MediaItem id="1992" filePath="C:\Users\owner\Dropbox\Work\png\animation T=1.01992.png" arWidth="640" arHeight="480" duration="0" songTitle="" songArtist="" songAlbum="" songCopyrightUrl="" songArtistUrl="" songAudioFileUrl="" stabilizationMode="0" mediaItemType="2" />
    <MediaItem id="1993" filePath="C:\Users\owner\Dropbox\Work\png\animation T=1.01993.png" arWidth="640" arHeight="480" duration="0" songTitle="" songArtist="" songAlbum="" songCopyrightUrl="" songArtistUrl="" songAudioFileUrl="" stabilizationMode="0" mediaItemType="2" />
    <MediaItem id="1994" filePath="C:\Users\owner\Dropbox\Work\png\animation T=1.01994.png" arWidth="640" arHeight="480" duration="0" songTitle="" songArtist="" songAlbum="" songCopyrightUrl="" songArtistUrl="" songAudioFileUrl="" stabilizationMode="0" mediaItemType="2" />
    <MediaItem id="1995" filePath="C:\Users\owner\Dropbox\Work\png\animation T=1.01995.png" arWidth="640" arHeight="480" duration="0" songTitle="" songArtist="" songAlbum="" songCopyrightUrl="" songArtistUrl="" songAudioFileUrl="" stabilizationMode="0" mediaItemType="2" />
    <MediaItem id="1996" filePath="C:\Users\owner\Dropbox\Work\png\animation T=1.01996.png" arWidth="640" arHeight="480" duration="0" songTitle="" songArtist="" songAlbum="" songCopyrightUrl="" songArtistUrl="" songAudioFileUrl="" stabilizationMode="0" mediaItemType="2" />
    <MediaItem id="1997" filePath="C:\Users\owner\Dropbox\Work\png\animation T=1.01997.png" arWidth="640" arHeight="480" duration="0" songTitle="" songArtist="" songAlbum="" songCopyrightUrl="" songArtistUrl="" songAudioFileUrl="" stabilizationMode="0" mediaItemType="2" />
    <MediaItem id="1998" filePath="C:\Users\owner\Dropbox\Work\png\animation T=1.01998.png" arWidth="640" arHeight="480" duration="0" songTitle="" songArtist="" songAlbum="" songCopyrightUrl="" songArtistUrl="" songAudioFileUrl="" stabilizationMode="0" mediaItemType="2" />
    <MediaItem id="1999" filePath="C:\Users\owner\Dropbox\Work\png\animation T=1.01999.png" arWidth="640" arHeight="480" duration="0" songTitle="" songArtist="" songAlbum="" songCopyrightUrl="" songArtistUrl="" songAudioFileUrl="" stabilizationMode="0" mediaItemType="2" />
    <MediaItem id="2000" filePath="C:\Users\owner\Dropbox\Work\png\animation T=1.02000.png" arWidth="640" arHeight="480" duration="0" songTitle="" songArtist="" songAlbum="" songCopyrightUrl="" songArtistUrl="" songAudioFileUrl="" stabilizationMode="0" mediaItemType="2" />
    <MediaItem id="2001" filePath="C:\Users\owner\Dropbox\Work\png\animation T=1.02001.png" arWidth="640" arHeight="480" duration="0" songTitle="" songArtist="" songAlbum="" songCopyrightUrl="" songArtistUrl="" songAudioFileUrl="" stabilizationMode="0" mediaItemType="2" />
    <MediaItem id="2002" filePath="C:\Users\owner\Dropbox\Work\png\animation T=1.02002.png" arWidth="640" arHeight="480" duration="0" songTitle="" songArtist="" songAlbum="" songCopyrightUrl="" songArtistUrl="" songAudioFileUrl="" stabilizationMode="0" mediaItemType="2" />
    <MediaItem id="2003" filePath="C:\Users\owner\Dropbox\Work\png\animation T=1.02003.png" arWidth="640" arHeight="480" duration="0" songTitle="" songArtist="" songAlbum="" songCopyrightUrl="" songArtistUrl="" songAudioFileUrl="" stabilizationMode="0" mediaItemType="2" />
    <MediaItem id="2004" filePath="C:\Users\owner\Dropbox\Work\png\animation T=1.02004.png" arWidth="640" arHeight="480" duration="0" songTitle="" songArtist="" songAlbum="" songCopyrightUrl="" songArtistUrl="" songAudioFileUrl="" stabilizationMode="0" mediaItemType="2" />
    <MediaItem id="2005" filePath="C:\Users\owner\Dropbox\Work\png\animation T=1.02005.png" arWidth="640" arHeight="480" duration="0" songTitle="" songArtist="" songAlbum="" songCopyrightUrl="" songArtistUrl="" songAudioFileUrl="" stabilizationMode="0" mediaItemType="2" />
    <MediaItem id="2006" filePath="C:\Users\owner\Dropbox\Work\png\animation T=1.02006.png" arWidth="640" arHeight="480" duration="0" songTitle="" songArtist="" songAlbum="" songCopyrightUrl="" songArtistUrl="" songAudioFileUrl="" stabilizationMode="0" mediaItemType="2" />
    <MediaItem id="2007" filePath="C:\Users\owner\Dropbox\Work\png\animation T=1.02007.png" arWidth="640" arHeight="480" duration="0" songTitle="" songArtist="" songAlbum="" songCopyrightUrl="" songArtistUrl="" songAudioFileUrl="" stabilizationMode="0" mediaItemType="2" />
    <MediaItem id="2008" filePath="C:\Users\owner\Dropbox\Work\png\animation T=1.02008.png" arWidth="640" arHeight="480" duration="0" songTitle="" songArtist="" songAlbum="" songCopyrightUrl="" songArtistUrl="" songAudioFileUrl="" stabilizationMode="0" mediaItemType="2" />
    <MediaItem id="2009" filePath="C:\Users\owner\Dropbox\Work\png\animation T=1.02009.png" arWidth="640" arHeight="480" duration="0" songTitle="" songArtist="" songAlbum="" songCopyrightUrl="" songArtistUrl="" songAudioFileUrl="" stabilizationMode="0" mediaItemType="2" />
    <MediaItem id="2010" filePath="C:\Users\owner\Dropbox\Work\png\animation T=1.02010.png" arWidth="640" arHeight="480" duration="0" songTitle="" songArtist="" songAlbum="" songCopyrightUrl="" songArtistUrl="" songAudioFileUrl="" stabilizationMode="0" mediaItemType="2" />
    <MediaItem id="2011" filePath="C:\Users\owner\Dropbox\Work\png\animation T=1.02011.png" arWidth="640" arHeight="480" duration="0" songTitle="" songArtist="" songAlbum="" songCopyrightUrl="" songArtistUrl="" songAudioFileUrl="" stabilizationMode="0" mediaItemType="2" />
    <MediaItem id="2012" filePath="C:\Users\owner\Dropbox\Work\png\animation T=1.02012.png" arWidth="640" arHeight="480" duration="0" songTitle="" songArtist="" songAlbum="" songCopyrightUrl="" songArtistUrl="" songAudioFileUrl="" stabilizationMode="0" mediaItemType="2" />
    <MediaItem id="2013" filePath="C:\Users\owner\Dropbox\Work\png\animation T=1.02013.png" arWidth="640" arHeight="480" duration="0" songTitle="" songArtist="" songAlbum="" songCopyrightUrl="" songArtistUrl="" songAudioFileUrl="" stabilizationMode="0" mediaItemType="2" />
    <MediaItem id="2014" filePath="C:\Users\owner\Dropbox\Work\png\animation T=1.02014.png" arWidth="640" arHeight="480" duration="0" songTitle="" songArtist="" songAlbum="" songCopyrightUrl="" songArtistUrl="" songAudioFileUrl="" stabilizationMode="0" mediaItemType="2" />
    <MediaItem id="2015" filePath="C:\Users\owner\Dropbox\Work\png\animation T=1.02015.png" arWidth="640" arHeight="480" duration="0" songTitle="" songArtist="" songAlbum="" songCopyrightUrl="" songArtistUrl="" songAudioFileUrl="" stabilizationMode="0" mediaItemType="2" />
    <MediaItem id="2016" filePath="C:\Users\owner\Dropbox\Work\png\animation T=1.02016.png" arWidth="640" arHeight="480" duration="0" songTitle="" songArtist="" songAlbum="" songCopyrightUrl="" songArtistUrl="" songAudioFileUrl="" stabilizationMode="0" mediaItemType="2" />
    <MediaItem id="2017" filePath="C:\Users\owner\Dropbox\Work\png\animation T=1.02017.png" arWidth="640" arHeight="480" duration="0" songTitle="" songArtist="" songAlbum="" songCopyrightUrl="" songArtistUrl="" songAudioFileUrl="" stabilizationMode="0" mediaItemType="2" />
    <MediaItem id="2018" filePath="C:\Users\owner\Dropbox\Work\png\animation T=1.02018.png" arWidth="640" arHeight="480" duration="0" songTitle="" songArtist="" songAlbum="" songCopyrightUrl="" songArtistUrl="" songAudioFileUrl="" stabilizationMode="0" mediaItemType="2" />
    <MediaItem id="2019" filePath="C:\Users\owner\Dropbox\Work\png\animation T=1.02019.png" arWidth="640" arHeight="480" duration="0" songTitle="" songArtist="" songAlbum="" songCopyrightUrl="" songArtistUrl="" songAudioFileUrl="" stabilizationMode="0" mediaItemType="2" />
    <MediaItem id="2020" filePath="C:\Users\owner\Dropbox\Work\png\animation T=1.02020.png" arWidth="640" arHeight="480" duration="0" songTitle="" songArtist="" songAlbum="" songCopyrightUrl="" songArtistUrl="" songAudioFileUrl="" stabilizationMode="0" mediaItemType="2" />
    <MediaItem id="2021" filePath="C:\Users\owner\Dropbox\Work\png\animation T=1.02021.png" arWidth="640" arHeight="480" duration="0" songTitle="" songArtist="" songAlbum="" songCopyrightUrl="" songArtistUrl="" songAudioFileUrl="" stabilizationMode="0" mediaItemType="2" />
    <MediaItem id="2022" filePath="C:\Users\owner\Dropbox\Work\png\animation T=1.02022.png" arWidth="640" arHeight="480" duration="0" songTitle="" songArtist="" songAlbum="" songCopyrightUrl="" songArtistUrl="" songAudioFileUrl="" stabilizationMode="0" mediaItemType="2" />
    <MediaItem id="2023" filePath="C:\Users\owner\Dropbox\Work\png\animation T=1.02023.png" arWidth="640" arHeight="480" duration="0" songTitle="" songArtist="" songAlbum="" songCopyrightUrl="" songArtistUrl="" songAudioFileUrl="" stabilizationMode="0" mediaItemType="2" />
    <MediaItem id="2024" filePath="C:\Users\owner\Dropbox\Work\png\animation T=1.02024.png" arWidth="640" arHeight="480" duration="0" songTitle="" songArtist="" songAlbum="" songCopyrightUrl="" songArtistUrl="" songAudioFileUrl="" stabilizationMode="0" mediaItemType="2" />
    <MediaItem id="2025" filePath="C:\Users\owner\Dropbox\Work\png\animation T=1.02025.png" arWidth="640" arHeight="480" duration="0" songTitle="" songArtist="" songAlbum="" songCopyrightUrl="" songArtistUrl="" songAudioFileUrl="" stabilizationMode="0" mediaItemType="2" />
    <MediaItem id="2026" filePath="C:\Users\owner\Dropbox\Work\png\animation T=1.02026.png" arWidth="640" arHeight="480" duration="0" songTitle="" songArtist="" songAlbum="" songCopyrightUrl="" songArtistUrl="" songAudioFileUrl="" stabilizationMode="0" mediaItemType="2" />
    <MediaItem id="2027" filePath="C:\Users\owner\Dropbox\Work\png\animation T=1.02027.png" arWidth="640" arHeight="480" duration="0" songTitle="" songArtist="" songAlbum="" songCopyrightUrl="" songArtistUrl="" songAudioFileUrl="" stabilizationMode="0" mediaItemType="2" />
    <MediaItem id="2028" filePath="C:\Users\owner\Dropbox\Work\png\animation T=1.02028.png" arWidth="640" arHeight="480" duration="0" songTitle="" songArtist="" songAlbum="" songCopyrightUrl="" songArtistUrl="" songAudioFileUrl="" stabilizationMode="0" mediaItemType="2" />
    <MediaItem id="2029" filePath="C:\Users\owner\Dropbox\Work\png\animation T=1.02029.png" arWidth="640" arHeight="480" duration="0" songTitle="" songArtist="" songAlbum="" songCopyrightUrl="" songArtistUrl="" songAudioFileUrl="" stabilizationMode="0" mediaItemType="2" />
    <MediaItem id="2030" filePath="C:\Users\owner\Dropbox\Work\png\animation T=1.02030.png" arWidth="640" arHeight="480" duration="0" songTitle="" songArtist="" songAlbum="" songCopyrightUrl="" songArtistUrl="" songAudioFileUrl="" stabilizationMode="0" mediaItemType="2" />
    <MediaItem id="2031" filePath="C:\Users\owner\Dropbox\Work\png\animation T=1.02031.png" arWidth="640" arHeight="480" duration="0" songTitle="" songArtist="" songAlbum="" songCopyrightUrl="" songArtistUrl="" songAudioFileUrl="" stabilizationMode="0" mediaItemType="2" />
    <MediaItem id="2032" filePath="C:\Users\owner\Dropbox\Work\png\animation T=1.02032.png" arWidth="640" arHeight="480" duration="0" songTitle="" songArtist="" songAlbum="" songCopyrightUrl="" songArtistUrl="" songAudioFileUrl="" stabilizationMode="0" mediaItemType="2" />
    <MediaItem id="2033" filePath="C:\Users\owner\Dropbox\Work\png\animation T=1.02033.png" arWidth="640" arHeight="480" duration="0" songTitle="" songArtist="" songAlbum="" songCopyrightUrl="" songArtistUrl="" songAudioFileUrl="" stabilizationMode="0" mediaItemType="2" />
    <MediaItem id="2034" filePath="C:\Users\owner\Dropbox\Work\png\animation T=1.02034.png" arWidth="640" arHeight="480" duration="0" songTitle="" songArtist="" songAlbum="" songCopyrightUrl="" songArtistUrl="" songAudioFileUrl="" stabilizationMode="0" mediaItemType="2" />
    <MediaItem id="2035" filePath="C:\Users\owner\Dropbox\Work\png\animation T=1.02035.png" arWidth="640" arHeight="480" duration="0" songTitle="" songArtist="" songAlbum="" songCopyrightUrl="" songArtistUrl="" songAudioFileUrl="" stabilizationMode="0" mediaItemType="2" />
    <MediaItem id="2036" filePath="C:\Users\owner\Dropbox\Work\png\animation T=1.02036.png" arWidth="640" arHeight="480" duration="0" songTitle="" songArtist="" songAlbum="" songCopyrightUrl="" songArtistUrl="" songAudioFileUrl="" stabilizationMode="0" mediaItemType="2" />
    <MediaItem id="2037" filePath="C:\Users\owner\Dropbox\Work\png\animation T=1.02037.png" arWidth="640" arHeight="480" duration="0" songTitle="" songArtist="" songAlbum="" songCopyrightUrl="" songArtistUrl="" songAudioFileUrl="" stabilizationMode="0" mediaItemType="2" />
    <MediaItem id="2038" filePath="C:\Users\owner\Dropbox\Work\png\animation T=1.02038.png" arWidth="640" arHeight="480" duration="0" songTitle="" songArtist="" songAlbum="" songCopyrightUrl="" songArtistUrl="" songAudioFileUrl="" stabilizationMode="0" mediaItemType="2" />
    <MediaItem id="2039" filePath="C:\Users\owner\Dropbox\Work\png\animation T=1.02039.png" arWidth="640" arHeight="480" duration="0" songTitle="" songArtist="" songAlbum="" songCopyrightUrl="" songArtistUrl="" songAudioFileUrl="" stabilizationMode="0" mediaItemType="2" />
    <MediaItem id="2040" filePath="C:\Users\owner\Dropbox\Work\png\animation T=1.02040.png" arWidth="640" arHeight="480" duration="0" songTitle="" songArtist="" songAlbum="" songCopyrightUrl="" songArtistUrl="" songAudioFileUrl="" stabilizationMode="0" mediaItemType="2" />
    <MediaItem id="2041" filePath="C:\Users\owner\Dropbox\Work\png\animation T=1.02041.png" arWidth="640" arHeight="480" duration="0" songTitle="" songArtist="" songAlbum="" songCopyrightUrl="" songArtistUrl="" songAudioFileUrl="" stabilizationMode="0" mediaItemType="2" />
    <MediaItem id="2042" filePath="C:\Users\owner\Dropbox\Work\png\animation T=1.02042.png" arWidth="640" arHeight="480" duration="0" songTitle="" songArtist="" songAlbum="" songCopyrightUrl="" songArtistUrl="" songAudioFileUrl="" stabilizationMode="0" mediaItemType="2" />
    <MediaItem id="2043" filePath="C:\Users\owner\Dropbox\Work\png\animation T=1.02043.png" arWidth="640" arHeight="480" duration="0" songTitle="" songArtist="" songAlbum="" songCopyrightUrl="" songArtistUrl="" songAudioFileUrl="" stabilizationMode="0" mediaItemType="2" />
    <MediaItem id="2044" filePath="C:\Users\owner\Dropbox\Work\png\animation T=1.02044.png" arWidth="640" arHeight="480" duration="0" songTitle="" songArtist="" songAlbum="" songCopyrightUrl="" songArtistUrl="" songAudioFileUrl="" stabilizationMode="0" mediaItemType="2" />
    <MediaItem id="2045" filePath="C:\Users\owner\Dropbox\Work\png\animation T=1.02045.png" arWidth="640" arHeight="480" duration="0" songTitle="" songArtist="" songAlbum="" songCopyrightUrl="" songArtistUrl="" songAudioFileUrl="" stabilizationMode="0" mediaItemType="2" />
    <MediaItem id="2046" filePath="C:\Users\owner\Dropbox\Work\png\animation T=1.02046.png" arWidth="640" arHeight="480" duration="0" songTitle="" songArtist="" songAlbum="" songCopyrightUrl="" songArtistUrl="" songAudioFileUrl="" stabilizationMode="0" mediaItemType="2" />
    <MediaItem id="2047" filePath="C:\Users\owner\Dropbox\Work\png\animation T=1.02047.png" arWidth="640" arHeight="480" duration="0" songTitle="" songArtist="" songAlbum="" songCopyrightUrl="" songArtistUrl="" songAudioFileUrl="" stabilizationMode="0" mediaItemType="2" />
    <MediaItem id="2048" filePath="C:\Users\owner\Dropbox\Work\png\animation T=1.02048.png" arWidth="640" arHeight="480" duration="0" songTitle="" songArtist="" songAlbum="" songCopyrightUrl="" songArtistUrl="" songAudioFileUrl="" stabilizationMode="0" mediaItemType="2" />
    <MediaItem id="2049" filePath="C:\Users\owner\Dropbox\Work\png\animation T=1.02049.png" arWidth="640" arHeight="480" duration="0" songTitle="" songArtist="" songAlbum="" songCopyrightUrl="" songArtistUrl="" songAudioFileUrl="" stabilizationMode="0" mediaItemType="2" />
    <MediaItem id="2050" filePath="C:\Users\owner\Dropbox\Work\png\animation T=1.02050.png" arWidth="640" arHeight="480" duration="0" songTitle="" songArtist="" songAlbum="" songCopyrightUrl="" songArtistUrl="" songAudioFileUrl="" stabilizationMode="0" mediaItemType="2" />
    <MediaItem id="2051" filePath="C:\Users\owner\Dropbox\Work\png\animation T=1.02051.png" arWidth="640" arHeight="480" duration="0" songTitle="" songArtist="" songAlbum="" songCopyrightUrl="" songArtistUrl="" songAudioFileUrl="" stabilizationMode="0" mediaItemType="2" />
    <MediaItem id="2052" filePath="C:\Users\owner\Dropbox\Work\png\animation T=1.02052.png" arWidth="640" arHeight="480" duration="0" songTitle="" songArtist="" songAlbum="" songCopyrightUrl="" songArtistUrl="" songAudioFileUrl="" stabilizationMode="0" mediaItemType="2" />
    <MediaItem id="2053" filePath="C:\Users\owner\Dropbox\Work\png\animation T=1.02053.png" arWidth="640" arHeight="480" duration="0" songTitle="" songArtist="" songAlbum="" songCopyrightUrl="" songArtistUrl="" songAudioFileUrl="" stabilizationMode="0" mediaItemType="2" />
    <MediaItem id="2054" filePath="C:\Users\owner\Dropbox\Work\png\animation T=1.02054.png" arWidth="640" arHeight="480" duration="0" songTitle="" songArtist="" songAlbum="" songCopyrightUrl="" songArtistUrl="" songAudioFileUrl="" stabilizationMode="0" mediaItemType="2" />
    <MediaItem id="2055" filePath="C:\Users\owner\Dropbox\Work\png\animation T=1.02055.png" arWidth="640" arHeight="480" duration="0" songTitle="" songArtist="" songAlbum="" songCopyrightUrl="" songArtistUrl="" songAudioFileUrl="" stabilizationMode="0" mediaItemType="2" />
    <MediaItem id="2056" filePath="C:\Users\owner\Dropbox\Work\png\animation T=1.02056.png" arWidth="640" arHeight="480" duration="0" songTitle="" songArtist="" songAlbum="" songCopyrightUrl="" songArtistUrl="" songAudioFileUrl="" stabilizationMode="0" mediaItemType="2" />
    <MediaItem id="2057" filePath="C:\Users\owner\Dropbox\Work\png\animation T=1.02057.png" arWidth="640" arHeight="480" duration="0" songTitle="" songArtist="" songAlbum="" songCopyrightUrl="" songArtistUrl="" songAudioFileUrl="" stabilizationMode="0" mediaItemType="2" />
    <MediaItem id="2058" filePath="C:\Users\owner\Dropbox\Work\png\animation T=1.02058.png" arWidth="640" arHeight="480" duration="0" songTitle="" songArtist="" songAlbum="" songCopyrightUrl="" songArtistUrl="" songAudioFileUrl="" stabilizationMode="0" mediaItemType="2" />
    <MediaItem id="2059" filePath="C:\Users\owner\Dropbox\Work\png\animation T=1.02059.png" arWidth="640" arHeight="480" duration="0" songTitle="" songArtist="" songAlbum="" songCopyrightUrl="" songArtistUrl="" songAudioFileUrl="" stabilizationMode="0" mediaItemType="2" />
    <MediaItem id="2060" filePath="C:\Users\owner\Dropbox\Work\png\animation T=1.02060.png" arWidth="640" arHeight="480" duration="0" songTitle="" songArtist="" songAlbum="" songCopyrightUrl="" songArtistUrl="" songAudioFileUrl="" stabilizationMode="0" mediaItemType="2" />
    <MediaItem id="2061" filePath="C:\Users\owner\Dropbox\Work\png\animation T=1.02061.png" arWidth="640" arHeight="480" duration="0" songTitle="" songArtist="" songAlbum="" songCopyrightUrl="" songArtistUrl="" songAudioFileUrl="" stabilizationMode="0" mediaItemType="2" />
    <MediaItem id="2062" filePath="C:\Users\owner\Dropbox\Work\png\animation T=1.02062.png" arWidth="640" arHeight="480" duration="0" songTitle="" songArtist="" songAlbum="" songCopyrightUrl="" songArtistUrl="" songAudioFileUrl="" stabilizationMode="0" mediaItemType="2" />
    <MediaItem id="2063" filePath="C:\Users\owner\Dropbox\Work\png\animation T=1.02063.png" arWidth="640" arHeight="480" duration="0" songTitle="" songArtist="" songAlbum="" songCopyrightUrl="" songArtistUrl="" songAudioFileUrl="" stabilizationMode="0" mediaItemType="2" />
    <MediaItem id="2064" filePath="C:\Users\owner\Dropbox\Work\png\animation T=1.02064.png" arWidth="640" arHeight="480" duration="0" songTitle="" songArtist="" songAlbum="" songCopyrightUrl="" songArtistUrl="" songAudioFileUrl="" stabilizationMode="0" mediaItemType="2" />
    <MediaItem id="2065" filePath="C:\Users\owner\Dropbox\Work\png\animation T=1.02065.png" arWidth="640" arHeight="480" duration="0" songTitle="" songArtist="" songAlbum="" songCopyrightUrl="" songArtistUrl="" songAudioFileUrl="" stabilizationMode="0" mediaItemType="2" />
    <MediaItem id="2066" filePath="C:\Users\owner\Dropbox\Work\png\animation T=1.02066.png" arWidth="640" arHeight="480" duration="0" songTitle="" songArtist="" songAlbum="" songCopyrightUrl="" songArtistUrl="" songAudioFileUrl="" stabilizationMode="0" mediaItemType="2" />
    <MediaItem id="2067" filePath="C:\Users\owner\Dropbox\Work\png\animation T=1.02067.png" arWidth="640" arHeight="480" duration="0" songTitle="" songArtist="" songAlbum="" songCopyrightUrl="" songArtistUrl="" songAudioFileUrl="" stabilizationMode="0" mediaItemType="2" />
    <MediaItem id="2068" filePath="C:\Users\owner\Dropbox\Work\png\animation T=1.02068.png" arWidth="640" arHeight="480" duration="0" songTitle="" songArtist="" songAlbum="" songCopyrightUrl="" songArtistUrl="" songAudioFileUrl="" stabilizationMode="0" mediaItemType="2" />
    <MediaItem id="2069" filePath="C:\Users\owner\Dropbox\Work\png\animation T=1.02069.png" arWidth="640" arHeight="480" duration="0" songTitle="" songArtist="" songAlbum="" songCopyrightUrl="" songArtistUrl="" songAudioFileUrl="" stabilizationMode="0" mediaItemType="2" />
    <MediaItem id="2070" filePath="C:\Users\owner\Dropbox\Work\png\animation T=1.02070.png" arWidth="640" arHeight="480" duration="0" songTitle="" songArtist="" songAlbum="" songCopyrightUrl="" songArtistUrl="" songAudioFileUrl="" stabilizationMode="0" mediaItemType="2" />
    <MediaItem id="2071" filePath="C:\Users\owner\Dropbox\Work\png\animation T=1.02071.png" arWidth="640" arHeight="480" duration="0" songTitle="" songArtist="" songAlbum="" songCopyrightUrl="" songArtistUrl="" songAudioFileUrl="" stabilizationMode="0" mediaItemType="2" />
    <MediaItem id="2072" filePath="C:\Users\owner\Dropbox\Work\png\animation T=1.02072.png" arWidth="640" arHeight="480" duration="0" songTitle="" songArtist="" songAlbum="" songCopyrightUrl="" songArtistUrl="" songAudioFileUrl="" stabilizationMode="0" mediaItemType="2" />
    <MediaItem id="2073" filePath="C:\Users\owner\Dropbox\Work\png\animation T=1.02073.png" arWidth="640" arHeight="480" duration="0" songTitle="" songArtist="" songAlbum="" songCopyrightUrl="" songArtistUrl="" songAudioFileUrl="" stabilizationMode="0" mediaItemType="2" />
    <MediaItem id="2074" filePath="C:\Users\owner\Dropbox\Work\png\animation T=1.02074.png" arWidth="640" arHeight="480" duration="0" songTitle="" songArtist="" songAlbum="" songCopyrightUrl="" songArtistUrl="" songAudioFileUrl="" stabilizationMode="0" mediaItemType="2" />
    <MediaItem id="2075" filePath="C:\Users\owner\Dropbox\Work\png\animation T=1.02075.png" arWidth="640" arHeight="480" duration="0" songTitle="" songArtist="" songAlbum="" songCopyrightUrl="" songArtistUrl="" songAudioFileUrl="" stabilizationMode="0" mediaItemType="2" />
    <MediaItem id="2076" filePath="C:\Users\owner\Dropbox\Work\png\animation T=1.02076.png" arWidth="640" arHeight="480" duration="0" songTitle="" songArtist="" songAlbum="" songCopyrightUrl="" songArtistUrl="" songAudioFileUrl="" stabilizationMode="0" mediaItemType="2" />
    <MediaItem id="2077" filePath="C:\Users\owner\Dropbox\Work\png\animation T=1.02077.png" arWidth="640" arHeight="480" duration="0" songTitle="" songArtist="" songAlbum="" songCopyrightUrl="" songArtistUrl="" songAudioFileUrl="" stabilizationMode="0" mediaItemType="2" />
    <MediaItem id="2078" filePath="C:\Users\owner\Dropbox\Work\png\animation T=1.02078.png" arWidth="640" arHeight="480" duration="0" songTitle="" songArtist="" songAlbum="" songCopyrightUrl="" songArtistUrl="" songAudioFileUrl="" stabilizationMode="0" mediaItemType="2" />
    <MediaItem id="2079" filePath="C:\Users\owner\Dropbox\Work\png\animation T=1.02079.png" arWidth="640" arHeight="480" duration="0" songTitle="" songArtist="" songAlbum="" songCopyrightUrl="" songArtistUrl="" songAudioFileUrl="" stabilizationMode="0" mediaItemType="2" />
    <MediaItem id="2080" filePath="C:\Users\owner\Dropbox\Work\png\animation T=1.02080.png" arWidth="640" arHeight="480" duration="0" songTitle="" songArtist="" songAlbum="" songCopyrightUrl="" songArtistUrl="" songAudioFileUrl="" stabilizationMode="0" mediaItemType="2" />
    <MediaItem id="2081" filePath="C:\Users\owner\Dropbox\Work\png\animation T=1.02081.png" arWidth="640" arHeight="480" duration="0" songTitle="" songArtist="" songAlbum="" songCopyrightUrl="" songArtistUrl="" songAudioFileUrl="" stabilizationMode="0" mediaItemType="2" />
    <MediaItem id="2082" filePath="C:\Users\owner\Dropbox\Work\png\animation T=1.02082.png" arWidth="640" arHeight="480" duration="0" songTitle="" songArtist="" songAlbum="" songCopyrightUrl="" songArtistUrl="" songAudioFileUrl="" stabilizationMode="0" mediaItemType="2" />
    <MediaItem id="2083" filePath="C:\Users\owner\Dropbox\Work\png\animation T=1.02083.png" arWidth="640" arHeight="480" duration="0" songTitle="" songArtist="" songAlbum="" songCopyrightUrl="" songArtistUrl="" songAudioFileUrl="" stabilizationMode="0" mediaItemType="2" />
    <MediaItem id="2084" filePath="C:\Users\owner\Dropbox\Work\png\animation T=1.02084.png" arWidth="640" arHeight="480" duration="0" songTitle="" songArtist="" songAlbum="" songCopyrightUrl="" songArtistUrl="" songAudioFileUrl="" stabilizationMode="0" mediaItemType="2" />
    <MediaItem id="2085" filePath="C:\Users\owner\Dropbox\Work\png\animation T=1.02085.png" arWidth="640" arHeight="480" duration="0" songTitle="" songArtist="" songAlbum="" songCopyrightUrl="" songArtistUrl="" songAudioFileUrl="" stabilizationMode="0" mediaItemType="2" />
    <MediaItem id="2086" filePath="C:\Users\owner\Dropbox\Work\png\animation T=1.02086.png" arWidth="640" arHeight="480" duration="0" songTitle="" songArtist="" songAlbum="" songCopyrightUrl="" songArtistUrl="" songAudioFileUrl="" stabilizationMode="0" mediaItemType="2" />
    <MediaItem id="2087" filePath="C:\Users\owner\Dropbox\Work\png\animation T=1.02087.png" arWidth="640" arHeight="480" duration="0" songTitle="" songArtist="" songAlbum="" songCopyrightUrl="" songArtistUrl="" songAudioFileUrl="" stabilizationMode="0" mediaItemType="2" />
    <MediaItem id="2088" filePath="C:\Users\owner\Dropbox\Work\png\animation T=1.02088.png" arWidth="640" arHeight="480" duration="0" songTitle="" songArtist="" songAlbum="" songCopyrightUrl="" songArtistUrl="" songAudioFileUrl="" stabilizationMode="0" mediaItemType="2" />
    <MediaItem id="2089" filePath="C:\Users\owner\Dropbox\Work\png\animation T=1.02089.png" arWidth="640" arHeight="480" duration="0" songTitle="" songArtist="" songAlbum="" songCopyrightUrl="" songArtistUrl="" songAudioFileUrl="" stabilizationMode="0" mediaItemType="2" />
    <MediaItem id="2090" filePath="C:\Users\owner\Dropbox\Work\png\animation T=1.02090.png" arWidth="640" arHeight="480" duration="0" songTitle="" songArtist="" songAlbum="" songCopyrightUrl="" songArtistUrl="" songAudioFileUrl="" stabilizationMode="0" mediaItemType="2" />
    <MediaItem id="2091" filePath="C:\Users\owner\Dropbox\Work\png\animation T=1.02091.png" arWidth="640" arHeight="480" duration="0" songTitle="" songArtist="" songAlbum="" songCopyrightUrl="" songArtistUrl="" songAudioFileUrl="" stabilizationMode="0" mediaItemType="2" />
    <MediaItem id="2092" filePath="C:\Users\owner\Dropbox\Work\png\animation T=1.02092.png" arWidth="640" arHeight="480" duration="0" songTitle="" songArtist="" songAlbum="" songCopyrightUrl="" songArtistUrl="" songAudioFileUrl="" stabilizationMode="0" mediaItemType="2" />
    <MediaItem id="2093" filePath="C:\Users\owner\Dropbox\Work\png\animation T=1.02093.png" arWidth="640" arHeight="480" duration="0" songTitle="" songArtist="" songAlbum="" songCopyrightUrl="" songArtistUrl="" songAudioFileUrl="" stabilizationMode="0" mediaItemType="2" />
    <MediaItem id="2094" filePath="C:\Users\owner\Dropbox\Work\png\animation T=1.02094.png" arWidth="640" arHeight="480" duration="0" songTitle="" songArtist="" songAlbum="" songCopyrightUrl="" songArtistUrl="" songAudioFileUrl="" stabilizationMode="0" mediaItemType="2" />
    <MediaItem id="2095" filePath="C:\Users\owner\Dropbox\Work\png\animation T=1.02095.png" arWidth="640" arHeight="480" duration="0" songTitle="" songArtist="" songAlbum="" songCopyrightUrl="" songArtistUrl="" songAudioFileUrl="" stabilizationMode="0" mediaItemType="2" />
    <MediaItem id="2096" filePath="C:\Users\owner\Dropbox\Work\png\animation T=1.02096.png" arWidth="640" arHeight="480" duration="0" songTitle="" songArtist="" songAlbum="" songCopyrightUrl="" songArtistUrl="" songAudioFileUrl="" stabilizationMode="0" mediaItemType="2" />
    <MediaItem id="2097" filePath="C:\Users\owner\Dropbox\Work\png\animation T=1.02097.png" arWidth="640" arHeight="480" duration="0" songTitle="" songArtist="" songAlbum="" songCopyrightUrl="" songArtistUrl="" songAudioFileUrl="" stabilizationMode="0" mediaItemType="2" />
    <MediaItem id="2098" filePath="C:\Users\owner\Dropbox\Work\png\animation T=1.02098.png" arWidth="640" arHeight="480" duration="0" songTitle="" songArtist="" songAlbum="" songCopyrightUrl="" songArtistUrl="" songAudioFileUrl="" stabilizationMode="0" mediaItemType="2" />
    <MediaItem id="2099" filePath="C:\Users\owner\Dropbox\Work\png\animation T=1.02099.png" arWidth="640" arHeight="480" duration="0" songTitle="" songArtist="" songAlbum="" songCopyrightUrl="" songArtistUrl="" songAudioFileUrl="" stabilizationMode="0" mediaItemType="2" />
    <MediaItem id="2100" filePath="C:\Users\owner\Dropbox\Work\png\animation T=1.02100.png" arWidth="640" arHeight="480" duration="0" songTitle="" songArtist="" songAlbum="" songCopyrightUrl="" songArtistUrl="" songAudioFileUrl="" stabilizationMode="0" mediaItemType="2" />
    <MediaItem id="2101" filePath="C:\Users\owner\Dropbox\Work\png\animation T=1.02101.png" arWidth="640" arHeight="480" duration="0" songTitle="" songArtist="" songAlbum="" songCopyrightUrl="" songArtistUrl="" songAudioFileUrl="" stabilizationMode="0" mediaItemType="2" />
    <MediaItem id="2102" filePath="C:\Users\owner\Dropbox\Work\png\animation T=1.02102.png" arWidth="640" arHeight="480" duration="0" songTitle="" songArtist="" songAlbum="" songCopyrightUrl="" songArtistUrl="" songAudioFileUrl="" stabilizationMode="0" mediaItemType="2" />
    <MediaItem id="2103" filePath="C:\Users\owner\Dropbox\Work\png\animation T=1.02103.png" arWidth="640" arHeight="480" duration="0" songTitle="" songArtist="" songAlbum="" songCopyrightUrl="" songArtistUrl="" songAudioFileUrl="" stabilizationMode="0" mediaItemType="2" />
    <MediaItem id="2104" filePath="C:\Users\owner\Dropbox\Work\png\animation T=1.02104.png" arWidth="640" arHeight="480" duration="0" songTitle="" songArtist="" songAlbum="" songCopyrightUrl="" songArtistUrl="" songAudioFileUrl="" stabilizationMode="0" mediaItemType="2" />
    <MediaItem id="2105" filePath="C:\Users\owner\Dropbox\Work\png\animation T=1.02105.png" arWidth="640" arHeight="480" duration="0" songTitle="" songArtist="" songAlbum="" songCopyrightUrl="" songArtistUrl="" songAudioFileUrl="" stabilizationMode="0" mediaItemType="2" />
    <MediaItem id="2106" filePath="C:\Users\owner\Dropbox\Work\png\animation T=1.02106.png" arWidth="640" arHeight="480" duration="0" songTitle="" songArtist="" songAlbum="" songCopyrightUrl="" songArtistUrl="" songAudioFileUrl="" stabilizationMode="0" mediaItemType="2" />
    <MediaItem id="2107" filePath="C:\Users\owner\Dropbox\Work\png\animation T=1.02107.png" arWidth="640" arHeight="480" duration="0" songTitle="" songArtist="" songAlbum="" songCopyrightUrl="" songArtistUrl="" songAudioFileUrl="" stabilizationMode="0" mediaItemType="2" />
    <MediaItem id="2108" filePath="C:\Users\owner\Dropbox\Work\png\animation T=1.02108.png" arWidth="640" arHeight="480" duration="0" songTitle="" songArtist="" songAlbum="" songCopyrightUrl="" songArtistUrl="" songAudioFileUrl="" stabilizationMode="0" mediaItemType="2" />
    <MediaItem id="2109" filePath="C:\Users\owner\Dropbox\Work\png\animation T=1.02109.png" arWidth="640" arHeight="480" duration="0" songTitle="" songArtist="" songAlbum="" songCopyrightUrl="" songArtistUrl="" songAudioFileUrl="" stabilizationMode="0" mediaItemType="2" />
    <MediaItem id="2110" filePath="C:\Users\owner\Dropbox\Work\png\animation T=1.02110.png" arWidth="640" arHeight="480" duration="0" songTitle="" songArtist="" songAlbum="" songCopyrightUrl="" songArtistUrl="" songAudioFileUrl="" stabilizationMode="0" mediaItemType="2" />
    <MediaItem id="2111" filePath="C:\Users\owner\Dropbox\Work\png\animation T=1.02111.png" arWidth="640" arHeight="480" duration="0" songTitle="" songArtist="" songAlbum="" songCopyrightUrl="" songArtistUrl="" songAudioFileUrl="" stabilizationMode="0" mediaItemType="2" />
    <MediaItem id="2112" filePath="C:\Users\owner\Dropbox\Work\png\animation T=1.02112.png" arWidth="640" arHeight="480" duration="0" songTitle="" songArtist="" songAlbum="" songCopyrightUrl="" songArtistUrl="" songAudioFileUrl="" stabilizationMode="0" mediaItemType="2" />
    <MediaItem id="2113" filePath="C:\Users\owner\Dropbox\Work\png\animation T=1.02113.png" arWidth="640" arHeight="480" duration="0" songTitle="" songArtist="" songAlbum="" songCopyrightUrl="" songArtistUrl="" songAudioFileUrl="" stabilizationMode="0" mediaItemType="2" />
    <MediaItem id="2114" filePath="C:\Users\owner\Dropbox\Work\png\animation T=1.02114.png" arWidth="640" arHeight="480" duration="0" songTitle="" songArtist="" songAlbum="" songCopyrightUrl="" songArtistUrl="" songAudioFileUrl="" stabilizationMode="0" mediaItemType="2" />
    <MediaItem id="2115" filePath="C:\Users\owner\Dropbox\Work\png\animation T=1.02115.png" arWidth="640" arHeight="480" duration="0" songTitle="" songArtist="" songAlbum="" songCopyrightUrl="" songArtistUrl="" songAudioFileUrl="" stabilizationMode="0" mediaItemType="2" />
    <MediaItem id="2116" filePath="C:\Users\owner\Dropbox\Work\png\animation T=1.02116.png" arWidth="640" arHeight="480" duration="0" songTitle="" songArtist="" songAlbum="" songCopyrightUrl="" songArtistUrl="" songAudioFileUrl="" stabilizationMode="0" mediaItemType="2" />
    <MediaItem id="2117" filePath="C:\Users\owner\Dropbox\Work\png\animation T=1.02117.png" arWidth="640" arHeight="480" duration="0" songTitle="" songArtist="" songAlbum="" songCopyrightUrl="" songArtistUrl="" songAudioFileUrl="" stabilizationMode="0" mediaItemType="2" />
    <MediaItem id="2118" filePath="C:\Users\owner\Dropbox\Work\png\animation T=1.02118.png" arWidth="640" arHeight="480" duration="0" songTitle="" songArtist="" songAlbum="" songCopyrightUrl="" songArtistUrl="" songAudioFileUrl="" stabilizationMode="0" mediaItemType="2" />
    <MediaItem id="2119" filePath="C:\Users\owner\Dropbox\Work\png\animation T=1.02119.png" arWidth="640" arHeight="480" duration="0" songTitle="" songArtist="" songAlbum="" songCopyrightUrl="" songArtistUrl="" songAudioFileUrl="" stabilizationMode="0" mediaItemType="2" />
    <MediaItem id="2120" filePath="C:\Users\owner\Dropbox\Work\png\animation T=1.02120.png" arWidth="640" arHeight="480" duration="0" songTitle="" songArtist="" songAlbum="" songCopyrightUrl="" songArtistUrl="" songAudioFileUrl="" stabilizationMode="0" mediaItemType="2" />
    <MediaItem id="2121" filePath="C:\Users\owner\Dropbox\Work\png\animation T=1.02121.png" arWidth="640" arHeight="480" duration="0" songTitle="" songArtist="" songAlbum="" songCopyrightUrl="" songArtistUrl="" songAudioFileUrl="" stabilizationMode="0" mediaItemType="2" />
    <MediaItem id="2122" filePath="C:\Users\owner\Dropbox\Work\png\animation T=1.02122.png" arWidth="640" arHeight="480" duration="0" songTitle="" songArtist="" songAlbum="" songCopyrightUrl="" songArtistUrl="" songAudioFileUrl="" stabilizationMode="0" mediaItemType="2" />
    <MediaItem id="2123" filePath="C:\Users\owner\Dropbox\Work\png\animation T=1.02123.png" arWidth="640" arHeight="480" duration="0" songTitle="" songArtist="" songAlbum="" songCopyrightUrl="" songArtistUrl="" songAudioFileUrl="" stabilizationMode="0" mediaItemType="2" />
    <MediaItem id="2124" filePath="C:\Users\owner\Dropbox\Work\png\animation T=1.02124.png" arWidth="640" arHeight="480" duration="0" songTitle="" songArtist="" songAlbum="" songCopyrightUrl="" songArtistUrl="" songAudioFileUrl="" stabilizationMode="0" mediaItemType="2" />
    <MediaItem id="2125" filePath="C:\Users\owner\Dropbox\Work\png\animation T=1.02125.png" arWidth="640" arHeight="480" duration="0" songTitle="" songArtist="" songAlbum="" songCopyrightUrl="" songArtistUrl="" songAudioFileUrl="" stabilizationMode="0" mediaItemType="2" />
    <MediaItem id="2126" filePath="C:\Users\owner\Dropbox\Work\png\animation T=1.02126.png" arWidth="640" arHeight="480" duration="0" songTitle="" songArtist="" songAlbum="" songCopyrightUrl="" songArtistUrl="" songAudioFileUrl="" stabilizationMode="0" mediaItemType="2" />
    <MediaItem id="2127" filePath="C:\Users\owner\Dropbox\Work\png\animation T=1.02127.png" arWidth="640" arHeight="480" duration="0" songTitle="" songArtist="" songAlbum="" songCopyrightUrl="" songArtistUrl="" songAudioFileUrl="" stabilizationMode="0" mediaItemType="2" />
    <MediaItem id="2128" filePath="C:\Users\owner\Dropbox\Work\png\animation T=1.02128.png" arWidth="640" arHeight="480" duration="0" songTitle="" songArtist="" songAlbum="" songCopyrightUrl="" songArtistUrl="" songAudioFileUrl="" stabilizationMode="0" mediaItemType="2" />
    <MediaItem id="2129" filePath="C:\Users\owner\Dropbox\Work\png\animation T=1.02129.png" arWidth="640" arHeight="480" duration="0" songTitle="" songArtist="" songAlbum="" songCopyrightUrl="" songArtistUrl="" songAudioFileUrl="" stabilizationMode="0" mediaItemType="2" />
    <MediaItem id="2130" filePath="C:\Users\owner\Dropbox\Work\png\animation T=1.02130.png" arWidth="640" arHeight="480" duration="0" songTitle="" songArtist="" songAlbum="" songCopyrightUrl="" songArtistUrl="" songAudioFileUrl="" stabilizationMode="0" mediaItemType="2" />
    <MediaItem id="2131" filePath="C:\Users\owner\Dropbox\Work\png\animation T=1.02131.png" arWidth="640" arHeight="480" duration="0" songTitle="" songArtist="" songAlbum="" songCopyrightUrl="" songArtistUrl="" songAudioFileUrl="" stabilizationMode="0" mediaItemType="2" />
    <MediaItem id="2132" filePath="C:\Users\owner\Dropbox\Work\png\animation T=1.02132.png" arWidth="640" arHeight="480" duration="0" songTitle="" songArtist="" songAlbum="" songCopyrightUrl="" songArtistUrl="" songAudioFileUrl="" stabilizationMode="0" mediaItemType="2" />
    <MediaItem id="2133" filePath="C:\Users\owner\Dropbox\Work\png\animation T=1.02133.png" arWidth="640" arHeight="480" duration="0" songTitle="" songArtist="" songAlbum="" songCopyrightUrl="" songArtistUrl="" songAudioFileUrl="" stabilizationMode="0" mediaItemType="2" />
    <MediaItem id="2134" filePath="C:\Users\owner\Dropbox\Work\png\animation T=1.02134.png" arWidth="640" arHeight="480" duration="0" songTitle="" songArtist="" songAlbum="" songCopyrightUrl="" songArtistUrl="" songAudioFileUrl="" stabilizationMode="0" mediaItemType="2" />
    <MediaItem id="2135" filePath="C:\Users\owner\Dropbox\Work\png\animation T=1.02135.png" arWidth="640" arHeight="480" duration="0" songTitle="" songArtist="" songAlbum="" songCopyrightUrl="" songArtistUrl="" songAudioFileUrl="" stabilizationMode="0" mediaItemType="2" />
    <MediaItem id="2136" filePath="C:\Users\owner\Dropbox\Work\png\animation T=1.02136.png" arWidth="640" arHeight="480" duration="0" songTitle="" songArtist="" songAlbum="" songCopyrightUrl="" songArtistUrl="" songAudioFileUrl="" stabilizationMode="0" mediaItemType="2" />
    <MediaItem id="2137" filePath="C:\Users\owner\Dropbox\Work\png\animation T=1.02137.png" arWidth="640" arHeight="480" duration="0" songTitle="" songArtist="" songAlbum="" songCopyrightUrl="" songArtistUrl="" songAudioFileUrl="" stabilizationMode="0" mediaItemType="2" />
    <MediaItem id="2138" filePath="C:\Users\owner\Dropbox\Work\png\animation T=1.02138.png" arWidth="640" arHeight="480" duration="0" songTitle="" songArtist="" songAlbum="" songCopyrightUrl="" songArtistUrl="" songAudioFileUrl="" stabilizationMode="0" mediaItemType="2" />
    <MediaItem id="2139" filePath="C:\Users\owner\Dropbox\Work\png\animation T=1.02139.png" arWidth="640" arHeight="480" duration="0" songTitle="" songArtist="" songAlbum="" songCopyrightUrl="" songArtistUrl="" songAudioFileUrl="" stabilizationMode="0" mediaItemType="2" />
    <MediaItem id="2140" filePath="C:\Users\owner\Dropbox\Work\png\animation T=1.02140.png" arWidth="640" arHeight="480" duration="0" songTitle="" songArtist="" songAlbum="" songCopyrightUrl="" songArtistUrl="" songAudioFileUrl="" stabilizationMode="0" mediaItemType="2" />
    <MediaItem id="2141" filePath="C:\Users\owner\Dropbox\Work\png\animation T=1.02141.png" arWidth="640" arHeight="480" duration="0" songTitle="" songArtist="" songAlbum="" songCopyrightUrl="" songArtistUrl="" songAudioFileUrl="" stabilizationMode="0" mediaItemType="2" />
    <MediaItem id="2142" filePath="C:\Users\owner\Dropbox\Work\png\animation T=1.02142.png" arWidth="640" arHeight="480" duration="0" songTitle="" songArtist="" songAlbum="" songCopyrightUrl="" songArtistUrl="" songAudioFileUrl="" stabilizationMode="0" mediaItemType="2" />
    <MediaItem id="2143" filePath="C:\Users\owner\Dropbox\Work\png\animation T=1.02143.png" arWidth="640" arHeight="480" duration="0" songTitle="" songArtist="" songAlbum="" songCopyrightUrl="" songArtistUrl="" songAudioFileUrl="" stabilizationMode="0" mediaItemType="2" />
    <MediaItem id="2144" filePath="C:\Users\owner\Dropbox\Work\png\animation T=1.02144.png" arWidth="640" arHeight="480" duration="0" songTitle="" songArtist="" songAlbum="" songCopyrightUrl="" songArtistUrl="" songAudioFileUrl="" stabilizationMode="0" mediaItemType="2" />
    <MediaItem id="2145" filePath="C:\Users\owner\Dropbox\Work\png\animation T=1.02145.png" arWidth="640" arHeight="480" duration="0" songTitle="" songArtist="" songAlbum="" songCopyrightUrl="" songArtistUrl="" songAudioFileUrl="" stabilizationMode="0" mediaItemType="2" />
    <MediaItem id="2146" filePath="C:\Users\owner\Dropbox\Work\png\animation T=1.02146.png" arWidth="640" arHeight="480" duration="0" songTitle="" songArtist="" songAlbum="" songCopyrightUrl="" songArtistUrl="" songAudioFileUrl="" stabilizationMode="0" mediaItemType="2" />
    <MediaItem id="2147" filePath="C:\Users\owner\Dropbox\Work\png\animation T=1.02147.png" arWidth="640" arHeight="480" duration="0" songTitle="" songArtist="" songAlbum="" songCopyrightUrl="" songArtistUrl="" songAudioFileUrl="" stabilizationMode="0" mediaItemType="2" />
    <MediaItem id="2148" filePath="C:\Users\owner\Dropbox\Work\png\animation T=1.02148.png" arWidth="640" arHeight="480" duration="0" songTitle="" songArtist="" songAlbum="" songCopyrightUrl="" songArtistUrl="" songAudioFileUrl="" stabilizationMode="0" mediaItemType="2" />
    <MediaItem id="2149" filePath="C:\Users\owner\Dropbox\Work\png\animation T=1.02149.png" arWidth="640" arHeight="480" duration="0" songTitle="" songArtist="" songAlbum="" songCopyrightUrl="" songArtistUrl="" songAudioFileUrl="" stabilizationMode="0" mediaItemType="2" />
    <MediaItem id="2150" filePath="C:\Users\owner\Dropbox\Work\png\animation T=1.02150.png" arWidth="640" arHeight="480" duration="0" songTitle="" songArtist="" songAlbum="" songCopyrightUrl="" songArtistUrl="" songAudioFileUrl="" stabilizationMode="0" mediaItemType="2" />
    <MediaItem id="2151" filePath="C:\Users\owner\Dropbox\Work\png\animation T=1.02151.png" arWidth="640" arHeight="480" duration="0" songTitle="" songArtist="" songAlbum="" songCopyrightUrl="" songArtistUrl="" songAudioFileUrl="" stabilizationMode="0" mediaItemType="2" />
    <MediaItem id="2152" filePath="C:\Users\owner\Dropbox\Work\png\animation T=1.02152.png" arWidth="640" arHeight="480" duration="0" songTitle="" songArtist="" songAlbum="" songCopyrightUrl="" songArtistUrl="" songAudioFileUrl="" stabilizationMode="0" mediaItemType="2" />
    <MediaItem id="2153" filePath="C:\Users\owner\Dropbox\Work\png\animation T=1.02153.png" arWidth="640" arHeight="480" duration="0" songTitle="" songArtist="" songAlbum="" songCopyrightUrl="" songArtistUrl="" songAudioFileUrl="" stabilizationMode="0" mediaItemType="2" />
    <MediaItem id="2154" filePath="C:\Users\owner\Dropbox\Work\png\animation T=1.02154.png" arWidth="640" arHeight="480" duration="0" songTitle="" songArtist="" songAlbum="" songCopyrightUrl="" songArtistUrl="" songAudioFileUrl="" stabilizationMode="0" mediaItemType="2" />
    <MediaItem id="2155" filePath="C:\Users\owner\Dropbox\Work\png\animation T=1.02155.png" arWidth="640" arHeight="480" duration="0" songTitle="" songArtist="" songAlbum="" songCopyrightUrl="" songArtistUrl="" songAudioFileUrl="" stabilizationMode="0" mediaItemType="2" />
    <MediaItem id="2156" filePath="C:\Users\owner\Dropbox\Work\png\animation T=1.02156.png" arWidth="640" arHeight="480" duration="0" songTitle="" songArtist="" songAlbum="" songCopyrightUrl="" songArtistUrl="" songAudioFileUrl="" stabilizationMode="0" mediaItemType="2" />
    <MediaItem id="2157" filePath="C:\Users\owner\Dropbox\Work\png\animation T=1.02157.png" arWidth="640" arHeight="480" duration="0" songTitle="" songArtist="" songAlbum="" songCopyrightUrl="" songArtistUrl="" songAudioFileUrl="" stabilizationMode="0" mediaItemType="2" />
    <MediaItem id="2158" filePath="C:\Users\owner\Dropbox\Work\png\animation T=1.02158.png" arWidth="640" arHeight="480" duration="0" songTitle="" songArtist="" songAlbum="" songCopyrightUrl="" songArtistUrl="" songAudioFileUrl="" stabilizationMode="0" mediaItemType="2" />
    <MediaItem id="2159" filePath="C:\Users\owner\Dropbox\Work\png\animation T=1.02159.png" arWidth="640" arHeight="480" duration="0" songTitle="" songArtist="" songAlbum="" songCopyrightUrl="" songArtistUrl="" songAudioFileUrl="" stabilizationMode="0" mediaItemType="2" />
    <MediaItem id="2160" filePath="C:\Users\owner\Dropbox\Work\png\animation T=1.02160.png" arWidth="640" arHeight="480" duration="0" songTitle="" songArtist="" songAlbum="" songCopyrightUrl="" songArtistUrl="" songAudioFileUrl="" stabilizationMode="0" mediaItemType="2" />
    <MediaItem id="2161" filePath="C:\Users\owner\Dropbox\Work\png\animation T=1.02161.png" arWidth="640" arHeight="480" duration="0" songTitle="" songArtist="" songAlbum="" songCopyrightUrl="" songArtistUrl="" songAudioFileUrl="" stabilizationMode="0" mediaItemType="2" />
    <MediaItem id="2162" filePath="C:\Users\owner\Dropbox\Work\png\animation T=1.02162.png" arWidth="640" arHeight="480" duration="0" songTitle="" songArtist="" songAlbum="" songCopyrightUrl="" songArtistUrl="" songAudioFileUrl="" stabilizationMode="0" mediaItemType="2" />
    <MediaItem id="2163" filePath="C:\Users\owner\Dropbox\Work\png\animation T=1.02163.png" arWidth="640" arHeight="480" duration="0" songTitle="" songArtist="" songAlbum="" songCopyrightUrl="" songArtistUrl="" songAudioFileUrl="" stabilizationMode="0" mediaItemType="2" />
    <MediaItem id="2164" filePath="C:\Users\owner\Dropbox\Work\png\animation T=1.02164.png" arWidth="640" arHeight="480" duration="0" songTitle="" songArtist="" songAlbum="" songCopyrightUrl="" songArtistUrl="" songAudioFileUrl="" stabilizationMode="0" mediaItemType="2" />
    <MediaItem id="2165" filePath="C:\Users\owner\Dropbox\Work\png\animation T=1.02165.png" arWidth="640" arHeight="480" duration="0" songTitle="" songArtist="" songAlbum="" songCopyrightUrl="" songArtistUrl="" songAudioFileUrl="" stabilizationMode="0" mediaItemType="2" />
    <MediaItem id="2166" filePath="C:\Users\owner\Dropbox\Work\png\animation T=1.02166.png" arWidth="640" arHeight="480" duration="0" songTitle="" songArtist="" songAlbum="" songCopyrightUrl="" songArtistUrl="" songAudioFileUrl="" stabilizationMode="0" mediaItemType="2" />
    <MediaItem id="2167" filePath="C:\Users\owner\Dropbox\Work\png\animation T=1.02167.png" arWidth="640" arHeight="480" duration="0" songTitle="" songArtist="" songAlbum="" songCopyrightUrl="" songArtistUrl="" songAudioFileUrl="" stabilizationMode="0" mediaItemType="2" />
    <MediaItem id="2168" filePath="C:\Users\owner\Dropbox\Work\png\animation T=1.02168.png" arWidth="640" arHeight="480" duration="0" songTitle="" songArtist="" songAlbum="" songCopyrightUrl="" songArtistUrl="" songAudioFileUrl="" stabilizationMode="0" mediaItemType="2" />
    <MediaItem id="2169" filePath="C:\Users\owner\Dropbox\Work\png\animation T=1.02169.png" arWidth="640" arHeight="480" duration="0" songTitle="" songArtist="" songAlbum="" songCopyrightUrl="" songArtistUrl="" songAudioFileUrl="" stabilizationMode="0" mediaItemType="2" />
    <MediaItem id="2170" filePath="C:\Users\owner\Dropbox\Work\png\animation T=1.02170.png" arWidth="640" arHeight="480" duration="0" songTitle="" songArtist="" songAlbum="" songCopyrightUrl="" songArtistUrl="" songAudioFileUrl="" stabilizationMode="0" mediaItemType="2" />
    <MediaItem id="2171" filePath="C:\Users\owner\Dropbox\Work\png\animation T=1.02171.png" arWidth="640" arHeight="480" duration="0" songTitle="" songArtist="" songAlbum="" songCopyrightUrl="" songArtistUrl="" songAudioFileUrl="" stabilizationMode="0" mediaItemType="2" />
    <MediaItem id="2172" filePath="C:\Users\owner\Dropbox\Work\png\animation T=1.02172.png" arWidth="640" arHeight="480" duration="0" songTitle="" songArtist="" songAlbum="" songCopyrightUrl="" songArtistUrl="" songAudioFileUrl="" stabilizationMode="0" mediaItemType="2" />
    <MediaItem id="2173" filePath="C:\Users\owner\Dropbox\Work\png\animation T=1.02173.png" arWidth="640" arHeight="480" duration="0" songTitle="" songArtist="" songAlbum="" songCopyrightUrl="" songArtistUrl="" songAudioFileUrl="" stabilizationMode="0" mediaItemType="2" />
    <MediaItem id="2174" filePath="C:\Users\owner\Dropbox\Work\png\animation T=1.02174.png" arWidth="640" arHeight="480" duration="0" songTitle="" songArtist="" songAlbum="" songCopyrightUrl="" songArtistUrl="" songAudioFileUrl="" stabilizationMode="0" mediaItemType="2" />
    <MediaItem id="2175" filePath="C:\Users\owner\Dropbox\Work\png\animation T=1.02175.png" arWidth="640" arHeight="480" duration="0" songTitle="" songArtist="" songAlbum="" songCopyrightUrl="" songArtistUrl="" songAudioFileUrl="" stabilizationMode="0" mediaItemType="2" />
    <MediaItem id="2176" filePath="C:\Users\owner\Dropbox\Work\png\animation T=1.02176.png" arWidth="640" arHeight="480" duration="0" songTitle="" songArtist="" songAlbum="" songCopyrightUrl="" songArtistUrl="" songAudioFileUrl="" stabilizationMode="0" mediaItemType="2" />
    <MediaItem id="2177" filePath="C:\Users\owner\Dropbox\Work\png\animation T=1.02177.png" arWidth="640" arHeight="480" duration="0" songTitle="" songArtist="" songAlbum="" songCopyrightUrl="" songArtistUrl="" songAudioFileUrl="" stabilizationMode="0" mediaItemType="2" />
    <MediaItem id="2178" filePath="C:\Users\owner\Dropbox\Work\png\animation T=1.02178.png" arWidth="640" arHeight="480" duration="0" songTitle="" songArtist="" songAlbum="" songCopyrightUrl="" songArtistUrl="" songAudioFileUrl="" stabilizationMode="0" mediaItemType="2" />
    <MediaItem id="2179" filePath="C:\Users\owner\Dropbox\Work\png\animation T=1.02179.png" arWidth="640" arHeight="480" duration="0" songTitle="" songArtist="" songAlbum="" songCopyrightUrl="" songArtistUrl="" songAudioFileUrl="" stabilizationMode="0" mediaItemType="2" />
    <MediaItem id="2180" filePath="C:\Users\owner\Dropbox\Work\png\animation T=1.02180.png" arWidth="640" arHeight="480" duration="0" songTitle="" songArtist="" songAlbum="" songCopyrightUrl="" songArtistUrl="" songAudioFileUrl="" stabilizationMode="0" mediaItemType="2" />
    <MediaItem id="2181" filePath="C:\Users\owner\Dropbox\Work\png\animation T=1.02181.png" arWidth="640" arHeight="480" duration="0" songTitle="" songArtist="" songAlbum="" songCopyrightUrl="" songArtistUrl="" songAudioFileUrl="" stabilizationMode="0" mediaItemType="2" />
    <MediaItem id="2182" filePath="C:\Users\owner\Dropbox\Work\png\animation T=1.02182.png" arWidth="640" arHeight="480" duration="0" songTitle="" songArtist="" songAlbum="" songCopyrightUrl="" songArtistUrl="" songAudioFileUrl="" stabilizationMode="0" mediaItemType="2" />
    <MediaItem id="2183" filePath="C:\Users\owner\Dropbox\Work\png\animation T=1.02183.png" arWidth="640" arHeight="480" duration="0" songTitle="" songArtist="" songAlbum="" songCopyrightUrl="" songArtistUrl="" songAudioFileUrl="" stabilizationMode="0" mediaItemType="2" />
    <MediaItem id="2184" filePath="C:\Users\owner\Dropbox\Work\png\animation T=1.02184.png" arWidth="640" arHeight="480" duration="0" songTitle="" songArtist="" songAlbum="" songCopyrightUrl="" songArtistUrl="" songAudioFileUrl="" stabilizationMode="0" mediaItemType="2" />
    <MediaItem id="2185" filePath="C:\Users\owner\Dropbox\Work\png\animation T=1.02185.png" arWidth="640" arHeight="480" duration="0" songTitle="" songArtist="" songAlbum="" songCopyrightUrl="" songArtistUrl="" songAudioFileUrl="" stabilizationMode="0" mediaItemType="2" />
    <MediaItem id="2186" filePath="C:\Users\owner\Dropbox\Work\png\animation T=1.02186.png" arWidth="640" arHeight="480" duration="0" songTitle="" songArtist="" songAlbum="" songCopyrightUrl="" songArtistUrl="" songAudioFileUrl="" stabilizationMode="0" mediaItemType="2" />
    <MediaItem id="2187" filePath="C:\Users\owner\Dropbox\Work\png\animation T=1.02187.png" arWidth="640" arHeight="480" duration="0" songTitle="" songArtist="" songAlbum="" songCopyrightUrl="" songArtistUrl="" songAudioFileUrl="" stabilizationMode="0" mediaItemType="2" />
    <MediaItem id="2188" filePath="C:\Users\owner\Dropbox\Work\png\animation T=1.02188.png" arWidth="640" arHeight="480" duration="0" songTitle="" songArtist="" songAlbum="" songCopyrightUrl="" songArtistUrl="" songAudioFileUrl="" stabilizationMode="0" mediaItemType="2" />
    <MediaItem id="2189" filePath="C:\Users\owner\Dropbox\Work\png\animation T=1.02189.png" arWidth="640" arHeight="480" duration="0" songTitle="" songArtist="" songAlbum="" songCopyrightUrl="" songArtistUrl="" songAudioFileUrl="" stabilizationMode="0" mediaItemType="2" />
    <MediaItem id="2190" filePath="C:\Users\owner\Dropbox\Work\png\animation T=1.02190.png" arWidth="640" arHeight="480" duration="0" songTitle="" songArtist="" songAlbum="" songCopyrightUrl="" songArtistUrl="" songAudioFileUrl="" stabilizationMode="0" mediaItemType="2" />
    <MediaItem id="2191" filePath="C:\Users\owner\Dropbox\Work\png\animation T=1.02191.png" arWidth="640" arHeight="480" duration="0" songTitle="" songArtist="" songAlbum="" songCopyrightUrl="" songArtistUrl="" songAudioFileUrl="" stabilizationMode="0" mediaItemType="2" />
    <MediaItem id="2192" filePath="C:\Users\owner\Dropbox\Work\png\animation T=1.02192.png" arWidth="640" arHeight="480" duration="0" songTitle="" songArtist="" songAlbum="" songCopyrightUrl="" songArtistUrl="" songAudioFileUrl="" stabilizationMode="0" mediaItemType="2" />
    <MediaItem id="2193" filePath="C:\Users\owner\Dropbox\Work\png\animation T=1.02193.png" arWidth="640" arHeight="480" duration="0" songTitle="" songArtist="" songAlbum="" songCopyrightUrl="" songArtistUrl="" songAudioFileUrl="" stabilizationMode="0" mediaItemType="2" />
    <MediaItem id="2194" filePath="C:\Users\owner\Dropbox\Work\png\animation T=1.02194.png" arWidth="640" arHeight="480" duration="0" songTitle="" songArtist="" songAlbum="" songCopyrightUrl="" songArtistUrl="" songAudioFileUrl="" stabilizationMode="0" mediaItemType="2" />
    <MediaItem id="2195" filePath="C:\Users\owner\Dropbox\Work\png\animation T=1.02195.png" arWidth="640" arHeight="480" duration="0" songTitle="" songArtist="" songAlbum="" songCopyrightUrl="" songArtistUrl="" songAudioFileUrl="" stabilizationMode="0" mediaItemType="2" />
    <MediaItem id="2196" filePath="C:\Users\owner\Dropbox\Work\png\animation T=1.02196.png" arWidth="640" arHeight="480" duration="0" songTitle="" songArtist="" songAlbum="" songCopyrightUrl="" songArtistUrl="" songAudioFileUrl="" stabilizationMode="0" mediaItemType="2" />
    <MediaItem id="2197" filePath="C:\Users\owner\Dropbox\Work\png\animation T=1.02197.png" arWidth="640" arHeight="480" duration="0" songTitle="" songArtist="" songAlbum="" songCopyrightUrl="" songArtistUrl="" songAudioFileUrl="" stabilizationMode="0" mediaItemType="2" />
    <MediaItem id="2198" filePath="C:\Users\owner\Dropbox\Work\png\animation T=1.02198.png" arWidth="640" arHeight="480" duration="0" songTitle="" songArtist="" songAlbum="" songCopyrightUrl="" songArtistUrl="" songAudioFileUrl="" stabilizationMode="0" mediaItemType="2" />
    <MediaItem id="2199" filePath="C:\Users\owner\Dropbox\Work\png\animation T=1.02199.png" arWidth="640" arHeight="480" duration="0" songTitle="" songArtist="" songAlbum="" songCopyrightUrl="" songArtistUrl="" songAudioFileUrl="" stabilizationMode="0" mediaItemType="2" />
    <MediaItem id="2200" filePath="C:\Users\owner\Dropbox\Work\png\animation T=1.02200.png" arWidth="640" arHeight="480" duration="0" songTitle="" songArtist="" songAlbum="" songCopyrightUrl="" songArtistUrl="" songAudioFileUrl="" stabilizationMode="0" mediaItemType="2" />
    <MediaItem id="2201" filePath="C:\Users\owner\Dropbox\Work\png\animation T=1.02201.png" arWidth="640" arHeight="480" duration="0" songTitle="" songArtist="" songAlbum="" songCopyrightUrl="" songArtistUrl="" songAudioFileUrl="" stabilizationMode="0" mediaItemType="2" />
    <MediaItem id="2202" filePath="C:\Users\owner\Dropbox\Work\png\animation T=1.02202.png" arWidth="640" arHeight="480" duration="0" songTitle="" songArtist="" songAlbum="" songCopyrightUrl="" songArtistUrl="" songAudioFileUrl="" stabilizationMode="0" mediaItemType="2" />
    <MediaItem id="2203" filePath="C:\Users\owner\Dropbox\Work\png\animation T=1.02203.png" arWidth="640" arHeight="480" duration="0" songTitle="" songArtist="" songAlbum="" songCopyrightUrl="" songArtistUrl="" songAudioFileUrl="" stabilizationMode="0" mediaItemType="2" />
    <MediaItem id="2204" filePath="C:\Users\owner\Dropbox\Work\png\animation T=1.02204.png" arWidth="640" arHeight="480" duration="0" songTitle="" songArtist="" songAlbum="" songCopyrightUrl="" songArtistUrl="" songAudioFileUrl="" stabilizationMode="0" mediaItemType="2" />
    <MediaItem id="2205" filePath="C:\Users\owner\Dropbox\Work\png\animation T=1.02205.png" arWidth="640" arHeight="480" duration="0" songTitle="" songArtist="" songAlbum="" songCopyrightUrl="" songArtistUrl="" songAudioFileUrl="" stabilizationMode="0" mediaItemType="2" />
    <MediaItem id="2206" filePath="C:\Users\owner\Dropbox\Work\png\animation T=1.02206.png" arWidth="640" arHeight="480" duration="0" songTitle="" songArtist="" songAlbum="" songCopyrightUrl="" songArtistUrl="" songAudioFileUrl="" stabilizationMode="0" mediaItemType="2" />
    <MediaItem id="2207" filePath="C:\Users\owner\Dropbox\Work\png\animation T=1.02207.png" arWidth="640" arHeight="480" duration="0" songTitle="" songArtist="" songAlbum="" songCopyrightUrl="" songArtistUrl="" songAudioFileUrl="" stabilizationMode="0" mediaItemType="2" />
    <MediaItem id="2208" filePath="C:\Users\owner\Dropbox\Work\png\animation T=1.02208.png" arWidth="640" arHeight="480" duration="0" songTitle="" songArtist="" songAlbum="" songCopyrightUrl="" songArtistUrl="" songAudioFileUrl="" stabilizationMode="0" mediaItemType="2" />
    <MediaItem id="2209" filePath="C:\Users\owner\Dropbox\Work\png\animation T=1.02209.png" arWidth="640" arHeight="480" duration="0" songTitle="" songArtist="" songAlbum="" songCopyrightUrl="" songArtistUrl="" songAudioFileUrl="" stabilizationMode="0" mediaItemType="2" />
    <MediaItem id="2210" filePath="C:\Users\owner\Dropbox\Work\png\animation T=1.02210.png" arWidth="640" arHeight="480" duration="0" songTitle="" songArtist="" songAlbum="" songCopyrightUrl="" songArtistUrl="" songAudioFileUrl="" stabilizationMode="0" mediaItemType="2" />
    <MediaItem id="2211" filePath="C:\Users\owner\Dropbox\Work\png\animation T=1.02211.png" arWidth="640" arHeight="480" duration="0" songTitle="" songArtist="" songAlbum="" songCopyrightUrl="" songArtistUrl="" songAudioFileUrl="" stabilizationMode="0" mediaItemType="2" />
    <MediaItem id="2212" filePath="C:\Users\owner\Dropbox\Work\png\animation T=1.02212.png" arWidth="640" arHeight="480" duration="0" songTitle="" songArtist="" songAlbum="" songCopyrightUrl="" songArtistUrl="" songAudioFileUrl="" stabilizationMode="0" mediaItemType="2" />
    <MediaItem id="2213" filePath="C:\Users\owner\Dropbox\Work\png\animation T=1.02213.png" arWidth="640" arHeight="480" duration="0" songTitle="" songArtist="" songAlbum="" songCopyrightUrl="" songArtistUrl="" songAudioFileUrl="" stabilizationMode="0" mediaItemType="2" />
    <MediaItem id="2214" filePath="C:\Users\owner\Dropbox\Work\png\animation T=1.02214.png" arWidth="640" arHeight="480" duration="0" songTitle="" songArtist="" songAlbum="" songCopyrightUrl="" songArtistUrl="" songAudioFileUrl="" stabilizationMode="0" mediaItemType="2" />
    <MediaItem id="2215" filePath="C:\Users\owner\Dropbox\Work\png\animation T=1.02215.png" arWidth="640" arHeight="480" duration="0" songTitle="" songArtist="" songAlbum="" songCopyrightUrl="" songArtistUrl="" songAudioFileUrl="" stabilizationMode="0" mediaItemType="2" />
    <MediaItem id="2216" filePath="C:\Users\owner\Dropbox\Work\png\animation T=1.02216.png" arWidth="640" arHeight="480" duration="0" songTitle="" songArtist="" songAlbum="" songCopyrightUrl="" songArtistUrl="" songAudioFileUrl="" stabilizationMode="0" mediaItemType="2" />
    <MediaItem id="2217" filePath="C:\Users\owner\Dropbox\Work\png\animation T=1.02217.png" arWidth="640" arHeight="480" duration="0" songTitle="" songArtist="" songAlbum="" songCopyrightUrl="" songArtistUrl="" songAudioFileUrl="" stabilizationMode="0" mediaItemType="2" />
    <MediaItem id="2218" filePath="C:\Users\owner\Dropbox\Work\png\animation T=1.02218.png" arWidth="640" arHeight="480" duration="0" songTitle="" songArtist="" songAlbum="" songCopyrightUrl="" songArtistUrl="" songAudioFileUrl="" stabilizationMode="0" mediaItemType="2" />
    <MediaItem id="2219" filePath="C:\Users\owner\Dropbox\Work\png\animation T=1.02219.png" arWidth="640" arHeight="480" duration="0" songTitle="" songArtist="" songAlbum="" songCopyrightUrl="" songArtistUrl="" songAudioFileUrl="" stabilizationMode="0" mediaItemType="2" />
    <MediaItem id="2220" filePath="C:\Users\owner\Dropbox\Work\png\animation T=1.02220.png" arWidth="640" arHeight="480" duration="0" songTitle="" songArtist="" songAlbum="" songCopyrightUrl="" songArtistUrl="" songAudioFileUrl="" stabilizationMode="0" mediaItemType="2" />
    <MediaItem id="2221" filePath="C:\Users\owner\Dropbox\Work\png\animation T=1.02221.png" arWidth="640" arHeight="480" duration="0" songTitle="" songArtist="" songAlbum="" songCopyrightUrl="" songArtistUrl="" songAudioFileUrl="" stabilizationMode="0" mediaItemType="2" />
    <MediaItem id="2222" filePath="C:\Users\owner\Dropbox\Work\png\animation T=1.02222.png" arWidth="640" arHeight="480" duration="0" songTitle="" songArtist="" songAlbum="" songCopyrightUrl="" songArtistUrl="" songAudioFileUrl="" stabilizationMode="0" mediaItemType="2" />
    <MediaItem id="2223" filePath="C:\Users\owner\Dropbox\Work\png\animation T=1.02223.png" arWidth="640" arHeight="480" duration="0" songTitle="" songArtist="" songAlbum="" songCopyrightUrl="" songArtistUrl="" songAudioFileUrl="" stabilizationMode="0" mediaItemType="2" />
    <MediaItem id="2224" filePath="C:\Users\owner\Dropbox\Work\png\animation T=1.02224.png" arWidth="640" arHeight="480" duration="0" songTitle="" songArtist="" songAlbum="" songCopyrightUrl="" songArtistUrl="" songAudioFileUrl="" stabilizationMode="0" mediaItemType="2" />
    <MediaItem id="2225" filePath="C:\Users\owner\Dropbox\Work\png\animation T=1.02225.png" arWidth="640" arHeight="480" duration="0" songTitle="" songArtist="" songAlbum="" songCopyrightUrl="" songArtistUrl="" songAudioFileUrl="" stabilizationMode="0" mediaItemType="2" />
    <MediaItem id="2226" filePath="C:\Users\owner\Dropbox\Work\png\animation T=1.02226.png" arWidth="640" arHeight="480" duration="0" songTitle="" songArtist="" songAlbum="" songCopyrightUrl="" songArtistUrl="" songAudioFileUrl="" stabilizationMode="0" mediaItemType="2" />
    <MediaItem id="2227" filePath="C:\Users\owner\Dropbox\Work\png\animation T=1.02227.png" arWidth="640" arHeight="480" duration="0" songTitle="" songArtist="" songAlbum="" songCopyrightUrl="" songArtistUrl="" songAudioFileUrl="" stabilizationMode="0" mediaItemType="2" />
    <MediaItem id="2228" filePath="C:\Users\owner\Dropbox\Work\png\animation T=1.02228.png" arWidth="640" arHeight="480" duration="0" songTitle="" songArtist="" songAlbum="" songCopyrightUrl="" songArtistUrl="" songAudioFileUrl="" stabilizationMode="0" mediaItemType="2" />
    <MediaItem id="2229" filePath="C:\Users\owner\Dropbox\Work\png\animation T=1.02229.png" arWidth="640" arHeight="480" duration="0" songTitle="" songArtist="" songAlbum="" songCopyrightUrl="" songArtistUrl="" songAudioFileUrl="" stabilizationMode="0" mediaItemType="2" />
    <MediaItem id="2230" filePath="C:\Users\owner\Dropbox\Work\png\animation T=1.02230.png" arWidth="640" arHeight="480" duration="0" songTitle="" songArtist="" songAlbum="" songCopyrightUrl="" songArtistUrl="" songAudioFileUrl="" stabilizationMode="0" mediaItemType="2" />
    <MediaItem id="2231" filePath="C:\Users\owner\Dropbox\Work\png\animation T=1.02231.png" arWidth="640" arHeight="480" duration="0" songTitle="" songArtist="" songAlbum="" songCopyrightUrl="" songArtistUrl="" songAudioFileUrl="" stabilizationMode="0" mediaItemType="2" />
    <MediaItem id="2232" filePath="C:\Users\owner\Dropbox\Work\png\animation T=1.02232.png" arWidth="640" arHeight="480" duration="0" songTitle="" songArtist="" songAlbum="" songCopyrightUrl="" songArtistUrl="" songAudioFileUrl="" stabilizationMode="0" mediaItemType="2" />
    <MediaItem id="2233" filePath="C:\Users\owner\Dropbox\Work\png\animation T=1.02233.png" arWidth="640" arHeight="480" duration="0" songTitle="" songArtist="" songAlbum="" songCopyrightUrl="" songArtistUrl="" songAudioFileUrl="" stabilizationMode="0" mediaItemType="2" />
    <MediaItem id="2234" filePath="C:\Users\owner\Dropbox\Work\png\animation T=1.02234.png" arWidth="640" arHeight="480" duration="0" songTitle="" songArtist="" songAlbum="" songCopyrightUrl="" songArtistUrl="" songAudioFileUrl="" stabilizationMode="0" mediaItemType="2" />
    <MediaItem id="2235" filePath="C:\Users\owner\Dropbox\Work\png\animation T=1.02235.png" arWidth="640" arHeight="480" duration="0" songTitle="" songArtist="" songAlbum="" songCopyrightUrl="" songArtistUrl="" songAudioFileUrl="" stabilizationMode="0" mediaItemType="2" />
    <MediaItem id="2236" filePath="C:\Users\owner\Dropbox\Work\png\animation T=1.02236.png" arWidth="640" arHeight="480" duration="0" songTitle="" songArtist="" songAlbum="" songCopyrightUrl="" songArtistUrl="" songAudioFileUrl="" stabilizationMode="0" mediaItemType="2" />
    <MediaItem id="2237" filePath="C:\Users\owner\Dropbox\Work\png\animation T=1.02237.png" arWidth="640" arHeight="480" duration="0" songTitle="" songArtist="" songAlbum="" songCopyrightUrl="" songArtistUrl="" songAudioFileUrl="" stabilizationMode="0" mediaItemType="2" />
    <MediaItem id="2238" filePath="C:\Users\owner\Dropbox\Work\png\animation T=1.02238.png" arWidth="640" arHeight="480" duration="0" songTitle="" songArtist="" songAlbum="" songCopyrightUrl="" songArtistUrl="" songAudioFileUrl="" stabilizationMode="0" mediaItemType="2" />
    <MediaItem id="2239" filePath="C:\Users\owner\Dropbox\Work\png\animation T=1.02239.png" arWidth="640" arHeight="480" duration="0" songTitle="" songArtist="" songAlbum="" songCopyrightUrl="" songArtistUrl="" songAudioFileUrl="" stabilizationMode="0" mediaItemType="2" />
    <MediaItem id="2240" filePath="C:\Users\owner\Dropbox\Work\png\animation T=1.02240.png" arWidth="640" arHeight="480" duration="0" songTitle="" songArtist="" songAlbum="" songCopyrightUrl="" songArtistUrl="" songAudioFileUrl="" stabilizationMode="0" mediaItemType="2" />
    <MediaItem id="2241" filePath="C:\Users\owner\Dropbox\Work\png\animation T=1.02241.png" arWidth="640" arHeight="480" duration="0" songTitle="" songArtist="" songAlbum="" songCopyrightUrl="" songArtistUrl="" songAudioFileUrl="" stabilizationMode="0" mediaItemType="2" />
    <MediaItem id="2242" filePath="C:\Users\owner\Dropbox\Work\png\animation T=1.02242.png" arWidth="640" arHeight="480" duration="0" songTitle="" songArtist="" songAlbum="" songCopyrightUrl="" songArtistUrl="" songAudioFileUrl="" stabilizationMode="0" mediaItemType="2" />
    <MediaItem id="2243" filePath="C:\Users\owner\Dropbox\Work\png\animation T=1.02243.png" arWidth="640" arHeight="480" duration="0" songTitle="" songArtist="" songAlbum="" songCopyrightUrl="" songArtistUrl="" songAudioFileUrl="" stabilizationMode="0" mediaItemType="2" />
    <MediaItem id="2244" filePath="C:\Users\owner\Dropbox\Work\png\animation T=1.02244.png" arWidth="640" arHeight="480" duration="0" songTitle="" songArtist="" songAlbum="" songCopyrightUrl="" songArtistUrl="" songAudioFileUrl="" stabilizationMode="0" mediaItemType="2" />
    <MediaItem id="2245" filePath="C:\Users\owner\Dropbox\Work\png\animation T=1.02245.png" arWidth="640" arHeight="480" duration="0" songTitle="" songArtist="" songAlbum="" songCopyrightUrl="" songArtistUrl="" songAudioFileUrl="" stabilizationMode="0" mediaItemType="2" />
    <MediaItem id="2246" filePath="C:\Users\owner\Dropbox\Work\png\animation T=1.02246.png" arWidth="640" arHeight="480" duration="0" songTitle="" songArtist="" songAlbum="" songCopyrightUrl="" songArtistUrl="" songAudioFileUrl="" stabilizationMode="0" mediaItemType="2" />
    <MediaItem id="2247" filePath="C:\Users\owner\Dropbox\Work\png\animation T=1.02247.png" arWidth="640" arHeight="480" duration="0" songTitle="" songArtist="" songAlbum="" songCopyrightUrl="" songArtistUrl="" songAudioFileUrl="" stabilizationMode="0" mediaItemType="2" />
    <MediaItem id="2248" filePath="C:\Users\owner\Dropbox\Work\png\animation T=1.02248.png" arWidth="640" arHeight="480" duration="0" songTitle="" songArtist="" songAlbum="" songCopyrightUrl="" songArtistUrl="" songAudioFileUrl="" stabilizationMode="0" mediaItemType="2" />
    <MediaItem id="2249" filePath="C:\Users\owner\Dropbox\Work\png\animation T=1.02249.png" arWidth="640" arHeight="480" duration="0" songTitle="" songArtist="" songAlbum="" songCopyrightUrl="" songArtistUrl="" songAudioFileUrl="" stabilizationMode="0" mediaItemType="2" />
    <MediaItem id="2250" filePath="C:\Users\owner\Dropbox\Work\png\animation T=1.02250.png" arWidth="640" arHeight="480" duration="0" songTitle="" songArtist="" songAlbum="" songCopyrightUrl="" songArtistUrl="" songAudioFileUrl="" stabilizationMode="0" mediaItemType="2" />
    <MediaItem id="2251" filePath="C:\Users\owner\Dropbox\Work\png\animation T=1.02251.png" arWidth="640" arHeight="480" duration="0" songTitle="" songArtist="" songAlbum="" songCopyrightUrl="" songArtistUrl="" songAudioFileUrl="" stabilizationMode="0" mediaItemType="2" />
    <MediaItem id="2252" filePath="C:\Users\owner\Dropbox\Work\png\animation T=1.02252.png" arWidth="640" arHeight="480" duration="0" songTitle="" songArtist="" songAlbum="" songCopyrightUrl="" songArtistUrl="" songAudioFileUrl="" stabilizationMode="0" mediaItemType="2" />
    <MediaItem id="2253" filePath="C:\Users\owner\Dropbox\Work\png\animation T=1.02253.png" arWidth="640" arHeight="480" duration="0" songTitle="" songArtist="" songAlbum="" songCopyrightUrl="" songArtistUrl="" songAudioFileUrl="" stabilizationMode="0" mediaItemType="2" />
    <MediaItem id="2254" filePath="C:\Users\owner\Dropbox\Work\png\animation T=1.02254.png" arWidth="640" arHeight="480" duration="0" songTitle="" songArtist="" songAlbum="" songCopyrightUrl="" songArtistUrl="" songAudioFileUrl="" stabilizationMode="0" mediaItemType="2" />
    <MediaItem id="2255" filePath="C:\Users\owner\Dropbox\Work\png\animation T=1.02255.png" arWidth="640" arHeight="480" duration="0" songTitle="" songArtist="" songAlbum="" songCopyrightUrl="" songArtistUrl="" songAudioFileUrl="" stabilizationMode="0" mediaItemType="2" />
    <MediaItem id="2256" filePath="C:\Users\owner\Dropbox\Work\png\animation T=1.02256.png" arWidth="640" arHeight="480" duration="0" songTitle="" songArtist="" songAlbum="" songCopyrightUrl="" songArtistUrl="" songAudioFileUrl="" stabilizationMode="0" mediaItemType="2" />
    <MediaItem id="2257" filePath="C:\Users\owner\Dropbox\Work\png\animation T=1.02257.png" arWidth="640" arHeight="480" duration="0" songTitle="" songArtist="" songAlbum="" songCopyrightUrl="" songArtistUrl="" songAudioFileUrl="" stabilizationMode="0" mediaItemType="2" />
    <MediaItem id="2258" filePath="C:\Users\owner\Dropbox\Work\png\animation T=1.02258.png" arWidth="640" arHeight="480" duration="0" songTitle="" songArtist="" songAlbum="" songCopyrightUrl="" songArtistUrl="" songAudioFileUrl="" stabilizationMode="0" mediaItemType="2" />
    <MediaItem id="2259" filePath="C:\Users\owner\Dropbox\Work\png\animation T=1.02259.png" arWidth="640" arHeight="480" duration="0" songTitle="" songArtist="" songAlbum="" songCopyrightUrl="" songArtistUrl="" songAudioFileUrl="" stabilizationMode="0" mediaItemType="2" />
    <MediaItem id="2260" filePath="C:\Users\owner\Dropbox\Work\png\animation T=1.02260.png" arWidth="640" arHeight="480" duration="0" songTitle="" songArtist="" songAlbum="" songCopyrightUrl="" songArtistUrl="" songAudioFileUrl="" stabilizationMode="0" mediaItemType="2" />
    <MediaItem id="2261" filePath="C:\Users\owner\Dropbox\Work\png\animation T=1.02261.png" arWidth="640" arHeight="480" duration="0" songTitle="" songArtist="" songAlbum="" songCopyrightUrl="" songArtistUrl="" songAudioFileUrl="" stabilizationMode="0" mediaItemType="2" />
    <MediaItem id="2262" filePath="C:\Users\owner\Dropbox\Work\png\animation T=1.02262.png" arWidth="640" arHeight="480" duration="0" songTitle="" songArtist="" songAlbum="" songCopyrightUrl="" songArtistUrl="" songAudioFileUrl="" stabilizationMode="0" mediaItemType="2" />
    <MediaItem id="2263" filePath="C:\Users\owner\Dropbox\Work\png\animation T=1.02263.png" arWidth="640" arHeight="480" duration="0" songTitle="" songArtist="" songAlbum="" songCopyrightUrl="" songArtistUrl="" songAudioFileUrl="" stabilizationMode="0" mediaItemType="2" />
    <MediaItem id="2264" filePath="C:\Users\owner\Dropbox\Work\png\animation T=1.02264.png" arWidth="640" arHeight="480" duration="0" songTitle="" songArtist="" songAlbum="" songCopyrightUrl="" songArtistUrl="" songAudioFileUrl="" stabilizationMode="0" mediaItemType="2" />
    <MediaItem id="2265" filePath="C:\Users\owner\Dropbox\Work\png\animation T=1.02265.png" arWidth="640" arHeight="480" duration="0" songTitle="" songArtist="" songAlbum="" songCopyrightUrl="" songArtistUrl="" songAudioFileUrl="" stabilizationMode="0" mediaItemType="2" />
    <MediaItem id="2266" filePath="C:\Users\owner\Dropbox\Work\png\animation T=1.02266.png" arWidth="640" arHeight="480" duration="0" songTitle="" songArtist="" songAlbum="" songCopyrightUrl="" songArtistUrl="" songAudioFileUrl="" stabilizationMode="0" mediaItemType="2" />
    <MediaItem id="2267" filePath="C:\Users\owner\Dropbox\Work\png\animation T=1.02267.png" arWidth="640" arHeight="480" duration="0" songTitle="" songArtist="" songAlbum="" songCopyrightUrl="" songArtistUrl="" songAudioFileUrl="" stabilizationMode="0" mediaItemType="2" />
    <MediaItem id="2268" filePath="C:\Users\owner\Dropbox\Work\png\animation T=1.02268.png" arWidth="640" arHeight="480" duration="0" songTitle="" songArtist="" songAlbum="" songCopyrightUrl="" songArtistUrl="" songAudioFileUrl="" stabilizationMode="0" mediaItemType="2" />
    <MediaItem id="2269" filePath="C:\Users\owner\Dropbox\Work\png\animation T=1.02269.png" arWidth="640" arHeight="480" duration="0" songTitle="" songArtist="" songAlbum="" songCopyrightUrl="" songArtistUrl="" songAudioFileUrl="" stabilizationMode="0" mediaItemType="2" />
    <MediaItem id="2270" filePath="C:\Users\owner\Dropbox\Work\png\animation T=1.02270.png" arWidth="640" arHeight="480" duration="0" songTitle="" songArtist="" songAlbum="" songCopyrightUrl="" songArtistUrl="" songAudioFileUrl="" stabilizationMode="0" mediaItemType="2" />
    <MediaItem id="2271" filePath="C:\Users\owner\Dropbox\Work\png\animation T=1.02271.png" arWidth="640" arHeight="480" duration="0" songTitle="" songArtist="" songAlbum="" songCopyrightUrl="" songArtistUrl="" songAudioFileUrl="" stabilizationMode="0" mediaItemType="2" />
    <MediaItem id="2272" filePath="C:\Users\owner\Dropbox\Work\png\animation T=1.02272.png" arWidth="640" arHeight="480" duration="0" songTitle="" songArtist="" songAlbum="" songCopyrightUrl="" songArtistUrl="" songAudioFileUrl="" stabilizationMode="0" mediaItemType="2" />
    <MediaItem id="2273" filePath="C:\Users\owner\Dropbox\Work\png\animation T=1.02273.png" arWidth="640" arHeight="480" duration="0" songTitle="" songArtist="" songAlbum="" songCopyrightUrl="" songArtistUrl="" songAudioFileUrl="" stabilizationMode="0" mediaItemType="2" />
    <MediaItem id="2274" filePath="C:\Users\owner\Dropbox\Work\png\animation T=1.02274.png" arWidth="640" arHeight="480" duration="0" songTitle="" songArtist="" songAlbum="" songCopyrightUrl="" songArtistUrl="" songAudioFileUrl="" stabilizationMode="0" mediaItemType="2" />
    <MediaItem id="2275" filePath="C:\Users\owner\Dropbox\Work\png\animation T=1.02275.png" arWidth="640" arHeight="480" duration="0" songTitle="" songArtist="" songAlbum="" songCopyrightUrl="" songArtistUrl="" songAudioFileUrl="" stabilizationMode="0" mediaItemType="2" />
    <MediaItem id="2276" filePath="C:\Users\owner\Dropbox\Work\png\animation T=1.02276.png" arWidth="640" arHeight="480" duration="0" songTitle="" songArtist="" songAlbum="" songCopyrightUrl="" songArtistUrl="" songAudioFileUrl="" stabilizationMode="0" mediaItemType="2" />
    <MediaItem id="2277" filePath="C:\Users\owner\Dropbox\Work\png\animation T=1.02277.png" arWidth="640" arHeight="480" duration="0" songTitle="" songArtist="" songAlbum="" songCopyrightUrl="" songArtistUrl="" songAudioFileUrl="" stabilizationMode="0" mediaItemType="2" />
    <MediaItem id="2278" filePath="C:\Users\owner\Dropbox\Work\png\animation T=1.02278.png" arWidth="640" arHeight="480" duration="0" songTitle="" songArtist="" songAlbum="" songCopyrightUrl="" songArtistUrl="" songAudioFileUrl="" stabilizationMode="0" mediaItemType="2" />
    <MediaItem id="2279" filePath="C:\Users\owner\Dropbox\Work\png\animation T=1.02279.png" arWidth="640" arHeight="480" duration="0" songTitle="" songArtist="" songAlbum="" songCopyrightUrl="" songArtistUrl="" songAudioFileUrl="" stabilizationMode="0" mediaItemType="2" />
    <MediaItem id="2280" filePath="C:\Users\owner\Dropbox\Work\png\animation T=1.02280.png" arWidth="640" arHeight="480" duration="0" songTitle="" songArtist="" songAlbum="" songCopyrightUrl="" songArtistUrl="" songAudioFileUrl="" stabilizationMode="0" mediaItemType="2" />
    <MediaItem id="2281" filePath="C:\Users\owner\Dropbox\Work\png\animation T=1.02281.png" arWidth="640" arHeight="480" duration="0" songTitle="" songArtist="" songAlbum="" songCopyrightUrl="" songArtistUrl="" songAudioFileUrl="" stabilizationMode="0" mediaItemType="2" />
    <MediaItem id="2282" filePath="C:\Users\owner\Dropbox\Work\png\animation T=1.02282.png" arWidth="640" arHeight="480" duration="0" songTitle="" songArtist="" songAlbum="" songCopyrightUrl="" songArtistUrl="" songAudioFileUrl="" stabilizationMode="0" mediaItemType="2" />
    <MediaItem id="2283" filePath="C:\Users\owner\Dropbox\Work\png\animation T=1.02283.png" arWidth="640" arHeight="480" duration="0" songTitle="" songArtist="" songAlbum="" songCopyrightUrl="" songArtistUrl="" songAudioFileUrl="" stabilizationMode="0" mediaItemType="2" />
    <MediaItem id="2284" filePath="C:\Users\owner\Dropbox\Work\png\animation T=1.02284.png" arWidth="640" arHeight="480" duration="0" songTitle="" songArtist="" songAlbum="" songCopyrightUrl="" songArtistUrl="" songAudioFileUrl="" stabilizationMode="0" mediaItemType="2" />
    <MediaItem id="2285" filePath="C:\Users\owner\Dropbox\Work\png\animation T=1.02285.png" arWidth="640" arHeight="480" duration="0" songTitle="" songArtist="" songAlbum="" songCopyrightUrl="" songArtistUrl="" songAudioFileUrl="" stabilizationMode="0" mediaItemType="2" />
    <MediaItem id="2286" filePath="C:\Users\owner\Dropbox\Work\png\animation T=1.02286.png" arWidth="640" arHeight="480" duration="0" songTitle="" songArtist="" songAlbum="" songCopyrightUrl="" songArtistUrl="" songAudioFileUrl="" stabilizationMode="0" mediaItemType="2" />
    <MediaItem id="2287" filePath="C:\Users\owner\Dropbox\Work\png\animation T=1.02287.png" arWidth="640" arHeight="480" duration="0" songTitle="" songArtist="" songAlbum="" songCopyrightUrl="" songArtistUrl="" songAudioFileUrl="" stabilizationMode="0" mediaItemType="2" />
    <MediaItem id="2288" filePath="C:\Users\owner\Dropbox\Work\png\animation T=1.02288.png" arWidth="640" arHeight="480" duration="0" songTitle="" songArtist="" songAlbum="" songCopyrightUrl="" songArtistUrl="" songAudioFileUrl="" stabilizationMode="0" mediaItemType="2" />
    <MediaItem id="2289" filePath="C:\Users\owner\Dropbox\Work\png\animation T=1.02289.png" arWidth="640" arHeight="480" duration="0" songTitle="" songArtist="" songAlbum="" songCopyrightUrl="" songArtistUrl="" songAudioFileUrl="" stabilizationMode="0" mediaItemType="2" />
    <MediaItem id="2290" filePath="C:\Users\owner\Dropbox\Work\png\animation T=1.02290.png" arWidth="640" arHeight="480" duration="0" songTitle="" songArtist="" songAlbum="" songCopyrightUrl="" songArtistUrl="" songAudioFileUrl="" stabilizationMode="0" mediaItemType="2" />
    <MediaItem id="2291" filePath="C:\Users\owner\Dropbox\Work\png\animation T=1.02291.png" arWidth="640" arHeight="480" duration="0" songTitle="" songArtist="" songAlbum="" songCopyrightUrl="" songArtistUrl="" songAudioFileUrl="" stabilizationMode="0" mediaItemType="2" />
    <MediaItem id="2292" filePath="C:\Users\owner\Dropbox\Work\png\animation T=1.02292.png" arWidth="640" arHeight="480" duration="0" songTitle="" songArtist="" songAlbum="" songCopyrightUrl="" songArtistUrl="" songAudioFileUrl="" stabilizationMode="0" mediaItemType="2" />
    <MediaItem id="2293" filePath="C:\Users\owner\Dropbox\Work\png\animation T=1.02293.png" arWidth="640" arHeight="480" duration="0" songTitle="" songArtist="" songAlbum="" songCopyrightUrl="" songArtistUrl="" songAudioFileUrl="" stabilizationMode="0" mediaItemType="2" />
    <MediaItem id="2294" filePath="C:\Users\owner\Dropbox\Work\png\animation T=1.02294.png" arWidth="640" arHeight="480" duration="0" songTitle="" songArtist="" songAlbum="" songCopyrightUrl="" songArtistUrl="" songAudioFileUrl="" stabilizationMode="0" mediaItemType="2" />
    <MediaItem id="2295" filePath="C:\Users\owner\Dropbox\Work\png\animation T=1.02295.png" arWidth="640" arHeight="480" duration="0" songTitle="" songArtist="" songAlbum="" songCopyrightUrl="" songArtistUrl="" songAudioFileUrl="" stabilizationMode="0" mediaItemType="2" />
    <MediaItem id="2296" filePath="C:\Users\owner\Dropbox\Work\png\animation T=1.02296.png" arWidth="640" arHeight="480" duration="0" songTitle="" songArtist="" songAlbum="" songCopyrightUrl="" songArtistUrl="" songAudioFileUrl="" stabilizationMode="0" mediaItemType="2" />
    <MediaItem id="2297" filePath="C:\Users\owner\Dropbox\Work\png\animation T=1.02297.png" arWidth="640" arHeight="480" duration="0" songTitle="" songArtist="" songAlbum="" songCopyrightUrl="" songArtistUrl="" songAudioFileUrl="" stabilizationMode="0" mediaItemType="2" />
    <MediaItem id="2298" filePath="C:\Users\owner\Dropbox\Work\png\animation T=1.02298.png" arWidth="640" arHeight="480" duration="0" songTitle="" songArtist="" songAlbum="" songCopyrightUrl="" songArtistUrl="" songAudioFileUrl="" stabilizationMode="0" mediaItemType="2" />
    <MediaItem id="2299" filePath="C:\Users\owner\Dropbox\Work\png\animation T=1.02299.png" arWidth="640" arHeight="480" duration="0" songTitle="" songArtist="" songAlbum="" songCopyrightUrl="" songArtistUrl="" songAudioFileUrl="" stabilizationMode="0" mediaItemType="2" />
    <MediaItem id="2300" filePath="C:\Users\owner\Dropbox\Work\png\animation T=1.02300.png" arWidth="640" arHeight="480" duration="0" songTitle="" songArtist="" songAlbum="" songCopyrightUrl="" songArtistUrl="" songAudioFileUrl="" stabilizationMode="0" mediaItemType="2" />
    <MediaItem id="2301" filePath="C:\Users\owner\Dropbox\Work\png\animation T=1.02301.png" arWidth="640" arHeight="480" duration="0" songTitle="" songArtist="" songAlbum="" songCopyrightUrl="" songArtistUrl="" songAudioFileUrl="" stabilizationMode="0" mediaItemType="2" />
    <MediaItem id="2302" filePath="C:\Users\owner\Dropbox\Work\png\animation T=1.02302.png" arWidth="640" arHeight="480" duration="0" songTitle="" songArtist="" songAlbum="" songCopyrightUrl="" songArtistUrl="" songAudioFileUrl="" stabilizationMode="0" mediaItemType="2" />
    <MediaItem id="2303" filePath="C:\Users\owner\Dropbox\Work\png\animation T=1.02303.png" arWidth="640" arHeight="480" duration="0" songTitle="" songArtist="" songAlbum="" songCopyrightUrl="" songArtistUrl="" songAudioFileUrl="" stabilizationMode="0" mediaItemType="2" />
    <MediaItem id="2304" filePath="C:\Users\owner\Dropbox\Work\png\animation T=1.02304.png" arWidth="640" arHeight="480" duration="0" songTitle="" songArtist="" songAlbum="" songCopyrightUrl="" songArtistUrl="" songAudioFileUrl="" stabilizationMode="0" mediaItemType="2" />
    <MediaItem id="2305" filePath="C:\Users\owner\Dropbox\Work\png\animation T=1.02305.png" arWidth="640" arHeight="480" duration="0" songTitle="" songArtist="" songAlbum="" songCopyrightUrl="" songArtistUrl="" songAudioFileUrl="" stabilizationMode="0" mediaItemType="2" />
    <MediaItem id="2306" filePath="C:\Users\owner\Dropbox\Work\png\animation T=1.02306.png" arWidth="640" arHeight="480" duration="0" songTitle="" songArtist="" songAlbum="" songCopyrightUrl="" songArtistUrl="" songAudioFileUrl="" stabilizationMode="0" mediaItemType="2" />
    <MediaItem id="2307" filePath="C:\Users\owner\Dropbox\Work\png\animation T=1.02307.png" arWidth="640" arHeight="480" duration="0" songTitle="" songArtist="" songAlbum="" songCopyrightUrl="" songArtistUrl="" songAudioFileUrl="" stabilizationMode="0" mediaItemType="2" />
    <MediaItem id="2308" filePath="C:\Users\owner\Dropbox\Work\png\animation T=1.02308.png" arWidth="640" arHeight="480" duration="0" songTitle="" songArtist="" songAlbum="" songCopyrightUrl="" songArtistUrl="" songAudioFileUrl="" stabilizationMode="0" mediaItemType="2" />
    <MediaItem id="2309" filePath="C:\Users\owner\Dropbox\Work\png\animation T=1.02309.png" arWidth="640" arHeight="480" duration="0" songTitle="" songArtist="" songAlbum="" songCopyrightUrl="" songArtistUrl="" songAudioFileUrl="" stabilizationMode="0" mediaItemType="2" />
    <MediaItem id="2310" filePath="C:\Users\owner\Dropbox\Work\png\animation T=1.02310.png" arWidth="640" arHeight="480" duration="0" songTitle="" songArtist="" songAlbum="" songCopyrightUrl="" songArtistUrl="" songAudioFileUrl="" stabilizationMode="0" mediaItemType="2" />
    <MediaItem id="2311" filePath="C:\Users\owner\Dropbox\Work\png\animation T=1.02311.png" arWidth="640" arHeight="480" duration="0" songTitle="" songArtist="" songAlbum="" songCopyrightUrl="" songArtistUrl="" songAudioFileUrl="" stabilizationMode="0" mediaItemType="2" />
    <MediaItem id="2312" filePath="C:\Users\owner\Dropbox\Work\png\animation T=1.02312.png" arWidth="640" arHeight="480" duration="0" songTitle="" songArtist="" songAlbum="" songCopyrightUrl="" songArtistUrl="" songAudioFileUrl="" stabilizationMode="0" mediaItemType="2" />
    <MediaItem id="2313" filePath="C:\Users\owner\Dropbox\Work\png\animation T=1.02313.png" arWidth="640" arHeight="480" duration="0" songTitle="" songArtist="" songAlbum="" songCopyrightUrl="" songArtistUrl="" songAudioFileUrl="" stabilizationMode="0" mediaItemType="2" />
    <MediaItem id="2314" filePath="C:\Users\owner\Dropbox\Work\png\animation T=1.02314.png" arWidth="640" arHeight="480" duration="0" songTitle="" songArtist="" songAlbum="" songCopyrightUrl="" songArtistUrl="" songAudioFileUrl="" stabilizationMode="0" mediaItemType="2" />
    <MediaItem id="2315" filePath="C:\Users\owner\Dropbox\Work\png\animation T=1.02315.png" arWidth="640" arHeight="480" duration="0" songTitle="" songArtist="" songAlbum="" songCopyrightUrl="" songArtistUrl="" songAudioFileUrl="" stabilizationMode="0" mediaItemType="2" />
    <MediaItem id="2316" filePath="C:\Users\owner\Dropbox\Work\png\animation T=1.02316.png" arWidth="640" arHeight="480" duration="0" songTitle="" songArtist="" songAlbum="" songCopyrightUrl="" songArtistUrl="" songAudioFileUrl="" stabilizationMode="0" mediaItemType="2" />
    <MediaItem id="2317" filePath="C:\Users\owner\Dropbox\Work\png\animation T=1.02317.png" arWidth="640" arHeight="480" duration="0" songTitle="" songArtist="" songAlbum="" songCopyrightUrl="" songArtistUrl="" songAudioFileUrl="" stabilizationMode="0" mediaItemType="2" />
    <MediaItem id="2318" filePath="C:\Users\owner\Dropbox\Work\png\animation T=1.02318.png" arWidth="640" arHeight="480" duration="0" songTitle="" songArtist="" songAlbum="" songCopyrightUrl="" songArtistUrl="" songAudioFileUrl="" stabilizationMode="0" mediaItemType="2" />
    <MediaItem id="2319" filePath="C:\Users\owner\Dropbox\Work\png\animation T=1.02319.png" arWidth="640" arHeight="480" duration="0" songTitle="" songArtist="" songAlbum="" songCopyrightUrl="" songArtistUrl="" songAudioFileUrl="" stabilizationMode="0" mediaItemType="2" />
    <MediaItem id="2320" filePath="C:\Users\owner\Dropbox\Work\png\animation T=1.02320.png" arWidth="640" arHeight="480" duration="0" songTitle="" songArtist="" songAlbum="" songCopyrightUrl="" songArtistUrl="" songAudioFileUrl="" stabilizationMode="0" mediaItemType="2" />
    <MediaItem id="2321" filePath="C:\Users\owner\Dropbox\Work\png\animation T=1.02321.png" arWidth="640" arHeight="480" duration="0" songTitle="" songArtist="" songAlbum="" songCopyrightUrl="" songArtistUrl="" songAudioFileUrl="" stabilizationMode="0" mediaItemType="2" />
    <MediaItem id="2322" filePath="C:\Users\owner\Dropbox\Work\png\animation T=1.02322.png" arWidth="640" arHeight="480" duration="0" songTitle="" songArtist="" songAlbum="" songCopyrightUrl="" songArtistUrl="" songAudioFileUrl="" stabilizationMode="0" mediaItemType="2" />
    <MediaItem id="2323" filePath="C:\Users\owner\Dropbox\Work\png\animation T=1.02323.png" arWidth="640" arHeight="480" duration="0" songTitle="" songArtist="" songAlbum="" songCopyrightUrl="" songArtistUrl="" songAudioFileUrl="" stabilizationMode="0" mediaItemType="2" />
    <MediaItem id="2324" filePath="C:\Users\owner\Dropbox\Work\png\animation T=1.02324.png" arWidth="640" arHeight="480" duration="0" songTitle="" songArtist="" songAlbum="" songCopyrightUrl="" songArtistUrl="" songAudioFileUrl="" stabilizationMode="0" mediaItemType="2" />
    <MediaItem id="2325" filePath="C:\Users\owner\Dropbox\Work\png\animation T=1.02325.png" arWidth="640" arHeight="480" duration="0" songTitle="" songArtist="" songAlbum="" songCopyrightUrl="" songArtistUrl="" songAudioFileUrl="" stabilizationMode="0" mediaItemType="2" />
    <MediaItem id="2326" filePath="C:\Users\owner\Dropbox\Work\png\animation T=1.02326.png" arWidth="640" arHeight="480" duration="0" songTitle="" songArtist="" songAlbum="" songCopyrightUrl="" songArtistUrl="" songAudioFileUrl="" stabilizationMode="0" mediaItemType="2" />
    <MediaItem id="2327" filePath="C:\Users\owner\Dropbox\Work\png\animation T=1.02327.png" arWidth="640" arHeight="480" duration="0" songTitle="" songArtist="" songAlbum="" songCopyrightUrl="" songArtistUrl="" songAudioFileUrl="" stabilizationMode="0" mediaItemType="2" />
    <MediaItem id="2328" filePath="C:\Users\owner\Dropbox\Work\png\animation T=1.02328.png" arWidth="640" arHeight="480" duration="0" songTitle="" songArtist="" songAlbum="" songCopyrightUrl="" songArtistUrl="" songAudioFileUrl="" stabilizationMode="0" mediaItemType="2" />
    <MediaItem id="2329" filePath="C:\Users\owner\Dropbox\Work\png\animation T=1.02329.png" arWidth="640" arHeight="480" duration="0" songTitle="" songArtist="" songAlbum="" songCopyrightUrl="" songArtistUrl="" songAudioFileUrl="" stabilizationMode="0" mediaItemType="2" />
    <MediaItem id="2330" filePath="C:\Users\owner\Dropbox\Work\png\animation T=1.02330.png" arWidth="640" arHeight="480" duration="0" songTitle="" songArtist="" songAlbum="" songCopyrightUrl="" songArtistUrl="" songAudioFileUrl="" stabilizationMode="0" mediaItemType="2" />
    <MediaItem id="2331" filePath="C:\Users\owner\Dropbox\Work\png\animation T=1.02331.png" arWidth="640" arHeight="480" duration="0" songTitle="" songArtist="" songAlbum="" songCopyrightUrl="" songArtistUrl="" songAudioFileUrl="" stabilizationMode="0" mediaItemType="2" />
    <MediaItem id="2332" filePath="C:\Users\owner\Dropbox\Work\png\animation T=1.02332.png" arWidth="640" arHeight="480" duration="0" songTitle="" songArtist="" songAlbum="" songCopyrightUrl="" songArtistUrl="" songAudioFileUrl="" stabilizationMode="0" mediaItemType="2" />
    <MediaItem id="2333" filePath="C:\Users\owner\Dropbox\Work\png\animation T=1.02333.png" arWidth="640" arHeight="480" duration="0" songTitle="" songArtist="" songAlbum="" songCopyrightUrl="" songArtistUrl="" songAudioFileUrl="" stabilizationMode="0" mediaItemType="2" />
    <MediaItem id="2334" filePath="C:\Users\owner\Dropbox\Work\png\animation T=1.02334.png" arWidth="640" arHeight="480" duration="0" songTitle="" songArtist="" songAlbum="" songCopyrightUrl="" songArtistUrl="" songAudioFileUrl="" stabilizationMode="0" mediaItemType="2" />
    <MediaItem id="2335" filePath="C:\Users\owner\Dropbox\Work\png\animation T=1.02335.png" arWidth="640" arHeight="480" duration="0" songTitle="" songArtist="" songAlbum="" songCopyrightUrl="" songArtistUrl="" songAudioFileUrl="" stabilizationMode="0" mediaItemType="2" />
    <MediaItem id="2336" filePath="C:\Users\owner\Dropbox\Work\png\animation T=1.02336.png" arWidth="640" arHeight="480" duration="0" songTitle="" songArtist="" songAlbum="" songCopyrightUrl="" songArtistUrl="" songAudioFileUrl="" stabilizationMode="0" mediaItemType="2" />
    <MediaItem id="2337" filePath="C:\Users\owner\Dropbox\Work\png\animation T=1.02337.png" arWidth="640" arHeight="480" duration="0" songTitle="" songArtist="" songAlbum="" songCopyrightUrl="" songArtistUrl="" songAudioFileUrl="" stabilizationMode="0" mediaItemType="2" />
    <MediaItem id="2338" filePath="C:\Users\owner\Dropbox\Work\png\animation T=1.02338.png" arWidth="640" arHeight="480" duration="0" songTitle="" songArtist="" songAlbum="" songCopyrightUrl="" songArtistUrl="" songAudioFileUrl="" stabilizationMode="0" mediaItemType="2" />
    <MediaItem id="2339" filePath="C:\Users\owner\Dropbox\Work\png\animation T=1.02339.png" arWidth="640" arHeight="480" duration="0" songTitle="" songArtist="" songAlbum="" songCopyrightUrl="" songArtistUrl="" songAudioFileUrl="" stabilizationMode="0" mediaItemType="2" />
    <MediaItem id="2340" filePath="C:\Users\owner\Dropbox\Work\png\animation T=1.02340.png" arWidth="640" arHeight="480" duration="0" songTitle="" songArtist="" songAlbum="" songCopyrightUrl="" songArtistUrl="" songAudioFileUrl="" stabilizationMode="0" mediaItemType="2" />
    <MediaItem id="2341" filePath="C:\Users\owner\Dropbox\Work\png\animation T=1.02341.png" arWidth="640" arHeight="480" duration="0" songTitle="" songArtist="" songAlbum="" songCopyrightUrl="" songArtistUrl="" songAudioFileUrl="" stabilizationMode="0" mediaItemType="2" />
    <MediaItem id="2342" filePath="C:\Users\owner\Dropbox\Work\png\animation T=1.02342.png" arWidth="640" arHeight="480" duration="0" songTitle="" songArtist="" songAlbum="" songCopyrightUrl="" songArtistUrl="" songAudioFileUrl="" stabilizationMode="0" mediaItemType="2" />
    <MediaItem id="2343" filePath="C:\Users\owner\Dropbox\Work\png\animation T=1.02343.png" arWidth="640" arHeight="480" duration="0" songTitle="" songArtist="" songAlbum="" songCopyrightUrl="" songArtistUrl="" songAudioFileUrl="" stabilizationMode="0" mediaItemType="2" />
    <MediaItem id="2344" filePath="C:\Users\owner\Dropbox\Work\png\animation T=1.02344.png" arWidth="640" arHeight="480" duration="0" songTitle="" songArtist="" songAlbum="" songCopyrightUrl="" songArtistUrl="" songAudioFileUrl="" stabilizationMode="0" mediaItemType="2" />
    <MediaItem id="2345" filePath="C:\Users\owner\Dropbox\Work\png\animation T=1.02345.png" arWidth="640" arHeight="480" duration="0" songTitle="" songArtist="" songAlbum="" songCopyrightUrl="" songArtistUrl="" songAudioFileUrl="" stabilizationMode="0" mediaItemType="2" />
    <MediaItem id="2346" filePath="C:\Users\owner\Dropbox\Work\png\animation T=1.02346.png" arWidth="640" arHeight="480" duration="0" songTitle="" songArtist="" songAlbum="" songCopyrightUrl="" songArtistUrl="" songAudioFileUrl="" stabilizationMode="0" mediaItemType="2" />
    <MediaItem id="2347" filePath="C:\Users\owner\Dropbox\Work\png\animation T=1.02347.png" arWidth="640" arHeight="480" duration="0" songTitle="" songArtist="" songAlbum="" songCopyrightUrl="" songArtistUrl="" songAudioFileUrl="" stabilizationMode="0" mediaItemType="2" />
    <MediaItem id="2348" filePath="C:\Users\owner\Dropbox\Work\png\animation T=1.02348.png" arWidth="640" arHeight="480" duration="0" songTitle="" songArtist="" songAlbum="" songCopyrightUrl="" songArtistUrl="" songAudioFileUrl="" stabilizationMode="0" mediaItemType="2" />
    <MediaItem id="2349" filePath="C:\Users\owner\Dropbox\Work\png\animation T=1.02349.png" arWidth="640" arHeight="480" duration="0" songTitle="" songArtist="" songAlbum="" songCopyrightUrl="" songArtistUrl="" songAudioFileUrl="" stabilizationMode="0" mediaItemType="2" />
    <MediaItem id="2350" filePath="C:\Users\owner\Dropbox\Work\png\animation T=1.02350.png" arWidth="640" arHeight="480" duration="0" songTitle="" songArtist="" songAlbum="" songCopyrightUrl="" songArtistUrl="" songAudioFileUrl="" stabilizationMode="0" mediaItemType="2" />
    <MediaItem id="2351" filePath="C:\Users\owner\Dropbox\Work\png\animation T=1.02351.png" arWidth="640" arHeight="480" duration="0" songTitle="" songArtist="" songAlbum="" songCopyrightUrl="" songArtistUrl="" songAudioFileUrl="" stabilizationMode="0" mediaItemType="2" />
    <MediaItem id="2352" filePath="C:\Users\owner\Dropbox\Work\png\animation T=1.02352.png" arWidth="640" arHeight="480" duration="0" songTitle="" songArtist="" songAlbum="" songCopyrightUrl="" songArtistUrl="" songAudioFileUrl="" stabilizationMode="0" mediaItemType="2" />
    <MediaItem id="2353" filePath="C:\Users\owner\Dropbox\Work\png\animation T=1.02353.png" arWidth="640" arHeight="480" duration="0" songTitle="" songArtist="" songAlbum="" songCopyrightUrl="" songArtistUrl="" songAudioFileUrl="" stabilizationMode="0" mediaItemType="2" />
    <MediaItem id="2354" filePath="C:\Users\owner\Dropbox\Work\png\animation T=1.02354.png" arWidth="640" arHeight="480" duration="0" songTitle="" songArtist="" songAlbum="" songCopyrightUrl="" songArtistUrl="" songAudioFileUrl="" stabilizationMode="0" mediaItemType="2" />
    <MediaItem id="2355" filePath="C:\Users\owner\Dropbox\Work\png\animation T=1.02355.png" arWidth="640" arHeight="480" duration="0" songTitle="" songArtist="" songAlbum="" songCopyrightUrl="" songArtistUrl="" songAudioFileUrl="" stabilizationMode="0" mediaItemType="2" />
    <MediaItem id="2356" filePath="C:\Users\owner\Dropbox\Work\png\animation T=1.02356.png" arWidth="640" arHeight="480" duration="0" songTitle="" songArtist="" songAlbum="" songCopyrightUrl="" songArtistUrl="" songAudioFileUrl="" stabilizationMode="0" mediaItemType="2" />
    <MediaItem id="2357" filePath="C:\Users\owner\Dropbox\Work\png\animation T=1.02357.png" arWidth="640" arHeight="480" duration="0" songTitle="" songArtist="" songAlbum="" songCopyrightUrl="" songArtistUrl="" songAudioFileUrl="" stabilizationMode="0" mediaItemType="2" />
    <MediaItem id="2358" filePath="C:\Users\owner\Dropbox\Work\png\animation T=1.02358.png" arWidth="640" arHeight="480" duration="0" songTitle="" songArtist="" songAlbum="" songCopyrightUrl="" songArtistUrl="" songAudioFileUrl="" stabilizationMode="0" mediaItemType="2" />
    <MediaItem id="2359" filePath="C:\Users\owner\Dropbox\Work\png\animation T=1.02359.png" arWidth="640" arHeight="480" duration="0" songTitle="" songArtist="" songAlbum="" songCopyrightUrl="" songArtistUrl="" songAudioFileUrl="" stabilizationMode="0" mediaItemType="2" />
    <MediaItem id="2360" filePath="C:\Users\owner\Dropbox\Work\png\animation T=1.02360.png" arWidth="640" arHeight="480" duration="0" songTitle="" songArtist="" songAlbum="" songCopyrightUrl="" songArtistUrl="" songAudioFileUrl="" stabilizationMode="0" mediaItemType="2" />
    <MediaItem id="2361" filePath="C:\Users\owner\Dropbox\Work\png\animation T=1.02361.png" arWidth="640" arHeight="480" duration="0" songTitle="" songArtist="" songAlbum="" songCopyrightUrl="" songArtistUrl="" songAudioFileUrl="" stabilizationMode="0" mediaItemType="2" />
    <MediaItem id="2362" filePath="C:\Users\owner\Dropbox\Work\png\animation T=1.02362.png" arWidth="640" arHeight="480" duration="0" songTitle="" songArtist="" songAlbum="" songCopyrightUrl="" songArtistUrl="" songAudioFileUrl="" stabilizationMode="0" mediaItemType="2" />
    <MediaItem id="2363" filePath="C:\Users\owner\Dropbox\Work\png\animation T=1.02363.png" arWidth="640" arHeight="480" duration="0" songTitle="" songArtist="" songAlbum="" songCopyrightUrl="" songArtistUrl="" songAudioFileUrl="" stabilizationMode="0" mediaItemType="2" />
    <MediaItem id="2364" filePath="C:\Users\owner\Dropbox\Work\png\animation T=1.02364.png" arWidth="640" arHeight="480" duration="0" songTitle="" songArtist="" songAlbum="" songCopyrightUrl="" songArtistUrl="" songAudioFileUrl="" stabilizationMode="0" mediaItemType="2" />
    <MediaItem id="2365" filePath="C:\Users\owner\Dropbox\Work\png\animation T=1.02365.png" arWidth="640" arHeight="480" duration="0" songTitle="" songArtist="" songAlbum="" songCopyrightUrl="" songArtistUrl="" songAudioFileUrl="" stabilizationMode="0" mediaItemType="2" />
    <MediaItem id="2366" filePath="C:\Users\owner\Dropbox\Work\png\animation T=1.02366.png" arWidth="640" arHeight="480" duration="0" songTitle="" songArtist="" songAlbum="" songCopyrightUrl="" songArtistUrl="" songAudioFileUrl="" stabilizationMode="0" mediaItemType="2" />
    <MediaItem id="2367" filePath="C:\Users\owner\Dropbox\Work\png\animation T=1.02367.png" arWidth="640" arHeight="480" duration="0" songTitle="" songArtist="" songAlbum="" songCopyrightUrl="" songArtistUrl="" songAudioFileUrl="" stabilizationMode="0" mediaItemType="2" />
    <MediaItem id="2368" filePath="C:\Users\owner\Dropbox\Work\png\animation T=1.02368.png" arWidth="640" arHeight="480" duration="0" songTitle="" songArtist="" songAlbum="" songCopyrightUrl="" songArtistUrl="" songAudioFileUrl="" stabilizationMode="0" mediaItemType="2" />
    <MediaItem id="2369" filePath="C:\Users\owner\Dropbox\Work\png\animation T=1.02369.png" arWidth="640" arHeight="480" duration="0" songTitle="" songArtist="" songAlbum="" songCopyrightUrl="" songArtistUrl="" songAudioFileUrl="" stabilizationMode="0" mediaItemType="2" />
    <MediaItem id="2370" filePath="C:\Users\owner\Dropbox\Work\png\animation T=1.02370.png" arWidth="640" arHeight="480" duration="0" songTitle="" songArtist="" songAlbum="" songCopyrightUrl="" songArtistUrl="" songAudioFileUrl="" stabilizationMode="0" mediaItemType="2" />
    <MediaItem id="2371" filePath="C:\Users\owner\Dropbox\Work\png\animation T=1.02371.png" arWidth="640" arHeight="480" duration="0" songTitle="" songArtist="" songAlbum="" songCopyrightUrl="" songArtistUrl="" songAudioFileUrl="" stabilizationMode="0" mediaItemType="2" />
    <MediaItem id="2372" filePath="C:\Users\owner\Dropbox\Work\png\animation T=1.02372.png" arWidth="640" arHeight="480" duration="0" songTitle="" songArtist="" songAlbum="" songCopyrightUrl="" songArtistUrl="" songAudioFileUrl="" stabilizationMode="0" mediaItemType="2" />
    <MediaItem id="2373" filePath="C:\Users\owner\Dropbox\Work\png\animation T=1.02373.png" arWidth="640" arHeight="480" duration="0" songTitle="" songArtist="" songAlbum="" songCopyrightUrl="" songArtistUrl="" songAudioFileUrl="" stabilizationMode="0" mediaItemType="2" />
    <MediaItem id="2374" filePath="C:\Users\owner\Dropbox\Work\png\animation T=1.02374.png" arWidth="640" arHeight="480" duration="0" songTitle="" songArtist="" songAlbum="" songCopyrightUrl="" songArtistUrl="" songAudioFileUrl="" stabilizationMode="0" mediaItemType="2" />
    <MediaItem id="2375" filePath="C:\Users\owner\Dropbox\Work\png\animation T=1.02375.png" arWidth="640" arHeight="480" duration="0" songTitle="" songArtist="" songAlbum="" songCopyrightUrl="" songArtistUrl="" songAudioFileUrl="" stabilizationMode="0" mediaItemType="2" />
    <MediaItem id="2376" filePath="C:\Users\owner\Dropbox\Work\png\animation T=1.02376.png" arWidth="640" arHeight="480" duration="0" songTitle="" songArtist="" songAlbum="" songCopyrightUrl="" songArtistUrl="" songAudioFileUrl="" stabilizationMode="0" mediaItemType="2" />
    <MediaItem id="2377" filePath="C:\Users\owner\Dropbox\Work\png\animation T=1.02377.png" arWidth="640" arHeight="480" duration="0" songTitle="" songArtist="" songAlbum="" songCopyrightUrl="" songArtistUrl="" songAudioFileUrl="" stabilizationMode="0" mediaItemType="2" />
    <MediaItem id="2378" filePath="C:\Users\owner\Dropbox\Work\png\animation T=1.02378.png" arWidth="640" arHeight="480" duration="0" songTitle="" songArtist="" songAlbum="" songCopyrightUrl="" songArtistUrl="" songAudioFileUrl="" stabilizationMode="0" mediaItemType="2" />
    <MediaItem id="2379" filePath="C:\Users\owner\Dropbox\Work\png\animation T=1.02379.png" arWidth="640" arHeight="480" duration="0" songTitle="" songArtist="" songAlbum="" songCopyrightUrl="" songArtistUrl="" songAudioFileUrl="" stabilizationMode="0" mediaItemType="2" />
    <MediaItem id="2380" filePath="C:\Users\owner\Dropbox\Work\png\animation T=1.02380.png" arWidth="640" arHeight="480" duration="0" songTitle="" songArtist="" songAlbum="" songCopyrightUrl="" songArtistUrl="" songAudioFileUrl="" stabilizationMode="0" mediaItemType="2" />
    <MediaItem id="2381" filePath="C:\Users\owner\Dropbox\Work\png\animation T=1.02381.png" arWidth="640" arHeight="480" duration="0" songTitle="" songArtist="" songAlbum="" songCopyrightUrl="" songArtistUrl="" songAudioFileUrl="" stabilizationMode="0" mediaItemType="2" />
    <MediaItem id="2382" filePath="C:\Users\owner\Dropbox\Work\png\animation T=1.02382.png" arWidth="640" arHeight="480" duration="0" songTitle="" songArtist="" songAlbum="" songCopyrightUrl="" songArtistUrl="" songAudioFileUrl="" stabilizationMode="0" mediaItemType="2" />
    <MediaItem id="2383" filePath="C:\Users\owner\Dropbox\Work\png\animation T=1.02383.png" arWidth="640" arHeight="480" duration="0" songTitle="" songArtist="" songAlbum="" songCopyrightUrl="" songArtistUrl="" songAudioFileUrl="" stabilizationMode="0" mediaItemType="2" />
    <MediaItem id="2384" filePath="C:\Users\owner\Dropbox\Work\png\animation T=1.02384.png" arWidth="640" arHeight="480" duration="0" songTitle="" songArtist="" songAlbum="" songCopyrightUrl="" songArtistUrl="" songAudioFileUrl="" stabilizationMode="0" mediaItemType="2" />
    <MediaItem id="2385" filePath="C:\Users\owner\Dropbox\Work\png\animation T=1.02385.png" arWidth="640" arHeight="480" duration="0" songTitle="" songArtist="" songAlbum="" songCopyrightUrl="" songArtistUrl="" songAudioFileUrl="" stabilizationMode="0" mediaItemType="2" />
    <MediaItem id="2386" filePath="C:\Users\owner\Dropbox\Work\png\animation T=1.02386.png" arWidth="640" arHeight="480" duration="0" songTitle="" songArtist="" songAlbum="" songCopyrightUrl="" songArtistUrl="" songAudioFileUrl="" stabilizationMode="0" mediaItemType="2" />
    <MediaItem id="2387" filePath="C:\Users\owner\Dropbox\Work\png\animation T=1.02387.png" arWidth="640" arHeight="480" duration="0" songTitle="" songArtist="" songAlbum="" songCopyrightUrl="" songArtistUrl="" songAudioFileUrl="" stabilizationMode="0" mediaItemType="2" />
    <MediaItem id="2388" filePath="C:\Users\owner\Dropbox\Work\png\animation T=1.02388.png" arWidth="640" arHeight="480" duration="0" songTitle="" songArtist="" songAlbum="" songCopyrightUrl="" songArtistUrl="" songAudioFileUrl="" stabilizationMode="0" mediaItemType="2" />
    <MediaItem id="2389" filePath="C:\Users\owner\Dropbox\Work\png\animation T=1.02389.png" arWidth="640" arHeight="480" duration="0" songTitle="" songArtist="" songAlbum="" songCopyrightUrl="" songArtistUrl="" songAudioFileUrl="" stabilizationMode="0" mediaItemType="2" />
    <MediaItem id="2390" filePath="C:\Users\owner\Dropbox\Work\png\animation T=1.02390.png" arWidth="640" arHeight="480" duration="0" songTitle="" songArtist="" songAlbum="" songCopyrightUrl="" songArtistUrl="" songAudioFileUrl="" stabilizationMode="0" mediaItemType="2" />
    <MediaItem id="2391" filePath="C:\Users\owner\Dropbox\Work\png\animation T=1.02391.png" arWidth="640" arHeight="480" duration="0" songTitle="" songArtist="" songAlbum="" songCopyrightUrl="" songArtistUrl="" songAudioFileUrl="" stabilizationMode="0" mediaItemType="2" />
    <MediaItem id="2392" filePath="C:\Users\owner\Dropbox\Work\png\animation T=1.02392.png" arWidth="640" arHeight="480" duration="0" songTitle="" songArtist="" songAlbum="" songCopyrightUrl="" songArtistUrl="" songAudioFileUrl="" stabilizationMode="0" mediaItemType="2" />
    <MediaItem id="2393" filePath="C:\Users\owner\Dropbox\Work\png\animation T=1.02393.png" arWidth="640" arHeight="480" duration="0" songTitle="" songArtist="" songAlbum="" songCopyrightUrl="" songArtistUrl="" songAudioFileUrl="" stabilizationMode="0" mediaItemType="2" />
    <MediaItem id="2394" filePath="C:\Users\owner\Dropbox\Work\png\animation T=1.02394.png" arWidth="640" arHeight="480" duration="0" songTitle="" songArtist="" songAlbum="" songCopyrightUrl="" songArtistUrl="" songAudioFileUrl="" stabilizationMode="0" mediaItemType="2" />
    <MediaItem id="2395" filePath="C:\Users\owner\Dropbox\Work\png\animation T=1.02395.png" arWidth="640" arHeight="480" duration="0" songTitle="" songArtist="" songAlbum="" songCopyrightUrl="" songArtistUrl="" songAudioFileUrl="" stabilizationMode="0" mediaItemType="2" />
    <MediaItem id="2396" filePath="C:\Users\owner\Dropbox\Work\png\animation T=1.02396.png" arWidth="640" arHeight="480" duration="0" songTitle="" songArtist="" songAlbum="" songCopyrightUrl="" songArtistUrl="" songAudioFileUrl="" stabilizationMode="0" mediaItemType="2" />
    <MediaItem id="2397" filePath="C:\Users\owner\Dropbox\Work\png\animation T=1.02397.png" arWidth="640" arHeight="480" duration="0" songTitle="" songArtist="" songAlbum="" songCopyrightUrl="" songArtistUrl="" songAudioFileUrl="" stabilizationMode="0" mediaItemType="2" />
    <MediaItem id="2398" filePath="C:\Users\owner\Dropbox\Work\png\animation T=1.02398.png" arWidth="640" arHeight="480" duration="0" songTitle="" songArtist="" songAlbum="" songCopyrightUrl="" songArtistUrl="" songAudioFileUrl="" stabilizationMode="0" mediaItemType="2" />
    <MediaItem id="2399" filePath="C:\Users\owner\Dropbox\Work\png\animation T=1.02399.png" arWidth="640" arHeight="480" duration="0" songTitle="" songArtist="" songAlbum="" songCopyrightUrl="" songArtistUrl="" songAudioFileUrl="" stabilizationMode="0" mediaItemType="2" />
    <MediaItem id="2400" filePath="C:\Users\owner\Dropbox\Work\png\animation T=1.02400.png" arWidth="640" arHeight="480" duration="0" songTitle="" songArtist="" songAlbum="" songCopyrightUrl="" songArtistUrl="" songAudioFileUrl="" stabilizationMode="0" mediaItemType="2" />
    <MediaItem id="2401" filePath="C:\Users\owner\Dropbox\Work\png\animation T=1.02401.png" arWidth="640" arHeight="480" duration="0" songTitle="" songArtist="" songAlbum="" songCopyrightUrl="" songArtistUrl="" songAudioFileUrl="" stabilizationMode="0" mediaItemType="2" />
    <MediaItem id="2402" filePath="C:\Users\owner\Dropbox\Work\png\animation T=1.02402.png" arWidth="640" arHeight="480" duration="0" songTitle="" songArtist="" songAlbum="" songCopyrightUrl="" songArtistUrl="" songAudioFileUrl="" stabilizationMode="0" mediaItemType="2" />
    <MediaItem id="2403" filePath="C:\Users\owner\Dropbox\Work\png\animation T=1.02403.png" arWidth="640" arHeight="480" duration="0" songTitle="" songArtist="" songAlbum="" songCopyrightUrl="" songArtistUrl="" songAudioFileUrl="" stabilizationMode="0" mediaItemType="2" />
    <MediaItem id="2404" filePath="C:\Users\owner\Dropbox\Work\png\animation T=1.02404.png" arWidth="640" arHeight="480" duration="0" songTitle="" songArtist="" songAlbum="" songCopyrightUrl="" songArtistUrl="" songAudioFileUrl="" stabilizationMode="0" mediaItemType="2" />
    <MediaItem id="2405" filePath="C:\Users\owner\Dropbox\Work\png\animation T=1.02405.png" arWidth="640" arHeight="480" duration="0" songTitle="" songArtist="" songAlbum="" songCopyrightUrl="" songArtistUrl="" songAudioFileUrl="" stabilizationMode="0" mediaItemType="2" />
    <MediaItem id="2406" filePath="C:\Users\owner\Dropbox\Work\png\animation T=1.02406.png" arWidth="640" arHeight="480" duration="0" songTitle="" songArtist="" songAlbum="" songCopyrightUrl="" songArtistUrl="" songAudioFileUrl="" stabilizationMode="0" mediaItemType="2" />
    <MediaItem id="2407" filePath="C:\Users\owner\Dropbox\Work\png\animation T=1.02407.png" arWidth="640" arHeight="480" duration="0" songTitle="" songArtist="" songAlbum="" songCopyrightUrl="" songArtistUrl="" songAudioFileUrl="" stabilizationMode="0" mediaItemType="2" />
    <MediaItem id="2408" filePath="C:\Users\owner\Dropbox\Work\png\animation T=1.02408.png" arWidth="640" arHeight="480" duration="0" songTitle="" songArtist="" songAlbum="" songCopyrightUrl="" songArtistUrl="" songAudioFileUrl="" stabilizationMode="0" mediaItemType="2" />
    <MediaItem id="2409" filePath="C:\Users\owner\Dropbox\Work\png\animation T=1.02409.png" arWidth="640" arHeight="480" duration="0" songTitle="" songArtist="" songAlbum="" songCopyrightUrl="" songArtistUrl="" songAudioFileUrl="" stabilizationMode="0" mediaItemType="2" />
    <MediaItem id="2410" filePath="C:\Users\owner\Dropbox\Work\png\animation T=1.02410.png" arWidth="640" arHeight="480" duration="0" songTitle="" songArtist="" songAlbum="" songCopyrightUrl="" songArtistUrl="" songAudioFileUrl="" stabilizationMode="0" mediaItemType="2" />
    <MediaItem id="2411" filePath="C:\Users\owner\Dropbox\Work\png\animation T=1.02411.png" arWidth="640" arHeight="480" duration="0" songTitle="" songArtist="" songAlbum="" songCopyrightUrl="" songArtistUrl="" songAudioFileUrl="" stabilizationMode="0" mediaItemType="2" />
    <MediaItem id="2412" filePath="C:\Users\owner\Dropbox\Work\png\animation T=1.02412.png" arWidth="640" arHeight="480" duration="0" songTitle="" songArtist="" songAlbum="" songCopyrightUrl="" songArtistUrl="" songAudioFileUrl="" stabilizationMode="0" mediaItemType="2" />
    <MediaItem id="2413" filePath="C:\Users\owner\Dropbox\Work\png\animation T=1.02413.png" arWidth="640" arHeight="480" duration="0" songTitle="" songArtist="" songAlbum="" songCopyrightUrl="" songArtistUrl="" songAudioFileUrl="" stabilizationMode="0" mediaItemType="2" />
    <MediaItem id="2414" filePath="C:\Users\owner\Dropbox\Work\png\animation T=1.02414.png" arWidth="640" arHeight="480" duration="0" songTitle="" songArtist="" songAlbum="" songCopyrightUrl="" songArtistUrl="" songAudioFileUrl="" stabilizationMode="0" mediaItemType="2" />
    <MediaItem id="2415" filePath="C:\Users\owner\Dropbox\Work\png\animation T=1.02415.png" arWidth="640" arHeight="480" duration="0" songTitle="" songArtist="" songAlbum="" songCopyrightUrl="" songArtistUrl="" songAudioFileUrl="" stabilizationMode="0" mediaItemType="2" />
    <MediaItem id="2416" filePath="C:\Users\owner\Dropbox\Work\png\animation T=1.02416.png" arWidth="640" arHeight="480" duration="0" songTitle="" songArtist="" songAlbum="" songCopyrightUrl="" songArtistUrl="" songAudioFileUrl="" stabilizationMode="0" mediaItemType="2" />
    <MediaItem id="2417" filePath="C:\Users\owner\Dropbox\Work\png\animation T=1.02417.png" arWidth="640" arHeight="480" duration="0" songTitle="" songArtist="" songAlbum="" songCopyrightUrl="" songArtistUrl="" songAudioFileUrl="" stabilizationMode="0" mediaItemType="2" />
    <MediaItem id="2418" filePath="C:\Users\owner\Dropbox\Work\png\animation T=1.02418.png" arWidth="640" arHeight="480" duration="0" songTitle="" songArtist="" songAlbum="" songCopyrightUrl="" songArtistUrl="" songAudioFileUrl="" stabilizationMode="0" mediaItemType="2" />
    <MediaItem id="2419" filePath="C:\Users\owner\Dropbox\Work\png\animation T=1.02419.png" arWidth="640" arHeight="480" duration="0" songTitle="" songArtist="" songAlbum="" songCopyrightUrl="" songArtistUrl="" songAudioFileUrl="" stabilizationMode="0" mediaItemType="2" />
    <MediaItem id="2420" filePath="C:\Users\owner\Dropbox\Work\png\animation T=1.02420.png" arWidth="640" arHeight="480" duration="0" songTitle="" songArtist="" songAlbum="" songCopyrightUrl="" songArtistUrl="" songAudioFileUrl="" stabilizationMode="0" mediaItemType="2" />
    <MediaItem id="2421" filePath="C:\Users\owner\Dropbox\Work\png\animation T=1.02421.png" arWidth="640" arHeight="480" duration="0" songTitle="" songArtist="" songAlbum="" songCopyrightUrl="" songArtistUrl="" songAudioFileUrl="" stabilizationMode="0" mediaItemType="2" />
    <MediaItem id="2422" filePath="C:\Users\owner\Dropbox\Work\png\animation T=1.02422.png" arWidth="640" arHeight="480" duration="0" songTitle="" songArtist="" songAlbum="" songCopyrightUrl="" songArtistUrl="" songAudioFileUrl="" stabilizationMode="0" mediaItemType="2" />
    <MediaItem id="2423" filePath="C:\Users\owner\Dropbox\Work\png\animation T=1.02423.png" arWidth="640" arHeight="480" duration="0" songTitle="" songArtist="" songAlbum="" songCopyrightUrl="" songArtistUrl="" songAudioFileUrl="" stabilizationMode="0" mediaItemType="2" />
    <MediaItem id="2424" filePath="C:\Users\owner\Dropbox\Work\png\animation T=1.02424.png" arWidth="640" arHeight="480" duration="0" songTitle="" songArtist="" songAlbum="" songCopyrightUrl="" songArtistUrl="" songAudioFileUrl="" stabilizationMode="0" mediaItemType="2" />
    <MediaItem id="2425" filePath="C:\Users\owner\Dropbox\Work\png\animation T=1.02425.png" arWidth="640" arHeight="480" duration="0" songTitle="" songArtist="" songAlbum="" songCopyrightUrl="" songArtistUrl="" songAudioFileUrl="" stabilizationMode="0" mediaItemType="2" />
    <MediaItem id="2426" filePath="C:\Users\owner\Dropbox\Work\png\animation T=1.02426.png" arWidth="640" arHeight="480" duration="0" songTitle="" songArtist="" songAlbum="" songCopyrightUrl="" songArtistUrl="" songAudioFileUrl="" stabilizationMode="0" mediaItemType="2" />
    <MediaItem id="2427" filePath="C:\Users\owner\Dropbox\Work\png\animation T=1.02427.png" arWidth="640" arHeight="480" duration="0" songTitle="" songArtist="" songAlbum="" songCopyrightUrl="" songArtistUrl="" songAudioFileUrl="" stabilizationMode="0" mediaItemType="2" />
    <MediaItem id="2428" filePath="C:\Users\owner\Dropbox\Work\png\animation T=1.02428.png" arWidth="640" arHeight="480" duration="0" songTitle="" songArtist="" songAlbum="" songCopyrightUrl="" songArtistUrl="" songAudioFileUrl="" stabilizationMode="0" mediaItemType="2" />
    <MediaItem id="2429" filePath="C:\Users\owner\Dropbox\Work\png\animation T=1.02429.png" arWidth="640" arHeight="480" duration="0" songTitle="" songArtist="" songAlbum="" songCopyrightUrl="" songArtistUrl="" songAudioFileUrl="" stabilizationMode="0" mediaItemType="2" />
    <MediaItem id="2430" filePath="C:\Users\owner\Dropbox\Work\png\animation T=1.02430.png" arWidth="640" arHeight="480" duration="0" songTitle="" songArtist="" songAlbum="" songCopyrightUrl="" songArtistUrl="" songAudioFileUrl="" stabilizationMode="0" mediaItemType="2" />
    <MediaItem id="2431" filePath="C:\Users\owner\Dropbox\Work\png\animation T=1.02431.png" arWidth="640" arHeight="480" duration="0" songTitle="" songArtist="" songAlbum="" songCopyrightUrl="" songArtistUrl="" songAudioFileUrl="" stabilizationMode="0" mediaItemType="2" />
    <MediaItem id="2432" filePath="C:\Users\owner\Dropbox\Work\png\animation T=1.02432.png" arWidth="640" arHeight="480" duration="0" songTitle="" songArtist="" songAlbum="" songCopyrightUrl="" songArtistUrl="" songAudioFileUrl="" stabilizationMode="0" mediaItemType="2" />
    <MediaItem id="2433" filePath="C:\Users\owner\Dropbox\Work\png\animation T=1.02433.png" arWidth="640" arHeight="480" duration="0" songTitle="" songArtist="" songAlbum="" songCopyrightUrl="" songArtistUrl="" songAudioFileUrl="" stabilizationMode="0" mediaItemType="2" />
    <MediaItem id="2434" filePath="C:\Users\owner\Dropbox\Work\png\animation T=1.02434.png" arWidth="640" arHeight="480" duration="0" songTitle="" songArtist="" songAlbum="" songCopyrightUrl="" songArtistUrl="" songAudioFileUrl="" stabilizationMode="0" mediaItemType="2" />
    <MediaItem id="2435" filePath="C:\Users\owner\Dropbox\Work\png\animation T=1.02435.png" arWidth="640" arHeight="480" duration="0" songTitle="" songArtist="" songAlbum="" songCopyrightUrl="" songArtistUrl="" songAudioFileUrl="" stabilizationMode="0" mediaItemType="2" />
    <MediaItem id="2436" filePath="C:\Users\owner\Dropbox\Work\png\animation T=1.02436.png" arWidth="640" arHeight="480" duration="0" songTitle="" songArtist="" songAlbum="" songCopyrightUrl="" songArtistUrl="" songAudioFileUrl="" stabilizationMode="0" mediaItemType="2" />
    <MediaItem id="2437" filePath="C:\Users\owner\Dropbox\Work\png\animation T=1.02437.png" arWidth="640" arHeight="480" duration="0" songTitle="" songArtist="" songAlbum="" songCopyrightUrl="" songArtistUrl="" songAudioFileUrl="" stabilizationMode="0" mediaItemType="2" />
    <MediaItem id="2438" filePath="C:\Users\owner\Dropbox\Work\png\animation T=1.02438.png" arWidth="640" arHeight="480" duration="0" songTitle="" songArtist="" songAlbum="" songCopyrightUrl="" songArtistUrl="" songAudioFileUrl="" stabilizationMode="0" mediaItemType="2" />
    <MediaItem id="2439" filePath="C:\Users\owner\Dropbox\Work\png\animation T=1.02439.png" arWidth="640" arHeight="480" duration="0" songTitle="" songArtist="" songAlbum="" songCopyrightUrl="" songArtistUrl="" songAudioFileUrl="" stabilizationMode="0" mediaItemType="2" />
    <MediaItem id="2440" filePath="C:\Users\owner\Dropbox\Work\png\animation T=1.02440.png" arWidth="640" arHeight="480" duration="0" songTitle="" songArtist="" songAlbum="" songCopyrightUrl="" songArtistUrl="" songAudioFileUrl="" stabilizationMode="0" mediaItemType="2" />
    <MediaItem id="2441" filePath="C:\Users\owner\Dropbox\Work\png\animation T=1.02441.png" arWidth="640" arHeight="480" duration="0" songTitle="" songArtist="" songAlbum="" songCopyrightUrl="" songArtistUrl="" songAudioFileUrl="" stabilizationMode="0" mediaItemType="2" />
    <MediaItem id="2442" filePath="C:\Users\owner\Dropbox\Work\png\animation T=1.02442.png" arWidth="640" arHeight="480" duration="0" songTitle="" songArtist="" songAlbum="" songCopyrightUrl="" songArtistUrl="" songAudioFileUrl="" stabilizationMode="0" mediaItemType="2" />
    <MediaItem id="2443" filePath="C:\Users\owner\Dropbox\Work\png\animation T=1.02443.png" arWidth="640" arHeight="480" duration="0" songTitle="" songArtist="" songAlbum="" songCopyrightUrl="" songArtistUrl="" songAudioFileUrl="" stabilizationMode="0" mediaItemType="2" />
    <MediaItem id="2444" filePath="C:\Users\owner\Dropbox\Work\png\animation T=1.02444.png" arWidth="640" arHeight="480" duration="0" songTitle="" songArtist="" songAlbum="" songCopyrightUrl="" songArtistUrl="" songAudioFileUrl="" stabilizationMode="0" mediaItemType="2" />
    <MediaItem id="2445" filePath="C:\Users\owner\Dropbox\Work\png\animation T=1.02445.png" arWidth="640" arHeight="480" duration="0" songTitle="" songArtist="" songAlbum="" songCopyrightUrl="" songArtistUrl="" songAudioFileUrl="" stabilizationMode="0" mediaItemType="2" />
    <MediaItem id="2446" filePath="C:\Users\owner\Dropbox\Work\png\animation T=1.02446.png" arWidth="640" arHeight="480" duration="0" songTitle="" songArtist="" songAlbum="" songCopyrightUrl="" songArtistUrl="" songAudioFileUrl="" stabilizationMode="0" mediaItemType="2" />
    <MediaItem id="2447" filePath="C:\Users\owner\Dropbox\Work\png\animation T=1.02447.png" arWidth="640" arHeight="480" duration="0" songTitle="" songArtist="" songAlbum="" songCopyrightUrl="" songArtistUrl="" songAudioFileUrl="" stabilizationMode="0" mediaItemType="2" />
    <MediaItem id="2448" filePath="C:\Users\owner\Dropbox\Work\png\animation T=1.02448.png" arWidth="640" arHeight="480" duration="0" songTitle="" songArtist="" songAlbum="" songCopyrightUrl="" songArtistUrl="" songAudioFileUrl="" stabilizationMode="0" mediaItemType="2" />
    <MediaItem id="2449" filePath="C:\Users\owner\Dropbox\Work\png\animation T=1.02449.png" arWidth="640" arHeight="480" duration="0" songTitle="" songArtist="" songAlbum="" songCopyrightUrl="" songArtistUrl="" songAudioFileUrl="" stabilizationMode="0" mediaItemType="2" />
    <MediaItem id="2450" filePath="C:\Users\owner\Dropbox\Work\png\animation T=1.02450.png" arWidth="640" arHeight="480" duration="0" songTitle="" songArtist="" songAlbum="" songCopyrightUrl="" songArtistUrl="" songAudioFileUrl="" stabilizationMode="0" mediaItemType="2" />
    <MediaItem id="2451" filePath="C:\Users\owner\Dropbox\Work\png\animation T=1.02451.png" arWidth="640" arHeight="480" duration="0" songTitle="" songArtist="" songAlbum="" songCopyrightUrl="" songArtistUrl="" songAudioFileUrl="" stabilizationMode="0" mediaItemType="2" />
    <MediaItem id="2452" filePath="C:\Users\owner\Dropbox\Work\png\animation T=1.02452.png" arWidth="640" arHeight="480" duration="0" songTitle="" songArtist="" songAlbum="" songCopyrightUrl="" songArtistUrl="" songAudioFileUrl="" stabilizationMode="0" mediaItemType="2" />
    <MediaItem id="2453" filePath="C:\Users\owner\Dropbox\Work\png\animation T=1.02453.png" arWidth="640" arHeight="480" duration="0" songTitle="" songArtist="" songAlbum="" songCopyrightUrl="" songArtistUrl="" songAudioFileUrl="" stabilizationMode="0" mediaItemType="2" />
    <MediaItem id="2454" filePath="C:\Users\owner\Dropbox\Work\png\animation T=1.02454.png" arWidth="640" arHeight="480" duration="0" songTitle="" songArtist="" songAlbum="" songCopyrightUrl="" songArtistUrl="" songAudioFileUrl="" stabilizationMode="0" mediaItemType="2" />
    <MediaItem id="2455" filePath="C:\Users\owner\Dropbox\Work\png\animation T=1.02455.png" arWidth="640" arHeight="480" duration="0" songTitle="" songArtist="" songAlbum="" songCopyrightUrl="" songArtistUrl="" songAudioFileUrl="" stabilizationMode="0" mediaItemType="2" />
    <MediaItem id="2456" filePath="C:\Users\owner\Dropbox\Work\png\animation T=1.02456.png" arWidth="640" arHeight="480" duration="0" songTitle="" songArtist="" songAlbum="" songCopyrightUrl="" songArtistUrl="" songAudioFileUrl="" stabilizationMode="0" mediaItemType="2" />
    <MediaItem id="2457" filePath="C:\Users\owner\Dropbox\Work\png\animation T=1.02457.png" arWidth="640" arHeight="480" duration="0" songTitle="" songArtist="" songAlbum="" songCopyrightUrl="" songArtistUrl="" songAudioFileUrl="" stabilizationMode="0" mediaItemType="2" />
    <MediaItem id="2458" filePath="C:\Users\owner\Dropbox\Work\png\animation T=1.02458.png" arWidth="640" arHeight="480" duration="0" songTitle="" songArtist="" songAlbum="" songCopyrightUrl="" songArtistUrl="" songAudioFileUrl="" stabilizationMode="0" mediaItemType="2" />
    <MediaItem id="2459" filePath="C:\Users\owner\Dropbox\Work\png\animation T=1.02459.png" arWidth="640" arHeight="480" duration="0" songTitle="" songArtist="" songAlbum="" songCopyrightUrl="" songArtistUrl="" songAudioFileUrl="" stabilizationMode="0" mediaItemType="2" />
    <MediaItem id="2460" filePath="C:\Users\owner\Dropbox\Work\png\animation T=1.02460.png" arWidth="640" arHeight="480" duration="0" songTitle="" songArtist="" songAlbum="" songCopyrightUrl="" songArtistUrl="" songAudioFileUrl="" stabilizationMode="0" mediaItemType="2" />
    <MediaItem id="2461" filePath="C:\Users\owner\Dropbox\Work\png\animation T=1.02461.png" arWidth="640" arHeight="480" duration="0" songTitle="" songArtist="" songAlbum="" songCopyrightUrl="" songArtistUrl="" songAudioFileUrl="" stabilizationMode="0" mediaItemType="2" />
    <MediaItem id="2462" filePath="C:\Users\owner\Dropbox\Work\png\animation T=1.02462.png" arWidth="640" arHeight="480" duration="0" songTitle="" songArtist="" songAlbum="" songCopyrightUrl="" songArtistUrl="" songAudioFileUrl="" stabilizationMode="0" mediaItemType="2" />
    <MediaItem id="2463" filePath="C:\Users\owner\Dropbox\Work\png\animation T=1.02463.png" arWidth="640" arHeight="480" duration="0" songTitle="" songArtist="" songAlbum="" songCopyrightUrl="" songArtistUrl="" songAudioFileUrl="" stabilizationMode="0" mediaItemType="2" />
    <MediaItem id="2464" filePath="C:\Users\owner\Dropbox\Work\png\animation T=1.02464.png" arWidth="640" arHeight="480" duration="0" songTitle="" songArtist="" songAlbum="" songCopyrightUrl="" songArtistUrl="" songAudioFileUrl="" stabilizationMode="0" mediaItemType="2" />
    <MediaItem id="2465" filePath="C:\Users\owner\Dropbox\Work\png\animation T=1.02465.png" arWidth="640" arHeight="480" duration="0" songTitle="" songArtist="" songAlbum="" songCopyrightUrl="" songArtistUrl="" songAudioFileUrl="" stabilizationMode="0" mediaItemType="2" />
    <MediaItem id="2466" filePath="C:\Users\owner\Dropbox\Work\png\animation T=1.02466.png" arWidth="640" arHeight="480" duration="0" songTitle="" songArtist="" songAlbum="" songCopyrightUrl="" songArtistUrl="" songAudioFileUrl="" stabilizationMode="0" mediaItemType="2" />
    <MediaItem id="2467" filePath="C:\Users\owner\Dropbox\Work\png\animation T=1.02467.png" arWidth="640" arHeight="480" duration="0" songTitle="" songArtist="" songAlbum="" songCopyrightUrl="" songArtistUrl="" songAudioFileUrl="" stabilizationMode="0" mediaItemType="2" />
    <MediaItem id="2468" filePath="C:\Users\owner\Dropbox\Work\png\animation T=1.02468.png" arWidth="640" arHeight="480" duration="0" songTitle="" songArtist="" songAlbum="" songCopyrightUrl="" songArtistUrl="" songAudioFileUrl="" stabilizationMode="0" mediaItemType="2" />
    <MediaItem id="2469" filePath="C:\Users\owner\Dropbox\Work\png\animation T=1.02469.png" arWidth="640" arHeight="480" duration="0" songTitle="" songArtist="" songAlbum="" songCopyrightUrl="" songArtistUrl="" songAudioFileUrl="" stabilizationMode="0" mediaItemType="2" />
    <MediaItem id="2470" filePath="C:\Users\owner\Dropbox\Work\png\animation T=1.02470.png" arWidth="640" arHeight="480" duration="0" songTitle="" songArtist="" songAlbum="" songCopyrightUrl="" songArtistUrl="" songAudioFileUrl="" stabilizationMode="0" mediaItemType="2" />
    <MediaItem id="2471" filePath="C:\Users\owner\Dropbox\Work\png\animation T=1.02471.png" arWidth="640" arHeight="480" duration="0" songTitle="" songArtist="" songAlbum="" songCopyrightUrl="" songArtistUrl="" songAudioFileUrl="" stabilizationMode="0" mediaItemType="2" />
    <MediaItem id="2472" filePath="C:\Users\owner\Dropbox\Work\png\animation T=1.02472.png" arWidth="640" arHeight="480" duration="0" songTitle="" songArtist="" songAlbum="" songCopyrightUrl="" songArtistUrl="" songAudioFileUrl="" stabilizationMode="0" mediaItemType="2" />
    <MediaItem id="2473" filePath="C:\Users\owner\Dropbox\Work\png\animation T=1.02473.png" arWidth="640" arHeight="480" duration="0" songTitle="" songArtist="" songAlbum="" songCopyrightUrl="" songArtistUrl="" songAudioFileUrl="" stabilizationMode="0" mediaItemType="2" />
    <MediaItem id="2474" filePath="C:\Users\owner\Dropbox\Work\png\animation T=1.02474.png" arWidth="640" arHeight="480" duration="0" songTitle="" songArtist="" songAlbum="" songCopyrightUrl="" songArtistUrl="" songAudioFileUrl="" stabilizationMode="0" mediaItemType="2" />
    <MediaItem id="2475" filePath="C:\Users\owner\Dropbox\Work\png\animation T=1.02475.png" arWidth="640" arHeight="480" duration="0" songTitle="" songArtist="" songAlbum="" songCopyrightUrl="" songArtistUrl="" songAudioFileUrl="" stabilizationMode="0" mediaItemType="2" />
    <MediaItem id="2476" filePath="C:\Users\owner\Dropbox\Work\png\animation T=1.02476.png" arWidth="640" arHeight="480" duration="0" songTitle="" songArtist="" songAlbum="" songCopyrightUrl="" songArtistUrl="" songAudioFileUrl="" stabilizationMode="0" mediaItemType="2" />
    <MediaItem id="2477" filePath="C:\Users\owner\Dropbox\Work\png\animation T=1.02477.png" arWidth="640" arHeight="480" duration="0" songTitle="" songArtist="" songAlbum="" songCopyrightUrl="" songArtistUrl="" songAudioFileUrl="" stabilizationMode="0" mediaItemType="2" />
    <MediaItem id="2478" filePath="C:\Users\owner\Dropbox\Work\png\animation T=1.02478.png" arWidth="640" arHeight="480" duration="0" songTitle="" songArtist="" songAlbum="" songCopyrightUrl="" songArtistUrl="" songAudioFileUrl="" stabilizationMode="0" mediaItemType="2" />
    <MediaItem id="2479" filePath="C:\Users\owner\Dropbox\Work\png\animation T=1.02479.png" arWidth="640" arHeight="480" duration="0" songTitle="" songArtist="" songAlbum="" songCopyrightUrl="" songArtistUrl="" songAudioFileUrl="" stabilizationMode="0" mediaItemType="2" />
    <MediaItem id="2480" filePath="C:\Users\owner\Dropbox\Work\png\animation T=1.02480.png" arWidth="640" arHeight="480" duration="0" songTitle="" songArtist="" songAlbum="" songCopyrightUrl="" songArtistUrl="" songAudioFileUrl="" stabilizationMode="0" mediaItemType="2" />
    <MediaItem id="2481" filePath="C:\Users\owner\Dropbox\Work\png\animation T=1.02481.png" arWidth="640" arHeight="480" duration="0" songTitle="" songArtist="" songAlbum="" songCopyrightUrl="" songArtistUrl="" songAudioFileUrl="" stabilizationMode="0" mediaItemType="2" />
    <MediaItem id="2482" filePath="C:\Users\owner\Dropbox\Work\png\animation T=1.02482.png" arWidth="640" arHeight="480" duration="0" songTitle="" songArtist="" songAlbum="" songCopyrightUrl="" songArtistUrl="" songAudioFileUrl="" stabilizationMode="0" mediaItemType="2" />
    <MediaItem id="2483" filePath="C:\Users\owner\Dropbox\Work\png\animation T=1.02483.png" arWidth="640" arHeight="480" duration="0" songTitle="" songArtist="" songAlbum="" songCopyrightUrl="" songArtistUrl="" songAudioFileUrl="" stabilizationMode="0" mediaItemType="2" />
    <MediaItem id="2484" filePath="C:\Users\owner\Dropbox\Work\png\animation T=1.02484.png" arWidth="640" arHeight="480" duration="0" songTitle="" songArtist="" songAlbum="" songCopyrightUrl="" songArtistUrl="" songAudioFileUrl="" stabilizationMode="0" mediaItemType="2" />
    <MediaItem id="2485" filePath="C:\Users\owner\Dropbox\Work\png\animation T=1.02485.png" arWidth="640" arHeight="480" duration="0" songTitle="" songArtist="" songAlbum="" songCopyrightUrl="" songArtistUrl="" songAudioFileUrl="" stabilizationMode="0" mediaItemType="2" />
    <MediaItem id="2486" filePath="C:\Users\owner\Dropbox\Work\png\animation T=1.02486.png" arWidth="640" arHeight="480" duration="0" songTitle="" songArtist="" songAlbum="" songCopyrightUrl="" songArtistUrl="" songAudioFileUrl="" stabilizationMode="0" mediaItemType="2" />
    <MediaItem id="2487" filePath="C:\Users\owner\Dropbox\Work\png\animation T=1.02487.png" arWidth="640" arHeight="480" duration="0" songTitle="" songArtist="" songAlbum="" songCopyrightUrl="" songArtistUrl="" songAudioFileUrl="" stabilizationMode="0" mediaItemType="2" />
    <MediaItem id="2488" filePath="C:\Users\owner\Dropbox\Work\png\animation T=1.02488.png" arWidth="640" arHeight="480" duration="0" songTitle="" songArtist="" songAlbum="" songCopyrightUrl="" songArtistUrl="" songAudioFileUrl="" stabilizationMode="0" mediaItemType="2" />
    <MediaItem id="2489" filePath="C:\Users\owner\Dropbox\Work\png\animation T=1.02489.png" arWidth="640" arHeight="480" duration="0" songTitle="" songArtist="" songAlbum="" songCopyrightUrl="" songArtistUrl="" songAudioFileUrl="" stabilizationMode="0" mediaItemType="2" />
    <MediaItem id="2490" filePath="C:\Users\owner\Dropbox\Work\png\animation T=1.02490.png" arWidth="640" arHeight="480" duration="0" songTitle="" songArtist="" songAlbum="" songCopyrightUrl="" songArtistUrl="" songAudioFileUrl="" stabilizationMode="0" mediaItemType="2" />
    <MediaItem id="2491" filePath="C:\Users\owner\Dropbox\Work\png\animation T=1.02491.png" arWidth="640" arHeight="480" duration="0" songTitle="" songArtist="" songAlbum="" songCopyrightUrl="" songArtistUrl="" songAudioFileUrl="" stabilizationMode="0" mediaItemType="2" />
    <MediaItem id="2492" filePath="C:\Users\owner\Dropbox\Work\png\animation T=1.02492.png" arWidth="640" arHeight="480" duration="0" songTitle="" songArtist="" songAlbum="" songCopyrightUrl="" songArtistUrl="" songAudioFileUrl="" stabilizationMode="0" mediaItemType="2" />
    <MediaItem id="2493" filePath="C:\Users\owner\Dropbox\Work\png\animation T=1.02493.png" arWidth="640" arHeight="480" duration="0" songTitle="" songArtist="" songAlbum="" songCopyrightUrl="" songArtistUrl="" songAudioFileUrl="" stabilizationMode="0" mediaItemType="2" />
    <MediaItem id="2494" filePath="C:\Users\owner\Dropbox\Work\png\animation T=1.02494.png" arWidth="640" arHeight="480" duration="0" songTitle="" songArtist="" songAlbum="" songCopyrightUrl="" songArtistUrl="" songAudioFileUrl="" stabilizationMode="0" mediaItemType="2" />
    <MediaItem id="2495" filePath="C:\Users\owner\Dropbox\Work\png\animation T=1.02495.png" arWidth="640" arHeight="480" duration="0" songTitle="" songArtist="" songAlbum="" songCopyrightUrl="" songArtistUrl="" songAudioFileUrl="" stabilizationMode="0" mediaItemType="2" />
    <MediaItem id="2496" filePath="C:\Users\owner\Dropbox\Work\png\animation T=1.02496.png" arWidth="640" arHeight="480" duration="0" songTitle="" songArtist="" songAlbum="" songCopyrightUrl="" songArtistUrl="" songAudioFileUrl="" stabilizationMode="0" mediaItemType="2" />
    <MediaItem id="2497" filePath="C:\Users\owner\Dropbox\Work\png\animation T=1.02497.png" arWidth="640" arHeight="480" duration="0" songTitle="" songArtist="" songAlbum="" songCopyrightUrl="" songArtistUrl="" songAudioFileUrl="" stabilizationMode="0" mediaItemType="2" />
    <MediaItem id="2498" filePath="C:\Users\owner\Dropbox\Work\png\animation T=1.02498.png" arWidth="640" arHeight="480" duration="0" songTitle="" songArtist="" songAlbum="" songCopyrightUrl="" songArtistUrl="" songAudioFileUrl="" stabilizationMode="0" mediaItemType="2" />
    <MediaItem id="2499" filePath="C:\Users\owner\Dropbox\Work\png\animation T=1.02499.png" arWidth="640" arHeight="480" duration="0" songTitle="" songArtist="" songAlbum="" songCopyrightUrl="" songArtistUrl="" songAudioFileUrl="" stabilizationMode="0" mediaItemType="2" />
    <MediaItem id="2500" filePath="C:\Users\owner\Dropbox\Work\png\animation T=1.02500.png" arWidth="640" arHeight="480" duration="0" songTitle="" songArtist="" songAlbum="" songCopyrightUrl="" songArtistUrl="" songAudioFileUrl="" stabilizationMode="0" mediaItemType="2" />
    <MediaItem id="2501" filePath="C:\Users\owner\Dropbox\Work\png\animation T=1.02501.png" arWidth="640" arHeight="480" duration="0" songTitle="" songArtist="" songAlbum="" songCopyrightUrl="" songArtistUrl="" songAudioFileUrl="" stabilizationMode="0" mediaItemType="2" />
    <MediaItem id="2502" filePath="C:\Users\owner\Dropbox\Work\png\animation T=1.02502.png" arWidth="640" arHeight="480" duration="0" songTitle="" songArtist="" songAlbum="" songCopyrightUrl="" songArtistUrl="" songAudioFileUrl="" stabilizationMode="0" mediaItemType="2" />
    <MediaItem id="2503" filePath="C:\Users\owner\Dropbox\Work\png\animation T=1.02503.png" arWidth="640" arHeight="480" duration="0" songTitle="" songArtist="" songAlbum="" songCopyrightUrl="" songArtistUrl="" songAudioFileUrl="" stabilizationMode="0" mediaItemType="2" />
    <MediaItem id="2504" filePath="C:\Users\owner\Dropbox\Work\png\animation T=1.02504.png" arWidth="640" arHeight="480" duration="0" songTitle="" songArtist="" songAlbum="" songCopyrightUrl="" songArtistUrl="" songAudioFileUrl="" stabilizationMode="0" mediaItemType="2" />
    <MediaItem id="2505" filePath="C:\Users\owner\Dropbox\Work\png\animation T=1.02505.png" arWidth="640" arHeight="480" duration="0" songTitle="" songArtist="" songAlbum="" songCopyrightUrl="" songArtistUrl="" songAudioFileUrl="" stabilizationMode="0" mediaItemType="2" />
    <MediaItem id="2506" filePath="C:\Users\owner\Dropbox\Work\png\animation T=1.02506.png" arWidth="640" arHeight="480" duration="0" songTitle="" songArtist="" songAlbum="" songCopyrightUrl="" songArtistUrl="" songAudioFileUrl="" stabilizationMode="0" mediaItemType="2" />
    <MediaItem id="2507" filePath="C:\Users\owner\Dropbox\Work\png\animation T=1.02507.png" arWidth="640" arHeight="480" duration="0" songTitle="" songArtist="" songAlbum="" songCopyrightUrl="" songArtistUrl="" songAudioFileUrl="" stabilizationMode="0" mediaItemType="2" />
    <MediaItem id="2508" filePath="C:\Users\owner\Dropbox\Work\png\animation T=1.02508.png" arWidth="640" arHeight="480" duration="0" songTitle="" songArtist="" songAlbum="" songCopyrightUrl="" songArtistUrl="" songAudioFileUrl="" stabilizationMode="0" mediaItemType="2" />
    <MediaItem id="2509" filePath="C:\Users\owner\Dropbox\Work\png\animation T=1.02509.png" arWidth="640" arHeight="480" duration="0" songTitle="" songArtist="" songAlbum="" songCopyrightUrl="" songArtistUrl="" songAudioFileUrl="" stabilizationMode="0" mediaItemType="2" />
    <MediaItem id="2510" filePath="C:\Users\owner\Dropbox\Work\png\animation T=1.02510.png" arWidth="640" arHeight="480" duration="0" songTitle="" songArtist="" songAlbum="" songCopyrightUrl="" songArtistUrl="" songAudioFileUrl="" stabilizationMode="0" mediaItemType="2" />
    <MediaItem id="2511" filePath="C:\Users\owner\Dropbox\Work\png\animation T=1.02511.png" arWidth="640" arHeight="480" duration="0" songTitle="" songArtist="" songAlbum="" songCopyrightUrl="" songArtistUrl="" songAudioFileUrl="" stabilizationMode="0" mediaItemType="2" />
    <MediaItem id="2512" filePath="C:\Users\owner\Dropbox\Work\png\animation T=1.02512.png" arWidth="640" arHeight="480" duration="0" songTitle="" songArtist="" songAlbum="" songCopyrightUrl="" songArtistUrl="" songAudioFileUrl="" stabilizationMode="0" mediaItemType="2" />
    <MediaItem id="2513" filePath="C:\Users\owner\Dropbox\Work\png\animation T=1.02513.png" arWidth="640" arHeight="480" duration="0" songTitle="" songArtist="" songAlbum="" songCopyrightUrl="" songArtistUrl="" songAudioFileUrl="" stabilizationMode="0" mediaItemType="2" />
    <MediaItem id="2514" filePath="C:\Users\owner\Dropbox\Work\png\animation T=1.02514.png" arWidth="640" arHeight="480" duration="0" songTitle="" songArtist="" songAlbum="" songCopyrightUrl="" songArtistUrl="" songAudioFileUrl="" stabilizationMode="0" mediaItemType="2" />
    <MediaItem id="2515" filePath="C:\Users\owner\Dropbox\Work\png\animation T=1.02515.png" arWidth="640" arHeight="480" duration="0" songTitle="" songArtist="" songAlbum="" songCopyrightUrl="" songArtistUrl="" songAudioFileUrl="" stabilizationMode="0" mediaItemType="2" />
    <MediaItem id="2516" filePath="C:\Users\owner\Dropbox\Work\png\animation T=1.02516.png" arWidth="640" arHeight="480" duration="0" songTitle="" songArtist="" songAlbum="" songCopyrightUrl="" songArtistUrl="" songAudioFileUrl="" stabilizationMode="0" mediaItemType="2" />
    <MediaItem id="2517" filePath="C:\Users\owner\Dropbox\Work\png\animation T=1.02517.png" arWidth="640" arHeight="480" duration="0" songTitle="" songArtist="" songAlbum="" songCopyrightUrl="" songArtistUrl="" songAudioFileUrl="" stabilizationMode="0" mediaItemType="2" />
    <MediaItem id="2518" filePath="C:\Users\owner\Dropbox\Work\png\animation T=1.02518.png" arWidth="640" arHeight="480" duration="0" songTitle="" songArtist="" songAlbum="" songCopyrightUrl="" songArtistUrl="" songAudioFileUrl="" stabilizationMode="0" mediaItemType="2" />
    <MediaItem id="2519" filePath="C:\Users\owner\Dropbox\Work\png\animation T=1.02519.png" arWidth="640" arHeight="480" duration="0" songTitle="" songArtist="" songAlbum="" songCopyrightUrl="" songArtistUrl="" songAudioFileUrl="" stabilizationMode="0" mediaItemType="2" />
    <MediaItem id="2520" filePath="C:\Users\owner\Dropbox\Work\png\animation T=1.02520.png" arWidth="640" arHeight="480" duration="0" songTitle="" songArtist="" songAlbum="" songCopyrightUrl="" songArtistUrl="" songAudioFileUrl="" stabilizationMode="0" mediaItemType="2" />
    <MediaItem id="2521" filePath="C:\Users\owner\Dropbox\Work\png\animation T=1.02521.png" arWidth="640" arHeight="480" duration="0" songTitle="" songArtist="" songAlbum="" songCopyrightUrl="" songArtistUrl="" songAudioFileUrl="" stabilizationMode="0" mediaItemType="2" />
    <MediaItem id="2522" filePath="C:\Users\owner\Dropbox\Work\png\animation T=1.02522.png" arWidth="640" arHeight="480" duration="0" songTitle="" songArtist="" songAlbum="" songCopyrightUrl="" songArtistUrl="" songAudioFileUrl="" stabilizationMode="0" mediaItemType="2" />
    <MediaItem id="2523" filePath="C:\Users\owner\Dropbox\Work\png\animation T=1.02523.png" arWidth="640" arHeight="480" duration="0" songTitle="" songArtist="" songAlbum="" songCopyrightUrl="" songArtistUrl="" songAudioFileUrl="" stabilizationMode="0" mediaItemType="2" />
    <MediaItem id="2524" filePath="C:\Users\owner\Dropbox\Work\png\animation T=1.02524.png" arWidth="640" arHeight="480" duration="0" songTitle="" songArtist="" songAlbum="" songCopyrightUrl="" songArtistUrl="" songAudioFileUrl="" stabilizationMode="0" mediaItemType="2" />
    <MediaItem id="2525" filePath="C:\Users\owner\Dropbox\Work\png\animation T=1.02525.png" arWidth="640" arHeight="480" duration="0" songTitle="" songArtist="" songAlbum="" songCopyrightUrl="" songArtistUrl="" songAudioFileUrl="" stabilizationMode="0" mediaItemType="2" />
    <MediaItem id="2526" filePath="C:\Users\owner\Dropbox\Work\png\animation T=1.02526.png" arWidth="640" arHeight="480" duration="0" songTitle="" songArtist="" songAlbum="" songCopyrightUrl="" songArtistUrl="" songAudioFileUrl="" stabilizationMode="0" mediaItemType="2" />
    <MediaItem id="2527" filePath="C:\Users\owner\Dropbox\Work\png\animation T=1.02527.png" arWidth="640" arHeight="480" duration="0" songTitle="" songArtist="" songAlbum="" songCopyrightUrl="" songArtistUrl="" songAudioFileUrl="" stabilizationMode="0" mediaItemType="2" />
    <MediaItem id="2528" filePath="C:\Users\owner\Dropbox\Work\png\animation T=1.02528.png" arWidth="640" arHeight="480" duration="0" songTitle="" songArtist="" songAlbum="" songCopyrightUrl="" songArtistUrl="" songAudioFileUrl="" stabilizationMode="0" mediaItemType="2" />
    <MediaItem id="2529" filePath="C:\Users\owner\Dropbox\Work\png\animation T=1.02529.png" arWidth="640" arHeight="480" duration="0" songTitle="" songArtist="" songAlbum="" songCopyrightUrl="" songArtistUrl="" songAudioFileUrl="" stabilizationMode="0" mediaItemType="2" />
    <MediaItem id="2530" filePath="C:\Users\owner\Dropbox\Work\png\animation T=1.02530.png" arWidth="640" arHeight="480" duration="0" songTitle="" songArtist="" songAlbum="" songCopyrightUrl="" songArtistUrl="" songAudioFileUrl="" stabilizationMode="0" mediaItemType="2" />
    <MediaItem id="2531" filePath="C:\Users\owner\Dropbox\Work\png\animation T=1.02531.png" arWidth="640" arHeight="480" duration="0" songTitle="" songArtist="" songAlbum="" songCopyrightUrl="" songArtistUrl="" songAudioFileUrl="" stabilizationMode="0" mediaItemType="2" />
    <MediaItem id="2532" filePath="C:\Users\owner\Dropbox\Work\png\animation T=1.02532.png" arWidth="640" arHeight="480" duration="0" songTitle="" songArtist="" songAlbum="" songCopyrightUrl="" songArtistUrl="" songAudioFileUrl="" stabilizationMode="0" mediaItemType="2" />
    <MediaItem id="2533" filePath="C:\Users\owner\Dropbox\Work\png\animation T=1.02533.png" arWidth="640" arHeight="480" duration="0" songTitle="" songArtist="" songAlbum="" songCopyrightUrl="" songArtistUrl="" songAudioFileUrl="" stabilizationMode="0" mediaItemType="2" />
    <MediaItem id="2534" filePath="C:\Users\owner\Dropbox\Work\png\animation T=1.02534.png" arWidth="640" arHeight="480" duration="0" songTitle="" songArtist="" songAlbum="" songCopyrightUrl="" songArtistUrl="" songAudioFileUrl="" stabilizationMode="0" mediaItemType="2" />
    <MediaItem id="2535" filePath="C:\Users\owner\Dropbox\Work\png\animation T=1.02535.png" arWidth="640" arHeight="480" duration="0" songTitle="" songArtist="" songAlbum="" songCopyrightUrl="" songArtistUrl="" songAudioFileUrl="" stabilizationMode="0" mediaItemType="2" />
    <MediaItem id="2536" filePath="C:\Users\owner\Dropbox\Work\png\animation T=1.02536.png" arWidth="640" arHeight="480" duration="0" songTitle="" songArtist="" songAlbum="" songCopyrightUrl="" songArtistUrl="" songAudioFileUrl="" stabilizationMode="0" mediaItemType="2" />
    <MediaItem id="2537" filePath="C:\Users\owner\Dropbox\Work\png\animation T=1.02537.png" arWidth="640" arHeight="480" duration="0" songTitle="" songArtist="" songAlbum="" songCopyrightUrl="" songArtistUrl="" songAudioFileUrl="" stabilizationMode="0" mediaItemType="2" />
    <MediaItem id="2538" filePath="C:\Users\owner\Dropbox\Work\png\animation T=1.02538.png" arWidth="640" arHeight="480" duration="0" songTitle="" songArtist="" songAlbum="" songCopyrightUrl="" songArtistUrl="" songAudioFileUrl="" stabilizationMode="0" mediaItemType="2" />
    <MediaItem id="2539" filePath="C:\Users\owner\Dropbox\Work\png\animation T=1.02539.png" arWidth="640" arHeight="480" duration="0" songTitle="" songArtist="" songAlbum="" songCopyrightUrl="" songArtistUrl="" songAudioFileUrl="" stabilizationMode="0" mediaItemType="2" />
    <MediaItem id="2540" filePath="C:\Users\owner\Dropbox\Work\png\animation T=1.02540.png" arWidth="640" arHeight="480" duration="0" songTitle="" songArtist="" songAlbum="" songCopyrightUrl="" songArtistUrl="" songAudioFileUrl="" stabilizationMode="0" mediaItemType="2" />
    <MediaItem id="2541" filePath="C:\Users\owner\Dropbox\Work\png\animation T=1.02541.png" arWidth="640" arHeight="480" duration="0" songTitle="" songArtist="" songAlbum="" songCopyrightUrl="" songArtistUrl="" songAudioFileUrl="" stabilizationMode="0" mediaItemType="2" />
    <MediaItem id="2542" filePath="C:\Users\owner\Dropbox\Work\png\animation T=1.02542.png" arWidth="640" arHeight="480" duration="0" songTitle="" songArtist="" songAlbum="" songCopyrightUrl="" songArtistUrl="" songAudioFileUrl="" stabilizationMode="0" mediaItemType="2" />
    <MediaItem id="2543" filePath="C:\Users\owner\Dropbox\Work\png\animation T=1.02543.png" arWidth="640" arHeight="480" duration="0" songTitle="" songArtist="" songAlbum="" songCopyrightUrl="" songArtistUrl="" songAudioFileUrl="" stabilizationMode="0" mediaItemType="2" />
    <MediaItem id="2544" filePath="C:\Users\owner\Dropbox\Work\png\animation T=1.02544.png" arWidth="640" arHeight="480" duration="0" songTitle="" songArtist="" songAlbum="" songCopyrightUrl="" songArtistUrl="" songAudioFileUrl="" stabilizationMode="0" mediaItemType="2" />
    <MediaItem id="2545" filePath="C:\Users\owner\Dropbox\Work\png\animation T=1.02545.png" arWidth="640" arHeight="480" duration="0" songTitle="" songArtist="" songAlbum="" songCopyrightUrl="" songArtistUrl="" songAudioFileUrl="" stabilizationMode="0" mediaItemType="2" />
    <MediaItem id="2546" filePath="C:\Users\owner\Dropbox\Work\png\animation T=1.02546.png" arWidth="640" arHeight="480" duration="0" songTitle="" songArtist="" songAlbum="" songCopyrightUrl="" songArtistUrl="" songAudioFileUrl="" stabilizationMode="0" mediaItemType="2" />
    <MediaItem id="2547" filePath="C:\Users\owner\Dropbox\Work\png\animation T=1.02547.png" arWidth="640" arHeight="480" duration="0" songTitle="" songArtist="" songAlbum="" songCopyrightUrl="" songArtistUrl="" songAudioFileUrl="" stabilizationMode="0" mediaItemType="2" />
    <MediaItem id="2548" filePath="C:\Users\owner\Dropbox\Work\png\animation T=1.02548.png" arWidth="640" arHeight="480" duration="0" songTitle="" songArtist="" songAlbum="" songCopyrightUrl="" songArtistUrl="" songAudioFileUrl="" stabilizationMode="0" mediaItemType="2" />
    <MediaItem id="2549" filePath="C:\Users\owner\Dropbox\Work\png\animation T=1.02549.png" arWidth="640" arHeight="480" duration="0" songTitle="" songArtist="" songAlbum="" songCopyrightUrl="" songArtistUrl="" songAudioFileUrl="" stabilizationMode="0" mediaItemType="2" />
    <MediaItem id="2550" filePath="C:\Users\owner\Dropbox\Work\png\animation T=1.02550.png" arWidth="640" arHeight="480" duration="0" songTitle="" songArtist="" songAlbum="" songCopyrightUrl="" songArtistUrl="" songAudioFileUrl="" stabilizationMode="0" mediaItemType="2" />
    <MediaItem id="2551" filePath="C:\Users\owner\Dropbox\Work\png\animation T=1.02551.png" arWidth="640" arHeight="480" duration="0" songTitle="" songArtist="" songAlbum="" songCopyrightUrl="" songArtistUrl="" songAudioFileUrl="" stabilizationMode="0" mediaItemType="2" />
    <MediaItem id="2552" filePath="C:\Users\owner\Dropbox\Work\png\animation T=1.02552.png" arWidth="640" arHeight="480" duration="0" songTitle="" songArtist="" songAlbum="" songCopyrightUrl="" songArtistUrl="" songAudioFileUrl="" stabilizationMode="0" mediaItemType="2" />
    <MediaItem id="2553" filePath="C:\Users\owner\Dropbox\Work\png\animation T=1.02553.png" arWidth="640" arHeight="480" duration="0" songTitle="" songArtist="" songAlbum="" songCopyrightUrl="" songArtistUrl="" songAudioFileUrl="" stabilizationMode="0" mediaItemType="2" />
    <MediaItem id="2554" filePath="C:\Users\owner\Dropbox\Work\png\animation T=1.02554.png" arWidth="640" arHeight="480" duration="0" songTitle="" songArtist="" songAlbum="" songCopyrightUrl="" songArtistUrl="" songAudioFileUrl="" stabilizationMode="0" mediaItemType="2" />
    <MediaItem id="2555" filePath="C:\Users\owner\Dropbox\Work\png\animation T=1.02555.png" arWidth="640" arHeight="480" duration="0" songTitle="" songArtist="" songAlbum="" songCopyrightUrl="" songArtistUrl="" songAudioFileUrl="" stabilizationMode="0" mediaItemType="2" />
    <MediaItem id="2556" filePath="C:\Users\owner\Dropbox\Work\png\animation T=1.02556.png" arWidth="640" arHeight="480" duration="0" songTitle="" songArtist="" songAlbum="" songCopyrightUrl="" songArtistUrl="" songAudioFileUrl="" stabilizationMode="0" mediaItemType="2" />
    <MediaItem id="2557" filePath="C:\Users\owner\Dropbox\Work\png\animation T=1.02557.png" arWidth="640" arHeight="480" duration="0" songTitle="" songArtist="" songAlbum="" songCopyrightUrl="" songArtistUrl="" songAudioFileUrl="" stabilizationMode="0" mediaItemType="2" />
    <MediaItem id="2558" filePath="C:\Users\owner\Dropbox\Work\png\animation T=1.02558.png" arWidth="640" arHeight="480" duration="0" songTitle="" songArtist="" songAlbum="" songCopyrightUrl="" songArtistUrl="" songAudioFileUrl="" stabilizationMode="0" mediaItemType="2" />
    <MediaItem id="2559" filePath="C:\Users\owner\Dropbox\Work\png\animation T=1.02559.png" arWidth="640" arHeight="480" duration="0" songTitle="" songArtist="" songAlbum="" songCopyrightUrl="" songArtistUrl="" songAudioFileUrl="" stabilizationMode="0" mediaItemType="2" />
    <MediaItem id="2560" filePath="C:\Users\owner\Dropbox\Work\png\animation T=1.02560.png" arWidth="640" arHeight="480" duration="0" songTitle="" songArtist="" songAlbum="" songCopyrightUrl="" songArtistUrl="" songAudioFileUrl="" stabilizationMode="0" mediaItemType="2" />
    <MediaItem id="2561" filePath="C:\Users\owner\Dropbox\Work\png\animation T=1.02561.png" arWidth="640" arHeight="480" duration="0" songTitle="" songArtist="" songAlbum="" songCopyrightUrl="" songArtistUrl="" songAudioFileUrl="" stabilizationMode="0" mediaItemType="2" />
    <MediaItem id="2562" filePath="C:\Users\owner\Dropbox\Work\png\animation T=1.02562.png" arWidth="640" arHeight="480" duration="0" songTitle="" songArtist="" songAlbum="" songCopyrightUrl="" songArtistUrl="" songAudioFileUrl="" stabilizationMode="0" mediaItemType="2" />
    <MediaItem id="2563" filePath="C:\Users\owner\Dropbox\Work\png\animation T=1.02563.png" arWidth="640" arHeight="480" duration="0" songTitle="" songArtist="" songAlbum="" songCopyrightUrl="" songArtistUrl="" songAudioFileUrl="" stabilizationMode="0" mediaItemType="2" />
    <MediaItem id="2564" filePath="C:\Users\owner\Dropbox\Work\png\animation T=1.02564.png" arWidth="640" arHeight="480" duration="0" songTitle="" songArtist="" songAlbum="" songCopyrightUrl="" songArtistUrl="" songAudioFileUrl="" stabilizationMode="0" mediaItemType="2" />
    <MediaItem id="2565" filePath="C:\Users\owner\Dropbox\Work\png\animation T=1.02565.png" arWidth="640" arHeight="480" duration="0" songTitle="" songArtist="" songAlbum="" songCopyrightUrl="" songArtistUrl="" songAudioFileUrl="" stabilizationMode="0" mediaItemType="2" />
    <MediaItem id="2566" filePath="C:\Users\owner\Dropbox\Work\png\animation T=1.02566.png" arWidth="640" arHeight="480" duration="0" songTitle="" songArtist="" songAlbum="" songCopyrightUrl="" songArtistUrl="" songAudioFileUrl="" stabilizationMode="0" mediaItemType="2" />
    <MediaItem id="2567" filePath="C:\Users\owner\Dropbox\Work\png\animation T=1.02567.png" arWidth="640" arHeight="480" duration="0" songTitle="" songArtist="" songAlbum="" songCopyrightUrl="" songArtistUrl="" songAudioFileUrl="" stabilizationMode="0" mediaItemType="2" />
    <MediaItem id="2568" filePath="C:\Users\owner\Dropbox\Work\png\animation T=1.02568.png" arWidth="640" arHeight="480" duration="0" songTitle="" songArtist="" songAlbum="" songCopyrightUrl="" songArtistUrl="" songAudioFileUrl="" stabilizationMode="0" mediaItemType="2" />
    <MediaItem id="2569" filePath="C:\Users\owner\Dropbox\Work\png\animation T=1.02569.png" arWidth="640" arHeight="480" duration="0" songTitle="" songArtist="" songAlbum="" songCopyrightUrl="" songArtistUrl="" songAudioFileUrl="" stabilizationMode="0" mediaItemType="2" />
    <MediaItem id="2570" filePath="C:\Users\owner\Dropbox\Work\png\animation T=1.02570.png" arWidth="640" arHeight="480" duration="0" songTitle="" songArtist="" songAlbum="" songCopyrightUrl="" songArtistUrl="" songAudioFileUrl="" stabilizationMode="0" mediaItemType="2" />
    <MediaItem id="2571" filePath="C:\Users\owner\Dropbox\Work\png\animation T=1.02571.png" arWidth="640" arHeight="480" duration="0" songTitle="" songArtist="" songAlbum="" songCopyrightUrl="" songArtistUrl="" songAudioFileUrl="" stabilizationMode="0" mediaItemType="2" />
    <MediaItem id="2572" filePath="C:\Users\owner\Dropbox\Work\png\animation T=1.02572.png" arWidth="640" arHeight="480" duration="0" songTitle="" songArtist="" songAlbum="" songCopyrightUrl="" songArtistUrl="" songAudioFileUrl="" stabilizationMode="0" mediaItemType="2" />
    <MediaItem id="2573" filePath="C:\Users\owner\Dropbox\Work\png\animation T=1.02573.png" arWidth="640" arHeight="480" duration="0" songTitle="" songArtist="" songAlbum="" songCopyrightUrl="" songArtistUrl="" songAudioFileUrl="" stabilizationMode="0" mediaItemType="2" />
    <MediaItem id="2574" filePath="C:\Users\owner\Dropbox\Work\png\animation T=1.02574.png" arWidth="640" arHeight="480" duration="0" songTitle="" songArtist="" songAlbum="" songCopyrightUrl="" songArtistUrl="" songAudioFileUrl="" stabilizationMode="0" mediaItemType="2" />
    <MediaItem id="2575" filePath="C:\Users\owner\Dropbox\Work\png\animation T=1.02575.png" arWidth="640" arHeight="480" duration="0" songTitle="" songArtist="" songAlbum="" songCopyrightUrl="" songArtistUrl="" songAudioFileUrl="" stabilizationMode="0" mediaItemType="2" />
    <MediaItem id="2576" filePath="C:\Users\owner\Dropbox\Work\png\animation T=1.02576.png" arWidth="640" arHeight="480" duration="0" songTitle="" songArtist="" songAlbum="" songCopyrightUrl="" songArtistUrl="" songAudioFileUrl="" stabilizationMode="0" mediaItemType="2" />
    <MediaItem id="2577" filePath="C:\Users\owner\Dropbox\Work\png\animation T=1.02577.png" arWidth="640" arHeight="480" duration="0" songTitle="" songArtist="" songAlbum="" songCopyrightUrl="" songArtistUrl="" songAudioFileUrl="" stabilizationMode="0" mediaItemType="2" />
    <MediaItem id="2578" filePath="C:\Users\owner\Dropbox\Work\png\animation T=1.02578.png" arWidth="640" arHeight="480" duration="0" songTitle="" songArtist="" songAlbum="" songCopyrightUrl="" songArtistUrl="" songAudioFileUrl="" stabilizationMode="0" mediaItemType="2" />
    <MediaItem id="2579" filePath="C:\Users\owner\Dropbox\Work\png\animation T=1.02579.png" arWidth="640" arHeight="480" duration="0" songTitle="" songArtist="" songAlbum="" songCopyrightUrl="" songArtistUrl="" songAudioFileUrl="" stabilizationMode="0" mediaItemType="2" />
    <MediaItem id="2580" filePath="C:\Users\owner\Dropbox\Work\png\animation T=1.02580.png" arWidth="640" arHeight="480" duration="0" songTitle="" songArtist="" songAlbum="" songCopyrightUrl="" songArtistUrl="" songAudioFileUrl="" stabilizationMode="0" mediaItemType="2" />
    <MediaItem id="2581" filePath="C:\Users\owner\Dropbox\Work\png\animation T=1.02581.png" arWidth="640" arHeight="480" duration="0" songTitle="" songArtist="" songAlbum="" songCopyrightUrl="" songArtistUrl="" songAudioFileUrl="" stabilizationMode="0" mediaItemType="2" />
    <MediaItem id="2582" filePath="C:\Users\owner\Dropbox\Work\png\animation T=1.02582.png" arWidth="640" arHeight="480" duration="0" songTitle="" songArtist="" songAlbum="" songCopyrightUrl="" songArtistUrl="" songAudioFileUrl="" stabilizationMode="0" mediaItemType="2" />
    <MediaItem id="2583" filePath="C:\Users\owner\Dropbox\Work\png\animation T=1.02583.png" arWidth="640" arHeight="480" duration="0" songTitle="" songArtist="" songAlbum="" songCopyrightUrl="" songArtistUrl="" songAudioFileUrl="" stabilizationMode="0" mediaItemType="2" />
    <MediaItem id="2584" filePath="C:\Users\owner\Dropbox\Work\png\animation T=1.02584.png" arWidth="640" arHeight="480" duration="0" songTitle="" songArtist="" songAlbum="" songCopyrightUrl="" songArtistUrl="" songAudioFileUrl="" stabilizationMode="0" mediaItemType="2" />
    <MediaItem id="2585" filePath="C:\Users\owner\Dropbox\Work\png\animation T=1.02585.png" arWidth="640" arHeight="480" duration="0" songTitle="" songArtist="" songAlbum="" songCopyrightUrl="" songArtistUrl="" songAudioFileUrl="" stabilizationMode="0" mediaItemType="2" />
    <MediaItem id="2586" filePath="C:\Users\owner\Dropbox\Work\png\animation T=1.02586.png" arWidth="640" arHeight="480" duration="0" songTitle="" songArtist="" songAlbum="" songCopyrightUrl="" songArtistUrl="" songAudioFileUrl="" stabilizationMode="0" mediaItemType="2" />
    <MediaItem id="2587" filePath="C:\Users\owner\Dropbox\Work\png\animation T=1.02587.png" arWidth="640" arHeight="480" duration="0" songTitle="" songArtist="" songAlbum="" songCopyrightUrl="" songArtistUrl="" songAudioFileUrl="" stabilizationMode="0" mediaItemType="2" />
    <MediaItem id="2588" filePath="C:\Users\owner\Dropbox\Work\png\animation T=1.02588.png" arWidth="640" arHeight="480" duration="0" songTitle="" songArtist="" songAlbum="" songCopyrightUrl="" songArtistUrl="" songAudioFileUrl="" stabilizationMode="0" mediaItemType="2" />
    <MediaItem id="2589" filePath="C:\Users\owner\Dropbox\Work\png\animation T=1.02589.png" arWidth="640" arHeight="480" duration="0" songTitle="" songArtist="" songAlbum="" songCopyrightUrl="" songArtistUrl="" songAudioFileUrl="" stabilizationMode="0" mediaItemType="2" />
    <MediaItem id="2590" filePath="C:\Users\owner\Dropbox\Work\png\animation T=1.02590.png" arWidth="640" arHeight="480" duration="0" songTitle="" songArtist="" songAlbum="" songCopyrightUrl="" songArtistUrl="" songAudioFileUrl="" stabilizationMode="0" mediaItemType="2" />
    <MediaItem id="2591" filePath="C:\Users\owner\Dropbox\Work\png\animation T=1.02591.png" arWidth="640" arHeight="480" duration="0" songTitle="" songArtist="" songAlbum="" songCopyrightUrl="" songArtistUrl="" songAudioFileUrl="" stabilizationMode="0" mediaItemType="2" />
    <MediaItem id="2592" filePath="C:\Users\owner\Dropbox\Work\png\animation T=1.02592.png" arWidth="640" arHeight="480" duration="0" songTitle="" songArtist="" songAlbum="" songCopyrightUrl="" songArtistUrl="" songAudioFileUrl="" stabilizationMode="0" mediaItemType="2" />
    <MediaItem id="2593" filePath="C:\Users\owner\Dropbox\Work\png\animation T=1.02593.png" arWidth="640" arHeight="480" duration="0" songTitle="" songArtist="" songAlbum="" songCopyrightUrl="" songArtistUrl="" songAudioFileUrl="" stabilizationMode="0" mediaItemType="2" />
    <MediaItem id="2594" filePath="C:\Users\owner\Dropbox\Work\png\animation T=1.02594.png" arWidth="640" arHeight="480" duration="0" songTitle="" songArtist="" songAlbum="" songCopyrightUrl="" songArtistUrl="" songAudioFileUrl="" stabilizationMode="0" mediaItemType="2" />
    <MediaItem id="2595" filePath="C:\Users\owner\Dropbox\Work\png\animation T=1.02595.png" arWidth="640" arHeight="480" duration="0" songTitle="" songArtist="" songAlbum="" songCopyrightUrl="" songArtistUrl="" songAudioFileUrl="" stabilizationMode="0" mediaItemType="2" />
    <MediaItem id="2596" filePath="C:\Users\owner\Dropbox\Work\png\animation T=1.02596.png" arWidth="640" arHeight="480" duration="0" songTitle="" songArtist="" songAlbum="" songCopyrightUrl="" songArtistUrl="" songAudioFileUrl="" stabilizationMode="0" mediaItemType="2" />
    <MediaItem id="2597" filePath="C:\Users\owner\Dropbox\Work\png\animation T=1.02597.png" arWidth="640" arHeight="480" duration="0" songTitle="" songArtist="" songAlbum="" songCopyrightUrl="" songArtistUrl="" songAudioFileUrl="" stabilizationMode="0" mediaItemType="2" />
    <MediaItem id="2598" filePath="C:\Users\owner\Dropbox\Work\png\animation T=1.02598.png" arWidth="640" arHeight="480" duration="0" songTitle="" songArtist="" songAlbum="" songCopyrightUrl="" songArtistUrl="" songAudioFileUrl="" stabilizationMode="0" mediaItemType="2" />
    <MediaItem id="2599" filePath="C:\Users\owner\Dropbox\Work\png\animation T=1.02599.png" arWidth="640" arHeight="480" duration="0" songTitle="" songArtist="" songAlbum="" songCopyrightUrl="" songArtistUrl="" songAudioFileUrl="" stabilizationMode="0" mediaItemType="2" />
    <MediaItem id="2600" filePath="C:\Users\owner\Dropbox\Work\png\animation T=1.02600.png" arWidth="640" arHeight="480" duration="0" songTitle="" songArtist="" songAlbum="" songCopyrightUrl="" songArtistUrl="" songAudioFileUrl="" stabilizationMode="0" mediaItemType="2" />
    <MediaItem id="2601" filePath="C:\Users\owner\Dropbox\Work\png\animation T=1.02601.png" arWidth="640" arHeight="480" duration="0" songTitle="" songArtist="" songAlbum="" songCopyrightUrl="" songArtistUrl="" songAudioFileUrl="" stabilizationMode="0" mediaItemType="2" />
    <MediaItem id="2602" filePath="C:\Users\owner\Dropbox\Work\png\animation T=1.02602.png" arWidth="640" arHeight="480" duration="0" songTitle="" songArtist="" songAlbum="" songCopyrightUrl="" songArtistUrl="" songAudioFileUrl="" stabilizationMode="0" mediaItemType="2" />
    <MediaItem id="2603" filePath="C:\Users\owner\Dropbox\Work\png\animation T=1.02603.png" arWidth="640" arHeight="480" duration="0" songTitle="" songArtist="" songAlbum="" songCopyrightUrl="" songArtistUrl="" songAudioFileUrl="" stabilizationMode="0" mediaItemType="2" />
    <MediaItem id="2604" filePath="C:\Users\owner\Dropbox\Work\png\animation T=1.02604.png" arWidth="640" arHeight="480" duration="0" songTitle="" songArtist="" songAlbum="" songCopyrightUrl="" songArtistUrl="" songAudioFileUrl="" stabilizationMode="0" mediaItemType="2" />
    <MediaItem id="2605" filePath="C:\Users\owner\Dropbox\Work\png\animation T=1.02605.png" arWidth="640" arHeight="480" duration="0" songTitle="" songArtist="" songAlbum="" songCopyrightUrl="" songArtistUrl="" songAudioFileUrl="" stabilizationMode="0" mediaItemType="2" />
    <MediaItem id="2606" filePath="C:\Users\owner\Dropbox\Work\png\animation T=1.02606.png" arWidth="640" arHeight="480" duration="0" songTitle="" songArtist="" songAlbum="" songCopyrightUrl="" songArtistUrl="" songAudioFileUrl="" stabilizationMode="0" mediaItemType="2" />
    <MediaItem id="2607" filePath="C:\Users\owner\Dropbox\Work\png\animation T=1.02607.png" arWidth="640" arHeight="480" duration="0" songTitle="" songArtist="" songAlbum="" songCopyrightUrl="" songArtistUrl="" songAudioFileUrl="" stabilizationMode="0" mediaItemType="2" />
    <MediaItem id="2608" filePath="C:\Users\owner\Dropbox\Work\png\animation T=1.02608.png" arWidth="640" arHeight="480" duration="0" songTitle="" songArtist="" songAlbum="" songCopyrightUrl="" songArtistUrl="" songAudioFileUrl="" stabilizationMode="0" mediaItemType="2" />
    <MediaItem id="2609" filePath="C:\Users\owner\Dropbox\Work\png\animation T=1.02609.png" arWidth="640" arHeight="480" duration="0" songTitle="" songArtist="" songAlbum="" songCopyrightUrl="" songArtistUrl="" songAudioFileUrl="" stabilizationMode="0" mediaItemType="2" />
    <MediaItem id="2610" filePath="C:\Users\owner\Dropbox\Work\png\animation T=1.02610.png" arWidth="640" arHeight="480" duration="0" songTitle="" songArtist="" songAlbum="" songCopyrightUrl="" songArtistUrl="" songAudioFileUrl="" stabilizationMode="0" mediaItemType="2" />
    <MediaItem id="2611" filePath="C:\Users\owner\Dropbox\Work\png\animation T=1.02611.png" arWidth="640" arHeight="480" duration="0" songTitle="" songArtist="" songAlbum="" songCopyrightUrl="" songArtistUrl="" songAudioFileUrl="" stabilizationMode="0" mediaItemType="2" />
    <MediaItem id="2612" filePath="C:\Users\owner\Dropbox\Work\png\animation T=1.02612.png" arWidth="640" arHeight="480" duration="0" songTitle="" songArtist="" songAlbum="" songCopyrightUrl="" songArtistUrl="" songAudioFileUrl="" stabilizationMode="0" mediaItemType="2" />
    <MediaItem id="2613" filePath="C:\Users\owner\Dropbox\Work\png\animation T=1.02613.png" arWidth="640" arHeight="480" duration="0" songTitle="" songArtist="" songAlbum="" songCopyrightUrl="" songArtistUrl="" songAudioFileUrl="" stabilizationMode="0" mediaItemType="2" />
    <MediaItem id="2614" filePath="C:\Users\owner\Dropbox\Work\png\animation T=1.02614.png" arWidth="640" arHeight="480" duration="0" songTitle="" songArtist="" songAlbum="" songCopyrightUrl="" songArtistUrl="" songAudioFileUrl="" stabilizationMode="0" mediaItemType="2" />
    <MediaItem id="2615" filePath="C:\Users\owner\Dropbox\Work\png\animation T=1.02615.png" arWidth="640" arHeight="480" duration="0" songTitle="" songArtist="" songAlbum="" songCopyrightUrl="" songArtistUrl="" songAudioFileUrl="" stabilizationMode="0" mediaItemType="2" />
    <MediaItem id="2616" filePath="C:\Users\owner\Dropbox\Work\png\animation T=1.02616.png" arWidth="640" arHeight="480" duration="0" songTitle="" songArtist="" songAlbum="" songCopyrightUrl="" songArtistUrl="" songAudioFileUrl="" stabilizationMode="0" mediaItemType="2" />
    <MediaItem id="2617" filePath="C:\Users\owner\Dropbox\Work\png\animation T=1.02617.png" arWidth="640" arHeight="480" duration="0" songTitle="" songArtist="" songAlbum="" songCopyrightUrl="" songArtistUrl="" songAudioFileUrl="" stabilizationMode="0" mediaItemType="2" />
    <MediaItem id="2618" filePath="C:\Users\owner\Dropbox\Work\png\animation T=1.02618.png" arWidth="640" arHeight="480" duration="0" songTitle="" songArtist="" songAlbum="" songCopyrightUrl="" songArtistUrl="" songAudioFileUrl="" stabilizationMode="0" mediaItemType="2" />
    <MediaItem id="2619" filePath="C:\Users\owner\Dropbox\Work\png\animation T=1.02619.png" arWidth="640" arHeight="480" duration="0" songTitle="" songArtist="" songAlbum="" songCopyrightUrl="" songArtistUrl="" songAudioFileUrl="" stabilizationMode="0" mediaItemType="2" />
    <MediaItem id="2620" filePath="C:\Users\owner\Dropbox\Work\png\animation T=1.02620.png" arWidth="640" arHeight="480" duration="0" songTitle="" songArtist="" songAlbum="" songCopyrightUrl="" songArtistUrl="" songAudioFileUrl="" stabilizationMode="0" mediaItemType="2" />
    <MediaItem id="2621" filePath="C:\Users\owner\Dropbox\Work\png\animation T=1.02621.png" arWidth="640" arHeight="480" duration="0" songTitle="" songArtist="" songAlbum="" songCopyrightUrl="" songArtistUrl="" songAudioFileUrl="" stabilizationMode="0" mediaItemType="2" />
    <MediaItem id="2622" filePath="C:\Users\owner\Dropbox\Work\png\animation T=1.02622.png" arWidth="640" arHeight="480" duration="0" songTitle="" songArtist="" songAlbum="" songCopyrightUrl="" songArtistUrl="" songAudioFileUrl="" stabilizationMode="0" mediaItemType="2" />
    <MediaItem id="2623" filePath="C:\Users\owner\Dropbox\Work\png\animation T=1.02623.png" arWidth="640" arHeight="480" duration="0" songTitle="" songArtist="" songAlbum="" songCopyrightUrl="" songArtistUrl="" songAudioFileUrl="" stabilizationMode="0" mediaItemType="2" />
    <MediaItem id="2624" filePath="C:\Users\owner\Dropbox\Work\png\animation T=1.02624.png" arWidth="640" arHeight="480" duration="0" songTitle="" songArtist="" songAlbum="" songCopyrightUrl="" songArtistUrl="" songAudioFileUrl="" stabilizationMode="0" mediaItemType="2" />
    <MediaItem id="2625" filePath="C:\Users\owner\Dropbox\Work\png\animation T=1.02625.png" arWidth="640" arHeight="480" duration="0" songTitle="" songArtist="" songAlbum="" songCopyrightUrl="" songArtistUrl="" songAudioFileUrl="" stabilizationMode="0" mediaItemType="2" />
    <MediaItem id="2626" filePath="C:\Users\owner\Dropbox\Work\png\animation T=1.02626.png" arWidth="640" arHeight="480" duration="0" songTitle="" songArtist="" songAlbum="" songCopyrightUrl="" songArtistUrl="" songAudioFileUrl="" stabilizationMode="0" mediaItemType="2" />
    <MediaItem id="2627" filePath="C:\Users\owner\Dropbox\Work\png\animation T=1.02627.png" arWidth="640" arHeight="480" duration="0" songTitle="" songArtist="" songAlbum="" songCopyrightUrl="" songArtistUrl="" songAudioFileUrl="" stabilizationMode="0" mediaItemType="2" />
    <MediaItem id="2628" filePath="C:\Users\owner\Dropbox\Work\png\animation T=1.02628.png" arWidth="640" arHeight="480" duration="0" songTitle="" songArtist="" songAlbum="" songCopyrightUrl="" songArtistUrl="" songAudioFileUrl="" stabilizationMode="0" mediaItemType="2" />
    <MediaItem id="2629" filePath="C:\Users\owner\Dropbox\Work\png\animation T=1.02629.png" arWidth="640" arHeight="480" duration="0" songTitle="" songArtist="" songAlbum="" songCopyrightUrl="" songArtistUrl="" songAudioFileUrl="" stabilizationMode="0" mediaItemType="2" />
    <MediaItem id="2630" filePath="C:\Users\owner\Dropbox\Work\png\animation T=1.02630.png" arWidth="640" arHeight="480" duration="0" songTitle="" songArtist="" songAlbum="" songCopyrightUrl="" songArtistUrl="" songAudioFileUrl="" stabilizationMode="0" mediaItemType="2" />
    <MediaItem id="2631" filePath="C:\Users\owner\Dropbox\Work\png\animation T=1.02631.png" arWidth="640" arHeight="480" duration="0" songTitle="" songArtist="" songAlbum="" songCopyrightUrl="" songArtistUrl="" songAudioFileUrl="" stabilizationMode="0" mediaItemType="2" />
    <MediaItem id="2632" filePath="C:\Users\owner\Dropbox\Work\png\animation T=1.02632.png" arWidth="640" arHeight="480" duration="0" songTitle="" songArtist="" songAlbum="" songCopyrightUrl="" songArtistUrl="" songAudioFileUrl="" stabilizationMode="0" mediaItemType="2" />
    <MediaItem id="2633" filePath="C:\Users\owner\Dropbox\Work\png\animation T=1.02633.png" arWidth="640" arHeight="480" duration="0" songTitle="" songArtist="" songAlbum="" songCopyrightUrl="" songArtistUrl="" songAudioFileUrl="" stabilizationMode="0" mediaItemType="2" />
    <MediaItem id="2634" filePath="C:\Users\owner\Dropbox\Work\png\animation T=1.02634.png" arWidth="640" arHeight="480" duration="0" songTitle="" songArtist="" songAlbum="" songCopyrightUrl="" songArtistUrl="" songAudioFileUrl="" stabilizationMode="0" mediaItemType="2" />
    <MediaItem id="2635" filePath="C:\Users\owner\Dropbox\Work\png\animation T=1.02635.png" arWidth="640" arHeight="480" duration="0" songTitle="" songArtist="" songAlbum="" songCopyrightUrl="" songArtistUrl="" songAudioFileUrl="" stabilizationMode="0" mediaItemType="2" />
    <MediaItem id="2636" filePath="C:\Users\owner\Dropbox\Work\png\animation T=1.02636.png" arWidth="640" arHeight="480" duration="0" songTitle="" songArtist="" songAlbum="" songCopyrightUrl="" songArtistUrl="" songAudioFileUrl="" stabilizationMode="0" mediaItemType="2" />
    <MediaItem id="2637" filePath="C:\Users\owner\Dropbox\Work\png\animation T=1.02637.png" arWidth="640" arHeight="480" duration="0" songTitle="" songArtist="" songAlbum="" songCopyrightUrl="" songArtistUrl="" songAudioFileUrl="" stabilizationMode="0" mediaItemType="2" />
    <MediaItem id="2638" filePath="C:\Users\owner\Dropbox\Work\png\animation T=1.02638.png" arWidth="640" arHeight="480" duration="0" songTitle="" songArtist="" songAlbum="" songCopyrightUrl="" songArtistUrl="" songAudioFileUrl="" stabilizationMode="0" mediaItemType="2" />
    <MediaItem id="2639" filePath="C:\Users\owner\Dropbox\Work\png\animation T=1.02639.png" arWidth="640" arHeight="480" duration="0" songTitle="" songArtist="" songAlbum="" songCopyrightUrl="" songArtistUrl="" songAudioFileUrl="" stabilizationMode="0" mediaItemType="2" />
    <MediaItem id="2640" filePath="C:\Users\owner\Dropbox\Work\png\animation T=1.02640.png" arWidth="640" arHeight="480" duration="0" songTitle="" songArtist="" songAlbum="" songCopyrightUrl="" songArtistUrl="" songAudioFileUrl="" stabilizationMode="0" mediaItemType="2" />
    <MediaItem id="2641" filePath="C:\Users\owner\Dropbox\Work\png\animation T=1.02641.png" arWidth="640" arHeight="480" duration="0" songTitle="" songArtist="" songAlbum="" songCopyrightUrl="" songArtistUrl="" songAudioFileUrl="" stabilizationMode="0" mediaItemType="2" />
    <MediaItem id="2642" filePath="C:\Users\owner\Dropbox\Work\png\animation T=1.02642.png" arWidth="640" arHeight="480" duration="0" songTitle="" songArtist="" songAlbum="" songCopyrightUrl="" songArtistUrl="" songAudioFileUrl="" stabilizationMode="0" mediaItemType="2" />
    <MediaItem id="2643" filePath="C:\Users\owner\Dropbox\Work\png\animation T=1.02643.png" arWidth="640" arHeight="480" duration="0" songTitle="" songArtist="" songAlbum="" songCopyrightUrl="" songArtistUrl="" songAudioFileUrl="" stabilizationMode="0" mediaItemType="2" />
    <MediaItem id="2644" filePath="C:\Users\owner\Dropbox\Work\png\animation T=1.02644.png" arWidth="640" arHeight="480" duration="0" songTitle="" songArtist="" songAlbum="" songCopyrightUrl="" songArtistUrl="" songAudioFileUrl="" stabilizationMode="0" mediaItemType="2" />
    <MediaItem id="2645" filePath="C:\Users\owner\Dropbox\Work\png\animation T=1.02645.png" arWidth="640" arHeight="480" duration="0" songTitle="" songArtist="" songAlbum="" songCopyrightUrl="" songArtistUrl="" songAudioFileUrl="" stabilizationMode="0" mediaItemType="2" />
    <MediaItem id="2646" filePath="C:\Users\owner\Dropbox\Work\png\animation T=1.02646.png" arWidth="640" arHeight="480" duration="0" songTitle="" songArtist="" songAlbum="" songCopyrightUrl="" songArtistUrl="" songAudioFileUrl="" stabilizationMode="0" mediaItemType="2" />
    <MediaItem id="2647" filePath="C:\Users\owner\Dropbox\Work\png\animation T=1.02647.png" arWidth="640" arHeight="480" duration="0" songTitle="" songArtist="" songAlbum="" songCopyrightUrl="" songArtistUrl="" songAudioFileUrl="" stabilizationMode="0" mediaItemType="2" />
    <MediaItem id="2648" filePath="C:\Users\owner\Dropbox\Work\png\animation T=1.02648.png" arWidth="640" arHeight="480" duration="0" songTitle="" songArtist="" songAlbum="" songCopyrightUrl="" songArtistUrl="" songAudioFileUrl="" stabilizationMode="0" mediaItemType="2" />
    <MediaItem id="2649" filePath="C:\Users\owner\Dropbox\Work\png\animation T=1.02649.png" arWidth="640" arHeight="480" duration="0" songTitle="" songArtist="" songAlbum="" songCopyrightUrl="" songArtistUrl="" songAudioFileUrl="" stabilizationMode="0" mediaItemType="2" />
    <MediaItem id="2650" filePath="C:\Users\owner\Dropbox\Work\png\animation T=1.02650.png" arWidth="640" arHeight="480" duration="0" songTitle="" songArtist="" songAlbum="" songCopyrightUrl="" songArtistUrl="" songAudioFileUrl="" stabilizationMode="0" mediaItemType="2" />
    <MediaItem id="2651" filePath="C:\Users\owner\Dropbox\Work\png\animation T=1.02651.png" arWidth="640" arHeight="480" duration="0" songTitle="" songArtist="" songAlbum="" songCopyrightUrl="" songArtistUrl="" songAudioFileUrl="" stabilizationMode="0" mediaItemType="2" />
    <MediaItem id="2652" filePath="C:\Users\owner\Dropbox\Work\png\animation T=1.02652.png" arWidth="640" arHeight="480" duration="0" songTitle="" songArtist="" songAlbum="" songCopyrightUrl="" songArtistUrl="" songAudioFileUrl="" stabilizationMode="0" mediaItemType="2" />
    <MediaItem id="2653" filePath="C:\Users\owner\Dropbox\Work\png\animation T=1.02653.png" arWidth="640" arHeight="480" duration="0" songTitle="" songArtist="" songAlbum="" songCopyrightUrl="" songArtistUrl="" songAudioFileUrl="" stabilizationMode="0" mediaItemType="2" />
    <MediaItem id="2654" filePath="C:\Users\owner\Dropbox\Work\png\animation T=1.02654.png" arWidth="640" arHeight="480" duration="0" songTitle="" songArtist="" songAlbum="" songCopyrightUrl="" songArtistUrl="" songAudioFileUrl="" stabilizationMode="0" mediaItemType="2" />
    <MediaItem id="2655" filePath="C:\Users\owner\Dropbox\Work\png\animation T=1.02655.png" arWidth="640" arHeight="480" duration="0" songTitle="" songArtist="" songAlbum="" songCopyrightUrl="" songArtistUrl="" songAudioFileUrl="" stabilizationMode="0" mediaItemType="2" />
    <MediaItem id="2656" filePath="C:\Users\owner\Dropbox\Work\png\animation T=1.02656.png" arWidth="640" arHeight="480" duration="0" songTitle="" songArtist="" songAlbum="" songCopyrightUrl="" songArtistUrl="" songAudioFileUrl="" stabilizationMode="0" mediaItemType="2" />
    <MediaItem id="2657" filePath="C:\Users\owner\Dropbox\Work\png\animation T=1.02657.png" arWidth="640" arHeight="480" duration="0" songTitle="" songArtist="" songAlbum="" songCopyrightUrl="" songArtistUrl="" songAudioFileUrl="" stabilizationMode="0" mediaItemType="2" />
    <MediaItem id="2658" filePath="C:\Users\owner\Dropbox\Work\png\animation T=1.02658.png" arWidth="640" arHeight="480" duration="0" songTitle="" songArtist="" songAlbum="" songCopyrightUrl="" songArtistUrl="" songAudioFileUrl="" stabilizationMode="0" mediaItemType="2" />
    <MediaItem id="2659" filePath="C:\Users\owner\Dropbox\Work\png\animation T=1.02659.png" arWidth="640" arHeight="480" duration="0" songTitle="" songArtist="" songAlbum="" songCopyrightUrl="" songArtistUrl="" songAudioFileUrl="" stabilizationMode="0" mediaItemType="2" />
    <MediaItem id="2660" filePath="C:\Users\owner\Dropbox\Work\png\animation T=1.02660.png" arWidth="640" arHeight="480" duration="0" songTitle="" songArtist="" songAlbum="" songCopyrightUrl="" songArtistUrl="" songAudioFileUrl="" stabilizationMode="0" mediaItemType="2" />
    <MediaItem id="2661" filePath="C:\Users\owner\Dropbox\Work\png\animation T=1.02661.png" arWidth="640" arHeight="480" duration="0" songTitle="" songArtist="" songAlbum="" songCopyrightUrl="" songArtistUrl="" songAudioFileUrl="" stabilizationMode="0" mediaItemType="2" />
    <MediaItem id="2662" filePath="C:\Users\owner\Dropbox\Work\png\animation T=1.02662.png" arWidth="640" arHeight="480" duration="0" songTitle="" songArtist="" songAlbum="" songCopyrightUrl="" songArtistUrl="" songAudioFileUrl="" stabilizationMode="0" mediaItemType="2" />
    <MediaItem id="2663" filePath="C:\Users\owner\Dropbox\Work\png\animation T=1.02663.png" arWidth="640" arHeight="480" duration="0" songTitle="" songArtist="" songAlbum="" songCopyrightUrl="" songArtistUrl="" songAudioFileUrl="" stabilizationMode="0" mediaItemType="2" />
    <MediaItem id="2664" filePath="C:\Users\owner\Dropbox\Work\png\animation T=1.02664.png" arWidth="640" arHeight="480" duration="0" songTitle="" songArtist="" songAlbum="" songCopyrightUrl="" songArtistUrl="" songAudioFileUrl="" stabilizationMode="0" mediaItemType="2" />
    <MediaItem id="2665" filePath="C:\Users\owner\Dropbox\Work\png\animation T=1.02665.png" arWidth="640" arHeight="480" duration="0" songTitle="" songArtist="" songAlbum="" songCopyrightUrl="" songArtistUrl="" songAudioFileUrl="" stabilizationMode="0" mediaItemType="2" />
    <MediaItem id="2666" filePath="C:\Users\owner\Dropbox\Work\png\animation T=1.02666.png" arWidth="640" arHeight="480" duration="0" songTitle="" songArtist="" songAlbum="" songCopyrightUrl="" songArtistUrl="" songAudioFileUrl="" stabilizationMode="0" mediaItemType="2" />
    <MediaItem id="2667" filePath="C:\Users\owner\Dropbox\Work\png\animation T=1.02667.png" arWidth="640" arHeight="480" duration="0" songTitle="" songArtist="" songAlbum="" songCopyrightUrl="" songArtistUrl="" songAudioFileUrl="" stabilizationMode="0" mediaItemType="2" />
    <MediaItem id="2668" filePath="C:\Users\owner\Dropbox\Work\png\animation T=1.02668.png" arWidth="640" arHeight="480" duration="0" songTitle="" songArtist="" songAlbum="" songCopyrightUrl="" songArtistUrl="" songAudioFileUrl="" stabilizationMode="0" mediaItemType="2" />
    <MediaItem id="2669" filePath="C:\Users\owner\Dropbox\Work\png\animation T=1.02669.png" arWidth="640" arHeight="480" duration="0" songTitle="" songArtist="" songAlbum="" songCopyrightUrl="" songArtistUrl="" songAudioFileUrl="" stabilizationMode="0" mediaItemType="2" />
    <MediaItem id="2670" filePath="C:\Users\owner\Dropbox\Work\png\animation T=1.02670.png" arWidth="640" arHeight="480" duration="0" songTitle="" songArtist="" songAlbum="" songCopyrightUrl="" songArtistUrl="" songAudioFileUrl="" stabilizationMode="0" mediaItemType="2" />
    <MediaItem id="2671" filePath="C:\Users\owner\Dropbox\Work\png\animation T=1.02671.png" arWidth="640" arHeight="480" duration="0" songTitle="" songArtist="" songAlbum="" songCopyrightUrl="" songArtistUrl="" songAudioFileUrl="" stabilizationMode="0" mediaItemType="2" />
    <MediaItem id="2672" filePath="C:\Users\owner\Dropbox\Work\png\animation T=1.02672.png" arWidth="640" arHeight="480" duration="0" songTitle="" songArtist="" songAlbum="" songCopyrightUrl="" songArtistUrl="" songAudioFileUrl="" stabilizationMode="0" mediaItemType="2" />
    <MediaItem id="2673" filePath="C:\Users\owner\Dropbox\Work\png\animation T=1.02673.png" arWidth="640" arHeight="480" duration="0" songTitle="" songArtist="" songAlbum="" songCopyrightUrl="" songArtistUrl="" songAudioFileUrl="" stabilizationMode="0" mediaItemType="2" />
    <MediaItem id="2674" filePath="C:\Users\owner\Dropbox\Work\png\animation T=1.02674.png" arWidth="640" arHeight="480" duration="0" songTitle="" songArtist="" songAlbum="" songCopyrightUrl="" songArtistUrl="" songAudioFileUrl="" stabilizationMode="0" mediaItemType="2" />
    <MediaItem id="2675" filePath="C:\Users\owner\Dropbox\Work\png\animation T=1.02675.png" arWidth="640" arHeight="480" duration="0" songTitle="" songArtist="" songAlbum="" songCopyrightUrl="" songArtistUrl="" songAudioFileUrl="" stabilizationMode="0" mediaItemType="2" />
    <MediaItem id="2676" filePath="C:\Users\owner\Dropbox\Work\png\animation T=1.02676.png" arWidth="640" arHeight="480" duration="0" songTitle="" songArtist="" songAlbum="" songCopyrightUrl="" songArtistUrl="" songAudioFileUrl="" stabilizationMode="0" mediaItemType="2" />
    <MediaItem id="2677" filePath="C:\Users\owner\Dropbox\Work\png\animation T=1.02677.png" arWidth="640" arHeight="480" duration="0" songTitle="" songArtist="" songAlbum="" songCopyrightUrl="" songArtistUrl="" songAudioFileUrl="" stabilizationMode="0" mediaItemType="2" />
    <MediaItem id="2678" filePath="C:\Users\owner\Dropbox\Work\png\animation T=1.02678.png" arWidth="640" arHeight="480" duration="0" songTitle="" songArtist="" songAlbum="" songCopyrightUrl="" songArtistUrl="" songAudioFileUrl="" stabilizationMode="0" mediaItemType="2" />
    <MediaItem id="2679" filePath="C:\Users\owner\Dropbox\Work\png\animation T=1.02679.png" arWidth="640" arHeight="480" duration="0" songTitle="" songArtist="" songAlbum="" songCopyrightUrl="" songArtistUrl="" songAudioFileUrl="" stabilizationMode="0" mediaItemType="2" />
    <MediaItem id="2680" filePath="C:\Users\owner\Dropbox\Work\png\animation T=1.02680.png" arWidth="640" arHeight="480" duration="0" songTitle="" songArtist="" songAlbum="" songCopyrightUrl="" songArtistUrl="" songAudioFileUrl="" stabilizationMode="0" mediaItemType="2" />
    <MediaItem id="2681" filePath="C:\Users\owner\Dropbox\Work\png\animation T=1.02681.png" arWidth="640" arHeight="480" duration="0" songTitle="" songArtist="" songAlbum="" songCopyrightUrl="" songArtistUrl="" songAudioFileUrl="" stabilizationMode="0" mediaItemType="2" />
    <MediaItem id="2682" filePath="C:\Users\owner\Dropbox\Work\png\animation T=1.02682.png" arWidth="640" arHeight="480" duration="0" songTitle="" songArtist="" songAlbum="" songCopyrightUrl="" songArtistUrl="" songAudioFileUrl="" stabilizationMode="0" mediaItemType="2" />
    <MediaItem id="2683" filePath="C:\Users\owner\Dropbox\Work\png\animation T=1.02683.png" arWidth="640" arHeight="480" duration="0" songTitle="" songArtist="" songAlbum="" songCopyrightUrl="" songArtistUrl="" songAudioFileUrl="" stabilizationMode="0" mediaItemType="2" />
    <MediaItem id="2684" filePath="C:\Users\owner\Dropbox\Work\png\animation T=1.02684.png" arWidth="640" arHeight="480" duration="0" songTitle="" songArtist="" songAlbum="" songCopyrightUrl="" songArtistUrl="" songAudioFileUrl="" stabilizationMode="0" mediaItemType="2" />
    <MediaItem id="2685" filePath="C:\Users\owner\Dropbox\Work\png\animation T=1.02685.png" arWidth="640" arHeight="480" duration="0" songTitle="" songArtist="" songAlbum="" songCopyrightUrl="" songArtistUrl="" songAudioFileUrl="" stabilizationMode="0" mediaItemType="2" />
    <MediaItem id="2686" filePath="C:\Users\owner\Dropbox\Work\png\animation T=1.02686.png" arWidth="640" arHeight="480" duration="0" songTitle="" songArtist="" songAlbum="" songCopyrightUrl="" songArtistUrl="" songAudioFileUrl="" stabilizationMode="0" mediaItemType="2" />
    <MediaItem id="2687" filePath="C:\Users\owner\Dropbox\Work\png\animation T=1.02687.png" arWidth="640" arHeight="480" duration="0" songTitle="" songArtist="" songAlbum="" songCopyrightUrl="" songArtistUrl="" songAudioFileUrl="" stabilizationMode="0" mediaItemType="2" />
    <MediaItem id="2688" filePath="C:\Users\owner\Dropbox\Work\png\animation T=1.02688.png" arWidth="640" arHeight="480" duration="0" songTitle="" songArtist="" songAlbum="" songCopyrightUrl="" songArtistUrl="" songAudioFileUrl="" stabilizationMode="0" mediaItemType="2" />
    <MediaItem id="2689" filePath="C:\Users\owner\Dropbox\Work\png\animation T=1.02689.png" arWidth="640" arHeight="480" duration="0" songTitle="" songArtist="" songAlbum="" songCopyrightUrl="" songArtistUrl="" songAudioFileUrl="" stabilizationMode="0" mediaItemType="2" />
    <MediaItem id="2690" filePath="C:\Users\owner\Dropbox\Work\png\animation T=1.02690.png" arWidth="640" arHeight="480" duration="0" songTitle="" songArtist="" songAlbum="" songCopyrightUrl="" songArtistUrl="" songAudioFileUrl="" stabilizationMode="0" mediaItemType="2" />
    <MediaItem id="2691" filePath="C:\Users\owner\Dropbox\Work\png\animation T=1.02691.png" arWidth="640" arHeight="480" duration="0" songTitle="" songArtist="" songAlbum="" songCopyrightUrl="" songArtistUrl="" songAudioFileUrl="" stabilizationMode="0" mediaItemType="2" />
    <MediaItem id="2692" filePath="C:\Users\owner\Dropbox\Work\png\animation T=1.02692.png" arWidth="640" arHeight="480" duration="0" songTitle="" songArtist="" songAlbum="" songCopyrightUrl="" songArtistUrl="" songAudioFileUrl="" stabilizationMode="0" mediaItemType="2" />
    <MediaItem id="2693" filePath="C:\Users\owner\Dropbox\Work\png\animation T=1.02693.png" arWidth="640" arHeight="480" duration="0" songTitle="" songArtist="" songAlbum="" songCopyrightUrl="" songArtistUrl="" songAudioFileUrl="" stabilizationMode="0" mediaItemType="2" />
    <MediaItem id="2694" filePath="C:\Users\owner\Dropbox\Work\png\animation T=1.02694.png" arWidth="640" arHeight="480" duration="0" songTitle="" songArtist="" songAlbum="" songCopyrightUrl="" songArtistUrl="" songAudioFileUrl="" stabilizationMode="0" mediaItemType="2" />
    <MediaItem id="2695" filePath="C:\Users\owner\Dropbox\Work\png\animation T=1.02695.png" arWidth="640" arHeight="480" duration="0" songTitle="" songArtist="" songAlbum="" songCopyrightUrl="" songArtistUrl="" songAudioFileUrl="" stabilizationMode="0" mediaItemType="2" />
    <MediaItem id="2696" filePath="C:\Users\owner\Dropbox\Work\png\animation T=1.02696.png" arWidth="640" arHeight="480" duration="0" songTitle="" songArtist="" songAlbum="" songCopyrightUrl="" songArtistUrl="" songAudioFileUrl="" stabilizationMode="0" mediaItemType="2" />
    <MediaItem id="2697" filePath="C:\Users\owner\Dropbox\Work\png\animation T=1.02697.png" arWidth="640" arHeight="480" duration="0" songTitle="" songArtist="" songAlbum="" songCopyrightUrl="" songArtistUrl="" songAudioFileUrl="" stabilizationMode="0" mediaItemType="2" />
    <MediaItem id="2698" filePath="C:\Users\owner\Dropbox\Work\png\animation T=1.02698.png" arWidth="640" arHeight="480" duration="0" songTitle="" songArtist="" songAlbum="" songCopyrightUrl="" songArtistUrl="" songAudioFileUrl="" stabilizationMode="0" mediaItemType="2" />
    <MediaItem id="2699" filePath="C:\Users\owner\Dropbox\Work\png\animation T=1.02699.png" arWidth="640" arHeight="480" duration="0" songTitle="" songArtist="" songAlbum="" songCopyrightUrl="" songArtistUrl="" songAudioFileUrl="" stabilizationMode="0" mediaItemType="2" />
    <MediaItem id="2700" filePath="C:\Users\owner\Dropbox\Work\png\animation T=1.02700.png" arWidth="640" arHeight="480" duration="0" songTitle="" songArtist="" songAlbum="" songCopyrightUrl="" songArtistUrl="" songAudioFileUrl="" stabilizationMode="0" mediaItemType="2" />
    <MediaItem id="2701" filePath="C:\Users\owner\Dropbox\Work\png\animation T=1.02701.png" arWidth="640" arHeight="480" duration="0" songTitle="" songArtist="" songAlbum="" songCopyrightUrl="" songArtistUrl="" songAudioFileUrl="" stabilizationMode="0" mediaItemType="2" />
    <MediaItem id="2702" filePath="C:\Users\owner\Dropbox\Work\png\animation T=1.02702.png" arWidth="640" arHeight="480" duration="0" songTitle="" songArtist="" songAlbum="" songCopyrightUrl="" songArtistUrl="" songAudioFileUrl="" stabilizationMode="0" mediaItemType="2" />
    <MediaItem id="2703" filePath="C:\Users\owner\Dropbox\Work\png\animation T=1.02703.png" arWidth="640" arHeight="480" duration="0" songTitle="" songArtist="" songAlbum="" songCopyrightUrl="" songArtistUrl="" songAudioFileUrl="" stabilizationMode="0" mediaItemType="2" />
    <MediaItem id="2704" filePath="C:\Users\owner\Dropbox\Work\png\animation T=1.02704.png" arWidth="640" arHeight="480" duration="0" songTitle="" songArtist="" songAlbum="" songCopyrightUrl="" songArtistUrl="" songAudioFileUrl="" stabilizationMode="0" mediaItemType="2" />
    <MediaItem id="2705" filePath="C:\Users\owner\Dropbox\Work\png\animation T=1.02705.png" arWidth="640" arHeight="480" duration="0" songTitle="" songArtist="" songAlbum="" songCopyrightUrl="" songArtistUrl="" songAudioFileUrl="" stabilizationMode="0" mediaItemType="2" />
    <MediaItem id="2706" filePath="C:\Users\owner\Dropbox\Work\png\animation T=1.02706.png" arWidth="640" arHeight="480" duration="0" songTitle="" songArtist="" songAlbum="" songCopyrightUrl="" songArtistUrl="" songAudioFileUrl="" stabilizationMode="0" mediaItemType="2" />
    <MediaItem id="2707" filePath="C:\Users\owner\Dropbox\Work\png\animation T=1.02707.png" arWidth="640" arHeight="480" duration="0" songTitle="" songArtist="" songAlbum="" songCopyrightUrl="" songArtistUrl="" songAudioFileUrl="" stabilizationMode="0" mediaItemType="2" />
    <MediaItem id="2708" filePath="C:\Users\owner\Dropbox\Work\png\animation T=1.02708.png" arWidth="640" arHeight="480" duration="0" songTitle="" songArtist="" songAlbum="" songCopyrightUrl="" songArtistUrl="" songAudioFileUrl="" stabilizationMode="0" mediaItemType="2" />
    <MediaItem id="2709" filePath="C:\Users\owner\Dropbox\Work\png\animation T=1.02709.png" arWidth="640" arHeight="480" duration="0" songTitle="" songArtist="" songAlbum="" songCopyrightUrl="" songArtistUrl="" songAudioFileUrl="" stabilizationMode="0" mediaItemType="2" />
    <MediaItem id="2710" filePath="C:\Users\owner\Dropbox\Work\png\animation T=1.02710.png" arWidth="640" arHeight="480" duration="0" songTitle="" songArtist="" songAlbum="" songCopyrightUrl="" songArtistUrl="" songAudioFileUrl="" stabilizationMode="0" mediaItemType="2" />
    <MediaItem id="2711" filePath="C:\Users\owner\Dropbox\Work\png\animation T=1.02711.png" arWidth="640" arHeight="480" duration="0" songTitle="" songArtist="" songAlbum="" songCopyrightUrl="" songArtistUrl="" songAudioFileUrl="" stabilizationMode="0" mediaItemType="2" />
    <MediaItem id="2712" filePath="C:\Users\owner\Dropbox\Work\png\animation T=1.02712.png" arWidth="640" arHeight="480" duration="0" songTitle="" songArtist="" songAlbum="" songCopyrightUrl="" songArtistUrl="" songAudioFileUrl="" stabilizationMode="0" mediaItemType="2" />
    <MediaItem id="2713" filePath="C:\Users\owner\Dropbox\Work\png\animation T=1.02713.png" arWidth="640" arHeight="480" duration="0" songTitle="" songArtist="" songAlbum="" songCopyrightUrl="" songArtistUrl="" songAudioFileUrl="" stabilizationMode="0" mediaItemType="2" />
    <MediaItem id="2714" filePath="C:\Users\owner\Dropbox\Work\png\animation T=1.02714.png" arWidth="640" arHeight="480" duration="0" songTitle="" songArtist="" songAlbum="" songCopyrightUrl="" songArtistUrl="" songAudioFileUrl="" stabilizationMode="0" mediaItemType="2" />
    <MediaItem id="2715" filePath="C:\Users\owner\Dropbox\Work\png\animation T=1.02715.png" arWidth="640" arHeight="480" duration="0" songTitle="" songArtist="" songAlbum="" songCopyrightUrl="" songArtistUrl="" songAudioFileUrl="" stabilizationMode="0" mediaItemType="2" />
    <MediaItem id="2716" filePath="C:\Users\owner\Dropbox\Work\png\animation T=1.02716.png" arWidth="640" arHeight="480" duration="0" songTitle="" songArtist="" songAlbum="" songCopyrightUrl="" songArtistUrl="" songAudioFileUrl="" stabilizationMode="0" mediaItemType="2" />
    <MediaItem id="2717" filePath="C:\Users\owner\Dropbox\Work\png\animation T=1.02717.png" arWidth="640" arHeight="480" duration="0" songTitle="" songArtist="" songAlbum="" songCopyrightUrl="" songArtistUrl="" songAudioFileUrl="" stabilizationMode="0" mediaItemType="2" />
    <MediaItem id="2718" filePath="C:\Users\owner\Dropbox\Work\png\animation T=1.02718.png" arWidth="640" arHeight="480" duration="0" songTitle="" songArtist="" songAlbum="" songCopyrightUrl="" songArtistUrl="" songAudioFileUrl="" stabilizationMode="0" mediaItemType="2" />
    <MediaItem id="2719" filePath="C:\Users\owner\Dropbox\Work\png\animation T=1.02719.png" arWidth="640" arHeight="480" duration="0" songTitle="" songArtist="" songAlbum="" songCopyrightUrl="" songArtistUrl="" songAudioFileUrl="" stabilizationMode="0" mediaItemType="2" />
    <MediaItem id="2720" filePath="C:\Users\owner\Dropbox\Work\png\animation T=1.02720.png" arWidth="640" arHeight="480" duration="0" songTitle="" songArtist="" songAlbum="" songCopyrightUrl="" songArtistUrl="" songAudioFileUrl="" stabilizationMode="0" mediaItemType="2" />
    <MediaItem id="2721" filePath="C:\Users\owner\Dropbox\Work\png\animation T=1.02721.png" arWidth="640" arHeight="480" duration="0" songTitle="" songArtist="" songAlbum="" songCopyrightUrl="" songArtistUrl="" songAudioFileUrl="" stabilizationMode="0" mediaItemType="2" />
    <MediaItem id="2722" filePath="C:\Users\owner\Dropbox\Work\png\animation T=1.02722.png" arWidth="640" arHeight="480" duration="0" songTitle="" songArtist="" songAlbum="" songCopyrightUrl="" songArtistUrl="" songAudioFileUrl="" stabilizationMode="0" mediaItemType="2" />
    <MediaItem id="2723" filePath="C:\Users\owner\Dropbox\Work\png\animation T=1.02723.png" arWidth="640" arHeight="480" duration="0" songTitle="" songArtist="" songAlbum="" songCopyrightUrl="" songArtistUrl="" songAudioFileUrl="" stabilizationMode="0" mediaItemType="2" />
    <MediaItem id="2724" filePath="C:\Users\owner\Dropbox\Work\png\animation T=1.02724.png" arWidth="640" arHeight="480" duration="0" songTitle="" songArtist="" songAlbum="" songCopyrightUrl="" songArtistUrl="" songAudioFileUrl="" stabilizationMode="0" mediaItemType="2" />
    <MediaItem id="2725" filePath="C:\Users\owner\Dropbox\Work\png\animation T=1.02725.png" arWidth="640" arHeight="480" duration="0" songTitle="" songArtist="" songAlbum="" songCopyrightUrl="" songArtistUrl="" songAudioFileUrl="" stabilizationMode="0" mediaItemType="2" />
    <MediaItem id="2726" filePath="C:\Users\owner\Dropbox\Work\png\animation T=1.02726.png" arWidth="640" arHeight="480" duration="0" songTitle="" songArtist="" songAlbum="" songCopyrightUrl="" songArtistUrl="" songAudioFileUrl="" stabilizationMode="0" mediaItemType="2" />
    <MediaItem id="2727" filePath="C:\Users\owner\Dropbox\Work\png\animation T=1.02727.png" arWidth="640" arHeight="480" duration="0" songTitle="" songArtist="" songAlbum="" songCopyrightUrl="" songArtistUrl="" songAudioFileUrl="" stabilizationMode="0" mediaItemType="2" />
    <MediaItem id="2728" filePath="C:\Users\owner\Dropbox\Work\png\animation T=1.02728.png" arWidth="640" arHeight="480" duration="0" songTitle="" songArtist="" songAlbum="" songCopyrightUrl="" songArtistUrl="" songAudioFileUrl="" stabilizationMode="0" mediaItemType="2" />
    <MediaItem id="2729" filePath="C:\Users\owner\Dropbox\Work\png\animation T=1.02729.png" arWidth="640" arHeight="480" duration="0" songTitle="" songArtist="" songAlbum="" songCopyrightUrl="" songArtistUrl="" songAudioFileUrl="" stabilizationMode="0" mediaItemType="2" />
    <MediaItem id="2730" filePath="C:\Users\owner\Dropbox\Work\png\animation T=1.02730.png" arWidth="640" arHeight="480" duration="0" songTitle="" songArtist="" songAlbum="" songCopyrightUrl="" songArtistUrl="" songAudioFileUrl="" stabilizationMode="0" mediaItemType="2" />
    <MediaItem id="2731" filePath="C:\Users\owner\Dropbox\Work\png\animation T=1.02731.png" arWidth="640" arHeight="480" duration="0" songTitle="" songArtist="" songAlbum="" songCopyrightUrl="" songArtistUrl="" songAudioFileUrl="" stabilizationMode="0" mediaItemType="2" />
    <MediaItem id="2732" filePath="C:\Users\owner\Dropbox\Work\png\animation T=1.02732.png" arWidth="640" arHeight="480" duration="0" songTitle="" songArtist="" songAlbum="" songCopyrightUrl="" songArtistUrl="" songAudioFileUrl="" stabilizationMode="0" mediaItemType="2" />
    <MediaItem id="2733" filePath="C:\Users\owner\Dropbox\Work\png\animation T=1.02733.png" arWidth="640" arHeight="480" duration="0" songTitle="" songArtist="" songAlbum="" songCopyrightUrl="" songArtistUrl="" songAudioFileUrl="" stabilizationMode="0" mediaItemType="2" />
    <MediaItem id="2734" filePath="C:\Users\owner\Dropbox\Work\png\animation T=1.02734.png" arWidth="640" arHeight="480" duration="0" songTitle="" songArtist="" songAlbum="" songCopyrightUrl="" songArtistUrl="" songAudioFileUrl="" stabilizationMode="0" mediaItemType="2" />
    <MediaItem id="2735" filePath="C:\Users\owner\Dropbox\Work\png\animation T=1.02735.png" arWidth="640" arHeight="480" duration="0" songTitle="" songArtist="" songAlbum="" songCopyrightUrl="" songArtistUrl="" songAudioFileUrl="" stabilizationMode="0" mediaItemType="2" />
    <MediaItem id="2736" filePath="C:\Users\owner\Dropbox\Work\png\animation T=1.02736.png" arWidth="640" arHeight="480" duration="0" songTitle="" songArtist="" songAlbum="" songCopyrightUrl="" songArtistUrl="" songAudioFileUrl="" stabilizationMode="0" mediaItemType="2" />
    <MediaItem id="2737" filePath="C:\Users\owner\Dropbox\Work\png\animation T=1.02737.png" arWidth="640" arHeight="480" duration="0" songTitle="" songArtist="" songAlbum="" songCopyrightUrl="" songArtistUrl="" songAudioFileUrl="" stabilizationMode="0" mediaItemType="2" />
    <MediaItem id="2738" filePath="C:\Users\owner\Dropbox\Work\png\animation T=1.02738.png" arWidth="640" arHeight="480" duration="0" songTitle="" songArtist="" songAlbum="" songCopyrightUrl="" songArtistUrl="" songAudioFileUrl="" stabilizationMode="0" mediaItemType="2" />
    <MediaItem id="2739" filePath="C:\Users\owner\Dropbox\Work\png\animation T=1.02739.png" arWidth="640" arHeight="480" duration="0" songTitle="" songArtist="" songAlbum="" songCopyrightUrl="" songArtistUrl="" songAudioFileUrl="" stabilizationMode="0" mediaItemType="2" />
    <MediaItem id="2740" filePath="C:\Users\owner\Dropbox\Work\png\animation T=1.02740.png" arWidth="640" arHeight="480" duration="0" songTitle="" songArtist="" songAlbum="" songCopyrightUrl="" songArtistUrl="" songAudioFileUrl="" stabilizationMode="0" mediaItemType="2" />
    <MediaItem id="2741" filePath="C:\Users\owner\Dropbox\Work\png\animation T=1.02741.png" arWidth="640" arHeight="480" duration="0" songTitle="" songArtist="" songAlbum="" songCopyrightUrl="" songArtistUrl="" songAudioFileUrl="" stabilizationMode="0" mediaItemType="2" />
    <MediaItem id="2742" filePath="C:\Users\owner\Dropbox\Work\png\animation T=1.02742.png" arWidth="640" arHeight="480" duration="0" songTitle="" songArtist="" songAlbum="" songCopyrightUrl="" songArtistUrl="" songAudioFileUrl="" stabilizationMode="0" mediaItemType="2" />
    <MediaItem id="2743" filePath="C:\Users\owner\Dropbox\Work\png\animation T=1.02743.png" arWidth="640" arHeight="480" duration="0" songTitle="" songArtist="" songAlbum="" songCopyrightUrl="" songArtistUrl="" songAudioFileUrl="" stabilizationMode="0" mediaItemType="2" />
    <MediaItem id="2744" filePath="C:\Users\owner\Dropbox\Work\png\animation T=1.02744.png" arWidth="640" arHeight="480" duration="0" songTitle="" songArtist="" songAlbum="" songCopyrightUrl="" songArtistUrl="" songAudioFileUrl="" stabilizationMode="0" mediaItemType="2" />
    <MediaItem id="2745" filePath="C:\Users\owner\Dropbox\Work\png\animation T=1.02745.png" arWidth="640" arHeight="480" duration="0" songTitle="" songArtist="" songAlbum="" songCopyrightUrl="" songArtistUrl="" songAudioFileUrl="" stabilizationMode="0" mediaItemType="2" />
    <MediaItem id="2746" filePath="C:\Users\owner\Dropbox\Work\png\animation T=1.02746.png" arWidth="640" arHeight="480" duration="0" songTitle="" songArtist="" songAlbum="" songCopyrightUrl="" songArtistUrl="" songAudioFileUrl="" stabilizationMode="0" mediaItemType="2" />
    <MediaItem id="2747" filePath="C:\Users\owner\Dropbox\Work\png\animation T=1.02747.png" arWidth="640" arHeight="480" duration="0" songTitle="" songArtist="" songAlbum="" songCopyrightUrl="" songArtistUrl="" songAudioFileUrl="" stabilizationMode="0" mediaItemType="2" />
    <MediaItem id="2748" filePath="C:\Users\owner\Dropbox\Work\png\animation T=1.02748.png" arWidth="640" arHeight="480" duration="0" songTitle="" songArtist="" songAlbum="" songCopyrightUrl="" songArtistUrl="" songAudioFileUrl="" stabilizationMode="0" mediaItemType="2" />
    <MediaItem id="2749" filePath="C:\Users\owner\Dropbox\Work\png\animation T=1.02749.png" arWidth="640" arHeight="480" duration="0" songTitle="" songArtist="" songAlbum="" songCopyrightUrl="" songArtistUrl="" songAudioFileUrl="" stabilizationMode="0" mediaItemType="2" />
    <MediaItem id="2750" filePath="C:\Users\owner\Dropbox\Work\png\animation T=1.02750.png" arWidth="640" arHeight="480" duration="0" songTitle="" songArtist="" songAlbum="" songCopyrightUrl="" songArtistUrl="" songAudioFileUrl="" stabilizationMode="0" mediaItemType="2" />
    <MediaItem id="2751" filePath="C:\Users\owner\Dropbox\Work\png\animation T=1.02751.png" arWidth="640" arHeight="480" duration="0" songTitle="" songArtist="" songAlbum="" songCopyrightUrl="" songArtistUrl="" songAudioFileUrl="" stabilizationMode="0" mediaItemType="2" />
    <MediaItem id="2752" filePath="C:\Users\owner\Dropbox\Work\png\animation T=1.02752.png" arWidth="640" arHeight="480" duration="0" songTitle="" songArtist="" songAlbum="" songCopyrightUrl="" songArtistUrl="" songAudioFileUrl="" stabilizationMode="0" mediaItemType="2" />
    <MediaItem id="2753" filePath="C:\Users\owner\Dropbox\Work\png\animation T=1.02753.png" arWidth="640" arHeight="480" duration="0" songTitle="" songArtist="" songAlbum="" songCopyrightUrl="" songArtistUrl="" songAudioFileUrl="" stabilizationMode="0" mediaItemType="2" />
    <MediaItem id="2754" filePath="C:\Users\owner\Dropbox\Work\png\animation T=1.02754.png" arWidth="640" arHeight="480" duration="0" songTitle="" songArtist="" songAlbum="" songCopyrightUrl="" songArtistUrl="" songAudioFileUrl="" stabilizationMode="0" mediaItemType="2" />
    <MediaItem id="2755" filePath="C:\Users\owner\Dropbox\Work\png\animation T=1.02755.png" arWidth="640" arHeight="480" duration="0" songTitle="" songArtist="" songAlbum="" songCopyrightUrl="" songArtistUrl="" songAudioFileUrl="" stabilizationMode="0" mediaItemType="2" />
    <MediaItem id="2756" filePath="C:\Users\owner\Dropbox\Work\png\animation T=1.02756.png" arWidth="640" arHeight="480" duration="0" songTitle="" songArtist="" songAlbum="" songCopyrightUrl="" songArtistUrl="" songAudioFileUrl="" stabilizationMode="0" mediaItemType="2" />
    <MediaItem id="2757" filePath="C:\Users\owner\Dropbox\Work\png\animation T=1.02757.png" arWidth="640" arHeight="480" duration="0" songTitle="" songArtist="" songAlbum="" songCopyrightUrl="" songArtistUrl="" songAudioFileUrl="" stabilizationMode="0" mediaItemType="2" />
    <MediaItem id="2758" filePath="C:\Users\owner\Dropbox\Work\png\animation T=1.02758.png" arWidth="640" arHeight="480" duration="0" songTitle="" songArtist="" songAlbum="" songCopyrightUrl="" songArtistUrl="" songAudioFileUrl="" stabilizationMode="0" mediaItemType="2" />
    <MediaItem id="2759" filePath="C:\Users\owner\Dropbox\Work\png\animation T=1.02759.png" arWidth="640" arHeight="480" duration="0" songTitle="" songArtist="" songAlbum="" songCopyrightUrl="" songArtistUrl="" songAudioFileUrl="" stabilizationMode="0" mediaItemType="2" />
    <MediaItem id="2760" filePath="C:\Users\owner\Dropbox\Work\png\animation T=1.02760.png" arWidth="640" arHeight="480" duration="0" songTitle="" songArtist="" songAlbum="" songCopyrightUrl="" songArtistUrl="" songAudioFileUrl="" stabilizationMode="0" mediaItemType="2" />
    <MediaItem id="2761" filePath="C:\Users\owner\Dropbox\Work\png\animation T=1.02761.png" arWidth="640" arHeight="480" duration="0" songTitle="" songArtist="" songAlbum="" songCopyrightUrl="" songArtistUrl="" songAudioFileUrl="" stabilizationMode="0" mediaItemType="2" />
    <MediaItem id="2762" filePath="C:\Users\owner\Dropbox\Work\png\animation T=1.02762.png" arWidth="640" arHeight="480" duration="0" songTitle="" songArtist="" songAlbum="" songCopyrightUrl="" songArtistUrl="" songAudioFileUrl="" stabilizationMode="0" mediaItemType="2" />
    <MediaItem id="2763" filePath="C:\Users\owner\Dropbox\Work\png\animation T=1.02763.png" arWidth="640" arHeight="480" duration="0" songTitle="" songArtist="" songAlbum="" songCopyrightUrl="" songArtistUrl="" songAudioFileUrl="" stabilizationMode="0" mediaItemType="2" />
    <MediaItem id="2764" filePath="C:\Users\owner\Dropbox\Work\png\animation T=1.02764.png" arWidth="640" arHeight="480" duration="0" songTitle="" songArtist="" songAlbum="" songCopyrightUrl="" songArtistUrl="" songAudioFileUrl="" stabilizationMode="0" mediaItemType="2" />
    <MediaItem id="2765" filePath="C:\Users\owner\Dropbox\Work\png\animation T=1.02765.png" arWidth="640" arHeight="480" duration="0" songTitle="" songArtist="" songAlbum="" songCopyrightUrl="" songArtistUrl="" songAudioFileUrl="" stabilizationMode="0" mediaItemType="2" />
    <MediaItem id="2766" filePath="C:\Users\owner\Dropbox\Work\png\animation T=1.02766.png" arWidth="640" arHeight="480" duration="0" songTitle="" songArtist="" songAlbum="" songCopyrightUrl="" songArtistUrl="" songAudioFileUrl="" stabilizationMode="0" mediaItemType="2" />
    <MediaItem id="2767" filePath="C:\Users\owner\Dropbox\Work\png\animation T=1.02767.png" arWidth="640" arHeight="480" duration="0" songTitle="" songArtist="" songAlbum="" songCopyrightUrl="" songArtistUrl="" songAudioFileUrl="" stabilizationMode="0" mediaItemType="2" />
    <MediaItem id="2768" filePath="C:\Users\owner\Dropbox\Work\png\animation T=1.02768.png" arWidth="640" arHeight="480" duration="0" songTitle="" songArtist="" songAlbum="" songCopyrightUrl="" songArtistUrl="" songAudioFileUrl="" stabilizationMode="0" mediaItemType="2" />
    <MediaItem id="2769" filePath="C:\Users\owner\Dropbox\Work\png\animation T=1.02769.png" arWidth="640" arHeight="480" duration="0" songTitle="" songArtist="" songAlbum="" songCopyrightUrl="" songArtistUrl="" songAudioFileUrl="" stabilizationMode="0" mediaItemType="2" />
    <MediaItem id="2770" filePath="C:\Users\owner\Dropbox\Work\png\animation T=1.02770.png" arWidth="640" arHeight="480" duration="0" songTitle="" songArtist="" songAlbum="" songCopyrightUrl="" songArtistUrl="" songAudioFileUrl="" stabilizationMode="0" mediaItemType="2" />
    <MediaItem id="2771" filePath="C:\Users\owner\Dropbox\Work\png\animation T=1.02771.png" arWidth="640" arHeight="480" duration="0" songTitle="" songArtist="" songAlbum="" songCopyrightUrl="" songArtistUrl="" songAudioFileUrl="" stabilizationMode="0" mediaItemType="2" />
    <MediaItem id="2772" filePath="C:\Users\owner\Dropbox\Work\png\animation T=1.02772.png" arWidth="640" arHeight="480" duration="0" songTitle="" songArtist="" songAlbum="" songCopyrightUrl="" songArtistUrl="" songAudioFileUrl="" stabilizationMode="0" mediaItemType="2" />
    <MediaItem id="2773" filePath="C:\Users\owner\Dropbox\Work\png\animation T=1.02773.png" arWidth="640" arHeight="480" duration="0" songTitle="" songArtist="" songAlbum="" songCopyrightUrl="" songArtistUrl="" songAudioFileUrl="" stabilizationMode="0" mediaItemType="2" />
    <MediaItem id="2774" filePath="C:\Users\owner\Dropbox\Work\png\animation T=1.02774.png" arWidth="640" arHeight="480" duration="0" songTitle="" songArtist="" songAlbum="" songCopyrightUrl="" songArtistUrl="" songAudioFileUrl="" stabilizationMode="0" mediaItemType="2" />
    <MediaItem id="2775" filePath="C:\Users\owner\Dropbox\Work\png\animation T=1.02775.png" arWidth="640" arHeight="480" duration="0" songTitle="" songArtist="" songAlbum="" songCopyrightUrl="" songArtistUrl="" songAudioFileUrl="" stabilizationMode="0" mediaItemType="2" />
    <MediaItem id="2776" filePath="C:\Users\owner\Dropbox\Work\png\animation T=1.02776.png" arWidth="640" arHeight="480" duration="0" songTitle="" songArtist="" songAlbum="" songCopyrightUrl="" songArtistUrl="" songAudioFileUrl="" stabilizationMode="0" mediaItemType="2" />
    <MediaItem id="2777" filePath="C:\Users\owner\Dropbox\Work\png\animation T=1.02777.png" arWidth="640" arHeight="480" duration="0" songTitle="" songArtist="" songAlbum="" songCopyrightUrl="" songArtistUrl="" songAudioFileUrl="" stabilizationMode="0" mediaItemType="2" />
    <MediaItem id="2778" filePath="C:\Users\owner\Dropbox\Work\png\animation T=1.02778.png" arWidth="640" arHeight="480" duration="0" songTitle="" songArtist="" songAlbum="" songCopyrightUrl="" songArtistUrl="" songAudioFileUrl="" stabilizationMode="0" mediaItemType="2" />
    <MediaItem id="2779" filePath="C:\Users\owner\Dropbox\Work\png\animation T=1.02779.png" arWidth="640" arHeight="480" duration="0" songTitle="" songArtist="" songAlbum="" songCopyrightUrl="" songArtistUrl="" songAudioFileUrl="" stabilizationMode="0" mediaItemType="2" />
    <MediaItem id="2780" filePath="C:\Users\owner\Dropbox\Work\png\animation T=1.02780.png" arWidth="640" arHeight="480" duration="0" songTitle="" songArtist="" songAlbum="" songCopyrightUrl="" songArtistUrl="" songAudioFileUrl="" stabilizationMode="0" mediaItemType="2" />
    <MediaItem id="2781" filePath="C:\Users\owner\Dropbox\Work\png\animation T=1.02781.png" arWidth="640" arHeight="480" duration="0" songTitle="" songArtist="" songAlbum="" songCopyrightUrl="" songArtistUrl="" songAudioFileUrl="" stabilizationMode="0" mediaItemType="2" />
    <MediaItem id="2782" filePath="C:\Users\owner\Dropbox\Work\png\animation T=1.02782.png" arWidth="640" arHeight="480" duration="0" songTitle="" songArtist="" songAlbum="" songCopyrightUrl="" songArtistUrl="" songAudioFileUrl="" stabilizationMode="0" mediaItemType="2" />
    <MediaItem id="2783" filePath="C:\Users\owner\Dropbox\Work\png\animation T=1.02783.png" arWidth="640" arHeight="480" duration="0" songTitle="" songArtist="" songAlbum="" songCopyrightUrl="" songArtistUrl="" songAudioFileUrl="" stabilizationMode="0" mediaItemType="2" />
    <MediaItem id="2784" filePath="C:\Users\owner\Dropbox\Work\png\animation T=1.02784.png" arWidth="640" arHeight="480" duration="0" songTitle="" songArtist="" songAlbum="" songCopyrightUrl="" songArtistUrl="" songAudioFileUrl="" stabilizationMode="0" mediaItemType="2" />
    <MediaItem id="2785" filePath="C:\Users\owner\Dropbox\Work\png\animation T=1.02785.png" arWidth="640" arHeight="480" duration="0" songTitle="" songArtist="" songAlbum="" songCopyrightUrl="" songArtistUrl="" songAudioFileUrl="" stabilizationMode="0" mediaItemType="2" />
    <MediaItem id="2786" filePath="C:\Users\owner\Dropbox\Work\png\animation T=1.02786.png" arWidth="640" arHeight="480" duration="0" songTitle="" songArtist="" songAlbum="" songCopyrightUrl="" songArtistUrl="" songAudioFileUrl="" stabilizationMode="0" mediaItemType="2" />
    <MediaItem id="2787" filePath="C:\Users\owner\Dropbox\Work\png\animation T=1.02787.png" arWidth="640" arHeight="480" duration="0" songTitle="" songArtist="" songAlbum="" songCopyrightUrl="" songArtistUrl="" songAudioFileUrl="" stabilizationMode="0" mediaItemType="2" />
    <MediaItem id="2788" filePath="C:\Users\owner\Dropbox\Work\png\animation T=1.02788.png" arWidth="640" arHeight="480" duration="0" songTitle="" songArtist="" songAlbum="" songCopyrightUrl="" songArtistUrl="" songAudioFileUrl="" stabilizationMode="0" mediaItemType="2" />
    <MediaItem id="2789" filePath="C:\Users\owner\Dropbox\Work\png\animation T=1.02789.png" arWidth="640" arHeight="480" duration="0" songTitle="" songArtist="" songAlbum="" songCopyrightUrl="" songArtistUrl="" songAudioFileUrl="" stabilizationMode="0" mediaItemType="2" />
    <MediaItem id="2790" filePath="C:\Users\owner\Dropbox\Work\png\animation T=1.02790.png" arWidth="640" arHeight="480" duration="0" songTitle="" songArtist="" songAlbum="" songCopyrightUrl="" songArtistUrl="" songAudioFileUrl="" stabilizationMode="0" mediaItemType="2" />
    <MediaItem id="2791" filePath="C:\Users\owner\Dropbox\Work\png\animation T=1.02791.png" arWidth="640" arHeight="480" duration="0" songTitle="" songArtist="" songAlbum="" songCopyrightUrl="" songArtistUrl="" songAudioFileUrl="" stabilizationMode="0" mediaItemType="2" />
    <MediaItem id="2792" filePath="C:\Users\owner\Dropbox\Work\png\animation T=1.02792.png" arWidth="640" arHeight="480" duration="0" songTitle="" songArtist="" songAlbum="" songCopyrightUrl="" songArtistUrl="" songAudioFileUrl="" stabilizationMode="0" mediaItemType="2" />
    <MediaItem id="2793" filePath="C:\Users\owner\Dropbox\Work\png\animation T=1.02793.png" arWidth="640" arHeight="480" duration="0" songTitle="" songArtist="" songAlbum="" songCopyrightUrl="" songArtistUrl="" songAudioFileUrl="" stabilizationMode="0" mediaItemType="2" />
    <MediaItem id="2794" filePath="C:\Users\owner\Dropbox\Work\png\animation T=1.02794.png" arWidth="640" arHeight="480" duration="0" songTitle="" songArtist="" songAlbum="" songCopyrightUrl="" songArtistUrl="" songAudioFileUrl="" stabilizationMode="0" mediaItemType="2" />
    <MediaItem id="2795" filePath="C:\Users\owner\Dropbox\Work\png\animation T=1.02795.png" arWidth="640" arHeight="480" duration="0" songTitle="" songArtist="" songAlbum="" songCopyrightUrl="" songArtistUrl="" songAudioFileUrl="" stabilizationMode="0" mediaItemType="2" />
    <MediaItem id="2796" filePath="C:\Users\owner\Dropbox\Work\png\animation T=1.02796.png" arWidth="640" arHeight="480" duration="0" songTitle="" songArtist="" songAlbum="" songCopyrightUrl="" songArtistUrl="" songAudioFileUrl="" stabilizationMode="0" mediaItemType="2" />
    <MediaItem id="2797" filePath="C:\Users\owner\Dropbox\Work\png\animation T=1.02797.png" arWidth="640" arHeight="480" duration="0" songTitle="" songArtist="" songAlbum="" songCopyrightUrl="" songArtistUrl="" songAudioFileUrl="" stabilizationMode="0" mediaItemType="2" />
    <MediaItem id="2798" filePath="C:\Users\owner\Dropbox\Work\png\animation T=1.02798.png" arWidth="640" arHeight="480" duration="0" songTitle="" songArtist="" songAlbum="" songCopyrightUrl="" songArtistUrl="" songAudioFileUrl="" stabilizationMode="0" mediaItemType="2" />
    <MediaItem id="2799" filePath="C:\Users\owner\Dropbox\Work\png\animation T=1.02799.png" arWidth="640" arHeight="480" duration="0" songTitle="" songArtist="" songAlbum="" songCopyrightUrl="" songArtistUrl="" songAudioFileUrl="" stabilizationMode="0" mediaItemType="2" />
    <MediaItem id="2800" filePath="C:\Users\owner\Dropbox\Work\png\animation T=1.02800.png" arWidth="640" arHeight="480" duration="0" songTitle="" songArtist="" songAlbum="" songCopyrightUrl="" songArtistUrl="" songAudioFileUrl="" stabilizationMode="0" mediaItemType="2" />
    <MediaItem id="2801" filePath="C:\Users\owner\Dropbox\Work\png\animation T=1.02801.png" arWidth="640" arHeight="480" duration="0" songTitle="" songArtist="" songAlbum="" songCopyrightUrl="" songArtistUrl="" songAudioFileUrl="" stabilizationMode="0" mediaItemType="2" />
    <MediaItem id="2802" filePath="C:\Users\owner\Dropbox\Work\png\animation T=1.02802.png" arWidth="640" arHeight="480" duration="0" songTitle="" songArtist="" songAlbum="" songCopyrightUrl="" songArtistUrl="" songAudioFileUrl="" stabilizationMode="0" mediaItemType="2" />
    <MediaItem id="2803" filePath="C:\Users\owner\Dropbox\Work\png\animation T=1.02803.png" arWidth="640" arHeight="480" duration="0" songTitle="" songArtist="" songAlbum="" songCopyrightUrl="" songArtistUrl="" songAudioFileUrl="" stabilizationMode="0" mediaItemType="2" />
    <MediaItem id="2804" filePath="C:\Users\owner\Dropbox\Work\png\animation T=1.02804.png" arWidth="640" arHeight="480" duration="0" songTitle="" songArtist="" songAlbum="" songCopyrightUrl="" songArtistUrl="" songAudioFileUrl="" stabilizationMode="0" mediaItemType="2" />
    <MediaItem id="2805" filePath="C:\Users\owner\Dropbox\Work\png\animation T=1.02805.png" arWidth="640" arHeight="480" duration="0" songTitle="" songArtist="" songAlbum="" songCopyrightUrl="" songArtistUrl="" songAudioFileUrl="" stabilizationMode="0" mediaItemType="2" />
    <MediaItem id="2806" filePath="C:\Users\owner\Dropbox\Work\png\animation T=1.02806.png" arWidth="640" arHeight="480" duration="0" songTitle="" songArtist="" songAlbum="" songCopyrightUrl="" songArtistUrl="" songAudioFileUrl="" stabilizationMode="0" mediaItemType="2" />
    <MediaItem id="2807" filePath="C:\Users\owner\Dropbox\Work\png\animation T=1.02807.png" arWidth="640" arHeight="480" duration="0" songTitle="" songArtist="" songAlbum="" songCopyrightUrl="" songArtistUrl="" songAudioFileUrl="" stabilizationMode="0" mediaItemType="2" />
    <MediaItem id="2808" filePath="C:\Users\owner\Dropbox\Work\png\animation T=1.02808.png" arWidth="640" arHeight="480" duration="0" songTitle="" songArtist="" songAlbum="" songCopyrightUrl="" songArtistUrl="" songAudioFileUrl="" stabilizationMode="0" mediaItemType="2" />
    <MediaItem id="2809" filePath="C:\Users\owner\Dropbox\Work\png\animation T=1.02809.png" arWidth="640" arHeight="480" duration="0" songTitle="" songArtist="" songAlbum="" songCopyrightUrl="" songArtistUrl="" songAudioFileUrl="" stabilizationMode="0" mediaItemType="2" />
    <MediaItem id="2810" filePath="C:\Users\owner\Dropbox\Work\png\animation T=1.02810.png" arWidth="640" arHeight="480" duration="0" songTitle="" songArtist="" songAlbum="" songCopyrightUrl="" songArtistUrl="" songAudioFileUrl="" stabilizationMode="0" mediaItemType="2" />
    <MediaItem id="2811" filePath="C:\Users\owner\Dropbox\Work\png\animation T=1.02811.png" arWidth="640" arHeight="480" duration="0" songTitle="" songArtist="" songAlbum="" songCopyrightUrl="" songArtistUrl="" songAudioFileUrl="" stabilizationMode="0" mediaItemType="2" />
    <MediaItem id="2812" filePath="C:\Users\owner\Dropbox\Work\png\animation T=1.02812.png" arWidth="640" arHeight="480" duration="0" songTitle="" songArtist="" songAlbum="" songCopyrightUrl="" songArtistUrl="" songAudioFileUrl="" stabilizationMode="0" mediaItemType="2" />
    <MediaItem id="2813" filePath="C:\Users\owner\Dropbox\Work\png\animation T=1.02813.png" arWidth="640" arHeight="480" duration="0" songTitle="" songArtist="" songAlbum="" songCopyrightUrl="" songArtistUrl="" songAudioFileUrl="" stabilizationMode="0" mediaItemType="2" />
    <MediaItem id="2814" filePath="C:\Users\owner\Dropbox\Work\png\animation T=1.02814.png" arWidth="640" arHeight="480" duration="0" songTitle="" songArtist="" songAlbum="" songCopyrightUrl="" songArtistUrl="" songAudioFileUrl="" stabilizationMode="0" mediaItemType="2" />
    <MediaItem id="2815" filePath="C:\Users\owner\Dropbox\Work\png\animation T=1.02815.png" arWidth="640" arHeight="480" duration="0" songTitle="" songArtist="" songAlbum="" songCopyrightUrl="" songArtistUrl="" songAudioFileUrl="" stabilizationMode="0" mediaItemType="2" />
    <MediaItem id="2816" filePath="C:\Users\owner\Dropbox\Work\png\animation T=1.02816.png" arWidth="640" arHeight="480" duration="0" songTitle="" songArtist="" songAlbum="" songCopyrightUrl="" songArtistUrl="" songAudioFileUrl="" stabilizationMode="0" mediaItemType="2" />
    <MediaItem id="2817" filePath="C:\Users\owner\Dropbox\Work\png\animation T=1.02817.png" arWidth="640" arHeight="480" duration="0" songTitle="" songArtist="" songAlbum="" songCopyrightUrl="" songArtistUrl="" songAudioFileUrl="" stabilizationMode="0" mediaItemType="2" />
    <MediaItem id="2818" filePath="C:\Users\owner\Dropbox\Work\png\animation T=1.02818.png" arWidth="640" arHeight="480" duration="0" songTitle="" songArtist="" songAlbum="" songCopyrightUrl="" songArtistUrl="" songAudioFileUrl="" stabilizationMode="0" mediaItemType="2" />
    <MediaItem id="2819" filePath="C:\Users\owner\Dropbox\Work\png\animation T=1.02819.png" arWidth="640" arHeight="480" duration="0" songTitle="" songArtist="" songAlbum="" songCopyrightUrl="" songArtistUrl="" songAudioFileUrl="" stabilizationMode="0" mediaItemType="2" />
    <MediaItem id="2820" filePath="C:\Users\owner\Dropbox\Work\png\animation T=1.02820.png" arWidth="640" arHeight="480" duration="0" songTitle="" songArtist="" songAlbum="" songCopyrightUrl="" songArtistUrl="" songAudioFileUrl="" stabilizationMode="0" mediaItemType="2" />
    <MediaItem id="2821" filePath="C:\Users\owner\Dropbox\Work\png\animation T=1.02821.png" arWidth="640" arHeight="480" duration="0" songTitle="" songArtist="" songAlbum="" songCopyrightUrl="" songArtistUrl="" songAudioFileUrl="" stabilizationMode="0" mediaItemType="2" />
    <MediaItem id="2822" filePath="C:\Users\owner\Dropbox\Work\png\animation T=1.02822.png" arWidth="640" arHeight="480" duration="0" songTitle="" songArtist="" songAlbum="" songCopyrightUrl="" songArtistUrl="" songAudioFileUrl="" stabilizationMode="0" mediaItemType="2" />
    <MediaItem id="2823" filePath="C:\Users\owner\Dropbox\Work\png\animation T=1.02823.png" arWidth="640" arHeight="480" duration="0" songTitle="" songArtist="" songAlbum="" songCopyrightUrl="" songArtistUrl="" songAudioFileUrl="" stabilizationMode="0" mediaItemType="2" />
    <MediaItem id="2824" filePath="C:\Users\owner\Dropbox\Work\png\animation T=1.02824.png" arWidth="640" arHeight="480" duration="0" songTitle="" songArtist="" songAlbum="" songCopyrightUrl="" songArtistUrl="" songAudioFileUrl="" stabilizationMode="0" mediaItemType="2" />
    <MediaItem id="2825" filePath="C:\Users\owner\Dropbox\Work\png\animation T=1.02825.png" arWidth="640" arHeight="480" duration="0" songTitle="" songArtist="" songAlbum="" songCopyrightUrl="" songArtistUrl="" songAudioFileUrl="" stabilizationMode="0" mediaItemType="2" />
    <MediaItem id="2826" filePath="C:\Users\owner\Dropbox\Work\png\animation T=1.02826.png" arWidth="640" arHeight="480" duration="0" songTitle="" songArtist="" songAlbum="" songCopyrightUrl="" songArtistUrl="" songAudioFileUrl="" stabilizationMode="0" mediaItemType="2" />
    <MediaItem id="2827" filePath="C:\Users\owner\Dropbox\Work\png\animation T=1.02827.png" arWidth="640" arHeight="480" duration="0" songTitle="" songArtist="" songAlbum="" songCopyrightUrl="" songArtistUrl="" songAudioFileUrl="" stabilizationMode="0" mediaItemType="2" />
    <MediaItem id="2828" filePath="C:\Users\owner\Dropbox\Work\png\animation T=1.02828.png" arWidth="640" arHeight="480" duration="0" songTitle="" songArtist="" songAlbum="" songCopyrightUrl="" songArtistUrl="" songAudioFileUrl="" stabilizationMode="0" mediaItemType="2" />
    <MediaItem id="2829" filePath="C:\Users\owner\Dropbox\Work\png\animation T=1.02829.png" arWidth="640" arHeight="480" duration="0" songTitle="" songArtist="" songAlbum="" songCopyrightUrl="" songArtistUrl="" songAudioFileUrl="" stabilizationMode="0" mediaItemType="2" />
    <MediaItem id="2830" filePath="C:\Users\owner\Dropbox\Work\png\animation T=1.02830.png" arWidth="640" arHeight="480" duration="0" songTitle="" songArtist="" songAlbum="" songCopyrightUrl="" songArtistUrl="" songAudioFileUrl="" stabilizationMode="0" mediaItemType="2" />
    <MediaItem id="2831" filePath="C:\Users\owner\Dropbox\Work\png\animation T=1.02831.png" arWidth="640" arHeight="480" duration="0" songTitle="" songArtist="" songAlbum="" songCopyrightUrl="" songArtistUrl="" songAudioFileUrl="" stabilizationMode="0" mediaItemType="2" />
    <MediaItem id="2832" filePath="C:\Users\owner\Dropbox\Work\png\animation T=1.02832.png" arWidth="640" arHeight="480" duration="0" songTitle="" songArtist="" songAlbum="" songCopyrightUrl="" songArtistUrl="" songAudioFileUrl="" stabilizationMode="0" mediaItemType="2" />
    <MediaItem id="2833" filePath="C:\Users\owner\Dropbox\Work\png\animation T=1.02833.png" arWidth="640" arHeight="480" duration="0" songTitle="" songArtist="" songAlbum="" songCopyrightUrl="" songArtistUrl="" songAudioFileUrl="" stabilizationMode="0" mediaItemType="2" />
    <MediaItem id="2834" filePath="C:\Users\owner\Dropbox\Work\png\animation T=1.02834.png" arWidth="640" arHeight="480" duration="0" songTitle="" songArtist="" songAlbum="" songCopyrightUrl="" songArtistUrl="" songAudioFileUrl="" stabilizationMode="0" mediaItemType="2" />
    <MediaItem id="2835" filePath="C:\Users\owner\Dropbox\Work\png\animation T=1.02835.png" arWidth="640" arHeight="480" duration="0" songTitle="" songArtist="" songAlbum="" songCopyrightUrl="" songArtistUrl="" songAudioFileUrl="" stabilizationMode="0" mediaItemType="2" />
    <MediaItem id="2836" filePath="C:\Users\owner\Dropbox\Work\png\animation T=1.02836.png" arWidth="640" arHeight="480" duration="0" songTitle="" songArtist="" songAlbum="" songCopyrightUrl="" songArtistUrl="" songAudioFileUrl="" stabilizationMode="0" mediaItemType="2" />
    <MediaItem id="2837" filePath="C:\Users\owner\Dropbox\Work\png\animation T=1.02837.png" arWidth="640" arHeight="480" duration="0" songTitle="" songArtist="" songAlbum="" songCopyrightUrl="" songArtistUrl="" songAudioFileUrl="" stabilizationMode="0" mediaItemType="2" />
    <MediaItem id="2838" filePath="C:\Users\owner\Dropbox\Work\png\animation T=1.02838.png" arWidth="640" arHeight="480" duration="0" songTitle="" songArtist="" songAlbum="" songCopyrightUrl="" songArtistUrl="" songAudioFileUrl="" stabilizationMode="0" mediaItemType="2" />
    <MediaItem id="2839" filePath="C:\Users\owner\Dropbox\Work\png\animation T=1.02839.png" arWidth="640" arHeight="480" duration="0" songTitle="" songArtist="" songAlbum="" songCopyrightUrl="" songArtistUrl="" songAudioFileUrl="" stabilizationMode="0" mediaItemType="2" />
    <MediaItem id="2840" filePath="C:\Users\owner\Dropbox\Work\png\animation T=1.02840.png" arWidth="640" arHeight="480" duration="0" songTitle="" songArtist="" songAlbum="" songCopyrightUrl="" songArtistUrl="" songAudioFileUrl="" stabilizationMode="0" mediaItemType="2" />
    <MediaItem id="2841" filePath="C:\Users\owner\Dropbox\Work\png\animation T=1.02841.png" arWidth="640" arHeight="480" duration="0" songTitle="" songArtist="" songAlbum="" songCopyrightUrl="" songArtistUrl="" songAudioFileUrl="" stabilizationMode="0" mediaItemType="2" />
    <MediaItem id="2842" filePath="C:\Users\owner\Dropbox\Work\png\animation T=1.02842.png" arWidth="640" arHeight="480" duration="0" songTitle="" songArtist="" songAlbum="" songCopyrightUrl="" songArtistUrl="" songAudioFileUrl="" stabilizationMode="0" mediaItemType="2" />
    <MediaItem id="2843" filePath="C:\Users\owner\Dropbox\Work\png\animation T=1.02843.png" arWidth="640" arHeight="480" duration="0" songTitle="" songArtist="" songAlbum="" songCopyrightUrl="" songArtistUrl="" songAudioFileUrl="" stabilizationMode="0" mediaItemType="2" />
    <MediaItem id="2844" filePath="C:\Users\owner\Dropbox\Work\png\animation T=1.02844.png" arWidth="640" arHeight="480" duration="0" songTitle="" songArtist="" songAlbum="" songCopyrightUrl="" songArtistUrl="" songAudioFileUrl="" stabilizationMode="0" mediaItemType="2" />
    <MediaItem id="2845" filePath="C:\Users\owner\Dropbox\Work\png\animation T=1.02845.png" arWidth="640" arHeight="480" duration="0" songTitle="" songArtist="" songAlbum="" songCopyrightUrl="" songArtistUrl="" songAudioFileUrl="" stabilizationMode="0" mediaItemType="2" />
    <MediaItem id="2846" filePath="C:\Users\owner\Dropbox\Work\png\animation T=1.02846.png" arWidth="640" arHeight="480" duration="0" songTitle="" songArtist="" songAlbum="" songCopyrightUrl="" songArtistUrl="" songAudioFileUrl="" stabilizationMode="0" mediaItemType="2" />
    <MediaItem id="2847" filePath="C:\Users\owner\Dropbox\Work\png\animation T=1.02847.png" arWidth="640" arHeight="480" duration="0" songTitle="" songArtist="" songAlbum="" songCopyrightUrl="" songArtistUrl="" songAudioFileUrl="" stabilizationMode="0" mediaItemType="2" />
    <MediaItem id="2848" filePath="C:\Users\owner\Dropbox\Work\png\animation T=1.02848.png" arWidth="640" arHeight="480" duration="0" songTitle="" songArtist="" songAlbum="" songCopyrightUrl="" songArtistUrl="" songAudioFileUrl="" stabilizationMode="0" mediaItemType="2" />
    <MediaItem id="2849" filePath="C:\Users\owner\Dropbox\Work\png\animation T=1.02849.png" arWidth="640" arHeight="480" duration="0" songTitle="" songArtist="" songAlbum="" songCopyrightUrl="" songArtistUrl="" songAudioFileUrl="" stabilizationMode="0" mediaItemType="2" />
    <MediaItem id="2850" filePath="C:\Users\owner\Dropbox\Work\png\animation T=1.02850.png" arWidth="640" arHeight="480" duration="0" songTitle="" songArtist="" songAlbum="" songCopyrightUrl="" songArtistUrl="" songAudioFileUrl="" stabilizationMode="0" mediaItemType="2" />
    <MediaItem id="2851" filePath="C:\Users\owner\Dropbox\Work\png\animation T=1.02851.png" arWidth="640" arHeight="480" duration="0" songTitle="" songArtist="" songAlbum="" songCopyrightUrl="" songArtistUrl="" songAudioFileUrl="" stabilizationMode="0" mediaItemType="2" />
    <MediaItem id="2852" filePath="C:\Users\owner\Dropbox\Work\png\animation T=1.02852.png" arWidth="640" arHeight="480" duration="0" songTitle="" songArtist="" songAlbum="" songCopyrightUrl="" songArtistUrl="" songAudioFileUrl="" stabilizationMode="0" mediaItemType="2" />
    <MediaItem id="2853" filePath="C:\Users\owner\Dropbox\Work\png\animation T=1.02853.png" arWidth="640" arHeight="480" duration="0" songTitle="" songArtist="" songAlbum="" songCopyrightUrl="" songArtistUrl="" songAudioFileUrl="" stabilizationMode="0" mediaItemType="2" />
    <MediaItem id="2854" filePath="C:\Users\owner\Dropbox\Work\png\animation T=1.02854.png" arWidth="640" arHeight="480" duration="0" songTitle="" songArtist="" songAlbum="" songCopyrightUrl="" songArtistUrl="" songAudioFileUrl="" stabilizationMode="0" mediaItemType="2" />
    <MediaItem id="2855" filePath="C:\Users\owner\Dropbox\Work\png\animation T=1.02855.png" arWidth="640" arHeight="480" duration="0" songTitle="" songArtist="" songAlbum="" songCopyrightUrl="" songArtistUrl="" songAudioFileUrl="" stabilizationMode="0" mediaItemType="2" />
    <MediaItem id="2856" filePath="C:\Users\owner\Dropbox\Work\png\animation T=1.02856.png" arWidth="640" arHeight="480" duration="0" songTitle="" songArtist="" songAlbum="" songCopyrightUrl="" songArtistUrl="" songAudioFileUrl="" stabilizationMode="0" mediaItemType="2" />
    <MediaItem id="2857" filePath="C:\Users\owner\Dropbox\Work\png\animation T=1.02857.png" arWidth="640" arHeight="480" duration="0" songTitle="" songArtist="" songAlbum="" songCopyrightUrl="" songArtistUrl="" songAudioFileUrl="" stabilizationMode="0" mediaItemType="2" />
    <MediaItem id="2858" filePath="C:\Users\owner\Dropbox\Work\png\animation T=1.02858.png" arWidth="640" arHeight="480" duration="0" songTitle="" songArtist="" songAlbum="" songCopyrightUrl="" songArtistUrl="" songAudioFileUrl="" stabilizationMode="0" mediaItemType="2" />
    <MediaItem id="2859" filePath="C:\Users\owner\Dropbox\Work\png\animation T=1.02859.png" arWidth="640" arHeight="480" duration="0" songTitle="" songArtist="" songAlbum="" songCopyrightUrl="" songArtistUrl="" songAudioFileUrl="" stabilizationMode="0" mediaItemType="2" />
    <MediaItem id="2860" filePath="C:\Users\owner\Dropbox\Work\png\animation T=1.02860.png" arWidth="640" arHeight="480" duration="0" songTitle="" songArtist="" songAlbum="" songCopyrightUrl="" songArtistUrl="" songAudioFileUrl="" stabilizationMode="0" mediaItemType="2" />
    <MediaItem id="2861" filePath="C:\Users\owner\Dropbox\Work\png\animation T=1.02861.png" arWidth="640" arHeight="480" duration="0" songTitle="" songArtist="" songAlbum="" songCopyrightUrl="" songArtistUrl="" songAudioFileUrl="" stabilizationMode="0" mediaItemType="2" />
    <MediaItem id="2862" filePath="C:\Users\owner\Dropbox\Work\png\animation T=1.02862.png" arWidth="640" arHeight="480" duration="0" songTitle="" songArtist="" songAlbum="" songCopyrightUrl="" songArtistUrl="" songAudioFileUrl="" stabilizationMode="0" mediaItemType="2" />
    <MediaItem id="2863" filePath="C:\Users\owner\Dropbox\Work\png\animation T=1.02863.png" arWidth="640" arHeight="480" duration="0" songTitle="" songArtist="" songAlbum="" songCopyrightUrl="" songArtistUrl="" songAudioFileUrl="" stabilizationMode="0" mediaItemType="2" />
    <MediaItem id="2864" filePath="C:\Users\owner\Dropbox\Work\png\animation T=1.02864.png" arWidth="640" arHeight="480" duration="0" songTitle="" songArtist="" songAlbum="" songCopyrightUrl="" songArtistUrl="" songAudioFileUrl="" stabilizationMode="0" mediaItemType="2" />
    <MediaItem id="2865" filePath="C:\Users\owner\Dropbox\Work\png\animation T=1.02865.png" arWidth="640" arHeight="480" duration="0" songTitle="" songArtist="" songAlbum="" songCopyrightUrl="" songArtistUrl="" songAudioFileUrl="" stabilizationMode="0" mediaItemType="2" />
    <MediaItem id="2866" filePath="C:\Users\owner\Dropbox\Work\png\animation T=1.02866.png" arWidth="640" arHeight="480" duration="0" songTitle="" songArtist="" songAlbum="" songCopyrightUrl="" songArtistUrl="" songAudioFileUrl="" stabilizationMode="0" mediaItemType="2" />
    <MediaItem id="2867" filePath="C:\Users\owner\Dropbox\Work\png\animation T=1.02867.png" arWidth="640" arHeight="480" duration="0" songTitle="" songArtist="" songAlbum="" songCopyrightUrl="" songArtistUrl="" songAudioFileUrl="" stabilizationMode="0" mediaItemType="2" />
    <MediaItem id="2868" filePath="C:\Users\owner\Dropbox\Work\png\animation T=1.02868.png" arWidth="640" arHeight="480" duration="0" songTitle="" songArtist="" songAlbum="" songCopyrightUrl="" songArtistUrl="" songAudioFileUrl="" stabilizationMode="0" mediaItemType="2" />
    <MediaItem id="2869" filePath="C:\Users\owner\Dropbox\Work\png\animation T=1.02869.png" arWidth="640" arHeight="480" duration="0" songTitle="" songArtist="" songAlbum="" songCopyrightUrl="" songArtistUrl="" songAudioFileUrl="" stabilizationMode="0" mediaItemType="2" />
    <MediaItem id="2870" filePath="C:\Users\owner\Dropbox\Work\png\animation T=1.02870.png" arWidth="640" arHeight="480" duration="0" songTitle="" songArtist="" songAlbum="" songCopyrightUrl="" songArtistUrl="" songAudioFileUrl="" stabilizationMode="0" mediaItemType="2" />
    <MediaItem id="2871" filePath="C:\Users\owner\Dropbox\Work\png\animation T=1.02871.png" arWidth="640" arHeight="480" duration="0" songTitle="" songArtist="" songAlbum="" songCopyrightUrl="" songArtistUrl="" songAudioFileUrl="" stabilizationMode="0" mediaItemType="2" />
    <MediaItem id="2872" filePath="C:\Users\owner\Dropbox\Work\png\animation T=1.02872.png" arWidth="640" arHeight="480" duration="0" songTitle="" songArtist="" songAlbum="" songCopyrightUrl="" songArtistUrl="" songAudioFileUrl="" stabilizationMode="0" mediaItemType="2" />
    <MediaItem id="2873" filePath="C:\Users\owner\Dropbox\Work\png\animation T=1.02873.png" arWidth="640" arHeight="480" duration="0" songTitle="" songArtist="" songAlbum="" songCopyrightUrl="" songArtistUrl="" songAudioFileUrl="" stabilizationMode="0" mediaItemType="2" />
    <MediaItem id="2874" filePath="C:\Users\owner\Dropbox\Work\png\animation T=1.02874.png" arWidth="640" arHeight="480" duration="0" songTitle="" songArtist="" songAlbum="" songCopyrightUrl="" songArtistUrl="" songAudioFileUrl="" stabilizationMode="0" mediaItemType="2" />
    <MediaItem id="2875" filePath="C:\Users\owner\Dropbox\Work\png\animation T=1.02875.png" arWidth="640" arHeight="480" duration="0" songTitle="" songArtist="" songAlbum="" songCopyrightUrl="" songArtistUrl="" songAudioFileUrl="" stabilizationMode="0" mediaItemType="2" />
    <MediaItem id="2876" filePath="C:\Users\owner\Dropbox\Work\png\animation T=1.02876.png" arWidth="640" arHeight="480" duration="0" songTitle="" songArtist="" songAlbum="" songCopyrightUrl="" songArtistUrl="" songAudioFileUrl="" stabilizationMode="0" mediaItemType="2" />
    <MediaItem id="2877" filePath="C:\Users\owner\Dropbox\Work\png\animation T=1.02877.png" arWidth="640" arHeight="480" duration="0" songTitle="" songArtist="" songAlbum="" songCopyrightUrl="" songArtistUrl="" songAudioFileUrl="" stabilizationMode="0" mediaItemType="2" />
    <MediaItem id="2878" filePath="C:\Users\owner\Dropbox\Work\png\animation T=1.02878.png" arWidth="640" arHeight="480" duration="0" songTitle="" songArtist="" songAlbum="" songCopyrightUrl="" songArtistUrl="" songAudioFileUrl="" stabilizationMode="0" mediaItemType="2" />
    <MediaItem id="2879" filePath="C:\Users\owner\Dropbox\Work\png\animation T=1.02879.png" arWidth="640" arHeight="480" duration="0" songTitle="" songArtist="" songAlbum="" songCopyrightUrl="" songArtistUrl="" songAudioFileUrl="" stabilizationMode="0" mediaItemType="2" />
    <MediaItem id="2880" filePath="C:\Users\owner\Dropbox\Work\png\animation T=1.02880.png" arWidth="640" arHeight="480" duration="0" songTitle="" songArtist="" songAlbum="" songCopyrightUrl="" songArtistUrl="" songAudioFileUrl="" stabilizationMode="0" mediaItemType="2" />
    <MediaItem id="2881" filePath="C:\Users\owner\Dropbox\Work\png\animation T=1.02881.png" arWidth="640" arHeight="480" duration="0" songTitle="" songArtist="" songAlbum="" songCopyrightUrl="" songArtistUrl="" songAudioFileUrl="" stabilizationMode="0" mediaItemType="2" />
    <MediaItem id="2882" filePath="C:\Users\owner\Dropbox\Work\png\animation T=1.02882.png" arWidth="640" arHeight="480" duration="0" songTitle="" songArtist="" songAlbum="" songCopyrightUrl="" songArtistUrl="" songAudioFileUrl="" stabilizationMode="0" mediaItemType="2" />
    <MediaItem id="2883" filePath="C:\Users\owner\Dropbox\Work\png\animation T=1.02883.png" arWidth="640" arHeight="480" duration="0" songTitle="" songArtist="" songAlbum="" songCopyrightUrl="" songArtistUrl="" songAudioFileUrl="" stabilizationMode="0" mediaItemType="2" />
    <MediaItem id="2884" filePath="C:\Users\owner\Dropbox\Work\png\animation T=1.02884.png" arWidth="640" arHeight="480" duration="0" songTitle="" songArtist="" songAlbum="" songCopyrightUrl="" songArtistUrl="" songAudioFileUrl="" stabilizationMode="0" mediaItemType="2" />
    <MediaItem id="2885" filePath="C:\Users\owner\Dropbox\Work\png\animation T=1.02885.png" arWidth="640" arHeight="480" duration="0" songTitle="" songArtist="" songAlbum="" songCopyrightUrl="" songArtistUrl="" songAudioFileUrl="" stabilizationMode="0" mediaItemType="2" />
    <MediaItem id="2886" filePath="C:\Users\owner\Dropbox\Work\png\animation T=1.02886.png" arWidth="640" arHeight="480" duration="0" songTitle="" songArtist="" songAlbum="" songCopyrightUrl="" songArtistUrl="" songAudioFileUrl="" stabilizationMode="0" mediaItemType="2" />
    <MediaItem id="2887" filePath="C:\Users\owner\Dropbox\Work\png\animation T=1.02887.png" arWidth="640" arHeight="480" duration="0" songTitle="" songArtist="" songAlbum="" songCopyrightUrl="" songArtistUrl="" songAudioFileUrl="" stabilizationMode="0" mediaItemType="2" />
    <MediaItem id="2888" filePath="C:\Users\owner\Dropbox\Work\png\animation T=1.02888.png" arWidth="640" arHeight="480" duration="0" songTitle="" songArtist="" songAlbum="" songCopyrightUrl="" songArtistUrl="" songAudioFileUrl="" stabilizationMode="0" mediaItemType="2" />
    <MediaItem id="2889" filePath="C:\Users\owner\Dropbox\Work\png\animation T=1.02889.png" arWidth="640" arHeight="480" duration="0" songTitle="" songArtist="" songAlbum="" songCopyrightUrl="" songArtistUrl="" songAudioFileUrl="" stabilizationMode="0" mediaItemType="2" />
    <MediaItem id="2890" filePath="C:\Users\owner\Dropbox\Work\png\animation T=1.02890.png" arWidth="640" arHeight="480" duration="0" songTitle="" songArtist="" songAlbum="" songCopyrightUrl="" songArtistUrl="" songAudioFileUrl="" stabilizationMode="0" mediaItemType="2" />
    <MediaItem id="2891" filePath="C:\Users\owner\Dropbox\Work\png\animation T=1.02891.png" arWidth="640" arHeight="480" duration="0" songTitle="" songArtist="" songAlbum="" songCopyrightUrl="" songArtistUrl="" songAudioFileUrl="" stabilizationMode="0" mediaItemType="2" />
    <MediaItem id="2892" filePath="C:\Users\owner\Dropbox\Work\png\animation T=1.02892.png" arWidth="640" arHeight="480" duration="0" songTitle="" songArtist="" songAlbum="" songCopyrightUrl="" songArtistUrl="" songAudioFileUrl="" stabilizationMode="0" mediaItemType="2" />
    <MediaItem id="2893" filePath="C:\Users\owner\Dropbox\Work\png\animation T=1.02893.png" arWidth="640" arHeight="480" duration="0" songTitle="" songArtist="" songAlbum="" songCopyrightUrl="" songArtistUrl="" songAudioFileUrl="" stabilizationMode="0" mediaItemType="2" />
    <MediaItem id="2894" filePath="C:\Users\owner\Dropbox\Work\png\animation T=1.02894.png" arWidth="640" arHeight="480" duration="0" songTitle="" songArtist="" songAlbum="" songCopyrightUrl="" songArtistUrl="" songAudioFileUrl="" stabilizationMode="0" mediaItemType="2" />
    <MediaItem id="2895" filePath="C:\Users\owner\Dropbox\Work\png\animation T=1.02895.png" arWidth="640" arHeight="480" duration="0" songTitle="" songArtist="" songAlbum="" songCopyrightUrl="" songArtistUrl="" songAudioFileUrl="" stabilizationMode="0" mediaItemType="2" />
    <MediaItem id="2896" filePath="C:\Users\owner\Dropbox\Work\png\animation T=1.02896.png" arWidth="640" arHeight="480" duration="0" songTitle="" songArtist="" songAlbum="" songCopyrightUrl="" songArtistUrl="" songAudioFileUrl="" stabilizationMode="0" mediaItemType="2" />
    <MediaItem id="2897" filePath="C:\Users\owner\Dropbox\Work\png\animation T=1.02897.png" arWidth="640" arHeight="480" duration="0" songTitle="" songArtist="" songAlbum="" songCopyrightUrl="" songArtistUrl="" songAudioFileUrl="" stabilizationMode="0" mediaItemType="2" />
    <MediaItem id="2898" filePath="C:\Users\owner\Dropbox\Work\png\animation T=1.02898.png" arWidth="640" arHeight="480" duration="0" songTitle="" songArtist="" songAlbum="" songCopyrightUrl="" songArtistUrl="" songAudioFileUrl="" stabilizationMode="0" mediaItemType="2" />
    <MediaItem id="2899" filePath="C:\Users\owner\Dropbox\Work\png\animation T=1.02899.png" arWidth="640" arHeight="480" duration="0" songTitle="" songArtist="" songAlbum="" songCopyrightUrl="" songArtistUrl="" songAudioFileUrl="" stabilizationMode="0" mediaItemType="2" />
    <MediaItem id="2900" filePath="C:\Users\owner\Dropbox\Work\png\animation T=1.02900.png" arWidth="640" arHeight="480" duration="0" songTitle="" songArtist="" songAlbum="" songCopyrightUrl="" songArtistUrl="" songAudioFileUrl="" stabilizationMode="0" mediaItemType="2" />
    <MediaItem id="2901" filePath="C:\Users\owner\Dropbox\Work\png\animation T=1.02901.png" arWidth="640" arHeight="480" duration="0" songTitle="" songArtist="" songAlbum="" songCopyrightUrl="" songArtistUrl="" songAudioFileUrl="" stabilizationMode="0" mediaItemType="2" />
    <MediaItem id="2902" filePath="C:\Users\owner\Dropbox\Work\png\animation T=1.02902.png" arWidth="640" arHeight="480" duration="0" songTitle="" songArtist="" songAlbum="" songCopyrightUrl="" songArtistUrl="" songAudioFileUrl="" stabilizationMode="0" mediaItemType="2" />
    <MediaItem id="2903" filePath="C:\Users\owner\Dropbox\Work\png\animation T=1.02903.png" arWidth="640" arHeight="480" duration="0" songTitle="" songArtist="" songAlbum="" songCopyrightUrl="" songArtistUrl="" songAudioFileUrl="" stabilizationMode="0" mediaItemType="2" />
    <MediaItem id="2904" filePath="C:\Users\owner\Dropbox\Work\png\animation T=1.02904.png" arWidth="640" arHeight="480" duration="0" songTitle="" songArtist="" songAlbum="" songCopyrightUrl="" songArtistUrl="" songAudioFileUrl="" stabilizationMode="0" mediaItemType="2" />
    <MediaItem id="2905" filePath="C:\Users\owner\Dropbox\Work\png\animation T=1.02905.png" arWidth="640" arHeight="480" duration="0" songTitle="" songArtist="" songAlbum="" songCopyrightUrl="" songArtistUrl="" songAudioFileUrl="" stabilizationMode="0" mediaItemType="2" />
    <MediaItem id="2906" filePath="C:\Users\owner\Dropbox\Work\png\animation T=1.02906.png" arWidth="640" arHeight="480" duration="0" songTitle="" songArtist="" songAlbum="" songCopyrightUrl="" songArtistUrl="" songAudioFileUrl="" stabilizationMode="0" mediaItemType="2" />
    <MediaItem id="2907" filePath="C:\Users\owner\Dropbox\Work\png\animation T=1.02907.png" arWidth="640" arHeight="480" duration="0" songTitle="" songArtist="" songAlbum="" songCopyrightUrl="" songArtistUrl="" songAudioFileUrl="" stabilizationMode="0" mediaItemType="2" />
    <MediaItem id="2908" filePath="C:\Users\owner\Dropbox\Work\png\animation T=1.02908.png" arWidth="640" arHeight="480" duration="0" songTitle="" songArtist="" songAlbum="" songCopyrightUrl="" songArtistUrl="" songAudioFileUrl="" stabilizationMode="0" mediaItemType="2" />
    <MediaItem id="2909" filePath="C:\Users\owner\Dropbox\Work\png\animation T=1.02909.png" arWidth="640" arHeight="480" duration="0" songTitle="" songArtist="" songAlbum="" songCopyrightUrl="" songArtistUrl="" songAudioFileUrl="" stabilizationMode="0" mediaItemType="2" />
    <MediaItem id="2910" filePath="C:\Users\owner\Dropbox\Work\png\animation T=1.02910.png" arWidth="640" arHeight="480" duration="0" songTitle="" songArtist="" songAlbum="" songCopyrightUrl="" songArtistUrl="" songAudioFileUrl="" stabilizationMode="0" mediaItemType="2" />
    <MediaItem id="2911" filePath="C:\Users\owner\Dropbox\Work\png\animation T=1.02911.png" arWidth="640" arHeight="480" duration="0" songTitle="" songArtist="" songAlbum="" songCopyrightUrl="" songArtistUrl="" songAudioFileUrl="" stabilizationMode="0" mediaItemType="2" />
    <MediaItem id="2912" filePath="C:\Users\owner\Dropbox\Work\png\animation T=1.02912.png" arWidth="640" arHeight="480" duration="0" songTitle="" songArtist="" songAlbum="" songCopyrightUrl="" songArtistUrl="" songAudioFileUrl="" stabilizationMode="0" mediaItemType="2" />
    <MediaItem id="2913" filePath="C:\Users\owner\Dropbox\Work\png\animation T=1.02913.png" arWidth="640" arHeight="480" duration="0" songTitle="" songArtist="" songAlbum="" songCopyrightUrl="" songArtistUrl="" songAudioFileUrl="" stabilizationMode="0" mediaItemType="2" />
    <MediaItem id="2914" filePath="C:\Users\owner\Dropbox\Work\png\animation T=1.02914.png" arWidth="640" arHeight="480" duration="0" songTitle="" songArtist="" songAlbum="" songCopyrightUrl="" songArtistUrl="" songAudioFileUrl="" stabilizationMode="0" mediaItemType="2" />
    <MediaItem id="2915" filePath="C:\Users\owner\Dropbox\Work\png\animation T=1.02915.png" arWidth="640" arHeight="480" duration="0" songTitle="" songArtist="" songAlbum="" songCopyrightUrl="" songArtistUrl="" songAudioFileUrl="" stabilizationMode="0" mediaItemType="2" />
    <MediaItem id="2916" filePath="C:\Users\owner\Dropbox\Work\png\animation T=1.02916.png" arWidth="640" arHeight="480" duration="0" songTitle="" songArtist="" songAlbum="" songCopyrightUrl="" songArtistUrl="" songAudioFileUrl="" stabilizationMode="0" mediaItemType="2" />
    <MediaItem id="2917" filePath="C:\Users\owner\Dropbox\Work\png\animation T=1.02917.png" arWidth="640" arHeight="480" duration="0" songTitle="" songArtist="" songAlbum="" songCopyrightUrl="" songArtistUrl="" songAudioFileUrl="" stabilizationMode="0" mediaItemType="2" />
    <MediaItem id="2918" filePath="C:\Users\owner\Dropbox\Work\png\animation T=1.02918.png" arWidth="640" arHeight="480" duration="0" songTitle="" songArtist="" songAlbum="" songCopyrightUrl="" songArtistUrl="" songAudioFileUrl="" stabilizationMode="0" mediaItemType="2" />
    <MediaItem id="2919" filePath="C:\Users\owner\Dropbox\Work\png\animation T=1.02919.png" arWidth="640" arHeight="480" duration="0" songTitle="" songArtist="" songAlbum="" songCopyrightUrl="" songArtistUrl="" songAudioFileUrl="" stabilizationMode="0" mediaItemType="2" />
    <MediaItem id="2920" filePath="C:\Users\owner\Dropbox\Work\png\animation T=1.02920.png" arWidth="640" arHeight="480" duration="0" songTitle="" songArtist="" songAlbum="" songCopyrightUrl="" songArtistUrl="" songAudioFileUrl="" stabilizationMode="0" mediaItemType="2" />
    <MediaItem id="2921" filePath="C:\Users\owner\Dropbox\Work\png\animation T=1.02921.png" arWidth="640" arHeight="480" duration="0" songTitle="" songArtist="" songAlbum="" songCopyrightUrl="" songArtistUrl="" songAudioFileUrl="" stabilizationMode="0" mediaItemType="2" />
    <MediaItem id="2922" filePath="C:\Users\owner\Dropbox\Work\png\animation T=1.02922.png" arWidth="640" arHeight="480" duration="0" songTitle="" songArtist="" songAlbum="" songCopyrightUrl="" songArtistUrl="" songAudioFileUrl="" stabilizationMode="0" mediaItemType="2" />
    <MediaItem id="2923" filePath="C:\Users\owner\Dropbox\Work\png\animation T=1.02923.png" arWidth="640" arHeight="480" duration="0" songTitle="" songArtist="" songAlbum="" songCopyrightUrl="" songArtistUrl="" songAudioFileUrl="" stabilizationMode="0" mediaItemType="2" />
    <MediaItem id="2924" filePath="C:\Users\owner\Dropbox\Work\png\animation T=1.02924.png" arWidth="640" arHeight="480" duration="0" songTitle="" songArtist="" songAlbum="" songCopyrightUrl="" songArtistUrl="" songAudioFileUrl="" stabilizationMode="0" mediaItemType="2" />
    <MediaItem id="2925" filePath="C:\Users\owner\Dropbox\Work\png\animation T=1.02925.png" arWidth="640" arHeight="480" duration="0" songTitle="" songArtist="" songAlbum="" songCopyrightUrl="" songArtistUrl="" songAudioFileUrl="" stabilizationMode="0" mediaItemType="2" />
    <MediaItem id="2926" filePath="C:\Users\owner\Dropbox\Work\png\animation T=1.02926.png" arWidth="640" arHeight="480" duration="0" songTitle="" songArtist="" songAlbum="" songCopyrightUrl="" songArtistUrl="" songAudioFileUrl="" stabilizationMode="0" mediaItemType="2" />
    <MediaItem id="2927" filePath="C:\Users\owner\Dropbox\Work\png\animation T=1.02927.png" arWidth="640" arHeight="480" duration="0" songTitle="" songArtist="" songAlbum="" songCopyrightUrl="" songArtistUrl="" songAudioFileUrl="" stabilizationMode="0" mediaItemType="2" />
    <MediaItem id="2928" filePath="C:\Users\owner\Dropbox\Work\png\animation T=1.02928.png" arWidth="640" arHeight="480" duration="0" songTitle="" songArtist="" songAlbum="" songCopyrightUrl="" songArtistUrl="" songAudioFileUrl="" stabilizationMode="0" mediaItemType="2" />
    <MediaItem id="2929" filePath="C:\Users\owner\Dropbox\Work\png\animation T=1.02929.png" arWidth="640" arHeight="480" duration="0" songTitle="" songArtist="" songAlbum="" songCopyrightUrl="" songArtistUrl="" songAudioFileUrl="" stabilizationMode="0" mediaItemType="2" />
    <MediaItem id="2930" filePath="C:\Users\owner\Dropbox\Work\png\animation T=1.02930.png" arWidth="640" arHeight="480" duration="0" songTitle="" songArtist="" songAlbum="" songCopyrightUrl="" songArtistUrl="" songAudioFileUrl="" stabilizationMode="0" mediaItemType="2" />
    <MediaItem id="2931" filePath="C:\Users\owner\Dropbox\Work\png\animation T=1.02931.png" arWidth="640" arHeight="480" duration="0" songTitle="" songArtist="" songAlbum="" songCopyrightUrl="" songArtistUrl="" songAudioFileUrl="" stabilizationMode="0" mediaItemType="2" />
    <MediaItem id="2932" filePath="C:\Users\owner\Dropbox\Work\png\animation T=1.02932.png" arWidth="640" arHeight="480" duration="0" songTitle="" songArtist="" songAlbum="" songCopyrightUrl="" songArtistUrl="" songAudioFileUrl="" stabilizationMode="0" mediaItemType="2" />
    <MediaItem id="2933" filePath="C:\Users\owner\Dropbox\Work\png\animation T=1.02933.png" arWidth="640" arHeight="480" duration="0" songTitle="" songArtist="" songAlbum="" songCopyrightUrl="" songArtistUrl="" songAudioFileUrl="" stabilizationMode="0" mediaItemType="2" />
    <MediaItem id="2934" filePath="C:\Users\owner\Dropbox\Work\png\animation T=1.02934.png" arWidth="640" arHeight="480" duration="0" songTitle="" songArtist="" songAlbum="" songCopyrightUrl="" songArtistUrl="" songAudioFileUrl="" stabilizationMode="0" mediaItemType="2" />
    <MediaItem id="2935" filePath="C:\Users\owner\Dropbox\Work\png\animation T=1.02935.png" arWidth="640" arHeight="480" duration="0" songTitle="" songArtist="" songAlbum="" songCopyrightUrl="" songArtistUrl="" songAudioFileUrl="" stabilizationMode="0" mediaItemType="2" />
    <MediaItem id="2936" filePath="C:\Users\owner\Dropbox\Work\png\animation T=1.02936.png" arWidth="640" arHeight="480" duration="0" songTitle="" songArtist="" songAlbum="" songCopyrightUrl="" songArtistUrl="" songAudioFileUrl="" stabilizationMode="0" mediaItemType="2" />
    <MediaItem id="2937" filePath="C:\Users\owner\Dropbox\Work\png\animation T=1.02937.png" arWidth="640" arHeight="480" duration="0" songTitle="" songArtist="" songAlbum="" songCopyrightUrl="" songArtistUrl="" songAudioFileUrl="" stabilizationMode="0" mediaItemType="2" />
    <MediaItem id="2938" filePath="C:\Users\owner\Dropbox\Work\png\animation T=1.02938.png" arWidth="640" arHeight="480" duration="0" songTitle="" songArtist="" songAlbum="" songCopyrightUrl="" songArtistUrl="" songAudioFileUrl="" stabilizationMode="0" mediaItemType="2" />
    <MediaItem id="2939" filePath="C:\Users\owner\Dropbox\Work\png\animation T=1.02939.png" arWidth="640" arHeight="480" duration="0" songTitle="" songArtist="" songAlbum="" songCopyrightUrl="" songArtistUrl="" songAudioFileUrl="" stabilizationMode="0" mediaItemType="2" />
    <MediaItem id="2940" filePath="C:\Users\owner\Dropbox\Work\png\animation T=1.02940.png" arWidth="640" arHeight="480" duration="0" songTitle="" songArtist="" songAlbum="" songCopyrightUrl="" songArtistUrl="" songAudioFileUrl="" stabilizationMode="0" mediaItemType="2" />
    <MediaItem id="2941" filePath="C:\Users\owner\Dropbox\Work\png\animation T=1.02941.png" arWidth="640" arHeight="480" duration="0" songTitle="" songArtist="" songAlbum="" songCopyrightUrl="" songArtistUrl="" songAudioFileUrl="" stabilizationMode="0" mediaItemType="2" />
    <MediaItem id="2942" filePath="C:\Users\owner\Dropbox\Work\png\animation T=1.02942.png" arWidth="640" arHeight="480" duration="0" songTitle="" songArtist="" songAlbum="" songCopyrightUrl="" songArtistUrl="" songAudioFileUrl="" stabilizationMode="0" mediaItemType="2" />
    <MediaItem id="2943" filePath="C:\Users\owner\Dropbox\Work\png\animation T=1.02943.png" arWidth="640" arHeight="480" duration="0" songTitle="" songArtist="" songAlbum="" songCopyrightUrl="" songArtistUrl="" songAudioFileUrl="" stabilizationMode="0" mediaItemType="2" />
    <MediaItem id="2944" filePath="C:\Users\owner\Dropbox\Work\png\animation T=1.02944.png" arWidth="640" arHeight="480" duration="0" songTitle="" songArtist="" songAlbum="" songCopyrightUrl="" songArtistUrl="" songAudioFileUrl="" stabilizationMode="0" mediaItemType="2" />
    <MediaItem id="2945" filePath="C:\Users\owner\Dropbox\Work\png\animation T=1.02945.png" arWidth="640" arHeight="480" duration="0" songTitle="" songArtist="" songAlbum="" songCopyrightUrl="" songArtistUrl="" songAudioFileUrl="" stabilizationMode="0" mediaItemType="2" />
    <MediaItem id="2946" filePath="C:\Users\owner\Dropbox\Work\png\animation T=1.02946.png" arWidth="640" arHeight="480" duration="0" songTitle="" songArtist="" songAlbum="" songCopyrightUrl="" songArtistUrl="" songAudioFileUrl="" stabilizationMode="0" mediaItemType="2" />
    <MediaItem id="2947" filePath="C:\Users\owner\Dropbox\Work\png\animation T=1.02947.png" arWidth="640" arHeight="480" duration="0" songTitle="" songArtist="" songAlbum="" songCopyrightUrl="" songArtistUrl="" songAudioFileUrl="" stabilizationMode="0" mediaItemType="2" />
    <MediaItem id="2948" filePath="C:\Users\owner\Dropbox\Work\png\animation T=1.02948.png" arWidth="640" arHeight="480" duration="0" songTitle="" songArtist="" songAlbum="" songCopyrightUrl="" songArtistUrl="" songAudioFileUrl="" stabilizationMode="0" mediaItemType="2" />
    <MediaItem id="2949" filePath="C:\Users\owner\Dropbox\Work\png\animation T=1.02949.png" arWidth="640" arHeight="480" duration="0" songTitle="" songArtist="" songAlbum="" songCopyrightUrl="" songArtistUrl="" songAudioFileUrl="" stabilizationMode="0" mediaItemType="2" />
    <MediaItem id="2950" filePath="C:\Users\owner\Dropbox\Work\png\animation T=1.02950.png" arWidth="640" arHeight="480" duration="0" songTitle="" songArtist="" songAlbum="" songCopyrightUrl="" songArtistUrl="" songAudioFileUrl="" stabilizationMode="0" mediaItemType="2" />
    <MediaItem id="2951" filePath="C:\Users\owner\Dropbox\Work\png\animation T=1.02951.png" arWidth="640" arHeight="480" duration="0" songTitle="" songArtist="" songAlbum="" songCopyrightUrl="" songArtistUrl="" songAudioFileUrl="" stabilizationMode="0" mediaItemType="2" />
    <MediaItem id="2952" filePath="C:\Users\owner\Dropbox\Work\png\animation T=1.02952.png" arWidth="640" arHeight="480" duration="0" songTitle="" songArtist="" songAlbum="" songCopyrightUrl="" songArtistUrl="" songAudioFileUrl="" stabilizationMode="0" mediaItemType="2" />
    <MediaItem id="2953" filePath="C:\Users\owner\Dropbox\Work\png\animation T=1.02953.png" arWidth="640" arHeight="480" duration="0" songTitle="" songArtist="" songAlbum="" songCopyrightUrl="" songArtistUrl="" songAudioFileUrl="" stabilizationMode="0" mediaItemType="2" />
    <MediaItem id="2954" filePath="C:\Users\owner\Dropbox\Work\png\animation T=1.02954.png" arWidth="640" arHeight="480" duration="0" songTitle="" songArtist="" songAlbum="" songCopyrightUrl="" songArtistUrl="" songAudioFileUrl="" stabilizationMode="0" mediaItemType="2" />
    <MediaItem id="2955" filePath="C:\Users\owner\Dropbox\Work\png\animation T=1.02955.png" arWidth="640" arHeight="480" duration="0" songTitle="" songArtist="" songAlbum="" songCopyrightUrl="" songArtistUrl="" songAudioFileUrl="" stabilizationMode="0" mediaItemType="2" />
    <MediaItem id="2956" filePath="C:\Users\owner\Dropbox\Work\png\animation T=1.02956.png" arWidth="640" arHeight="480" duration="0" songTitle="" songArtist="" songAlbum="" songCopyrightUrl="" songArtistUrl="" songAudioFileUrl="" stabilizationMode="0" mediaItemType="2" />
    <MediaItem id="2957" filePath="C:\Users\owner\Dropbox\Work\png\animation T=1.02957.png" arWidth="640" arHeight="480" duration="0" songTitle="" songArtist="" songAlbum="" songCopyrightUrl="" songArtistUrl="" songAudioFileUrl="" stabilizationMode="0" mediaItemType="2" />
    <MediaItem id="2958" filePath="C:\Users\owner\Dropbox\Work\png\animation T=1.02958.png" arWidth="640" arHeight="480" duration="0" songTitle="" songArtist="" songAlbum="" songCopyrightUrl="" songArtistUrl="" songAudioFileUrl="" stabilizationMode="0" mediaItemType="2" />
    <MediaItem id="2959" filePath="C:\Users\owner\Dropbox\Work\png\animation T=1.02959.png" arWidth="640" arHeight="480" duration="0" songTitle="" songArtist="" songAlbum="" songCopyrightUrl="" songArtistUrl="" songAudioFileUrl="" stabilizationMode="0" mediaItemType="2" />
    <MediaItem id="2960" filePath="C:\Users\owner\Dropbox\Work\png\animation T=1.02960.png" arWidth="640" arHeight="480" duration="0" songTitle="" songArtist="" songAlbum="" songCopyrightUrl="" songArtistUrl="" songAudioFileUrl="" stabilizationMode="0" mediaItemType="2" />
    <MediaItem id="2961" filePath="C:\Users\owner\Dropbox\Work\png\animation T=1.02961.png" arWidth="640" arHeight="480" duration="0" songTitle="" songArtist="" songAlbum="" songCopyrightUrl="" songArtistUrl="" songAudioFileUrl="" stabilizationMode="0" mediaItemType="2" />
    <MediaItem id="2962" filePath="C:\Users\owner\Dropbox\Work\png\animation T=1.02962.png" arWidth="640" arHeight="480" duration="0" songTitle="" songArtist="" songAlbum="" songCopyrightUrl="" songArtistUrl="" songAudioFileUrl="" stabilizationMode="0" mediaItemType="2" />
    <MediaItem id="2963" filePath="C:\Users\owner\Dropbox\Work\png\animation T=1.02963.png" arWidth="640" arHeight="480" duration="0" songTitle="" songArtist="" songAlbum="" songCopyrightUrl="" songArtistUrl="" songAudioFileUrl="" stabilizationMode="0" mediaItemType="2" />
    <MediaItem id="2964" filePath="C:\Users\owner\Dropbox\Work\png\animation T=1.02964.png" arWidth="640" arHeight="480" duration="0" songTitle="" songArtist="" songAlbum="" songCopyrightUrl="" songArtistUrl="" songAudioFileUrl="" stabilizationMode="0" mediaItemType="2" />
    <MediaItem id="2965" filePath="C:\Users\owner\Dropbox\Work\png\animation T=1.02965.png" arWidth="640" arHeight="480" duration="0" songTitle="" songArtist="" songAlbum="" songCopyrightUrl="" songArtistUrl="" songAudioFileUrl="" stabilizationMode="0" mediaItemType="2" />
    <MediaItem id="2966" filePath="C:\Users\owner\Dropbox\Work\png\animation T=1.02966.png" arWidth="640" arHeight="480" duration="0" songTitle="" songArtist="" songAlbum="" songCopyrightUrl="" songArtistUrl="" songAudioFileUrl="" stabilizationMode="0" mediaItemType="2" />
    <MediaItem id="2967" filePath="C:\Users\owner\Dropbox\Work\png\animation T=1.02967.png" arWidth="640" arHeight="480" duration="0" songTitle="" songArtist="" songAlbum="" songCopyrightUrl="" songArtistUrl="" songAudioFileUrl="" stabilizationMode="0" mediaItemType="2" />
    <MediaItem id="2968" filePath="C:\Users\owner\Dropbox\Work\png\animation T=1.02968.png" arWidth="640" arHeight="480" duration="0" songTitle="" songArtist="" songAlbum="" songCopyrightUrl="" songArtistUrl="" songAudioFileUrl="" stabilizationMode="0" mediaItemType="2" />
    <MediaItem id="2969" filePath="C:\Users\owner\Dropbox\Work\png\animation T=1.02969.png" arWidth="640" arHeight="480" duration="0" songTitle="" songArtist="" songAlbum="" songCopyrightUrl="" songArtistUrl="" songAudioFileUrl="" stabilizationMode="0" mediaItemType="2" />
    <MediaItem id="2970" filePath="C:\Users\owner\Dropbox\Work\png\animation T=1.02970.png" arWidth="640" arHeight="480" duration="0" songTitle="" songArtist="" songAlbum="" songCopyrightUrl="" songArtistUrl="" songAudioFileUrl="" stabilizationMode="0" mediaItemType="2" />
    <MediaItem id="2971" filePath="C:\Users\owner\Dropbox\Work\png\animation T=1.02971.png" arWidth="640" arHeight="480" duration="0" songTitle="" songArtist="" songAlbum="" songCopyrightUrl="" songArtistUrl="" songAudioFileUrl="" stabilizationMode="0" mediaItemType="2" />
    <MediaItem id="2972" filePath="C:\Users\owner\Dropbox\Work\png\animation T=1.02972.png" arWidth="640" arHeight="480" duration="0" songTitle="" songArtist="" songAlbum="" songCopyrightUrl="" songArtistUrl="" songAudioFileUrl="" stabilizationMode="0" mediaItemType="2" />
    <MediaItem id="2973" filePath="C:\Users\owner\Dropbox\Work\png\animation T=1.02973.png" arWidth="640" arHeight="480" duration="0" songTitle="" songArtist="" songAlbum="" songCopyrightUrl="" songArtistUrl="" songAudioFileUrl="" stabilizationMode="0" mediaItemType="2" />
    <MediaItem id="2974" filePath="C:\Users\owner\Dropbox\Work\png\animation T=1.02974.png" arWidth="640" arHeight="480" duration="0" songTitle="" songArtist="" songAlbum="" songCopyrightUrl="" songArtistUrl="" songAudioFileUrl="" stabilizationMode="0" mediaItemType="2" />
    <MediaItem id="2975" filePath="C:\Users\owner\Dropbox\Work\png\animation T=1.02975.png" arWidth="640" arHeight="480" duration="0" songTitle="" songArtist="" songAlbum="" songCopyrightUrl="" songArtistUrl="" songAudioFileUrl="" stabilizationMode="0" mediaItemType="2" />
    <MediaItem id="2976" filePath="C:\Users\owner\Dropbox\Work\png\animation T=1.02976.png" arWidth="640" arHeight="480" duration="0" songTitle="" songArtist="" songAlbum="" songCopyrightUrl="" songArtistUrl="" songAudioFileUrl="" stabilizationMode="0" mediaItemType="2" />
    <MediaItem id="2977" filePath="C:\Users\owner\Dropbox\Work\png\animation T=1.02977.png" arWidth="640" arHeight="480" duration="0" songTitle="" songArtist="" songAlbum="" songCopyrightUrl="" songArtistUrl="" songAudioFileUrl="" stabilizationMode="0" mediaItemType="2" />
    <MediaItem id="2978" filePath="C:\Users\owner\Dropbox\Work\png\animation T=1.02978.png" arWidth="640" arHeight="480" duration="0" songTitle="" songArtist="" songAlbum="" songCopyrightUrl="" songArtistUrl="" songAudioFileUrl="" stabilizationMode="0" mediaItemType="2" />
    <MediaItem id="2979" filePath="C:\Users\owner\Dropbox\Work\png\animation T=1.02979.png" arWidth="640" arHeight="480" duration="0" songTitle="" songArtist="" songAlbum="" songCopyrightUrl="" songArtistUrl="" songAudioFileUrl="" stabilizationMode="0" mediaItemType="2" />
    <MediaItem id="2980" filePath="C:\Users\owner\Dropbox\Work\png\animation T=1.02980.png" arWidth="640" arHeight="480" duration="0" songTitle="" songArtist="" songAlbum="" songCopyrightUrl="" songArtistUrl="" songAudioFileUrl="" stabilizationMode="0" mediaItemType="2" />
    <MediaItem id="2981" filePath="C:\Users\owner\Dropbox\Work\png\animation T=1.02981.png" arWidth="640" arHeight="480" duration="0" songTitle="" songArtist="" songAlbum="" songCopyrightUrl="" songArtistUrl="" songAudioFileUrl="" stabilizationMode="0" mediaItemType="2" />
    <MediaItem id="2982" filePath="C:\Users\owner\Dropbox\Work\png\animation T=1.02982.png" arWidth="640" arHeight="480" duration="0" songTitle="" songArtist="" songAlbum="" songCopyrightUrl="" songArtistUrl="" songAudioFileUrl="" stabilizationMode="0" mediaItemType="2" />
    <MediaItem id="2983" filePath="C:\Users\owner\Dropbox\Work\png\animation T=1.02983.png" arWidth="640" arHeight="480" duration="0" songTitle="" songArtist="" songAlbum="" songCopyrightUrl="" songArtistUrl="" songAudioFileUrl="" stabilizationMode="0" mediaItemType="2" />
    <MediaItem id="2984" filePath="C:\Users\owner\Dropbox\Work\png\animation T=1.02984.png" arWidth="640" arHeight="480" duration="0" songTitle="" songArtist="" songAlbum="" songCopyrightUrl="" songArtistUrl="" songAudioFileUrl="" stabilizationMode="0" mediaItemType="2" />
    <MediaItem id="2985" filePath="C:\Users\owner\Dropbox\Work\png\animation T=1.02985.png" arWidth="640" arHeight="480" duration="0" songTitle="" songArtist="" songAlbum="" songCopyrightUrl="" songArtistUrl="" songAudioFileUrl="" stabilizationMode="0" mediaItemType="2" />
    <MediaItem id="2986" filePath="C:\Users\owner\Dropbox\Work\png\animation T=1.02986.png" arWidth="640" arHeight="480" duration="0" songTitle="" songArtist="" songAlbum="" songCopyrightUrl="" songArtistUrl="" songAudioFileUrl="" stabilizationMode="0" mediaItemType="2" />
    <MediaItem id="2987" filePath="C:\Users\owner\Dropbox\Work\png\animation T=1.02987.png" arWidth="640" arHeight="480" duration="0" songTitle="" songArtist="" songAlbum="" songCopyrightUrl="" songArtistUrl="" songAudioFileUrl="" stabilizationMode="0" mediaItemType="2" />
    <MediaItem id="2988" filePath="C:\Users\owner\Dropbox\Work\png\animation T=1.02988.png" arWidth="640" arHeight="480" duration="0" songTitle="" songArtist="" songAlbum="" songCopyrightUrl="" songArtistUrl="" songAudioFileUrl="" stabilizationMode="0" mediaItemType="2" />
    <MediaItem id="2989" filePath="C:\Users\owner\Dropbox\Work\png\animation T=1.02989.png" arWidth="640" arHeight="480" duration="0" songTitle="" songArtist="" songAlbum="" songCopyrightUrl="" songArtistUrl="" songAudioFileUrl="" stabilizationMode="0" mediaItemType="2" />
    <MediaItem id="2990" filePath="C:\Users\owner\Dropbox\Work\png\animation T=1.02990.png" arWidth="640" arHeight="480" duration="0" songTitle="" songArtist="" songAlbum="" songCopyrightUrl="" songArtistUrl="" songAudioFileUrl="" stabilizationMode="0" mediaItemType="2" />
    <MediaItem id="2991" filePath="C:\Users\owner\Dropbox\Work\png\animation T=1.02991.png" arWidth="640" arHeight="480" duration="0" songTitle="" songArtist="" songAlbum="" songCopyrightUrl="" songArtistUrl="" songAudioFileUrl="" stabilizationMode="0" mediaItemType="2" />
    <MediaItem id="2992" filePath="C:\Users\owner\Dropbox\Work\png\animation T=1.02992.png" arWidth="640" arHeight="480" duration="0" songTitle="" songArtist="" songAlbum="" songCopyrightUrl="" songArtistUrl="" songAudioFileUrl="" stabilizationMode="0" mediaItemType="2" />
    <MediaItem id="2993" filePath="C:\Users\owner\Dropbox\Work\png\animation T=1.02993.png" arWidth="640" arHeight="480" duration="0" songTitle="" songArtist="" songAlbum="" songCopyrightUrl="" songArtistUrl="" songAudioFileUrl="" stabilizationMode="0" mediaItemType="2" />
    <MediaItem id="2994" filePath="C:\Users\owner\Dropbox\Work\png\animation T=1.02994.png" arWidth="640" arHeight="480" duration="0" songTitle="" songArtist="" songAlbum="" songCopyrightUrl="" songArtistUrl="" songAudioFileUrl="" stabilizationMode="0" mediaItemType="2" />
    <MediaItem id="2995" filePath="C:\Users\owner\Dropbox\Work\png\animation T=1.02995.png" arWidth="640" arHeight="480" duration="0" songTitle="" songArtist="" songAlbum="" songCopyrightUrl="" songArtistUrl="" songAudioFileUrl="" stabilizationMode="0" mediaItemType="2" />
    <MediaItem id="2996" filePath="C:\Users\owner\Dropbox\Work\png\animation T=1.02996.png" arWidth="640" arHeight="480" duration="0" songTitle="" songArtist="" songAlbum="" songCopyrightUrl="" songArtistUrl="" songAudioFileUrl="" stabilizationMode="0" mediaItemType="2" />
    <MediaItem id="2997" filePath="C:\Users\owner\Dropbox\Work\png\animation T=1.02997.png" arWidth="640" arHeight="480" duration="0" songTitle="" songArtist="" songAlbum="" songCopyrightUrl="" songArtistUrl="" songAudioFileUrl="" stabilizationMode="0" mediaItemType="2" />
    <MediaItem id="2998" filePath="C:\Users\owner\Dropbox\Work\png\animation T=1.02998.png" arWidth="640" arHeight="480" duration="0" songTitle="" songArtist="" songAlbum="" songCopyrightUrl="" songArtistUrl="" songAudioFileUrl="" stabilizationMode="0" mediaItemType="2" />
    <MediaItem id="2999" filePath="C:\Users\owner\Dropbox\Work\png\animation T=1.02999.png" arWidth="640" arHeight="480" duration="0" songTitle="" songArtist="" songAlbum="" songCopyrightUrl="" songArtistUrl="" songAudioFileUrl="" stabilizationMode="0" mediaItemType="2" />
    <MediaItem id="3000" filePath="C:\Users\owner\Dropbox\Work\png\animation T=1.03000.png" arWidth="640" arHeight="480" duration="0" songTitle="" songArtist="" songAlbum="" songCopyrightUrl="" songArtistUrl="" songAudioFileUrl="" stabilizationMode="0" mediaItemType="2" />
    <MediaItem id="3001" filePath="C:\Users\owner\Dropbox\Work\png\animation T=1.03001.png" arWidth="640" arHeight="480" duration="0" songTitle="" songArtist="" songAlbum="" songCopyrightUrl="" songArtistUrl="" songAudioFileUrl="" stabilizationMode="0" mediaItemType="2" />
    <MediaItem id="3002" filePath="C:\Users\owner\Dropbox\Work\png\animation T=1.03002.png" arWidth="640" arHeight="480" duration="0" songTitle="" songArtist="" songAlbum="" songCopyrightUrl="" songArtistUrl="" songAudioFileUrl="" stabilizationMode="0" mediaItemType="2" />
    <MediaItem id="3003" filePath="C:\Users\owner\Dropbox\Work\png\animation T=1.03003.png" arWidth="640" arHeight="480" duration="0" songTitle="" songArtist="" songAlbum="" songCopyrightUrl="" songArtistUrl="" songAudioFileUrl="" stabilizationMode="0" mediaItemType="2" />
    <MediaItem id="3004" filePath="C:\Users\owner\Dropbox\Work\png\animation T=1.03004.png" arWidth="640" arHeight="480" duration="0" songTitle="" songArtist="" songAlbum="" songCopyrightUrl="" songArtistUrl="" songAudioFileUrl="" stabilizationMode="0" mediaItemType="2" />
    <MediaItem id="3005" filePath="C:\Users\owner\Dropbox\Work\png\animation T=1.03005.png" arWidth="640" arHeight="480" duration="0" songTitle="" songArtist="" songAlbum="" songCopyrightUrl="" songArtistUrl="" songAudioFileUrl="" stabilizationMode="0" mediaItemType="2" />
    <MediaItem id="3006" filePath="C:\Users\owner\Dropbox\Work\png\animation T=1.03006.png" arWidth="640" arHeight="480" duration="0" songTitle="" songArtist="" songAlbum="" songCopyrightUrl="" songArtistUrl="" songAudioFileUrl="" stabilizationMode="0" mediaItemType="2" />
    <MediaItem id="3007" filePath="C:\Users\owner\Dropbox\Work\png\animation T=1.03007.png" arWidth="640" arHeight="480" duration="0" songTitle="" songArtist="" songAlbum="" songCopyrightUrl="" songArtistUrl="" songAudioFileUrl="" stabilizationMode="0" mediaItemType="2" />
    <MediaItem id="3008" filePath="C:\Users\owner\Dropbox\Work\png\animation T=1.03008.png" arWidth="640" arHeight="480" duration="0" songTitle="" songArtist="" songAlbum="" songCopyrightUrl="" songArtistUrl="" songAudioFileUrl="" stabilizationMode="0" mediaItemType="2" />
    <MediaItem id="3009" filePath="C:\Users\owner\Dropbox\Work\png\animation T=1.03009.png" arWidth="640" arHeight="480" duration="0" songTitle="" songArtist="" songAlbum="" songCopyrightUrl="" songArtistUrl="" songAudioFileUrl="" stabilizationMode="0" mediaItemType="2" />
    <MediaItem id="3010" filePath="C:\Users\owner\Dropbox\Work\png\animation T=1.03010.png" arWidth="640" arHeight="480" duration="0" songTitle="" songArtist="" songAlbum="" songCopyrightUrl="" songArtistUrl="" songAudioFileUrl="" stabilizationMode="0" mediaItemType="2" />
    <MediaItem id="3011" filePath="C:\Users\owner\Dropbox\Work\png\animation T=1.03011.png" arWidth="640" arHeight="480" duration="0" songTitle="" songArtist="" songAlbum="" songCopyrightUrl="" songArtistUrl="" songAudioFileUrl="" stabilizationMode="0" mediaItemType="2" />
    <MediaItem id="3012" filePath="C:\Users\owner\Dropbox\Work\png\animation T=1.03012.png" arWidth="640" arHeight="480" duration="0" songTitle="" songArtist="" songAlbum="" songCopyrightUrl="" songArtistUrl="" songAudioFileUrl="" stabilizationMode="0" mediaItemType="2" />
    <MediaItem id="3013" filePath="C:\Users\owner\Dropbox\Work\png\animation T=1.03013.png" arWidth="640" arHeight="480" duration="0" songTitle="" songArtist="" songAlbum="" songCopyrightUrl="" songArtistUrl="" songAudioFileUrl="" stabilizationMode="0" mediaItemType="2" />
    <MediaItem id="3014" filePath="C:\Users\owner\Dropbox\Work\png\animation T=1.03014.png" arWidth="640" arHeight="480" duration="0" songTitle="" songArtist="" songAlbum="" songCopyrightUrl="" songArtistUrl="" songAudioFileUrl="" stabilizationMode="0" mediaItemType="2" />
    <MediaItem id="3015" filePath="C:\Users\owner\Dropbox\Work\png\animation T=1.03015.png" arWidth="640" arHeight="480" duration="0" songTitle="" songArtist="" songAlbum="" songCopyrightUrl="" songArtistUrl="" songAudioFileUrl="" stabilizationMode="0" mediaItemType="2" />
    <MediaItem id="3016" filePath="C:\Users\owner\Dropbox\Work\png\animation T=1.03016.png" arWidth="640" arHeight="480" duration="0" songTitle="" songArtist="" songAlbum="" songCopyrightUrl="" songArtistUrl="" songAudioFileUrl="" stabilizationMode="0" mediaItemType="2" />
    <MediaItem id="3017" filePath="C:\Users\owner\Dropbox\Work\png\animation T=1.03017.png" arWidth="640" arHeight="480" duration="0" songTitle="" songArtist="" songAlbum="" songCopyrightUrl="" songArtistUrl="" songAudioFileUrl="" stabilizationMode="0" mediaItemType="2" />
    <MediaItem id="3018" filePath="C:\Users\owner\Dropbox\Work\png\animation T=1.03018.png" arWidth="640" arHeight="480" duration="0" songTitle="" songArtist="" songAlbum="" songCopyrightUrl="" songArtistUrl="" songAudioFileUrl="" stabilizationMode="0" mediaItemType="2" />
    <MediaItem id="3019" filePath="C:\Users\owner\Dropbox\Work\png\animation T=1.03019.png" arWidth="640" arHeight="480" duration="0" songTitle="" songArtist="" songAlbum="" songCopyrightUrl="" songArtistUrl="" songAudioFileUrl="" stabilizationMode="0" mediaItemType="2" />
    <MediaItem id="3020" filePath="C:\Users\owner\Dropbox\Work\png\animation T=1.03020.png" arWidth="640" arHeight="480" duration="0" songTitle="" songArtist="" songAlbum="" songCopyrightUrl="" songArtistUrl="" songAudioFileUrl="" stabilizationMode="0" mediaItemType="2" />
    <MediaItem id="3021" filePath="C:\Users\owner\Dropbox\Work\png\animation T=1.03021.png" arWidth="640" arHeight="480" duration="0" songTitle="" songArtist="" songAlbum="" songCopyrightUrl="" songArtistUrl="" songAudioFileUrl="" stabilizationMode="0" mediaItemType="2" />
    <MediaItem id="3022" filePath="C:\Users\owner\Dropbox\Work\png\animation T=1.03022.png" arWidth="640" arHeight="480" duration="0" songTitle="" songArtist="" songAlbum="" songCopyrightUrl="" songArtistUrl="" songAudioFileUrl="" stabilizationMode="0" mediaItemType="2" />
    <MediaItem id="3023" filePath="C:\Users\owner\Dropbox\Work\png\animation T=1.03023.png" arWidth="640" arHeight="480" duration="0" songTitle="" songArtist="" songAlbum="" songCopyrightUrl="" songArtistUrl="" songAudioFileUrl="" stabilizationMode="0" mediaItemType="2" />
    <MediaItem id="3024" filePath="C:\Users\owner\Dropbox\Work\png\animation T=1.03024.png" arWidth="640" arHeight="480" duration="0" songTitle="" songArtist="" songAlbum="" songCopyrightUrl="" songArtistUrl="" songAudioFileUrl="" stabilizationMode="0" mediaItemType="2" />
    <MediaItem id="3025" filePath="C:\Users\owner\Dropbox\Work\png\animation T=1.03025.png" arWidth="640" arHeight="480" duration="0" songTitle="" songArtist="" songAlbum="" songCopyrightUrl="" songArtistUrl="" songAudioFileUrl="" stabilizationMode="0" mediaItemType="2" />
    <MediaItem id="3026" filePath="C:\Users\owner\Dropbox\Work\png\animation T=1.03026.png" arWidth="640" arHeight="480" duration="0" songTitle="" songArtist="" songAlbum="" songCopyrightUrl="" songArtistUrl="" songAudioFileUrl="" stabilizationMode="0" mediaItemType="2" />
    <MediaItem id="3027" filePath="C:\Users\owner\Dropbox\Work\png\animation T=1.03027.png" arWidth="640" arHeight="480" duration="0" songTitle="" songArtist="" songAlbum="" songCopyrightUrl="" songArtistUrl="" songAudioFileUrl="" stabilizationMode="0" mediaItemType="2" />
    <MediaItem id="3028" filePath="C:\Users\owner\Dropbox\Work\png\animation T=1.03028.png" arWidth="640" arHeight="480" duration="0" songTitle="" songArtist="" songAlbum="" songCopyrightUrl="" songArtistUrl="" songAudioFileUrl="" stabilizationMode="0" mediaItemType="2" />
    <MediaItem id="3029" filePath="C:\Users\owner\Dropbox\Work\png\animation T=1.03029.png" arWidth="640" arHeight="480" duration="0" songTitle="" songArtist="" songAlbum="" songCopyrightUrl="" songArtistUrl="" songAudioFileUrl="" stabilizationMode="0" mediaItemType="2" />
    <MediaItem id="3030" filePath="C:\Users\owner\Dropbox\Work\png\animation T=1.03030.png" arWidth="640" arHeight="480" duration="0" songTitle="" songArtist="" songAlbum="" songCopyrightUrl="" songArtistUrl="" songAudioFileUrl="" stabilizationMode="0" mediaItemType="2" />
    <MediaItem id="3031" filePath="C:\Users\owner\Dropbox\Work\png\animation T=1.03031.png" arWidth="640" arHeight="480" duration="0" songTitle="" songArtist="" songAlbum="" songCopyrightUrl="" songArtistUrl="" songAudioFileUrl="" stabilizationMode="0" mediaItemType="2" />
    <MediaItem id="3032" filePath="C:\Users\owner\Dropbox\Work\png\animation T=1.03032.png" arWidth="640" arHeight="480" duration="0" songTitle="" songArtist="" songAlbum="" songCopyrightUrl="" songArtistUrl="" songAudioFileUrl="" stabilizationMode="0" mediaItemType="2" />
    <MediaItem id="3033" filePath="C:\Users\owner\Dropbox\Work\png\animation T=1.03033.png" arWidth="640" arHeight="480" duration="0" songTitle="" songArtist="" songAlbum="" songCopyrightUrl="" songArtistUrl="" songAudioFileUrl="" stabilizationMode="0" mediaItemType="2" />
    <MediaItem id="3034" filePath="C:\Users\owner\Dropbox\Work\png\animation T=1.03034.png" arWidth="640" arHeight="480" duration="0" songTitle="" songArtist="" songAlbum="" songCopyrightUrl="" songArtistUrl="" songAudioFileUrl="" stabilizationMode="0" mediaItemType="2" />
    <MediaItem id="3035" filePath="C:\Users\owner\Dropbox\Work\png\animation T=1.03035.png" arWidth="640" arHeight="480" duration="0" songTitle="" songArtist="" songAlbum="" songCopyrightUrl="" songArtistUrl="" songAudioFileUrl="" stabilizationMode="0" mediaItemType="2" />
    <MediaItem id="3036" filePath="C:\Users\owner\Dropbox\Work\png\animation T=1.03036.png" arWidth="640" arHeight="480" duration="0" songTitle="" songArtist="" songAlbum="" songCopyrightUrl="" songArtistUrl="" songAudioFileUrl="" stabilizationMode="0" mediaItemType="2" />
    <MediaItem id="3037" filePath="C:\Users\owner\Dropbox\Work\png\animation T=1.03037.png" arWidth="640" arHeight="480" duration="0" songTitle="" songArtist="" songAlbum="" songCopyrightUrl="" songArtistUrl="" songAudioFileUrl="" stabilizationMode="0" mediaItemType="2" />
    <MediaItem id="3038" filePath="C:\Users\owner\Dropbox\Work\png\animation T=1.03038.png" arWidth="640" arHeight="480" duration="0" songTitle="" songArtist="" songAlbum="" songCopyrightUrl="" songArtistUrl="" songAudioFileUrl="" stabilizationMode="0" mediaItemType="2" />
    <MediaItem id="3039" filePath="C:\Users\owner\Dropbox\Work\png\animation T=1.03039.png" arWidth="640" arHeight="480" duration="0" songTitle="" songArtist="" songAlbum="" songCopyrightUrl="" songArtistUrl="" songAudioFileUrl="" stabilizationMode="0" mediaItemType="2" />
    <MediaItem id="3040" filePath="C:\Users\owner\Dropbox\Work\png\animation T=1.03040.png" arWidth="640" arHeight="480" duration="0" songTitle="" songArtist="" songAlbum="" songCopyrightUrl="" songArtistUrl="" songAudioFileUrl="" stabilizationMode="0" mediaItemType="2" />
    <MediaItem id="3041" filePath="C:\Users\owner\Dropbox\Work\png\animation T=1.03041.png" arWidth="640" arHeight="480" duration="0" songTitle="" songArtist="" songAlbum="" songCopyrightUrl="" songArtistUrl="" songAudioFileUrl="" stabilizationMode="0" mediaItemType="2" />
    <MediaItem id="3042" filePath="C:\Users\owner\Dropbox\Work\png\animation T=1.03042.png" arWidth="640" arHeight="480" duration="0" songTitle="" songArtist="" songAlbum="" songCopyrightUrl="" songArtistUrl="" songAudioFileUrl="" stabilizationMode="0" mediaItemType="2" />
    <MediaItem id="3043" filePath="C:\Users\owner\Dropbox\Work\png\animation T=1.03043.png" arWidth="640" arHeight="480" duration="0" songTitle="" songArtist="" songAlbum="" songCopyrightUrl="" songArtistUrl="" songAudioFileUrl="" stabilizationMode="0" mediaItemType="2" />
    <MediaItem id="3044" filePath="C:\Users\owner\Dropbox\Work\png\animation T=1.03044.png" arWidth="640" arHeight="480" duration="0" songTitle="" songArtist="" songAlbum="" songCopyrightUrl="" songArtistUrl="" songAudioFileUrl="" stabilizationMode="0" mediaItemType="2" />
    <MediaItem id="3045" filePath="C:\Users\owner\Dropbox\Work\png\animation T=1.03045.png" arWidth="640" arHeight="480" duration="0" songTitle="" songArtist="" songAlbum="" songCopyrightUrl="" songArtistUrl="" songAudioFileUrl="" stabilizationMode="0" mediaItemType="2" />
    <MediaItem id="3046" filePath="C:\Users\owner\Dropbox\Work\png\animation T=1.03046.png" arWidth="640" arHeight="480" duration="0" songTitle="" songArtist="" songAlbum="" songCopyrightUrl="" songArtistUrl="" songAudioFileUrl="" stabilizationMode="0" mediaItemType="2" />
    <MediaItem id="3047" filePath="C:\Users\owner\Dropbox\Work\png\animation T=1.03047.png" arWidth="640" arHeight="480" duration="0" songTitle="" songArtist="" songAlbum="" songCopyrightUrl="" songArtistUrl="" songAudioFileUrl="" stabilizationMode="0" mediaItemType="2" />
    <MediaItem id="3048" filePath="C:\Users\owner\Dropbox\Work\png\animation T=1.03048.png" arWidth="640" arHeight="480" duration="0" songTitle="" songArtist="" songAlbum="" songCopyrightUrl="" songArtistUrl="" songAudioFileUrl="" stabilizationMode="0" mediaItemType="2" />
    <MediaItem id="3049" filePath="C:\Users\owner\Dropbox\Work\png\animation T=1.03049.png" arWidth="640" arHeight="480" duration="0" songTitle="" songArtist="" songAlbum="" songCopyrightUrl="" songArtistUrl="" songAudioFileUrl="" stabilizationMode="0" mediaItemType="2" />
    <MediaItem id="3050" filePath="C:\Users\owner\Dropbox\Work\png\animation T=1.03050.png" arWidth="640" arHeight="480" duration="0" songTitle="" songArtist="" songAlbum="" songCopyrightUrl="" songArtistUrl="" songAudioFileUrl="" stabilizationMode="0" mediaItemType="2" />
    <MediaItem id="3051" filePath="C:\Users\owner\Dropbox\Work\png\animation T=1.03051.png" arWidth="640" arHeight="480" duration="0" songTitle="" songArtist="" songAlbum="" songCopyrightUrl="" songArtistUrl="" songAudioFileUrl="" stabilizationMode="0" mediaItemType="2" />
    <MediaItem id="3052" filePath="C:\Users\owner\Dropbox\Work\png\animation T=1.03052.png" arWidth="640" arHeight="480" duration="0" songTitle="" songArtist="" songAlbum="" songCopyrightUrl="" songArtistUrl="" songAudioFileUrl="" stabilizationMode="0" mediaItemType="2" />
    <MediaItem id="3053" filePath="C:\Users\owner\Dropbox\Work\png\animation T=1.03053.png" arWidth="640" arHeight="480" duration="0" songTitle="" songArtist="" songAlbum="" songCopyrightUrl="" songArtistUrl="" songAudioFileUrl="" stabilizationMode="0" mediaItemType="2" />
    <MediaItem id="3054" filePath="C:\Users\owner\Dropbox\Work\png\animation T=1.03054.png" arWidth="640" arHeight="480" duration="0" songTitle="" songArtist="" songAlbum="" songCopyrightUrl="" songArtistUrl="" songAudioFileUrl="" stabilizationMode="0" mediaItemType="2" />
    <MediaItem id="3055" filePath="C:\Users\owner\Dropbox\Work\png\animation T=1.03055.png" arWidth="640" arHeight="480" duration="0" songTitle="" songArtist="" songAlbum="" songCopyrightUrl="" songArtistUrl="" songAudioFileUrl="" stabilizationMode="0" mediaItemType="2" />
    <MediaItem id="3056" filePath="C:\Users\owner\Dropbox\Work\png\animation T=1.03056.png" arWidth="640" arHeight="480" duration="0" songTitle="" songArtist="" songAlbum="" songCopyrightUrl="" songArtistUrl="" songAudioFileUrl="" stabilizationMode="0" mediaItemType="2" />
    <MediaItem id="3057" filePath="C:\Users\owner\Dropbox\Work\png\animation T=1.03057.png" arWidth="640" arHeight="480" duration="0" songTitle="" songArtist="" songAlbum="" songCopyrightUrl="" songArtistUrl="" songAudioFileUrl="" stabilizationMode="0" mediaItemType="2" />
    <MediaItem id="3058" filePath="C:\Users\owner\Dropbox\Work\png\animation T=1.03058.png" arWidth="640" arHeight="480" duration="0" songTitle="" songArtist="" songAlbum="" songCopyrightUrl="" songArtistUrl="" songAudioFileUrl="" stabilizationMode="0" mediaItemType="2" />
    <MediaItem id="3059" filePath="C:\Users\owner\Dropbox\Work\png\animation T=1.03059.png" arWidth="640" arHeight="480" duration="0" songTitle="" songArtist="" songAlbum="" songCopyrightUrl="" songArtistUrl="" songAudioFileUrl="" stabilizationMode="0" mediaItemType="2" />
    <MediaItem id="3060" filePath="C:\Users\owner\Dropbox\Work\png\animation T=1.03060.png" arWidth="640" arHeight="480" duration="0" songTitle="" songArtist="" songAlbum="" songCopyrightUrl="" songArtistUrl="" songAudioFileUrl="" stabilizationMode="0" mediaItemType="2" />
    <MediaItem id="3061" filePath="C:\Users\owner\Dropbox\Work\png\animation T=1.03061.png" arWidth="640" arHeight="480" duration="0" songTitle="" songArtist="" songAlbum="" songCopyrightUrl="" songArtistUrl="" songAudioFileUrl="" stabilizationMode="0" mediaItemType="2" />
    <MediaItem id="3062" filePath="C:\Users\owner\Dropbox\Work\png\animation T=1.03062.png" arWidth="640" arHeight="480" duration="0" songTitle="" songArtist="" songAlbum="" songCopyrightUrl="" songArtistUrl="" songAudioFileUrl="" stabilizationMode="0" mediaItemType="2" />
    <MediaItem id="3063" filePath="C:\Users\owner\Dropbox\Work\png\animation T=1.03063.png" arWidth="640" arHeight="480" duration="0" songTitle="" songArtist="" songAlbum="" songCopyrightUrl="" songArtistUrl="" songAudioFileUrl="" stabilizationMode="0" mediaItemType="2" />
    <MediaItem id="3064" filePath="C:\Users\owner\Dropbox\Work\png\animation T=1.03064.png" arWidth="640" arHeight="480" duration="0" songTitle="" songArtist="" songAlbum="" songCopyrightUrl="" songArtistUrl="" songAudioFileUrl="" stabilizationMode="0" mediaItemType="2" />
    <MediaItem id="3065" filePath="C:\Users\owner\Dropbox\Work\png\animation T=1.03065.png" arWidth="640" arHeight="480" duration="0" songTitle="" songArtist="" songAlbum="" songCopyrightUrl="" songArtistUrl="" songAudioFileUrl="" stabilizationMode="0" mediaItemType="2" />
    <MediaItem id="3066" filePath="C:\Users\owner\Dropbox\Work\png\animation T=1.03066.png" arWidth="640" arHeight="480" duration="0" songTitle="" songArtist="" songAlbum="" songCopyrightUrl="" songArtistUrl="" songAudioFileUrl="" stabilizationMode="0" mediaItemType="2" />
    <MediaItem id="3067" filePath="C:\Users\owner\Dropbox\Work\png\animation T=1.03067.png" arWidth="640" arHeight="480" duration="0" songTitle="" songArtist="" songAlbum="" songCopyrightUrl="" songArtistUrl="" songAudioFileUrl="" stabilizationMode="0" mediaItemType="2" />
    <MediaItem id="3068" filePath="C:\Users\owner\Dropbox\Work\png\animation T=1.03068.png" arWidth="640" arHeight="480" duration="0" songTitle="" songArtist="" songAlbum="" songCopyrightUrl="" songArtistUrl="" songAudioFileUrl="" stabilizationMode="0" mediaItemType="2" />
    <MediaItem id="3069" filePath="C:\Users\owner\Dropbox\Work\png\animation T=1.03069.png" arWidth="640" arHeight="480" duration="0" songTitle="" songArtist="" songAlbum="" songCopyrightUrl="" songArtistUrl="" songAudioFileUrl="" stabilizationMode="0" mediaItemType="2" />
    <MediaItem id="3070" filePath="C:\Users\owner\Dropbox\Work\png\animation T=1.03070.png" arWidth="640" arHeight="480" duration="0" songTitle="" songArtist="" songAlbum="" songCopyrightUrl="" songArtistUrl="" songAudioFileUrl="" stabilizationMode="0" mediaItemType="2" />
    <MediaItem id="3071" filePath="C:\Users\owner\Dropbox\Work\png\animation T=1.03071.png" arWidth="640" arHeight="480" duration="0" songTitle="" songArtist="" songAlbum="" songCopyrightUrl="" songArtistUrl="" songAudioFileUrl="" stabilizationMode="0" mediaItemType="2" />
    <MediaItem id="3072" filePath="C:\Users\owner\Dropbox\Work\png\animation T=1.03072.png" arWidth="640" arHeight="480" duration="0" songTitle="" songArtist="" songAlbum="" songCopyrightUrl="" songArtistUrl="" songAudioFileUrl="" stabilizationMode="0" mediaItemType="2" />
    <MediaItem id="3073" filePath="C:\Users\owner\Dropbox\Work\png\animation T=1.03073.png" arWidth="640" arHeight="480" duration="0" songTitle="" songArtist="" songAlbum="" songCopyrightUrl="" songArtistUrl="" songAudioFileUrl="" stabilizationMode="0" mediaItemType="2" />
    <MediaItem id="3074" filePath="C:\Users\owner\Dropbox\Work\png\animation T=1.03074.png" arWidth="640" arHeight="480" duration="0" songTitle="" songArtist="" songAlbum="" songCopyrightUrl="" songArtistUrl="" songAudioFileUrl="" stabilizationMode="0" mediaItemType="2" />
    <MediaItem id="3075" filePath="C:\Users\owner\Dropbox\Work\png\animation T=1.03075.png" arWidth="640" arHeight="480" duration="0" songTitle="" songArtist="" songAlbum="" songCopyrightUrl="" songArtistUrl="" songAudioFileUrl="" stabilizationMode="0" mediaItemType="2" />
    <MediaItem id="3076" filePath="C:\Users\owner\Dropbox\Work\png\animation T=1.03076.png" arWidth="640" arHeight="480" duration="0" songTitle="" songArtist="" songAlbum="" songCopyrightUrl="" songArtistUrl="" songAudioFileUrl="" stabilizationMode="0" mediaItemType="2" />
    <MediaItem id="3077" filePath="C:\Users\owner\Dropbox\Work\png\animation T=1.03077.png" arWidth="640" arHeight="480" duration="0" songTitle="" songArtist="" songAlbum="" songCopyrightUrl="" songArtistUrl="" songAudioFileUrl="" stabilizationMode="0" mediaItemType="2" />
    <MediaItem id="3078" filePath="C:\Users\owner\Dropbox\Work\png\animation T=1.03078.png" arWidth="640" arHeight="480" duration="0" songTitle="" songArtist="" songAlbum="" songCopyrightUrl="" songArtistUrl="" songAudioFileUrl="" stabilizationMode="0" mediaItemType="2" />
    <MediaItem id="3079" filePath="C:\Users\owner\Dropbox\Work\png\animation T=1.03079.png" arWidth="640" arHeight="480" duration="0" songTitle="" songArtist="" songAlbum="" songCopyrightUrl="" songArtistUrl="" songAudioFileUrl="" stabilizationMode="0" mediaItemType="2" />
    <MediaItem id="3080" filePath="C:\Users\owner\Dropbox\Work\png\animation T=1.03080.png" arWidth="640" arHeight="480" duration="0" songTitle="" songArtist="" songAlbum="" songCopyrightUrl="" songArtistUrl="" songAudioFileUrl="" stabilizationMode="0" mediaItemType="2" />
    <MediaItem id="3081" filePath="C:\Users\owner\Dropbox\Work\png\animation T=1.03081.png" arWidth="640" arHeight="480" duration="0" songTitle="" songArtist="" songAlbum="" songCopyrightUrl="" songArtistUrl="" songAudioFileUrl="" stabilizationMode="0" mediaItemType="2" />
    <MediaItem id="3082" filePath="C:\Users\owner\Dropbox\Work\png\animation T=1.03082.png" arWidth="640" arHeight="480" duration="0" songTitle="" songArtist="" songAlbum="" songCopyrightUrl="" songArtistUrl="" songAudioFileUrl="" stabilizationMode="0" mediaItemType="2" />
    <MediaItem id="3083" filePath="C:\Users\owner\Dropbox\Work\png\animation T=1.03083.png" arWidth="640" arHeight="480" duration="0" songTitle="" songArtist="" songAlbum="" songCopyrightUrl="" songArtistUrl="" songAudioFileUrl="" stabilizationMode="0" mediaItemType="2" />
    <MediaItem id="3084" filePath="C:\Users\owner\Dropbox\Work\png\animation T=1.03084.png" arWidth="640" arHeight="480" duration="0" songTitle="" songArtist="" songAlbum="" songCopyrightUrl="" songArtistUrl="" songAudioFileUrl="" stabilizationMode="0" mediaItemType="2" />
    <MediaItem id="3085" filePath="C:\Users\owner\Dropbox\Work\png\animation T=1.03085.png" arWidth="640" arHeight="480" duration="0" songTitle="" songArtist="" songAlbum="" songCopyrightUrl="" songArtistUrl="" songAudioFileUrl="" stabilizationMode="0" mediaItemType="2" />
    <MediaItem id="3086" filePath="C:\Users\owner\Dropbox\Work\png\animation T=1.03086.png" arWidth="640" arHeight="480" duration="0" songTitle="" songArtist="" songAlbum="" songCopyrightUrl="" songArtistUrl="" songAudioFileUrl="" stabilizationMode="0" mediaItemType="2" />
    <MediaItem id="3087" filePath="C:\Users\owner\Dropbox\Work\png\animation T=1.03087.png" arWidth="640" arHeight="480" duration="0" songTitle="" songArtist="" songAlbum="" songCopyrightUrl="" songArtistUrl="" songAudioFileUrl="" stabilizationMode="0" mediaItemType="2" />
    <MediaItem id="3088" filePath="C:\Users\owner\Dropbox\Work\png\animation T=1.03088.png" arWidth="640" arHeight="480" duration="0" songTitle="" songArtist="" songAlbum="" songCopyrightUrl="" songArtistUrl="" songAudioFileUrl="" stabilizationMode="0" mediaItemType="2" />
    <MediaItem id="3089" filePath="C:\Users\owner\Dropbox\Work\png\animation T=1.03089.png" arWidth="640" arHeight="480" duration="0" songTitle="" songArtist="" songAlbum="" songCopyrightUrl="" songArtistUrl="" songAudioFileUrl="" stabilizationMode="0" mediaItemType="2" />
    <MediaItem id="3090" filePath="C:\Users\owner\Dropbox\Work\png\animation T=1.03090.png" arWidth="640" arHeight="480" duration="0" songTitle="" songArtist="" songAlbum="" songCopyrightUrl="" songArtistUrl="" songAudioFileUrl="" stabilizationMode="0" mediaItemType="2" />
    <MediaItem id="3091" filePath="C:\Users\owner\Dropbox\Work\png\animation T=1.03091.png" arWidth="640" arHeight="480" duration="0" songTitle="" songArtist="" songAlbum="" songCopyrightUrl="" songArtistUrl="" songAudioFileUrl="" stabilizationMode="0" mediaItemType="2" />
    <MediaItem id="3092" filePath="C:\Users\owner\Dropbox\Work\png\animation T=1.03092.png" arWidth="640" arHeight="480" duration="0" songTitle="" songArtist="" songAlbum="" songCopyrightUrl="" songArtistUrl="" songAudioFileUrl="" stabilizationMode="0" mediaItemType="2" />
    <MediaItem id="3093" filePath="C:\Users\owner\Dropbox\Work\png\animation T=1.03093.png" arWidth="640" arHeight="480" duration="0" songTitle="" songArtist="" songAlbum="" songCopyrightUrl="" songArtistUrl="" songAudioFileUrl="" stabilizationMode="0" mediaItemType="2" />
    <MediaItem id="3094" filePath="C:\Users\owner\Dropbox\Work\png\animation T=1.03094.png" arWidth="640" arHeight="480" duration="0" songTitle="" songArtist="" songAlbum="" songCopyrightUrl="" songArtistUrl="" songAudioFileUrl="" stabilizationMode="0" mediaItemType="2" />
    <MediaItem id="3095" filePath="C:\Users\owner\Dropbox\Work\png\animation T=1.03095.png" arWidth="640" arHeight="480" duration="0" songTitle="" songArtist="" songAlbum="" songCopyrightUrl="" songArtistUrl="" songAudioFileUrl="" stabilizationMode="0" mediaItemType="2" />
    <MediaItem id="3096" filePath="C:\Users\owner\Dropbox\Work\png\animation T=1.03096.png" arWidth="640" arHeight="480" duration="0" songTitle="" songArtist="" songAlbum="" songCopyrightUrl="" songArtistUrl="" songAudioFileUrl="" stabilizationMode="0" mediaItemType="2" />
    <MediaItem id="3097" filePath="C:\Users\owner\Dropbox\Work\png\animation T=1.03097.png" arWidth="640" arHeight="480" duration="0" songTitle="" songArtist="" songAlbum="" songCopyrightUrl="" songArtistUrl="" songAudioFileUrl="" stabilizationMode="0" mediaItemType="2" />
    <MediaItem id="3098" filePath="C:\Users\owner\Dropbox\Work\png\animation T=1.03098.png" arWidth="640" arHeight="480" duration="0" songTitle="" songArtist="" songAlbum="" songCopyrightUrl="" songArtistUrl="" songAudioFileUrl="" stabilizationMode="0" mediaItemType="2" />
    <MediaItem id="3099" filePath="C:\Users\owner\Dropbox\Work\png\animation T=1.03099.png" arWidth="640" arHeight="480" duration="0" songTitle="" songArtist="" songAlbum="" songCopyrightUrl="" songArtistUrl="" songAudioFileUrl="" stabilizationMode="0" mediaItemType="2" />
    <MediaItem id="3100" filePath="C:\Users\owner\Dropbox\Work\png\animation T=1.03100.png" arWidth="640" arHeight="480" duration="0" songTitle="" songArtist="" songAlbum="" songCopyrightUrl="" songArtistUrl="" songAudioFileUrl="" stabilizationMode="0" mediaItemType="2" />
    <MediaItem id="3101" filePath="C:\Users\owner\Dropbox\Work\png\animation T=1.03101.png" arWidth="640" arHeight="480" duration="0" songTitle="" songArtist="" songAlbum="" songCopyrightUrl="" songArtistUrl="" songAudioFileUrl="" stabilizationMode="0" mediaItemType="2" />
    <MediaItem id="3102" filePath="C:\Users\owner\Dropbox\Work\png\animation T=1.03102.png" arWidth="640" arHeight="480" duration="0" songTitle="" songArtist="" songAlbum="" songCopyrightUrl="" songArtistUrl="" songAudioFileUrl="" stabilizationMode="0" mediaItemType="2" />
    <MediaItem id="3103" filePath="C:\Users\owner\Dropbox\Work\png\animation T=1.03103.png" arWidth="640" arHeight="480" duration="0" songTitle="" songArtist="" songAlbum="" songCopyrightUrl="" songArtistUrl="" songAudioFileUrl="" stabilizationMode="0" mediaItemType="2" />
    <MediaItem id="3104" filePath="C:\Users\owner\Dropbox\Work\png\animation T=1.03104.png" arWidth="640" arHeight="480" duration="0" songTitle="" songArtist="" songAlbum="" songCopyrightUrl="" songArtistUrl="" songAudioFileUrl="" stabilizationMode="0" mediaItemType="2" />
    <MediaItem id="3105" filePath="C:\Users\owner\Dropbox\Work\png\animation T=1.03105.png" arWidth="640" arHeight="480" duration="0" songTitle="" songArtist="" songAlbum="" songCopyrightUrl="" songArtistUrl="" songAudioFileUrl="" stabilizationMode="0" mediaItemType="2" />
    <MediaItem id="3106" filePath="C:\Users\owner\Dropbox\Work\png\animation T=1.03106.png" arWidth="640" arHeight="480" duration="0" songTitle="" songArtist="" songAlbum="" songCopyrightUrl="" songArtistUrl="" songAudioFileUrl="" stabilizationMode="0" mediaItemType="2" />
    <MediaItem id="3107" filePath="C:\Users\owner\Dropbox\Work\png\animation T=1.03107.png" arWidth="640" arHeight="480" duration="0" songTitle="" songArtist="" songAlbum="" songCopyrightUrl="" songArtistUrl="" songAudioFileUrl="" stabilizationMode="0" mediaItemType="2" />
    <MediaItem id="3108" filePath="C:\Users\owner\Dropbox\Work\png\animation T=1.03108.png" arWidth="640" arHeight="480" duration="0" songTitle="" songArtist="" songAlbum="" songCopyrightUrl="" songArtistUrl="" songAudioFileUrl="" stabilizationMode="0" mediaItemType="2" />
    <MediaItem id="3109" filePath="C:\Users\owner\Dropbox\Work\png\animation T=1.03109.png" arWidth="640" arHeight="480" duration="0" songTitle="" songArtist="" songAlbum="" songCopyrightUrl="" songArtistUrl="" songAudioFileUrl="" stabilizationMode="0" mediaItemType="2" />
    <MediaItem id="3110" filePath="C:\Users\owner\Dropbox\Work\png\animation T=1.03110.png" arWidth="640" arHeight="480" duration="0" songTitle="" songArtist="" songAlbum="" songCopyrightUrl="" songArtistUrl="" songAudioFileUrl="" stabilizationMode="0" mediaItemType="2" />
    <MediaItem id="3111" filePath="C:\Users\owner\Dropbox\Work\png\animation T=1.03111.png" arWidth="640" arHeight="480" duration="0" songTitle="" songArtist="" songAlbum="" songCopyrightUrl="" songArtistUrl="" songAudioFileUrl="" stabilizationMode="0" mediaItemType="2" />
    <MediaItem id="3112" filePath="C:\Users\owner\Dropbox\Work\png\animation T=1.03112.png" arWidth="640" arHeight="480" duration="0" songTitle="" songArtist="" songAlbum="" songCopyrightUrl="" songArtistUrl="" songAudioFileUrl="" stabilizationMode="0" mediaItemType="2" />
    <MediaItem id="3113" filePath="C:\Users\owner\Dropbox\Work\png\animation T=1.03113.png" arWidth="640" arHeight="480" duration="0" songTitle="" songArtist="" songAlbum="" songCopyrightUrl="" songArtistUrl="" songAudioFileUrl="" stabilizationMode="0" mediaItemType="2" />
    <MediaItem id="3114" filePath="C:\Users\owner\Dropbox\Work\png\animation T=1.03114.png" arWidth="640" arHeight="480" duration="0" songTitle="" songArtist="" songAlbum="" songCopyrightUrl="" songArtistUrl="" songAudioFileUrl="" stabilizationMode="0" mediaItemType="2" />
    <MediaItem id="3115" filePath="C:\Users\owner\Dropbox\Work\png\animation T=1.03115.png" arWidth="640" arHeight="480" duration="0" songTitle="" songArtist="" songAlbum="" songCopyrightUrl="" songArtistUrl="" songAudioFileUrl="" stabilizationMode="0" mediaItemType="2" />
    <MediaItem id="3116" filePath="C:\Users\owner\Dropbox\Work\png\animation T=1.03116.png" arWidth="640" arHeight="480" duration="0" songTitle="" songArtist="" songAlbum="" songCopyrightUrl="" songArtistUrl="" songAudioFileUrl="" stabilizationMode="0" mediaItemType="2" />
    <MediaItem id="3117" filePath="C:\Users\owner\Dropbox\Work\png\animation T=1.03117.png" arWidth="640" arHeight="480" duration="0" songTitle="" songArtist="" songAlbum="" songCopyrightUrl="" songArtistUrl="" songAudioFileUrl="" stabilizationMode="0" mediaItemType="2" />
    <MediaItem id="3118" filePath="C:\Users\owner\Dropbox\Work\png\animation T=1.03118.png" arWidth="640" arHeight="480" duration="0" songTitle="" songArtist="" songAlbum="" songCopyrightUrl="" songArtistUrl="" songAudioFileUrl="" stabilizationMode="0" mediaItemType="2" />
    <MediaItem id="3119" filePath="C:\Users\owner\Dropbox\Work\png\animation T=1.03119.png" arWidth="640" arHeight="480" duration="0" songTitle="" songArtist="" songAlbum="" songCopyrightUrl="" songArtistUrl="" songAudioFileUrl="" stabilizationMode="0" mediaItemType="2" />
    <MediaItem id="3120" filePath="C:\Users\owner\Dropbox\Work\png\animation T=1.03120.png" arWidth="640" arHeight="480" duration="0" songTitle="" songArtist="" songAlbum="" songCopyrightUrl="" songArtistUrl="" songAudioFileUrl="" stabilizationMode="0" mediaItemType="2" />
    <MediaItem id="3121" filePath="C:\Users\owner\Dropbox\Work\png\animation T=1.03121.png" arWidth="640" arHeight="480" duration="0" songTitle="" songArtist="" songAlbum="" songCopyrightUrl="" songArtistUrl="" songAudioFileUrl="" stabilizationMode="0" mediaItemType="2" />
    <MediaItem id="3122" filePath="C:\Users\owner\Dropbox\Work\png\animation T=1.03122.png" arWidth="640" arHeight="480" duration="0" songTitle="" songArtist="" songAlbum="" songCopyrightUrl="" songArtistUrl="" songAudioFileUrl="" stabilizationMode="0" mediaItemType="2" />
    <MediaItem id="3123" filePath="C:\Users\owner\Dropbox\Work\png\animation T=1.03123.png" arWidth="640" arHeight="480" duration="0" songTitle="" songArtist="" songAlbum="" songCopyrightUrl="" songArtistUrl="" songAudioFileUrl="" stabilizationMode="0" mediaItemType="2" />
    <MediaItem id="3124" filePath="C:\Users\owner\Dropbox\Work\png\animation T=1.03124.png" arWidth="640" arHeight="480" duration="0" songTitle="" songArtist="" songAlbum="" songCopyrightUrl="" songArtistUrl="" songAudioFileUrl="" stabilizationMode="0" mediaItemType="2" />
    <MediaItem id="3125" filePath="C:\Users\owner\Dropbox\Work\png\animation T=1.03125.png" arWidth="640" arHeight="480" duration="0" songTitle="" songArtist="" songAlbum="" songCopyrightUrl="" songArtistUrl="" songAudioFileUrl="" stabilizationMode="0" mediaItemType="2" />
    <MediaItem id="3126" filePath="C:\Users\owner\Dropbox\Work\png\animation T=1.03126.png" arWidth="640" arHeight="480" duration="0" songTitle="" songArtist="" songAlbum="" songCopyrightUrl="" songArtistUrl="" songAudioFileUrl="" stabilizationMode="0" mediaItemType="2" />
    <MediaItem id="3127" filePath="C:\Users\owner\Dropbox\Work\png\animation T=1.03127.png" arWidth="640" arHeight="480" duration="0" songTitle="" songArtist="" songAlbum="" songCopyrightUrl="" songArtistUrl="" songAudioFileUrl="" stabilizationMode="0" mediaItemType="2" />
    <MediaItem id="3128" filePath="C:\Users\owner\Dropbox\Work\png\animation T=1.03128.png" arWidth="640" arHeight="480" duration="0" songTitle="" songArtist="" songAlbum="" songCopyrightUrl="" songArtistUrl="" songAudioFileUrl="" stabilizationMode="0" mediaItemType="2" />
    <MediaItem id="3129" filePath="C:\Users\owner\Dropbox\Work\png\animation T=1.03129.png" arWidth="640" arHeight="480" duration="0" songTitle="" songArtist="" songAlbum="" songCopyrightUrl="" songArtistUrl="" songAudioFileUrl="" stabilizationMode="0" mediaItemType="2" />
    <MediaItem id="3130" filePath="C:\Users\owner\Dropbox\Work\png\animation T=1.03130.png" arWidth="640" arHeight="480" duration="0" songTitle="" songArtist="" songAlbum="" songCopyrightUrl="" songArtistUrl="" songAudioFileUrl="" stabilizationMode="0" mediaItemType="2" />
    <MediaItem id="3131" filePath="C:\Users\owner\Dropbox\Work\png\animation T=1.03131.png" arWidth="640" arHeight="480" duration="0" songTitle="" songArtist="" songAlbum="" songCopyrightUrl="" songArtistUrl="" songAudioFileUrl="" stabilizationMode="0" mediaItemType="2" />
    <MediaItem id="3132" filePath="C:\Users\owner\Dropbox\Work\png\animation T=1.03132.png" arWidth="640" arHeight="480" duration="0" songTitle="" songArtist="" songAlbum="" songCopyrightUrl="" songArtistUrl="" songAudioFileUrl="" stabilizationMode="0" mediaItemType="2" />
    <MediaItem id="3133" filePath="C:\Users\owner\Dropbox\Work\png\animation T=1.03133.png" arWidth="640" arHeight="480" duration="0" songTitle="" songArtist="" songAlbum="" songCopyrightUrl="" songArtistUrl="" songAudioFileUrl="" stabilizationMode="0" mediaItemType="2" />
    <MediaItem id="3134" filePath="C:\Users\owner\Dropbox\Work\png\animation T=1.03134.png" arWidth="640" arHeight="480" duration="0" songTitle="" songArtist="" songAlbum="" songCopyrightUrl="" songArtistUrl="" songAudioFileUrl="" stabilizationMode="0" mediaItemType="2" />
    <MediaItem id="3135" filePath="C:\Users\owner\Dropbox\Work\png\animation T=1.03135.png" arWidth="640" arHeight="480" duration="0" songTitle="" songArtist="" songAlbum="" songCopyrightUrl="" songArtistUrl="" songAudioFileUrl="" stabilizationMode="0" mediaItemType="2" />
    <MediaItem id="3136" filePath="C:\Users\owner\Dropbox\Work\png\animation T=1.03136.png" arWidth="640" arHeight="480" duration="0" songTitle="" songArtist="" songAlbum="" songCopyrightUrl="" songArtistUrl="" songAudioFileUrl="" stabilizationMode="0" mediaItemType="2" />
    <MediaItem id="3137" filePath="C:\Users\owner\Dropbox\Work\png\animation T=1.03137.png" arWidth="640" arHeight="480" duration="0" songTitle="" songArtist="" songAlbum="" songCopyrightUrl="" songArtistUrl="" songAudioFileUrl="" stabilizationMode="0" mediaItemType="2" />
    <MediaItem id="3138" filePath="C:\Users\owner\Dropbox\Work\png\animation T=1.03138.png" arWidth="640" arHeight="480" duration="0" songTitle="" songArtist="" songAlbum="" songCopyrightUrl="" songArtistUrl="" songAudioFileUrl="" stabilizationMode="0" mediaItemType="2" />
    <MediaItem id="3139" filePath="C:\Users\owner\Dropbox\Work\png\animation T=1.03139.png" arWidth="640" arHeight="480" duration="0" songTitle="" songArtist="" songAlbum="" songCopyrightUrl="" songArtistUrl="" songAudioFileUrl="" stabilizationMode="0" mediaItemType="2" />
    <MediaItem id="3140" filePath="C:\Users\owner\Dropbox\Work\png\animation T=1.03140.png" arWidth="640" arHeight="480" duration="0" songTitle="" songArtist="" songAlbum="" songCopyrightUrl="" songArtistUrl="" songAudioFileUrl="" stabilizationMode="0" mediaItemType="2" />
    <MediaItem id="3141" filePath="C:\Users\owner\Dropbox\Work\png\animation T=1.03141.png" arWidth="640" arHeight="480" duration="0" songTitle="" songArtist="" songAlbum="" songCopyrightUrl="" songArtistUrl="" songAudioFileUrl="" stabilizationMode="0" mediaItemType="2" />
    <MediaItem id="3142" filePath="C:\Users\owner\Dropbox\Work\png\animation T=1.03142.png" arWidth="640" arHeight="480" duration="0" songTitle="" songArtist="" songAlbum="" songCopyrightUrl="" songArtistUrl="" songAudioFileUrl="" stabilizationMode="0" mediaItemType="2" />
    <MediaItem id="3143" filePath="C:\Users\owner\Dropbox\Work\png\animation T=1.03143.png" arWidth="640" arHeight="480" duration="0" songTitle="" songArtist="" songAlbum="" songCopyrightUrl="" songArtistUrl="" songAudioFileUrl="" stabilizationMode="0" mediaItemType="2" />
    <MediaItem id="3144" filePath="C:\Users\owner\Dropbox\Work\png\animation T=1.03144.png" arWidth="640" arHeight="480" duration="0" songTitle="" songArtist="" songAlbum="" songCopyrightUrl="" songArtistUrl="" songAudioFileUrl="" stabilizationMode="0" mediaItemType="2" />
    <MediaItem id="3145" filePath="C:\Users\owner\Dropbox\Work\png\animation T=1.03145.png" arWidth="640" arHeight="480" duration="0" songTitle="" songArtist="" songAlbum="" songCopyrightUrl="" songArtistUrl="" songAudioFileUrl="" stabilizationMode="0" mediaItemType="2" />
    <MediaItem id="3146" filePath="C:\Users\owner\Dropbox\Work\png\animation T=1.03146.png" arWidth="640" arHeight="480" duration="0" songTitle="" songArtist="" songAlbum="" songCopyrightUrl="" songArtistUrl="" songAudioFileUrl="" stabilizationMode="0" mediaItemType="2" />
    <MediaItem id="3147" filePath="C:\Users\owner\Dropbox\Work\png\animation T=1.03147.png" arWidth="640" arHeight="480" duration="0" songTitle="" songArtist="" songAlbum="" songCopyrightUrl="" songArtistUrl="" songAudioFileUrl="" stabilizationMode="0" mediaItemType="2" />
    <MediaItem id="3148" filePath="C:\Users\owner\Dropbox\Work\png\animation T=1.03148.png" arWidth="640" arHeight="480" duration="0" songTitle="" songArtist="" songAlbum="" songCopyrightUrl="" songArtistUrl="" songAudioFileUrl="" stabilizationMode="0" mediaItemType="2" />
    <MediaItem id="3149" filePath="C:\Users\owner\Dropbox\Work\png\animation T=1.03149.png" arWidth="640" arHeight="480" duration="0" songTitle="" songArtist="" songAlbum="" songCopyrightUrl="" songArtistUrl="" songAudioFileUrl="" stabilizationMode="0" mediaItemType="2" />
    <MediaItem id="3150" filePath="C:\Users\owner\Dropbox\Work\png\animation T=1.03150.png" arWidth="640" arHeight="480" duration="0" songTitle="" songArtist="" songAlbum="" songCopyrightUrl="" songArtistUrl="" songAudioFileUrl="" stabilizationMode="0" mediaItemType="2" />
    <MediaItem id="3151" filePath="C:\Users\owner\Dropbox\Work\png\animation T=1.03151.png" arWidth="640" arHeight="480" duration="0" songTitle="" songArtist="" songAlbum="" songCopyrightUrl="" songArtistUrl="" songAudioFileUrl="" stabilizationMode="0" mediaItemType="2" />
    <MediaItem id="3152" filePath="C:\Users\owner\Dropbox\Work\png\animation T=1.03152.png" arWidth="640" arHeight="480" duration="0" songTitle="" songArtist="" songAlbum="" songCopyrightUrl="" songArtistUrl="" songAudioFileUrl="" stabilizationMode="0" mediaItemType="2" />
    <MediaItem id="3153" filePath="C:\Users\owner\Dropbox\Work\png\animation T=1.03153.png" arWidth="640" arHeight="480" duration="0" songTitle="" songArtist="" songAlbum="" songCopyrightUrl="" songArtistUrl="" songAudioFileUrl="" stabilizationMode="0" mediaItemType="2" />
    <MediaItem id="3154" filePath="C:\Users\owner\Dropbox\Work\png\animation T=1.03154.png" arWidth="640" arHeight="480" duration="0" songTitle="" songArtist="" songAlbum="" songCopyrightUrl="" songArtistUrl="" songAudioFileUrl="" stabilizationMode="0" mediaItemType="2" />
    <MediaItem id="3155" filePath="C:\Users\owner\Dropbox\Work\png\animation T=1.03155.png" arWidth="640" arHeight="480" duration="0" songTitle="" songArtist="" songAlbum="" songCopyrightUrl="" songArtistUrl="" songAudioFileUrl="" stabilizationMode="0" mediaItemType="2" />
    <MediaItem id="3156" filePath="C:\Users\owner\Dropbox\Work\png\animation T=1.03156.png" arWidth="640" arHeight="480" duration="0" songTitle="" songArtist="" songAlbum="" songCopyrightUrl="" songArtistUrl="" songAudioFileUrl="" stabilizationMode="0" mediaItemType="2" />
    <MediaItem id="3157" filePath="C:\Users\owner\Dropbox\Work\png\animation T=1.03157.png" arWidth="640" arHeight="480" duration="0" songTitle="" songArtist="" songAlbum="" songCopyrightUrl="" songArtistUrl="" songAudioFileUrl="" stabilizationMode="0" mediaItemType="2" />
    <MediaItem id="3158" filePath="C:\Users\owner\Dropbox\Work\png\animation T=1.03158.png" arWidth="640" arHeight="480" duration="0" songTitle="" songArtist="" songAlbum="" songCopyrightUrl="" songArtistUrl="" songAudioFileUrl="" stabilizationMode="0" mediaItemType="2" />
    <MediaItem id="3159" filePath="C:\Users\owner\Dropbox\Work\png\animation T=1.03159.png" arWidth="640" arHeight="480" duration="0" songTitle="" songArtist="" songAlbum="" songCopyrightUrl="" songArtistUrl="" songAudioFileUrl="" stabilizationMode="0" mediaItemType="2" />
    <MediaItem id="3160" filePath="C:\Users\owner\Dropbox\Work\png\animation T=1.03160.png" arWidth="640" arHeight="480" duration="0" songTitle="" songArtist="" songAlbum="" songCopyrightUrl="" songArtistUrl="" songAudioFileUrl="" stabilizationMode="0" mediaItemType="2" />
    <MediaItem id="3161" filePath="C:\Users\owner\Dropbox\Work\png\animation T=1.03161.png" arWidth="640" arHeight="480" duration="0" songTitle="" songArtist="" songAlbum="" songCopyrightUrl="" songArtistUrl="" songAudioFileUrl="" stabilizationMode="0" mediaItemType="2" />
    <MediaItem id="3162" filePath="C:\Users\owner\Dropbox\Work\png\animation T=1.03162.png" arWidth="640" arHeight="480" duration="0" songTitle="" songArtist="" songAlbum="" songCopyrightUrl="" songArtistUrl="" songAudioFileUrl="" stabilizationMode="0" mediaItemType="2" />
    <MediaItem id="3163" filePath="C:\Users\owner\Dropbox\Work\png\animation T=1.03163.png" arWidth="640" arHeight="480" duration="0" songTitle="" songArtist="" songAlbum="" songCopyrightUrl="" songArtistUrl="" songAudioFileUrl="" stabilizationMode="0" mediaItemType="2" />
    <MediaItem id="3164" filePath="C:\Users\owner\Dropbox\Work\png\animation T=1.03164.png" arWidth="640" arHeight="480" duration="0" songTitle="" songArtist="" songAlbum="" songCopyrightUrl="" songArtistUrl="" songAudioFileUrl="" stabilizationMode="0" mediaItemType="2" />
    <MediaItem id="3165" filePath="C:\Users\owner\Dropbox\Work\png\animation T=1.03165.png" arWidth="640" arHeight="480" duration="0" songTitle="" songArtist="" songAlbum="" songCopyrightUrl="" songArtistUrl="" songAudioFileUrl="" stabilizationMode="0" mediaItemType="2" />
    <MediaItem id="3166" filePath="C:\Users\owner\Dropbox\Work\png\animation T=1.03166.png" arWidth="640" arHeight="480" duration="0" songTitle="" songArtist="" songAlbum="" songCopyrightUrl="" songArtistUrl="" songAudioFileUrl="" stabilizationMode="0" mediaItemType="2" />
    <MediaItem id="3167" filePath="C:\Users\owner\Dropbox\Work\png\animation T=1.03167.png" arWidth="640" arHeight="480" duration="0" songTitle="" songArtist="" songAlbum="" songCopyrightUrl="" songArtistUrl="" songAudioFileUrl="" stabilizationMode="0" mediaItemType="2" />
    <MediaItem id="3168" filePath="C:\Users\owner\Dropbox\Work\png\animation T=1.03168.png" arWidth="640" arHeight="480" duration="0" songTitle="" songArtist="" songAlbum="" songCopyrightUrl="" songArtistUrl="" songAudioFileUrl="" stabilizationMode="0" mediaItemType="2" />
    <MediaItem id="3169" filePath="C:\Users\owner\Dropbox\Work\png\animation T=1.03169.png" arWidth="640" arHeight="480" duration="0" songTitle="" songArtist="" songAlbum="" songCopyrightUrl="" songArtistUrl="" songAudioFileUrl="" stabilizationMode="0" mediaItemType="2" />
    <MediaItem id="3170" filePath="C:\Users\owner\Dropbox\Work\png\animation T=1.03170.png" arWidth="640" arHeight="480" duration="0" songTitle="" songArtist="" songAlbum="" songCopyrightUrl="" songArtistUrl="" songAudioFileUrl="" stabilizationMode="0" mediaItemType="2" />
    <MediaItem id="3171" filePath="C:\Users\owner\Dropbox\Work\png\animation T=1.03171.png" arWidth="640" arHeight="480" duration="0" songTitle="" songArtist="" songAlbum="" songCopyrightUrl="" songArtistUrl="" songAudioFileUrl="" stabilizationMode="0" mediaItemType="2" />
    <MediaItem id="3172" filePath="C:\Users\owner\Dropbox\Work\png\animation T=1.03172.png" arWidth="640" arHeight="480" duration="0" songTitle="" songArtist="" songAlbum="" songCopyrightUrl="" songArtistUrl="" songAudioFileUrl="" stabilizationMode="0" mediaItemType="2" />
    <MediaItem id="3173" filePath="C:\Users\owner\Dropbox\Work\png\animation T=1.03173.png" arWidth="640" arHeight="480" duration="0" songTitle="" songArtist="" songAlbum="" songCopyrightUrl="" songArtistUrl="" songAudioFileUrl="" stabilizationMode="0" mediaItemType="2" />
    <MediaItem id="3174" filePath="C:\Users\owner\Dropbox\Work\png\animation T=1.03174.png" arWidth="640" arHeight="480" duration="0" songTitle="" songArtist="" songAlbum="" songCopyrightUrl="" songArtistUrl="" songAudioFileUrl="" stabilizationMode="0" mediaItemType="2" />
    <MediaItem id="3175" filePath="C:\Users\owner\Dropbox\Work\png\animation T=1.03175.png" arWidth="640" arHeight="480" duration="0" songTitle="" songArtist="" songAlbum="" songCopyrightUrl="" songArtistUrl="" songAudioFileUrl="" stabilizationMode="0" mediaItemType="2" />
    <MediaItem id="3176" filePath="C:\Users\owner\Dropbox\Work\png\animation T=1.03176.png" arWidth="640" arHeight="480" duration="0" songTitle="" songArtist="" songAlbum="" songCopyrightUrl="" songArtistUrl="" songAudioFileUrl="" stabilizationMode="0" mediaItemType="2" />
    <MediaItem id="3177" filePath="C:\Users\owner\Dropbox\Work\png\animation T=1.03177.png" arWidth="640" arHeight="480" duration="0" songTitle="" songArtist="" songAlbum="" songCopyrightUrl="" songArtistUrl="" songAudioFileUrl="" stabilizationMode="0" mediaItemType="2" />
    <MediaItem id="3178" filePath="C:\Users\owner\Dropbox\Work\png\animation T=1.03178.png" arWidth="640" arHeight="480" duration="0" songTitle="" songArtist="" songAlbum="" songCopyrightUrl="" songArtistUrl="" songAudioFileUrl="" stabilizationMode="0" mediaItemType="2" />
    <MediaItem id="3179" filePath="C:\Users\owner\Dropbox\Work\png\animation T=1.03179.png" arWidth="640" arHeight="480" duration="0" songTitle="" songArtist="" songAlbum="" songCopyrightUrl="" songArtistUrl="" songAudioFileUrl="" stabilizationMode="0" mediaItemType="2" />
    <MediaItem id="3180" filePath="C:\Users\owner\Dropbox\Work\png\animation T=1.03180.png" arWidth="640" arHeight="480" duration="0" songTitle="" songArtist="" songAlbum="" songCopyrightUrl="" songArtistUrl="" songAudioFileUrl="" stabilizationMode="0" mediaItemType="2" />
    <MediaItem id="3181" filePath="C:\Users\owner\Dropbox\Work\png\animation T=1.03181.png" arWidth="640" arHeight="480" duration="0" songTitle="" songArtist="" songAlbum="" songCopyrightUrl="" songArtistUrl="" songAudioFileUrl="" stabilizationMode="0" mediaItemType="2" />
    <MediaItem id="3182" filePath="C:\Users\owner\Dropbox\Work\png\animation T=1.03182.png" arWidth="640" arHeight="480" duration="0" songTitle="" songArtist="" songAlbum="" songCopyrightUrl="" songArtistUrl="" songAudioFileUrl="" stabilizationMode="0" mediaItemType="2" />
    <MediaItem id="3183" filePath="C:\Users\owner\Dropbox\Work\png\animation T=1.03183.png" arWidth="640" arHeight="480" duration="0" songTitle="" songArtist="" songAlbum="" songCopyrightUrl="" songArtistUrl="" songAudioFileUrl="" stabilizationMode="0" mediaItemType="2" />
    <MediaItem id="3184" filePath="C:\Users\owner\Dropbox\Work\png\animation T=1.03184.png" arWidth="640" arHeight="480" duration="0" songTitle="" songArtist="" songAlbum="" songCopyrightUrl="" songArtistUrl="" songAudioFileUrl="" stabilizationMode="0" mediaItemType="2" />
    <MediaItem id="3185" filePath="C:\Users\owner\Dropbox\Work\png\animation T=1.03185.png" arWidth="640" arHeight="480" duration="0" songTitle="" songArtist="" songAlbum="" songCopyrightUrl="" songArtistUrl="" songAudioFileUrl="" stabilizationMode="0" mediaItemType="2" />
    <MediaItem id="3186" filePath="C:\Users\owner\Dropbox\Work\png\animation T=1.03186.png" arWidth="640" arHeight="480" duration="0" songTitle="" songArtist="" songAlbum="" songCopyrightUrl="" songArtistUrl="" songAudioFileUrl="" stabilizationMode="0" mediaItemType="2" />
    <MediaItem id="3187" filePath="C:\Users\owner\Dropbox\Work\png\animation T=1.03187.png" arWidth="640" arHeight="480" duration="0" songTitle="" songArtist="" songAlbum="" songCopyrightUrl="" songArtistUrl="" songAudioFileUrl="" stabilizationMode="0" mediaItemType="2" />
    <MediaItem id="3188" filePath="C:\Users\owner\Dropbox\Work\png\animation T=1.03188.png" arWidth="640" arHeight="480" duration="0" songTitle="" songArtist="" songAlbum="" songCopyrightUrl="" songArtistUrl="" songAudioFileUrl="" stabilizationMode="0" mediaItemType="2" />
    <MediaItem id="3189" filePath="C:\Users\owner\Dropbox\Work\png\animation T=1.03189.png" arWidth="640" arHeight="480" duration="0" songTitle="" songArtist="" songAlbum="" songCopyrightUrl="" songArtistUrl="" songAudioFileUrl="" stabilizationMode="0" mediaItemType="2" />
    <MediaItem id="3190" filePath="C:\Users\owner\Dropbox\Work\png\animation T=1.03190.png" arWidth="640" arHeight="480" duration="0" songTitle="" songArtist="" songAlbum="" songCopyrightUrl="" songArtistUrl="" songAudioFileUrl="" stabilizationMode="0" mediaItemType="2" />
    <MediaItem id="3191" filePath="C:\Users\owner\Dropbox\Work\png\animation T=1.03191.png" arWidth="640" arHeight="480" duration="0" songTitle="" songArtist="" songAlbum="" songCopyrightUrl="" songArtistUrl="" songAudioFileUrl="" stabilizationMode="0" mediaItemType="2" />
    <MediaItem id="3192" filePath="C:\Users\owner\Dropbox\Work\png\animation T=1.03192.png" arWidth="640" arHeight="480" duration="0" songTitle="" songArtist="" songAlbum="" songCopyrightUrl="" songArtistUrl="" songAudioFileUrl="" stabilizationMode="0" mediaItemType="2" />
    <MediaItem id="3193" filePath="C:\Users\owner\Dropbox\Work\png\animation T=1.03193.png" arWidth="640" arHeight="480" duration="0" songTitle="" songArtist="" songAlbum="" songCopyrightUrl="" songArtistUrl="" songAudioFileUrl="" stabilizationMode="0" mediaItemType="2" />
    <MediaItem id="3194" filePath="C:\Users\owner\Dropbox\Work\png\animation T=1.03194.png" arWidth="640" arHeight="480" duration="0" songTitle="" songArtist="" songAlbum="" songCopyrightUrl="" songArtistUrl="" songAudioFileUrl="" stabilizationMode="0" mediaItemType="2" />
    <MediaItem id="3195" filePath="C:\Users\owner\Dropbox\Work\png\animation T=1.03195.png" arWidth="640" arHeight="480" duration="0" songTitle="" songArtist="" songAlbum="" songCopyrightUrl="" songArtistUrl="" songAudioFileUrl="" stabilizationMode="0" mediaItemType="2" />
    <MediaItem id="3196" filePath="C:\Users\owner\Dropbox\Work\png\animation T=1.03196.png" arWidth="640" arHeight="480" duration="0" songTitle="" songArtist="" songAlbum="" songCopyrightUrl="" songArtistUrl="" songAudioFileUrl="" stabilizationMode="0" mediaItemType="2" />
    <MediaItem id="3197" filePath="C:\Users\owner\Dropbox\Work\png\animation T=1.03197.png" arWidth="640" arHeight="480" duration="0" songTitle="" songArtist="" songAlbum="" songCopyrightUrl="" songArtistUrl="" songAudioFileUrl="" stabilizationMode="0" mediaItemType="2" />
    <MediaItem id="3198" filePath="C:\Users\owner\Dropbox\Work\png\animation T=1.03198.png" arWidth="640" arHeight="480" duration="0" songTitle="" songArtist="" songAlbum="" songCopyrightUrl="" songArtistUrl="" songAudioFileUrl="" stabilizationMode="0" mediaItemType="2" />
    <MediaItem id="3199" filePath="C:\Users\owner\Dropbox\Work\png\animation T=1.03199.png" arWidth="640" arHeight="480" duration="0" songTitle="" songArtist="" songAlbum="" songCopyrightUrl="" songArtistUrl="" songAudioFileUrl="" stabilizationMode="0" mediaItemType="2" />
    <MediaItem id="3200" filePath="C:\Users\owner\Dropbox\Work\png\animation T=1.03200.png" arWidth="640" arHeight="480" duration="0" songTitle="" songArtist="" songAlbum="" songCopyrightUrl="" songArtistUrl="" songAudioFileUrl="" stabilizationMode="0" mediaItemType="2" />
    <MediaItem id="3201" filePath="C:\Users\owner\Dropbox\Work\png\animation T=1.03201.png" arWidth="640" arHeight="480" duration="0" songTitle="" songArtist="" songAlbum="" songCopyrightUrl="" songArtistUrl="" songAudioFileUrl="" stabilizationMode="0" mediaItemType="2" />
    <MediaItem id="3202" filePath="C:\Users\owner\Dropbox\Work\png\animation T=1.03202.png" arWidth="640" arHeight="480" duration="0" songTitle="" songArtist="" songAlbum="" songCopyrightUrl="" songArtistUrl="" songAudioFileUrl="" stabilizationMode="0" mediaItemType="2" />
    <MediaItem id="3203" filePath="C:\Users\owner\Dropbox\Work\png\animation T=1.03203.png" arWidth="640" arHeight="480" duration="0" songTitle="" songArtist="" songAlbum="" songCopyrightUrl="" songArtistUrl="" songAudioFileUrl="" stabilizationMode="0" mediaItemType="2" />
    <MediaItem id="3204" filePath="C:\Users\owner\Dropbox\Work\png\animation T=1.03204.png" arWidth="640" arHeight="480" duration="0" songTitle="" songArtist="" songAlbum="" songCopyrightUrl="" songArtistUrl="" songAudioFileUrl="" stabilizationMode="0" mediaItemType="2" />
    <MediaItem id="3205" filePath="C:\Users\owner\Dropbox\Work\png\animation T=1.03205.png" arWidth="640" arHeight="480" duration="0" songTitle="" songArtist="" songAlbum="" songCopyrightUrl="" songArtistUrl="" songAudioFileUrl="" stabilizationMode="0" mediaItemType="2" />
    <MediaItem id="3206" filePath="C:\Users\owner\Dropbox\Work\png\animation T=1.03206.png" arWidth="640" arHeight="480" duration="0" songTitle="" songArtist="" songAlbum="" songCopyrightUrl="" songArtistUrl="" songAudioFileUrl="" stabilizationMode="0" mediaItemType="2" />
    <MediaItem id="3207" filePath="C:\Users\owner\Dropbox\Work\png\animation T=1.03207.png" arWidth="640" arHeight="480" duration="0" songTitle="" songArtist="" songAlbum="" songCopyrightUrl="" songArtistUrl="" songAudioFileUrl="" stabilizationMode="0" mediaItemType="2" />
    <MediaItem id="3208" filePath="C:\Users\owner\Dropbox\Work\png\animation T=1.03208.png" arWidth="640" arHeight="480" duration="0" songTitle="" songArtist="" songAlbum="" songCopyrightUrl="" songArtistUrl="" songAudioFileUrl="" stabilizationMode="0" mediaItemType="2" />
    <MediaItem id="3209" filePath="C:\Users\owner\Dropbox\Work\png\animation T=1.03209.png" arWidth="640" arHeight="480" duration="0" songTitle="" songArtist="" songAlbum="" songCopyrightUrl="" songArtistUrl="" songAudioFileUrl="" stabilizationMode="0" mediaItemType="2" />
    <MediaItem id="3210" filePath="C:\Users\owner\Dropbox\Work\png\animation T=1.03210.png" arWidth="640" arHeight="480" duration="0" songTitle="" songArtist="" songAlbum="" songCopyrightUrl="" songArtistUrl="" songAudioFileUrl="" stabilizationMode="0" mediaItemType="2" />
    <MediaItem id="3211" filePath="C:\Users\owner\Dropbox\Work\png\animation T=1.03211.png" arWidth="640" arHeight="480" duration="0" songTitle="" songArtist="" songAlbum="" songCopyrightUrl="" songArtistUrl="" songAudioFileUrl="" stabilizationMode="0" mediaItemType="2" />
    <MediaItem id="3212" filePath="C:\Users\owner\Dropbox\Work\png\animation T=1.03212.png" arWidth="640" arHeight="480" duration="0" songTitle="" songArtist="" songAlbum="" songCopyrightUrl="" songArtistUrl="" songAudioFileUrl="" stabilizationMode="0" mediaItemType="2" />
    <MediaItem id="3213" filePath="C:\Users\owner\Dropbox\Work\png\animation T=1.03213.png" arWidth="640" arHeight="480" duration="0" songTitle="" songArtist="" songAlbum="" songCopyrightUrl="" songArtistUrl="" songAudioFileUrl="" stabilizationMode="0" mediaItemType="2" />
    <MediaItem id="3214" filePath="C:\Users\owner\Dropbox\Work\png\animation T=1.03214.png" arWidth="640" arHeight="480" duration="0" songTitle="" songArtist="" songAlbum="" songCopyrightUrl="" songArtistUrl="" songAudioFileUrl="" stabilizationMode="0" mediaItemType="2" />
    <MediaItem id="3215" filePath="C:\Users\owner\Dropbox\Work\png\animation T=1.03215.png" arWidth="640" arHeight="480" duration="0" songTitle="" songArtist="" songAlbum="" songCopyrightUrl="" songArtistUrl="" songAudioFileUrl="" stabilizationMode="0" mediaItemType="2" />
    <MediaItem id="3216" filePath="C:\Users\owner\Dropbox\Work\png\animation T=1.03216.png" arWidth="640" arHeight="480" duration="0" songTitle="" songArtist="" songAlbum="" songCopyrightUrl="" songArtistUrl="" songAudioFileUrl="" stabilizationMode="0" mediaItemType="2" />
    <MediaItem id="3217" filePath="C:\Users\owner\Dropbox\Work\png\animation T=1.03217.png" arWidth="640" arHeight="480" duration="0" songTitle="" songArtist="" songAlbum="" songCopyrightUrl="" songArtistUrl="" songAudioFileUrl="" stabilizationMode="0" mediaItemType="2" />
    <MediaItem id="3218" filePath="C:\Users\owner\Dropbox\Work\png\animation T=1.03218.png" arWidth="640" arHeight="480" duration="0" songTitle="" songArtist="" songAlbum="" songCopyrightUrl="" songArtistUrl="" songAudioFileUrl="" stabilizationMode="0" mediaItemType="2" />
    <MediaItem id="3219" filePath="C:\Users\owner\Dropbox\Work\png\animation T=1.03219.png" arWidth="640" arHeight="480" duration="0" songTitle="" songArtist="" songAlbum="" songCopyrightUrl="" songArtistUrl="" songAudioFileUrl="" stabilizationMode="0" mediaItemType="2" />
    <MediaItem id="3220" filePath="C:\Users\owner\Dropbox\Work\png\animation T=1.03220.png" arWidth="640" arHeight="480" duration="0" songTitle="" songArtist="" songAlbum="" songCopyrightUrl="" songArtistUrl="" songAudioFileUrl="" stabilizationMode="0" mediaItemType="2" />
    <MediaItem id="3221" filePath="C:\Users\owner\Dropbox\Work\png\animation T=1.03221.png" arWidth="640" arHeight="480" duration="0" songTitle="" songArtist="" songAlbum="" songCopyrightUrl="" songArtistUrl="" songAudioFileUrl="" stabilizationMode="0" mediaItemType="2" />
    <MediaItem id="3222" filePath="C:\Users\owner\Dropbox\Work\png\animation T=1.03222.png" arWidth="640" arHeight="480" duration="0" songTitle="" songArtist="" songAlbum="" songCopyrightUrl="" songArtistUrl="" songAudioFileUrl="" stabilizationMode="0" mediaItemType="2" />
    <MediaItem id="3223" filePath="C:\Users\owner\Dropbox\Work\png\animation T=1.03223.png" arWidth="640" arHeight="480" duration="0" songTitle="" songArtist="" songAlbum="" songCopyrightUrl="" songArtistUrl="" songAudioFileUrl="" stabilizationMode="0" mediaItemType="2" />
    <MediaItem id="3224" filePath="C:\Users\owner\Dropbox\Work\png\animation T=1.03224.png" arWidth="640" arHeight="480" duration="0" songTitle="" songArtist="" songAlbum="" songCopyrightUrl="" songArtistUrl="" songAudioFileUrl="" stabilizationMode="0" mediaItemType="2" />
    <MediaItem id="3225" filePath="C:\Users\owner\Dropbox\Work\png\animation T=1.03225.png" arWidth="640" arHeight="480" duration="0" songTitle="" songArtist="" songAlbum="" songCopyrightUrl="" songArtistUrl="" songAudioFileUrl="" stabilizationMode="0" mediaItemType="2" />
    <MediaItem id="3226" filePath="C:\Users\owner\Dropbox\Work\png\animation T=1.03226.png" arWidth="640" arHeight="480" duration="0" songTitle="" songArtist="" songAlbum="" songCopyrightUrl="" songArtistUrl="" songAudioFileUrl="" stabilizationMode="0" mediaItemType="2" />
    <MediaItem id="3227" filePath="C:\Users\owner\Dropbox\Work\png\animation T=1.03227.png" arWidth="640" arHeight="480" duration="0" songTitle="" songArtist="" songAlbum="" songCopyrightUrl="" songArtistUrl="" songAudioFileUrl="" stabilizationMode="0" mediaItemType="2" />
    <MediaItem id="3228" filePath="C:\Users\owner\Dropbox\Work\png\animation T=1.03228.png" arWidth="640" arHeight="480" duration="0" songTitle="" songArtist="" songAlbum="" songCopyrightUrl="" songArtistUrl="" songAudioFileUrl="" stabilizationMode="0" mediaItemType="2" />
    <MediaItem id="3229" filePath="C:\Users\owner\Dropbox\Work\png\animation T=1.03229.png" arWidth="640" arHeight="480" duration="0" songTitle="" songArtist="" songAlbum="" songCopyrightUrl="" songArtistUrl="" songAudioFileUrl="" stabilizationMode="0" mediaItemType="2" />
    <MediaItem id="3230" filePath="C:\Users\owner\Dropbox\Work\png\animation T=1.03230.png" arWidth="640" arHeight="480" duration="0" songTitle="" songArtist="" songAlbum="" songCopyrightUrl="" songArtistUrl="" songAudioFileUrl="" stabilizationMode="0" mediaItemType="2" />
    <MediaItem id="3231" filePath="C:\Users\owner\Dropbox\Work\png\animation T=1.03231.png" arWidth="640" arHeight="480" duration="0" songTitle="" songArtist="" songAlbum="" songCopyrightUrl="" songArtistUrl="" songAudioFileUrl="" stabilizationMode="0" mediaItemType="2" />
    <MediaItem id="3232" filePath="C:\Users\owner\Dropbox\Work\png\animation T=1.03232.png" arWidth="640" arHeight="480" duration="0" songTitle="" songArtist="" songAlbum="" songCopyrightUrl="" songArtistUrl="" songAudioFileUrl="" stabilizationMode="0" mediaItemType="2" />
    <MediaItem id="3233" filePath="C:\Users\owner\Dropbox\Work\png\animation T=1.03233.png" arWidth="640" arHeight="480" duration="0" songTitle="" songArtist="" songAlbum="" songCopyrightUrl="" songArtistUrl="" songAudioFileUrl="" stabilizationMode="0" mediaItemType="2" />
    <MediaItem id="3234" filePath="C:\Users\owner\Dropbox\Work\png\animation T=1.03234.png" arWidth="640" arHeight="480" duration="0" songTitle="" songArtist="" songAlbum="" songCopyrightUrl="" songArtistUrl="" songAudioFileUrl="" stabilizationMode="0" mediaItemType="2" />
    <MediaItem id="3235" filePath="C:\Users\owner\Dropbox\Work\png\animation T=1.03235.png" arWidth="640" arHeight="480" duration="0" songTitle="" songArtist="" songAlbum="" songCopyrightUrl="" songArtistUrl="" songAudioFileUrl="" stabilizationMode="0" mediaItemType="2" />
    <MediaItem id="3236" filePath="C:\Users\owner\Dropbox\Work\png\animation T=1.03236.png" arWidth="640" arHeight="480" duration="0" songTitle="" songArtist="" songAlbum="" songCopyrightUrl="" songArtistUrl="" songAudioFileUrl="" stabilizationMode="0" mediaItemType="2" />
    <MediaItem id="3237" filePath="C:\Users\owner\Dropbox\Work\png\animation T=1.03237.png" arWidth="640" arHeight="480" duration="0" songTitle="" songArtist="" songAlbum="" songCopyrightUrl="" songArtistUrl="" songAudioFileUrl="" stabilizationMode="0" mediaItemType="2" />
    <MediaItem id="3238" filePath="C:\Users\owner\Dropbox\Work\png\animation T=1.03238.png" arWidth="640" arHeight="480" duration="0" songTitle="" songArtist="" songAlbum="" songCopyrightUrl="" songArtistUrl="" songAudioFileUrl="" stabilizationMode="0" mediaItemType="2" />
    <MediaItem id="3239" filePath="C:\Users\owner\Dropbox\Work\png\animation T=1.03239.png" arWidth="640" arHeight="480" duration="0" songTitle="" songArtist="" songAlbum="" songCopyrightUrl="" songArtistUrl="" songAudioFileUrl="" stabilizationMode="0" mediaItemType="2" />
    <MediaItem id="3240" filePath="C:\Users\owner\Dropbox\Work\png\animation T=1.03240.png" arWidth="640" arHeight="480" duration="0" songTitle="" songArtist="" songAlbum="" songCopyrightUrl="" songArtistUrl="" songAudioFileUrl="" stabilizationMode="0" mediaItemType="2" />
    <MediaItem id="3241" filePath="C:\Users\owner\Dropbox\Work\png\animation T=1.03241.png" arWidth="640" arHeight="480" duration="0" songTitle="" songArtist="" songAlbum="" songCopyrightUrl="" songArtistUrl="" songAudioFileUrl="" stabilizationMode="0" mediaItemType="2" />
    <MediaItem id="3242" filePath="C:\Users\owner\Dropbox\Work\png\animation T=1.03242.png" arWidth="640" arHeight="480" duration="0" songTitle="" songArtist="" songAlbum="" songCopyrightUrl="" songArtistUrl="" songAudioFileUrl="" stabilizationMode="0" mediaItemType="2" />
    <MediaItem id="3243" filePath="C:\Users\owner\Dropbox\Work\png\animation T=1.03243.png" arWidth="640" arHeight="480" duration="0" songTitle="" songArtist="" songAlbum="" songCopyrightUrl="" songArtistUrl="" songAudioFileUrl="" stabilizationMode="0" mediaItemType="2" />
    <MediaItem id="3244" filePath="C:\Users\owner\Dropbox\Work\png\animation T=1.03244.png" arWidth="640" arHeight="480" duration="0" songTitle="" songArtist="" songAlbum="" songCopyrightUrl="" songArtistUrl="" songAudioFileUrl="" stabilizationMode="0" mediaItemType="2" />
    <MediaItem id="3245" filePath="C:\Users\owner\Dropbox\Work\png\animation T=1.03245.png" arWidth="640" arHeight="480" duration="0" songTitle="" songArtist="" songAlbum="" songCopyrightUrl="" songArtistUrl="" songAudioFileUrl="" stabilizationMode="0" mediaItemType="2" />
    <MediaItem id="3246" filePath="C:\Users\owner\Dropbox\Work\png\animation T=1.03246.png" arWidth="640" arHeight="480" duration="0" songTitle="" songArtist="" songAlbum="" songCopyrightUrl="" songArtistUrl="" songAudioFileUrl="" stabilizationMode="0" mediaItemType="2" />
    <MediaItem id="3247" filePath="C:\Users\owner\Dropbox\Work\png\animation T=1.03247.png" arWidth="640" arHeight="480" duration="0" songTitle="" songArtist="" songAlbum="" songCopyrightUrl="" songArtistUrl="" songAudioFileUrl="" stabilizationMode="0" mediaItemType="2" />
    <MediaItem id="3248" filePath="C:\Users\owner\Dropbox\Work\png\animation T=1.03248.png" arWidth="640" arHeight="480" duration="0" songTitle="" songArtist="" songAlbum="" songCopyrightUrl="" songArtistUrl="" songAudioFileUrl="" stabilizationMode="0" mediaItemType="2" />
    <MediaItem id="3249" filePath="C:\Users\owner\Dropbox\Work\png\animation T=1.03249.png" arWidth="640" arHeight="480" duration="0" songTitle="" songArtist="" songAlbum="" songCopyrightUrl="" songArtistUrl="" songAudioFileUrl="" stabilizationMode="0" mediaItemType="2" />
    <MediaItem id="3250" filePath="C:\Users\owner\Dropbox\Work\png\animation T=1.03250.png" arWidth="640" arHeight="480" duration="0" songTitle="" songArtist="" songAlbum="" songCopyrightUrl="" songArtistUrl="" songAudioFileUrl="" stabilizationMode="0" mediaItemType="2" />
    <MediaItem id="3251" filePath="C:\Users\owner\Dropbox\Work\png\animation T=1.03251.png" arWidth="640" arHeight="480" duration="0" songTitle="" songArtist="" songAlbum="" songCopyrightUrl="" songArtistUrl="" songAudioFileUrl="" stabilizationMode="0" mediaItemType="2" />
    <MediaItem id="3252" filePath="C:\Users\owner\Dropbox\Work\png\animation T=1.03252.png" arWidth="640" arHeight="480" duration="0" songTitle="" songArtist="" songAlbum="" songCopyrightUrl="" songArtistUrl="" songAudioFileUrl="" stabilizationMode="0" mediaItemType="2" />
    <MediaItem id="3253" filePath="C:\Users\owner\Dropbox\Work\png\animation T=1.03253.png" arWidth="640" arHeight="480" duration="0" songTitle="" songArtist="" songAlbum="" songCopyrightUrl="" songArtistUrl="" songAudioFileUrl="" stabilizationMode="0" mediaItemType="2" />
    <MediaItem id="3254" filePath="C:\Users\owner\Dropbox\Work\png\animation T=1.03254.png" arWidth="640" arHeight="480" duration="0" songTitle="" songArtist="" songAlbum="" songCopyrightUrl="" songArtistUrl="" songAudioFileUrl="" stabilizationMode="0" mediaItemType="2" />
    <MediaItem id="3255" filePath="C:\Users\owner\Dropbox\Work\png\animation T=1.03255.png" arWidth="640" arHeight="480" duration="0" songTitle="" songArtist="" songAlbum="" songCopyrightUrl="" songArtistUrl="" songAudioFileUrl="" stabilizationMode="0" mediaItemType="2" />
    <MediaItem id="3256" filePath="C:\Users\owner\Dropbox\Work\png\animation T=1.03256.png" arWidth="640" arHeight="480" duration="0" songTitle="" songArtist="" songAlbum="" songCopyrightUrl="" songArtistUrl="" songAudioFileUrl="" stabilizationMode="0" mediaItemType="2" />
    <MediaItem id="3257" filePath="C:\Users\owner\Dropbox\Work\png\animation T=1.03257.png" arWidth="640" arHeight="480" duration="0" songTitle="" songArtist="" songAlbum="" songCopyrightUrl="" songArtistUrl="" songAudioFileUrl="" stabilizationMode="0" mediaItemType="2" />
    <MediaItem id="3258" filePath="C:\Users\owner\Dropbox\Work\png\animation T=1.03258.png" arWidth="640" arHeight="480" duration="0" songTitle="" songArtist="" songAlbum="" songCopyrightUrl="" songArtistUrl="" songAudioFileUrl="" stabilizationMode="0" mediaItemType="2" />
    <MediaItem id="3259" filePath="C:\Users\owner\Dropbox\Work\png\animation T=1.03259.png" arWidth="640" arHeight="480" duration="0" songTitle="" songArtist="" songAlbum="" songCopyrightUrl="" songArtistUrl="" songAudioFileUrl="" stabilizationMode="0" mediaItemType="2" />
    <MediaItem id="3260" filePath="C:\Users\owner\Dropbox\Work\png\animation T=1.03260.png" arWidth="640" arHeight="480" duration="0" songTitle="" songArtist="" songAlbum="" songCopyrightUrl="" songArtistUrl="" songAudioFileUrl="" stabilizationMode="0" mediaItemType="2" />
    <MediaItem id="3261" filePath="C:\Users\owner\Dropbox\Work\png\animation T=1.03261.png" arWidth="640" arHeight="480" duration="0" songTitle="" songArtist="" songAlbum="" songCopyrightUrl="" songArtistUrl="" songAudioFileUrl="" stabilizationMode="0" mediaItemType="2" />
    <MediaItem id="3262" filePath="C:\Users\owner\Dropbox\Work\png\animation T=1.03262.png" arWidth="640" arHeight="480" duration="0" songTitle="" songArtist="" songAlbum="" songCopyrightUrl="" songArtistUrl="" songAudioFileUrl="" stabilizationMode="0" mediaItemType="2" />
    <MediaItem id="3263" filePath="C:\Users\owner\Dropbox\Work\png\animation T=1.03263.png" arWidth="640" arHeight="480" duration="0" songTitle="" songArtist="" songAlbum="" songCopyrightUrl="" songArtistUrl="" songAudioFileUrl="" stabilizationMode="0" mediaItemType="2" />
    <MediaItem id="3264" filePath="C:\Users\owner\Dropbox\Work\png\animation T=1.03264.png" arWidth="640" arHeight="480" duration="0" songTitle="" songArtist="" songAlbum="" songCopyrightUrl="" songArtistUrl="" songAudioFileUrl="" stabilizationMode="0" mediaItemType="2" />
    <MediaItem id="3265" filePath="C:\Users\owner\Dropbox\Work\png\animation T=1.03265.png" arWidth="640" arHeight="480" duration="0" songTitle="" songArtist="" songAlbum="" songCopyrightUrl="" songArtistUrl="" songAudioFileUrl="" stabilizationMode="0" mediaItemType="2" />
    <MediaItem id="3266" filePath="C:\Users\owner\Dropbox\Work\png\animation T=1.03266.png" arWidth="640" arHeight="480" duration="0" songTitle="" songArtist="" songAlbum="" songCopyrightUrl="" songArtistUrl="" songAudioFileUrl="" stabilizationMode="0" mediaItemType="2" />
    <MediaItem id="3267" filePath="C:\Users\owner\Dropbox\Work\png\animation T=1.03267.png" arWidth="640" arHeight="480" duration="0" songTitle="" songArtist="" songAlbum="" songCopyrightUrl="" songArtistUrl="" songAudioFileUrl="" stabilizationMode="0" mediaItemType="2" />
    <MediaItem id="3268" filePath="C:\Users\owner\Dropbox\Work\png\animation T=1.03268.png" arWidth="640" arHeight="480" duration="0" songTitle="" songArtist="" songAlbum="" songCopyrightUrl="" songArtistUrl="" songAudioFileUrl="" stabilizationMode="0" mediaItemType="2" />
    <MediaItem id="3269" filePath="C:\Users\owner\Dropbox\Work\png\animation T=1.03269.png" arWidth="640" arHeight="480" duration="0" songTitle="" songArtist="" songAlbum="" songCopyrightUrl="" songArtistUrl="" songAudioFileUrl="" stabilizationMode="0" mediaItemType="2" />
    <MediaItem id="3270" filePath="C:\Users\owner\Dropbox\Work\png\animation T=1.03270.png" arWidth="640" arHeight="480" duration="0" songTitle="" songArtist="" songAlbum="" songCopyrightUrl="" songArtistUrl="" songAudioFileUrl="" stabilizationMode="0" mediaItemType="2" />
    <MediaItem id="3271" filePath="C:\Users\owner\Dropbox\Work\png\animation T=1.03271.png" arWidth="640" arHeight="480" duration="0" songTitle="" songArtist="" songAlbum="" songCopyrightUrl="" songArtistUrl="" songAudioFileUrl="" stabilizationMode="0" mediaItemType="2" />
    <MediaItem id="3272" filePath="C:\Users\owner\Dropbox\Work\png\animation T=1.03272.png" arWidth="640" arHeight="480" duration="0" songTitle="" songArtist="" songAlbum="" songCopyrightUrl="" songArtistUrl="" songAudioFileUrl="" stabilizationMode="0" mediaItemType="2" />
    <MediaItem id="3273" filePath="C:\Users\owner\Dropbox\Work\png\animation T=1.03273.png" arWidth="640" arHeight="480" duration="0" songTitle="" songArtist="" songAlbum="" songCopyrightUrl="" songArtistUrl="" songAudioFileUrl="" stabilizationMode="0" mediaItemType="2" />
    <MediaItem id="3274" filePath="C:\Users\owner\Dropbox\Work\png\animation T=1.03274.png" arWidth="640" arHeight="480" duration="0" songTitle="" songArtist="" songAlbum="" songCopyrightUrl="" songArtistUrl="" songAudioFileUrl="" stabilizationMode="0" mediaItemType="2" />
    <MediaItem id="3275" filePath="C:\Users\owner\Dropbox\Work\png\animation T=1.03275.png" arWidth="640" arHeight="480" duration="0" songTitle="" songArtist="" songAlbum="" songCopyrightUrl="" songArtistUrl="" songAudioFileUrl="" stabilizationMode="0" mediaItemType="2" />
    <MediaItem id="3276" filePath="C:\Users\owner\Dropbox\Work\png\animation T=1.03276.png" arWidth="640" arHeight="480" duration="0" songTitle="" songArtist="" songAlbum="" songCopyrightUrl="" songArtistUrl="" songAudioFileUrl="" stabilizationMode="0" mediaItemType="2" />
    <MediaItem id="3277" filePath="C:\Users\owner\Dropbox\Work\png\animation T=1.03277.png" arWidth="640" arHeight="480" duration="0" songTitle="" songArtist="" songAlbum="" songCopyrightUrl="" songArtistUrl="" songAudioFileUrl="" stabilizationMode="0" mediaItemType="2" />
    <MediaItem id="3278" filePath="C:\Users\owner\Dropbox\Work\png\animation T=1.03278.png" arWidth="640" arHeight="480" duration="0" songTitle="" songArtist="" songAlbum="" songCopyrightUrl="" songArtistUrl="" songAudioFileUrl="" stabilizationMode="0" mediaItemType="2" />
    <MediaItem id="3279" filePath="C:\Users\owner\Dropbox\Work\png\animation T=1.03279.png" arWidth="640" arHeight="480" duration="0" songTitle="" songArtist="" songAlbum="" songCopyrightUrl="" songArtistUrl="" songAudioFileUrl="" stabilizationMode="0" mediaItemType="2" />
    <MediaItem id="3280" filePath="C:\Users\owner\Dropbox\Work\png\animation T=1.03280.png" arWidth="640" arHeight="480" duration="0" songTitle="" songArtist="" songAlbum="" songCopyrightUrl="" songArtistUrl="" songAudioFileUrl="" stabilizationMode="0" mediaItemType="2" />
    <MediaItem id="3281" filePath="C:\Users\owner\Dropbox\Work\png\animation T=1.03281.png" arWidth="640" arHeight="480" duration="0" songTitle="" songArtist="" songAlbum="" songCopyrightUrl="" songArtistUrl="" songAudioFileUrl="" stabilizationMode="0" mediaItemType="2" />
    <MediaItem id="3282" filePath="C:\Users\owner\Dropbox\Work\png\animation T=1.03282.png" arWidth="640" arHeight="480" duration="0" songTitle="" songArtist="" songAlbum="" songCopyrightUrl="" songArtistUrl="" songAudioFileUrl="" stabilizationMode="0" mediaItemType="2" />
    <MediaItem id="3283" filePath="C:\Users\owner\Dropbox\Work\png\animation T=1.03283.png" arWidth="640" arHeight="480" duration="0" songTitle="" songArtist="" songAlbum="" songCopyrightUrl="" songArtistUrl="" songAudioFileUrl="" stabilizationMode="0" mediaItemType="2" />
    <MediaItem id="3284" filePath="C:\Users\owner\Dropbox\Work\png\animation T=1.03284.png" arWidth="640" arHeight="480" duration="0" songTitle="" songArtist="" songAlbum="" songCopyrightUrl="" songArtistUrl="" songAudioFileUrl="" stabilizationMode="0" mediaItemType="2" />
    <MediaItem id="3285" filePath="C:\Users\owner\Dropbox\Work\png\animation T=1.03285.png" arWidth="640" arHeight="480" duration="0" songTitle="" songArtist="" songAlbum="" songCopyrightUrl="" songArtistUrl="" songAudioFileUrl="" stabilizationMode="0" mediaItemType="2" />
    <MediaItem id="3286" filePath="C:\Users\owner\Dropbox\Work\png\animation T=1.03286.png" arWidth="640" arHeight="480" duration="0" songTitle="" songArtist="" songAlbum="" songCopyrightUrl="" songArtistUrl="" songAudioFileUrl="" stabilizationMode="0" mediaItemType="2" />
    <MediaItem id="3287" filePath="C:\Users\owner\Dropbox\Work\png\animation T=1.03287.png" arWidth="640" arHeight="480" duration="0" songTitle="" songArtist="" songAlbum="" songCopyrightUrl="" songArtistUrl="" songAudioFileUrl="" stabilizationMode="0" mediaItemType="2" />
    <MediaItem id="3288" filePath="C:\Users\owner\Dropbox\Work\png\animation T=1.03288.png" arWidth="640" arHeight="480" duration="0" songTitle="" songArtist="" songAlbum="" songCopyrightUrl="" songArtistUrl="" songAudioFileUrl="" stabilizationMode="0" mediaItemType="2" />
    <MediaItem id="3289" filePath="C:\Users\owner\Dropbox\Work\png\animation T=1.03289.png" arWidth="640" arHeight="480" duration="0" songTitle="" songArtist="" songAlbum="" songCopyrightUrl="" songArtistUrl="" songAudioFileUrl="" stabilizationMode="0" mediaItemType="2" />
    <MediaItem id="3290" filePath="C:\Users\owner\Dropbox\Work\png\animation T=1.03290.png" arWidth="640" arHeight="480" duration="0" songTitle="" songArtist="" songAlbum="" songCopyrightUrl="" songArtistUrl="" songAudioFileUrl="" stabilizationMode="0" mediaItemType="2" />
    <MediaItem id="3291" filePath="C:\Users\owner\Dropbox\Work\png\animation T=1.03291.png" arWidth="640" arHeight="480" duration="0" songTitle="" songArtist="" songAlbum="" songCopyrightUrl="" songArtistUrl="" songAudioFileUrl="" stabilizationMode="0" mediaItemType="2" />
    <MediaItem id="3292" filePath="C:\Users\owner\Dropbox\Work\png\animation T=1.03292.png" arWidth="640" arHeight="480" duration="0" songTitle="" songArtist="" songAlbum="" songCopyrightUrl="" songArtistUrl="" songAudioFileUrl="" stabilizationMode="0" mediaItemType="2" />
    <MediaItem id="3293" filePath="C:\Users\owner\Dropbox\Work\png\animation T=1.03293.png" arWidth="640" arHeight="480" duration="0" songTitle="" songArtist="" songAlbum="" songCopyrightUrl="" songArtistUrl="" songAudioFileUrl="" stabilizationMode="0" mediaItemType="2" />
    <MediaItem id="3294" filePath="C:\Users\owner\Dropbox\Work\png\animation T=1.03294.png" arWidth="640" arHeight="480" duration="0" songTitle="" songArtist="" songAlbum="" songCopyrightUrl="" songArtistUrl="" songAudioFileUrl="" stabilizationMode="0" mediaItemType="2" />
    <MediaItem id="3295" filePath="C:\Users\owner\Dropbox\Work\png\animation T=1.03295.png" arWidth="640" arHeight="480" duration="0" songTitle="" songArtist="" songAlbum="" songCopyrightUrl="" songArtistUrl="" songAudioFileUrl="" stabilizationMode="0" mediaItemType="2" />
    <MediaItem id="3296" filePath="C:\Users\owner\Dropbox\Work\png\animation T=1.03296.png" arWidth="640" arHeight="480" duration="0" songTitle="" songArtist="" songAlbum="" songCopyrightUrl="" songArtistUrl="" songAudioFileUrl="" stabilizationMode="0" mediaItemType="2" />
    <MediaItem id="3297" filePath="C:\Users\owner\Dropbox\Work\png\animation T=1.03297.png" arWidth="640" arHeight="480" duration="0" songTitle="" songArtist="" songAlbum="" songCopyrightUrl="" songArtistUrl="" songAudioFileUrl="" stabilizationMode="0" mediaItemType="2" />
    <MediaItem id="3298" filePath="C:\Users\owner\Dropbox\Work\png\animation T=1.03298.png" arWidth="640" arHeight="480" duration="0" songTitle="" songArtist="" songAlbum="" songCopyrightUrl="" songArtistUrl="" songAudioFileUrl="" stabilizationMode="0" mediaItemType="2" />
    <MediaItem id="3299" filePath="C:\Users\owner\Dropbox\Work\png\animation T=1.03299.png" arWidth="640" arHeight="480" duration="0" songTitle="" songArtist="" songAlbum="" songCopyrightUrl="" songArtistUrl="" songAudioFileUrl="" stabilizationMode="0" mediaItemType="2" />
    <MediaItem id="3300" filePath="C:\Users\owner\Dropbox\Work\png\animation T=1.03300.png" arWidth="640" arHeight="480" duration="0" songTitle="" songArtist="" songAlbum="" songCopyrightUrl="" songArtistUrl="" songAudioFileUrl="" stabilizationMode="0" mediaItemType="2" />
    <MediaItem id="3301" filePath="C:\Users\owner\Dropbox\Work\png\animation T=1.03301.png" arWidth="640" arHeight="480" duration="0" songTitle="" songArtist="" songAlbum="" songCopyrightUrl="" songArtistUrl="" songAudioFileUrl="" stabilizationMode="0" mediaItemType="2" />
    <MediaItem id="3302" filePath="C:\Users\owner\Dropbox\Work\png\animation T=1.03302.png" arWidth="640" arHeight="480" duration="0" songTitle="" songArtist="" songAlbum="" songCopyrightUrl="" songArtistUrl="" songAudioFileUrl="" stabilizationMode="0" mediaItemType="2" />
    <MediaItem id="3303" filePath="C:\Users\owner\Dropbox\Work\png\animation T=1.03303.png" arWidth="640" arHeight="480" duration="0" songTitle="" songArtist="" songAlbum="" songCopyrightUrl="" songArtistUrl="" songAudioFileUrl="" stabilizationMode="0" mediaItemType="2" />
    <MediaItem id="3304" filePath="C:\Users\owner\Dropbox\Work\png\animation T=1.03304.png" arWidth="640" arHeight="480" duration="0" songTitle="" songArtist="" songAlbum="" songCopyrightUrl="" songArtistUrl="" songAudioFileUrl="" stabilizationMode="0" mediaItemType="2" />
    <MediaItem id="3305" filePath="C:\Users\owner\Dropbox\Work\png\animation T=1.03305.png" arWidth="640" arHeight="480" duration="0" songTitle="" songArtist="" songAlbum="" songCopyrightUrl="" songArtistUrl="" songAudioFileUrl="" stabilizationMode="0" mediaItemType="2" />
    <MediaItem id="3306" filePath="C:\Users\owner\Dropbox\Work\png\animation T=1.03306.png" arWidth="640" arHeight="480" duration="0" songTitle="" songArtist="" songAlbum="" songCopyrightUrl="" songArtistUrl="" songAudioFileUrl="" stabilizationMode="0" mediaItemType="2" />
    <MediaItem id="3307" filePath="C:\Users\owner\Dropbox\Work\png\animation T=1.03307.png" arWidth="640" arHeight="480" duration="0" songTitle="" songArtist="" songAlbum="" songCopyrightUrl="" songArtistUrl="" songAudioFileUrl="" stabilizationMode="0" mediaItemType="2" />
    <MediaItem id="3308" filePath="C:\Users\owner\Dropbox\Work\png\animation T=1.03308.png" arWidth="640" arHeight="480" duration="0" songTitle="" songArtist="" songAlbum="" songCopyrightUrl="" songArtistUrl="" songAudioFileUrl="" stabilizationMode="0" mediaItemType="2" />
    <MediaItem id="3309" filePath="C:\Users\owner\Dropbox\Work\png\animation T=1.03309.png" arWidth="640" arHeight="480" duration="0" songTitle="" songArtist="" songAlbum="" songCopyrightUrl="" songArtistUrl="" songAudioFileUrl="" stabilizationMode="0" mediaItemType="2" />
    <MediaItem id="3310" filePath="C:\Users\owner\Dropbox\Work\png\animation T=1.03310.png" arWidth="640" arHeight="480" duration="0" songTitle="" songArtist="" songAlbum="" songCopyrightUrl="" songArtistUrl="" songAudioFileUrl="" stabilizationMode="0" mediaItemType="2" />
    <MediaItem id="3311" filePath="C:\Users\owner\Dropbox\Work\png\animation T=1.03311.png" arWidth="640" arHeight="480" duration="0" songTitle="" songArtist="" songAlbum="" songCopyrightUrl="" songArtistUrl="" songAudioFileUrl="" stabilizationMode="0" mediaItemType="2" />
    <MediaItem id="3312" filePath="C:\Users\owner\Dropbox\Work\png\animation T=1.03312.png" arWidth="640" arHeight="480" duration="0" songTitle="" songArtist="" songAlbum="" songCopyrightUrl="" songArtistUrl="" songAudioFileUrl="" stabilizationMode="0" mediaItemType="2" />
    <MediaItem id="3313" filePath="C:\Users\owner\Dropbox\Work\png\animation T=1.03313.png" arWidth="640" arHeight="480" duration="0" songTitle="" songArtist="" songAlbum="" songCopyrightUrl="" songArtistUrl="" songAudioFileUrl="" stabilizationMode="0" mediaItemType="2" />
    <MediaItem id="3314" filePath="C:\Users\owner\Dropbox\Work\png\animation T=1.03314.png" arWidth="640" arHeight="480" duration="0" songTitle="" songArtist="" songAlbum="" songCopyrightUrl="" songArtistUrl="" songAudioFileUrl="" stabilizationMode="0" mediaItemType="2" />
    <MediaItem id="3315" filePath="C:\Users\owner\Dropbox\Work\png\animation T=1.03315.png" arWidth="640" arHeight="480" duration="0" songTitle="" songArtist="" songAlbum="" songCopyrightUrl="" songArtistUrl="" songAudioFileUrl="" stabilizationMode="0" mediaItemType="2" />
    <MediaItem id="3316" filePath="C:\Users\owner\Dropbox\Work\png\animation T=1.03316.png" arWidth="640" arHeight="480" duration="0" songTitle="" songArtist="" songAlbum="" songCopyrightUrl="" songArtistUrl="" songAudioFileUrl="" stabilizationMode="0" mediaItemType="2" />
    <MediaItem id="3317" filePath="C:\Users\owner\Dropbox\Work\png\animation T=1.03317.png" arWidth="640" arHeight="480" duration="0" songTitle="" songArtist="" songAlbum="" songCopyrightUrl="" songArtistUrl="" songAudioFileUrl="" stabilizationMode="0" mediaItemType="2" />
    <MediaItem id="3318" filePath="C:\Users\owner\Dropbox\Work\png\animation T=1.03318.png" arWidth="640" arHeight="480" duration="0" songTitle="" songArtist="" songAlbum="" songCopyrightUrl="" songArtistUrl="" songAudioFileUrl="" stabilizationMode="0" mediaItemType="2" />
    <MediaItem id="3319" filePath="C:\Users\owner\Dropbox\Work\png\animation T=1.03319.png" arWidth="640" arHeight="480" duration="0" songTitle="" songArtist="" songAlbum="" songCopyrightUrl="" songArtistUrl="" songAudioFileUrl="" stabilizationMode="0" mediaItemType="2" />
    <MediaItem id="3320" filePath="C:\Users\owner\Dropbox\Work\png\animation T=1.03320.png" arWidth="640" arHeight="480" duration="0" songTitle="" songArtist="" songAlbum="" songCopyrightUrl="" songArtistUrl="" songAudioFileUrl="" stabilizationMode="0" mediaItemType="2" />
    <MediaItem id="3321" filePath="C:\Users\owner\Dropbox\Work\png\animation T=1.03321.png" arWidth="640" arHeight="480" duration="0" songTitle="" songArtist="" songAlbum="" songCopyrightUrl="" songArtistUrl="" songAudioFileUrl="" stabilizationMode="0" mediaItemType="2" />
    <MediaItem id="3322" filePath="C:\Users\owner\Dropbox\Work\png\animation T=1.03322.png" arWidth="640" arHeight="480" duration="0" songTitle="" songArtist="" songAlbum="" songCopyrightUrl="" songArtistUrl="" songAudioFileUrl="" stabilizationMode="0" mediaItemType="2" />
    <MediaItem id="3323" filePath="C:\Users\owner\Dropbox\Work\png\animation T=1.03323.png" arWidth="640" arHeight="480" duration="0" songTitle="" songArtist="" songAlbum="" songCopyrightUrl="" songArtistUrl="" songAudioFileUrl="" stabilizationMode="0" mediaItemType="2" />
    <MediaItem id="3324" filePath="C:\Users\owner\Dropbox\Work\png\animation T=1.03324.png" arWidth="640" arHeight="480" duration="0" songTitle="" songArtist="" songAlbum="" songCopyrightUrl="" songArtistUrl="" songAudioFileUrl="" stabilizationMode="0" mediaItemType="2" />
    <MediaItem id="3325" filePath="C:\Users\owner\Dropbox\Work\png\animation T=1.03325.png" arWidth="640" arHeight="480" duration="0" songTitle="" songArtist="" songAlbum="" songCopyrightUrl="" songArtistUrl="" songAudioFileUrl="" stabilizationMode="0" mediaItemType="2" />
    <MediaItem id="3326" filePath="C:\Users\owner\Dropbox\Work\png\animation T=1.03326.png" arWidth="640" arHeight="480" duration="0" songTitle="" songArtist="" songAlbum="" songCopyrightUrl="" songArtistUrl="" songAudioFileUrl="" stabilizationMode="0" mediaItemType="2" />
    <MediaItem id="3327" filePath="C:\Users\owner\Dropbox\Work\png\animation T=1.03327.png" arWidth="640" arHeight="480" duration="0" songTitle="" songArtist="" songAlbum="" songCopyrightUrl="" songArtistUrl="" songAudioFileUrl="" stabilizationMode="0" mediaItemType="2" />
    <MediaItem id="3328" filePath="C:\Users\owner\Dropbox\Work\png\animation T=1.03328.png" arWidth="640" arHeight="480" duration="0" songTitle="" songArtist="" songAlbum="" songCopyrightUrl="" songArtistUrl="" songAudioFileUrl="" stabilizationMode="0" mediaItemType="2" />
    <MediaItem id="3329" filePath="C:\Users\owner\Dropbox\Work\png\animation T=1.03329.png" arWidth="640" arHeight="480" duration="0" songTitle="" songArtist="" songAlbum="" songCopyrightUrl="" songArtistUrl="" songAudioFileUrl="" stabilizationMode="0" mediaItemType="2" />
    <MediaItem id="3330" filePath="C:\Users\owner\Dropbox\Work\png\animation T=1.03330.png" arWidth="640" arHeight="480" duration="0" songTitle="" songArtist="" songAlbum="" songCopyrightUrl="" songArtistUrl="" songAudioFileUrl="" stabilizationMode="0" mediaItemType="2" />
    <MediaItem id="3331" filePath="C:\Users\owner\Dropbox\Work\png\animation T=1.03331.png" arWidth="640" arHeight="480" duration="0" songTitle="" songArtist="" songAlbum="" songCopyrightUrl="" songArtistUrl="" songAudioFileUrl="" stabilizationMode="0" mediaItemType="2" />
    <MediaItem id="3332" filePath="C:\Users\owner\Dropbox\Work\png\animation T=1.03332.png" arWidth="640" arHeight="480" duration="0" songTitle="" songArtist="" songAlbum="" songCopyrightUrl="" songArtistUrl="" songAudioFileUrl="" stabilizationMode="0" mediaItemType="2" />
    <MediaItem id="3333" filePath="C:\Users\owner\Dropbox\Work\png\animation T=1.03333.png" arWidth="640" arHeight="480" duration="0" songTitle="" songArtist="" songAlbum="" songCopyrightUrl="" songArtistUrl="" songAudioFileUrl="" stabilizationMode="0" mediaItemType="2" />
    <MediaItem id="3334" filePath="C:\Users\owner\Dropbox\Work\png\animation T=1.03334.png" arWidth="640" arHeight="480" duration="0" songTitle="" songArtist="" songAlbum="" songCopyrightUrl="" songArtistUrl="" songAudioFileUrl="" stabilizationMode="0" mediaItemType="2" />
    <MediaItem id="3335" filePath="C:\Users\owner\Dropbox\Work\png\animation T=1.03335.png" arWidth="640" arHeight="480" duration="0" songTitle="" songArtist="" songAlbum="" songCopyrightUrl="" songArtistUrl="" songAudioFileUrl="" stabilizationMode="0" mediaItemType="2" />
    <MediaItem id="3336" filePath="C:\Users\owner\Dropbox\Work\png\animation T=1.03336.png" arWidth="640" arHeight="480" duration="0" songTitle="" songArtist="" songAlbum="" songCopyrightUrl="" songArtistUrl="" songAudioFileUrl="" stabilizationMode="0" mediaItemType="2" />
    <MediaItem id="3337" filePath="C:\Users\owner\Dropbox\Work\png\animation T=1.03337.png" arWidth="640" arHeight="480" duration="0" songTitle="" songArtist="" songAlbum="" songCopyrightUrl="" songArtistUrl="" songAudioFileUrl="" stabilizationMode="0" mediaItemType="2" />
    <MediaItem id="3338" filePath="C:\Users\owner\Dropbox\Work\png\animation T=1.03338.png" arWidth="640" arHeight="480" duration="0" songTitle="" songArtist="" songAlbum="" songCopyrightUrl="" songArtistUrl="" songAudioFileUrl="" stabilizationMode="0" mediaItemType="2" />
    <MediaItem id="3339" filePath="C:\Users\owner\Dropbox\Work\png\animation T=1.03339.png" arWidth="640" arHeight="480" duration="0" songTitle="" songArtist="" songAlbum="" songCopyrightUrl="" songArtistUrl="" songAudioFileUrl="" stabilizationMode="0" mediaItemType="2" />
    <MediaItem id="3340" filePath="C:\Users\owner\Dropbox\Work\png\animation T=1.03340.png" arWidth="640" arHeight="480" duration="0" songTitle="" songArtist="" songAlbum="" songCopyrightUrl="" songArtistUrl="" songAudioFileUrl="" stabilizationMode="0" mediaItemType="2" />
    <MediaItem id="3341" filePath="C:\Users\owner\Dropbox\Work\png\animation T=1.03341.png" arWidth="640" arHeight="480" duration="0" songTitle="" songArtist="" songAlbum="" songCopyrightUrl="" songArtistUrl="" songAudioFileUrl="" stabilizationMode="0" mediaItemType="2" />
    <MediaItem id="3342" filePath="C:\Users\owner\Dropbox\Work\png\animation T=1.03342.png" arWidth="640" arHeight="480" duration="0" songTitle="" songArtist="" songAlbum="" songCopyrightUrl="" songArtistUrl="" songAudioFileUrl="" stabilizationMode="0" mediaItemType="2" />
    <MediaItem id="3343" filePath="C:\Users\owner\Dropbox\Work\png\animation T=1.03343.png" arWidth="640" arHeight="480" duration="0" songTitle="" songArtist="" songAlbum="" songCopyrightUrl="" songArtistUrl="" songAudioFileUrl="" stabilizationMode="0" mediaItemType="2" />
    <MediaItem id="3344" filePath="C:\Users\owner\Dropbox\Work\png\animation T=1.03344.png" arWidth="640" arHeight="480" duration="0" songTitle="" songArtist="" songAlbum="" songCopyrightUrl="" songArtistUrl="" songAudioFileUrl="" stabilizationMode="0" mediaItemType="2" />
    <MediaItem id="3345" filePath="C:\Users\owner\Dropbox\Work\png\animation T=1.03345.png" arWidth="640" arHeight="480" duration="0" songTitle="" songArtist="" songAlbum="" songCopyrightUrl="" songArtistUrl="" songAudioFileUrl="" stabilizationMode="0" mediaItemType="2" />
    <MediaItem id="3346" filePath="C:\Users\owner\Dropbox\Work\png\animation T=1.03346.png" arWidth="640" arHeight="480" duration="0" songTitle="" songArtist="" songAlbum="" songCopyrightUrl="" songArtistUrl="" songAudioFileUrl="" stabilizationMode="0" mediaItemType="2" />
    <MediaItem id="3347" filePath="C:\Users\owner\Dropbox\Work\png\animation T=1.03347.png" arWidth="640" arHeight="480" duration="0" songTitle="" songArtist="" songAlbum="" songCopyrightUrl="" songArtistUrl="" songAudioFileUrl="" stabilizationMode="0" mediaItemType="2" />
    <MediaItem id="3348" filePath="C:\Users\owner\Dropbox\Work\png\animation T=1.03348.png" arWidth="640" arHeight="480" duration="0" songTitle="" songArtist="" songAlbum="" songCopyrightUrl="" songArtistUrl="" songAudioFileUrl="" stabilizationMode="0" mediaItemType="2" />
    <MediaItem id="3349" filePath="C:\Users\owner\Dropbox\Work\png\animation T=1.03349.png" arWidth="640" arHeight="480" duration="0" songTitle="" songArtist="" songAlbum="" songCopyrightUrl="" songArtistUrl="" songAudioFileUrl="" stabilizationMode="0" mediaItemType="2" />
    <MediaItem id="3350" filePath="C:\Users\owner\Dropbox\Work\png\animation T=1.03350.png" arWidth="640" arHeight="480" duration="0" songTitle="" songArtist="" songAlbum="" songCopyrightUrl="" songArtistUrl="" songAudioFileUrl="" stabilizationMode="0" mediaItemType="2" />
    <MediaItem id="3351" filePath="C:\Users\owner\Dropbox\Work\png\animation T=1.03351.png" arWidth="640" arHeight="480" duration="0" songTitle="" songArtist="" songAlbum="" songCopyrightUrl="" songArtistUrl="" songAudioFileUrl="" stabilizationMode="0" mediaItemType="2" />
    <MediaItem id="3352" filePath="C:\Users\owner\Dropbox\Work\png\animation T=1.03352.png" arWidth="640" arHeight="480" duration="0" songTitle="" songArtist="" songAlbum="" songCopyrightUrl="" songArtistUrl="" songAudioFileUrl="" stabilizationMode="0" mediaItemType="2" />
    <MediaItem id="3353" filePath="C:\Users\owner\Dropbox\Work\png\animation T=1.03353.png" arWidth="640" arHeight="480" duration="0" songTitle="" songArtist="" songAlbum="" songCopyrightUrl="" songArtistUrl="" songAudioFileUrl="" stabilizationMode="0" mediaItemType="2" />
    <MediaItem id="3354" filePath="C:\Users\owner\Dropbox\Work\png\animation T=1.03354.png" arWidth="640" arHeight="480" duration="0" songTitle="" songArtist="" songAlbum="" songCopyrightUrl="" songArtistUrl="" songAudioFileUrl="" stabilizationMode="0" mediaItemType="2" />
    <MediaItem id="3355" filePath="C:\Users\owner\Dropbox\Work\png\animation T=1.03355.png" arWidth="640" arHeight="480" duration="0" songTitle="" songArtist="" songAlbum="" songCopyrightUrl="" songArtistUrl="" songAudioFileUrl="" stabilizationMode="0" mediaItemType="2" />
    <MediaItem id="3356" filePath="C:\Users\owner\Dropbox\Work\png\animation T=1.03356.png" arWidth="640" arHeight="480" duration="0" songTitle="" songArtist="" songAlbum="" songCopyrightUrl="" songArtistUrl="" songAudioFileUrl="" stabilizationMode="0" mediaItemType="2" />
    <MediaItem id="3357" filePath="C:\Users\owner\Dropbox\Work\png\animation T=1.03357.png" arWidth="640" arHeight="480" duration="0" songTitle="" songArtist="" songAlbum="" songCopyrightUrl="" songArtistUrl="" songAudioFileUrl="" stabilizationMode="0" mediaItemType="2" />
    <MediaItem id="3358" filePath="C:\Users\owner\Dropbox\Work\png\animation T=1.03358.png" arWidth="640" arHeight="480" duration="0" songTitle="" songArtist="" songAlbum="" songCopyrightUrl="" songArtistUrl="" songAudioFileUrl="" stabilizationMode="0" mediaItemType="2" />
    <MediaItem id="3359" filePath="C:\Users\owner\Dropbox\Work\png\animation T=1.03359.png" arWidth="640" arHeight="480" duration="0" songTitle="" songArtist="" songAlbum="" songCopyrightUrl="" songArtistUrl="" songAudioFileUrl="" stabilizationMode="0" mediaItemType="2" />
    <MediaItem id="3360" filePath="C:\Users\owner\Dropbox\Work\png\animation T=1.03360.png" arWidth="640" arHeight="480" duration="0" songTitle="" songArtist="" songAlbum="" songCopyrightUrl="" songArtistUrl="" songAudioFileUrl="" stabilizationMode="0" mediaItemType="2" />
    <MediaItem id="3361" filePath="C:\Users\owner\Dropbox\Work\png\animation T=1.03361.png" arWidth="640" arHeight="480" duration="0" songTitle="" songArtist="" songAlbum="" songCopyrightUrl="" songArtistUrl="" songAudioFileUrl="" stabilizationMode="0" mediaItemType="2" />
    <MediaItem id="3362" filePath="C:\Users\owner\Dropbox\Work\png\animation T=1.03362.png" arWidth="640" arHeight="480" duration="0" songTitle="" songArtist="" songAlbum="" songCopyrightUrl="" songArtistUrl="" songAudioFileUrl="" stabilizationMode="0" mediaItemType="2" />
    <MediaItem id="3363" filePath="C:\Users\owner\Dropbox\Work\png\animation T=1.03363.png" arWidth="640" arHeight="480" duration="0" songTitle="" songArtist="" songAlbum="" songCopyrightUrl="" songArtistUrl="" songAudioFileUrl="" stabilizationMode="0" mediaItemType="2" />
    <MediaItem id="3364" filePath="C:\Users\owner\Dropbox\Work\png\animation T=1.03364.png" arWidth="640" arHeight="480" duration="0" songTitle="" songArtist="" songAlbum="" songCopyrightUrl="" songArtistUrl="" songAudioFileUrl="" stabilizationMode="0" mediaItemType="2" />
    <MediaItem id="3365" filePath="C:\Users\owner\Dropbox\Work\png\animation T=1.03365.png" arWidth="640" arHeight="480" duration="0" songTitle="" songArtist="" songAlbum="" songCopyrightUrl="" songArtistUrl="" songAudioFileUrl="" stabilizationMode="0" mediaItemType="2" />
    <MediaItem id="3366" filePath="C:\Users\owner\Dropbox\Work\png\animation T=1.03366.png" arWidth="640" arHeight="480" duration="0" songTitle="" songArtist="" songAlbum="" songCopyrightUrl="" songArtistUrl="" songAudioFileUrl="" stabilizationMode="0" mediaItemType="2" />
    <MediaItem id="3367" filePath="C:\Users\owner\Dropbox\Work\png\animation T=1.03367.png" arWidth="640" arHeight="480" duration="0" songTitle="" songArtist="" songAlbum="" songCopyrightUrl="" songArtistUrl="" songAudioFileUrl="" stabilizationMode="0" mediaItemType="2" />
    <MediaItem id="3368" filePath="C:\Users\owner\Dropbox\Work\png\animation T=1.03368.png" arWidth="640" arHeight="480" duration="0" songTitle="" songArtist="" songAlbum="" songCopyrightUrl="" songArtistUrl="" songAudioFileUrl="" stabilizationMode="0" mediaItemType="2" />
    <MediaItem id="3369" filePath="C:\Users\owner\Dropbox\Work\png\animation T=1.03369.png" arWidth="640" arHeight="480" duration="0" songTitle="" songArtist="" songAlbum="" songCopyrightUrl="" songArtistUrl="" songAudioFileUrl="" stabilizationMode="0" mediaItemType="2" />
    <MediaItem id="3370" filePath="C:\Users\owner\Dropbox\Work\png\animation T=1.03370.png" arWidth="640" arHeight="480" duration="0" songTitle="" songArtist="" songAlbum="" songCopyrightUrl="" songArtistUrl="" songAudioFileUrl="" stabilizationMode="0" mediaItemType="2" />
    <MediaItem id="3371" filePath="C:\Users\owner\Dropbox\Work\png\animation T=1.03371.png" arWidth="640" arHeight="480" duration="0" songTitle="" songArtist="" songAlbum="" songCopyrightUrl="" songArtistUrl="" songAudioFileUrl="" stabilizationMode="0" mediaItemType="2" />
    <MediaItem id="3372" filePath="C:\Users\owner\Dropbox\Work\png\animation T=1.03372.png" arWidth="640" arHeight="480" duration="0" songTitle="" songArtist="" songAlbum="" songCopyrightUrl="" songArtistUrl="" songAudioFileUrl="" stabilizationMode="0" mediaItemType="2" />
    <MediaItem id="3373" filePath="C:\Users\owner\Dropbox\Work\png\animation T=1.03373.png" arWidth="640" arHeight="480" duration="0" songTitle="" songArtist="" songAlbum="" songCopyrightUrl="" songArtistUrl="" songAudioFileUrl="" stabilizationMode="0" mediaItemType="2" />
    <MediaItem id="3374" filePath="C:\Users\owner\Dropbox\Work\png\animation T=1.03374.png" arWidth="640" arHeight="480" duration="0" songTitle="" songArtist="" songAlbum="" songCopyrightUrl="" songArtistUrl="" songAudioFileUrl="" stabilizationMode="0" mediaItemType="2" />
    <MediaItem id="3375" filePath="C:\Users\owner\Dropbox\Work\png\animation T=1.03375.png" arWidth="640" arHeight="480" duration="0" songTitle="" songArtist="" songAlbum="" songCopyrightUrl="" songArtistUrl="" songAudioFileUrl="" stabilizationMode="0" mediaItemType="2" />
    <MediaItem id="3376" filePath="C:\Users\owner\Dropbox\Work\png\animation T=1.03376.png" arWidth="640" arHeight="480" duration="0" songTitle="" songArtist="" songAlbum="" songCopyrightUrl="" songArtistUrl="" songAudioFileUrl="" stabilizationMode="0" mediaItemType="2" />
    <MediaItem id="3377" filePath="C:\Users\owner\Dropbox\Work\png\animation T=1.03377.png" arWidth="640" arHeight="480" duration="0" songTitle="" songArtist="" songAlbum="" songCopyrightUrl="" songArtistUrl="" songAudioFileUrl="" stabilizationMode="0" mediaItemType="2" />
    <MediaItem id="3378" filePath="C:\Users\owner\Dropbox\Work\png\animation T=1.03378.png" arWidth="640" arHeight="480" duration="0" songTitle="" songArtist="" songAlbum="" songCopyrightUrl="" songArtistUrl="" songAudioFileUrl="" stabilizationMode="0" mediaItemType="2" />
    <MediaItem id="3379" filePath="C:\Users\owner\Dropbox\Work\png\animation T=1.03379.png" arWidth="640" arHeight="480" duration="0" songTitle="" songArtist="" songAlbum="" songCopyrightUrl="" songArtistUrl="" songAudioFileUrl="" stabilizationMode="0" mediaItemType="2" />
    <MediaItem id="3380" filePath="C:\Users\owner\Dropbox\Work\png\animation T=1.03380.png" arWidth="640" arHeight="480" duration="0" songTitle="" songArtist="" songAlbum="" songCopyrightUrl="" songArtistUrl="" songAudioFileUrl="" stabilizationMode="0" mediaItemType="2" />
    <MediaItem id="3381" filePath="C:\Users\owner\Dropbox\Work\png\animation T=1.03381.png" arWidth="640" arHeight="480" duration="0" songTitle="" songArtist="" songAlbum="" songCopyrightUrl="" songArtistUrl="" songAudioFileUrl="" stabilizationMode="0" mediaItemType="2" />
    <MediaItem id="3382" filePath="C:\Users\owner\Dropbox\Work\png\animation T=1.03382.png" arWidth="640" arHeight="480" duration="0" songTitle="" songArtist="" songAlbum="" songCopyrightUrl="" songArtistUrl="" songAudioFileUrl="" stabilizationMode="0" mediaItemType="2" />
    <MediaItem id="3383" filePath="C:\Users\owner\Dropbox\Work\png\animation T=1.03383.png" arWidth="640" arHeight="480" duration="0" songTitle="" songArtist="" songAlbum="" songCopyrightUrl="" songArtistUrl="" songAudioFileUrl="" stabilizationMode="0" mediaItemType="2" />
    <MediaItem id="3384" filePath="C:\Users\owner\Dropbox\Work\png\animation T=1.03384.png" arWidth="640" arHeight="480" duration="0" songTitle="" songArtist="" songAlbum="" songCopyrightUrl="" songArtistUrl="" songAudioFileUrl="" stabilizationMode="0" mediaItemType="2" />
    <MediaItem id="3385" filePath="C:\Users\owner\Dropbox\Work\png\animation T=1.03385.png" arWidth="640" arHeight="480" duration="0" songTitle="" songArtist="" songAlbum="" songCopyrightUrl="" songArtistUrl="" songAudioFileUrl="" stabilizationMode="0" mediaItemType="2" />
    <MediaItem id="3386" filePath="C:\Users\owner\Dropbox\Work\png\animation T=1.03386.png" arWidth="640" arHeight="480" duration="0" songTitle="" songArtist="" songAlbum="" songCopyrightUrl="" songArtistUrl="" songAudioFileUrl="" stabilizationMode="0" mediaItemType="2" />
    <MediaItem id="3387" filePath="C:\Users\owner\Dropbox\Work\png\animation T=1.03387.png" arWidth="640" arHeight="480" duration="0" songTitle="" songArtist="" songAlbum="" songCopyrightUrl="" songArtistUrl="" songAudioFileUrl="" stabilizationMode="0" mediaItemType="2" />
    <MediaItem id="3388" filePath="C:\Users\owner\Dropbox\Work\png\animation T=1.03388.png" arWidth="640" arHeight="480" duration="0" songTitle="" songArtist="" songAlbum="" songCopyrightUrl="" songArtistUrl="" songAudioFileUrl="" stabilizationMode="0" mediaItemType="2" />
    <MediaItem id="3389" filePath="C:\Users\owner\Dropbox\Work\png\animation T=1.03389.png" arWidth="640" arHeight="480" duration="0" songTitle="" songArtist="" songAlbum="" songCopyrightUrl="" songArtistUrl="" songAudioFileUrl="" stabilizationMode="0" mediaItemType="2" />
    <MediaItem id="3390" filePath="C:\Users\owner\Dropbox\Work\png\animation T=1.03390.png" arWidth="640" arHeight="480" duration="0" songTitle="" songArtist="" songAlbum="" songCopyrightUrl="" songArtistUrl="" songAudioFileUrl="" stabilizationMode="0" mediaItemType="2" />
    <MediaItem id="3391" filePath="C:\Users\owner\Dropbox\Work\png\animation T=1.03391.png" arWidth="640" arHeight="480" duration="0" songTitle="" songArtist="" songAlbum="" songCopyrightUrl="" songArtistUrl="" songAudioFileUrl="" stabilizationMode="0" mediaItemType="2" />
    <MediaItem id="3392" filePath="C:\Users\owner\Dropbox\Work\png\animation T=1.03392.png" arWidth="640" arHeight="480" duration="0" songTitle="" songArtist="" songAlbum="" songCopyrightUrl="" songArtistUrl="" songAudioFileUrl="" stabilizationMode="0" mediaItemType="2" />
    <MediaItem id="3393" filePath="C:\Users\owner\Dropbox\Work\png\animation T=1.03393.png" arWidth="640" arHeight="480" duration="0" songTitle="" songArtist="" songAlbum="" songCopyrightUrl="" songArtistUrl="" songAudioFileUrl="" stabilizationMode="0" mediaItemType="2" />
    <MediaItem id="3394" filePath="C:\Users\owner\Dropbox\Work\png\animation T=1.03394.png" arWidth="640" arHeight="480" duration="0" songTitle="" songArtist="" songAlbum="" songCopyrightUrl="" songArtistUrl="" songAudioFileUrl="" stabilizationMode="0" mediaItemType="2" />
    <MediaItem id="3395" filePath="C:\Users\owner\Dropbox\Work\png\animation T=1.03395.png" arWidth="640" arHeight="480" duration="0" songTitle="" songArtist="" songAlbum="" songCopyrightUrl="" songArtistUrl="" songAudioFileUrl="" stabilizationMode="0" mediaItemType="2" />
    <MediaItem id="3396" filePath="C:\Users\owner\Dropbox\Work\png\animation T=1.03396.png" arWidth="640" arHeight="480" duration="0" songTitle="" songArtist="" songAlbum="" songCopyrightUrl="" songArtistUrl="" songAudioFileUrl="" stabilizationMode="0" mediaItemType="2" />
    <MediaItem id="3397" filePath="C:\Users\owner\Dropbox\Work\png\animation T=1.03397.png" arWidth="640" arHeight="480" duration="0" songTitle="" songArtist="" songAlbum="" songCopyrightUrl="" songArtistUrl="" songAudioFileUrl="" stabilizationMode="0" mediaItemType="2" />
    <MediaItem id="3398" filePath="C:\Users\owner\Dropbox\Work\png\animation T=1.03398.png" arWidth="640" arHeight="480" duration="0" songTitle="" songArtist="" songAlbum="" songCopyrightUrl="" songArtistUrl="" songAudioFileUrl="" stabilizationMode="0" mediaItemType="2" />
    <MediaItem id="3399" filePath="C:\Users\owner\Dropbox\Work\png\animation T=1.03399.png" arWidth="640" arHeight="480" duration="0" songTitle="" songArtist="" songAlbum="" songCopyrightUrl="" songArtistUrl="" songAudioFileUrl="" stabilizationMode="0" mediaItemType="2" />
    <MediaItem id="3400" filePath="C:\Users\owner\Dropbox\Work\png\animation T=1.03400.png" arWidth="640" arHeight="480" duration="0" songTitle="" songArtist="" songAlbum="" songCopyrightUrl="" songArtistUrl="" songAudioFileUrl="" stabilizationMode="0" mediaItemType="2" />
    <MediaItem id="3401" filePath="C:\Users\owner\Dropbox\Work\png\animation T=1.03401.png" arWidth="640" arHeight="480" duration="0" songTitle="" songArtist="" songAlbum="" songCopyrightUrl="" songArtistUrl="" songAudioFileUrl="" stabilizationMode="0" mediaItemType="2" />
    <MediaItem id="3402" filePath="C:\Users\owner\Dropbox\Work\png\animation T=1.03402.png" arWidth="640" arHeight="480" duration="0" songTitle="" songArtist="" songAlbum="" songCopyrightUrl="" songArtistUrl="" songAudioFileUrl="" stabilizationMode="0" mediaItemType="2" />
    <MediaItem id="3403" filePath="C:\Users\owner\Dropbox\Work\png\animation T=1.03403.png" arWidth="640" arHeight="480" duration="0" songTitle="" songArtist="" songAlbum="" songCopyrightUrl="" songArtistUrl="" songAudioFileUrl="" stabilizationMode="0" mediaItemType="2" />
    <MediaItem id="3404" filePath="C:\Users\owner\Dropbox\Work\png\animation T=1.03404.png" arWidth="640" arHeight="480" duration="0" songTitle="" songArtist="" songAlbum="" songCopyrightUrl="" songArtistUrl="" songAudioFileUrl="" stabilizationMode="0" mediaItemType="2" />
    <MediaItem id="3405" filePath="C:\Users\owner\Dropbox\Work\png\animation T=1.03405.png" arWidth="640" arHeight="480" duration="0" songTitle="" songArtist="" songAlbum="" songCopyrightUrl="" songArtistUrl="" songAudioFileUrl="" stabilizationMode="0" mediaItemType="2" />
    <MediaItem id="3406" filePath="C:\Users\owner\Dropbox\Work\png\animation T=1.03406.png" arWidth="640" arHeight="480" duration="0" songTitle="" songArtist="" songAlbum="" songCopyrightUrl="" songArtistUrl="" songAudioFileUrl="" stabilizationMode="0" mediaItemType="2" />
    <MediaItem id="3407" filePath="C:\Users\owner\Dropbox\Work\png\animation T=1.03407.png" arWidth="640" arHeight="480" duration="0" songTitle="" songArtist="" songAlbum="" songCopyrightUrl="" songArtistUrl="" songAudioFileUrl="" stabilizationMode="0" mediaItemType="2" />
    <MediaItem id="3408" filePath="C:\Users\owner\Dropbox\Work\png\animation T=1.03408.png" arWidth="640" arHeight="480" duration="0" songTitle="" songArtist="" songAlbum="" songCopyrightUrl="" songArtistUrl="" songAudioFileUrl="" stabilizationMode="0" mediaItemType="2" />
    <MediaItem id="3409" filePath="C:\Users\owner\Dropbox\Work\png\animation T=1.03409.png" arWidth="640" arHeight="480" duration="0" songTitle="" songArtist="" songAlbum="" songCopyrightUrl="" songArtistUrl="" songAudioFileUrl="" stabilizationMode="0" mediaItemType="2" />
    <MediaItem id="3410" filePath="C:\Users\owner\Dropbox\Work\png\animation T=1.03410.png" arWidth="640" arHeight="480" duration="0" songTitle="" songArtist="" songAlbum="" songCopyrightUrl="" songArtistUrl="" songAudioFileUrl="" stabilizationMode="0" mediaItemType="2" />
    <MediaItem id="3411" filePath="C:\Users\owner\Dropbox\Work\png\animation T=1.03411.png" arWidth="640" arHeight="480" duration="0" songTitle="" songArtist="" songAlbum="" songCopyrightUrl="" songArtistUrl="" songAudioFileUrl="" stabilizationMode="0" mediaItemType="2" />
    <MediaItem id="3412" filePath="C:\Users\owner\Dropbox\Work\png\animation T=1.03412.png" arWidth="640" arHeight="480" duration="0" songTitle="" songArtist="" songAlbum="" songCopyrightUrl="" songArtistUrl="" songAudioFileUrl="" stabilizationMode="0" mediaItemType="2" />
    <MediaItem id="3413" filePath="C:\Users\owner\Dropbox\Work\png\animation T=1.03413.png" arWidth="640" arHeight="480" duration="0" songTitle="" songArtist="" songAlbum="" songCopyrightUrl="" songArtistUrl="" songAudioFileUrl="" stabilizationMode="0" mediaItemType="2" />
    <MediaItem id="3414" filePath="C:\Users\owner\Dropbox\Work\png\animation T=1.03414.png" arWidth="640" arHeight="480" duration="0" songTitle="" songArtist="" songAlbum="" songCopyrightUrl="" songArtistUrl="" songAudioFileUrl="" stabilizationMode="0" mediaItemType="2" />
    <MediaItem id="3415" filePath="C:\Users\owner\Dropbox\Work\png\animation T=1.03415.png" arWidth="640" arHeight="480" duration="0" songTitle="" songArtist="" songAlbum="" songCopyrightUrl="" songArtistUrl="" songAudioFileUrl="" stabilizationMode="0" mediaItemType="2" />
    <MediaItem id="3416" filePath="C:\Users\owner\Dropbox\Work\png\animation T=1.03416.png" arWidth="640" arHeight="480" duration="0" songTitle="" songArtist="" songAlbum="" songCopyrightUrl="" songArtistUrl="" songAudioFileUrl="" stabilizationMode="0" mediaItemType="2" />
    <MediaItem id="3417" filePath="C:\Users\owner\Dropbox\Work\png\animation T=1.03417.png" arWidth="640" arHeight="480" duration="0" songTitle="" songArtist="" songAlbum="" songCopyrightUrl="" songArtistUrl="" songAudioFileUrl="" stabilizationMode="0" mediaItemType="2" />
    <MediaItem id="3418" filePath="C:\Users\owner\Dropbox\Work\png\animation T=1.03418.png" arWidth="640" arHeight="480" duration="0" songTitle="" songArtist="" songAlbum="" songCopyrightUrl="" songArtistUrl="" songAudioFileUrl="" stabilizationMode="0" mediaItemType="2" />
    <MediaItem id="3419" filePath="C:\Users\owner\Dropbox\Work\png\animation T=1.03419.png" arWidth="640" arHeight="480" duration="0" songTitle="" songArtist="" songAlbum="" songCopyrightUrl="" songArtistUrl="" songAudioFileUrl="" stabilizationMode="0" mediaItemType="2" />
    <MediaItem id="3420" filePath="C:\Users\owner\Dropbox\Work\png\animation T=1.03420.png" arWidth="640" arHeight="480" duration="0" songTitle="" songArtist="" songAlbum="" songCopyrightUrl="" songArtistUrl="" songAudioFileUrl="" stabilizationMode="0" mediaItemType="2" />
    <MediaItem id="3421" filePath="C:\Users\owner\Dropbox\Work\png\animation T=1.03421.png" arWidth="640" arHeight="480" duration="0" songTitle="" songArtist="" songAlbum="" songCopyrightUrl="" songArtistUrl="" songAudioFileUrl="" stabilizationMode="0" mediaItemType="2" />
    <MediaItem id="3422" filePath="C:\Users\owner\Dropbox\Work\png\animation T=1.03422.png" arWidth="640" arHeight="480" duration="0" songTitle="" songArtist="" songAlbum="" songCopyrightUrl="" songArtistUrl="" songAudioFileUrl="" stabilizationMode="0" mediaItemType="2" />
    <MediaItem id="3423" filePath="C:\Users\owner\Dropbox\Work\png\animation T=1.03423.png" arWidth="640" arHeight="480" duration="0" songTitle="" songArtist="" songAlbum="" songCopyrightUrl="" songArtistUrl="" songAudioFileUrl="" stabilizationMode="0" mediaItemType="2" />
    <MediaItem id="3424" filePath="C:\Users\owner\Dropbox\Work\png\animation T=1.03424.png" arWidth="640" arHeight="480" duration="0" songTitle="" songArtist="" songAlbum="" songCopyrightUrl="" songArtistUrl="" songAudioFileUrl="" stabilizationMode="0" mediaItemType="2" />
    <MediaItem id="3425" filePath="C:\Users\owner\Dropbox\Work\png\animation T=1.03425.png" arWidth="640" arHeight="480" duration="0" songTitle="" songArtist="" songAlbum="" songCopyrightUrl="" songArtistUrl="" songAudioFileUrl="" stabilizationMode="0" mediaItemType="2" />
    <MediaItem id="3426" filePath="C:\Users\owner\Dropbox\Work\png\animation T=1.03426.png" arWidth="640" arHeight="480" duration="0" songTitle="" songArtist="" songAlbum="" songCopyrightUrl="" songArtistUrl="" songAudioFileUrl="" stabilizationMode="0" mediaItemType="2" />
    <MediaItem id="3427" filePath="C:\Users\owner\Dropbox\Work\png\animation T=1.03427.png" arWidth="640" arHeight="480" duration="0" songTitle="" songArtist="" songAlbum="" songCopyrightUrl="" songArtistUrl="" songAudioFileUrl="" stabilizationMode="0" mediaItemType="2" />
    <MediaItem id="3428" filePath="C:\Users\owner\Dropbox\Work\png\animation T=1.03428.png" arWidth="640" arHeight="480" duration="0" songTitle="" songArtist="" songAlbum="" songCopyrightUrl="" songArtistUrl="" songAudioFileUrl="" stabilizationMode="0" mediaItemType="2" />
    <MediaItem id="3429" filePath="C:\Users\owner\Dropbox\Work\png\animation T=1.03429.png" arWidth="640" arHeight="480" duration="0" songTitle="" songArtist="" songAlbum="" songCopyrightUrl="" songArtistUrl="" songAudioFileUrl="" stabilizationMode="0" mediaItemType="2" />
    <MediaItem id="3430" filePath="C:\Users\owner\Dropbox\Work\png\animation T=1.03430.png" arWidth="640" arHeight="480" duration="0" songTitle="" songArtist="" songAlbum="" songCopyrightUrl="" songArtistUrl="" songAudioFileUrl="" stabilizationMode="0" mediaItemType="2" />
    <MediaItem id="3431" filePath="C:\Users\owner\Dropbox\Work\png\animation T=1.03431.png" arWidth="640" arHeight="480" duration="0" songTitle="" songArtist="" songAlbum="" songCopyrightUrl="" songArtistUrl="" songAudioFileUrl="" stabilizationMode="0" mediaItemType="2" />
    <MediaItem id="3432" filePath="C:\Users\owner\Dropbox\Work\png\animation T=1.03432.png" arWidth="640" arHeight="480" duration="0" songTitle="" songArtist="" songAlbum="" songCopyrightUrl="" songArtistUrl="" songAudioFileUrl="" stabilizationMode="0" mediaItemType="2" />
    <MediaItem id="3433" filePath="C:\Users\owner\Dropbox\Work\png\animation T=1.03433.png" arWidth="640" arHeight="480" duration="0" songTitle="" songArtist="" songAlbum="" songCopyrightUrl="" songArtistUrl="" songAudioFileUrl="" stabilizationMode="0" mediaItemType="2" />
    <MediaItem id="3434" filePath="C:\Users\owner\Dropbox\Work\png\animation T=1.03434.png" arWidth="640" arHeight="480" duration="0" songTitle="" songArtist="" songAlbum="" songCopyrightUrl="" songArtistUrl="" songAudioFileUrl="" stabilizationMode="0" mediaItemType="2" />
    <MediaItem id="3435" filePath="C:\Users\owner\Dropbox\Work\png\animation T=1.03435.png" arWidth="640" arHeight="480" duration="0" songTitle="" songArtist="" songAlbum="" songCopyrightUrl="" songArtistUrl="" songAudioFileUrl="" stabilizationMode="0" mediaItemType="2" />
    <MediaItem id="3436" filePath="C:\Users\owner\Dropbox\Work\png\animation T=1.03436.png" arWidth="640" arHeight="480" duration="0" songTitle="" songArtist="" songAlbum="" songCopyrightUrl="" songArtistUrl="" songAudioFileUrl="" stabilizationMode="0" mediaItemType="2" />
    <MediaItem id="3437" filePath="C:\Users\owner\Dropbox\Work\png\animation T=1.03437.png" arWidth="640" arHeight="480" duration="0" songTitle="" songArtist="" songAlbum="" songCopyrightUrl="" songArtistUrl="" songAudioFileUrl="" stabilizationMode="0" mediaItemType="2" />
    <MediaItem id="3438" filePath="C:\Users\owner\Dropbox\Work\png\animation T=1.03438.png" arWidth="640" arHeight="480" duration="0" songTitle="" songArtist="" songAlbum="" songCopyrightUrl="" songArtistUrl="" songAudioFileUrl="" stabilizationMode="0" mediaItemType="2" />
    <MediaItem id="3439" filePath="C:\Users\owner\Dropbox\Work\png\animation T=1.03439.png" arWidth="640" arHeight="480" duration="0" songTitle="" songArtist="" songAlbum="" songCopyrightUrl="" songArtistUrl="" songAudioFileUrl="" stabilizationMode="0" mediaItemType="2" />
    <MediaItem id="3440" filePath="C:\Users\owner\Dropbox\Work\png\animation T=1.03440.png" arWidth="640" arHeight="480" duration="0" songTitle="" songArtist="" songAlbum="" songCopyrightUrl="" songArtistUrl="" songAudioFileUrl="" stabilizationMode="0" mediaItemType="2" />
    <MediaItem id="3441" filePath="C:\Users\owner\Dropbox\Work\png\animation T=1.03441.png" arWidth="640" arHeight="480" duration="0" songTitle="" songArtist="" songAlbum="" songCopyrightUrl="" songArtistUrl="" songAudioFileUrl="" stabilizationMode="0" mediaItemType="2" />
    <MediaItem id="3442" filePath="C:\Users\owner\Dropbox\Work\png\animation T=1.03442.png" arWidth="640" arHeight="480" duration="0" songTitle="" songArtist="" songAlbum="" songCopyrightUrl="" songArtistUrl="" songAudioFileUrl="" stabilizationMode="0" mediaItemType="2" />
    <MediaItem id="3443" filePath="C:\Users\owner\Dropbox\Work\png\animation T=1.03443.png" arWidth="640" arHeight="480" duration="0" songTitle="" songArtist="" songAlbum="" songCopyrightUrl="" songArtistUrl="" songAudioFileUrl="" stabilizationMode="0" mediaItemType="2" />
    <MediaItem id="3444" filePath="C:\Users\owner\Dropbox\Work\png\animation T=1.03444.png" arWidth="640" arHeight="480" duration="0" songTitle="" songArtist="" songAlbum="" songCopyrightUrl="" songArtistUrl="" songAudioFileUrl="" stabilizationMode="0" mediaItemType="2" />
    <MediaItem id="3445" filePath="C:\Users\owner\Dropbox\Work\png\animation T=1.03445.png" arWidth="640" arHeight="480" duration="0" songTitle="" songArtist="" songAlbum="" songCopyrightUrl="" songArtistUrl="" songAudioFileUrl="" stabilizationMode="0" mediaItemType="2" />
    <MediaItem id="3446" filePath="C:\Users\owner\Dropbox\Work\png\animation T=1.03446.png" arWidth="640" arHeight="480" duration="0" songTitle="" songArtist="" songAlbum="" songCopyrightUrl="" songArtistUrl="" songAudioFileUrl="" stabilizationMode="0" mediaItemType="2" />
    <MediaItem id="3447" filePath="C:\Users\owner\Dropbox\Work\png\animation T=1.03447.png" arWidth="640" arHeight="480" duration="0" songTitle="" songArtist="" songAlbum="" songCopyrightUrl="" songArtistUrl="" songAudioFileUrl="" stabilizationMode="0" mediaItemType="2" />
    <MediaItem id="3448" filePath="C:\Users\owner\Dropbox\Work\png\animation T=1.03448.png" arWidth="640" arHeight="480" duration="0" songTitle="" songArtist="" songAlbum="" songCopyrightUrl="" songArtistUrl="" songAudioFileUrl="" stabilizationMode="0" mediaItemType="2" />
    <MediaItem id="3449" filePath="C:\Users\owner\Dropbox\Work\png\animation T=1.03449.png" arWidth="640" arHeight="480" duration="0" songTitle="" songArtist="" songAlbum="" songCopyrightUrl="" songArtistUrl="" songAudioFileUrl="" stabilizationMode="0" mediaItemType="2" />
    <MediaItem id="3450" filePath="C:\Users\owner\Dropbox\Work\png\animation T=1.03450.png" arWidth="640" arHeight="480" duration="0" songTitle="" songArtist="" songAlbum="" songCopyrightUrl="" songArtistUrl="" songAudioFileUrl="" stabilizationMode="0" mediaItemType="2" />
    <MediaItem id="3451" filePath="C:\Users\owner\Dropbox\Work\png\animation T=1.03451.png" arWidth="640" arHeight="480" duration="0" songTitle="" songArtist="" songAlbum="" songCopyrightUrl="" songArtistUrl="" songAudioFileUrl="" stabilizationMode="0" mediaItemType="2" />
    <MediaItem id="3452" filePath="C:\Users\owner\Dropbox\Work\png\animation T=1.03452.png" arWidth="640" arHeight="480" duration="0" songTitle="" songArtist="" songAlbum="" songCopyrightUrl="" songArtistUrl="" songAudioFileUrl="" stabilizationMode="0" mediaItemType="2" />
    <MediaItem id="3453" filePath="C:\Users\owner\Dropbox\Work\png\animation T=1.03453.png" arWidth="640" arHeight="480" duration="0" songTitle="" songArtist="" songAlbum="" songCopyrightUrl="" songArtistUrl="" songAudioFileUrl="" stabilizationMode="0" mediaItemType="2" />
    <MediaItem id="3454" filePath="C:\Users\owner\Dropbox\Work\png\animation T=1.03454.png" arWidth="640" arHeight="480" duration="0" songTitle="" songArtist="" songAlbum="" songCopyrightUrl="" songArtistUrl="" songAudioFileUrl="" stabilizationMode="0" mediaItemType="2" />
    <MediaItem id="3455" filePath="C:\Users\owner\Dropbox\Work\png\animation T=1.03455.png" arWidth="640" arHeight="480" duration="0" songTitle="" songArtist="" songAlbum="" songCopyrightUrl="" songArtistUrl="" songAudioFileUrl="" stabilizationMode="0" mediaItemType="2" />
    <MediaItem id="3456" filePath="C:\Users\owner\Dropbox\Work\png\animation T=1.03456.png" arWidth="640" arHeight="480" duration="0" songTitle="" songArtist="" songAlbum="" songCopyrightUrl="" songArtistUrl="" songAudioFileUrl="" stabilizationMode="0" mediaItemType="2" />
    <MediaItem id="3457" filePath="C:\Users\owner\Dropbox\Work\png\animation T=1.03457.png" arWidth="640" arHeight="480" duration="0" songTitle="" songArtist="" songAlbum="" songCopyrightUrl="" songArtistUrl="" songAudioFileUrl="" stabilizationMode="0" mediaItemType="2" />
    <MediaItem id="3458" filePath="C:\Users\owner\Dropbox\Work\png\animation T=1.03458.png" arWidth="640" arHeight="480" duration="0" songTitle="" songArtist="" songAlbum="" songCopyrightUrl="" songArtistUrl="" songAudioFileUrl="" stabilizationMode="0" mediaItemType="2" />
    <MediaItem id="3459" filePath="C:\Users\owner\Dropbox\Work\png\animation T=1.03459.png" arWidth="640" arHeight="480" duration="0" songTitle="" songArtist="" songAlbum="" songCopyrightUrl="" songArtistUrl="" songAudioFileUrl="" stabilizationMode="0" mediaItemType="2" />
    <MediaItem id="3460" filePath="C:\Users\owner\Dropbox\Work\png\animation T=1.03460.png" arWidth="640" arHeight="480" duration="0" songTitle="" songArtist="" songAlbum="" songCopyrightUrl="" songArtistUrl="" songAudioFileUrl="" stabilizationMode="0" mediaItemType="2" />
    <MediaItem id="3461" filePath="C:\Users\owner\Dropbox\Work\png\animation T=1.03461.png" arWidth="640" arHeight="480" duration="0" songTitle="" songArtist="" songAlbum="" songCopyrightUrl="" songArtistUrl="" songAudioFileUrl="" stabilizationMode="0" mediaItemType="2" />
    <MediaItem id="3462" filePath="C:\Users\owner\Dropbox\Work\png\animation T=1.03462.png" arWidth="640" arHeight="480" duration="0" songTitle="" songArtist="" songAlbum="" songCopyrightUrl="" songArtistUrl="" songAudioFileUrl="" stabilizationMode="0" mediaItemType="2" />
    <MediaItem id="3463" filePath="C:\Users\owner\Dropbox\Work\png\animation T=1.03463.png" arWidth="640" arHeight="480" duration="0" songTitle="" songArtist="" songAlbum="" songCopyrightUrl="" songArtistUrl="" songAudioFileUrl="" stabilizationMode="0" mediaItemType="2" />
    <MediaItem id="3464" filePath="C:\Users\owner\Dropbox\Work\png\animation T=1.03464.png" arWidth="640" arHeight="480" duration="0" songTitle="" songArtist="" songAlbum="" songCopyrightUrl="" songArtistUrl="" songAudioFileUrl="" stabilizationMode="0" mediaItemType="2" />
    <MediaItem id="3465" filePath="C:\Users\owner\Dropbox\Work\png\animation T=1.03465.png" arWidth="640" arHeight="480" duration="0" songTitle="" songArtist="" songAlbum="" songCopyrightUrl="" songArtistUrl="" songAudioFileUrl="" stabilizationMode="0" mediaItemType="2" />
    <MediaItem id="3466" filePath="C:\Users\owner\Dropbox\Work\png\animation T=1.03466.png" arWidth="640" arHeight="480" duration="0" songTitle="" songArtist="" songAlbum="" songCopyrightUrl="" songArtistUrl="" songAudioFileUrl="" stabilizationMode="0" mediaItemType="2" />
    <MediaItem id="3467" filePath="C:\Users\owner\Dropbox\Work\png\animation T=1.03467.png" arWidth="640" arHeight="480" duration="0" songTitle="" songArtist="" songAlbum="" songCopyrightUrl="" songArtistUrl="" songAudioFileUrl="" stabilizationMode="0" mediaItemType="2" />
    <MediaItem id="3468" filePath="C:\Users\owner\Dropbox\Work\png\animation T=1.03468.png" arWidth="640" arHeight="480" duration="0" songTitle="" songArtist="" songAlbum="" songCopyrightUrl="" songArtistUrl="" songAudioFileUrl="" stabilizationMode="0" mediaItemType="2" />
    <MediaItem id="3469" filePath="C:\Users\owner\Dropbox\Work\png\animation T=1.03469.png" arWidth="640" arHeight="480" duration="0" songTitle="" songArtist="" songAlbum="" songCopyrightUrl="" songArtistUrl="" songAudioFileUrl="" stabilizationMode="0" mediaItemType="2" />
    <MediaItem id="3470" filePath="C:\Users\owner\Dropbox\Work\png\animation T=1.03470.png" arWidth="640" arHeight="480" duration="0" songTitle="" songArtist="" songAlbum="" songCopyrightUrl="" songArtistUrl="" songAudioFileUrl="" stabilizationMode="0" mediaItemType="2" />
    <MediaItem id="3471" filePath="C:\Users\owner\Dropbox\Work\png\animation T=1.03471.png" arWidth="640" arHeight="480" duration="0" songTitle="" songArtist="" songAlbum="" songCopyrightUrl="" songArtistUrl="" songAudioFileUrl="" stabilizationMode="0" mediaItemType="2" />
    <MediaItem id="3472" filePath="C:\Users\owner\Dropbox\Work\png\animation T=1.03472.png" arWidth="640" arHeight="480" duration="0" songTitle="" songArtist="" songAlbum="" songCopyrightUrl="" songArtistUrl="" songAudioFileUrl="" stabilizationMode="0" mediaItemType="2" />
    <MediaItem id="3473" filePath="C:\Users\owner\Dropbox\Work\png\animation T=1.03473.png" arWidth="640" arHeight="480" duration="0" songTitle="" songArtist="" songAlbum="" songCopyrightUrl="" songArtistUrl="" songAudioFileUrl="" stabilizationMode="0" mediaItemType="2" />
    <MediaItem id="3474" filePath="C:\Users\owner\Dropbox\Work\png\animation T=1.03474.png" arWidth="640" arHeight="480" duration="0" songTitle="" songArtist="" songAlbum="" songCopyrightUrl="" songArtistUrl="" songAudioFileUrl="" stabilizationMode="0" mediaItemType="2" />
    <MediaItem id="3475" filePath="C:\Users\owner\Dropbox\Work\png\animation T=1.03475.png" arWidth="640" arHeight="480" duration="0" songTitle="" songArtist="" songAlbum="" songCopyrightUrl="" songArtistUrl="" songAudioFileUrl="" stabilizationMode="0" mediaItemType="2" />
    <MediaItem id="3476" filePath="C:\Users\owner\Dropbox\Work\png\animation T=1.03476.png" arWidth="640" arHeight="480" duration="0" songTitle="" songArtist="" songAlbum="" songCopyrightUrl="" songArtistUrl="" songAudioFileUrl="" stabilizationMode="0" mediaItemType="2" />
    <MediaItem id="3477" filePath="C:\Users\owner\Dropbox\Work\png\animation T=1.03477.png" arWidth="640" arHeight="480" duration="0" songTitle="" songArtist="" songAlbum="" songCopyrightUrl="" songArtistUrl="" songAudioFileUrl="" stabilizationMode="0" mediaItemType="2" />
    <MediaItem id="3478" filePath="C:\Users\owner\Dropbox\Work\png\animation T=1.03478.png" arWidth="640" arHeight="480" duration="0" songTitle="" songArtist="" songAlbum="" songCopyrightUrl="" songArtistUrl="" songAudioFileUrl="" stabilizationMode="0" mediaItemType="2" />
    <MediaItem id="3479" filePath="C:\Users\owner\Dropbox\Work\png\animation T=1.03479.png" arWidth="640" arHeight="480" duration="0" songTitle="" songArtist="" songAlbum="" songCopyrightUrl="" songArtistUrl="" songAudioFileUrl="" stabilizationMode="0" mediaItemType="2" />
    <MediaItem id="3480" filePath="C:\Users\owner\Dropbox\Work\png\animation T=1.03480.png" arWidth="640" arHeight="480" duration="0" songTitle="" songArtist="" songAlbum="" songCopyrightUrl="" songArtistUrl="" songAudioFileUrl="" stabilizationMode="0" mediaItemType="2" />
    <MediaItem id="3481" filePath="C:\Users\owner\Dropbox\Work\png\animation T=1.03481.png" arWidth="640" arHeight="480" duration="0" songTitle="" songArtist="" songAlbum="" songCopyrightUrl="" songArtistUrl="" songAudioFileUrl="" stabilizationMode="0" mediaItemType="2" />
    <MediaItem id="3482" filePath="C:\Users\owner\Dropbox\Work\png\animation T=1.03482.png" arWidth="640" arHeight="480" duration="0" songTitle="" songArtist="" songAlbum="" songCopyrightUrl="" songArtistUrl="" songAudioFileUrl="" stabilizationMode="0" mediaItemType="2" />
    <MediaItem id="3483" filePath="C:\Users\owner\Dropbox\Work\png\animation T=1.03483.png" arWidth="640" arHeight="480" duration="0" songTitle="" songArtist="" songAlbum="" songCopyrightUrl="" songArtistUrl="" songAudioFileUrl="" stabilizationMode="0" mediaItemType="2" />
    <MediaItem id="3484" filePath="C:\Users\owner\Dropbox\Work\png\animation T=1.03484.png" arWidth="640" arHeight="480" duration="0" songTitle="" songArtist="" songAlbum="" songCopyrightUrl="" songArtistUrl="" songAudioFileUrl="" stabilizationMode="0" mediaItemType="2" />
    <MediaItem id="3485" filePath="C:\Users\owner\Dropbox\Work\png\animation T=1.03485.png" arWidth="640" arHeight="480" duration="0" songTitle="" songArtist="" songAlbum="" songCopyrightUrl="" songArtistUrl="" songAudioFileUrl="" stabilizationMode="0" mediaItemType="2" />
    <MediaItem id="3486" filePath="C:\Users\owner\Dropbox\Work\png\animation T=1.03486.png" arWidth="640" arHeight="480" duration="0" songTitle="" songArtist="" songAlbum="" songCopyrightUrl="" songArtistUrl="" songAudioFileUrl="" stabilizationMode="0" mediaItemType="2" />
    <MediaItem id="3487" filePath="C:\Users\owner\Dropbox\Work\png\animation T=1.03487.png" arWidth="640" arHeight="480" duration="0" songTitle="" songArtist="" songAlbum="" songCopyrightUrl="" songArtistUrl="" songAudioFileUrl="" stabilizationMode="0" mediaItemType="2" />
    <MediaItem id="3488" filePath="C:\Users\owner\Dropbox\Work\png\animation T=1.03488.png" arWidth="640" arHeight="480" duration="0" songTitle="" songArtist="" songAlbum="" songCopyrightUrl="" songArtistUrl="" songAudioFileUrl="" stabilizationMode="0" mediaItemType="2" />
    <MediaItem id="3489" filePath="C:\Users\owner\Dropbox\Work\png\animation T=1.03489.png" arWidth="640" arHeight="480" duration="0" songTitle="" songArtist="" songAlbum="" songCopyrightUrl="" songArtistUrl="" songAudioFileUrl="" stabilizationMode="0" mediaItemType="2" />
    <MediaItem id="3490" filePath="C:\Users\owner\Dropbox\Work\png\animation T=1.03490.png" arWidth="640" arHeight="480" duration="0" songTitle="" songArtist="" songAlbum="" songCopyrightUrl="" songArtistUrl="" songAudioFileUrl="" stabilizationMode="0" mediaItemType="2" />
    <MediaItem id="3491" filePath="C:\Users\owner\Dropbox\Work\png\animation T=1.03491.png" arWidth="640" arHeight="480" duration="0" songTitle="" songArtist="" songAlbum="" songCopyrightUrl="" songArtistUrl="" songAudioFileUrl="" stabilizationMode="0" mediaItemType="2" />
    <MediaItem id="3492" filePath="C:\Users\owner\Dropbox\Work\png\animation T=1.03492.png" arWidth="640" arHeight="480" duration="0" songTitle="" songArtist="" songAlbum="" songCopyrightUrl="" songArtistUrl="" songAudioFileUrl="" stabilizationMode="0" mediaItemType="2" />
    <MediaItem id="3493" filePath="C:\Users\owner\Dropbox\Work\png\animation T=1.03493.png" arWidth="640" arHeight="480" duration="0" songTitle="" songArtist="" songAlbum="" songCopyrightUrl="" songArtistUrl="" songAudioFileUrl="" stabilizationMode="0" mediaItemType="2" />
    <MediaItem id="3494" filePath="C:\Users\owner\Dropbox\Work\png\animation T=1.03494.png" arWidth="640" arHeight="480" duration="0" songTitle="" songArtist="" songAlbum="" songCopyrightUrl="" songArtistUrl="" songAudioFileUrl="" stabilizationMode="0" mediaItemType="2" />
    <MediaItem id="3495" filePath="C:\Users\owner\Dropbox\Work\png\animation T=1.03495.png" arWidth="640" arHeight="480" duration="0" songTitle="" songArtist="" songAlbum="" songCopyrightUrl="" songArtistUrl="" songAudioFileUrl="" stabilizationMode="0" mediaItemType="2" />
    <MediaItem id="3496" filePath="C:\Users\owner\Dropbox\Work\png\animation T=1.03496.png" arWidth="640" arHeight="480" duration="0" songTitle="" songArtist="" songAlbum="" songCopyrightUrl="" songArtistUrl="" songAudioFileUrl="" stabilizationMode="0" mediaItemType="2" />
    <MediaItem id="3497" filePath="C:\Users\owner\Dropbox\Work\png\animation T=1.03497.png" arWidth="640" arHeight="480" duration="0" songTitle="" songArtist="" songAlbum="" songCopyrightUrl="" songArtistUrl="" songAudioFileUrl="" stabilizationMode="0" mediaItemType="2" />
    <MediaItem id="3498" filePath="C:\Users\owner\Dropbox\Work\png\animation T=1.03498.png" arWidth="640" arHeight="480" duration="0" songTitle="" songArtist="" songAlbum="" songCopyrightUrl="" songArtistUrl="" songAudioFileUrl="" stabilizationMode="0" mediaItemType="2" />
    <MediaItem id="3499" filePath="C:\Users\owner\Dropbox\Work\png\animation T=1.03499.png" arWidth="640" arHeight="480" duration="0" songTitle="" songArtist="" songAlbum="" songCopyrightUrl="" songArtistUrl="" songAudioFileUrl="" stabilizationMode="0" mediaItemType="2" />
    <MediaItem id="3500" filePath="C:\Users\owner\Dropbox\Work\png\animation T=1.03500.png" arWidth="640" arHeight="480" duration="0" songTitle="" songArtist="" songAlbum="" songCopyrightUrl="" songArtistUrl="" songAudioFileUrl="" stabilizationMode="0" mediaItemType="2" />
    <MediaItem id="3501" filePath="C:\Users\owner\Dropbox\Work\png\animation T=1.03501.png" arWidth="640" arHeight="480" duration="0" songTitle="" songArtist="" songAlbum="" songCopyrightUrl="" songArtistUrl="" songAudioFileUrl="" stabilizationMode="0" mediaItemType="2" />
    <MediaItem id="3502" filePath="C:\Users\owner\Dropbox\Work\png\animation T=1.03502.png" arWidth="640" arHeight="480" duration="0" songTitle="" songArtist="" songAlbum="" songCopyrightUrl="" songArtistUrl="" songAudioFileUrl="" stabilizationMode="0" mediaItemType="2" />
    <MediaItem id="3503" filePath="C:\Users\owner\Dropbox\Work\png\animation T=1.03503.png" arWidth="640" arHeight="480" duration="0" songTitle="" songArtist="" songAlbum="" songCopyrightUrl="" songArtistUrl="" songAudioFileUrl="" stabilizationMode="0" mediaItemType="2" />
    <MediaItem id="3504" filePath="C:\Users\owner\Dropbox\Work\png\animation T=1.03504.png" arWidth="640" arHeight="480" duration="0" songTitle="" songArtist="" songAlbum="" songCopyrightUrl="" songArtistUrl="" songAudioFileUrl="" stabilizationMode="0" mediaItemType="2" />
    <MediaItem id="3505" filePath="C:\Users\owner\Dropbox\Work\png\animation T=1.03505.png" arWidth="640" arHeight="480" duration="0" songTitle="" songArtist="" songAlbum="" songCopyrightUrl="" songArtistUrl="" songAudioFileUrl="" stabilizationMode="0" mediaItemType="2" />
    <MediaItem id="3506" filePath="C:\Users\owner\Dropbox\Work\png\animation T=1.03506.png" arWidth="640" arHeight="480" duration="0" songTitle="" songArtist="" songAlbum="" songCopyrightUrl="" songArtistUrl="" songAudioFileUrl="" stabilizationMode="0" mediaItemType="2" />
    <MediaItem id="3507" filePath="C:\Users\owner\Dropbox\Work\png\animation T=1.03507.png" arWidth="640" arHeight="480" duration="0" songTitle="" songArtist="" songAlbum="" songCopyrightUrl="" songArtistUrl="" songAudioFileUrl="" stabilizationMode="0" mediaItemType="2" />
    <MediaItem id="3508" filePath="C:\Users\owner\Dropbox\Work\png\animation T=1.03508.png" arWidth="640" arHeight="480" duration="0" songTitle="" songArtist="" songAlbum="" songCopyrightUrl="" songArtistUrl="" songAudioFileUrl="" stabilizationMode="0" mediaItemType="2" />
    <MediaItem id="3509" filePath="C:\Users\owner\Dropbox\Work\png\animation T=1.03509.png" arWidth="640" arHeight="480" duration="0" songTitle="" songArtist="" songAlbum="" songCopyrightUrl="" songArtistUrl="" songAudioFileUrl="" stabilizationMode="0" mediaItemType="2" />
    <MediaItem id="3510" filePath="C:\Users\owner\Dropbox\Work\png\animation T=1.03510.png" arWidth="640" arHeight="480" duration="0" songTitle="" songArtist="" songAlbum="" songCopyrightUrl="" songArtistUrl="" songAudioFileUrl="" stabilizationMode="0" mediaItemType="2" />
    <MediaItem id="3511" filePath="C:\Users\owner\Dropbox\Work\png\animation T=1.03511.png" arWidth="640" arHeight="480" duration="0" songTitle="" songArtist="" songAlbum="" songCopyrightUrl="" songArtistUrl="" songAudioFileUrl="" stabilizationMode="0" mediaItemType="2" />
    <MediaItem id="3512" filePath="C:\Users\owner\Dropbox\Work\png\animation T=1.03512.png" arWidth="640" arHeight="480" duration="0" songTitle="" songArtist="" songAlbum="" songCopyrightUrl="" songArtistUrl="" songAudioFileUrl="" stabilizationMode="0" mediaItemType="2" />
    <MediaItem id="3513" filePath="C:\Users\owner\Dropbox\Work\png\animation T=1.03513.png" arWidth="640" arHeight="480" duration="0" songTitle="" songArtist="" songAlbum="" songCopyrightUrl="" songArtistUrl="" songAudioFileUrl="" stabilizationMode="0" mediaItemType="2" />
    <MediaItem id="3514" filePath="C:\Users\owner\Dropbox\Work\png\animation T=1.03514.png" arWidth="640" arHeight="480" duration="0" songTitle="" songArtist="" songAlbum="" songCopyrightUrl="" songArtistUrl="" songAudioFileUrl="" stabilizationMode="0" mediaItemType="2" />
    <MediaItem id="3515" filePath="C:\Users\owner\Dropbox\Work\png\animation T=1.03515.png" arWidth="640" arHeight="480" duration="0" songTitle="" songArtist="" songAlbum="" songCopyrightUrl="" songArtistUrl="" songAudioFileUrl="" stabilizationMode="0" mediaItemType="2" />
    <MediaItem id="3516" filePath="C:\Users\owner\Dropbox\Work\png\animation T=1.03516.png" arWidth="640" arHeight="480" duration="0" songTitle="" songArtist="" songAlbum="" songCopyrightUrl="" songArtistUrl="" songAudioFileUrl="" stabilizationMode="0" mediaItemType="2" />
    <MediaItem id="3517" filePath="C:\Users\owner\Dropbox\Work\png\animation T=1.03517.png" arWidth="640" arHeight="480" duration="0" songTitle="" songArtist="" songAlbum="" songCopyrightUrl="" songArtistUrl="" songAudioFileUrl="" stabilizationMode="0" mediaItemType="2" />
    <MediaItem id="3518" filePath="C:\Users\owner\Dropbox\Work\png\animation T=1.03518.png" arWidth="640" arHeight="480" duration="0" songTitle="" songArtist="" songAlbum="" songCopyrightUrl="" songArtistUrl="" songAudioFileUrl="" stabilizationMode="0" mediaItemType="2" />
    <MediaItem id="3519" filePath="C:\Users\owner\Dropbox\Work\png\animation T=1.03519.png" arWidth="640" arHeight="480" duration="0" songTitle="" songArtist="" songAlbum="" songCopyrightUrl="" songArtistUrl="" songAudioFileUrl="" stabilizationMode="0" mediaItemType="2" />
    <MediaItem id="3520" filePath="C:\Users\owner\Dropbox\Work\png\animation T=1.03520.png" arWidth="640" arHeight="480" duration="0" songTitle="" songArtist="" songAlbum="" songCopyrightUrl="" songArtistUrl="" songAudioFileUrl="" stabilizationMode="0" mediaItemType="2" />
    <MediaItem id="3521" filePath="C:\Users\owner\Dropbox\Work\png\animation T=1.03521.png" arWidth="640" arHeight="480" duration="0" songTitle="" songArtist="" songAlbum="" songCopyrightUrl="" songArtistUrl="" songAudioFileUrl="" stabilizationMode="0" mediaItemType="2" />
    <MediaItem id="3522" filePath="C:\Users\owner\Dropbox\Work\png\animation T=1.03522.png" arWidth="640" arHeight="480" duration="0" songTitle="" songArtist="" songAlbum="" songCopyrightUrl="" songArtistUrl="" songAudioFileUrl="" stabilizationMode="0" mediaItemType="2" />
    <MediaItem id="3523" filePath="C:\Users\owner\Dropbox\Work\png\animation T=1.03523.png" arWidth="640" arHeight="480" duration="0" songTitle="" songArtist="" songAlbum="" songCopyrightUrl="" songArtistUrl="" songAudioFileUrl="" stabilizationMode="0" mediaItemType="2" />
    <MediaItem id="3524" filePath="C:\Users\owner\Dropbox\Work\png\animation T=1.03524.png" arWidth="640" arHeight="480" duration="0" songTitle="" songArtist="" songAlbum="" songCopyrightUrl="" songArtistUrl="" songAudioFileUrl="" stabilizationMode="0" mediaItemType="2" />
    <MediaItem id="3525" filePath="C:\Users\owner\Dropbox\Work\png\animation T=1.03525.png" arWidth="640" arHeight="480" duration="0" songTitle="" songArtist="" songAlbum="" songCopyrightUrl="" songArtistUrl="" songAudioFileUrl="" stabilizationMode="0" mediaItemType="2" />
    <MediaItem id="3526" filePath="C:\Users\owner\Dropbox\Work\png\animation T=1.03526.png" arWidth="640" arHeight="480" duration="0" songTitle="" songArtist="" songAlbum="" songCopyrightUrl="" songArtistUrl="" songAudioFileUrl="" stabilizationMode="0" mediaItemType="2" />
    <MediaItem id="3527" filePath="C:\Users\owner\Dropbox\Work\png\animation T=1.03527.png" arWidth="640" arHeight="480" duration="0" songTitle="" songArtist="" songAlbum="" songCopyrightUrl="" songArtistUrl="" songAudioFileUrl="" stabilizationMode="0" mediaItemType="2" />
    <MediaItem id="3528" filePath="C:\Users\owner\Dropbox\Work\png\animation T=1.03528.png" arWidth="640" arHeight="480" duration="0" songTitle="" songArtist="" songAlbum="" songCopyrightUrl="" songArtistUrl="" songAudioFileUrl="" stabilizationMode="0" mediaItemType="2" />
    <MediaItem id="3529" filePath="C:\Users\owner\Dropbox\Work\png\animation T=1.03529.png" arWidth="640" arHeight="480" duration="0" songTitle="" songArtist="" songAlbum="" songCopyrightUrl="" songArtistUrl="" songAudioFileUrl="" stabilizationMode="0" mediaItemType="2" />
    <MediaItem id="3530" filePath="C:\Users\owner\Dropbox\Work\png\animation T=1.03530.png" arWidth="640" arHeight="480" duration="0" songTitle="" songArtist="" songAlbum="" songCopyrightUrl="" songArtistUrl="" songAudioFileUrl="" stabilizationMode="0" mediaItemType="2" />
    <MediaItem id="3531" filePath="C:\Users\owner\Dropbox\Work\png\animation T=1.03531.png" arWidth="640" arHeight="480" duration="0" songTitle="" songArtist="" songAlbum="" songCopyrightUrl="" songArtistUrl="" songAudioFileUrl="" stabilizationMode="0" mediaItemType="2" />
    <MediaItem id="3532" filePath="C:\Users\owner\Dropbox\Work\png\animation T=1.03532.png" arWidth="640" arHeight="480" duration="0" songTitle="" songArtist="" songAlbum="" songCopyrightUrl="" songArtistUrl="" songAudioFileUrl="" stabilizationMode="0" mediaItemType="2" />
    <MediaItem id="3533" filePath="C:\Users\owner\Dropbox\Work\png\animation T=1.03533.png" arWidth="640" arHeight="480" duration="0" songTitle="" songArtist="" songAlbum="" songCopyrightUrl="" songArtistUrl="" songAudioFileUrl="" stabilizationMode="0" mediaItemType="2" />
    <MediaItem id="3534" filePath="C:\Users\owner\Dropbox\Work\png\animation T=1.03534.png" arWidth="640" arHeight="480" duration="0" songTitle="" songArtist="" songAlbum="" songCopyrightUrl="" songArtistUrl="" songAudioFileUrl="" stabilizationMode="0" mediaItemType="2" />
    <MediaItem id="3535" filePath="C:\Users\owner\Dropbox\Work\png\animation T=1.03535.png" arWidth="640" arHeight="480" duration="0" songTitle="" songArtist="" songAlbum="" songCopyrightUrl="" songArtistUrl="" songAudioFileUrl="" stabilizationMode="0" mediaItemType="2" />
    <MediaItem id="3536" filePath="C:\Users\owner\Dropbox\Work\png\animation T=1.03536.png" arWidth="640" arHeight="480" duration="0" songTitle="" songArtist="" songAlbum="" songCopyrightUrl="" songArtistUrl="" songAudioFileUrl="" stabilizationMode="0" mediaItemType="2" />
    <MediaItem id="3537" filePath="C:\Users\owner\Dropbox\Work\png\animation T=1.03537.png" arWidth="640" arHeight="480" duration="0" songTitle="" songArtist="" songAlbum="" songCopyrightUrl="" songArtistUrl="" songAudioFileUrl="" stabilizationMode="0" mediaItemType="2" />
    <MediaItem id="3538" filePath="C:\Users\owner\Dropbox\Work\png\animation T=1.03538.png" arWidth="640" arHeight="480" duration="0" songTitle="" songArtist="" songAlbum="" songCopyrightUrl="" songArtistUrl="" songAudioFileUrl="" stabilizationMode="0" mediaItemType="2" />
    <MediaItem id="3539" filePath="C:\Users\owner\Dropbox\Work\png\animation T=1.03539.png" arWidth="640" arHeight="480" duration="0" songTitle="" songArtist="" songAlbum="" songCopyrightUrl="" songArtistUrl="" songAudioFileUrl="" stabilizationMode="0" mediaItemType="2" />
    <MediaItem id="3540" filePath="C:\Users\owner\Dropbox\Work\png\animation T=1.03540.png" arWidth="640" arHeight="480" duration="0" songTitle="" songArtist="" songAlbum="" songCopyrightUrl="" songArtistUrl="" songAudioFileUrl="" stabilizationMode="0" mediaItemType="2" />
    <MediaItem id="3541" filePath="C:\Users\owner\Dropbox\Work\png\animation T=1.03541.png" arWidth="640" arHeight="480" duration="0" songTitle="" songArtist="" songAlbum="" songCopyrightUrl="" songArtistUrl="" songAudioFileUrl="" stabilizationMode="0" mediaItemType="2" />
    <MediaItem id="3542" filePath="C:\Users\owner\Dropbox\Work\png\animation T=1.03542.png" arWidth="640" arHeight="480" duration="0" songTitle="" songArtist="" songAlbum="" songCopyrightUrl="" songArtistUrl="" songAudioFileUrl="" stabilizationMode="0" mediaItemType="2" />
    <MediaItem id="3543" filePath="C:\Users\owner\Dropbox\Work\png\animation T=1.03543.png" arWidth="640" arHeight="480" duration="0" songTitle="" songArtist="" songAlbum="" songCopyrightUrl="" songArtistUrl="" songAudioFileUrl="" stabilizationMode="0" mediaItemType="2" />
    <MediaItem id="3544" filePath="C:\Users\owner\Dropbox\Work\png\animation T=1.03544.png" arWidth="640" arHeight="480" duration="0" songTitle="" songArtist="" songAlbum="" songCopyrightUrl="" songArtistUrl="" songAudioFileUrl="" stabilizationMode="0" mediaItemType="2" />
    <MediaItem id="3545" filePath="C:\Users\owner\Dropbox\Work\png\animation T=1.03545.png" arWidth="640" arHeight="480" duration="0" songTitle="" songArtist="" songAlbum="" songCopyrightUrl="" songArtistUrl="" songAudioFileUrl="" stabilizationMode="0" mediaItemType="2" />
    <MediaItem id="3546" filePath="C:\Users\owner\Dropbox\Work\png\animation T=1.03546.png" arWidth="640" arHeight="480" duration="0" songTitle="" songArtist="" songAlbum="" songCopyrightUrl="" songArtistUrl="" songAudioFileUrl="" stabilizationMode="0" mediaItemType="2" />
    <MediaItem id="3547" filePath="C:\Users\owner\Dropbox\Work\png\animation T=1.03547.png" arWidth="640" arHeight="480" duration="0" songTitle="" songArtist="" songAlbum="" songCopyrightUrl="" songArtistUrl="" songAudioFileUrl="" stabilizationMode="0" mediaItemType="2" />
    <MediaItem id="3548" filePath="C:\Users\owner\Dropbox\Work\png\animation T=1.03548.png" arWidth="640" arHeight="480" duration="0" songTitle="" songArtist="" songAlbum="" songCopyrightUrl="" songArtistUrl="" songAudioFileUrl="" stabilizationMode="0" mediaItemType="2" />
    <MediaItem id="3549" filePath="C:\Users\owner\Dropbox\Work\png\animation T=1.03549.png" arWidth="640" arHeight="480" duration="0" songTitle="" songArtist="" songAlbum="" songCopyrightUrl="" songArtistUrl="" songAudioFileUrl="" stabilizationMode="0" mediaItemType="2" />
    <MediaItem id="3550" filePath="C:\Users\owner\Dropbox\Work\png\animation T=1.03550.png" arWidth="640" arHeight="480" duration="0" songTitle="" songArtist="" songAlbum="" songCopyrightUrl="" songArtistUrl="" songAudioFileUrl="" stabilizationMode="0" mediaItemType="2" />
    <MediaItem id="3551" filePath="C:\Users\owner\Dropbox\Work\png\animation T=1.03551.png" arWidth="640" arHeight="480" duration="0" songTitle="" songArtist="" songAlbum="" songCopyrightUrl="" songArtistUrl="" songAudioFileUrl="" stabilizationMode="0" mediaItemType="2" />
    <MediaItem id="3552" filePath="C:\Users\owner\Dropbox\Work\png\animation T=1.03552.png" arWidth="640" arHeight="480" duration="0" songTitle="" songArtist="" songAlbum="" songCopyrightUrl="" songArtistUrl="" songAudioFileUrl="" stabilizationMode="0" mediaItemType="2" />
    <MediaItem id="3553" filePath="C:\Users\owner\Dropbox\Work\png\animation T=1.03553.png" arWidth="640" arHeight="480" duration="0" songTitle="" songArtist="" songAlbum="" songCopyrightUrl="" songArtistUrl="" songAudioFileUrl="" stabilizationMode="0" mediaItemType="2" />
    <MediaItem id="3554" filePath="C:\Users\owner\Dropbox\Work\png\animation T=1.03554.png" arWidth="640" arHeight="480" duration="0" songTitle="" songArtist="" songAlbum="" songCopyrightUrl="" songArtistUrl="" songAudioFileUrl="" stabilizationMode="0" mediaItemType="2" />
    <MediaItem id="3555" filePath="C:\Users\owner\Dropbox\Work\png\animation T=1.03555.png" arWidth="640" arHeight="480" duration="0" songTitle="" songArtist="" songAlbum="" songCopyrightUrl="" songArtistUrl="" songAudioFileUrl="" stabilizationMode="0" mediaItemType="2" />
    <MediaItem id="3556" filePath="C:\Users\owner\Dropbox\Work\png\animation T=1.03556.png" arWidth="640" arHeight="480" duration="0" songTitle="" songArtist="" songAlbum="" songCopyrightUrl="" songArtistUrl="" songAudioFileUrl="" stabilizationMode="0" mediaItemType="2" />
    <MediaItem id="3557" filePath="C:\Users\owner\Dropbox\Work\png\animation T=1.03557.png" arWidth="640" arHeight="480" duration="0" songTitle="" songArtist="" songAlbum="" songCopyrightUrl="" songArtistUrl="" songAudioFileUrl="" stabilizationMode="0" mediaItemType="2" />
    <MediaItem id="3558" filePath="C:\Users\owner\Dropbox\Work\png\animation T=1.03558.png" arWidth="640" arHeight="480" duration="0" songTitle="" songArtist="" songAlbum="" songCopyrightUrl="" songArtistUrl="" songAudioFileUrl="" stabilizationMode="0" mediaItemType="2" />
    <MediaItem id="3559" filePath="C:\Users\owner\Dropbox\Work\png\animation T=1.03559.png" arWidth="640" arHeight="480" duration="0" songTitle="" songArtist="" songAlbum="" songCopyrightUrl="" songArtistUrl="" songAudioFileUrl="" stabilizationMode="0" mediaItemType="2" />
    <MediaItem id="3560" filePath="C:\Users\owner\Dropbox\Work\png\animation T=1.03560.png" arWidth="640" arHeight="480" duration="0" songTitle="" songArtist="" songAlbum="" songCopyrightUrl="" songArtistUrl="" songAudioFileUrl="" stabilizationMode="0" mediaItemType="2" />
    <MediaItem id="3561" filePath="C:\Users\owner\Dropbox\Work\png\animation T=1.03561.png" arWidth="640" arHeight="480" duration="0" songTitle="" songArtist="" songAlbum="" songCopyrightUrl="" songArtistUrl="" songAudioFileUrl="" stabilizationMode="0" mediaItemType="2" />
    <MediaItem id="3562" filePath="C:\Users\owner\Dropbox\Work\png\animation T=1.03562.png" arWidth="640" arHeight="480" duration="0" songTitle="" songArtist="" songAlbum="" songCopyrightUrl="" songArtistUrl="" songAudioFileUrl="" stabilizationMode="0" mediaItemType="2" />
    <MediaItem id="3563" filePath="C:\Users\owner\Dropbox\Work\png\animation T=1.03563.png" arWidth="640" arHeight="480" duration="0" songTitle="" songArtist="" songAlbum="" songCopyrightUrl="" songArtistUrl="" songAudioFileUrl="" stabilizationMode="0" mediaItemType="2" />
    <MediaItem id="3564" filePath="C:\Users\owner\Dropbox\Work\png\animation T=1.03564.png" arWidth="640" arHeight="480" duration="0" songTitle="" songArtist="" songAlbum="" songCopyrightUrl="" songArtistUrl="" songAudioFileUrl="" stabilizationMode="0" mediaItemType="2" />
    <MediaItem id="3565" filePath="C:\Users\owner\Dropbox\Work\png\animation T=1.03565.png" arWidth="640" arHeight="480" duration="0" songTitle="" songArtist="" songAlbum="" songCopyrightUrl="" songArtistUrl="" songAudioFileUrl="" stabilizationMode="0" mediaItemType="2" />
    <MediaItem id="3566" filePath="C:\Users\owner\Dropbox\Work\png\animation T=1.03566.png" arWidth="640" arHeight="480" duration="0" songTitle="" songArtist="" songAlbum="" songCopyrightUrl="" songArtistUrl="" songAudioFileUrl="" stabilizationMode="0" mediaItemType="2" />
    <MediaItem id="3567" filePath="C:\Users\owner\Dropbox\Work\png\animation T=1.03567.png" arWidth="640" arHeight="480" duration="0" songTitle="" songArtist="" songAlbum="" songCopyrightUrl="" songArtistUrl="" songAudioFileUrl="" stabilizationMode="0" mediaItemType="2" />
    <MediaItem id="3568" filePath="C:\Users\owner\Dropbox\Work\png\animation T=1.03568.png" arWidth="640" arHeight="480" duration="0" songTitle="" songArtist="" songAlbum="" songCopyrightUrl="" songArtistUrl="" songAudioFileUrl="" stabilizationMode="0" mediaItemType="2" />
    <MediaItem id="3569" filePath="C:\Users\owner\Dropbox\Work\png\animation T=1.03569.png" arWidth="640" arHeight="480" duration="0" songTitle="" songArtist="" songAlbum="" songCopyrightUrl="" songArtistUrl="" songAudioFileUrl="" stabilizationMode="0" mediaItemType="2" />
    <MediaItem id="3570" filePath="C:\Users\owner\Dropbox\Work\png\animation T=1.03570.png" arWidth="640" arHeight="480" duration="0" songTitle="" songArtist="" songAlbum="" songCopyrightUrl="" songArtistUrl="" songAudioFileUrl="" stabilizationMode="0" mediaItemType="2" />
    <MediaItem id="3571" filePath="C:\Users\owner\Dropbox\Work\png\animation T=1.03571.png" arWidth="640" arHeight="480" duration="0" songTitle="" songArtist="" songAlbum="" songCopyrightUrl="" songArtistUrl="" songAudioFileUrl="" stabilizationMode="0" mediaItemType="2" />
    <MediaItem id="3572" filePath="C:\Users\owner\Dropbox\Work\png\animation T=1.03572.png" arWidth="640" arHeight="480" duration="0" songTitle="" songArtist="" songAlbum="" songCopyrightUrl="" songArtistUrl="" songAudioFileUrl="" stabilizationMode="0" mediaItemType="2" />
    <MediaItem id="3573" filePath="C:\Users\owner\Dropbox\Work\png\animation T=1.03573.png" arWidth="640" arHeight="480" duration="0" songTitle="" songArtist="" songAlbum="" songCopyrightUrl="" songArtistUrl="" songAudioFileUrl="" stabilizationMode="0" mediaItemType="2" />
    <MediaItem id="3574" filePath="C:\Users\owner\Dropbox\Work\png\animation T=1.03574.png" arWidth="640" arHeight="480" duration="0" songTitle="" songArtist="" songAlbum="" songCopyrightUrl="" songArtistUrl="" songAudioFileUrl="" stabilizationMode="0" mediaItemType="2" />
    <MediaItem id="3575" filePath="C:\Users\owner\Dropbox\Work\png\animation T=1.03575.png" arWidth="640" arHeight="480" duration="0" songTitle="" songArtist="" songAlbum="" songCopyrightUrl="" songArtistUrl="" songAudioFileUrl="" stabilizationMode="0" mediaItemType="2" />
    <MediaItem id="3576" filePath="C:\Users\owner\Dropbox\Work\png\animation T=1.03576.png" arWidth="640" arHeight="480" duration="0" songTitle="" songArtist="" songAlbum="" songCopyrightUrl="" songArtistUrl="" songAudioFileUrl="" stabilizationMode="0" mediaItemType="2" />
    <MediaItem id="3577" filePath="C:\Users\owner\Dropbox\Work\png\animation T=1.03577.png" arWidth="640" arHeight="480" duration="0" songTitle="" songArtist="" songAlbum="" songCopyrightUrl="" songArtistUrl="" songAudioFileUrl="" stabilizationMode="0" mediaItemType="2" />
    <MediaItem id="3578" filePath="C:\Users\owner\Dropbox\Work\png\animation T=1.03578.png" arWidth="640" arHeight="480" duration="0" songTitle="" songArtist="" songAlbum="" songCopyrightUrl="" songArtistUrl="" songAudioFileUrl="" stabilizationMode="0" mediaItemType="2" />
    <MediaItem id="3579" filePath="C:\Users\owner\Dropbox\Work\png\animation T=1.03579.png" arWidth="640" arHeight="480" duration="0" songTitle="" songArtist="" songAlbum="" songCopyrightUrl="" songArtistUrl="" songAudioFileUrl="" stabilizationMode="0" mediaItemType="2" />
    <MediaItem id="3580" filePath="C:\Users\owner\Dropbox\Work\png\animation T=1.03580.png" arWidth="640" arHeight="480" duration="0" songTitle="" songArtist="" songAlbum="" songCopyrightUrl="" songArtistUrl="" songAudioFileUrl="" stabilizationMode="0" mediaItemType="2" />
    <MediaItem id="3581" filePath="C:\Users\owner\Dropbox\Work\png\animation T=1.03581.png" arWidth="640" arHeight="480" duration="0" songTitle="" songArtist="" songAlbum="" songCopyrightUrl="" songArtistUrl="" songAudioFileUrl="" stabilizationMode="0" mediaItemType="2" />
    <MediaItem id="3582" filePath="C:\Users\owner\Dropbox\Work\png\animation T=1.03582.png" arWidth="640" arHeight="480" duration="0" songTitle="" songArtist="" songAlbum="" songCopyrightUrl="" songArtistUrl="" songAudioFileUrl="" stabilizationMode="0" mediaItemType="2" />
    <MediaItem id="3583" filePath="C:\Users\owner\Dropbox\Work\png\animation T=1.03583.png" arWidth="640" arHeight="480" duration="0" songTitle="" songArtist="" songAlbum="" songCopyrightUrl="" songArtistUrl="" songAudioFileUrl="" stabilizationMode="0" mediaItemType="2" />
    <MediaItem id="3584" filePath="C:\Users\owner\Dropbox\Work\png\animation T=1.03584.png" arWidth="640" arHeight="480" duration="0" songTitle="" songArtist="" songAlbum="" songCopyrightUrl="" songArtistUrl="" songAudioFileUrl="" stabilizationMode="0" mediaItemType="2" />
    <MediaItem id="3585" filePath="C:\Users\owner\Dropbox\Work\png\animation T=1.03585.png" arWidth="640" arHeight="480" duration="0" songTitle="" songArtist="" songAlbum="" songCopyrightUrl="" songArtistUrl="" songAudioFileUrl="" stabilizationMode="0" mediaItemType="2" />
    <MediaItem id="3586" filePath="C:\Users\owner\Dropbox\Work\png\animation T=1.03586.png" arWidth="640" arHeight="480" duration="0" songTitle="" songArtist="" songAlbum="" songCopyrightUrl="" songArtistUrl="" songAudioFileUrl="" stabilizationMode="0" mediaItemType="2" />
    <MediaItem id="3587" filePath="C:\Users\owner\Dropbox\Work\png\animation T=1.03587.png" arWidth="640" arHeight="480" duration="0" songTitle="" songArtist="" songAlbum="" songCopyrightUrl="" songArtistUrl="" songAudioFileUrl="" stabilizationMode="0" mediaItemType="2" />
    <MediaItem id="3588" filePath="C:\Users\owner\Dropbox\Work\png\animation T=1.03588.png" arWidth="640" arHeight="480" duration="0" songTitle="" songArtist="" songAlbum="" songCopyrightUrl="" songArtistUrl="" songAudioFileUrl="" stabilizationMode="0" mediaItemType="2" />
    <MediaItem id="3589" filePath="C:\Users\owner\Dropbox\Work\png\animation T=1.03589.png" arWidth="640" arHeight="480" duration="0" songTitle="" songArtist="" songAlbum="" songCopyrightUrl="" songArtistUrl="" songAudioFileUrl="" stabilizationMode="0" mediaItemType="2" />
    <MediaItem id="3590" filePath="C:\Users\owner\Dropbox\Work\png\animation T=1.03590.png" arWidth="640" arHeight="480" duration="0" songTitle="" songArtist="" songAlbum="" songCopyrightUrl="" songArtistUrl="" songAudioFileUrl="" stabilizationMode="0" mediaItemType="2" />
    <MediaItem id="3591" filePath="C:\Users\owner\Dropbox\Work\png\animation T=1.03591.png" arWidth="640" arHeight="480" duration="0" songTitle="" songArtist="" songAlbum="" songCopyrightUrl="" songArtistUrl="" songAudioFileUrl="" stabilizationMode="0" mediaItemType="2" />
    <MediaItem id="3592" filePath="C:\Users\owner\Dropbox\Work\png\animation T=1.03592.png" arWidth="640" arHeight="480" duration="0" songTitle="" songArtist="" songAlbum="" songCopyrightUrl="" songArtistUrl="" songAudioFileUrl="" stabilizationMode="0" mediaItemType="2" />
    <MediaItem id="3593" filePath="C:\Users\owner\Dropbox\Work\png\animation T=1.03593.png" arWidth="640" arHeight="480" duration="0" songTitle="" songArtist="" songAlbum="" songCopyrightUrl="" songArtistUrl="" songAudioFileUrl="" stabilizationMode="0" mediaItemType="2" />
    <MediaItem id="3594" filePath="C:\Users\owner\Dropbox\Work\png\animation T=1.03594.png" arWidth="640" arHeight="480" duration="0" songTitle="" songArtist="" songAlbum="" songCopyrightUrl="" songArtistUrl="" songAudioFileUrl="" stabilizationMode="0" mediaItemType="2" />
    <MediaItem id="3595" filePath="C:\Users\owner\Dropbox\Work\png\animation T=1.03595.png" arWidth="640" arHeight="480" duration="0" songTitle="" songArtist="" songAlbum="" songCopyrightUrl="" songArtistUrl="" songAudioFileUrl="" stabilizationMode="0" mediaItemType="2" />
    <MediaItem id="3596" filePath="C:\Users\owner\Dropbox\Work\png\animation T=1.03596.png" arWidth="640" arHeight="480" duration="0" songTitle="" songArtist="" songAlbum="" songCopyrightUrl="" songArtistUrl="" songAudioFileUrl="" stabilizationMode="0" mediaItemType="2" />
    <MediaItem id="3597" filePath="C:\Users\owner\Dropbox\Work\png\animation T=1.03597.png" arWidth="640" arHeight="480" duration="0" songTitle="" songArtist="" songAlbum="" songCopyrightUrl="" songArtistUrl="" songAudioFileUrl="" stabilizationMode="0" mediaItemType="2" />
    <MediaItem id="3598" filePath="C:\Users\owner\Dropbox\Work\png\animation T=1.03598.png" arWidth="640" arHeight="480" duration="0" songTitle="" songArtist="" songAlbum="" songCopyrightUrl="" songArtistUrl="" songAudioFileUrl="" stabilizationMode="0" mediaItemType="2" />
    <MediaItem id="3599" filePath="C:\Users\owner\Dropbox\Work\png\animation T=1.03599.png" arWidth="640" arHeight="480" duration="0" songTitle="" songArtist="" songAlbum="" songCopyrightUrl="" songArtistUrl="" songAudioFileUrl="" stabilizationMode="0" mediaItemType="2" />
    <MediaItem id="3600" filePath="C:\Users\owner\Dropbox\Work\png\animation T=1.03600.png" arWidth="640" arHeight="480" duration="0" songTitle="" songArtist="" songAlbum="" songCopyrightUrl="" songArtistUrl="" songAudioFileUrl="" stabilizationMode="0" mediaItemType="2" />
    <MediaItem id="3601" filePath="C:\Users\owner\Dropbox\Work\png\animation T=1.03601.png" arWidth="640" arHeight="480" duration="0" songTitle="" songArtist="" songAlbum="" songCopyrightUrl="" songArtistUrl="" songAudioFileUrl="" stabilizationMode="0" mediaItemType="2" />
    <MediaItem id="3602" filePath="C:\Users\owner\Dropbox\Work\png\animation T=1.03602.png" arWidth="640" arHeight="480" duration="0" songTitle="" songArtist="" songAlbum="" songCopyrightUrl="" songArtistUrl="" songAudioFileUrl="" stabilizationMode="0" mediaItemType="2" />
    <MediaItem id="3603" filePath="C:\Users\owner\Dropbox\Work\png\animation T=1.03603.png" arWidth="640" arHeight="480" duration="0" songTitle="" songArtist="" songAlbum="" songCopyrightUrl="" songArtistUrl="" songAudioFileUrl="" stabilizationMode="0" mediaItemType="2" />
    <MediaItem id="3604" filePath="C:\Users\owner\Dropbox\Work\png\animation T=1.03604.png" arWidth="640" arHeight="480" duration="0" songTitle="" songArtist="" songAlbum="" songCopyrightUrl="" songArtistUrl="" songAudioFileUrl="" stabilizationMode="0" mediaItemType="2" />
    <MediaItem id="3605" filePath="C:\Users\owner\Dropbox\Work\png\animation T=1.03605.png" arWidth="640" arHeight="480" duration="0" songTitle="" songArtist="" songAlbum="" songCopyrightUrl="" songArtistUrl="" songAudioFileUrl="" stabilizationMode="0" mediaItemType="2" />
    <MediaItem id="3606" filePath="C:\Users\owner\Dropbox\Work\png\animation T=1.03606.png" arWidth="640" arHeight="480" duration="0" songTitle="" songArtist="" songAlbum="" songCopyrightUrl="" songArtistUrl="" songAudioFileUrl="" stabilizationMode="0" mediaItemType="2" />
    <MediaItem id="3607" filePath="C:\Users\owner\Dropbox\Work\png\animation T=1.03607.png" arWidth="640" arHeight="480" duration="0" songTitle="" songArtist="" songAlbum="" songCopyrightUrl="" songArtistUrl="" songAudioFileUrl="" stabilizationMode="0" mediaItemType="2" />
    <MediaItem id="3608" filePath="C:\Users\owner\Dropbox\Work\png\animation T=1.03608.png" arWidth="640" arHeight="480" duration="0" songTitle="" songArtist="" songAlbum="" songCopyrightUrl="" songArtistUrl="" songAudioFileUrl="" stabilizationMode="0" mediaItemType="2" />
    <MediaItem id="3609" filePath="C:\Users\owner\Dropbox\Work\png\animation T=1.03609.png" arWidth="640" arHeight="480" duration="0" songTitle="" songArtist="" songAlbum="" songCopyrightUrl="" songArtistUrl="" songAudioFileUrl="" stabilizationMode="0" mediaItemType="2" />
    <MediaItem id="3610" filePath="C:\Users\owner\Dropbox\Work\png\animation T=1.03610.png" arWidth="640" arHeight="480" duration="0" songTitle="" songArtist="" songAlbum="" songCopyrightUrl="" songArtistUrl="" songAudioFileUrl="" stabilizationMode="0" mediaItemType="2" />
    <MediaItem id="3611" filePath="C:\Users\owner\Dropbox\Work\png\animation T=1.03611.png" arWidth="640" arHeight="480" duration="0" songTitle="" songArtist="" songAlbum="" songCopyrightUrl="" songArtistUrl="" songAudioFileUrl="" stabilizationMode="0" mediaItemType="2" />
    <MediaItem id="3612" filePath="C:\Users\owner\Dropbox\Work\png\animation T=1.03612.png" arWidth="640" arHeight="480" duration="0" songTitle="" songArtist="" songAlbum="" songCopyrightUrl="" songArtistUrl="" songAudioFileUrl="" stabilizationMode="0" mediaItemType="2" />
    <MediaItem id="3613" filePath="C:\Users\owner\Dropbox\Work\png\animation T=1.03613.png" arWidth="640" arHeight="480" duration="0" songTitle="" songArtist="" songAlbum="" songCopyrightUrl="" songArtistUrl="" songAudioFileUrl="" stabilizationMode="0" mediaItemType="2" />
    <MediaItem id="3614" filePath="C:\Users\owner\Dropbox\Work\png\animation T=1.03614.png" arWidth="640" arHeight="480" duration="0" songTitle="" songArtist="" songAlbum="" songCopyrightUrl="" songArtistUrl="" songAudioFileUrl="" stabilizationMode="0" mediaItemType="2" />
    <MediaItem id="3615" filePath="C:\Users\owner\Dropbox\Work\png\animation T=1.03615.png" arWidth="640" arHeight="480" duration="0" songTitle="" songArtist="" songAlbum="" songCopyrightUrl="" songArtistUrl="" songAudioFileUrl="" stabilizationMode="0" mediaItemType="2" />
    <MediaItem id="3616" filePath="C:\Users\owner\Dropbox\Work\png\animation T=1.03616.png" arWidth="640" arHeight="480" duration="0" songTitle="" songArtist="" songAlbum="" songCopyrightUrl="" songArtistUrl="" songAudioFileUrl="" stabilizationMode="0" mediaItemType="2" />
    <MediaItem id="3617" filePath="C:\Users\owner\Dropbox\Work\png\animation T=1.03617.png" arWidth="640" arHeight="480" duration="0" songTitle="" songArtist="" songAlbum="" songCopyrightUrl="" songArtistUrl="" songAudioFileUrl="" stabilizationMode="0" mediaItemType="2" />
    <MediaItem id="3618" filePath="C:\Users\owner\Dropbox\Work\png\animation T=1.03618.png" arWidth="640" arHeight="480" duration="0" songTitle="" songArtist="" songAlbum="" songCopyrightUrl="" songArtistUrl="" songAudioFileUrl="" stabilizationMode="0" mediaItemType="2" />
    <MediaItem id="3619" filePath="C:\Users\owner\Dropbox\Work\png\animation T=1.03619.png" arWidth="640" arHeight="480" duration="0" songTitle="" songArtist="" songAlbum="" songCopyrightUrl="" songArtistUrl="" songAudioFileUrl="" stabilizationMode="0" mediaItemType="2" />
    <MediaItem id="3620" filePath="C:\Users\owner\Dropbox\Work\png\animation T=1.03620.png" arWidth="640" arHeight="480" duration="0" songTitle="" songArtist="" songAlbum="" songCopyrightUrl="" songArtistUrl="" songAudioFileUrl="" stabilizationMode="0" mediaItemType="2" />
    <MediaItem id="3621" filePath="C:\Users\owner\Dropbox\Work\png\animation T=1.03621.png" arWidth="640" arHeight="480" duration="0" songTitle="" songArtist="" songAlbum="" songCopyrightUrl="" songArtistUrl="" songAudioFileUrl="" stabilizationMode="0" mediaItemType="2" />
    <MediaItem id="3622" filePath="C:\Users\owner\Dropbox\Work\png\animation T=1.03622.png" arWidth="640" arHeight="480" duration="0" songTitle="" songArtist="" songAlbum="" songCopyrightUrl="" songArtistUrl="" songAudioFileUrl="" stabilizationMode="0" mediaItemType="2" />
    <MediaItem id="3623" filePath="C:\Users\owner\Dropbox\Work\png\animation T=1.03623.png" arWidth="640" arHeight="480" duration="0" songTitle="" songArtist="" songAlbum="" songCopyrightUrl="" songArtistUrl="" songAudioFileUrl="" stabilizationMode="0" mediaItemType="2" />
    <MediaItem id="3624" filePath="C:\Users\owner\Dropbox\Work\png\animation T=1.03624.png" arWidth="640" arHeight="480" duration="0" songTitle="" songArtist="" songAlbum="" songCopyrightUrl="" songArtistUrl="" songAudioFileUrl="" stabilizationMode="0" mediaItemType="2" />
    <MediaItem id="3625" filePath="C:\Users\owner\Dropbox\Work\png\animation T=1.03625.png" arWidth="640" arHeight="480" duration="0" songTitle="" songArtist="" songAlbum="" songCopyrightUrl="" songArtistUrl="" songAudioFileUrl="" stabilizationMode="0" mediaItemType="2" />
    <MediaItem id="3626" filePath="C:\Users\owner\Dropbox\Work\png\animation T=1.03626.png" arWidth="640" arHeight="480" duration="0" songTitle="" songArtist="" songAlbum="" songCopyrightUrl="" songArtistUrl="" songAudioFileUrl="" stabilizationMode="0" mediaItemType="2" />
    <MediaItem id="3627" filePath="C:\Users\owner\Dropbox\Work\png\animation T=1.03627.png" arWidth="640" arHeight="480" duration="0" songTitle="" songArtist="" songAlbum="" songCopyrightUrl="" songArtistUrl="" songAudioFileUrl="" stabilizationMode="0" mediaItemType="2" />
    <MediaItem id="3628" filePath="C:\Users\owner\Dropbox\Work\png\animation T=1.03628.png" arWidth="640" arHeight="480" duration="0" songTitle="" songArtist="" songAlbum="" songCopyrightUrl="" songArtistUrl="" songAudioFileUrl="" stabilizationMode="0" mediaItemType="2" />
    <MediaItem id="3629" filePath="C:\Users\owner\Dropbox\Work\png\animation T=1.03629.png" arWidth="640" arHeight="480" duration="0" songTitle="" songArtist="" songAlbum="" songCopyrightUrl="" songArtistUrl="" songAudioFileUrl="" stabilizationMode="0" mediaItemType="2" />
    <MediaItem id="3630" filePath="C:\Users\owner\Dropbox\Work\png\animation T=1.03630.png" arWidth="640" arHeight="480" duration="0" songTitle="" songArtist="" songAlbum="" songCopyrightUrl="" songArtistUrl="" songAudioFileUrl="" stabilizationMode="0" mediaItemType="2" />
    <MediaItem id="3631" filePath="C:\Users\owner\Dropbox\Work\png\animation T=1.03631.png" arWidth="640" arHeight="480" duration="0" songTitle="" songArtist="" songAlbum="" songCopyrightUrl="" songArtistUrl="" songAudioFileUrl="" stabilizationMode="0" mediaItemType="2" />
    <MediaItem id="3632" filePath="C:\Users\owner\Dropbox\Work\png\animation T=1.03632.png" arWidth="640" arHeight="480" duration="0" songTitle="" songArtist="" songAlbum="" songCopyrightUrl="" songArtistUrl="" songAudioFileUrl="" stabilizationMode="0" mediaItemType="2" />
    <MediaItem id="3633" filePath="C:\Users\owner\Dropbox\Work\png\animation T=1.03633.png" arWidth="640" arHeight="480" duration="0" songTitle="" songArtist="" songAlbum="" songCopyrightUrl="" songArtistUrl="" songAudioFileUrl="" stabilizationMode="0" mediaItemType="2" />
    <MediaItem id="3634" filePath="C:\Users\owner\Dropbox\Work\png\animation T=1.03634.png" arWidth="640" arHeight="480" duration="0" songTitle="" songArtist="" songAlbum="" songCopyrightUrl="" songArtistUrl="" songAudioFileUrl="" stabilizationMode="0" mediaItemType="2" />
    <MediaItem id="3635" filePath="C:\Users\owner\Dropbox\Work\png\animation T=1.03635.png" arWidth="640" arHeight="480" duration="0" songTitle="" songArtist="" songAlbum="" songCopyrightUrl="" songArtistUrl="" songAudioFileUrl="" stabilizationMode="0" mediaItemType="2" />
    <MediaItem id="3636" filePath="C:\Users\owner\Dropbox\Work\png\animation T=1.03636.png" arWidth="640" arHeight="480" duration="0" songTitle="" songArtist="" songAlbum="" songCopyrightUrl="" songArtistUrl="" songAudioFileUrl="" stabilizationMode="0" mediaItemType="2" />
    <MediaItem id="3637" filePath="C:\Users\owner\Dropbox\Work\png\animation T=1.03637.png" arWidth="640" arHeight="480" duration="0" songTitle="" songArtist="" songAlbum="" songCopyrightUrl="" songArtistUrl="" songAudioFileUrl="" stabilizationMode="0" mediaItemType="2" />
    <MediaItem id="3638" filePath="C:\Users\owner\Dropbox\Work\png\animation T=1.03638.png" arWidth="640" arHeight="480" duration="0" songTitle="" songArtist="" songAlbum="" songCopyrightUrl="" songArtistUrl="" songAudioFileUrl="" stabilizationMode="0" mediaItemType="2" />
    <MediaItem id="3639" filePath="C:\Users\owner\Dropbox\Work\png\animation T=1.03639.png" arWidth="640" arHeight="480" duration="0" songTitle="" songArtist="" songAlbum="" songCopyrightUrl="" songArtistUrl="" songAudioFileUrl="" stabilizationMode="0" mediaItemType="2" />
    <MediaItem id="3640" filePath="C:\Users\owner\Dropbox\Work\png\animation T=1.03640.png" arWidth="640" arHeight="480" duration="0" songTitle="" songArtist="" songAlbum="" songCopyrightUrl="" songArtistUrl="" songAudioFileUrl="" stabilizationMode="0" mediaItemType="2" />
    <MediaItem id="3641" filePath="C:\Users\owner\Dropbox\Work\png\animation T=1.03641.png" arWidth="640" arHeight="480" duration="0" songTitle="" songArtist="" songAlbum="" songCopyrightUrl="" songArtistUrl="" songAudioFileUrl="" stabilizationMode="0" mediaItemType="2" />
    <MediaItem id="3642" filePath="C:\Users\owner\Dropbox\Work\png\animation T=1.03642.png" arWidth="640" arHeight="480" duration="0" songTitle="" songArtist="" songAlbum="" songCopyrightUrl="" songArtistUrl="" songAudioFileUrl="" stabilizationMode="0" mediaItemType="2" />
    <MediaItem id="3643" filePath="C:\Users\owner\Dropbox\Work\png\animation T=1.03643.png" arWidth="640" arHeight="480" duration="0" songTitle="" songArtist="" songAlbum="" songCopyrightUrl="" songArtistUrl="" songAudioFileUrl="" stabilizationMode="0" mediaItemType="2" />
    <MediaItem id="3644" filePath="C:\Users\owner\Dropbox\Work\png\animation T=1.03644.png" arWidth="640" arHeight="480" duration="0" songTitle="" songArtist="" songAlbum="" songCopyrightUrl="" songArtistUrl="" songAudioFileUrl="" stabilizationMode="0" mediaItemType="2" />
    <MediaItem id="3645" filePath="C:\Users\owner\Dropbox\Work\png\animation T=1.03645.png" arWidth="640" arHeight="480" duration="0" songTitle="" songArtist="" songAlbum="" songCopyrightUrl="" songArtistUrl="" songAudioFileUrl="" stabilizationMode="0" mediaItemType="2" />
    <MediaItem id="3646" filePath="C:\Users\owner\Dropbox\Work\png\animation T=1.03646.png" arWidth="640" arHeight="480" duration="0" songTitle="" songArtist="" songAlbum="" songCopyrightUrl="" songArtistUrl="" songAudioFileUrl="" stabilizationMode="0" mediaItemType="2" />
    <MediaItem id="3647" filePath="C:\Users\owner\Dropbox\Work\png\animation T=1.03647.png" arWidth="640" arHeight="480" duration="0" songTitle="" songArtist="" songAlbum="" songCopyrightUrl="" songArtistUrl="" songAudioFileUrl="" stabilizationMode="0" mediaItemType="2" />
    <MediaItem id="3648" filePath="C:\Users\owner\Dropbox\Work\png\animation T=1.03648.png" arWidth="640" arHeight="480" duration="0" songTitle="" songArtist="" songAlbum="" songCopyrightUrl="" songArtistUrl="" songAudioFileUrl="" stabilizationMode="0" mediaItemType="2" />
    <MediaItem id="3649" filePath="C:\Users\owner\Dropbox\Work\png\animation T=1.03649.png" arWidth="640" arHeight="480" duration="0" songTitle="" songArtist="" songAlbum="" songCopyrightUrl="" songArtistUrl="" songAudioFileUrl="" stabilizationMode="0" mediaItemType="2" />
    <MediaItem id="3650" filePath="C:\Users\owner\Dropbox\Work\png\animation T=1.03650.png" arWidth="640" arHeight="480" duration="0" songTitle="" songArtist="" songAlbum="" songCopyrightUrl="" songArtistUrl="" songAudioFileUrl="" stabilizationMode="0" mediaItemType="2" />
    <MediaItem id="3651" filePath="C:\Users\owner\Dropbox\Work\png\animation T=1.03651.png" arWidth="640" arHeight="480" duration="0" songTitle="" songArtist="" songAlbum="" songCopyrightUrl="" songArtistUrl="" songAudioFileUrl="" stabilizationMode="0" mediaItemType="2" />
    <MediaItem id="3652" filePath="C:\Users\owner\Dropbox\Work\png\animation T=1.03652.png" arWidth="640" arHeight="480" duration="0" songTitle="" songArtist="" songAlbum="" songCopyrightUrl="" songArtistUrl="" songAudioFileUrl="" stabilizationMode="0" mediaItemType="2" />
    <MediaItem id="3653" filePath="C:\Users\owner\Dropbox\Work\png\animation T=1.03653.png" arWidth="640" arHeight="480" duration="0" songTitle="" songArtist="" songAlbum="" songCopyrightUrl="" songArtistUrl="" songAudioFileUrl="" stabilizationMode="0" mediaItemType="2" />
    <MediaItem id="3654" filePath="C:\Users\owner\Dropbox\Work\png\animation T=1.03654.png" arWidth="640" arHeight="480" duration="0" songTitle="" songArtist="" songAlbum="" songCopyrightUrl="" songArtistUrl="" songAudioFileUrl="" stabilizationMode="0" mediaItemType="2" />
    <MediaItem id="3655" filePath="C:\Users\owner\Dropbox\Work\png\animation T=1.03655.png" arWidth="640" arHeight="480" duration="0" songTitle="" songArtist="" songAlbum="" songCopyrightUrl="" songArtistUrl="" songAudioFileUrl="" stabilizationMode="0" mediaItemType="2" />
    <MediaItem id="3656" filePath="C:\Users\owner\Dropbox\Work\png\animation T=1.03656.png" arWidth="640" arHeight="480" duration="0" songTitle="" songArtist="" songAlbum="" songCopyrightUrl="" songArtistUrl="" songAudioFileUrl="" stabilizationMode="0" mediaItemType="2" />
    <MediaItem id="3657" filePath="C:\Users\owner\Dropbox\Work\png\animation T=1.03657.png" arWidth="640" arHeight="480" duration="0" songTitle="" songArtist="" songAlbum="" songCopyrightUrl="" songArtistUrl="" songAudioFileUrl="" stabilizationMode="0" mediaItemType="2" />
    <MediaItem id="3658" filePath="C:\Users\owner\Dropbox\Work\png\animation T=1.03658.png" arWidth="640" arHeight="480" duration="0" songTitle="" songArtist="" songAlbum="" songCopyrightUrl="" songArtistUrl="" songAudioFileUrl="" stabilizationMode="0" mediaItemType="2" />
    <MediaItem id="3659" filePath="C:\Users\owner\Dropbox\Work\png\animation T=1.03659.png" arWidth="640" arHeight="480" duration="0" songTitle="" songArtist="" songAlbum="" songCopyrightUrl="" songArtistUrl="" songAudioFileUrl="" stabilizationMode="0" mediaItemType="2" />
    <MediaItem id="3660" filePath="C:\Users\owner\Dropbox\Work\png\animation T=1.03660.png" arWidth="640" arHeight="480" duration="0" songTitle="" songArtist="" songAlbum="" songCopyrightUrl="" songArtistUrl="" songAudioFileUrl="" stabilizationMode="0" mediaItemType="2" />
    <MediaItem id="3661" filePath="C:\Users\owner\Dropbox\Work\png\animation T=1.03661.png" arWidth="640" arHeight="480" duration="0" songTitle="" songArtist="" songAlbum="" songCopyrightUrl="" songArtistUrl="" songAudioFileUrl="" stabilizationMode="0" mediaItemType="2" />
    <MediaItem id="3662" filePath="C:\Users\owner\Dropbox\Work\png\animation T=1.03662.png" arWidth="640" arHeight="480" duration="0" songTitle="" songArtist="" songAlbum="" songCopyrightUrl="" songArtistUrl="" songAudioFileUrl="" stabilizationMode="0" mediaItemType="2" />
    <MediaItem id="3663" filePath="C:\Users\owner\Dropbox\Work\png\animation T=1.03663.png" arWidth="640" arHeight="480" duration="0" songTitle="" songArtist="" songAlbum="" songCopyrightUrl="" songArtistUrl="" songAudioFileUrl="" stabilizationMode="0" mediaItemType="2" />
    <MediaItem id="3664" filePath="C:\Users\owner\Dropbox\Work\png\animation T=1.03664.png" arWidth="640" arHeight="480" duration="0" songTitle="" songArtist="" songAlbum="" songCopyrightUrl="" songArtistUrl="" songAudioFileUrl="" stabilizationMode="0" mediaItemType="2" />
    <MediaItem id="3665" filePath="C:\Users\owner\Dropbox\Work\png\animation T=1.03665.png" arWidth="640" arHeight="480" duration="0" songTitle="" songArtist="" songAlbum="" songCopyrightUrl="" songArtistUrl="" songAudioFileUrl="" stabilizationMode="0" mediaItemType="2" />
    <MediaItem id="3666" filePath="C:\Users\owner\Dropbox\Work\png\animation T=1.03666.png" arWidth="640" arHeight="480" duration="0" songTitle="" songArtist="" songAlbum="" songCopyrightUrl="" songArtistUrl="" songAudioFileUrl="" stabilizationMode="0" mediaItemType="2" />
    <MediaItem id="3667" filePath="C:\Users\owner\Dropbox\Work\png\animation T=1.03667.png" arWidth="640" arHeight="480" duration="0" songTitle="" songArtist="" songAlbum="" songCopyrightUrl="" songArtistUrl="" songAudioFileUrl="" stabilizationMode="0" mediaItemType="2" />
    <MediaItem id="3668" filePath="C:\Users\owner\Dropbox\Work\png\animation T=1.03668.png" arWidth="640" arHeight="480" duration="0" songTitle="" songArtist="" songAlbum="" songCopyrightUrl="" songArtistUrl="" songAudioFileUrl="" stabilizationMode="0" mediaItemType="2" />
    <MediaItem id="3669" filePath="C:\Users\owner\Dropbox\Work\png\animation T=1.03669.png" arWidth="640" arHeight="480" duration="0" songTitle="" songArtist="" songAlbum="" songCopyrightUrl="" songArtistUrl="" songAudioFileUrl="" stabilizationMode="0" mediaItemType="2" />
    <MediaItem id="3670" filePath="C:\Users\owner\Dropbox\Work\png\animation T=1.03670.png" arWidth="640" arHeight="480" duration="0" songTitle="" songArtist="" songAlbum="" songCopyrightUrl="" songArtistUrl="" songAudioFileUrl="" stabilizationMode="0" mediaItemType="2" />
    <MediaItem id="3671" filePath="C:\Users\owner\Dropbox\Work\png\animation T=1.03671.png" arWidth="640" arHeight="480" duration="0" songTitle="" songArtist="" songAlbum="" songCopyrightUrl="" songArtistUrl="" songAudioFileUrl="" stabilizationMode="0" mediaItemType="2" />
    <MediaItem id="3672" filePath="C:\Users\owner\Dropbox\Work\png\animation T=1.03672.png" arWidth="640" arHeight="480" duration="0" songTitle="" songArtist="" songAlbum="" songCopyrightUrl="" songArtistUrl="" songAudioFileUrl="" stabilizationMode="0" mediaItemType="2" />
    <MediaItem id="3673" filePath="C:\Users\owner\Dropbox\Work\png\animation T=1.03673.png" arWidth="640" arHeight="480" duration="0" songTitle="" songArtist="" songAlbum="" songCopyrightUrl="" songArtistUrl="" songAudioFileUrl="" stabilizationMode="0" mediaItemType="2" />
    <MediaItem id="3674" filePath="C:\Users\owner\Dropbox\Work\png\animation T=1.03674.png" arWidth="640" arHeight="480" duration="0" songTitle="" songArtist="" songAlbum="" songCopyrightUrl="" songArtistUrl="" songAudioFileUrl="" stabilizationMode="0" mediaItemType="2" />
    <MediaItem id="3675" filePath="C:\Users\owner\Dropbox\Work\png\animation T=1.03675.png" arWidth="640" arHeight="480" duration="0" songTitle="" songArtist="" songAlbum="" songCopyrightUrl="" songArtistUrl="" songAudioFileUrl="" stabilizationMode="0" mediaItemType="2" />
    <MediaItem id="3676" filePath="C:\Users\owner\Dropbox\Work\png\animation T=1.03676.png" arWidth="640" arHeight="480" duration="0" songTitle="" songArtist="" songAlbum="" songCopyrightUrl="" songArtistUrl="" songAudioFileUrl="" stabilizationMode="0" mediaItemType="2" />
    <MediaItem id="3677" filePath="C:\Users\owner\Dropbox\Work\png\animation T=1.03677.png" arWidth="640" arHeight="480" duration="0" songTitle="" songArtist="" songAlbum="" songCopyrightUrl="" songArtistUrl="" songAudioFileUrl="" stabilizationMode="0" mediaItemType="2" />
    <MediaItem id="3678" filePath="C:\Users\owner\Dropbox\Work\png\animation T=1.03678.png" arWidth="640" arHeight="480" duration="0" songTitle="" songArtist="" songAlbum="" songCopyrightUrl="" songArtistUrl="" songAudioFileUrl="" stabilizationMode="0" mediaItemType="2" />
    <MediaItem id="3679" filePath="C:\Users\owner\Dropbox\Work\png\animation T=1.03679.png" arWidth="640" arHeight="480" duration="0" songTitle="" songArtist="" songAlbum="" songCopyrightUrl="" songArtistUrl="" songAudioFileUrl="" stabilizationMode="0" mediaItemType="2" />
    <MediaItem id="3680" filePath="C:\Users\owner\Dropbox\Work\png\animation T=1.03680.png" arWidth="640" arHeight="480" duration="0" songTitle="" songArtist="" songAlbum="" songCopyrightUrl="" songArtistUrl="" songAudioFileUrl="" stabilizationMode="0" mediaItemType="2" />
    <MediaItem id="3681" filePath="C:\Users\owner\Dropbox\Work\png\animation T=1.03681.png" arWidth="640" arHeight="480" duration="0" songTitle="" songArtist="" songAlbum="" songCopyrightUrl="" songArtistUrl="" songAudioFileUrl="" stabilizationMode="0" mediaItemType="2" />
    <MediaItem id="3682" filePath="C:\Users\owner\Dropbox\Work\png\animation T=1.03682.png" arWidth="640" arHeight="480" duration="0" songTitle="" songArtist="" songAlbum="" songCopyrightUrl="" songArtistUrl="" songAudioFileUrl="" stabilizationMode="0" mediaItemType="2" />
    <MediaItem id="3683" filePath="C:\Users\owner\Dropbox\Work\png\animation T=1.03683.png" arWidth="640" arHeight="480" duration="0" songTitle="" songArtist="" songAlbum="" songCopyrightUrl="" songArtistUrl="" songAudioFileUrl="" stabilizationMode="0" mediaItemType="2" />
    <MediaItem id="3684" filePath="C:\Users\owner\Dropbox\Work\png\animation T=1.03684.png" arWidth="640" arHeight="480" duration="0" songTitle="" songArtist="" songAlbum="" songCopyrightUrl="" songArtistUrl="" songAudioFileUrl="" stabilizationMode="0" mediaItemType="2" />
    <MediaItem id="3685" filePath="C:\Users\owner\Dropbox\Work\png\animation T=1.03685.png" arWidth="640" arHeight="480" duration="0" songTitle="" songArtist="" songAlbum="" songCopyrightUrl="" songArtistUrl="" songAudioFileUrl="" stabilizationMode="0" mediaItemType="2" />
    <MediaItem id="3686" filePath="C:\Users\owner\Dropbox\Work\png\animation T=1.03686.png" arWidth="640" arHeight="480" duration="0" songTitle="" songArtist="" songAlbum="" songCopyrightUrl="" songArtistUrl="" songAudioFileUrl="" stabilizationMode="0" mediaItemType="2" />
    <MediaItem id="3687" filePath="C:\Users\owner\Dropbox\Work\png\animation T=1.03687.png" arWidth="640" arHeight="480" duration="0" songTitle="" songArtist="" songAlbum="" songCopyrightUrl="" songArtistUrl="" songAudioFileUrl="" stabilizationMode="0" mediaItemType="2" />
    <MediaItem id="3688" filePath="C:\Users\owner\Dropbox\Work\png\animation T=1.03688.png" arWidth="640" arHeight="480" duration="0" songTitle="" songArtist="" songAlbum="" songCopyrightUrl="" songArtistUrl="" songAudioFileUrl="" stabilizationMode="0" mediaItemType="2" />
    <MediaItem id="3689" filePath="C:\Users\owner\Dropbox\Work\png\animation T=1.03689.png" arWidth="640" arHeight="480" duration="0" songTitle="" songArtist="" songAlbum="" songCopyrightUrl="" songArtistUrl="" songAudioFileUrl="" stabilizationMode="0" mediaItemType="2" />
    <MediaItem id="3690" filePath="C:\Users\owner\Dropbox\Work\png\animation T=1.03690.png" arWidth="640" arHeight="480" duration="0" songTitle="" songArtist="" songAlbum="" songCopyrightUrl="" songArtistUrl="" songAudioFileUrl="" stabilizationMode="0" mediaItemType="2" />
    <MediaItem id="3691" filePath="C:\Users\owner\Dropbox\Work\png\animation T=1.03691.png" arWidth="640" arHeight="480" duration="0" songTitle="" songArtist="" songAlbum="" songCopyrightUrl="" songArtistUrl="" songAudioFileUrl="" stabilizationMode="0" mediaItemType="2" />
    <MediaItem id="3692" filePath="C:\Users\owner\Dropbox\Work\png\animation T=1.03692.png" arWidth="640" arHeight="480" duration="0" songTitle="" songArtist="" songAlbum="" songCopyrightUrl="" songArtistUrl="" songAudioFileUrl="" stabilizationMode="0" mediaItemType="2" />
    <MediaItem id="3693" filePath="C:\Users\owner\Dropbox\Work\png\animation T=1.03693.png" arWidth="640" arHeight="480" duration="0" songTitle="" songArtist="" songAlbum="" songCopyrightUrl="" songArtistUrl="" songAudioFileUrl="" stabilizationMode="0" mediaItemType="2" />
    <MediaItem id="3694" filePath="C:\Users\owner\Dropbox\Work\png\animation T=1.03694.png" arWidth="640" arHeight="480" duration="0" songTitle="" songArtist="" songAlbum="" songCopyrightUrl="" songArtistUrl="" songAudioFileUrl="" stabilizationMode="0" mediaItemType="2" />
    <MediaItem id="3695" filePath="C:\Users\owner\Dropbox\Work\png\animation T=1.03695.png" arWidth="640" arHeight="480" duration="0" songTitle="" songArtist="" songAlbum="" songCopyrightUrl="" songArtistUrl="" songAudioFileUrl="" stabilizationMode="0" mediaItemType="2" />
    <MediaItem id="3696" filePath="C:\Users\owner\Dropbox\Work\png\animation T=1.03696.png" arWidth="640" arHeight="480" duration="0" songTitle="" songArtist="" songAlbum="" songCopyrightUrl="" songArtistUrl="" songAudioFileUrl="" stabilizationMode="0" mediaItemType="2" />
    <MediaItem id="3697" filePath="C:\Users\owner\Dropbox\Work\png\animation T=1.03697.png" arWidth="640" arHeight="480" duration="0" songTitle="" songArtist="" songAlbum="" songCopyrightUrl="" songArtistUrl="" songAudioFileUrl="" stabilizationMode="0" mediaItemType="2" />
    <MediaItem id="3698" filePath="C:\Users\owner\Dropbox\Work\png\animation T=1.03698.png" arWidth="640" arHeight="480" duration="0" songTitle="" songArtist="" songAlbum="" songCopyrightUrl="" songArtistUrl="" songAudioFileUrl="" stabilizationMode="0" mediaItemType="2" />
    <MediaItem id="3699" filePath="C:\Users\owner\Dropbox\Work\png\animation T=1.03699.png" arWidth="640" arHeight="480" duration="0" songTitle="" songArtist="" songAlbum="" songCopyrightUrl="" songArtistUrl="" songAudioFileUrl="" stabilizationMode="0" mediaItemType="2" />
    <MediaItem id="3700" filePath="C:\Users\owner\Dropbox\Work\png\animation T=1.03700.png" arWidth="640" arHeight="480" duration="0" songTitle="" songArtist="" songAlbum="" songCopyrightUrl="" songArtistUrl="" songAudioFileUrl="" stabilizationMode="0" mediaItemType="2" />
    <MediaItem id="3701" filePath="C:\Users\owner\Dropbox\Work\png\animation T=1.03701.png" arWidth="640" arHeight="480" duration="0" songTitle="" songArtist="" songAlbum="" songCopyrightUrl="" songArtistUrl="" songAudioFileUrl="" stabilizationMode="0" mediaItemType="2" />
    <MediaItem id="3702" filePath="C:\Users\owner\Dropbox\Work\png\animation T=1.03702.png" arWidth="640" arHeight="480" duration="0" songTitle="" songArtist="" songAlbum="" songCopyrightUrl="" songArtistUrl="" songAudioFileUrl="" stabilizationMode="0" mediaItemType="2" />
    <MediaItem id="3703" filePath="C:\Users\owner\Dropbox\Work\png\animation T=1.03703.png" arWidth="640" arHeight="480" duration="0" songTitle="" songArtist="" songAlbum="" songCopyrightUrl="" songArtistUrl="" songAudioFileUrl="" stabilizationMode="0" mediaItemType="2" />
    <MediaItem id="3704" filePath="C:\Users\owner\Dropbox\Work\png\animation T=1.03704.png" arWidth="640" arHeight="480" duration="0" songTitle="" songArtist="" songAlbum="" songCopyrightUrl="" songArtistUrl="" songAudioFileUrl="" stabilizationMode="0" mediaItemType="2" />
    <MediaItem id="3705" filePath="C:\Users\owner\Dropbox\Work\png\animation T=1.03705.png" arWidth="640" arHeight="480" duration="0" songTitle="" songArtist="" songAlbum="" songCopyrightUrl="" songArtistUrl="" songAudioFileUrl="" stabilizationMode="0" mediaItemType="2" />
    <MediaItem id="3706" filePath="C:\Users\owner\Dropbox\Work\png\animation T=1.03706.png" arWidth="640" arHeight="480" duration="0" songTitle="" songArtist="" songAlbum="" songCopyrightUrl="" songArtistUrl="" songAudioFileUrl="" stabilizationMode="0" mediaItemType="2" />
    <MediaItem id="3707" filePath="C:\Users\owner\Dropbox\Work\png\animation T=1.03707.png" arWidth="640" arHeight="480" duration="0" songTitle="" songArtist="" songAlbum="" songCopyrightUrl="" songArtistUrl="" songAudioFileUrl="" stabilizationMode="0" mediaItemType="2" />
    <MediaItem id="3708" filePath="C:\Users\owner\Dropbox\Work\png\animation T=1.03708.png" arWidth="640" arHeight="480" duration="0" songTitle="" songArtist="" songAlbum="" songCopyrightUrl="" songArtistUrl="" songAudioFileUrl="" stabilizationMode="0" mediaItemType="2" />
    <MediaItem id="3709" filePath="C:\Users\owner\Dropbox\Work\png\animation T=1.03709.png" arWidth="640" arHeight="480" duration="0" songTitle="" songArtist="" songAlbum="" songCopyrightUrl="" songArtistUrl="" songAudioFileUrl="" stabilizationMode="0" mediaItemType="2" />
    <MediaItem id="3710" filePath="C:\Users\owner\Dropbox\Work\png\animation T=1.03710.png" arWidth="640" arHeight="480" duration="0" songTitle="" songArtist="" songAlbum="" songCopyrightUrl="" songArtistUrl="" songAudioFileUrl="" stabilizationMode="0" mediaItemType="2" />
    <MediaItem id="3711" filePath="C:\Users\owner\Dropbox\Work\png\animation T=1.03711.png" arWidth="640" arHeight="480" duration="0" songTitle="" songArtist="" songAlbum="" songCopyrightUrl="" songArtistUrl="" songAudioFileUrl="" stabilizationMode="0" mediaItemType="2" />
    <MediaItem id="3712" filePath="C:\Users\owner\Dropbox\Work\png\animation T=1.03712.png" arWidth="640" arHeight="480" duration="0" songTitle="" songArtist="" songAlbum="" songCopyrightUrl="" songArtistUrl="" songAudioFileUrl="" stabilizationMode="0" mediaItemType="2" />
    <MediaItem id="3713" filePath="C:\Users\owner\Dropbox\Work\png\animation T=1.03713.png" arWidth="640" arHeight="480" duration="0" songTitle="" songArtist="" songAlbum="" songCopyrightUrl="" songArtistUrl="" songAudioFileUrl="" stabilizationMode="0" mediaItemType="2" />
    <MediaItem id="3714" filePath="C:\Users\owner\Dropbox\Work\png\animation T=1.03714.png" arWidth="640" arHeight="480" duration="0" songTitle="" songArtist="" songAlbum="" songCopyrightUrl="" songArtistUrl="" songAudioFileUrl="" stabilizationMode="0" mediaItemType="2" />
    <MediaItem id="3715" filePath="C:\Users\owner\Dropbox\Work\png\animation T=1.03715.png" arWidth="640" arHeight="480" duration="0" songTitle="" songArtist="" songAlbum="" songCopyrightUrl="" songArtistUrl="" songAudioFileUrl="" stabilizationMode="0" mediaItemType="2" />
    <MediaItem id="3716" filePath="C:\Users\owner\Dropbox\Work\png\animation T=1.03716.png" arWidth="640" arHeight="480" duration="0" songTitle="" songArtist="" songAlbum="" songCopyrightUrl="" songArtistUrl="" songAudioFileUrl="" stabilizationMode="0" mediaItemType="2" />
    <MediaItem id="3717" filePath="C:\Users\owner\Dropbox\Work\png\animation T=1.03717.png" arWidth="640" arHeight="480" duration="0" songTitle="" songArtist="" songAlbum="" songCopyrightUrl="" songArtistUrl="" songAudioFileUrl="" stabilizationMode="0" mediaItemType="2" />
    <MediaItem id="3718" filePath="C:\Users\owner\Dropbox\Work\png\animation T=1.03718.png" arWidth="640" arHeight="480" duration="0" songTitle="" songArtist="" songAlbum="" songCopyrightUrl="" songArtistUrl="" songAudioFileUrl="" stabilizationMode="0" mediaItemType="2" />
    <MediaItem id="3719" filePath="C:\Users\owner\Dropbox\Work\png\animation T=1.03719.png" arWidth="640" arHeight="480" duration="0" songTitle="" songArtist="" songAlbum="" songCopyrightUrl="" songArtistUrl="" songAudioFileUrl="" stabilizationMode="0" mediaItemType="2" />
    <MediaItem id="3720" filePath="C:\Users\owner\Dropbox\Work\png\animation T=1.03720.png" arWidth="640" arHeight="480" duration="0" songTitle="" songArtist="" songAlbum="" songCopyrightUrl="" songArtistUrl="" songAudioFileUrl="" stabilizationMode="0" mediaItemType="2" />
    <MediaItem id="3721" filePath="C:\Users\owner\Dropbox\Work\png\animation T=1.03721.png" arWidth="640" arHeight="480" duration="0" songTitle="" songArtist="" songAlbum="" songCopyrightUrl="" songArtistUrl="" songAudioFileUrl="" stabilizationMode="0" mediaItemType="2" />
    <MediaItem id="3722" filePath="C:\Users\owner\Dropbox\Work\png\animation T=1.03722.png" arWidth="640" arHeight="480" duration="0" songTitle="" songArtist="" songAlbum="" songCopyrightUrl="" songArtistUrl="" songAudioFileUrl="" stabilizationMode="0" mediaItemType="2" />
    <MediaItem id="3723" filePath="C:\Users\owner\Dropbox\Work\png\animation T=1.03723.png" arWidth="640" arHeight="480" duration="0" songTitle="" songArtist="" songAlbum="" songCopyrightUrl="" songArtistUrl="" songAudioFileUrl="" stabilizationMode="0" mediaItemType="2" />
    <MediaItem id="3724" filePath="C:\Users\owner\Dropbox\Work\png\animation T=1.03724.png" arWidth="640" arHeight="480" duration="0" songTitle="" songArtist="" songAlbum="" songCopyrightUrl="" songArtistUrl="" songAudioFileUrl="" stabilizationMode="0" mediaItemType="2" />
    <MediaItem id="3725" filePath="C:\Users\owner\Dropbox\Work\png\animation T=1.03725.png" arWidth="640" arHeight="480" duration="0" songTitle="" songArtist="" songAlbum="" songCopyrightUrl="" songArtistUrl="" songAudioFileUrl="" stabilizationMode="0" mediaItemType="2" />
    <MediaItem id="3726" filePath="C:\Users\owner\Dropbox\Work\png\animation T=1.03726.png" arWidth="640" arHeight="480" duration="0" songTitle="" songArtist="" songAlbum="" songCopyrightUrl="" songArtistUrl="" songAudioFileUrl="" stabilizationMode="0" mediaItemType="2" />
    <MediaItem id="3727" filePath="C:\Users\owner\Dropbox\Work\png\animation T=1.03727.png" arWidth="640" arHeight="480" duration="0" songTitle="" songArtist="" songAlbum="" songCopyrightUrl="" songArtistUrl="" songAudioFileUrl="" stabilizationMode="0" mediaItemType="2" />
    <MediaItem id="3728" filePath="C:\Users\owner\Dropbox\Work\png\animation T=1.03728.png" arWidth="640" arHeight="480" duration="0" songTitle="" songArtist="" songAlbum="" songCopyrightUrl="" songArtistUrl="" songAudioFileUrl="" stabilizationMode="0" mediaItemType="2" />
    <MediaItem id="3729" filePath="C:\Users\owner\Dropbox\Work\png\animation T=1.03729.png" arWidth="640" arHeight="480" duration="0" songTitle="" songArtist="" songAlbum="" songCopyrightUrl="" songArtistUrl="" songAudioFileUrl="" stabilizationMode="0" mediaItemType="2" />
    <MediaItem id="3730" filePath="C:\Users\owner\Dropbox\Work\png\animation T=1.03730.png" arWidth="640" arHeight="480" duration="0" songTitle="" songArtist="" songAlbum="" songCopyrightUrl="" songArtistUrl="" songAudioFileUrl="" stabilizationMode="0" mediaItemType="2" />
    <MediaItem id="3731" filePath="C:\Users\owner\Dropbox\Work\png\animation T=1.03731.png" arWidth="640" arHeight="480" duration="0" songTitle="" songArtist="" songAlbum="" songCopyrightUrl="" songArtistUrl="" songAudioFileUrl="" stabilizationMode="0" mediaItemType="2" />
    <MediaItem id="3732" filePath="C:\Users\owner\Dropbox\Work\png\animation T=1.03732.png" arWidth="640" arHeight="480" duration="0" songTitle="" songArtist="" songAlbum="" songCopyrightUrl="" songArtistUrl="" songAudioFileUrl="" stabilizationMode="0" mediaItemType="2" />
    <MediaItem id="3733" filePath="C:\Users\owner\Dropbox\Work\png\animation T=1.03733.png" arWidth="640" arHeight="480" duration="0" songTitle="" songArtist="" songAlbum="" songCopyrightUrl="" songArtistUrl="" songAudioFileUrl="" stabilizationMode="0" mediaItemType="2" />
    <MediaItem id="3734" filePath="C:\Users\owner\Dropbox\Work\png\animation T=1.03734.png" arWidth="640" arHeight="480" duration="0" songTitle="" songArtist="" songAlbum="" songCopyrightUrl="" songArtistUrl="" songAudioFileUrl="" stabilizationMode="0" mediaItemType="2" />
    <MediaItem id="3735" filePath="C:\Users\owner\Dropbox\Work\png\animation T=1.03735.png" arWidth="640" arHeight="480" duration="0" songTitle="" songArtist="" songAlbum="" songCopyrightUrl="" songArtistUrl="" songAudioFileUrl="" stabilizationMode="0" mediaItemType="2" />
    <MediaItem id="3736" filePath="C:\Users\owner\Dropbox\Work\png\animation T=1.03736.png" arWidth="640" arHeight="480" duration="0" songTitle="" songArtist="" songAlbum="" songCopyrightUrl="" songArtistUrl="" songAudioFileUrl="" stabilizationMode="0" mediaItemType="2" />
    <MediaItem id="3737" filePath="C:\Users\owner\Dropbox\Work\png\animation T=1.03737.png" arWidth="640" arHeight="480" duration="0" songTitle="" songArtist="" songAlbum="" songCopyrightUrl="" songArtistUrl="" songAudioFileUrl="" stabilizationMode="0" mediaItemType="2" />
    <MediaItem id="3738" filePath="C:\Users\owner\Dropbox\Work\png\animation T=1.03738.png" arWidth="640" arHeight="480" duration="0" songTitle="" songArtist="" songAlbum="" songCopyrightUrl="" songArtistUrl="" songAudioFileUrl="" stabilizationMode="0" mediaItemType="2" />
    <MediaItem id="3739" filePath="C:\Users\owner\Dropbox\Work\png\animation T=1.03739.png" arWidth="640" arHeight="480" duration="0" songTitle="" songArtist="" songAlbum="" songCopyrightUrl="" songArtistUrl="" songAudioFileUrl="" stabilizationMode="0" mediaItemType="2" />
    <MediaItem id="3740" filePath="C:\Users\owner\Dropbox\Work\png\animation T=1.03740.png" arWidth="640" arHeight="480" duration="0" songTitle="" songArtist="" songAlbum="" songCopyrightUrl="" songArtistUrl="" songAudioFileUrl="" stabilizationMode="0" mediaItemType="2" />
    <MediaItem id="3741" filePath="C:\Users\owner\Dropbox\Work\png\animation T=1.03741.png" arWidth="640" arHeight="480" duration="0" songTitle="" songArtist="" songAlbum="" songCopyrightUrl="" songArtistUrl="" songAudioFileUrl="" stabilizationMode="0" mediaItemType="2" />
    <MediaItem id="3742" filePath="C:\Users\owner\Dropbox\Work\png\animation T=1.03742.png" arWidth="640" arHeight="480" duration="0" songTitle="" songArtist="" songAlbum="" songCopyrightUrl="" songArtistUrl="" songAudioFileUrl="" stabilizationMode="0" mediaItemType="2" />
    <MediaItem id="3743" filePath="C:\Users\owner\Dropbox\Work\png\animation T=1.03743.png" arWidth="640" arHeight="480" duration="0" songTitle="" songArtist="" songAlbum="" songCopyrightUrl="" songArtistUrl="" songAudioFileUrl="" stabilizationMode="0" mediaItemType="2" />
    <MediaItem id="3744" filePath="C:\Users\owner\Dropbox\Work\png\animation T=1.03744.png" arWidth="640" arHeight="480" duration="0" songTitle="" songArtist="" songAlbum="" songCopyrightUrl="" songArtistUrl="" songAudioFileUrl="" stabilizationMode="0" mediaItemType="2" />
    <MediaItem id="3745" filePath="C:\Users\owner\Dropbox\Work\png\animation T=1.03745.png" arWidth="640" arHeight="480" duration="0" songTitle="" songArtist="" songAlbum="" songCopyrightUrl="" songArtistUrl="" songAudioFileUrl="" stabilizationMode="0" mediaItemType="2" />
    <MediaItem id="3746" filePath="C:\Users\owner\Dropbox\Work\png\animation T=1.03746.png" arWidth="640" arHeight="480" duration="0" songTitle="" songArtist="" songAlbum="" songCopyrightUrl="" songArtistUrl="" songAudioFileUrl="" stabilizationMode="0" mediaItemType="2" />
    <MediaItem id="3747" filePath="C:\Users\owner\Dropbox\Work\png\animation T=1.03747.png" arWidth="640" arHeight="480" duration="0" songTitle="" songArtist="" songAlbum="" songCopyrightUrl="" songArtistUrl="" songAudioFileUrl="" stabilizationMode="0" mediaItemType="2" />
    <MediaItem id="3748" filePath="C:\Users\owner\Dropbox\Work\png\animation T=1.03748.png" arWidth="640" arHeight="480" duration="0" songTitle="" songArtist="" songAlbum="" songCopyrightUrl="" songArtistUrl="" songAudioFileUrl="" stabilizationMode="0" mediaItemType="2" />
    <MediaItem id="3749" filePath="C:\Users\owner\Dropbox\Work\png\animation T=1.03749.png" arWidth="640" arHeight="480" duration="0" songTitle="" songArtist="" songAlbum="" songCopyrightUrl="" songArtistUrl="" songAudioFileUrl="" stabilizationMode="0" mediaItemType="2" />
    <MediaItem id="3750" filePath="C:\Users\owner\Dropbox\Work\png\animation T=1.03750.png" arWidth="640" arHeight="480" duration="0" songTitle="" songArtist="" songAlbum="" songCopyrightUrl="" songArtistUrl="" songAudioFileUrl="" stabilizationMode="0" mediaItemType="2" />
    <MediaItem id="3751" filePath="C:\Users\owner\Dropbox\Work\png\animation T=1.03751.png" arWidth="640" arHeight="480" duration="0" songTitle="" songArtist="" songAlbum="" songCopyrightUrl="" songArtistUrl="" songAudioFileUrl="" stabilizationMode="0" mediaItemType="2" />
    <MediaItem id="3752" filePath="C:\Users\owner\Dropbox\Work\png\animation T=1.03752.png" arWidth="640" arHeight="480" duration="0" songTitle="" songArtist="" songAlbum="" songCopyrightUrl="" songArtistUrl="" songAudioFileUrl="" stabilizationMode="0" mediaItemType="2" />
    <MediaItem id="3753" filePath="C:\Users\owner\Dropbox\Work\png\animation T=1.03753.png" arWidth="640" arHeight="480" duration="0" songTitle="" songArtist="" songAlbum="" songCopyrightUrl="" songArtistUrl="" songAudioFileUrl="" stabilizationMode="0" mediaItemType="2" />
    <MediaItem id="3754" filePath="C:\Users\owner\Dropbox\Work\png\animation T=1.03754.png" arWidth="640" arHeight="480" duration="0" songTitle="" songArtist="" songAlbum="" songCopyrightUrl="" songArtistUrl="" songAudioFileUrl="" stabilizationMode="0" mediaItemType="2" />
    <MediaItem id="3755" filePath="C:\Users\owner\Dropbox\Work\png\animation T=1.03755.png" arWidth="640" arHeight="480" duration="0" songTitle="" songArtist="" songAlbum="" songCopyrightUrl="" songArtistUrl="" songAudioFileUrl="" stabilizationMode="0" mediaItemType="2" />
    <MediaItem id="3756" filePath="C:\Users\owner\Dropbox\Work\png\animation T=1.03756.png" arWidth="640" arHeight="480" duration="0" songTitle="" songArtist="" songAlbum="" songCopyrightUrl="" songArtistUrl="" songAudioFileUrl="" stabilizationMode="0" mediaItemType="2" />
    <MediaItem id="3757" filePath="C:\Users\owner\Dropbox\Work\png\animation T=1.03757.png" arWidth="640" arHeight="480" duration="0" songTitle="" songArtist="" songAlbum="" songCopyrightUrl="" songArtistUrl="" songAudioFileUrl="" stabilizationMode="0" mediaItemType="2" />
    <MediaItem id="3758" filePath="C:\Users\owner\Dropbox\Work\png\animation T=1.03758.png" arWidth="640" arHeight="480" duration="0" songTitle="" songArtist="" songAlbum="" songCopyrightUrl="" songArtistUrl="" songAudioFileUrl="" stabilizationMode="0" mediaItemType="2" />
    <MediaItem id="3759" filePath="C:\Users\owner\Dropbox\Work\png\animation T=1.03759.png" arWidth="640" arHeight="480" duration="0" songTitle="" songArtist="" songAlbum="" songCopyrightUrl="" songArtistUrl="" songAudioFileUrl="" stabilizationMode="0" mediaItemType="2" />
    <MediaItem id="3760" filePath="C:\Users\owner\Dropbox\Work\png\animation T=1.03760.png" arWidth="640" arHeight="480" duration="0" songTitle="" songArtist="" songAlbum="" songCopyrightUrl="" songArtistUrl="" songAudioFileUrl="" stabilizationMode="0" mediaItemType="2" />
    <MediaItem id="3761" filePath="C:\Users\owner\Dropbox\Work\png\animation T=1.03761.png" arWidth="640" arHeight="480" duration="0" songTitle="" songArtist="" songAlbum="" songCopyrightUrl="" songArtistUrl="" songAudioFileUrl="" stabilizationMode="0" mediaItemType="2" />
    <MediaItem id="3762" filePath="C:\Users\owner\Dropbox\Work\png\animation T=1.03762.png" arWidth="640" arHeight="480" duration="0" songTitle="" songArtist="" songAlbum="" songCopyrightUrl="" songArtistUrl="" songAudioFileUrl="" stabilizationMode="0" mediaItemType="2" />
    <MediaItem id="3763" filePath="C:\Users\owner\Dropbox\Work\png\animation T=1.03763.png" arWidth="640" arHeight="480" duration="0" songTitle="" songArtist="" songAlbum="" songCopyrightUrl="" songArtistUrl="" songAudioFileUrl="" stabilizationMode="0" mediaItemType="2" />
    <MediaItem id="3764" filePath="C:\Users\owner\Dropbox\Work\png\animation T=1.03764.png" arWidth="640" arHeight="480" duration="0" songTitle="" songArtist="" songAlbum="" songCopyrightUrl="" songArtistUrl="" songAudioFileUrl="" stabilizationMode="0" mediaItemType="2" />
    <MediaItem id="3765" filePath="C:\Users\owner\Dropbox\Work\png\animation T=1.03765.png" arWidth="640" arHeight="480" duration="0" songTitle="" songArtist="" songAlbum="" songCopyrightUrl="" songArtistUrl="" songAudioFileUrl="" stabilizationMode="0" mediaItemType="2" />
    <MediaItem id="3766" filePath="C:\Users\owner\Dropbox\Work\png\animation T=1.03766.png" arWidth="640" arHeight="480" duration="0" songTitle="" songArtist="" songAlbum="" songCopyrightUrl="" songArtistUrl="" songAudioFileUrl="" stabilizationMode="0" mediaItemType="2" />
    <MediaItem id="3767" filePath="C:\Users\owner\Dropbox\Work\png\animation T=1.03767.png" arWidth="640" arHeight="480" duration="0" songTitle="" songArtist="" songAlbum="" songCopyrightUrl="" songArtistUrl="" songAudioFileUrl="" stabilizationMode="0" mediaItemType="2" />
    <MediaItem id="3768" filePath="C:\Users\owner\Dropbox\Work\png\animation T=1.03768.png" arWidth="640" arHeight="480" duration="0" songTitle="" songArtist="" songAlbum="" songCopyrightUrl="" songArtistUrl="" songAudioFileUrl="" stabilizationMode="0" mediaItemType="2" />
    <MediaItem id="3769" filePath="C:\Users\owner\Dropbox\Work\png\animation T=1.03769.png" arWidth="640" arHeight="480" duration="0" songTitle="" songArtist="" songAlbum="" songCopyrightUrl="" songArtistUrl="" songAudioFileUrl="" stabilizationMode="0" mediaItemType="2" />
    <MediaItem id="3770" filePath="C:\Users\owner\Dropbox\Work\png\animation T=1.03770.png" arWidth="640" arHeight="480" duration="0" songTitle="" songArtist="" songAlbum="" songCopyrightUrl="" songArtistUrl="" songAudioFileUrl="" stabilizationMode="0" mediaItemType="2" />
    <MediaItem id="3771" filePath="C:\Users\owner\Dropbox\Work\png\animation T=1.03771.png" arWidth="640" arHeight="480" duration="0" songTitle="" songArtist="" songAlbum="" songCopyrightUrl="" songArtistUrl="" songAudioFileUrl="" stabilizationMode="0" mediaItemType="2" />
    <MediaItem id="3772" filePath="C:\Users\owner\Dropbox\Work\png\animation T=1.03772.png" arWidth="640" arHeight="480" duration="0" songTitle="" songArtist="" songAlbum="" songCopyrightUrl="" songArtistUrl="" songAudioFileUrl="" stabilizationMode="0" mediaItemType="2" />
    <MediaItem id="3773" filePath="C:\Users\owner\Dropbox\Work\png\animation T=1.03773.png" arWidth="640" arHeight="480" duration="0" songTitle="" songArtist="" songAlbum="" songCopyrightUrl="" songArtistUrl="" songAudioFileUrl="" stabilizationMode="0" mediaItemType="2" />
    <MediaItem id="3774" filePath="C:\Users\owner\Dropbox\Work\png\animation T=1.03774.png" arWidth="640" arHeight="480" duration="0" songTitle="" songArtist="" songAlbum="" songCopyrightUrl="" songArtistUrl="" songAudioFileUrl="" stabilizationMode="0" mediaItemType="2" />
    <MediaItem id="3775" filePath="C:\Users\owner\Dropbox\Work\png\animation T=1.03775.png" arWidth="640" arHeight="480" duration="0" songTitle="" songArtist="" songAlbum="" songCopyrightUrl="" songArtistUrl="" songAudioFileUrl="" stabilizationMode="0" mediaItemType="2" />
    <MediaItem id="3776" filePath="C:\Users\owner\Dropbox\Work\png\animation T=1.03776.png" arWidth="640" arHeight="480" duration="0" songTitle="" songArtist="" songAlbum="" songCopyrightUrl="" songArtistUrl="" songAudioFileUrl="" stabilizationMode="0" mediaItemType="2" />
    <MediaItem id="3777" filePath="C:\Users\owner\Dropbox\Work\png\animation T=1.03777.png" arWidth="640" arHeight="480" duration="0" songTitle="" songArtist="" songAlbum="" songCopyrightUrl="" songArtistUrl="" songAudioFileUrl="" stabilizationMode="0" mediaItemType="2" />
    <MediaItem id="3778" filePath="C:\Users\owner\Dropbox\Work\png\animation T=1.03778.png" arWidth="640" arHeight="480" duration="0" songTitle="" songArtist="" songAlbum="" songCopyrightUrl="" songArtistUrl="" songAudioFileUrl="" stabilizationMode="0" mediaItemType="2" />
    <MediaItem id="3779" filePath="C:\Users\owner\Dropbox\Work\png\animation T=1.03779.png" arWidth="640" arHeight="480" duration="0" songTitle="" songArtist="" songAlbum="" songCopyrightUrl="" songArtistUrl="" songAudioFileUrl="" stabilizationMode="0" mediaItemType="2" />
    <MediaItem id="3780" filePath="C:\Users\owner\Dropbox\Work\png\animation T=1.03780.png" arWidth="640" arHeight="480" duration="0" songTitle="" songArtist="" songAlbum="" songCopyrightUrl="" songArtistUrl="" songAudioFileUrl="" stabilizationMode="0" mediaItemType="2" />
    <MediaItem id="3781" filePath="C:\Users\owner\Dropbox\Work\png\animation T=1.03781.png" arWidth="640" arHeight="480" duration="0" songTitle="" songArtist="" songAlbum="" songCopyrightUrl="" songArtistUrl="" songAudioFileUrl="" stabilizationMode="0" mediaItemType="2" />
    <MediaItem id="3782" filePath="C:\Users\owner\Dropbox\Work\png\animation T=1.03782.png" arWidth="640" arHeight="480" duration="0" songTitle="" songArtist="" songAlbum="" songCopyrightUrl="" songArtistUrl="" songAudioFileUrl="" stabilizationMode="0" mediaItemType="2" />
    <MediaItem id="3783" filePath="C:\Users\owner\Dropbox\Work\png\animation T=1.03783.png" arWidth="640" arHeight="480" duration="0" songTitle="" songArtist="" songAlbum="" songCopyrightUrl="" songArtistUrl="" songAudioFileUrl="" stabilizationMode="0" mediaItemType="2" />
    <MediaItem id="3784" filePath="C:\Users\owner\Dropbox\Work\png\animation T=1.03784.png" arWidth="640" arHeight="480" duration="0" songTitle="" songArtist="" songAlbum="" songCopyrightUrl="" songArtistUrl="" songAudioFileUrl="" stabilizationMode="0" mediaItemType="2" />
    <MediaItem id="3785" filePath="C:\Users\owner\Dropbox\Work\png\animation T=1.03785.png" arWidth="640" arHeight="480" duration="0" songTitle="" songArtist="" songAlbum="" songCopyrightUrl="" songArtistUrl="" songAudioFileUrl="" stabilizationMode="0" mediaItemType="2" />
    <MediaItem id="3786" filePath="C:\Users\owner\Dropbox\Work\png\animation T=1.03786.png" arWidth="640" arHeight="480" duration="0" songTitle="" songArtist="" songAlbum="" songCopyrightUrl="" songArtistUrl="" songAudioFileUrl="" stabilizationMode="0" mediaItemType="2" />
    <MediaItem id="3787" filePath="C:\Users\owner\Dropbox\Work\png\animation T=1.03787.png" arWidth="640" arHeight="480" duration="0" songTitle="" songArtist="" songAlbum="" songCopyrightUrl="" songArtistUrl="" songAudioFileUrl="" stabilizationMode="0" mediaItemType="2" />
    <MediaItem id="3788" filePath="C:\Users\owner\Dropbox\Work\png\animation T=1.03788.png" arWidth="640" arHeight="480" duration="0" songTitle="" songArtist="" songAlbum="" songCopyrightUrl="" songArtistUrl="" songAudioFileUrl="" stabilizationMode="0" mediaItemType="2" />
    <MediaItem id="3789" filePath="C:\Users\owner\Dropbox\Work\png\animation T=1.03789.png" arWidth="640" arHeight="480" duration="0" songTitle="" songArtist="" songAlbum="" songCopyrightUrl="" songArtistUrl="" songAudioFileUrl="" stabilizationMode="0" mediaItemType="2" />
    <MediaItem id="3790" filePath="C:\Users\owner\Dropbox\Work\png\animation T=1.03790.png" arWidth="640" arHeight="480" duration="0" songTitle="" songArtist="" songAlbum="" songCopyrightUrl="" songArtistUrl="" songAudioFileUrl="" stabilizationMode="0" mediaItemType="2" />
    <MediaItem id="3791" filePath="C:\Users\owner\Dropbox\Work\png\animation T=1.03791.png" arWidth="640" arHeight="480" duration="0" songTitle="" songArtist="" songAlbum="" songCopyrightUrl="" songArtistUrl="" songAudioFileUrl="" stabilizationMode="0" mediaItemType="2" />
    <MediaItem id="3792" filePath="C:\Users\owner\Dropbox\Work\png\animation T=1.03792.png" arWidth="640" arHeight="480" duration="0" songTitle="" songArtist="" songAlbum="" songCopyrightUrl="" songArtistUrl="" songAudioFileUrl="" stabilizationMode="0" mediaItemType="2" />
    <MediaItem id="3793" filePath="C:\Users\owner\Dropbox\Work\png\animation T=1.03793.png" arWidth="640" arHeight="480" duration="0" songTitle="" songArtist="" songAlbum="" songCopyrightUrl="" songArtistUrl="" songAudioFileUrl="" stabilizationMode="0" mediaItemType="2" />
    <MediaItem id="3794" filePath="C:\Users\owner\Dropbox\Work\png\animation T=1.03794.png" arWidth="640" arHeight="480" duration="0" songTitle="" songArtist="" songAlbum="" songCopyrightUrl="" songArtistUrl="" songAudioFileUrl="" stabilizationMode="0" mediaItemType="2" />
    <MediaItem id="3795" filePath="C:\Users\owner\Dropbox\Work\png\animation T=1.03795.png" arWidth="640" arHeight="480" duration="0" songTitle="" songArtist="" songAlbum="" songCopyrightUrl="" songArtistUrl="" songAudioFileUrl="" stabilizationMode="0" mediaItemType="2" />
    <MediaItem id="3796" filePath="C:\Users\owner\Dropbox\Work\png\animation T=1.03796.png" arWidth="640" arHeight="480" duration="0" songTitle="" songArtist="" songAlbum="" songCopyrightUrl="" songArtistUrl="" songAudioFileUrl="" stabilizationMode="0" mediaItemType="2" />
    <MediaItem id="3797" filePath="C:\Users\owner\Dropbox\Work\png\animation T=1.03797.png" arWidth="640" arHeight="480" duration="0" songTitle="" songArtist="" songAlbum="" songCopyrightUrl="" songArtistUrl="" songAudioFileUrl="" stabilizationMode="0" mediaItemType="2" />
    <MediaItem id="3798" filePath="C:\Users\owner\Dropbox\Work\png\animation T=1.03798.png" arWidth="640" arHeight="480" duration="0" songTitle="" songArtist="" songAlbum="" songCopyrightUrl="" songArtistUrl="" songAudioFileUrl="" stabilizationMode="0" mediaItemType="2" />
    <MediaItem id="3799" filePath="C:\Users\owner\Dropbox\Work\png\animation T=1.03799.png" arWidth="640" arHeight="480" duration="0" songTitle="" songArtist="" songAlbum="" songCopyrightUrl="" songArtistUrl="" songAudioFileUrl="" stabilizationMode="0" mediaItemType="2" />
    <MediaItem id="3800" filePath="C:\Users\owner\Dropbox\Work\png\animation T=1.03800.png" arWidth="640" arHeight="480" duration="0" songTitle="" songArtist="" songAlbum="" songCopyrightUrl="" songArtistUrl="" songAudioFileUrl="" stabilizationMode="0" mediaItemType="2" />
    <MediaItem id="3801" filePath="C:\Users\owner\Dropbox\Work\png\animation T=1.03801.png" arWidth="640" arHeight="480" duration="0" songTitle="" songArtist="" songAlbum="" songCopyrightUrl="" songArtistUrl="" songAudioFileUrl="" stabilizationMode="0" mediaItemType="2" />
    <MediaItem id="3802" filePath="C:\Users\owner\Dropbox\Work\png\animation T=1.03802.png" arWidth="640" arHeight="480" duration="0" songTitle="" songArtist="" songAlbum="" songCopyrightUrl="" songArtistUrl="" songAudioFileUrl="" stabilizationMode="0" mediaItemType="2" />
    <MediaItem id="3803" filePath="C:\Users\owner\Dropbox\Work\png\animation T=1.03803.png" arWidth="640" arHeight="480" duration="0" songTitle="" songArtist="" songAlbum="" songCopyrightUrl="" songArtistUrl="" songAudioFileUrl="" stabilizationMode="0" mediaItemType="2" />
    <MediaItem id="3804" filePath="C:\Users\owner\Dropbox\Work\png\animation T=1.03804.png" arWidth="640" arHeight="480" duration="0" songTitle="" songArtist="" songAlbum="" songCopyrightUrl="" songArtistUrl="" songAudioFileUrl="" stabilizationMode="0" mediaItemType="2" />
    <MediaItem id="3805" filePath="C:\Users\owner\Dropbox\Work\png\animation T=1.03805.png" arWidth="640" arHeight="480" duration="0" songTitle="" songArtist="" songAlbum="" songCopyrightUrl="" songArtistUrl="" songAudioFileUrl="" stabilizationMode="0" mediaItemType="2" />
    <MediaItem id="3806" filePath="C:\Users\owner\Dropbox\Work\png\animation T=1.03806.png" arWidth="640" arHeight="480" duration="0" songTitle="" songArtist="" songAlbum="" songCopyrightUrl="" songArtistUrl="" songAudioFileUrl="" stabilizationMode="0" mediaItemType="2" />
    <MediaItem id="3807" filePath="C:\Users\owner\Dropbox\Work\png\animation T=1.03807.png" arWidth="640" arHeight="480" duration="0" songTitle="" songArtist="" songAlbum="" songCopyrightUrl="" songArtistUrl="" songAudioFileUrl="" stabilizationMode="0" mediaItemType="2" />
    <MediaItem id="3808" filePath="C:\Users\owner\Dropbox\Work\png\animation T=1.03808.png" arWidth="640" arHeight="480" duration="0" songTitle="" songArtist="" songAlbum="" songCopyrightUrl="" songArtistUrl="" songAudioFileUrl="" stabilizationMode="0" mediaItemType="2" />
    <MediaItem id="3809" filePath="C:\Users\owner\Dropbox\Work\png\animation T=1.03809.png" arWidth="640" arHeight="480" duration="0" songTitle="" songArtist="" songAlbum="" songCopyrightUrl="" songArtistUrl="" songAudioFileUrl="" stabilizationMode="0" mediaItemType="2" />
    <MediaItem id="3810" filePath="C:\Users\owner\Dropbox\Work\png\animation T=1.03810.png" arWidth="640" arHeight="480" duration="0" songTitle="" songArtist="" songAlbum="" songCopyrightUrl="" songArtistUrl="" songAudioFileUrl="" stabilizationMode="0" mediaItemType="2" />
    <MediaItem id="3811" filePath="C:\Users\owner\Dropbox\Work\png\animation T=1.03811.png" arWidth="640" arHeight="480" duration="0" songTitle="" songArtist="" songAlbum="" songCopyrightUrl="" songArtistUrl="" songAudioFileUrl="" stabilizationMode="0" mediaItemType="2" />
    <MediaItem id="3812" filePath="C:\Users\owner\Dropbox\Work\png\animation T=1.03812.png" arWidth="640" arHeight="480" duration="0" songTitle="" songArtist="" songAlbum="" songCopyrightUrl="" songArtistUrl="" songAudioFileUrl="" stabilizationMode="0" mediaItemType="2" />
    <MediaItem id="3813" filePath="C:\Users\owner\Dropbox\Work\png\animation T=1.03813.png" arWidth="640" arHeight="480" duration="0" songTitle="" songArtist="" songAlbum="" songCopyrightUrl="" songArtistUrl="" songAudioFileUrl="" stabilizationMode="0" mediaItemType="2" />
    <MediaItem id="3814" filePath="C:\Users\owner\Dropbox\Work\png\animation T=1.03814.png" arWidth="640" arHeight="480" duration="0" songTitle="" songArtist="" songAlbum="" songCopyrightUrl="" songArtistUrl="" songAudioFileUrl="" stabilizationMode="0" mediaItemType="2" />
    <MediaItem id="3815" filePath="C:\Users\owner\Dropbox\Work\png\animation T=1.03815.png" arWidth="640" arHeight="480" duration="0" songTitle="" songArtist="" songAlbum="" songCopyrightUrl="" songArtistUrl="" songAudioFileUrl="" stabilizationMode="0" mediaItemType="2" />
    <MediaItem id="3816" filePath="C:\Users\owner\Dropbox\Work\png\animation T=1.03816.png" arWidth="640" arHeight="480" duration="0" songTitle="" songArtist="" songAlbum="" songCopyrightUrl="" songArtistUrl="" songAudioFileUrl="" stabilizationMode="0" mediaItemType="2" />
    <MediaItem id="3817" filePath="C:\Users\owner\Dropbox\Work\png\animation T=1.03817.png" arWidth="640" arHeight="480" duration="0" songTitle="" songArtist="" songAlbum="" songCopyrightUrl="" songArtistUrl="" songAudioFileUrl="" stabilizationMode="0" mediaItemType="2" />
    <MediaItem id="3818" filePath="C:\Users\owner\Dropbox\Work\png\animation T=1.03818.png" arWidth="640" arHeight="480" duration="0" songTitle="" songArtist="" songAlbum="" songCopyrightUrl="" songArtistUrl="" songAudioFileUrl="" stabilizationMode="0" mediaItemType="2" />
    <MediaItem id="3819" filePath="C:\Users\owner\Dropbox\Work\png\animation T=1.03819.png" arWidth="640" arHeight="480" duration="0" songTitle="" songArtist="" songAlbum="" songCopyrightUrl="" songArtistUrl="" songAudioFileUrl="" stabilizationMode="0" mediaItemType="2" />
    <MediaItem id="3820" filePath="C:\Users\owner\Dropbox\Work\png\animation T=1.03820.png" arWidth="640" arHeight="480" duration="0" songTitle="" songArtist="" songAlbum="" songCopyrightUrl="" songArtistUrl="" songAudioFileUrl="" stabilizationMode="0" mediaItemType="2" />
    <MediaItem id="3821" filePath="C:\Users\owner\Dropbox\Work\png\animation T=1.03821.png" arWidth="640" arHeight="480" duration="0" songTitle="" songArtist="" songAlbum="" songCopyrightUrl="" songArtistUrl="" songAudioFileUrl="" stabilizationMode="0" mediaItemType="2" />
    <MediaItem id="3822" filePath="C:\Users\owner\Dropbox\Work\png\animation T=1.03822.png" arWidth="640" arHeight="480" duration="0" songTitle="" songArtist="" songAlbum="" songCopyrightUrl="" songArtistUrl="" songAudioFileUrl="" stabilizationMode="0" mediaItemType="2" />
    <MediaItem id="3823" filePath="C:\Users\owner\Dropbox\Work\png\animation T=1.03823.png" arWidth="640" arHeight="480" duration="0" songTitle="" songArtist="" songAlbum="" songCopyrightUrl="" songArtistUrl="" songAudioFileUrl="" stabilizationMode="0" mediaItemType="2" />
    <MediaItem id="3824" filePath="C:\Users\owner\Dropbox\Work\png\animation T=1.03824.png" arWidth="640" arHeight="480" duration="0" songTitle="" songArtist="" songAlbum="" songCopyrightUrl="" songArtistUrl="" songAudioFileUrl="" stabilizationMode="0" mediaItemType="2" />
    <MediaItem id="3825" filePath="C:\Users\owner\Dropbox\Work\png\animation T=1.03825.png" arWidth="640" arHeight="480" duration="0" songTitle="" songArtist="" songAlbum="" songCopyrightUrl="" songArtistUrl="" songAudioFileUrl="" stabilizationMode="0" mediaItemType="2" />
    <MediaItem id="3826" filePath="C:\Users\owner\Dropbox\Work\png\animation T=1.03826.png" arWidth="640" arHeight="480" duration="0" songTitle="" songArtist="" songAlbum="" songCopyrightUrl="" songArtistUrl="" songAudioFileUrl="" stabilizationMode="0" mediaItemType="2" />
    <MediaItem id="3827" filePath="C:\Users\owner\Dropbox\Work\png\animation T=1.03827.png" arWidth="640" arHeight="480" duration="0" songTitle="" songArtist="" songAlbum="" songCopyrightUrl="" songArtistUrl="" songAudioFileUrl="" stabilizationMode="0" mediaItemType="2" />
    <MediaItem id="3828" filePath="C:\Users\owner\Dropbox\Work\png\animation T=1.03828.png" arWidth="640" arHeight="480" duration="0" songTitle="" songArtist="" songAlbum="" songCopyrightUrl="" songArtistUrl="" songAudioFileUrl="" stabilizationMode="0" mediaItemType="2" />
    <MediaItem id="3829" filePath="C:\Users\owner\Dropbox\Work\png\animation T=1.03829.png" arWidth="640" arHeight="480" duration="0" songTitle="" songArtist="" songAlbum="" songCopyrightUrl="" songArtistUrl="" songAudioFileUrl="" stabilizationMode="0" mediaItemType="2" />
    <MediaItem id="3830" filePath="C:\Users\owner\Dropbox\Work\png\animation T=1.03830.png" arWidth="640" arHeight="480" duration="0" songTitle="" songArtist="" songAlbum="" songCopyrightUrl="" songArtistUrl="" songAudioFileUrl="" stabilizationMode="0" mediaItemType="2" />
    <MediaItem id="3831" filePath="C:\Users\owner\Dropbox\Work\png\animation T=1.03831.png" arWidth="640" arHeight="480" duration="0" songTitle="" songArtist="" songAlbum="" songCopyrightUrl="" songArtistUrl="" songAudioFileUrl="" stabilizationMode="0" mediaItemType="2" />
    <MediaItem id="3832" filePath="C:\Users\owner\Dropbox\Work\png\animation T=1.03832.png" arWidth="640" arHeight="480" duration="0" songTitle="" songArtist="" songAlbum="" songCopyrightUrl="" songArtistUrl="" songAudioFileUrl="" stabilizationMode="0" mediaItemType="2" />
    <MediaItem id="3833" filePath="C:\Users\owner\Dropbox\Work\png\animation T=1.03833.png" arWidth="640" arHeight="480" duration="0" songTitle="" songArtist="" songAlbum="" songCopyrightUrl="" songArtistUrl="" songAudioFileUrl="" stabilizationMode="0" mediaItemType="2" />
    <MediaItem id="3834" filePath="C:\Users\owner\Dropbox\Work\png\animation T=1.03834.png" arWidth="640" arHeight="480" duration="0" songTitle="" songArtist="" songAlbum="" songCopyrightUrl="" songArtistUrl="" songAudioFileUrl="" stabilizationMode="0" mediaItemType="2" />
    <MediaItem id="3835" filePath="C:\Users\owner\Dropbox\Work\png\animation T=1.03835.png" arWidth="640" arHeight="480" duration="0" songTitle="" songArtist="" songAlbum="" songCopyrightUrl="" songArtistUrl="" songAudioFileUrl="" stabilizationMode="0" mediaItemType="2" />
    <MediaItem id="3836" filePath="C:\Users\owner\Dropbox\Work\png\animation T=1.03836.png" arWidth="640" arHeight="480" duration="0" songTitle="" songArtist="" songAlbum="" songCopyrightUrl="" songArtistUrl="" songAudioFileUrl="" stabilizationMode="0" mediaItemType="2" />
    <MediaItem id="3837" filePath="C:\Users\owner\Dropbox\Work\png\animation T=1.03837.png" arWidth="640" arHeight="480" duration="0" songTitle="" songArtist="" songAlbum="" songCopyrightUrl="" songArtistUrl="" songAudioFileUrl="" stabilizationMode="0" mediaItemType="2" />
    <MediaItem id="3838" filePath="C:\Users\owner\Dropbox\Work\png\animation T=1.03838.png" arWidth="640" arHeight="480" duration="0" songTitle="" songArtist="" songAlbum="" songCopyrightUrl="" songArtistUrl="" songAudioFileUrl="" stabilizationMode="0" mediaItemType="2" />
    <MediaItem id="3839" filePath="C:\Users\owner\Dropbox\Work\png\animation T=1.03839.png" arWidth="640" arHeight="480" duration="0" songTitle="" songArtist="" songAlbum="" songCopyrightUrl="" songArtistUrl="" songAudioFileUrl="" stabilizationMode="0" mediaItemType="2" />
    <MediaItem id="3840" filePath="C:\Users\owner\Dropbox\Work\png\animation T=1.03840.png" arWidth="640" arHeight="480" duration="0" songTitle="" songArtist="" songAlbum="" songCopyrightUrl="" songArtistUrl="" songAudioFileUrl="" stabilizationMode="0" mediaItemType="2" />
    <MediaItem id="3841" filePath="C:\Users\owner\Dropbox\Work\png\animation T=1.03841.png" arWidth="640" arHeight="480" duration="0" songTitle="" songArtist="" songAlbum="" songCopyrightUrl="" songArtistUrl="" songAudioFileUrl="" stabilizationMode="0" mediaItemType="2" />
    <MediaItem id="3842" filePath="C:\Users\owner\Dropbox\Work\png\animation T=1.03842.png" arWidth="640" arHeight="480" duration="0" songTitle="" songArtist="" songAlbum="" songCopyrightUrl="" songArtistUrl="" songAudioFileUrl="" stabilizationMode="0" mediaItemType="2" />
    <MediaItem id="3843" filePath="C:\Users\owner\Dropbox\Work\png\animation T=1.03843.png" arWidth="640" arHeight="480" duration="0" songTitle="" songArtist="" songAlbum="" songCopyrightUrl="" songArtistUrl="" songAudioFileUrl="" stabilizationMode="0" mediaItemType="2" />
    <MediaItem id="3844" filePath="C:\Users\owner\Dropbox\Work\png\animation T=1.03844.png" arWidth="640" arHeight="480" duration="0" songTitle="" songArtist="" songAlbum="" songCopyrightUrl="" songArtistUrl="" songAudioFileUrl="" stabilizationMode="0" mediaItemType="2" />
    <MediaItem id="3845" filePath="C:\Users\owner\Dropbox\Work\png\animation T=1.03845.png" arWidth="640" arHeight="480" duration="0" songTitle="" songArtist="" songAlbum="" songCopyrightUrl="" songArtistUrl="" songAudioFileUrl="" stabilizationMode="0" mediaItemType="2" />
    <MediaItem id="3846" filePath="C:\Users\owner\Dropbox\Work\png\animation T=1.03846.png" arWidth="640" arHeight="480" duration="0" songTitle="" songArtist="" songAlbum="" songCopyrightUrl="" songArtistUrl="" songAudioFileUrl="" stabilizationMode="0" mediaItemType="2" />
    <MediaItem id="3847" filePath="C:\Users\owner\Dropbox\Work\png\animation T=1.03847.png" arWidth="640" arHeight="480" duration="0" songTitle="" songArtist="" songAlbum="" songCopyrightUrl="" songArtistUrl="" songAudioFileUrl="" stabilizationMode="0" mediaItemType="2" />
    <MediaItem id="3848" filePath="C:\Users\owner\Dropbox\Work\png\animation T=1.03848.png" arWidth="640" arHeight="480" duration="0" songTitle="" songArtist="" songAlbum="" songCopyrightUrl="" songArtistUrl="" songAudioFileUrl="" stabilizationMode="0" mediaItemType="2" />
    <MediaItem id="3849" filePath="C:\Users\owner\Dropbox\Work\png\animation T=1.03849.png" arWidth="640" arHeight="480" duration="0" songTitle="" songArtist="" songAlbum="" songCopyrightUrl="" songArtistUrl="" songAudioFileUrl="" stabilizationMode="0" mediaItemType="2" />
    <MediaItem id="3850" filePath="C:\Users\owner\Dropbox\Work\png\animation T=1.03850.png" arWidth="640" arHeight="480" duration="0" songTitle="" songArtist="" songAlbum="" songCopyrightUrl="" songArtistUrl="" songAudioFileUrl="" stabilizationMode="0" mediaItemType="2" />
    <MediaItem id="3851" filePath="C:\Users\owner\Dropbox\Work\png\animation T=1.03851.png" arWidth="640" arHeight="480" duration="0" songTitle="" songArtist="" songAlbum="" songCopyrightUrl="" songArtistUrl="" songAudioFileUrl="" stabilizationMode="0" mediaItemType="2" />
    <MediaItem id="3852" filePath="C:\Users\owner\Dropbox\Work\png\animation T=1.03852.png" arWidth="640" arHeight="480" duration="0" songTitle="" songArtist="" songAlbum="" songCopyrightUrl="" songArtistUrl="" songAudioFileUrl="" stabilizationMode="0" mediaItemType="2" />
    <MediaItem id="3853" filePath="C:\Users\owner\Dropbox\Work\png\animation T=1.03853.png" arWidth="640" arHeight="480" duration="0" songTitle="" songArtist="" songAlbum="" songCopyrightUrl="" songArtistUrl="" songAudioFileUrl="" stabilizationMode="0" mediaItemType="2" />
    <MediaItem id="3854" filePath="C:\Users\owner\Dropbox\Work\png\animation T=1.03854.png" arWidth="640" arHeight="480" duration="0" songTitle="" songArtist="" songAlbum="" songCopyrightUrl="" songArtistUrl="" songAudioFileUrl="" stabilizationMode="0" mediaItemType="2" />
    <MediaItem id="3855" filePath="C:\Users\owner\Dropbox\Work\png\animation T=1.03855.png" arWidth="640" arHeight="480" duration="0" songTitle="" songArtist="" songAlbum="" songCopyrightUrl="" songArtistUrl="" songAudioFileUrl="" stabilizationMode="0" mediaItemType="2" />
    <MediaItem id="3856" filePath="C:\Users\owner\Dropbox\Work\png\animation T=1.03856.png" arWidth="640" arHeight="480" duration="0" songTitle="" songArtist="" songAlbum="" songCopyrightUrl="" songArtistUrl="" songAudioFileUrl="" stabilizationMode="0" mediaItemType="2" />
    <MediaItem id="3857" filePath="C:\Users\owner\Dropbox\Work\png\animation T=1.03857.png" arWidth="640" arHeight="480" duration="0" songTitle="" songArtist="" songAlbum="" songCopyrightUrl="" songArtistUrl="" songAudioFileUrl="" stabilizationMode="0" mediaItemType="2" />
    <MediaItem id="3858" filePath="C:\Users\owner\Dropbox\Work\png\animation T=1.03858.png" arWidth="640" arHeight="480" duration="0" songTitle="" songArtist="" songAlbum="" songCopyrightUrl="" songArtistUrl="" songAudioFileUrl="" stabilizationMode="0" mediaItemType="2" />
    <MediaItem id="3859" filePath="C:\Users\owner\Dropbox\Work\png\animation T=1.03859.png" arWidth="640" arHeight="480" duration="0" songTitle="" songArtist="" songAlbum="" songCopyrightUrl="" songArtistUrl="" songAudioFileUrl="" stabilizationMode="0" mediaItemType="2" />
    <MediaItem id="3860" filePath="C:\Users\owner\Dropbox\Work\png\animation T=1.03860.png" arWidth="640" arHeight="480" duration="0" songTitle="" songArtist="" songAlbum="" songCopyrightUrl="" songArtistUrl="" songAudioFileUrl="" stabilizationMode="0" mediaItemType="2" />
    <MediaItem id="3861" filePath="C:\Users\owner\Dropbox\Work\png\animation T=1.03861.png" arWidth="640" arHeight="480" duration="0" songTitle="" songArtist="" songAlbum="" songCopyrightUrl="" songArtistUrl="" songAudioFileUrl="" stabilizationMode="0" mediaItemType="2" />
    <MediaItem id="3862" filePath="C:\Users\owner\Dropbox\Work\png\animation T=1.03862.png" arWidth="640" arHeight="480" duration="0" songTitle="" songArtist="" songAlbum="" songCopyrightUrl="" songArtistUrl="" songAudioFileUrl="" stabilizationMode="0" mediaItemType="2" />
    <MediaItem id="3863" filePath="C:\Users\owner\Dropbox\Work\png\animation T=1.03863.png" arWidth="640" arHeight="480" duration="0" songTitle="" songArtist="" songAlbum="" songCopyrightUrl="" songArtistUrl="" songAudioFileUrl="" stabilizationMode="0" mediaItemType="2" />
    <MediaItem id="3864" filePath="C:\Users\owner\Dropbox\Work\png\animation T=1.03864.png" arWidth="640" arHeight="480" duration="0" songTitle="" songArtist="" songAlbum="" songCopyrightUrl="" songArtistUrl="" songAudioFileUrl="" stabilizationMode="0" mediaItemType="2" />
    <MediaItem id="3865" filePath="C:\Users\owner\Dropbox\Work\png\animation T=1.03865.png" arWidth="640" arHeight="480" duration="0" songTitle="" songArtist="" songAlbum="" songCopyrightUrl="" songArtistUrl="" songAudioFileUrl="" stabilizationMode="0" mediaItemType="2" />
    <MediaItem id="3866" filePath="C:\Users\owner\Dropbox\Work\png\animation T=1.03866.png" arWidth="640" arHeight="480" duration="0" songTitle="" songArtist="" songAlbum="" songCopyrightUrl="" songArtistUrl="" songAudioFileUrl="" stabilizationMode="0" mediaItemType="2" />
    <MediaItem id="3867" filePath="C:\Users\owner\Dropbox\Work\png\animation T=1.03867.png" arWidth="640" arHeight="480" duration="0" songTitle="" songArtist="" songAlbum="" songCopyrightUrl="" songArtistUrl="" songAudioFileUrl="" stabilizationMode="0" mediaItemType="2" />
    <MediaItem id="3868" filePath="C:\Users\owner\Dropbox\Work\png\animation T=1.03868.png" arWidth="640" arHeight="480" duration="0" songTitle="" songArtist="" songAlbum="" songCopyrightUrl="" songArtistUrl="" songAudioFileUrl="" stabilizationMode="0" mediaItemType="2" />
    <MediaItem id="3869" filePath="C:\Users\owner\Dropbox\Work\png\animation T=1.03869.png" arWidth="640" arHeight="480" duration="0" songTitle="" songArtist="" songAlbum="" songCopyrightUrl="" songArtistUrl="" songAudioFileUrl="" stabilizationMode="0" mediaItemType="2" />
    <MediaItem id="3870" filePath="C:\Users\owner\Dropbox\Work\png\animation T=1.03870.png" arWidth="640" arHeight="480" duration="0" songTitle="" songArtist="" songAlbum="" songCopyrightUrl="" songArtistUrl="" songAudioFileUrl="" stabilizationMode="0" mediaItemType="2" />
    <MediaItem id="3871" filePath="C:\Users\owner\Dropbox\Work\png\animation T=1.03871.png" arWidth="640" arHeight="480" duration="0" songTitle="" songArtist="" songAlbum="" songCopyrightUrl="" songArtistUrl="" songAudioFileUrl="" stabilizationMode="0" mediaItemType="2" />
    <MediaItem id="3872" filePath="C:\Users\owner\Dropbox\Work\png\animation T=1.03872.png" arWidth="640" arHeight="480" duration="0" songTitle="" songArtist="" songAlbum="" songCopyrightUrl="" songArtistUrl="" songAudioFileUrl="" stabilizationMode="0" mediaItemType="2" />
    <MediaItem id="3873" filePath="C:\Users\owner\Dropbox\Work\png\animation T=1.03873.png" arWidth="640" arHeight="480" duration="0" songTitle="" songArtist="" songAlbum="" songCopyrightUrl="" songArtistUrl="" songAudioFileUrl="" stabilizationMode="0" mediaItemType="2" />
    <MediaItem id="3874" filePath="C:\Users\owner\Dropbox\Work\png\animation T=1.03874.png" arWidth="640" arHeight="480" duration="0" songTitle="" songArtist="" songAlbum="" songCopyrightUrl="" songArtistUrl="" songAudioFileUrl="" stabilizationMode="0" mediaItemType="2" />
    <MediaItem id="3875" filePath="C:\Users\owner\Dropbox\Work\png\animation T=1.03875.png" arWidth="640" arHeight="480" duration="0" songTitle="" songArtist="" songAlbum="" songCopyrightUrl="" songArtistUrl="" songAudioFileUrl="" stabilizationMode="0" mediaItemType="2" />
    <MediaItem id="3876" filePath="C:\Users\owner\Dropbox\Work\png\animation T=1.03876.png" arWidth="640" arHeight="480" duration="0" songTitle="" songArtist="" songAlbum="" songCopyrightUrl="" songArtistUrl="" songAudioFileUrl="" stabilizationMode="0" mediaItemType="2" />
    <MediaItem id="3877" filePath="C:\Users\owner\Dropbox\Work\png\animation T=1.03877.png" arWidth="640" arHeight="480" duration="0" songTitle="" songArtist="" songAlbum="" songCopyrightUrl="" songArtistUrl="" songAudioFileUrl="" stabilizationMode="0" mediaItemType="2" />
    <MediaItem id="3878" filePath="C:\Users\owner\Dropbox\Work\png\animation T=1.03878.png" arWidth="640" arHeight="480" duration="0" songTitle="" songArtist="" songAlbum="" songCopyrightUrl="" songArtistUrl="" songAudioFileUrl="" stabilizationMode="0" mediaItemType="2" />
    <MediaItem id="3879" filePath="C:\Users\owner\Dropbox\Work\png\animation T=1.03879.png" arWidth="640" arHeight="480" duration="0" songTitle="" songArtist="" songAlbum="" songCopyrightUrl="" songArtistUrl="" songAudioFileUrl="" stabilizationMode="0" mediaItemType="2" />
    <MediaItem id="3880" filePath="C:\Users\owner\Dropbox\Work\png\animation T=1.03880.png" arWidth="640" arHeight="480" duration="0" songTitle="" songArtist="" songAlbum="" songCopyrightUrl="" songArtistUrl="" songAudioFileUrl="" stabilizationMode="0" mediaItemType="2" />
    <MediaItem id="3881" filePath="C:\Users\owner\Dropbox\Work\png\animation T=1.03881.png" arWidth="640" arHeight="480" duration="0" songTitle="" songArtist="" songAlbum="" songCopyrightUrl="" songArtistUrl="" songAudioFileUrl="" stabilizationMode="0" mediaItemType="2" />
    <MediaItem id="3882" filePath="C:\Users\owner\Dropbox\Work\png\animation T=1.03882.png" arWidth="640" arHeight="480" duration="0" songTitle="" songArtist="" songAlbum="" songCopyrightUrl="" songArtistUrl="" songAudioFileUrl="" stabilizationMode="0" mediaItemType="2" />
    <MediaItem id="3883" filePath="C:\Users\owner\Dropbox\Work\png\animation T=1.03883.png" arWidth="640" arHeight="480" duration="0" songTitle="" songArtist="" songAlbum="" songCopyrightUrl="" songArtistUrl="" songAudioFileUrl="" stabilizationMode="0" mediaItemType="2" />
    <MediaItem id="3884" filePath="C:\Users\owner\Dropbox\Work\png\animation T=1.03884.png" arWidth="640" arHeight="480" duration="0" songTitle="" songArtist="" songAlbum="" songCopyrightUrl="" songArtistUrl="" songAudioFileUrl="" stabilizationMode="0" mediaItemType="2" />
    <MediaItem id="3885" filePath="C:\Users\owner\Dropbox\Work\png\animation T=1.03885.png" arWidth="640" arHeight="480" duration="0" songTitle="" songArtist="" songAlbum="" songCopyrightUrl="" songArtistUrl="" songAudioFileUrl="" stabilizationMode="0" mediaItemType="2" />
    <MediaItem id="3886" filePath="C:\Users\owner\Dropbox\Work\png\animation T=1.03886.png" arWidth="640" arHeight="480" duration="0" songTitle="" songArtist="" songAlbum="" songCopyrightUrl="" songArtistUrl="" songAudioFileUrl="" stabilizationMode="0" mediaItemType="2" />
    <MediaItem id="3887" filePath="C:\Users\owner\Dropbox\Work\png\animation T=1.03887.png" arWidth="640" arHeight="480" duration="0" songTitle="" songArtist="" songAlbum="" songCopyrightUrl="" songArtistUrl="" songAudioFileUrl="" stabilizationMode="0" mediaItemType="2" />
    <MediaItem id="3888" filePath="C:\Users\owner\Dropbox\Work\png\animation T=1.03888.png" arWidth="640" arHeight="480" duration="0" songTitle="" songArtist="" songAlbum="" songCopyrightUrl="" songArtistUrl="" songAudioFileUrl="" stabilizationMode="0" mediaItemType="2" />
    <MediaItem id="3889" filePath="C:\Users\owner\Dropbox\Work\png\animation T=1.03889.png" arWidth="640" arHeight="480" duration="0" songTitle="" songArtist="" songAlbum="" songCopyrightUrl="" songArtistUrl="" songAudioFileUrl="" stabilizationMode="0" mediaItemType="2" />
    <MediaItem id="3890" filePath="C:\Users\owner\Dropbox\Work\png\animation T=1.03890.png" arWidth="640" arHeight="480" duration="0" songTitle="" songArtist="" songAlbum="" songCopyrightUrl="" songArtistUrl="" songAudioFileUrl="" stabilizationMode="0" mediaItemType="2" />
    <MediaItem id="3891" filePath="C:\Users\owner\Dropbox\Work\png\animation T=1.03891.png" arWidth="640" arHeight="480" duration="0" songTitle="" songArtist="" songAlbum="" songCopyrightUrl="" songArtistUrl="" songAudioFileUrl="" stabilizationMode="0" mediaItemType="2" />
    <MediaItem id="3892" filePath="C:\Users\owner\Dropbox\Work\png\animation T=1.03892.png" arWidth="640" arHeight="480" duration="0" songTitle="" songArtist="" songAlbum="" songCopyrightUrl="" songArtistUrl="" songAudioFileUrl="" stabilizationMode="0" mediaItemType="2" />
    <MediaItem id="3893" filePath="C:\Users\owner\Dropbox\Work\png\animation T=1.03893.png" arWidth="640" arHeight="480" duration="0" songTitle="" songArtist="" songAlbum="" songCopyrightUrl="" songArtistUrl="" songAudioFileUrl="" stabilizationMode="0" mediaItemType="2" />
    <MediaItem id="3894" filePath="C:\Users\owner\Dropbox\Work\png\animation T=1.03894.png" arWidth="640" arHeight="480" duration="0" songTitle="" songArtist="" songAlbum="" songCopyrightUrl="" songArtistUrl="" songAudioFileUrl="" stabilizationMode="0" mediaItemType="2" />
    <MediaItem id="3895" filePath="C:\Users\owner\Dropbox\Work\png\animation T=1.03895.png" arWidth="640" arHeight="480" duration="0" songTitle="" songArtist="" songAlbum="" songCopyrightUrl="" songArtistUrl="" songAudioFileUrl="" stabilizationMode="0" mediaItemType="2" />
    <MediaItem id="3896" filePath="C:\Users\owner\Dropbox\Work\png\animation T=1.03896.png" arWidth="640" arHeight="480" duration="0" songTitle="" songArtist="" songAlbum="" songCopyrightUrl="" songArtistUrl="" songAudioFileUrl="" stabilizationMode="0" mediaItemType="2" />
    <MediaItem id="3897" filePath="C:\Users\owner\Dropbox\Work\png\animation T=1.03897.png" arWidth="640" arHeight="480" duration="0" songTitle="" songArtist="" songAlbum="" songCopyrightUrl="" songArtistUrl="" songAudioFileUrl="" stabilizationMode="0" mediaItemType="2" />
    <MediaItem id="3898" filePath="C:\Users\owner\Dropbox\Work\png\animation T=1.03898.png" arWidth="640" arHeight="480" duration="0" songTitle="" songArtist="" songAlbum="" songCopyrightUrl="" songArtistUrl="" songAudioFileUrl="" stabilizationMode="0" mediaItemType="2" />
    <MediaItem id="3899" filePath="C:\Users\owner\Dropbox\Work\png\animation T=1.03899.png" arWidth="640" arHeight="480" duration="0" songTitle="" songArtist="" songAlbum="" songCopyrightUrl="" songArtistUrl="" songAudioFileUrl="" stabilizationMode="0" mediaItemType="2" />
    <MediaItem id="3900" filePath="C:\Users\owner\Dropbox\Work\png\animation T=1.03900.png" arWidth="640" arHeight="480" duration="0" songTitle="" songArtist="" songAlbum="" songCopyrightUrl="" songArtistUrl="" songAudioFileUrl="" stabilizationMode="0" mediaItemType="2" />
    <MediaItem id="3901" filePath="C:\Users\owner\Dropbox\Work\png\animation T=1.03901.png" arWidth="640" arHeight="480" duration="0" songTitle="" songArtist="" songAlbum="" songCopyrightUrl="" songArtistUrl="" songAudioFileUrl="" stabilizationMode="0" mediaItemType="2" />
    <MediaItem id="3902" filePath="C:\Users\owner\Dropbox\Work\png\animation T=1.03902.png" arWidth="640" arHeight="480" duration="0" songTitle="" songArtist="" songAlbum="" songCopyrightUrl="" songArtistUrl="" songAudioFileUrl="" stabilizationMode="0" mediaItemType="2" />
    <MediaItem id="3903" filePath="C:\Users\owner\Dropbox\Work\png\animation T=1.03903.png" arWidth="640" arHeight="480" duration="0" songTitle="" songArtist="" songAlbum="" songCopyrightUrl="" songArtistUrl="" songAudioFileUrl="" stabilizationMode="0" mediaItemType="2" />
    <MediaItem id="3904" filePath="C:\Users\owner\Dropbox\Work\png\animation T=1.03904.png" arWidth="640" arHeight="480" duration="0" songTitle="" songArtist="" songAlbum="" songCopyrightUrl="" songArtistUrl="" songAudioFileUrl="" stabilizationMode="0" mediaItemType="2" />
    <MediaItem id="3905" filePath="C:\Users\owner\Dropbox\Work\png\animation T=1.03905.png" arWidth="640" arHeight="480" duration="0" songTitle="" songArtist="" songAlbum="" songCopyrightUrl="" songArtistUrl="" songAudioFileUrl="" stabilizationMode="0" mediaItemType="2" />
    <MediaItem id="3906" filePath="C:\Users\owner\Dropbox\Work\png\animation T=1.03906.png" arWidth="640" arHeight="480" duration="0" songTitle="" songArtist="" songAlbum="" songCopyrightUrl="" songArtistUrl="" songAudioFileUrl="" stabilizationMode="0" mediaItemType="2" />
    <MediaItem id="3907" filePath="C:\Users\owner\Dropbox\Work\png\animation T=1.03907.png" arWidth="640" arHeight="480" duration="0" songTitle="" songArtist="" songAlbum="" songCopyrightUrl="" songArtistUrl="" songAudioFileUrl="" stabilizationMode="0" mediaItemType="2" />
    <MediaItem id="3908" filePath="C:\Users\owner\Dropbox\Work\png\animation T=1.03908.png" arWidth="640" arHeight="480" duration="0" songTitle="" songArtist="" songAlbum="" songCopyrightUrl="" songArtistUrl="" songAudioFileUrl="" stabilizationMode="0" mediaItemType="2" />
    <MediaItem id="3909" filePath="C:\Users\owner\Dropbox\Work\png\animation T=1.03909.png" arWidth="640" arHeight="480" duration="0" songTitle="" songArtist="" songAlbum="" songCopyrightUrl="" songArtistUrl="" songAudioFileUrl="" stabilizationMode="0" mediaItemType="2" />
    <MediaItem id="3910" filePath="C:\Users\owner\Dropbox\Work\png\animation T=1.03910.png" arWidth="640" arHeight="480" duration="0" songTitle="" songArtist="" songAlbum="" songCopyrightUrl="" songArtistUrl="" songAudioFileUrl="" stabilizationMode="0" mediaItemType="2" />
    <MediaItem id="3911" filePath="C:\Users\owner\Dropbox\Work\png\animation T=1.03911.png" arWidth="640" arHeight="480" duration="0" songTitle="" songArtist="" songAlbum="" songCopyrightUrl="" songArtistUrl="" songAudioFileUrl="" stabilizationMode="0" mediaItemType="2" />
    <MediaItem id="3912" filePath="C:\Users\owner\Dropbox\Work\png\animation T=1.03912.png" arWidth="640" arHeight="480" duration="0" songTitle="" songArtist="" songAlbum="" songCopyrightUrl="" songArtistUrl="" songAudioFileUrl="" stabilizationMode="0" mediaItemType="2" />
    <MediaItem id="3913" filePath="C:\Users\owner\Dropbox\Work\png\animation T=1.03913.png" arWidth="640" arHeight="480" duration="0" songTitle="" songArtist="" songAlbum="" songCopyrightUrl="" songArtistUrl="" songAudioFileUrl="" stabilizationMode="0" mediaItemType="2" />
    <MediaItem id="3914" filePath="C:\Users\owner\Dropbox\Work\png\animation T=1.03914.png" arWidth="640" arHeight="480" duration="0" songTitle="" songArtist="" songAlbum="" songCopyrightUrl="" songArtistUrl="" songAudioFileUrl="" stabilizationMode="0" mediaItemType="2" />
    <MediaItem id="3915" filePath="C:\Users\owner\Dropbox\Work\png\animation T=1.03915.png" arWidth="640" arHeight="480" duration="0" songTitle="" songArtist="" songAlbum="" songCopyrightUrl="" songArtistUrl="" songAudioFileUrl="" stabilizationMode="0" mediaItemType="2" />
    <MediaItem id="3916" filePath="C:\Users\owner\Dropbox\Work\png\animation T=1.03916.png" arWidth="640" arHeight="480" duration="0" songTitle="" songArtist="" songAlbum="" songCopyrightUrl="" songArtistUrl="" songAudioFileUrl="" stabilizationMode="0" mediaItemType="2" />
    <MediaItem id="3917" filePath="C:\Users\owner\Dropbox\Work\png\animation T=1.03917.png" arWidth="640" arHeight="480" duration="0" songTitle="" songArtist="" songAlbum="" songCopyrightUrl="" songArtistUrl="" songAudioFileUrl="" stabilizationMode="0" mediaItemType="2" />
    <MediaItem id="3918" filePath="C:\Users\owner\Dropbox\Work\png\animation T=1.03918.png" arWidth="640" arHeight="480" duration="0" songTitle="" songArtist="" songAlbum="" songCopyrightUrl="" songArtistUrl="" songAudioFileUrl="" stabilizationMode="0" mediaItemType="2" />
    <MediaItem id="3919" filePath="C:\Users\owner\Dropbox\Work\png\animation T=1.03919.png" arWidth="640" arHeight="480" duration="0" songTitle="" songArtist="" songAlbum="" songCopyrightUrl="" songArtistUrl="" songAudioFileUrl="" stabilizationMode="0" mediaItemType="2" />
    <MediaItem id="3920" filePath="C:\Users\owner\Dropbox\Work\png\animation T=1.03920.png" arWidth="640" arHeight="480" duration="0" songTitle="" songArtist="" songAlbum="" songCopyrightUrl="" songArtistUrl="" songAudioFileUrl="" stabilizationMode="0" mediaItemType="2" />
    <MediaItem id="3921" filePath="C:\Users\owner\Dropbox\Work\png\animation T=1.03921.png" arWidth="640" arHeight="480" duration="0" songTitle="" songArtist="" songAlbum="" songCopyrightUrl="" songArtistUrl="" songAudioFileUrl="" stabilizationMode="0" mediaItemType="2" />
    <MediaItem id="3922" filePath="C:\Users\owner\Dropbox\Work\png\animation T=1.03922.png" arWidth="640" arHeight="480" duration="0" songTitle="" songArtist="" songAlbum="" songCopyrightUrl="" songArtistUrl="" songAudioFileUrl="" stabilizationMode="0" mediaItemType="2" />
    <MediaItem id="3923" filePath="C:\Users\owner\Dropbox\Work\png\animation T=1.03923.png" arWidth="640" arHeight="480" duration="0" songTitle="" songArtist="" songAlbum="" songCopyrightUrl="" songArtistUrl="" songAudioFileUrl="" stabilizationMode="0" mediaItemType="2" />
    <MediaItem id="3924" filePath="C:\Users\owner\Dropbox\Work\png\animation T=1.03924.png" arWidth="640" arHeight="480" duration="0" songTitle="" songArtist="" songAlbum="" songCopyrightUrl="" songArtistUrl="" songAudioFileUrl="" stabilizationMode="0" mediaItemType="2" />
    <MediaItem id="3925" filePath="C:\Users\owner\Dropbox\Work\png\animation T=1.03925.png" arWidth="640" arHeight="480" duration="0" songTitle="" songArtist="" songAlbum="" songCopyrightUrl="" songArtistUrl="" songAudioFileUrl="" stabilizationMode="0" mediaItemType="2" />
    <MediaItem id="3926" filePath="C:\Users\owner\Dropbox\Work\png\animation T=1.03926.png" arWidth="640" arHeight="480" duration="0" songTitle="" songArtist="" songAlbum="" songCopyrightUrl="" songArtistUrl="" songAudioFileUrl="" stabilizationMode="0" mediaItemType="2" />
    <MediaItem id="3927" filePath="C:\Users\owner\Dropbox\Work\png\animation T=1.03927.png" arWidth="640" arHeight="480" duration="0" songTitle="" songArtist="" songAlbum="" songCopyrightUrl="" songArtistUrl="" songAudioFileUrl="" stabilizationMode="0" mediaItemType="2" />
    <MediaItem id="3928" filePath="C:\Users\owner\Dropbox\Work\png\animation T=1.03928.png" arWidth="640" arHeight="480" duration="0" songTitle="" songArtist="" songAlbum="" songCopyrightUrl="" songArtistUrl="" songAudioFileUrl="" stabilizationMode="0" mediaItemType="2" />
    <MediaItem id="3929" filePath="C:\Users\owner\Dropbox\Work\png\animation T=1.03929.png" arWidth="640" arHeight="480" duration="0" songTitle="" songArtist="" songAlbum="" songCopyrightUrl="" songArtistUrl="" songAudioFileUrl="" stabilizationMode="0" mediaItemType="2" />
    <MediaItem id="3930" filePath="C:\Users\owner\Dropbox\Work\png\animation T=1.03930.png" arWidth="640" arHeight="480" duration="0" songTitle="" songArtist="" songAlbum="" songCopyrightUrl="" songArtistUrl="" songAudioFileUrl="" stabilizationMode="0" mediaItemType="2" />
    <MediaItem id="3931" filePath="C:\Users\owner\Dropbox\Work\png\animation T=1.03931.png" arWidth="640" arHeight="480" duration="0" songTitle="" songArtist="" songAlbum="" songCopyrightUrl="" songArtistUrl="" songAudioFileUrl="" stabilizationMode="0" mediaItemType="2" />
    <MediaItem id="3932" filePath="C:\Users\owner\Dropbox\Work\png\animation T=1.03932.png" arWidth="640" arHeight="480" duration="0" songTitle="" songArtist="" songAlbum="" songCopyrightUrl="" songArtistUrl="" songAudioFileUrl="" stabilizationMode="0" mediaItemType="2" />
    <MediaItem id="3933" filePath="C:\Users\owner\Dropbox\Work\png\animation T=1.03933.png" arWidth="640" arHeight="480" duration="0" songTitle="" songArtist="" songAlbum="" songCopyrightUrl="" songArtistUrl="" songAudioFileUrl="" stabilizationMode="0" mediaItemType="2" />
    <MediaItem id="3934" filePath="C:\Users\owner\Dropbox\Work\png\animation T=1.03934.png" arWidth="640" arHeight="480" duration="0" songTitle="" songArtist="" songAlbum="" songCopyrightUrl="" songArtistUrl="" songAudioFileUrl="" stabilizationMode="0" mediaItemType="2" />
    <MediaItem id="3935" filePath="C:\Users\owner\Dropbox\Work\png\animation T=1.03935.png" arWidth="640" arHeight="480" duration="0" songTitle="" songArtist="" songAlbum="" songCopyrightUrl="" songArtistUrl="" songAudioFileUrl="" stabilizationMode="0" mediaItemType="2" />
    <MediaItem id="3936" filePath="C:\Users\owner\Dropbox\Work\png\animation T=1.03936.png" arWidth="640" arHeight="480" duration="0" songTitle="" songArtist="" songAlbum="" songCopyrightUrl="" songArtistUrl="" songAudioFileUrl="" stabilizationMode="0" mediaItemType="2" />
    <MediaItem id="3937" filePath="C:\Users\owner\Dropbox\Work\png\animation T=1.03937.png" arWidth="640" arHeight="480" duration="0" songTitle="" songArtist="" songAlbum="" songCopyrightUrl="" songArtistUrl="" songAudioFileUrl="" stabilizationMode="0" mediaItemType="2" />
    <MediaItem id="3938" filePath="C:\Users\owner\Dropbox\Work\png\animation T=1.03938.png" arWidth="640" arHeight="480" duration="0" songTitle="" songArtist="" songAlbum="" songCopyrightUrl="" songArtistUrl="" songAudioFileUrl="" stabilizationMode="0" mediaItemType="2" />
    <MediaItem id="3939" filePath="C:\Users\owner\Dropbox\Work\png\animation T=1.03939.png" arWidth="640" arHeight="480" duration="0" songTitle="" songArtist="" songAlbum="" songCopyrightUrl="" songArtistUrl="" songAudioFileUrl="" stabilizationMode="0" mediaItemType="2" />
    <MediaItem id="3940" filePath="C:\Users\owner\Dropbox\Work\png\animation T=1.03940.png" arWidth="640" arHeight="480" duration="0" songTitle="" songArtist="" songAlbum="" songCopyrightUrl="" songArtistUrl="" songAudioFileUrl="" stabilizationMode="0" mediaItemType="2" />
    <MediaItem id="3941" filePath="C:\Users\owner\Dropbox\Work\png\animation T=1.03941.png" arWidth="640" arHeight="480" duration="0" songTitle="" songArtist="" songAlbum="" songCopyrightUrl="" songArtistUrl="" songAudioFileUrl="" stabilizationMode="0" mediaItemType="2" />
    <MediaItem id="3942" filePath="C:\Users\owner\Dropbox\Work\png\animation T=1.03942.png" arWidth="640" arHeight="480" duration="0" songTitle="" songArtist="" songAlbum="" songCopyrightUrl="" songArtistUrl="" songAudioFileUrl="" stabilizationMode="0" mediaItemType="2" />
    <MediaItem id="3943" filePath="C:\Users\owner\Dropbox\Work\png\animation T=1.03943.png" arWidth="640" arHeight="480" duration="0" songTitle="" songArtist="" songAlbum="" songCopyrightUrl="" songArtistUrl="" songAudioFileUrl="" stabilizationMode="0" mediaItemType="2" />
    <MediaItem id="3944" filePath="C:\Users\owner\Dropbox\Work\png\animation T=1.03944.png" arWidth="640" arHeight="480" duration="0" songTitle="" songArtist="" songAlbum="" songCopyrightUrl="" songArtistUrl="" songAudioFileUrl="" stabilizationMode="0" mediaItemType="2" />
    <MediaItem id="3945" filePath="C:\Users\owner\Dropbox\Work\png\animation T=1.03945.png" arWidth="640" arHeight="480" duration="0" songTitle="" songArtist="" songAlbum="" songCopyrightUrl="" songArtistUrl="" songAudioFileUrl="" stabilizationMode="0" mediaItemType="2" />
    <MediaItem id="3946" filePath="C:\Users\owner\Dropbox\Work\png\animation T=1.03946.png" arWidth="640" arHeight="480" duration="0" songTitle="" songArtist="" songAlbum="" songCopyrightUrl="" songArtistUrl="" songAudioFileUrl="" stabilizationMode="0" mediaItemType="2" />
    <MediaItem id="3947" filePath="C:\Users\owner\Dropbox\Work\png\animation T=1.03947.png" arWidth="640" arHeight="480" duration="0" songTitle="" songArtist="" songAlbum="" songCopyrightUrl="" songArtistUrl="" songAudioFileUrl="" stabilizationMode="0" mediaItemType="2" />
    <MediaItem id="3948" filePath="C:\Users\owner\Dropbox\Work\png\animation T=1.03948.png" arWidth="640" arHeight="480" duration="0" songTitle="" songArtist="" songAlbum="" songCopyrightUrl="" songArtistUrl="" songAudioFileUrl="" stabilizationMode="0" mediaItemType="2" />
    <MediaItem id="3949" filePath="C:\Users\owner\Dropbox\Work\png\animation T=1.03949.png" arWidth="640" arHeight="480" duration="0" songTitle="" songArtist="" songAlbum="" songCopyrightUrl="" songArtistUrl="" songAudioFileUrl="" stabilizationMode="0" mediaItemType="2" />
    <MediaItem id="3950" filePath="C:\Users\owner\Dropbox\Work\png\animation T=1.03950.png" arWidth="640" arHeight="480" duration="0" songTitle="" songArtist="" songAlbum="" songCopyrightUrl="" songArtistUrl="" songAudioFileUrl="" stabilizationMode="0" mediaItemType="2" />
    <MediaItem id="3951" filePath="C:\Users\owner\Dropbox\Work\png\animation T=1.03951.png" arWidth="640" arHeight="480" duration="0" songTitle="" songArtist="" songAlbum="" songCopyrightUrl="" songArtistUrl="" songAudioFileUrl="" stabilizationMode="0" mediaItemType="2" />
    <MediaItem id="3952" filePath="C:\Users\owner\Dropbox\Work\png\animation T=1.03952.png" arWidth="640" arHeight="480" duration="0" songTitle="" songArtist="" songAlbum="" songCopyrightUrl="" songArtistUrl="" songAudioFileUrl="" stabilizationMode="0" mediaItemType="2" />
    <MediaItem id="3953" filePath="C:\Users\owner\Dropbox\Work\png\animation T=1.03953.png" arWidth="640" arHeight="480" duration="0" songTitle="" songArtist="" songAlbum="" songCopyrightUrl="" songArtistUrl="" songAudioFileUrl="" stabilizationMode="0" mediaItemType="2" />
    <MediaItem id="3954" filePath="C:\Users\owner\Dropbox\Work\png\animation T=1.03954.png" arWidth="640" arHeight="480" duration="0" songTitle="" songArtist="" songAlbum="" songCopyrightUrl="" songArtistUrl="" songAudioFileUrl="" stabilizationMode="0" mediaItemType="2" />
    <MediaItem id="3955" filePath="C:\Users\owner\Dropbox\Work\png\animation T=1.03955.png" arWidth="640" arHeight="480" duration="0" songTitle="" songArtist="" songAlbum="" songCopyrightUrl="" songArtistUrl="" songAudioFileUrl="" stabilizationMode="0" mediaItemType="2" />
    <MediaItem id="3956" filePath="C:\Users\owner\Dropbox\Work\png\animation T=1.03956.png" arWidth="640" arHeight="480" duration="0" songTitle="" songArtist="" songAlbum="" songCopyrightUrl="" songArtistUrl="" songAudioFileUrl="" stabilizationMode="0" mediaItemType="2" />
    <MediaItem id="3957" filePath="C:\Users\owner\Dropbox\Work\png\animation T=1.03957.png" arWidth="640" arHeight="480" duration="0" songTitle="" songArtist="" songAlbum="" songCopyrightUrl="" songArtistUrl="" songAudioFileUrl="" stabilizationMode="0" mediaItemType="2" />
    <MediaItem id="3958" filePath="C:\Users\owner\Dropbox\Work\png\animation T=1.03958.png" arWidth="640" arHeight="480" duration="0" songTitle="" songArtist="" songAlbum="" songCopyrightUrl="" songArtistUrl="" songAudioFileUrl="" stabilizationMode="0" mediaItemType="2" />
    <MediaItem id="3959" filePath="C:\Users\owner\Dropbox\Work\png\animation T=1.03959.png" arWidth="640" arHeight="480" duration="0" songTitle="" songArtist="" songAlbum="" songCopyrightUrl="" songArtistUrl="" songAudioFileUrl="" stabilizationMode="0" mediaItemType="2" />
    <MediaItem id="3960" filePath="C:\Users\owner\Dropbox\Work\png\animation T=1.03960.png" arWidth="640" arHeight="480" duration="0" songTitle="" songArtist="" songAlbum="" songCopyrightUrl="" songArtistUrl="" songAudioFileUrl="" stabilizationMode="0" mediaItemType="2" />
    <MediaItem id="3961" filePath="C:\Users\owner\Dropbox\Work\png\animation T=1.03961.png" arWidth="640" arHeight="480" duration="0" songTitle="" songArtist="" songAlbum="" songCopyrightUrl="" songArtistUrl="" songAudioFileUrl="" stabilizationMode="0" mediaItemType="2" />
    <MediaItem id="3962" filePath="C:\Users\owner\Dropbox\Work\png\animation T=1.03962.png" arWidth="640" arHeight="480" duration="0" songTitle="" songArtist="" songAlbum="" songCopyrightUrl="" songArtistUrl="" songAudioFileUrl="" stabilizationMode="0" mediaItemType="2" />
    <MediaItem id="3963" filePath="C:\Users\owner\Dropbox\Work\png\animation T=1.03963.png" arWidth="640" arHeight="480" duration="0" songTitle="" songArtist="" songAlbum="" songCopyrightUrl="" songArtistUrl="" songAudioFileUrl="" stabilizationMode="0" mediaItemType="2" />
    <MediaItem id="3964" filePath="C:\Users\owner\Dropbox\Work\png\animation T=1.03964.png" arWidth="640" arHeight="480" duration="0" songTitle="" songArtist="" songAlbum="" songCopyrightUrl="" songArtistUrl="" songAudioFileUrl="" stabilizationMode="0" mediaItemType="2" />
    <MediaItem id="3965" filePath="C:\Users\owner\Dropbox\Work\png\animation T=1.03965.png" arWidth="640" arHeight="480" duration="0" songTitle="" songArtist="" songAlbum="" songCopyrightUrl="" songArtistUrl="" songAudioFileUrl="" stabilizationMode="0" mediaItemType="2" />
    <MediaItem id="3966" filePath="C:\Users\owner\Dropbox\Work\png\animation T=1.03966.png" arWidth="640" arHeight="480" duration="0" songTitle="" songArtist="" songAlbum="" songCopyrightUrl="" songArtistUrl="" songAudioFileUrl="" stabilizationMode="0" mediaItemType="2" />
    <MediaItem id="3967" filePath="C:\Users\owner\Dropbox\Work\png\animation T=1.03967.png" arWidth="640" arHeight="480" duration="0" songTitle="" songArtist="" songAlbum="" songCopyrightUrl="" songArtistUrl="" songAudioFileUrl="" stabilizationMode="0" mediaItemType="2" />
    <MediaItem id="3968" filePath="C:\Users\owner\Dropbox\Work\png\animation T=1.03968.png" arWidth="640" arHeight="480" duration="0" songTitle="" songArtist="" songAlbum="" songCopyrightUrl="" songArtistUrl="" songAudioFileUrl="" stabilizationMode="0" mediaItemType="2" />
    <MediaItem id="3969" filePath="C:\Users\owner\Dropbox\Work\png\animation T=1.03969.png" arWidth="640" arHeight="480" duration="0" songTitle="" songArtist="" songAlbum="" songCopyrightUrl="" songArtistUrl="" songAudioFileUrl="" stabilizationMode="0" mediaItemType="2" />
    <MediaItem id="3970" filePath="C:\Users\owner\Dropbox\Work\png\animation T=1.03970.png" arWidth="640" arHeight="480" duration="0" songTitle="" songArtist="" songAlbum="" songCopyrightUrl="" songArtistUrl="" songAudioFileUrl="" stabilizationMode="0" mediaItemType="2" />
    <MediaItem id="3971" filePath="C:\Users\owner\Dropbox\Work\png\animation T=1.03971.png" arWidth="640" arHeight="480" duration="0" songTitle="" songArtist="" songAlbum="" songCopyrightUrl="" songArtistUrl="" songAudioFileUrl="" stabilizationMode="0" mediaItemType="2" />
    <MediaItem id="3972" filePath="C:\Users\owner\Dropbox\Work\png\animation T=1.03972.png" arWidth="640" arHeight="480" duration="0" songTitle="" songArtist="" songAlbum="" songCopyrightUrl="" songArtistUrl="" songAudioFileUrl="" stabilizationMode="0" mediaItemType="2" />
    <MediaItem id="3973" filePath="C:\Users\owner\Dropbox\Work\png\animation T=1.03973.png" arWidth="640" arHeight="480" duration="0" songTitle="" songArtist="" songAlbum="" songCopyrightUrl="" songArtistUrl="" songAudioFileUrl="" stabilizationMode="0" mediaItemType="2" />
    <MediaItem id="3974" filePath="C:\Users\owner\Dropbox\Work\png\animation T=1.03974.png" arWidth="640" arHeight="480" duration="0" songTitle="" songArtist="" songAlbum="" songCopyrightUrl="" songArtistUrl="" songAudioFileUrl="" stabilizationMode="0" mediaItemType="2" />
    <MediaItem id="3975" filePath="C:\Users\owner\Dropbox\Work\png\animation T=1.03975.png" arWidth="640" arHeight="480" duration="0" songTitle="" songArtist="" songAlbum="" songCopyrightUrl="" songArtistUrl="" songAudioFileUrl="" stabilizationMode="0" mediaItemType="2" />
    <MediaItem id="3976" filePath="C:\Users\owner\Dropbox\Work\png\animation T=1.03976.png" arWidth="640" arHeight="480" duration="0" songTitle="" songArtist="" songAlbum="" songCopyrightUrl="" songArtistUrl="" songAudioFileUrl="" stabilizationMode="0" mediaItemType="2" />
    <MediaItem id="3977" filePath="C:\Users\owner\Dropbox\Work\png\animation T=1.03977.png" arWidth="640" arHeight="480" duration="0" songTitle="" songArtist="" songAlbum="" songCopyrightUrl="" songArtistUrl="" songAudioFileUrl="" stabilizationMode="0" mediaItemType="2" />
    <MediaItem id="3978" filePath="C:\Users\owner\Dropbox\Work\png\animation T=1.03978.png" arWidth="640" arHeight="480" duration="0" songTitle="" songArtist="" songAlbum="" songCopyrightUrl="" songArtistUrl="" songAudioFileUrl="" stabilizationMode="0" mediaItemType="2" />
    <MediaItem id="3979" filePath="C:\Users\owner\Dropbox\Work\png\animation T=1.03979.png" arWidth="640" arHeight="480" duration="0" songTitle="" songArtist="" songAlbum="" songCopyrightUrl="" songArtistUrl="" songAudioFileUrl="" stabilizationMode="0" mediaItemType="2" />
    <MediaItem id="3980" filePath="C:\Users\owner\Dropbox\Work\png\animation T=1.03980.png" arWidth="640" arHeight="480" duration="0" songTitle="" songArtist="" songAlbum="" songCopyrightUrl="" songArtistUrl="" songAudioFileUrl="" stabilizationMode="0" mediaItemType="2" />
    <MediaItem id="3981" filePath="C:\Users\owner\Dropbox\Work\png\animation T=1.03981.png" arWidth="640" arHeight="480" duration="0" songTitle="" songArtist="" songAlbum="" songCopyrightUrl="" songArtistUrl="" songAudioFileUrl="" stabilizationMode="0" mediaItemType="2" />
    <MediaItem id="3982" filePath="C:\Users\owner\Dropbox\Work\png\animation T=1.03982.png" arWidth="640" arHeight="480" duration="0" songTitle="" songArtist="" songAlbum="" songCopyrightUrl="" songArtistUrl="" songAudioFileUrl="" stabilizationMode="0" mediaItemType="2" />
    <MediaItem id="3983" filePath="C:\Users\owner\Dropbox\Work\png\animation T=1.03983.png" arWidth="640" arHeight="480" duration="0" songTitle="" songArtist="" songAlbum="" songCopyrightUrl="" songArtistUrl="" songAudioFileUrl="" stabilizationMode="0" mediaItemType="2" />
    <MediaItem id="3984" filePath="C:\Users\owner\Dropbox\Work\png\animation T=1.03984.png" arWidth="640" arHeight="480" duration="0" songTitle="" songArtist="" songAlbum="" songCopyrightUrl="" songArtistUrl="" songAudioFileUrl="" stabilizationMode="0" mediaItemType="2" />
    <MediaItem id="3985" filePath="C:\Users\owner\Dropbox\Work\png\animation T=1.03985.png" arWidth="640" arHeight="480" duration="0" songTitle="" songArtist="" songAlbum="" songCopyrightUrl="" songArtistUrl="" songAudioFileUrl="" stabilizationMode="0" mediaItemType="2" />
    <MediaItem id="3986" filePath="C:\Users\owner\Dropbox\Work\png\animation T=1.03986.png" arWidth="640" arHeight="480" duration="0" songTitle="" songArtist="" songAlbum="" songCopyrightUrl="" songArtistUrl="" songAudioFileUrl="" stabilizationMode="0" mediaItemType="2" />
    <MediaItem id="3987" filePath="C:\Users\owner\Dropbox\Work\png\animation T=1.03987.png" arWidth="640" arHeight="480" duration="0" songTitle="" songArtist="" songAlbum="" songCopyrightUrl="" songArtistUrl="" songAudioFileUrl="" stabilizationMode="0" mediaItemType="2" />
    <MediaItem id="3988" filePath="C:\Users\owner\Dropbox\Work\png\animation T=1.03988.png" arWidth="640" arHeight="480" duration="0" songTitle="" songArtist="" songAlbum="" songCopyrightUrl="" songArtistUrl="" songAudioFileUrl="" stabilizationMode="0" mediaItemType="2" />
    <MediaItem id="3989" filePath="C:\Users\owner\Dropbox\Work\png\animation T=1.03989.png" arWidth="640" arHeight="480" duration="0" songTitle="" songArtist="" songAlbum="" songCopyrightUrl="" songArtistUrl="" songAudioFileUrl="" stabilizationMode="0" mediaItemType="2" />
    <MediaItem id="3990" filePath="C:\Users\owner\Dropbox\Work\png\animation T=1.03990.png" arWidth="640" arHeight="480" duration="0" songTitle="" songArtist="" songAlbum="" songCopyrightUrl="" songArtistUrl="" songAudioFileUrl="" stabilizationMode="0" mediaItemType="2" />
    <MediaItem id="3991" filePath="C:\Users\owner\Dropbox\Work\png\animation T=1.03991.png" arWidth="640" arHeight="480" duration="0" songTitle="" songArtist="" songAlbum="" songCopyrightUrl="" songArtistUrl="" songAudioFileUrl="" stabilizationMode="0" mediaItemType="2" />
    <MediaItem id="3992" filePath="C:\Users\owner\Dropbox\Work\png\animation T=1.03992.png" arWidth="640" arHeight="480" duration="0" songTitle="" songArtist="" songAlbum="" songCopyrightUrl="" songArtistUrl="" songAudioFileUrl="" stabilizationMode="0" mediaItemType="2" />
    <MediaItem id="3993" filePath="C:\Users\owner\Dropbox\Work\png\animation T=1.03993.png" arWidth="640" arHeight="480" duration="0" songTitle="" songArtist="" songAlbum="" songCopyrightUrl="" songArtistUrl="" songAudioFileUrl="" stabilizationMode="0" mediaItemType="2" />
    <MediaItem id="3994" filePath="C:\Users\owner\Dropbox\Work\png\animation T=1.03994.png" arWidth="640" arHeight="480" duration="0" songTitle="" songArtist="" songAlbum="" songCopyrightUrl="" songArtistUrl="" songAudioFileUrl="" stabilizationMode="0" mediaItemType="2" />
    <MediaItem id="3995" filePath="C:\Users\owner\Dropbox\Work\png\animation T=1.03995.png" arWidth="640" arHeight="480" duration="0" songTitle="" songArtist="" songAlbum="" songCopyrightUrl="" songArtistUrl="" songAudioFileUrl="" stabilizationMode="0" mediaItemType="2" />
    <MediaItem id="3996" filePath="C:\Users\owner\Dropbox\Work\png\animation T=1.03996.png" arWidth="640" arHeight="480" duration="0" songTitle="" songArtist="" songAlbum="" songCopyrightUrl="" songArtistUrl="" songAudioFileUrl="" stabilizationMode="0" mediaItemType="2" />
    <MediaItem id="3997" filePath="C:\Users\owner\Dropbox\Work\png\animation T=1.03997.png" arWidth="640" arHeight="480" duration="0" songTitle="" songArtist="" songAlbum="" songCopyrightUrl="" songArtistUrl="" songAudioFileUrl="" stabilizationMode="0" mediaItemType="2" />
    <MediaItem id="3998" filePath="C:\Users\owner\Dropbox\Work\png\animation T=1.03998.png" arWidth="640" arHeight="480" duration="0" songTitle="" songArtist="" songAlbum="" songCopyrightUrl="" songArtistUrl="" songAudioFileUrl="" stabilizationMode="0" mediaItemType="2" />
    <MediaItem id="3999" filePath="C:\Users\owner\Dropbox\Work\png\animation T=1.03999.png" arWidth="640" arHeight="480" duration="0" songTitle="" songArtist="" songAlbum="" songCopyrightUrl="" songArtistUrl="" songAudioFileUrl="" stabilizationMode="0" mediaItemType="2" />
    <MediaItem id="4000" filePath="C:\Users\owner\Dropbox\Work\png\animation T=1.04000.png" arWidth="640" arHeight="480" duration="0" songTitle="" songArtist="" songAlbum="" songCopyrightUrl="" songArtistUrl="" songAudioFileUrl="" stabilizationMode="0" mediaItemType="2" />
    <MediaItem id="4001" filePath="C:\Users\owner\Dropbox\Work\png\animation T=1.04001.png" arWidth="640" arHeight="480" duration="0" songTitle="" songArtist="" songAlbum="" songCopyrightUrl="" songArtistUrl="" songAudioFileUrl="" stabilizationMode="0" mediaItemType="2" />
    <MediaItem id="4002" filePath="C:\Users\owner\Dropbox\Work\png\animation T=1.04002.png" arWidth="640" arHeight="480" duration="0" songTitle="" songArtist="" songAlbum="" songCopyrightUrl="" songArtistUrl="" songAudioFileUrl="" stabilizationMode="0" mediaItemType="2" />
    <MediaItem id="4003" filePath="C:\Users\owner\Dropbox\Work\png\animation T=1.04003.png" arWidth="640" arHeight="480" duration="0" songTitle="" songArtist="" songAlbum="" songCopyrightUrl="" songArtistUrl="" songAudioFileUrl="" stabilizationMode="0" mediaItemType="2" />
    <MediaItem id="4004" filePath="C:\Users\owner\Dropbox\Work\png\animation T=1.04004.png" arWidth="640" arHeight="480" duration="0" songTitle="" songArtist="" songAlbum="" songCopyrightUrl="" songArtistUrl="" songAudioFileUrl="" stabilizationMode="0" mediaItemType="2" />
    <MediaItem id="4005" filePath="C:\Users\owner\Dropbox\Work\png\animation T=1.04005.png" arWidth="640" arHeight="480" duration="0" songTitle="" songArtist="" songAlbum="" songCopyrightUrl="" songArtistUrl="" songAudioFileUrl="" stabilizationMode="0" mediaItemType="2" />
    <MediaItem id="4006" filePath="C:\Users\owner\Dropbox\Work\png\animation T=1.04006.png" arWidth="640" arHeight="480" duration="0" songTitle="" songArtist="" songAlbum="" songCopyrightUrl="" songArtistUrl="" songAudioFileUrl="" stabilizationMode="0" mediaItemType="2" />
    <MediaItem id="4007" filePath="C:\Users\owner\Dropbox\Work\png\animation T=1.04007.png" arWidth="640" arHeight="480" duration="0" songTitle="" songArtist="" songAlbum="" songCopyrightUrl="" songArtistUrl="" songAudioFileUrl="" stabilizationMode="0" mediaItemType="2" />
    <MediaItem id="4008" filePath="C:\Users\owner\Dropbox\Work\png\animation T=1.04008.png" arWidth="640" arHeight="480" duration="0" songTitle="" songArtist="" songAlbum="" songCopyrightUrl="" songArtistUrl="" songAudioFileUrl="" stabilizationMode="0" mediaItemType="2" />
    <MediaItem id="4009" filePath="C:\Users\owner\Dropbox\Work\png\animation T=1.04009.png" arWidth="640" arHeight="480" duration="0" songTitle="" songArtist="" songAlbum="" songCopyrightUrl="" songArtistUrl="" songAudioFileUrl="" stabilizationMode="0" mediaItemType="2" />
    <MediaItem id="4010" filePath="C:\Users\owner\Dropbox\Work\png\animation T=1.04010.png" arWidth="640" arHeight="480" duration="0" songTitle="" songArtist="" songAlbum="" songCopyrightUrl="" songArtistUrl="" songAudioFileUrl="" stabilizationMode="0" mediaItemType="2" />
    <MediaItem id="4011" filePath="C:\Users\owner\Dropbox\Work\png\animation T=1.04011.png" arWidth="640" arHeight="480" duration="0" songTitle="" songArtist="" songAlbum="" songCopyrightUrl="" songArtistUrl="" songAudioFileUrl="" stabilizationMode="0" mediaItemType="2" />
    <MediaItem id="4012" filePath="C:\Users\owner\Dropbox\Work\png\animation T=1.04012.png" arWidth="640" arHeight="480" duration="0" songTitle="" songArtist="" songAlbum="" songCopyrightUrl="" songArtistUrl="" songAudioFileUrl="" stabilizationMode="0" mediaItemType="2" />
    <MediaItem id="4013" filePath="C:\Users\owner\Dropbox\Work\png\animation T=1.04013.png" arWidth="640" arHeight="480" duration="0" songTitle="" songArtist="" songAlbum="" songCopyrightUrl="" songArtistUrl="" songAudioFileUrl="" stabilizationMode="0" mediaItemType="2" />
    <MediaItem id="4014" filePath="C:\Users\owner\Dropbox\Work\png\animation T=1.04014.png" arWidth="640" arHeight="480" duration="0" songTitle="" songArtist="" songAlbum="" songCopyrightUrl="" songArtistUrl="" songAudioFileUrl="" stabilizationMode="0" mediaItemType="2" />
    <MediaItem id="4015" filePath="C:\Users\owner\Dropbox\Work\png\animation T=1.04015.png" arWidth="640" arHeight="480" duration="0" songTitle="" songArtist="" songAlbum="" songCopyrightUrl="" songArtistUrl="" songAudioFileUrl="" stabilizationMode="0" mediaItemType="2" />
    <MediaItem id="4016" filePath="C:\Users\owner\Dropbox\Work\png\animation T=1.04016.png" arWidth="640" arHeight="480" duration="0" songTitle="" songArtist="" songAlbum="" songCopyrightUrl="" songArtistUrl="" songAudioFileUrl="" stabilizationMode="0" mediaItemType="2" />
    <MediaItem id="4017" filePath="C:\Users\owner\Dropbox\Work\png\animation T=1.04017.png" arWidth="640" arHeight="480" duration="0" songTitle="" songArtist="" songAlbum="" songCopyrightUrl="" songArtistUrl="" songAudioFileUrl="" stabilizationMode="0" mediaItemType="2" />
    <MediaItem id="4018" filePath="C:\Users\owner\Dropbox\Work\png\animation T=1.04018.png" arWidth="640" arHeight="480" duration="0" songTitle="" songArtist="" songAlbum="" songCopyrightUrl="" songArtistUrl="" songAudioFileUrl="" stabilizationMode="0" mediaItemType="2" />
    <MediaItem id="4019" filePath="C:\Users\owner\Dropbox\Work\png\animation T=1.04019.png" arWidth="640" arHeight="480" duration="0" songTitle="" songArtist="" songAlbum="" songCopyrightUrl="" songArtistUrl="" songAudioFileUrl="" stabilizationMode="0" mediaItemType="2" />
    <MediaItem id="4020" filePath="C:\Users\owner\Dropbox\Work\png\animation T=1.04020.png" arWidth="640" arHeight="480" duration="0" songTitle="" songArtist="" songAlbum="" songCopyrightUrl="" songArtistUrl="" songAudioFileUrl="" stabilizationMode="0" mediaItemType="2" />
    <MediaItem id="4021" filePath="C:\Users\owner\Dropbox\Work\png\animation T=1.04021.png" arWidth="640" arHeight="480" duration="0" songTitle="" songArtist="" songAlbum="" songCopyrightUrl="" songArtistUrl="" songAudioFileUrl="" stabilizationMode="0" mediaItemType="2" />
    <MediaItem id="4022" filePath="C:\Users\owner\Dropbox\Work\png\animation T=1.04022.png" arWidth="640" arHeight="480" duration="0" songTitle="" songArtist="" songAlbum="" songCopyrightUrl="" songArtistUrl="" songAudioFileUrl="" stabilizationMode="0" mediaItemType="2" />
    <MediaItem id="4023" filePath="C:\Users\owner\Dropbox\Work\png\animation T=1.04023.png" arWidth="640" arHeight="480" duration="0" songTitle="" songArtist="" songAlbum="" songCopyrightUrl="" songArtistUrl="" songAudioFileUrl="" stabilizationMode="0" mediaItemType="2" />
    <MediaItem id="4024" filePath="C:\Users\owner\Dropbox\Work\png\animation T=1.04024.png" arWidth="640" arHeight="480" duration="0" songTitle="" songArtist="" songAlbum="" songCopyrightUrl="" songArtistUrl="" songAudioFileUrl="" stabilizationMode="0" mediaItemType="2" />
    <MediaItem id="4025" filePath="C:\Users\owner\Dropbox\Work\png\animation T=1.04025.png" arWidth="640" arHeight="480" duration="0" songTitle="" songArtist="" songAlbum="" songCopyrightUrl="" songArtistUrl="" songAudioFileUrl="" stabilizationMode="0" mediaItemType="2" />
    <MediaItem id="4026" filePath="C:\Users\owner\Dropbox\Work\png\animation T=1.04026.png" arWidth="640" arHeight="480" duration="0" songTitle="" songArtist="" songAlbum="" songCopyrightUrl="" songArtistUrl="" songAudioFileUrl="" stabilizationMode="0" mediaItemType="2" />
    <MediaItem id="4027" filePath="C:\Users\owner\Dropbox\Work\png\animation T=1.04027.png" arWidth="640" arHeight="480" duration="0" songTitle="" songArtist="" songAlbum="" songCopyrightUrl="" songArtistUrl="" songAudioFileUrl="" stabilizationMode="0" mediaItemType="2" />
    <MediaItem id="4028" filePath="C:\Users\owner\Dropbox\Work\png\animation T=1.04028.png" arWidth="640" arHeight="480" duration="0" songTitle="" songArtist="" songAlbum="" songCopyrightUrl="" songArtistUrl="" songAudioFileUrl="" stabilizationMode="0" mediaItemType="2" />
    <MediaItem id="4029" filePath="C:\Users\owner\Dropbox\Work\png\animation T=1.04029.png" arWidth="640" arHeight="480" duration="0" songTitle="" songArtist="" songAlbum="" songCopyrightUrl="" songArtistUrl="" songAudioFileUrl="" stabilizationMode="0" mediaItemType="2" />
    <MediaItem id="4030" filePath="C:\Users\owner\Dropbox\Work\png\animation T=1.04030.png" arWidth="640" arHeight="480" duration="0" songTitle="" songArtist="" songAlbum="" songCopyrightUrl="" songArtistUrl="" songAudioFileUrl="" stabilizationMode="0" mediaItemType="2" />
    <MediaItem id="4031" filePath="C:\Users\owner\Dropbox\Work\png\animation T=1.04031.png" arWidth="640" arHeight="480" duration="0" songTitle="" songArtist="" songAlbum="" songCopyrightUrl="" songArtistUrl="" songAudioFileUrl="" stabilizationMode="0" mediaItemType="2" />
    <MediaItem id="4032" filePath="C:\Users\owner\Dropbox\Work\png\animation T=1.04032.png" arWidth="640" arHeight="480" duration="0" songTitle="" songArtist="" songAlbum="" songCopyrightUrl="" songArtistUrl="" songAudioFileUrl="" stabilizationMode="0" mediaItemType="2" />
    <MediaItem id="4033" filePath="C:\Users\owner\Dropbox\Work\png\animation T=1.04033.png" arWidth="640" arHeight="480" duration="0" songTitle="" songArtist="" songAlbum="" songCopyrightUrl="" songArtistUrl="" songAudioFileUrl="" stabilizationMode="0" mediaItemType="2" />
    <MediaItem id="4034" filePath="C:\Users\owner\Dropbox\Work\png\animation T=1.04034.png" arWidth="640" arHeight="480" duration="0" songTitle="" songArtist="" songAlbum="" songCopyrightUrl="" songArtistUrl="" songAudioFileUrl="" stabilizationMode="0" mediaItemType="2" />
    <MediaItem id="4035" filePath="C:\Users\owner\Dropbox\Work\png\animation T=1.04035.png" arWidth="640" arHeight="480" duration="0" songTitle="" songArtist="" songAlbum="" songCopyrightUrl="" songArtistUrl="" songAudioFileUrl="" stabilizationMode="0" mediaItemType="2" />
    <MediaItem id="4036" filePath="C:\Users\owner\Dropbox\Work\png\animation T=1.04036.png" arWidth="640" arHeight="480" duration="0" songTitle="" songArtist="" songAlbum="" songCopyrightUrl="" songArtistUrl="" songAudioFileUrl="" stabilizationMode="0" mediaItemType="2" />
    <MediaItem id="4037" filePath="C:\Users\owner\Dropbox\Work\png\animation T=1.04037.png" arWidth="640" arHeight="480" duration="0" songTitle="" songArtist="" songAlbum="" songCopyrightUrl="" songArtistUrl="" songAudioFileUrl="" stabilizationMode="0" mediaItemType="2" />
    <MediaItem id="4038" filePath="C:\Users\owner\Dropbox\Work\png\animation T=1.04038.png" arWidth="640" arHeight="480" duration="0" songTitle="" songArtist="" songAlbum="" songCopyrightUrl="" songArtistUrl="" songAudioFileUrl="" stabilizationMode="0" mediaItemType="2" />
    <MediaItem id="4039" filePath="C:\Users\owner\Dropbox\Work\png\animation T=1.04039.png" arWidth="640" arHeight="480" duration="0" songTitle="" songArtist="" songAlbum="" songCopyrightUrl="" songArtistUrl="" songAudioFileUrl="" stabilizationMode="0" mediaItemType="2" />
    <MediaItem id="4040" filePath="C:\Users\owner\Dropbox\Work\png\animation T=1.04040.png" arWidth="640" arHeight="480" duration="0" songTitle="" songArtist="" songAlbum="" songCopyrightUrl="" songArtistUrl="" songAudioFileUrl="" stabilizationMode="0" mediaItemType="2" />
    <MediaItem id="4041" filePath="C:\Users\owner\Dropbox\Work\png\animation T=1.04041.png" arWidth="640" arHeight="480" duration="0" songTitle="" songArtist="" songAlbum="" songCopyrightUrl="" songArtistUrl="" songAudioFileUrl="" stabilizationMode="0" mediaItemType="2" />
    <MediaItem id="4042" filePath="C:\Users\owner\Dropbox\Work\png\animation T=1.04042.png" arWidth="640" arHeight="480" duration="0" songTitle="" songArtist="" songAlbum="" songCopyrightUrl="" songArtistUrl="" songAudioFileUrl="" stabilizationMode="0" mediaItemType="2" />
    <MediaItem id="4043" filePath="C:\Users\owner\Dropbox\Work\png\animation T=1.04043.png" arWidth="640" arHeight="480" duration="0" songTitle="" songArtist="" songAlbum="" songCopyrightUrl="" songArtistUrl="" songAudioFileUrl="" stabilizationMode="0" mediaItemType="2" />
    <MediaItem id="4044" filePath="C:\Users\owner\Dropbox\Work\png\animation T=1.04044.png" arWidth="640" arHeight="480" duration="0" songTitle="" songArtist="" songAlbum="" songCopyrightUrl="" songArtistUrl="" songAudioFileUrl="" stabilizationMode="0" mediaItemType="2" />
    <MediaItem id="4045" filePath="C:\Users\owner\Dropbox\Work\png\animation T=1.04045.png" arWidth="640" arHeight="480" duration="0" songTitle="" songArtist="" songAlbum="" songCopyrightUrl="" songArtistUrl="" songAudioFileUrl="" stabilizationMode="0" mediaItemType="2" />
    <MediaItem id="4046" filePath="C:\Users\owner\Dropbox\Work\png\animation T=1.04046.png" arWidth="640" arHeight="480" duration="0" songTitle="" songArtist="" songAlbum="" songCopyrightUrl="" songArtistUrl="" songAudioFileUrl="" stabilizationMode="0" mediaItemType="2" />
    <MediaItem id="4047" filePath="C:\Users\owner\Dropbox\Work\png\animation T=1.04047.png" arWidth="640" arHeight="480" duration="0" songTitle="" songArtist="" songAlbum="" songCopyrightUrl="" songArtistUrl="" songAudioFileUrl="" stabilizationMode="0" mediaItemType="2" />
    <MediaItem id="4048" filePath="C:\Users\owner\Dropbox\Work\png\animation T=1.04048.png" arWidth="640" arHeight="480" duration="0" songTitle="" songArtist="" songAlbum="" songCopyrightUrl="" songArtistUrl="" songAudioFileUrl="" stabilizationMode="0" mediaItemType="2" />
    <MediaItem id="4049" filePath="C:\Users\owner\Dropbox\Work\png\animation T=1.04049.png" arWidth="640" arHeight="480" duration="0" songTitle="" songArtist="" songAlbum="" songCopyrightUrl="" songArtistUrl="" songAudioFileUrl="" stabilizationMode="0" mediaItemType="2" />
    <MediaItem id="4050" filePath="C:\Users\owner\Dropbox\Work\png\animation T=1.04050.png" arWidth="640" arHeight="480" duration="0" songTitle="" songArtist="" songAlbum="" songCopyrightUrl="" songArtistUrl="" songAudioFileUrl="" stabilizationMode="0" mediaItemType="2" />
    <MediaItem id="4051" filePath="C:\Users\owner\Dropbox\Work\png\animation T=1.04051.png" arWidth="640" arHeight="480" duration="0" songTitle="" songArtist="" songAlbum="" songCopyrightUrl="" songArtistUrl="" songAudioFileUrl="" stabilizationMode="0" mediaItemType="2" />
    <MediaItem id="4052" filePath="C:\Users\owner\Dropbox\Work\png\animation T=1.04052.png" arWidth="640" arHeight="480" duration="0" songTitle="" songArtist="" songAlbum="" songCopyrightUrl="" songArtistUrl="" songAudioFileUrl="" stabilizationMode="0" mediaItemType="2" />
    <MediaItem id="4053" filePath="C:\Users\owner\Dropbox\Work\png\animation T=1.04053.png" arWidth="640" arHeight="480" duration="0" songTitle="" songArtist="" songAlbum="" songCopyrightUrl="" songArtistUrl="" songAudioFileUrl="" stabilizationMode="0" mediaItemType="2" />
    <MediaItem id="4054" filePath="C:\Users\owner\Dropbox\Work\png\animation T=1.04054.png" arWidth="640" arHeight="480" duration="0" songTitle="" songArtist="" songAlbum="" songCopyrightUrl="" songArtistUrl="" songAudioFileUrl="" stabilizationMode="0" mediaItemType="2" />
    <MediaItem id="4055" filePath="C:\Users\owner\Dropbox\Work\png\animation T=1.04055.png" arWidth="640" arHeight="480" duration="0" songTitle="" songArtist="" songAlbum="" songCopyrightUrl="" songArtistUrl="" songAudioFileUrl="" stabilizationMode="0" mediaItemType="2" />
    <MediaItem id="4056" filePath="C:\Users\owner\Dropbox\Work\png\animation T=1.04056.png" arWidth="640" arHeight="480" duration="0" songTitle="" songArtist="" songAlbum="" songCopyrightUrl="" songArtistUrl="" songAudioFileUrl="" stabilizationMode="0" mediaItemType="2" />
    <MediaItem id="4057" filePath="C:\Users\owner\Dropbox\Work\png\animation T=1.04057.png" arWidth="640" arHeight="480" duration="0" songTitle="" songArtist="" songAlbum="" songCopyrightUrl="" songArtistUrl="" songAudioFileUrl="" stabilizationMode="0" mediaItemType="2" />
    <MediaItem id="4058" filePath="C:\Users\owner\Dropbox\Work\png\animation T=1.04058.png" arWidth="640" arHeight="480" duration="0" songTitle="" songArtist="" songAlbum="" songCopyrightUrl="" songArtistUrl="" songAudioFileUrl="" stabilizationMode="0" mediaItemType="2" />
    <MediaItem id="4059" filePath="C:\Users\owner\Dropbox\Work\png\animation T=1.04059.png" arWidth="640" arHeight="480" duration="0" songTitle="" songArtist="" songAlbum="" songCopyrightUrl="" songArtistUrl="" songAudioFileUrl="" stabilizationMode="0" mediaItemType="2" />
    <MediaItem id="4060" filePath="C:\Users\owner\Dropbox\Work\png\animation T=1.04060.png" arWidth="640" arHeight="480" duration="0" songTitle="" songArtist="" songAlbum="" songCopyrightUrl="" songArtistUrl="" songAudioFileUrl="" stabilizationMode="0" mediaItemType="2" />
    <MediaItem id="4061" filePath="C:\Users\owner\Dropbox\Work\png\animation T=1.04061.png" arWidth="640" arHeight="480" duration="0" songTitle="" songArtist="" songAlbum="" songCopyrightUrl="" songArtistUrl="" songAudioFileUrl="" stabilizationMode="0" mediaItemType="2" />
    <MediaItem id="4062" filePath="C:\Users\owner\Dropbox\Work\png\animation T=1.04062.png" arWidth="640" arHeight="480" duration="0" songTitle="" songArtist="" songAlbum="" songCopyrightUrl="" songArtistUrl="" songAudioFileUrl="" stabilizationMode="0" mediaItemType="2" />
    <MediaItem id="4063" filePath="C:\Users\owner\Dropbox\Work\png\animation T=1.04063.png" arWidth="640" arHeight="480" duration="0" songTitle="" songArtist="" songAlbum="" songCopyrightUrl="" songArtistUrl="" songAudioFileUrl="" stabilizationMode="0" mediaItemType="2" />
    <MediaItem id="4064" filePath="C:\Users\owner\Dropbox\Work\png\animation T=1.04064.png" arWidth="640" arHeight="480" duration="0" songTitle="" songArtist="" songAlbum="" songCopyrightUrl="" songArtistUrl="" songAudioFileUrl="" stabilizationMode="0" mediaItemType="2" />
    <MediaItem id="4065" filePath="C:\Users\owner\Dropbox\Work\png\animation T=1.04065.png" arWidth="640" arHeight="480" duration="0" songTitle="" songArtist="" songAlbum="" songCopyrightUrl="" songArtistUrl="" songAudioFileUrl="" stabilizationMode="0" mediaItemType="2" />
    <MediaItem id="4066" filePath="C:\Users\owner\Dropbox\Work\png\animation T=1.04066.png" arWidth="640" arHeight="480" duration="0" songTitle="" songArtist="" songAlbum="" songCopyrightUrl="" songArtistUrl="" songAudioFileUrl="" stabilizationMode="0" mediaItemType="2" />
    <MediaItem id="4067" filePath="C:\Users\owner\Dropbox\Work\png\animation T=1.04067.png" arWidth="640" arHeight="480" duration="0" songTitle="" songArtist="" songAlbum="" songCopyrightUrl="" songArtistUrl="" songAudioFileUrl="" stabilizationMode="0" mediaItemType="2" />
    <MediaItem id="4068" filePath="C:\Users\owner\Dropbox\Work\png\animation T=1.04068.png" arWidth="640" arHeight="480" duration="0" songTitle="" songArtist="" songAlbum="" songCopyrightUrl="" songArtistUrl="" songAudioFileUrl="" stabilizationMode="0" mediaItemType="2" />
    <MediaItem id="4069" filePath="C:\Users\owner\Dropbox\Work\png\animation T=1.04069.png" arWidth="640" arHeight="480" duration="0" songTitle="" songArtist="" songAlbum="" songCopyrightUrl="" songArtistUrl="" songAudioFileUrl="" stabilizationMode="0" mediaItemType="2" />
    <MediaItem id="4070" filePath="C:\Users\owner\Dropbox\Work\png\animation T=1.04070.png" arWidth="640" arHeight="480" duration="0" songTitle="" songArtist="" songAlbum="" songCopyrightUrl="" songArtistUrl="" songAudioFileUrl="" stabilizationMode="0" mediaItemType="2" />
    <MediaItem id="4071" filePath="C:\Users\owner\Dropbox\Work\png\animation T=1.04071.png" arWidth="640" arHeight="480" duration="0" songTitle="" songArtist="" songAlbum="" songCopyrightUrl="" songArtistUrl="" songAudioFileUrl="" stabilizationMode="0" mediaItemType="2" />
    <MediaItem id="4072" filePath="C:\Users\owner\Dropbox\Work\png\animation T=1.04072.png" arWidth="640" arHeight="480" duration="0" songTitle="" songArtist="" songAlbum="" songCopyrightUrl="" songArtistUrl="" songAudioFileUrl="" stabilizationMode="0" mediaItemType="2" />
    <MediaItem id="4073" filePath="C:\Users\owner\Dropbox\Work\png\animation T=1.04073.png" arWidth="640" arHeight="480" duration="0" songTitle="" songArtist="" songAlbum="" songCopyrightUrl="" songArtistUrl="" songAudioFileUrl="" stabilizationMode="0" mediaItemType="2" />
    <MediaItem id="4074" filePath="C:\Users\owner\Dropbox\Work\png\animation T=1.04074.png" arWidth="640" arHeight="480" duration="0" songTitle="" songArtist="" songAlbum="" songCopyrightUrl="" songArtistUrl="" songAudioFileUrl="" stabilizationMode="0" mediaItemType="2" />
    <MediaItem id="4075" filePath="C:\Users\owner\Dropbox\Work\png\animation T=1.04075.png" arWidth="640" arHeight="480" duration="0" songTitle="" songArtist="" songAlbum="" songCopyrightUrl="" songArtistUrl="" songAudioFileUrl="" stabilizationMode="0" mediaItemType="2" />
    <MediaItem id="4076" filePath="C:\Users\owner\Dropbox\Work\png\animation T=1.04076.png" arWidth="640" arHeight="480" duration="0" songTitle="" songArtist="" songAlbum="" songCopyrightUrl="" songArtistUrl="" songAudioFileUrl="" stabilizationMode="0" mediaItemType="2" />
    <MediaItem id="4077" filePath="C:\Users\owner\Dropbox\Work\png\animation T=1.04077.png" arWidth="640" arHeight="480" duration="0" songTitle="" songArtist="" songAlbum="" songCopyrightUrl="" songArtistUrl="" songAudioFileUrl="" stabilizationMode="0" mediaItemType="2" />
    <MediaItem id="4078" filePath="C:\Users\owner\Dropbox\Work\png\animation T=1.04078.png" arWidth="640" arHeight="480" duration="0" songTitle="" songArtist="" songAlbum="" songCopyrightUrl="" songArtistUrl="" songAudioFileUrl="" stabilizationMode="0" mediaItemType="2" />
    <MediaItem id="4079" filePath="C:\Users\owner\Dropbox\Work\png\animation T=1.04079.png" arWidth="640" arHeight="480" duration="0" songTitle="" songArtist="" songAlbum="" songCopyrightUrl="" songArtistUrl="" songAudioFileUrl="" stabilizationMode="0" mediaItemType="2" />
    <MediaItem id="4080" filePath="C:\Users\owner\Dropbox\Work\png\animation T=1.04080.png" arWidth="640" arHeight="480" duration="0" songTitle="" songArtist="" songAlbum="" songCopyrightUrl="" songArtistUrl="" songAudioFileUrl="" stabilizationMode="0" mediaItemType="2" />
    <MediaItem id="4081" filePath="C:\Users\owner\Dropbox\Work\png\animation T=1.04081.png" arWidth="640" arHeight="480" duration="0" songTitle="" songArtist="" songAlbum="" songCopyrightUrl="" songArtistUrl="" songAudioFileUrl="" stabilizationMode="0" mediaItemType="2" />
    <MediaItem id="4082" filePath="C:\Users\owner\Dropbox\Work\png\animation T=1.04082.png" arWidth="640" arHeight="480" duration="0" songTitle="" songArtist="" songAlbum="" songCopyrightUrl="" songArtistUrl="" songAudioFileUrl="" stabilizationMode="0" mediaItemType="2" />
    <MediaItem id="4083" filePath="C:\Users\owner\Dropbox\Work\png\animation T=1.04083.png" arWidth="640" arHeight="480" duration="0" songTitle="" songArtist="" songAlbum="" songCopyrightUrl="" songArtistUrl="" songAudioFileUrl="" stabilizationMode="0" mediaItemType="2" />
    <MediaItem id="4084" filePath="C:\Users\owner\Dropbox\Work\png\animation T=1.04084.png" arWidth="640" arHeight="480" duration="0" songTitle="" songArtist="" songAlbum="" songCopyrightUrl="" songArtistUrl="" songAudioFileUrl="" stabilizationMode="0" mediaItemType="2" />
    <MediaItem id="4085" filePath="C:\Users\owner\Dropbox\Work\png\animation T=1.04085.png" arWidth="640" arHeight="480" duration="0" songTitle="" songArtist="" songAlbum="" songCopyrightUrl="" songArtistUrl="" songAudioFileUrl="" stabilizationMode="0" mediaItemType="2" />
    <MediaItem id="4086" filePath="C:\Users\owner\Dropbox\Work\png\animation T=1.04086.png" arWidth="640" arHeight="480" duration="0" songTitle="" songArtist="" songAlbum="" songCopyrightUrl="" songArtistUrl="" songAudioFileUrl="" stabilizationMode="0" mediaItemType="2" />
    <MediaItem id="4087" filePath="C:\Users\owner\Dropbox\Work\png\animation T=1.04087.png" arWidth="640" arHeight="480" duration="0" songTitle="" songArtist="" songAlbum="" songCopyrightUrl="" songArtistUrl="" songAudioFileUrl="" stabilizationMode="0" mediaItemType="2" />
    <MediaItem id="4088" filePath="C:\Users\owner\Dropbox\Work\png\animation T=1.04088.png" arWidth="640" arHeight="480" duration="0" songTitle="" songArtist="" songAlbum="" songCopyrightUrl="" songArtistUrl="" songAudioFileUrl="" stabilizationMode="0" mediaItemType="2" />
    <MediaItem id="4089" filePath="C:\Users\owner\Dropbox\Work\png\animation T=1.04089.png" arWidth="640" arHeight="480" duration="0" songTitle="" songArtist="" songAlbum="" songCopyrightUrl="" songArtistUrl="" songAudioFileUrl="" stabilizationMode="0" mediaItemType="2" />
    <MediaItem id="4090" filePath="C:\Users\owner\Dropbox\Work\png\animation T=1.04090.png" arWidth="640" arHeight="480" duration="0" songTitle="" songArtist="" songAlbum="" songCopyrightUrl="" songArtistUrl="" songAudioFileUrl="" stabilizationMode="0" mediaItemType="2" />
    <MediaItem id="4091" filePath="C:\Users\owner\Dropbox\Work\png\animation T=1.04091.png" arWidth="640" arHeight="480" duration="0" songTitle="" songArtist="" songAlbum="" songCopyrightUrl="" songArtistUrl="" songAudioFileUrl="" stabilizationMode="0" mediaItemType="2" />
    <MediaItem id="4092" filePath="C:\Users\owner\Dropbox\Work\png\animation T=1.04092.png" arWidth="640" arHeight="480" duration="0" songTitle="" songArtist="" songAlbum="" songCopyrightUrl="" songArtistUrl="" songAudioFileUrl="" stabilizationMode="0" mediaItemType="2" />
    <MediaItem id="4093" filePath="C:\Users\owner\Dropbox\Work\png\animation T=1.04093.png" arWidth="640" arHeight="480" duration="0" songTitle="" songArtist="" songAlbum="" songCopyrightUrl="" songArtistUrl="" songAudioFileUrl="" stabilizationMode="0" mediaItemType="2" />
    <MediaItem id="4094" filePath="C:\Users\owner\Dropbox\Work\png\animation T=1.04094.png" arWidth="640" arHeight="480" duration="0" songTitle="" songArtist="" songAlbum="" songCopyrightUrl="" songArtistUrl="" songAudioFileUrl="" stabilizationMode="0" mediaItemType="2" />
    <MediaItem id="4095" filePath="C:\Users\owner\Dropbox\Work\png\animation T=1.04095.png" arWidth="640" arHeight="480" duration="0" songTitle="" songArtist="" songAlbum="" songCopyrightUrl="" songArtistUrl="" songAudioFileUrl="" stabilizationMode="0" mediaItemType="2" />
    <MediaItem id="4096" filePath="C:\Users\owner\Dropbox\Work\png\animation T=1.04096.png" arWidth="640" arHeight="480" duration="0" songTitle="" songArtist="" songAlbum="" songCopyrightUrl="" songArtistUrl="" songAudioFileUrl="" stabilizationMode="0" mediaItemType="2" />
    <MediaItem id="4097" filePath="C:\Users\owner\Dropbox\Work\png\animation T=1.04097.png" arWidth="640" arHeight="480" duration="0" songTitle="" songArtist="" songAlbum="" songCopyrightUrl="" songArtistUrl="" songAudioFileUrl="" stabilizationMode="0" mediaItemType="2" />
    <MediaItem id="4098" filePath="C:\Users\owner\Dropbox\Work\png\animation T=1.04098.png" arWidth="640" arHeight="480" duration="0" songTitle="" songArtist="" songAlbum="" songCopyrightUrl="" songArtistUrl="" songAudioFileUrl="" stabilizationMode="0" mediaItemType="2" />
    <MediaItem id="4099" filePath="C:\Users\owner\Dropbox\Work\png\animation T=1.04099.png" arWidth="640" arHeight="480" duration="0" songTitle="" songArtist="" songAlbum="" songCopyrightUrl="" songArtistUrl="" songAudioFileUrl="" stabilizationMode="0" mediaItemType="2" />
    <MediaItem id="4100" filePath="C:\Users\owner\Dropbox\Work\png\animation T=1.04100.png" arWidth="640" arHeight="480" duration="0" songTitle="" songArtist="" songAlbum="" songCopyrightUrl="" songArtistUrl="" songAudioFileUrl="" stabilizationMode="0" mediaItemType="2" />
    <MediaItem id="4101" filePath="C:\Users\owner\Dropbox\Work\png\animation T=1.04101.png" arWidth="640" arHeight="480" duration="0" songTitle="" songArtist="" songAlbum="" songCopyrightUrl="" songArtistUrl="" songAudioFileUrl="" stabilizationMode="0" mediaItemType="2" />
    <MediaItem id="4102" filePath="C:\Users\owner\Dropbox\Work\png\animation T=1.04102.png" arWidth="640" arHeight="480" duration="0" songTitle="" songArtist="" songAlbum="" songCopyrightUrl="" songArtistUrl="" songAudioFileUrl="" stabilizationMode="0" mediaItemType="2" />
    <MediaItem id="4103" filePath="C:\Users\owner\Dropbox\Work\png\animation T=1.04103.png" arWidth="640" arHeight="480" duration="0" songTitle="" songArtist="" songAlbum="" songCopyrightUrl="" songArtistUrl="" songAudioFileUrl="" stabilizationMode="0" mediaItemType="2" />
    <MediaItem id="4104" filePath="C:\Users\owner\Dropbox\Work\png\animation T=1.04104.png" arWidth="640" arHeight="480" duration="0" songTitle="" songArtist="" songAlbum="" songCopyrightUrl="" songArtistUrl="" songAudioFileUrl="" stabilizationMode="0" mediaItemType="2" />
    <MediaItem id="4105" filePath="C:\Users\owner\Dropbox\Work\png\animation T=1.04105.png" arWidth="640" arHeight="480" duration="0" songTitle="" songArtist="" songAlbum="" songCopyrightUrl="" songArtistUrl="" songAudioFileUrl="" stabilizationMode="0" mediaItemType="2" />
    <MediaItem id="4106" filePath="C:\Users\owner\Dropbox\Work\png\animation T=1.04106.png" arWidth="640" arHeight="480" duration="0" songTitle="" songArtist="" songAlbum="" songCopyrightUrl="" songArtistUrl="" songAudioFileUrl="" stabilizationMode="0" mediaItemType="2" />
    <MediaItem id="4107" filePath="C:\Users\owner\Dropbox\Work\png\animation T=1.04107.png" arWidth="640" arHeight="480" duration="0" songTitle="" songArtist="" songAlbum="" songCopyrightUrl="" songArtistUrl="" songAudioFileUrl="" stabilizationMode="0" mediaItemType="2" />
    <MediaItem id="4108" filePath="C:\Users\owner\Dropbox\Work\png\animation T=1.04108.png" arWidth="640" arHeight="480" duration="0" songTitle="" songArtist="" songAlbum="" songCopyrightUrl="" songArtistUrl="" songAudioFileUrl="" stabilizationMode="0" mediaItemType="2" />
    <MediaItem id="4109" filePath="C:\Users\owner\Dropbox\Work\png\animation T=1.04109.png" arWidth="640" arHeight="480" duration="0" songTitle="" songArtist="" songAlbum="" songCopyrightUrl="" songArtistUrl="" songAudioFileUrl="" stabilizationMode="0" mediaItemType="2" />
    <MediaItem id="4110" filePath="C:\Users\owner\Dropbox\Work\png\animation T=1.04110.png" arWidth="640" arHeight="480" duration="0" songTitle="" songArtist="" songAlbum="" songCopyrightUrl="" songArtistUrl="" songAudioFileUrl="" stabilizationMode="0" mediaItemType="2" />
    <MediaItem id="4111" filePath="C:\Users\owner\Dropbox\Work\png\animation T=1.04111.png" arWidth="640" arHeight="480" duration="0" songTitle="" songArtist="" songAlbum="" songCopyrightUrl="" songArtistUrl="" songAudioFileUrl="" stabilizationMode="0" mediaItemType="2" />
    <MediaItem id="4112" filePath="C:\Users\owner\Dropbox\Work\png\animation T=1.04112.png" arWidth="640" arHeight="480" duration="0" songTitle="" songArtist="" songAlbum="" songCopyrightUrl="" songArtistUrl="" songAudioFileUrl="" stabilizationMode="0" mediaItemType="2" />
    <MediaItem id="4113" filePath="C:\Users\owner\Dropbox\Work\png\animation T=1.04113.png" arWidth="640" arHeight="480" duration="0" songTitle="" songArtist="" songAlbum="" songCopyrightUrl="" songArtistUrl="" songAudioFileUrl="" stabilizationMode="0" mediaItemType="2" />
    <MediaItem id="4114" filePath="C:\Users\owner\Dropbox\Work\png\animation T=1.04114.png" arWidth="640" arHeight="480" duration="0" songTitle="" songArtist="" songAlbum="" songCopyrightUrl="" songArtistUrl="" songAudioFileUrl="" stabilizationMode="0" mediaItemType="2" />
    <MediaItem id="4115" filePath="C:\Users\owner\Dropbox\Work\png\animation T=1.04115.png" arWidth="640" arHeight="480" duration="0" songTitle="" songArtist="" songAlbum="" songCopyrightUrl="" songArtistUrl="" songAudioFileUrl="" stabilizationMode="0" mediaItemType="2" />
    <MediaItem id="4116" filePath="C:\Users\owner\Dropbox\Work\png\animation T=1.04116.png" arWidth="640" arHeight="480" duration="0" songTitle="" songArtist="" songAlbum="" songCopyrightUrl="" songArtistUrl="" songAudioFileUrl="" stabilizationMode="0" mediaItemType="2" />
    <MediaItem id="4117" filePath="C:\Users\owner\Dropbox\Work\png\animation T=1.04117.png" arWidth="640" arHeight="480" duration="0" songTitle="" songArtist="" songAlbum="" songCopyrightUrl="" songArtistUrl="" songAudioFileUrl="" stabilizationMode="0" mediaItemType="2" />
    <MediaItem id="4118" filePath="C:\Users\owner\Dropbox\Work\png\animation T=1.04118.png" arWidth="640" arHeight="480" duration="0" songTitle="" songArtist="" songAlbum="" songCopyrightUrl="" songArtistUrl="" songAudioFileUrl="" stabilizationMode="0" mediaItemType="2" />
    <MediaItem id="4119" filePath="C:\Users\owner\Dropbox\Work\png\animation T=1.04119.png" arWidth="640" arHeight="480" duration="0" songTitle="" songArtist="" songAlbum="" songCopyrightUrl="" songArtistUrl="" songAudioFileUrl="" stabilizationMode="0" mediaItemType="2" />
    <MediaItem id="4120" filePath="C:\Users\owner\Dropbox\Work\png\animation T=1.04120.png" arWidth="640" arHeight="480" duration="0" songTitle="" songArtist="" songAlbum="" songCopyrightUrl="" songArtistUrl="" songAudioFileUrl="" stabilizationMode="0" mediaItemType="2" />
    <MediaItem id="4121" filePath="C:\Users\owner\Dropbox\Work\png\animation T=1.04121.png" arWidth="640" arHeight="480" duration="0" songTitle="" songArtist="" songAlbum="" songCopyrightUrl="" songArtistUrl="" songAudioFileUrl="" stabilizationMode="0" mediaItemType="2" />
    <MediaItem id="4122" filePath="C:\Users\owner\Dropbox\Work\png\animation T=1.04122.png" arWidth="640" arHeight="480" duration="0" songTitle="" songArtist="" songAlbum="" songCopyrightUrl="" songArtistUrl="" songAudioFileUrl="" stabilizationMode="0" mediaItemType="2" />
    <MediaItem id="4123" filePath="C:\Users\owner\Dropbox\Work\png\animation T=1.04123.png" arWidth="640" arHeight="480" duration="0" songTitle="" songArtist="" songAlbum="" songCopyrightUrl="" songArtistUrl="" songAudioFileUrl="" stabilizationMode="0" mediaItemType="2" />
    <MediaItem id="4124" filePath="C:\Users\owner\Dropbox\Work\png\animation T=1.04124.png" arWidth="640" arHeight="480" duration="0" songTitle="" songArtist="" songAlbum="" songCopyrightUrl="" songArtistUrl="" songAudioFileUrl="" stabilizationMode="0" mediaItemType="2" />
    <MediaItem id="4125" filePath="C:\Users\owner\Dropbox\Work\png\animation T=1.04125.png" arWidth="640" arHeight="480" duration="0" songTitle="" songArtist="" songAlbum="" songCopyrightUrl="" songArtistUrl="" songAudioFileUrl="" stabilizationMode="0" mediaItemType="2" />
    <MediaItem id="4126" filePath="C:\Users\owner\Dropbox\Work\png\animation T=1.04126.png" arWidth="640" arHeight="480" duration="0" songTitle="" songArtist="" songAlbum="" songCopyrightUrl="" songArtistUrl="" songAudioFileUrl="" stabilizationMode="0" mediaItemType="2" />
    <MediaItem id="4127" filePath="C:\Users\owner\Dropbox\Work\png\animation T=1.04127.png" arWidth="640" arHeight="480" duration="0" songTitle="" songArtist="" songAlbum="" songCopyrightUrl="" songArtistUrl="" songAudioFileUrl="" stabilizationMode="0" mediaItemType="2" />
    <MediaItem id="4128" filePath="C:\Users\owner\Dropbox\Work\png\animation T=1.04128.png" arWidth="640" arHeight="480" duration="0" songTitle="" songArtist="" songAlbum="" songCopyrightUrl="" songArtistUrl="" songAudioFileUrl="" stabilizationMode="0" mediaItemType="2" />
    <MediaItem id="4129" filePath="C:\Users\owner\Dropbox\Work\png\animation T=1.04129.png" arWidth="640" arHeight="480" duration="0" songTitle="" songArtist="" songAlbum="" songCopyrightUrl="" songArtistUrl="" songAudioFileUrl="" stabilizationMode="0" mediaItemType="2" />
    <MediaItem id="4130" filePath="C:\Users\owner\Dropbox\Work\png\animation T=1.04130.png" arWidth="640" arHeight="480" duration="0" songTitle="" songArtist="" songAlbum="" songCopyrightUrl="" songArtistUrl="" songAudioFileUrl="" stabilizationMode="0" mediaItemType="2" />
    <MediaItem id="4131" filePath="C:\Users\owner\Dropbox\Work\png\animation T=1.04131.png" arWidth="640" arHeight="480" duration="0" songTitle="" songArtist="" songAlbum="" songCopyrightUrl="" songArtistUrl="" songAudioFileUrl="" stabilizationMode="0" mediaItemType="2" />
    <MediaItem id="4132" filePath="C:\Users\owner\Dropbox\Work\png\animation T=1.04132.png" arWidth="640" arHeight="480" duration="0" songTitle="" songArtist="" songAlbum="" songCopyrightUrl="" songArtistUrl="" songAudioFileUrl="" stabilizationMode="0" mediaItemType="2" />
    <MediaItem id="4133" filePath="C:\Users\owner\Dropbox\Work\png\animation T=1.04133.png" arWidth="640" arHeight="480" duration="0" songTitle="" songArtist="" songAlbum="" songCopyrightUrl="" songArtistUrl="" songAudioFileUrl="" stabilizationMode="0" mediaItemType="2" />
    <MediaItem id="4134" filePath="C:\Users\owner\Dropbox\Work\png\animation T=1.04134.png" arWidth="640" arHeight="480" duration="0" songTitle="" songArtist="" songAlbum="" songCopyrightUrl="" songArtistUrl="" songAudioFileUrl="" stabilizationMode="0" mediaItemType="2" />
    <MediaItem id="4135" filePath="C:\Users\owner\Dropbox\Work\png\animation T=1.04135.png" arWidth="640" arHeight="480" duration="0" songTitle="" songArtist="" songAlbum="" songCopyrightUrl="" songArtistUrl="" songAudioFileUrl="" stabilizationMode="0" mediaItemType="2" />
    <MediaItem id="4136" filePath="C:\Users\owner\Dropbox\Work\png\animation T=1.04136.png" arWidth="640" arHeight="480" duration="0" songTitle="" songArtist="" songAlbum="" songCopyrightUrl="" songArtistUrl="" songAudioFileUrl="" stabilizationMode="0" mediaItemType="2" />
    <MediaItem id="4137" filePath="C:\Users\owner\Dropbox\Work\png\animation T=1.04137.png" arWidth="640" arHeight="480" duration="0" songTitle="" songArtist="" songAlbum="" songCopyrightUrl="" songArtistUrl="" songAudioFileUrl="" stabilizationMode="0" mediaItemType="2" />
    <MediaItem id="4138" filePath="C:\Users\owner\Dropbox\Work\png\animation T=1.04138.png" arWidth="640" arHeight="480" duration="0" songTitle="" songArtist="" songAlbum="" songCopyrightUrl="" songArtistUrl="" songAudioFileUrl="" stabilizationMode="0" mediaItemType="2" />
    <MediaItem id="4139" filePath="C:\Users\owner\Dropbox\Work\png\animation T=1.04139.png" arWidth="640" arHeight="480" duration="0" songTitle="" songArtist="" songAlbum="" songCopyrightUrl="" songArtistUrl="" songAudioFileUrl="" stabilizationMode="0" mediaItemType="2" />
    <MediaItem id="4140" filePath="C:\Users\owner\Dropbox\Work\png\animation T=1.04140.png" arWidth="640" arHeight="480" duration="0" songTitle="" songArtist="" songAlbum="" songCopyrightUrl="" songArtistUrl="" songAudioFileUrl="" stabilizationMode="0" mediaItemType="2" />
    <MediaItem id="4141" filePath="C:\Users\owner\Dropbox\Work\png\animation T=1.04141.png" arWidth="640" arHeight="480" duration="0" songTitle="" songArtist="" songAlbum="" songCopyrightUrl="" songArtistUrl="" songAudioFileUrl="" stabilizationMode="0" mediaItemType="2" />
    <MediaItem id="4142" filePath="C:\Users\owner\Dropbox\Work\png\animation T=1.04142.png" arWidth="640" arHeight="480" duration="0" songTitle="" songArtist="" songAlbum="" songCopyrightUrl="" songArtistUrl="" songAudioFileUrl="" stabilizationMode="0" mediaItemType="2" />
    <MediaItem id="4143" filePath="C:\Users\owner\Dropbox\Work\png\animation T=1.04143.png" arWidth="640" arHeight="480" duration="0" songTitle="" songArtist="" songAlbum="" songCopyrightUrl="" songArtistUrl="" songAudioFileUrl="" stabilizationMode="0" mediaItemType="2" />
    <MediaItem id="4144" filePath="C:\Users\owner\Dropbox\Work\png\animation T=1.04144.png" arWidth="640" arHeight="480" duration="0" songTitle="" songArtist="" songAlbum="" songCopyrightUrl="" songArtistUrl="" songAudioFileUrl="" stabilizationMode="0" mediaItemType="2" />
    <MediaItem id="4145" filePath="C:\Users\owner\Dropbox\Work\png\animation T=1.04145.png" arWidth="640" arHeight="480" duration="0" songTitle="" songArtist="" songAlbum="" songCopyrightUrl="" songArtistUrl="" songAudioFileUrl="" stabilizationMode="0" mediaItemType="2" />
    <MediaItem id="4146" filePath="C:\Users\owner\Dropbox\Work\png\animation T=1.04146.png" arWidth="640" arHeight="480" duration="0" songTitle="" songArtist="" songAlbum="" songCopyrightUrl="" songArtistUrl="" songAudioFileUrl="" stabilizationMode="0" mediaItemType="2" />
    <MediaItem id="4147" filePath="C:\Users\owner\Dropbox\Work\png\animation T=1.04147.png" arWidth="640" arHeight="480" duration="0" songTitle="" songArtist="" songAlbum="" songCopyrightUrl="" songArtistUrl="" songAudioFileUrl="" stabilizationMode="0" mediaItemType="2" />
    <MediaItem id="4148" filePath="C:\Users\owner\Dropbox\Work\png\animation T=1.04148.png" arWidth="640" arHeight="480" duration="0" songTitle="" songArtist="" songAlbum="" songCopyrightUrl="" songArtistUrl="" songAudioFileUrl="" stabilizationMode="0" mediaItemType="2" />
    <MediaItem id="4149" filePath="C:\Users\owner\Dropbox\Work\png\animation T=1.04149.png" arWidth="640" arHeight="480" duration="0" songTitle="" songArtist="" songAlbum="" songCopyrightUrl="" songArtistUrl="" songAudioFileUrl="" stabilizationMode="0" mediaItemType="2" />
    <MediaItem id="4150" filePath="C:\Users\owner\Dropbox\Work\png\animation T=1.04150.png" arWidth="640" arHeight="480" duration="0" songTitle="" songArtist="" songAlbum="" songCopyrightUrl="" songArtistUrl="" songAudioFileUrl="" stabilizationMode="0" mediaItemType="2" />
    <MediaItem id="4151" filePath="C:\Users\owner\Dropbox\Work\png\animation T=1.04151.png" arWidth="640" arHeight="480" duration="0" songTitle="" songArtist="" songAlbum="" songCopyrightUrl="" songArtistUrl="" songAudioFileUrl="" stabilizationMode="0" mediaItemType="2" />
    <MediaItem id="4152" filePath="C:\Users\owner\Dropbox\Work\png\animation T=1.04152.png" arWidth="640" arHeight="480" duration="0" songTitle="" songArtist="" songAlbum="" songCopyrightUrl="" songArtistUrl="" songAudioFileUrl="" stabilizationMode="0" mediaItemType="2" />
    <MediaItem id="4153" filePath="C:\Users\owner\Dropbox\Work\png\animation T=1.04153.png" arWidth="640" arHeight="480" duration="0" songTitle="" songArtist="" songAlbum="" songCopyrightUrl="" songArtistUrl="" songAudioFileUrl="" stabilizationMode="0" mediaItemType="2" />
    <MediaItem id="4154" filePath="C:\Users\owner\Dropbox\Work\png\animation T=1.04154.png" arWidth="640" arHeight="480" duration="0" songTitle="" songArtist="" songAlbum="" songCopyrightUrl="" songArtistUrl="" songAudioFileUrl="" stabilizationMode="0" mediaItemType="2" />
    <MediaItem id="4155" filePath="C:\Users\owner\Dropbox\Work\png\animation T=1.04155.png" arWidth="640" arHeight="480" duration="0" songTitle="" songArtist="" songAlbum="" songCopyrightUrl="" songArtistUrl="" songAudioFileUrl="" stabilizationMode="0" mediaItemType="2" />
    <MediaItem id="4156" filePath="C:\Users\owner\Dropbox\Work\png\animation T=1.04156.png" arWidth="640" arHeight="480" duration="0" songTitle="" songArtist="" songAlbum="" songCopyrightUrl="" songArtistUrl="" songAudioFileUrl="" stabilizationMode="0" mediaItemType="2" />
    <MediaItem id="4157" filePath="C:\Users\owner\Dropbox\Work\png\animation T=1.04157.png" arWidth="640" arHeight="480" duration="0" songTitle="" songArtist="" songAlbum="" songCopyrightUrl="" songArtistUrl="" songAudioFileUrl="" stabilizationMode="0" mediaItemType="2" />
    <MediaItem id="4158" filePath="C:\Users\owner\Dropbox\Work\png\animation T=1.04158.png" arWidth="640" arHeight="480" duration="0" songTitle="" songArtist="" songAlbum="" songCopyrightUrl="" songArtistUrl="" songAudioFileUrl="" stabilizationMode="0" mediaItemType="2" />
    <MediaItem id="4159" filePath="C:\Users\owner\Dropbox\Work\png\animation T=1.04159.png" arWidth="640" arHeight="480" duration="0" songTitle="" songArtist="" songAlbum="" songCopyrightUrl="" songArtistUrl="" songAudioFileUrl="" stabilizationMode="0" mediaItemType="2" />
    <MediaItem id="4160" filePath="C:\Users\owner\Dropbox\Work\png\animation T=1.04160.png" arWidth="640" arHeight="480" duration="0" songTitle="" songArtist="" songAlbum="" songCopyrightUrl="" songArtistUrl="" songAudioFileUrl="" stabilizationMode="0" mediaItemType="2" />
    <MediaItem id="4161" filePath="C:\Users\owner\Dropbox\Work\png\animation T=1.04161.png" arWidth="640" arHeight="480" duration="0" songTitle="" songArtist="" songAlbum="" songCopyrightUrl="" songArtistUrl="" songAudioFileUrl="" stabilizationMode="0" mediaItemType="2" />
    <MediaItem id="4162" filePath="C:\Users\owner\Dropbox\Work\png\animation T=1.04162.png" arWidth="640" arHeight="480" duration="0" songTitle="" songArtist="" songAlbum="" songCopyrightUrl="" songArtistUrl="" songAudioFileUrl="" stabilizationMode="0" mediaItemType="2" />
    <MediaItem id="4163" filePath="C:\Users\owner\Dropbox\Work\png\animation T=1.04163.png" arWidth="640" arHeight="480" duration="0" songTitle="" songArtist="" songAlbum="" songCopyrightUrl="" songArtistUrl="" songAudioFileUrl="" stabilizationMode="0" mediaItemType="2" />
    <MediaItem id="4164" filePath="C:\Users\owner\Dropbox\Work\png\animation T=1.04164.png" arWidth="640" arHeight="480" duration="0" songTitle="" songArtist="" songAlbum="" songCopyrightUrl="" songArtistUrl="" songAudioFileUrl="" stabilizationMode="0" mediaItemType="2" />
    <MediaItem id="4165" filePath="C:\Users\owner\Dropbox\Work\png\animation T=1.04165.png" arWidth="640" arHeight="480" duration="0" songTitle="" songArtist="" songAlbum="" songCopyrightUrl="" songArtistUrl="" songAudioFileUrl="" stabilizationMode="0" mediaItemType="2" />
    <MediaItem id="4166" filePath="C:\Users\owner\Dropbox\Work\png\animation T=1.04166.png" arWidth="640" arHeight="480" duration="0" songTitle="" songArtist="" songAlbum="" songCopyrightUrl="" songArtistUrl="" songAudioFileUrl="" stabilizationMode="0" mediaItemType="2" />
    <MediaItem id="4167" filePath="C:\Users\owner\Dropbox\Work\png\animation T=1.04167.png" arWidth="640" arHeight="480" duration="0" songTitle="" songArtist="" songAlbum="" songCopyrightUrl="" songArtistUrl="" songAudioFileUrl="" stabilizationMode="0" mediaItemType="2" />
    <MediaItem id="4168" filePath="C:\Users\owner\Dropbox\Work\png\animation T=1.04168.png" arWidth="640" arHeight="480" duration="0" songTitle="" songArtist="" songAlbum="" songCopyrightUrl="" songArtistUrl="" songAudioFileUrl="" stabilizationMode="0" mediaItemType="2" />
    <MediaItem id="4169" filePath="C:\Users\owner\Dropbox\Work\png\animation T=1.04169.png" arWidth="640" arHeight="480" duration="0" songTitle="" songArtist="" songAlbum="" songCopyrightUrl="" songArtistUrl="" songAudioFileUrl="" stabilizationMode="0" mediaItemType="2" />
    <MediaItem id="4170" filePath="C:\Users\owner\Dropbox\Work\png\animation T=1.04170.png" arWidth="640" arHeight="480" duration="0" songTitle="" songArtist="" songAlbum="" songCopyrightUrl="" songArtistUrl="" songAudioFileUrl="" stabilizationMode="0" mediaItemType="2" />
    <MediaItem id="4171" filePath="C:\Users\owner\Dropbox\Work\png\animation T=1.04171.png" arWidth="640" arHeight="480" duration="0" songTitle="" songArtist="" songAlbum="" songCopyrightUrl="" songArtistUrl="" songAudioFileUrl="" stabilizationMode="0" mediaItemType="2" />
    <MediaItem id="4172" filePath="C:\Users\owner\Dropbox\Work\png\animation T=1.04172.png" arWidth="640" arHeight="480" duration="0" songTitle="" songArtist="" songAlbum="" songCopyrightUrl="" songArtistUrl="" songAudioFileUrl="" stabilizationMode="0" mediaItemType="2" />
    <MediaItem id="4173" filePath="C:\Users\owner\Dropbox\Work\png\animation T=1.04173.png" arWidth="640" arHeight="480" duration="0" songTitle="" songArtist="" songAlbum="" songCopyrightUrl="" songArtistUrl="" songAudioFileUrl="" stabilizationMode="0" mediaItemType="2" />
    <MediaItem id="4174" filePath="C:\Users\owner\Dropbox\Work\png\animation T=1.04174.png" arWidth="640" arHeight="480" duration="0" songTitle="" songArtist="" songAlbum="" songCopyrightUrl="" songArtistUrl="" songAudioFileUrl="" stabilizationMode="0" mediaItemType="2" />
    <MediaItem id="4175" filePath="C:\Users\owner\Dropbox\Work\png\animation T=1.04175.png" arWidth="640" arHeight="480" duration="0" songTitle="" songArtist="" songAlbum="" songCopyrightUrl="" songArtistUrl="" songAudioFileUrl="" stabilizationMode="0" mediaItemType="2" />
    <MediaItem id="4176" filePath="C:\Users\owner\Dropbox\Work\png\animation T=1.04176.png" arWidth="640" arHeight="480" duration="0" songTitle="" songArtist="" songAlbum="" songCopyrightUrl="" songArtistUrl="" songAudioFileUrl="" stabilizationMode="0" mediaItemType="2" />
    <MediaItem id="4177" filePath="C:\Users\owner\Dropbox\Work\png\animation T=1.04177.png" arWidth="640" arHeight="480" duration="0" songTitle="" songArtist="" songAlbum="" songCopyrightUrl="" songArtistUrl="" songAudioFileUrl="" stabilizationMode="0" mediaItemType="2" />
    <MediaItem id="4178" filePath="C:\Users\owner\Dropbox\Work\png\animation T=1.04178.png" arWidth="640" arHeight="480" duration="0" songTitle="" songArtist="" songAlbum="" songCopyrightUrl="" songArtistUrl="" songAudioFileUrl="" stabilizationMode="0" mediaItemType="2" />
    <MediaItem id="4179" filePath="C:\Users\owner\Dropbox\Work\png\animation T=1.04179.png" arWidth="640" arHeight="480" duration="0" songTitle="" songArtist="" songAlbum="" songCopyrightUrl="" songArtistUrl="" songAudioFileUrl="" stabilizationMode="0" mediaItemType="2" />
    <MediaItem id="4180" filePath="C:\Users\owner\Dropbox\Work\png\animation T=1.04180.png" arWidth="640" arHeight="480" duration="0" songTitle="" songArtist="" songAlbum="" songCopyrightUrl="" songArtistUrl="" songAudioFileUrl="" stabilizationMode="0" mediaItemType="2" />
    <MediaItem id="4181" filePath="C:\Users\owner\Dropbox\Work\png\animation T=1.04181.png" arWidth="640" arHeight="480" duration="0" songTitle="" songArtist="" songAlbum="" songCopyrightUrl="" songArtistUrl="" songAudioFileUrl="" stabilizationMode="0" mediaItemType="2" />
    <MediaItem id="4182" filePath="C:\Users\owner\Dropbox\Work\png\animation T=1.04182.png" arWidth="640" arHeight="480" duration="0" songTitle="" songArtist="" songAlbum="" songCopyrightUrl="" songArtistUrl="" songAudioFileUrl="" stabilizationMode="0" mediaItemType="2" />
    <MediaItem id="4183" filePath="C:\Users\owner\Dropbox\Work\png\animation T=1.04183.png" arWidth="640" arHeight="480" duration="0" songTitle="" songArtist="" songAlbum="" songCopyrightUrl="" songArtistUrl="" songAudioFileUrl="" stabilizationMode="0" mediaItemType="2" />
    <MediaItem id="4184" filePath="C:\Users\owner\Dropbox\Work\png\animation T=1.04184.png" arWidth="640" arHeight="480" duration="0" songTitle="" songArtist="" songAlbum="" songCopyrightUrl="" songArtistUrl="" songAudioFileUrl="" stabilizationMode="0" mediaItemType="2" />
    <MediaItem id="4185" filePath="C:\Users\owner\Dropbox\Work\png\animation T=1.04185.png" arWidth="640" arHeight="480" duration="0" songTitle="" songArtist="" songAlbum="" songCopyrightUrl="" songArtistUrl="" songAudioFileUrl="" stabilizationMode="0" mediaItemType="2" />
    <MediaItem id="4186" filePath="C:\Users\owner\Dropbox\Work\png\animation T=1.04186.png" arWidth="640" arHeight="480" duration="0" songTitle="" songArtist="" songAlbum="" songCopyrightUrl="" songArtistUrl="" songAudioFileUrl="" stabilizationMode="0" mediaItemType="2" />
    <MediaItem id="4187" filePath="C:\Users\owner\Dropbox\Work\png\animation T=1.04187.png" arWidth="640" arHeight="480" duration="0" songTitle="" songArtist="" songAlbum="" songCopyrightUrl="" songArtistUrl="" songAudioFileUrl="" stabilizationMode="0" mediaItemType="2" />
    <MediaItem id="4188" filePath="C:\Users\owner\Dropbox\Work\png\animation T=1.04188.png" arWidth="640" arHeight="480" duration="0" songTitle="" songArtist="" songAlbum="" songCopyrightUrl="" songArtistUrl="" songAudioFileUrl="" stabilizationMode="0" mediaItemType="2" />
    <MediaItem id="4189" filePath="C:\Users\owner\Dropbox\Work\png\animation T=1.04189.png" arWidth="640" arHeight="480" duration="0" songTitle="" songArtist="" songAlbum="" songCopyrightUrl="" songArtistUrl="" songAudioFileUrl="" stabilizationMode="0" mediaItemType="2" />
    <MediaItem id="4190" filePath="C:\Users\owner\Dropbox\Work\png\animation T=1.04190.png" arWidth="640" arHeight="480" duration="0" songTitle="" songArtist="" songAlbum="" songCopyrightUrl="" songArtistUrl="" songAudioFileUrl="" stabilizationMode="0" mediaItemType="2" />
    <MediaItem id="4191" filePath="C:\Users\owner\Dropbox\Work\png\animation T=1.04191.png" arWidth="640" arHeight="480" duration="0" songTitle="" songArtist="" songAlbum="" songCopyrightUrl="" songArtistUrl="" songAudioFileUrl="" stabilizationMode="0" mediaItemType="2" />
    <MediaItem id="4192" filePath="C:\Users\owner\Dropbox\Work\png\animation T=1.04192.png" arWidth="640" arHeight="480" duration="0" songTitle="" songArtist="" songAlbum="" songCopyrightUrl="" songArtistUrl="" songAudioFileUrl="" stabilizationMode="0" mediaItemType="2" />
    <MediaItem id="4193" filePath="C:\Users\owner\Dropbox\Work\png\animation T=1.04193.png" arWidth="640" arHeight="480" duration="0" songTitle="" songArtist="" songAlbum="" songCopyrightUrl="" songArtistUrl="" songAudioFileUrl="" stabilizationMode="0" mediaItemType="2" />
    <MediaItem id="4194" filePath="C:\Users\owner\Dropbox\Work\png\animation T=1.04194.png" arWidth="640" arHeight="480" duration="0" songTitle="" songArtist="" songAlbum="" songCopyrightUrl="" songArtistUrl="" songAudioFileUrl="" stabilizationMode="0" mediaItemType="2" />
    <MediaItem id="4195" filePath="C:\Users\owner\Dropbox\Work\png\animation T=1.04195.png" arWidth="640" arHeight="480" duration="0" songTitle="" songArtist="" songAlbum="" songCopyrightUrl="" songArtistUrl="" songAudioFileUrl="" stabilizationMode="0" mediaItemType="2" />
    <MediaItem id="4196" filePath="C:\Users\owner\Dropbox\Work\png\animation T=1.04196.png" arWidth="640" arHeight="480" duration="0" songTitle="" songArtist="" songAlbum="" songCopyrightUrl="" songArtistUrl="" songAudioFileUrl="" stabilizationMode="0" mediaItemType="2" />
    <MediaItem id="4197" filePath="C:\Users\owner\Dropbox\Work\png\animation T=1.04197.png" arWidth="640" arHeight="480" duration="0" songTitle="" songArtist="" songAlbum="" songCopyrightUrl="" songArtistUrl="" songAudioFileUrl="" stabilizationMode="0" mediaItemType="2" />
    <MediaItem id="4198" filePath="C:\Users\owner\Dropbox\Work\png\animation T=1.04198.png" arWidth="640" arHeight="480" duration="0" songTitle="" songArtist="" songAlbum="" songCopyrightUrl="" songArtistUrl="" songAudioFileUrl="" stabilizationMode="0" mediaItemType="2" />
    <MediaItem id="4199" filePath="C:\Users\owner\Dropbox\Work\png\animation T=1.04199.png" arWidth="640" arHeight="480" duration="0" songTitle="" songArtist="" songAlbum="" songCopyrightUrl="" songArtistUrl="" songAudioFileUrl="" stabilizationMode="0" mediaItemType="2" />
    <MediaItem id="4200" filePath="C:\Users\owner\Dropbox\Work\png\animation T=1.04200.png" arWidth="640" arHeight="480" duration="0" songTitle="" songArtist="" songAlbum="" songCopyrightUrl="" songArtistUrl="" songAudioFileUrl="" stabilizationMode="0" mediaItemType="2" />
    <MediaItem id="4201" filePath="C:\Users\owner\Dropbox\Work\png\animation T=1.04201.png" arWidth="640" arHeight="480" duration="0" songTitle="" songArtist="" songAlbum="" songCopyrightUrl="" songArtistUrl="" songAudioFileUrl="" stabilizationMode="0" mediaItemType="2" />
    <MediaItem id="4202" filePath="C:\Users\owner\Dropbox\Work\png\animation T=1.04202.png" arWidth="640" arHeight="480" duration="0" songTitle="" songArtist="" songAlbum="" songCopyrightUrl="" songArtistUrl="" songAudioFileUrl="" stabilizationMode="0" mediaItemType="2" />
    <MediaItem id="4203" filePath="C:\Users\owner\Dropbox\Work\png\animation T=1.04203.png" arWidth="640" arHeight="480" duration="0" songTitle="" songArtist="" songAlbum="" songCopyrightUrl="" songArtistUrl="" songAudioFileUrl="" stabilizationMode="0" mediaItemType="2" />
    <MediaItem id="4204" filePath="C:\Users\owner\Dropbox\Work\png\animation T=1.04204.png" arWidth="640" arHeight="480" duration="0" songTitle="" songArtist="" songAlbum="" songCopyrightUrl="" songArtistUrl="" songAudioFileUrl="" stabilizationMode="0" mediaItemType="2" />
    <MediaItem id="4205" filePath="C:\Users\owner\Dropbox\Work\png\animation T=1.04205.png" arWidth="640" arHeight="480" duration="0" songTitle="" songArtist="" songAlbum="" songCopyrightUrl="" songArtistUrl="" songAudioFileUrl="" stabilizationMode="0" mediaItemType="2" />
    <MediaItem id="4206" filePath="C:\Users\owner\Dropbox\Work\png\animation T=1.04206.png" arWidth="640" arHeight="480" duration="0" songTitle="" songArtist="" songAlbum="" songCopyrightUrl="" songArtistUrl="" songAudioFileUrl="" stabilizationMode="0" mediaItemType="2" />
    <MediaItem id="4207" filePath="C:\Users\owner\Dropbox\Work\png\animation T=1.04207.png" arWidth="640" arHeight="480" duration="0" songTitle="" songArtist="" songAlbum="" songCopyrightUrl="" songArtistUrl="" songAudioFileUrl="" stabilizationMode="0" mediaItemType="2" />
    <MediaItem id="4208" filePath="C:\Users\owner\Dropbox\Work\png\animation T=1.04208.png" arWidth="640" arHeight="480" duration="0" songTitle="" songArtist="" songAlbum="" songCopyrightUrl="" songArtistUrl="" songAudioFileUrl="" stabilizationMode="0" mediaItemType="2" />
    <MediaItem id="4209" filePath="C:\Users\owner\Dropbox\Work\png\animation T=1.04209.png" arWidth="640" arHeight="480" duration="0" songTitle="" songArtist="" songAlbum="" songCopyrightUrl="" songArtistUrl="" songAudioFileUrl="" stabilizationMode="0" mediaItemType="2" />
    <MediaItem id="4210" filePath="C:\Users\owner\Dropbox\Work\png\animation T=1.04210.png" arWidth="640" arHeight="480" duration="0" songTitle="" songArtist="" songAlbum="" songCopyrightUrl="" songArtistUrl="" songAudioFileUrl="" stabilizationMode="0" mediaItemType="2" />
    <MediaItem id="4211" filePath="C:\Users\owner\Dropbox\Work\png\animation T=1.04211.png" arWidth="640" arHeight="480" duration="0" songTitle="" songArtist="" songAlbum="" songCopyrightUrl="" songArtistUrl="" songAudioFileUrl="" stabilizationMode="0" mediaItemType="2" />
    <MediaItem id="4212" filePath="C:\Users\owner\Dropbox\Work\png\animation T=1.04212.png" arWidth="640" arHeight="480" duration="0" songTitle="" songArtist="" songAlbum="" songCopyrightUrl="" songArtistUrl="" songAudioFileUrl="" stabilizationMode="0" mediaItemType="2" />
    <MediaItem id="4213" filePath="C:\Users\owner\Dropbox\Work\png\animation T=1.04213.png" arWidth="640" arHeight="480" duration="0" songTitle="" songArtist="" songAlbum="" songCopyrightUrl="" songArtistUrl="" songAudioFileUrl="" stabilizationMode="0" mediaItemType="2" />
    <MediaItem id="4214" filePath="C:\Users\owner\Dropbox\Work\png\animation T=1.04214.png" arWidth="640" arHeight="480" duration="0" songTitle="" songArtist="" songAlbum="" songCopyrightUrl="" songArtistUrl="" songAudioFileUrl="" stabilizationMode="0" mediaItemType="2" />
    <MediaItem id="4215" filePath="C:\Users\owner\Dropbox\Work\png\animation T=1.04215.png" arWidth="640" arHeight="480" duration="0" songTitle="" songArtist="" songAlbum="" songCopyrightUrl="" songArtistUrl="" songAudioFileUrl="" stabilizationMode="0" mediaItemType="2" />
    <MediaItem id="4216" filePath="C:\Users\owner\Dropbox\Work\png\animation T=1.04216.png" arWidth="640" arHeight="480" duration="0" songTitle="" songArtist="" songAlbum="" songCopyrightUrl="" songArtistUrl="" songAudioFileUrl="" stabilizationMode="0" mediaItemType="2" />
    <MediaItem id="4217" filePath="C:\Users\owner\Dropbox\Work\png\animation T=1.04217.png" arWidth="640" arHeight="480" duration="0" songTitle="" songArtist="" songAlbum="" songCopyrightUrl="" songArtistUrl="" songAudioFileUrl="" stabilizationMode="0" mediaItemType="2" />
    <MediaItem id="4218" filePath="C:\Users\owner\Dropbox\Work\png\animation T=1.04218.png" arWidth="640" arHeight="480" duration="0" songTitle="" songArtist="" songAlbum="" songCopyrightUrl="" songArtistUrl="" songAudioFileUrl="" stabilizationMode="0" mediaItemType="2" />
    <MediaItem id="4219" filePath="C:\Users\owner\Dropbox\Work\png\animation T=1.04219.png" arWidth="640" arHeight="480" duration="0" songTitle="" songArtist="" songAlbum="" songCopyrightUrl="" songArtistUrl="" songAudioFileUrl="" stabilizationMode="0" mediaItemType="2" />
    <MediaItem id="4220" filePath="C:\Users\owner\Dropbox\Work\png\animation T=1.04220.png" arWidth="640" arHeight="480" duration="0" songTitle="" songArtist="" songAlbum="" songCopyrightUrl="" songArtistUrl="" songAudioFileUrl="" stabilizationMode="0" mediaItemType="2" />
    <MediaItem id="4221" filePath="C:\Users\owner\Dropbox\Work\png\animation T=1.04221.png" arWidth="640" arHeight="480" duration="0" songTitle="" songArtist="" songAlbum="" songCopyrightUrl="" songArtistUrl="" songAudioFileUrl="" stabilizationMode="0" mediaItemType="2" />
    <MediaItem id="4222" filePath="C:\Users\owner\Dropbox\Work\png\animation T=1.04222.png" arWidth="640" arHeight="480" duration="0" songTitle="" songArtist="" songAlbum="" songCopyrightUrl="" songArtistUrl="" songAudioFileUrl="" stabilizationMode="0" mediaItemType="2" />
    <MediaItem id="4223" filePath="C:\Users\owner\Dropbox\Work\png\animation T=1.04223.png" arWidth="640" arHeight="480" duration="0" songTitle="" songArtist="" songAlbum="" songCopyrightUrl="" songArtistUrl="" songAudioFileUrl="" stabilizationMode="0" mediaItemType="2" />
    <MediaItem id="4224" filePath="C:\Users\owner\Dropbox\Work\png\animation T=1.04224.png" arWidth="640" arHeight="480" duration="0" songTitle="" songArtist="" songAlbum="" songCopyrightUrl="" songArtistUrl="" songAudioFileUrl="" stabilizationMode="0" mediaItemType="2" />
    <MediaItem id="4225" filePath="C:\Users\owner\Dropbox\Work\png\animation T=1.04225.png" arWidth="640" arHeight="480" duration="0" songTitle="" songArtist="" songAlbum="" songCopyrightUrl="" songArtistUrl="" songAudioFileUrl="" stabilizationMode="0" mediaItemType="2" />
    <MediaItem id="4226" filePath="C:\Users\owner\Dropbox\Work\png\animation T=1.04226.png" arWidth="640" arHeight="480" duration="0" songTitle="" songArtist="" songAlbum="" songCopyrightUrl="" songArtistUrl="" songAudioFileUrl="" stabilizationMode="0" mediaItemType="2" />
    <MediaItem id="4227" filePath="C:\Users\owner\Dropbox\Work\png\animation T=1.04227.png" arWidth="640" arHeight="480" duration="0" songTitle="" songArtist="" songAlbum="" songCopyrightUrl="" songArtistUrl="" songAudioFileUrl="" stabilizationMode="0" mediaItemType="2" />
    <MediaItem id="4228" filePath="C:\Users\owner\Dropbox\Work\png\animation T=1.04228.png" arWidth="640" arHeight="480" duration="0" songTitle="" songArtist="" songAlbum="" songCopyrightUrl="" songArtistUrl="" songAudioFileUrl="" stabilizationMode="0" mediaItemType="2" />
    <MediaItem id="4229" filePath="C:\Users\owner\Dropbox\Work\png\animation T=1.04229.png" arWidth="640" arHeight="480" duration="0" songTitle="" songArtist="" songAlbum="" songCopyrightUrl="" songArtistUrl="" songAudioFileUrl="" stabilizationMode="0" mediaItemType="2" />
    <MediaItem id="4230" filePath="C:\Users\owner\Dropbox\Work\png\animation T=1.04230.png" arWidth="640" arHeight="480" duration="0" songTitle="" songArtist="" songAlbum="" songCopyrightUrl="" songArtistUrl="" songAudioFileUrl="" stabilizationMode="0" mediaItemType="2" />
    <MediaItem id="4231" filePath="C:\Users\owner\Dropbox\Work\png\animation T=1.04231.png" arWidth="640" arHeight="480" duration="0" songTitle="" songArtist="" songAlbum="" songCopyrightUrl="" songArtistUrl="" songAudioFileUrl="" stabilizationMode="0" mediaItemType="2" />
    <MediaItem id="4232" filePath="C:\Users\owner\Dropbox\Work\png\animation T=1.04232.png" arWidth="640" arHeight="480" duration="0" songTitle="" songArtist="" songAlbum="" songCopyrightUrl="" songArtistUrl="" songAudioFileUrl="" stabilizationMode="0" mediaItemType="2" />
    <MediaItem id="4233" filePath="C:\Users\owner\Dropbox\Work\png\animation T=1.04233.png" arWidth="640" arHeight="480" duration="0" songTitle="" songArtist="" songAlbum="" songCopyrightUrl="" songArtistUrl="" songAudioFileUrl="" stabilizationMode="0" mediaItemType="2" />
    <MediaItem id="4234" filePath="C:\Users\owner\Dropbox\Work\png\animation T=1.04234.png" arWidth="640" arHeight="480" duration="0" songTitle="" songArtist="" songAlbum="" songCopyrightUrl="" songArtistUrl="" songAudioFileUrl="" stabilizationMode="0" mediaItemType="2" />
    <MediaItem id="4235" filePath="C:\Users\owner\Dropbox\Work\png\animation T=1.04235.png" arWidth="640" arHeight="480" duration="0" songTitle="" songArtist="" songAlbum="" songCopyrightUrl="" songArtistUrl="" songAudioFileUrl="" stabilizationMode="0" mediaItemType="2" />
    <MediaItem id="4236" filePath="C:\Users\owner\Dropbox\Work\png\animation T=1.04236.png" arWidth="640" arHeight="480" duration="0" songTitle="" songArtist="" songAlbum="" songCopyrightUrl="" songArtistUrl="" songAudioFileUrl="" stabilizationMode="0" mediaItemType="2" />
    <MediaItem id="4237" filePath="C:\Users\owner\Dropbox\Work\png\animation T=1.04237.png" arWidth="640" arHeight="480" duration="0" songTitle="" songArtist="" songAlbum="" songCopyrightUrl="" songArtistUrl="" songAudioFileUrl="" stabilizationMode="0" mediaItemType="2" />
    <MediaItem id="4238" filePath="C:\Users\owner\Dropbox\Work\png\animation T=1.04238.png" arWidth="640" arHeight="480" duration="0" songTitle="" songArtist="" songAlbum="" songCopyrightUrl="" songArtistUrl="" songAudioFileUrl="" stabilizationMode="0" mediaItemType="2" />
    <MediaItem id="4239" filePath="C:\Users\owner\Dropbox\Work\png\animation T=1.04239.png" arWidth="640" arHeight="480" duration="0" songTitle="" songArtist="" songAlbum="" songCopyrightUrl="" songArtistUrl="" songAudioFileUrl="" stabilizationMode="0" mediaItemType="2" />
    <MediaItem id="4240" filePath="C:\Users\owner\Dropbox\Work\png\animation T=1.04240.png" arWidth="640" arHeight="480" duration="0" songTitle="" songArtist="" songAlbum="" songCopyrightUrl="" songArtistUrl="" songAudioFileUrl="" stabilizationMode="0" mediaItemType="2" />
    <MediaItem id="4241" filePath="C:\Users\owner\Dropbox\Work\png\animation T=1.04241.png" arWidth="640" arHeight="480" duration="0" songTitle="" songArtist="" songAlbum="" songCopyrightUrl="" songArtistUrl="" songAudioFileUrl="" stabilizationMode="0" mediaItemType="2" />
    <MediaItem id="4242" filePath="C:\Users\owner\Dropbox\Work\png\animation T=1.04242.png" arWidth="640" arHeight="480" duration="0" songTitle="" songArtist="" songAlbum="" songCopyrightUrl="" songArtistUrl="" songAudioFileUrl="" stabilizationMode="0" mediaItemType="2" />
    <MediaItem id="4243" filePath="C:\Users\owner\Dropbox\Work\png\animation T=1.04243.png" arWidth="640" arHeight="480" duration="0" songTitle="" songArtist="" songAlbum="" songCopyrightUrl="" songArtistUrl="" songAudioFileUrl="" stabilizationMode="0" mediaItemType="2" />
    <MediaItem id="4244" filePath="C:\Users\owner\Dropbox\Work\png\animation T=1.04244.png" arWidth="640" arHeight="480" duration="0" songTitle="" songArtist="" songAlbum="" songCopyrightUrl="" songArtistUrl="" songAudioFileUrl="" stabilizationMode="0" mediaItemType="2" />
    <MediaItem id="4245" filePath="C:\Users\owner\Dropbox\Work\png\animation T=1.04245.png" arWidth="640" arHeight="480" duration="0" songTitle="" songArtist="" songAlbum="" songCopyrightUrl="" songArtistUrl="" songAudioFileUrl="" stabilizationMode="0" mediaItemType="2" />
    <MediaItem id="4246" filePath="C:\Users\owner\Dropbox\Work\png\animation T=1.04246.png" arWidth="640" arHeight="480" duration="0" songTitle="" songArtist="" songAlbum="" songCopyrightUrl="" songArtistUrl="" songAudioFileUrl="" stabilizationMode="0" mediaItemType="2" />
    <MediaItem id="4247" filePath="C:\Users\owner\Dropbox\Work\png\animation T=1.04247.png" arWidth="640" arHeight="480" duration="0" songTitle="" songArtist="" songAlbum="" songCopyrightUrl="" songArtistUrl="" songAudioFileUrl="" stabilizationMode="0" mediaItemType="2" />
    <MediaItem id="4248" filePath="C:\Users\owner\Dropbox\Work\png\animation T=1.04248.png" arWidth="640" arHeight="480" duration="0" songTitle="" songArtist="" songAlbum="" songCopyrightUrl="" songArtistUrl="" songAudioFileUrl="" stabilizationMode="0" mediaItemType="2" />
    <MediaItem id="4249" filePath="C:\Users\owner\Dropbox\Work\png\animation T=1.04249.png" arWidth="640" arHeight="480" duration="0" songTitle="" songArtist="" songAlbum="" songCopyrightUrl="" songArtistUrl="" songAudioFileUrl="" stabilizationMode="0" mediaItemType="2" />
    <MediaItem id="4250" filePath="C:\Users\owner\Dropbox\Work\png\animation T=1.04250.png" arWidth="640" arHeight="480" duration="0" songTitle="" songArtist="" songAlbum="" songCopyrightUrl="" songArtistUrl="" songAudioFileUrl="" stabilizationMode="0" mediaItemType="2" />
    <MediaItem id="4251" filePath="C:\Users\owner\Dropbox\Work\png\animation T=1.04251.png" arWidth="640" arHeight="480" duration="0" songTitle="" songArtist="" songAlbum="" songCopyrightUrl="" songArtistUrl="" songAudioFileUrl="" stabilizationMode="0" mediaItemType="2" />
    <MediaItem id="4252" filePath="C:\Users\owner\Dropbox\Work\png\animation T=1.04252.png" arWidth="640" arHeight="480" duration="0" songTitle="" songArtist="" songAlbum="" songCopyrightUrl="" songArtistUrl="" songAudioFileUrl="" stabilizationMode="0" mediaItemType="2" />
    <MediaItem id="4253" filePath="C:\Users\owner\Dropbox\Work\png\animation T=1.04253.png" arWidth="640" arHeight="480" duration="0" songTitle="" songArtist="" songAlbum="" songCopyrightUrl="" songArtistUrl="" songAudioFileUrl="" stabilizationMode="0" mediaItemType="2" />
    <MediaItem id="4254" filePath="C:\Users\owner\Dropbox\Work\png\animation T=1.04254.png" arWidth="640" arHeight="480" duration="0" songTitle="" songArtist="" songAlbum="" songCopyrightUrl="" songArtistUrl="" songAudioFileUrl="" stabilizationMode="0" mediaItemType="2" />
    <MediaItem id="4255" filePath="C:\Users\owner\Dropbox\Work\png\animation T=1.04255.png" arWidth="640" arHeight="480" duration="0" songTitle="" songArtist="" songAlbum="" songCopyrightUrl="" songArtistUrl="" songAudioFileUrl="" stabilizationMode="0" mediaItemType="2" />
    <MediaItem id="4256" filePath="C:\Users\owner\Dropbox\Work\png\animation T=1.04256.png" arWidth="640" arHeight="480" duration="0" songTitle="" songArtist="" songAlbum="" songCopyrightUrl="" songArtistUrl="" songAudioFileUrl="" stabilizationMode="0" mediaItemType="2" />
    <MediaItem id="4257" filePath="C:\Users\owner\Dropbox\Work\png\animation T=1.04257.png" arWidth="640" arHeight="480" duration="0" songTitle="" songArtist="" songAlbum="" songCopyrightUrl="" songArtistUrl="" songAudioFileUrl="" stabilizationMode="0" mediaItemType="2" />
    <MediaItem id="4258" filePath="C:\Users\owner\Dropbox\Work\png\animation T=1.04258.png" arWidth="640" arHeight="480" duration="0" songTitle="" songArtist="" songAlbum="" songCopyrightUrl="" songArtistUrl="" songAudioFileUrl="" stabilizationMode="0" mediaItemType="2" />
    <MediaItem id="4259" filePath="C:\Users\owner\Dropbox\Work\png\animation T=1.04259.png" arWidth="640" arHeight="480" duration="0" songTitle="" songArtist="" songAlbum="" songCopyrightUrl="" songArtistUrl="" songAudioFileUrl="" stabilizationMode="0" mediaItemType="2" />
    <MediaItem id="4260" filePath="C:\Users\owner\Dropbox\Work\png\animation T=1.04260.png" arWidth="640" arHeight="480" duration="0" songTitle="" songArtist="" songAlbum="" songCopyrightUrl="" songArtistUrl="" songAudioFileUrl="" stabilizationMode="0" mediaItemType="2" />
    <MediaItem id="4261" filePath="C:\Users\owner\Dropbox\Work\png\animation T=1.04261.png" arWidth="640" arHeight="480" duration="0" songTitle="" songArtist="" songAlbum="" songCopyrightUrl="" songArtistUrl="" songAudioFileUrl="" stabilizationMode="0" mediaItemType="2" />
    <MediaItem id="4262" filePath="C:\Users\owner\Dropbox\Work\png\animation T=1.04262.png" arWidth="640" arHeight="480" duration="0" songTitle="" songArtist="" songAlbum="" songCopyrightUrl="" songArtistUrl="" songAudioFileUrl="" stabilizationMode="0" mediaItemType="2" />
    <MediaItem id="4263" filePath="C:\Users\owner\Dropbox\Work\png\animation T=1.04263.png" arWidth="640" arHeight="480" duration="0" songTitle="" songArtist="" songAlbum="" songCopyrightUrl="" songArtistUrl="" songAudioFileUrl="" stabilizationMode="0" mediaItemType="2" />
    <MediaItem id="4264" filePath="C:\Users\owner\Dropbox\Work\png\animation T=1.04264.png" arWidth="640" arHeight="480" duration="0" songTitle="" songArtist="" songAlbum="" songCopyrightUrl="" songArtistUrl="" songAudioFileUrl="" stabilizationMode="0" mediaItemType="2" />
    <MediaItem id="4265" filePath="C:\Users\owner\Dropbox\Work\png\animation T=1.04265.png" arWidth="640" arHeight="480" duration="0" songTitle="" songArtist="" songAlbum="" songCopyrightUrl="" songArtistUrl="" songAudioFileUrl="" stabilizationMode="0" mediaItemType="2" />
    <MediaItem id="4266" filePath="C:\Users\owner\Dropbox\Work\png\animation T=1.04266.png" arWidth="640" arHeight="480" duration="0" songTitle="" songArtist="" songAlbum="" songCopyrightUrl="" songArtistUrl="" songAudioFileUrl="" stabilizationMode="0" mediaItemType="2" />
    <MediaItem id="4267" filePath="C:\Users\owner\Dropbox\Work\png\animation T=1.04267.png" arWidth="640" arHeight="480" duration="0" songTitle="" songArtist="" songAlbum="" songCopyrightUrl="" songArtistUrl="" songAudioFileUrl="" stabilizationMode="0" mediaItemType="2" />
    <MediaItem id="4268" filePath="C:\Users\owner\Dropbox\Work\png\animation T=1.04268.png" arWidth="640" arHeight="480" duration="0" songTitle="" songArtist="" songAlbum="" songCopyrightUrl="" songArtistUrl="" songAudioFileUrl="" stabilizationMode="0" mediaItemType="2" />
    <MediaItem id="4269" filePath="C:\Users\owner\Dropbox\Work\png\animation T=1.04269.png" arWidth="640" arHeight="480" duration="0" songTitle="" songArtist="" songAlbum="" songCopyrightUrl="" songArtistUrl="" songAudioFileUrl="" stabilizationMode="0" mediaItemType="2" />
    <MediaItem id="4270" filePath="C:\Users\owner\Dropbox\Work\png\animation T=1.04270.png" arWidth="640" arHeight="480" duration="0" songTitle="" songArtist="" songAlbum="" songCopyrightUrl="" songArtistUrl="" songAudioFileUrl="" stabilizationMode="0" mediaItemType="2" />
    <MediaItem id="4271" filePath="C:\Users\owner\Dropbox\Work\png\animation T=1.04271.png" arWidth="640" arHeight="480" duration="0" songTitle="" songArtist="" songAlbum="" songCopyrightUrl="" songArtistUrl="" songAudioFileUrl="" stabilizationMode="0" mediaItemType="2" />
    <MediaItem id="4272" filePath="C:\Users\owner\Dropbox\Work\png\animation T=1.04272.png" arWidth="640" arHeight="480" duration="0" songTitle="" songArtist="" songAlbum="" songCopyrightUrl="" songArtistUrl="" songAudioFileUrl="" stabilizationMode="0" mediaItemType="2" />
    <MediaItem id="4273" filePath="C:\Users\owner\Dropbox\Work\png\animation T=1.04273.png" arWidth="640" arHeight="480" duration="0" songTitle="" songArtist="" songAlbum="" songCopyrightUrl="" songArtistUrl="" songAudioFileUrl="" stabilizationMode="0" mediaItemType="2" />
    <MediaItem id="4274" filePath="C:\Users\owner\Dropbox\Work\png\animation T=1.04274.png" arWidth="640" arHeight="480" duration="0" songTitle="" songArtist="" songAlbum="" songCopyrightUrl="" songArtistUrl="" songAudioFileUrl="" stabilizationMode="0" mediaItemType="2" />
    <MediaItem id="4275" filePath="C:\Users\owner\Dropbox\Work\png\animation T=1.04275.png" arWidth="640" arHeight="480" duration="0" songTitle="" songArtist="" songAlbum="" songCopyrightUrl="" songArtistUrl="" songAudioFileUrl="" stabilizationMode="0" mediaItemType="2" />
    <MediaItem id="4276" filePath="C:\Users\owner\Dropbox\Work\png\animation T=1.04276.png" arWidth="640" arHeight="480" duration="0" songTitle="" songArtist="" songAlbum="" songCopyrightUrl="" songArtistUrl="" songAudioFileUrl="" stabilizationMode="0" mediaItemType="2" />
    <MediaItem id="4277" filePath="C:\Users\owner\Dropbox\Work\png\animation T=1.04277.png" arWidth="640" arHeight="480" duration="0" songTitle="" songArtist="" songAlbum="" songCopyrightUrl="" songArtistUrl="" songAudioFileUrl="" stabilizationMode="0" mediaItemType="2" />
    <MediaItem id="4278" filePath="C:\Users\owner\Dropbox\Work\png\animation T=1.04278.png" arWidth="640" arHeight="480" duration="0" songTitle="" songArtist="" songAlbum="" songCopyrightUrl="" songArtistUrl="" songAudioFileUrl="" stabilizationMode="0" mediaItemType="2" />
    <MediaItem id="4279" filePath="C:\Users\owner\Dropbox\Work\png\animation T=1.04279.png" arWidth="640" arHeight="480" duration="0" songTitle="" songArtist="" songAlbum="" songCopyrightUrl="" songArtistUrl="" songAudioFileUrl="" stabilizationMode="0" mediaItemType="2" />
    <MediaItem id="4280" filePath="C:\Users\owner\Dropbox\Work\png\animation T=1.04280.png" arWidth="640" arHeight="480" duration="0" songTitle="" songArtist="" songAlbum="" songCopyrightUrl="" songArtistUrl="" songAudioFileUrl="" stabilizationMode="0" mediaItemType="2" />
    <MediaItem id="4281" filePath="C:\Users\owner\Dropbox\Work\png\animation T=1.04281.png" arWidth="640" arHeight="480" duration="0" songTitle="" songArtist="" songAlbum="" songCopyrightUrl="" songArtistUrl="" songAudioFileUrl="" stabilizationMode="0" mediaItemType="2" />
    <MediaItem id="4282" filePath="C:\Users\owner\Dropbox\Work\png\animation T=1.04282.png" arWidth="640" arHeight="480" duration="0" songTitle="" songArtist="" songAlbum="" songCopyrightUrl="" songArtistUrl="" songAudioFileUrl="" stabilizationMode="0" mediaItemType="2" />
    <MediaItem id="4283" filePath="C:\Users\owner\Dropbox\Work\png\animation T=1.04283.png" arWidth="640" arHeight="480" duration="0" songTitle="" songArtist="" songAlbum="" songCopyrightUrl="" songArtistUrl="" songAudioFileUrl="" stabilizationMode="0" mediaItemType="2" />
    <MediaItem id="4284" filePath="C:\Users\owner\Dropbox\Work\png\animation T=1.04284.png" arWidth="640" arHeight="480" duration="0" songTitle="" songArtist="" songAlbum="" songCopyrightUrl="" songArtistUrl="" songAudioFileUrl="" stabilizationMode="0" mediaItemType="2" />
    <MediaItem id="4285" filePath="C:\Users\owner\Dropbox\Work\png\animation T=1.04285.png" arWidth="640" arHeight="480" duration="0" songTitle="" songArtist="" songAlbum="" songCopyrightUrl="" songArtistUrl="" songAudioFileUrl="" stabilizationMode="0" mediaItemType="2" />
    <MediaItem id="4286" filePath="C:\Users\owner\Dropbox\Work\png\animation T=1.04286.png" arWidth="640" arHeight="480" duration="0" songTitle="" songArtist="" songAlbum="" songCopyrightUrl="" songArtistUrl="" songAudioFileUrl="" stabilizationMode="0" mediaItemType="2" />
    <MediaItem id="4287" filePath="C:\Users\owner\Dropbox\Work\png\animation T=1.04287.png" arWidth="640" arHeight="480" duration="0" songTitle="" songArtist="" songAlbum="" songCopyrightUrl="" songArtistUrl="" songAudioFileUrl="" stabilizationMode="0" mediaItemType="2" />
    <MediaItem id="4288" filePath="C:\Users\owner\Dropbox\Work\png\animation T=1.04288.png" arWidth="640" arHeight="480" duration="0" songTitle="" songArtist="" songAlbum="" songCopyrightUrl="" songArtistUrl="" songAudioFileUrl="" stabilizationMode="0" mediaItemType="2" />
    <MediaItem id="4289" filePath="C:\Users\owner\Dropbox\Work\png\animation T=1.04289.png" arWidth="640" arHeight="480" duration="0" songTitle="" songArtist="" songAlbum="" songCopyrightUrl="" songArtistUrl="" songAudioFileUrl="" stabilizationMode="0" mediaItemType="2" />
    <MediaItem id="4290" filePath="C:\Users\owner\Dropbox\Work\png\animation T=1.04290.png" arWidth="640" arHeight="480" duration="0" songTitle="" songArtist="" songAlbum="" songCopyrightUrl="" songArtistUrl="" songAudioFileUrl="" stabilizationMode="0" mediaItemType="2" />
    <MediaItem id="4291" filePath="C:\Users\owner\Dropbox\Work\png\animation T=1.04291.png" arWidth="640" arHeight="480" duration="0" songTitle="" songArtist="" songAlbum="" songCopyrightUrl="" songArtistUrl="" songAudioFileUrl="" stabilizationMode="0" mediaItemType="2" />
    <MediaItem id="4292" filePath="C:\Users\owner\Dropbox\Work\png\animation T=1.04292.png" arWidth="640" arHeight="480" duration="0" songTitle="" songArtist="" songAlbum="" songCopyrightUrl="" songArtistUrl="" songAudioFileUrl="" stabilizationMode="0" mediaItemType="2" />
    <MediaItem id="4293" filePath="C:\Users\owner\Dropbox\Work\png\animation T=1.04293.png" arWidth="640" arHeight="480" duration="0" songTitle="" songArtist="" songAlbum="" songCopyrightUrl="" songArtistUrl="" songAudioFileUrl="" stabilizationMode="0" mediaItemType="2" />
    <MediaItem id="4294" filePath="C:\Users\owner\Dropbox\Work\png\animation T=1.04294.png" arWidth="640" arHeight="480" duration="0" songTitle="" songArtist="" songAlbum="" songCopyrightUrl="" songArtistUrl="" songAudioFileUrl="" stabilizationMode="0" mediaItemType="2" />
    <MediaItem id="4295" filePath="C:\Users\owner\Dropbox\Work\png\animation T=1.04295.png" arWidth="640" arHeight="480" duration="0" songTitle="" songArtist="" songAlbum="" songCopyrightUrl="" songArtistUrl="" songAudioFileUrl="" stabilizationMode="0" mediaItemType="2" />
    <MediaItem id="4296" filePath="C:\Users\owner\Dropbox\Work\png\animation T=1.04296.png" arWidth="640" arHeight="480" duration="0" songTitle="" songArtist="" songAlbum="" songCopyrightUrl="" songArtistUrl="" songAudioFileUrl="" stabilizationMode="0" mediaItemType="2" />
    <MediaItem id="4297" filePath="C:\Users\owner\Dropbox\Work\png\animation T=1.04297.png" arWidth="640" arHeight="480" duration="0" songTitle="" songArtist="" songAlbum="" songCopyrightUrl="" songArtistUrl="" songAudioFileUrl="" stabilizationMode="0" mediaItemType="2" />
    <MediaItem id="4298" filePath="C:\Users\owner\Dropbox\Work\png\animation T=1.04298.png" arWidth="640" arHeight="480" duration="0" songTitle="" songArtist="" songAlbum="" songCopyrightUrl="" songArtistUrl="" songAudioFileUrl="" stabilizationMode="0" mediaItemType="2" />
    <MediaItem id="4299" filePath="C:\Users\owner\Dropbox\Work\png\animation T=1.04299.png" arWidth="640" arHeight="480" duration="0" songTitle="" songArtist="" songAlbum="" songCopyrightUrl="" songArtistUrl="" songAudioFileUrl="" stabilizationMode="0" mediaItemType="2" />
    <MediaItem id="4300" filePath="C:\Users\owner\Dropbox\Work\png\animation T=1.04300.png" arWidth="640" arHeight="480" duration="0" songTitle="" songArtist="" songAlbum="" songCopyrightUrl="" songArtistUrl="" songAudioFileUrl="" stabilizationMode="0" mediaItemType="2" />
    <MediaItem id="4301" filePath="C:\Users\owner\Dropbox\Work\png\animation T=1.04301.png" arWidth="640" arHeight="480" duration="0" songTitle="" songArtist="" songAlbum="" songCopyrightUrl="" songArtistUrl="" songAudioFileUrl="" stabilizationMode="0" mediaItemType="2" />
    <MediaItem id="4302" filePath="C:\Users\owner\Dropbox\Work\png\animation T=1.04302.png" arWidth="640" arHeight="480" duration="0" songTitle="" songArtist="" songAlbum="" songCopyrightUrl="" songArtistUrl="" songAudioFileUrl="" stabilizationMode="0" mediaItemType="2" />
    <MediaItem id="4303" filePath="C:\Users\owner\Dropbox\Work\png\animation T=1.04303.png" arWidth="640" arHeight="480" duration="0" songTitle="" songArtist="" songAlbum="" songCopyrightUrl="" songArtistUrl="" songAudioFileUrl="" stabilizationMode="0" mediaItemType="2" />
    <MediaItem id="4304" filePath="C:\Users\owner\Dropbox\Work\png\animation T=1.04304.png" arWidth="640" arHeight="480" duration="0" songTitle="" songArtist="" songAlbum="" songCopyrightUrl="" songArtistUrl="" songAudioFileUrl="" stabilizationMode="0" mediaItemType="2" />
    <MediaItem id="4305" filePath="C:\Users\owner\Dropbox\Work\png\animation T=1.04305.png" arWidth="640" arHeight="480" duration="0" songTitle="" songArtist="" songAlbum="" songCopyrightUrl="" songArtistUrl="" songAudioFileUrl="" stabilizationMode="0" mediaItemType="2" />
    <MediaItem id="4306" filePath="C:\Users\owner\Dropbox\Work\png\animation T=1.04306.png" arWidth="640" arHeight="480" duration="0" songTitle="" songArtist="" songAlbum="" songCopyrightUrl="" songArtistUrl="" songAudioFileUrl="" stabilizationMode="0" mediaItemType="2" />
    <MediaItem id="4307" filePath="C:\Users\owner\Dropbox\Work\png\animation T=1.04307.png" arWidth="640" arHeight="480" duration="0" songTitle="" songArtist="" songAlbum="" songCopyrightUrl="" songArtistUrl="" songAudioFileUrl="" stabilizationMode="0" mediaItemType="2" />
    <MediaItem id="4308" filePath="C:\Users\owner\Dropbox\Work\png\animation T=1.04308.png" arWidth="640" arHeight="480" duration="0" songTitle="" songArtist="" songAlbum="" songCopyrightUrl="" songArtistUrl="" songAudioFileUrl="" stabilizationMode="0" mediaItemType="2" />
    <MediaItem id="4309" filePath="C:\Users\owner\Dropbox\Work\png\animation T=1.04309.png" arWidth="640" arHeight="480" duration="0" songTitle="" songArtist="" songAlbum="" songCopyrightUrl="" songArtistUrl="" songAudioFileUrl="" stabilizationMode="0" mediaItemType="2" />
    <MediaItem id="4310" filePath="C:\Users\owner\Dropbox\Work\png\animation T=1.04310.png" arWidth="640" arHeight="480" duration="0" songTitle="" songArtist="" songAlbum="" songCopyrightUrl="" songArtistUrl="" songAudioFileUrl="" stabilizationMode="0" mediaItemType="2" />
    <MediaItem id="4311" filePath="C:\Users\owner\Dropbox\Work\png\animation T=1.04311.png" arWidth="640" arHeight="480" duration="0" songTitle="" songArtist="" songAlbum="" songCopyrightUrl="" songArtistUrl="" songAudioFileUrl="" stabilizationMode="0" mediaItemType="2" />
    <MediaItem id="4312" filePath="C:\Users\owner\Dropbox\Work\png\animation T=1.04312.png" arWidth="640" arHeight="480" duration="0" songTitle="" songArtist="" songAlbum="" songCopyrightUrl="" songArtistUrl="" songAudioFileUrl="" stabilizationMode="0" mediaItemType="2" />
    <MediaItem id="4313" filePath="C:\Users\owner\Dropbox\Work\png\animation T=1.04313.png" arWidth="640" arHeight="480" duration="0" songTitle="" songArtist="" songAlbum="" songCopyrightUrl="" songArtistUrl="" songAudioFileUrl="" stabilizationMode="0" mediaItemType="2" />
    <MediaItem id="4314" filePath="C:\Users\owner\Dropbox\Work\png\animation T=1.04314.png" arWidth="640" arHeight="480" duration="0" songTitle="" songArtist="" songAlbum="" songCopyrightUrl="" songArtistUrl="" songAudioFileUrl="" stabilizationMode="0" mediaItemType="2" />
    <MediaItem id="4315" filePath="C:\Users\owner\Dropbox\Work\png\animation T=1.04315.png" arWidth="640" arHeight="480" duration="0" songTitle="" songArtist="" songAlbum="" songCopyrightUrl="" songArtistUrl="" songAudioFileUrl="" stabilizationMode="0" mediaItemType="2" />
    <MediaItem id="4316" filePath="C:\Users\owner\Dropbox\Work\png\animation T=1.04316.png" arWidth="640" arHeight="480" duration="0" songTitle="" songArtist="" songAlbum="" songCopyrightUrl="" songArtistUrl="" songAudioFileUrl="" stabilizationMode="0" mediaItemType="2" />
    <MediaItem id="4317" filePath="C:\Users\owner\Dropbox\Work\png\animation T=1.04317.png" arWidth="640" arHeight="480" duration="0" songTitle="" songArtist="" songAlbum="" songCopyrightUrl="" songArtistUrl="" songAudioFileUrl="" stabilizationMode="0" mediaItemType="2" />
    <MediaItem id="4318" filePath="C:\Users\owner\Dropbox\Work\png\animation T=1.04318.png" arWidth="640" arHeight="480" duration="0" songTitle="" songArtist="" songAlbum="" songCopyrightUrl="" songArtistUrl="" songAudioFileUrl="" stabilizationMode="0" mediaItemType="2" />
    <MediaItem id="4319" filePath="C:\Users\owner\Dropbox\Work\png\animation T=1.04319.png" arWidth="640" arHeight="480" duration="0" songTitle="" songArtist="" songAlbum="" songCopyrightUrl="" songArtistUrl="" songAudioFileUrl="" stabilizationMode="0" mediaItemType="2" />
    <MediaItem id="4320" filePath="C:\Users\owner\Dropbox\Work\png\animation T=1.04320.png" arWidth="640" arHeight="480" duration="0" songTitle="" songArtist="" songAlbum="" songCopyrightUrl="" songArtistUrl="" songAudioFileUrl="" stabilizationMode="0" mediaItemType="2" />
    <MediaItem id="4321" filePath="C:\Users\owner\Dropbox\Work\png\animation T=1.04321.png" arWidth="640" arHeight="480" duration="0" songTitle="" songArtist="" songAlbum="" songCopyrightUrl="" songArtistUrl="" songAudioFileUrl="" stabilizationMode="0" mediaItemType="2" />
    <MediaItem id="4322" filePath="C:\Users\owner\Dropbox\Work\png\animation T=1.04322.png" arWidth="640" arHeight="480" duration="0" songTitle="" songArtist="" songAlbum="" songCopyrightUrl="" songArtistUrl="" songAudioFileUrl="" stabilizationMode="0" mediaItemType="2" />
    <MediaItem id="4323" filePath="C:\Users\owner\Dropbox\Work\png\animation T=1.04323.png" arWidth="640" arHeight="480" duration="0" songTitle="" songArtist="" songAlbum="" songCopyrightUrl="" songArtistUrl="" songAudioFileUrl="" stabilizationMode="0" mediaItemType="2" />
    <MediaItem id="4324" filePath="C:\Users\owner\Dropbox\Work\png\animation T=1.04324.png" arWidth="640" arHeight="480" duration="0" songTitle="" songArtist="" songAlbum="" songCopyrightUrl="" songArtistUrl="" songAudioFileUrl="" stabilizationMode="0" mediaItemType="2" />
    <MediaItem id="4325" filePath="C:\Users\owner\Dropbox\Work\png\animation T=1.04325.png" arWidth="640" arHeight="480" duration="0" songTitle="" songArtist="" songAlbum="" songCopyrightUrl="" songArtistUrl="" songAudioFileUrl="" stabilizationMode="0" mediaItemType="2" />
    <MediaItem id="4326" filePath="C:\Users\owner\Dropbox\Work\png\animation T=1.04326.png" arWidth="640" arHeight="480" duration="0" songTitle="" songArtist="" songAlbum="" songCopyrightUrl="" songArtistUrl="" songAudioFileUrl="" stabilizationMode="0" mediaItemType="2" />
    <MediaItem id="4327" filePath="C:\Users\owner\Dropbox\Work\png\animation T=1.04327.png" arWidth="640" arHeight="480" duration="0" songTitle="" songArtist="" songAlbum="" songCopyrightUrl="" songArtistUrl="" songAudioFileUrl="" stabilizationMode="0" mediaItemType="2" />
    <MediaItem id="4328" filePath="C:\Users\owner\Dropbox\Work\png\animation T=1.04328.png" arWidth="640" arHeight="480" duration="0" songTitle="" songArtist="" songAlbum="" songCopyrightUrl="" songArtistUrl="" songAudioFileUrl="" stabilizationMode="0" mediaItemType="2" />
    <MediaItem id="4329" filePath="C:\Users\owner\Dropbox\Work\png\animation T=1.04329.png" arWidth="640" arHeight="480" duration="0" songTitle="" songArtist="" songAlbum="" songCopyrightUrl="" songArtistUrl="" songAudioFileUrl="" stabilizationMode="0" mediaItemType="2" />
    <MediaItem id="4330" filePath="C:\Users\owner\Dropbox\Work\png\animation T=1.04330.png" arWidth="640" arHeight="480" duration="0" songTitle="" songArtist="" songAlbum="" songCopyrightUrl="" songArtistUrl="" songAudioFileUrl="" stabilizationMode="0" mediaItemType="2" />
    <MediaItem id="4331" filePath="C:\Users\owner\Dropbox\Work\png\animation T=1.04331.png" arWidth="640" arHeight="480" duration="0" songTitle="" songArtist="" songAlbum="" songCopyrightUrl="" songArtistUrl="" songAudioFileUrl="" stabilizationMode="0" mediaItemType="2" />
    <MediaItem id="4332" filePath="C:\Users\owner\Dropbox\Work\png\animation T=1.04332.png" arWidth="640" arHeight="480" duration="0" songTitle="" songArtist="" songAlbum="" songCopyrightUrl="" songArtistUrl="" songAudioFileUrl="" stabilizationMode="0" mediaItemType="2" />
    <MediaItem id="4333" filePath="C:\Users\owner\Dropbox\Work\png\animation T=1.04333.png" arWidth="640" arHeight="480" duration="0" songTitle="" songArtist="" songAlbum="" songCopyrightUrl="" songArtistUrl="" songAudioFileUrl="" stabilizationMode="0" mediaItemType="2" />
    <MediaItem id="4334" filePath="C:\Users\owner\Dropbox\Work\png\animation T=1.04334.png" arWidth="640" arHeight="480" duration="0" songTitle="" songArtist="" songAlbum="" songCopyrightUrl="" songArtistUrl="" songAudioFileUrl="" stabilizationMode="0" mediaItemType="2" />
    <MediaItem id="4335" filePath="C:\Users\owner\Dropbox\Work\png\animation T=1.04335.png" arWidth="640" arHeight="480" duration="0" songTitle="" songArtist="" songAlbum="" songCopyrightUrl="" songArtistUrl="" songAudioFileUrl="" stabilizationMode="0" mediaItemType="2" />
    <MediaItem id="4336" filePath="C:\Users\owner\Dropbox\Work\png\animation T=1.04336.png" arWidth="640" arHeight="480" duration="0" songTitle="" songArtist="" songAlbum="" songCopyrightUrl="" songArtistUrl="" songAudioFileUrl="" stabilizationMode="0" mediaItemType="2" />
    <MediaItem id="4337" filePath="C:\Users\owner\Dropbox\Work\png\animation T=1.04337.png" arWidth="640" arHeight="480" duration="0" songTitle="" songArtist="" songAlbum="" songCopyrightUrl="" songArtistUrl="" songAudioFileUrl="" stabilizationMode="0" mediaItemType="2" />
    <MediaItem id="4338" filePath="C:\Users\owner\Dropbox\Work\png\animation T=1.04338.png" arWidth="640" arHeight="480" duration="0" songTitle="" songArtist="" songAlbum="" songCopyrightUrl="" songArtistUrl="" songAudioFileUrl="" stabilizationMode="0" mediaItemType="2" />
    <MediaItem id="4339" filePath="C:\Users\owner\Dropbox\Work\png\animation T=1.04339.png" arWidth="640" arHeight="480" duration="0" songTitle="" songArtist="" songAlbum="" songCopyrightUrl="" songArtistUrl="" songAudioFileUrl="" stabilizationMode="0" mediaItemType="2" />
    <MediaItem id="4340" filePath="C:\Users\owner\Dropbox\Work\png\animation T=1.04340.png" arWidth="640" arHeight="480" duration="0" songTitle="" songArtist="" songAlbum="" songCopyrightUrl="" songArtistUrl="" songAudioFileUrl="" stabilizationMode="0" mediaItemType="2" />
    <MediaItem id="4341" filePath="C:\Users\owner\Dropbox\Work\png\animation T=1.04341.png" arWidth="640" arHeight="480" duration="0" songTitle="" songArtist="" songAlbum="" songCopyrightUrl="" songArtistUrl="" songAudioFileUrl="" stabilizationMode="0" mediaItemType="2" />
    <MediaItem id="4342" filePath="C:\Users\owner\Dropbox\Work\png\animation T=1.04342.png" arWidth="640" arHeight="480" duration="0" songTitle="" songArtist="" songAlbum="" songCopyrightUrl="" songArtistUrl="" songAudioFileUrl="" stabilizationMode="0" mediaItemType="2" />
    <MediaItem id="4343" filePath="C:\Users\owner\Dropbox\Work\png\animation T=1.04343.png" arWidth="640" arHeight="480" duration="0" songTitle="" songArtist="" songAlbum="" songCopyrightUrl="" songArtistUrl="" songAudioFileUrl="" stabilizationMode="0" mediaItemType="2" />
    <MediaItem id="4344" filePath="C:\Users\owner\Dropbox\Work\png\animation T=1.04344.png" arWidth="640" arHeight="480" duration="0" songTitle="" songArtist="" songAlbum="" songCopyrightUrl="" songArtistUrl="" songAudioFileUrl="" stabilizationMode="0" mediaItemType="2" />
    <MediaItem id="4345" filePath="C:\Users\owner\Dropbox\Work\png\animation T=1.04345.png" arWidth="640" arHeight="480" duration="0" songTitle="" songArtist="" songAlbum="" songCopyrightUrl="" songArtistUrl="" songAudioFileUrl="" stabilizationMode="0" mediaItemType="2" />
    <MediaItem id="4346" filePath="C:\Users\owner\Dropbox\Work\png\animation T=1.04346.png" arWidth="640" arHeight="480" duration="0" songTitle="" songArtist="" songAlbum="" songCopyrightUrl="" songArtistUrl="" songAudioFileUrl="" stabilizationMode="0" mediaItemType="2" />
    <MediaItem id="4347" filePath="C:\Users\owner\Dropbox\Work\png\animation T=1.04347.png" arWidth="640" arHeight="480" duration="0" songTitle="" songArtist="" songAlbum="" songCopyrightUrl="" songArtistUrl="" songAudioFileUrl="" stabilizationMode="0" mediaItemType="2" />
    <MediaItem id="4348" filePath="C:\Users\owner\Dropbox\Work\png\animation T=1.04348.png" arWidth="640" arHeight="480" duration="0" songTitle="" songArtist="" songAlbum="" songCopyrightUrl="" songArtistUrl="" songAudioFileUrl="" stabilizationMode="0" mediaItemType="2" />
    <MediaItem id="4349" filePath="C:\Users\owner\Dropbox\Work\png\animation T=1.04349.png" arWidth="640" arHeight="480" duration="0" songTitle="" songArtist="" songAlbum="" songCopyrightUrl="" songArtistUrl="" songAudioFileUrl="" stabilizationMode="0" mediaItemType="2" />
    <MediaItem id="4350" filePath="C:\Users\owner\Dropbox\Work\png\animation T=1.04350.png" arWidth="640" arHeight="480" duration="0" songTitle="" songArtist="" songAlbum="" songCopyrightUrl="" songArtistUrl="" songAudioFileUrl="" stabilizationMode="0" mediaItemType="2" />
    <MediaItem id="4351" filePath="C:\Users\owner\Dropbox\Work\png\animation T=1.04351.png" arWidth="640" arHeight="480" duration="0" songTitle="" songArtist="" songAlbum="" songCopyrightUrl="" songArtistUrl="" songAudioFileUrl="" stabilizationMode="0" mediaItemType="2" />
    <MediaItem id="4352" filePath="C:\Users\owner\Dropbox\Work\png\animation T=1.04352.png" arWidth="640" arHeight="480" duration="0" songTitle="" songArtist="" songAlbum="" songCopyrightUrl="" songArtistUrl="" songAudioFileUrl="" stabilizationMode="0" mediaItemType="2" />
    <MediaItem id="4353" filePath="C:\Users\owner\Dropbox\Work\png\animation T=1.04353.png" arWidth="640" arHeight="480" duration="0" songTitle="" songArtist="" songAlbum="" songCopyrightUrl="" songArtistUrl="" songAudioFileUrl="" stabilizationMode="0" mediaItemType="2" />
    <MediaItem id="4354" filePath="C:\Users\owner\Dropbox\Work\png\animation T=1.04354.png" arWidth="640" arHeight="480" duration="0" songTitle="" songArtist="" songAlbum="" songCopyrightUrl="" songArtistUrl="" songAudioFileUrl="" stabilizationMode="0" mediaItemType="2" />
    <MediaItem id="4355" filePath="C:\Users\owner\Dropbox\Work\png\animation T=1.04355.png" arWidth="640" arHeight="480" duration="0" songTitle="" songArtist="" songAlbum="" songCopyrightUrl="" songArtistUrl="" songAudioFileUrl="" stabilizationMode="0" mediaItemType="2" />
    <MediaItem id="4356" filePath="C:\Users\owner\Dropbox\Work\png\animation T=1.04356.png" arWidth="640" arHeight="480" duration="0" songTitle="" songArtist="" songAlbum="" songCopyrightUrl="" songArtistUrl="" songAudioFileUrl="" stabilizationMode="0" mediaItemType="2" />
    <MediaItem id="4357" filePath="C:\Users\owner\Dropbox\Work\png\animation T=1.04357.png" arWidth="640" arHeight="480" duration="0" songTitle="" songArtist="" songAlbum="" songCopyrightUrl="" songArtistUrl="" songAudioFileUrl="" stabilizationMode="0" mediaItemType="2" />
    <MediaItem id="4358" filePath="C:\Users\owner\Dropbox\Work\png\animation T=1.04358.png" arWidth="640" arHeight="480" duration="0" songTitle="" songArtist="" songAlbum="" songCopyrightUrl="" songArtistUrl="" songAudioFileUrl="" stabilizationMode="0" mediaItemType="2" />
    <MediaItem id="4359" filePath="C:\Users\owner\Dropbox\Work\png\animation T=1.04359.png" arWidth="640" arHeight="480" duration="0" songTitle="" songArtist="" songAlbum="" songCopyrightUrl="" songArtistUrl="" songAudioFileUrl="" stabilizationMode="0" mediaItemType="2" />
    <MediaItem id="4360" filePath="C:\Users\owner\Dropbox\Work\png\animation T=1.04360.png" arWidth="640" arHeight="480" duration="0" songTitle="" songArtist="" songAlbum="" songCopyrightUrl="" songArtistUrl="" songAudioFileUrl="" stabilizationMode="0" mediaItemType="2" />
    <MediaItem id="4361" filePath="C:\Users\owner\Dropbox\Work\png\animation T=1.04361.png" arWidth="640" arHeight="480" duration="0" songTitle="" songArtist="" songAlbum="" songCopyrightUrl="" songArtistUrl="" songAudioFileUrl="" stabilizationMode="0" mediaItemType="2" />
    <MediaItem id="4362" filePath="C:\Users\owner\Dropbox\Work\png\animation T=1.04362.png" arWidth="640" arHeight="480" duration="0" songTitle="" songArtist="" songAlbum="" songCopyrightUrl="" songArtistUrl="" songAudioFileUrl="" stabilizationMode="0" mediaItemType="2" />
    <MediaItem id="4363" filePath="C:\Users\owner\Dropbox\Work\png\animation T=1.04363.png" arWidth="640" arHeight="480" duration="0" songTitle="" songArtist="" songAlbum="" songCopyrightUrl="" songArtistUrl="" songAudioFileUrl="" stabilizationMode="0" mediaItemType="2" />
    <MediaItem id="4364" filePath="C:\Users\owner\Dropbox\Work\png\animation T=1.04364.png" arWidth="640" arHeight="480" duration="0" songTitle="" songArtist="" songAlbum="" songCopyrightUrl="" songArtistUrl="" songAudioFileUrl="" stabilizationMode="0" mediaItemType="2" />
    <MediaItem id="4365" filePath="C:\Users\owner\Dropbox\Work\png\animation T=1.04365.png" arWidth="640" arHeight="480" duration="0" songTitle="" songArtist="" songAlbum="" songCopyrightUrl="" songArtistUrl="" songAudioFileUrl="" stabilizationMode="0" mediaItemType="2" />
    <MediaItem id="4366" filePath="C:\Users\owner\Dropbox\Work\png\animation T=1.04366.png" arWidth="640" arHeight="480" duration="0" songTitle="" songArtist="" songAlbum="" songCopyrightUrl="" songArtistUrl="" songAudioFileUrl="" stabilizationMode="0" mediaItemType="2" />
    <MediaItem id="4367" filePath="C:\Users\owner\Dropbox\Work\png\animation T=1.04367.png" arWidth="640" arHeight="480" duration="0" songTitle="" songArtist="" songAlbum="" songCopyrightUrl="" songArtistUrl="" songAudioFileUrl="" stabilizationMode="0" mediaItemType="2" />
    <MediaItem id="4368" filePath="C:\Users\owner\Dropbox\Work\png\animation T=1.04368.png" arWidth="640" arHeight="480" duration="0" songTitle="" songArtist="" songAlbum="" songCopyrightUrl="" songArtistUrl="" songAudioFileUrl="" stabilizationMode="0" mediaItemType="2" />
    <MediaItem id="4369" filePath="C:\Users\owner\Dropbox\Work\png\animation T=1.04369.png" arWidth="640" arHeight="480" duration="0" songTitle="" songArtist="" songAlbum="" songCopyrightUrl="" songArtistUrl="" songAudioFileUrl="" stabilizationMode="0" mediaItemType="2" />
    <MediaItem id="4370" filePath="C:\Users\owner\Dropbox\Work\png\animation T=1.04370.png" arWidth="640" arHeight="480" duration="0" songTitle="" songArtist="" songAlbum="" songCopyrightUrl="" songArtistUrl="" songAudioFileUrl="" stabilizationMode="0" mediaItemType="2" />
    <MediaItem id="4371" filePath="C:\Users\owner\Dropbox\Work\png\animation T=1.04371.png" arWidth="640" arHeight="480" duration="0" songTitle="" songArtist="" songAlbum="" songCopyrightUrl="" songArtistUrl="" songAudioFileUrl="" stabilizationMode="0" mediaItemType="2" />
    <MediaItem id="4372" filePath="C:\Users\owner\Dropbox\Work\png\animation T=1.04372.png" arWidth="640" arHeight="480" duration="0" songTitle="" songArtist="" songAlbum="" songCopyrightUrl="" songArtistUrl="" songAudioFileUrl="" stabilizationMode="0" mediaItemType="2" />
    <MediaItem id="4373" filePath="C:\Users\owner\Dropbox\Work\png\animation T=1.04373.png" arWidth="640" arHeight="480" duration="0" songTitle="" songArtist="" songAlbum="" songCopyrightUrl="" songArtistUrl="" songAudioFileUrl="" stabilizationMode="0" mediaItemType="2" />
    <MediaItem id="4374" filePath="C:\Users\owner\Dropbox\Work\png\animation T=1.04374.png" arWidth="640" arHeight="480" duration="0" songTitle="" songArtist="" songAlbum="" songCopyrightUrl="" songArtistUrl="" songAudioFileUrl="" stabilizationMode="0" mediaItemType="2" />
    <MediaItem id="4375" filePath="C:\Users\owner\Dropbox\Work\png\animation T=1.04375.png" arWidth="640" arHeight="480" duration="0" songTitle="" songArtist="" songAlbum="" songCopyrightUrl="" songArtistUrl="" songAudioFileUrl="" stabilizationMode="0" mediaItemType="2" />
    <MediaItem id="4376" filePath="C:\Users\owner\Dropbox\Work\png\animation T=1.04376.png" arWidth="640" arHeight="480" duration="0" songTitle="" songArtist="" songAlbum="" songCopyrightUrl="" songArtistUrl="" songAudioFileUrl="" stabilizationMode="0" mediaItemType="2" />
    <MediaItem id="4377" filePath="C:\Users\owner\Dropbox\Work\png\animation T=1.04377.png" arWidth="640" arHeight="480" duration="0" songTitle="" songArtist="" songAlbum="" songCopyrightUrl="" songArtistUrl="" songAudioFileUrl="" stabilizationMode="0" mediaItemType="2" />
    <MediaItem id="4378" filePath="C:\Users\owner\Dropbox\Work\png\animation T=1.04378.png" arWidth="640" arHeight="480" duration="0" songTitle="" songArtist="" songAlbum="" songCopyrightUrl="" songArtistUrl="" songAudioFileUrl="" stabilizationMode="0" mediaItemType="2" />
    <MediaItem id="4379" filePath="C:\Users\owner\Dropbox\Work\png\animation T=1.04379.png" arWidth="640" arHeight="480" duration="0" songTitle="" songArtist="" songAlbum="" songCopyrightUrl="" songArtistUrl="" songAudioFileUrl="" stabilizationMode="0" mediaItemType="2" />
    <MediaItem id="4380" filePath="C:\Users\owner\Dropbox\Work\png\animation T=1.04380.png" arWidth="640" arHeight="480" duration="0" songTitle="" songArtist="" songAlbum="" songCopyrightUrl="" songArtistUrl="" songAudioFileUrl="" stabilizationMode="0" mediaItemType="2" />
    <MediaItem id="4381" filePath="C:\Users\owner\Dropbox\Work\png\animation T=1.04381.png" arWidth="640" arHeight="480" duration="0" songTitle="" songArtist="" songAlbum="" songCopyrightUrl="" songArtistUrl="" songAudioFileUrl="" stabilizationMode="0" mediaItemType="2" />
    <MediaItem id="4382" filePath="C:\Users\owner\Dropbox\Work\png\animation T=1.04382.png" arWidth="640" arHeight="480" duration="0" songTitle="" songArtist="" songAlbum="" songCopyrightUrl="" songArtistUrl="" songAudioFileUrl="" stabilizationMode="0" mediaItemType="2" />
    <MediaItem id="4383" filePath="C:\Users\owner\Dropbox\Work\png\animation T=1.04383.png" arWidth="640" arHeight="480" duration="0" songTitle="" songArtist="" songAlbum="" songCopyrightUrl="" songArtistUrl="" songAudioFileUrl="" stabilizationMode="0" mediaItemType="2" />
    <MediaItem id="4384" filePath="C:\Users\owner\Dropbox\Work\png\animation T=1.04384.png" arWidth="640" arHeight="480" duration="0" songTitle="" songArtist="" songAlbum="" songCopyrightUrl="" songArtistUrl="" songAudioFileUrl="" stabilizationMode="0" mediaItemType="2" />
    <MediaItem id="4385" filePath="C:\Users\owner\Dropbox\Work\png\animation T=1.04385.png" arWidth="640" arHeight="480" duration="0" songTitle="" songArtist="" songAlbum="" songCopyrightUrl="" songArtistUrl="" songAudioFileUrl="" stabilizationMode="0" mediaItemType="2" />
    <MediaItem id="4386" filePath="C:\Users\owner\Dropbox\Work\png\animation T=1.04386.png" arWidth="640" arHeight="480" duration="0" songTitle="" songArtist="" songAlbum="" songCopyrightUrl="" songArtistUrl="" songAudioFileUrl="" stabilizationMode="0" mediaItemType="2" />
    <MediaItem id="4387" filePath="C:\Users\owner\Dropbox\Work\png\animation T=1.04387.png" arWidth="640" arHeight="480" duration="0" songTitle="" songArtist="" songAlbum="" songCopyrightUrl="" songArtistUrl="" songAudioFileUrl="" stabilizationMode="0" mediaItemType="2" />
    <MediaItem id="4388" filePath="C:\Users\owner\Dropbox\Work\png\animation T=1.04388.png" arWidth="640" arHeight="480" duration="0" songTitle="" songArtist="" songAlbum="" songCopyrightUrl="" songArtistUrl="" songAudioFileUrl="" stabilizationMode="0" mediaItemType="2" />
    <MediaItem id="4389" filePath="C:\Users\owner\Dropbox\Work\png\animation T=1.04389.png" arWidth="640" arHeight="480" duration="0" songTitle="" songArtist="" songAlbum="" songCopyrightUrl="" songArtistUrl="" songAudioFileUrl="" stabilizationMode="0" mediaItemType="2" />
    <MediaItem id="4390" filePath="C:\Users\owner\Dropbox\Work\png\animation T=1.04390.png" arWidth="640" arHeight="480" duration="0" songTitle="" songArtist="" songAlbum="" songCopyrightUrl="" songArtistUrl="" songAudioFileUrl="" stabilizationMode="0" mediaItemType="2" />
    <MediaItem id="4391" filePath="C:\Users\owner\Dropbox\Work\png\animation T=1.04391.png" arWidth="640" arHeight="480" duration="0" songTitle="" songArtist="" songAlbum="" songCopyrightUrl="" songArtistUrl="" songAudioFileUrl="" stabilizationMode="0" mediaItemType="2" />
    <MediaItem id="4392" filePath="C:\Users\owner\Dropbox\Work\png\animation T=1.04392.png" arWidth="640" arHeight="480" duration="0" songTitle="" songArtist="" songAlbum="" songCopyrightUrl="" songArtistUrl="" songAudioFileUrl="" stabilizationMode="0" mediaItemType="2" />
    <MediaItem id="4393" filePath="C:\Users\owner\Dropbox\Work\png\animation T=1.04393.png" arWidth="640" arHeight="480" duration="0" songTitle="" songArtist="" songAlbum="" songCopyrightUrl="" songArtistUrl="" songAudioFileUrl="" stabilizationMode="0" mediaItemType="2" />
    <MediaItem id="4394" filePath="C:\Users\owner\Dropbox\Work\png\animation T=1.04394.png" arWidth="640" arHeight="480" duration="0" songTitle="" songArtist="" songAlbum="" songCopyrightUrl="" songArtistUrl="" songAudioFileUrl="" stabilizationMode="0" mediaItemType="2" />
    <MediaItem id="4395" filePath="C:\Users\owner\Dropbox\Work\png\animation T=1.04395.png" arWidth="640" arHeight="480" duration="0" songTitle="" songArtist="" songAlbum="" songCopyrightUrl="" songArtistUrl="" songAudioFileUrl="" stabilizationMode="0" mediaItemType="2" />
    <MediaItem id="4396" filePath="C:\Users\owner\Dropbox\Work\png\animation T=1.04396.png" arWidth="640" arHeight="480" duration="0" songTitle="" songArtist="" songAlbum="" songCopyrightUrl="" songArtistUrl="" songAudioFileUrl="" stabilizationMode="0" mediaItemType="2" />
    <MediaItem id="4397" filePath="C:\Users\owner\Dropbox\Work\png\animation T=1.04397.png" arWidth="640" arHeight="480" duration="0" songTitle="" songArtist="" songAlbum="" songCopyrightUrl="" songArtistUrl="" songAudioFileUrl="" stabilizationMode="0" mediaItemType="2" />
    <MediaItem id="4398" filePath="C:\Users\owner\Dropbox\Work\png\animation T=1.04398.png" arWidth="640" arHeight="480" duration="0" songTitle="" songArtist="" songAlbum="" songCopyrightUrl="" songArtistUrl="" songAudioFileUrl="" stabilizationMode="0" mediaItemType="2" />
    <MediaItem id="4399" filePath="C:\Users\owner\Dropbox\Work\png\animation T=1.04399.png" arWidth="640" arHeight="480" duration="0" songTitle="" songArtist="" songAlbum="" songCopyrightUrl="" songArtistUrl="" songAudioFileUrl="" stabilizationMode="0" mediaItemType="2" />
    <MediaItem id="4400" filePath="C:\Users\owner\Dropbox\Work\png\animation T=1.04400.png" arWidth="640" arHeight="480" duration="0" songTitle="" songArtist="" songAlbum="" songCopyrightUrl="" songArtistUrl="" songAudioFileUrl="" stabilizationMode="0" mediaItemType="2" />
    <MediaItem id="4401" filePath="C:\Users\owner\Dropbox\Work\png\animation T=1.04401.png" arWidth="640" arHeight="480" duration="0" songTitle="" songArtist="" songAlbum="" songCopyrightUrl="" songArtistUrl="" songAudioFileUrl="" stabilizationMode="0" mediaItemType="2" />
    <MediaItem id="4402" filePath="C:\Users\owner\Dropbox\Work\png\animation T=1.04402.png" arWidth="640" arHeight="480" duration="0" songTitle="" songArtist="" songAlbum="" songCopyrightUrl="" songArtistUrl="" songAudioFileUrl="" stabilizationMode="0" mediaItemType="2" />
    <MediaItem id="4403" filePath="C:\Users\owner\Dropbox\Work\png\animation T=1.04403.png" arWidth="640" arHeight="480" duration="0" songTitle="" songArtist="" songAlbum="" songCopyrightUrl="" songArtistUrl="" songAudioFileUrl="" stabilizationMode="0" mediaItemType="2" />
    <MediaItem id="4404" filePath="C:\Users\owner\Dropbox\Work\png\animation T=1.04404.png" arWidth="640" arHeight="480" duration="0" songTitle="" songArtist="" songAlbum="" songCopyrightUrl="" songArtistUrl="" songAudioFileUrl="" stabilizationMode="0" mediaItemType="2" />
    <MediaItem id="4405" filePath="C:\Users\owner\Dropbox\Work\png\animation T=1.04405.png" arWidth="640" arHeight="480" duration="0" songTitle="" songArtist="" songAlbum="" songCopyrightUrl="" songArtistUrl="" songAudioFileUrl="" stabilizationMode="0" mediaItemType="2" />
    <MediaItem id="4406" filePath="C:\Users\owner\Dropbox\Work\png\animation T=1.04406.png" arWidth="640" arHeight="480" duration="0" songTitle="" songArtist="" songAlbum="" songCopyrightUrl="" songArtistUrl="" songAudioFileUrl="" stabilizationMode="0" mediaItemType="2" />
    <MediaItem id="4407" filePath="C:\Users\owner\Dropbox\Work\png\animation T=1.04407.png" arWidth="640" arHeight="480" duration="0" songTitle="" songArtist="" songAlbum="" songCopyrightUrl="" songArtistUrl="" songAudioFileUrl="" stabilizationMode="0" mediaItemType="2" />
    <MediaItem id="4408" filePath="C:\Users\owner\Dropbox\Work\png\animation T=1.04408.png" arWidth="640" arHeight="480" duration="0" songTitle="" songArtist="" songAlbum="" songCopyrightUrl="" songArtistUrl="" songAudioFileUrl="" stabilizationMode="0" mediaItemType="2" />
    <MediaItem id="4409" filePath="C:\Users\owner\Dropbox\Work\png\animation T=1.04409.png" arWidth="640" arHeight="480" duration="0" songTitle="" songArtist="" songAlbum="" songCopyrightUrl="" songArtistUrl="" songAudioFileUrl="" stabilizationMode="0" mediaItemType="2" />
    <MediaItem id="4410" filePath="C:\Users\owner\Dropbox\Work\png\animation T=1.04410.png" arWidth="640" arHeight="480" duration="0" songTitle="" songArtist="" songAlbum="" songCopyrightUrl="" songArtistUrl="" songAudioFileUrl="" stabilizationMode="0" mediaItemType="2" />
    <MediaItem id="4411" filePath="C:\Users\owner\Dropbox\Work\png\animation T=1.04411.png" arWidth="640" arHeight="480" duration="0" songTitle="" songArtist="" songAlbum="" songCopyrightUrl="" songArtistUrl="" songAudioFileUrl="" stabilizationMode="0" mediaItemType="2" />
    <MediaItem id="4412" filePath="C:\Users\owner\Dropbox\Work\png\animation T=1.04412.png" arWidth="640" arHeight="480" duration="0" songTitle="" songArtist="" songAlbum="" songCopyrightUrl="" songArtistUrl="" songAudioFileUrl="" stabilizationMode="0" mediaItemType="2" />
    <MediaItem id="4413" filePath="C:\Users\owner\Dropbox\Work\png\animation T=1.04413.png" arWidth="640" arHeight="480" duration="0" songTitle="" songArtist="" songAlbum="" songCopyrightUrl="" songArtistUrl="" songAudioFileUrl="" stabilizationMode="0" mediaItemType="2" />
    <MediaItem id="4414" filePath="C:\Users\owner\Dropbox\Work\png\animation T=1.04414.png" arWidth="640" arHeight="480" duration="0" songTitle="" songArtist="" songAlbum="" songCopyrightUrl="" songArtistUrl="" songAudioFileUrl="" stabilizationMode="0" mediaItemType="2" />
    <MediaItem id="4415" filePath="C:\Users\owner\Dropbox\Work\png\animation T=1.04415.png" arWidth="640" arHeight="480" duration="0" songTitle="" songArtist="" songAlbum="" songCopyrightUrl="" songArtistUrl="" songAudioFileUrl="" stabilizationMode="0" mediaItemType="2" />
    <MediaItem id="4416" filePath="C:\Users\owner\Dropbox\Work\png\animation T=1.04416.png" arWidth="640" arHeight="480" duration="0" songTitle="" songArtist="" songAlbum="" songCopyrightUrl="" songArtistUrl="" songAudioFileUrl="" stabilizationMode="0" mediaItemType="2" />
    <MediaItem id="4417" filePath="C:\Users\owner\Dropbox\Work\png\animation T=1.04417.png" arWidth="640" arHeight="480" duration="0" songTitle="" songArtist="" songAlbum="" songCopyrightUrl="" songArtistUrl="" songAudioFileUrl="" stabilizationMode="0" mediaItemType="2" />
    <MediaItem id="4418" filePath="C:\Users\owner\Dropbox\Work\png\animation T=1.04418.png" arWidth="640" arHeight="480" duration="0" songTitle="" songArtist="" songAlbum="" songCopyrightUrl="" songArtistUrl="" songAudioFileUrl="" stabilizationMode="0" mediaItemType="2" />
    <MediaItem id="4419" filePath="C:\Users\owner\Dropbox\Work\png\animation T=1.04419.png" arWidth="640" arHeight="480" duration="0" songTitle="" songArtist="" songAlbum="" songCopyrightUrl="" songArtistUrl="" songAudioFileUrl="" stabilizationMode="0" mediaItemType="2" />
    <MediaItem id="4420" filePath="C:\Users\owner\Dropbox\Work\png\animation T=1.04420.png" arWidth="640" arHeight="480" duration="0" songTitle="" songArtist="" songAlbum="" songCopyrightUrl="" songArtistUrl="" songAudioFileUrl="" stabilizationMode="0" mediaItemType="2" />
    <MediaItem id="4421" filePath="C:\Users\owner\Dropbox\Work\png\animation T=1.04421.png" arWidth="640" arHeight="480" duration="0" songTitle="" songArtist="" songAlbum="" songCopyrightUrl="" songArtistUrl="" songAudioFileUrl="" stabilizationMode="0" mediaItemType="2" />
    <MediaItem id="4422" filePath="C:\Users\owner\Dropbox\Work\png\animation T=1.04422.png" arWidth="640" arHeight="480" duration="0" songTitle="" songArtist="" songAlbum="" songCopyrightUrl="" songArtistUrl="" songAudioFileUrl="" stabilizationMode="0" mediaItemType="2" />
    <MediaItem id="4423" filePath="C:\Users\owner\Dropbox\Work\png\animation T=1.04423.png" arWidth="640" arHeight="480" duration="0" songTitle="" songArtist="" songAlbum="" songCopyrightUrl="" songArtistUrl="" songAudioFileUrl="" stabilizationMode="0" mediaItemType="2" />
    <MediaItem id="4424" filePath="C:\Users\owner\Dropbox\Work\png\animation T=1.04424.png" arWidth="640" arHeight="480" duration="0" songTitle="" songArtist="" songAlbum="" songCopyrightUrl="" songArtistUrl="" songAudioFileUrl="" stabilizationMode="0" mediaItemType="2" />
    <MediaItem id="4425" filePath="C:\Users\owner\Dropbox\Work\png\animation T=1.04425.png" arWidth="640" arHeight="480" duration="0" songTitle="" songArtist="" songAlbum="" songCopyrightUrl="" songArtistUrl="" songAudioFileUrl="" stabilizationMode="0" mediaItemType="2" />
    <MediaItem id="4426" filePath="C:\Users\owner\Dropbox\Work\png\animation T=1.04426.png" arWidth="640" arHeight="480" duration="0" songTitle="" songArtist="" songAlbum="" songCopyrightUrl="" songArtistUrl="" songAudioFileUrl="" stabilizationMode="0" mediaItemType="2" />
    <MediaItem id="4427" filePath="C:\Users\owner\Dropbox\Work\png\animation T=1.04427.png" arWidth="640" arHeight="480" duration="0" songTitle="" songArtist="" songAlbum="" songCopyrightUrl="" songArtistUrl="" songAudioFileUrl="" stabilizationMode="0" mediaItemType="2" />
    <MediaItem id="4428" filePath="C:\Users\owner\Dropbox\Work\png\animation T=1.04428.png" arWidth="640" arHeight="480" duration="0" songTitle="" songArtist="" songAlbum="" songCopyrightUrl="" songArtistUrl="" songAudioFileUrl="" stabilizationMode="0" mediaItemType="2" />
    <MediaItem id="4429" filePath="C:\Users\owner\Dropbox\Work\png\animation T=1.04429.png" arWidth="640" arHeight="480" duration="0" songTitle="" songArtist="" songAlbum="" songCopyrightUrl="" songArtistUrl="" songAudioFileUrl="" stabilizationMode="0" mediaItemType="2" />
    <MediaItem id="4430" filePath="C:\Users\owner\Dropbox\Work\png\animation T=1.04430.png" arWidth="640" arHeight="480" duration="0" songTitle="" songArtist="" songAlbum="" songCopyrightUrl="" songArtistUrl="" songAudioFileUrl="" stabilizationMode="0" mediaItemType="2" />
    <MediaItem id="4431" filePath="C:\Users\owner\Dropbox\Work\png\animation T=1.04431.png" arWidth="640" arHeight="480" duration="0" songTitle="" songArtist="" songAlbum="" songCopyrightUrl="" songArtistUrl="" songAudioFileUrl="" stabilizationMode="0" mediaItemType="2" />
    <MediaItem id="4432" filePath="C:\Users\owner\Dropbox\Work\png\animation T=1.04432.png" arWidth="640" arHeight="480" duration="0" songTitle="" songArtist="" songAlbum="" songCopyrightUrl="" songArtistUrl="" songAudioFileUrl="" stabilizationMode="0" mediaItemType="2" />
    <MediaItem id="4433" filePath="C:\Users\owner\Dropbox\Work\png\animation T=1.04433.png" arWidth="640" arHeight="480" duration="0" songTitle="" songArtist="" songAlbum="" songCopyrightUrl="" songArtistUrl="" songAudioFileUrl="" stabilizationMode="0" mediaItemType="2" />
    <MediaItem id="4434" filePath="C:\Users\owner\Dropbox\Work\png\animation T=1.04434.png" arWidth="640" arHeight="480" duration="0" songTitle="" songArtist="" songAlbum="" songCopyrightUrl="" songArtistUrl="" songAudioFileUrl="" stabilizationMode="0" mediaItemType="2" />
    <MediaItem id="4435" filePath="C:\Users\owner\Dropbox\Work\png\animation T=1.04435.png" arWidth="640" arHeight="480" duration="0" songTitle="" songArtist="" songAlbum="" songCopyrightUrl="" songArtistUrl="" songAudioFileUrl="" stabilizationMode="0" mediaItemType="2" />
    <MediaItem id="4436" filePath="C:\Users\owner\Dropbox\Work\png\animation T=1.04436.png" arWidth="640" arHeight="480" duration="0" songTitle="" songArtist="" songAlbum="" songCopyrightUrl="" songArtistUrl="" songAudioFileUrl="" stabilizationMode="0" mediaItemType="2" />
    <MediaItem id="4437" filePath="C:\Users\owner\Dropbox\Work\png\animation T=1.04437.png" arWidth="640" arHeight="480" duration="0" songTitle="" songArtist="" songAlbum="" songCopyrightUrl="" songArtistUrl="" songAudioFileUrl="" stabilizationMode="0" mediaItemType="2" />
    <MediaItem id="4438" filePath="C:\Users\owner\Dropbox\Work\png\animation T=1.04438.png" arWidth="640" arHeight="480" duration="0" songTitle="" songArtist="" songAlbum="" songCopyrightUrl="" songArtistUrl="" songAudioFileUrl="" stabilizationMode="0" mediaItemType="2" />
    <MediaItem id="4439" filePath="C:\Users\owner\Dropbox\Work\png\animation T=1.04439.png" arWidth="640" arHeight="480" duration="0" songTitle="" songArtist="" songAlbum="" songCopyrightUrl="" songArtistUrl="" songAudioFileUrl="" stabilizationMode="0" mediaItemType="2" />
    <MediaItem id="4440" filePath="C:\Users\owner\Dropbox\Work\png\animation T=1.04440.png" arWidth="640" arHeight="480" duration="0" songTitle="" songArtist="" songAlbum="" songCopyrightUrl="" songArtistUrl="" songAudioFileUrl="" stabilizationMode="0" mediaItemType="2" />
    <MediaItem id="4441" filePath="C:\Users\owner\Dropbox\Work\png\animation T=1.04441.png" arWidth="640" arHeight="480" duration="0" songTitle="" songArtist="" songAlbum="" songCopyrightUrl="" songArtistUrl="" songAudioFileUrl="" stabilizationMode="0" mediaItemType="2" />
    <MediaItem id="4442" filePath="C:\Users\owner\Dropbox\Work\png\animation T=1.04442.png" arWidth="640" arHeight="480" duration="0" songTitle="" songArtist="" songAlbum="" songCopyrightUrl="" songArtistUrl="" songAudioFileUrl="" stabilizationMode="0" mediaItemType="2" />
    <MediaItem id="4443" filePath="C:\Users\owner\Dropbox\Work\png\animation T=1.04443.png" arWidth="640" arHeight="480" duration="0" songTitle="" songArtist="" songAlbum="" songCopyrightUrl="" songArtistUrl="" songAudioFileUrl="" stabilizationMode="0" mediaItemType="2" />
    <MediaItem id="4444" filePath="C:\Users\owner\Dropbox\Work\png\animation T=1.04444.png" arWidth="640" arHeight="480" duration="0" songTitle="" songArtist="" songAlbum="" songCopyrightUrl="" songArtistUrl="" songAudioFileUrl="" stabilizationMode="0" mediaItemType="2" />
    <MediaItem id="4445" filePath="C:\Users\owner\Dropbox\Work\png\animation T=1.04445.png" arWidth="640" arHeight="480" duration="0" songTitle="" songArtist="" songAlbum="" songCopyrightUrl="" songArtistUrl="" songAudioFileUrl="" stabilizationMode="0" mediaItemType="2" />
    <MediaItem id="4446" filePath="C:\Users\owner\Dropbox\Work\png\animation T=1.04446.png" arWidth="640" arHeight="480" duration="0" songTitle="" songArtist="" songAlbum="" songCopyrightUrl="" songArtistUrl="" songAudioFileUrl="" stabilizationMode="0" mediaItemType="2" />
    <MediaItem id="4447" filePath="C:\Users\owner\Dropbox\Work\png\animation T=1.04447.png" arWidth="640" arHeight="480" duration="0" songTitle="" songArtist="" songAlbum="" songCopyrightUrl="" songArtistUrl="" songAudioFileUrl="" stabilizationMode="0" mediaItemType="2" />
    <MediaItem id="4448" filePath="C:\Users\owner\Dropbox\Work\png\animation T=1.04448.png" arWidth="640" arHeight="480" duration="0" songTitle="" songArtist="" songAlbum="" songCopyrightUrl="" songArtistUrl="" songAudioFileUrl="" stabilizationMode="0" mediaItemType="2" />
    <MediaItem id="4449" filePath="C:\Users\owner\Dropbox\Work\png\animation T=1.04449.png" arWidth="640" arHeight="480" duration="0" songTitle="" songArtist="" songAlbum="" songCopyrightUrl="" songArtistUrl="" songAudioFileUrl="" stabilizationMode="0" mediaItemType="2" />
    <MediaItem id="4450" filePath="C:\Users\owner\Dropbox\Work\png\animation T=1.04450.png" arWidth="640" arHeight="480" duration="0" songTitle="" songArtist="" songAlbum="" songCopyrightUrl="" songArtistUrl="" songAudioFileUrl="" stabilizationMode="0" mediaItemType="2" />
    <MediaItem id="4451" filePath="C:\Users\owner\Dropbox\Work\png\animation T=1.04451.png" arWidth="640" arHeight="480" duration="0" songTitle="" songArtist="" songAlbum="" songCopyrightUrl="" songArtistUrl="" songAudioFileUrl="" stabilizationMode="0" mediaItemType="2" />
    <MediaItem id="4452" filePath="C:\Users\owner\Dropbox\Work\png\animation T=1.04452.png" arWidth="640" arHeight="480" duration="0" songTitle="" songArtist="" songAlbum="" songCopyrightUrl="" songArtistUrl="" songAudioFileUrl="" stabilizationMode="0" mediaItemType="2" />
    <MediaItem id="4453" filePath="C:\Users\owner\Dropbox\Work\png\animation T=1.04453.png" arWidth="640" arHeight="480" duration="0" songTitle="" songArtist="" songAlbum="" songCopyrightUrl="" songArtistUrl="" songAudioFileUrl="" stabilizationMode="0" mediaItemType="2" />
    <MediaItem id="4454" filePath="C:\Users\owner\Dropbox\Work\png\animation T=1.04454.png" arWidth="640" arHeight="480" duration="0" songTitle="" songArtist="" songAlbum="" songCopyrightUrl="" songArtistUrl="" songAudioFileUrl="" stabilizationMode="0" mediaItemType="2" />
    <MediaItem id="4455" filePath="C:\Users\owner\Dropbox\Work\png\animation T=1.04455.png" arWidth="640" arHeight="480" duration="0" songTitle="" songArtist="" songAlbum="" songCopyrightUrl="" songArtistUrl="" songAudioFileUrl="" stabilizationMode="0" mediaItemType="2" />
    <MediaItem id="4456" filePath="C:\Users\owner\Dropbox\Work\png\animation T=1.04456.png" arWidth="640" arHeight="480" duration="0" songTitle="" songArtist="" songAlbum="" songCopyrightUrl="" songArtistUrl="" songAudioFileUrl="" stabilizationMode="0" mediaItemType="2" />
    <MediaItem id="4457" filePath="C:\Users\owner\Dropbox\Work\png\animation T=1.04457.png" arWidth="640" arHeight="480" duration="0" songTitle="" songArtist="" songAlbum="" songCopyrightUrl="" songArtistUrl="" songAudioFileUrl="" stabilizationMode="0" mediaItemType="2" />
    <MediaItem id="4458" filePath="C:\Users\owner\Dropbox\Work\png\animation T=1.04458.png" arWidth="640" arHeight="480" duration="0" songTitle="" songArtist="" songAlbum="" songCopyrightUrl="" songArtistUrl="" songAudioFileUrl="" stabilizationMode="0" mediaItemType="2" />
    <MediaItem id="4459" filePath="C:\Users\owner\Dropbox\Work\png\animation T=1.04459.png" arWidth="640" arHeight="480" duration="0" songTitle="" songArtist="" songAlbum="" songCopyrightUrl="" songArtistUrl="" songAudioFileUrl="" stabilizationMode="0" mediaItemType="2" />
    <MediaItem id="4460" filePath="C:\Users\owner\Dropbox\Work\png\animation T=1.04460.png" arWidth="640" arHeight="480" duration="0" songTitle="" songArtist="" songAlbum="" songCopyrightUrl="" songArtistUrl="" songAudioFileUrl="" stabilizationMode="0" mediaItemType="2" />
    <MediaItem id="4461" filePath="C:\Users\owner\Dropbox\Work\png\animation T=1.04461.png" arWidth="640" arHeight="480" duration="0" songTitle="" songArtist="" songAlbum="" songCopyrightUrl="" songArtistUrl="" songAudioFileUrl="" stabilizationMode="0" mediaItemType="2" />
    <MediaItem id="4462" filePath="C:\Users\owner\Dropbox\Work\png\animation T=1.04462.png" arWidth="640" arHeight="480" duration="0" songTitle="" songArtist="" songAlbum="" songCopyrightUrl="" songArtistUrl="" songAudioFileUrl="" stabilizationMode="0" mediaItemType="2" />
    <MediaItem id="4463" filePath="C:\Users\owner\Dropbox\Work\png\animation T=1.04463.png" arWidth="640" arHeight="480" duration="0" songTitle="" songArtist="" songAlbum="" songCopyrightUrl="" songArtistUrl="" songAudioFileUrl="" stabilizationMode="0" mediaItemType="2" />
    <MediaItem id="4464" filePath="C:\Users\owner\Dropbox\Work\png\animation T=1.04464.png" arWidth="640" arHeight="480" duration="0" songTitle="" songArtist="" songAlbum="" songCopyrightUrl="" songArtistUrl="" songAudioFileUrl="" stabilizationMode="0" mediaItemType="2" />
    <MediaItem id="4465" filePath="C:\Users\owner\Dropbox\Work\png\animation T=1.04465.png" arWidth="640" arHeight="480" duration="0" songTitle="" songArtist="" songAlbum="" songCopyrightUrl="" songArtistUrl="" songAudioFileUrl="" stabilizationMode="0" mediaItemType="2" />
    <MediaItem id="4466" filePath="C:\Users\owner\Dropbox\Work\png\animation T=1.04466.png" arWidth="640" arHeight="480" duration="0" songTitle="" songArtist="" songAlbum="" songCopyrightUrl="" songArtistUrl="" songAudioFileUrl="" stabilizationMode="0" mediaItemType="2" />
    <MediaItem id="4467" filePath="C:\Users\owner\Dropbox\Work\png\animation T=1.04467.png" arWidth="640" arHeight="480" duration="0" songTitle="" songArtist="" songAlbum="" songCopyrightUrl="" songArtistUrl="" songAudioFileUrl="" stabilizationMode="0" mediaItemType="2" />
    <MediaItem id="4468" filePath="C:\Users\owner\Dropbox\Work\png\animation T=1.04468.png" arWidth="640" arHeight="480" duration="0" songTitle="" songArtist="" songAlbum="" songCopyrightUrl="" songArtistUrl="" songAudioFileUrl="" stabilizationMode="0" mediaItemType="2" />
    <MediaItem id="4469" filePath="C:\Users\owner\Dropbox\Work\png\animation T=1.04469.png" arWidth="640" arHeight="480" duration="0" songTitle="" songArtist="" songAlbum="" songCopyrightUrl="" songArtistUrl="" songAudioFileUrl="" stabilizationMode="0" mediaItemType="2" />
    <MediaItem id="4470" filePath="C:\Users\owner\Dropbox\Work\png\animation T=1.04470.png" arWidth="640" arHeight="480" duration="0" songTitle="" songArtist="" songAlbum="" songCopyrightUrl="" songArtistUrl="" songAudioFileUrl="" stabilizationMode="0" mediaItemType="2" />
    <MediaItem id="4471" filePath="C:\Users\owner\Dropbox\Work\png\animation T=1.04471.png" arWidth="640" arHeight="480" duration="0" songTitle="" songArtist="" songAlbum="" songCopyrightUrl="" songArtistUrl="" songAudioFileUrl="" stabilizationMode="0" mediaItemType="2" />
    <MediaItem id="4472" filePath="C:\Users\owner\Dropbox\Work\png\animation T=1.04472.png" arWidth="640" arHeight="480" duration="0" songTitle="" songArtist="" songAlbum="" songCopyrightUrl="" songArtistUrl="" songAudioFileUrl="" stabilizationMode="0" mediaItemType="2" />
    <MediaItem id="4473" filePath="C:\Users\owner\Dropbox\Work\png\animation T=1.04473.png" arWidth="640" arHeight="480" duration="0" songTitle="" songArtist="" songAlbum="" songCopyrightUrl="" songArtistUrl="" songAudioFileUrl="" stabilizationMode="0" mediaItemType="2" />
    <MediaItem id="4474" filePath="C:\Users\owner\Dropbox\Work\png\animation T=1.04474.png" arWidth="640" arHeight="480" duration="0" songTitle="" songArtist="" songAlbum="" songCopyrightUrl="" songArtistUrl="" songAudioFileUrl="" stabilizationMode="0" mediaItemType="2" />
    <MediaItem id="4475" filePath="C:\Users\owner\Dropbox\Work\png\animation T=1.04475.png" arWidth="640" arHeight="480" duration="0" songTitle="" songArtist="" songAlbum="" songCopyrightUrl="" songArtistUrl="" songAudioFileUrl="" stabilizationMode="0" mediaItemType="2" />
    <MediaItem id="4476" filePath="C:\Users\owner\Dropbox\Work\png\animation T=1.04476.png" arWidth="640" arHeight="480" duration="0" songTitle="" songArtist="" songAlbum="" songCopyrightUrl="" songArtistUrl="" songAudioFileUrl="" stabilizationMode="0" mediaItemType="2" />
    <MediaItem id="4477" filePath="C:\Users\owner\Dropbox\Work\png\animation T=1.04477.png" arWidth="640" arHeight="480" duration="0" songTitle="" songArtist="" songAlbum="" songCopyrightUrl="" songArtistUrl="" songAudioFileUrl="" stabilizationMode="0" mediaItemType="2" />
    <MediaItem id="4478" filePath="C:\Users\owner\Dropbox\Work\png\animation T=1.04478.png" arWidth="640" arHeight="480" duration="0" songTitle="" songArtist="" songAlbum="" songCopyrightUrl="" songArtistUrl="" songAudioFileUrl="" stabilizationMode="0" mediaItemType="2" />
    <MediaItem id="4479" filePath="C:\Users\owner\Dropbox\Work\png\animation T=1.04479.png" arWidth="640" arHeight="480" duration="0" songTitle="" songArtist="" songAlbum="" songCopyrightUrl="" songArtistUrl="" songAudioFileUrl="" stabilizationMode="0" mediaItemType="2" />
    <MediaItem id="4480" filePath="C:\Users\owner\Dropbox\Work\png\animation T=1.04480.png" arWidth="640" arHeight="480" duration="0" songTitle="" songArtist="" songAlbum="" songCopyrightUrl="" songArtistUrl="" songAudioFileUrl="" stabilizationMode="0" mediaItemType="2" />
    <MediaItem id="4481" filePath="C:\Users\owner\Dropbox\Work\png\animation T=1.04481.png" arWidth="640" arHeight="480" duration="0" songTitle="" songArtist="" songAlbum="" songCopyrightUrl="" songArtistUrl="" songAudioFileUrl="" stabilizationMode="0" mediaItemType="2" />
    <MediaItem id="4482" filePath="C:\Users\owner\Dropbox\Work\png\animation T=1.04482.png" arWidth="640" arHeight="480" duration="0" songTitle="" songArtist="" songAlbum="" songCopyrightUrl="" songArtistUrl="" songAudioFileUrl="" stabilizationMode="0" mediaItemType="2" />
    <MediaItem id="4483" filePath="C:\Users\owner\Dropbox\Work\png\animation T=1.04483.png" arWidth="640" arHeight="480" duration="0" songTitle="" songArtist="" songAlbum="" songCopyrightUrl="" songArtistUrl="" songAudioFileUrl="" stabilizationMode="0" mediaItemType="2" />
    <MediaItem id="4484" filePath="C:\Users\owner\Dropbox\Work\png\animation T=1.04484.png" arWidth="640" arHeight="480" duration="0" songTitle="" songArtist="" songAlbum="" songCopyrightUrl="" songArtistUrl="" songAudioFileUrl="" stabilizationMode="0" mediaItemType="2" />
    <MediaItem id="4485" filePath="C:\Users\owner\Dropbox\Work\png\animation T=1.04485.png" arWidth="640" arHeight="480" duration="0" songTitle="" songArtist="" songAlbum="" songCopyrightUrl="" songArtistUrl="" songAudioFileUrl="" stabilizationMode="0" mediaItemType="2" />
    <MediaItem id="4486" filePath="C:\Users\owner\Dropbox\Work\png\animation T=1.04486.png" arWidth="640" arHeight="480" duration="0" songTitle="" songArtist="" songAlbum="" songCopyrightUrl="" songArtistUrl="" songAudioFileUrl="" stabilizationMode="0" mediaItemType="2" />
    <MediaItem id="4487" filePath="C:\Users\owner\Dropbox\Work\png\animation T=1.04487.png" arWidth="640" arHeight="480" duration="0" songTitle="" songArtist="" songAlbum="" songCopyrightUrl="" songArtistUrl="" songAudioFileUrl="" stabilizationMode="0" mediaItemType="2" />
    <MediaItem id="4488" filePath="C:\Users\owner\Dropbox\Work\png\animation T=1.04488.png" arWidth="640" arHeight="480" duration="0" songTitle="" songArtist="" songAlbum="" songCopyrightUrl="" songArtistUrl="" songAudioFileUrl="" stabilizationMode="0" mediaItemType="2" />
    <MediaItem id="4489" filePath="C:\Users\owner\Dropbox\Work\png\animation T=1.04489.png" arWidth="640" arHeight="480" duration="0" songTitle="" songArtist="" songAlbum="" songCopyrightUrl="" songArtistUrl="" songAudioFileUrl="" stabilizationMode="0" mediaItemType="2" />
    <MediaItem id="4490" filePath="C:\Users\owner\Dropbox\Work\png\animation T=1.04490.png" arWidth="640" arHeight="480" duration="0" songTitle="" songArtist="" songAlbum="" songCopyrightUrl="" songArtistUrl="" songAudioFileUrl="" stabilizationMode="0" mediaItemType="2" />
    <MediaItem id="4491" filePath="C:\Users\owner\Dropbox\Work\png\animation T=1.04491.png" arWidth="640" arHeight="480" duration="0" songTitle="" songArtist="" songAlbum="" songCopyrightUrl="" songArtistUrl="" songAudioFileUrl="" stabilizationMode="0" mediaItemType="2" />
    <MediaItem id="4492" filePath="C:\Users\owner\Dropbox\Work\png\animation T=1.04492.png" arWidth="640" arHeight="480" duration="0" songTitle="" songArtist="" songAlbum="" songCopyrightUrl="" songArtistUrl="" songAudioFileUrl="" stabilizationMode="0" mediaItemType="2" />
    <MediaItem id="4493" filePath="C:\Users\owner\Dropbox\Work\png\animation T=1.04493.png" arWidth="640" arHeight="480" duration="0" songTitle="" songArtist="" songAlbum="" songCopyrightUrl="" songArtistUrl="" songAudioFileUrl="" stabilizationMode="0" mediaItemType="2" />
    <MediaItem id="4494" filePath="C:\Users\owner\Dropbox\Work\png\animation T=1.04494.png" arWidth="640" arHeight="480" duration="0" songTitle="" songArtist="" songAlbum="" songCopyrightUrl="" songArtistUrl="" songAudioFileUrl="" stabilizationMode="0" mediaItemType="2" />
    <MediaItem id="4495" filePath="C:\Users\owner\Dropbox\Work\png\animation T=1.04495.png" arWidth="640" arHeight="480" duration="0" songTitle="" songArtist="" songAlbum="" songCopyrightUrl="" songArtistUrl="" songAudioFileUrl="" stabilizationMode="0" mediaItemType="2" />
    <MediaItem id="4496" filePath="C:\Users\owner\Dropbox\Work\png\animation T=1.04496.png" arWidth="640" arHeight="480" duration="0" songTitle="" songArtist="" songAlbum="" songCopyrightUrl="" songArtistUrl="" songAudioFileUrl="" stabilizationMode="0" mediaItemType="2" />
    <MediaItem id="4497" filePath="C:\Users\owner\Dropbox\Work\png\animation T=1.04497.png" arWidth="640" arHeight="480" duration="0" songTitle="" songArtist="" songAlbum="" songCopyrightUrl="" songArtistUrl="" songAudioFileUrl="" stabilizationMode="0" mediaItemType="2" />
    <MediaItem id="4498" filePath="C:\Users\owner\Dropbox\Work\png\animation T=1.04498.png" arWidth="640" arHeight="480" duration="0" songTitle="" songArtist="" songAlbum="" songCopyrightUrl="" songArtistUrl="" songAudioFileUrl="" stabilizationMode="0" mediaItemType="2" />
    <MediaItem id="4499" filePath="C:\Users\owner\Dropbox\Work\png\animation T=1.04499.png" arWidth="640" arHeight="480" duration="0" songTitle="" songArtist="" songAlbum="" songCopyrightUrl="" songArtistUrl="" songAudioFileUrl="" stabilizationMode="0" mediaItemType="2" />
    <MediaItem id="4500" filePath="C:\Users\owner\Dropbox\Work\png\animation T=1.04500.png" arWidth="640" arHeight="480" duration="0" songTitle="" songArtist="" songAlbum="" songCopyrightUrl="" songArtistUrl="" songAudioFileUrl="" stabilizationMode="0" mediaItemType="2" />
    <MediaItem id="4501" filePath="C:\Users\owner\Dropbox\Work\png\animation T=1.04501.png" arWidth="640" arHeight="480" duration="0" songTitle="" songArtist="" songAlbum="" songCopyrightUrl="" songArtistUrl="" songAudioFileUrl="" stabilizationMode="0" mediaItemType="2" />
    <MediaItem id="4502" filePath="C:\Users\owner\Dropbox\Work\png\animation T=1.04502.png" arWidth="640" arHeight="480" duration="0" songTitle="" songArtist="" songAlbum="" songCopyrightUrl="" songArtistUrl="" songAudioFileUrl="" stabilizationMode="0" mediaItemType="2" />
    <MediaItem id="4503" filePath="C:\Users\owner\Dropbox\Work\png\animation T=1.04503.png" arWidth="640" arHeight="480" duration="0" songTitle="" songArtist="" songAlbum="" songCopyrightUrl="" songArtistUrl="" songAudioFileUrl="" stabilizationMode="0" mediaItemType="2" />
    <MediaItem id="4504" filePath="C:\Users\owner\Dropbox\Work\png\animation T=1.04504.png" arWidth="640" arHeight="480" duration="0" songTitle="" songArtist="" songAlbum="" songCopyrightUrl="" songArtistUrl="" songAudioFileUrl="" stabilizationMode="0" mediaItemType="2" />
    <MediaItem id="4505" filePath="C:\Users\owner\Dropbox\Work\png\animation T=1.04505.png" arWidth="640" arHeight="480" duration="0" songTitle="" songArtist="" songAlbum="" songCopyrightUrl="" songArtistUrl="" songAudioFileUrl="" stabilizationMode="0" mediaItemType="2" />
    <MediaItem id="4506" filePath="C:\Users\owner\Dropbox\Work\png\animation T=1.04506.png" arWidth="640" arHeight="480" duration="0" songTitle="" songArtist="" songAlbum="" songCopyrightUrl="" songArtistUrl="" songAudioFileUrl="" stabilizationMode="0" mediaItemType="2" />
    <MediaItem id="4507" filePath="C:\Users\owner\Dropbox\Work\png\animation T=1.04507.png" arWidth="640" arHeight="480" duration="0" songTitle="" songArtist="" songAlbum="" songCopyrightUrl="" songArtistUrl="" songAudioFileUrl="" stabilizationMode="0" mediaItemType="2" />
    <MediaItem id="4508" filePath="C:\Users\owner\Dropbox\Work\png\animation T=1.04508.png" arWidth="640" arHeight="480" duration="0" songTitle="" songArtist="" songAlbum="" songCopyrightUrl="" songArtistUrl="" songAudioFileUrl="" stabilizationMode="0" mediaItemType="2" />
    <MediaItem id="4509" filePath="C:\Users\owner\Dropbox\Work\png\animation T=1.04509.png" arWidth="640" arHeight="480" duration="0" songTitle="" songArtist="" songAlbum="" songCopyrightUrl="" songArtistUrl="" songAudioFileUrl="" stabilizationMode="0" mediaItemType="2" />
    <MediaItem id="4510" filePath="C:\Users\owner\Dropbox\Work\png\animation T=1.04510.png" arWidth="640" arHeight="480" duration="0" songTitle="" songArtist="" songAlbum="" songCopyrightUrl="" songArtistUrl="" songAudioFileUrl="" stabilizationMode="0" mediaItemType="2" />
    <MediaItem id="4511" filePath="C:\Users\owner\Dropbox\Work\png\animation T=1.04511.png" arWidth="640" arHeight="480" duration="0" songTitle="" songArtist="" songAlbum="" songCopyrightUrl="" songArtistUrl="" songAudioFileUrl="" stabilizationMode="0" mediaItemType="2" />
    <MediaItem id="4512" filePath="C:\Users\owner\Dropbox\Work\png\animation T=1.04512.png" arWidth="640" arHeight="480" duration="0" songTitle="" songArtist="" songAlbum="" songCopyrightUrl="" songArtistUrl="" songAudioFileUrl="" stabilizationMode="0" mediaItemType="2" />
    <MediaItem id="4513" filePath="C:\Users\owner\Dropbox\Work\png\animation T=1.04513.png" arWidth="640" arHeight="480" duration="0" songTitle="" songArtist="" songAlbum="" songCopyrightUrl="" songArtistUrl="" songAudioFileUrl="" stabilizationMode="0" mediaItemType="2" />
    <MediaItem id="4514" filePath="C:\Users\owner\Dropbox\Work\png\animation T=1.04514.png" arWidth="640" arHeight="480" duration="0" songTitle="" songArtist="" songAlbum="" songCopyrightUrl="" songArtistUrl="" songAudioFileUrl="" stabilizationMode="0" mediaItemType="2" />
    <MediaItem id="4515" filePath="C:\Users\owner\Dropbox\Work\png\animation T=1.04515.png" arWidth="640" arHeight="480" duration="0" songTitle="" songArtist="" songAlbum="" songCopyrightUrl="" songArtistUrl="" songAudioFileUrl="" stabilizationMode="0" mediaItemType="2" />
    <MediaItem id="4516" filePath="C:\Users\owner\Dropbox\Work\png\animation T=1.04516.png" arWidth="640" arHeight="480" duration="0" songTitle="" songArtist="" songAlbum="" songCopyrightUrl="" songArtistUrl="" songAudioFileUrl="" stabilizationMode="0" mediaItemType="2" />
    <MediaItem id="4517" filePath="C:\Users\owner\Dropbox\Work\png\animation T=1.04517.png" arWidth="640" arHeight="480" duration="0" songTitle="" songArtist="" songAlbum="" songCopyrightUrl="" songArtistUrl="" songAudioFileUrl="" stabilizationMode="0" mediaItemType="2" />
    <MediaItem id="4518" filePath="C:\Users\owner\Dropbox\Work\png\animation T=1.04518.png" arWidth="640" arHeight="480" duration="0" songTitle="" songArtist="" songAlbum="" songCopyrightUrl="" songArtistUrl="" songAudioFileUrl="" stabilizationMode="0" mediaItemType="2" />
    <MediaItem id="4519" filePath="C:\Users\owner\Dropbox\Work\png\animation T=1.04519.png" arWidth="640" arHeight="480" duration="0" songTitle="" songArtist="" songAlbum="" songCopyrightUrl="" songArtistUrl="" songAudioFileUrl="" stabilizationMode="0" mediaItemType="2" />
    <MediaItem id="4520" filePath="C:\Users\owner\Dropbox\Work\png\animation T=1.04520.png" arWidth="640" arHeight="480" duration="0" songTitle="" songArtist="" songAlbum="" songCopyrightUrl="" songArtistUrl="" songAudioFileUrl="" stabilizationMode="0" mediaItemType="2" />
    <MediaItem id="4521" filePath="C:\Users\owner\Dropbox\Work\png\animation T=1.04521.png" arWidth="640" arHeight="480" duration="0" songTitle="" songArtist="" songAlbum="" songCopyrightUrl="" songArtistUrl="" songAudioFileUrl="" stabilizationMode="0" mediaItemType="2" />
    <MediaItem id="4522" filePath="C:\Users\owner\Dropbox\Work\png\animation T=1.04522.png" arWidth="640" arHeight="480" duration="0" songTitle="" songArtist="" songAlbum="" songCopyrightUrl="" songArtistUrl="" songAudioFileUrl="" stabilizationMode="0" mediaItemType="2" />
    <MediaItem id="4523" filePath="C:\Users\owner\Dropbox\Work\png\animation T=1.04523.png" arWidth="640" arHeight="480" duration="0" songTitle="" songArtist="" songAlbum="" songCopyrightUrl="" songArtistUrl="" songAudioFileUrl="" stabilizationMode="0" mediaItemType="2" />
    <MediaItem id="4524" filePath="C:\Users\owner\Dropbox\Work\png\animation T=1.04524.png" arWidth="640" arHeight="480" duration="0" songTitle="" songArtist="" songAlbum="" songCopyrightUrl="" songArtistUrl="" songAudioFileUrl="" stabilizationMode="0" mediaItemType="2" />
    <MediaItem id="4525" filePath="C:\Users\owner\Dropbox\Work\png\animation T=1.04525.png" arWidth="640" arHeight="480" duration="0" songTitle="" songArtist="" songAlbum="" songCopyrightUrl="" songArtistUrl="" songAudioFileUrl="" stabilizationMode="0" mediaItemType="2" />
    <MediaItem id="4526" filePath="C:\Users\owner\Dropbox\Work\png\animation T=1.04526.png" arWidth="640" arHeight="480" duration="0" songTitle="" songArtist="" songAlbum="" songCopyrightUrl="" songArtistUrl="" songAudioFileUrl="" stabilizationMode="0" mediaItemType="2" />
    <MediaItem id="4527" filePath="C:\Users\owner\Dropbox\Work\png\animation T=1.04527.png" arWidth="640" arHeight="480" duration="0" songTitle="" songArtist="" songAlbum="" songCopyrightUrl="" songArtistUrl="" songAudioFileUrl="" stabilizationMode="0" mediaItemType="2" />
    <MediaItem id="4528" filePath="C:\Users\owner\Dropbox\Work\png\animation T=1.04528.png" arWidth="640" arHeight="480" duration="0" songTitle="" songArtist="" songAlbum="" songCopyrightUrl="" songArtistUrl="" songAudioFileUrl="" stabilizationMode="0" mediaItemType="2" />
    <MediaItem id="4529" filePath="C:\Users\owner\Dropbox\Work\png\animation T=1.04529.png" arWidth="640" arHeight="480" duration="0" songTitle="" songArtist="" songAlbum="" songCopyrightUrl="" songArtistUrl="" songAudioFileUrl="" stabilizationMode="0" mediaItemType="2" />
    <MediaItem id="4530" filePath="C:\Users\owner\Dropbox\Work\png\animation T=1.04530.png" arWidth="640" arHeight="480" duration="0" songTitle="" songArtist="" songAlbum="" songCopyrightUrl="" songArtistUrl="" songAudioFileUrl="" stabilizationMode="0" mediaItemType="2" />
    <MediaItem id="4531" filePath="C:\Users\owner\Dropbox\Work\png\animation T=1.04531.png" arWidth="640" arHeight="480" duration="0" songTitle="" songArtist="" songAlbum="" songCopyrightUrl="" songArtistUrl="" songAudioFileUrl="" stabilizationMode="0" mediaItemType="2" />
    <MediaItem id="4532" filePath="C:\Users\owner\Dropbox\Work\png\animation T=1.04532.png" arWidth="640" arHeight="480" duration="0" songTitle="" songArtist="" songAlbum="" songCopyrightUrl="" songArtistUrl="" songAudioFileUrl="" stabilizationMode="0" mediaItemType="2" />
    <MediaItem id="4533" filePath="C:\Users\owner\Dropbox\Work\png\animation T=1.04533.png" arWidth="640" arHeight="480" duration="0" songTitle="" songArtist="" songAlbum="" songCopyrightUrl="" songArtistUrl="" songAudioFileUrl="" stabilizationMode="0" mediaItemType="2" />
    <MediaItem id="4534" filePath="C:\Users\owner\Dropbox\Work\png\animation T=1.04534.png" arWidth="640" arHeight="480" duration="0" songTitle="" songArtist="" songAlbum="" songCopyrightUrl="" songArtistUrl="" songAudioFileUrl="" stabilizationMode="0" mediaItemType="2" />
    <MediaItem id="4535" filePath="C:\Users\owner\Dropbox\Work\png\animation T=1.04535.png" arWidth="640" arHeight="480" duration="0" songTitle="" songArtist="" songAlbum="" songCopyrightUrl="" songArtistUrl="" songAudioFileUrl="" stabilizationMode="0" mediaItemType="2" />
    <MediaItem id="4536" filePath="C:\Users\owner\Dropbox\Work\png\animation T=1.04536.png" arWidth="640" arHeight="480" duration="0" songTitle="" songArtist="" songAlbum="" songCopyrightUrl="" songArtistUrl="" songAudioFileUrl="" stabilizationMode="0" mediaItemType="2" />
    <MediaItem id="4537" filePath="C:\Users\owner\Dropbox\Work\png\animation T=1.04537.png" arWidth="640" arHeight="480" duration="0" songTitle="" songArtist="" songAlbum="" songCopyrightUrl="" songArtistUrl="" songAudioFileUrl="" stabilizationMode="0" mediaItemType="2" />
    <MediaItem id="4538" filePath="C:\Users\owner\Dropbox\Work\png\animation T=1.04538.png" arWidth="640" arHeight="480" duration="0" songTitle="" songArtist="" songAlbum="" songCopyrightUrl="" songArtistUrl="" songAudioFileUrl="" stabilizationMode="0" mediaItemType="2" />
    <MediaItem id="4539" filePath="C:\Users\owner\Dropbox\Work\png\animation T=1.04539.png" arWidth="640" arHeight="480" duration="0" songTitle="" songArtist="" songAlbum="" songCopyrightUrl="" songArtistUrl="" songAudioFileUrl="" stabilizationMode="0" mediaItemType="2" />
    <MediaItem id="4540" filePath="C:\Users\owner\Dropbox\Work\png\animation T=1.04540.png" arWidth="640" arHeight="480" duration="0" songTitle="" songArtist="" songAlbum="" songCopyrightUrl="" songArtistUrl="" songAudioFileUrl="" stabilizationMode="0" mediaItemType="2" />
    <MediaItem id="4541" filePath="C:\Users\owner\Dropbox\Work\png\animation T=1.04541.png" arWidth="640" arHeight="480" duration="0" songTitle="" songArtist="" songAlbum="" songCopyrightUrl="" songArtistUrl="" songAudioFileUrl="" stabilizationMode="0" mediaItemType="2" />
    <MediaItem id="4542" filePath="C:\Users\owner\Dropbox\Work\png\animation T=1.04542.png" arWidth="640" arHeight="480" duration="0" songTitle="" songArtist="" songAlbum="" songCopyrightUrl="" songArtistUrl="" songAudioFileUrl="" stabilizationMode="0" mediaItemType="2" />
    <MediaItem id="4543" filePath="C:\Users\owner\Dropbox\Work\png\animation T=1.04543.png" arWidth="640" arHeight="480" duration="0" songTitle="" songArtist="" songAlbum="" songCopyrightUrl="" songArtistUrl="" songAudioFileUrl="" stabilizationMode="0" mediaItemType="2" />
    <MediaItem id="4544" filePath="C:\Users\owner\Dropbox\Work\png\animation T=1.04544.png" arWidth="640" arHeight="480" duration="0" songTitle="" songArtist="" songAlbum="" songCopyrightUrl="" songArtistUrl="" songAudioFileUrl="" stabilizationMode="0" mediaItemType="2" />
    <MediaItem id="4545" filePath="C:\Users\owner\Dropbox\Work\png\animation T=1.04545.png" arWidth="640" arHeight="480" duration="0" songTitle="" songArtist="" songAlbum="" songCopyrightUrl="" songArtistUrl="" songAudioFileUrl="" stabilizationMode="0" mediaItemType="2" />
    <MediaItem id="4546" filePath="C:\Users\owner\Dropbox\Work\png\animation T=1.04546.png" arWidth="640" arHeight="480" duration="0" songTitle="" songArtist="" songAlbum="" songCopyrightUrl="" songArtistUrl="" songAudioFileUrl="" stabilizationMode="0" mediaItemType="2" />
    <MediaItem id="4547" filePath="C:\Users\owner\Dropbox\Work\png\animation T=1.04547.png" arWidth="640" arHeight="480" duration="0" songTitle="" songArtist="" songAlbum="" songCopyrightUrl="" songArtistUrl="" songAudioFileUrl="" stabilizationMode="0" mediaItemType="2" />
    <MediaItem id="4548" filePath="C:\Users\owner\Dropbox\Work\png\animation T=1.04548.png" arWidth="640" arHeight="480" duration="0" songTitle="" songArtist="" songAlbum="" songCopyrightUrl="" songArtistUrl="" songAudioFileUrl="" stabilizationMode="0" mediaItemType="2" />
    <MediaItem id="4549" filePath="C:\Users\owner\Dropbox\Work\png\animation T=1.04549.png" arWidth="640" arHeight="480" duration="0" songTitle="" songArtist="" songAlbum="" songCopyrightUrl="" songArtistUrl="" songAudioFileUrl="" stabilizationMode="0" mediaItemType="2" />
    <MediaItem id="4550" filePath="C:\Users\owner\Dropbox\Work\png\animation T=1.04550.png" arWidth="640" arHeight="480" duration="0" songTitle="" songArtist="" songAlbum="" songCopyrightUrl="" songArtistUrl="" songAudioFileUrl="" stabilizationMode="0" mediaItemType="2" />
    <MediaItem id="4551" filePath="C:\Users\owner\Dropbox\Work\png\animation T=1.04551.png" arWidth="640" arHeight="480" duration="0" songTitle="" songArtist="" songAlbum="" songCopyrightUrl="" songArtistUrl="" songAudioFileUrl="" stabilizationMode="0" mediaItemType="2" />
    <MediaItem id="4552" filePath="C:\Users\owner\Dropbox\Work\png\animation T=1.04552.png" arWidth="640" arHeight="480" duration="0" songTitle="" songArtist="" songAlbum="" songCopyrightUrl="" songArtistUrl="" songAudioFileUrl="" stabilizationMode="0" mediaItemType="2" />
    <MediaItem id="4553" filePath="C:\Users\owner\Dropbox\Work\png\animation T=1.04553.png" arWidth="640" arHeight="480" duration="0" songTitle="" songArtist="" songAlbum="" songCopyrightUrl="" songArtistUrl="" songAudioFileUrl="" stabilizationMode="0" mediaItemType="2" />
    <MediaItem id="4554" filePath="C:\Users\owner\Dropbox\Work\png\animation T=1.04554.png" arWidth="640" arHeight="480" duration="0" songTitle="" songArtist="" songAlbum="" songCopyrightUrl="" songArtistUrl="" songAudioFileUrl="" stabilizationMode="0" mediaItemType="2" />
    <MediaItem id="4555" filePath="C:\Users\owner\Dropbox\Work\png\animation T=1.04555.png" arWidth="640" arHeight="480" duration="0" songTitle="" songArtist="" songAlbum="" songCopyrightUrl="" songArtistUrl="" songAudioFileUrl="" stabilizationMode="0" mediaItemType="2" />
    <MediaItem id="4556" filePath="C:\Users\owner\Dropbox\Work\png\animation T=1.04556.png" arWidth="640" arHeight="480" duration="0" songTitle="" songArtist="" songAlbum="" songCopyrightUrl="" songArtistUrl="" songAudioFileUrl="" stabilizationMode="0" mediaItemType="2" />
    <MediaItem id="4557" filePath="C:\Users\owner\Dropbox\Work\png\animation T=1.04557.png" arWidth="640" arHeight="480" duration="0" songTitle="" songArtist="" songAlbum="" songCopyrightUrl="" songArtistUrl="" songAudioFileUrl="" stabilizationMode="0" mediaItemType="2" />
    <MediaItem id="4558" filePath="C:\Users\owner\Dropbox\Work\png\animation T=1.04558.png" arWidth="640" arHeight="480" duration="0" songTitle="" songArtist="" songAlbum="" songCopyrightUrl="" songArtistUrl="" songAudioFileUrl="" stabilizationMode="0" mediaItemType="2" />
    <MediaItem id="4559" filePath="C:\Users\owner\Dropbox\Work\png\animation T=1.04559.png" arWidth="640" arHeight="480" duration="0" songTitle="" songArtist="" songAlbum="" songCopyrightUrl="" songArtistUrl="" songAudioFileUrl="" stabilizationMode="0" mediaItemType="2" />
    <MediaItem id="4560" filePath="C:\Users\owner\Dropbox\Work\png\animation T=1.04560.png" arWidth="640" arHeight="480" duration="0" songTitle="" songArtist="" songAlbum="" songCopyrightUrl="" songArtistUrl="" songAudioFileUrl="" stabilizationMode="0" mediaItemType="2" />
    <MediaItem id="4561" filePath="C:\Users\owner\Dropbox\Work\png\animation T=1.04561.png" arWidth="640" arHeight="480" duration="0" songTitle="" songArtist="" songAlbum="" songCopyrightUrl="" songArtistUrl="" songAudioFileUrl="" stabilizationMode="0" mediaItemType="2" />
    <MediaItem id="4562" filePath="C:\Users\owner\Dropbox\Work\png\animation T=1.04562.png" arWidth="640" arHeight="480" duration="0" songTitle="" songArtist="" songAlbum="" songCopyrightUrl="" songArtistUrl="" songAudioFileUrl="" stabilizationMode="0" mediaItemType="2" />
    <MediaItem id="4563" filePath="C:\Users\owner\Dropbox\Work\png\animation T=1.04563.png" arWidth="640" arHeight="480" duration="0" songTitle="" songArtist="" songAlbum="" songCopyrightUrl="" songArtistUrl="" songAudioFileUrl="" stabilizationMode="0" mediaItemType="2" />
    <MediaItem id="4564" filePath="C:\Users\owner\Dropbox\Work\png\animation T=1.04564.png" arWidth="640" arHeight="480" duration="0" songTitle="" songArtist="" songAlbum="" songCopyrightUrl="" songArtistUrl="" songAudioFileUrl="" stabilizationMode="0" mediaItemType="2" />
    <MediaItem id="4565" filePath="C:\Users\owner\Dropbox\Work\png\animation T=1.04565.png" arWidth="640" arHeight="480" duration="0" songTitle="" songArtist="" songAlbum="" songCopyrightUrl="" songArtistUrl="" songAudioFileUrl="" stabilizationMode="0" mediaItemType="2" />
    <MediaItem id="4566" filePath="C:\Users\owner\Dropbox\Work\png\animation T=1.04566.png" arWidth="640" arHeight="480" duration="0" songTitle="" songArtist="" songAlbum="" songCopyrightUrl="" songArtistUrl="" songAudioFileUrl="" stabilizationMode="0" mediaItemType="2" />
    <MediaItem id="4567" filePath="C:\Users\owner\Dropbox\Work\png\animation T=1.04567.png" arWidth="640" arHeight="480" duration="0" songTitle="" songArtist="" songAlbum="" songCopyrightUrl="" songArtistUrl="" songAudioFileUrl="" stabilizationMode="0" mediaItemType="2" />
    <MediaItem id="4568" filePath="C:\Users\owner\Dropbox\Work\png\animation T=1.04568.png" arWidth="640" arHeight="480" duration="0" songTitle="" songArtist="" songAlbum="" songCopyrightUrl="" songArtistUrl="" songAudioFileUrl="" stabilizationMode="0" mediaItemType="2" />
    <MediaItem id="4569" filePath="C:\Users\owner\Dropbox\Work\png\animation T=1.04569.png" arWidth="640" arHeight="480" duration="0" songTitle="" songArtist="" songAlbum="" songCopyrightUrl="" songArtistUrl="" songAudioFileUrl="" stabilizationMode="0" mediaItemType="2" />
    <MediaItem id="4570" filePath="C:\Users\owner\Dropbox\Work\png\animation T=1.04570.png" arWidth="640" arHeight="480" duration="0" songTitle="" songArtist="" songAlbum="" songCopyrightUrl="" songArtistUrl="" songAudioFileUrl="" stabilizationMode="0" mediaItemType="2" />
    <MediaItem id="4571" filePath="C:\Users\owner\Dropbox\Work\png\animation T=1.04571.png" arWidth="640" arHeight="480" duration="0" songTitle="" songArtist="" songAlbum="" songCopyrightUrl="" songArtistUrl="" songAudioFileUrl="" stabilizationMode="0" mediaItemType="2" />
    <MediaItem id="4572" filePath="C:\Users\owner\Dropbox\Work\png\animation T=1.04572.png" arWidth="640" arHeight="480" duration="0" songTitle="" songArtist="" songAlbum="" songCopyrightUrl="" songArtistUrl="" songAudioFileUrl="" stabilizationMode="0" mediaItemType="2" />
    <MediaItem id="4573" filePath="C:\Users\owner\Dropbox\Work\png\animation T=1.04573.png" arWidth="640" arHeight="480" duration="0" songTitle="" songArtist="" songAlbum="" songCopyrightUrl="" songArtistUrl="" songAudioFileUrl="" stabilizationMode="0" mediaItemType="2" />
    <MediaItem id="4574" filePath="C:\Users\owner\Dropbox\Work\png\animation T=1.04574.png" arWidth="640" arHeight="480" duration="0" songTitle="" songArtist="" songAlbum="" songCopyrightUrl="" songArtistUrl="" songAudioFileUrl="" stabilizationMode="0" mediaItemType="2" />
    <MediaItem id="4575" filePath="C:\Users\owner\Dropbox\Work\png\animation T=1.04575.png" arWidth="640" arHeight="480" duration="0" songTitle="" songArtist="" songAlbum="" songCopyrightUrl="" songArtistUrl="" songAudioFileUrl="" stabilizationMode="0" mediaItemType="2" />
    <MediaItem id="4576" filePath="C:\Users\owner\Dropbox\Work\png\animation T=1.04576.png" arWidth="640" arHeight="480" duration="0" songTitle="" songArtist="" songAlbum="" songCopyrightUrl="" songArtistUrl="" songAudioFileUrl="" stabilizationMode="0" mediaItemType="2" />
    <MediaItem id="4577" filePath="C:\Users\owner\Dropbox\Work\png\animation T=1.04577.png" arWidth="640" arHeight="480" duration="0" songTitle="" songArtist="" songAlbum="" songCopyrightUrl="" songArtistUrl="" songAudioFileUrl="" stabilizationMode="0" mediaItemType="2" />
    <MediaItem id="4578" filePath="C:\Users\owner\Dropbox\Work\png\animation T=1.04578.png" arWidth="640" arHeight="480" duration="0" songTitle="" songArtist="" songAlbum="" songCopyrightUrl="" songArtistUrl="" songAudioFileUrl="" stabilizationMode="0" mediaItemType="2" />
    <MediaItem id="4579" filePath="C:\Users\owner\Dropbox\Work\png\animation T=1.04579.png" arWidth="640" arHeight="480" duration="0" songTitle="" songArtist="" songAlbum="" songCopyrightUrl="" songArtistUrl="" songAudioFileUrl="" stabilizationMode="0" mediaItemType="2" />
    <MediaItem id="4580" filePath="C:\Users\owner\Dropbox\Work\png\animation T=1.04580.png" arWidth="640" arHeight="480" duration="0" songTitle="" songArtist="" songAlbum="" songCopyrightUrl="" songArtistUrl="" songAudioFileUrl="" stabilizationMode="0" mediaItemType="2" />
    <MediaItem id="4581" filePath="C:\Users\owner\Dropbox\Work\png\animation T=1.04581.png" arWidth="640" arHeight="480" duration="0" songTitle="" songArtist="" songAlbum="" songCopyrightUrl="" songArtistUrl="" songAudioFileUrl="" stabilizationMode="0" mediaItemType="2" />
    <MediaItem id="4582" filePath="C:\Users\owner\Dropbox\Work\png\animation T=1.04582.png" arWidth="640" arHeight="480" duration="0" songTitle="" songArtist="" songAlbum="" songCopyrightUrl="" songArtistUrl="" songAudioFileUrl="" stabilizationMode="0" mediaItemType="2" />
    <MediaItem id="4583" filePath="C:\Users\owner\Dropbox\Work\png\animation T=1.04583.png" arWidth="640" arHeight="480" duration="0" songTitle="" songArtist="" songAlbum="" songCopyrightUrl="" songArtistUrl="" songAudioFileUrl="" stabilizationMode="0" mediaItemType="2" />
    <MediaItem id="4584" filePath="C:\Users\owner\Dropbox\Work\png\animation T=1.04584.png" arWidth="640" arHeight="480" duration="0" songTitle="" songArtist="" songAlbum="" songCopyrightUrl="" songArtistUrl="" songAudioFileUrl="" stabilizationMode="0" mediaItemType="2" />
    <MediaItem id="4585" filePath="C:\Users\owner\Dropbox\Work\png\animation T=1.04585.png" arWidth="640" arHeight="480" duration="0" songTitle="" songArtist="" songAlbum="" songCopyrightUrl="" songArtistUrl="" songAudioFileUrl="" stabilizationMode="0" mediaItemType="2" />
    <MediaItem id="4586" filePath="C:\Users\owner\Dropbox\Work\png\animation T=1.04586.png" arWidth="640" arHeight="480" duration="0" songTitle="" songArtist="" songAlbum="" songCopyrightUrl="" songArtistUrl="" songAudioFileUrl="" stabilizationMode="0" mediaItemType="2" />
    <MediaItem id="4587" filePath="C:\Users\owner\Dropbox\Work\png\animation T=1.04587.png" arWidth="640" arHeight="480" duration="0" songTitle="" songArtist="" songAlbum="" songCopyrightUrl="" songArtistUrl="" songAudioFileUrl="" stabilizationMode="0" mediaItemType="2" />
    <MediaItem id="4588" filePath="C:\Users\owner\Dropbox\Work\png\animation T=1.04588.png" arWidth="640" arHeight="480" duration="0" songTitle="" songArtist="" songAlbum="" songCopyrightUrl="" songArtistUrl="" songAudioFileUrl="" stabilizationMode="0" mediaItemType="2" />
    <MediaItem id="4589" filePath="C:\Users\owner\Dropbox\Work\png\animation T=1.04589.png" arWidth="640" arHeight="480" duration="0" songTitle="" songArtist="" songAlbum="" songCopyrightUrl="" songArtistUrl="" songAudioFileUrl="" stabilizationMode="0" mediaItemType="2" />
    <MediaItem id="4590" filePath="C:\Users\owner\Dropbox\Work\png\animation T=1.04590.png" arWidth="640" arHeight="480" duration="0" songTitle="" songArtist="" songAlbum="" songCopyrightUrl="" songArtistUrl="" songAudioFileUrl="" stabilizationMode="0" mediaItemType="2" />
    <MediaItem id="4591" filePath="C:\Users\owner\Dropbox\Work\png\animation T=1.04591.png" arWidth="640" arHeight="480" duration="0" songTitle="" songArtist="" songAlbum="" songCopyrightUrl="" songArtistUrl="" songAudioFileUrl="" stabilizationMode="0" mediaItemType="2" />
    <MediaItem id="4592" filePath="C:\Users\owner\Dropbox\Work\png\animation T=1.04592.png" arWidth="640" arHeight="480" duration="0" songTitle="" songArtist="" songAlbum="" songCopyrightUrl="" songArtistUrl="" songAudioFileUrl="" stabilizationMode="0" mediaItemType="2" />
    <MediaItem id="4593" filePath="C:\Users\owner\Dropbox\Work\png\animation T=1.04593.png" arWidth="640" arHeight="480" duration="0" songTitle="" songArtist="" songAlbum="" songCopyrightUrl="" songArtistUrl="" songAudioFileUrl="" stabilizationMode="0" mediaItemType="2" />
    <MediaItem id="4594" filePath="C:\Users\owner\Dropbox\Work\png\animation T=1.04594.png" arWidth="640" arHeight="480" duration="0" songTitle="" songArtist="" songAlbum="" songCopyrightUrl="" songArtistUrl="" songAudioFileUrl="" stabilizationMode="0" mediaItemType="2" />
    <MediaItem id="4595" filePath="C:\Users\owner\Dropbox\Work\png\animation T=1.04595.png" arWidth="640" arHeight="480" duration="0" songTitle="" songArtist="" songAlbum="" songCopyrightUrl="" songArtistUrl="" songAudioFileUrl="" stabilizationMode="0" mediaItemType="2" />
    <MediaItem id="4596" filePath="C:\Users\owner\Dropbox\Work\png\animation T=1.04596.png" arWidth="640" arHeight="480" duration="0" songTitle="" songArtist="" songAlbum="" songCopyrightUrl="" songArtistUrl="" songAudioFileUrl="" stabilizationMode="0" mediaItemType="2" />
    <MediaItem id="4597" filePath="C:\Users\owner\Dropbox\Work\png\animation T=1.04597.png" arWidth="640" arHeight="480" duration="0" songTitle="" songArtist="" songAlbum="" songCopyrightUrl="" songArtistUrl="" songAudioFileUrl="" stabilizationMode="0" mediaItemType="2" />
    <MediaItem id="4598" filePath="C:\Users\owner\Dropbox\Work\png\animation T=1.04598.png" arWidth="640" arHeight="480" duration="0" songTitle="" songArtist="" songAlbum="" songCopyrightUrl="" songArtistUrl="" songAudioFileUrl="" stabilizationMode="0" mediaItemType="2" />
    <MediaItem id="4599" filePath="C:\Users\owner\Dropbox\Work\png\animation T=1.04599.png" arWidth="640" arHeight="480" duration="0" songTitle="" songArtist="" songAlbum="" songCopyrightUrl="" songArtistUrl="" songAudioFileUrl="" stabilizationMode="0" mediaItemType="2" />
    <MediaItem id="4600" filePath="C:\Users\owner\Dropbox\Work\png\animation T=1.04600.png" arWidth="640" arHeight="480" duration="0" songTitle="" songArtist="" songAlbum="" songCopyrightUrl="" songArtistUrl="" songAudioFileUrl="" stabilizationMode="0" mediaItemType="2" />
    <MediaItem id="4601" filePath="C:\Users\owner\Dropbox\Work\png\animation T=1.04601.png" arWidth="640" arHeight="480" duration="0" songTitle="" songArtist="" songAlbum="" songCopyrightUrl="" songArtistUrl="" songAudioFileUrl="" stabilizationMode="0" mediaItemType="2" />
    <MediaItem id="4602" filePath="C:\Users\owner\Dropbox\Work\png\animation T=1.04602.png" arWidth="640" arHeight="480" duration="0" songTitle="" songArtist="" songAlbum="" songCopyrightUrl="" songArtistUrl="" songAudioFileUrl="" stabilizationMode="0" mediaItemType="2" />
    <MediaItem id="4603" filePath="C:\Users\owner\Dropbox\Work\png\animation T=1.04603.png" arWidth="640" arHeight="480" duration="0" songTitle="" songArtist="" songAlbum="" songCopyrightUrl="" songArtistUrl="" songAudioFileUrl="" stabilizationMode="0" mediaItemType="2" />
    <MediaItem id="4604" filePath="C:\Users\owner\Dropbox\Work\png\animation T=1.04604.png" arWidth="640" arHeight="480" duration="0" songTitle="" songArtist="" songAlbum="" songCopyrightUrl="" songArtistUrl="" songAudioFileUrl="" stabilizationMode="0" mediaItemType="2" />
    <MediaItem id="4605" filePath="C:\Users\owner\Dropbox\Work\png\animation T=1.04605.png" arWidth="640" arHeight="480" duration="0" songTitle="" songArtist="" songAlbum="" songCopyrightUrl="" songArtistUrl="" songAudioFileUrl="" stabilizationMode="0" mediaItemType="2" />
    <MediaItem id="4606" filePath="C:\Users\owner\Dropbox\Work\png\animation T=1.04606.png" arWidth="640" arHeight="480" duration="0" songTitle="" songArtist="" songAlbum="" songCopyrightUrl="" songArtistUrl="" songAudioFileUrl="" stabilizationMode="0" mediaItemType="2" />
    <MediaItem id="4607" filePath="C:\Users\owner\Dropbox\Work\png\animation T=1.04607.png" arWidth="640" arHeight="480" duration="0" songTitle="" songArtist="" songAlbum="" songCopyrightUrl="" songArtistUrl="" songAudioFileUrl="" stabilizationMode="0" mediaItemType="2" />
    <MediaItem id="4608" filePath="C:\Users\owner\Dropbox\Work\png\animation T=1.04608.png" arWidth="640" arHeight="480" duration="0" songTitle="" songArtist="" songAlbum="" songCopyrightUrl="" songArtistUrl="" songAudioFileUrl="" stabilizationMode="0" mediaItemType="2" />
    <MediaItem id="4609" filePath="C:\Users\owner\Dropbox\Work\png\animation T=1.04609.png" arWidth="640" arHeight="480" duration="0" songTitle="" songArtist="" songAlbum="" songCopyrightUrl="" songArtistUrl="" songAudioFileUrl="" stabilizationMode="0" mediaItemType="2" />
    <MediaItem id="4610" filePath="C:\Users\owner\Dropbox\Work\png\animation T=1.04610.png" arWidth="640" arHeight="480" duration="0" songTitle="" songArtist="" songAlbum="" songCopyrightUrl="" songArtistUrl="" songAudioFileUrl="" stabilizationMode="0" mediaItemType="2" />
    <MediaItem id="4611" filePath="C:\Users\owner\Dropbox\Work\png\animation T=1.04611.png" arWidth="640" arHeight="480" duration="0" songTitle="" songArtist="" songAlbum="" songCopyrightUrl="" songArtistUrl="" songAudioFileUrl="" stabilizationMode="0" mediaItemType="2" />
    <MediaItem id="4612" filePath="C:\Users\owner\Dropbox\Work\png\animation T=1.04612.png" arWidth="640" arHeight="480" duration="0" songTitle="" songArtist="" songAlbum="" songCopyrightUrl="" songArtistUrl="" songAudioFileUrl="" stabilizationMode="0" mediaItemType="2" />
    <MediaItem id="4613" filePath="C:\Users\owner\Dropbox\Work\png\animation T=1.04613.png" arWidth="640" arHeight="480" duration="0" songTitle="" songArtist="" songAlbum="" songCopyrightUrl="" songArtistUrl="" songAudioFileUrl="" stabilizationMode="0" mediaItemType="2" />
    <MediaItem id="4614" filePath="C:\Users\owner\Dropbox\Work\png\animation T=1.04614.png" arWidth="640" arHeight="480" duration="0" songTitle="" songArtist="" songAlbum="" songCopyrightUrl="" songArtistUrl="" songAudioFileUrl="" stabilizationMode="0" mediaItemType="2" />
    <MediaItem id="4615" filePath="C:\Users\owner\Dropbox\Work\png\animation T=1.04615.png" arWidth="640" arHeight="480" duration="0" songTitle="" songArtist="" songAlbum="" songCopyrightUrl="" songArtistUrl="" songAudioFileUrl="" stabilizationMode="0" mediaItemType="2" />
    <MediaItem id="4616" filePath="C:\Users\owner\Dropbox\Work\png\animation T=1.04616.png" arWidth="640" arHeight="480" duration="0" songTitle="" songArtist="" songAlbum="" songCopyrightUrl="" songArtistUrl="" songAudioFileUrl="" stabilizationMode="0" mediaItemType="2" />
    <MediaItem id="4617" filePath="C:\Users\owner\Dropbox\Work\png\animation T=1.04617.png" arWidth="640" arHeight="480" duration="0" songTitle="" songArtist="" songAlbum="" songCopyrightUrl="" songArtistUrl="" songAudioFileUrl="" stabilizationMode="0" mediaItemType="2" />
    <MediaItem id="4618" filePath="C:\Users\owner\Dropbox\Work\png\animation T=1.04618.png" arWidth="640" arHeight="480" duration="0" songTitle="" songArtist="" songAlbum="" songCopyrightUrl="" songArtistUrl="" songAudioFileUrl="" stabilizationMode="0" mediaItemType="2" />
    <MediaItem id="4619" filePath="C:\Users\owner\Dropbox\Work\png\animation T=1.04619.png" arWidth="640" arHeight="480" duration="0" songTitle="" songArtist="" songAlbum="" songCopyrightUrl="" songArtistUrl="" songAudioFileUrl="" stabilizationMode="0" mediaItemType="2" />
    <MediaItem id="4620" filePath="C:\Users\owner\Dropbox\Work\png\animation T=1.04620.png" arWidth="640" arHeight="480" duration="0" songTitle="" songArtist="" songAlbum="" songCopyrightUrl="" songArtistUrl="" songAudioFileUrl="" stabilizationMode="0" mediaItemType="2" />
    <MediaItem id="4621" filePath="C:\Users\owner\Dropbox\Work\png\animation T=1.04621.png" arWidth="640" arHeight="480" duration="0" songTitle="" songArtist="" songAlbum="" songCopyrightUrl="" songArtistUrl="" songAudioFileUrl="" stabilizationMode="0" mediaItemType="2" />
    <MediaItem id="4622" filePath="C:\Users\owner\Dropbox\Work\png\animation T=1.04622.png" arWidth="640" arHeight="480" duration="0" songTitle="" songArtist="" songAlbum="" songCopyrightUrl="" songArtistUrl="" songAudioFileUrl="" stabilizationMode="0" mediaItemType="2" />
    <MediaItem id="4623" filePath="C:\Users\owner\Dropbox\Work\png\animation T=1.04623.png" arWidth="640" arHeight="480" duration="0" songTitle="" songArtist="" songAlbum="" songCopyrightUrl="" songArtistUrl="" songAudioFileUrl="" stabilizationMode="0" mediaItemType="2" />
    <MediaItem id="4624" filePath="C:\Users\owner\Dropbox\Work\png\animation T=1.04624.png" arWidth="640" arHeight="480" duration="0" songTitle="" songArtist="" songAlbum="" songCopyrightUrl="" songArtistUrl="" songAudioFileUrl="" stabilizationMode="0" mediaItemType="2" />
    <MediaItem id="4625" filePath="C:\Users\owner\Dropbox\Work\png\animation T=1.04625.png" arWidth="640" arHeight="480" duration="0" songTitle="" songArtist="" songAlbum="" songCopyrightUrl="" songArtistUrl="" songAudioFileUrl="" stabilizationMode="0" mediaItemType="2" />
    <MediaItem id="4626" filePath="C:\Users\owner\Dropbox\Work\png\animation T=1.04626.png" arWidth="640" arHeight="480" duration="0" songTitle="" songArtist="" songAlbum="" songCopyrightUrl="" songArtistUrl="" songAudioFileUrl="" stabilizationMode="0" mediaItemType="2" />
    <MediaItem id="4627" filePath="C:\Users\owner\Dropbox\Work\png\animation T=1.04627.png" arWidth="640" arHeight="480" duration="0" songTitle="" songArtist="" songAlbum="" songCopyrightUrl="" songArtistUrl="" songAudioFileUrl="" stabilizationMode="0" mediaItemType="2" />
    <MediaItem id="4628" filePath="C:\Users\owner\Dropbox\Work\png\animation T=1.04628.png" arWidth="640" arHeight="480" duration="0" songTitle="" songArtist="" songAlbum="" songCopyrightUrl="" songArtistUrl="" songAudioFileUrl="" stabilizationMode="0" mediaItemType="2" />
    <MediaItem id="4629" filePath="C:\Users\owner\Dropbox\Work\png\animation T=1.04629.png" arWidth="640" arHeight="480" duration="0" songTitle="" songArtist="" songAlbum="" songCopyrightUrl="" songArtistUrl="" songAudioFileUrl="" stabilizationMode="0" mediaItemType="2" />
    <MediaItem id="4630" filePath="C:\Users\owner\Dropbox\Work\png\animation T=1.04630.png" arWidth="640" arHeight="480" duration="0" songTitle="" songArtist="" songAlbum="" songCopyrightUrl="" songArtistUrl="" songAudioFileUrl="" stabilizationMode="0" mediaItemType="2" />
    <MediaItem id="4631" filePath="C:\Users\owner\Dropbox\Work\png\animation T=1.04631.png" arWidth="640" arHeight="480" duration="0" songTitle="" songArtist="" songAlbum="" songCopyrightUrl="" songArtistUrl="" songAudioFileUrl="" stabilizationMode="0" mediaItemType="2" />
    <MediaItem id="4632" filePath="C:\Users\owner\Dropbox\Work\png\animation T=1.04632.png" arWidth="640" arHeight="480" duration="0" songTitle="" songArtist="" songAlbum="" songCopyrightUrl="" songArtistUrl="" songAudioFileUrl="" stabilizationMode="0" mediaItemType="2" />
    <MediaItem id="4633" filePath="C:\Users\owner\Dropbox\Work\png\animation T=1.04633.png" arWidth="640" arHeight="480" duration="0" songTitle="" songArtist="" songAlbum="" songCopyrightUrl="" songArtistUrl="" songAudioFileUrl="" stabilizationMode="0" mediaItemType="2" />
    <MediaItem id="4634" filePath="C:\Users\owner\Dropbox\Work\png\animation T=1.04634.png" arWidth="640" arHeight="480" duration="0" songTitle="" songArtist="" songAlbum="" songCopyrightUrl="" songArtistUrl="" songAudioFileUrl="" stabilizationMode="0" mediaItemType="2" />
    <MediaItem id="4635" filePath="C:\Users\owner\Dropbox\Work\png\animation T=1.04635.png" arWidth="640" arHeight="480" duration="0" songTitle="" songArtist="" songAlbum="" songCopyrightUrl="" songArtistUrl="" songAudioFileUrl="" stabilizationMode="0" mediaItemType="2" />
    <MediaItem id="4636" filePath="C:\Users\owner\Dropbox\Work\png\animation T=1.04636.png" arWidth="640" arHeight="480" duration="0" songTitle="" songArtist="" songAlbum="" songCopyrightUrl="" songArtistUrl="" songAudioFileUrl="" stabilizationMode="0" mediaItemType="2" />
    <MediaItem id="4637" filePath="C:\Users\owner\Dropbox\Work\png\animation T=1.04637.png" arWidth="640" arHeight="480" duration="0" songTitle="" songArtist="" songAlbum="" songCopyrightUrl="" songArtistUrl="" songAudioFileUrl="" stabilizationMode="0" mediaItemType="2" />
    <MediaItem id="4638" filePath="C:\Users\owner\Dropbox\Work\png\animation T=1.04638.png" arWidth="640" arHeight="480" duration="0" songTitle="" songArtist="" songAlbum="" songCopyrightUrl="" songArtistUrl="" songAudioFileUrl="" stabilizationMode="0" mediaItemType="2" />
    <MediaItem id="4639" filePath="C:\Users\owner\Dropbox\Work\png\animation T=1.04639.png" arWidth="640" arHeight="480" duration="0" songTitle="" songArtist="" songAlbum="" songCopyrightUrl="" songArtistUrl="" songAudioFileUrl="" stabilizationMode="0" mediaItemType="2" />
    <MediaItem id="4640" filePath="C:\Users\owner\Dropbox\Work\png\animation T=1.04640.png" arWidth="640" arHeight="480" duration="0" songTitle="" songArtist="" songAlbum="" songCopyrightUrl="" songArtistUrl="" songAudioFileUrl="" stabilizationMode="0" mediaItemType="2" />
    <MediaItem id="4641" filePath="C:\Users\owner\Dropbox\Work\png\animation T=1.04641.png" arWidth="640" arHeight="480" duration="0" songTitle="" songArtist="" songAlbum="" songCopyrightUrl="" songArtistUrl="" songAudioFileUrl="" stabilizationMode="0" mediaItemType="2" />
    <MediaItem id="4642" filePath="C:\Users\owner\Dropbox\Work\png\animation T=1.04642.png" arWidth="640" arHeight="480" duration="0" songTitle="" songArtist="" songAlbum="" songCopyrightUrl="" songArtistUrl="" songAudioFileUrl="" stabilizationMode="0" mediaItemType="2" />
    <MediaItem id="4643" filePath="C:\Users\owner\Dropbox\Work\png\animation T=1.04643.png" arWidth="640" arHeight="480" duration="0" songTitle="" songArtist="" songAlbum="" songCopyrightUrl="" songArtistUrl="" songAudioFileUrl="" stabilizationMode="0" mediaItemType="2" />
    <MediaItem id="4644" filePath="C:\Users\owner\Dropbox\Work\png\animation T=1.04644.png" arWidth="640" arHeight="480" duration="0" songTitle="" songArtist="" songAlbum="" songCopyrightUrl="" songArtistUrl="" songAudioFileUrl="" stabilizationMode="0" mediaItemType="2" />
    <MediaItem id="4645" filePath="C:\Users\owner\Dropbox\Work\png\animation T=1.04645.png" arWidth="640" arHeight="480" duration="0" songTitle="" songArtist="" songAlbum="" songCopyrightUrl="" songArtistUrl="" songAudioFileUrl="" stabilizationMode="0" mediaItemType="2" />
    <MediaItem id="4646" filePath="C:\Users\owner\Dropbox\Work\png\animation T=1.04646.png" arWidth="640" arHeight="480" duration="0" songTitle="" songArtist="" songAlbum="" songCopyrightUrl="" songArtistUrl="" songAudioFileUrl="" stabilizationMode="0" mediaItemType="2" />
    <MediaItem id="4647" filePath="C:\Users\owner\Dropbox\Work\png\animation T=1.04647.png" arWidth="640" arHeight="480" duration="0" songTitle="" songArtist="" songAlbum="" songCopyrightUrl="" songArtistUrl="" songAudioFileUrl="" stabilizationMode="0" mediaItemType="2" />
    <MediaItem id="4648" filePath="C:\Users\owner\Dropbox\Work\png\animation T=1.04648.png" arWidth="640" arHeight="480" duration="0" songTitle="" songArtist="" songAlbum="" songCopyrightUrl="" songArtistUrl="" songAudioFileUrl="" stabilizationMode="0" mediaItemType="2" />
    <MediaItem id="4649" filePath="C:\Users\owner\Dropbox\Work\png\animation T=1.04649.png" arWidth="640" arHeight="480" duration="0" songTitle="" songArtist="" songAlbum="" songCopyrightUrl="" songArtistUrl="" songAudioFileUrl="" stabilizationMode="0" mediaItemType="2" />
    <MediaItem id="4650" filePath="C:\Users\owner\Dropbox\Work\png\animation T=1.04650.png" arWidth="640" arHeight="480" duration="0" songTitle="" songArtist="" songAlbum="" songCopyrightUrl="" songArtistUrl="" songAudioFileUrl="" stabilizationMode="0" mediaItemType="2" />
    <MediaItem id="4651" filePath="C:\Users\owner\Dropbox\Work\png\animation T=1.04651.png" arWidth="640" arHeight="480" duration="0" songTitle="" songArtist="" songAlbum="" songCopyrightUrl="" songArtistUrl="" songAudioFileUrl="" stabilizationMode="0" mediaItemType="2" />
    <MediaItem id="4652" filePath="C:\Users\owner\Dropbox\Work\png\animation T=1.04652.png" arWidth="640" arHeight="480" duration="0" songTitle="" songArtist="" songAlbum="" songCopyrightUrl="" songArtistUrl="" songAudioFileUrl="" stabilizationMode="0" mediaItemType="2" />
    <MediaItem id="4653" filePath="C:\Users\owner\Dropbox\Work\png\animation T=1.04653.png" arWidth="640" arHeight="480" duration="0" songTitle="" songArtist="" songAlbum="" songCopyrightUrl="" songArtistUrl="" songAudioFileUrl="" stabilizationMode="0" mediaItemType="2" />
    <MediaItem id="4654" filePath="C:\Users\owner\Dropbox\Work\png\animation T=1.04654.png" arWidth="640" arHeight="480" duration="0" songTitle="" songArtist="" songAlbum="" songCopyrightUrl="" songArtistUrl="" songAudioFileUrl="" stabilizationMode="0" mediaItemType="2" />
    <MediaItem id="4655" filePath="C:\Users\owner\Dropbox\Work\png\animation T=1.04655.png" arWidth="640" arHeight="480" duration="0" songTitle="" songArtist="" songAlbum="" songCopyrightUrl="" songArtistUrl="" songAudioFileUrl="" stabilizationMode="0" mediaItemType="2" />
    <MediaItem id="4656" filePath="C:\Users\owner\Dropbox\Work\png\animation T=1.04656.png" arWidth="640" arHeight="480" duration="0" songTitle="" songArtist="" songAlbum="" songCopyrightUrl="" songArtistUrl="" songAudioFileUrl="" stabilizationMode="0" mediaItemType="2" />
    <MediaItem id="4657" filePath="C:\Users\owner\Dropbox\Work\png\animation T=1.04657.png" arWidth="640" arHeight="480" duration="0" songTitle="" songArtist="" songAlbum="" songCopyrightUrl="" songArtistUrl="" songAudioFileUrl="" stabilizationMode="0" mediaItemType="2" />
    <MediaItem id="4658" filePath="C:\Users\owner\Dropbox\Work\png\animation T=1.04658.png" arWidth="640" arHeight="480" duration="0" songTitle="" songArtist="" songAlbum="" songCopyrightUrl="" songArtistUrl="" songAudioFileUrl="" stabilizationMode="0" mediaItemType="2" />
    <MediaItem id="4659" filePath="C:\Users\owner\Dropbox\Work\png\animation T=1.04659.png" arWidth="640" arHeight="480" duration="0" songTitle="" songArtist="" songAlbum="" songCopyrightUrl="" songArtistUrl="" songAudioFileUrl="" stabilizationMode="0" mediaItemType="2" />
    <MediaItem id="4660" filePath="C:\Users\owner\Dropbox\Work\png\animation T=1.04660.png" arWidth="640" arHeight="480" duration="0" songTitle="" songArtist="" songAlbum="" songCopyrightUrl="" songArtistUrl="" songAudioFileUrl="" stabilizationMode="0" mediaItemType="2" />
    <MediaItem id="4661" filePath="C:\Users\owner\Dropbox\Work\png\animation T=1.04661.png" arWidth="640" arHeight="480" duration="0" songTitle="" songArtist="" songAlbum="" songCopyrightUrl="" songArtistUrl="" songAudioFileUrl="" stabilizationMode="0" mediaItemType="2" />
    <MediaItem id="4662" filePath="C:\Users\owner\Dropbox\Work\png\animation T=1.04662.png" arWidth="640" arHeight="480" duration="0" songTitle="" songArtist="" songAlbum="" songCopyrightUrl="" songArtistUrl="" songAudioFileUrl="" stabilizationMode="0" mediaItemType="2" />
    <MediaItem id="4663" filePath="C:\Users\owner\Dropbox\Work\png\animation T=1.04663.png" arWidth="640" arHeight="480" duration="0" songTitle="" songArtist="" songAlbum="" songCopyrightUrl="" songArtistUrl="" songAudioFileUrl="" stabilizationMode="0" mediaItemType="2" />
    <MediaItem id="4664" filePath="C:\Users\owner\Dropbox\Work\png\animation T=1.04664.png" arWidth="640" arHeight="480" duration="0" songTitle="" songArtist="" songAlbum="" songCopyrightUrl="" songArtistUrl="" songAudioFileUrl="" stabilizationMode="0" mediaItemType="2" />
    <MediaItem id="4665" filePath="C:\Users\owner\Dropbox\Work\png\animation T=1.04665.png" arWidth="640" arHeight="480" duration="0" songTitle="" songArtist="" songAlbum="" songCopyrightUrl="" songArtistUrl="" songAudioFileUrl="" stabilizationMode="0" mediaItemType="2" />
    <MediaItem id="4666" filePath="C:\Users\owner\Dropbox\Work\png\animation T=1.04666.png" arWidth="640" arHeight="480" duration="0" songTitle="" songArtist="" songAlbum="" songCopyrightUrl="" songArtistUrl="" songAudioFileUrl="" stabilizationMode="0" mediaItemType="2" />
    <MediaItem id="4667" filePath="C:\Users\owner\Dropbox\Work\png\animation T=1.04667.png" arWidth="640" arHeight="480" duration="0" songTitle="" songArtist="" songAlbum="" songCopyrightUrl="" songArtistUrl="" songAudioFileUrl="" stabilizationMode="0" mediaItemType="2" />
    <MediaItem id="4668" filePath="C:\Users\owner\Dropbox\Work\png\animation T=1.04668.png" arWidth="640" arHeight="480" duration="0" songTitle="" songArtist="" songAlbum="" songCopyrightUrl="" songArtistUrl="" songAudioFileUrl="" stabilizationMode="0" mediaItemType="2" />
    <MediaItem id="4669" filePath="C:\Users\owner\Dropbox\Work\png\animation T=1.04669.png" arWidth="640" arHeight="480" duration="0" songTitle="" songArtist="" songAlbum="" songCopyrightUrl="" songArtistUrl="" songAudioFileUrl="" stabilizationMode="0" mediaItemType="2" />
    <MediaItem id="4670" filePath="C:\Users\owner\Dropbox\Work\png\animation T=1.04670.png" arWidth="640" arHeight="480" duration="0" songTitle="" songArtist="" songAlbum="" songCopyrightUrl="" songArtistUrl="" songAudioFileUrl="" stabilizationMode="0" mediaItemType="2" />
    <MediaItem id="4671" filePath="C:\Users\owner\Dropbox\Work\png\animation T=1.04671.png" arWidth="640" arHeight="480" duration="0" songTitle="" songArtist="" songAlbum="" songCopyrightUrl="" songArtistUrl="" songAudioFileUrl="" stabilizationMode="0" mediaItemType="2" />
    <MediaItem id="4672" filePath="C:\Users\owner\Dropbox\Work\png\animation T=1.04672.png" arWidth="640" arHeight="480" duration="0" songTitle="" songArtist="" songAlbum="" songCopyrightUrl="" songArtistUrl="" songAudioFileUrl="" stabilizationMode="0" mediaItemType="2" />
    <MediaItem id="4673" filePath="C:\Users\owner\Dropbox\Work\png\animation T=1.04673.png" arWidth="640" arHeight="480" duration="0" songTitle="" songArtist="" songAlbum="" songCopyrightUrl="" songArtistUrl="" songAudioFileUrl="" stabilizationMode="0" mediaItemType="2" />
    <MediaItem id="4674" filePath="C:\Users\owner\Dropbox\Work\png\animation T=1.04674.png" arWidth="640" arHeight="480" duration="0" songTitle="" songArtist="" songAlbum="" songCopyrightUrl="" songArtistUrl="" songAudioFileUrl="" stabilizationMode="0" mediaItemType="2" />
    <MediaItem id="4675" filePath="C:\Users\owner\Dropbox\Work\png\animation T=1.04675.png" arWidth="640" arHeight="480" duration="0" songTitle="" songArtist="" songAlbum="" songCopyrightUrl="" songArtistUrl="" songAudioFileUrl="" stabilizationMode="0" mediaItemType="2" />
    <MediaItem id="4676" filePath="C:\Users\owner\Dropbox\Work\png\animation T=1.04676.png" arWidth="640" arHeight="480" duration="0" songTitle="" songArtist="" songAlbum="" songCopyrightUrl="" songArtistUrl="" songAudioFileUrl="" stabilizationMode="0" mediaItemType="2" />
    <MediaItem id="4677" filePath="C:\Users\owner\Dropbox\Work\png\animation T=1.04677.png" arWidth="640" arHeight="480" duration="0" songTitle="" songArtist="" songAlbum="" songCopyrightUrl="" songArtistUrl="" songAudioFileUrl="" stabilizationMode="0" mediaItemType="2" />
    <MediaItem id="4678" filePath="C:\Users\owner\Dropbox\Work\png\animation T=1.04678.png" arWidth="640" arHeight="480" duration="0" songTitle="" songArtist="" songAlbum="" songCopyrightUrl="" songArtistUrl="" songAudioFileUrl="" stabilizationMode="0" mediaItemType="2" />
    <MediaItem id="4679" filePath="C:\Users\owner\Dropbox\Work\png\animation T=1.04679.png" arWidth="640" arHeight="480" duration="0" songTitle="" songArtist="" songAlbum="" songCopyrightUrl="" songArtistUrl="" songAudioFileUrl="" stabilizationMode="0" mediaItemType="2" />
    <MediaItem id="4680" filePath="C:\Users\owner\Dropbox\Work\png\animation T=1.04680.png" arWidth="640" arHeight="480" duration="0" songTitle="" songArtist="" songAlbum="" songCopyrightUrl="" songArtistUrl="" songAudioFileUrl="" stabilizationMode="0" mediaItemType="2" />
    <MediaItem id="4681" filePath="C:\Users\owner\Dropbox\Work\png\animation T=1.04681.png" arWidth="640" arHeight="480" duration="0" songTitle="" songArtist="" songAlbum="" songCopyrightUrl="" songArtistUrl="" songAudioFileUrl="" stabilizationMode="0" mediaItemType="2" />
    <MediaItem id="4682" filePath="C:\Users\owner\Dropbox\Work\png\animation T=1.04682.png" arWidth="640" arHeight="480" duration="0" songTitle="" songArtist="" songAlbum="" songCopyrightUrl="" songArtistUrl="" songAudioFileUrl="" stabilizationMode="0" mediaItemType="2" />
    <MediaItem id="4683" filePath="C:\Users\owner\Dropbox\Work\png\animation T=1.04683.png" arWidth="640" arHeight="480" duration="0" songTitle="" songArtist="" songAlbum="" songCopyrightUrl="" songArtistUrl="" songAudioFileUrl="" stabilizationMode="0" mediaItemType="2" />
    <MediaItem id="4684" filePath="C:\Users\owner\Dropbox\Work\png\animation T=1.04684.png" arWidth="640" arHeight="480" duration="0" songTitle="" songArtist="" songAlbum="" songCopyrightUrl="" songArtistUrl="" songAudioFileUrl="" stabilizationMode="0" mediaItemType="2" />
    <MediaItem id="4685" filePath="C:\Users\owner\Dropbox\Work\png\animation T=1.04685.png" arWidth="640" arHeight="480" duration="0" songTitle="" songArtist="" songAlbum="" songCopyrightUrl="" songArtistUrl="" songAudioFileUrl="" stabilizationMode="0" mediaItemType="2" />
    <MediaItem id="4686" filePath="C:\Users\owner\Dropbox\Work\png\animation T=1.04686.png" arWidth="640" arHeight="480" duration="0" songTitle="" songArtist="" songAlbum="" songCopyrightUrl="" songArtistUrl="" songAudioFileUrl="" stabilizationMode="0" mediaItemType="2" />
    <MediaItem id="4687" filePath="C:\Users\owner\Dropbox\Work\png\animation T=1.04687.png" arWidth="640" arHeight="480" duration="0" songTitle="" songArtist="" songAlbum="" songCopyrightUrl="" songArtistUrl="" songAudioFileUrl="" stabilizationMode="0" mediaItemType="2" />
    <MediaItem id="4688" filePath="C:\Users\owner\Dropbox\Work\png\animation T=1.04688.png" arWidth="640" arHeight="480" duration="0" songTitle="" songArtist="" songAlbum="" songCopyrightUrl="" songArtistUrl="" songAudioFileUrl="" stabilizationMode="0" mediaItemType="2" />
    <MediaItem id="4689" filePath="C:\Users\owner\Dropbox\Work\png\animation T=1.04689.png" arWidth="640" arHeight="480" duration="0" songTitle="" songArtist="" songAlbum="" songCopyrightUrl="" songArtistUrl="" songAudioFileUrl="" stabilizationMode="0" mediaItemType="2" />
    <MediaItem id="4690" filePath="C:\Users\owner\Dropbox\Work\png\animation T=1.04690.png" arWidth="640" arHeight="480" duration="0" songTitle="" songArtist="" songAlbum="" songCopyrightUrl="" songArtistUrl="" songAudioFileUrl="" stabilizationMode="0" mediaItemType="2" />
    <MediaItem id="4691" filePath="C:\Users\owner\Dropbox\Work\png\animation T=1.04691.png" arWidth="640" arHeight="480" duration="0" songTitle="" songArtist="" songAlbum="" songCopyrightUrl="" songArtistUrl="" songAudioFileUrl="" stabilizationMode="0" mediaItemType="2" />
    <MediaItem id="4692" filePath="C:\Users\owner\Dropbox\Work\png\animation T=1.04692.png" arWidth="640" arHeight="480" duration="0" songTitle="" songArtist="" songAlbum="" songCopyrightUrl="" songArtistUrl="" songAudioFileUrl="" stabilizationMode="0" mediaItemType="2" />
    <MediaItem id="4693" filePath="C:\Users\owner\Dropbox\Work\png\animation T=1.04693.png" arWidth="640" arHeight="480" duration="0" songTitle="" songArtist="" songAlbum="" songCopyrightUrl="" songArtistUrl="" songAudioFileUrl="" stabilizationMode="0" mediaItemType="2" />
    <MediaItem id="4694" filePath="C:\Users\owner\Dropbox\Work\png\animation T=1.04694.png" arWidth="640" arHeight="480" duration="0" songTitle="" songArtist="" songAlbum="" songCopyrightUrl="" songArtistUrl="" songAudioFileUrl="" stabilizationMode="0" mediaItemType="2" />
    <MediaItem id="4695" filePath="C:\Users\owner\Dropbox\Work\png\animation T=1.04695.png" arWidth="640" arHeight="480" duration="0" songTitle="" songArtist="" songAlbum="" songCopyrightUrl="" songArtistUrl="" songAudioFileUrl="" stabilizationMode="0" mediaItemType="2" />
    <MediaItem id="4696" filePath="C:\Users\owner\Dropbox\Work\png\animation T=1.04696.png" arWidth="640" arHeight="480" duration="0" songTitle="" songArtist="" songAlbum="" songCopyrightUrl="" songArtistUrl="" songAudioFileUrl="" stabilizationMode="0" mediaItemType="2" />
    <MediaItem id="4697" filePath="C:\Users\owner\Dropbox\Work\png\animation T=1.04697.png" arWidth="640" arHeight="480" duration="0" songTitle="" songArtist="" songAlbum="" songCopyrightUrl="" songArtistUrl="" songAudioFileUrl="" stabilizationMode="0" mediaItemType="2" />
    <MediaItem id="4698" filePath="C:\Users\owner\Dropbox\Work\png\animation T=1.04698.png" arWidth="640" arHeight="480" duration="0" songTitle="" songArtist="" songAlbum="" songCopyrightUrl="" songArtistUrl="" songAudioFileUrl="" stabilizationMode="0" mediaItemType="2" />
    <MediaItem id="4699" filePath="C:\Users\owner\Dropbox\Work\png\animation T=1.04699.png" arWidth="640" arHeight="480" duration="0" songTitle="" songArtist="" songAlbum="" songCopyrightUrl="" songArtistUrl="" songAudioFileUrl="" stabilizationMode="0" mediaItemType="2" />
    <MediaItem id="4700" filePath="C:\Users\owner\Dropbox\Work\png\animation T=1.04700.png" arWidth="640" arHeight="480" duration="0" songTitle="" songArtist="" songAlbum="" songCopyrightUrl="" songArtistUrl="" songAudioFileUrl="" stabilizationMode="0" mediaItemType="2" />
    <MediaItem id="4701" filePath="C:\Users\owner\Dropbox\Work\png\animation T=1.04701.png" arWidth="640" arHeight="480" duration="0" songTitle="" songArtist="" songAlbum="" songCopyrightUrl="" songArtistUrl="" songAudioFileUrl="" stabilizationMode="0" mediaItemType="2" />
    <MediaItem id="4702" filePath="C:\Users\owner\Dropbox\Work\png\animation T=1.04702.png" arWidth="640" arHeight="480" duration="0" songTitle="" songArtist="" songAlbum="" songCopyrightUrl="" songArtistUrl="" songAudioFileUrl="" stabilizationMode="0" mediaItemType="2" />
    <MediaItem id="4703" filePath="C:\Users\owner\Dropbox\Work\png\animation T=1.04703.png" arWidth="640" arHeight="480" duration="0" songTitle="" songArtist="" songAlbum="" songCopyrightUrl="" songArtistUrl="" songAudioFileUrl="" stabilizationMode="0" mediaItemType="2" />
    <MediaItem id="4704" filePath="C:\Users\owner\Dropbox\Work\png\animation T=1.04704.png" arWidth="640" arHeight="480" duration="0" songTitle="" songArtist="" songAlbum="" songCopyrightUrl="" songArtistUrl="" songAudioFileUrl="" stabilizationMode="0" mediaItemType="2" />
    <MediaItem id="4705" filePath="C:\Users\owner\Dropbox\Work\png\animation T=1.04705.png" arWidth="640" arHeight="480" duration="0" songTitle="" songArtist="" songAlbum="" songCopyrightUrl="" songArtistUrl="" songAudioFileUrl="" stabilizationMode="0" mediaItemType="2" />
    <MediaItem id="4706" filePath="C:\Users\owner\Dropbox\Work\png\animation T=1.04706.png" arWidth="640" arHeight="480" duration="0" songTitle="" songArtist="" songAlbum="" songCopyrightUrl="" songArtistUrl="" songAudioFileUrl="" stabilizationMode="0" mediaItemType="2" />
    <MediaItem id="4707" filePath="C:\Users\owner\Dropbox\Work\png\animation T=1.04707.png" arWidth="640" arHeight="480" duration="0" songTitle="" songArtist="" songAlbum="" songCopyrightUrl="" songArtistUrl="" songAudioFileUrl="" stabilizationMode="0" mediaItemType="2" />
    <MediaItem id="4708" filePath="C:\Users\owner\Dropbox\Work\png\animation T=1.04708.png" arWidth="640" arHeight="480" duration="0" songTitle="" songArtist="" songAlbum="" songCopyrightUrl="" songArtistUrl="" songAudioFileUrl="" stabilizationMode="0" mediaItemType="2" />
    <MediaItem id="4709" filePath="C:\Users\owner\Dropbox\Work\png\animation T=1.04709.png" arWidth="640" arHeight="480" duration="0" songTitle="" songArtist="" songAlbum="" songCopyrightUrl="" songArtistUrl="" songAudioFileUrl="" stabilizationMode="0" mediaItemType="2" />
    <MediaItem id="4710" filePath="C:\Users\owner\Dropbox\Work\png\animation T=1.04710.png" arWidth="640" arHeight="480" duration="0" songTitle="" songArtist="" songAlbum="" songCopyrightUrl="" songArtistUrl="" songAudioFileUrl="" stabilizationMode="0" mediaItemType="2" />
    <MediaItem id="4711" filePath="C:\Users\owner\Dropbox\Work\png\animation T=1.04711.png" arWidth="640" arHeight="480" duration="0" songTitle="" songArtist="" songAlbum="" songCopyrightUrl="" songArtistUrl="" songAudioFileUrl="" stabilizationMode="0" mediaItemType="2" />
    <MediaItem id="4712" filePath="C:\Users\owner\Dropbox\Work\png\animation T=1.04712.png" arWidth="640" arHeight="480" duration="0" songTitle="" songArtist="" songAlbum="" songCopyrightUrl="" songArtistUrl="" songAudioFileUrl="" stabilizationMode="0" mediaItemType="2" />
    <MediaItem id="4713" filePath="C:\Users\owner\Dropbox\Work\png\animation T=1.04713.png" arWidth="640" arHeight="480" duration="0" songTitle="" songArtist="" songAlbum="" songCopyrightUrl="" songArtistUrl="" songAudioFileUrl="" stabilizationMode="0" mediaItemType="2" />
    <MediaItem id="4714" filePath="C:\Users\owner\Dropbox\Work\png\animation T=1.04714.png" arWidth="640" arHeight="480" duration="0" songTitle="" songArtist="" songAlbum="" songCopyrightUrl="" songArtistUrl="" songAudioFileUrl="" stabilizationMode="0" mediaItemType="2" />
    <MediaItem id="4715" filePath="C:\Users\owner\Dropbox\Work\png\animation T=1.04715.png" arWidth="640" arHeight="480" duration="0" songTitle="" songArtist="" songAlbum="" songCopyrightUrl="" songArtistUrl="" songAudioFileUrl="" stabilizationMode="0" mediaItemType="2" />
    <MediaItem id="4716" filePath="C:\Users\owner\Dropbox\Work\png\animation T=1.04716.png" arWidth="640" arHeight="480" duration="0" songTitle="" songArtist="" songAlbum="" songCopyrightUrl="" songArtistUrl="" songAudioFileUrl="" stabilizationMode="0" mediaItemType="2" />
    <MediaItem id="4717" filePath="C:\Users\owner\Dropbox\Work\png\animation T=1.04717.png" arWidth="640" arHeight="480" duration="0" songTitle="" songArtist="" songAlbum="" songCopyrightUrl="" songArtistUrl="" songAudioFileUrl="" stabilizationMode="0" mediaItemType="2" />
    <MediaItem id="4718" filePath="C:\Users\owner\Dropbox\Work\png\animation T=1.04718.png" arWidth="640" arHeight="480" duration="0" songTitle="" songArtist="" songAlbum="" songCopyrightUrl="" songArtistUrl="" songAudioFileUrl="" stabilizationMode="0" mediaItemType="2" />
    <MediaItem id="4719" filePath="C:\Users\owner\Dropbox\Work\png\animation T=1.04719.png" arWidth="640" arHeight="480" duration="0" songTitle="" songArtist="" songAlbum="" songCopyrightUrl="" songArtistUrl="" songAudioFileUrl="" stabilizationMode="0" mediaItemType="2" />
    <MediaItem id="4720" filePath="C:\Users\owner\Dropbox\Work\png\animation T=1.04720.png" arWidth="640" arHeight="480" duration="0" songTitle="" songArtist="" songAlbum="" songCopyrightUrl="" songArtistUrl="" songAudioFileUrl="" stabilizationMode="0" mediaItemType="2" />
    <MediaItem id="4721" filePath="C:\Users\owner\Dropbox\Work\png\animation T=1.04721.png" arWidth="640" arHeight="480" duration="0" songTitle="" songArtist="" songAlbum="" songCopyrightUrl="" songArtistUrl="" songAudioFileUrl="" stabilizationMode="0" mediaItemType="2" />
    <MediaItem id="4722" filePath="C:\Users\owner\Dropbox\Work\png\animation T=1.04722.png" arWidth="640" arHeight="480" duration="0" songTitle="" songArtist="" songAlbum="" songCopyrightUrl="" songArtistUrl="" songAudioFileUrl="" stabilizationMode="0" mediaItemType="2" />
    <MediaItem id="4723" filePath="C:\Users\owner\Dropbox\Work\png\animation T=1.04723.png" arWidth="640" arHeight="480" duration="0" songTitle="" songArtist="" songAlbum="" songCopyrightUrl="" songArtistUrl="" songAudioFileUrl="" stabilizationMode="0" mediaItemType="2" />
    <MediaItem id="4724" filePath="C:\Users\owner\Dropbox\Work\png\animation T=1.04724.png" arWidth="640" arHeight="480" duration="0" songTitle="" songArtist="" songAlbum="" songCopyrightUrl="" songArtistUrl="" songAudioFileUrl="" stabilizationMode="0" mediaItemType="2" />
    <MediaItem id="4725" filePath="C:\Users\owner\Dropbox\Work\png\animation T=1.04725.png" arWidth="640" arHeight="480" duration="0" songTitle="" songArtist="" songAlbum="" songCopyrightUrl="" songArtistUrl="" songAudioFileUrl="" stabilizationMode="0" mediaItemType="2" />
    <MediaItem id="4726" filePath="C:\Users\owner\Dropbox\Work\png\animation T=1.04726.png" arWidth="640" arHeight="480" duration="0" songTitle="" songArtist="" songAlbum="" songCopyrightUrl="" songArtistUrl="" songAudioFileUrl="" stabilizationMode="0" mediaItemType="2" />
    <MediaItem id="4727" filePath="C:\Users\owner\Dropbox\Work\png\animation T=1.04727.png" arWidth="640" arHeight="480" duration="0" songTitle="" songArtist="" songAlbum="" songCopyrightUrl="" songArtistUrl="" songAudioFileUrl="" stabilizationMode="0" mediaItemType="2" />
    <MediaItem id="4728" filePath="C:\Users\owner\Dropbox\Work\png\animation T=1.04728.png" arWidth="640" arHeight="480" duration="0" songTitle="" songArtist="" songAlbum="" songCopyrightUrl="" songArtistUrl="" songAudioFileUrl="" stabilizationMode="0" mediaItemType="2" />
    <MediaItem id="4729" filePath="C:\Users\owner\Dropbox\Work\png\animation T=1.04729.png" arWidth="640" arHeight="480" duration="0" songTitle="" songArtist="" songAlbum="" songCopyrightUrl="" songArtistUrl="" songAudioFileUrl="" stabilizationMode="0" mediaItemType="2" />
    <MediaItem id="4730" filePath="C:\Users\owner\Dropbox\Work\png\animation T=1.04730.png" arWidth="640" arHeight="480" duration="0" songTitle="" songArtist="" songAlbum="" songCopyrightUrl="" songArtistUrl="" songAudioFileUrl="" stabilizationMode="0" mediaItemType="2" />
    <MediaItem id="4731" filePath="C:\Users\owner\Dropbox\Work\png\animation T=1.04731.png" arWidth="640" arHeight="480" duration="0" songTitle="" songArtist="" songAlbum="" songCopyrightUrl="" songArtistUrl="" songAudioFileUrl="" stabilizationMode="0" mediaItemType="2" />
    <MediaItem id="4732" filePath="C:\Users\owner\Dropbox\Work\png\animation T=1.04732.png" arWidth="640" arHeight="480" duration="0" songTitle="" songArtist="" songAlbum="" songCopyrightUrl="" songArtistUrl="" songAudioFileUrl="" stabilizationMode="0" mediaItemType="2" />
    <MediaItem id="4733" filePath="C:\Users\owner\Dropbox\Work\png\animation T=1.04733.png" arWidth="640" arHeight="480" duration="0" songTitle="" songArtist="" songAlbum="" songCopyrightUrl="" songArtistUrl="" songAudioFileUrl="" stabilizationMode="0" mediaItemType="2" />
    <MediaItem id="4734" filePath="C:\Users\owner\Dropbox\Work\png\animation T=1.04734.png" arWidth="640" arHeight="480" duration="0" songTitle="" songArtist="" songAlbum="" songCopyrightUrl="" songArtistUrl="" songAudioFileUrl="" stabilizationMode="0" mediaItemType="2" />
    <MediaItem id="4735" filePath="C:\Users\owner\Dropbox\Work\png\animation T=1.04735.png" arWidth="640" arHeight="480" duration="0" songTitle="" songArtist="" songAlbum="" songCopyrightUrl="" songArtistUrl="" songAudioFileUrl="" stabilizationMode="0" mediaItemType="2" />
    <MediaItem id="4736" filePath="C:\Users\owner\Dropbox\Work\png\animation T=1.04736.png" arWidth="640" arHeight="480" duration="0" songTitle="" songArtist="" songAlbum="" songCopyrightUrl="" songArtistUrl="" songAudioFileUrl="" stabilizationMode="0" mediaItemType="2" />
    <MediaItem id="4737" filePath="C:\Users\owner\Dropbox\Work\png\animation T=1.04737.png" arWidth="640" arHeight="480" duration="0" songTitle="" songArtist="" songAlbum="" songCopyrightUrl="" songArtistUrl="" songAudioFileUrl="" stabilizationMode="0" mediaItemType="2" />
    <MediaItem id="4738" filePath="C:\Users\owner\Dropbox\Work\png\animation T=1.04738.png" arWidth="640" arHeight="480" duration="0" songTitle="" songArtist="" songAlbum="" songCopyrightUrl="" songArtistUrl="" songAudioFileUrl="" stabilizationMode="0" mediaItemType="2" />
    <MediaItem id="4739" filePath="C:\Users\owner\Dropbox\Work\png\animation T=1.04739.png" arWidth="640" arHeight="480" duration="0" songTitle="" songArtist="" songAlbum="" songCopyrightUrl="" songArtistUrl="" songAudioFileUrl="" stabilizationMode="0" mediaItemType="2" />
    <MediaItem id="4740" filePath="C:\Users\owner\Dropbox\Work\png\animation T=1.04740.png" arWidth="640" arHeight="480" duration="0" songTitle="" songArtist="" songAlbum="" songCopyrightUrl="" songArtistUrl="" songAudioFileUrl="" stabilizationMode="0" mediaItemType="2" />
    <MediaItem id="4741" filePath="C:\Users\owner\Dropbox\Work\png\animation T=1.04741.png" arWidth="640" arHeight="480" duration="0" songTitle="" songArtist="" songAlbum="" songCopyrightUrl="" songArtistUrl="" songAudioFileUrl="" stabilizationMode="0" mediaItemType="2" />
    <MediaItem id="4742" filePath="C:\Users\owner\Dropbox\Work\png\animation T=1.04742.png" arWidth="640" arHeight="480" duration="0" songTitle="" songArtist="" songAlbum="" songCopyrightUrl="" songArtistUrl="" songAudioFileUrl="" stabilizationMode="0" mediaItemType="2" />
    <MediaItem id="4743" filePath="C:\Users\owner\Dropbox\Work\png\animation T=1.04743.png" arWidth="640" arHeight="480" duration="0" songTitle="" songArtist="" songAlbum="" songCopyrightUrl="" songArtistUrl="" songAudioFileUrl="" stabilizationMode="0" mediaItemType="2" />
    <MediaItem id="4744" filePath="C:\Users\owner\Dropbox\Work\png\animation T=1.04744.png" arWidth="640" arHeight="480" duration="0" songTitle="" songArtist="" songAlbum="" songCopyrightUrl="" songArtistUrl="" songAudioFileUrl="" stabilizationMode="0" mediaItemType="2" />
    <MediaItem id="4745" filePath="C:\Users\owner\Dropbox\Work\png\animation T=1.04745.png" arWidth="640" arHeight="480" duration="0" songTitle="" songArtist="" songAlbum="" songCopyrightUrl="" songArtistUrl="" songAudioFileUrl="" stabilizationMode="0" mediaItemType="2" />
    <MediaItem id="4746" filePath="C:\Users\owner\Dropbox\Work\png\animation T=1.04746.png" arWidth="640" arHeight="480" duration="0" songTitle="" songArtist="" songAlbum="" songCopyrightUrl="" songArtistUrl="" songAudioFileUrl="" stabilizationMode="0" mediaItemType="2" />
    <MediaItem id="4747" filePath="C:\Users\owner\Dropbox\Work\png\animation T=1.04747.png" arWidth="640" arHeight="480" duration="0" songTitle="" songArtist="" songAlbum="" songCopyrightUrl="" songArtistUrl="" songAudioFileUrl="" stabilizationMode="0" mediaItemType="2" />
    <MediaItem id="4748" filePath="C:\Users\owner\Dropbox\Work\png\animation T=1.04748.png" arWidth="640" arHeight="480" duration="0" songTitle="" songArtist="" songAlbum="" songCopyrightUrl="" songArtistUrl="" songAudioFileUrl="" stabilizationMode="0" mediaItemType="2" />
    <MediaItem id="4749" filePath="C:\Users\owner\Dropbox\Work\png\animation T=1.04749.png" arWidth="640" arHeight="480" duration="0" songTitle="" songArtist="" songAlbum="" songCopyrightUrl="" songArtistUrl="" songAudioFileUrl="" stabilizationMode="0" mediaItemType="2" />
    <MediaItem id="4750" filePath="C:\Users\owner\Dropbox\Work\png\animation T=1.04750.png" arWidth="640" arHeight="480" duration="0" songTitle="" songArtist="" songAlbum="" songCopyrightUrl="" songArtistUrl="" songAudioFileUrl="" stabilizationMode="0" mediaItemType="2" />
    <MediaItem id="4751" filePath="C:\Users\owner\Dropbox\Work\png\animation T=1.04751.png" arWidth="640" arHeight="480" duration="0" songTitle="" songArtist="" songAlbum="" songCopyrightUrl="" songArtistUrl="" songAudioFileUrl="" stabilizationMode="0" mediaItemType="2" />
    <MediaItem id="4752" filePath="C:\Users\owner\Dropbox\Work\png\animation T=1.04752.png" arWidth="640" arHeight="480" duration="0" songTitle="" songArtist="" songAlbum="" songCopyrightUrl="" songArtistUrl="" songAudioFileUrl="" stabilizationMode="0" mediaItemType="2" />
    <MediaItem id="4753" filePath="C:\Users\owner\Dropbox\Work\png\animation T=1.04753.png" arWidth="640" arHeight="480" duration="0" songTitle="" songArtist="" songAlbum="" songCopyrightUrl="" songArtistUrl="" songAudioFileUrl="" stabilizationMode="0" mediaItemType="2" />
    <MediaItem id="4754" filePath="C:\Users\owner\Dropbox\Work\png\animation T=1.04754.png" arWidth="640" arHeight="480" duration="0" songTitle="" songArtist="" songAlbum="" songCopyrightUrl="" songArtistUrl="" songAudioFileUrl="" stabilizationMode="0" mediaItemType="2" />
    <MediaItem id="4755" filePath="C:\Users\owner\Dropbox\Work\png\animation T=1.04755.png" arWidth="640" arHeight="480" duration="0" songTitle="" songArtist="" songAlbum="" songCopyrightUrl="" songArtistUrl="" songAudioFileUrl="" stabilizationMode="0" mediaItemType="2" />
    <MediaItem id="4756" filePath="C:\Users\owner\Dropbox\Work\png\animation T=1.04756.png" arWidth="640" arHeight="480" duration="0" songTitle="" songArtist="" songAlbum="" songCopyrightUrl="" songArtistUrl="" songAudioFileUrl="" stabilizationMode="0" mediaItemType="2" />
    <MediaItem id="4757" filePath="C:\Users\owner\Dropbox\Work\png\animation T=1.04757.png" arWidth="640" arHeight="480" duration="0" songTitle="" songArtist="" songAlbum="" songCopyrightUrl="" songArtistUrl="" songAudioFileUrl="" stabilizationMode="0" mediaItemType="2" />
    <MediaItem id="4758" filePath="C:\Users\owner\Dropbox\Work\png\animation T=1.04758.png" arWidth="640" arHeight="480" duration="0" songTitle="" songArtist="" songAlbum="" songCopyrightUrl="" songArtistUrl="" songAudioFileUrl="" stabilizationMode="0" mediaItemType="2" />
    <MediaItem id="4759" filePath="C:\Users\owner\Dropbox\Work\png\animation T=1.04759.png" arWidth="640" arHeight="480" duration="0" songTitle="" songArtist="" songAlbum="" songCopyrightUrl="" songArtistUrl="" songAudioFileUrl="" stabilizationMode="0" mediaItemType="2" />
    <MediaItem id="4760" filePath="C:\Users\owner\Dropbox\Work\png\animation T=1.04760.png" arWidth="640" arHeight="480" duration="0" songTitle="" songArtist="" songAlbum="" songCopyrightUrl="" songArtistUrl="" songAudioFileUrl="" stabilizationMode="0" mediaItemType="2" />
    <MediaItem id="4761" filePath="C:\Users\owner\Dropbox\Work\png\animation T=1.04761.png" arWidth="640" arHeight="480" duration="0" songTitle="" songArtist="" songAlbum="" songCopyrightUrl="" songArtistUrl="" songAudioFileUrl="" stabilizationMode="0" mediaItemType="2" />
    <MediaItem id="4762" filePath="C:\Users\owner\Dropbox\Work\png\animation T=1.04762.png" arWidth="640" arHeight="480" duration="0" songTitle="" songArtist="" songAlbum="" songCopyrightUrl="" songArtistUrl="" songAudioFileUrl="" stabilizationMode="0" mediaItemType="2" />
    <MediaItem id="4763" filePath="C:\Users\owner\Dropbox\Work\png\animation T=1.04763.png" arWidth="640" arHeight="480" duration="0" songTitle="" songArtist="" songAlbum="" songCopyrightUrl="" songArtistUrl="" songAudioFileUrl="" stabilizationMode="0" mediaItemType="2" />
    <MediaItem id="4764" filePath="C:\Users\owner\Dropbox\Work\png\animation T=1.04764.png" arWidth="640" arHeight="480" duration="0" songTitle="" songArtist="" songAlbum="" songCopyrightUrl="" songArtistUrl="" songAudioFileUrl="" stabilizationMode="0" mediaItemType="2" />
    <MediaItem id="4765" filePath="C:\Users\owner\Dropbox\Work\png\animation T=1.04765.png" arWidth="640" arHeight="480" duration="0" songTitle="" songArtist="" songAlbum="" songCopyrightUrl="" songArtistUrl="" songAudioFileUrl="" stabilizationMode="0" mediaItemType="2" />
    <MediaItem id="4766" filePath="C:\Users\owner\Dropbox\Work\png\animation T=1.04766.png" arWidth="640" arHeight="480" duration="0" songTitle="" songArtist="" songAlbum="" songCopyrightUrl="" songArtistUrl="" songAudioFileUrl="" stabilizationMode="0" mediaItemType="2" />
    <MediaItem id="4767" filePath="C:\Users\owner\Dropbox\Work\png\animation T=1.04767.png" arWidth="640" arHeight="480" duration="0" songTitle="" songArtist="" songAlbum="" songCopyrightUrl="" songArtistUrl="" songAudioFileUrl="" stabilizationMode="0" mediaItemType="2" />
    <MediaItem id="4768" filePath="C:\Users\owner\Dropbox\Work\png\animation T=1.04768.png" arWidth="640" arHeight="480" duration="0" songTitle="" songArtist="" songAlbum="" songCopyrightUrl="" songArtistUrl="" songAudioFileUrl="" stabilizationMode="0" mediaItemType="2" />
    <MediaItem id="4769" filePath="C:\Users\owner\Dropbox\Work\png\animation T=1.04769.png" arWidth="640" arHeight="480" duration="0" songTitle="" songArtist="" songAlbum="" songCopyrightUrl="" songArtistUrl="" songAudioFileUrl="" stabilizationMode="0" mediaItemType="2" />
    <MediaItem id="4770" filePath="C:\Users\owner\Dropbox\Work\png\animation T=1.04770.png" arWidth="640" arHeight="480" duration="0" songTitle="" songArtist="" songAlbum="" songCopyrightUrl="" songArtistUrl="" songAudioFileUrl="" stabilizationMode="0" mediaItemType="2" />
    <MediaItem id="4771" filePath="C:\Users\owner\Dropbox\Work\png\animation T=1.04771.png" arWidth="640" arHeight="480" duration="0" songTitle="" songArtist="" songAlbum="" songCopyrightUrl="" songArtistUrl="" songAudioFileUrl="" stabilizationMode="0" mediaItemType="2" />
    <MediaItem id="4772" filePath="C:\Users\owner\Dropbox\Work\png\animation T=1.04772.png" arWidth="640" arHeight="480" duration="0" songTitle="" songArtist="" songAlbum="" songCopyrightUrl="" songArtistUrl="" songAudioFileUrl="" stabilizationMode="0" mediaItemType="2" />
    <MediaItem id="4773" filePath="C:\Users\owner\Dropbox\Work\png\animation T=1.04773.png" arWidth="640" arHeight="480" duration="0" songTitle="" songArtist="" songAlbum="" songCopyrightUrl="" songArtistUrl="" songAudioFileUrl="" stabilizationMode="0" mediaItemType="2" />
    <MediaItem id="4774" filePath="C:\Users\owner\Dropbox\Work\png\animation T=1.04774.png" arWidth="640" arHeight="480" duration="0" songTitle="" songArtist="" songAlbum="" songCopyrightUrl="" songArtistUrl="" songAudioFileUrl="" stabilizationMode="0" mediaItemType="2" />
    <MediaItem id="4775" filePath="C:\Users\owner\Dropbox\Work\png\animation T=1.04775.png" arWidth="640" arHeight="480" duration="0" songTitle="" songArtist="" songAlbum="" songCopyrightUrl="" songArtistUrl="" songAudioFileUrl="" stabilizationMode="0" mediaItemType="2" />
    <MediaItem id="4776" filePath="C:\Users\owner\Dropbox\Work\png\animation T=1.04776.png" arWidth="640" arHeight="480" duration="0" songTitle="" songArtist="" songAlbum="" songCopyrightUrl="" songArtistUrl="" songAudioFileUrl="" stabilizationMode="0" mediaItemType="2" />
    <MediaItem id="4777" filePath="C:\Users\owner\Dropbox\Work\png\animation T=1.04777.png" arWidth="640" arHeight="480" duration="0" songTitle="" songArtist="" songAlbum="" songCopyrightUrl="" songArtistUrl="" songAudioFileUrl="" stabilizationMode="0" mediaItemType="2" />
    <MediaItem id="4778" filePath="C:\Users\owner\Dropbox\Work\png\animation T=1.04778.png" arWidth="640" arHeight="480" duration="0" songTitle="" songArtist="" songAlbum="" songCopyrightUrl="" songArtistUrl="" songAudioFileUrl="" stabilizationMode="0" mediaItemType="2" />
    <MediaItem id="4779" filePath="C:\Users\owner\Dropbox\Work\png\animation T=1.04779.png" arWidth="640" arHeight="480" duration="0" songTitle="" songArtist="" songAlbum="" songCopyrightUrl="" songArtistUrl="" songAudioFileUrl="" stabilizationMode="0" mediaItemType="2" />
    <MediaItem id="4780" filePath="C:\Users\owner\Dropbox\Work\png\animation T=1.04780.png" arWidth="640" arHeight="480" duration="0" songTitle="" songArtist="" songAlbum="" songCopyrightUrl="" songArtistUrl="" songAudioFileUrl="" stabilizationMode="0" mediaItemType="2" />
    <MediaItem id="4781" filePath="C:\Users\owner\Dropbox\Work\png\animation T=1.04781.png" arWidth="640" arHeight="480" duration="0" songTitle="" songArtist="" songAlbum="" songCopyrightUrl="" songArtistUrl="" songAudioFileUrl="" stabilizationMode="0" mediaItemType="2" />
    <MediaItem id="4782" filePath="C:\Users\owner\Dropbox\Work\png\animation T=1.04782.png" arWidth="640" arHeight="480" duration="0" songTitle="" songArtist="" songAlbum="" songCopyrightUrl="" songArtistUrl="" songAudioFileUrl="" stabilizationMode="0" mediaItemType="2" />
    <MediaItem id="4783" filePath="C:\Users\owner\Dropbox\Work\png\animation T=1.04783.png" arWidth="640" arHeight="480" duration="0" songTitle="" songArtist="" songAlbum="" songCopyrightUrl="" songArtistUrl="" songAudioFileUrl="" stabilizationMode="0" mediaItemType="2" />
    <MediaItem id="4784" filePath="C:\Users\owner\Dropbox\Work\png\animation T=1.04784.png" arWidth="640" arHeight="480" duration="0" songTitle="" songArtist="" songAlbum="" songCopyrightUrl="" songArtistUrl="" songAudioFileUrl="" stabilizationMode="0" mediaItemType="2" />
    <MediaItem id="4785" filePath="C:\Users\owner\Dropbox\Work\png\animation T=1.04785.png" arWidth="640" arHeight="480" duration="0" songTitle="" songArtist="" songAlbum="" songCopyrightUrl="" songArtistUrl="" songAudioFileUrl="" stabilizationMode="0" mediaItemType="2" />
    <MediaItem id="4786" filePath="C:\Users\owner\Dropbox\Work\png\animation T=1.04786.png" arWidth="640" arHeight="480" duration="0" songTitle="" songArtist="" songAlbum="" songCopyrightUrl="" songArtistUrl="" songAudioFileUrl="" stabilizationMode="0" mediaItemType="2" />
    <MediaItem id="4787" filePath="C:\Users\owner\Dropbox\Work\png\animation T=1.04787.png" arWidth="640" arHeight="480" duration="0" songTitle="" songArtist="" songAlbum="" songCopyrightUrl="" songArtistUrl="" songAudioFileUrl="" stabilizationMode="0" mediaItemType="2" />
    <MediaItem id="4788" filePath="C:\Users\owner\Dropbox\Work\png\animation T=1.04788.png" arWidth="640" arHeight="480" duration="0" songTitle="" songArtist="" songAlbum="" songCopyrightUrl="" songArtistUrl="" songAudioFileUrl="" stabilizationMode="0" mediaItemType="2" />
    <MediaItem id="4789" filePath="C:\Users\owner\Dropbox\Work\png\animation T=1.04789.png" arWidth="640" arHeight="480" duration="0" songTitle="" songArtist="" songAlbum="" songCopyrightUrl="" songArtistUrl="" songAudioFileUrl="" stabilizationMode="0" mediaItemType="2" />
    <MediaItem id="4790" filePath="C:\Users\owner\Dropbox\Work\png\animation T=1.04790.png" arWidth="640" arHeight="480" duration="0" songTitle="" songArtist="" songAlbum="" songCopyrightUrl="" songArtistUrl="" songAudioFileUrl="" stabilizationMode="0" mediaItemType="2" />
    <MediaItem id="4791" filePath="C:\Users\owner\Dropbox\Work\png\animation T=1.04791.png" arWidth="640" arHeight="480" duration="0" songTitle="" songArtist="" songAlbum="" songCopyrightUrl="" songArtistUrl="" songAudioFileUrl="" stabilizationMode="0" mediaItemType="2" />
    <MediaItem id="4792" filePath="C:\Users\owner\Dropbox\Work\png\animation T=1.04792.png" arWidth="640" arHeight="480" duration="0" songTitle="" songArtist="" songAlbum="" songCopyrightUrl="" songArtistUrl="" songAudioFileUrl="" stabilizationMode="0" mediaItemType="2" />
    <MediaItem id="4793" filePath="C:\Users\owner\Dropbox\Work\png\animation T=1.04793.png" arWidth="640" arHeight="480" duration="0" songTitle="" songArtist="" songAlbum="" songCopyrightUrl="" songArtistUrl="" songAudioFileUrl="" stabilizationMode="0" mediaItemType="2" />
    <MediaItem id="4794" filePath="C:\Users\owner\Dropbox\Work\png\animation T=1.04794.png" arWidth="640" arHeight="480" duration="0" songTitle="" songArtist="" songAlbum="" songCopyrightUrl="" songArtistUrl="" songAudioFileUrl="" stabilizationMode="0" mediaItemType="2" />
    <MediaItem id="4795" filePath="C:\Users\owner\Dropbox\Work\png\animation T=1.04795.png" arWidth="640" arHeight="480" duration="0" songTitle="" songArtist="" songAlbum="" songCopyrightUrl="" songArtistUrl="" songAudioFileUrl="" stabilizationMode="0" mediaItemType="2" />
    <MediaItem id="4796" filePath="C:\Users\owner\Dropbox\Work\png\animation T=1.04796.png" arWidth="640" arHeight="480" duration="0" songTitle="" songArtist="" songAlbum="" songCopyrightUrl="" songArtistUrl="" songAudioFileUrl="" stabilizationMode="0" mediaItemType="2" />
    <MediaItem id="4797" filePath="C:\Users\owner\Dropbox\Work\png\animation T=1.04797.png" arWidth="640" arHeight="480" duration="0" songTitle="" songArtist="" songAlbum="" songCopyrightUrl="" songArtistUrl="" songAudioFileUrl="" stabilizationMode="0" mediaItemType="2" />
    <MediaItem id="4798" filePath="C:\Users\owner\Dropbox\Work\png\animation T=1.04798.png" arWidth="640" arHeight="480" duration="0" songTitle="" songArtist="" songAlbum="" songCopyrightUrl="" songArtistUrl="" songAudioFileUrl="" stabilizationMode="0" mediaItemType="2" />
    <MediaItem id="4799" filePath="C:\Users\owner\Dropbox\Work\png\animation T=1.04799.png" arWidth="640" arHeight="480" duration="0" songTitle="" songArtist="" songAlbum="" songCopyrightUrl="" songArtistUrl="" songAudioFileUrl="" stabilizationMode="0" mediaItemType="2" />
    <MediaItem id="4800" filePath="C:\Users\owner\Dropbox\Work\png\animation T=1.04800.png" arWidth="640" arHeight="480" duration="0" songTitle="" songArtist="" songAlbum="" songCopyrightUrl="" songArtistUrl="" songAudioFileUrl="" stabilizationMode="0" mediaItemType="2" />
    <MediaItem id="4801" filePath="C:\Users\owner\Dropbox\Work\png\animation T=1.04801.png" arWidth="640" arHeight="480" duration="0" songTitle="" songArtist="" songAlbum="" songCopyrightUrl="" songArtistUrl="" songAudioFileUrl="" stabilizationMode="0" mediaItemType="2" />
    <MediaItem id="4802" filePath="C:\Users\owner\Dropbox\Work\png\animation T=1.04802.png" arWidth="640" arHeight="480" duration="0" songTitle="" songArtist="" songAlbum="" songCopyrightUrl="" songArtistUrl="" songAudioFileUrl="" stabilizationMode="0" mediaItemType="2" />
    <MediaItem id="4803" filePath="C:\Users\owner\Dropbox\Work\png\animation T=1.04803.png" arWidth="640" arHeight="480" duration="0" songTitle="" songArtist="" songAlbum="" songCopyrightUrl="" songArtistUrl="" songAudioFileUrl="" stabilizationMode="0" mediaItemType="2" />
    <MediaItem id="4804" filePath="C:\Users\owner\Dropbox\Work\png\animation T=1.04804.png" arWidth="640" arHeight="480" duration="0" songTitle="" songArtist="" songAlbum="" songCopyrightUrl="" songArtistUrl="" songAudioFileUrl="" stabilizationMode="0" mediaItemType="2" />
    <MediaItem id="4805" filePath="C:\Users\owner\Dropbox\Work\png\animation T=1.04805.png" arWidth="640" arHeight="480" duration="0" songTitle="" songArtist="" songAlbum="" songCopyrightUrl="" songArtistUrl="" songAudioFileUrl="" stabilizationMode="0" mediaItemType="2" />
    <MediaItem id="4806" filePath="C:\Users\owner\Dropbox\Work\png\animation T=1.04806.png" arWidth="640" arHeight="480" duration="0" songTitle="" songArtist="" songAlbum="" songCopyrightUrl="" songArtistUrl="" songAudioFileUrl="" stabilizationMode="0" mediaItemType="2" />
    <MediaItem id="4807" filePath="C:\Users\owner\Dropbox\Work\png\animation T=1.04807.png" arWidth="640" arHeight="480" duration="0" songTitle="" songArtist="" songAlbum="" songCopyrightUrl="" songArtistUrl="" songAudioFileUrl="" stabilizationMode="0" mediaItemType="2" />
    <MediaItem id="4808" filePath="C:\Users\owner\Dropbox\Work\png\animation T=1.04808.png" arWidth="640" arHeight="480" duration="0" songTitle="" songArtist="" songAlbum="" songCopyrightUrl="" songArtistUrl="" songAudioFileUrl="" stabilizationMode="0" mediaItemType="2" />
    <MediaItem id="4809" filePath="C:\Users\owner\Dropbox\Work\png\animation T=1.04809.png" arWidth="640" arHeight="480" duration="0" songTitle="" songArtist="" songAlbum="" songCopyrightUrl="" songArtistUrl="" songAudioFileUrl="" stabilizationMode="0" mediaItemType="2" />
    <MediaItem id="4810" filePath="C:\Users\owner\Dropbox\Work\png\animation T=1.04810.png" arWidth="640" arHeight="480" duration="0" songTitle="" songArtist="" songAlbum="" songCopyrightUrl="" songArtistUrl="" songAudioFileUrl="" stabilizationMode="0" mediaItemType="2" />
    <MediaItem id="4811" filePath="C:\Users\owner\Dropbox\Work\png\animation T=1.04811.png" arWidth="640" arHeight="480" duration="0" songTitle="" songArtist="" songAlbum="" songCopyrightUrl="" songArtistUrl="" songAudioFileUrl="" stabilizationMode="0" mediaItemType="2" />
    <MediaItem id="4812" filePath="C:\Users\owner\Dropbox\Work\png\animation T=1.04812.png" arWidth="640" arHeight="480" duration="0" songTitle="" songArtist="" songAlbum="" songCopyrightUrl="" songArtistUrl="" songAudioFileUrl="" stabilizationMode="0" mediaItemType="2" />
    <MediaItem id="4813" filePath="C:\Users\owner\Dropbox\Work\png\animation T=1.04813.png" arWidth="640" arHeight="480" duration="0" songTitle="" songArtist="" songAlbum="" songCopyrightUrl="" songArtistUrl="" songAudioFileUrl="" stabilizationMode="0" mediaItemType="2" />
    <MediaItem id="4814" filePath="C:\Users\owner\Dropbox\Work\png\animation T=1.04814.png" arWidth="640" arHeight="480" duration="0" songTitle="" songArtist="" songAlbum="" songCopyrightUrl="" songArtistUrl="" songAudioFileUrl="" stabilizationMode="0" mediaItemType="2" />
    <MediaItem id="4815" filePath="C:\Users\owner\Dropbox\Work\png\animation T=1.04815.png" arWidth="640" arHeight="480" duration="0" songTitle="" songArtist="" songAlbum="" songCopyrightUrl="" songArtistUrl="" songAudioFileUrl="" stabilizationMode="0" mediaItemType="2" />
    <MediaItem id="4816" filePath="C:\Users\owner\Dropbox\Work\png\animation T=1.04816.png" arWidth="640" arHeight="480" duration="0" songTitle="" songArtist="" songAlbum="" songCopyrightUrl="" songArtistUrl="" songAudioFileUrl="" stabilizationMode="0" mediaItemType="2" />
    <MediaItem id="4817" filePath="C:\Users\owner\Dropbox\Work\png\animation T=1.04817.png" arWidth="640" arHeight="480" duration="0" songTitle="" songArtist="" songAlbum="" songCopyrightUrl="" songArtistUrl="" songAudioFileUrl="" stabilizationMode="0" mediaItemType="2" />
    <MediaItem id="4818" filePath="C:\Users\owner\Dropbox\Work\png\animation T=1.04818.png" arWidth="640" arHeight="480" duration="0" songTitle="" songArtist="" songAlbum="" songCopyrightUrl="" songArtistUrl="" songAudioFileUrl="" stabilizationMode="0" mediaItemType="2" />
    <MediaItem id="4819" filePath="C:\Users\owner\Dropbox\Work\png\animation T=1.04819.png" arWidth="640" arHeight="480" duration="0" songTitle="" songArtist="" songAlbum="" songCopyrightUrl="" songArtistUrl="" songAudioFileUrl="" stabilizationMode="0" mediaItemType="2" />
    <MediaItem id="4820" filePath="C:\Users\owner\Dropbox\Work\png\animation T=1.04820.png" arWidth="640" arHeight="480" duration="0" songTitle="" songArtist="" songAlbum="" songCopyrightUrl="" songArtistUrl="" songAudioFileUrl="" stabilizationMode="0" mediaItemType="2" />
    <MediaItem id="4821" filePath="C:\Users\owner\Dropbox\Work\png\animation T=1.04821.png" arWidth="640" arHeight="480" duration="0" songTitle="" songArtist="" songAlbum="" songCopyrightUrl="" songArtistUrl="" songAudioFileUrl="" stabilizationMode="0" mediaItemType="2" />
    <MediaItem id="4822" filePath="C:\Users\owner\Dropbox\Work\png\animation T=1.04822.png" arWidth="640" arHeight="480" duration="0" songTitle="" songArtist="" songAlbum="" songCopyrightUrl="" songArtistUrl="" songAudioFileUrl="" stabilizationMode="0" mediaItemType="2" />
    <MediaItem id="4823" filePath="C:\Users\owner\Dropbox\Work\png\animation T=1.04823.png" arWidth="640" arHeight="480" duration="0" songTitle="" songArtist="" songAlbum="" songCopyrightUrl="" songArtistUrl="" songAudioFileUrl="" stabilizationMode="0" mediaItemType="2" />
    <MediaItem id="4824" filePath="C:\Users\owner\Dropbox\Work\png\animation T=1.04824.png" arWidth="640" arHeight="480" duration="0" songTitle="" songArtist="" songAlbum="" songCopyrightUrl="" songArtistUrl="" songAudioFileUrl="" stabilizationMode="0" mediaItemType="2" />
    <MediaItem id="4825" filePath="C:\Users\owner\Dropbox\Work\png\animation T=1.04825.png" arWidth="640" arHeight="480" duration="0" songTitle="" songArtist="" songAlbum="" songCopyrightUrl="" songArtistUrl="" songAudioFileUrl="" stabilizationMode="0" mediaItemType="2" />
    <MediaItem id="4826" filePath="C:\Users\owner\Dropbox\Work\png\animation T=1.04826.png" arWidth="640" arHeight="480" duration="0" songTitle="" songArtist="" songAlbum="" songCopyrightUrl="" songArtistUrl="" songAudioFileUrl="" stabilizationMode="0" mediaItemType="2" />
    <MediaItem id="4827" filePath="C:\Users\owner\Dropbox\Work\png\animation T=1.04827.png" arWidth="640" arHeight="480" duration="0" songTitle="" songArtist="" songAlbum="" songCopyrightUrl="" songArtistUrl="" songAudioFileUrl="" stabilizationMode="0" mediaItemType="2" />
    <MediaItem id="4828" filePath="C:\Users\owner\Dropbox\Work\png\animation T=1.04828.png" arWidth="640" arHeight="480" duration="0" songTitle="" songArtist="" songAlbum="" songCopyrightUrl="" songArtistUrl="" songAudioFileUrl="" stabilizationMode="0" mediaItemType="2" />
    <MediaItem id="4829" filePath="C:\Users\owner\Dropbox\Work\png\animation T=1.04829.png" arWidth="640" arHeight="480" duration="0" songTitle="" songArtist="" songAlbum="" songCopyrightUrl="" songArtistUrl="" songAudioFileUrl="" stabilizationMode="0" mediaItemType="2" />
    <MediaItem id="4830" filePath="C:\Users\owner\Dropbox\Work\png\animation T=1.04830.png" arWidth="640" arHeight="480" duration="0" songTitle="" songArtist="" songAlbum="" songCopyrightUrl="" songArtistUrl="" songAudioFileUrl="" stabilizationMode="0" mediaItemType="2" />
    <MediaItem id="4831" filePath="C:\Users\owner\Dropbox\Work\png\animation T=1.04831.png" arWidth="640" arHeight="480" duration="0" songTitle="" songArtist="" songAlbum="" songCopyrightUrl="" songArtistUrl="" songAudioFileUrl="" stabilizationMode="0" mediaItemType="2" />
    <MediaItem id="4832" filePath="C:\Users\owner\Dropbox\Work\png\animation T=1.04832.png" arWidth="640" arHeight="480" duration="0" songTitle="" songArtist="" songAlbum="" songCopyrightUrl="" songArtistUrl="" songAudioFileUrl="" stabilizationMode="0" mediaItemType="2" />
    <MediaItem id="4833" filePath="C:\Users\owner\Dropbox\Work\png\animation T=1.04833.png" arWidth="640" arHeight="480" duration="0" songTitle="" songArtist="" songAlbum="" songCopyrightUrl="" songArtistUrl="" songAudioFileUrl="" stabilizationMode="0" mediaItemType="2" />
    <MediaItem id="4834" filePath="C:\Users\owner\Dropbox\Work\png\animation T=1.04834.png" arWidth="640" arHeight="480" duration="0" songTitle="" songArtist="" songAlbum="" songCopyrightUrl="" songArtistUrl="" songAudioFileUrl="" stabilizationMode="0" mediaItemType="2" />
    <MediaItem id="4835" filePath="C:\Users\owner\Dropbox\Work\png\animation T=1.04835.png" arWidth="640" arHeight="480" duration="0" songTitle="" songArtist="" songAlbum="" songCopyrightUrl="" songArtistUrl="" songAudioFileUrl="" stabilizationMode="0" mediaItemType="2" />
    <MediaItem id="4836" filePath="C:\Users\owner\Dropbox\Work\png\animation T=1.04836.png" arWidth="640" arHeight="480" duration="0" songTitle="" songArtist="" songAlbum="" songCopyrightUrl="" songArtistUrl="" songAudioFileUrl="" stabilizationMode="0" mediaItemType="2" />
    <MediaItem id="4837" filePath="C:\Users\owner\Dropbox\Work\png\animation T=1.04837.png" arWidth="640" arHeight="480" duration="0" songTitle="" songArtist="" songAlbum="" songCopyrightUrl="" songArtistUrl="" songAudioFileUrl="" stabilizationMode="0" mediaItemType="2" />
    <MediaItem id="4838" filePath="C:\Users\owner\Dropbox\Work\png\animation T=1.04838.png" arWidth="640" arHeight="480" duration="0" songTitle="" songArtist="" songAlbum="" songCopyrightUrl="" songArtistUrl="" songAudioFileUrl="" stabilizationMode="0" mediaItemType="2" />
    <MediaItem id="4839" filePath="C:\Users\owner\Dropbox\Work\png\animation T=1.04839.png" arWidth="640" arHeight="480" duration="0" songTitle="" songArtist="" songAlbum="" songCopyrightUrl="" songArtistUrl="" songAudioFileUrl="" stabilizationMode="0" mediaItemType="2" />
    <MediaItem id="4840" filePath="C:\Users\owner\Dropbox\Work\png\animation T=1.04840.png" arWidth="640" arHeight="480" duration="0" songTitle="" songArtist="" songAlbum="" songCopyrightUrl="" songArtistUrl="" songAudioFileUrl="" stabilizationMode="0" mediaItemType="2" />
    <MediaItem id="4841" filePath="C:\Users\owner\Dropbox\Work\png\animation T=1.04841.png" arWidth="640" arHeight="480" duration="0" songTitle="" songArtist="" songAlbum="" songCopyrightUrl="" songArtistUrl="" songAudioFileUrl="" stabilizationMode="0" mediaItemType="2" />
    <MediaItem id="4842" filePath="C:\Users\owner\Dropbox\Work\png\animation T=1.04842.png" arWidth="640" arHeight="480" duration="0" songTitle="" songArtist="" songAlbum="" songCopyrightUrl="" songArtistUrl="" songAudioFileUrl="" stabilizationMode="0" mediaItemType="2" />
    <MediaItem id="4843" filePath="C:\Users\owner\Dropbox\Work\png\animation T=1.04843.png" arWidth="640" arHeight="480" duration="0" songTitle="" songArtist="" songAlbum="" songCopyrightUrl="" songArtistUrl="" songAudioFileUrl="" stabilizationMode="0" mediaItemType="2" />
    <MediaItem id="4844" filePath="C:\Users\owner\Dropbox\Work\png\animation T=1.04844.png" arWidth="640" arHeight="480" duration="0" songTitle="" songArtist="" songAlbum="" songCopyrightUrl="" songArtistUrl="" songAudioFileUrl="" stabilizationMode="0" mediaItemType="2" />
    <MediaItem id="4845" filePath="C:\Users\owner\Dropbox\Work\png\animation T=1.04845.png" arWidth="640" arHeight="480" duration="0" songTitle="" songArtist="" songAlbum="" songCopyrightUrl="" songArtistUrl="" songAudioFileUrl="" stabilizationMode="0" mediaItemType="2" />
    <MediaItem id="4846" filePath="C:\Users\owner\Dropbox\Work\png\animation T=1.04846.png" arWidth="640" arHeight="480" duration="0" songTitle="" songArtist="" songAlbum="" songCopyrightUrl="" songArtistUrl="" songAudioFileUrl="" stabilizationMode="0" mediaItemType="2" />
    <MediaItem id="4847" filePath="C:\Users\owner\Dropbox\Work\png\animation T=1.04847.png" arWidth="640" arHeight="480" duration="0" songTitle="" songArtist="" songAlbum="" songCopyrightUrl="" songArtistUrl="" songAudioFileUrl="" stabilizationMode="0" mediaItemType="2" />
    <MediaItem id="4848" filePath="C:\Users\owner\Dropbox\Work\png\animation T=1.04848.png" arWidth="640" arHeight="480" duration="0" songTitle="" songArtist="" songAlbum="" songCopyrightUrl="" songArtistUrl="" songAudioFileUrl="" stabilizationMode="0" mediaItemType="2" />
    <MediaItem id="4849" filePath="C:\Users\owner\Dropbox\Work\png\animation T=1.04849.png" arWidth="640" arHeight="480" duration="0" songTitle="" songArtist="" songAlbum="" songCopyrightUrl="" songArtistUrl="" songAudioFileUrl="" stabilizationMode="0" mediaItemType="2" />
    <MediaItem id="4850" filePath="C:\Users\owner\Dropbox\Work\png\animation T=1.04850.png" arWidth="640" arHeight="480" duration="0" songTitle="" songArtist="" songAlbum="" songCopyrightUrl="" songArtistUrl="" songAudioFileUrl="" stabilizationMode="0" mediaItemType="2" />
    <MediaItem id="4851" filePath="C:\Users\owner\Dropbox\Work\png\animation T=1.04851.png" arWidth="640" arHeight="480" duration="0" songTitle="" songArtist="" songAlbum="" songCopyrightUrl="" songArtistUrl="" songAudioFileUrl="" stabilizationMode="0" mediaItemType="2" />
    <MediaItem id="4852" filePath="C:\Users\owner\Dropbox\Work\png\animation T=1.04852.png" arWidth="640" arHeight="480" duration="0" songTitle="" songArtist="" songAlbum="" songCopyrightUrl="" songArtistUrl="" songAudioFileUrl="" stabilizationMode="0" mediaItemType="2" />
    <MediaItem id="4853" filePath="C:\Users\owner\Dropbox\Work\png\animation T=1.04853.png" arWidth="640" arHeight="480" duration="0" songTitle="" songArtist="" songAlbum="" songCopyrightUrl="" songArtistUrl="" songAudioFileUrl="" stabilizationMode="0" mediaItemType="2" />
    <MediaItem id="4854" filePath="C:\Users\owner\Dropbox\Work\png\animation T=1.04854.png" arWidth="640" arHeight="480" duration="0" songTitle="" songArtist="" songAlbum="" songCopyrightUrl="" songArtistUrl="" songAudioFileUrl="" stabilizationMode="0" mediaItemType="2" />
    <MediaItem id="4855" filePath="C:\Users\owner\Dropbox\Work\png\animation T=1.04855.png" arWidth="640" arHeight="480" duration="0" songTitle="" songArtist="" songAlbum="" songCopyrightUrl="" songArtistUrl="" songAudioFileUrl="" stabilizationMode="0" mediaItemType="2" />
    <MediaItem id="4856" filePath="C:\Users\owner\Dropbox\Work\png\animation T=1.04856.png" arWidth="640" arHeight="480" duration="0" songTitle="" songArtist="" songAlbum="" songCopyrightUrl="" songArtistUrl="" songAudioFileUrl="" stabilizationMode="0" mediaItemType="2" />
    <MediaItem id="4857" filePath="C:\Users\owner\Dropbox\Work\png\animation T=1.04857.png" arWidth="640" arHeight="480" duration="0" songTitle="" songArtist="" songAlbum="" songCopyrightUrl="" songArtistUrl="" songAudioFileUrl="" stabilizationMode="0" mediaItemType="2" />
    <MediaItem id="4858" filePath="C:\Users\owner\Dropbox\Work\png\animation T=1.04858.png" arWidth="640" arHeight="480" duration="0" songTitle="" songArtist="" songAlbum="" songCopyrightUrl="" songArtistUrl="" songAudioFileUrl="" stabilizationMode="0" mediaItemType="2" />
    <MediaItem id="4859" filePath="C:\Users\owner\Dropbox\Work\png\animation T=1.04859.png" arWidth="640" arHeight="480" duration="0" songTitle="" songArtist="" songAlbum="" songCopyrightUrl="" songArtistUrl="" songAudioFileUrl="" stabilizationMode="0" mediaItemType="2" />
    <MediaItem id="4860" filePath="C:\Users\owner\Dropbox\Work\png\animation T=1.04860.png" arWidth="640" arHeight="480" duration="0" songTitle="" songArtist="" songAlbum="" songCopyrightUrl="" songArtistUrl="" songAudioFileUrl="" stabilizationMode="0" mediaItemType="2" />
    <MediaItem id="4861" filePath="C:\Users\owner\Dropbox\Work\png\animation T=1.04861.png" arWidth="640" arHeight="480" duration="0" songTitle="" songArtist="" songAlbum="" songCopyrightUrl="" songArtistUrl="" songAudioFileUrl="" stabilizationMode="0" mediaItemType="2" />
    <MediaItem id="4862" filePath="C:\Users\owner\Dropbox\Work\png\animation T=1.04862.png" arWidth="640" arHeight="480" duration="0" songTitle="" songArtist="" songAlbum="" songCopyrightUrl="" songArtistUrl="" songAudioFileUrl="" stabilizationMode="0" mediaItemType="2" />
    <MediaItem id="4863" filePath="C:\Users\owner\Dropbox\Work\png\animation T=1.04863.png" arWidth="640" arHeight="480" duration="0" songTitle="" songArtist="" songAlbum="" songCopyrightUrl="" songArtistUrl="" songAudioFileUrl="" stabilizationMode="0" mediaItemType="2" />
    <MediaItem id="4864" filePath="C:\Users\owner\Dropbox\Work\png\animation T=1.04864.png" arWidth="640" arHeight="480" duration="0" songTitle="" songArtist="" songAlbum="" songCopyrightUrl="" songArtistUrl="" songAudioFileUrl="" stabilizationMode="0" mediaItemType="2" />
    <MediaItem id="4865" filePath="C:\Users\owner\Dropbox\Work\png\animation T=1.04865.png" arWidth="640" arHeight="480" duration="0" songTitle="" songArtist="" songAlbum="" songCopyrightUrl="" songArtistUrl="" songAudioFileUrl="" stabilizationMode="0" mediaItemType="2" />
    <MediaItem id="4866" filePath="C:\Users\owner\Dropbox\Work\png\animation T=1.04866.png" arWidth="640" arHeight="480" duration="0" songTitle="" songArtist="" songAlbum="" songCopyrightUrl="" songArtistUrl="" songAudioFileUrl="" stabilizationMode="0" mediaItemType="2" />
    <MediaItem id="4867" filePath="C:\Users\owner\Dropbox\Work\png\animation T=1.04867.png" arWidth="640" arHeight="480" duration="0" songTitle="" songArtist="" songAlbum="" songCopyrightUrl="" songArtistUrl="" songAudioFileUrl="" stabilizationMode="0" mediaItemType="2" />
    <MediaItem id="4868" filePath="C:\Users\owner\Dropbox\Work\png\animation T=1.04868.png" arWidth="640" arHeight="480" duration="0" songTitle="" songArtist="" songAlbum="" songCopyrightUrl="" songArtistUrl="" songAudioFileUrl="" stabilizationMode="0" mediaItemType="2" />
    <MediaItem id="4869" filePath="C:\Users\owner\Dropbox\Work\png\animation T=1.04869.png" arWidth="640" arHeight="480" duration="0" songTitle="" songArtist="" songAlbum="" songCopyrightUrl="" songArtistUrl="" songAudioFileUrl="" stabilizationMode="0" mediaItemType="2" />
    <MediaItem id="4870" filePath="C:\Users\owner\Dropbox\Work\png\animation T=1.04870.png" arWidth="640" arHeight="480" duration="0" songTitle="" songArtist="" songAlbum="" songCopyrightUrl="" songArtistUrl="" songAudioFileUrl="" stabilizationMode="0" mediaItemType="2" />
    <MediaItem id="4871" filePath="C:\Users\owner\Dropbox\Work\png\animation T=1.04871.png" arWidth="640" arHeight="480" duration="0" songTitle="" songArtist="" songAlbum="" songCopyrightUrl="" songArtistUrl="" songAudioFileUrl="" stabilizationMode="0" mediaItemType="2" />
    <MediaItem id="4872" filePath="C:\Users\owner\Dropbox\Work\png\animation T=1.04872.png" arWidth="640" arHeight="480" duration="0" songTitle="" songArtist="" songAlbum="" songCopyrightUrl="" songArtistUrl="" songAudioFileUrl="" stabilizationMode="0" mediaItemType="2" />
    <MediaItem id="4873" filePath="C:\Users\owner\Dropbox\Work\png\animation T=1.04873.png" arWidth="640" arHeight="480" duration="0" songTitle="" songArtist="" songAlbum="" songCopyrightUrl="" songArtistUrl="" songAudioFileUrl="" stabilizationMode="0" mediaItemType="2" />
    <MediaItem id="4874" filePath="C:\Users\owner\Dropbox\Work\png\animation T=1.04874.png" arWidth="640" arHeight="480" duration="0" songTitle="" songArtist="" songAlbum="" songCopyrightUrl="" songArtistUrl="" songAudioFileUrl="" stabilizationMode="0" mediaItemType="2" />
    <MediaItem id="4875" filePath="C:\Users\owner\Dropbox\Work\png\animation T=1.04875.png" arWidth="640" arHeight="480" duration="0" songTitle="" songArtist="" songAlbum="" songCopyrightUrl="" songArtistUrl="" songAudioFileUrl="" stabilizationMode="0" mediaItemType="2" />
    <MediaItem id="4876" filePath="C:\Users\owner\Dropbox\Work\png\animation T=1.04876.png" arWidth="640" arHeight="480" duration="0" songTitle="" songArtist="" songAlbum="" songCopyrightUrl="" songArtistUrl="" songAudioFileUrl="" stabilizationMode="0" mediaItemType="2" />
    <MediaItem id="4877" filePath="C:\Users\owner\Dropbox\Work\png\animation T=1.04877.png" arWidth="640" arHeight="480" duration="0" songTitle="" songArtist="" songAlbum="" songCopyrightUrl="" songArtistUrl="" songAudioFileUrl="" stabilizationMode="0" mediaItemType="2" />
    <MediaItem id="4878" filePath="C:\Users\owner\Dropbox\Work\png\animation T=1.04878.png" arWidth="640" arHeight="480" duration="0" songTitle="" songArtist="" songAlbum="" songCopyrightUrl="" songArtistUrl="" songAudioFileUrl="" stabilizationMode="0" mediaItemType="2" />
    <MediaItem id="4879" filePath="C:\Users\owner\Dropbox\Work\png\animation T=1.04879.png" arWidth="640" arHeight="480" duration="0" songTitle="" songArtist="" songAlbum="" songCopyrightUrl="" songArtistUrl="" songAudioFileUrl="" stabilizationMode="0" mediaItemType="2" />
    <MediaItem id="4880" filePath="C:\Users\owner\Dropbox\Work\png\animation T=1.04880.png" arWidth="640" arHeight="480" duration="0" songTitle="" songArtist="" songAlbum="" songCopyrightUrl="" songArtistUrl="" songAudioFileUrl="" stabilizationMode="0" mediaItemType="2" />
    <MediaItem id="4881" filePath="C:\Users\owner\Dropbox\Work\png\animation T=1.04881.png" arWidth="640" arHeight="480" duration="0" songTitle="" songArtist="" songAlbum="" songCopyrightUrl="" songArtistUrl="" songAudioFileUrl="" stabilizationMode="0" mediaItemType="2" />
    <MediaItem id="4882" filePath="C:\Users\owner\Dropbox\Work\png\animation T=1.04882.png" arWidth="640" arHeight="480" duration="0" songTitle="" songArtist="" songAlbum="" songCopyrightUrl="" songArtistUrl="" songAudioFileUrl="" stabilizationMode="0" mediaItemType="2" />
    <MediaItem id="4883" filePath="C:\Users\owner\Dropbox\Work\png\animation T=1.04883.png" arWidth="640" arHeight="480" duration="0" songTitle="" songArtist="" songAlbum="" songCopyrightUrl="" songArtistUrl="" songAudioFileUrl="" stabilizationMode="0" mediaItemType="2" />
    <MediaItem id="4884" filePath="C:\Users\owner\Dropbox\Work\png\animation T=1.04884.png" arWidth="640" arHeight="480" duration="0" songTitle="" songArtist="" songAlbum="" songCopyrightUrl="" songArtistUrl="" songAudioFileUrl="" stabilizationMode="0" mediaItemType="2" />
    <MediaItem id="4885" filePath="C:\Users\owner\Dropbox\Work\png\animation T=1.04885.png" arWidth="640" arHeight="480" duration="0" songTitle="" songArtist="" songAlbum="" songCopyrightUrl="" songArtistUrl="" songAudioFileUrl="" stabilizationMode="0" mediaItemType="2" />
    <MediaItem id="4886" filePath="C:\Users\owner\Dropbox\Work\png\animation T=1.04886.png" arWidth="640" arHeight="480" duration="0" songTitle="" songArtist="" songAlbum="" songCopyrightUrl="" songArtistUrl="" songAudioFileUrl="" stabilizationMode="0" mediaItemType="2" />
    <MediaItem id="4887" filePath="C:\Users\owner\Dropbox\Work\png\animation T=1.04887.png" arWidth="640" arHeight="480" duration="0" songTitle="" songArtist="" songAlbum="" songCopyrightUrl="" songArtistUrl="" songAudioFileUrl="" stabilizationMode="0" mediaItemType="2" />
    <MediaItem id="4888" filePath="C:\Users\owner\Dropbox\Work\png\animation T=1.04888.png" arWidth="640" arHeight="480" duration="0" songTitle="" songArtist="" songAlbum="" songCopyrightUrl="" songArtistUrl="" songAudioFileUrl="" stabilizationMode="0" mediaItemType="2" />
    <MediaItem id="4889" filePath="C:\Users\owner\Dropbox\Work\png\animation T=1.04889.png" arWidth="640" arHeight="480" duration="0" songTitle="" songArtist="" songAlbum="" songCopyrightUrl="" songArtistUrl="" songAudioFileUrl="" stabilizationMode="0" mediaItemType="2" />
    <MediaItem id="4890" filePath="C:\Users\owner\Dropbox\Work\png\animation T=1.04890.png" arWidth="640" arHeight="480" duration="0" songTitle="" songArtist="" songAlbum="" songCopyrightUrl="" songArtistUrl="" songAudioFileUrl="" stabilizationMode="0" mediaItemType="2" />
    <MediaItem id="4891" filePath="C:\Users\owner\Dropbox\Work\png\animation T=1.04891.png" arWidth="640" arHeight="480" duration="0" songTitle="" songArtist="" songAlbum="" songCopyrightUrl="" songArtistUrl="" songAudioFileUrl="" stabilizationMode="0" mediaItemType="2" />
    <MediaItem id="4892" filePath="C:\Users\owner\Dropbox\Work\png\animation T=1.04892.png" arWidth="640" arHeight="480" duration="0" songTitle="" songArtist="" songAlbum="" songCopyrightUrl="" songArtistUrl="" songAudioFileUrl="" stabilizationMode="0" mediaItemType="2" />
    <MediaItem id="4893" filePath="C:\Users\owner\Dropbox\Work\png\animation T=1.04893.png" arWidth="640" arHeight="480" duration="0" songTitle="" songArtist="" songAlbum="" songCopyrightUrl="" songArtistUrl="" songAudioFileUrl="" stabilizationMode="0" mediaItemType="2" />
    <MediaItem id="4894" filePath="C:\Users\owner\Dropbox\Work\png\animation T=1.04894.png" arWidth="640" arHeight="480" duration="0" songTitle="" songArtist="" songAlbum="" songCopyrightUrl="" songArtistUrl="" songAudioFileUrl="" stabilizationMode="0" mediaItemType="2" />
    <MediaItem id="4895" filePath="C:\Users\owner\Dropbox\Work\png\animation T=1.04895.png" arWidth="640" arHeight="480" duration="0" songTitle="" songArtist="" songAlbum="" songCopyrightUrl="" songArtistUrl="" songAudioFileUrl="" stabilizationMode="0" mediaItemType="2" />
    <MediaItem id="4896" filePath="C:\Users\owner\Dropbox\Work\png\animation T=1.04896.png" arWidth="640" arHeight="480" duration="0" songTitle="" songArtist="" songAlbum="" songCopyrightUrl="" songArtistUrl="" songAudioFileUrl="" stabilizationMode="0" mediaItemType="2" />
    <MediaItem id="4897" filePath="C:\Users\owner\Dropbox\Work\png\animation T=1.04897.png" arWidth="640" arHeight="480" duration="0" songTitle="" songArtist="" songAlbum="" songCopyrightUrl="" songArtistUrl="" songAudioFileUrl="" stabilizationMode="0" mediaItemType="2" />
    <MediaItem id="4898" filePath="C:\Users\owner\Dropbox\Work\png\animation T=1.04898.png" arWidth="640" arHeight="480" duration="0" songTitle="" songArtist="" songAlbum="" songCopyrightUrl="" songArtistUrl="" songAudioFileUrl="" stabilizationMode="0" mediaItemType="2" />
    <MediaItem id="4899" filePath="C:\Users\owner\Dropbox\Work\png\animation T=1.04899.png" arWidth="640" arHeight="480" duration="0" songTitle="" songArtist="" songAlbum="" songCopyrightUrl="" songArtistUrl="" songAudioFileUrl="" stabilizationMode="0" mediaItemType="2" />
    <MediaItem id="4900" filePath="C:\Users\owner\Dropbox\Work\png\animation T=1.04900.png" arWidth="640" arHeight="480" duration="0" songTitle="" songArtist="" songAlbum="" songCopyrightUrl="" songArtistUrl="" songAudioFileUrl="" stabilizationMode="0" mediaItemType="2" />
    <MediaItem id="4901" filePath="C:\Users\owner\Dropbox\Work\png\animation T=1.04901.png" arWidth="640" arHeight="480" duration="0" songTitle="" songArtist="" songAlbum="" songCopyrightUrl="" songArtistUrl="" songAudioFileUrl="" stabilizationMode="0" mediaItemType="2" />
    <MediaItem id="4902" filePath="C:\Users\owner\Dropbox\Work\png\animation T=1.04902.png" arWidth="640" arHeight="480" duration="0" songTitle="" songArtist="" songAlbum="" songCopyrightUrl="" songArtistUrl="" songAudioFileUrl="" stabilizationMode="0" mediaItemType="2" />
    <MediaItem id="4903" filePath="C:\Users\owner\Dropbox\Work\png\animation T=1.04903.png" arWidth="640" arHeight="480" duration="0" songTitle="" songArtist="" songAlbum="" songCopyrightUrl="" songArtistUrl="" songAudioFileUrl="" stabilizationMode="0" mediaItemType="2" />
    <MediaItem id="4904" filePath="C:\Users\owner\Dropbox\Work\png\animation T=1.04904.png" arWidth="640" arHeight="480" duration="0" songTitle="" songArtist="" songAlbum="" songCopyrightUrl="" songArtistUrl="" songAudioFileUrl="" stabilizationMode="0" mediaItemType="2" />
    <MediaItem id="4905" filePath="C:\Users\owner\Dropbox\Work\png\animation T=1.04905.png" arWidth="640" arHeight="480" duration="0" songTitle="" songArtist="" songAlbum="" songCopyrightUrl="" songArtistUrl="" songAudioFileUrl="" stabilizationMode="0" mediaItemType="2" />
    <MediaItem id="4906" filePath="C:\Users\owner\Dropbox\Work\png\animation T=1.04906.png" arWidth="640" arHeight="480" duration="0" songTitle="" songArtist="" songAlbum="" songCopyrightUrl="" songArtistUrl="" songAudioFileUrl="" stabilizationMode="0" mediaItemType="2" />
    <MediaItem id="4907" filePath="C:\Users\owner\Dropbox\Work\png\animation T=1.04907.png" arWidth="640" arHeight="480" duration="0" songTitle="" songArtist="" songAlbum="" songCopyrightUrl="" songArtistUrl="" songAudioFileUrl="" stabilizationMode="0" mediaItemType="2" />
    <MediaItem id="4908" filePath="C:\Users\owner\Dropbox\Work\png\animation T=1.04908.png" arWidth="640" arHeight="480" duration="0" songTitle="" songArtist="" songAlbum="" songCopyrightUrl="" songArtistUrl="" songAudioFileUrl="" stabilizationMode="0" mediaItemType="2" />
    <MediaItem id="4909" filePath="C:\Users\owner\Dropbox\Work\png\animation T=1.04909.png" arWidth="640" arHeight="480" duration="0" songTitle="" songArtist="" songAlbum="" songCopyrightUrl="" songArtistUrl="" songAudioFileUrl="" stabilizationMode="0" mediaItemType="2" />
    <MediaItem id="4910" filePath="C:\Users\owner\Dropbox\Work\png\animation T=1.04910.png" arWidth="640" arHeight="480" duration="0" songTitle="" songArtist="" songAlbum="" songCopyrightUrl="" songArtistUrl="" songAudioFileUrl="" stabilizationMode="0" mediaItemType="2" />
    <MediaItem id="4911" filePath="C:\Users\owner\Dropbox\Work\png\animation T=1.04911.png" arWidth="640" arHeight="480" duration="0" songTitle="" songArtist="" songAlbum="" songCopyrightUrl="" songArtistUrl="" songAudioFileUrl="" stabilizationMode="0" mediaItemType="2" />
    <MediaItem id="4912" filePath="C:\Users\owner\Dropbox\Work\png\animation T=1.04912.png" arWidth="640" arHeight="480" duration="0" songTitle="" songArtist="" songAlbum="" songCopyrightUrl="" songArtistUrl="" songAudioFileUrl="" stabilizationMode="0" mediaItemType="2" />
    <MediaItem id="4913" filePath="C:\Users\owner\Dropbox\Work\png\animation T=1.04913.png" arWidth="640" arHeight="480" duration="0" songTitle="" songArtist="" songAlbum="" songCopyrightUrl="" songArtistUrl="" songAudioFileUrl="" stabilizationMode="0" mediaItemType="2" />
    <MediaItem id="4914" filePath="C:\Users\owner\Dropbox\Work\png\animation T=1.04914.png" arWidth="640" arHeight="480" duration="0" songTitle="" songArtist="" songAlbum="" songCopyrightUrl="" songArtistUrl="" songAudioFileUrl="" stabilizationMode="0" mediaItemType="2" />
    <MediaItem id="4915" filePath="C:\Users\owner\Dropbox\Work\png\animation T=1.04915.png" arWidth="640" arHeight="480" duration="0" songTitle="" songArtist="" songAlbum="" songCopyrightUrl="" songArtistUrl="" songAudioFileUrl="" stabilizationMode="0" mediaItemType="2" />
    <MediaItem id="4916" filePath="C:\Users\owner\Dropbox\Work\png\animation T=1.04916.png" arWidth="640" arHeight="480" duration="0" songTitle="" songArtist="" songAlbum="" songCopyrightUrl="" songArtistUrl="" songAudioFileUrl="" stabilizationMode="0" mediaItemType="2" />
    <MediaItem id="4917" filePath="C:\Users\owner\Dropbox\Work\png\animation T=1.04917.png" arWidth="640" arHeight="480" duration="0" songTitle="" songArtist="" songAlbum="" songCopyrightUrl="" songArtistUrl="" songAudioFileUrl="" stabilizationMode="0" mediaItemType="2" />
    <MediaItem id="4918" filePath="C:\Users\owner\Dropbox\Work\png\animation T=1.04918.png" arWidth="640" arHeight="480" duration="0" songTitle="" songArtist="" songAlbum="" songCopyrightUrl="" songArtistUrl="" songAudioFileUrl="" stabilizationMode="0" mediaItemType="2" />
    <MediaItem id="4919" filePath="C:\Users\owner\Dropbox\Work\png\animation T=1.04919.png" arWidth="640" arHeight="480" duration="0" songTitle="" songArtist="" songAlbum="" songCopyrightUrl="" songArtistUrl="" songAudioFileUrl="" stabilizationMode="0" mediaItemType="2" />
    <MediaItem id="4920" filePath="C:\Users\owner\Dropbox\Work\png\animation T=1.04920.png" arWidth="640" arHeight="480" duration="0" songTitle="" songArtist="" songAlbum="" songCopyrightUrl="" songArtistUrl="" songAudioFileUrl="" stabilizationMode="0" mediaItemType="2" />
    <MediaItem id="4921" filePath="C:\Users\owner\Dropbox\Work\png\animation T=1.04921.png" arWidth="640" arHeight="480" duration="0" songTitle="" songArtist="" songAlbum="" songCopyrightUrl="" songArtistUrl="" songAudioFileUrl="" stabilizationMode="0" mediaItemType="2" />
    <MediaItem id="4922" filePath="C:\Users\owner\Dropbox\Work\png\animation T=1.04922.png" arWidth="640" arHeight="480" duration="0" songTitle="" songArtist="" songAlbum="" songCopyrightUrl="" songArtistUrl="" songAudioFileUrl="" stabilizationMode="0" mediaItemType="2" />
    <MediaItem id="4923" filePath="C:\Users\owner\Dropbox\Work\png\animation T=1.04923.png" arWidth="640" arHeight="480" duration="0" songTitle="" songArtist="" songAlbum="" songCopyrightUrl="" songArtistUrl="" songAudioFileUrl="" stabilizationMode="0" mediaItemType="2" />
    <MediaItem id="4924" filePath="C:\Users\owner\Dropbox\Work\png\animation T=1.04924.png" arWidth="640" arHeight="480" duration="0" songTitle="" songArtist="" songAlbum="" songCopyrightUrl="" songArtistUrl="" songAudioFileUrl="" stabilizationMode="0" mediaItemType="2" />
    <MediaItem id="4925" filePath="C:\Users\owner\Dropbox\Work\png\animation T=1.04925.png" arWidth="640" arHeight="480" duration="0" songTitle="" songArtist="" songAlbum="" songCopyrightUrl="" songArtistUrl="" songAudioFileUrl="" stabilizationMode="0" mediaItemType="2" />
    <MediaItem id="4926" filePath="C:\Users\owner\Dropbox\Work\png\animation T=1.04926.png" arWidth="640" arHeight="480" duration="0" songTitle="" songArtist="" songAlbum="" songCopyrightUrl="" songArtistUrl="" songAudioFileUrl="" stabilizationMode="0" mediaItemType="2" />
    <MediaItem id="4927" filePath="C:\Users\owner\Dropbox\Work\png\animation T=1.04927.png" arWidth="640" arHeight="480" duration="0" songTitle="" songArtist="" songAlbum="" songCopyrightUrl="" songArtistUrl="" songAudioFileUrl="" stabilizationMode="0" mediaItemType="2" />
    <MediaItem id="4928" filePath="C:\Users\owner\Dropbox\Work\png\animation T=1.04928.png" arWidth="640" arHeight="480" duration="0" songTitle="" songArtist="" songAlbum="" songCopyrightUrl="" songArtistUrl="" songAudioFileUrl="" stabilizationMode="0" mediaItemType="2" />
    <MediaItem id="4929" filePath="C:\Users\owner\Dropbox\Work\png\animation T=1.04929.png" arWidth="640" arHeight="480" duration="0" songTitle="" songArtist="" songAlbum="" songCopyrightUrl="" songArtistUrl="" songAudioFileUrl="" stabilizationMode="0" mediaItemType="2" />
    <MediaItem id="4930" filePath="C:\Users\owner\Dropbox\Work\png\animation T=1.04930.png" arWidth="640" arHeight="480" duration="0" songTitle="" songArtist="" songAlbum="" songCopyrightUrl="" songArtistUrl="" songAudioFileUrl="" stabilizationMode="0" mediaItemType="2" />
    <MediaItem id="4931" filePath="C:\Users\owner\Dropbox\Work\png\animation T=1.04931.png" arWidth="640" arHeight="480" duration="0" songTitle="" songArtist="" songAlbum="" songCopyrightUrl="" songArtistUrl="" songAudioFileUrl="" stabilizationMode="0" mediaItemType="2" />
    <MediaItem id="4932" filePath="C:\Users\owner\Dropbox\Work\png\animation T=1.04932.png" arWidth="640" arHeight="480" duration="0" songTitle="" songArtist="" songAlbum="" songCopyrightUrl="" songArtistUrl="" songAudioFileUrl="" stabilizationMode="0" mediaItemType="2" />
    <MediaItem id="4933" filePath="C:\Users\owner\Dropbox\Work\png\animation T=1.04933.png" arWidth="640" arHeight="480" duration="0" songTitle="" songArtist="" songAlbum="" songCopyrightUrl="" songArtistUrl="" songAudioFileUrl="" stabilizationMode="0" mediaItemType="2" />
    <MediaItem id="4934" filePath="C:\Users\owner\Dropbox\Work\png\animation T=1.04934.png" arWidth="640" arHeight="480" duration="0" songTitle="" songArtist="" songAlbum="" songCopyrightUrl="" songArtistUrl="" songAudioFileUrl="" stabilizationMode="0" mediaItemType="2" />
    <MediaItem id="4935" filePath="C:\Users\owner\Dropbox\Work\png\animation T=1.04935.png" arWidth="640" arHeight="480" duration="0" songTitle="" songArtist="" songAlbum="" songCopyrightUrl="" songArtistUrl="" songAudioFileUrl="" stabilizationMode="0" mediaItemType="2" />
    <MediaItem id="4936" filePath="C:\Users\owner\Dropbox\Work\png\animation T=1.04936.png" arWidth="640" arHeight="480" duration="0" songTitle="" songArtist="" songAlbum="" songCopyrightUrl="" songArtistUrl="" songAudioFileUrl="" stabilizationMode="0" mediaItemType="2" />
    <MediaItem id="4937" filePath="C:\Users\owner\Dropbox\Work\png\animation T=1.04937.png" arWidth="640" arHeight="480" duration="0" songTitle="" songArtist="" songAlbum="" songCopyrightUrl="" songArtistUrl="" songAudioFileUrl="" stabilizationMode="0" mediaItemType="2" />
    <MediaItem id="4938" filePath="C:\Users\owner\Dropbox\Work\png\animation T=1.04938.png" arWidth="640" arHeight="480" duration="0" songTitle="" songArtist="" songAlbum="" songCopyrightUrl="" songArtistUrl="" songAudioFileUrl="" stabilizationMode="0" mediaItemType="2" />
    <MediaItem id="4939" filePath="C:\Users\owner\Dropbox\Work\png\animation T=1.04939.png" arWidth="640" arHeight="480" duration="0" songTitle="" songArtist="" songAlbum="" songCopyrightUrl="" songArtistUrl="" songAudioFileUrl="" stabilizationMode="0" mediaItemType="2" />
    <MediaItem id="4940" filePath="C:\Users\owner\Dropbox\Work\png\animation T=1.04940.png" arWidth="640" arHeight="480" duration="0" songTitle="" songArtist="" songAlbum="" songCopyrightUrl="" songArtistUrl="" songAudioFileUrl="" stabilizationMode="0" mediaItemType="2" />
    <MediaItem id="4941" filePath="C:\Users\owner\Dropbox\Work\png\animation T=1.04941.png" arWidth="640" arHeight="480" duration="0" songTitle="" songArtist="" songAlbum="" songCopyrightUrl="" songArtistUrl="" songAudioFileUrl="" stabilizationMode="0" mediaItemType="2" />
    <MediaItem id="4942" filePath="C:\Users\owner\Dropbox\Work\png\animation T=1.04942.png" arWidth="640" arHeight="480" duration="0" songTitle="" songArtist="" songAlbum="" songCopyrightUrl="" songArtistUrl="" songAudioFileUrl="" stabilizationMode="0" mediaItemType="2" />
    <MediaItem id="4943" filePath="C:\Users\owner\Dropbox\Work\png\animation T=1.04943.png" arWidth="640" arHeight="480" duration="0" songTitle="" songArtist="" songAlbum="" songCopyrightUrl="" songArtistUrl="" songAudioFileUrl="" stabilizationMode="0" mediaItemType="2" />
    <MediaItem id="4944" filePath="C:\Users\owner\Dropbox\Work\png\animation T=1.04944.png" arWidth="640" arHeight="480" duration="0" songTitle="" songArtist="" songAlbum="" songCopyrightUrl="" songArtistUrl="" songAudioFileUrl="" stabilizationMode="0" mediaItemType="2" />
    <MediaItem id="4945" filePath="C:\Users\owner\Dropbox\Work\png\animation T=1.04945.png" arWidth="640" arHeight="480" duration="0" songTitle="" songArtist="" songAlbum="" songCopyrightUrl="" songArtistUrl="" songAudioFileUrl="" stabilizationMode="0" mediaItemType="2" />
    <MediaItem id="4946" filePath="C:\Users\owner\Dropbox\Work\png\animation T=1.04946.png" arWidth="640" arHeight="480" duration="0" songTitle="" songArtist="" songAlbum="" songCopyrightUrl="" songArtistUrl="" songAudioFileUrl="" stabilizationMode="0" mediaItemType="2" />
    <MediaItem id="4947" filePath="C:\Users\owner\Dropbox\Work\png\animation T=1.04947.png" arWidth="640" arHeight="480" duration="0" songTitle="" songArtist="" songAlbum="" songCopyrightUrl="" songArtistUrl="" songAudioFileUrl="" stabilizationMode="0" mediaItemType="2" />
    <MediaItem id="4948" filePath="C:\Users\owner\Dropbox\Work\png\animation T=1.04948.png" arWidth="640" arHeight="480" duration="0" songTitle="" songArtist="" songAlbum="" songCopyrightUrl="" songArtistUrl="" songAudioFileUrl="" stabilizationMode="0" mediaItemType="2" />
    <MediaItem id="4949" filePath="C:\Users\owner\Dropbox\Work\png\animation T=1.04949.png" arWidth="640" arHeight="480" duration="0" songTitle="" songArtist="" songAlbum="" songCopyrightUrl="" songArtistUrl="" songAudioFileUrl="" stabilizationMode="0" mediaItemType="2" />
    <MediaItem id="4950" filePath="C:\Users\owner\Dropbox\Work\png\animation T=1.04950.png" arWidth="640" arHeight="480" duration="0" songTitle="" songArtist="" songAlbum="" songCopyrightUrl="" songArtistUrl="" songAudioFileUrl="" stabilizationMode="0" mediaItemType="2" />
    <MediaItem id="4951" filePath="C:\Users\owner\Dropbox\Work\png\animation T=1.04951.png" arWidth="640" arHeight="480" duration="0" songTitle="" songArtist="" songAlbum="" songCopyrightUrl="" songArtistUrl="" songAudioFileUrl="" stabilizationMode="0" mediaItemType="2" />
    <MediaItem id="4952" filePath="C:\Users\owner\Dropbox\Work\png\animation T=1.04952.png" arWidth="640" arHeight="480" duration="0" songTitle="" songArtist="" songAlbum="" songCopyrightUrl="" songArtistUrl="" songAudioFileUrl="" stabilizationMode="0" mediaItemType="2" />
    <MediaItem id="4953" filePath="C:\Users\owner\Dropbox\Work\png\animation T=1.04953.png" arWidth="640" arHeight="480" duration="0" songTitle="" songArtist="" songAlbum="" songCopyrightUrl="" songArtistUrl="" songAudioFileUrl="" stabilizationMode="0" mediaItemType="2" />
    <MediaItem id="4954" filePath="C:\Users\owner\Dropbox\Work\png\animation T=1.04954.png" arWidth="640" arHeight="480" duration="0" songTitle="" songArtist="" songAlbum="" songCopyrightUrl="" songArtistUrl="" songAudioFileUrl="" stabilizationMode="0" mediaItemType="2" />
    <MediaItem id="4955" filePath="C:\Users\owner\Dropbox\Work\png\animation T=1.04955.png" arWidth="640" arHeight="480" duration="0" songTitle="" songArtist="" songAlbum="" songCopyrightUrl="" songArtistUrl="" songAudioFileUrl="" stabilizationMode="0" mediaItemType="2" />
    <MediaItem id="4956" filePath="C:\Users\owner\Dropbox\Work\png\animation T=1.04956.png" arWidth="640" arHeight="480" duration="0" songTitle="" songArtist="" songAlbum="" songCopyrightUrl="" songArtistUrl="" songAudioFileUrl="" stabilizationMode="0" mediaItemType="2" />
    <MediaItem id="4957" filePath="C:\Users\owner\Dropbox\Work\png\animation T=1.04957.png" arWidth="640" arHeight="480" duration="0" songTitle="" songArtist="" songAlbum="" songCopyrightUrl="" songArtistUrl="" songAudioFileUrl="" stabilizationMode="0" mediaItemType="2" />
    <MediaItem id="4958" filePath="C:\Users\owner\Dropbox\Work\png\animation T=1.04958.png" arWidth="640" arHeight="480" duration="0" songTitle="" songArtist="" songAlbum="" songCopyrightUrl="" songArtistUrl="" songAudioFileUrl="" stabilizationMode="0" mediaItemType="2" />
    <MediaItem id="4959" filePath="C:\Users\owner\Dropbox\Work\png\animation T=1.04959.png" arWidth="640" arHeight="480" duration="0" songTitle="" songArtist="" songAlbum="" songCopyrightUrl="" songArtistUrl="" songAudioFileUrl="" stabilizationMode="0" mediaItemType="2" />
    <MediaItem id="4960" filePath="C:\Users\owner\Dropbox\Work\png\animation T=1.04960.png" arWidth="640" arHeight="480" duration="0" songTitle="" songArtist="" songAlbum="" songCopyrightUrl="" songArtistUrl="" songAudioFileUrl="" stabilizationMode="0" mediaItemType="2" />
    <MediaItem id="4961" filePath="C:\Users\owner\Dropbox\Work\png\animation T=1.04961.png" arWidth="640" arHeight="480" duration="0" songTitle="" songArtist="" songAlbum="" songCopyrightUrl="" songArtistUrl="" songAudioFileUrl="" stabilizationMode="0" mediaItemType="2" />
    <MediaItem id="4962" filePath="C:\Users\owner\Dropbox\Work\png\animation T=1.04962.png" arWidth="640" arHeight="480" duration="0" songTitle="" songArtist="" songAlbum="" songCopyrightUrl="" songArtistUrl="" songAudioFileUrl="" stabilizationMode="0" mediaItemType="2" />
    <MediaItem id="4963" filePath="C:\Users\owner\Dropbox\Work\png\animation T=1.04963.png" arWidth="640" arHeight="480" duration="0" songTitle="" songArtist="" songAlbum="" songCopyrightUrl="" songArtistUrl="" songAudioFileUrl="" stabilizationMode="0" mediaItemType="2" />
    <MediaItem id="4964" filePath="C:\Users\owner\Dropbox\Work\png\animation T=1.04964.png" arWidth="640" arHeight="480" duration="0" songTitle="" songArtist="" songAlbum="" songCopyrightUrl="" songArtistUrl="" songAudioFileUrl="" stabilizationMode="0" mediaItemType="2" />
    <MediaItem id="4965" filePath="C:\Users\owner\Dropbox\Work\png\animation T=1.04965.png" arWidth="640" arHeight="480" duration="0" songTitle="" songArtist="" songAlbum="" songCopyrightUrl="" songArtistUrl="" songAudioFileUrl="" stabilizationMode="0" mediaItemType="2" />
    <MediaItem id="4966" filePath="C:\Users\owner\Dropbox\Work\png\animation T=1.04966.png" arWidth="640" arHeight="480" duration="0" songTitle="" songArtist="" songAlbum="" songCopyrightUrl="" songArtistUrl="" songAudioFileUrl="" stabilizationMode="0" mediaItemType="2" />
    <MediaItem id="4967" filePath="C:\Users\owner\Dropbox\Work\png\animation T=1.04967.png" arWidth="640" arHeight="480" duration="0" songTitle="" songArtist="" songAlbum="" songCopyrightUrl="" songArtistUrl="" songAudioFileUrl="" stabilizationMode="0" mediaItemType="2" />
    <MediaItem id="4968" filePath="C:\Users\owner\Dropbox\Work\png\animation T=1.04968.png" arWidth="640" arHeight="480" duration="0" songTitle="" songArtist="" songAlbum="" songCopyrightUrl="" songArtistUrl="" songAudioFileUrl="" stabilizationMode="0" mediaItemType="2" />
    <MediaItem id="4969" filePath="C:\Users\owner\Dropbox\Work\png\animation T=1.04969.png" arWidth="640" arHeight="480" duration="0" songTitle="" songArtist="" songAlbum="" songCopyrightUrl="" songArtistUrl="" songAudioFileUrl="" stabilizationMode="0" mediaItemType="2" />
    <MediaItem id="4970" filePath="C:\Users\owner\Dropbox\Work\png\animation T=1.04970.png" arWidth="640" arHeight="480" duration="0" songTitle="" songArtist="" songAlbum="" songCopyrightUrl="" songArtistUrl="" songAudioFileUrl="" stabilizationMode="0" mediaItemType="2" />
    <MediaItem id="4971" filePath="C:\Users\owner\Dropbox\Work\png\animation T=1.04971.png" arWidth="640" arHeight="480" duration="0" songTitle="" songArtist="" songAlbum="" songCopyrightUrl="" songArtistUrl="" songAudioFileUrl="" stabilizationMode="0" mediaItemType="2" />
    <MediaItem id="4972" filePath="C:\Users\owner\Dropbox\Work\png\animation T=1.04972.png" arWidth="640" arHeight="480" duration="0" songTitle="" songArtist="" songAlbum="" songCopyrightUrl="" songArtistUrl="" songAudioFileUrl="" stabilizationMode="0" mediaItemType="2" />
    <MediaItem id="4973" filePath="C:\Users\owner\Dropbox\Work\png\animation T=1.04973.png" arWidth="640" arHeight="480" duration="0" songTitle="" songArtist="" songAlbum="" songCopyrightUrl="" songArtistUrl="" songAudioFileUrl="" stabilizationMode="0" mediaItemType="2" />
    <MediaItem id="4974" filePath="C:\Users\owner\Dropbox\Work\png\animation T=1.04974.png" arWidth="640" arHeight="480" duration="0" songTitle="" songArtist="" songAlbum="" songCopyrightUrl="" songArtistUrl="" songAudioFileUrl="" stabilizationMode="0" mediaItemType="2" />
    <MediaItem id="4975" filePath="C:\Users\owner\Dropbox\Work\png\animation T=1.04975.png" arWidth="640" arHeight="480" duration="0" songTitle="" songArtist="" songAlbum="" songCopyrightUrl="" songArtistUrl="" songAudioFileUrl="" stabilizationMode="0" mediaItemType="2" />
    <MediaItem id="4976" filePath="C:\Users\owner\Dropbox\Work\png\animation T=1.04976.png" arWidth="640" arHeight="480" duration="0" songTitle="" songArtist="" songAlbum="" songCopyrightUrl="" songArtistUrl="" songAudioFileUrl="" stabilizationMode="0" mediaItemType="2" />
    <MediaItem id="4977" filePath="C:\Users\owner\Dropbox\Work\png\animation T=1.04977.png" arWidth="640" arHeight="480" duration="0" songTitle="" songArtist="" songAlbum="" songCopyrightUrl="" songArtistUrl="" songAudioFileUrl="" stabilizationMode="0" mediaItemType="2" />
    <MediaItem id="4978" filePath="C:\Users\owner\Dropbox\Work\png\animation T=1.04978.png" arWidth="640" arHeight="480" duration="0" songTitle="" songArtist="" songAlbum="" songCopyrightUrl="" songArtistUrl="" songAudioFileUrl="" stabilizationMode="0" mediaItemType="2" />
    <MediaItem id="4979" filePath="C:\Users\owner\Dropbox\Work\png\animation T=1.04979.png" arWidth="640" arHeight="480" duration="0" songTitle="" songArtist="" songAlbum="" songCopyrightUrl="" songArtistUrl="" songAudioFileUrl="" stabilizationMode="0" mediaItemType="2" />
    <MediaItem id="4980" filePath="C:\Users\owner\Dropbox\Work\png\animation T=1.04980.png" arWidth="640" arHeight="480" duration="0" songTitle="" songArtist="" songAlbum="" songCopyrightUrl="" songArtistUrl="" songAudioFileUrl="" stabilizationMode="0" mediaItemType="2" />
    <MediaItem id="4981" filePath="C:\Users\owner\Dropbox\Work\png\animation T=1.04981.png" arWidth="640" arHeight="480" duration="0" songTitle="" songArtist="" songAlbum="" songCopyrightUrl="" songArtistUrl="" songAudioFileUrl="" stabilizationMode="0" mediaItemType="2" />
    <MediaItem id="4982" filePath="C:\Users\owner\Dropbox\Work\png\animation T=1.04982.png" arWidth="640" arHeight="480" duration="0" songTitle="" songArtist="" songAlbum="" songCopyrightUrl="" songArtistUrl="" songAudioFileUrl="" stabilizationMode="0" mediaItemType="2" />
    <MediaItem id="4983" filePath="C:\Users\owner\Dropbox\Work\png\animation T=1.04983.png" arWidth="640" arHeight="480" duration="0" songTitle="" songArtist="" songAlbum="" songCopyrightUrl="" songArtistUrl="" songAudioFileUrl="" stabilizationMode="0" mediaItemType="2" />
    <MediaItem id="4984" filePath="C:\Users\owner\Dropbox\Work\png\animation T=1.04984.png" arWidth="640" arHeight="480" duration="0" songTitle="" songArtist="" songAlbum="" songCopyrightUrl="" songArtistUrl="" songAudioFileUrl="" stabilizationMode="0" mediaItemType="2" />
    <MediaItem id="4985" filePath="C:\Users\owner\Dropbox\Work\png\animation T=1.04985.png" arWidth="640" arHeight="480" duration="0" songTitle="" songArtist="" songAlbum="" songCopyrightUrl="" songArtistUrl="" songAudioFileUrl="" stabilizationMode="0" mediaItemType="2" />
    <MediaItem id="4986" filePath="C:\Users\owner\Dropbox\Work\png\animation T=1.04986.png" arWidth="640" arHeight="480" duration="0" songTitle="" songArtist="" songAlbum="" songCopyrightUrl="" songArtistUrl="" songAudioFileUrl="" stabilizationMode="0" mediaItemType="2" />
    <MediaItem id="4987" filePath="C:\Users\owner\Dropbox\Work\png\animation T=1.04987.png" arWidth="640" arHeight="480" duration="0" songTitle="" songArtist="" songAlbum="" songCopyrightUrl="" songArtistUrl="" songAudioFileUrl="" stabilizationMode="0" mediaItemType="2" />
    <MediaItem id="4988" filePath="C:\Users\owner\Dropbox\Work\png\animation T=1.04988.png" arWidth="640" arHeight="480" duration="0" songTitle="" songArtist="" songAlbum="" songCopyrightUrl="" songArtistUrl="" songAudioFileUrl="" stabilizationMode="0" mediaItemType="2" />
    <MediaItem id="4989" filePath="C:\Users\owner\Dropbox\Work\png\animation T=1.04989.png" arWidth="640" arHeight="480" duration="0" songTitle="" songArtist="" songAlbum="" songCopyrightUrl="" songArtistUrl="" songAudioFileUrl="" stabilizationMode="0" mediaItemType="2" />
    <MediaItem id="4990" filePath="C:\Users\owner\Dropbox\Work\png\animation T=1.04990.png" arWidth="640" arHeight="480" duration="0" songTitle="" songArtist="" songAlbum="" songCopyrightUrl="" songArtistUrl="" songAudioFileUrl="" stabilizationMode="0" mediaItemType="2" />
    <MediaItem id="4991" filePath="C:\Users\owner\Dropbox\Work\png\animation T=1.04991.png" arWidth="640" arHeight="480" duration="0" songTitle="" songArtist="" songAlbum="" songCopyrightUrl="" songArtistUrl="" songAudioFileUrl="" stabilizationMode="0" mediaItemType="2" />
    <MediaItem id="4992" filePath="C:\Users\owner\Dropbox\Work\png\animation T=1.04992.png" arWidth="640" arHeight="480" duration="0" songTitle="" songArtist="" songAlbum="" songCopyrightUrl="" songArtistUrl="" songAudioFileUrl="" stabilizationMode="0" mediaItemType="2" />
    <MediaItem id="4993" filePath="C:\Users\owner\Dropbox\Work\png\animation T=1.04993.png" arWidth="640" arHeight="480" duration="0" songTitle="" songArtist="" songAlbum="" songCopyrightUrl="" songArtistUrl="" songAudioFileUrl="" stabilizationMode="0" mediaItemType="2" />
    <MediaItem id="4994" filePath="C:\Users\owner\Dropbox\Work\png\animation T=1.04994.png" arWidth="640" arHeight="480" duration="0" songTitle="" songArtist="" songAlbum="" songCopyrightUrl="" songArtistUrl="" songAudioFileUrl="" stabilizationMode="0" mediaItemType="2" />
    <MediaItem id="4995" filePath="C:\Users\owner\Dropbox\Work\png\animation T=1.04995.png" arWidth="640" arHeight="480" duration="0" songTitle="" songArtist="" songAlbum="" songCopyrightUrl="" songArtistUrl="" songAudioFileUrl="" stabilizationMode="0" mediaItemType="2" />
    <MediaItem id="4996" filePath="C:\Users\owner\Dropbox\Work\png\animation T=1.04996.png" arWidth="640" arHeight="480" duration="0" songTitle="" songArtist="" songAlbum="" songCopyrightUrl="" songArtistUrl="" songAudioFileUrl="" stabilizationMode="0" mediaItemType="2" />
    <MediaItem id="4997" filePath="C:\Users\owner\Dropbox\Work\png\animation T=1.04997.png" arWidth="640" arHeight="480" duration="0" songTitle="" songArtist="" songAlbum="" songCopyrightUrl="" songArtistUrl="" songAudioFileUrl="" stabilizationMode="0" mediaItemType="2" />
    <MediaItem id="4998" filePath="C:\Users\owner\Dropbox\Work\png\animation T=1.04998.png" arWidth="640" arHeight="480" duration="0" songTitle="" songArtist="" songAlbum="" songCopyrightUrl="" songArtistUrl="" songAudioFileUrl="" stabilizationMode="0" mediaItemType="2" />
    <MediaItem id="4999" filePath="C:\Users\owner\Dropbox\Work\png\animation T=1.04999.png" arWidth="640" arHeight="480" duration="0" songTitle="" songArtist="" songAlbum="" songCopyrightUrl="" songArtistUrl="" songAudioFileUrl="" stabilizationMode="0" mediaItemType="2" />
    <MediaItem id="5000" filePath="C:\Users\owner\Dropbox\Work\png\animation T=1.05000.png" arWidth="640" arHeight="480" duration="0" songTitle="" songArtist="" songAlbum="" songCopyrightUrl="" songArtistUrl="" songAudioFileUrl="" stabilizationMode="0" mediaItemType="2" />
    <MediaItem id="5001" filePath="C:\Users\owner\Dropbox\Work\png\animation T=1.05001.png" arWidth="640" arHeight="480" duration="0" songTitle="" songArtist="" songAlbum="" songCopyrightUrl="" songArtistUrl="" songAudioFileUrl="" stabilizationMode="0" mediaItemType="2" />
    <MediaItem id="5002" filePath="C:\Users\owner\Dropbox\Work\png\animation T=1.05002.png" arWidth="640" arHeight="480" duration="0" songTitle="" songArtist="" songAlbum="" songCopyrightUrl="" songArtistUrl="" songAudioFileUrl="" stabilizationMode="0" mediaItemType="2" />
    <MediaItem id="5003" filePath="C:\Users\owner\Dropbox\Work\png\animation T=1.05003.png" arWidth="640" arHeight="480" duration="0" songTitle="" songArtist="" songAlbum="" songCopyrightUrl="" songArtistUrl="" songAudioFileUrl="" stabilizationMode="0" mediaItemType="2" />
    <MediaItem id="5004" filePath="C:\Users\owner\Dropbox\Work\png\animation T=1.05004.png" arWidth="640" arHeight="480" duration="0" songTitle="" songArtist="" songAlbum="" songCopyrightUrl="" songArtistUrl="" songAudioFileUrl="" stabilizationMode="0" mediaItemType="2" />
    <MediaItem id="5005" filePath="C:\Users\owner\Dropbox\Work\png\animation T=1.05005.png" arWidth="640" arHeight="480" duration="0" songTitle="" songArtist="" songAlbum="" songCopyrightUrl="" songArtistUrl="" songAudioFileUrl="" stabilizationMode="0" mediaItemType="2" />
    <MediaItem id="5006" filePath="C:\Users\owner\Dropbox\Work\png\animation T=1.05006.png" arWidth="640" arHeight="480" duration="0" songTitle="" songArtist="" songAlbum="" songCopyrightUrl="" songArtistUrl="" songAudioFileUrl="" stabilizationMode="0" mediaItemType="2" />
    <MediaItem id="5007" filePath="C:\Users\owner\Dropbox\Work\png\animation T=1.05007.png" arWidth="640" arHeight="480" duration="0" songTitle="" songArtist="" songAlbum="" songCopyrightUrl="" songArtistUrl="" songAudioFileUrl="" stabilizationMode="0" mediaItemType="2" />
    <MediaItem id="5008" filePath="C:\Users\owner\Dropbox\Work\png\animation T=1.05008.png" arWidth="640" arHeight="480" duration="0" songTitle="" songArtist="" songAlbum="" songCopyrightUrl="" songArtistUrl="" songAudioFileUrl="" stabilizationMode="0" mediaItemType="2" />
    <MediaItem id="5009" filePath="C:\Users\owner\Dropbox\Work\png\animation T=1.05009.png" arWidth="640" arHeight="480" duration="0" songTitle="" songArtist="" songAlbum="" songCopyrightUrl="" songArtistUrl="" songAudioFileUrl="" stabilizationMode="0" mediaItemType="2" />
    <MediaItem id="5010" filePath="C:\Users\owner\Dropbox\Work\png\animation T=1.05010.png" arWidth="640" arHeight="480" duration="0" songTitle="" songArtist="" songAlbum="" songCopyrightUrl="" songArtistUrl="" songAudioFileUrl="" stabilizationMode="0" mediaItemType="2" />
    <MediaItem id="5011" filePath="C:\Users\owner\Dropbox\Work\png\animation T=1.05011.png" arWidth="640" arHeight="480" duration="0" songTitle="" songArtist="" songAlbum="" songCopyrightUrl="" songArtistUrl="" songAudioFileUrl="" stabilizationMode="0" mediaItemType="2" />
    <MediaItem id="5012" filePath="C:\Users\owner\Dropbox\Work\png\animation T=1.05012.png" arWidth="640" arHeight="480" duration="0" songTitle="" songArtist="" songAlbum="" songCopyrightUrl="" songArtistUrl="" songAudioFileUrl="" stabilizationMode="0" mediaItemType="2" />
    <MediaItem id="5013" filePath="C:\Users\owner\Dropbox\Work\png\animation T=1.05013.png" arWidth="640" arHeight="480" duration="0" songTitle="" songArtist="" songAlbum="" songCopyrightUrl="" songArtistUrl="" songAudioFileUrl="" stabilizationMode="0" mediaItemType="2" />
    <MediaItem id="5014" filePath="C:\Users\owner\Dropbox\Work\png\animation T=1.05014.png" arWidth="640" arHeight="480" duration="0" songTitle="" songArtist="" songAlbum="" songCopyrightUrl="" songArtistUrl="" songAudioFileUrl="" stabilizationMode="0" mediaItemType="2" />
    <MediaItem id="5015" filePath="C:\Users\owner\Dropbox\Work\png\animation T=1.05015.png" arWidth="640" arHeight="480" duration="0" songTitle="" songArtist="" songAlbum="" songCopyrightUrl="" songArtistUrl="" songAudioFileUrl="" stabilizationMode="0" mediaItemType="2" />
    <MediaItem id="5016" filePath="C:\Users\owner\Dropbox\Work\png\animation T=1.05016.png" arWidth="640" arHeight="480" duration="0" songTitle="" songArtist="" songAlbum="" songCopyrightUrl="" songArtistUrl="" songAudioFileUrl="" stabilizationMode="0" mediaItemType="2" />
    <MediaItem id="5017" filePath="C:\Users\owner\Dropbox\Work\png\animation T=1.05017.png" arWidth="640" arHeight="480" duration="0" songTitle="" songArtist="" songAlbum="" songCopyrightUrl="" songArtistUrl="" songAudioFileUrl="" stabilizationMode="0" mediaItemType="2" />
    <MediaItem id="5018" filePath="C:\Users\owner\Dropbox\Work\png\animation T=1.05018.png" arWidth="640" arHeight="480" duration="0" songTitle="" songArtist="" songAlbum="" songCopyrightUrl="" songArtistUrl="" songAudioFileUrl="" stabilizationMode="0" mediaItemType="2" />
    <MediaItem id="5019" filePath="C:\Users\owner\Dropbox\Work\png\animation T=1.05019.png" arWidth="640" arHeight="480" duration="0" songTitle="" songArtist="" songAlbum="" songCopyrightUrl="" songArtistUrl="" songAudioFileUrl="" stabilizationMode="0" mediaItemType="2" />
    <MediaItem id="5020" filePath="C:\Users\owner\Dropbox\Work\png\animation T=1.05020.png" arWidth="640" arHeight="480" duration="0" songTitle="" songArtist="" songAlbum="" songCopyrightUrl="" songArtistUrl="" songAudioFileUrl="" stabilizationMode="0" mediaItemType="2" />
    <MediaItem id="5021" filePath="C:\Users\owner\Dropbox\Work\png\animation T=1.05021.png" arWidth="640" arHeight="480" duration="0" songTitle="" songArtist="" songAlbum="" songCopyrightUrl="" songArtistUrl="" songAudioFileUrl="" stabilizationMode="0" mediaItemType="2" />
    <MediaItem id="5022" filePath="C:\Users\owner\Dropbox\Work\png\animation T=1.05022.png" arWidth="640" arHeight="480" duration="0" songTitle="" songArtist="" songAlbum="" songCopyrightUrl="" songArtistUrl="" songAudioFileUrl="" stabilizationMode="0" mediaItemType="2" />
    <MediaItem id="5023" filePath="C:\Users\owner\Dropbox\Work\png\animation T=1.05023.png" arWidth="640" arHeight="480" duration="0" songTitle="" songArtist="" songAlbum="" songCopyrightUrl="" songArtistUrl="" songAudioFileUrl="" stabilizationMode="0" mediaItemType="2" />
    <MediaItem id="5024" filePath="C:\Users\owner\Dropbox\Work\png\animation T=1.05024.png" arWidth="640" arHeight="480" duration="0" songTitle="" songArtist="" songAlbum="" songCopyrightUrl="" songArtistUrl="" songAudioFileUrl="" stabilizationMode="0" mediaItemType="2" />
    <MediaItem id="5025" filePath="C:\Users\owner\Dropbox\Work\png\animation T=1.05025.png" arWidth="640" arHeight="480" duration="0" songTitle="" songArtist="" songAlbum="" songCopyrightUrl="" songArtistUrl="" songAudioFileUrl="" stabilizationMode="0" mediaItemType="2" />
    <MediaItem id="5026" filePath="C:\Users\owner\Dropbox\Work\png\animation T=1.05026.png" arWidth="640" arHeight="480" duration="0" songTitle="" songArtist="" songAlbum="" songCopyrightUrl="" songArtistUrl="" songAudioFileUrl="" stabilizationMode="0" mediaItemType="2" />
    <MediaItem id="5027" filePath="C:\Users\owner\Dropbox\Work\png\animation T=1.05027.png" arWidth="640" arHeight="480" duration="0" songTitle="" songArtist="" songAlbum="" songCopyrightUrl="" songArtistUrl="" songAudioFileUrl="" stabilizationMode="0" mediaItemType="2" />
    <MediaItem id="5028" filePath="C:\Users\owner\Dropbox\Work\png\animation T=1.05028.png" arWidth="640" arHeight="480" duration="0" songTitle="" songArtist="" songAlbum="" songCopyrightUrl="" songArtistUrl="" songAudioFileUrl="" stabilizationMode="0" mediaItemType="2" />
    <MediaItem id="5029" filePath="C:\Users\owner\Dropbox\Work\png\animation T=1.05029.png" arWidth="640" arHeight="480" duration="0" songTitle="" songArtist="" songAlbum="" songCopyrightUrl="" songArtistUrl="" songAudioFileUrl="" stabilizationMode="0" mediaItemType="2" />
    <MediaItem id="5030" filePath="C:\Users\owner\Dropbox\Work\png\animation T=1.05030.png" arWidth="640" arHeight="480" duration="0" songTitle="" songArtist="" songAlbum="" songCopyrightUrl="" songArtistUrl="" songAudioFileUrl="" stabilizationMode="0" mediaItemType="2" />
    <MediaItem id="5031" filePath="C:\Users\owner\Dropbox\Work\png\animation T=1.05031.png" arWidth="640" arHeight="480" duration="0" songTitle="" songArtist="" songAlbum="" songCopyrightUrl="" songArtistUrl="" songAudioFileUrl="" stabilizationMode="0" mediaItemType="2" />
    <MediaItem id="5032" filePath="C:\Users\owner\Dropbox\Work\png\animation T=1.05032.png" arWidth="640" arHeight="480" duration="0" songTitle="" songArtist="" songAlbum="" songCopyrightUrl="" songArtistUrl="" songAudioFileUrl="" stabilizationMode="0" mediaItemType="2" />
    <MediaItem id="5033" filePath="C:\Users\owner\Dropbox\Work\png\animation T=1.05033.png" arWidth="640" arHeight="480" duration="0" songTitle="" songArtist="" songAlbum="" songCopyrightUrl="" songArtistUrl="" songAudioFileUrl="" stabilizationMode="0" mediaItemType="2" />
    <MediaItem id="5034" filePath="C:\Users\owner\Dropbox\Work\png\animation T=1.05034.png" arWidth="640" arHeight="480" duration="0" songTitle="" songArtist="" songAlbum="" songCopyrightUrl="" songArtistUrl="" songAudioFileUrl="" stabilizationMode="0" mediaItemType="2" />
    <MediaItem id="5035" filePath="C:\Users\owner\Dropbox\Work\png\animation T=1.05035.png" arWidth="640" arHeight="480" duration="0" songTitle="" songArtist="" songAlbum="" songCopyrightUrl="" songArtistUrl="" songAudioFileUrl="" stabilizationMode="0" mediaItemType="2" />
    <MediaItem id="5036" filePath="C:\Users\owner\Dropbox\Work\png\animation T=1.05036.png" arWidth="640" arHeight="480" duration="0" songTitle="" songArtist="" songAlbum="" songCopyrightUrl="" songArtistUrl="" songAudioFileUrl="" stabilizationMode="0" mediaItemType="2" />
    <MediaItem id="5037" filePath="C:\Users\owner\Dropbox\Work\png\animation T=1.05037.png" arWidth="640" arHeight="480" duration="0" songTitle="" songArtist="" songAlbum="" songCopyrightUrl="" songArtistUrl="" songAudioFileUrl="" stabilizationMode="0" mediaItemType="2" />
    <MediaItem id="5038" filePath="C:\Users\owner\Dropbox\Work\png\animation T=1.05038.png" arWidth="640" arHeight="480" duration="0" songTitle="" songArtist="" songAlbum="" songCopyrightUrl="" songArtistUrl="" songAudioFileUrl="" stabilizationMode="0" mediaItemType="2" />
    <MediaItem id="5039" filePath="C:\Users\owner\Dropbox\Work\png\animation T=1.05039.png" arWidth="640" arHeight="480" duration="0" songTitle="" songArtist="" songAlbum="" songCopyrightUrl="" songArtistUrl="" songAudioFileUrl="" stabilizationMode="0" mediaItemType="2" />
    <MediaItem id="5040" filePath="C:\Users\owner\Dropbox\Work\png\animation T=1.05040.png" arWidth="640" arHeight="480" duration="0" songTitle="" songArtist="" songAlbum="" songCopyrightUrl="" songArtistUrl="" songAudioFileUrl="" stabilizationMode="0" mediaItemType="2" />
    <MediaItem id="5041" filePath="C:\Users\owner\Dropbox\Work\png\animation T=1.05041.png" arWidth="640" arHeight="480" duration="0" songTitle="" songArtist="" songAlbum="" songCopyrightUrl="" songArtistUrl="" songAudioFileUrl="" stabilizationMode="0" mediaItemType="2" />
    <MediaItem id="5042" filePath="C:\Users\owner\Dropbox\Work\png\animation T=1.05042.png" arWidth="640" arHeight="480" duration="0" songTitle="" songArtist="" songAlbum="" songCopyrightUrl="" songArtistUrl="" songAudioFileUrl="" stabilizationMode="0" mediaItemType="2" />
    <MediaItem id="5043" filePath="C:\Users\owner\Dropbox\Work\png\animation T=1.05043.png" arWidth="640" arHeight="480" duration="0" songTitle="" songArtist="" songAlbum="" songCopyrightUrl="" songArtistUrl="" songAudioFileUrl="" stabilizationMode="0" mediaItemType="2" />
    <MediaItem id="5044" filePath="C:\Users\owner\Dropbox\Work\png\animation T=1.05044.png" arWidth="640" arHeight="480" duration="0" songTitle="" songArtist="" songAlbum="" songCopyrightUrl="" songArtistUrl="" songAudioFileUrl="" stabilizationMode="0" mediaItemType="2" />
    <MediaItem id="5045" filePath="C:\Users\owner\Dropbox\Work\png\animation T=1.05045.png" arWidth="640" arHeight="480" duration="0" songTitle="" songArtist="" songAlbum="" songCopyrightUrl="" songArtistUrl="" songAudioFileUrl="" stabilizationMode="0" mediaItemType="2" />
    <MediaItem id="5046" filePath="C:\Users\owner\Dropbox\Work\png\animation T=1.05046.png" arWidth="640" arHeight="480" duration="0" songTitle="" songArtist="" songAlbum="" songCopyrightUrl="" songArtistUrl="" songAudioFileUrl="" stabilizationMode="0" mediaItemType="2" />
    <MediaItem id="5047" filePath="C:\Users\owner\Dropbox\Work\png\animation T=1.05047.png" arWidth="640" arHeight="480" duration="0" songTitle="" songArtist="" songAlbum="" songCopyrightUrl="" songArtistUrl="" songAudioFileUrl="" stabilizationMode="0" mediaItemType="2" />
    <MediaItem id="5048" filePath="C:\Users\owner\Dropbox\Work\png\animation T=1.05048.png" arWidth="640" arHeight="480" duration="0" songTitle="" songArtist="" songAlbum="" songCopyrightUrl="" songArtistUrl="" songAudioFileUrl="" stabilizationMode="0" mediaItemType="2" />
    <MediaItem id="5049" filePath="C:\Users\owner\Dropbox\Work\png\animation T=1.05049.png" arWidth="640" arHeight="480" duration="0" songTitle="" songArtist="" songAlbum="" songCopyrightUrl="" songArtistUrl="" songAudioFileUrl="" stabilizationMode="0" mediaItemType="2" />
    <MediaItem id="5050" filePath="C:\Users\owner\Dropbox\Work\png\animation T=1.05050.png" arWidth="640" arHeight="480" duration="0" songTitle="" songArtist="" songAlbum="" songCopyrightUrl="" songArtistUrl="" songAudioFileUrl="" stabilizationMode="0" mediaItemType="2" />
    <MediaItem id="5051" filePath="C:\Users\owner\Dropbox\Work\png\animation T=1.05051.png" arWidth="640" arHeight="480" duration="0" songTitle="" songArtist="" songAlbum="" songCopyrightUrl="" songArtistUrl="" songAudioFileUrl="" stabilizationMode="0" mediaItemType="2" />
    <MediaItem id="5052" filePath="C:\Users\owner\Dropbox\Work\png\animation T=1.05052.png" arWidth="640" arHeight="480" duration="0" songTitle="" songArtist="" songAlbum="" songCopyrightUrl="" songArtistUrl="" songAudioFileUrl="" stabilizationMode="0" mediaItemType="2" />
    <MediaItem id="5053" filePath="C:\Users\owner\Dropbox\Work\png\animation T=1.05053.png" arWidth="640" arHeight="480" duration="0" songTitle="" songArtist="" songAlbum="" songCopyrightUrl="" songArtistUrl="" songAudioFileUrl="" stabilizationMode="0" mediaItemType="2" />
    <MediaItem id="5054" filePath="C:\Users\owner\Dropbox\Work\png\animation T=1.05054.png" arWidth="640" arHeight="480" duration="0" songTitle="" songArtist="" songAlbum="" songCopyrightUrl="" songArtistUrl="" songAudioFileUrl="" stabilizationMode="0" mediaItemType="2" />
    <MediaItem id="5055" filePath="C:\Users\owner\Dropbox\Work\png\animation T=1.05055.png" arWidth="640" arHeight="480" duration="0" songTitle="" songArtist="" songAlbum="" songCopyrightUrl="" songArtistUrl="" songAudioFileUrl="" stabilizationMode="0" mediaItemType="2" />
    <MediaItem id="5056" filePath="C:\Users\owner\Dropbox\Work\png\animation T=1.05056.png" arWidth="640" arHeight="480" duration="0" songTitle="" songArtist="" songAlbum="" songCopyrightUrl="" songArtistUrl="" songAudioFileUrl="" stabilizationMode="0" mediaItemType="2" />
    <MediaItem id="5057" filePath="C:\Users\owner\Dropbox\Work\png\animation T=1.05057.png" arWidth="640" arHeight="480" duration="0" songTitle="" songArtist="" songAlbum="" songCopyrightUrl="" songArtistUrl="" songAudioFileUrl="" stabilizationMode="0" mediaItemType="2" />
    <MediaItem id="5058" filePath="C:\Users\owner\Dropbox\Work\png\animation T=1.05058.png" arWidth="640" arHeight="480" duration="0" songTitle="" songArtist="" songAlbum="" songCopyrightUrl="" songArtistUrl="" songAudioFileUrl="" stabilizationMode="0" mediaItemType="2" />
    <MediaItem id="5059" filePath="C:\Users\owner\Dropbox\Work\png\animation T=1.05059.png" arWidth="640" arHeight="480" duration="0" songTitle="" songArtist="" songAlbum="" songCopyrightUrl="" songArtistUrl="" songAudioFileUrl="" stabilizationMode="0" mediaItemType="2" />
    <MediaItem id="5060" filePath="C:\Users\owner\Dropbox\Work\png\animation T=1.05060.png" arWidth="640" arHeight="480" duration="0" songTitle="" songArtist="" songAlbum="" songCopyrightUrl="" songArtistUrl="" songAudioFileUrl="" stabilizationMode="0" mediaItemType="2" />
    <MediaItem id="5061" filePath="C:\Users\owner\Dropbox\Work\png\animation T=1.05061.png" arWidth="640" arHeight="480" duration="0" songTitle="" songArtist="" songAlbum="" songCopyrightUrl="" songArtistUrl="" songAudioFileUrl="" stabilizationMode="0" mediaItemType="2" />
    <MediaItem id="5062" filePath="C:\Users\owner\Dropbox\Work\png\animation T=1.05062.png" arWidth="640" arHeight="480" duration="0" songTitle="" songArtist="" songAlbum="" songCopyrightUrl="" songArtistUrl="" songAudioFileUrl="" stabilizationMode="0" mediaItemType="2" />
    <MediaItem id="5063" filePath="C:\Users\owner\Dropbox\Work\png\animation T=1.05063.png" arWidth="640" arHeight="480" duration="0" songTitle="" songArtist="" songAlbum="" songCopyrightUrl="" songArtistUrl="" songAudioFileUrl="" stabilizationMode="0" mediaItemType="2" />
    <MediaItem id="5064" filePath="C:\Users\owner\Dropbox\Work\png\animation T=1.05064.png" arWidth="640" arHeight="480" duration="0" songTitle="" songArtist="" songAlbum="" songCopyrightUrl="" songArtistUrl="" songAudioFileUrl="" stabilizationMode="0" mediaItemType="2" />
    <MediaItem id="5065" filePath="C:\Users\owner\Dropbox\Work\png\animation T=1.05065.png" arWidth="640" arHeight="480" duration="0" songTitle="" songArtist="" songAlbum="" songCopyrightUrl="" songArtistUrl="" songAudioFileUrl="" stabilizationMode="0" mediaItemType="2" />
    <MediaItem id="5066" filePath="C:\Users\owner\Dropbox\Work\png\animation T=1.05066.png" arWidth="640" arHeight="480" duration="0" songTitle="" songArtist="" songAlbum="" songCopyrightUrl="" songArtistUrl="" songAudioFileUrl="" stabilizationMode="0" mediaItemType="2" />
    <MediaItem id="5067" filePath="C:\Users\owner\Dropbox\Work\png\animation T=1.05067.png" arWidth="640" arHeight="480" duration="0" songTitle="" songArtist="" songAlbum="" songCopyrightUrl="" songArtistUrl="" songAudioFileUrl="" stabilizationMode="0" mediaItemType="2" />
    <MediaItem id="5068" filePath="C:\Users\owner\Dropbox\Work\png\animation T=1.05068.png" arWidth="640" arHeight="480" duration="0" songTitle="" songArtist="" songAlbum="" songCopyrightUrl="" songArtistUrl="" songAudioFileUrl="" stabilizationMode="0" mediaItemType="2" />
    <MediaItem id="5069" filePath="C:\Users\owner\Dropbox\Work\png\animation T=1.05069.png" arWidth="640" arHeight="480" duration="0" songTitle="" songArtist="" songAlbum="" songCopyrightUrl="" songArtistUrl="" songAudioFileUrl="" stabilizationMode="0" mediaItemType="2" />
    <MediaItem id="5070" filePath="C:\Users\owner\Dropbox\Work\png\animation T=1.05070.png" arWidth="640" arHeight="480" duration="0" songTitle="" songArtist="" songAlbum="" songCopyrightUrl="" songArtistUrl="" songAudioFileUrl="" stabilizationMode="0" mediaItemType="2" />
    <MediaItem id="5071" filePath="C:\Users\owner\Dropbox\Work\png\animation T=1.05071.png" arWidth="640" arHeight="480" duration="0" songTitle="" songArtist="" songAlbum="" songCopyrightUrl="" songArtistUrl="" songAudioFileUrl="" stabilizationMode="0" mediaItemType="2" />
    <MediaItem id="5072" filePath="C:\Users\owner\Dropbox\Work\png\animation T=1.05072.png" arWidth="640" arHeight="480" duration="0" songTitle="" songArtist="" songAlbum="" songCopyrightUrl="" songArtistUrl="" songAudioFileUrl="" stabilizationMode="0" mediaItemType="2" />
    <MediaItem id="5073" filePath="C:\Users\owner\Dropbox\Work\png\animation T=1.05073.png" arWidth="640" arHeight="480" duration="0" songTitle="" songArtist="" songAlbum="" songCopyrightUrl="" songArtistUrl="" songAudioFileUrl="" stabilizationMode="0" mediaItemType="2" />
    <MediaItem id="5074" filePath="C:\Users\owner\Dropbox\Work\png\animation T=1.05074.png" arWidth="640" arHeight="480" duration="0" songTitle="" songArtist="" songAlbum="" songCopyrightUrl="" songArtistUrl="" songAudioFileUrl="" stabilizationMode="0" mediaItemType="2" />
    <MediaItem id="5075" filePath="C:\Users\owner\Dropbox\Work\png\animation T=1.05075.png" arWidth="640" arHeight="480" duration="0" songTitle="" songArtist="" songAlbum="" songCopyrightUrl="" songArtistUrl="" songAudioFileUrl="" stabilizationMode="0" mediaItemType="2" />
    <MediaItem id="5076" filePath="C:\Users\owner\Dropbox\Work\png\animation T=1.05076.png" arWidth="640" arHeight="480" duration="0" songTitle="" songArtist="" songAlbum="" songCopyrightUrl="" songArtistUrl="" songAudioFileUrl="" stabilizationMode="0" mediaItemType="2" />
    <MediaItem id="5077" filePath="C:\Users\owner\Dropbox\Work\png\animation T=1.05077.png" arWidth="640" arHeight="480" duration="0" songTitle="" songArtist="" songAlbum="" songCopyrightUrl="" songArtistUrl="" songAudioFileUrl="" stabilizationMode="0" mediaItemType="2" />
    <MediaItem id="5078" filePath="C:\Users\owner\Dropbox\Work\png\animation T=1.05078.png" arWidth="640" arHeight="480" duration="0" songTitle="" songArtist="" songAlbum="" songCopyrightUrl="" songArtistUrl="" songAudioFileUrl="" stabilizationMode="0" mediaItemType="2" />
    <MediaItem id="5079" filePath="C:\Users\owner\Dropbox\Work\png\animation T=1.05079.png" arWidth="640" arHeight="480" duration="0" songTitle="" songArtist="" songAlbum="" songCopyrightUrl="" songArtistUrl="" songAudioFileUrl="" stabilizationMode="0" mediaItemType="2" />
    <MediaItem id="5080" filePath="C:\Users\owner\Dropbox\Work\png\animation T=1.05080.png" arWidth="640" arHeight="480" duration="0" songTitle="" songArtist="" songAlbum="" songCopyrightUrl="" songArtistUrl="" songAudioFileUrl="" stabilizationMode="0" mediaItemType="2" />
    <MediaItem id="5081" filePath="C:\Users\owner\Dropbox\Work\png\animation T=1.05081.png" arWidth="640" arHeight="480" duration="0" songTitle="" songArtist="" songAlbum="" songCopyrightUrl="" songArtistUrl="" songAudioFileUrl="" stabilizationMode="0" mediaItemType="2" />
    <MediaItem id="5082" filePath="C:\Users\owner\Dropbox\Work\png\animation T=1.05082.png" arWidth="640" arHeight="480" duration="0" songTitle="" songArtist="" songAlbum="" songCopyrightUrl="" songArtistUrl="" songAudioFileUrl="" stabilizationMode="0" mediaItemType="2" />
    <MediaItem id="5083" filePath="C:\Users\owner\Dropbox\Work\png\animation T=1.05083.png" arWidth="640" arHeight="480" duration="0" songTitle="" songArtist="" songAlbum="" songCopyrightUrl="" songArtistUrl="" songAudioFileUrl="" stabilizationMode="0" mediaItemType="2" />
    <MediaItem id="5084" filePath="C:\Users\owner\Dropbox\Work\png\animation T=1.05084.png" arWidth="640" arHeight="480" duration="0" songTitle="" songArtist="" songAlbum="" songCopyrightUrl="" songArtistUrl="" songAudioFileUrl="" stabilizationMode="0" mediaItemType="2" />
    <MediaItem id="5085" filePath="C:\Users\owner\Dropbox\Work\png\animation T=1.05085.png" arWidth="640" arHeight="480" duration="0" songTitle="" songArtist="" songAlbum="" songCopyrightUrl="" songArtistUrl="" songAudioFileUrl="" stabilizationMode="0" mediaItemType="2" />
    <MediaItem id="5086" filePath="C:\Users\owner\Dropbox\Work\png\animation T=1.05086.png" arWidth="640" arHeight="480" duration="0" songTitle="" songArtist="" songAlbum="" songCopyrightUrl="" songArtistUrl="" songAudioFileUrl="" stabilizationMode="0" mediaItemType="2" />
    <MediaItem id="5087" filePath="C:\Users\owner\Dropbox\Work\png\animation T=1.05087.png" arWidth="640" arHeight="480" duration="0" songTitle="" songArtist="" songAlbum="" songCopyrightUrl="" songArtistUrl="" songAudioFileUrl="" stabilizationMode="0" mediaItemType="2" />
    <MediaItem id="5088" filePath="C:\Users\owner\Dropbox\Work\png\animation T=1.05088.png" arWidth="640" arHeight="480" duration="0" songTitle="" songArtist="" songAlbum="" songCopyrightUrl="" songArtistUrl="" songAudioFileUrl="" stabilizationMode="0" mediaItemType="2" />
    <MediaItem id="5089" filePath="C:\Users\owner\Dropbox\Work\png\animation T=1.05089.png" arWidth="640" arHeight="480" duration="0" songTitle="" songArtist="" songAlbum="" songCopyrightUrl="" songArtistUrl="" songAudioFileUrl="" stabilizationMode="0" mediaItemType="2" />
    <MediaItem id="5090" filePath="C:\Users\owner\Dropbox\Work\png\animation T=1.05090.png" arWidth="640" arHeight="480" duration="0" songTitle="" songArtist="" songAlbum="" songCopyrightUrl="" songArtistUrl="" songAudioFileUrl="" stabilizationMode="0" mediaItemType="2" />
    <MediaItem id="5091" filePath="C:\Users\owner\Dropbox\Work\png\animation T=1.05091.png" arWidth="640" arHeight="480" duration="0" songTitle="" songArtist="" songAlbum="" songCopyrightUrl="" songArtistUrl="" songAudioFileUrl="" stabilizationMode="0" mediaItemType="2" />
    <MediaItem id="5092" filePath="C:\Users\owner\Dropbox\Work\png\animation T=1.05092.png" arWidth="640" arHeight="480" duration="0" songTitle="" songArtist="" songAlbum="" songCopyrightUrl="" songArtistUrl="" songAudioFileUrl="" stabilizationMode="0" mediaItemType="2" />
    <MediaItem id="5093" filePath="C:\Users\owner\Dropbox\Work\png\animation T=1.05093.png" arWidth="640" arHeight="480" duration="0" songTitle="" songArtist="" songAlbum="" songCopyrightUrl="" songArtistUrl="" songAudioFileUrl="" stabilizationMode="0" mediaItemType="2" />
    <MediaItem id="5094" filePath="C:\Users\owner\Dropbox\Work\png\animation T=1.05094.png" arWidth="640" arHeight="480" duration="0" songTitle="" songArtist="" songAlbum="" songCopyrightUrl="" songArtistUrl="" songAudioFileUrl="" stabilizationMode="0" mediaItemType="2" />
    <MediaItem id="5095" filePath="C:\Users\owner\Dropbox\Work\png\animation T=1.05095.png" arWidth="640" arHeight="480" duration="0" songTitle="" songArtist="" songAlbum="" songCopyrightUrl="" songArtistUrl="" songAudioFileUrl="" stabilizationMode="0" mediaItemType="2" />
    <MediaItem id="5096" filePath="C:\Users\owner\Dropbox\Work\png\animation T=1.05096.png" arWidth="640" arHeight="480" duration="0" songTitle="" songArtist="" songAlbum="" songCopyrightUrl="" songArtistUrl="" songAudioFileUrl="" stabilizationMode="0" mediaItemType="2" />
    <MediaItem id="5097" filePath="C:\Users\owner\Dropbox\Work\png\animation T=1.05097.png" arWidth="640" arHeight="480" duration="0" songTitle="" songArtist="" songAlbum="" songCopyrightUrl="" songArtistUrl="" songAudioFileUrl="" stabilizationMode="0" mediaItemType="2" />
    <MediaItem id="5098" filePath="C:\Users\owner\Dropbox\Work\png\animation T=1.05098.png" arWidth="640" arHeight="480" duration="0" songTitle="" songArtist="" songAlbum="" songCopyrightUrl="" songArtistUrl="" songAudioFileUrl="" stabilizationMode="0" mediaItemType="2" />
    <MediaItem id="5099" filePath="C:\Users\owner\Dropbox\Work\png\animation T=1.05099.png" arWidth="640" arHeight="480" duration="0" songTitle="" songArtist="" songAlbum="" songCopyrightUrl="" songArtistUrl="" songAudioFileUrl="" stabilizationMode="0" mediaItemType="2" />
    <MediaItem id="5100" filePath="C:\Users\owner\Dropbox\Work\png\animation T=1.05100.png" arWidth="640" arHeight="480" duration="0" songTitle="" songArtist="" songAlbum="" songCopyrightUrl="" songArtistUrl="" songAudioFileUrl="" stabilizationMode="0" mediaItemType="2" />
    <MediaItem id="5101" filePath="C:\Users\owner\Dropbox\Work\png\animation T=1.05101.png" arWidth="640" arHeight="480" duration="0" songTitle="" songArtist="" songAlbum="" songCopyrightUrl="" songArtistUrl="" songAudioFileUrl="" stabilizationMode="0" mediaItemType="2" />
    <MediaItem id="5102" filePath="C:\Users\owner\Dropbox\Work\png\animation T=1.05102.png" arWidth="640" arHeight="480" duration="0" songTitle="" songArtist="" songAlbum="" songCopyrightUrl="" songArtistUrl="" songAudioFileUrl="" stabilizationMode="0" mediaItemType="2" />
    <MediaItem id="5103" filePath="C:\Users\owner\Dropbox\Work\png\animation T=1.05103.png" arWidth="640" arHeight="480" duration="0" songTitle="" songArtist="" songAlbum="" songCopyrightUrl="" songArtistUrl="" songAudioFileUrl="" stabilizationMode="0" mediaItemType="2" />
    <MediaItem id="5104" filePath="C:\Users\owner\Dropbox\Work\png\animation T=1.05104.png" arWidth="640" arHeight="480" duration="0" songTitle="" songArtist="" songAlbum="" songCopyrightUrl="" songArtistUrl="" songAudioFileUrl="" stabilizationMode="0" mediaItemType="2" />
    <MediaItem id="5105" filePath="C:\Users\owner\Dropbox\Work\png\animation T=1.05105.png" arWidth="640" arHeight="480" duration="0" songTitle="" songArtist="" songAlbum="" songCopyrightUrl="" songArtistUrl="" songAudioFileUrl="" stabilizationMode="0" mediaItemType="2" />
    <MediaItem id="5106" filePath="C:\Users\owner\Dropbox\Work\png\animation T=1.05106.png" arWidth="640" arHeight="480" duration="0" songTitle="" songArtist="" songAlbum="" songCopyrightUrl="" songArtistUrl="" songAudioFileUrl="" stabilizationMode="0" mediaItemType="2" />
    <MediaItem id="5107" filePath="C:\Users\owner\Dropbox\Work\png\animation T=1.05107.png" arWidth="640" arHeight="480" duration="0" songTitle="" songArtist="" songAlbum="" songCopyrightUrl="" songArtistUrl="" songAudioFileUrl="" stabilizationMode="0" mediaItemType="2" />
    <MediaItem id="5108" filePath="C:\Users\owner\Dropbox\Work\png\animation T=1.05108.png" arWidth="640" arHeight="480" duration="0" songTitle="" songArtist="" songAlbum="" songCopyrightUrl="" songArtistUrl="" songAudioFileUrl="" stabilizationMode="0" mediaItemType="2" />
    <MediaItem id="5109" filePath="C:\Users\owner\Dropbox\Work\png\animation T=1.05109.png" arWidth="640" arHeight="480" duration="0" songTitle="" songArtist="" songAlbum="" songCopyrightUrl="" songArtistUrl="" songAudioFileUrl="" stabilizationMode="0" mediaItemType="2" />
    <MediaItem id="5110" filePath="C:\Users\owner\Dropbox\Work\png\animation T=1.05110.png" arWidth="640" arHeight="480" duration="0" songTitle="" songArtist="" songAlbum="" songCopyrightUrl="" songArtistUrl="" songAudioFileUrl="" stabilizationMode="0" mediaItemType="2" />
    <MediaItem id="5111" filePath="C:\Users\owner\Dropbox\Work\png\animation T=1.05111.png" arWidth="640" arHeight="480" duration="0" songTitle="" songArtist="" songAlbum="" songCopyrightUrl="" songArtistUrl="" songAudioFileUrl="" stabilizationMode="0" mediaItemType="2" />
    <MediaItem id="5112" filePath="C:\Users\owner\Dropbox\Work\png\animation T=1.05112.png" arWidth="640" arHeight="480" duration="0" songTitle="" songArtist="" songAlbum="" songCopyrightUrl="" songArtistUrl="" songAudioFileUrl="" stabilizationMode="0" mediaItemType="2" />
    <MediaItem id="5113" filePath="C:\Users\owner\Dropbox\Work\png\animation T=1.05113.png" arWidth="640" arHeight="480" duration="0" songTitle="" songArtist="" songAlbum="" songCopyrightUrl="" songArtistUrl="" songAudioFileUrl="" stabilizationMode="0" mediaItemType="2" />
    <MediaItem id="5114" filePath="C:\Users\owner\Dropbox\Work\png\animation T=1.05114.png" arWidth="640" arHeight="480" duration="0" songTitle="" songArtist="" songAlbum="" songCopyrightUrl="" songArtistUrl="" songAudioFileUrl="" stabilizationMode="0" mediaItemType="2" />
    <MediaItem id="5115" filePath="C:\Users\owner\Dropbox\Work\png\animation T=1.05115.png" arWidth="640" arHeight="480" duration="0" songTitle="" songArtist="" songAlbum="" songCopyrightUrl="" songArtistUrl="" songAudioFileUrl="" stabilizationMode="0" mediaItemType="2" />
    <MediaItem id="5116" filePath="C:\Users\owner\Dropbox\Work\png\animation T=1.05116.png" arWidth="640" arHeight="480" duration="0" songTitle="" songArtist="" songAlbum="" songCopyrightUrl="" songArtistUrl="" songAudioFileUrl="" stabilizationMode="0" mediaItemType="2" />
    <MediaItem id="5117" filePath="C:\Users\owner\Dropbox\Work\png\animation T=1.05117.png" arWidth="640" arHeight="480" duration="0" songTitle="" songArtist="" songAlbum="" songCopyrightUrl="" songArtistUrl="" songAudioFileUrl="" stabilizationMode="0" mediaItemType="2" />
    <MediaItem id="5118" filePath="C:\Users\owner\Dropbox\Work\png\animation T=1.05118.png" arWidth="640" arHeight="480" duration="0" songTitle="" songArtist="" songAlbum="" songCopyrightUrl="" songArtistUrl="" songAudioFileUrl="" stabilizationMode="0" mediaItemType="2" />
    <MediaItem id="5119" filePath="C:\Users\owner\Dropbox\Work\png\animation T=1.05119.png" arWidth="640" arHeight="480" duration="0" songTitle="" songArtist="" songAlbum="" songCopyrightUrl="" songArtistUrl="" songAudioFileUrl="" stabilizationMode="0" mediaItemType="2" />
    <MediaItem id="5120" filePath="C:\Users\owner\Dropbox\Work\png\animation T=1.05120.png" arWidth="640" arHeight="480" duration="0" songTitle="" songArtist="" songAlbum="" songCopyrightUrl="" songArtistUrl="" songAudioFileUrl="" stabilizationMode="0" mediaItemType="2" />
    <MediaItem id="5121" filePath="C:\Users\owner\Dropbox\Work\png\animation T=1.05121.png" arWidth="640" arHeight="480" duration="0" songTitle="" songArtist="" songAlbum="" songCopyrightUrl="" songArtistUrl="" songAudioFileUrl="" stabilizationMode="0" mediaItemType="2" />
    <MediaItem id="5122" filePath="C:\Users\owner\Dropbox\Work\png\animation T=1.05122.png" arWidth="640" arHeight="480" duration="0" songTitle="" songArtist="" songAlbum="" songCopyrightUrl="" songArtistUrl="" songAudioFileUrl="" stabilizationMode="0" mediaItemType="2" />
    <MediaItem id="5123" filePath="C:\Users\owner\Dropbox\Work\png\animation T=1.05123.png" arWidth="640" arHeight="480" duration="0" songTitle="" songArtist="" songAlbum="" songCopyrightUrl="" songArtistUrl="" songAudioFileUrl="" stabilizationMode="0" mediaItemType="2" />
    <MediaItem id="5124" filePath="C:\Users\owner\Dropbox\Work\png\animation T=1.05124.png" arWidth="640" arHeight="480" duration="0" songTitle="" songArtist="" songAlbum="" songCopyrightUrl="" songArtistUrl="" songAudioFileUrl="" stabilizationMode="0" mediaItemType="2" />
    <MediaItem id="5125" filePath="C:\Users\owner\Dropbox\Work\png\animation T=1.05125.png" arWidth="640" arHeight="480" duration="0" songTitle="" songArtist="" songAlbum="" songCopyrightUrl="" songArtistUrl="" songAudioFileUrl="" stabilizationMode="0" mediaItemType="2" />
    <MediaItem id="5126" filePath="C:\Users\owner\Dropbox\Work\png\animation T=1.05126.png" arWidth="640" arHeight="480" duration="0" songTitle="" songArtist="" songAlbum="" songCopyrightUrl="" songArtistUrl="" songAudioFileUrl="" stabilizationMode="0" mediaItemType="2" />
    <MediaItem id="5127" filePath="C:\Users\owner\Dropbox\Work\png\animation T=1.05127.png" arWidth="640" arHeight="480" duration="0" songTitle="" songArtist="" songAlbum="" songCopyrightUrl="" songArtistUrl="" songAudioFileUrl="" stabilizationMode="0" mediaItemType="2" />
    <MediaItem id="5128" filePath="C:\Users\owner\Dropbox\Work\png\animation T=1.05128.png" arWidth="640" arHeight="480" duration="0" songTitle="" songArtist="" songAlbum="" songCopyrightUrl="" songArtistUrl="" songAudioFileUrl="" stabilizationMode="0" mediaItemType="2" />
    <MediaItem id="5129" filePath="C:\Users\owner\Dropbox\Work\png\animation T=1.05129.png" arWidth="640" arHeight="480" duration="0" songTitle="" songArtist="" songAlbum="" songCopyrightUrl="" songArtistUrl="" songAudioFileUrl="" stabilizationMode="0" mediaItemType="2" />
    <MediaItem id="5130" filePath="C:\Users\owner\Dropbox\Work\png\animation T=1.05130.png" arWidth="640" arHeight="480" duration="0" songTitle="" songArtist="" songAlbum="" songCopyrightUrl="" songArtistUrl="" songAudioFileUrl="" stabilizationMode="0" mediaItemType="2" />
    <MediaItem id="5131" filePath="C:\Users\owner\Dropbox\Work\png\animation T=1.05131.png" arWidth="640" arHeight="480" duration="0" songTitle="" songArtist="" songAlbum="" songCopyrightUrl="" songArtistUrl="" songAudioFileUrl="" stabilizationMode="0" mediaItemType="2" />
    <MediaItem id="5132" filePath="C:\Users\owner\Dropbox\Work\png\animation T=1.05132.png" arWidth="640" arHeight="480" duration="0" songTitle="" songArtist="" songAlbum="" songCopyrightUrl="" songArtistUrl="" songAudioFileUrl="" stabilizationMode="0" mediaItemType="2" />
    <MediaItem id="5133" filePath="C:\Users\owner\Dropbox\Work\png\animation T=1.05133.png" arWidth="640" arHeight="480" duration="0" songTitle="" songArtist="" songAlbum="" songCopyrightUrl="" songArtistUrl="" songAudioFileUrl="" stabilizationMode="0" mediaItemType="2" />
    <MediaItem id="5134" filePath="C:\Users\owner\Dropbox\Work\png\animation T=1.05134.png" arWidth="640" arHeight="480" duration="0" songTitle="" songArtist="" songAlbum="" songCopyrightUrl="" songArtistUrl="" songAudioFileUrl="" stabilizationMode="0" mediaItemType="2" />
    <MediaItem id="5135" filePath="C:\Users\owner\Dropbox\Work\png\animation T=1.05135.png" arWidth="640" arHeight="480" duration="0" songTitle="" songArtist="" songAlbum="" songCopyrightUrl="" songArtistUrl="" songAudioFileUrl="" stabilizationMode="0" mediaItemType="2" />
    <MediaItem id="5136" filePath="C:\Users\owner\Dropbox\Work\png\animation T=1.05136.png" arWidth="640" arHeight="480" duration="0" songTitle="" songArtist="" songAlbum="" songCopyrightUrl="" songArtistUrl="" songAudioFileUrl="" stabilizationMode="0" mediaItemType="2" />
    <MediaItem id="5137" filePath="C:\Users\owner\Dropbox\Work\png\animation T=1.05137.png" arWidth="640" arHeight="480" duration="0" songTitle="" songArtist="" songAlbum="" songCopyrightUrl="" songArtistUrl="" songAudioFileUrl="" stabilizationMode="0" mediaItemType="2" />
    <MediaItem id="5138" filePath="C:\Users\owner\Dropbox\Work\png\animation T=1.05138.png" arWidth="640" arHeight="480" duration="0" songTitle="" songArtist="" songAlbum="" songCopyrightUrl="" songArtistUrl="" songAudioFileUrl="" stabilizationMode="0" mediaItemType="2" />
    <MediaItem id="5139" filePath="C:\Users\owner\Dropbox\Work\png\animation T=1.05139.png" arWidth="640" arHeight="480" duration="0" songTitle="" songArtist="" songAlbum="" songCopyrightUrl="" songArtistUrl="" songAudioFileUrl="" stabilizationMode="0" mediaItemType="2" />
    <MediaItem id="5140" filePath="C:\Users\owner\Dropbox\Work\png\animation T=1.05140.png" arWidth="640" arHeight="480" duration="0" songTitle="" songArtist="" songAlbum="" songCopyrightUrl="" songArtistUrl="" songAudioFileUrl="" stabilizationMode="0" mediaItemType="2" />
    <MediaItem id="5141" filePath="C:\Users\owner\Dropbox\Work\png\animation T=1.05141.png" arWidth="640" arHeight="480" duration="0" songTitle="" songArtist="" songAlbum="" songCopyrightUrl="" songArtistUrl="" songAudioFileUrl="" stabilizationMode="0" mediaItemType="2" />
    <MediaItem id="5142" filePath="C:\Users\owner\Dropbox\Work\png\animation T=1.05142.png" arWidth="640" arHeight="480" duration="0" songTitle="" songArtist="" songAlbum="" songCopyrightUrl="" songArtistUrl="" songAudioFileUrl="" stabilizationMode="0" mediaItemType="2" />
    <MediaItem id="5143" filePath="C:\Users\owner\Dropbox\Work\png\animation T=1.05143.png" arWidth="640" arHeight="480" duration="0" songTitle="" songArtist="" songAlbum="" songCopyrightUrl="" songArtistUrl="" songAudioFileUrl="" stabilizationMode="0" mediaItemType="2" />
    <MediaItem id="5144" filePath="C:\Users\owner\Dropbox\Work\png\animation T=1.05144.png" arWidth="640" arHeight="480" duration="0" songTitle="" songArtist="" songAlbum="" songCopyrightUrl="" songArtistUrl="" songAudioFileUrl="" stabilizationMode="0" mediaItemType="2" />
    <MediaItem id="5145" filePath="C:\Users\owner\Dropbox\Work\png\animation T=1.05145.png" arWidth="640" arHeight="480" duration="0" songTitle="" songArtist="" songAlbum="" songCopyrightUrl="" songArtistUrl="" songAudioFileUrl="" stabilizationMode="0" mediaItemType="2" />
    <MediaItem id="5146" filePath="C:\Users\owner\Dropbox\Work\png\animation T=1.05146.png" arWidth="640" arHeight="480" duration="0" songTitle="" songArtist="" songAlbum="" songCopyrightUrl="" songArtistUrl="" songAudioFileUrl="" stabilizationMode="0" mediaItemType="2" />
    <MediaItem id="5147" filePath="C:\Users\owner\Dropbox\Work\png\animation T=1.05147.png" arWidth="640" arHeight="480" duration="0" songTitle="" songArtist="" songAlbum="" songCopyrightUrl="" songArtistUrl="" songAudioFileUrl="" stabilizationMode="0" mediaItemType="2" />
    <MediaItem id="5148" filePath="C:\Users\owner\Dropbox\Work\png\animation T=1.05148.png" arWidth="640" arHeight="480" duration="0" songTitle="" songArtist="" songAlbum="" songCopyrightUrl="" songArtistUrl="" songAudioFileUrl="" stabilizationMode="0" mediaItemType="2" />
    <MediaItem id="5149" filePath="C:\Users\owner\Dropbox\Work\png\animation T=1.05149.png" arWidth="640" arHeight="480" duration="0" songTitle="" songArtist="" songAlbum="" songCopyrightUrl="" songArtistUrl="" songAudioFileUrl="" stabilizationMode="0" mediaItemType="2" />
    <MediaItem id="5150" filePath="C:\Users\owner\Dropbox\Work\png\animation T=1.05150.png" arWidth="640" arHeight="480" duration="0" songTitle="" songArtist="" songAlbum="" songCopyrightUrl="" songArtistUrl="" songAudioFileUrl="" stabilizationMode="0" mediaItemType="2" />
    <MediaItem id="5151" filePath="C:\Users\owner\Dropbox\Work\png\animation T=1.05151.png" arWidth="640" arHeight="480" duration="0" songTitle="" songArtist="" songAlbum="" songCopyrightUrl="" songArtistUrl="" songAudioFileUrl="" stabilizationMode="0" mediaItemType="2" />
    <MediaItem id="5152" filePath="C:\Users\owner\Dropbox\Work\png\animation T=1.05152.png" arWidth="640" arHeight="480" duration="0" songTitle="" songArtist="" songAlbum="" songCopyrightUrl="" songArtistUrl="" songAudioFileUrl="" stabilizationMode="0" mediaItemType="2" />
    <MediaItem id="5153" filePath="C:\Users\owner\Dropbox\Work\png\animation T=1.05153.png" arWidth="640" arHeight="480" duration="0" songTitle="" songArtist="" songAlbum="" songCopyrightUrl="" songArtistUrl="" songAudioFileUrl="" stabilizationMode="0" mediaItemType="2" />
    <MediaItem id="5154" filePath="C:\Users\owner\Dropbox\Work\png\animation T=1.05154.png" arWidth="640" arHeight="480" duration="0" songTitle="" songArtist="" songAlbum="" songCopyrightUrl="" songArtistUrl="" songAudioFileUrl="" stabilizationMode="0" mediaItemType="2" />
    <MediaItem id="5155" filePath="C:\Users\owner\Dropbox\Work\png\animation T=1.05155.png" arWidth="640" arHeight="480" duration="0" songTitle="" songArtist="" songAlbum="" songCopyrightUrl="" songArtistUrl="" songAudioFileUrl="" stabilizationMode="0" mediaItemType="2" />
    <MediaItem id="5156" filePath="C:\Users\owner\Dropbox\Work\png\animation T=1.05156.png" arWidth="640" arHeight="480" duration="0" songTitle="" songArtist="" songAlbum="" songCopyrightUrl="" songArtistUrl="" songAudioFileUrl="" stabilizationMode="0" mediaItemType="2" />
    <MediaItem id="5157" filePath="C:\Users\owner\Dropbox\Work\png\animation T=1.05157.png" arWidth="640" arHeight="480" duration="0" songTitle="" songArtist="" songAlbum="" songCopyrightUrl="" songArtistUrl="" songAudioFileUrl="" stabilizationMode="0" mediaItemType="2" />
    <MediaItem id="5158" filePath="C:\Users\owner\Dropbox\Work\png\animation T=1.05158.png" arWidth="640" arHeight="480" duration="0" songTitle="" songArtist="" songAlbum="" songCopyrightUrl="" songArtistUrl="" songAudioFileUrl="" stabilizationMode="0" mediaItemType="2" />
    <MediaItem id="5159" filePath="C:\Users\owner\Dropbox\Work\png\animation T=1.05159.png" arWidth="640" arHeight="480" duration="0" songTitle="" songArtist="" songAlbum="" songCopyrightUrl="" songArtistUrl="" songAudioFileUrl="" stabilizationMode="0" mediaItemType="2" />
    <MediaItem id="5160" filePath="C:\Users\owner\Dropbox\Work\png\animation T=1.05160.png" arWidth="640" arHeight="480" duration="0" songTitle="" songArtist="" songAlbum="" songCopyrightUrl="" songArtistUrl="" songAudioFileUrl="" stabilizationMode="0" mediaItemType="2" />
    <MediaItem id="5161" filePath="C:\Users\owner\Dropbox\Work\png\animation T=1.05161.png" arWidth="640" arHeight="480" duration="0" songTitle="" songArtist="" songAlbum="" songCopyrightUrl="" songArtistUrl="" songAudioFileUrl="" stabilizationMode="0" mediaItemType="2" />
    <MediaItem id="5162" filePath="C:\Users\owner\Dropbox\Work\png\animation T=1.05162.png" arWidth="640" arHeight="480" duration="0" songTitle="" songArtist="" songAlbum="" songCopyrightUrl="" songArtistUrl="" songAudioFileUrl="" stabilizationMode="0" mediaItemType="2" />
    <MediaItem id="5163" filePath="C:\Users\owner\Dropbox\Work\png\animation T=1.05163.png" arWidth="640" arHeight="480" duration="0" songTitle="" songArtist="" songAlbum="" songCopyrightUrl="" songArtistUrl="" songAudioFileUrl="" stabilizationMode="0" mediaItemType="2" />
    <MediaItem id="5164" filePath="C:\Users\owner\Dropbox\Work\png\animation T=1.05164.png" arWidth="640" arHeight="480" duration="0" songTitle="" songArtist="" songAlbum="" songCopyrightUrl="" songArtistUrl="" songAudioFileUrl="" stabilizationMode="0" mediaItemType="2" />
    <MediaItem id="5165" filePath="C:\Users\owner\Dropbox\Work\png\animation T=1.05165.png" arWidth="640" arHeight="480" duration="0" songTitle="" songArtist="" songAlbum="" songCopyrightUrl="" songArtistUrl="" songAudioFileUrl="" stabilizationMode="0" mediaItemType="2" />
    <MediaItem id="5166" filePath="C:\Users\owner\Dropbox\Work\png\animation T=1.05166.png" arWidth="640" arHeight="480" duration="0" songTitle="" songArtist="" songAlbum="" songCopyrightUrl="" songArtistUrl="" songAudioFileUrl="" stabilizationMode="0" mediaItemType="2" />
  </MediaItems>
  <Extents>
    <ImageClip extentID="5167" gapBefore="0" mediaItemID="5163" duration="0.20000000000000001">
      <Effects />
      <Transitions />
      <BoundProperties>
        <BoundPropertyInt Name="rotateStepNinety" Value="0" />
      </BoundProperties>
    </ImageClip>
    <ImageClip extentID="5168" gapBefore="0" mediaItemID="5164" duration="0.20000000000000001">
      <Effects />
      <Transitions />
      <BoundProperties>
        <BoundPropertyInt Name="rotateStepNinety" Value="0" />
      </BoundProperties>
    </ImageClip>
    <ImageClip extentID="5169" gapBefore="0" mediaItemID="5165" duration="0.20000000000000001">
      <Effects />
      <Transitions />
      <BoundProperties>
        <BoundPropertyInt Name="rotateStepNinety" Value="0" />
      </BoundProperties>
    </ImageClip>
    <ImageClip extentID="5170" gapBefore="0" mediaItemID="5166" duration="0.20000000000000001">
      <Effects />
      <Transitions />
      <BoundProperties>
        <BoundPropertyInt Name="rotateStepNinety" Value="0" />
      </BoundProperties>
    </ImageClip>
    <ImageClip extentID="5171" gapBefore="0" mediaItemID="5167" duration="0.20000000000000001">
      <Effects />
      <Transitions />
      <BoundProperties>
        <BoundPropertyInt Name="rotateStepNinety" Value="0" />
      </BoundProperties>
    </ImageClip>
    <ImageClip extentID="5172" gapBefore="0" mediaItemID="5168" duration="0.20000000000000001">
      <Effects />
      <Transitions />
      <BoundProperties>
        <BoundPropertyInt Name="rotateStepNinety" Value="0" />
      </BoundProperties>
    </ImageClip>
    <ImageClip extentID="5" gapBefore="0" mediaItemID="1" duration="0.20000000000000001">
      <Effects />
      <Transitions />
      <BoundProperties>
        <BoundPropertyInt Name="rotateStepNinety" Value="0" />
      </BoundProperties>
    </ImageClip>
    <ImageClip extentID="5173" gapBefore="0" mediaItemID="5169" duration="0.20000000000000001">
      <Effects />
      <Transitions />
      <BoundProperties>
        <BoundPropertyInt Name="rotateStepNinety" Value="0" />
      </BoundProperties>
    </ImageClip>
    <ImageClip extentID="6" gapBefore="0" mediaItemID="2" duration="0.20000000000000001">
      <Effects />
      <Transitions />
      <BoundProperties>
        <BoundPropertyInt Name="rotateStepNinety" Value="0" />
      </BoundProperties>
    </ImageClip>
    <ImageClip extentID="5174" gapBefore="0" mediaItemID="5170" duration="0.20000000000000001">
      <Effects />
      <Transitions />
      <BoundProperties>
        <BoundPropertyInt Name="rotateStepNinety" Value="0" />
      </BoundProperties>
    </ImageClip>
    <ImageClip extentID="7" gapBefore="0" mediaItemID="3" duration="0.20000000000000001">
      <Effects />
      <Transitions />
      <BoundProperties>
        <BoundPropertyInt Name="rotateStepNinety" Value="0" />
      </BoundProperties>
    </ImageClip>
    <ImageClip extentID="5175" gapBefore="0" mediaItemID="5171" duration="0.20000000000000001">
      <Effects />
      <Transitions />
      <BoundProperties>
        <BoundPropertyInt Name="rotateStepNinety" Value="0" />
      </BoundProperties>
    </ImageClip>
    <ImageClip extentID="8" gapBefore="0" mediaItemID="4" duration="0.20000000000000001">
      <Effects />
      <Transitions />
      <BoundProperties>
        <BoundPropertyInt Name="rotateStepNinety" Value="0" />
      </BoundProperties>
    </ImageClip>
    <ImageClip extentID="5176" gapBefore="0" mediaItemID="5172" duration="0.20000000000000001">
      <Effects />
      <Transitions />
      <BoundProperties>
        <BoundPropertyInt Name="rotateStepNinety" Value="0" />
      </BoundProperties>
    </ImageClip>
    <ImageClip extentID="9" gapBefore="0" mediaItemID="5" duration="0.20000000000000001">
      <Effects />
      <Transitions />
      <BoundProperties>
        <BoundPropertyInt Name="rotateStepNinety" Value="0" />
      </BoundProperties>
    </ImageClip>
    <ImageClip extentID="5177" gapBefore="0" mediaItemID="5173" duration="0.20000000000000001">
      <Effects />
      <Transitions />
      <BoundProperties>
        <BoundPropertyInt Name="rotateStepNinety" Value="0" />
      </BoundProperties>
    </ImageClip>
    <ImageClip extentID="10" gapBefore="0" mediaItemID="6" duration="0.20000000000000001">
      <Effects />
      <Transitions />
      <BoundProperties>
        <BoundPropertyInt Name="rotateStepNinety" Value="0" />
      </BoundProperties>
    </ImageClip>
    <ImageClip extentID="5178" gapBefore="0" mediaItemID="5174" duration="0.20000000000000001">
      <Effects />
      <Transitions />
      <BoundProperties>
        <BoundPropertyInt Name="rotateStepNinety" Value="0" />
      </BoundProperties>
    </ImageClip>
    <ImageClip extentID="11" gapBefore="0" mediaItemID="7" duration="0.20000000000000001">
      <Effects />
      <Transitions />
      <BoundProperties>
        <BoundPropertyInt Name="rotateStepNinety" Value="0" />
      </BoundProperties>
    </ImageClip>
    <ImageClip extentID="5179" gapBefore="0" mediaItemID="5175" duration="0.20000000000000001">
      <Effects />
      <Transitions />
      <BoundProperties>
        <BoundPropertyInt Name="rotateStepNinety" Value="0" />
      </BoundProperties>
    </ImageClip>
    <ImageClip extentID="12" gapBefore="0" mediaItemID="8" duration="0.20000000000000001">
      <Effects />
      <Transitions />
      <BoundProperties>
        <BoundPropertyInt Name="rotateStepNinety" Value="0" />
      </BoundProperties>
    </ImageClip>
    <ImageClip extentID="5180" gapBefore="0" mediaItemID="5176" duration="0.20000000000000001">
      <Effects />
      <Transitions />
      <BoundProperties>
        <BoundPropertyInt Name="rotateStepNinety" Value="0" />
      </BoundProperties>
    </ImageClip>
    <ImageClip extentID="13" gapBefore="0" mediaItemID="9" duration="0.20000000000000001">
      <Effects />
      <Transitions />
      <BoundProperties>
        <BoundPropertyInt Name="rotateStepNinety" Value="0" />
      </BoundProperties>
    </ImageClip>
    <ImageClip extentID="5181" gapBefore="0" mediaItemID="5177" duration="0.20000000000000001">
      <Effects />
      <Transitions />
      <BoundProperties>
        <BoundPropertyInt Name="rotateStepNinety" Value="0" />
      </BoundProperties>
    </ImageClip>
    <ImageClip extentID="14" gapBefore="0" mediaItemID="10" duration="0.20000000000000001">
      <Effects />
      <Transitions />
      <BoundProperties>
        <BoundPropertyInt Name="rotateStepNinety" Value="0" />
      </BoundProperties>
    </ImageClip>
    <ImageClip extentID="5182" gapBefore="0" mediaItemID="5178" duration="0.20000000000000001">
      <Effects />
      <Transitions />
      <BoundProperties>
        <BoundPropertyInt Name="rotateStepNinety" Value="0" />
      </BoundProperties>
    </ImageClip>
    <ImageClip extentID="15" gapBefore="0" mediaItemID="11" duration="0.20000000000000001">
      <Effects />
      <Transitions />
      <BoundProperties>
        <BoundPropertyInt Name="rotateStepNinety" Value="0" />
      </BoundProperties>
    </ImageClip>
    <ImageClip extentID="5183" gapBefore="0" mediaItemID="5179" duration="0.20000000000000001">
      <Effects />
      <Transitions />
      <BoundProperties>
        <BoundPropertyInt Name="rotateStepNinety" Value="0" />
      </BoundProperties>
    </ImageClip>
    <ImageClip extentID="16" gapBefore="0" mediaItemID="12" duration="0.20000000000000001">
      <Effects />
      <Transitions />
      <BoundProperties>
        <BoundPropertyInt Name="rotateStepNinety" Value="0" />
      </BoundProperties>
    </ImageClip>
    <ImageClip extentID="5184" gapBefore="0" mediaItemID="5180" duration="0.20000000000000001">
      <Effects />
      <Transitions />
      <BoundProperties>
        <BoundPropertyInt Name="rotateStepNinety" Value="0" />
      </BoundProperties>
    </ImageClip>
    <ImageClip extentID="17" gapBefore="0" mediaItemID="13" duration="0.20000000000000001">
      <Effects />
      <Transitions />
      <BoundProperties>
        <BoundPropertyInt Name="rotateStepNinety" Value="0" />
      </BoundProperties>
    </ImageClip>
    <ImageClip extentID="5185" gapBefore="0" mediaItemID="5181" duration="0.20000000000000001">
      <Effects />
      <Transitions />
      <BoundProperties>
        <BoundPropertyInt Name="rotateStepNinety" Value="0" />
      </BoundProperties>
    </ImageClip>
    <ImageClip extentID="18" gapBefore="0" mediaItemID="14" duration="0.20000000000000001">
      <Effects />
      <Transitions />
      <BoundProperties>
        <BoundPropertyInt Name="rotateStepNinety" Value="0" />
      </BoundProperties>
    </ImageClip>
    <ImageClip extentID="5186" gapBefore="0" mediaItemID="5182" duration="0.20000000000000001">
      <Effects />
      <Transitions />
      <BoundProperties>
        <BoundPropertyInt Name="rotateStepNinety" Value="0" />
      </BoundProperties>
    </ImageClip>
    <ImageClip extentID="19" gapBefore="0" mediaItemID="15" duration="0.20000000000000001">
      <Effects />
      <Transitions />
      <BoundProperties>
        <BoundPropertyInt Name="rotateStepNinety" Value="0" />
      </BoundProperties>
    </ImageClip>
    <ImageClip extentID="5187" gapBefore="0" mediaItemID="5183" duration="0.20000000000000001">
      <Effects />
      <Transitions />
      <BoundProperties>
        <BoundPropertyInt Name="rotateStepNinety" Value="0" />
      </BoundProperties>
    </ImageClip>
    <ImageClip extentID="20" gapBefore="0" mediaItemID="16" duration="0.20000000000000001">
      <Effects />
      <Transitions />
      <BoundProperties>
        <BoundPropertyInt Name="rotateStepNinety" Value="0" />
      </BoundProperties>
    </ImageClip>
    <ImageClip extentID="5188" gapBefore="0" mediaItemID="5184" duration="0.20000000000000001">
      <Effects />
      <Transitions />
      <BoundProperties>
        <BoundPropertyInt Name="rotateStepNinety" Value="0" />
      </BoundProperties>
    </ImageClip>
    <ImageClip extentID="21" gapBefore="0" mediaItemID="17" duration="0.20000000000000001">
      <Effects />
      <Transitions />
      <BoundProperties>
        <BoundPropertyInt Name="rotateStepNinety" Value="0" />
      </BoundProperties>
    </ImageClip>
    <ImageClip extentID="5189" gapBefore="0" mediaItemID="5185" duration="0.20000000000000001">
      <Effects />
      <Transitions />
      <BoundProperties>
        <BoundPropertyInt Name="rotateStepNinety" Value="0" />
      </BoundProperties>
    </ImageClip>
    <ImageClip extentID="22" gapBefore="0" mediaItemID="18" duration="0.20000000000000001">
      <Effects />
      <Transitions />
      <BoundProperties>
        <BoundPropertyInt Name="rotateStepNinety" Value="0" />
      </BoundProperties>
    </ImageClip>
    <ImageClip extentID="5190" gapBefore="0" mediaItemID="5186" duration="0.20000000000000001">
      <Effects />
      <Transitions />
      <BoundProperties>
        <BoundPropertyInt Name="rotateStepNinety" Value="0" />
      </BoundProperties>
    </ImageClip>
    <ImageClip extentID="23" gapBefore="0" mediaItemID="19" duration="0.20000000000000001">
      <Effects />
      <Transitions />
      <BoundProperties>
        <BoundPropertyInt Name="rotateStepNinety" Value="0" />
      </BoundProperties>
    </ImageClip>
    <ImageClip extentID="5191" gapBefore="0" mediaItemID="5187" duration="0.20000000000000001">
      <Effects />
      <Transitions />
      <BoundProperties>
        <BoundPropertyInt Name="rotateStepNinety" Value="0" />
      </BoundProperties>
    </ImageClip>
    <ImageClip extentID="24" gapBefore="0" mediaItemID="20" duration="0.20000000000000001">
      <Effects />
      <Transitions />
      <BoundProperties>
        <BoundPropertyInt Name="rotateStepNinety" Value="0" />
      </BoundProperties>
    </ImageClip>
    <ImageClip extentID="5192" gapBefore="0" mediaItemID="5188" duration="0.20000000000000001">
      <Effects />
      <Transitions />
      <BoundProperties>
        <BoundPropertyInt Name="rotateStepNinety" Value="0" />
      </BoundProperties>
    </ImageClip>
    <ImageClip extentID="25" gapBefore="0" mediaItemID="21" duration="0.20000000000000001">
      <Effects />
      <Transitions />
      <BoundProperties>
        <BoundPropertyInt Name="rotateStepNinety" Value="0" />
      </BoundProperties>
    </ImageClip>
    <ImageClip extentID="5193" gapBefore="0" mediaItemID="5189" duration="0.20000000000000001">
      <Effects />
      <Transitions />
      <BoundProperties>
        <BoundPropertyInt Name="rotateStepNinety" Value="0" />
      </BoundProperties>
    </ImageClip>
    <ImageClip extentID="26" gapBefore="0" mediaItemID="22" duration="0.20000000000000001">
      <Effects />
      <Transitions />
      <BoundProperties>
        <BoundPropertyInt Name="rotateStepNinety" Value="0" />
      </BoundProperties>
    </ImageClip>
    <ImageClip extentID="5194" gapBefore="0" mediaItemID="5190" duration="0.20000000000000001">
      <Effects />
      <Transitions />
      <BoundProperties>
        <BoundPropertyInt Name="rotateStepNinety" Value="0" />
      </BoundProperties>
    </ImageClip>
    <ImageClip extentID="27" gapBefore="0" mediaItemID="23" duration="0.20000000000000001">
      <Effects />
      <Transitions />
      <BoundProperties>
        <BoundPropertyInt Name="rotateStepNinety" Value="0" />
      </BoundProperties>
    </ImageClip>
    <ImageClip extentID="5195" gapBefore="0" mediaItemID="5191" duration="0.20000000000000001">
      <Effects />
      <Transitions />
      <BoundProperties>
        <BoundPropertyInt Name="rotateStepNinety" Value="0" />
      </BoundProperties>
    </ImageClip>
    <ImageClip extentID="28" gapBefore="0" mediaItemID="24" duration="0.20000000000000001">
      <Effects />
      <Transitions />
      <BoundProperties>
        <BoundPropertyInt Name="rotateStepNinety" Value="0" />
      </BoundProperties>
    </ImageClip>
    <ImageClip extentID="5196" gapBefore="0" mediaItemID="5192" duration="0.20000000000000001">
      <Effects />
      <Transitions />
      <BoundProperties>
        <BoundPropertyInt Name="rotateStepNinety" Value="0" />
      </BoundProperties>
    </ImageClip>
    <ImageClip extentID="29" gapBefore="0" mediaItemID="25" duration="0.20000000000000001">
      <Effects />
      <Transitions />
      <BoundProperties>
        <BoundPropertyInt Name="rotateStepNinety" Value="0" />
      </BoundProperties>
    </ImageClip>
    <ImageClip extentID="5197" gapBefore="0" mediaItemID="5193" duration="0.20000000000000001">
      <Effects />
      <Transitions />
      <BoundProperties>
        <BoundPropertyInt Name="rotateStepNinety" Value="0" />
      </BoundProperties>
    </ImageClip>
    <ImageClip extentID="30" gapBefore="0" mediaItemID="26" duration="0.20000000000000001">
      <Effects />
      <Transitions />
      <BoundProperties>
        <BoundPropertyInt Name="rotateStepNinety" Value="0" />
      </BoundProperties>
    </ImageClip>
    <ImageClip extentID="5198" gapBefore="0" mediaItemID="5194" duration="0.20000000000000001">
      <Effects />
      <Transitions />
      <BoundProperties>
        <BoundPropertyInt Name="rotateStepNinety" Value="0" />
      </BoundProperties>
    </ImageClip>
    <ImageClip extentID="31" gapBefore="0" mediaItemID="27" duration="0.20000000000000001">
      <Effects />
      <Transitions />
      <BoundProperties>
        <BoundPropertyInt Name="rotateStepNinety" Value="0" />
      </BoundProperties>
    </ImageClip>
    <ImageClip extentID="5199" gapBefore="0" mediaItemID="5195" duration="0.20000000000000001">
      <Effects />
      <Transitions />
      <BoundProperties>
        <BoundPropertyInt Name="rotateStepNinety" Value="0" />
      </BoundProperties>
    </ImageClip>
    <ImageClip extentID="32" gapBefore="0" mediaItemID="28" duration="0.20000000000000001">
      <Effects />
      <Transitions />
      <BoundProperties>
        <BoundPropertyInt Name="rotateStepNinety" Value="0" />
      </BoundProperties>
    </ImageClip>
    <ImageClip extentID="5200" gapBefore="0" mediaItemID="5196" duration="0.20000000000000001">
      <Effects />
      <Transitions />
      <BoundProperties>
        <BoundPropertyInt Name="rotateStepNinety" Value="0" />
      </BoundProperties>
    </ImageClip>
    <ImageClip extentID="33" gapBefore="0" mediaItemID="29" duration="0.20000000000000001">
      <Effects />
      <Transitions />
      <BoundProperties>
        <BoundPropertyInt Name="rotateStepNinety" Value="0" />
      </BoundProperties>
    </ImageClip>
    <ImageClip extentID="5201" gapBefore="0" mediaItemID="5197" duration="0.20000000000000001">
      <Effects />
      <Transitions />
      <BoundProperties>
        <BoundPropertyInt Name="rotateStepNinety" Value="0" />
      </BoundProperties>
    </ImageClip>
    <ImageClip extentID="34" gapBefore="0" mediaItemID="30" duration="0.20000000000000001">
      <Effects />
      <Transitions />
      <BoundProperties>
        <BoundPropertyInt Name="rotateStepNinety" Value="0" />
      </BoundProperties>
    </ImageClip>
    <ImageClip extentID="5202" gapBefore="0" mediaItemID="5198" duration="0.20000000000000001">
      <Effects />
      <Transitions />
      <BoundProperties>
        <BoundPropertyInt Name="rotateStepNinety" Value="0" />
      </BoundProperties>
    </ImageClip>
    <ImageClip extentID="35" gapBefore="0" mediaItemID="31" duration="0.20000000000000001">
      <Effects />
      <Transitions />
      <BoundProperties>
        <BoundPropertyInt Name="rotateStepNinety" Value="0" />
      </BoundProperties>
    </ImageClip>
    <ImageClip extentID="5203" gapBefore="0" mediaItemID="5199" duration="0.20000000000000001">
      <Effects />
      <Transitions />
      <BoundProperties>
        <BoundPropertyInt Name="rotateStepNinety" Value="0" />
      </BoundProperties>
    </ImageClip>
    <ImageClip extentID="36" gapBefore="0" mediaItemID="32" duration="0.20000000000000001">
      <Effects />
      <Transitions />
      <BoundProperties>
        <BoundPropertyInt Name="rotateStepNinety" Value="0" />
      </BoundProperties>
    </ImageClip>
    <ImageClip extentID="5204" gapBefore="0" mediaItemID="5200" duration="0.20000000000000001">
      <Effects />
      <Transitions />
      <BoundProperties>
        <BoundPropertyInt Name="rotateStepNinety" Value="0" />
      </BoundProperties>
    </ImageClip>
    <ImageClip extentID="37" gapBefore="0" mediaItemID="33" duration="0.20000000000000001">
      <Effects />
      <Transitions />
      <BoundProperties>
        <BoundPropertyInt Name="rotateStepNinety" Value="0" />
      </BoundProperties>
    </ImageClip>
    <ImageClip extentID="5205" gapBefore="0" mediaItemID="5201" duration="0.20000000000000001">
      <Effects />
      <Transitions />
      <BoundProperties>
        <BoundPropertyInt Name="rotateStepNinety" Value="0" />
      </BoundProperties>
    </ImageClip>
    <ImageClip extentID="38" gapBefore="0" mediaItemID="34" duration="0.20000000000000001">
      <Effects />
      <Transitions />
      <BoundProperties>
        <BoundPropertyInt Name="rotateStepNinety" Value="0" />
      </BoundProperties>
    </ImageClip>
    <ImageClip extentID="5206" gapBefore="0" mediaItemID="5202" duration="0.20000000000000001">
      <Effects />
      <Transitions />
      <BoundProperties>
        <BoundPropertyInt Name="rotateStepNinety" Value="0" />
      </BoundProperties>
    </ImageClip>
    <ImageClip extentID="39" gapBefore="0" mediaItemID="35" duration="0.20000000000000001">
      <Effects />
      <Transitions />
      <BoundProperties>
        <BoundPropertyInt Name="rotateStepNinety" Value="0" />
      </BoundProperties>
    </ImageClip>
    <ImageClip extentID="5207" gapBefore="0" mediaItemID="5203" duration="0.20000000000000001">
      <Effects />
      <Transitions />
      <BoundProperties>
        <BoundPropertyInt Name="rotateStepNinety" Value="0" />
      </BoundProperties>
    </ImageClip>
    <ImageClip extentID="40" gapBefore="0" mediaItemID="36" duration="0.20000000000000001">
      <Effects />
      <Transitions />
      <BoundProperties>
        <BoundPropertyInt Name="rotateStepNinety" Value="0" />
      </BoundProperties>
    </ImageClip>
    <ImageClip extentID="5208" gapBefore="0" mediaItemID="5204" duration="0.20000000000000001">
      <Effects />
      <Transitions />
      <BoundProperties>
        <BoundPropertyInt Name="rotateStepNinety" Value="0" />
      </BoundProperties>
    </ImageClip>
    <ImageClip extentID="41" gapBefore="0" mediaItemID="37" duration="0.20000000000000001">
      <Effects />
      <Transitions />
      <BoundProperties>
        <BoundPropertyInt Name="rotateStepNinety" Value="0" />
      </BoundProperties>
    </ImageClip>
    <ImageClip extentID="5209" gapBefore="0" mediaItemID="5205" duration="0.20000000000000001">
      <Effects />
      <Transitions />
      <BoundProperties>
        <BoundPropertyInt Name="rotateStepNinety" Value="0" />
      </BoundProperties>
    </ImageClip>
    <ImageClip extentID="42" gapBefore="0" mediaItemID="38" duration="0.20000000000000001">
      <Effects />
      <Transitions />
      <BoundProperties>
        <BoundPropertyInt Name="rotateStepNinety" Value="0" />
      </BoundProperties>
    </ImageClip>
    <ImageClip extentID="5210" gapBefore="0" mediaItemID="5206" duration="0.20000000000000001">
      <Effects />
      <Transitions />
      <BoundProperties>
        <BoundPropertyInt Name="rotateStepNinety" Value="0" />
      </BoundProperties>
    </ImageClip>
    <ImageClip extentID="43" gapBefore="0" mediaItemID="39" duration="0.20000000000000001">
      <Effects />
      <Transitions />
      <BoundProperties>
        <BoundPropertyInt Name="rotateStepNinety" Value="0" />
      </BoundProperties>
    </ImageClip>
    <ImageClip extentID="5211" gapBefore="0" mediaItemID="5207" duration="0.20000000000000001">
      <Effects />
      <Transitions />
      <BoundProperties>
        <BoundPropertyInt Name="rotateStepNinety" Value="0" />
      </BoundProperties>
    </ImageClip>
    <ImageClip extentID="44" gapBefore="0" mediaItemID="40" duration="0.20000000000000001">
      <Effects />
      <Transitions />
      <BoundProperties>
        <BoundPropertyInt Name="rotateStepNinety" Value="0" />
      </BoundProperties>
    </ImageClip>
    <ImageClip extentID="5212" gapBefore="0" mediaItemID="5208" duration="0.20000000000000001">
      <Effects />
      <Transitions />
      <BoundProperties>
        <BoundPropertyInt Name="rotateStepNinety" Value="0" />
      </BoundProperties>
    </ImageClip>
    <ImageClip extentID="45" gapBefore="0" mediaItemID="41" duration="0.20000000000000001">
      <Effects />
      <Transitions />
      <BoundProperties>
        <BoundPropertyInt Name="rotateStepNinety" Value="0" />
      </BoundProperties>
    </ImageClip>
    <ImageClip extentID="5213" gapBefore="0" mediaItemID="5209" duration="0.20000000000000001">
      <Effects />
      <Transitions />
      <BoundProperties>
        <BoundPropertyInt Name="rotateStepNinety" Value="0" />
      </BoundProperties>
    </ImageClip>
    <ImageClip extentID="46" gapBefore="0" mediaItemID="42" duration="0.20000000000000001">
      <Effects />
      <Transitions />
      <BoundProperties>
        <BoundPropertyInt Name="rotateStepNinety" Value="0" />
      </BoundProperties>
    </ImageClip>
    <ImageClip extentID="5214" gapBefore="0" mediaItemID="5210" duration="0.20000000000000001">
      <Effects />
      <Transitions />
      <BoundProperties>
        <BoundPropertyInt Name="rotateStepNinety" Value="0" />
      </BoundProperties>
    </ImageClip>
    <ImageClip extentID="47" gapBefore="0" mediaItemID="43" duration="0.20000000000000001">
      <Effects />
      <Transitions />
      <BoundProperties>
        <BoundPropertyInt Name="rotateStepNinety" Value="0" />
      </BoundProperties>
    </ImageClip>
    <ImageClip extentID="5215" gapBefore="0" mediaItemID="5211" duration="0.20000000000000001">
      <Effects />
      <Transitions />
      <BoundProperties>
        <BoundPropertyInt Name="rotateStepNinety" Value="0" />
      </BoundProperties>
    </ImageClip>
    <ImageClip extentID="48" gapBefore="0" mediaItemID="44" duration="0.20000000000000001">
      <Effects />
      <Transitions />
      <BoundProperties>
        <BoundPropertyInt Name="rotateStepNinety" Value="0" />
      </BoundProperties>
    </ImageClip>
    <ImageClip extentID="5216" gapBefore="0" mediaItemID="5212" duration="0.20000000000000001">
      <Effects />
      <Transitions />
      <BoundProperties>
        <BoundPropertyInt Name="rotateStepNinety" Value="0" />
      </BoundProperties>
    </ImageClip>
    <ImageClip extentID="49" gapBefore="0" mediaItemID="45" duration="0.20000000000000001">
      <Effects />
      <Transitions />
      <BoundProperties>
        <BoundPropertyInt Name="rotateStepNinety" Value="0" />
      </BoundProperties>
    </ImageClip>
    <ImageClip extentID="5217" gapBefore="0" mediaItemID="5213" duration="0.20000000000000001">
      <Effects />
      <Transitions />
      <BoundProperties>
        <BoundPropertyInt Name="rotateStepNinety" Value="0" />
      </BoundProperties>
    </ImageClip>
    <ImageClip extentID="50" gapBefore="0" mediaItemID="46" duration="0.20000000000000001">
      <Effects />
      <Transitions />
      <BoundProperties>
        <BoundPropertyInt Name="rotateStepNinety" Value="0" />
      </BoundProperties>
    </ImageClip>
    <ImageClip extentID="5218" gapBefore="0" mediaItemID="5214" duration="0.20000000000000001">
      <Effects />
      <Transitions />
      <BoundProperties>
        <BoundPropertyInt Name="rotateStepNinety" Value="0" />
      </BoundProperties>
    </ImageClip>
    <ImageClip extentID="51" gapBefore="0" mediaItemID="47" duration="0.20000000000000001">
      <Effects />
      <Transitions />
      <BoundProperties>
        <BoundPropertyInt Name="rotateStepNinety" Value="0" />
      </BoundProperties>
    </ImageClip>
    <ImageClip extentID="5219" gapBefore="0" mediaItemID="5215" duration="0.20000000000000001">
      <Effects />
      <Transitions />
      <BoundProperties>
        <BoundPropertyInt Name="rotateStepNinety" Value="0" />
      </BoundProperties>
    </ImageClip>
    <ImageClip extentID="52" gapBefore="0" mediaItemID="48" duration="0.20000000000000001">
      <Effects />
      <Transitions />
      <BoundProperties>
        <BoundPropertyInt Name="rotateStepNinety" Value="0" />
      </BoundProperties>
    </ImageClip>
    <ImageClip extentID="5220" gapBefore="0" mediaItemID="5216" duration="0.20000000000000001">
      <Effects />
      <Transitions />
      <BoundProperties>
        <BoundPropertyInt Name="rotateStepNinety" Value="0" />
      </BoundProperties>
    </ImageClip>
    <ImageClip extentID="53" gapBefore="0" mediaItemID="49" duration="0.20000000000000001">
      <Effects />
      <Transitions />
      <BoundProperties>
        <BoundPropertyInt Name="rotateStepNinety" Value="0" />
      </BoundProperties>
    </ImageClip>
    <ImageClip extentID="5221" gapBefore="0" mediaItemID="5217" duration="0.20000000000000001">
      <Effects />
      <Transitions />
      <BoundProperties>
        <BoundPropertyInt Name="rotateStepNinety" Value="0" />
      </BoundProperties>
    </ImageClip>
    <ImageClip extentID="54" gapBefore="0" mediaItemID="50" duration="0.20000000000000001">
      <Effects />
      <Transitions />
      <BoundProperties>
        <BoundPropertyInt Name="rotateStepNinety" Value="0" />
      </BoundProperties>
    </ImageClip>
    <ImageClip extentID="5222" gapBefore="0" mediaItemID="5218" duration="0.20000000000000001">
      <Effects />
      <Transitions />
      <BoundProperties>
        <BoundPropertyInt Name="rotateStepNinety" Value="0" />
      </BoundProperties>
    </ImageClip>
    <ImageClip extentID="55" gapBefore="0" mediaItemID="51" duration="0.20000000000000001">
      <Effects />
      <Transitions />
      <BoundProperties>
        <BoundPropertyInt Name="rotateStepNinety" Value="0" />
      </BoundProperties>
    </ImageClip>
    <ImageClip extentID="5223" gapBefore="0" mediaItemID="5219" duration="0.20000000000000001">
      <Effects />
      <Transitions />
      <BoundProperties>
        <BoundPropertyInt Name="rotateStepNinety" Value="0" />
      </BoundProperties>
    </ImageClip>
    <ImageClip extentID="56" gapBefore="0" mediaItemID="52" duration="0.20000000000000001">
      <Effects />
      <Transitions />
      <BoundProperties>
        <BoundPropertyInt Name="rotateStepNinety" Value="0" />
      </BoundProperties>
    </ImageClip>
    <ImageClip extentID="5224" gapBefore="0" mediaItemID="5220" duration="0.20000000000000001">
      <Effects />
      <Transitions />
      <BoundProperties>
        <BoundPropertyInt Name="rotateStepNinety" Value="0" />
      </BoundProperties>
    </ImageClip>
    <ImageClip extentID="57" gapBefore="0" mediaItemID="53" duration="0.20000000000000001">
      <Effects />
      <Transitions />
      <BoundProperties>
        <BoundPropertyInt Name="rotateStepNinety" Value="0" />
      </BoundProperties>
    </ImageClip>
    <ImageClip extentID="5225" gapBefore="0" mediaItemID="5221" duration="0.20000000000000001">
      <Effects />
      <Transitions />
      <BoundProperties>
        <BoundPropertyInt Name="rotateStepNinety" Value="0" />
      </BoundProperties>
    </ImageClip>
    <ImageClip extentID="58" gapBefore="0" mediaItemID="54" duration="0.20000000000000001">
      <Effects />
      <Transitions />
      <BoundProperties>
        <BoundPropertyInt Name="rotateStepNinety" Value="0" />
      </BoundProperties>
    </ImageClip>
    <ImageClip extentID="5226" gapBefore="0" mediaItemID="5222" duration="0.20000000000000001">
      <Effects />
      <Transitions />
      <BoundProperties>
        <BoundPropertyInt Name="rotateStepNinety" Value="0" />
      </BoundProperties>
    </ImageClip>
    <ImageClip extentID="59" gapBefore="0" mediaItemID="55" duration="0.20000000000000001">
      <Effects />
      <Transitions />
      <BoundProperties>
        <BoundPropertyInt Name="rotateStepNinety" Value="0" />
      </BoundProperties>
    </ImageClip>
    <ImageClip extentID="5227" gapBefore="0" mediaItemID="5223" duration="0.20000000000000001">
      <Effects />
      <Transitions />
      <BoundProperties>
        <BoundPropertyInt Name="rotateStepNinety" Value="0" />
      </BoundProperties>
    </ImageClip>
    <ImageClip extentID="60" gapBefore="0" mediaItemID="56" duration="0.20000000000000001">
      <Effects />
      <Transitions />
      <BoundProperties>
        <BoundPropertyInt Name="rotateStepNinety" Value="0" />
      </BoundProperties>
    </ImageClip>
    <ImageClip extentID="5228" gapBefore="0" mediaItemID="5224" duration="0.20000000000000001">
      <Effects />
      <Transitions />
      <BoundProperties>
        <BoundPropertyInt Name="rotateStepNinety" Value="0" />
      </BoundProperties>
    </ImageClip>
    <ImageClip extentID="61" gapBefore="0" mediaItemID="57" duration="0.20000000000000001">
      <Effects />
      <Transitions />
      <BoundProperties>
        <BoundPropertyInt Name="rotateStepNinety" Value="0" />
      </BoundProperties>
    </ImageClip>
    <ImageClip extentID="5229" gapBefore="0" mediaItemID="5225" duration="0.20000000000000001">
      <Effects />
      <Transitions />
      <BoundProperties>
        <BoundPropertyInt Name="rotateStepNinety" Value="0" />
      </BoundProperties>
    </ImageClip>
    <ImageClip extentID="62" gapBefore="0" mediaItemID="58" duration="0.20000000000000001">
      <Effects />
      <Transitions />
      <BoundProperties>
        <BoundPropertyInt Name="rotateStepNinety" Value="0" />
      </BoundProperties>
    </ImageClip>
    <ImageClip extentID="5230" gapBefore="0" mediaItemID="5226" duration="0.20000000000000001">
      <Effects />
      <Transitions />
      <BoundProperties>
        <BoundPropertyInt Name="rotateStepNinety" Value="0" />
      </BoundProperties>
    </ImageClip>
    <ImageClip extentID="63" gapBefore="0" mediaItemID="59" duration="0.20000000000000001">
      <Effects />
      <Transitions />
      <BoundProperties>
        <BoundPropertyInt Name="rotateStepNinety" Value="0" />
      </BoundProperties>
    </ImageClip>
    <ImageClip extentID="5231" gapBefore="0" mediaItemID="5227" duration="0.20000000000000001">
      <Effects />
      <Transitions />
      <BoundProperties>
        <BoundPropertyInt Name="rotateStepNinety" Value="0" />
      </BoundProperties>
    </ImageClip>
    <ImageClip extentID="64" gapBefore="0" mediaItemID="60" duration="0.20000000000000001">
      <Effects />
      <Transitions />
      <BoundProperties>
        <BoundPropertyInt Name="rotateStepNinety" Value="0" />
      </BoundProperties>
    </ImageClip>
    <ImageClip extentID="5232" gapBefore="0" mediaItemID="5228" duration="0.20000000000000001">
      <Effects />
      <Transitions />
      <BoundProperties>
        <BoundPropertyInt Name="rotateStepNinety" Value="0" />
      </BoundProperties>
    </ImageClip>
    <ImageClip extentID="65" gapBefore="0" mediaItemID="61" duration="0.20000000000000001">
      <Effects />
      <Transitions />
      <BoundProperties>
        <BoundPropertyInt Name="rotateStepNinety" Value="0" />
      </BoundProperties>
    </ImageClip>
    <ImageClip extentID="5233" gapBefore="0" mediaItemID="5229" duration="0.20000000000000001">
      <Effects />
      <Transitions />
      <BoundProperties>
        <BoundPropertyInt Name="rotateStepNinety" Value="0" />
      </BoundProperties>
    </ImageClip>
    <ImageClip extentID="66" gapBefore="0" mediaItemID="62" duration="0.20000000000000001">
      <Effects />
      <Transitions />
      <BoundProperties>
        <BoundPropertyInt Name="rotateStepNinety" Value="0" />
      </BoundProperties>
    </ImageClip>
    <ImageClip extentID="5234" gapBefore="0" mediaItemID="5230" duration="0.20000000000000001">
      <Effects />
      <Transitions />
      <BoundProperties>
        <BoundPropertyInt Name="rotateStepNinety" Value="0" />
      </BoundProperties>
    </ImageClip>
    <ImageClip extentID="67" gapBefore="0" mediaItemID="63" duration="0.20000000000000001">
      <Effects />
      <Transitions />
      <BoundProperties>
        <BoundPropertyInt Name="rotateStepNinety" Value="0" />
      </BoundProperties>
    </ImageClip>
    <ImageClip extentID="5235" gapBefore="0" mediaItemID="5231" duration="0.20000000000000001">
      <Effects />
      <Transitions />
      <BoundProperties>
        <BoundPropertyInt Name="rotateStepNinety" Value="0" />
      </BoundProperties>
    </ImageClip>
    <ImageClip extentID="68" gapBefore="0" mediaItemID="64" duration="0.20000000000000001">
      <Effects />
      <Transitions />
      <BoundProperties>
        <BoundPropertyInt Name="rotateStepNinety" Value="0" />
      </BoundProperties>
    </ImageClip>
    <ImageClip extentID="5236" gapBefore="0" mediaItemID="5232" duration="0.20000000000000001">
      <Effects />
      <Transitions />
      <BoundProperties>
        <BoundPropertyInt Name="rotateStepNinety" Value="0" />
      </BoundProperties>
    </ImageClip>
    <ImageClip extentID="69" gapBefore="0" mediaItemID="65" duration="0.20000000000000001">
      <Effects />
      <Transitions />
      <BoundProperties>
        <BoundPropertyInt Name="rotateStepNinety" Value="0" />
      </BoundProperties>
    </ImageClip>
    <ImageClip extentID="5237" gapBefore="0" mediaItemID="5233" duration="0.20000000000000001">
      <Effects />
      <Transitions />
      <BoundProperties>
        <BoundPropertyInt Name="rotateStepNinety" Value="0" />
      </BoundProperties>
    </ImageClip>
    <ImageClip extentID="70" gapBefore="0" mediaItemID="66" duration="0.20000000000000001">
      <Effects />
      <Transitions />
      <BoundProperties>
        <BoundPropertyInt Name="rotateStepNinety" Value="0" />
      </BoundProperties>
    </ImageClip>
    <ImageClip extentID="5238" gapBefore="0" mediaItemID="5234" duration="0.20000000000000001">
      <Effects />
      <Transitions />
      <BoundProperties>
        <BoundPropertyInt Name="rotateStepNinety" Value="0" />
      </BoundProperties>
    </ImageClip>
    <ImageClip extentID="71" gapBefore="0" mediaItemID="67" duration="0.20000000000000001">
      <Effects />
      <Transitions />
      <BoundProperties>
        <BoundPropertyInt Name="rotateStepNinety" Value="0" />
      </BoundProperties>
    </ImageClip>
    <ImageClip extentID="5239" gapBefore="0" mediaItemID="5235" duration="0.20000000000000001">
      <Effects />
      <Transitions />
      <BoundProperties>
        <BoundPropertyInt Name="rotateStepNinety" Value="0" />
      </BoundProperties>
    </ImageClip>
    <ImageClip extentID="72" gapBefore="0" mediaItemID="68" duration="0.20000000000000001">
      <Effects />
      <Transitions />
      <BoundProperties>
        <BoundPropertyInt Name="rotateStepNinety" Value="0" />
      </BoundProperties>
    </ImageClip>
    <ImageClip extentID="5240" gapBefore="0" mediaItemID="5236" duration="0.20000000000000001">
      <Effects />
      <Transitions />
      <BoundProperties>
        <BoundPropertyInt Name="rotateStepNinety" Value="0" />
      </BoundProperties>
    </ImageClip>
    <ImageClip extentID="73" gapBefore="0" mediaItemID="69" duration="0.20000000000000001">
      <Effects />
      <Transitions />
      <BoundProperties>
        <BoundPropertyInt Name="rotateStepNinety" Value="0" />
      </BoundProperties>
    </ImageClip>
    <ImageClip extentID="5241" gapBefore="0" mediaItemID="5237" duration="0.20000000000000001">
      <Effects />
      <Transitions />
      <BoundProperties>
        <BoundPropertyInt Name="rotateStepNinety" Value="0" />
      </BoundProperties>
    </ImageClip>
    <ImageClip extentID="74" gapBefore="0" mediaItemID="70" duration="0.20000000000000001">
      <Effects />
      <Transitions />
      <BoundProperties>
        <BoundPropertyInt Name="rotateStepNinety" Value="0" />
      </BoundProperties>
    </ImageClip>
    <ImageClip extentID="5242" gapBefore="0" mediaItemID="5238" duration="0.20000000000000001">
      <Effects />
      <Transitions />
      <BoundProperties>
        <BoundPropertyInt Name="rotateStepNinety" Value="0" />
      </BoundProperties>
    </ImageClip>
    <ImageClip extentID="75" gapBefore="0" mediaItemID="71" duration="0.20000000000000001">
      <Effects />
      <Transitions />
      <BoundProperties>
        <BoundPropertyInt Name="rotateStepNinety" Value="0" />
      </BoundProperties>
    </ImageClip>
    <ImageClip extentID="5243" gapBefore="0" mediaItemID="5239" duration="0.20000000000000001">
      <Effects />
      <Transitions />
      <BoundProperties>
        <BoundPropertyInt Name="rotateStepNinety" Value="0" />
      </BoundProperties>
    </ImageClip>
    <ImageClip extentID="76" gapBefore="0" mediaItemID="72" duration="0.20000000000000001">
      <Effects />
      <Transitions />
      <BoundProperties>
        <BoundPropertyInt Name="rotateStepNinety" Value="0" />
      </BoundProperties>
    </ImageClip>
    <ImageClip extentID="5244" gapBefore="0" mediaItemID="5240" duration="0.20000000000000001">
      <Effects />
      <Transitions />
      <BoundProperties>
        <BoundPropertyInt Name="rotateStepNinety" Value="0" />
      </BoundProperties>
    </ImageClip>
    <ImageClip extentID="77" gapBefore="0" mediaItemID="73" duration="0.20000000000000001">
      <Effects />
      <Transitions />
      <BoundProperties>
        <BoundPropertyInt Name="rotateStepNinety" Value="0" />
      </BoundProperties>
    </ImageClip>
    <ImageClip extentID="5245" gapBefore="0" mediaItemID="5241" duration="0.20000000000000001">
      <Effects />
      <Transitions />
      <BoundProperties>
        <BoundPropertyInt Name="rotateStepNinety" Value="0" />
      </BoundProperties>
    </ImageClip>
    <ImageClip extentID="78" gapBefore="0" mediaItemID="74" duration="0.20000000000000001">
      <Effects />
      <Transitions />
      <BoundProperties>
        <BoundPropertyInt Name="rotateStepNinety" Value="0" />
      </BoundProperties>
    </ImageClip>
    <ImageClip extentID="5246" gapBefore="0" mediaItemID="5242" duration="0.20000000000000001">
      <Effects />
      <Transitions />
      <BoundProperties>
        <BoundPropertyInt Name="rotateStepNinety" Value="0" />
      </BoundProperties>
    </ImageClip>
    <ImageClip extentID="79" gapBefore="0" mediaItemID="75" duration="0.20000000000000001">
      <Effects />
      <Transitions />
      <BoundProperties>
        <BoundPropertyInt Name="rotateStepNinety" Value="0" />
      </BoundProperties>
    </ImageClip>
    <ImageClip extentID="5247" gapBefore="0" mediaItemID="5243" duration="0.20000000000000001">
      <Effects />
      <Transitions />
      <BoundProperties>
        <BoundPropertyInt Name="rotateStepNinety" Value="0" />
      </BoundProperties>
    </ImageClip>
    <ImageClip extentID="80" gapBefore="0" mediaItemID="76" duration="0.20000000000000001">
      <Effects />
      <Transitions />
      <BoundProperties>
        <BoundPropertyInt Name="rotateStepNinety" Value="0" />
      </BoundProperties>
    </ImageClip>
    <ImageClip extentID="5248" gapBefore="0" mediaItemID="5244" duration="0.20000000000000001">
      <Effects />
      <Transitions />
      <BoundProperties>
        <BoundPropertyInt Name="rotateStepNinety" Value="0" />
      </BoundProperties>
    </ImageClip>
    <ImageClip extentID="81" gapBefore="0" mediaItemID="77" duration="0.20000000000000001">
      <Effects />
      <Transitions />
      <BoundProperties>
        <BoundPropertyInt Name="rotateStepNinety" Value="0" />
      </BoundProperties>
    </ImageClip>
    <ImageClip extentID="5249" gapBefore="0" mediaItemID="5245" duration="0.20000000000000001">
      <Effects />
      <Transitions />
      <BoundProperties>
        <BoundPropertyInt Name="rotateStepNinety" Value="0" />
      </BoundProperties>
    </ImageClip>
    <ImageClip extentID="82" gapBefore="0" mediaItemID="78" duration="0.20000000000000001">
      <Effects />
      <Transitions />
      <BoundProperties>
        <BoundPropertyInt Name="rotateStepNinety" Value="0" />
      </BoundProperties>
    </ImageClip>
    <ImageClip extentID="5250" gapBefore="0" mediaItemID="5246" duration="0.20000000000000001">
      <Effects />
      <Transitions />
      <BoundProperties>
        <BoundPropertyInt Name="rotateStepNinety" Value="0" />
      </BoundProperties>
    </ImageClip>
    <ImageClip extentID="83" gapBefore="0" mediaItemID="79" duration="0.20000000000000001">
      <Effects />
      <Transitions />
      <BoundProperties>
        <BoundPropertyInt Name="rotateStepNinety" Value="0" />
      </BoundProperties>
    </ImageClip>
    <ImageClip extentID="5251" gapBefore="0" mediaItemID="5247" duration="0.20000000000000001">
      <Effects />
      <Transitions />
      <BoundProperties>
        <BoundPropertyInt Name="rotateStepNinety" Value="0" />
      </BoundProperties>
    </ImageClip>
    <ImageClip extentID="84" gapBefore="0" mediaItemID="80" duration="0.20000000000000001">
      <Effects />
      <Transitions />
      <BoundProperties>
        <BoundPropertyInt Name="rotateStepNinety" Value="0" />
      </BoundProperties>
    </ImageClip>
    <ImageClip extentID="5252" gapBefore="0" mediaItemID="5248" duration="0.20000000000000001">
      <Effects />
      <Transitions />
      <BoundProperties>
        <BoundPropertyInt Name="rotateStepNinety" Value="0" />
      </BoundProperties>
    </ImageClip>
    <ImageClip extentID="85" gapBefore="0" mediaItemID="81" duration="0.20000000000000001">
      <Effects />
      <Transitions />
      <BoundProperties>
        <BoundPropertyInt Name="rotateStepNinety" Value="0" />
      </BoundProperties>
    </ImageClip>
    <ImageClip extentID="5253" gapBefore="0" mediaItemID="5249" duration="0.20000000000000001">
      <Effects />
      <Transitions />
      <BoundProperties>
        <BoundPropertyInt Name="rotateStepNinety" Value="0" />
      </BoundProperties>
    </ImageClip>
    <ImageClip extentID="86" gapBefore="0" mediaItemID="82" duration="0.20000000000000001">
      <Effects />
      <Transitions />
      <BoundProperties>
        <BoundPropertyInt Name="rotateStepNinety" Value="0" />
      </BoundProperties>
    </ImageClip>
    <ImageClip extentID="5254" gapBefore="0" mediaItemID="5250" duration="0.20000000000000001">
      <Effects />
      <Transitions />
      <BoundProperties>
        <BoundPropertyInt Name="rotateStepNinety" Value="0" />
      </BoundProperties>
    </ImageClip>
    <ImageClip extentID="87" gapBefore="0" mediaItemID="83" duration="0.20000000000000001">
      <Effects />
      <Transitions />
      <BoundProperties>
        <BoundPropertyInt Name="rotateStepNinety" Value="0" />
      </BoundProperties>
    </ImageClip>
    <ImageClip extentID="5255" gapBefore="0" mediaItemID="5251" duration="0.20000000000000001">
      <Effects />
      <Transitions />
      <BoundProperties>
        <BoundPropertyInt Name="rotateStepNinety" Value="0" />
      </BoundProperties>
    </ImageClip>
    <ImageClip extentID="88" gapBefore="0" mediaItemID="84" duration="0.20000000000000001">
      <Effects />
      <Transitions />
      <BoundProperties>
        <BoundPropertyInt Name="rotateStepNinety" Value="0" />
      </BoundProperties>
    </ImageClip>
    <ImageClip extentID="5256" gapBefore="0" mediaItemID="5252" duration="0.20000000000000001">
      <Effects />
      <Transitions />
      <BoundProperties>
        <BoundPropertyInt Name="rotateStepNinety" Value="0" />
      </BoundProperties>
    </ImageClip>
    <ImageClip extentID="89" gapBefore="0" mediaItemID="85" duration="0.20000000000000001">
      <Effects />
      <Transitions />
      <BoundProperties>
        <BoundPropertyInt Name="rotateStepNinety" Value="0" />
      </BoundProperties>
    </ImageClip>
    <ImageClip extentID="5257" gapBefore="0" mediaItemID="5253" duration="0.20000000000000001">
      <Effects />
      <Transitions />
      <BoundProperties>
        <BoundPropertyInt Name="rotateStepNinety" Value="0" />
      </BoundProperties>
    </ImageClip>
    <ImageClip extentID="90" gapBefore="0" mediaItemID="86" duration="0.20000000000000001">
      <Effects />
      <Transitions />
      <BoundProperties>
        <BoundPropertyInt Name="rotateStepNinety" Value="0" />
      </BoundProperties>
    </ImageClip>
    <ImageClip extentID="5258" gapBefore="0" mediaItemID="5254" duration="0.20000000000000001">
      <Effects />
      <Transitions />
      <BoundProperties>
        <BoundPropertyInt Name="rotateStepNinety" Value="0" />
      </BoundProperties>
    </ImageClip>
    <ImageClip extentID="91" gapBefore="0" mediaItemID="87" duration="0.20000000000000001">
      <Effects />
      <Transitions />
      <BoundProperties>
        <BoundPropertyInt Name="rotateStepNinety" Value="0" />
      </BoundProperties>
    </ImageClip>
    <ImageClip extentID="5259" gapBefore="0" mediaItemID="5255" duration="0.20000000000000001">
      <Effects />
      <Transitions />
      <BoundProperties>
        <BoundPropertyInt Name="rotateStepNinety" Value="0" />
      </BoundProperties>
    </ImageClip>
    <ImageClip extentID="92" gapBefore="0" mediaItemID="88" duration="0.20000000000000001">
      <Effects />
      <Transitions />
      <BoundProperties>
        <BoundPropertyInt Name="rotateStepNinety" Value="0" />
      </BoundProperties>
    </ImageClip>
    <ImageClip extentID="5260" gapBefore="0" mediaItemID="5256" duration="0.20000000000000001">
      <Effects />
      <Transitions />
      <BoundProperties>
        <BoundPropertyInt Name="rotateStepNinety" Value="0" />
      </BoundProperties>
    </ImageClip>
    <ImageClip extentID="93" gapBefore="0" mediaItemID="89" duration="0.20000000000000001">
      <Effects />
      <Transitions />
      <BoundProperties>
        <BoundPropertyInt Name="rotateStepNinety" Value="0" />
      </BoundProperties>
    </ImageClip>
    <ImageClip extentID="5261" gapBefore="0" mediaItemID="5257" duration="0.20000000000000001">
      <Effects />
      <Transitions />
      <BoundProperties>
        <BoundPropertyInt Name="rotateStepNinety" Value="0" />
      </BoundProperties>
    </ImageClip>
    <ImageClip extentID="94" gapBefore="0" mediaItemID="90" duration="0.20000000000000001">
      <Effects />
      <Transitions />
      <BoundProperties>
        <BoundPropertyInt Name="rotateStepNinety" Value="0" />
      </BoundProperties>
    </ImageClip>
    <ImageClip extentID="5262" gapBefore="0" mediaItemID="5258" duration="0.20000000000000001">
      <Effects />
      <Transitions />
      <BoundProperties>
        <BoundPropertyInt Name="rotateStepNinety" Value="0" />
      </BoundProperties>
    </ImageClip>
    <ImageClip extentID="95" gapBefore="0" mediaItemID="91" duration="0.20000000000000001">
      <Effects />
      <Transitions />
      <BoundProperties>
        <BoundPropertyInt Name="rotateStepNinety" Value="0" />
      </BoundProperties>
    </ImageClip>
    <ImageClip extentID="5263" gapBefore="0" mediaItemID="5259" duration="0.20000000000000001">
      <Effects />
      <Transitions />
      <BoundProperties>
        <BoundPropertyInt Name="rotateStepNinety" Value="0" />
      </BoundProperties>
    </ImageClip>
    <ImageClip extentID="96" gapBefore="0" mediaItemID="92" duration="0.20000000000000001">
      <Effects />
      <Transitions />
      <BoundProperties>
        <BoundPropertyInt Name="rotateStepNinety" Value="0" />
      </BoundProperties>
    </ImageClip>
    <ImageClip extentID="5264" gapBefore="0" mediaItemID="5260" duration="0.20000000000000001">
      <Effects />
      <Transitions />
      <BoundProperties>
        <BoundPropertyInt Name="rotateStepNinety" Value="0" />
      </BoundProperties>
    </ImageClip>
    <ImageClip extentID="97" gapBefore="0" mediaItemID="93" duration="0.20000000000000001">
      <Effects />
      <Transitions />
      <BoundProperties>
        <BoundPropertyInt Name="rotateStepNinety" Value="0" />
      </BoundProperties>
    </ImageClip>
    <ImageClip extentID="5265" gapBefore="0" mediaItemID="5261" duration="0.20000000000000001">
      <Effects />
      <Transitions />
      <BoundProperties>
        <BoundPropertyInt Name="rotateStepNinety" Value="0" />
      </BoundProperties>
    </ImageClip>
    <ImageClip extentID="98" gapBefore="0" mediaItemID="94" duration="0.20000000000000001">
      <Effects />
      <Transitions />
      <BoundProperties>
        <BoundPropertyInt Name="rotateStepNinety" Value="0" />
      </BoundProperties>
    </ImageClip>
    <ImageClip extentID="5266" gapBefore="0" mediaItemID="5262" duration="0.20000000000000001">
      <Effects />
      <Transitions />
      <BoundProperties>
        <BoundPropertyInt Name="rotateStepNinety" Value="0" />
      </BoundProperties>
    </ImageClip>
    <ImageClip extentID="99" gapBefore="0" mediaItemID="95" duration="0.20000000000000001">
      <Effects />
      <Transitions />
      <BoundProperties>
        <BoundPropertyInt Name="rotateStepNinety" Value="0" />
      </BoundProperties>
    </ImageClip>
    <ImageClip extentID="5267" gapBefore="0" mediaItemID="5263" duration="0.20000000000000001">
      <Effects />
      <Transitions />
      <BoundProperties>
        <BoundPropertyInt Name="rotateStepNinety" Value="0" />
      </BoundProperties>
    </ImageClip>
    <ImageClip extentID="100" gapBefore="0" mediaItemID="96" duration="0.20000000000000001">
      <Effects />
      <Transitions />
      <BoundProperties>
        <BoundPropertyInt Name="rotateStepNinety" Value="0" />
      </BoundProperties>
    </ImageClip>
    <ImageClip extentID="5268" gapBefore="0" mediaItemID="5264" duration="0.20000000000000001">
      <Effects />
      <Transitions />
      <BoundProperties>
        <BoundPropertyInt Name="rotateStepNinety" Value="0" />
      </BoundProperties>
    </ImageClip>
    <ImageClip extentID="101" gapBefore="0" mediaItemID="97" duration="0.20000000000000001">
      <Effects />
      <Transitions />
      <BoundProperties>
        <BoundPropertyInt Name="rotateStepNinety" Value="0" />
      </BoundProperties>
    </ImageClip>
    <ImageClip extentID="5269" gapBefore="0" mediaItemID="5265" duration="0.20000000000000001">
      <Effects />
      <Transitions />
      <BoundProperties>
        <BoundPropertyInt Name="rotateStepNinety" Value="0" />
      </BoundProperties>
    </ImageClip>
    <ImageClip extentID="102" gapBefore="0" mediaItemID="98" duration="0.20000000000000001">
      <Effects />
      <Transitions />
      <BoundProperties>
        <BoundPropertyInt Name="rotateStepNinety" Value="0" />
      </BoundProperties>
    </ImageClip>
    <ImageClip extentID="5270" gapBefore="0" mediaItemID="5266" duration="0.20000000000000001">
      <Effects />
      <Transitions />
      <BoundProperties>
        <BoundPropertyInt Name="rotateStepNinety" Value="0" />
      </BoundProperties>
    </ImageClip>
    <ImageClip extentID="103" gapBefore="0" mediaItemID="99" duration="0.20000000000000001">
      <Effects />
      <Transitions />
      <BoundProperties>
        <BoundPropertyInt Name="rotateStepNinety" Value="0" />
      </BoundProperties>
    </ImageClip>
    <ImageClip extentID="5271" gapBefore="0" mediaItemID="5267" duration="0.20000000000000001">
      <Effects />
      <Transitions />
      <BoundProperties>
        <BoundPropertyInt Name="rotateStepNinety" Value="0" />
      </BoundProperties>
    </ImageClip>
    <ImageClip extentID="104" gapBefore="0" mediaItemID="100" duration="0.20000000000000001">
      <Effects />
      <Transitions />
      <BoundProperties>
        <BoundPropertyInt Name="rotateStepNinety" Value="0" />
      </BoundProperties>
    </ImageClip>
    <ImageClip extentID="5272" gapBefore="0" mediaItemID="5268" duration="0.20000000000000001">
      <Effects />
      <Transitions />
      <BoundProperties>
        <BoundPropertyInt Name="rotateStepNinety" Value="0" />
      </BoundProperties>
    </ImageClip>
    <ImageClip extentID="105" gapBefore="0" mediaItemID="101" duration="0.20000000000000001">
      <Effects />
      <Transitions />
      <BoundProperties>
        <BoundPropertyInt Name="rotateStepNinety" Value="0" />
      </BoundProperties>
    </ImageClip>
    <ImageClip extentID="5273" gapBefore="0" mediaItemID="5269" duration="0.20000000000000001">
      <Effects />
      <Transitions />
      <BoundProperties>
        <BoundPropertyInt Name="rotateStepNinety" Value="0" />
      </BoundProperties>
    </ImageClip>
    <ImageClip extentID="106" gapBefore="0" mediaItemID="102" duration="0.20000000000000001">
      <Effects />
      <Transitions />
      <BoundProperties>
        <BoundPropertyInt Name="rotateStepNinety" Value="0" />
      </BoundProperties>
    </ImageClip>
    <ImageClip extentID="5274" gapBefore="0" mediaItemID="5270" duration="0.20000000000000001">
      <Effects />
      <Transitions />
      <BoundProperties>
        <BoundPropertyInt Name="rotateStepNinety" Value="0" />
      </BoundProperties>
    </ImageClip>
    <ImageClip extentID="107" gapBefore="0" mediaItemID="103" duration="0.20000000000000001">
      <Effects />
      <Transitions />
      <BoundProperties>
        <BoundPropertyInt Name="rotateStepNinety" Value="0" />
      </BoundProperties>
    </ImageClip>
    <ImageClip extentID="5275" gapBefore="0" mediaItemID="5271" duration="0.20000000000000001">
      <Effects />
      <Transitions />
      <BoundProperties>
        <BoundPropertyInt Name="rotateStepNinety" Value="0" />
      </BoundProperties>
    </ImageClip>
    <ImageClip extentID="108" gapBefore="0" mediaItemID="104" duration="0.20000000000000001">
      <Effects />
      <Transitions />
      <BoundProperties>
        <BoundPropertyInt Name="rotateStepNinety" Value="0" />
      </BoundProperties>
    </ImageClip>
    <ImageClip extentID="5276" gapBefore="0" mediaItemID="5272" duration="0.20000000000000001">
      <Effects />
      <Transitions />
      <BoundProperties>
        <BoundPropertyInt Name="rotateStepNinety" Value="0" />
      </BoundProperties>
    </ImageClip>
    <ImageClip extentID="109" gapBefore="0" mediaItemID="105" duration="0.20000000000000001">
      <Effects />
      <Transitions />
      <BoundProperties>
        <BoundPropertyInt Name="rotateStepNinety" Value="0" />
      </BoundProperties>
    </ImageClip>
    <ImageClip extentID="5277" gapBefore="0" mediaItemID="5273" duration="0.20000000000000001">
      <Effects />
      <Transitions />
      <BoundProperties>
        <BoundPropertyInt Name="rotateStepNinety" Value="0" />
      </BoundProperties>
    </ImageClip>
    <ImageClip extentID="110" gapBefore="0" mediaItemID="106" duration="0.20000000000000001">
      <Effects />
      <Transitions />
      <BoundProperties>
        <BoundPropertyInt Name="rotateStepNinety" Value="0" />
      </BoundProperties>
    </ImageClip>
    <ImageClip extentID="5278" gapBefore="0" mediaItemID="5274" duration="0.20000000000000001">
      <Effects />
      <Transitions />
      <BoundProperties>
        <BoundPropertyInt Name="rotateStepNinety" Value="0" />
      </BoundProperties>
    </ImageClip>
    <ImageClip extentID="111" gapBefore="0" mediaItemID="107" duration="0.20000000000000001">
      <Effects />
      <Transitions />
      <BoundProperties>
        <BoundPropertyInt Name="rotateStepNinety" Value="0" />
      </BoundProperties>
    </ImageClip>
    <ImageClip extentID="5279" gapBefore="0" mediaItemID="5275" duration="0.20000000000000001">
      <Effects />
      <Transitions />
      <BoundProperties>
        <BoundPropertyInt Name="rotateStepNinety" Value="0" />
      </BoundProperties>
    </ImageClip>
    <ImageClip extentID="112" gapBefore="0" mediaItemID="108" duration="0.20000000000000001">
      <Effects />
      <Transitions />
      <BoundProperties>
        <BoundPropertyInt Name="rotateStepNinety" Value="0" />
      </BoundProperties>
    </ImageClip>
    <ImageClip extentID="5280" gapBefore="0" mediaItemID="5276" duration="0.20000000000000001">
      <Effects />
      <Transitions />
      <BoundProperties>
        <BoundPropertyInt Name="rotateStepNinety" Value="0" />
      </BoundProperties>
    </ImageClip>
    <ImageClip extentID="113" gapBefore="0" mediaItemID="109" duration="0.20000000000000001">
      <Effects />
      <Transitions />
      <BoundProperties>
        <BoundPropertyInt Name="rotateStepNinety" Value="0" />
      </BoundProperties>
    </ImageClip>
    <ImageClip extentID="5281" gapBefore="0" mediaItemID="5277" duration="0.20000000000000001">
      <Effects />
      <Transitions />
      <BoundProperties>
        <BoundPropertyInt Name="rotateStepNinety" Value="0" />
      </BoundProperties>
    </ImageClip>
    <ImageClip extentID="114" gapBefore="0" mediaItemID="110" duration="0.20000000000000001">
      <Effects />
      <Transitions />
      <BoundProperties>
        <BoundPropertyInt Name="rotateStepNinety" Value="0" />
      </BoundProperties>
    </ImageClip>
    <ImageClip extentID="5282" gapBefore="0" mediaItemID="5278" duration="0.20000000000000001">
      <Effects />
      <Transitions />
      <BoundProperties>
        <BoundPropertyInt Name="rotateStepNinety" Value="0" />
      </BoundProperties>
    </ImageClip>
    <ImageClip extentID="115" gapBefore="0" mediaItemID="111" duration="0.20000000000000001">
      <Effects />
      <Transitions />
      <BoundProperties>
        <BoundPropertyInt Name="rotateStepNinety" Value="0" />
      </BoundProperties>
    </ImageClip>
    <ImageClip extentID="5283" gapBefore="0" mediaItemID="5279" duration="0.20000000000000001">
      <Effects />
      <Transitions />
      <BoundProperties>
        <BoundPropertyInt Name="rotateStepNinety" Value="0" />
      </BoundProperties>
    </ImageClip>
    <ImageClip extentID="116" gapBefore="0" mediaItemID="112" duration="0.20000000000000001">
      <Effects />
      <Transitions />
      <BoundProperties>
        <BoundPropertyInt Name="rotateStepNinety" Value="0" />
      </BoundProperties>
    </ImageClip>
    <ImageClip extentID="5284" gapBefore="0" mediaItemID="5280" duration="0.20000000000000001">
      <Effects />
      <Transitions />
      <BoundProperties>
        <BoundPropertyInt Name="rotateStepNinety" Value="0" />
      </BoundProperties>
    </ImageClip>
    <ImageClip extentID="117" gapBefore="0" mediaItemID="113" duration="0.20000000000000001">
      <Effects />
      <Transitions />
      <BoundProperties>
        <BoundPropertyInt Name="rotateStepNinety" Value="0" />
      </BoundProperties>
    </ImageClip>
    <ImageClip extentID="5285" gapBefore="0" mediaItemID="5281" duration="0.20000000000000001">
      <Effects />
      <Transitions />
      <BoundProperties>
        <BoundPropertyInt Name="rotateStepNinety" Value="0" />
      </BoundProperties>
    </ImageClip>
    <ImageClip extentID="118" gapBefore="0" mediaItemID="114" duration="0.20000000000000001">
      <Effects />
      <Transitions />
      <BoundProperties>
        <BoundPropertyInt Name="rotateStepNinety" Value="0" />
      </BoundProperties>
    </ImageClip>
    <ImageClip extentID="5286" gapBefore="0" mediaItemID="5282" duration="0.20000000000000001">
      <Effects />
      <Transitions />
      <BoundProperties>
        <BoundPropertyInt Name="rotateStepNinety" Value="0" />
      </BoundProperties>
    </ImageClip>
    <ImageClip extentID="119" gapBefore="0" mediaItemID="115" duration="0.20000000000000001">
      <Effects />
      <Transitions />
      <BoundProperties>
        <BoundPropertyInt Name="rotateStepNinety" Value="0" />
      </BoundProperties>
    </ImageClip>
    <ImageClip extentID="5287" gapBefore="0" mediaItemID="5283" duration="0.20000000000000001">
      <Effects />
      <Transitions />
      <BoundProperties>
        <BoundPropertyInt Name="rotateStepNinety" Value="0" />
      </BoundProperties>
    </ImageClip>
    <ImageClip extentID="120" gapBefore="0" mediaItemID="116" duration="0.20000000000000001">
      <Effects />
      <Transitions />
      <BoundProperties>
        <BoundPropertyInt Name="rotateStepNinety" Value="0" />
      </BoundProperties>
    </ImageClip>
    <ImageClip extentID="5288" gapBefore="0" mediaItemID="5284" duration="0.20000000000000001">
      <Effects />
      <Transitions />
      <BoundProperties>
        <BoundPropertyInt Name="rotateStepNinety" Value="0" />
      </BoundProperties>
    </ImageClip>
    <ImageClip extentID="121" gapBefore="0" mediaItemID="117" duration="0.20000000000000001">
      <Effects />
      <Transitions />
      <BoundProperties>
        <BoundPropertyInt Name="rotateStepNinety" Value="0" />
      </BoundProperties>
    </ImageClip>
    <ImageClip extentID="5289" gapBefore="0" mediaItemID="5285" duration="0.20000000000000001">
      <Effects />
      <Transitions />
      <BoundProperties>
        <BoundPropertyInt Name="rotateStepNinety" Value="0" />
      </BoundProperties>
    </ImageClip>
    <ImageClip extentID="122" gapBefore="0" mediaItemID="118" duration="0.20000000000000001">
      <Effects />
      <Transitions />
      <BoundProperties>
        <BoundPropertyInt Name="rotateStepNinety" Value="0" />
      </BoundProperties>
    </ImageClip>
    <ImageClip extentID="5290" gapBefore="0" mediaItemID="5286" duration="0.20000000000000001">
      <Effects />
      <Transitions />
      <BoundProperties>
        <BoundPropertyInt Name="rotateStepNinety" Value="0" />
      </BoundProperties>
    </ImageClip>
    <ImageClip extentID="123" gapBefore="0" mediaItemID="119" duration="0.20000000000000001">
      <Effects />
      <Transitions />
      <BoundProperties>
        <BoundPropertyInt Name="rotateStepNinety" Value="0" />
      </BoundProperties>
    </ImageClip>
    <ImageClip extentID="5291" gapBefore="0" mediaItemID="5287" duration="0.20000000000000001">
      <Effects />
      <Transitions />
      <BoundProperties>
        <BoundPropertyInt Name="rotateStepNinety" Value="0" />
      </BoundProperties>
    </ImageClip>
    <ImageClip extentID="124" gapBefore="0" mediaItemID="120" duration="0.20000000000000001">
      <Effects />
      <Transitions />
      <BoundProperties>
        <BoundPropertyInt Name="rotateStepNinety" Value="0" />
      </BoundProperties>
    </ImageClip>
    <ImageClip extentID="5292" gapBefore="0" mediaItemID="5288" duration="0.20000000000000001">
      <Effects />
      <Transitions />
      <BoundProperties>
        <BoundPropertyInt Name="rotateStepNinety" Value="0" />
      </BoundProperties>
    </ImageClip>
    <ImageClip extentID="125" gapBefore="0" mediaItemID="121" duration="0.20000000000000001">
      <Effects />
      <Transitions />
      <BoundProperties>
        <BoundPropertyInt Name="rotateStepNinety" Value="0" />
      </BoundProperties>
    </ImageClip>
    <ImageClip extentID="5293" gapBefore="0" mediaItemID="5289" duration="0.20000000000000001">
      <Effects />
      <Transitions />
      <BoundProperties>
        <BoundPropertyInt Name="rotateStepNinety" Value="0" />
      </BoundProperties>
    </ImageClip>
    <ImageClip extentID="126" gapBefore="0" mediaItemID="122" duration="0.20000000000000001">
      <Effects />
      <Transitions />
      <BoundProperties>
        <BoundPropertyInt Name="rotateStepNinety" Value="0" />
      </BoundProperties>
    </ImageClip>
    <ImageClip extentID="5294" gapBefore="0" mediaItemID="5290" duration="0.20000000000000001">
      <Effects />
      <Transitions />
      <BoundProperties>
        <BoundPropertyInt Name="rotateStepNinety" Value="0" />
      </BoundProperties>
    </ImageClip>
    <ImageClip extentID="127" gapBefore="0" mediaItemID="123" duration="0.20000000000000001">
      <Effects />
      <Transitions />
      <BoundProperties>
        <BoundPropertyInt Name="rotateStepNinety" Value="0" />
      </BoundProperties>
    </ImageClip>
    <ImageClip extentID="5295" gapBefore="0" mediaItemID="5291" duration="0.20000000000000001">
      <Effects />
      <Transitions />
      <BoundProperties>
        <BoundPropertyInt Name="rotateStepNinety" Value="0" />
      </BoundProperties>
    </ImageClip>
    <ImageClip extentID="128" gapBefore="0" mediaItemID="124" duration="0.20000000000000001">
      <Effects />
      <Transitions />
      <BoundProperties>
        <BoundPropertyInt Name="rotateStepNinety" Value="0" />
      </BoundProperties>
    </ImageClip>
    <ImageClip extentID="5296" gapBefore="0" mediaItemID="5292" duration="0.20000000000000001">
      <Effects />
      <Transitions />
      <BoundProperties>
        <BoundPropertyInt Name="rotateStepNinety" Value="0" />
      </BoundProperties>
    </ImageClip>
    <ImageClip extentID="129" gapBefore="0" mediaItemID="125" duration="0.20000000000000001">
      <Effects />
      <Transitions />
      <BoundProperties>
        <BoundPropertyInt Name="rotateStepNinety" Value="0" />
      </BoundProperties>
    </ImageClip>
    <ImageClip extentID="5297" gapBefore="0" mediaItemID="5293" duration="0.20000000000000001">
      <Effects />
      <Transitions />
      <BoundProperties>
        <BoundPropertyInt Name="rotateStepNinety" Value="0" />
      </BoundProperties>
    </ImageClip>
    <ImageClip extentID="130" gapBefore="0" mediaItemID="126" duration="0.20000000000000001">
      <Effects />
      <Transitions />
      <BoundProperties>
        <BoundPropertyInt Name="rotateStepNinety" Value="0" />
      </BoundProperties>
    </ImageClip>
    <ImageClip extentID="5298" gapBefore="0" mediaItemID="5294" duration="0.20000000000000001">
      <Effects />
      <Transitions />
      <BoundProperties>
        <BoundPropertyInt Name="rotateStepNinety" Value="0" />
      </BoundProperties>
    </ImageClip>
    <ImageClip extentID="131" gapBefore="0" mediaItemID="127" duration="0.20000000000000001">
      <Effects />
      <Transitions />
      <BoundProperties>
        <BoundPropertyInt Name="rotateStepNinety" Value="0" />
      </BoundProperties>
    </ImageClip>
    <ImageClip extentID="5299" gapBefore="0" mediaItemID="5295" duration="0.20000000000000001">
      <Effects />
      <Transitions />
      <BoundProperties>
        <BoundPropertyInt Name="rotateStepNinety" Value="0" />
      </BoundProperties>
    </ImageClip>
    <ImageClip extentID="132" gapBefore="0" mediaItemID="128" duration="0.20000000000000001">
      <Effects />
      <Transitions />
      <BoundProperties>
        <BoundPropertyInt Name="rotateStepNinety" Value="0" />
      </BoundProperties>
    </ImageClip>
    <ImageClip extentID="5300" gapBefore="0" mediaItemID="5296" duration="0.20000000000000001">
      <Effects />
      <Transitions />
      <BoundProperties>
        <BoundPropertyInt Name="rotateStepNinety" Value="0" />
      </BoundProperties>
    </ImageClip>
    <ImageClip extentID="133" gapBefore="0" mediaItemID="129" duration="0.20000000000000001">
      <Effects />
      <Transitions />
      <BoundProperties>
        <BoundPropertyInt Name="rotateStepNinety" Value="0" />
      </BoundProperties>
    </ImageClip>
    <ImageClip extentID="5301" gapBefore="0" mediaItemID="5297" duration="0.20000000000000001">
      <Effects />
      <Transitions />
      <BoundProperties>
        <BoundPropertyInt Name="rotateStepNinety" Value="0" />
      </BoundProperties>
    </ImageClip>
    <ImageClip extentID="134" gapBefore="0" mediaItemID="130" duration="0.20000000000000001">
      <Effects />
      <Transitions />
      <BoundProperties>
        <BoundPropertyInt Name="rotateStepNinety" Value="0" />
      </BoundProperties>
    </ImageClip>
    <ImageClip extentID="5302" gapBefore="0" mediaItemID="5298" duration="0.20000000000000001">
      <Effects />
      <Transitions />
      <BoundProperties>
        <BoundPropertyInt Name="rotateStepNinety" Value="0" />
      </BoundProperties>
    </ImageClip>
    <ImageClip extentID="135" gapBefore="0" mediaItemID="131" duration="0.20000000000000001">
      <Effects />
      <Transitions />
      <BoundProperties>
        <BoundPropertyInt Name="rotateStepNinety" Value="0" />
      </BoundProperties>
    </ImageClip>
    <ImageClip extentID="5303" gapBefore="0" mediaItemID="5299" duration="0.20000000000000001">
      <Effects />
      <Transitions />
      <BoundProperties>
        <BoundPropertyInt Name="rotateStepNinety" Value="0" />
      </BoundProperties>
    </ImageClip>
    <ImageClip extentID="136" gapBefore="0" mediaItemID="132" duration="0.20000000000000001">
      <Effects />
      <Transitions />
      <BoundProperties>
        <BoundPropertyInt Name="rotateStepNinety" Value="0" />
      </BoundProperties>
    </ImageClip>
    <ImageClip extentID="5304" gapBefore="0" mediaItemID="5300" duration="0.20000000000000001">
      <Effects />
      <Transitions />
      <BoundProperties>
        <BoundPropertyInt Name="rotateStepNinety" Value="0" />
      </BoundProperties>
    </ImageClip>
    <ImageClip extentID="137" gapBefore="0" mediaItemID="133" duration="0.20000000000000001">
      <Effects />
      <Transitions />
      <BoundProperties>
        <BoundPropertyInt Name="rotateStepNinety" Value="0" />
      </BoundProperties>
    </ImageClip>
    <ImageClip extentID="5305" gapBefore="0" mediaItemID="5301" duration="0.20000000000000001">
      <Effects />
      <Transitions />
      <BoundProperties>
        <BoundPropertyInt Name="rotateStepNinety" Value="0" />
      </BoundProperties>
    </ImageClip>
    <ImageClip extentID="138" gapBefore="0" mediaItemID="134" duration="0.20000000000000001">
      <Effects />
      <Transitions />
      <BoundProperties>
        <BoundPropertyInt Name="rotateStepNinety" Value="0" />
      </BoundProperties>
    </ImageClip>
    <ImageClip extentID="5306" gapBefore="0" mediaItemID="5302" duration="0.20000000000000001">
      <Effects />
      <Transitions />
      <BoundProperties>
        <BoundPropertyInt Name="rotateStepNinety" Value="0" />
      </BoundProperties>
    </ImageClip>
    <ImageClip extentID="139" gapBefore="0" mediaItemID="135" duration="0.20000000000000001">
      <Effects />
      <Transitions />
      <BoundProperties>
        <BoundPropertyInt Name="rotateStepNinety" Value="0" />
      </BoundProperties>
    </ImageClip>
    <ImageClip extentID="5307" gapBefore="0" mediaItemID="5303" duration="0.20000000000000001">
      <Effects />
      <Transitions />
      <BoundProperties>
        <BoundPropertyInt Name="rotateStepNinety" Value="0" />
      </BoundProperties>
    </ImageClip>
    <ImageClip extentID="140" gapBefore="0" mediaItemID="136" duration="0.20000000000000001">
      <Effects />
      <Transitions />
      <BoundProperties>
        <BoundPropertyInt Name="rotateStepNinety" Value="0" />
      </BoundProperties>
    </ImageClip>
    <ImageClip extentID="5308" gapBefore="0" mediaItemID="5304" duration="0.20000000000000001">
      <Effects />
      <Transitions />
      <BoundProperties>
        <BoundPropertyInt Name="rotateStepNinety" Value="0" />
      </BoundProperties>
    </ImageClip>
    <ImageClip extentID="141" gapBefore="0" mediaItemID="137" duration="0.20000000000000001">
      <Effects />
      <Transitions />
      <BoundProperties>
        <BoundPropertyInt Name="rotateStepNinety" Value="0" />
      </BoundProperties>
    </ImageClip>
    <ImageClip extentID="5309" gapBefore="0" mediaItemID="5305" duration="0.20000000000000001">
      <Effects />
      <Transitions />
      <BoundProperties>
        <BoundPropertyInt Name="rotateStepNinety" Value="0" />
      </BoundProperties>
    </ImageClip>
    <ImageClip extentID="142" gapBefore="0" mediaItemID="138" duration="0.20000000000000001">
      <Effects />
      <Transitions />
      <BoundProperties>
        <BoundPropertyInt Name="rotateStepNinety" Value="0" />
      </BoundProperties>
    </ImageClip>
    <ImageClip extentID="5310" gapBefore="0" mediaItemID="5306" duration="0.20000000000000001">
      <Effects />
      <Transitions />
      <BoundProperties>
        <BoundPropertyInt Name="rotateStepNinety" Value="0" />
      </BoundProperties>
    </ImageClip>
    <ImageClip extentID="143" gapBefore="0" mediaItemID="139" duration="0.20000000000000001">
      <Effects />
      <Transitions />
      <BoundProperties>
        <BoundPropertyInt Name="rotateStepNinety" Value="0" />
      </BoundProperties>
    </ImageClip>
    <ImageClip extentID="5311" gapBefore="0" mediaItemID="5307" duration="0.20000000000000001">
      <Effects />
      <Transitions />
      <BoundProperties>
        <BoundPropertyInt Name="rotateStepNinety" Value="0" />
      </BoundProperties>
    </ImageClip>
    <ImageClip extentID="144" gapBefore="0" mediaItemID="140" duration="0.20000000000000001">
      <Effects />
      <Transitions />
      <BoundProperties>
        <BoundPropertyInt Name="rotateStepNinety" Value="0" />
      </BoundProperties>
    </ImageClip>
    <ImageClip extentID="5312" gapBefore="0" mediaItemID="5308" duration="0.20000000000000001">
      <Effects />
      <Transitions />
      <BoundProperties>
        <BoundPropertyInt Name="rotateStepNinety" Value="0" />
      </BoundProperties>
    </ImageClip>
    <ImageClip extentID="145" gapBefore="0" mediaItemID="141" duration="0.20000000000000001">
      <Effects />
      <Transitions />
      <BoundProperties>
        <BoundPropertyInt Name="rotateStepNinety" Value="0" />
      </BoundProperties>
    </ImageClip>
    <ImageClip extentID="5313" gapBefore="0" mediaItemID="5309" duration="0.20000000000000001">
      <Effects />
      <Transitions />
      <BoundProperties>
        <BoundPropertyInt Name="rotateStepNinety" Value="0" />
      </BoundProperties>
    </ImageClip>
    <ImageClip extentID="146" gapBefore="0" mediaItemID="142" duration="0.20000000000000001">
      <Effects />
      <Transitions />
      <BoundProperties>
        <BoundPropertyInt Name="rotateStepNinety" Value="0" />
      </BoundProperties>
    </ImageClip>
    <ImageClip extentID="5314" gapBefore="0" mediaItemID="5310" duration="0.20000000000000001">
      <Effects />
      <Transitions />
      <BoundProperties>
        <BoundPropertyInt Name="rotateStepNinety" Value="0" />
      </BoundProperties>
    </ImageClip>
    <ImageClip extentID="147" gapBefore="0" mediaItemID="143" duration="0.20000000000000001">
      <Effects />
      <Transitions />
      <BoundProperties>
        <BoundPropertyInt Name="rotateStepNinety" Value="0" />
      </BoundProperties>
    </ImageClip>
    <ImageClip extentID="5315" gapBefore="0" mediaItemID="5311" duration="0.20000000000000001">
      <Effects />
      <Transitions />
      <BoundProperties>
        <BoundPropertyInt Name="rotateStepNinety" Value="0" />
      </BoundProperties>
    </ImageClip>
    <ImageClip extentID="148" gapBefore="0" mediaItemID="144" duration="0.20000000000000001">
      <Effects />
      <Transitions />
      <BoundProperties>
        <BoundPropertyInt Name="rotateStepNinety" Value="0" />
      </BoundProperties>
    </ImageClip>
    <ImageClip extentID="5316" gapBefore="0" mediaItemID="5312" duration="0.20000000000000001">
      <Effects />
      <Transitions />
      <BoundProperties>
        <BoundPropertyInt Name="rotateStepNinety" Value="0" />
      </BoundProperties>
    </ImageClip>
    <ImageClip extentID="149" gapBefore="0" mediaItemID="145" duration="0.20000000000000001">
      <Effects />
      <Transitions />
      <BoundProperties>
        <BoundPropertyInt Name="rotateStepNinety" Value="0" />
      </BoundProperties>
    </ImageClip>
    <ImageClip extentID="5317" gapBefore="0" mediaItemID="5313" duration="0.20000000000000001">
      <Effects />
      <Transitions />
      <BoundProperties>
        <BoundPropertyInt Name="rotateStepNinety" Value="0" />
      </BoundProperties>
    </ImageClip>
    <ImageClip extentID="150" gapBefore="0" mediaItemID="146" duration="0.20000000000000001">
      <Effects />
      <Transitions />
      <BoundProperties>
        <BoundPropertyInt Name="rotateStepNinety" Value="0" />
      </BoundProperties>
    </ImageClip>
    <ImageClip extentID="5318" gapBefore="0" mediaItemID="5314" duration="0.20000000000000001">
      <Effects />
      <Transitions />
      <BoundProperties>
        <BoundPropertyInt Name="rotateStepNinety" Value="0" />
      </BoundProperties>
    </ImageClip>
    <ImageClip extentID="151" gapBefore="0" mediaItemID="147" duration="0.20000000000000001">
      <Effects />
      <Transitions />
      <BoundProperties>
        <BoundPropertyInt Name="rotateStepNinety" Value="0" />
      </BoundProperties>
    </ImageClip>
    <ImageClip extentID="5319" gapBefore="0" mediaItemID="5315" duration="0.20000000000000001">
      <Effects />
      <Transitions />
      <BoundProperties>
        <BoundPropertyInt Name="rotateStepNinety" Value="0" />
      </BoundProperties>
    </ImageClip>
    <ImageClip extentID="152" gapBefore="0" mediaItemID="148" duration="0.20000000000000001">
      <Effects />
      <Transitions />
      <BoundProperties>
        <BoundPropertyInt Name="rotateStepNinety" Value="0" />
      </BoundProperties>
    </ImageClip>
    <ImageClip extentID="5320" gapBefore="0" mediaItemID="5316" duration="0.20000000000000001">
      <Effects />
      <Transitions />
      <BoundProperties>
        <BoundPropertyInt Name="rotateStepNinety" Value="0" />
      </BoundProperties>
    </ImageClip>
    <ImageClip extentID="153" gapBefore="0" mediaItemID="149" duration="0.20000000000000001">
      <Effects />
      <Transitions />
      <BoundProperties>
        <BoundPropertyInt Name="rotateStepNinety" Value="0" />
      </BoundProperties>
    </ImageClip>
    <ImageClip extentID="5321" gapBefore="0" mediaItemID="5317" duration="0.20000000000000001">
      <Effects />
      <Transitions />
      <BoundProperties>
        <BoundPropertyInt Name="rotateStepNinety" Value="0" />
      </BoundProperties>
    </ImageClip>
    <ImageClip extentID="154" gapBefore="0" mediaItemID="150" duration="0.20000000000000001">
      <Effects />
      <Transitions />
      <BoundProperties>
        <BoundPropertyInt Name="rotateStepNinety" Value="0" />
      </BoundProperties>
    </ImageClip>
    <ImageClip extentID="5322" gapBefore="0" mediaItemID="5318" duration="0.20000000000000001">
      <Effects />
      <Transitions />
      <BoundProperties>
        <BoundPropertyInt Name="rotateStepNinety" Value="0" />
      </BoundProperties>
    </ImageClip>
    <ImageClip extentID="155" gapBefore="0" mediaItemID="151" duration="0.20000000000000001">
      <Effects />
      <Transitions />
      <BoundProperties>
        <BoundPropertyInt Name="rotateStepNinety" Value="0" />
      </BoundProperties>
    </ImageClip>
    <ImageClip extentID="5323" gapBefore="0" mediaItemID="5319" duration="0.20000000000000001">
      <Effects />
      <Transitions />
      <BoundProperties>
        <BoundPropertyInt Name="rotateStepNinety" Value="0" />
      </BoundProperties>
    </ImageClip>
    <ImageClip extentID="156" gapBefore="0" mediaItemID="152" duration="0.20000000000000001">
      <Effects />
      <Transitions />
      <BoundProperties>
        <BoundPropertyInt Name="rotateStepNinety" Value="0" />
      </BoundProperties>
    </ImageClip>
    <ImageClip extentID="5324" gapBefore="0" mediaItemID="5320" duration="0.20000000000000001">
      <Effects />
      <Transitions />
      <BoundProperties>
        <BoundPropertyInt Name="rotateStepNinety" Value="0" />
      </BoundProperties>
    </ImageClip>
    <ImageClip extentID="157" gapBefore="0" mediaItemID="153" duration="0.20000000000000001">
      <Effects />
      <Transitions />
      <BoundProperties>
        <BoundPropertyInt Name="rotateStepNinety" Value="0" />
      </BoundProperties>
    </ImageClip>
    <ImageClip extentID="5325" gapBefore="0" mediaItemID="5321" duration="0.20000000000000001">
      <Effects />
      <Transitions />
      <BoundProperties>
        <BoundPropertyInt Name="rotateStepNinety" Value="0" />
      </BoundProperties>
    </ImageClip>
    <ImageClip extentID="158" gapBefore="0" mediaItemID="154" duration="0.20000000000000001">
      <Effects />
      <Transitions />
      <BoundProperties>
        <BoundPropertyInt Name="rotateStepNinety" Value="0" />
      </BoundProperties>
    </ImageClip>
    <ImageClip extentID="5326" gapBefore="0" mediaItemID="5322" duration="0.20000000000000001">
      <Effects />
      <Transitions />
      <BoundProperties>
        <BoundPropertyInt Name="rotateStepNinety" Value="0" />
      </BoundProperties>
    </ImageClip>
    <ImageClip extentID="159" gapBefore="0" mediaItemID="155" duration="0.20000000000000001">
      <Effects />
      <Transitions />
      <BoundProperties>
        <BoundPropertyInt Name="rotateStepNinety" Value="0" />
      </BoundProperties>
    </ImageClip>
    <ImageClip extentID="5327" gapBefore="0" mediaItemID="5323" duration="0.20000000000000001">
      <Effects />
      <Transitions />
      <BoundProperties>
        <BoundPropertyInt Name="rotateStepNinety" Value="0" />
      </BoundProperties>
    </ImageClip>
    <ImageClip extentID="160" gapBefore="0" mediaItemID="156" duration="0.20000000000000001">
      <Effects />
      <Transitions />
      <BoundProperties>
        <BoundPropertyInt Name="rotateStepNinety" Value="0" />
      </BoundProperties>
    </ImageClip>
    <ImageClip extentID="5328" gapBefore="0" mediaItemID="5324" duration="0.20000000000000001">
      <Effects />
      <Transitions />
      <BoundProperties>
        <BoundPropertyInt Name="rotateStepNinety" Value="0" />
      </BoundProperties>
    </ImageClip>
    <ImageClip extentID="161" gapBefore="0" mediaItemID="157" duration="0.20000000000000001">
      <Effects />
      <Transitions />
      <BoundProperties>
        <BoundPropertyInt Name="rotateStepNinety" Value="0" />
      </BoundProperties>
    </ImageClip>
    <ImageClip extentID="5329" gapBefore="0" mediaItemID="5325" duration="0.20000000000000001">
      <Effects />
      <Transitions />
      <BoundProperties>
        <BoundPropertyInt Name="rotateStepNinety" Value="0" />
      </BoundProperties>
    </ImageClip>
    <ImageClip extentID="162" gapBefore="0" mediaItemID="158" duration="0.20000000000000001">
      <Effects />
      <Transitions />
      <BoundProperties>
        <BoundPropertyInt Name="rotateStepNinety" Value="0" />
      </BoundProperties>
    </ImageClip>
    <ImageClip extentID="5330" gapBefore="0" mediaItemID="5326" duration="0.20000000000000001">
      <Effects />
      <Transitions />
      <BoundProperties>
        <BoundPropertyInt Name="rotateStepNinety" Value="0" />
      </BoundProperties>
    </ImageClip>
    <ImageClip extentID="163" gapBefore="0" mediaItemID="159" duration="0.20000000000000001">
      <Effects />
      <Transitions />
      <BoundProperties>
        <BoundPropertyInt Name="rotateStepNinety" Value="0" />
      </BoundProperties>
    </ImageClip>
    <ImageClip extentID="5331" gapBefore="0" mediaItemID="5327" duration="0.20000000000000001">
      <Effects />
      <Transitions />
      <BoundProperties>
        <BoundPropertyInt Name="rotateStepNinety" Value="0" />
      </BoundProperties>
    </ImageClip>
    <ImageClip extentID="164" gapBefore="0" mediaItemID="160" duration="0.20000000000000001">
      <Effects />
      <Transitions />
      <BoundProperties>
        <BoundPropertyInt Name="rotateStepNinety" Value="0" />
      </BoundProperties>
    </ImageClip>
    <ImageClip extentID="5332" gapBefore="0" mediaItemID="5328" duration="0.20000000000000001">
      <Effects />
      <Transitions />
      <BoundProperties>
        <BoundPropertyInt Name="rotateStepNinety" Value="0" />
      </BoundProperties>
    </ImageClip>
    <ImageClip extentID="165" gapBefore="0" mediaItemID="161" duration="0.20000000000000001">
      <Effects />
      <Transitions />
      <BoundProperties>
        <BoundPropertyInt Name="rotateStepNinety" Value="0" />
      </BoundProperties>
    </ImageClip>
    <ImageClip extentID="5333" gapBefore="0" mediaItemID="5329" duration="0.20000000000000001">
      <Effects />
      <Transitions />
      <BoundProperties>
        <BoundPropertyInt Name="rotateStepNinety" Value="0" />
      </BoundProperties>
    </ImageClip>
    <ImageClip extentID="166" gapBefore="0" mediaItemID="162" duration="0.20000000000000001">
      <Effects />
      <Transitions />
      <BoundProperties>
        <BoundPropertyInt Name="rotateStepNinety" Value="0" />
      </BoundProperties>
    </ImageClip>
    <ImageClip extentID="5334" gapBefore="0" mediaItemID="5330" duration="0.20000000000000001">
      <Effects />
      <Transitions />
      <BoundProperties>
        <BoundPropertyInt Name="rotateStepNinety" Value="0" />
      </BoundProperties>
    </ImageClip>
    <ImageClip extentID="167" gapBefore="0" mediaItemID="163" duration="0.20000000000000001">
      <Effects />
      <Transitions />
      <BoundProperties>
        <BoundPropertyInt Name="rotateStepNinety" Value="0" />
      </BoundProperties>
    </ImageClip>
    <ImageClip extentID="5335" gapBefore="0" mediaItemID="5331" duration="0.20000000000000001">
      <Effects />
      <Transitions />
      <BoundProperties>
        <BoundPropertyInt Name="rotateStepNinety" Value="0" />
      </BoundProperties>
    </ImageClip>
    <ImageClip extentID="168" gapBefore="0" mediaItemID="164" duration="0.20000000000000001">
      <Effects />
      <Transitions />
      <BoundProperties>
        <BoundPropertyInt Name="rotateStepNinety" Value="0" />
      </BoundProperties>
    </ImageClip>
    <ImageClip extentID="5336" gapBefore="0" mediaItemID="5332" duration="0.20000000000000001">
      <Effects />
      <Transitions />
      <BoundProperties>
        <BoundPropertyInt Name="rotateStepNinety" Value="0" />
      </BoundProperties>
    </ImageClip>
    <ImageClip extentID="169" gapBefore="0" mediaItemID="165" duration="0.20000000000000001">
      <Effects />
      <Transitions />
      <BoundProperties>
        <BoundPropertyInt Name="rotateStepNinety" Value="0" />
      </BoundProperties>
    </ImageClip>
    <ImageClip extentID="5337" gapBefore="0" mediaItemID="5333" duration="0.20000000000000001">
      <Effects />
      <Transitions />
      <BoundProperties>
        <BoundPropertyInt Name="rotateStepNinety" Value="0" />
      </BoundProperties>
    </ImageClip>
    <ImageClip extentID="170" gapBefore="0" mediaItemID="166" duration="0.20000000000000001">
      <Effects />
      <Transitions />
      <BoundProperties>
        <BoundPropertyInt Name="rotateStepNinety" Value="0" />
      </BoundProperties>
    </ImageClip>
    <ImageClip extentID="5338" gapBefore="0" mediaItemID="5334" duration="0.20000000000000001">
      <Effects />
      <Transitions />
      <BoundProperties>
        <BoundPropertyInt Name="rotateStepNinety" Value="0" />
      </BoundProperties>
    </ImageClip>
    <ImageClip extentID="171" gapBefore="0" mediaItemID="167" duration="0.20000000000000001">
      <Effects />
      <Transitions />
      <BoundProperties>
        <BoundPropertyInt Name="rotateStepNinety" Value="0" />
      </BoundProperties>
    </ImageClip>
    <ImageClip extentID="5339" gapBefore="0" mediaItemID="5335" duration="0.20000000000000001">
      <Effects />
      <Transitions />
      <BoundProperties>
        <BoundPropertyInt Name="rotateStepNinety" Value="0" />
      </BoundProperties>
    </ImageClip>
    <ImageClip extentID="172" gapBefore="0" mediaItemID="168" duration="0.20000000000000001">
      <Effects />
      <Transitions />
      <BoundProperties>
        <BoundPropertyInt Name="rotateStepNinety" Value="0" />
      </BoundProperties>
    </ImageClip>
    <ImageClip extentID="5340" gapBefore="0" mediaItemID="5336" duration="0.20000000000000001">
      <Effects />
      <Transitions />
      <BoundProperties>
        <BoundPropertyInt Name="rotateStepNinety" Value="0" />
      </BoundProperties>
    </ImageClip>
    <ImageClip extentID="173" gapBefore="0" mediaItemID="169" duration="0.20000000000000001">
      <Effects />
      <Transitions />
      <BoundProperties>
        <BoundPropertyInt Name="rotateStepNinety" Value="0" />
      </BoundProperties>
    </ImageClip>
    <ImageClip extentID="5341" gapBefore="0" mediaItemID="5337" duration="0.20000000000000001">
      <Effects />
      <Transitions />
      <BoundProperties>
        <BoundPropertyInt Name="rotateStepNinety" Value="0" />
      </BoundProperties>
    </ImageClip>
    <ImageClip extentID="174" gapBefore="0" mediaItemID="170" duration="0.20000000000000001">
      <Effects />
      <Transitions />
      <BoundProperties>
        <BoundPropertyInt Name="rotateStepNinety" Value="0" />
      </BoundProperties>
    </ImageClip>
    <ImageClip extentID="5342" gapBefore="0" mediaItemID="5338" duration="0.20000000000000001">
      <Effects />
      <Transitions />
      <BoundProperties>
        <BoundPropertyInt Name="rotateStepNinety" Value="0" />
      </BoundProperties>
    </ImageClip>
    <ImageClip extentID="175" gapBefore="0" mediaItemID="171" duration="0.20000000000000001">
      <Effects />
      <Transitions />
      <BoundProperties>
        <BoundPropertyInt Name="rotateStepNinety" Value="0" />
      </BoundProperties>
    </ImageClip>
    <ImageClip extentID="5343" gapBefore="0" mediaItemID="5339" duration="0.20000000000000001">
      <Effects />
      <Transitions />
      <BoundProperties>
        <BoundPropertyInt Name="rotateStepNinety" Value="0" />
      </BoundProperties>
    </ImageClip>
    <ImageClip extentID="176" gapBefore="0" mediaItemID="172" duration="0.20000000000000001">
      <Effects />
      <Transitions />
      <BoundProperties>
        <BoundPropertyInt Name="rotateStepNinety" Value="0" />
      </BoundProperties>
    </ImageClip>
    <ImageClip extentID="5344" gapBefore="0" mediaItemID="5340" duration="0.20000000000000001">
      <Effects />
      <Transitions />
      <BoundProperties>
        <BoundPropertyInt Name="rotateStepNinety" Value="0" />
      </BoundProperties>
    </ImageClip>
    <ImageClip extentID="177" gapBefore="0" mediaItemID="173" duration="0.20000000000000001">
      <Effects />
      <Transitions />
      <BoundProperties>
        <BoundPropertyInt Name="rotateStepNinety" Value="0" />
      </BoundProperties>
    </ImageClip>
    <ImageClip extentID="5345" gapBefore="0" mediaItemID="5341" duration="0.20000000000000001">
      <Effects />
      <Transitions />
      <BoundProperties>
        <BoundPropertyInt Name="rotateStepNinety" Value="0" />
      </BoundProperties>
    </ImageClip>
    <ImageClip extentID="178" gapBefore="0" mediaItemID="174" duration="0.20000000000000001">
      <Effects />
      <Transitions />
      <BoundProperties>
        <BoundPropertyInt Name="rotateStepNinety" Value="0" />
      </BoundProperties>
    </ImageClip>
    <ImageClip extentID="5346" gapBefore="0" mediaItemID="5342" duration="0.20000000000000001">
      <Effects />
      <Transitions />
      <BoundProperties>
        <BoundPropertyInt Name="rotateStepNinety" Value="0" />
      </BoundProperties>
    </ImageClip>
    <ImageClip extentID="179" gapBefore="0" mediaItemID="175" duration="0.20000000000000001">
      <Effects />
      <Transitions />
      <BoundProperties>
        <BoundPropertyInt Name="rotateStepNinety" Value="0" />
      </BoundProperties>
    </ImageClip>
    <ImageClip extentID="5347" gapBefore="0" mediaItemID="5343" duration="0.20000000000000001">
      <Effects />
      <Transitions />
      <BoundProperties>
        <BoundPropertyInt Name="rotateStepNinety" Value="0" />
      </BoundProperties>
    </ImageClip>
    <ImageClip extentID="180" gapBefore="0" mediaItemID="176" duration="0.20000000000000001">
      <Effects />
      <Transitions />
      <BoundProperties>
        <BoundPropertyInt Name="rotateStepNinety" Value="0" />
      </BoundProperties>
    </ImageClip>
    <ImageClip extentID="5348" gapBefore="0" mediaItemID="5344" duration="0.20000000000000001">
      <Effects />
      <Transitions />
      <BoundProperties>
        <BoundPropertyInt Name="rotateStepNinety" Value="0" />
      </BoundProperties>
    </ImageClip>
    <ImageClip extentID="181" gapBefore="0" mediaItemID="177" duration="0.20000000000000001">
      <Effects />
      <Transitions />
      <BoundProperties>
        <BoundPropertyInt Name="rotateStepNinety" Value="0" />
      </BoundProperties>
    </ImageClip>
    <ImageClip extentID="5349" gapBefore="0" mediaItemID="5345" duration="0.20000000000000001">
      <Effects />
      <Transitions />
      <BoundProperties>
        <BoundPropertyInt Name="rotateStepNinety" Value="0" />
      </BoundProperties>
    </ImageClip>
    <ImageClip extentID="182" gapBefore="0" mediaItemID="178" duration="0.20000000000000001">
      <Effects />
      <Transitions />
      <BoundProperties>
        <BoundPropertyInt Name="rotateStepNinety" Value="0" />
      </BoundProperties>
    </ImageClip>
    <ImageClip extentID="5350" gapBefore="0" mediaItemID="5346" duration="0.20000000000000001">
      <Effects />
      <Transitions />
      <BoundProperties>
        <BoundPropertyInt Name="rotateStepNinety" Value="0" />
      </BoundProperties>
    </ImageClip>
    <ImageClip extentID="183" gapBefore="0" mediaItemID="179" duration="0.20000000000000001">
      <Effects />
      <Transitions />
      <BoundProperties>
        <BoundPropertyInt Name="rotateStepNinety" Value="0" />
      </BoundProperties>
    </ImageClip>
    <ImageClip extentID="5351" gapBefore="0" mediaItemID="5347" duration="0.20000000000000001">
      <Effects />
      <Transitions />
      <BoundProperties>
        <BoundPropertyInt Name="rotateStepNinety" Value="0" />
      </BoundProperties>
    </ImageClip>
    <ImageClip extentID="184" gapBefore="0" mediaItemID="180" duration="0.20000000000000001">
      <Effects />
      <Transitions />
      <BoundProperties>
        <BoundPropertyInt Name="rotateStepNinety" Value="0" />
      </BoundProperties>
    </ImageClip>
    <ImageClip extentID="5352" gapBefore="0" mediaItemID="5348" duration="0.20000000000000001">
      <Effects />
      <Transitions />
      <BoundProperties>
        <BoundPropertyInt Name="rotateStepNinety" Value="0" />
      </BoundProperties>
    </ImageClip>
    <ImageClip extentID="185" gapBefore="0" mediaItemID="181" duration="0.20000000000000001">
      <Effects />
      <Transitions />
      <BoundProperties>
        <BoundPropertyInt Name="rotateStepNinety" Value="0" />
      </BoundProperties>
    </ImageClip>
    <ImageClip extentID="5353" gapBefore="0" mediaItemID="5349" duration="0.20000000000000001">
      <Effects />
      <Transitions />
      <BoundProperties>
        <BoundPropertyInt Name="rotateStepNinety" Value="0" />
      </BoundProperties>
    </ImageClip>
    <ImageClip extentID="186" gapBefore="0" mediaItemID="182" duration="0.20000000000000001">
      <Effects />
      <Transitions />
      <BoundProperties>
        <BoundPropertyInt Name="rotateStepNinety" Value="0" />
      </BoundProperties>
    </ImageClip>
    <ImageClip extentID="5354" gapBefore="0" mediaItemID="5350" duration="0.20000000000000001">
      <Effects />
      <Transitions />
      <BoundProperties>
        <BoundPropertyInt Name="rotateStepNinety" Value="0" />
      </BoundProperties>
    </ImageClip>
    <ImageClip extentID="187" gapBefore="0" mediaItemID="183" duration="0.20000000000000001">
      <Effects />
      <Transitions />
      <BoundProperties>
        <BoundPropertyInt Name="rotateStepNinety" Value="0" />
      </BoundProperties>
    </ImageClip>
    <ImageClip extentID="5355" gapBefore="0" mediaItemID="5351" duration="0.20000000000000001">
      <Effects />
      <Transitions />
      <BoundProperties>
        <BoundPropertyInt Name="rotateStepNinety" Value="0" />
      </BoundProperties>
    </ImageClip>
    <ImageClip extentID="188" gapBefore="0" mediaItemID="184" duration="0.20000000000000001">
      <Effects />
      <Transitions />
      <BoundProperties>
        <BoundPropertyInt Name="rotateStepNinety" Value="0" />
      </BoundProperties>
    </ImageClip>
    <ImageClip extentID="5356" gapBefore="0" mediaItemID="5352" duration="0.20000000000000001">
      <Effects />
      <Transitions />
      <BoundProperties>
        <BoundPropertyInt Name="rotateStepNinety" Value="0" />
      </BoundProperties>
    </ImageClip>
    <ImageClip extentID="189" gapBefore="0" mediaItemID="185" duration="0.20000000000000001">
      <Effects />
      <Transitions />
      <BoundProperties>
        <BoundPropertyInt Name="rotateStepNinety" Value="0" />
      </BoundProperties>
    </ImageClip>
    <ImageClip extentID="5357" gapBefore="0" mediaItemID="5353" duration="0.20000000000000001">
      <Effects />
      <Transitions />
      <BoundProperties>
        <BoundPropertyInt Name="rotateStepNinety" Value="0" />
      </BoundProperties>
    </ImageClip>
    <ImageClip extentID="190" gapBefore="0" mediaItemID="186" duration="0.20000000000000001">
      <Effects />
      <Transitions />
      <BoundProperties>
        <BoundPropertyInt Name="rotateStepNinety" Value="0" />
      </BoundProperties>
    </ImageClip>
    <ImageClip extentID="5358" gapBefore="0" mediaItemID="5354" duration="0.20000000000000001">
      <Effects />
      <Transitions />
      <BoundProperties>
        <BoundPropertyInt Name="rotateStepNinety" Value="0" />
      </BoundProperties>
    </ImageClip>
    <ImageClip extentID="191" gapBefore="0" mediaItemID="187" duration="0.20000000000000001">
      <Effects />
      <Transitions />
      <BoundProperties>
        <BoundPropertyInt Name="rotateStepNinety" Value="0" />
      </BoundProperties>
    </ImageClip>
    <ImageClip extentID="5359" gapBefore="0" mediaItemID="5355" duration="0.20000000000000001">
      <Effects />
      <Transitions />
      <BoundProperties>
        <BoundPropertyInt Name="rotateStepNinety" Value="0" />
      </BoundProperties>
    </ImageClip>
    <ImageClip extentID="192" gapBefore="0" mediaItemID="188" duration="0.20000000000000001">
      <Effects />
      <Transitions />
      <BoundProperties>
        <BoundPropertyInt Name="rotateStepNinety" Value="0" />
      </BoundProperties>
    </ImageClip>
    <ImageClip extentID="5360" gapBefore="0" mediaItemID="5356" duration="0.20000000000000001">
      <Effects />
      <Transitions />
      <BoundProperties>
        <BoundPropertyInt Name="rotateStepNinety" Value="0" />
      </BoundProperties>
    </ImageClip>
    <ImageClip extentID="193" gapBefore="0" mediaItemID="189" duration="0.20000000000000001">
      <Effects />
      <Transitions />
      <BoundProperties>
        <BoundPropertyInt Name="rotateStepNinety" Value="0" />
      </BoundProperties>
    </ImageClip>
    <ImageClip extentID="5361" gapBefore="0" mediaItemID="5357" duration="0.20000000000000001">
      <Effects />
      <Transitions />
      <BoundProperties>
        <BoundPropertyInt Name="rotateStepNinety" Value="0" />
      </BoundProperties>
    </ImageClip>
    <ImageClip extentID="194" gapBefore="0" mediaItemID="190" duration="0.20000000000000001">
      <Effects />
      <Transitions />
      <BoundProperties>
        <BoundPropertyInt Name="rotateStepNinety" Value="0" />
      </BoundProperties>
    </ImageClip>
    <ImageClip extentID="5362" gapBefore="0" mediaItemID="5358" duration="0.20000000000000001">
      <Effects />
      <Transitions />
      <BoundProperties>
        <BoundPropertyInt Name="rotateStepNinety" Value="0" />
      </BoundProperties>
    </ImageClip>
    <ImageClip extentID="195" gapBefore="0" mediaItemID="191" duration="0.20000000000000001">
      <Effects />
      <Transitions />
      <BoundProperties>
        <BoundPropertyInt Name="rotateStepNinety" Value="0" />
      </BoundProperties>
    </ImageClip>
    <ImageClip extentID="5363" gapBefore="0" mediaItemID="5359" duration="0.20000000000000001">
      <Effects />
      <Transitions />
      <BoundProperties>
        <BoundPropertyInt Name="rotateStepNinety" Value="0" />
      </BoundProperties>
    </ImageClip>
    <ImageClip extentID="196" gapBefore="0" mediaItemID="192" duration="0.20000000000000001">
      <Effects />
      <Transitions />
      <BoundProperties>
        <BoundPropertyInt Name="rotateStepNinety" Value="0" />
      </BoundProperties>
    </ImageClip>
    <ImageClip extentID="5364" gapBefore="0" mediaItemID="5360" duration="0.20000000000000001">
      <Effects />
      <Transitions />
      <BoundProperties>
        <BoundPropertyInt Name="rotateStepNinety" Value="0" />
      </BoundProperties>
    </ImageClip>
    <ImageClip extentID="197" gapBefore="0" mediaItemID="193" duration="0.20000000000000001">
      <Effects />
      <Transitions />
      <BoundProperties>
        <BoundPropertyInt Name="rotateStepNinety" Value="0" />
      </BoundProperties>
    </ImageClip>
    <ImageClip extentID="5365" gapBefore="0" mediaItemID="5361" duration="0.20000000000000001">
      <Effects />
      <Transitions />
      <BoundProperties>
        <BoundPropertyInt Name="rotateStepNinety" Value="0" />
      </BoundProperties>
    </ImageClip>
    <ImageClip extentID="198" gapBefore="0" mediaItemID="194" duration="0.20000000000000001">
      <Effects />
      <Transitions />
      <BoundProperties>
        <BoundPropertyInt Name="rotateStepNinety" Value="0" />
      </BoundProperties>
    </ImageClip>
    <ImageClip extentID="5366" gapBefore="0" mediaItemID="5362" duration="0.20000000000000001">
      <Effects />
      <Transitions />
      <BoundProperties>
        <BoundPropertyInt Name="rotateStepNinety" Value="0" />
      </BoundProperties>
    </ImageClip>
    <ImageClip extentID="199" gapBefore="0" mediaItemID="195" duration="0.20000000000000001">
      <Effects />
      <Transitions />
      <BoundProperties>
        <BoundPropertyInt Name="rotateStepNinety" Value="0" />
      </BoundProperties>
    </ImageClip>
    <ImageClip extentID="5367" gapBefore="0" mediaItemID="5363" duration="0.20000000000000001">
      <Effects />
      <Transitions />
      <BoundProperties>
        <BoundPropertyInt Name="rotateStepNinety" Value="0" />
      </BoundProperties>
    </ImageClip>
    <ImageClip extentID="200" gapBefore="0" mediaItemID="196" duration="0.20000000000000001">
      <Effects />
      <Transitions />
      <BoundProperties>
        <BoundPropertyInt Name="rotateStepNinety" Value="0" />
      </BoundProperties>
    </ImageClip>
    <ImageClip extentID="5368" gapBefore="0" mediaItemID="5364" duration="0.20000000000000001">
      <Effects />
      <Transitions />
      <BoundProperties>
        <BoundPropertyInt Name="rotateStepNinety" Value="0" />
      </BoundProperties>
    </ImageClip>
    <ImageClip extentID="201" gapBefore="0" mediaItemID="197" duration="0.20000000000000001">
      <Effects />
      <Transitions />
      <BoundProperties>
        <BoundPropertyInt Name="rotateStepNinety" Value="0" />
      </BoundProperties>
    </ImageClip>
    <ImageClip extentID="5369" gapBefore="0" mediaItemID="5365" duration="0.20000000000000001">
      <Effects />
      <Transitions />
      <BoundProperties>
        <BoundPropertyInt Name="rotateStepNinety" Value="0" />
      </BoundProperties>
    </ImageClip>
    <ImageClip extentID="202" gapBefore="0" mediaItemID="198" duration="0.20000000000000001">
      <Effects />
      <Transitions />
      <BoundProperties>
        <BoundPropertyInt Name="rotateStepNinety" Value="0" />
      </BoundProperties>
    </ImageClip>
    <ImageClip extentID="5370" gapBefore="0" mediaItemID="5366" duration="0.20000000000000001">
      <Effects />
      <Transitions />
      <BoundProperties>
        <BoundPropertyInt Name="rotateStepNinety" Value="0" />
      </BoundProperties>
    </ImageClip>
    <ImageClip extentID="203" gapBefore="0" mediaItemID="199" duration="0.20000000000000001">
      <Effects />
      <Transitions />
      <BoundProperties>
        <BoundPropertyInt Name="rotateStepNinety" Value="0" />
      </BoundProperties>
    </ImageClip>
    <ImageClip extentID="5371" gapBefore="0" mediaItemID="5367" duration="0.20000000000000001">
      <Effects />
      <Transitions />
      <BoundProperties>
        <BoundPropertyInt Name="rotateStepNinety" Value="0" />
      </BoundProperties>
    </ImageClip>
    <ImageClip extentID="204" gapBefore="0" mediaItemID="200" duration="0.20000000000000001">
      <Effects />
      <Transitions />
      <BoundProperties>
        <BoundPropertyInt Name="rotateStepNinety" Value="0" />
      </BoundProperties>
    </ImageClip>
    <ImageClip extentID="5372" gapBefore="0" mediaItemID="5368" duration="0.20000000000000001">
      <Effects />
      <Transitions />
      <BoundProperties>
        <BoundPropertyInt Name="rotateStepNinety" Value="0" />
      </BoundProperties>
    </ImageClip>
    <ImageClip extentID="205" gapBefore="0" mediaItemID="201" duration="0.20000000000000001">
      <Effects />
      <Transitions />
      <BoundProperties>
        <BoundPropertyInt Name="rotateStepNinety" Value="0" />
      </BoundProperties>
    </ImageClip>
    <ImageClip extentID="5373" gapBefore="0" mediaItemID="5369" duration="0.20000000000000001">
      <Effects />
      <Transitions />
      <BoundProperties>
        <BoundPropertyInt Name="rotateStepNinety" Value="0" />
      </BoundProperties>
    </ImageClip>
    <ImageClip extentID="206" gapBefore="0" mediaItemID="202" duration="0.20000000000000001">
      <Effects />
      <Transitions />
      <BoundProperties>
        <BoundPropertyInt Name="rotateStepNinety" Value="0" />
      </BoundProperties>
    </ImageClip>
    <ImageClip extentID="5374" gapBefore="0" mediaItemID="5370" duration="0.20000000000000001">
      <Effects />
      <Transitions />
      <BoundProperties>
        <BoundPropertyInt Name="rotateStepNinety" Value="0" />
      </BoundProperties>
    </ImageClip>
    <ImageClip extentID="207" gapBefore="0" mediaItemID="203" duration="0.20000000000000001">
      <Effects />
      <Transitions />
      <BoundProperties>
        <BoundPropertyInt Name="rotateStepNinety" Value="0" />
      </BoundProperties>
    </ImageClip>
    <ImageClip extentID="5375" gapBefore="0" mediaItemID="5371" duration="0.20000000000000001">
      <Effects />
      <Transitions />
      <BoundProperties>
        <BoundPropertyInt Name="rotateStepNinety" Value="0" />
      </BoundProperties>
    </ImageClip>
    <ImageClip extentID="208" gapBefore="0" mediaItemID="204" duration="0.20000000000000001">
      <Effects />
      <Transitions />
      <BoundProperties>
        <BoundPropertyInt Name="rotateStepNinety" Value="0" />
      </BoundProperties>
    </ImageClip>
    <ImageClip extentID="5376" gapBefore="0" mediaItemID="5372" duration="0.20000000000000001">
      <Effects />
      <Transitions />
      <BoundProperties>
        <BoundPropertyInt Name="rotateStepNinety" Value="0" />
      </BoundProperties>
    </ImageClip>
    <ImageClip extentID="209" gapBefore="0" mediaItemID="205" duration="0.20000000000000001">
      <Effects />
      <Transitions />
      <BoundProperties>
        <BoundPropertyInt Name="rotateStepNinety" Value="0" />
      </BoundProperties>
    </ImageClip>
    <ImageClip extentID="5377" gapBefore="0" mediaItemID="5373" duration="0.20000000000000001">
      <Effects />
      <Transitions />
      <BoundProperties>
        <BoundPropertyInt Name="rotateStepNinety" Value="0" />
      </BoundProperties>
    </ImageClip>
    <ImageClip extentID="210" gapBefore="0" mediaItemID="206" duration="0.20000000000000001">
      <Effects />
      <Transitions />
      <BoundProperties>
        <BoundPropertyInt Name="rotateStepNinety" Value="0" />
      </BoundProperties>
    </ImageClip>
    <ImageClip extentID="5378" gapBefore="0" mediaItemID="5374" duration="0.20000000000000001">
      <Effects />
      <Transitions />
      <BoundProperties>
        <BoundPropertyInt Name="rotateStepNinety" Value="0" />
      </BoundProperties>
    </ImageClip>
    <ImageClip extentID="211" gapBefore="0" mediaItemID="207" duration="0.20000000000000001">
      <Effects />
      <Transitions />
      <BoundProperties>
        <BoundPropertyInt Name="rotateStepNinety" Value="0" />
      </BoundProperties>
    </ImageClip>
    <ImageClip extentID="5379" gapBefore="0" mediaItemID="5375" duration="0.20000000000000001">
      <Effects />
      <Transitions />
      <BoundProperties>
        <BoundPropertyInt Name="rotateStepNinety" Value="0" />
      </BoundProperties>
    </ImageClip>
    <ImageClip extentID="212" gapBefore="0" mediaItemID="208" duration="0.20000000000000001">
      <Effects />
      <Transitions />
      <BoundProperties>
        <BoundPropertyInt Name="rotateStepNinety" Value="0" />
      </BoundProperties>
    </ImageClip>
    <ImageClip extentID="5380" gapBefore="0" mediaItemID="5376" duration="0.20000000000000001">
      <Effects />
      <Transitions />
      <BoundProperties>
        <BoundPropertyInt Name="rotateStepNinety" Value="0" />
      </BoundProperties>
    </ImageClip>
    <ImageClip extentID="213" gapBefore="0" mediaItemID="209" duration="0.20000000000000001">
      <Effects />
      <Transitions />
      <BoundProperties>
        <BoundPropertyInt Name="rotateStepNinety" Value="0" />
      </BoundProperties>
    </ImageClip>
    <ImageClip extentID="5381" gapBefore="0" mediaItemID="5377" duration="0.20000000000000001">
      <Effects />
      <Transitions />
      <BoundProperties>
        <BoundPropertyInt Name="rotateStepNinety" Value="0" />
      </BoundProperties>
    </ImageClip>
    <ImageClip extentID="214" gapBefore="0" mediaItemID="210" duration="0.20000000000000001">
      <Effects />
      <Transitions />
      <BoundProperties>
        <BoundPropertyInt Name="rotateStepNinety" Value="0" />
      </BoundProperties>
    </ImageClip>
    <ImageClip extentID="5382" gapBefore="0" mediaItemID="5378" duration="0.20000000000000001">
      <Effects />
      <Transitions />
      <BoundProperties>
        <BoundPropertyInt Name="rotateStepNinety" Value="0" />
      </BoundProperties>
    </ImageClip>
    <ImageClip extentID="215" gapBefore="0" mediaItemID="211" duration="0.20000000000000001">
      <Effects />
      <Transitions />
      <BoundProperties>
        <BoundPropertyInt Name="rotateStepNinety" Value="0" />
      </BoundProperties>
    </ImageClip>
    <ImageClip extentID="5383" gapBefore="0" mediaItemID="5379" duration="0.20000000000000001">
      <Effects />
      <Transitions />
      <BoundProperties>
        <BoundPropertyInt Name="rotateStepNinety" Value="0" />
      </BoundProperties>
    </ImageClip>
    <ImageClip extentID="216" gapBefore="0" mediaItemID="212" duration="0.20000000000000001">
      <Effects />
      <Transitions />
      <BoundProperties>
        <BoundPropertyInt Name="rotateStepNinety" Value="0" />
      </BoundProperties>
    </ImageClip>
    <ImageClip extentID="5384" gapBefore="0" mediaItemID="5380" duration="0.20000000000000001">
      <Effects />
      <Transitions />
      <BoundProperties>
        <BoundPropertyInt Name="rotateStepNinety" Value="0" />
      </BoundProperties>
    </ImageClip>
    <ImageClip extentID="217" gapBefore="0" mediaItemID="213" duration="0.20000000000000001">
      <Effects />
      <Transitions />
      <BoundProperties>
        <BoundPropertyInt Name="rotateStepNinety" Value="0" />
      </BoundProperties>
    </ImageClip>
    <ImageClip extentID="5385" gapBefore="0" mediaItemID="5381" duration="0.20000000000000001">
      <Effects />
      <Transitions />
      <BoundProperties>
        <BoundPropertyInt Name="rotateStepNinety" Value="0" />
      </BoundProperties>
    </ImageClip>
    <ImageClip extentID="218" gapBefore="0" mediaItemID="214" duration="0.20000000000000001">
      <Effects />
      <Transitions />
      <BoundProperties>
        <BoundPropertyInt Name="rotateStepNinety" Value="0" />
      </BoundProperties>
    </ImageClip>
    <ImageClip extentID="5386" gapBefore="0" mediaItemID="5382" duration="0.20000000000000001">
      <Effects />
      <Transitions />
      <BoundProperties>
        <BoundPropertyInt Name="rotateStepNinety" Value="0" />
      </BoundProperties>
    </ImageClip>
    <ImageClip extentID="219" gapBefore="0" mediaItemID="215" duration="0.20000000000000001">
      <Effects />
      <Transitions />
      <BoundProperties>
        <BoundPropertyInt Name="rotateStepNinety" Value="0" />
      </BoundProperties>
    </ImageClip>
    <ImageClip extentID="5387" gapBefore="0" mediaItemID="5383" duration="0.20000000000000001">
      <Effects />
      <Transitions />
      <BoundProperties>
        <BoundPropertyInt Name="rotateStepNinety" Value="0" />
      </BoundProperties>
    </ImageClip>
    <ImageClip extentID="220" gapBefore="0" mediaItemID="216" duration="0.20000000000000001">
      <Effects />
      <Transitions />
      <BoundProperties>
        <BoundPropertyInt Name="rotateStepNinety" Value="0" />
      </BoundProperties>
    </ImageClip>
    <ImageClip extentID="5388" gapBefore="0" mediaItemID="5384" duration="0.20000000000000001">
      <Effects />
      <Transitions />
      <BoundProperties>
        <BoundPropertyInt Name="rotateStepNinety" Value="0" />
      </BoundProperties>
    </ImageClip>
    <ImageClip extentID="221" gapBefore="0" mediaItemID="217" duration="0.20000000000000001">
      <Effects />
      <Transitions />
      <BoundProperties>
        <BoundPropertyInt Name="rotateStepNinety" Value="0" />
      </BoundProperties>
    </ImageClip>
    <ImageClip extentID="5389" gapBefore="0" mediaItemID="5385" duration="0.20000000000000001">
      <Effects />
      <Transitions />
      <BoundProperties>
        <BoundPropertyInt Name="rotateStepNinety" Value="0" />
      </BoundProperties>
    </ImageClip>
    <ImageClip extentID="222" gapBefore="0" mediaItemID="218" duration="0.20000000000000001">
      <Effects />
      <Transitions />
      <BoundProperties>
        <BoundPropertyInt Name="rotateStepNinety" Value="0" />
      </BoundProperties>
    </ImageClip>
    <ImageClip extentID="5390" gapBefore="0" mediaItemID="5386" duration="0.20000000000000001">
      <Effects />
      <Transitions />
      <BoundProperties>
        <BoundPropertyInt Name="rotateStepNinety" Value="0" />
      </BoundProperties>
    </ImageClip>
    <ImageClip extentID="223" gapBefore="0" mediaItemID="219" duration="0.20000000000000001">
      <Effects />
      <Transitions />
      <BoundProperties>
        <BoundPropertyInt Name="rotateStepNinety" Value="0" />
      </BoundProperties>
    </ImageClip>
    <ImageClip extentID="5391" gapBefore="0" mediaItemID="5387" duration="0.20000000000000001">
      <Effects />
      <Transitions />
      <BoundProperties>
        <BoundPropertyInt Name="rotateStepNinety" Value="0" />
      </BoundProperties>
    </ImageClip>
    <ImageClip extentID="224" gapBefore="0" mediaItemID="220" duration="0.20000000000000001">
      <Effects />
      <Transitions />
      <BoundProperties>
        <BoundPropertyInt Name="rotateStepNinety" Value="0" />
      </BoundProperties>
    </ImageClip>
    <ImageClip extentID="5392" gapBefore="0" mediaItemID="5388" duration="0.20000000000000001">
      <Effects />
      <Transitions />
      <BoundProperties>
        <BoundPropertyInt Name="rotateStepNinety" Value="0" />
      </BoundProperties>
    </ImageClip>
    <ImageClip extentID="225" gapBefore="0" mediaItemID="221" duration="0.20000000000000001">
      <Effects />
      <Transitions />
      <BoundProperties>
        <BoundPropertyInt Name="rotateStepNinety" Value="0" />
      </BoundProperties>
    </ImageClip>
    <ImageClip extentID="5393" gapBefore="0" mediaItemID="5389" duration="0.20000000000000001">
      <Effects />
      <Transitions />
      <BoundProperties>
        <BoundPropertyInt Name="rotateStepNinety" Value="0" />
      </BoundProperties>
    </ImageClip>
    <ImageClip extentID="226" gapBefore="0" mediaItemID="222" duration="0.20000000000000001">
      <Effects />
      <Transitions />
      <BoundProperties>
        <BoundPropertyInt Name="rotateStepNinety" Value="0" />
      </BoundProperties>
    </ImageClip>
    <ImageClip extentID="5394" gapBefore="0" mediaItemID="5390" duration="0.20000000000000001">
      <Effects />
      <Transitions />
      <BoundProperties>
        <BoundPropertyInt Name="rotateStepNinety" Value="0" />
      </BoundProperties>
    </ImageClip>
    <ImageClip extentID="227" gapBefore="0" mediaItemID="223" duration="0.20000000000000001">
      <Effects />
      <Transitions />
      <BoundProperties>
        <BoundPropertyInt Name="rotateStepNinety" Value="0" />
      </BoundProperties>
    </ImageClip>
    <ImageClip extentID="5395" gapBefore="0" mediaItemID="5391" duration="0.20000000000000001">
      <Effects />
      <Transitions />
      <BoundProperties>
        <BoundPropertyInt Name="rotateStepNinety" Value="0" />
      </BoundProperties>
    </ImageClip>
    <ImageClip extentID="228" gapBefore="0" mediaItemID="224" duration="0.20000000000000001">
      <Effects />
      <Transitions />
      <BoundProperties>
        <BoundPropertyInt Name="rotateStepNinety" Value="0" />
      </BoundProperties>
    </ImageClip>
    <ImageClip extentID="5396" gapBefore="0" mediaItemID="5392" duration="0.20000000000000001">
      <Effects />
      <Transitions />
      <BoundProperties>
        <BoundPropertyInt Name="rotateStepNinety" Value="0" />
      </BoundProperties>
    </ImageClip>
    <ImageClip extentID="229" gapBefore="0" mediaItemID="225" duration="0.20000000000000001">
      <Effects />
      <Transitions />
      <BoundProperties>
        <BoundPropertyInt Name="rotateStepNinety" Value="0" />
      </BoundProperties>
    </ImageClip>
    <ImageClip extentID="5397" gapBefore="0" mediaItemID="5393" duration="0.20000000000000001">
      <Effects />
      <Transitions />
      <BoundProperties>
        <BoundPropertyInt Name="rotateStepNinety" Value="0" />
      </BoundProperties>
    </ImageClip>
    <ImageClip extentID="230" gapBefore="0" mediaItemID="226" duration="0.20000000000000001">
      <Effects />
      <Transitions />
      <BoundProperties>
        <BoundPropertyInt Name="rotateStepNinety" Value="0" />
      </BoundProperties>
    </ImageClip>
    <ImageClip extentID="5398" gapBefore="0" mediaItemID="5394" duration="0.20000000000000001">
      <Effects />
      <Transitions />
      <BoundProperties>
        <BoundPropertyInt Name="rotateStepNinety" Value="0" />
      </BoundProperties>
    </ImageClip>
    <ImageClip extentID="231" gapBefore="0" mediaItemID="227" duration="0.20000000000000001">
      <Effects />
      <Transitions />
      <BoundProperties>
        <BoundPropertyInt Name="rotateStepNinety" Value="0" />
      </BoundProperties>
    </ImageClip>
    <ImageClip extentID="5399" gapBefore="0" mediaItemID="5395" duration="0.20000000000000001">
      <Effects />
      <Transitions />
      <BoundProperties>
        <BoundPropertyInt Name="rotateStepNinety" Value="0" />
      </BoundProperties>
    </ImageClip>
    <ImageClip extentID="232" gapBefore="0" mediaItemID="228" duration="0.20000000000000001">
      <Effects />
      <Transitions />
      <BoundProperties>
        <BoundPropertyInt Name="rotateStepNinety" Value="0" />
      </BoundProperties>
    </ImageClip>
    <ImageClip extentID="5400" gapBefore="0" mediaItemID="5396" duration="0.20000000000000001">
      <Effects />
      <Transitions />
      <BoundProperties>
        <BoundPropertyInt Name="rotateStepNinety" Value="0" />
      </BoundProperties>
    </ImageClip>
    <ImageClip extentID="233" gapBefore="0" mediaItemID="229" duration="0.20000000000000001">
      <Effects />
      <Transitions />
      <BoundProperties>
        <BoundPropertyInt Name="rotateStepNinety" Value="0" />
      </BoundProperties>
    </ImageClip>
    <ImageClip extentID="5401" gapBefore="0" mediaItemID="5397" duration="0.20000000000000001">
      <Effects />
      <Transitions />
      <BoundProperties>
        <BoundPropertyInt Name="rotateStepNinety" Value="0" />
      </BoundProperties>
    </ImageClip>
    <ImageClip extentID="234" gapBefore="0" mediaItemID="230" duration="0.20000000000000001">
      <Effects />
      <Transitions />
      <BoundProperties>
        <BoundPropertyInt Name="rotateStepNinety" Value="0" />
      </BoundProperties>
    </ImageClip>
    <ImageClip extentID="5402" gapBefore="0" mediaItemID="5398" duration="0.20000000000000001">
      <Effects />
      <Transitions />
      <BoundProperties>
        <BoundPropertyInt Name="rotateStepNinety" Value="0" />
      </BoundProperties>
    </ImageClip>
    <ImageClip extentID="235" gapBefore="0" mediaItemID="231" duration="0.20000000000000001">
      <Effects />
      <Transitions />
      <BoundProperties>
        <BoundPropertyInt Name="rotateStepNinety" Value="0" />
      </BoundProperties>
    </ImageClip>
    <ImageClip extentID="5403" gapBefore="0" mediaItemID="5399" duration="0.20000000000000001">
      <Effects />
      <Transitions />
      <BoundProperties>
        <BoundPropertyInt Name="rotateStepNinety" Value="0" />
      </BoundProperties>
    </ImageClip>
    <ImageClip extentID="236" gapBefore="0" mediaItemID="232" duration="0.20000000000000001">
      <Effects />
      <Transitions />
      <BoundProperties>
        <BoundPropertyInt Name="rotateStepNinety" Value="0" />
      </BoundProperties>
    </ImageClip>
    <ImageClip extentID="5404" gapBefore="0" mediaItemID="5400" duration="0.20000000000000001">
      <Effects />
      <Transitions />
      <BoundProperties>
        <BoundPropertyInt Name="rotateStepNinety" Value="0" />
      </BoundProperties>
    </ImageClip>
    <ImageClip extentID="237" gapBefore="0" mediaItemID="233" duration="0.20000000000000001">
      <Effects />
      <Transitions />
      <BoundProperties>
        <BoundPropertyInt Name="rotateStepNinety" Value="0" />
      </BoundProperties>
    </ImageClip>
    <ImageClip extentID="5405" gapBefore="0" mediaItemID="5401" duration="0.20000000000000001">
      <Effects />
      <Transitions />
      <BoundProperties>
        <BoundPropertyInt Name="rotateStepNinety" Value="0" />
      </BoundProperties>
    </ImageClip>
    <ImageClip extentID="238" gapBefore="0" mediaItemID="234" duration="0.20000000000000001">
      <Effects />
      <Transitions />
      <BoundProperties>
        <BoundPropertyInt Name="rotateStepNinety" Value="0" />
      </BoundProperties>
    </ImageClip>
    <ImageClip extentID="5406" gapBefore="0" mediaItemID="5402" duration="0.20000000000000001">
      <Effects />
      <Transitions />
      <BoundProperties>
        <BoundPropertyInt Name="rotateStepNinety" Value="0" />
      </BoundProperties>
    </ImageClip>
    <ImageClip extentID="239" gapBefore="0" mediaItemID="235" duration="0.20000000000000001">
      <Effects />
      <Transitions />
      <BoundProperties>
        <BoundPropertyInt Name="rotateStepNinety" Value="0" />
      </BoundProperties>
    </ImageClip>
    <ImageClip extentID="5407" gapBefore="0" mediaItemID="5403" duration="0.20000000000000001">
      <Effects />
      <Transitions />
      <BoundProperties>
        <BoundPropertyInt Name="rotateStepNinety" Value="0" />
      </BoundProperties>
    </ImageClip>
    <ImageClip extentID="240" gapBefore="0" mediaItemID="236" duration="0.20000000000000001">
      <Effects />
      <Transitions />
      <BoundProperties>
        <BoundPropertyInt Name="rotateStepNinety" Value="0" />
      </BoundProperties>
    </ImageClip>
    <ImageClip extentID="5408" gapBefore="0" mediaItemID="5404" duration="0.20000000000000001">
      <Effects />
      <Transitions />
      <BoundProperties>
        <BoundPropertyInt Name="rotateStepNinety" Value="0" />
      </BoundProperties>
    </ImageClip>
    <ImageClip extentID="241" gapBefore="0" mediaItemID="237" duration="0.20000000000000001">
      <Effects />
      <Transitions />
      <BoundProperties>
        <BoundPropertyInt Name="rotateStepNinety" Value="0" />
      </BoundProperties>
    </ImageClip>
    <ImageClip extentID="5409" gapBefore="0" mediaItemID="5405" duration="0.20000000000000001">
      <Effects />
      <Transitions />
      <BoundProperties>
        <BoundPropertyInt Name="rotateStepNinety" Value="0" />
      </BoundProperties>
    </ImageClip>
    <ImageClip extentID="242" gapBefore="0" mediaItemID="238" duration="0.20000000000000001">
      <Effects />
      <Transitions />
      <BoundProperties>
        <BoundPropertyInt Name="rotateStepNinety" Value="0" />
      </BoundProperties>
    </ImageClip>
    <ImageClip extentID="5410" gapBefore="0" mediaItemID="5406" duration="0.20000000000000001">
      <Effects />
      <Transitions />
      <BoundProperties>
        <BoundPropertyInt Name="rotateStepNinety" Value="0" />
      </BoundProperties>
    </ImageClip>
    <ImageClip extentID="243" gapBefore="0" mediaItemID="239" duration="0.20000000000000001">
      <Effects />
      <Transitions />
      <BoundProperties>
        <BoundPropertyInt Name="rotateStepNinety" Value="0" />
      </BoundProperties>
    </ImageClip>
    <ImageClip extentID="5411" gapBefore="0" mediaItemID="5407" duration="0.20000000000000001">
      <Effects />
      <Transitions />
      <BoundProperties>
        <BoundPropertyInt Name="rotateStepNinety" Value="0" />
      </BoundProperties>
    </ImageClip>
    <ImageClip extentID="244" gapBefore="0" mediaItemID="240" duration="0.20000000000000001">
      <Effects />
      <Transitions />
      <BoundProperties>
        <BoundPropertyInt Name="rotateStepNinety" Value="0" />
      </BoundProperties>
    </ImageClip>
    <ImageClip extentID="5412" gapBefore="0" mediaItemID="5408" duration="0.20000000000000001">
      <Effects />
      <Transitions />
      <BoundProperties>
        <BoundPropertyInt Name="rotateStepNinety" Value="0" />
      </BoundProperties>
    </ImageClip>
    <ImageClip extentID="245" gapBefore="0" mediaItemID="241" duration="0.20000000000000001">
      <Effects />
      <Transitions />
      <BoundProperties>
        <BoundPropertyInt Name="rotateStepNinety" Value="0" />
      </BoundProperties>
    </ImageClip>
    <ImageClip extentID="5413" gapBefore="0" mediaItemID="5409" duration="0.20000000000000001">
      <Effects />
      <Transitions />
      <BoundProperties>
        <BoundPropertyInt Name="rotateStepNinety" Value="0" />
      </BoundProperties>
    </ImageClip>
    <ImageClip extentID="246" gapBefore="0" mediaItemID="242" duration="0.20000000000000001">
      <Effects />
      <Transitions />
      <BoundProperties>
        <BoundPropertyInt Name="rotateStepNinety" Value="0" />
      </BoundProperties>
    </ImageClip>
    <ImageClip extentID="5414" gapBefore="0" mediaItemID="5410" duration="0.20000000000000001">
      <Effects />
      <Transitions />
      <BoundProperties>
        <BoundPropertyInt Name="rotateStepNinety" Value="0" />
      </BoundProperties>
    </ImageClip>
    <ImageClip extentID="247" gapBefore="0" mediaItemID="243" duration="0.20000000000000001">
      <Effects />
      <Transitions />
      <BoundProperties>
        <BoundPropertyInt Name="rotateStepNinety" Value="0" />
      </BoundProperties>
    </ImageClip>
    <ImageClip extentID="5415" gapBefore="0" mediaItemID="5411" duration="0.20000000000000001">
      <Effects />
      <Transitions />
      <BoundProperties>
        <BoundPropertyInt Name="rotateStepNinety" Value="0" />
      </BoundProperties>
    </ImageClip>
    <ImageClip extentID="248" gapBefore="0" mediaItemID="244" duration="0.20000000000000001">
      <Effects />
      <Transitions />
      <BoundProperties>
        <BoundPropertyInt Name="rotateStepNinety" Value="0" />
      </BoundProperties>
    </ImageClip>
    <ImageClip extentID="5416" gapBefore="0" mediaItemID="5412" duration="0.20000000000000001">
      <Effects />
      <Transitions />
      <BoundProperties>
        <BoundPropertyInt Name="rotateStepNinety" Value="0" />
      </BoundProperties>
    </ImageClip>
    <ImageClip extentID="249" gapBefore="0" mediaItemID="245" duration="0.20000000000000001">
      <Effects />
      <Transitions />
      <BoundProperties>
        <BoundPropertyInt Name="rotateStepNinety" Value="0" />
      </BoundProperties>
    </ImageClip>
    <ImageClip extentID="5417" gapBefore="0" mediaItemID="5413" duration="0.20000000000000001">
      <Effects />
      <Transitions />
      <BoundProperties>
        <BoundPropertyInt Name="rotateStepNinety" Value="0" />
      </BoundProperties>
    </ImageClip>
    <ImageClip extentID="250" gapBefore="0" mediaItemID="246" duration="0.20000000000000001">
      <Effects />
      <Transitions />
      <BoundProperties>
        <BoundPropertyInt Name="rotateStepNinety" Value="0" />
      </BoundProperties>
    </ImageClip>
    <ImageClip extentID="5418" gapBefore="0" mediaItemID="5414" duration="0.20000000000000001">
      <Effects />
      <Transitions />
      <BoundProperties>
        <BoundPropertyInt Name="rotateStepNinety" Value="0" />
      </BoundProperties>
    </ImageClip>
    <ImageClip extentID="251" gapBefore="0" mediaItemID="247" duration="0.20000000000000001">
      <Effects />
      <Transitions />
      <BoundProperties>
        <BoundPropertyInt Name="rotateStepNinety" Value="0" />
      </BoundProperties>
    </ImageClip>
    <ImageClip extentID="5419" gapBefore="0" mediaItemID="5415" duration="0.20000000000000001">
      <Effects />
      <Transitions />
      <BoundProperties>
        <BoundPropertyInt Name="rotateStepNinety" Value="0" />
      </BoundProperties>
    </ImageClip>
    <ImageClip extentID="252" gapBefore="0" mediaItemID="248" duration="0.20000000000000001">
      <Effects />
      <Transitions />
      <BoundProperties>
        <BoundPropertyInt Name="rotateStepNinety" Value="0" />
      </BoundProperties>
    </ImageClip>
    <ImageClip extentID="5420" gapBefore="0" mediaItemID="5416" duration="0.20000000000000001">
      <Effects />
      <Transitions />
      <BoundProperties>
        <BoundPropertyInt Name="rotateStepNinety" Value="0" />
      </BoundProperties>
    </ImageClip>
    <ImageClip extentID="253" gapBefore="0" mediaItemID="249" duration="0.20000000000000001">
      <Effects />
      <Transitions />
      <BoundProperties>
        <BoundPropertyInt Name="rotateStepNinety" Value="0" />
      </BoundProperties>
    </ImageClip>
    <ImageClip extentID="5421" gapBefore="0" mediaItemID="5417" duration="0.20000000000000001">
      <Effects />
      <Transitions />
      <BoundProperties>
        <BoundPropertyInt Name="rotateStepNinety" Value="0" />
      </BoundProperties>
    </ImageClip>
    <ImageClip extentID="254" gapBefore="0" mediaItemID="250" duration="0.20000000000000001">
      <Effects />
      <Transitions />
      <BoundProperties>
        <BoundPropertyInt Name="rotateStepNinety" Value="0" />
      </BoundProperties>
    </ImageClip>
    <ImageClip extentID="5422" gapBefore="0" mediaItemID="5418" duration="0.20000000000000001">
      <Effects />
      <Transitions />
      <BoundProperties>
        <BoundPropertyInt Name="rotateStepNinety" Value="0" />
      </BoundProperties>
    </ImageClip>
    <ImageClip extentID="255" gapBefore="0" mediaItemID="251" duration="0.20000000000000001">
      <Effects />
      <Transitions />
      <BoundProperties>
        <BoundPropertyInt Name="rotateStepNinety" Value="0" />
      </BoundProperties>
    </ImageClip>
    <ImageClip extentID="5423" gapBefore="0" mediaItemID="5419" duration="0.20000000000000001">
      <Effects />
      <Transitions />
      <BoundProperties>
        <BoundPropertyInt Name="rotateStepNinety" Value="0" />
      </BoundProperties>
    </ImageClip>
    <ImageClip extentID="256" gapBefore="0" mediaItemID="252" duration="0.20000000000000001">
      <Effects />
      <Transitions />
      <BoundProperties>
        <BoundPropertyInt Name="rotateStepNinety" Value="0" />
      </BoundProperties>
    </ImageClip>
    <ImageClip extentID="5424" gapBefore="0" mediaItemID="5420" duration="0.20000000000000001">
      <Effects />
      <Transitions />
      <BoundProperties>
        <BoundPropertyInt Name="rotateStepNinety" Value="0" />
      </BoundProperties>
    </ImageClip>
    <ImageClip extentID="257" gapBefore="0" mediaItemID="253" duration="0.20000000000000001">
      <Effects />
      <Transitions />
      <BoundProperties>
        <BoundPropertyInt Name="rotateStepNinety" Value="0" />
      </BoundProperties>
    </ImageClip>
    <ImageClip extentID="5425" gapBefore="0" mediaItemID="5421" duration="0.20000000000000001">
      <Effects />
      <Transitions />
      <BoundProperties>
        <BoundPropertyInt Name="rotateStepNinety" Value="0" />
      </BoundProperties>
    </ImageClip>
    <ImageClip extentID="258" gapBefore="0" mediaItemID="254" duration="0.20000000000000001">
      <Effects />
      <Transitions />
      <BoundProperties>
        <BoundPropertyInt Name="rotateStepNinety" Value="0" />
      </BoundProperties>
    </ImageClip>
    <ImageClip extentID="5426" gapBefore="0" mediaItemID="5422" duration="0.20000000000000001">
      <Effects />
      <Transitions />
      <BoundProperties>
        <BoundPropertyInt Name="rotateStepNinety" Value="0" />
      </BoundProperties>
    </ImageClip>
    <ImageClip extentID="259" gapBefore="0" mediaItemID="255" duration="0.20000000000000001">
      <Effects />
      <Transitions />
      <BoundProperties>
        <BoundPropertyInt Name="rotateStepNinety" Value="0" />
      </BoundProperties>
    </ImageClip>
    <ImageClip extentID="5427" gapBefore="0" mediaItemID="5423" duration="0.20000000000000001">
      <Effects />
      <Transitions />
      <BoundProperties>
        <BoundPropertyInt Name="rotateStepNinety" Value="0" />
      </BoundProperties>
    </ImageClip>
    <ImageClip extentID="260" gapBefore="0" mediaItemID="256" duration="0.20000000000000001">
      <Effects />
      <Transitions />
      <BoundProperties>
        <BoundPropertyInt Name="rotateStepNinety" Value="0" />
      </BoundProperties>
    </ImageClip>
    <ImageClip extentID="5428" gapBefore="0" mediaItemID="5424" duration="0.20000000000000001">
      <Effects />
      <Transitions />
      <BoundProperties>
        <BoundPropertyInt Name="rotateStepNinety" Value="0" />
      </BoundProperties>
    </ImageClip>
    <ImageClip extentID="261" gapBefore="0" mediaItemID="257" duration="0.20000000000000001">
      <Effects />
      <Transitions />
      <BoundProperties>
        <BoundPropertyInt Name="rotateStepNinety" Value="0" />
      </BoundProperties>
    </ImageClip>
    <ImageClip extentID="5429" gapBefore="0" mediaItemID="5425" duration="0.20000000000000001">
      <Effects />
      <Transitions />
      <BoundProperties>
        <BoundPropertyInt Name="rotateStepNinety" Value="0" />
      </BoundProperties>
    </ImageClip>
    <ImageClip extentID="262" gapBefore="0" mediaItemID="258" duration="0.20000000000000001">
      <Effects />
      <Transitions />
      <BoundProperties>
        <BoundPropertyInt Name="rotateStepNinety" Value="0" />
      </BoundProperties>
    </ImageClip>
    <ImageClip extentID="5430" gapBefore="0" mediaItemID="5426" duration="0.20000000000000001">
      <Effects />
      <Transitions />
      <BoundProperties>
        <BoundPropertyInt Name="rotateStepNinety" Value="0" />
      </BoundProperties>
    </ImageClip>
    <ImageClip extentID="263" gapBefore="0" mediaItemID="259" duration="0.20000000000000001">
      <Effects />
      <Transitions />
      <BoundProperties>
        <BoundPropertyInt Name="rotateStepNinety" Value="0" />
      </BoundProperties>
    </ImageClip>
    <ImageClip extentID="5431" gapBefore="0" mediaItemID="5427" duration="0.20000000000000001">
      <Effects />
      <Transitions />
      <BoundProperties>
        <BoundPropertyInt Name="rotateStepNinety" Value="0" />
      </BoundProperties>
    </ImageClip>
    <ImageClip extentID="264" gapBefore="0" mediaItemID="260" duration="0.20000000000000001">
      <Effects />
      <Transitions />
      <BoundProperties>
        <BoundPropertyInt Name="rotateStepNinety" Value="0" />
      </BoundProperties>
    </ImageClip>
    <ImageClip extentID="5432" gapBefore="0" mediaItemID="5428" duration="0.20000000000000001">
      <Effects />
      <Transitions />
      <BoundProperties>
        <BoundPropertyInt Name="rotateStepNinety" Value="0" />
      </BoundProperties>
    </ImageClip>
    <ImageClip extentID="265" gapBefore="0" mediaItemID="261" duration="0.20000000000000001">
      <Effects />
      <Transitions />
      <BoundProperties>
        <BoundPropertyInt Name="rotateStepNinety" Value="0" />
      </BoundProperties>
    </ImageClip>
    <ImageClip extentID="5433" gapBefore="0" mediaItemID="5429" duration="0.20000000000000001">
      <Effects />
      <Transitions />
      <BoundProperties>
        <BoundPropertyInt Name="rotateStepNinety" Value="0" />
      </BoundProperties>
    </ImageClip>
    <ImageClip extentID="266" gapBefore="0" mediaItemID="262" duration="0.20000000000000001">
      <Effects />
      <Transitions />
      <BoundProperties>
        <BoundPropertyInt Name="rotateStepNinety" Value="0" />
      </BoundProperties>
    </ImageClip>
    <ImageClip extentID="5434" gapBefore="0" mediaItemID="5430" duration="0.20000000000000001">
      <Effects />
      <Transitions />
      <BoundProperties>
        <BoundPropertyInt Name="rotateStepNinety" Value="0" />
      </BoundProperties>
    </ImageClip>
    <ImageClip extentID="267" gapBefore="0" mediaItemID="263" duration="0.20000000000000001">
      <Effects />
      <Transitions />
      <BoundProperties>
        <BoundPropertyInt Name="rotateStepNinety" Value="0" />
      </BoundProperties>
    </ImageClip>
    <ImageClip extentID="5435" gapBefore="0" mediaItemID="5431" duration="0.20000000000000001">
      <Effects />
      <Transitions />
      <BoundProperties>
        <BoundPropertyInt Name="rotateStepNinety" Value="0" />
      </BoundProperties>
    </ImageClip>
    <ImageClip extentID="268" gapBefore="0" mediaItemID="264" duration="0.20000000000000001">
      <Effects />
      <Transitions />
      <BoundProperties>
        <BoundPropertyInt Name="rotateStepNinety" Value="0" />
      </BoundProperties>
    </ImageClip>
    <ImageClip extentID="5436" gapBefore="0" mediaItemID="5432" duration="0.20000000000000001">
      <Effects />
      <Transitions />
      <BoundProperties>
        <BoundPropertyInt Name="rotateStepNinety" Value="0" />
      </BoundProperties>
    </ImageClip>
    <ImageClip extentID="269" gapBefore="0" mediaItemID="265" duration="0.20000000000000001">
      <Effects />
      <Transitions />
      <BoundProperties>
        <BoundPropertyInt Name="rotateStepNinety" Value="0" />
      </BoundProperties>
    </ImageClip>
    <ImageClip extentID="5437" gapBefore="0" mediaItemID="5433" duration="0.20000000000000001">
      <Effects />
      <Transitions />
      <BoundProperties>
        <BoundPropertyInt Name="rotateStepNinety" Value="0" />
      </BoundProperties>
    </ImageClip>
    <ImageClip extentID="270" gapBefore="0" mediaItemID="266" duration="0.20000000000000001">
      <Effects />
      <Transitions />
      <BoundProperties>
        <BoundPropertyInt Name="rotateStepNinety" Value="0" />
      </BoundProperties>
    </ImageClip>
    <ImageClip extentID="5438" gapBefore="0" mediaItemID="5434" duration="0.20000000000000001">
      <Effects />
      <Transitions />
      <BoundProperties>
        <BoundPropertyInt Name="rotateStepNinety" Value="0" />
      </BoundProperties>
    </ImageClip>
    <ImageClip extentID="271" gapBefore="0" mediaItemID="267" duration="0.20000000000000001">
      <Effects />
      <Transitions />
      <BoundProperties>
        <BoundPropertyInt Name="rotateStepNinety" Value="0" />
      </BoundProperties>
    </ImageClip>
    <ImageClip extentID="5439" gapBefore="0" mediaItemID="5435" duration="0.20000000000000001">
      <Effects />
      <Transitions />
      <BoundProperties>
        <BoundPropertyInt Name="rotateStepNinety" Value="0" />
      </BoundProperties>
    </ImageClip>
    <ImageClip extentID="272" gapBefore="0" mediaItemID="268" duration="0.20000000000000001">
      <Effects />
      <Transitions />
      <BoundProperties>
        <BoundPropertyInt Name="rotateStepNinety" Value="0" />
      </BoundProperties>
    </ImageClip>
    <ImageClip extentID="5440" gapBefore="0" mediaItemID="5436" duration="0.20000000000000001">
      <Effects />
      <Transitions />
      <BoundProperties>
        <BoundPropertyInt Name="rotateStepNinety" Value="0" />
      </BoundProperties>
    </ImageClip>
    <ImageClip extentID="273" gapBefore="0" mediaItemID="269" duration="0.20000000000000001">
      <Effects />
      <Transitions />
      <BoundProperties>
        <BoundPropertyInt Name="rotateStepNinety" Value="0" />
      </BoundProperties>
    </ImageClip>
    <ImageClip extentID="5441" gapBefore="0" mediaItemID="5437" duration="0.20000000000000001">
      <Effects />
      <Transitions />
      <BoundProperties>
        <BoundPropertyInt Name="rotateStepNinety" Value="0" />
      </BoundProperties>
    </ImageClip>
    <ImageClip extentID="274" gapBefore="0" mediaItemID="270" duration="0.20000000000000001">
      <Effects />
      <Transitions />
      <BoundProperties>
        <BoundPropertyInt Name="rotateStepNinety" Value="0" />
      </BoundProperties>
    </ImageClip>
    <ImageClip extentID="5442" gapBefore="0" mediaItemID="5438" duration="0.20000000000000001">
      <Effects />
      <Transitions />
      <BoundProperties>
        <BoundPropertyInt Name="rotateStepNinety" Value="0" />
      </BoundProperties>
    </ImageClip>
    <ImageClip extentID="275" gapBefore="0" mediaItemID="271" duration="0.20000000000000001">
      <Effects />
      <Transitions />
      <BoundProperties>
        <BoundPropertyInt Name="rotateStepNinety" Value="0" />
      </BoundProperties>
    </ImageClip>
    <ImageClip extentID="5443" gapBefore="0" mediaItemID="5439" duration="0.20000000000000001">
      <Effects />
      <Transitions />
      <BoundProperties>
        <BoundPropertyInt Name="rotateStepNinety" Value="0" />
      </BoundProperties>
    </ImageClip>
    <ImageClip extentID="276" gapBefore="0" mediaItemID="272" duration="0.20000000000000001">
      <Effects />
      <Transitions />
      <BoundProperties>
        <BoundPropertyInt Name="rotateStepNinety" Value="0" />
      </BoundProperties>
    </ImageClip>
    <ImageClip extentID="5444" gapBefore="0" mediaItemID="5440" duration="0.20000000000000001">
      <Effects />
      <Transitions />
      <BoundProperties>
        <BoundPropertyInt Name="rotateStepNinety" Value="0" />
      </BoundProperties>
    </ImageClip>
    <ImageClip extentID="277" gapBefore="0" mediaItemID="273" duration="0.20000000000000001">
      <Effects />
      <Transitions />
      <BoundProperties>
        <BoundPropertyInt Name="rotateStepNinety" Value="0" />
      </BoundProperties>
    </ImageClip>
    <ImageClip extentID="5445" gapBefore="0" mediaItemID="5441" duration="0.20000000000000001">
      <Effects />
      <Transitions />
      <BoundProperties>
        <BoundPropertyInt Name="rotateStepNinety" Value="0" />
      </BoundProperties>
    </ImageClip>
    <ImageClip extentID="278" gapBefore="0" mediaItemID="274" duration="0.20000000000000001">
      <Effects />
      <Transitions />
      <BoundProperties>
        <BoundPropertyInt Name="rotateStepNinety" Value="0" />
      </BoundProperties>
    </ImageClip>
    <ImageClip extentID="5446" gapBefore="0" mediaItemID="5442" duration="0.20000000000000001">
      <Effects />
      <Transitions />
      <BoundProperties>
        <BoundPropertyInt Name="rotateStepNinety" Value="0" />
      </BoundProperties>
    </ImageClip>
    <ImageClip extentID="279" gapBefore="0" mediaItemID="275" duration="0.20000000000000001">
      <Effects />
      <Transitions />
      <BoundProperties>
        <BoundPropertyInt Name="rotateStepNinety" Value="0" />
      </BoundProperties>
    </ImageClip>
    <ImageClip extentID="5447" gapBefore="0" mediaItemID="5443" duration="0.20000000000000001">
      <Effects />
      <Transitions />
      <BoundProperties>
        <BoundPropertyInt Name="rotateStepNinety" Value="0" />
      </BoundProperties>
    </ImageClip>
    <ImageClip extentID="280" gapBefore="0" mediaItemID="276" duration="0.20000000000000001">
      <Effects />
      <Transitions />
      <BoundProperties>
        <BoundPropertyInt Name="rotateStepNinety" Value="0" />
      </BoundProperties>
    </ImageClip>
    <ImageClip extentID="5448" gapBefore="0" mediaItemID="5444" duration="0.20000000000000001">
      <Effects />
      <Transitions />
      <BoundProperties>
        <BoundPropertyInt Name="rotateStepNinety" Value="0" />
      </BoundProperties>
    </ImageClip>
    <ImageClip extentID="281" gapBefore="0" mediaItemID="277" duration="0.20000000000000001">
      <Effects />
      <Transitions />
      <BoundProperties>
        <BoundPropertyInt Name="rotateStepNinety" Value="0" />
      </BoundProperties>
    </ImageClip>
    <ImageClip extentID="5449" gapBefore="0" mediaItemID="5445" duration="0.20000000000000001">
      <Effects />
      <Transitions />
      <BoundProperties>
        <BoundPropertyInt Name="rotateStepNinety" Value="0" />
      </BoundProperties>
    </ImageClip>
    <ImageClip extentID="282" gapBefore="0" mediaItemID="278" duration="0.20000000000000001">
      <Effects />
      <Transitions />
      <BoundProperties>
        <BoundPropertyInt Name="rotateStepNinety" Value="0" />
      </BoundProperties>
    </ImageClip>
    <ImageClip extentID="5450" gapBefore="0" mediaItemID="5446" duration="0.20000000000000001">
      <Effects />
      <Transitions />
      <BoundProperties>
        <BoundPropertyInt Name="rotateStepNinety" Value="0" />
      </BoundProperties>
    </ImageClip>
    <ImageClip extentID="283" gapBefore="0" mediaItemID="279" duration="0.20000000000000001">
      <Effects />
      <Transitions />
      <BoundProperties>
        <BoundPropertyInt Name="rotateStepNinety" Value="0" />
      </BoundProperties>
    </ImageClip>
    <ImageClip extentID="5451" gapBefore="0" mediaItemID="5447" duration="0.20000000000000001">
      <Effects />
      <Transitions />
      <BoundProperties>
        <BoundPropertyInt Name="rotateStepNinety" Value="0" />
      </BoundProperties>
    </ImageClip>
    <ImageClip extentID="284" gapBefore="0" mediaItemID="280" duration="0.20000000000000001">
      <Effects />
      <Transitions />
      <BoundProperties>
        <BoundPropertyInt Name="rotateStepNinety" Value="0" />
      </BoundProperties>
    </ImageClip>
    <ImageClip extentID="5452" gapBefore="0" mediaItemID="5448" duration="0.20000000000000001">
      <Effects />
      <Transitions />
      <BoundProperties>
        <BoundPropertyInt Name="rotateStepNinety" Value="0" />
      </BoundProperties>
    </ImageClip>
    <ImageClip extentID="285" gapBefore="0" mediaItemID="281" duration="0.20000000000000001">
      <Effects />
      <Transitions />
      <BoundProperties>
        <BoundPropertyInt Name="rotateStepNinety" Value="0" />
      </BoundProperties>
    </ImageClip>
    <ImageClip extentID="5453" gapBefore="0" mediaItemID="5449" duration="0.20000000000000001">
      <Effects />
      <Transitions />
      <BoundProperties>
        <BoundPropertyInt Name="rotateStepNinety" Value="0" />
      </BoundProperties>
    </ImageClip>
    <ImageClip extentID="286" gapBefore="0" mediaItemID="282" duration="0.20000000000000001">
      <Effects />
      <Transitions />
      <BoundProperties>
        <BoundPropertyInt Name="rotateStepNinety" Value="0" />
      </BoundProperties>
    </ImageClip>
    <ImageClip extentID="5454" gapBefore="0" mediaItemID="5450" duration="0.20000000000000001">
      <Effects />
      <Transitions />
      <BoundProperties>
        <BoundPropertyInt Name="rotateStepNinety" Value="0" />
      </BoundProperties>
    </ImageClip>
    <ImageClip extentID="287" gapBefore="0" mediaItemID="283" duration="0.20000000000000001">
      <Effects />
      <Transitions />
      <BoundProperties>
        <BoundPropertyInt Name="rotateStepNinety" Value="0" />
      </BoundProperties>
    </ImageClip>
    <ImageClip extentID="5455" gapBefore="0" mediaItemID="5451" duration="0.20000000000000001">
      <Effects />
      <Transitions />
      <BoundProperties>
        <BoundPropertyInt Name="rotateStepNinety" Value="0" />
      </BoundProperties>
    </ImageClip>
    <ImageClip extentID="288" gapBefore="0" mediaItemID="284" duration="0.20000000000000001">
      <Effects />
      <Transitions />
      <BoundProperties>
        <BoundPropertyInt Name="rotateStepNinety" Value="0" />
      </BoundProperties>
    </ImageClip>
    <ImageClip extentID="5456" gapBefore="0" mediaItemID="5452" duration="0.20000000000000001">
      <Effects />
      <Transitions />
      <BoundProperties>
        <BoundPropertyInt Name="rotateStepNinety" Value="0" />
      </BoundProperties>
    </ImageClip>
    <ImageClip extentID="289" gapBefore="0" mediaItemID="285" duration="0.20000000000000001">
      <Effects />
      <Transitions />
      <BoundProperties>
        <BoundPropertyInt Name="rotateStepNinety" Value="0" />
      </BoundProperties>
    </ImageClip>
    <ImageClip extentID="5457" gapBefore="0" mediaItemID="5453" duration="0.20000000000000001">
      <Effects />
      <Transitions />
      <BoundProperties>
        <BoundPropertyInt Name="rotateStepNinety" Value="0" />
      </BoundProperties>
    </ImageClip>
    <ImageClip extentID="290" gapBefore="0" mediaItemID="286" duration="0.20000000000000001">
      <Effects />
      <Transitions />
      <BoundProperties>
        <BoundPropertyInt Name="rotateStepNinety" Value="0" />
      </BoundProperties>
    </ImageClip>
    <ImageClip extentID="5458" gapBefore="0" mediaItemID="5454" duration="0.20000000000000001">
      <Effects />
      <Transitions />
      <BoundProperties>
        <BoundPropertyInt Name="rotateStepNinety" Value="0" />
      </BoundProperties>
    </ImageClip>
    <ImageClip extentID="291" gapBefore="0" mediaItemID="287" duration="0.20000000000000001">
      <Effects />
      <Transitions />
      <BoundProperties>
        <BoundPropertyInt Name="rotateStepNinety" Value="0" />
      </BoundProperties>
    </ImageClip>
    <ImageClip extentID="5459" gapBefore="0" mediaItemID="5455" duration="0.20000000000000001">
      <Effects />
      <Transitions />
      <BoundProperties>
        <BoundPropertyInt Name="rotateStepNinety" Value="0" />
      </BoundProperties>
    </ImageClip>
    <ImageClip extentID="292" gapBefore="0" mediaItemID="288" duration="0.20000000000000001">
      <Effects />
      <Transitions />
      <BoundProperties>
        <BoundPropertyInt Name="rotateStepNinety" Value="0" />
      </BoundProperties>
    </ImageClip>
    <ImageClip extentID="5460" gapBefore="0" mediaItemID="5456" duration="0.20000000000000001">
      <Effects />
      <Transitions />
      <BoundProperties>
        <BoundPropertyInt Name="rotateStepNinety" Value="0" />
      </BoundProperties>
    </ImageClip>
    <ImageClip extentID="293" gapBefore="0" mediaItemID="289" duration="0.20000000000000001">
      <Effects />
      <Transitions />
      <BoundProperties>
        <BoundPropertyInt Name="rotateStepNinety" Value="0" />
      </BoundProperties>
    </ImageClip>
    <ImageClip extentID="5461" gapBefore="0" mediaItemID="5457" duration="0.20000000000000001">
      <Effects />
      <Transitions />
      <BoundProperties>
        <BoundPropertyInt Name="rotateStepNinety" Value="0" />
      </BoundProperties>
    </ImageClip>
    <ImageClip extentID="294" gapBefore="0" mediaItemID="290" duration="0.20000000000000001">
      <Effects />
      <Transitions />
      <BoundProperties>
        <BoundPropertyInt Name="rotateStepNinety" Value="0" />
      </BoundProperties>
    </ImageClip>
    <ImageClip extentID="5462" gapBefore="0" mediaItemID="5458" duration="0.20000000000000001">
      <Effects />
      <Transitions />
      <BoundProperties>
        <BoundPropertyInt Name="rotateStepNinety" Value="0" />
      </BoundProperties>
    </ImageClip>
    <ImageClip extentID="295" gapBefore="0" mediaItemID="291" duration="0.20000000000000001">
      <Effects />
      <Transitions />
      <BoundProperties>
        <BoundPropertyInt Name="rotateStepNinety" Value="0" />
      </BoundProperties>
    </ImageClip>
    <ImageClip extentID="5463" gapBefore="0" mediaItemID="5459" duration="0.20000000000000001">
      <Effects />
      <Transitions />
      <BoundProperties>
        <BoundPropertyInt Name="rotateStepNinety" Value="0" />
      </BoundProperties>
    </ImageClip>
    <ImageClip extentID="296" gapBefore="0" mediaItemID="292" duration="0.20000000000000001">
      <Effects />
      <Transitions />
      <BoundProperties>
        <BoundPropertyInt Name="rotateStepNinety" Value="0" />
      </BoundProperties>
    </ImageClip>
    <ImageClip extentID="5464" gapBefore="0" mediaItemID="5460" duration="0.20000000000000001">
      <Effects />
      <Transitions />
      <BoundProperties>
        <BoundPropertyInt Name="rotateStepNinety" Value="0" />
      </BoundProperties>
    </ImageClip>
    <ImageClip extentID="297" gapBefore="0" mediaItemID="293" duration="0.20000000000000001">
      <Effects />
      <Transitions />
      <BoundProperties>
        <BoundPropertyInt Name="rotateStepNinety" Value="0" />
      </BoundProperties>
    </ImageClip>
    <ImageClip extentID="5465" gapBefore="0" mediaItemID="5461" duration="0.20000000000000001">
      <Effects />
      <Transitions />
      <BoundProperties>
        <BoundPropertyInt Name="rotateStepNinety" Value="0" />
      </BoundProperties>
    </ImageClip>
    <ImageClip extentID="298" gapBefore="0" mediaItemID="294" duration="0.20000000000000001">
      <Effects />
      <Transitions />
      <BoundProperties>
        <BoundPropertyInt Name="rotateStepNinety" Value="0" />
      </BoundProperties>
    </ImageClip>
    <ImageClip extentID="5466" gapBefore="0" mediaItemID="5462" duration="0.20000000000000001">
      <Effects />
      <Transitions />
      <BoundProperties>
        <BoundPropertyInt Name="rotateStepNinety" Value="0" />
      </BoundProperties>
    </ImageClip>
    <ImageClip extentID="299" gapBefore="0" mediaItemID="295" duration="0.20000000000000001">
      <Effects />
      <Transitions />
      <BoundProperties>
        <BoundPropertyInt Name="rotateStepNinety" Value="0" />
      </BoundProperties>
    </ImageClip>
    <ImageClip extentID="5467" gapBefore="0" mediaItemID="5463" duration="0.20000000000000001">
      <Effects />
      <Transitions />
      <BoundProperties>
        <BoundPropertyInt Name="rotateStepNinety" Value="0" />
      </BoundProperties>
    </ImageClip>
    <ImageClip extentID="300" gapBefore="0" mediaItemID="296" duration="0.20000000000000001">
      <Effects />
      <Transitions />
      <BoundProperties>
        <BoundPropertyInt Name="rotateStepNinety" Value="0" />
      </BoundProperties>
    </ImageClip>
    <ImageClip extentID="5468" gapBefore="0" mediaItemID="5464" duration="0.20000000000000001">
      <Effects />
      <Transitions />
      <BoundProperties>
        <BoundPropertyInt Name="rotateStepNinety" Value="0" />
      </BoundProperties>
    </ImageClip>
    <ImageClip extentID="301" gapBefore="0" mediaItemID="297" duration="0.20000000000000001">
      <Effects />
      <Transitions />
      <BoundProperties>
        <BoundPropertyInt Name="rotateStepNinety" Value="0" />
      </BoundProperties>
    </ImageClip>
    <ImageClip extentID="5469" gapBefore="0" mediaItemID="5465" duration="0.20000000000000001">
      <Effects />
      <Transitions />
      <BoundProperties>
        <BoundPropertyInt Name="rotateStepNinety" Value="0" />
      </BoundProperties>
    </ImageClip>
    <ImageClip extentID="302" gapBefore="0" mediaItemID="298" duration="0.20000000000000001">
      <Effects />
      <Transitions />
      <BoundProperties>
        <BoundPropertyInt Name="rotateStepNinety" Value="0" />
      </BoundProperties>
    </ImageClip>
    <ImageClip extentID="5470" gapBefore="0" mediaItemID="5466" duration="0.20000000000000001">
      <Effects />
      <Transitions />
      <BoundProperties>
        <BoundPropertyInt Name="rotateStepNinety" Value="0" />
      </BoundProperties>
    </ImageClip>
    <ImageClip extentID="303" gapBefore="0" mediaItemID="299" duration="0.20000000000000001">
      <Effects />
      <Transitions />
      <BoundProperties>
        <BoundPropertyInt Name="rotateStepNinety" Value="0" />
      </BoundProperties>
    </ImageClip>
    <ImageClip extentID="5471" gapBefore="0" mediaItemID="5467" duration="0.20000000000000001">
      <Effects />
      <Transitions />
      <BoundProperties>
        <BoundPropertyInt Name="rotateStepNinety" Value="0" />
      </BoundProperties>
    </ImageClip>
    <ImageClip extentID="304" gapBefore="0" mediaItemID="300" duration="0.20000000000000001">
      <Effects />
      <Transitions />
      <BoundProperties>
        <BoundPropertyInt Name="rotateStepNinety" Value="0" />
      </BoundProperties>
    </ImageClip>
    <ImageClip extentID="5472" gapBefore="0" mediaItemID="5468" duration="0.20000000000000001">
      <Effects />
      <Transitions />
      <BoundProperties>
        <BoundPropertyInt Name="rotateStepNinety" Value="0" />
      </BoundProperties>
    </ImageClip>
    <ImageClip extentID="305" gapBefore="0" mediaItemID="301" duration="0.20000000000000001">
      <Effects />
      <Transitions />
      <BoundProperties>
        <BoundPropertyInt Name="rotateStepNinety" Value="0" />
      </BoundProperties>
    </ImageClip>
    <ImageClip extentID="5473" gapBefore="0" mediaItemID="5469" duration="0.20000000000000001">
      <Effects />
      <Transitions />
      <BoundProperties>
        <BoundPropertyInt Name="rotateStepNinety" Value="0" />
      </BoundProperties>
    </ImageClip>
    <ImageClip extentID="306" gapBefore="0" mediaItemID="302" duration="0.20000000000000001">
      <Effects />
      <Transitions />
      <BoundProperties>
        <BoundPropertyInt Name="rotateStepNinety" Value="0" />
      </BoundProperties>
    </ImageClip>
    <ImageClip extentID="5474" gapBefore="0" mediaItemID="5470" duration="0.20000000000000001">
      <Effects />
      <Transitions />
      <BoundProperties>
        <BoundPropertyInt Name="rotateStepNinety" Value="0" />
      </BoundProperties>
    </ImageClip>
    <ImageClip extentID="307" gapBefore="0" mediaItemID="303" duration="0.20000000000000001">
      <Effects />
      <Transitions />
      <BoundProperties>
        <BoundPropertyInt Name="rotateStepNinety" Value="0" />
      </BoundProperties>
    </ImageClip>
    <ImageClip extentID="5475" gapBefore="0" mediaItemID="5471" duration="0.20000000000000001">
      <Effects />
      <Transitions />
      <BoundProperties>
        <BoundPropertyInt Name="rotateStepNinety" Value="0" />
      </BoundProperties>
    </ImageClip>
    <ImageClip extentID="308" gapBefore="0" mediaItemID="304" duration="0.20000000000000001">
      <Effects />
      <Transitions />
      <BoundProperties>
        <BoundPropertyInt Name="rotateStepNinety" Value="0" />
      </BoundProperties>
    </ImageClip>
    <ImageClip extentID="5476" gapBefore="0" mediaItemID="5472" duration="0.20000000000000001">
      <Effects />
      <Transitions />
      <BoundProperties>
        <BoundPropertyInt Name="rotateStepNinety" Value="0" />
      </BoundProperties>
    </ImageClip>
    <ImageClip extentID="309" gapBefore="0" mediaItemID="305" duration="0.20000000000000001">
      <Effects />
      <Transitions />
      <BoundProperties>
        <BoundPropertyInt Name="rotateStepNinety" Value="0" />
      </BoundProperties>
    </ImageClip>
    <ImageClip extentID="5477" gapBefore="0" mediaItemID="5473" duration="0.20000000000000001">
      <Effects />
      <Transitions />
      <BoundProperties>
        <BoundPropertyInt Name="rotateStepNinety" Value="0" />
      </BoundProperties>
    </ImageClip>
    <ImageClip extentID="310" gapBefore="0" mediaItemID="306" duration="0.20000000000000001">
      <Effects />
      <Transitions />
      <BoundProperties>
        <BoundPropertyInt Name="rotateStepNinety" Value="0" />
      </BoundProperties>
    </ImageClip>
    <ImageClip extentID="5478" gapBefore="0" mediaItemID="5474" duration="0.20000000000000001">
      <Effects />
      <Transitions />
      <BoundProperties>
        <BoundPropertyInt Name="rotateStepNinety" Value="0" />
      </BoundProperties>
    </ImageClip>
    <ImageClip extentID="311" gapBefore="0" mediaItemID="307" duration="0.20000000000000001">
      <Effects />
      <Transitions />
      <BoundProperties>
        <BoundPropertyInt Name="rotateStepNinety" Value="0" />
      </BoundProperties>
    </ImageClip>
    <ImageClip extentID="5479" gapBefore="0" mediaItemID="5475" duration="0.20000000000000001">
      <Effects />
      <Transitions />
      <BoundProperties>
        <BoundPropertyInt Name="rotateStepNinety" Value="0" />
      </BoundProperties>
    </ImageClip>
    <ImageClip extentID="312" gapBefore="0" mediaItemID="308" duration="0.20000000000000001">
      <Effects />
      <Transitions />
      <BoundProperties>
        <BoundPropertyInt Name="rotateStepNinety" Value="0" />
      </BoundProperties>
    </ImageClip>
    <ImageClip extentID="5480" gapBefore="0" mediaItemID="5476" duration="0.20000000000000001">
      <Effects />
      <Transitions />
      <BoundProperties>
        <BoundPropertyInt Name="rotateStepNinety" Value="0" />
      </BoundProperties>
    </ImageClip>
    <ImageClip extentID="313" gapBefore="0" mediaItemID="309" duration="0.20000000000000001">
      <Effects />
      <Transitions />
      <BoundProperties>
        <BoundPropertyInt Name="rotateStepNinety" Value="0" />
      </BoundProperties>
    </ImageClip>
    <ImageClip extentID="5481" gapBefore="0" mediaItemID="5477" duration="0.20000000000000001">
      <Effects />
      <Transitions />
      <BoundProperties>
        <BoundPropertyInt Name="rotateStepNinety" Value="0" />
      </BoundProperties>
    </ImageClip>
    <ImageClip extentID="314" gapBefore="0" mediaItemID="310" duration="0.20000000000000001">
      <Effects />
      <Transitions />
      <BoundProperties>
        <BoundPropertyInt Name="rotateStepNinety" Value="0" />
      </BoundProperties>
    </ImageClip>
    <ImageClip extentID="5482" gapBefore="0" mediaItemID="5478" duration="0.20000000000000001">
      <Effects />
      <Transitions />
      <BoundProperties>
        <BoundPropertyInt Name="rotateStepNinety" Value="0" />
      </BoundProperties>
    </ImageClip>
    <ImageClip extentID="315" gapBefore="0" mediaItemID="311" duration="0.20000000000000001">
      <Effects />
      <Transitions />
      <BoundProperties>
        <BoundPropertyInt Name="rotateStepNinety" Value="0" />
      </BoundProperties>
    </ImageClip>
    <ImageClip extentID="5483" gapBefore="0" mediaItemID="5479" duration="0.20000000000000001">
      <Effects />
      <Transitions />
      <BoundProperties>
        <BoundPropertyInt Name="rotateStepNinety" Value="0" />
      </BoundProperties>
    </ImageClip>
    <ImageClip extentID="316" gapBefore="0" mediaItemID="312" duration="0.20000000000000001">
      <Effects />
      <Transitions />
      <BoundProperties>
        <BoundPropertyInt Name="rotateStepNinety" Value="0" />
      </BoundProperties>
    </ImageClip>
    <ImageClip extentID="5484" gapBefore="0" mediaItemID="5480" duration="0.20000000000000001">
      <Effects />
      <Transitions />
      <BoundProperties>
        <BoundPropertyInt Name="rotateStepNinety" Value="0" />
      </BoundProperties>
    </ImageClip>
    <ImageClip extentID="317" gapBefore="0" mediaItemID="313" duration="0.20000000000000001">
      <Effects />
      <Transitions />
      <BoundProperties>
        <BoundPropertyInt Name="rotateStepNinety" Value="0" />
      </BoundProperties>
    </ImageClip>
    <ImageClip extentID="5485" gapBefore="0" mediaItemID="5481" duration="0.20000000000000001">
      <Effects />
      <Transitions />
      <BoundProperties>
        <BoundPropertyInt Name="rotateStepNinety" Value="0" />
      </BoundProperties>
    </ImageClip>
    <ImageClip extentID="318" gapBefore="0" mediaItemID="314" duration="0.20000000000000001">
      <Effects />
      <Transitions />
      <BoundProperties>
        <BoundPropertyInt Name="rotateStepNinety" Value="0" />
      </BoundProperties>
    </ImageClip>
    <ImageClip extentID="5486" gapBefore="0" mediaItemID="5482" duration="0.20000000000000001">
      <Effects />
      <Transitions />
      <BoundProperties>
        <BoundPropertyInt Name="rotateStepNinety" Value="0" />
      </BoundProperties>
    </ImageClip>
    <ImageClip extentID="319" gapBefore="0" mediaItemID="315" duration="0.20000000000000001">
      <Effects />
      <Transitions />
      <BoundProperties>
        <BoundPropertyInt Name="rotateStepNinety" Value="0" />
      </BoundProperties>
    </ImageClip>
    <ImageClip extentID="5487" gapBefore="0" mediaItemID="5483" duration="0.20000000000000001">
      <Effects />
      <Transitions />
      <BoundProperties>
        <BoundPropertyInt Name="rotateStepNinety" Value="0" />
      </BoundProperties>
    </ImageClip>
    <ImageClip extentID="320" gapBefore="0" mediaItemID="316" duration="0.20000000000000001">
      <Effects />
      <Transitions />
      <BoundProperties>
        <BoundPropertyInt Name="rotateStepNinety" Value="0" />
      </BoundProperties>
    </ImageClip>
    <ImageClip extentID="5488" gapBefore="0" mediaItemID="5484" duration="0.20000000000000001">
      <Effects />
      <Transitions />
      <BoundProperties>
        <BoundPropertyInt Name="rotateStepNinety" Value="0" />
      </BoundProperties>
    </ImageClip>
    <ImageClip extentID="321" gapBefore="0" mediaItemID="317" duration="0.20000000000000001">
      <Effects />
      <Transitions />
      <BoundProperties>
        <BoundPropertyInt Name="rotateStepNinety" Value="0" />
      </BoundProperties>
    </ImageClip>
    <ImageClip extentID="5489" gapBefore="0" mediaItemID="5485" duration="0.20000000000000001">
      <Effects />
      <Transitions />
      <BoundProperties>
        <BoundPropertyInt Name="rotateStepNinety" Value="0" />
      </BoundProperties>
    </ImageClip>
    <ImageClip extentID="322" gapBefore="0" mediaItemID="318" duration="0.20000000000000001">
      <Effects />
      <Transitions />
      <BoundProperties>
        <BoundPropertyInt Name="rotateStepNinety" Value="0" />
      </BoundProperties>
    </ImageClip>
    <ImageClip extentID="5490" gapBefore="0" mediaItemID="5486" duration="0.20000000000000001">
      <Effects />
      <Transitions />
      <BoundProperties>
        <BoundPropertyInt Name="rotateStepNinety" Value="0" />
      </BoundProperties>
    </ImageClip>
    <ImageClip extentID="323" gapBefore="0" mediaItemID="319" duration="0.20000000000000001">
      <Effects />
      <Transitions />
      <BoundProperties>
        <BoundPropertyInt Name="rotateStepNinety" Value="0" />
      </BoundProperties>
    </ImageClip>
    <ImageClip extentID="5491" gapBefore="0" mediaItemID="5487" duration="0.20000000000000001">
      <Effects />
      <Transitions />
      <BoundProperties>
        <BoundPropertyInt Name="rotateStepNinety" Value="0" />
      </BoundProperties>
    </ImageClip>
    <ImageClip extentID="324" gapBefore="0" mediaItemID="320" duration="0.20000000000000001">
      <Effects />
      <Transitions />
      <BoundProperties>
        <BoundPropertyInt Name="rotateStepNinety" Value="0" />
      </BoundProperties>
    </ImageClip>
    <ImageClip extentID="5492" gapBefore="0" mediaItemID="5488" duration="0.20000000000000001">
      <Effects />
      <Transitions />
      <BoundProperties>
        <BoundPropertyInt Name="rotateStepNinety" Value="0" />
      </BoundProperties>
    </ImageClip>
    <ImageClip extentID="325" gapBefore="0" mediaItemID="321" duration="0.20000000000000001">
      <Effects />
      <Transitions />
      <BoundProperties>
        <BoundPropertyInt Name="rotateStepNinety" Value="0" />
      </BoundProperties>
    </ImageClip>
    <ImageClip extentID="5493" gapBefore="0" mediaItemID="5489" duration="0.20000000000000001">
      <Effects />
      <Transitions />
      <BoundProperties>
        <BoundPropertyInt Name="rotateStepNinety" Value="0" />
      </BoundProperties>
    </ImageClip>
    <ImageClip extentID="326" gapBefore="0" mediaItemID="322" duration="0.20000000000000001">
      <Effects />
      <Transitions />
      <BoundProperties>
        <BoundPropertyInt Name="rotateStepNinety" Value="0" />
      </BoundProperties>
    </ImageClip>
    <ImageClip extentID="5494" gapBefore="0" mediaItemID="5490" duration="0.20000000000000001">
      <Effects />
      <Transitions />
      <BoundProperties>
        <BoundPropertyInt Name="rotateStepNinety" Value="0" />
      </BoundProperties>
    </ImageClip>
    <ImageClip extentID="327" gapBefore="0" mediaItemID="323" duration="0.20000000000000001">
      <Effects />
      <Transitions />
      <BoundProperties>
        <BoundPropertyInt Name="rotateStepNinety" Value="0" />
      </BoundProperties>
    </ImageClip>
    <ImageClip extentID="5495" gapBefore="0" mediaItemID="5491" duration="0.20000000000000001">
      <Effects />
      <Transitions />
      <BoundProperties>
        <BoundPropertyInt Name="rotateStepNinety" Value="0" />
      </BoundProperties>
    </ImageClip>
    <ImageClip extentID="328" gapBefore="0" mediaItemID="324" duration="0.20000000000000001">
      <Effects />
      <Transitions />
      <BoundProperties>
        <BoundPropertyInt Name="rotateStepNinety" Value="0" />
      </BoundProperties>
    </ImageClip>
    <ImageClip extentID="5496" gapBefore="0" mediaItemID="5492" duration="0.20000000000000001">
      <Effects />
      <Transitions />
      <BoundProperties>
        <BoundPropertyInt Name="rotateStepNinety" Value="0" />
      </BoundProperties>
    </ImageClip>
    <ImageClip extentID="329" gapBefore="0" mediaItemID="325" duration="0.20000000000000001">
      <Effects />
      <Transitions />
      <BoundProperties>
        <BoundPropertyInt Name="rotateStepNinety" Value="0" />
      </BoundProperties>
    </ImageClip>
    <ImageClip extentID="5497" gapBefore="0" mediaItemID="5493" duration="0.20000000000000001">
      <Effects />
      <Transitions />
      <BoundProperties>
        <BoundPropertyInt Name="rotateStepNinety" Value="0" />
      </BoundProperties>
    </ImageClip>
    <ImageClip extentID="330" gapBefore="0" mediaItemID="326" duration="0.20000000000000001">
      <Effects />
      <Transitions />
      <BoundProperties>
        <BoundPropertyInt Name="rotateStepNinety" Value="0" />
      </BoundProperties>
    </ImageClip>
    <ImageClip extentID="5498" gapBefore="0" mediaItemID="5494" duration="0.20000000000000001">
      <Effects />
      <Transitions />
      <BoundProperties>
        <BoundPropertyInt Name="rotateStepNinety" Value="0" />
      </BoundProperties>
    </ImageClip>
    <ImageClip extentID="331" gapBefore="0" mediaItemID="327" duration="0.20000000000000001">
      <Effects />
      <Transitions />
      <BoundProperties>
        <BoundPropertyInt Name="rotateStepNinety" Value="0" />
      </BoundProperties>
    </ImageClip>
    <ImageClip extentID="5499" gapBefore="0" mediaItemID="5495" duration="0.20000000000000001">
      <Effects />
      <Transitions />
      <BoundProperties>
        <BoundPropertyInt Name="rotateStepNinety" Value="0" />
      </BoundProperties>
    </ImageClip>
    <ImageClip extentID="332" gapBefore="0" mediaItemID="328" duration="0.20000000000000001">
      <Effects />
      <Transitions />
      <BoundProperties>
        <BoundPropertyInt Name="rotateStepNinety" Value="0" />
      </BoundProperties>
    </ImageClip>
    <ImageClip extentID="5500" gapBefore="0" mediaItemID="5496" duration="0.20000000000000001">
      <Effects />
      <Transitions />
      <BoundProperties>
        <BoundPropertyInt Name="rotateStepNinety" Value="0" />
      </BoundProperties>
    </ImageClip>
    <ImageClip extentID="333" gapBefore="0" mediaItemID="329" duration="0.20000000000000001">
      <Effects />
      <Transitions />
      <BoundProperties>
        <BoundPropertyInt Name="rotateStepNinety" Value="0" />
      </BoundProperties>
    </ImageClip>
    <ImageClip extentID="5501" gapBefore="0" mediaItemID="5497" duration="0.20000000000000001">
      <Effects />
      <Transitions />
      <BoundProperties>
        <BoundPropertyInt Name="rotateStepNinety" Value="0" />
      </BoundProperties>
    </ImageClip>
    <ImageClip extentID="334" gapBefore="0" mediaItemID="330" duration="0.20000000000000001">
      <Effects />
      <Transitions />
      <BoundProperties>
        <BoundPropertyInt Name="rotateStepNinety" Value="0" />
      </BoundProperties>
    </ImageClip>
    <ImageClip extentID="5502" gapBefore="0" mediaItemID="5498" duration="0.20000000000000001">
      <Effects />
      <Transitions />
      <BoundProperties>
        <BoundPropertyInt Name="rotateStepNinety" Value="0" />
      </BoundProperties>
    </ImageClip>
    <ImageClip extentID="335" gapBefore="0" mediaItemID="331" duration="0.20000000000000001">
      <Effects />
      <Transitions />
      <BoundProperties>
        <BoundPropertyInt Name="rotateStepNinety" Value="0" />
      </BoundProperties>
    </ImageClip>
    <ImageClip extentID="5503" gapBefore="0" mediaItemID="5499" duration="0.20000000000000001">
      <Effects />
      <Transitions />
      <BoundProperties>
        <BoundPropertyInt Name="rotateStepNinety" Value="0" />
      </BoundProperties>
    </ImageClip>
    <ImageClip extentID="336" gapBefore="0" mediaItemID="332" duration="0.20000000000000001">
      <Effects />
      <Transitions />
      <BoundProperties>
        <BoundPropertyInt Name="rotateStepNinety" Value="0" />
      </BoundProperties>
    </ImageClip>
    <ImageClip extentID="5504" gapBefore="0" mediaItemID="5500" duration="0.20000000000000001">
      <Effects />
      <Transitions />
      <BoundProperties>
        <BoundPropertyInt Name="rotateStepNinety" Value="0" />
      </BoundProperties>
    </ImageClip>
    <ImageClip extentID="337" gapBefore="0" mediaItemID="333" duration="0.20000000000000001">
      <Effects />
      <Transitions />
      <BoundProperties>
        <BoundPropertyInt Name="rotateStepNinety" Value="0" />
      </BoundProperties>
    </ImageClip>
    <ImageClip extentID="5505" gapBefore="0" mediaItemID="5501" duration="0.20000000000000001">
      <Effects />
      <Transitions />
      <BoundProperties>
        <BoundPropertyInt Name="rotateStepNinety" Value="0" />
      </BoundProperties>
    </ImageClip>
    <ImageClip extentID="338" gapBefore="0" mediaItemID="334" duration="0.20000000000000001">
      <Effects />
      <Transitions />
      <BoundProperties>
        <BoundPropertyInt Name="rotateStepNinety" Value="0" />
      </BoundProperties>
    </ImageClip>
    <ImageClip extentID="5506" gapBefore="0" mediaItemID="5502" duration="0.20000000000000001">
      <Effects />
      <Transitions />
      <BoundProperties>
        <BoundPropertyInt Name="rotateStepNinety" Value="0" />
      </BoundProperties>
    </ImageClip>
    <ImageClip extentID="339" gapBefore="0" mediaItemID="335" duration="0.20000000000000001">
      <Effects />
      <Transitions />
      <BoundProperties>
        <BoundPropertyInt Name="rotateStepNinety" Value="0" />
      </BoundProperties>
    </ImageClip>
    <ImageClip extentID="5507" gapBefore="0" mediaItemID="5503" duration="0.20000000000000001">
      <Effects />
      <Transitions />
      <BoundProperties>
        <BoundPropertyInt Name="rotateStepNinety" Value="0" />
      </BoundProperties>
    </ImageClip>
    <ImageClip extentID="340" gapBefore="0" mediaItemID="336" duration="0.20000000000000001">
      <Effects />
      <Transitions />
      <BoundProperties>
        <BoundPropertyInt Name="rotateStepNinety" Value="0" />
      </BoundProperties>
    </ImageClip>
    <ImageClip extentID="5508" gapBefore="0" mediaItemID="5504" duration="0.20000000000000001">
      <Effects />
      <Transitions />
      <BoundProperties>
        <BoundPropertyInt Name="rotateStepNinety" Value="0" />
      </BoundProperties>
    </ImageClip>
    <ImageClip extentID="341" gapBefore="0" mediaItemID="337" duration="0.20000000000000001">
      <Effects />
      <Transitions />
      <BoundProperties>
        <BoundPropertyInt Name="rotateStepNinety" Value="0" />
      </BoundProperties>
    </ImageClip>
    <ImageClip extentID="5509" gapBefore="0" mediaItemID="5505" duration="0.20000000000000001">
      <Effects />
      <Transitions />
      <BoundProperties>
        <BoundPropertyInt Name="rotateStepNinety" Value="0" />
      </BoundProperties>
    </ImageClip>
    <ImageClip extentID="342" gapBefore="0" mediaItemID="338" duration="0.20000000000000001">
      <Effects />
      <Transitions />
      <BoundProperties>
        <BoundPropertyInt Name="rotateStepNinety" Value="0" />
      </BoundProperties>
    </ImageClip>
    <ImageClip extentID="5510" gapBefore="0" mediaItemID="5506" duration="0.20000000000000001">
      <Effects />
      <Transitions />
      <BoundProperties>
        <BoundPropertyInt Name="rotateStepNinety" Value="0" />
      </BoundProperties>
    </ImageClip>
    <ImageClip extentID="343" gapBefore="0" mediaItemID="339" duration="0.20000000000000001">
      <Effects />
      <Transitions />
      <BoundProperties>
        <BoundPropertyInt Name="rotateStepNinety" Value="0" />
      </BoundProperties>
    </ImageClip>
    <ImageClip extentID="5511" gapBefore="0" mediaItemID="5507" duration="0.20000000000000001">
      <Effects />
      <Transitions />
      <BoundProperties>
        <BoundPropertyInt Name="rotateStepNinety" Value="0" />
      </BoundProperties>
    </ImageClip>
    <ImageClip extentID="344" gapBefore="0" mediaItemID="340" duration="0.20000000000000001">
      <Effects />
      <Transitions />
      <BoundProperties>
        <BoundPropertyInt Name="rotateStepNinety" Value="0" />
      </BoundProperties>
    </ImageClip>
    <ImageClip extentID="5512" gapBefore="0" mediaItemID="5508" duration="0.20000000000000001">
      <Effects />
      <Transitions />
      <BoundProperties>
        <BoundPropertyInt Name="rotateStepNinety" Value="0" />
      </BoundProperties>
    </ImageClip>
    <ImageClip extentID="345" gapBefore="0" mediaItemID="341" duration="0.20000000000000001">
      <Effects />
      <Transitions />
      <BoundProperties>
        <BoundPropertyInt Name="rotateStepNinety" Value="0" />
      </BoundProperties>
    </ImageClip>
    <ImageClip extentID="5513" gapBefore="0" mediaItemID="5509" duration="0.20000000000000001">
      <Effects />
      <Transitions />
      <BoundProperties>
        <BoundPropertyInt Name="rotateStepNinety" Value="0" />
      </BoundProperties>
    </ImageClip>
    <ImageClip extentID="346" gapBefore="0" mediaItemID="342" duration="0.20000000000000001">
      <Effects />
      <Transitions />
      <BoundProperties>
        <BoundPropertyInt Name="rotateStepNinety" Value="0" />
      </BoundProperties>
    </ImageClip>
    <ImageClip extentID="5514" gapBefore="0" mediaItemID="5510" duration="0.20000000000000001">
      <Effects />
      <Transitions />
      <BoundProperties>
        <BoundPropertyInt Name="rotateStepNinety" Value="0" />
      </BoundProperties>
    </ImageClip>
    <ImageClip extentID="347" gapBefore="0" mediaItemID="343" duration="0.20000000000000001">
      <Effects />
      <Transitions />
      <BoundProperties>
        <BoundPropertyInt Name="rotateStepNinety" Value="0" />
      </BoundProperties>
    </ImageClip>
    <ImageClip extentID="5515" gapBefore="0" mediaItemID="5511" duration="0.20000000000000001">
      <Effects />
      <Transitions />
      <BoundProperties>
        <BoundPropertyInt Name="rotateStepNinety" Value="0" />
      </BoundProperties>
    </ImageClip>
    <ImageClip extentID="348" gapBefore="0" mediaItemID="344" duration="0.20000000000000001">
      <Effects />
      <Transitions />
      <BoundProperties>
        <BoundPropertyInt Name="rotateStepNinety" Value="0" />
      </BoundProperties>
    </ImageClip>
    <ImageClip extentID="5516" gapBefore="0" mediaItemID="5512" duration="0.20000000000000001">
      <Effects />
      <Transitions />
      <BoundProperties>
        <BoundPropertyInt Name="rotateStepNinety" Value="0" />
      </BoundProperties>
    </ImageClip>
    <ImageClip extentID="349" gapBefore="0" mediaItemID="345" duration="0.20000000000000001">
      <Effects />
      <Transitions />
      <BoundProperties>
        <BoundPropertyInt Name="rotateStepNinety" Value="0" />
      </BoundProperties>
    </ImageClip>
    <ImageClip extentID="5517" gapBefore="0" mediaItemID="5513" duration="0.20000000000000001">
      <Effects />
      <Transitions />
      <BoundProperties>
        <BoundPropertyInt Name="rotateStepNinety" Value="0" />
      </BoundProperties>
    </ImageClip>
    <ImageClip extentID="350" gapBefore="0" mediaItemID="346" duration="0.20000000000000001">
      <Effects />
      <Transitions />
      <BoundProperties>
        <BoundPropertyInt Name="rotateStepNinety" Value="0" />
      </BoundProperties>
    </ImageClip>
    <ImageClip extentID="5518" gapBefore="0" mediaItemID="5514" duration="0.20000000000000001">
      <Effects />
      <Transitions />
      <BoundProperties>
        <BoundPropertyInt Name="rotateStepNinety" Value="0" />
      </BoundProperties>
    </ImageClip>
    <ImageClip extentID="351" gapBefore="0" mediaItemID="347" duration="0.20000000000000001">
      <Effects />
      <Transitions />
      <BoundProperties>
        <BoundPropertyInt Name="rotateStepNinety" Value="0" />
      </BoundProperties>
    </ImageClip>
    <ImageClip extentID="5519" gapBefore="0" mediaItemID="5515" duration="0.20000000000000001">
      <Effects />
      <Transitions />
      <BoundProperties>
        <BoundPropertyInt Name="rotateStepNinety" Value="0" />
      </BoundProperties>
    </ImageClip>
    <ImageClip extentID="352" gapBefore="0" mediaItemID="348" duration="0.20000000000000001">
      <Effects />
      <Transitions />
      <BoundProperties>
        <BoundPropertyInt Name="rotateStepNinety" Value="0" />
      </BoundProperties>
    </ImageClip>
    <ImageClip extentID="5520" gapBefore="0" mediaItemID="5516" duration="0.20000000000000001">
      <Effects />
      <Transitions />
      <BoundProperties>
        <BoundPropertyInt Name="rotateStepNinety" Value="0" />
      </BoundProperties>
    </ImageClip>
    <ImageClip extentID="353" gapBefore="0" mediaItemID="349" duration="0.20000000000000001">
      <Effects />
      <Transitions />
      <BoundProperties>
        <BoundPropertyInt Name="rotateStepNinety" Value="0" />
      </BoundProperties>
    </ImageClip>
    <ImageClip extentID="5521" gapBefore="0" mediaItemID="5517" duration="0.20000000000000001">
      <Effects />
      <Transitions />
      <BoundProperties>
        <BoundPropertyInt Name="rotateStepNinety" Value="0" />
      </BoundProperties>
    </ImageClip>
    <ImageClip extentID="354" gapBefore="0" mediaItemID="350" duration="0.20000000000000001">
      <Effects />
      <Transitions />
      <BoundProperties>
        <BoundPropertyInt Name="rotateStepNinety" Value="0" />
      </BoundProperties>
    </ImageClip>
    <ImageClip extentID="5522" gapBefore="0" mediaItemID="5518" duration="0.20000000000000001">
      <Effects />
      <Transitions />
      <BoundProperties>
        <BoundPropertyInt Name="rotateStepNinety" Value="0" />
      </BoundProperties>
    </ImageClip>
    <ImageClip extentID="355" gapBefore="0" mediaItemID="351" duration="0.20000000000000001">
      <Effects />
      <Transitions />
      <BoundProperties>
        <BoundPropertyInt Name="rotateStepNinety" Value="0" />
      </BoundProperties>
    </ImageClip>
    <ImageClip extentID="5523" gapBefore="0" mediaItemID="5519" duration="0.20000000000000001">
      <Effects />
      <Transitions />
      <BoundProperties>
        <BoundPropertyInt Name="rotateStepNinety" Value="0" />
      </BoundProperties>
    </ImageClip>
    <ImageClip extentID="356" gapBefore="0" mediaItemID="352" duration="0.20000000000000001">
      <Effects />
      <Transitions />
      <BoundProperties>
        <BoundPropertyInt Name="rotateStepNinety" Value="0" />
      </BoundProperties>
    </ImageClip>
    <ImageClip extentID="5524" gapBefore="0" mediaItemID="5520" duration="0.20000000000000001">
      <Effects />
      <Transitions />
      <BoundProperties>
        <BoundPropertyInt Name="rotateStepNinety" Value="0" />
      </BoundProperties>
    </ImageClip>
    <ImageClip extentID="357" gapBefore="0" mediaItemID="353" duration="0.20000000000000001">
      <Effects />
      <Transitions />
      <BoundProperties>
        <BoundPropertyInt Name="rotateStepNinety" Value="0" />
      </BoundProperties>
    </ImageClip>
    <ImageClip extentID="5525" gapBefore="0" mediaItemID="5521" duration="0.20000000000000001">
      <Effects />
      <Transitions />
      <BoundProperties>
        <BoundPropertyInt Name="rotateStepNinety" Value="0" />
      </BoundProperties>
    </ImageClip>
    <ImageClip extentID="358" gapBefore="0" mediaItemID="354" duration="0.20000000000000001">
      <Effects />
      <Transitions />
      <BoundProperties>
        <BoundPropertyInt Name="rotateStepNinety" Value="0" />
      </BoundProperties>
    </ImageClip>
    <ImageClip extentID="5526" gapBefore="0" mediaItemID="5522" duration="0.20000000000000001">
      <Effects />
      <Transitions />
      <BoundProperties>
        <BoundPropertyInt Name="rotateStepNinety" Value="0" />
      </BoundProperties>
    </ImageClip>
    <ImageClip extentID="359" gapBefore="0" mediaItemID="355" duration="0.20000000000000001">
      <Effects />
      <Transitions />
      <BoundProperties>
        <BoundPropertyInt Name="rotateStepNinety" Value="0" />
      </BoundProperties>
    </ImageClip>
    <ImageClip extentID="5527" gapBefore="0" mediaItemID="5523" duration="0.20000000000000001">
      <Effects />
      <Transitions />
      <BoundProperties>
        <BoundPropertyInt Name="rotateStepNinety" Value="0" />
      </BoundProperties>
    </ImageClip>
    <ImageClip extentID="360" gapBefore="0" mediaItemID="356" duration="0.20000000000000001">
      <Effects />
      <Transitions />
      <BoundProperties>
        <BoundPropertyInt Name="rotateStepNinety" Value="0" />
      </BoundProperties>
    </ImageClip>
    <ImageClip extentID="5528" gapBefore="0" mediaItemID="5524" duration="0.20000000000000001">
      <Effects />
      <Transitions />
      <BoundProperties>
        <BoundPropertyInt Name="rotateStepNinety" Value="0" />
      </BoundProperties>
    </ImageClip>
    <ImageClip extentID="361" gapBefore="0" mediaItemID="357" duration="0.20000000000000001">
      <Effects />
      <Transitions />
      <BoundProperties>
        <BoundPropertyInt Name="rotateStepNinety" Value="0" />
      </BoundProperties>
    </ImageClip>
    <ImageClip extentID="5529" gapBefore="0" mediaItemID="5525" duration="0.20000000000000001">
      <Effects />
      <Transitions />
      <BoundProperties>
        <BoundPropertyInt Name="rotateStepNinety" Value="0" />
      </BoundProperties>
    </ImageClip>
    <ImageClip extentID="362" gapBefore="0" mediaItemID="358" duration="0.20000000000000001">
      <Effects />
      <Transitions />
      <BoundProperties>
        <BoundPropertyInt Name="rotateStepNinety" Value="0" />
      </BoundProperties>
    </ImageClip>
    <ImageClip extentID="5530" gapBefore="0" mediaItemID="5526" duration="0.20000000000000001">
      <Effects />
      <Transitions />
      <BoundProperties>
        <BoundPropertyInt Name="rotateStepNinety" Value="0" />
      </BoundProperties>
    </ImageClip>
    <ImageClip extentID="363" gapBefore="0" mediaItemID="359" duration="0.20000000000000001">
      <Effects />
      <Transitions />
      <BoundProperties>
        <BoundPropertyInt Name="rotateStepNinety" Value="0" />
      </BoundProperties>
    </ImageClip>
    <ImageClip extentID="5531" gapBefore="0" mediaItemID="5527" duration="0.20000000000000001">
      <Effects />
      <Transitions />
      <BoundProperties>
        <BoundPropertyInt Name="rotateStepNinety" Value="0" />
      </BoundProperties>
    </ImageClip>
    <ImageClip extentID="364" gapBefore="0" mediaItemID="360" duration="0.20000000000000001">
      <Effects />
      <Transitions />
      <BoundProperties>
        <BoundPropertyInt Name="rotateStepNinety" Value="0" />
      </BoundProperties>
    </ImageClip>
    <ImageClip extentID="5532" gapBefore="0" mediaItemID="5528" duration="0.20000000000000001">
      <Effects />
      <Transitions />
      <BoundProperties>
        <BoundPropertyInt Name="rotateStepNinety" Value="0" />
      </BoundProperties>
    </ImageClip>
    <ImageClip extentID="365" gapBefore="0" mediaItemID="361" duration="0.20000000000000001">
      <Effects />
      <Transitions />
      <BoundProperties>
        <BoundPropertyInt Name="rotateStepNinety" Value="0" />
      </BoundProperties>
    </ImageClip>
    <ImageClip extentID="5533" gapBefore="0" mediaItemID="5529" duration="0.20000000000000001">
      <Effects />
      <Transitions />
      <BoundProperties>
        <BoundPropertyInt Name="rotateStepNinety" Value="0" />
      </BoundProperties>
    </ImageClip>
    <ImageClip extentID="366" gapBefore="0" mediaItemID="362" duration="0.20000000000000001">
      <Effects />
      <Transitions />
      <BoundProperties>
        <BoundPropertyInt Name="rotateStepNinety" Value="0" />
      </BoundProperties>
    </ImageClip>
    <ImageClip extentID="5534" gapBefore="0" mediaItemID="5530" duration="0.20000000000000001">
      <Effects />
      <Transitions />
      <BoundProperties>
        <BoundPropertyInt Name="rotateStepNinety" Value="0" />
      </BoundProperties>
    </ImageClip>
    <ImageClip extentID="367" gapBefore="0" mediaItemID="363" duration="0.20000000000000001">
      <Effects />
      <Transitions />
      <BoundProperties>
        <BoundPropertyInt Name="rotateStepNinety" Value="0" />
      </BoundProperties>
    </ImageClip>
    <ImageClip extentID="5535" gapBefore="0" mediaItemID="5531" duration="0.20000000000000001">
      <Effects />
      <Transitions />
      <BoundProperties>
        <BoundPropertyInt Name="rotateStepNinety" Value="0" />
      </BoundProperties>
    </ImageClip>
    <ImageClip extentID="368" gapBefore="0" mediaItemID="364" duration="0.20000000000000001">
      <Effects />
      <Transitions />
      <BoundProperties>
        <BoundPropertyInt Name="rotateStepNinety" Value="0" />
      </BoundProperties>
    </ImageClip>
    <ImageClip extentID="5536" gapBefore="0" mediaItemID="5532" duration="0.20000000000000001">
      <Effects />
      <Transitions />
      <BoundProperties>
        <BoundPropertyInt Name="rotateStepNinety" Value="0" />
      </BoundProperties>
    </ImageClip>
    <ImageClip extentID="369" gapBefore="0" mediaItemID="365" duration="0.20000000000000001">
      <Effects />
      <Transitions />
      <BoundProperties>
        <BoundPropertyInt Name="rotateStepNinety" Value="0" />
      </BoundProperties>
    </ImageClip>
    <ImageClip extentID="5537" gapBefore="0" mediaItemID="5533" duration="0.20000000000000001">
      <Effects />
      <Transitions />
      <BoundProperties>
        <BoundPropertyInt Name="rotateStepNinety" Value="0" />
      </BoundProperties>
    </ImageClip>
    <ImageClip extentID="370" gapBefore="0" mediaItemID="366" duration="0.20000000000000001">
      <Effects />
      <Transitions />
      <BoundProperties>
        <BoundPropertyInt Name="rotateStepNinety" Value="0" />
      </BoundProperties>
    </ImageClip>
    <ImageClip extentID="5538" gapBefore="0" mediaItemID="5534" duration="0.20000000000000001">
      <Effects />
      <Transitions />
      <BoundProperties>
        <BoundPropertyInt Name="rotateStepNinety" Value="0" />
      </BoundProperties>
    </ImageClip>
    <ImageClip extentID="371" gapBefore="0" mediaItemID="367" duration="0.20000000000000001">
      <Effects />
      <Transitions />
      <BoundProperties>
        <BoundPropertyInt Name="rotateStepNinety" Value="0" />
      </BoundProperties>
    </ImageClip>
    <ImageClip extentID="5539" gapBefore="0" mediaItemID="5535" duration="0.20000000000000001">
      <Effects />
      <Transitions />
      <BoundProperties>
        <BoundPropertyInt Name="rotateStepNinety" Value="0" />
      </BoundProperties>
    </ImageClip>
    <ImageClip extentID="372" gapBefore="0" mediaItemID="368" duration="0.20000000000000001">
      <Effects />
      <Transitions />
      <BoundProperties>
        <BoundPropertyInt Name="rotateStepNinety" Value="0" />
      </BoundProperties>
    </ImageClip>
    <ImageClip extentID="5540" gapBefore="0" mediaItemID="5536" duration="0.20000000000000001">
      <Effects />
      <Transitions />
      <BoundProperties>
        <BoundPropertyInt Name="rotateStepNinety" Value="0" />
      </BoundProperties>
    </ImageClip>
    <ImageClip extentID="373" gapBefore="0" mediaItemID="369" duration="0.20000000000000001">
      <Effects />
      <Transitions />
      <BoundProperties>
        <BoundPropertyInt Name="rotateStepNinety" Value="0" />
      </BoundProperties>
    </ImageClip>
    <ImageClip extentID="5541" gapBefore="0" mediaItemID="5537" duration="0.20000000000000001">
      <Effects />
      <Transitions />
      <BoundProperties>
        <BoundPropertyInt Name="rotateStepNinety" Value="0" />
      </BoundProperties>
    </ImageClip>
    <ImageClip extentID="374" gapBefore="0" mediaItemID="370" duration="0.20000000000000001">
      <Effects />
      <Transitions />
      <BoundProperties>
        <BoundPropertyInt Name="rotateStepNinety" Value="0" />
      </BoundProperties>
    </ImageClip>
    <ImageClip extentID="5542" gapBefore="0" mediaItemID="5538" duration="0.20000000000000001">
      <Effects />
      <Transitions />
      <BoundProperties>
        <BoundPropertyInt Name="rotateStepNinety" Value="0" />
      </BoundProperties>
    </ImageClip>
    <ImageClip extentID="375" gapBefore="0" mediaItemID="371" duration="0.20000000000000001">
      <Effects />
      <Transitions />
      <BoundProperties>
        <BoundPropertyInt Name="rotateStepNinety" Value="0" />
      </BoundProperties>
    </ImageClip>
    <ImageClip extentID="5543" gapBefore="0" mediaItemID="5539" duration="0.20000000000000001">
      <Effects />
      <Transitions />
      <BoundProperties>
        <BoundPropertyInt Name="rotateStepNinety" Value="0" />
      </BoundProperties>
    </ImageClip>
    <ImageClip extentID="376" gapBefore="0" mediaItemID="372" duration="0.20000000000000001">
      <Effects />
      <Transitions />
      <BoundProperties>
        <BoundPropertyInt Name="rotateStepNinety" Value="0" />
      </BoundProperties>
    </ImageClip>
    <ImageClip extentID="5544" gapBefore="0" mediaItemID="5540" duration="0.20000000000000001">
      <Effects />
      <Transitions />
      <BoundProperties>
        <BoundPropertyInt Name="rotateStepNinety" Value="0" />
      </BoundProperties>
    </ImageClip>
    <ImageClip extentID="377" gapBefore="0" mediaItemID="373" duration="0.20000000000000001">
      <Effects />
      <Transitions />
      <BoundProperties>
        <BoundPropertyInt Name="rotateStepNinety" Value="0" />
      </BoundProperties>
    </ImageClip>
    <ImageClip extentID="5545" gapBefore="0" mediaItemID="5541" duration="0.20000000000000001">
      <Effects />
      <Transitions />
      <BoundProperties>
        <BoundPropertyInt Name="rotateStepNinety" Value="0" />
      </BoundProperties>
    </ImageClip>
    <ImageClip extentID="378" gapBefore="0" mediaItemID="374" duration="0.20000000000000001">
      <Effects />
      <Transitions />
      <BoundProperties>
        <BoundPropertyInt Name="rotateStepNinety" Value="0" />
      </BoundProperties>
    </ImageClip>
    <ImageClip extentID="5546" gapBefore="0" mediaItemID="5542" duration="0.20000000000000001">
      <Effects />
      <Transitions />
      <BoundProperties>
        <BoundPropertyInt Name="rotateStepNinety" Value="0" />
      </BoundProperties>
    </ImageClip>
    <ImageClip extentID="379" gapBefore="0" mediaItemID="375" duration="0.20000000000000001">
      <Effects />
      <Transitions />
      <BoundProperties>
        <BoundPropertyInt Name="rotateStepNinety" Value="0" />
      </BoundProperties>
    </ImageClip>
    <ImageClip extentID="5547" gapBefore="0" mediaItemID="5543" duration="0.20000000000000001">
      <Effects />
      <Transitions />
      <BoundProperties>
        <BoundPropertyInt Name="rotateStepNinety" Value="0" />
      </BoundProperties>
    </ImageClip>
    <ImageClip extentID="380" gapBefore="0" mediaItemID="376" duration="0.20000000000000001">
      <Effects />
      <Transitions />
      <BoundProperties>
        <BoundPropertyInt Name="rotateStepNinety" Value="0" />
      </BoundProperties>
    </ImageClip>
    <ImageClip extentID="5548" gapBefore="0" mediaItemID="5544" duration="0.20000000000000001">
      <Effects />
      <Transitions />
      <BoundProperties>
        <BoundPropertyInt Name="rotateStepNinety" Value="0" />
      </BoundProperties>
    </ImageClip>
    <ImageClip extentID="381" gapBefore="0" mediaItemID="377" duration="0.20000000000000001">
      <Effects />
      <Transitions />
      <BoundProperties>
        <BoundPropertyInt Name="rotateStepNinety" Value="0" />
      </BoundProperties>
    </ImageClip>
    <ImageClip extentID="5549" gapBefore="0" mediaItemID="5545" duration="0.20000000000000001">
      <Effects />
      <Transitions />
      <BoundProperties>
        <BoundPropertyInt Name="rotateStepNinety" Value="0" />
      </BoundProperties>
    </ImageClip>
    <ImageClip extentID="382" gapBefore="0" mediaItemID="378" duration="0.20000000000000001">
      <Effects />
      <Transitions />
      <BoundProperties>
        <BoundPropertyInt Name="rotateStepNinety" Value="0" />
      </BoundProperties>
    </ImageClip>
    <ImageClip extentID="5550" gapBefore="0" mediaItemID="5546" duration="0.20000000000000001">
      <Effects />
      <Transitions />
      <BoundProperties>
        <BoundPropertyInt Name="rotateStepNinety" Value="0" />
      </BoundProperties>
    </ImageClip>
    <ImageClip extentID="383" gapBefore="0" mediaItemID="379" duration="0.20000000000000001">
      <Effects />
      <Transitions />
      <BoundProperties>
        <BoundPropertyInt Name="rotateStepNinety" Value="0" />
      </BoundProperties>
    </ImageClip>
    <ImageClip extentID="5551" gapBefore="0" mediaItemID="5547" duration="0.20000000000000001">
      <Effects />
      <Transitions />
      <BoundProperties>
        <BoundPropertyInt Name="rotateStepNinety" Value="0" />
      </BoundProperties>
    </ImageClip>
    <ImageClip extentID="384" gapBefore="0" mediaItemID="380" duration="0.20000000000000001">
      <Effects />
      <Transitions />
      <BoundProperties>
        <BoundPropertyInt Name="rotateStepNinety" Value="0" />
      </BoundProperties>
    </ImageClip>
    <ImageClip extentID="5552" gapBefore="0" mediaItemID="5548" duration="0.20000000000000001">
      <Effects />
      <Transitions />
      <BoundProperties>
        <BoundPropertyInt Name="rotateStepNinety" Value="0" />
      </BoundProperties>
    </ImageClip>
    <ImageClip extentID="385" gapBefore="0" mediaItemID="381" duration="0.20000000000000001">
      <Effects />
      <Transitions />
      <BoundProperties>
        <BoundPropertyInt Name="rotateStepNinety" Value="0" />
      </BoundProperties>
    </ImageClip>
    <ImageClip extentID="5553" gapBefore="0" mediaItemID="5549" duration="0.20000000000000001">
      <Effects />
      <Transitions />
      <BoundProperties>
        <BoundPropertyInt Name="rotateStepNinety" Value="0" />
      </BoundProperties>
    </ImageClip>
    <ImageClip extentID="386" gapBefore="0" mediaItemID="382" duration="0.20000000000000001">
      <Effects />
      <Transitions />
      <BoundProperties>
        <BoundPropertyInt Name="rotateStepNinety" Value="0" />
      </BoundProperties>
    </ImageClip>
    <ImageClip extentID="5554" gapBefore="0" mediaItemID="5550" duration="0.20000000000000001">
      <Effects />
      <Transitions />
      <BoundProperties>
        <BoundPropertyInt Name="rotateStepNinety" Value="0" />
      </BoundProperties>
    </ImageClip>
    <ImageClip extentID="387" gapBefore="0" mediaItemID="383" duration="0.20000000000000001">
      <Effects />
      <Transitions />
      <BoundProperties>
        <BoundPropertyInt Name="rotateStepNinety" Value="0" />
      </BoundProperties>
    </ImageClip>
    <ImageClip extentID="5555" gapBefore="0" mediaItemID="5551" duration="0.20000000000000001">
      <Effects />
      <Transitions />
      <BoundProperties>
        <BoundPropertyInt Name="rotateStepNinety" Value="0" />
      </BoundProperties>
    </ImageClip>
    <ImageClip extentID="388" gapBefore="0" mediaItemID="384" duration="0.20000000000000001">
      <Effects />
      <Transitions />
      <BoundProperties>
        <BoundPropertyInt Name="rotateStepNinety" Value="0" />
      </BoundProperties>
    </ImageClip>
    <ImageClip extentID="5556" gapBefore="0" mediaItemID="5552" duration="0.20000000000000001">
      <Effects />
      <Transitions />
      <BoundProperties>
        <BoundPropertyInt Name="rotateStepNinety" Value="0" />
      </BoundProperties>
    </ImageClip>
    <ImageClip extentID="389" gapBefore="0" mediaItemID="385" duration="0.20000000000000001">
      <Effects />
      <Transitions />
      <BoundProperties>
        <BoundPropertyInt Name="rotateStepNinety" Value="0" />
      </BoundProperties>
    </ImageClip>
    <ImageClip extentID="5557" gapBefore="0" mediaItemID="5553" duration="0.20000000000000001">
      <Effects />
      <Transitions />
      <BoundProperties>
        <BoundPropertyInt Name="rotateStepNinety" Value="0" />
      </BoundProperties>
    </ImageClip>
    <ImageClip extentID="390" gapBefore="0" mediaItemID="386" duration="0.20000000000000001">
      <Effects />
      <Transitions />
      <BoundProperties>
        <BoundPropertyInt Name="rotateStepNinety" Value="0" />
      </BoundProperties>
    </ImageClip>
    <ImageClip extentID="5558" gapBefore="0" mediaItemID="5554" duration="0.20000000000000001">
      <Effects />
      <Transitions />
      <BoundProperties>
        <BoundPropertyInt Name="rotateStepNinety" Value="0" />
      </BoundProperties>
    </ImageClip>
    <ImageClip extentID="391" gapBefore="0" mediaItemID="387" duration="0.20000000000000001">
      <Effects />
      <Transitions />
      <BoundProperties>
        <BoundPropertyInt Name="rotateStepNinety" Value="0" />
      </BoundProperties>
    </ImageClip>
    <ImageClip extentID="5559" gapBefore="0" mediaItemID="5555" duration="0.20000000000000001">
      <Effects />
      <Transitions />
      <BoundProperties>
        <BoundPropertyInt Name="rotateStepNinety" Value="0" />
      </BoundProperties>
    </ImageClip>
    <ImageClip extentID="392" gapBefore="0" mediaItemID="388" duration="0.20000000000000001">
      <Effects />
      <Transitions />
      <BoundProperties>
        <BoundPropertyInt Name="rotateStepNinety" Value="0" />
      </BoundProperties>
    </ImageClip>
    <ImageClip extentID="5560" gapBefore="0" mediaItemID="5556" duration="0.20000000000000001">
      <Effects />
      <Transitions />
      <BoundProperties>
        <BoundPropertyInt Name="rotateStepNinety" Value="0" />
      </BoundProperties>
    </ImageClip>
    <ImageClip extentID="393" gapBefore="0" mediaItemID="389" duration="0.20000000000000001">
      <Effects />
      <Transitions />
      <BoundProperties>
        <BoundPropertyInt Name="rotateStepNinety" Value="0" />
      </BoundProperties>
    </ImageClip>
    <ImageClip extentID="5561" gapBefore="0" mediaItemID="5557" duration="0.20000000000000001">
      <Effects />
      <Transitions />
      <BoundProperties>
        <BoundPropertyInt Name="rotateStepNinety" Value="0" />
      </BoundProperties>
    </ImageClip>
    <ImageClip extentID="394" gapBefore="0" mediaItemID="390" duration="0.20000000000000001">
      <Effects />
      <Transitions />
      <BoundProperties>
        <BoundPropertyInt Name="rotateStepNinety" Value="0" />
      </BoundProperties>
    </ImageClip>
    <ImageClip extentID="5562" gapBefore="0" mediaItemID="5558" duration="0.20000000000000001">
      <Effects />
      <Transitions />
      <BoundProperties>
        <BoundPropertyInt Name="rotateStepNinety" Value="0" />
      </BoundProperties>
    </ImageClip>
    <ImageClip extentID="395" gapBefore="0" mediaItemID="391" duration="0.20000000000000001">
      <Effects />
      <Transitions />
      <BoundProperties>
        <BoundPropertyInt Name="rotateStepNinety" Value="0" />
      </BoundProperties>
    </ImageClip>
    <ImageClip extentID="5563" gapBefore="0" mediaItemID="5559" duration="0.20000000000000001">
      <Effects />
      <Transitions />
      <BoundProperties>
        <BoundPropertyInt Name="rotateStepNinety" Value="0" />
      </BoundProperties>
    </ImageClip>
    <ImageClip extentID="396" gapBefore="0" mediaItemID="392" duration="0.20000000000000001">
      <Effects />
      <Transitions />
      <BoundProperties>
        <BoundPropertyInt Name="rotateStepNinety" Value="0" />
      </BoundProperties>
    </ImageClip>
    <ImageClip extentID="5564" gapBefore="0" mediaItemID="5560" duration="0.20000000000000001">
      <Effects />
      <Transitions />
      <BoundProperties>
        <BoundPropertyInt Name="rotateStepNinety" Value="0" />
      </BoundProperties>
    </ImageClip>
    <ImageClip extentID="397" gapBefore="0" mediaItemID="393" duration="0.20000000000000001">
      <Effects />
      <Transitions />
      <BoundProperties>
        <BoundPropertyInt Name="rotateStepNinety" Value="0" />
      </BoundProperties>
    </ImageClip>
    <ImageClip extentID="5565" gapBefore="0" mediaItemID="5561" duration="0.20000000000000001">
      <Effects />
      <Transitions />
      <BoundProperties>
        <BoundPropertyInt Name="rotateStepNinety" Value="0" />
      </BoundProperties>
    </ImageClip>
    <ImageClip extentID="398" gapBefore="0" mediaItemID="394" duration="0.20000000000000001">
      <Effects />
      <Transitions />
      <BoundProperties>
        <BoundPropertyInt Name="rotateStepNinety" Value="0" />
      </BoundProperties>
    </ImageClip>
    <ImageClip extentID="5566" gapBefore="0" mediaItemID="5562" duration="0.20000000000000001">
      <Effects />
      <Transitions />
      <BoundProperties>
        <BoundPropertyInt Name="rotateStepNinety" Value="0" />
      </BoundProperties>
    </ImageClip>
    <ImageClip extentID="399" gapBefore="0" mediaItemID="395" duration="0.20000000000000001">
      <Effects />
      <Transitions />
      <BoundProperties>
        <BoundPropertyInt Name="rotateStepNinety" Value="0" />
      </BoundProperties>
    </ImageClip>
    <ImageClip extentID="5567" gapBefore="0" mediaItemID="5563" duration="0.20000000000000001">
      <Effects />
      <Transitions />
      <BoundProperties>
        <BoundPropertyInt Name="rotateStepNinety" Value="0" />
      </BoundProperties>
    </ImageClip>
    <ImageClip extentID="400" gapBefore="0" mediaItemID="396" duration="0.20000000000000001">
      <Effects />
      <Transitions />
      <BoundProperties>
        <BoundPropertyInt Name="rotateStepNinety" Value="0" />
      </BoundProperties>
    </ImageClip>
    <ImageClip extentID="5568" gapBefore="0" mediaItemID="5564" duration="0.20000000000000001">
      <Effects />
      <Transitions />
      <BoundProperties>
        <BoundPropertyInt Name="rotateStepNinety" Value="0" />
      </BoundProperties>
    </ImageClip>
    <ImageClip extentID="401" gapBefore="0" mediaItemID="397" duration="0.20000000000000001">
      <Effects />
      <Transitions />
      <BoundProperties>
        <BoundPropertyInt Name="rotateStepNinety" Value="0" />
      </BoundProperties>
    </ImageClip>
    <ImageClip extentID="5569" gapBefore="0" mediaItemID="5565" duration="0.20000000000000001">
      <Effects />
      <Transitions />
      <BoundProperties>
        <BoundPropertyInt Name="rotateStepNinety" Value="0" />
      </BoundProperties>
    </ImageClip>
    <ImageClip extentID="402" gapBefore="0" mediaItemID="398" duration="0.20000000000000001">
      <Effects />
      <Transitions />
      <BoundProperties>
        <BoundPropertyInt Name="rotateStepNinety" Value="0" />
      </BoundProperties>
    </ImageClip>
    <ImageClip extentID="5570" gapBefore="0" mediaItemID="5566" duration="0.20000000000000001">
      <Effects />
      <Transitions />
      <BoundProperties>
        <BoundPropertyInt Name="rotateStepNinety" Value="0" />
      </BoundProperties>
    </ImageClip>
    <ImageClip extentID="403" gapBefore="0" mediaItemID="399" duration="0.20000000000000001">
      <Effects />
      <Transitions />
      <BoundProperties>
        <BoundPropertyInt Name="rotateStepNinety" Value="0" />
      </BoundProperties>
    </ImageClip>
    <ImageClip extentID="5571" gapBefore="0" mediaItemID="5567" duration="0.20000000000000001">
      <Effects />
      <Transitions />
      <BoundProperties>
        <BoundPropertyInt Name="rotateStepNinety" Value="0" />
      </BoundProperties>
    </ImageClip>
    <ImageClip extentID="404" gapBefore="0" mediaItemID="400" duration="0.20000000000000001">
      <Effects />
      <Transitions />
      <BoundProperties>
        <BoundPropertyInt Name="rotateStepNinety" Value="0" />
      </BoundProperties>
    </ImageClip>
    <ImageClip extentID="5572" gapBefore="0" mediaItemID="5568" duration="0.20000000000000001">
      <Effects />
      <Transitions />
      <BoundProperties>
        <BoundPropertyInt Name="rotateStepNinety" Value="0" />
      </BoundProperties>
    </ImageClip>
    <ImageClip extentID="405" gapBefore="0" mediaItemID="401" duration="0.20000000000000001">
      <Effects />
      <Transitions />
      <BoundProperties>
        <BoundPropertyInt Name="rotateStepNinety" Value="0" />
      </BoundProperties>
    </ImageClip>
    <ImageClip extentID="5573" gapBefore="0" mediaItemID="5569" duration="0.20000000000000001">
      <Effects />
      <Transitions />
      <BoundProperties>
        <BoundPropertyInt Name="rotateStepNinety" Value="0" />
      </BoundProperties>
    </ImageClip>
    <ImageClip extentID="406" gapBefore="0" mediaItemID="402" duration="0.20000000000000001">
      <Effects />
      <Transitions />
      <BoundProperties>
        <BoundPropertyInt Name="rotateStepNinety" Value="0" />
      </BoundProperties>
    </ImageClip>
    <ImageClip extentID="5574" gapBefore="0" mediaItemID="5570" duration="0.20000000000000001">
      <Effects />
      <Transitions />
      <BoundProperties>
        <BoundPropertyInt Name="rotateStepNinety" Value="0" />
      </BoundProperties>
    </ImageClip>
    <ImageClip extentID="407" gapBefore="0" mediaItemID="403" duration="0.20000000000000001">
      <Effects />
      <Transitions />
      <BoundProperties>
        <BoundPropertyInt Name="rotateStepNinety" Value="0" />
      </BoundProperties>
    </ImageClip>
    <ImageClip extentID="5575" gapBefore="0" mediaItemID="5571" duration="0.20000000000000001">
      <Effects />
      <Transitions />
      <BoundProperties>
        <BoundPropertyInt Name="rotateStepNinety" Value="0" />
      </BoundProperties>
    </ImageClip>
    <ImageClip extentID="408" gapBefore="0" mediaItemID="404" duration="0.20000000000000001">
      <Effects />
      <Transitions />
      <BoundProperties>
        <BoundPropertyInt Name="rotateStepNinety" Value="0" />
      </BoundProperties>
    </ImageClip>
    <ImageClip extentID="5576" gapBefore="0" mediaItemID="5572" duration="0.20000000000000001">
      <Effects />
      <Transitions />
      <BoundProperties>
        <BoundPropertyInt Name="rotateStepNinety" Value="0" />
      </BoundProperties>
    </ImageClip>
    <ImageClip extentID="409" gapBefore="0" mediaItemID="405" duration="0.20000000000000001">
      <Effects />
      <Transitions />
      <BoundProperties>
        <BoundPropertyInt Name="rotateStepNinety" Value="0" />
      </BoundProperties>
    </ImageClip>
    <ImageClip extentID="5577" gapBefore="0" mediaItemID="5573" duration="0.20000000000000001">
      <Effects />
      <Transitions />
      <BoundProperties>
        <BoundPropertyInt Name="rotateStepNinety" Value="0" />
      </BoundProperties>
    </ImageClip>
    <ImageClip extentID="410" gapBefore="0" mediaItemID="406" duration="0.20000000000000001">
      <Effects />
      <Transitions />
      <BoundProperties>
        <BoundPropertyInt Name="rotateStepNinety" Value="0" />
      </BoundProperties>
    </ImageClip>
    <ImageClip extentID="5578" gapBefore="0" mediaItemID="5574" duration="0.20000000000000001">
      <Effects />
      <Transitions />
      <BoundProperties>
        <BoundPropertyInt Name="rotateStepNinety" Value="0" />
      </BoundProperties>
    </ImageClip>
    <ImageClip extentID="411" gapBefore="0" mediaItemID="407" duration="0.20000000000000001">
      <Effects />
      <Transitions />
      <BoundProperties>
        <BoundPropertyInt Name="rotateStepNinety" Value="0" />
      </BoundProperties>
    </ImageClip>
    <ImageClip extentID="5579" gapBefore="0" mediaItemID="5575" duration="0.20000000000000001">
      <Effects />
      <Transitions />
      <BoundProperties>
        <BoundPropertyInt Name="rotateStepNinety" Value="0" />
      </BoundProperties>
    </ImageClip>
    <ImageClip extentID="412" gapBefore="0" mediaItemID="408" duration="0.20000000000000001">
      <Effects />
      <Transitions />
      <BoundProperties>
        <BoundPropertyInt Name="rotateStepNinety" Value="0" />
      </BoundProperties>
    </ImageClip>
    <ImageClip extentID="5580" gapBefore="0" mediaItemID="5576" duration="0.20000000000000001">
      <Effects />
      <Transitions />
      <BoundProperties>
        <BoundPropertyInt Name="rotateStepNinety" Value="0" />
      </BoundProperties>
    </ImageClip>
    <ImageClip extentID="413" gapBefore="0" mediaItemID="409" duration="0.20000000000000001">
      <Effects />
      <Transitions />
      <BoundProperties>
        <BoundPropertyInt Name="rotateStepNinety" Value="0" />
      </BoundProperties>
    </ImageClip>
    <ImageClip extentID="5581" gapBefore="0" mediaItemID="5577" duration="0.20000000000000001">
      <Effects />
      <Transitions />
      <BoundProperties>
        <BoundPropertyInt Name="rotateStepNinety" Value="0" />
      </BoundProperties>
    </ImageClip>
    <ImageClip extentID="414" gapBefore="0" mediaItemID="410" duration="0.20000000000000001">
      <Effects />
      <Transitions />
      <BoundProperties>
        <BoundPropertyInt Name="rotateStepNinety" Value="0" />
      </BoundProperties>
    </ImageClip>
    <ImageClip extentID="5582" gapBefore="0" mediaItemID="5578" duration="0.20000000000000001">
      <Effects />
      <Transitions />
      <BoundProperties>
        <BoundPropertyInt Name="rotateStepNinety" Value="0" />
      </BoundProperties>
    </ImageClip>
    <ImageClip extentID="415" gapBefore="0" mediaItemID="411" duration="0.20000000000000001">
      <Effects />
      <Transitions />
      <BoundProperties>
        <BoundPropertyInt Name="rotateStepNinety" Value="0" />
      </BoundProperties>
    </ImageClip>
    <ImageClip extentID="5583" gapBefore="0" mediaItemID="5579" duration="0.20000000000000001">
      <Effects />
      <Transitions />
      <BoundProperties>
        <BoundPropertyInt Name="rotateStepNinety" Value="0" />
      </BoundProperties>
    </ImageClip>
    <ImageClip extentID="416" gapBefore="0" mediaItemID="412" duration="0.20000000000000001">
      <Effects />
      <Transitions />
      <BoundProperties>
        <BoundPropertyInt Name="rotateStepNinety" Value="0" />
      </BoundProperties>
    </ImageClip>
    <ImageClip extentID="5584" gapBefore="0" mediaItemID="5580" duration="0.20000000000000001">
      <Effects />
      <Transitions />
      <BoundProperties>
        <BoundPropertyInt Name="rotateStepNinety" Value="0" />
      </BoundProperties>
    </ImageClip>
    <ImageClip extentID="417" gapBefore="0" mediaItemID="413" duration="0.20000000000000001">
      <Effects />
      <Transitions />
      <BoundProperties>
        <BoundPropertyInt Name="rotateStepNinety" Value="0" />
      </BoundProperties>
    </ImageClip>
    <ImageClip extentID="5585" gapBefore="0" mediaItemID="5581" duration="0.20000000000000001">
      <Effects />
      <Transitions />
      <BoundProperties>
        <BoundPropertyInt Name="rotateStepNinety" Value="0" />
      </BoundProperties>
    </ImageClip>
    <ImageClip extentID="418" gapBefore="0" mediaItemID="414" duration="0.20000000000000001">
      <Effects />
      <Transitions />
      <BoundProperties>
        <BoundPropertyInt Name="rotateStepNinety" Value="0" />
      </BoundProperties>
    </ImageClip>
    <ImageClip extentID="5586" gapBefore="0" mediaItemID="5582" duration="0.20000000000000001">
      <Effects />
      <Transitions />
      <BoundProperties>
        <BoundPropertyInt Name="rotateStepNinety" Value="0" />
      </BoundProperties>
    </ImageClip>
    <ImageClip extentID="419" gapBefore="0" mediaItemID="415" duration="0.20000000000000001">
      <Effects />
      <Transitions />
      <BoundProperties>
        <BoundPropertyInt Name="rotateStepNinety" Value="0" />
      </BoundProperties>
    </ImageClip>
    <ImageClip extentID="5587" gapBefore="0" mediaItemID="5583" duration="0.20000000000000001">
      <Effects />
      <Transitions />
      <BoundProperties>
        <BoundPropertyInt Name="rotateStepNinety" Value="0" />
      </BoundProperties>
    </ImageClip>
    <ImageClip extentID="420" gapBefore="0" mediaItemID="416" duration="0.20000000000000001">
      <Effects />
      <Transitions />
      <BoundProperties>
        <BoundPropertyInt Name="rotateStepNinety" Value="0" />
      </BoundProperties>
    </ImageClip>
    <ImageClip extentID="5588" gapBefore="0" mediaItemID="5584" duration="0.20000000000000001">
      <Effects />
      <Transitions />
      <BoundProperties>
        <BoundPropertyInt Name="rotateStepNinety" Value="0" />
      </BoundProperties>
    </ImageClip>
    <ImageClip extentID="421" gapBefore="0" mediaItemID="417" duration="0.20000000000000001">
      <Effects />
      <Transitions />
      <BoundProperties>
        <BoundPropertyInt Name="rotateStepNinety" Value="0" />
      </BoundProperties>
    </ImageClip>
    <ImageClip extentID="5589" gapBefore="0" mediaItemID="5585" duration="0.20000000000000001">
      <Effects />
      <Transitions />
      <BoundProperties>
        <BoundPropertyInt Name="rotateStepNinety" Value="0" />
      </BoundProperties>
    </ImageClip>
    <ImageClip extentID="422" gapBefore="0" mediaItemID="418" duration="0.20000000000000001">
      <Effects />
      <Transitions />
      <BoundProperties>
        <BoundPropertyInt Name="rotateStepNinety" Value="0" />
      </BoundProperties>
    </ImageClip>
    <ImageClip extentID="5590" gapBefore="0" mediaItemID="5586" duration="0.20000000000000001">
      <Effects />
      <Transitions />
      <BoundProperties>
        <BoundPropertyInt Name="rotateStepNinety" Value="0" />
      </BoundProperties>
    </ImageClip>
    <ImageClip extentID="423" gapBefore="0" mediaItemID="419" duration="0.20000000000000001">
      <Effects />
      <Transitions />
      <BoundProperties>
        <BoundPropertyInt Name="rotateStepNinety" Value="0" />
      </BoundProperties>
    </ImageClip>
    <ImageClip extentID="5591" gapBefore="0" mediaItemID="5587" duration="0.20000000000000001">
      <Effects />
      <Transitions />
      <BoundProperties>
        <BoundPropertyInt Name="rotateStepNinety" Value="0" />
      </BoundProperties>
    </ImageClip>
    <ImageClip extentID="424" gapBefore="0" mediaItemID="420" duration="0.20000000000000001">
      <Effects />
      <Transitions />
      <BoundProperties>
        <BoundPropertyInt Name="rotateStepNinety" Value="0" />
      </BoundProperties>
    </ImageClip>
    <ImageClip extentID="5592" gapBefore="0" mediaItemID="5588" duration="0.20000000000000001">
      <Effects />
      <Transitions />
      <BoundProperties>
        <BoundPropertyInt Name="rotateStepNinety" Value="0" />
      </BoundProperties>
    </ImageClip>
    <ImageClip extentID="425" gapBefore="0" mediaItemID="421" duration="0.20000000000000001">
      <Effects />
      <Transitions />
      <BoundProperties>
        <BoundPropertyInt Name="rotateStepNinety" Value="0" />
      </BoundProperties>
    </ImageClip>
    <ImageClip extentID="5593" gapBefore="0" mediaItemID="5589" duration="0.20000000000000001">
      <Effects />
      <Transitions />
      <BoundProperties>
        <BoundPropertyInt Name="rotateStepNinety" Value="0" />
      </BoundProperties>
    </ImageClip>
    <ImageClip extentID="426" gapBefore="0" mediaItemID="422" duration="0.20000000000000001">
      <Effects />
      <Transitions />
      <BoundProperties>
        <BoundPropertyInt Name="rotateStepNinety" Value="0" />
      </BoundProperties>
    </ImageClip>
    <ImageClip extentID="5594" gapBefore="0" mediaItemID="5590" duration="0.20000000000000001">
      <Effects />
      <Transitions />
      <BoundProperties>
        <BoundPropertyInt Name="rotateStepNinety" Value="0" />
      </BoundProperties>
    </ImageClip>
    <ImageClip extentID="427" gapBefore="0" mediaItemID="423" duration="0.20000000000000001">
      <Effects />
      <Transitions />
      <BoundProperties>
        <BoundPropertyInt Name="rotateStepNinety" Value="0" />
      </BoundProperties>
    </ImageClip>
    <ImageClip extentID="5595" gapBefore="0" mediaItemID="5591" duration="0.20000000000000001">
      <Effects />
      <Transitions />
      <BoundProperties>
        <BoundPropertyInt Name="rotateStepNinety" Value="0" />
      </BoundProperties>
    </ImageClip>
    <ImageClip extentID="428" gapBefore="0" mediaItemID="424" duration="0.20000000000000001">
      <Effects />
      <Transitions />
      <BoundProperties>
        <BoundPropertyInt Name="rotateStepNinety" Value="0" />
      </BoundProperties>
    </ImageClip>
    <ImageClip extentID="5596" gapBefore="0" mediaItemID="5592" duration="0.20000000000000001">
      <Effects />
      <Transitions />
      <BoundProperties>
        <BoundPropertyInt Name="rotateStepNinety" Value="0" />
      </BoundProperties>
    </ImageClip>
    <ImageClip extentID="429" gapBefore="0" mediaItemID="425" duration="0.20000000000000001">
      <Effects />
      <Transitions />
      <BoundProperties>
        <BoundPropertyInt Name="rotateStepNinety" Value="0" />
      </BoundProperties>
    </ImageClip>
    <ImageClip extentID="5597" gapBefore="0" mediaItemID="5593" duration="0.20000000000000001">
      <Effects />
      <Transitions />
      <BoundProperties>
        <BoundPropertyInt Name="rotateStepNinety" Value="0" />
      </BoundProperties>
    </ImageClip>
    <ImageClip extentID="430" gapBefore="0" mediaItemID="426" duration="0.20000000000000001">
      <Effects />
      <Transitions />
      <BoundProperties>
        <BoundPropertyInt Name="rotateStepNinety" Value="0" />
      </BoundProperties>
    </ImageClip>
    <ImageClip extentID="5598" gapBefore="0" mediaItemID="5594" duration="0.20000000000000001">
      <Effects />
      <Transitions />
      <BoundProperties>
        <BoundPropertyInt Name="rotateStepNinety" Value="0" />
      </BoundProperties>
    </ImageClip>
    <ImageClip extentID="431" gapBefore="0" mediaItemID="427" duration="0.20000000000000001">
      <Effects />
      <Transitions />
      <BoundProperties>
        <BoundPropertyInt Name="rotateStepNinety" Value="0" />
      </BoundProperties>
    </ImageClip>
    <ImageClip extentID="5599" gapBefore="0" mediaItemID="5595" duration="0.20000000000000001">
      <Effects />
      <Transitions />
      <BoundProperties>
        <BoundPropertyInt Name="rotateStepNinety" Value="0" />
      </BoundProperties>
    </ImageClip>
    <ImageClip extentID="432" gapBefore="0" mediaItemID="428" duration="0.20000000000000001">
      <Effects />
      <Transitions />
      <BoundProperties>
        <BoundPropertyInt Name="rotateStepNinety" Value="0" />
      </BoundProperties>
    </ImageClip>
    <ImageClip extentID="5600" gapBefore="0" mediaItemID="5596" duration="0.20000000000000001">
      <Effects />
      <Transitions />
      <BoundProperties>
        <BoundPropertyInt Name="rotateStepNinety" Value="0" />
      </BoundProperties>
    </ImageClip>
    <ImageClip extentID="433" gapBefore="0" mediaItemID="429" duration="0.20000000000000001">
      <Effects />
      <Transitions />
      <BoundProperties>
        <BoundPropertyInt Name="rotateStepNinety" Value="0" />
      </BoundProperties>
    </ImageClip>
    <ImageClip extentID="5601" gapBefore="0" mediaItemID="5597" duration="0.20000000000000001">
      <Effects />
      <Transitions />
      <BoundProperties>
        <BoundPropertyInt Name="rotateStepNinety" Value="0" />
      </BoundProperties>
    </ImageClip>
    <ImageClip extentID="434" gapBefore="0" mediaItemID="430" duration="0.20000000000000001">
      <Effects />
      <Transitions />
      <BoundProperties>
        <BoundPropertyInt Name="rotateStepNinety" Value="0" />
      </BoundProperties>
    </ImageClip>
    <ImageClip extentID="5602" gapBefore="0" mediaItemID="5598" duration="0.20000000000000001">
      <Effects />
      <Transitions />
      <BoundProperties>
        <BoundPropertyInt Name="rotateStepNinety" Value="0" />
      </BoundProperties>
    </ImageClip>
    <ImageClip extentID="435" gapBefore="0" mediaItemID="431" duration="0.20000000000000001">
      <Effects />
      <Transitions />
      <BoundProperties>
        <BoundPropertyInt Name="rotateStepNinety" Value="0" />
      </BoundProperties>
    </ImageClip>
    <ImageClip extentID="5603" gapBefore="0" mediaItemID="5599" duration="0.20000000000000001">
      <Effects />
      <Transitions />
      <BoundProperties>
        <BoundPropertyInt Name="rotateStepNinety" Value="0" />
      </BoundProperties>
    </ImageClip>
    <ImageClip extentID="436" gapBefore="0" mediaItemID="432" duration="0.20000000000000001">
      <Effects />
      <Transitions />
      <BoundProperties>
        <BoundPropertyInt Name="rotateStepNinety" Value="0" />
      </BoundProperties>
    </ImageClip>
    <ImageClip extentID="5604" gapBefore="0" mediaItemID="5600" duration="0.20000000000000001">
      <Effects />
      <Transitions />
      <BoundProperties>
        <BoundPropertyInt Name="rotateStepNinety" Value="0" />
      </BoundProperties>
    </ImageClip>
    <ImageClip extentID="437" gapBefore="0" mediaItemID="433" duration="0.20000000000000001">
      <Effects />
      <Transitions />
      <BoundProperties>
        <BoundPropertyInt Name="rotateStepNinety" Value="0" />
      </BoundProperties>
    </ImageClip>
    <ImageClip extentID="5605" gapBefore="0" mediaItemID="5601" duration="0.20000000000000001">
      <Effects />
      <Transitions />
      <BoundProperties>
        <BoundPropertyInt Name="rotateStepNinety" Value="0" />
      </BoundProperties>
    </ImageClip>
    <ImageClip extentID="438" gapBefore="0" mediaItemID="434" duration="0.20000000000000001">
      <Effects />
      <Transitions />
      <BoundProperties>
        <BoundPropertyInt Name="rotateStepNinety" Value="0" />
      </BoundProperties>
    </ImageClip>
    <ImageClip extentID="5606" gapBefore="0" mediaItemID="5602" duration="0.20000000000000001">
      <Effects />
      <Transitions />
      <BoundProperties>
        <BoundPropertyInt Name="rotateStepNinety" Value="0" />
      </BoundProperties>
    </ImageClip>
    <ImageClip extentID="439" gapBefore="0" mediaItemID="435" duration="0.20000000000000001">
      <Effects />
      <Transitions />
      <BoundProperties>
        <BoundPropertyInt Name="rotateStepNinety" Value="0" />
      </BoundProperties>
    </ImageClip>
    <ImageClip extentID="5607" gapBefore="0" mediaItemID="5603" duration="0.20000000000000001">
      <Effects />
      <Transitions />
      <BoundProperties>
        <BoundPropertyInt Name="rotateStepNinety" Value="0" />
      </BoundProperties>
    </ImageClip>
    <ImageClip extentID="440" gapBefore="0" mediaItemID="436" duration="0.20000000000000001">
      <Effects />
      <Transitions />
      <BoundProperties>
        <BoundPropertyInt Name="rotateStepNinety" Value="0" />
      </BoundProperties>
    </ImageClip>
    <ImageClip extentID="5608" gapBefore="0" mediaItemID="5604" duration="0.20000000000000001">
      <Effects />
      <Transitions />
      <BoundProperties>
        <BoundPropertyInt Name="rotateStepNinety" Value="0" />
      </BoundProperties>
    </ImageClip>
    <ImageClip extentID="441" gapBefore="0" mediaItemID="437" duration="0.20000000000000001">
      <Effects />
      <Transitions />
      <BoundProperties>
        <BoundPropertyInt Name="rotateStepNinety" Value="0" />
      </BoundProperties>
    </ImageClip>
    <ImageClip extentID="5609" gapBefore="0" mediaItemID="5605" duration="0.20000000000000001">
      <Effects />
      <Transitions />
      <BoundProperties>
        <BoundPropertyInt Name="rotateStepNinety" Value="0" />
      </BoundProperties>
    </ImageClip>
    <ImageClip extentID="442" gapBefore="0" mediaItemID="438" duration="0.20000000000000001">
      <Effects />
      <Transitions />
      <BoundProperties>
        <BoundPropertyInt Name="rotateStepNinety" Value="0" />
      </BoundProperties>
    </ImageClip>
    <ImageClip extentID="5610" gapBefore="0" mediaItemID="5606" duration="0.20000000000000001">
      <Effects />
      <Transitions />
      <BoundProperties>
        <BoundPropertyInt Name="rotateStepNinety" Value="0" />
      </BoundProperties>
    </ImageClip>
    <ImageClip extentID="443" gapBefore="0" mediaItemID="439" duration="0.20000000000000001">
      <Effects />
      <Transitions />
      <BoundProperties>
        <BoundPropertyInt Name="rotateStepNinety" Value="0" />
      </BoundProperties>
    </ImageClip>
    <ImageClip extentID="5611" gapBefore="0" mediaItemID="5607" duration="0.20000000000000001">
      <Effects />
      <Transitions />
      <BoundProperties>
        <BoundPropertyInt Name="rotateStepNinety" Value="0" />
      </BoundProperties>
    </ImageClip>
    <ImageClip extentID="444" gapBefore="0" mediaItemID="440" duration="0.20000000000000001">
      <Effects />
      <Transitions />
      <BoundProperties>
        <BoundPropertyInt Name="rotateStepNinety" Value="0" />
      </BoundProperties>
    </ImageClip>
    <ImageClip extentID="5612" gapBefore="0" mediaItemID="5608" duration="0.20000000000000001">
      <Effects />
      <Transitions />
      <BoundProperties>
        <BoundPropertyInt Name="rotateStepNinety" Value="0" />
      </BoundProperties>
    </ImageClip>
    <ImageClip extentID="445" gapBefore="0" mediaItemID="441" duration="0.20000000000000001">
      <Effects />
      <Transitions />
      <BoundProperties>
        <BoundPropertyInt Name="rotateStepNinety" Value="0" />
      </BoundProperties>
    </ImageClip>
    <ImageClip extentID="5613" gapBefore="0" mediaItemID="5609" duration="0.20000000000000001">
      <Effects />
      <Transitions />
      <BoundProperties>
        <BoundPropertyInt Name="rotateStepNinety" Value="0" />
      </BoundProperties>
    </ImageClip>
    <ImageClip extentID="446" gapBefore="0" mediaItemID="442" duration="0.20000000000000001">
      <Effects />
      <Transitions />
      <BoundProperties>
        <BoundPropertyInt Name="rotateStepNinety" Value="0" />
      </BoundProperties>
    </ImageClip>
    <ImageClip extentID="5614" gapBefore="0" mediaItemID="5610" duration="0.20000000000000001">
      <Effects />
      <Transitions />
      <BoundProperties>
        <BoundPropertyInt Name="rotateStepNinety" Value="0" />
      </BoundProperties>
    </ImageClip>
    <ImageClip extentID="447" gapBefore="0" mediaItemID="443" duration="0.20000000000000001">
      <Effects />
      <Transitions />
      <BoundProperties>
        <BoundPropertyInt Name="rotateStepNinety" Value="0" />
      </BoundProperties>
    </ImageClip>
    <ImageClip extentID="5615" gapBefore="0" mediaItemID="5611" duration="0.20000000000000001">
      <Effects />
      <Transitions />
      <BoundProperties>
        <BoundPropertyInt Name="rotateStepNinety" Value="0" />
      </BoundProperties>
    </ImageClip>
    <ImageClip extentID="448" gapBefore="0" mediaItemID="444" duration="0.20000000000000001">
      <Effects />
      <Transitions />
      <BoundProperties>
        <BoundPropertyInt Name="rotateStepNinety" Value="0" />
      </BoundProperties>
    </ImageClip>
    <ImageClip extentID="5616" gapBefore="0" mediaItemID="5612" duration="0.20000000000000001">
      <Effects />
      <Transitions />
      <BoundProperties>
        <BoundPropertyInt Name="rotateStepNinety" Value="0" />
      </BoundProperties>
    </ImageClip>
    <ImageClip extentID="449" gapBefore="0" mediaItemID="445" duration="0.20000000000000001">
      <Effects />
      <Transitions />
      <BoundProperties>
        <BoundPropertyInt Name="rotateStepNinety" Value="0" />
      </BoundProperties>
    </ImageClip>
    <ImageClip extentID="5617" gapBefore="0" mediaItemID="5613" duration="0.20000000000000001">
      <Effects />
      <Transitions />
      <BoundProperties>
        <BoundPropertyInt Name="rotateStepNinety" Value="0" />
      </BoundProperties>
    </ImageClip>
    <ImageClip extentID="450" gapBefore="0" mediaItemID="446" duration="0.20000000000000001">
      <Effects />
      <Transitions />
      <BoundProperties>
        <BoundPropertyInt Name="rotateStepNinety" Value="0" />
      </BoundProperties>
    </ImageClip>
    <ImageClip extentID="5618" gapBefore="0" mediaItemID="5614" duration="0.20000000000000001">
      <Effects />
      <Transitions />
      <BoundProperties>
        <BoundPropertyInt Name="rotateStepNinety" Value="0" />
      </BoundProperties>
    </ImageClip>
    <ImageClip extentID="451" gapBefore="0" mediaItemID="447" duration="0.20000000000000001">
      <Effects />
      <Transitions />
      <BoundProperties>
        <BoundPropertyInt Name="rotateStepNinety" Value="0" />
      </BoundProperties>
    </ImageClip>
    <ImageClip extentID="5619" gapBefore="0" mediaItemID="5615" duration="0.20000000000000001">
      <Effects />
      <Transitions />
      <BoundProperties>
        <BoundPropertyInt Name="rotateStepNinety" Value="0" />
      </BoundProperties>
    </ImageClip>
    <ImageClip extentID="452" gapBefore="0" mediaItemID="448" duration="0.20000000000000001">
      <Effects />
      <Transitions />
      <BoundProperties>
        <BoundPropertyInt Name="rotateStepNinety" Value="0" />
      </BoundProperties>
    </ImageClip>
    <ImageClip extentID="5620" gapBefore="0" mediaItemID="5616" duration="0.20000000000000001">
      <Effects />
      <Transitions />
      <BoundProperties>
        <BoundPropertyInt Name="rotateStepNinety" Value="0" />
      </BoundProperties>
    </ImageClip>
    <ImageClip extentID="453" gapBefore="0" mediaItemID="449" duration="0.20000000000000001">
      <Effects />
      <Transitions />
      <BoundProperties>
        <BoundPropertyInt Name="rotateStepNinety" Value="0" />
      </BoundProperties>
    </ImageClip>
    <ImageClip extentID="5621" gapBefore="0" mediaItemID="5617" duration="0.20000000000000001">
      <Effects />
      <Transitions />
      <BoundProperties>
        <BoundPropertyInt Name="rotateStepNinety" Value="0" />
      </BoundProperties>
    </ImageClip>
    <ImageClip extentID="454" gapBefore="0" mediaItemID="450" duration="0.20000000000000001">
      <Effects />
      <Transitions />
      <BoundProperties>
        <BoundPropertyInt Name="rotateStepNinety" Value="0" />
      </BoundProperties>
    </ImageClip>
    <ImageClip extentID="5622" gapBefore="0" mediaItemID="5618" duration="0.20000000000000001">
      <Effects />
      <Transitions />
      <BoundProperties>
        <BoundPropertyInt Name="rotateStepNinety" Value="0" />
      </BoundProperties>
    </ImageClip>
    <ImageClip extentID="455" gapBefore="0" mediaItemID="451" duration="0.20000000000000001">
      <Effects />
      <Transitions />
      <BoundProperties>
        <BoundPropertyInt Name="rotateStepNinety" Value="0" />
      </BoundProperties>
    </ImageClip>
    <ImageClip extentID="5623" gapBefore="0" mediaItemID="5619" duration="0.20000000000000001">
      <Effects />
      <Transitions />
      <BoundProperties>
        <BoundPropertyInt Name="rotateStepNinety" Value="0" />
      </BoundProperties>
    </ImageClip>
    <ImageClip extentID="456" gapBefore="0" mediaItemID="452" duration="0.20000000000000001">
      <Effects />
      <Transitions />
      <BoundProperties>
        <BoundPropertyInt Name="rotateStepNinety" Value="0" />
      </BoundProperties>
    </ImageClip>
    <ImageClip extentID="5624" gapBefore="0" mediaItemID="5620" duration="0.20000000000000001">
      <Effects />
      <Transitions />
      <BoundProperties>
        <BoundPropertyInt Name="rotateStepNinety" Value="0" />
      </BoundProperties>
    </ImageClip>
    <ImageClip extentID="457" gapBefore="0" mediaItemID="453" duration="0.20000000000000001">
      <Effects />
      <Transitions />
      <BoundProperties>
        <BoundPropertyInt Name="rotateStepNinety" Value="0" />
      </BoundProperties>
    </ImageClip>
    <ImageClip extentID="5625" gapBefore="0" mediaItemID="5621" duration="0.20000000000000001">
      <Effects />
      <Transitions />
      <BoundProperties>
        <BoundPropertyInt Name="rotateStepNinety" Value="0" />
      </BoundProperties>
    </ImageClip>
    <ImageClip extentID="458" gapBefore="0" mediaItemID="454" duration="0.20000000000000001">
      <Effects />
      <Transitions />
      <BoundProperties>
        <BoundPropertyInt Name="rotateStepNinety" Value="0" />
      </BoundProperties>
    </ImageClip>
    <ImageClip extentID="5626" gapBefore="0" mediaItemID="5622" duration="0.20000000000000001">
      <Effects />
      <Transitions />
      <BoundProperties>
        <BoundPropertyInt Name="rotateStepNinety" Value="0" />
      </BoundProperties>
    </ImageClip>
    <ImageClip extentID="459" gapBefore="0" mediaItemID="455" duration="0.20000000000000001">
      <Effects />
      <Transitions />
      <BoundProperties>
        <BoundPropertyInt Name="rotateStepNinety" Value="0" />
      </BoundProperties>
    </ImageClip>
    <ImageClip extentID="5627" gapBefore="0" mediaItemID="5623" duration="0.20000000000000001">
      <Effects />
      <Transitions />
      <BoundProperties>
        <BoundPropertyInt Name="rotateStepNinety" Value="0" />
      </BoundProperties>
    </ImageClip>
    <ImageClip extentID="460" gapBefore="0" mediaItemID="456" duration="0.20000000000000001">
      <Effects />
      <Transitions />
      <BoundProperties>
        <BoundPropertyInt Name="rotateStepNinety" Value="0" />
      </BoundProperties>
    </ImageClip>
    <ImageClip extentID="5628" gapBefore="0" mediaItemID="5624" duration="0.20000000000000001">
      <Effects />
      <Transitions />
      <BoundProperties>
        <BoundPropertyInt Name="rotateStepNinety" Value="0" />
      </BoundProperties>
    </ImageClip>
    <ImageClip extentID="461" gapBefore="0" mediaItemID="457" duration="0.20000000000000001">
      <Effects />
      <Transitions />
      <BoundProperties>
        <BoundPropertyInt Name="rotateStepNinety" Value="0" />
      </BoundProperties>
    </ImageClip>
    <ImageClip extentID="5629" gapBefore="0" mediaItemID="5625" duration="0.20000000000000001">
      <Effects />
      <Transitions />
      <BoundProperties>
        <BoundPropertyInt Name="rotateStepNinety" Value="0" />
      </BoundProperties>
    </ImageClip>
    <ImageClip extentID="462" gapBefore="0" mediaItemID="458" duration="0.20000000000000001">
      <Effects />
      <Transitions />
      <BoundProperties>
        <BoundPropertyInt Name="rotateStepNinety" Value="0" />
      </BoundProperties>
    </ImageClip>
    <ImageClip extentID="5630" gapBefore="0" mediaItemID="5626" duration="0.20000000000000001">
      <Effects />
      <Transitions />
      <BoundProperties>
        <BoundPropertyInt Name="rotateStepNinety" Value="0" />
      </BoundProperties>
    </ImageClip>
    <ImageClip extentID="463" gapBefore="0" mediaItemID="459" duration="0.20000000000000001">
      <Effects />
      <Transitions />
      <BoundProperties>
        <BoundPropertyInt Name="rotateStepNinety" Value="0" />
      </BoundProperties>
    </ImageClip>
    <ImageClip extentID="5631" gapBefore="0" mediaItemID="5627" duration="0.20000000000000001">
      <Effects />
      <Transitions />
      <BoundProperties>
        <BoundPropertyInt Name="rotateStepNinety" Value="0" />
      </BoundProperties>
    </ImageClip>
    <ImageClip extentID="464" gapBefore="0" mediaItemID="460" duration="0.20000000000000001">
      <Effects />
      <Transitions />
      <BoundProperties>
        <BoundPropertyInt Name="rotateStepNinety" Value="0" />
      </BoundProperties>
    </ImageClip>
    <ImageClip extentID="5632" gapBefore="0" mediaItemID="5628" duration="0.20000000000000001">
      <Effects />
      <Transitions />
      <BoundProperties>
        <BoundPropertyInt Name="rotateStepNinety" Value="0" />
      </BoundProperties>
    </ImageClip>
    <ImageClip extentID="465" gapBefore="0" mediaItemID="461" duration="0.20000000000000001">
      <Effects />
      <Transitions />
      <BoundProperties>
        <BoundPropertyInt Name="rotateStepNinety" Value="0" />
      </BoundProperties>
    </ImageClip>
    <ImageClip extentID="5633" gapBefore="0" mediaItemID="5629" duration="0.20000000000000001">
      <Effects />
      <Transitions />
      <BoundProperties>
        <BoundPropertyInt Name="rotateStepNinety" Value="0" />
      </BoundProperties>
    </ImageClip>
    <ImageClip extentID="466" gapBefore="0" mediaItemID="462" duration="0.20000000000000001">
      <Effects />
      <Transitions />
      <BoundProperties>
        <BoundPropertyInt Name="rotateStepNinety" Value="0" />
      </BoundProperties>
    </ImageClip>
    <ImageClip extentID="5634" gapBefore="0" mediaItemID="5630" duration="0.20000000000000001">
      <Effects />
      <Transitions />
      <BoundProperties>
        <BoundPropertyInt Name="rotateStepNinety" Value="0" />
      </BoundProperties>
    </ImageClip>
    <ImageClip extentID="467" gapBefore="0" mediaItemID="463" duration="0.20000000000000001">
      <Effects />
      <Transitions />
      <BoundProperties>
        <BoundPropertyInt Name="rotateStepNinety" Value="0" />
      </BoundProperties>
    </ImageClip>
    <ImageClip extentID="5635" gapBefore="0" mediaItemID="5631" duration="0.20000000000000001">
      <Effects />
      <Transitions />
      <BoundProperties>
        <BoundPropertyInt Name="rotateStepNinety" Value="0" />
      </BoundProperties>
    </ImageClip>
    <ImageClip extentID="468" gapBefore="0" mediaItemID="464" duration="0.20000000000000001">
      <Effects />
      <Transitions />
      <BoundProperties>
        <BoundPropertyInt Name="rotateStepNinety" Value="0" />
      </BoundProperties>
    </ImageClip>
    <ImageClip extentID="5636" gapBefore="0" mediaItemID="5632" duration="0.20000000000000001">
      <Effects />
      <Transitions />
      <BoundProperties>
        <BoundPropertyInt Name="rotateStepNinety" Value="0" />
      </BoundProperties>
    </ImageClip>
    <ImageClip extentID="469" gapBefore="0" mediaItemID="465" duration="0.20000000000000001">
      <Effects />
      <Transitions />
      <BoundProperties>
        <BoundPropertyInt Name="rotateStepNinety" Value="0" />
      </BoundProperties>
    </ImageClip>
    <ImageClip extentID="5637" gapBefore="0" mediaItemID="5633" duration="0.20000000000000001">
      <Effects />
      <Transitions />
      <BoundProperties>
        <BoundPropertyInt Name="rotateStepNinety" Value="0" />
      </BoundProperties>
    </ImageClip>
    <ImageClip extentID="470" gapBefore="0" mediaItemID="466" duration="0.20000000000000001">
      <Effects />
      <Transitions />
      <BoundProperties>
        <BoundPropertyInt Name="rotateStepNinety" Value="0" />
      </BoundProperties>
    </ImageClip>
    <ImageClip extentID="5638" gapBefore="0" mediaItemID="5634" duration="0.20000000000000001">
      <Effects />
      <Transitions />
      <BoundProperties>
        <BoundPropertyInt Name="rotateStepNinety" Value="0" />
      </BoundProperties>
    </ImageClip>
    <ImageClip extentID="471" gapBefore="0" mediaItemID="467" duration="0.20000000000000001">
      <Effects />
      <Transitions />
      <BoundProperties>
        <BoundPropertyInt Name="rotateStepNinety" Value="0" />
      </BoundProperties>
    </ImageClip>
    <ImageClip extentID="5639" gapBefore="0" mediaItemID="5635" duration="0.20000000000000001">
      <Effects />
      <Transitions />
      <BoundProperties>
        <BoundPropertyInt Name="rotateStepNinety" Value="0" />
      </BoundProperties>
    </ImageClip>
    <ImageClip extentID="472" gapBefore="0" mediaItemID="468" duration="0.20000000000000001">
      <Effects />
      <Transitions />
      <BoundProperties>
        <BoundPropertyInt Name="rotateStepNinety" Value="0" />
      </BoundProperties>
    </ImageClip>
    <ImageClip extentID="5640" gapBefore="0" mediaItemID="5636" duration="0.20000000000000001">
      <Effects />
      <Transitions />
      <BoundProperties>
        <BoundPropertyInt Name="rotateStepNinety" Value="0" />
      </BoundProperties>
    </ImageClip>
    <ImageClip extentID="473" gapBefore="0" mediaItemID="469" duration="0.20000000000000001">
      <Effects />
      <Transitions />
      <BoundProperties>
        <BoundPropertyInt Name="rotateStepNinety" Value="0" />
      </BoundProperties>
    </ImageClip>
    <ImageClip extentID="5641" gapBefore="0" mediaItemID="5637" duration="0.20000000000000001">
      <Effects />
      <Transitions />
      <BoundProperties>
        <BoundPropertyInt Name="rotateStepNinety" Value="0" />
      </BoundProperties>
    </ImageClip>
    <ImageClip extentID="474" gapBefore="0" mediaItemID="470" duration="0.20000000000000001">
      <Effects />
      <Transitions />
      <BoundProperties>
        <BoundPropertyInt Name="rotateStepNinety" Value="0" />
      </BoundProperties>
    </ImageClip>
    <ImageClip extentID="5642" gapBefore="0" mediaItemID="5638" duration="0.20000000000000001">
      <Effects />
      <Transitions />
      <BoundProperties>
        <BoundPropertyInt Name="rotateStepNinety" Value="0" />
      </BoundProperties>
    </ImageClip>
    <ImageClip extentID="475" gapBefore="0" mediaItemID="471" duration="0.20000000000000001">
      <Effects />
      <Transitions />
      <BoundProperties>
        <BoundPropertyInt Name="rotateStepNinety" Value="0" />
      </BoundProperties>
    </ImageClip>
    <ImageClip extentID="5643" gapBefore="0" mediaItemID="5639" duration="0.20000000000000001">
      <Effects />
      <Transitions />
      <BoundProperties>
        <BoundPropertyInt Name="rotateStepNinety" Value="0" />
      </BoundProperties>
    </ImageClip>
    <ImageClip extentID="476" gapBefore="0" mediaItemID="472" duration="0.20000000000000001">
      <Effects />
      <Transitions />
      <BoundProperties>
        <BoundPropertyInt Name="rotateStepNinety" Value="0" />
      </BoundProperties>
    </ImageClip>
    <ImageClip extentID="5644" gapBefore="0" mediaItemID="5640" duration="0.20000000000000001">
      <Effects />
      <Transitions />
      <BoundProperties>
        <BoundPropertyInt Name="rotateStepNinety" Value="0" />
      </BoundProperties>
    </ImageClip>
    <ImageClip extentID="477" gapBefore="0" mediaItemID="473" duration="0.20000000000000001">
      <Effects />
      <Transitions />
      <BoundProperties>
        <BoundPropertyInt Name="rotateStepNinety" Value="0" />
      </BoundProperties>
    </ImageClip>
    <ImageClip extentID="5645" gapBefore="0" mediaItemID="5641" duration="0.20000000000000001">
      <Effects />
      <Transitions />
      <BoundProperties>
        <BoundPropertyInt Name="rotateStepNinety" Value="0" />
      </BoundProperties>
    </ImageClip>
    <ImageClip extentID="478" gapBefore="0" mediaItemID="474" duration="0.20000000000000001">
      <Effects />
      <Transitions />
      <BoundProperties>
        <BoundPropertyInt Name="rotateStepNinety" Value="0" />
      </BoundProperties>
    </ImageClip>
    <ImageClip extentID="5646" gapBefore="0" mediaItemID="5642" duration="0.20000000000000001">
      <Effects />
      <Transitions />
      <BoundProperties>
        <BoundPropertyInt Name="rotateStepNinety" Value="0" />
      </BoundProperties>
    </ImageClip>
    <ImageClip extentID="479" gapBefore="0" mediaItemID="475" duration="0.20000000000000001">
      <Effects />
      <Transitions />
      <BoundProperties>
        <BoundPropertyInt Name="rotateStepNinety" Value="0" />
      </BoundProperties>
    </ImageClip>
    <ImageClip extentID="5647" gapBefore="0" mediaItemID="5643" duration="0.20000000000000001">
      <Effects />
      <Transitions />
      <BoundProperties>
        <BoundPropertyInt Name="rotateStepNinety" Value="0" />
      </BoundProperties>
    </ImageClip>
    <ImageClip extentID="480" gapBefore="0" mediaItemID="476" duration="0.20000000000000001">
      <Effects />
      <Transitions />
      <BoundProperties>
        <BoundPropertyInt Name="rotateStepNinety" Value="0" />
      </BoundProperties>
    </ImageClip>
    <ImageClip extentID="5648" gapBefore="0" mediaItemID="5644" duration="0.20000000000000001">
      <Effects />
      <Transitions />
      <BoundProperties>
        <BoundPropertyInt Name="rotateStepNinety" Value="0" />
      </BoundProperties>
    </ImageClip>
    <ImageClip extentID="481" gapBefore="0" mediaItemID="477" duration="0.20000000000000001">
      <Effects />
      <Transitions />
      <BoundProperties>
        <BoundPropertyInt Name="rotateStepNinety" Value="0" />
      </BoundProperties>
    </ImageClip>
    <ImageClip extentID="5649" gapBefore="0" mediaItemID="5645" duration="0.20000000000000001">
      <Effects />
      <Transitions />
      <BoundProperties>
        <BoundPropertyInt Name="rotateStepNinety" Value="0" />
      </BoundProperties>
    </ImageClip>
    <ImageClip extentID="482" gapBefore="0" mediaItemID="478" duration="0.20000000000000001">
      <Effects />
      <Transitions />
      <BoundProperties>
        <BoundPropertyInt Name="rotateStepNinety" Value="0" />
      </BoundProperties>
    </ImageClip>
    <ImageClip extentID="5650" gapBefore="0" mediaItemID="5646" duration="0.20000000000000001">
      <Effects />
      <Transitions />
      <BoundProperties>
        <BoundPropertyInt Name="rotateStepNinety" Value="0" />
      </BoundProperties>
    </ImageClip>
    <ImageClip extentID="483" gapBefore="0" mediaItemID="479" duration="0.20000000000000001">
      <Effects />
      <Transitions />
      <BoundProperties>
        <BoundPropertyInt Name="rotateStepNinety" Value="0" />
      </BoundProperties>
    </ImageClip>
    <ImageClip extentID="5651" gapBefore="0" mediaItemID="5647" duration="0.20000000000000001">
      <Effects />
      <Transitions />
      <BoundProperties>
        <BoundPropertyInt Name="rotateStepNinety" Value="0" />
      </BoundProperties>
    </ImageClip>
    <ImageClip extentID="484" gapBefore="0" mediaItemID="480" duration="0.20000000000000001">
      <Effects />
      <Transitions />
      <BoundProperties>
        <BoundPropertyInt Name="rotateStepNinety" Value="0" />
      </BoundProperties>
    </ImageClip>
    <ImageClip extentID="5652" gapBefore="0" mediaItemID="5648" duration="0.20000000000000001">
      <Effects />
      <Transitions />
      <BoundProperties>
        <BoundPropertyInt Name="rotateStepNinety" Value="0" />
      </BoundProperties>
    </ImageClip>
    <ImageClip extentID="485" gapBefore="0" mediaItemID="481" duration="0.20000000000000001">
      <Effects />
      <Transitions />
      <BoundProperties>
        <BoundPropertyInt Name="rotateStepNinety" Value="0" />
      </BoundProperties>
    </ImageClip>
    <ImageClip extentID="5653" gapBefore="0" mediaItemID="5649" duration="0.20000000000000001">
      <Effects />
      <Transitions />
      <BoundProperties>
        <BoundPropertyInt Name="rotateStepNinety" Value="0" />
      </BoundProperties>
    </ImageClip>
    <ImageClip extentID="486" gapBefore="0" mediaItemID="482" duration="0.20000000000000001">
      <Effects />
      <Transitions />
      <BoundProperties>
        <BoundPropertyInt Name="rotateStepNinety" Value="0" />
      </BoundProperties>
    </ImageClip>
    <ImageClip extentID="5654" gapBefore="0" mediaItemID="5650" duration="0.20000000000000001">
      <Effects />
      <Transitions />
      <BoundProperties>
        <BoundPropertyInt Name="rotateStepNinety" Value="0" />
      </BoundProperties>
    </ImageClip>
    <ImageClip extentID="487" gapBefore="0" mediaItemID="483" duration="0.20000000000000001">
      <Effects />
      <Transitions />
      <BoundProperties>
        <BoundPropertyInt Name="rotateStepNinety" Value="0" />
      </BoundProperties>
    </ImageClip>
    <ImageClip extentID="5655" gapBefore="0" mediaItemID="5651" duration="0.20000000000000001">
      <Effects />
      <Transitions />
      <BoundProperties>
        <BoundPropertyInt Name="rotateStepNinety" Value="0" />
      </BoundProperties>
    </ImageClip>
    <ImageClip extentID="488" gapBefore="0" mediaItemID="484" duration="0.20000000000000001">
      <Effects />
      <Transitions />
      <BoundProperties>
        <BoundPropertyInt Name="rotateStepNinety" Value="0" />
      </BoundProperties>
    </ImageClip>
    <ImageClip extentID="5656" gapBefore="0" mediaItemID="5652" duration="0.20000000000000001">
      <Effects />
      <Transitions />
      <BoundProperties>
        <BoundPropertyInt Name="rotateStepNinety" Value="0" />
      </BoundProperties>
    </ImageClip>
    <ImageClip extentID="489" gapBefore="0" mediaItemID="485" duration="0.20000000000000001">
      <Effects />
      <Transitions />
      <BoundProperties>
        <BoundPropertyInt Name="rotateStepNinety" Value="0" />
      </BoundProperties>
    </ImageClip>
    <ImageClip extentID="5657" gapBefore="0" mediaItemID="5653" duration="0.20000000000000001">
      <Effects />
      <Transitions />
      <BoundProperties>
        <BoundPropertyInt Name="rotateStepNinety" Value="0" />
      </BoundProperties>
    </ImageClip>
    <ImageClip extentID="490" gapBefore="0" mediaItemID="486" duration="0.20000000000000001">
      <Effects />
      <Transitions />
      <BoundProperties>
        <BoundPropertyInt Name="rotateStepNinety" Value="0" />
      </BoundProperties>
    </ImageClip>
    <ImageClip extentID="5658" gapBefore="0" mediaItemID="5654" duration="0.20000000000000001">
      <Effects />
      <Transitions />
      <BoundProperties>
        <BoundPropertyInt Name="rotateStepNinety" Value="0" />
      </BoundProperties>
    </ImageClip>
    <ImageClip extentID="491" gapBefore="0" mediaItemID="487" duration="0.20000000000000001">
      <Effects />
      <Transitions />
      <BoundProperties>
        <BoundPropertyInt Name="rotateStepNinety" Value="0" />
      </BoundProperties>
    </ImageClip>
    <ImageClip extentID="5659" gapBefore="0" mediaItemID="5655" duration="0.20000000000000001">
      <Effects />
      <Transitions />
      <BoundProperties>
        <BoundPropertyInt Name="rotateStepNinety" Value="0" />
      </BoundProperties>
    </ImageClip>
    <ImageClip extentID="492" gapBefore="0" mediaItemID="488" duration="0.20000000000000001">
      <Effects />
      <Transitions />
      <BoundProperties>
        <BoundPropertyInt Name="rotateStepNinety" Value="0" />
      </BoundProperties>
    </ImageClip>
    <ImageClip extentID="5660" gapBefore="0" mediaItemID="5656" duration="0.20000000000000001">
      <Effects />
      <Transitions />
      <BoundProperties>
        <BoundPropertyInt Name="rotateStepNinety" Value="0" />
      </BoundProperties>
    </ImageClip>
    <ImageClip extentID="493" gapBefore="0" mediaItemID="489" duration="0.20000000000000001">
      <Effects />
      <Transitions />
      <BoundProperties>
        <BoundPropertyInt Name="rotateStepNinety" Value="0" />
      </BoundProperties>
    </ImageClip>
    <ImageClip extentID="5661" gapBefore="0" mediaItemID="5657" duration="0.20000000000000001">
      <Effects />
      <Transitions />
      <BoundProperties>
        <BoundPropertyInt Name="rotateStepNinety" Value="0" />
      </BoundProperties>
    </ImageClip>
    <ImageClip extentID="494" gapBefore="0" mediaItemID="490" duration="0.20000000000000001">
      <Effects />
      <Transitions />
      <BoundProperties>
        <BoundPropertyInt Name="rotateStepNinety" Value="0" />
      </BoundProperties>
    </ImageClip>
    <ImageClip extentID="5662" gapBefore="0" mediaItemID="5658" duration="0.20000000000000001">
      <Effects />
      <Transitions />
      <BoundProperties>
        <BoundPropertyInt Name="rotateStepNinety" Value="0" />
      </BoundProperties>
    </ImageClip>
    <ImageClip extentID="495" gapBefore="0" mediaItemID="491" duration="0.20000000000000001">
      <Effects />
      <Transitions />
      <BoundProperties>
        <BoundPropertyInt Name="rotateStepNinety" Value="0" />
      </BoundProperties>
    </ImageClip>
    <ImageClip extentID="5663" gapBefore="0" mediaItemID="5659" duration="0.20000000000000001">
      <Effects />
      <Transitions />
      <BoundProperties>
        <BoundPropertyInt Name="rotateStepNinety" Value="0" />
      </BoundProperties>
    </ImageClip>
    <ImageClip extentID="496" gapBefore="0" mediaItemID="492" duration="0.20000000000000001">
      <Effects />
      <Transitions />
      <BoundProperties>
        <BoundPropertyInt Name="rotateStepNinety" Value="0" />
      </BoundProperties>
    </ImageClip>
    <ImageClip extentID="5664" gapBefore="0" mediaItemID="5660" duration="0.20000000000000001">
      <Effects />
      <Transitions />
      <BoundProperties>
        <BoundPropertyInt Name="rotateStepNinety" Value="0" />
      </BoundProperties>
    </ImageClip>
    <ImageClip extentID="497" gapBefore="0" mediaItemID="493" duration="0.20000000000000001">
      <Effects />
      <Transitions />
      <BoundProperties>
        <BoundPropertyInt Name="rotateStepNinety" Value="0" />
      </BoundProperties>
    </ImageClip>
    <ImageClip extentID="5665" gapBefore="0" mediaItemID="5661" duration="0.20000000000000001">
      <Effects />
      <Transitions />
      <BoundProperties>
        <BoundPropertyInt Name="rotateStepNinety" Value="0" />
      </BoundProperties>
    </ImageClip>
    <ImageClip extentID="498" gapBefore="0" mediaItemID="494" duration="0.20000000000000001">
      <Effects />
      <Transitions />
      <BoundProperties>
        <BoundPropertyInt Name="rotateStepNinety" Value="0" />
      </BoundProperties>
    </ImageClip>
    <ImageClip extentID="5666" gapBefore="0" mediaItemID="5662" duration="0.20000000000000001">
      <Effects />
      <Transitions />
      <BoundProperties>
        <BoundPropertyInt Name="rotateStepNinety" Value="0" />
      </BoundProperties>
    </ImageClip>
    <ImageClip extentID="499" gapBefore="0" mediaItemID="495" duration="0.20000000000000001">
      <Effects />
      <Transitions />
      <BoundProperties>
        <BoundPropertyInt Name="rotateStepNinety" Value="0" />
      </BoundProperties>
    </ImageClip>
    <ImageClip extentID="5667" gapBefore="0" mediaItemID="5663" duration="0.20000000000000001">
      <Effects />
      <Transitions />
      <BoundProperties>
        <BoundPropertyInt Name="rotateStepNinety" Value="0" />
      </BoundProperties>
    </ImageClip>
    <ImageClip extentID="500" gapBefore="0" mediaItemID="496" duration="0.20000000000000001">
      <Effects />
      <Transitions />
      <BoundProperties>
        <BoundPropertyInt Name="rotateStepNinety" Value="0" />
      </BoundProperties>
    </ImageClip>
    <ImageClip extentID="5668" gapBefore="0" mediaItemID="5664" duration="0.20000000000000001">
      <Effects />
      <Transitions />
      <BoundProperties>
        <BoundPropertyInt Name="rotateStepNinety" Value="0" />
      </BoundProperties>
    </ImageClip>
    <ImageClip extentID="501" gapBefore="0" mediaItemID="497" duration="0.20000000000000001">
      <Effects />
      <Transitions />
      <BoundProperties>
        <BoundPropertyInt Name="rotateStepNinety" Value="0" />
      </BoundProperties>
    </ImageClip>
    <ImageClip extentID="5669" gapBefore="0" mediaItemID="5665" duration="0.20000000000000001">
      <Effects />
      <Transitions />
      <BoundProperties>
        <BoundPropertyInt Name="rotateStepNinety" Value="0" />
      </BoundProperties>
    </ImageClip>
    <ImageClip extentID="502" gapBefore="0" mediaItemID="498" duration="0.20000000000000001">
      <Effects />
      <Transitions />
      <BoundProperties>
        <BoundPropertyInt Name="rotateStepNinety" Value="0" />
      </BoundProperties>
    </ImageClip>
    <ImageClip extentID="5670" gapBefore="0" mediaItemID="5666" duration="0.20000000000000001">
      <Effects />
      <Transitions />
      <BoundProperties>
        <BoundPropertyInt Name="rotateStepNinety" Value="0" />
      </BoundProperties>
    </ImageClip>
    <ImageClip extentID="503" gapBefore="0" mediaItemID="499" duration="0.20000000000000001">
      <Effects />
      <Transitions />
      <BoundProperties>
        <BoundPropertyInt Name="rotateStepNinety" Value="0" />
      </BoundProperties>
    </ImageClip>
    <ImageClip extentID="5671" gapBefore="0" mediaItemID="5667" duration="0.20000000000000001">
      <Effects />
      <Transitions />
      <BoundProperties>
        <BoundPropertyInt Name="rotateStepNinety" Value="0" />
      </BoundProperties>
    </ImageClip>
    <ImageClip extentID="504" gapBefore="0" mediaItemID="500" duration="0.20000000000000001">
      <Effects />
      <Transitions />
      <BoundProperties>
        <BoundPropertyInt Name="rotateStepNinety" Value="0" />
      </BoundProperties>
    </ImageClip>
    <ImageClip extentID="5672" gapBefore="0" mediaItemID="5668" duration="0.20000000000000001">
      <Effects />
      <Transitions />
      <BoundProperties>
        <BoundPropertyInt Name="rotateStepNinety" Value="0" />
      </BoundProperties>
    </ImageClip>
    <ImageClip extentID="505" gapBefore="0" mediaItemID="501" duration="0.20000000000000001">
      <Effects />
      <Transitions />
      <BoundProperties>
        <BoundPropertyInt Name="rotateStepNinety" Value="0" />
      </BoundProperties>
    </ImageClip>
    <ImageClip extentID="5673" gapBefore="0" mediaItemID="5669" duration="0.20000000000000001">
      <Effects />
      <Transitions />
      <BoundProperties>
        <BoundPropertyInt Name="rotateStepNinety" Value="0" />
      </BoundProperties>
    </ImageClip>
    <ImageClip extentID="506" gapBefore="0" mediaItemID="502" duration="0.20000000000000001">
      <Effects />
      <Transitions />
      <BoundProperties>
        <BoundPropertyInt Name="rotateStepNinety" Value="0" />
      </BoundProperties>
    </ImageClip>
    <ImageClip extentID="5674" gapBefore="0" mediaItemID="5670" duration="0.20000000000000001">
      <Effects />
      <Transitions />
      <BoundProperties>
        <BoundPropertyInt Name="rotateStepNinety" Value="0" />
      </BoundProperties>
    </ImageClip>
    <ImageClip extentID="507" gapBefore="0" mediaItemID="503" duration="0.20000000000000001">
      <Effects />
      <Transitions />
      <BoundProperties>
        <BoundPropertyInt Name="rotateStepNinety" Value="0" />
      </BoundProperties>
    </ImageClip>
    <ImageClip extentID="5675" gapBefore="0" mediaItemID="5671" duration="0.20000000000000001">
      <Effects />
      <Transitions />
      <BoundProperties>
        <BoundPropertyInt Name="rotateStepNinety" Value="0" />
      </BoundProperties>
    </ImageClip>
    <ImageClip extentID="508" gapBefore="0" mediaItemID="504" duration="0.20000000000000001">
      <Effects />
      <Transitions />
      <BoundProperties>
        <BoundPropertyInt Name="rotateStepNinety" Value="0" />
      </BoundProperties>
    </ImageClip>
    <ImageClip extentID="5676" gapBefore="0" mediaItemID="5672" duration="0.20000000000000001">
      <Effects />
      <Transitions />
      <BoundProperties>
        <BoundPropertyInt Name="rotateStepNinety" Value="0" />
      </BoundProperties>
    </ImageClip>
    <ImageClip extentID="509" gapBefore="0" mediaItemID="505" duration="0.20000000000000001">
      <Effects />
      <Transitions />
      <BoundProperties>
        <BoundPropertyInt Name="rotateStepNinety" Value="0" />
      </BoundProperties>
    </ImageClip>
    <ImageClip extentID="5677" gapBefore="0" mediaItemID="5673" duration="0.20000000000000001">
      <Effects />
      <Transitions />
      <BoundProperties>
        <BoundPropertyInt Name="rotateStepNinety" Value="0" />
      </BoundProperties>
    </ImageClip>
    <ImageClip extentID="510" gapBefore="0" mediaItemID="506" duration="0.20000000000000001">
      <Effects />
      <Transitions />
      <BoundProperties>
        <BoundPropertyInt Name="rotateStepNinety" Value="0" />
      </BoundProperties>
    </ImageClip>
    <ImageClip extentID="5678" gapBefore="0" mediaItemID="5674" duration="0.20000000000000001">
      <Effects />
      <Transitions />
      <BoundProperties>
        <BoundPropertyInt Name="rotateStepNinety" Value="0" />
      </BoundProperties>
    </ImageClip>
    <ImageClip extentID="511" gapBefore="0" mediaItemID="507" duration="0.20000000000000001">
      <Effects />
      <Transitions />
      <BoundProperties>
        <BoundPropertyInt Name="rotateStepNinety" Value="0" />
      </BoundProperties>
    </ImageClip>
    <ImageClip extentID="5679" gapBefore="0" mediaItemID="5675" duration="0.20000000000000001">
      <Effects />
      <Transitions />
      <BoundProperties>
        <BoundPropertyInt Name="rotateStepNinety" Value="0" />
      </BoundProperties>
    </ImageClip>
    <ImageClip extentID="512" gapBefore="0" mediaItemID="508" duration="0.20000000000000001">
      <Effects />
      <Transitions />
      <BoundProperties>
        <BoundPropertyInt Name="rotateStepNinety" Value="0" />
      </BoundProperties>
    </ImageClip>
    <ImageClip extentID="5680" gapBefore="0" mediaItemID="5676" duration="0.20000000000000001">
      <Effects />
      <Transitions />
      <BoundProperties>
        <BoundPropertyInt Name="rotateStepNinety" Value="0" />
      </BoundProperties>
    </ImageClip>
    <ImageClip extentID="513" gapBefore="0" mediaItemID="509" duration="0.20000000000000001">
      <Effects />
      <Transitions />
      <BoundProperties>
        <BoundPropertyInt Name="rotateStepNinety" Value="0" />
      </BoundProperties>
    </ImageClip>
    <ImageClip extentID="5681" gapBefore="0" mediaItemID="5677" duration="0.20000000000000001">
      <Effects />
      <Transitions />
      <BoundProperties>
        <BoundPropertyInt Name="rotateStepNinety" Value="0" />
      </BoundProperties>
    </ImageClip>
    <ImageClip extentID="514" gapBefore="0" mediaItemID="510" duration="0.20000000000000001">
      <Effects />
      <Transitions />
      <BoundProperties>
        <BoundPropertyInt Name="rotateStepNinety" Value="0" />
      </BoundProperties>
    </ImageClip>
    <ImageClip extentID="5682" gapBefore="0" mediaItemID="5678" duration="0.20000000000000001">
      <Effects />
      <Transitions />
      <BoundProperties>
        <BoundPropertyInt Name="rotateStepNinety" Value="0" />
      </BoundProperties>
    </ImageClip>
    <ImageClip extentID="515" gapBefore="0" mediaItemID="511" duration="0.20000000000000001">
      <Effects />
      <Transitions />
      <BoundProperties>
        <BoundPropertyInt Name="rotateStepNinety" Value="0" />
      </BoundProperties>
    </ImageClip>
    <ImageClip extentID="5683" gapBefore="0" mediaItemID="5679" duration="0.20000000000000001">
      <Effects />
      <Transitions />
      <BoundProperties>
        <BoundPropertyInt Name="rotateStepNinety" Value="0" />
      </BoundProperties>
    </ImageClip>
    <ImageClip extentID="516" gapBefore="0" mediaItemID="512" duration="0.20000000000000001">
      <Effects />
      <Transitions />
      <BoundProperties>
        <BoundPropertyInt Name="rotateStepNinety" Value="0" />
      </BoundProperties>
    </ImageClip>
    <ImageClip extentID="5684" gapBefore="0" mediaItemID="5680" duration="0.20000000000000001">
      <Effects />
      <Transitions />
      <BoundProperties>
        <BoundPropertyInt Name="rotateStepNinety" Value="0" />
      </BoundProperties>
    </ImageClip>
    <ImageClip extentID="517" gapBefore="0" mediaItemID="513" duration="0.20000000000000001">
      <Effects />
      <Transitions />
      <BoundProperties>
        <BoundPropertyInt Name="rotateStepNinety" Value="0" />
      </BoundProperties>
    </ImageClip>
    <ImageClip extentID="5685" gapBefore="0" mediaItemID="5681" duration="0.20000000000000001">
      <Effects />
      <Transitions />
      <BoundProperties>
        <BoundPropertyInt Name="rotateStepNinety" Value="0" />
      </BoundProperties>
    </ImageClip>
    <ImageClip extentID="518" gapBefore="0" mediaItemID="514" duration="0.20000000000000001">
      <Effects />
      <Transitions />
      <BoundProperties>
        <BoundPropertyInt Name="rotateStepNinety" Value="0" />
      </BoundProperties>
    </ImageClip>
    <ImageClip extentID="5686" gapBefore="0" mediaItemID="5682" duration="0.20000000000000001">
      <Effects />
      <Transitions />
      <BoundProperties>
        <BoundPropertyInt Name="rotateStepNinety" Value="0" />
      </BoundProperties>
    </ImageClip>
    <ImageClip extentID="519" gapBefore="0" mediaItemID="515" duration="0.20000000000000001">
      <Effects />
      <Transitions />
      <BoundProperties>
        <BoundPropertyInt Name="rotateStepNinety" Value="0" />
      </BoundProperties>
    </ImageClip>
    <ImageClip extentID="5687" gapBefore="0" mediaItemID="5683" duration="0.20000000000000001">
      <Effects />
      <Transitions />
      <BoundProperties>
        <BoundPropertyInt Name="rotateStepNinety" Value="0" />
      </BoundProperties>
    </ImageClip>
    <ImageClip extentID="520" gapBefore="0" mediaItemID="516" duration="0.20000000000000001">
      <Effects />
      <Transitions />
      <BoundProperties>
        <BoundPropertyInt Name="rotateStepNinety" Value="0" />
      </BoundProperties>
    </ImageClip>
    <ImageClip extentID="5688" gapBefore="0" mediaItemID="5684" duration="0.20000000000000001">
      <Effects />
      <Transitions />
      <BoundProperties>
        <BoundPropertyInt Name="rotateStepNinety" Value="0" />
      </BoundProperties>
    </ImageClip>
    <ImageClip extentID="521" gapBefore="0" mediaItemID="517" duration="0.20000000000000001">
      <Effects />
      <Transitions />
      <BoundProperties>
        <BoundPropertyInt Name="rotateStepNinety" Value="0" />
      </BoundProperties>
    </ImageClip>
    <ImageClip extentID="5689" gapBefore="0" mediaItemID="5685" duration="0.20000000000000001">
      <Effects />
      <Transitions />
      <BoundProperties>
        <BoundPropertyInt Name="rotateStepNinety" Value="0" />
      </BoundProperties>
    </ImageClip>
    <ImageClip extentID="522" gapBefore="0" mediaItemID="518" duration="0.20000000000000001">
      <Effects />
      <Transitions />
      <BoundProperties>
        <BoundPropertyInt Name="rotateStepNinety" Value="0" />
      </BoundProperties>
    </ImageClip>
    <ImageClip extentID="5690" gapBefore="0" mediaItemID="5686" duration="0.20000000000000001">
      <Effects />
      <Transitions />
      <BoundProperties>
        <BoundPropertyInt Name="rotateStepNinety" Value="0" />
      </BoundProperties>
    </ImageClip>
    <ImageClip extentID="523" gapBefore="0" mediaItemID="519" duration="0.20000000000000001">
      <Effects />
      <Transitions />
      <BoundProperties>
        <BoundPropertyInt Name="rotateStepNinety" Value="0" />
      </BoundProperties>
    </ImageClip>
    <ImageClip extentID="5691" gapBefore="0" mediaItemID="5687" duration="0.20000000000000001">
      <Effects />
      <Transitions />
      <BoundProperties>
        <BoundPropertyInt Name="rotateStepNinety" Value="0" />
      </BoundProperties>
    </ImageClip>
    <ImageClip extentID="524" gapBefore="0" mediaItemID="520" duration="0.20000000000000001">
      <Effects />
      <Transitions />
      <BoundProperties>
        <BoundPropertyInt Name="rotateStepNinety" Value="0" />
      </BoundProperties>
    </ImageClip>
    <ImageClip extentID="5692" gapBefore="0" mediaItemID="5688" duration="0.20000000000000001">
      <Effects />
      <Transitions />
      <BoundProperties>
        <BoundPropertyInt Name="rotateStepNinety" Value="0" />
      </BoundProperties>
    </ImageClip>
    <ImageClip extentID="525" gapBefore="0" mediaItemID="521" duration="0.20000000000000001">
      <Effects />
      <Transitions />
      <BoundProperties>
        <BoundPropertyInt Name="rotateStepNinety" Value="0" />
      </BoundProperties>
    </ImageClip>
    <ImageClip extentID="5693" gapBefore="0" mediaItemID="5689" duration="0.20000000000000001">
      <Effects />
      <Transitions />
      <BoundProperties>
        <BoundPropertyInt Name="rotateStepNinety" Value="0" />
      </BoundProperties>
    </ImageClip>
    <ImageClip extentID="526" gapBefore="0" mediaItemID="522" duration="0.20000000000000001">
      <Effects />
      <Transitions />
      <BoundProperties>
        <BoundPropertyInt Name="rotateStepNinety" Value="0" />
      </BoundProperties>
    </ImageClip>
    <ImageClip extentID="5694" gapBefore="0" mediaItemID="5690" duration="0.20000000000000001">
      <Effects />
      <Transitions />
      <BoundProperties>
        <BoundPropertyInt Name="rotateStepNinety" Value="0" />
      </BoundProperties>
    </ImageClip>
    <ImageClip extentID="527" gapBefore="0" mediaItemID="523" duration="0.20000000000000001">
      <Effects />
      <Transitions />
      <BoundProperties>
        <BoundPropertyInt Name="rotateStepNinety" Value="0" />
      </BoundProperties>
    </ImageClip>
    <ImageClip extentID="5695" gapBefore="0" mediaItemID="5691" duration="0.20000000000000001">
      <Effects />
      <Transitions />
      <BoundProperties>
        <BoundPropertyInt Name="rotateStepNinety" Value="0" />
      </BoundProperties>
    </ImageClip>
    <ImageClip extentID="528" gapBefore="0" mediaItemID="524" duration="0.20000000000000001">
      <Effects />
      <Transitions />
      <BoundProperties>
        <BoundPropertyInt Name="rotateStepNinety" Value="0" />
      </BoundProperties>
    </ImageClip>
    <ImageClip extentID="5696" gapBefore="0" mediaItemID="5692" duration="0.20000000000000001">
      <Effects />
      <Transitions />
      <BoundProperties>
        <BoundPropertyInt Name="rotateStepNinety" Value="0" />
      </BoundProperties>
    </ImageClip>
    <ImageClip extentID="529" gapBefore="0" mediaItemID="525" duration="0.20000000000000001">
      <Effects />
      <Transitions />
      <BoundProperties>
        <BoundPropertyInt Name="rotateStepNinety" Value="0" />
      </BoundProperties>
    </ImageClip>
    <ImageClip extentID="5697" gapBefore="0" mediaItemID="5693" duration="0.20000000000000001">
      <Effects />
      <Transitions />
      <BoundProperties>
        <BoundPropertyInt Name="rotateStepNinety" Value="0" />
      </BoundProperties>
    </ImageClip>
    <ImageClip extentID="530" gapBefore="0" mediaItemID="526" duration="0.20000000000000001">
      <Effects />
      <Transitions />
      <BoundProperties>
        <BoundPropertyInt Name="rotateStepNinety" Value="0" />
      </BoundProperties>
    </ImageClip>
    <ImageClip extentID="5698" gapBefore="0" mediaItemID="5694" duration="0.20000000000000001">
      <Effects />
      <Transitions />
      <BoundProperties>
        <BoundPropertyInt Name="rotateStepNinety" Value="0" />
      </BoundProperties>
    </ImageClip>
    <ImageClip extentID="531" gapBefore="0" mediaItemID="527" duration="0.20000000000000001">
      <Effects />
      <Transitions />
      <BoundProperties>
        <BoundPropertyInt Name="rotateStepNinety" Value="0" />
      </BoundProperties>
    </ImageClip>
    <ImageClip extentID="5699" gapBefore="0" mediaItemID="5695" duration="0.20000000000000001">
      <Effects />
      <Transitions />
      <BoundProperties>
        <BoundPropertyInt Name="rotateStepNinety" Value="0" />
      </BoundProperties>
    </ImageClip>
    <ImageClip extentID="532" gapBefore="0" mediaItemID="528" duration="0.20000000000000001">
      <Effects />
      <Transitions />
      <BoundProperties>
        <BoundPropertyInt Name="rotateStepNinety" Value="0" />
      </BoundProperties>
    </ImageClip>
    <ImageClip extentID="5700" gapBefore="0" mediaItemID="5696" duration="0.20000000000000001">
      <Effects />
      <Transitions />
      <BoundProperties>
        <BoundPropertyInt Name="rotateStepNinety" Value="0" />
      </BoundProperties>
    </ImageClip>
    <ImageClip extentID="533" gapBefore="0" mediaItemID="529" duration="0.20000000000000001">
      <Effects />
      <Transitions />
      <BoundProperties>
        <BoundPropertyInt Name="rotateStepNinety" Value="0" />
      </BoundProperties>
    </ImageClip>
    <ImageClip extentID="5701" gapBefore="0" mediaItemID="5697" duration="0.20000000000000001">
      <Effects />
      <Transitions />
      <BoundProperties>
        <BoundPropertyInt Name="rotateStepNinety" Value="0" />
      </BoundProperties>
    </ImageClip>
    <ImageClip extentID="534" gapBefore="0" mediaItemID="530" duration="0.20000000000000001">
      <Effects />
      <Transitions />
      <BoundProperties>
        <BoundPropertyInt Name="rotateStepNinety" Value="0" />
      </BoundProperties>
    </ImageClip>
    <ImageClip extentID="5702" gapBefore="0" mediaItemID="5698" duration="0.20000000000000001">
      <Effects />
      <Transitions />
      <BoundProperties>
        <BoundPropertyInt Name="rotateStepNinety" Value="0" />
      </BoundProperties>
    </ImageClip>
    <ImageClip extentID="535" gapBefore="0" mediaItemID="531" duration="0.20000000000000001">
      <Effects />
      <Transitions />
      <BoundProperties>
        <BoundPropertyInt Name="rotateStepNinety" Value="0" />
      </BoundProperties>
    </ImageClip>
    <ImageClip extentID="5703" gapBefore="0" mediaItemID="5699" duration="0.20000000000000001">
      <Effects />
      <Transitions />
      <BoundProperties>
        <BoundPropertyInt Name="rotateStepNinety" Value="0" />
      </BoundProperties>
    </ImageClip>
    <ImageClip extentID="536" gapBefore="0" mediaItemID="532" duration="0.20000000000000001">
      <Effects />
      <Transitions />
      <BoundProperties>
        <BoundPropertyInt Name="rotateStepNinety" Value="0" />
      </BoundProperties>
    </ImageClip>
    <ImageClip extentID="5704" gapBefore="0" mediaItemID="5700" duration="0.20000000000000001">
      <Effects />
      <Transitions />
      <BoundProperties>
        <BoundPropertyInt Name="rotateStepNinety" Value="0" />
      </BoundProperties>
    </ImageClip>
    <ImageClip extentID="537" gapBefore="0" mediaItemID="533" duration="0.20000000000000001">
      <Effects />
      <Transitions />
      <BoundProperties>
        <BoundPropertyInt Name="rotateStepNinety" Value="0" />
      </BoundProperties>
    </ImageClip>
    <ImageClip extentID="5705" gapBefore="0" mediaItemID="5701" duration="0.20000000000000001">
      <Effects />
      <Transitions />
      <BoundProperties>
        <BoundPropertyInt Name="rotateStepNinety" Value="0" />
      </BoundProperties>
    </ImageClip>
    <ImageClip extentID="538" gapBefore="0" mediaItemID="534" duration="0.20000000000000001">
      <Effects />
      <Transitions />
      <BoundProperties>
        <BoundPropertyInt Name="rotateStepNinety" Value="0" />
      </BoundProperties>
    </ImageClip>
    <ImageClip extentID="5706" gapBefore="0" mediaItemID="5702" duration="0.20000000000000001">
      <Effects />
      <Transitions />
      <BoundProperties>
        <BoundPropertyInt Name="rotateStepNinety" Value="0" />
      </BoundProperties>
    </ImageClip>
    <ImageClip extentID="539" gapBefore="0" mediaItemID="535" duration="0.20000000000000001">
      <Effects />
      <Transitions />
      <BoundProperties>
        <BoundPropertyInt Name="rotateStepNinety" Value="0" />
      </BoundProperties>
    </ImageClip>
    <ImageClip extentID="5707" gapBefore="0" mediaItemID="5703" duration="0.20000000000000001">
      <Effects />
      <Transitions />
      <BoundProperties>
        <BoundPropertyInt Name="rotateStepNinety" Value="0" />
      </BoundProperties>
    </ImageClip>
    <ImageClip extentID="540" gapBefore="0" mediaItemID="536" duration="0.20000000000000001">
      <Effects />
      <Transitions />
      <BoundProperties>
        <BoundPropertyInt Name="rotateStepNinety" Value="0" />
      </BoundProperties>
    </ImageClip>
    <ImageClip extentID="5708" gapBefore="0" mediaItemID="5704" duration="0.20000000000000001">
      <Effects />
      <Transitions />
      <BoundProperties>
        <BoundPropertyInt Name="rotateStepNinety" Value="0" />
      </BoundProperties>
    </ImageClip>
    <ImageClip extentID="541" gapBefore="0" mediaItemID="537" duration="0.20000000000000001">
      <Effects />
      <Transitions />
      <BoundProperties>
        <BoundPropertyInt Name="rotateStepNinety" Value="0" />
      </BoundProperties>
    </ImageClip>
    <ImageClip extentID="5709" gapBefore="0" mediaItemID="5705" duration="0.20000000000000001">
      <Effects />
      <Transitions />
      <BoundProperties>
        <BoundPropertyInt Name="rotateStepNinety" Value="0" />
      </BoundProperties>
    </ImageClip>
    <ImageClip extentID="542" gapBefore="0" mediaItemID="538" duration="0.20000000000000001">
      <Effects />
      <Transitions />
      <BoundProperties>
        <BoundPropertyInt Name="rotateStepNinety" Value="0" />
      </BoundProperties>
    </ImageClip>
    <ImageClip extentID="5710" gapBefore="0" mediaItemID="5706" duration="0.20000000000000001">
      <Effects />
      <Transitions />
      <BoundProperties>
        <BoundPropertyInt Name="rotateStepNinety" Value="0" />
      </BoundProperties>
    </ImageClip>
    <ImageClip extentID="543" gapBefore="0" mediaItemID="539" duration="0.20000000000000001">
      <Effects />
      <Transitions />
      <BoundProperties>
        <BoundPropertyInt Name="rotateStepNinety" Value="0" />
      </BoundProperties>
    </ImageClip>
    <ImageClip extentID="5711" gapBefore="0" mediaItemID="5707" duration="0.20000000000000001">
      <Effects />
      <Transitions />
      <BoundProperties>
        <BoundPropertyInt Name="rotateStepNinety" Value="0" />
      </BoundProperties>
    </ImageClip>
    <ImageClip extentID="544" gapBefore="0" mediaItemID="540" duration="0.20000000000000001">
      <Effects />
      <Transitions />
      <BoundProperties>
        <BoundPropertyInt Name="rotateStepNinety" Value="0" />
      </BoundProperties>
    </ImageClip>
    <ImageClip extentID="5712" gapBefore="0" mediaItemID="5708" duration="0.20000000000000001">
      <Effects />
      <Transitions />
      <BoundProperties>
        <BoundPropertyInt Name="rotateStepNinety" Value="0" />
      </BoundProperties>
    </ImageClip>
    <ImageClip extentID="545" gapBefore="0" mediaItemID="541" duration="0.20000000000000001">
      <Effects />
      <Transitions />
      <BoundProperties>
        <BoundPropertyInt Name="rotateStepNinety" Value="0" />
      </BoundProperties>
    </ImageClip>
    <ImageClip extentID="5713" gapBefore="0" mediaItemID="5709" duration="0.20000000000000001">
      <Effects />
      <Transitions />
      <BoundProperties>
        <BoundPropertyInt Name="rotateStepNinety" Value="0" />
      </BoundProperties>
    </ImageClip>
    <ImageClip extentID="546" gapBefore="0" mediaItemID="542" duration="0.20000000000000001">
      <Effects />
      <Transitions />
      <BoundProperties>
        <BoundPropertyInt Name="rotateStepNinety" Value="0" />
      </BoundProperties>
    </ImageClip>
    <ImageClip extentID="5714" gapBefore="0" mediaItemID="5710" duration="0.20000000000000001">
      <Effects />
      <Transitions />
      <BoundProperties>
        <BoundPropertyInt Name="rotateStepNinety" Value="0" />
      </BoundProperties>
    </ImageClip>
    <ImageClip extentID="547" gapBefore="0" mediaItemID="543" duration="0.20000000000000001">
      <Effects />
      <Transitions />
      <BoundProperties>
        <BoundPropertyInt Name="rotateStepNinety" Value="0" />
      </BoundProperties>
    </ImageClip>
    <ImageClip extentID="5715" gapBefore="0" mediaItemID="5711" duration="0.20000000000000001">
      <Effects />
      <Transitions />
      <BoundProperties>
        <BoundPropertyInt Name="rotateStepNinety" Value="0" />
      </BoundProperties>
    </ImageClip>
    <ImageClip extentID="548" gapBefore="0" mediaItemID="544" duration="0.20000000000000001">
      <Effects />
      <Transitions />
      <BoundProperties>
        <BoundPropertyInt Name="rotateStepNinety" Value="0" />
      </BoundProperties>
    </ImageClip>
    <ImageClip extentID="5716" gapBefore="0" mediaItemID="5712" duration="0.20000000000000001">
      <Effects />
      <Transitions />
      <BoundProperties>
        <BoundPropertyInt Name="rotateStepNinety" Value="0" />
      </BoundProperties>
    </ImageClip>
    <ImageClip extentID="549" gapBefore="0" mediaItemID="545" duration="0.20000000000000001">
      <Effects />
      <Transitions />
      <BoundProperties>
        <BoundPropertyInt Name="rotateStepNinety" Value="0" />
      </BoundProperties>
    </ImageClip>
    <ImageClip extentID="5717" gapBefore="0" mediaItemID="5713" duration="0.20000000000000001">
      <Effects />
      <Transitions />
      <BoundProperties>
        <BoundPropertyInt Name="rotateStepNinety" Value="0" />
      </BoundProperties>
    </ImageClip>
    <ImageClip extentID="550" gapBefore="0" mediaItemID="546" duration="0.20000000000000001">
      <Effects />
      <Transitions />
      <BoundProperties>
        <BoundPropertyInt Name="rotateStepNinety" Value="0" />
      </BoundProperties>
    </ImageClip>
    <ImageClip extentID="5718" gapBefore="0" mediaItemID="5714" duration="0.20000000000000001">
      <Effects />
      <Transitions />
      <BoundProperties>
        <BoundPropertyInt Name="rotateStepNinety" Value="0" />
      </BoundProperties>
    </ImageClip>
    <ImageClip extentID="551" gapBefore="0" mediaItemID="547" duration="0.20000000000000001">
      <Effects />
      <Transitions />
      <BoundProperties>
        <BoundPropertyInt Name="rotateStepNinety" Value="0" />
      </BoundProperties>
    </ImageClip>
    <ImageClip extentID="5719" gapBefore="0" mediaItemID="5715" duration="0.20000000000000001">
      <Effects />
      <Transitions />
      <BoundProperties>
        <BoundPropertyInt Name="rotateStepNinety" Value="0" />
      </BoundProperties>
    </ImageClip>
    <ImageClip extentID="552" gapBefore="0" mediaItemID="548" duration="0.20000000000000001">
      <Effects />
      <Transitions />
      <BoundProperties>
        <BoundPropertyInt Name="rotateStepNinety" Value="0" />
      </BoundProperties>
    </ImageClip>
    <ImageClip extentID="5720" gapBefore="0" mediaItemID="5716" duration="0.20000000000000001">
      <Effects />
      <Transitions />
      <BoundProperties>
        <BoundPropertyInt Name="rotateStepNinety" Value="0" />
      </BoundProperties>
    </ImageClip>
    <ImageClip extentID="553" gapBefore="0" mediaItemID="549" duration="0.20000000000000001">
      <Effects />
      <Transitions />
      <BoundProperties>
        <BoundPropertyInt Name="rotateStepNinety" Value="0" />
      </BoundProperties>
    </ImageClip>
    <ImageClip extentID="5721" gapBefore="0" mediaItemID="5717" duration="0.20000000000000001">
      <Effects />
      <Transitions />
      <BoundProperties>
        <BoundPropertyInt Name="rotateStepNinety" Value="0" />
      </BoundProperties>
    </ImageClip>
    <ImageClip extentID="554" gapBefore="0" mediaItemID="550" duration="0.20000000000000001">
      <Effects />
      <Transitions />
      <BoundProperties>
        <BoundPropertyInt Name="rotateStepNinety" Value="0" />
      </BoundProperties>
    </ImageClip>
    <ImageClip extentID="5722" gapBefore="0" mediaItemID="5718" duration="0.20000000000000001">
      <Effects />
      <Transitions />
      <BoundProperties>
        <BoundPropertyInt Name="rotateStepNinety" Value="0" />
      </BoundProperties>
    </ImageClip>
    <ImageClip extentID="555" gapBefore="0" mediaItemID="551" duration="0.20000000000000001">
      <Effects />
      <Transitions />
      <BoundProperties>
        <BoundPropertyInt Name="rotateStepNinety" Value="0" />
      </BoundProperties>
    </ImageClip>
    <ImageClip extentID="5723" gapBefore="0" mediaItemID="5719" duration="0.20000000000000001">
      <Effects />
      <Transitions />
      <BoundProperties>
        <BoundPropertyInt Name="rotateStepNinety" Value="0" />
      </BoundProperties>
    </ImageClip>
    <ImageClip extentID="556" gapBefore="0" mediaItemID="552" duration="0.20000000000000001">
      <Effects />
      <Transitions />
      <BoundProperties>
        <BoundPropertyInt Name="rotateStepNinety" Value="0" />
      </BoundProperties>
    </ImageClip>
    <ImageClip extentID="5724" gapBefore="0" mediaItemID="5720" duration="0.20000000000000001">
      <Effects />
      <Transitions />
      <BoundProperties>
        <BoundPropertyInt Name="rotateStepNinety" Value="0" />
      </BoundProperties>
    </ImageClip>
    <ImageClip extentID="557" gapBefore="0" mediaItemID="553" duration="0.20000000000000001">
      <Effects />
      <Transitions />
      <BoundProperties>
        <BoundPropertyInt Name="rotateStepNinety" Value="0" />
      </BoundProperties>
    </ImageClip>
    <ImageClip extentID="5725" gapBefore="0" mediaItemID="5721" duration="0.20000000000000001">
      <Effects />
      <Transitions />
      <BoundProperties>
        <BoundPropertyInt Name="rotateStepNinety" Value="0" />
      </BoundProperties>
    </ImageClip>
    <ImageClip extentID="558" gapBefore="0" mediaItemID="554" duration="0.20000000000000001">
      <Effects />
      <Transitions />
      <BoundProperties>
        <BoundPropertyInt Name="rotateStepNinety" Value="0" />
      </BoundProperties>
    </ImageClip>
    <ImageClip extentID="5726" gapBefore="0" mediaItemID="5722" duration="0.20000000000000001">
      <Effects />
      <Transitions />
      <BoundProperties>
        <BoundPropertyInt Name="rotateStepNinety" Value="0" />
      </BoundProperties>
    </ImageClip>
    <ImageClip extentID="559" gapBefore="0" mediaItemID="555" duration="0.20000000000000001">
      <Effects />
      <Transitions />
      <BoundProperties>
        <BoundPropertyInt Name="rotateStepNinety" Value="0" />
      </BoundProperties>
    </ImageClip>
    <ImageClip extentID="5727" gapBefore="0" mediaItemID="5723" duration="0.20000000000000001">
      <Effects />
      <Transitions />
      <BoundProperties>
        <BoundPropertyInt Name="rotateStepNinety" Value="0" />
      </BoundProperties>
    </ImageClip>
    <ImageClip extentID="560" gapBefore="0" mediaItemID="556" duration="0.20000000000000001">
      <Effects />
      <Transitions />
      <BoundProperties>
        <BoundPropertyInt Name="rotateStepNinety" Value="0" />
      </BoundProperties>
    </ImageClip>
    <ImageClip extentID="5728" gapBefore="0" mediaItemID="5724" duration="0.20000000000000001">
      <Effects />
      <Transitions />
      <BoundProperties>
        <BoundPropertyInt Name="rotateStepNinety" Value="0" />
      </BoundProperties>
    </ImageClip>
    <ImageClip extentID="561" gapBefore="0" mediaItemID="557" duration="0.20000000000000001">
      <Effects />
      <Transitions />
      <BoundProperties>
        <BoundPropertyInt Name="rotateStepNinety" Value="0" />
      </BoundProperties>
    </ImageClip>
    <ImageClip extentID="5729" gapBefore="0" mediaItemID="5725" duration="0.20000000000000001">
      <Effects />
      <Transitions />
      <BoundProperties>
        <BoundPropertyInt Name="rotateStepNinety" Value="0" />
      </BoundProperties>
    </ImageClip>
    <ImageClip extentID="562" gapBefore="0" mediaItemID="558" duration="0.20000000000000001">
      <Effects />
      <Transitions />
      <BoundProperties>
        <BoundPropertyInt Name="rotateStepNinety" Value="0" />
      </BoundProperties>
    </ImageClip>
    <ImageClip extentID="5730" gapBefore="0" mediaItemID="5726" duration="0.20000000000000001">
      <Effects />
      <Transitions />
      <BoundProperties>
        <BoundPropertyInt Name="rotateStepNinety" Value="0" />
      </BoundProperties>
    </ImageClip>
    <ImageClip extentID="563" gapBefore="0" mediaItemID="559" duration="0.20000000000000001">
      <Effects />
      <Transitions />
      <BoundProperties>
        <BoundPropertyInt Name="rotateStepNinety" Value="0" />
      </BoundProperties>
    </ImageClip>
    <ImageClip extentID="5731" gapBefore="0" mediaItemID="5727" duration="0.20000000000000001">
      <Effects />
      <Transitions />
      <BoundProperties>
        <BoundPropertyInt Name="rotateStepNinety" Value="0" />
      </BoundProperties>
    </ImageClip>
    <ImageClip extentID="564" gapBefore="0" mediaItemID="560" duration="0.20000000000000001">
      <Effects />
      <Transitions />
      <BoundProperties>
        <BoundPropertyInt Name="rotateStepNinety" Value="0" />
      </BoundProperties>
    </ImageClip>
    <ImageClip extentID="5732" gapBefore="0" mediaItemID="5728" duration="0.20000000000000001">
      <Effects />
      <Transitions />
      <BoundProperties>
        <BoundPropertyInt Name="rotateStepNinety" Value="0" />
      </BoundProperties>
    </ImageClip>
    <ImageClip extentID="565" gapBefore="0" mediaItemID="561" duration="0.20000000000000001">
      <Effects />
      <Transitions />
      <BoundProperties>
        <BoundPropertyInt Name="rotateStepNinety" Value="0" />
      </BoundProperties>
    </ImageClip>
    <ImageClip extentID="5733" gapBefore="0" mediaItemID="5729" duration="0.20000000000000001">
      <Effects />
      <Transitions />
      <BoundProperties>
        <BoundPropertyInt Name="rotateStepNinety" Value="0" />
      </BoundProperties>
    </ImageClip>
    <ImageClip extentID="566" gapBefore="0" mediaItemID="562" duration="0.20000000000000001">
      <Effects />
      <Transitions />
      <BoundProperties>
        <BoundPropertyInt Name="rotateStepNinety" Value="0" />
      </BoundProperties>
    </ImageClip>
    <ImageClip extentID="5734" gapBefore="0" mediaItemID="5730" duration="0.20000000000000001">
      <Effects />
      <Transitions />
      <BoundProperties>
        <BoundPropertyInt Name="rotateStepNinety" Value="0" />
      </BoundProperties>
    </ImageClip>
    <ImageClip extentID="567" gapBefore="0" mediaItemID="563" duration="0.20000000000000001">
      <Effects />
      <Transitions />
      <BoundProperties>
        <BoundPropertyInt Name="rotateStepNinety" Value="0" />
      </BoundProperties>
    </ImageClip>
    <ImageClip extentID="5735" gapBefore="0" mediaItemID="5731" duration="0.20000000000000001">
      <Effects />
      <Transitions />
      <BoundProperties>
        <BoundPropertyInt Name="rotateStepNinety" Value="0" />
      </BoundProperties>
    </ImageClip>
    <ImageClip extentID="568" gapBefore="0" mediaItemID="564" duration="0.20000000000000001">
      <Effects />
      <Transitions />
      <BoundProperties>
        <BoundPropertyInt Name="rotateStepNinety" Value="0" />
      </BoundProperties>
    </ImageClip>
    <ImageClip extentID="5736" gapBefore="0" mediaItemID="5732" duration="0.20000000000000001">
      <Effects />
      <Transitions />
      <BoundProperties>
        <BoundPropertyInt Name="rotateStepNinety" Value="0" />
      </BoundProperties>
    </ImageClip>
    <ImageClip extentID="569" gapBefore="0" mediaItemID="565" duration="0.20000000000000001">
      <Effects />
      <Transitions />
      <BoundProperties>
        <BoundPropertyInt Name="rotateStepNinety" Value="0" />
      </BoundProperties>
    </ImageClip>
    <ImageClip extentID="5737" gapBefore="0" mediaItemID="5733" duration="0.20000000000000001">
      <Effects />
      <Transitions />
      <BoundProperties>
        <BoundPropertyInt Name="rotateStepNinety" Value="0" />
      </BoundProperties>
    </ImageClip>
    <ImageClip extentID="570" gapBefore="0" mediaItemID="566" duration="0.20000000000000001">
      <Effects />
      <Transitions />
      <BoundProperties>
        <BoundPropertyInt Name="rotateStepNinety" Value="0" />
      </BoundProperties>
    </ImageClip>
    <ImageClip extentID="5738" gapBefore="0" mediaItemID="5734" duration="0.20000000000000001">
      <Effects />
      <Transitions />
      <BoundProperties>
        <BoundPropertyInt Name="rotateStepNinety" Value="0" />
      </BoundProperties>
    </ImageClip>
    <ImageClip extentID="571" gapBefore="0" mediaItemID="567" duration="0.20000000000000001">
      <Effects />
      <Transitions />
      <BoundProperties>
        <BoundPropertyInt Name="rotateStepNinety" Value="0" />
      </BoundProperties>
    </ImageClip>
    <ImageClip extentID="5739" gapBefore="0" mediaItemID="5735" duration="0.20000000000000001">
      <Effects />
      <Transitions />
      <BoundProperties>
        <BoundPropertyInt Name="rotateStepNinety" Value="0" />
      </BoundProperties>
    </ImageClip>
    <ImageClip extentID="572" gapBefore="0" mediaItemID="568" duration="0.20000000000000001">
      <Effects />
      <Transitions />
      <BoundProperties>
        <BoundPropertyInt Name="rotateStepNinety" Value="0" />
      </BoundProperties>
    </ImageClip>
    <ImageClip extentID="5740" gapBefore="0" mediaItemID="5736" duration="0.20000000000000001">
      <Effects />
      <Transitions />
      <BoundProperties>
        <BoundPropertyInt Name="rotateStepNinety" Value="0" />
      </BoundProperties>
    </ImageClip>
    <ImageClip extentID="573" gapBefore="0" mediaItemID="569" duration="0.20000000000000001">
      <Effects />
      <Transitions />
      <BoundProperties>
        <BoundPropertyInt Name="rotateStepNinety" Value="0" />
      </BoundProperties>
    </ImageClip>
    <ImageClip extentID="5741" gapBefore="0" mediaItemID="5737" duration="0.20000000000000001">
      <Effects />
      <Transitions />
      <BoundProperties>
        <BoundPropertyInt Name="rotateStepNinety" Value="0" />
      </BoundProperties>
    </ImageClip>
    <ImageClip extentID="574" gapBefore="0" mediaItemID="570" duration="0.20000000000000001">
      <Effects />
      <Transitions />
      <BoundProperties>
        <BoundPropertyInt Name="rotateStepNinety" Value="0" />
      </BoundProperties>
    </ImageClip>
    <ImageClip extentID="5742" gapBefore="0" mediaItemID="5738" duration="0.20000000000000001">
      <Effects />
      <Transitions />
      <BoundProperties>
        <BoundPropertyInt Name="rotateStepNinety" Value="0" />
      </BoundProperties>
    </ImageClip>
    <ImageClip extentID="575" gapBefore="0" mediaItemID="571" duration="0.20000000000000001">
      <Effects />
      <Transitions />
      <BoundProperties>
        <BoundPropertyInt Name="rotateStepNinety" Value="0" />
      </BoundProperties>
    </ImageClip>
    <ImageClip extentID="5743" gapBefore="0" mediaItemID="5739" duration="0.20000000000000001">
      <Effects />
      <Transitions />
      <BoundProperties>
        <BoundPropertyInt Name="rotateStepNinety" Value="0" />
      </BoundProperties>
    </ImageClip>
    <ImageClip extentID="576" gapBefore="0" mediaItemID="572" duration="0.20000000000000001">
      <Effects />
      <Transitions />
      <BoundProperties>
        <BoundPropertyInt Name="rotateStepNinety" Value="0" />
      </BoundProperties>
    </ImageClip>
    <ImageClip extentID="5744" gapBefore="0" mediaItemID="5740" duration="0.20000000000000001">
      <Effects />
      <Transitions />
      <BoundProperties>
        <BoundPropertyInt Name="rotateStepNinety" Value="0" />
      </BoundProperties>
    </ImageClip>
    <ImageClip extentID="577" gapBefore="0" mediaItemID="573" duration="0.20000000000000001">
      <Effects />
      <Transitions />
      <BoundProperties>
        <BoundPropertyInt Name="rotateStepNinety" Value="0" />
      </BoundProperties>
    </ImageClip>
    <ImageClip extentID="5745" gapBefore="0" mediaItemID="5741" duration="0.20000000000000001">
      <Effects />
      <Transitions />
      <BoundProperties>
        <BoundPropertyInt Name="rotateStepNinety" Value="0" />
      </BoundProperties>
    </ImageClip>
    <ImageClip extentID="578" gapBefore="0" mediaItemID="574" duration="0.20000000000000001">
      <Effects />
      <Transitions />
      <BoundProperties>
        <BoundPropertyInt Name="rotateStepNinety" Value="0" />
      </BoundProperties>
    </ImageClip>
    <ImageClip extentID="5746" gapBefore="0" mediaItemID="5742" duration="0.20000000000000001">
      <Effects />
      <Transitions />
      <BoundProperties>
        <BoundPropertyInt Name="rotateStepNinety" Value="0" />
      </BoundProperties>
    </ImageClip>
    <ImageClip extentID="579" gapBefore="0" mediaItemID="575" duration="0.20000000000000001">
      <Effects />
      <Transitions />
      <BoundProperties>
        <BoundPropertyInt Name="rotateStepNinety" Value="0" />
      </BoundProperties>
    </ImageClip>
    <ImageClip extentID="5747" gapBefore="0" mediaItemID="5743" duration="0.20000000000000001">
      <Effects />
      <Transitions />
      <BoundProperties>
        <BoundPropertyInt Name="rotateStepNinety" Value="0" />
      </BoundProperties>
    </ImageClip>
    <ImageClip extentID="580" gapBefore="0" mediaItemID="576" duration="0.20000000000000001">
      <Effects />
      <Transitions />
      <BoundProperties>
        <BoundPropertyInt Name="rotateStepNinety" Value="0" />
      </BoundProperties>
    </ImageClip>
    <ImageClip extentID="5748" gapBefore="0" mediaItemID="5744" duration="0.20000000000000001">
      <Effects />
      <Transitions />
      <BoundProperties>
        <BoundPropertyInt Name="rotateStepNinety" Value="0" />
      </BoundProperties>
    </ImageClip>
    <ImageClip extentID="581" gapBefore="0" mediaItemID="577" duration="0.20000000000000001">
      <Effects />
      <Transitions />
      <BoundProperties>
        <BoundPropertyInt Name="rotateStepNinety" Value="0" />
      </BoundProperties>
    </ImageClip>
    <ImageClip extentID="5749" gapBefore="0" mediaItemID="5745" duration="0.20000000000000001">
      <Effects />
      <Transitions />
      <BoundProperties>
        <BoundPropertyInt Name="rotateStepNinety" Value="0" />
      </BoundProperties>
    </ImageClip>
    <ImageClip extentID="582" gapBefore="0" mediaItemID="578" duration="0.20000000000000001">
      <Effects />
      <Transitions />
      <BoundProperties>
        <BoundPropertyInt Name="rotateStepNinety" Value="0" />
      </BoundProperties>
    </ImageClip>
    <ImageClip extentID="5750" gapBefore="0" mediaItemID="5746" duration="0.20000000000000001">
      <Effects />
      <Transitions />
      <BoundProperties>
        <BoundPropertyInt Name="rotateStepNinety" Value="0" />
      </BoundProperties>
    </ImageClip>
    <ImageClip extentID="583" gapBefore="0" mediaItemID="579" duration="0.20000000000000001">
      <Effects />
      <Transitions />
      <BoundProperties>
        <BoundPropertyInt Name="rotateStepNinety" Value="0" />
      </BoundProperties>
    </ImageClip>
    <ImageClip extentID="5751" gapBefore="0" mediaItemID="5747" duration="0.20000000000000001">
      <Effects />
      <Transitions />
      <BoundProperties>
        <BoundPropertyInt Name="rotateStepNinety" Value="0" />
      </BoundProperties>
    </ImageClip>
    <ImageClip extentID="584" gapBefore="0" mediaItemID="580" duration="0.20000000000000001">
      <Effects />
      <Transitions />
      <BoundProperties>
        <BoundPropertyInt Name="rotateStepNinety" Value="0" />
      </BoundProperties>
    </ImageClip>
    <ImageClip extentID="5752" gapBefore="0" mediaItemID="5748" duration="0.20000000000000001">
      <Effects />
      <Transitions />
      <BoundProperties>
        <BoundPropertyInt Name="rotateStepNinety" Value="0" />
      </BoundProperties>
    </ImageClip>
    <ImageClip extentID="585" gapBefore="0" mediaItemID="581" duration="0.20000000000000001">
      <Effects />
      <Transitions />
      <BoundProperties>
        <BoundPropertyInt Name="rotateStepNinety" Value="0" />
      </BoundProperties>
    </ImageClip>
    <ImageClip extentID="5753" gapBefore="0" mediaItemID="5749" duration="0.20000000000000001">
      <Effects />
      <Transitions />
      <BoundProperties>
        <BoundPropertyInt Name="rotateStepNinety" Value="0" />
      </BoundProperties>
    </ImageClip>
    <ImageClip extentID="586" gapBefore="0" mediaItemID="582" duration="0.20000000000000001">
      <Effects />
      <Transitions />
      <BoundProperties>
        <BoundPropertyInt Name="rotateStepNinety" Value="0" />
      </BoundProperties>
    </ImageClip>
    <ImageClip extentID="5754" gapBefore="0" mediaItemID="5750" duration="0.20000000000000001">
      <Effects />
      <Transitions />
      <BoundProperties>
        <BoundPropertyInt Name="rotateStepNinety" Value="0" />
      </BoundProperties>
    </ImageClip>
    <ImageClip extentID="587" gapBefore="0" mediaItemID="583" duration="0.20000000000000001">
      <Effects />
      <Transitions />
      <BoundProperties>
        <BoundPropertyInt Name="rotateStepNinety" Value="0" />
      </BoundProperties>
    </ImageClip>
    <ImageClip extentID="5755" gapBefore="0" mediaItemID="5751" duration="0.20000000000000001">
      <Effects />
      <Transitions />
      <BoundProperties>
        <BoundPropertyInt Name="rotateStepNinety" Value="0" />
      </BoundProperties>
    </ImageClip>
    <ImageClip extentID="588" gapBefore="0" mediaItemID="584" duration="0.20000000000000001">
      <Effects />
      <Transitions />
      <BoundProperties>
        <BoundPropertyInt Name="rotateStepNinety" Value="0" />
      </BoundProperties>
    </ImageClip>
    <ImageClip extentID="5756" gapBefore="0" mediaItemID="5752" duration="0.20000000000000001">
      <Effects />
      <Transitions />
      <BoundProperties>
        <BoundPropertyInt Name="rotateStepNinety" Value="0" />
      </BoundProperties>
    </ImageClip>
    <ImageClip extentID="589" gapBefore="0" mediaItemID="585" duration="0.20000000000000001">
      <Effects />
      <Transitions />
      <BoundProperties>
        <BoundPropertyInt Name="rotateStepNinety" Value="0" />
      </BoundProperties>
    </ImageClip>
    <ImageClip extentID="5757" gapBefore="0" mediaItemID="5753" duration="0.20000000000000001">
      <Effects />
      <Transitions />
      <BoundProperties>
        <BoundPropertyInt Name="rotateStepNinety" Value="0" />
      </BoundProperties>
    </ImageClip>
    <ImageClip extentID="590" gapBefore="0" mediaItemID="586" duration="0.20000000000000001">
      <Effects />
      <Transitions />
      <BoundProperties>
        <BoundPropertyInt Name="rotateStepNinety" Value="0" />
      </BoundProperties>
    </ImageClip>
    <ImageClip extentID="5758" gapBefore="0" mediaItemID="5754" duration="0.20000000000000001">
      <Effects />
      <Transitions />
      <BoundProperties>
        <BoundPropertyInt Name="rotateStepNinety" Value="0" />
      </BoundProperties>
    </ImageClip>
    <ImageClip extentID="591" gapBefore="0" mediaItemID="587" duration="0.20000000000000001">
      <Effects />
      <Transitions />
      <BoundProperties>
        <BoundPropertyInt Name="rotateStepNinety" Value="0" />
      </BoundProperties>
    </ImageClip>
    <ImageClip extentID="5759" gapBefore="0" mediaItemID="5755" duration="0.20000000000000001">
      <Effects />
      <Transitions />
      <BoundProperties>
        <BoundPropertyInt Name="rotateStepNinety" Value="0" />
      </BoundProperties>
    </ImageClip>
    <ImageClip extentID="592" gapBefore="0" mediaItemID="588" duration="0.20000000000000001">
      <Effects />
      <Transitions />
      <BoundProperties>
        <BoundPropertyInt Name="rotateStepNinety" Value="0" />
      </BoundProperties>
    </ImageClip>
    <ImageClip extentID="5760" gapBefore="0" mediaItemID="5756" duration="0.20000000000000001">
      <Effects />
      <Transitions />
      <BoundProperties>
        <BoundPropertyInt Name="rotateStepNinety" Value="0" />
      </BoundProperties>
    </ImageClip>
    <ImageClip extentID="593" gapBefore="0" mediaItemID="589" duration="0.20000000000000001">
      <Effects />
      <Transitions />
      <BoundProperties>
        <BoundPropertyInt Name="rotateStepNinety" Value="0" />
      </BoundProperties>
    </ImageClip>
    <ImageClip extentID="5761" gapBefore="0" mediaItemID="5757" duration="0.20000000000000001">
      <Effects />
      <Transitions />
      <BoundProperties>
        <BoundPropertyInt Name="rotateStepNinety" Value="0" />
      </BoundProperties>
    </ImageClip>
    <ImageClip extentID="594" gapBefore="0" mediaItemID="590" duration="0.20000000000000001">
      <Effects />
      <Transitions />
      <BoundProperties>
        <BoundPropertyInt Name="rotateStepNinety" Value="0" />
      </BoundProperties>
    </ImageClip>
    <ImageClip extentID="5762" gapBefore="0" mediaItemID="5758" duration="0.20000000000000001">
      <Effects />
      <Transitions />
      <BoundProperties>
        <BoundPropertyInt Name="rotateStepNinety" Value="0" />
      </BoundProperties>
    </ImageClip>
    <ImageClip extentID="595" gapBefore="0" mediaItemID="591" duration="0.20000000000000001">
      <Effects />
      <Transitions />
      <BoundProperties>
        <BoundPropertyInt Name="rotateStepNinety" Value="0" />
      </BoundProperties>
    </ImageClip>
    <ImageClip extentID="5763" gapBefore="0" mediaItemID="5759" duration="0.20000000000000001">
      <Effects />
      <Transitions />
      <BoundProperties>
        <BoundPropertyInt Name="rotateStepNinety" Value="0" />
      </BoundProperties>
    </ImageClip>
    <ImageClip extentID="596" gapBefore="0" mediaItemID="592" duration="0.20000000000000001">
      <Effects />
      <Transitions />
      <BoundProperties>
        <BoundPropertyInt Name="rotateStepNinety" Value="0" />
      </BoundProperties>
    </ImageClip>
    <ImageClip extentID="5764" gapBefore="0" mediaItemID="5760" duration="0.20000000000000001">
      <Effects />
      <Transitions />
      <BoundProperties>
        <BoundPropertyInt Name="rotateStepNinety" Value="0" />
      </BoundProperties>
    </ImageClip>
    <ImageClip extentID="597" gapBefore="0" mediaItemID="593" duration="0.20000000000000001">
      <Effects />
      <Transitions />
      <BoundProperties>
        <BoundPropertyInt Name="rotateStepNinety" Value="0" />
      </BoundProperties>
    </ImageClip>
    <ImageClip extentID="5765" gapBefore="0" mediaItemID="5761" duration="0.20000000000000001">
      <Effects />
      <Transitions />
      <BoundProperties>
        <BoundPropertyInt Name="rotateStepNinety" Value="0" />
      </BoundProperties>
    </ImageClip>
    <ImageClip extentID="598" gapBefore="0" mediaItemID="594" duration="0.20000000000000001">
      <Effects />
      <Transitions />
      <BoundProperties>
        <BoundPropertyInt Name="rotateStepNinety" Value="0" />
      </BoundProperties>
    </ImageClip>
    <ImageClip extentID="5766" gapBefore="0" mediaItemID="5762" duration="0.20000000000000001">
      <Effects />
      <Transitions />
      <BoundProperties>
        <BoundPropertyInt Name="rotateStepNinety" Value="0" />
      </BoundProperties>
    </ImageClip>
    <ImageClip extentID="599" gapBefore="0" mediaItemID="595" duration="0.20000000000000001">
      <Effects />
      <Transitions />
      <BoundProperties>
        <BoundPropertyInt Name="rotateStepNinety" Value="0" />
      </BoundProperties>
    </ImageClip>
    <ImageClip extentID="5767" gapBefore="0" mediaItemID="5763" duration="0.20000000000000001">
      <Effects />
      <Transitions />
      <BoundProperties>
        <BoundPropertyInt Name="rotateStepNinety" Value="0" />
      </BoundProperties>
    </ImageClip>
    <ImageClip extentID="600" gapBefore="0" mediaItemID="596" duration="0.20000000000000001">
      <Effects />
      <Transitions />
      <BoundProperties>
        <BoundPropertyInt Name="rotateStepNinety" Value="0" />
      </BoundProperties>
    </ImageClip>
    <ImageClip extentID="5768" gapBefore="0" mediaItemID="5764" duration="0.20000000000000001">
      <Effects />
      <Transitions />
      <BoundProperties>
        <BoundPropertyInt Name="rotateStepNinety" Value="0" />
      </BoundProperties>
    </ImageClip>
    <ImageClip extentID="601" gapBefore="0" mediaItemID="597" duration="0.20000000000000001">
      <Effects />
      <Transitions />
      <BoundProperties>
        <BoundPropertyInt Name="rotateStepNinety" Value="0" />
      </BoundProperties>
    </ImageClip>
    <ImageClip extentID="5769" gapBefore="0" mediaItemID="5765" duration="0.20000000000000001">
      <Effects />
      <Transitions />
      <BoundProperties>
        <BoundPropertyInt Name="rotateStepNinety" Value="0" />
      </BoundProperties>
    </ImageClip>
    <ImageClip extentID="602" gapBefore="0" mediaItemID="598" duration="0.20000000000000001">
      <Effects />
      <Transitions />
      <BoundProperties>
        <BoundPropertyInt Name="rotateStepNinety" Value="0" />
      </BoundProperties>
    </ImageClip>
    <ImageClip extentID="5770" gapBefore="0" mediaItemID="5766" duration="0.20000000000000001">
      <Effects />
      <Transitions />
      <BoundProperties>
        <BoundPropertyInt Name="rotateStepNinety" Value="0" />
      </BoundProperties>
    </ImageClip>
    <ImageClip extentID="603" gapBefore="0" mediaItemID="599" duration="0.20000000000000001">
      <Effects />
      <Transitions />
      <BoundProperties>
        <BoundPropertyInt Name="rotateStepNinety" Value="0" />
      </BoundProperties>
    </ImageClip>
    <ImageClip extentID="5771" gapBefore="0" mediaItemID="5767" duration="0.20000000000000001">
      <Effects />
      <Transitions />
      <BoundProperties>
        <BoundPropertyInt Name="rotateStepNinety" Value="0" />
      </BoundProperties>
    </ImageClip>
    <ImageClip extentID="604" gapBefore="0" mediaItemID="600" duration="0.20000000000000001">
      <Effects />
      <Transitions />
      <BoundProperties>
        <BoundPropertyInt Name="rotateStepNinety" Value="0" />
      </BoundProperties>
    </ImageClip>
    <ImageClip extentID="5772" gapBefore="0" mediaItemID="5768" duration="0.20000000000000001">
      <Effects />
      <Transitions />
      <BoundProperties>
        <BoundPropertyInt Name="rotateStepNinety" Value="0" />
      </BoundProperties>
    </ImageClip>
    <ImageClip extentID="605" gapBefore="0" mediaItemID="601" duration="0.20000000000000001">
      <Effects />
      <Transitions />
      <BoundProperties>
        <BoundPropertyInt Name="rotateStepNinety" Value="0" />
      </BoundProperties>
    </ImageClip>
    <ImageClip extentID="5773" gapBefore="0" mediaItemID="5769" duration="0.20000000000000001">
      <Effects />
      <Transitions />
      <BoundProperties>
        <BoundPropertyInt Name="rotateStepNinety" Value="0" />
      </BoundProperties>
    </ImageClip>
    <ImageClip extentID="606" gapBefore="0" mediaItemID="602" duration="0.20000000000000001">
      <Effects />
      <Transitions />
      <BoundProperties>
        <BoundPropertyInt Name="rotateStepNinety" Value="0" />
      </BoundProperties>
    </ImageClip>
    <ImageClip extentID="5774" gapBefore="0" mediaItemID="5770" duration="0.20000000000000001">
      <Effects />
      <Transitions />
      <BoundProperties>
        <BoundPropertyInt Name="rotateStepNinety" Value="0" />
      </BoundProperties>
    </ImageClip>
    <ImageClip extentID="607" gapBefore="0" mediaItemID="603" duration="0.20000000000000001">
      <Effects />
      <Transitions />
      <BoundProperties>
        <BoundPropertyInt Name="rotateStepNinety" Value="0" />
      </BoundProperties>
    </ImageClip>
    <ImageClip extentID="5775" gapBefore="0" mediaItemID="5771" duration="0.20000000000000001">
      <Effects />
      <Transitions />
      <BoundProperties>
        <BoundPropertyInt Name="rotateStepNinety" Value="0" />
      </BoundProperties>
    </ImageClip>
    <ImageClip extentID="608" gapBefore="0" mediaItemID="604" duration="0.20000000000000001">
      <Effects />
      <Transitions />
      <BoundProperties>
        <BoundPropertyInt Name="rotateStepNinety" Value="0" />
      </BoundProperties>
    </ImageClip>
    <ImageClip extentID="5776" gapBefore="0" mediaItemID="5772" duration="0.20000000000000001">
      <Effects />
      <Transitions />
      <BoundProperties>
        <BoundPropertyInt Name="rotateStepNinety" Value="0" />
      </BoundProperties>
    </ImageClip>
    <ImageClip extentID="609" gapBefore="0" mediaItemID="605" duration="0.20000000000000001">
      <Effects />
      <Transitions />
      <BoundProperties>
        <BoundPropertyInt Name="rotateStepNinety" Value="0" />
      </BoundProperties>
    </ImageClip>
    <ImageClip extentID="5777" gapBefore="0" mediaItemID="5773" duration="0.20000000000000001">
      <Effects />
      <Transitions />
      <BoundProperties>
        <BoundPropertyInt Name="rotateStepNinety" Value="0" />
      </BoundProperties>
    </ImageClip>
    <ImageClip extentID="610" gapBefore="0" mediaItemID="606" duration="0.20000000000000001">
      <Effects />
      <Transitions />
      <BoundProperties>
        <BoundPropertyInt Name="rotateStepNinety" Value="0" />
      </BoundProperties>
    </ImageClip>
    <ImageClip extentID="5778" gapBefore="0" mediaItemID="5774" duration="0.20000000000000001">
      <Effects />
      <Transitions />
      <BoundProperties>
        <BoundPropertyInt Name="rotateStepNinety" Value="0" />
      </BoundProperties>
    </ImageClip>
    <ImageClip extentID="611" gapBefore="0" mediaItemID="607" duration="0.20000000000000001">
      <Effects />
      <Transitions />
      <BoundProperties>
        <BoundPropertyInt Name="rotateStepNinety" Value="0" />
      </BoundProperties>
    </ImageClip>
    <ImageClip extentID="5779" gapBefore="0" mediaItemID="5775" duration="0.20000000000000001">
      <Effects />
      <Transitions />
      <BoundProperties>
        <BoundPropertyInt Name="rotateStepNinety" Value="0" />
      </BoundProperties>
    </ImageClip>
    <ImageClip extentID="612" gapBefore="0" mediaItemID="608" duration="0.20000000000000001">
      <Effects />
      <Transitions />
      <BoundProperties>
        <BoundPropertyInt Name="rotateStepNinety" Value="0" />
      </BoundProperties>
    </ImageClip>
    <ImageClip extentID="5780" gapBefore="0" mediaItemID="5776" duration="0.20000000000000001">
      <Effects />
      <Transitions />
      <BoundProperties>
        <BoundPropertyInt Name="rotateStepNinety" Value="0" />
      </BoundProperties>
    </ImageClip>
    <ImageClip extentID="613" gapBefore="0" mediaItemID="609" duration="0.20000000000000001">
      <Effects />
      <Transitions />
      <BoundProperties>
        <BoundPropertyInt Name="rotateStepNinety" Value="0" />
      </BoundProperties>
    </ImageClip>
    <ImageClip extentID="5781" gapBefore="0" mediaItemID="5777" duration="0.20000000000000001">
      <Effects />
      <Transitions />
      <BoundProperties>
        <BoundPropertyInt Name="rotateStepNinety" Value="0" />
      </BoundProperties>
    </ImageClip>
    <ImageClip extentID="614" gapBefore="0" mediaItemID="610" duration="0.20000000000000001">
      <Effects />
      <Transitions />
      <BoundProperties>
        <BoundPropertyInt Name="rotateStepNinety" Value="0" />
      </BoundProperties>
    </ImageClip>
    <ImageClip extentID="5782" gapBefore="0" mediaItemID="5778" duration="0.20000000000000001">
      <Effects />
      <Transitions />
      <BoundProperties>
        <BoundPropertyInt Name="rotateStepNinety" Value="0" />
      </BoundProperties>
    </ImageClip>
    <ImageClip extentID="615" gapBefore="0" mediaItemID="611" duration="0.20000000000000001">
      <Effects />
      <Transitions />
      <BoundProperties>
        <BoundPropertyInt Name="rotateStepNinety" Value="0" />
      </BoundProperties>
    </ImageClip>
    <ImageClip extentID="5783" gapBefore="0" mediaItemID="5779" duration="0.20000000000000001">
      <Effects />
      <Transitions />
      <BoundProperties>
        <BoundPropertyInt Name="rotateStepNinety" Value="0" />
      </BoundProperties>
    </ImageClip>
    <ImageClip extentID="616" gapBefore="0" mediaItemID="612" duration="0.20000000000000001">
      <Effects />
      <Transitions />
      <BoundProperties>
        <BoundPropertyInt Name="rotateStepNinety" Value="0" />
      </BoundProperties>
    </ImageClip>
    <ImageClip extentID="5784" gapBefore="0" mediaItemID="5780" duration="0.20000000000000001">
      <Effects />
      <Transitions />
      <BoundProperties>
        <BoundPropertyInt Name="rotateStepNinety" Value="0" />
      </BoundProperties>
    </ImageClip>
    <ImageClip extentID="617" gapBefore="0" mediaItemID="613" duration="0.20000000000000001">
      <Effects />
      <Transitions />
      <BoundProperties>
        <BoundPropertyInt Name="rotateStepNinety" Value="0" />
      </BoundProperties>
    </ImageClip>
    <ImageClip extentID="5785" gapBefore="0" mediaItemID="5781" duration="0.20000000000000001">
      <Effects />
      <Transitions />
      <BoundProperties>
        <BoundPropertyInt Name="rotateStepNinety" Value="0" />
      </BoundProperties>
    </ImageClip>
    <ImageClip extentID="618" gapBefore="0" mediaItemID="614" duration="0.20000000000000001">
      <Effects />
      <Transitions />
      <BoundProperties>
        <BoundPropertyInt Name="rotateStepNinety" Value="0" />
      </BoundProperties>
    </ImageClip>
    <ImageClip extentID="5786" gapBefore="0" mediaItemID="5782" duration="0.20000000000000001">
      <Effects />
      <Transitions />
      <BoundProperties>
        <BoundPropertyInt Name="rotateStepNinety" Value="0" />
      </BoundProperties>
    </ImageClip>
    <ImageClip extentID="619" gapBefore="0" mediaItemID="615" duration="0.20000000000000001">
      <Effects />
      <Transitions />
      <BoundProperties>
        <BoundPropertyInt Name="rotateStepNinety" Value="0" />
      </BoundProperties>
    </ImageClip>
    <ImageClip extentID="5787" gapBefore="0" mediaItemID="5783" duration="0.20000000000000001">
      <Effects />
      <Transitions />
      <BoundProperties>
        <BoundPropertyInt Name="rotateStepNinety" Value="0" />
      </BoundProperties>
    </ImageClip>
    <ImageClip extentID="620" gapBefore="0" mediaItemID="616" duration="0.20000000000000001">
      <Effects />
      <Transitions />
      <BoundProperties>
        <BoundPropertyInt Name="rotateStepNinety" Value="0" />
      </BoundProperties>
    </ImageClip>
    <ImageClip extentID="5788" gapBefore="0" mediaItemID="5784" duration="0.20000000000000001">
      <Effects />
      <Transitions />
      <BoundProperties>
        <BoundPropertyInt Name="rotateStepNinety" Value="0" />
      </BoundProperties>
    </ImageClip>
    <ImageClip extentID="621" gapBefore="0" mediaItemID="617" duration="0.20000000000000001">
      <Effects />
      <Transitions />
      <BoundProperties>
        <BoundPropertyInt Name="rotateStepNinety" Value="0" />
      </BoundProperties>
    </ImageClip>
    <ImageClip extentID="5789" gapBefore="0" mediaItemID="5785" duration="0.20000000000000001">
      <Effects />
      <Transitions />
      <BoundProperties>
        <BoundPropertyInt Name="rotateStepNinety" Value="0" />
      </BoundProperties>
    </ImageClip>
    <ImageClip extentID="622" gapBefore="0" mediaItemID="618" duration="0.20000000000000001">
      <Effects />
      <Transitions />
      <BoundProperties>
        <BoundPropertyInt Name="rotateStepNinety" Value="0" />
      </BoundProperties>
    </ImageClip>
    <ImageClip extentID="5790" gapBefore="0" mediaItemID="5786" duration="0.20000000000000001">
      <Effects />
      <Transitions />
      <BoundProperties>
        <BoundPropertyInt Name="rotateStepNinety" Value="0" />
      </BoundProperties>
    </ImageClip>
    <ImageClip extentID="623" gapBefore="0" mediaItemID="619" duration="0.20000000000000001">
      <Effects />
      <Transitions />
      <BoundProperties>
        <BoundPropertyInt Name="rotateStepNinety" Value="0" />
      </BoundProperties>
    </ImageClip>
    <ImageClip extentID="5791" gapBefore="0" mediaItemID="5787" duration="0.20000000000000001">
      <Effects />
      <Transitions />
      <BoundProperties>
        <BoundPropertyInt Name="rotateStepNinety" Value="0" />
      </BoundProperties>
    </ImageClip>
    <ImageClip extentID="624" gapBefore="0" mediaItemID="620" duration="0.20000000000000001">
      <Effects />
      <Transitions />
      <BoundProperties>
        <BoundPropertyInt Name="rotateStepNinety" Value="0" />
      </BoundProperties>
    </ImageClip>
    <ImageClip extentID="5792" gapBefore="0" mediaItemID="5788" duration="0.20000000000000001">
      <Effects />
      <Transitions />
      <BoundProperties>
        <BoundPropertyInt Name="rotateStepNinety" Value="0" />
      </BoundProperties>
    </ImageClip>
    <ImageClip extentID="625" gapBefore="0" mediaItemID="621" duration="0.20000000000000001">
      <Effects />
      <Transitions />
      <BoundProperties>
        <BoundPropertyInt Name="rotateStepNinety" Value="0" />
      </BoundProperties>
    </ImageClip>
    <ImageClip extentID="5793" gapBefore="0" mediaItemID="5789" duration="0.20000000000000001">
      <Effects />
      <Transitions />
      <BoundProperties>
        <BoundPropertyInt Name="rotateStepNinety" Value="0" />
      </BoundProperties>
    </ImageClip>
    <ImageClip extentID="626" gapBefore="0" mediaItemID="622" duration="0.20000000000000001">
      <Effects />
      <Transitions />
      <BoundProperties>
        <BoundPropertyInt Name="rotateStepNinety" Value="0" />
      </BoundProperties>
    </ImageClip>
    <ImageClip extentID="5794" gapBefore="0" mediaItemID="5790" duration="0.20000000000000001">
      <Effects />
      <Transitions />
      <BoundProperties>
        <BoundPropertyInt Name="rotateStepNinety" Value="0" />
      </BoundProperties>
    </ImageClip>
    <ImageClip extentID="627" gapBefore="0" mediaItemID="623" duration="0.20000000000000001">
      <Effects />
      <Transitions />
      <BoundProperties>
        <BoundPropertyInt Name="rotateStepNinety" Value="0" />
      </BoundProperties>
    </ImageClip>
    <ImageClip extentID="5795" gapBefore="0" mediaItemID="5791" duration="0.20000000000000001">
      <Effects />
      <Transitions />
      <BoundProperties>
        <BoundPropertyInt Name="rotateStepNinety" Value="0" />
      </BoundProperties>
    </ImageClip>
    <ImageClip extentID="628" gapBefore="0" mediaItemID="624" duration="0.20000000000000001">
      <Effects />
      <Transitions />
      <BoundProperties>
        <BoundPropertyInt Name="rotateStepNinety" Value="0" />
      </BoundProperties>
    </ImageClip>
    <ImageClip extentID="5796" gapBefore="0" mediaItemID="5792" duration="0.20000000000000001">
      <Effects />
      <Transitions />
      <BoundProperties>
        <BoundPropertyInt Name="rotateStepNinety" Value="0" />
      </BoundProperties>
    </ImageClip>
    <ImageClip extentID="629" gapBefore="0" mediaItemID="625" duration="0.20000000000000001">
      <Effects />
      <Transitions />
      <BoundProperties>
        <BoundPropertyInt Name="rotateStepNinety" Value="0" />
      </BoundProperties>
    </ImageClip>
    <ImageClip extentID="5797" gapBefore="0" mediaItemID="5793" duration="0.20000000000000001">
      <Effects />
      <Transitions />
      <BoundProperties>
        <BoundPropertyInt Name="rotateStepNinety" Value="0" />
      </BoundProperties>
    </ImageClip>
    <ImageClip extentID="630" gapBefore="0" mediaItemID="626" duration="0.20000000000000001">
      <Effects />
      <Transitions />
      <BoundProperties>
        <BoundPropertyInt Name="rotateStepNinety" Value="0" />
      </BoundProperties>
    </ImageClip>
    <ImageClip extentID="5798" gapBefore="0" mediaItemID="5794" duration="0.20000000000000001">
      <Effects />
      <Transitions />
      <BoundProperties>
        <BoundPropertyInt Name="rotateStepNinety" Value="0" />
      </BoundProperties>
    </ImageClip>
    <ImageClip extentID="631" gapBefore="0" mediaItemID="627" duration="0.20000000000000001">
      <Effects />
      <Transitions />
      <BoundProperties>
        <BoundPropertyInt Name="rotateStepNinety" Value="0" />
      </BoundProperties>
    </ImageClip>
    <ImageClip extentID="5799" gapBefore="0" mediaItemID="5795" duration="0.20000000000000001">
      <Effects />
      <Transitions />
      <BoundProperties>
        <BoundPropertyInt Name="rotateStepNinety" Value="0" />
      </BoundProperties>
    </ImageClip>
    <ImageClip extentID="632" gapBefore="0" mediaItemID="628" duration="0.20000000000000001">
      <Effects />
      <Transitions />
      <BoundProperties>
        <BoundPropertyInt Name="rotateStepNinety" Value="0" />
      </BoundProperties>
    </ImageClip>
    <ImageClip extentID="5800" gapBefore="0" mediaItemID="5796" duration="0.20000000000000001">
      <Effects />
      <Transitions />
      <BoundProperties>
        <BoundPropertyInt Name="rotateStepNinety" Value="0" />
      </BoundProperties>
    </ImageClip>
    <ImageClip extentID="633" gapBefore="0" mediaItemID="629" duration="0.20000000000000001">
      <Effects />
      <Transitions />
      <BoundProperties>
        <BoundPropertyInt Name="rotateStepNinety" Value="0" />
      </BoundProperties>
    </ImageClip>
    <ImageClip extentID="5801" gapBefore="0" mediaItemID="5797" duration="0.20000000000000001">
      <Effects />
      <Transitions />
      <BoundProperties>
        <BoundPropertyInt Name="rotateStepNinety" Value="0" />
      </BoundProperties>
    </ImageClip>
    <ImageClip extentID="634" gapBefore="0" mediaItemID="630" duration="0.20000000000000001">
      <Effects />
      <Transitions />
      <BoundProperties>
        <BoundPropertyInt Name="rotateStepNinety" Value="0" />
      </BoundProperties>
    </ImageClip>
    <ImageClip extentID="5802" gapBefore="0" mediaItemID="5798" duration="0.20000000000000001">
      <Effects />
      <Transitions />
      <BoundProperties>
        <BoundPropertyInt Name="rotateStepNinety" Value="0" />
      </BoundProperties>
    </ImageClip>
    <ImageClip extentID="635" gapBefore="0" mediaItemID="631" duration="0.20000000000000001">
      <Effects />
      <Transitions />
      <BoundProperties>
        <BoundPropertyInt Name="rotateStepNinety" Value="0" />
      </BoundProperties>
    </ImageClip>
    <ImageClip extentID="5803" gapBefore="0" mediaItemID="5799" duration="0.20000000000000001">
      <Effects />
      <Transitions />
      <BoundProperties>
        <BoundPropertyInt Name="rotateStepNinety" Value="0" />
      </BoundProperties>
    </ImageClip>
    <ImageClip extentID="636" gapBefore="0" mediaItemID="632" duration="0.20000000000000001">
      <Effects />
      <Transitions />
      <BoundProperties>
        <BoundPropertyInt Name="rotateStepNinety" Value="0" />
      </BoundProperties>
    </ImageClip>
    <ImageClip extentID="5804" gapBefore="0" mediaItemID="5800" duration="0.20000000000000001">
      <Effects />
      <Transitions />
      <BoundProperties>
        <BoundPropertyInt Name="rotateStepNinety" Value="0" />
      </BoundProperties>
    </ImageClip>
    <ImageClip extentID="637" gapBefore="0" mediaItemID="633" duration="0.20000000000000001">
      <Effects />
      <Transitions />
      <BoundProperties>
        <BoundPropertyInt Name="rotateStepNinety" Value="0" />
      </BoundProperties>
    </ImageClip>
    <ImageClip extentID="5805" gapBefore="0" mediaItemID="5801" duration="0.20000000000000001">
      <Effects />
      <Transitions />
      <BoundProperties>
        <BoundPropertyInt Name="rotateStepNinety" Value="0" />
      </BoundProperties>
    </ImageClip>
    <ImageClip extentID="638" gapBefore="0" mediaItemID="634" duration="0.20000000000000001">
      <Effects />
      <Transitions />
      <BoundProperties>
        <BoundPropertyInt Name="rotateStepNinety" Value="0" />
      </BoundProperties>
    </ImageClip>
    <ImageClip extentID="5806" gapBefore="0" mediaItemID="5802" duration="0.20000000000000001">
      <Effects />
      <Transitions />
      <BoundProperties>
        <BoundPropertyInt Name="rotateStepNinety" Value="0" />
      </BoundProperties>
    </ImageClip>
    <ImageClip extentID="639" gapBefore="0" mediaItemID="635" duration="0.20000000000000001">
      <Effects />
      <Transitions />
      <BoundProperties>
        <BoundPropertyInt Name="rotateStepNinety" Value="0" />
      </BoundProperties>
    </ImageClip>
    <ImageClip extentID="5807" gapBefore="0" mediaItemID="5803" duration="0.20000000000000001">
      <Effects />
      <Transitions />
      <BoundProperties>
        <BoundPropertyInt Name="rotateStepNinety" Value="0" />
      </BoundProperties>
    </ImageClip>
    <ImageClip extentID="640" gapBefore="0" mediaItemID="636" duration="0.20000000000000001">
      <Effects />
      <Transitions />
      <BoundProperties>
        <BoundPropertyInt Name="rotateStepNinety" Value="0" />
      </BoundProperties>
    </ImageClip>
    <ImageClip extentID="5808" gapBefore="0" mediaItemID="5804" duration="0.20000000000000001">
      <Effects />
      <Transitions />
      <BoundProperties>
        <BoundPropertyInt Name="rotateStepNinety" Value="0" />
      </BoundProperties>
    </ImageClip>
    <ImageClip extentID="641" gapBefore="0" mediaItemID="637" duration="0.20000000000000001">
      <Effects />
      <Transitions />
      <BoundProperties>
        <BoundPropertyInt Name="rotateStepNinety" Value="0" />
      </BoundProperties>
    </ImageClip>
    <ImageClip extentID="5809" gapBefore="0" mediaItemID="5805" duration="0.20000000000000001">
      <Effects />
      <Transitions />
      <BoundProperties>
        <BoundPropertyInt Name="rotateStepNinety" Value="0" />
      </BoundProperties>
    </ImageClip>
    <ImageClip extentID="642" gapBefore="0" mediaItemID="638" duration="0.20000000000000001">
      <Effects />
      <Transitions />
      <BoundProperties>
        <BoundPropertyInt Name="rotateStepNinety" Value="0" />
      </BoundProperties>
    </ImageClip>
    <ImageClip extentID="5810" gapBefore="0" mediaItemID="5806" duration="0.20000000000000001">
      <Effects />
      <Transitions />
      <BoundProperties>
        <BoundPropertyInt Name="rotateStepNinety" Value="0" />
      </BoundProperties>
    </ImageClip>
    <ImageClip extentID="643" gapBefore="0" mediaItemID="639" duration="0.20000000000000001">
      <Effects />
      <Transitions />
      <BoundProperties>
        <BoundPropertyInt Name="rotateStepNinety" Value="0" />
      </BoundProperties>
    </ImageClip>
    <ImageClip extentID="5811" gapBefore="0" mediaItemID="5807" duration="0.20000000000000001">
      <Effects />
      <Transitions />
      <BoundProperties>
        <BoundPropertyInt Name="rotateStepNinety" Value="0" />
      </BoundProperties>
    </ImageClip>
    <ImageClip extentID="644" gapBefore="0" mediaItemID="640" duration="0.20000000000000001">
      <Effects />
      <Transitions />
      <BoundProperties>
        <BoundPropertyInt Name="rotateStepNinety" Value="0" />
      </BoundProperties>
    </ImageClip>
    <ImageClip extentID="5812" gapBefore="0" mediaItemID="5808" duration="0.20000000000000001">
      <Effects />
      <Transitions />
      <BoundProperties>
        <BoundPropertyInt Name="rotateStepNinety" Value="0" />
      </BoundProperties>
    </ImageClip>
    <ImageClip extentID="645" gapBefore="0" mediaItemID="641" duration="0.20000000000000001">
      <Effects />
      <Transitions />
      <BoundProperties>
        <BoundPropertyInt Name="rotateStepNinety" Value="0" />
      </BoundProperties>
    </ImageClip>
    <ImageClip extentID="5813" gapBefore="0" mediaItemID="5809" duration="0.20000000000000001">
      <Effects />
      <Transitions />
      <BoundProperties>
        <BoundPropertyInt Name="rotateStepNinety" Value="0" />
      </BoundProperties>
    </ImageClip>
    <ImageClip extentID="646" gapBefore="0" mediaItemID="642" duration="0.20000000000000001">
      <Effects />
      <Transitions />
      <BoundProperties>
        <BoundPropertyInt Name="rotateStepNinety" Value="0" />
      </BoundProperties>
    </ImageClip>
    <ImageClip extentID="5814" gapBefore="0" mediaItemID="5810" duration="0.20000000000000001">
      <Effects />
      <Transitions />
      <BoundProperties>
        <BoundPropertyInt Name="rotateStepNinety" Value="0" />
      </BoundProperties>
    </ImageClip>
    <ImageClip extentID="647" gapBefore="0" mediaItemID="643" duration="0.20000000000000001">
      <Effects />
      <Transitions />
      <BoundProperties>
        <BoundPropertyInt Name="rotateStepNinety" Value="0" />
      </BoundProperties>
    </ImageClip>
    <ImageClip extentID="5815" gapBefore="0" mediaItemID="5811" duration="0.20000000000000001">
      <Effects />
      <Transitions />
      <BoundProperties>
        <BoundPropertyInt Name="rotateStepNinety" Value="0" />
      </BoundProperties>
    </ImageClip>
    <ImageClip extentID="648" gapBefore="0" mediaItemID="644" duration="0.20000000000000001">
      <Effects />
      <Transitions />
      <BoundProperties>
        <BoundPropertyInt Name="rotateStepNinety" Value="0" />
      </BoundProperties>
    </ImageClip>
    <ImageClip extentID="5816" gapBefore="0" mediaItemID="5812" duration="0.20000000000000001">
      <Effects />
      <Transitions />
      <BoundProperties>
        <BoundPropertyInt Name="rotateStepNinety" Value="0" />
      </BoundProperties>
    </ImageClip>
    <ImageClip extentID="649" gapBefore="0" mediaItemID="645" duration="0.20000000000000001">
      <Effects />
      <Transitions />
      <BoundProperties>
        <BoundPropertyInt Name="rotateStepNinety" Value="0" />
      </BoundProperties>
    </ImageClip>
    <ImageClip extentID="5817" gapBefore="0" mediaItemID="5813" duration="0.20000000000000001">
      <Effects />
      <Transitions />
      <BoundProperties>
        <BoundPropertyInt Name="rotateStepNinety" Value="0" />
      </BoundProperties>
    </ImageClip>
    <ImageClip extentID="650" gapBefore="0" mediaItemID="646" duration="0.20000000000000001">
      <Effects />
      <Transitions />
      <BoundProperties>
        <BoundPropertyInt Name="rotateStepNinety" Value="0" />
      </BoundProperties>
    </ImageClip>
    <ImageClip extentID="5818" gapBefore="0" mediaItemID="5814" duration="0.20000000000000001">
      <Effects />
      <Transitions />
      <BoundProperties>
        <BoundPropertyInt Name="rotateStepNinety" Value="0" />
      </BoundProperties>
    </ImageClip>
    <ImageClip extentID="651" gapBefore="0" mediaItemID="647" duration="0.20000000000000001">
      <Effects />
      <Transitions />
      <BoundProperties>
        <BoundPropertyInt Name="rotateStepNinety" Value="0" />
      </BoundProperties>
    </ImageClip>
    <ImageClip extentID="5819" gapBefore="0" mediaItemID="5815" duration="0.20000000000000001">
      <Effects />
      <Transitions />
      <BoundProperties>
        <BoundPropertyInt Name="rotateStepNinety" Value="0" />
      </BoundProperties>
    </ImageClip>
    <ImageClip extentID="652" gapBefore="0" mediaItemID="648" duration="0.20000000000000001">
      <Effects />
      <Transitions />
      <BoundProperties>
        <BoundPropertyInt Name="rotateStepNinety" Value="0" />
      </BoundProperties>
    </ImageClip>
    <ImageClip extentID="5820" gapBefore="0" mediaItemID="5816" duration="0.20000000000000001">
      <Effects />
      <Transitions />
      <BoundProperties>
        <BoundPropertyInt Name="rotateStepNinety" Value="0" />
      </BoundProperties>
    </ImageClip>
    <ImageClip extentID="653" gapBefore="0" mediaItemID="649" duration="0.20000000000000001">
      <Effects />
      <Transitions />
      <BoundProperties>
        <BoundPropertyInt Name="rotateStepNinety" Value="0" />
      </BoundProperties>
    </ImageClip>
    <ImageClip extentID="5821" gapBefore="0" mediaItemID="5817" duration="0.20000000000000001">
      <Effects />
      <Transitions />
      <BoundProperties>
        <BoundPropertyInt Name="rotateStepNinety" Value="0" />
      </BoundProperties>
    </ImageClip>
    <ImageClip extentID="654" gapBefore="0" mediaItemID="650" duration="0.20000000000000001">
      <Effects />
      <Transitions />
      <BoundProperties>
        <BoundPropertyInt Name="rotateStepNinety" Value="0" />
      </BoundProperties>
    </ImageClip>
    <ImageClip extentID="5822" gapBefore="0" mediaItemID="5818" duration="0.20000000000000001">
      <Effects />
      <Transitions />
      <BoundProperties>
        <BoundPropertyInt Name="rotateStepNinety" Value="0" />
      </BoundProperties>
    </ImageClip>
    <ImageClip extentID="655" gapBefore="0" mediaItemID="651" duration="0.20000000000000001">
      <Effects />
      <Transitions />
      <BoundProperties>
        <BoundPropertyInt Name="rotateStepNinety" Value="0" />
      </BoundProperties>
    </ImageClip>
    <ImageClip extentID="5823" gapBefore="0" mediaItemID="5819" duration="0.20000000000000001">
      <Effects />
      <Transitions />
      <BoundProperties>
        <BoundPropertyInt Name="rotateStepNinety" Value="0" />
      </BoundProperties>
    </ImageClip>
    <ImageClip extentID="656" gapBefore="0" mediaItemID="652" duration="0.20000000000000001">
      <Effects />
      <Transitions />
      <BoundProperties>
        <BoundPropertyInt Name="rotateStepNinety" Value="0" />
      </BoundProperties>
    </ImageClip>
    <ImageClip extentID="5824" gapBefore="0" mediaItemID="5820" duration="0.20000000000000001">
      <Effects />
      <Transitions />
      <BoundProperties>
        <BoundPropertyInt Name="rotateStepNinety" Value="0" />
      </BoundProperties>
    </ImageClip>
    <ImageClip extentID="657" gapBefore="0" mediaItemID="653" duration="0.20000000000000001">
      <Effects />
      <Transitions />
      <BoundProperties>
        <BoundPropertyInt Name="rotateStepNinety" Value="0" />
      </BoundProperties>
    </ImageClip>
    <ImageClip extentID="5825" gapBefore="0" mediaItemID="5821" duration="0.20000000000000001">
      <Effects />
      <Transitions />
      <BoundProperties>
        <BoundPropertyInt Name="rotateStepNinety" Value="0" />
      </BoundProperties>
    </ImageClip>
    <ImageClip extentID="658" gapBefore="0" mediaItemID="654" duration="0.20000000000000001">
      <Effects />
      <Transitions />
      <BoundProperties>
        <BoundPropertyInt Name="rotateStepNinety" Value="0" />
      </BoundProperties>
    </ImageClip>
    <ImageClip extentID="5826" gapBefore="0" mediaItemID="5822" duration="0.20000000000000001">
      <Effects />
      <Transitions />
      <BoundProperties>
        <BoundPropertyInt Name="rotateStepNinety" Value="0" />
      </BoundProperties>
    </ImageClip>
    <ImageClip extentID="659" gapBefore="0" mediaItemID="655" duration="0.20000000000000001">
      <Effects />
      <Transitions />
      <BoundProperties>
        <BoundPropertyInt Name="rotateStepNinety" Value="0" />
      </BoundProperties>
    </ImageClip>
    <ImageClip extentID="5827" gapBefore="0" mediaItemID="5823" duration="0.20000000000000001">
      <Effects />
      <Transitions />
      <BoundProperties>
        <BoundPropertyInt Name="rotateStepNinety" Value="0" />
      </BoundProperties>
    </ImageClip>
    <ImageClip extentID="660" gapBefore="0" mediaItemID="656" duration="0.20000000000000001">
      <Effects />
      <Transitions />
      <BoundProperties>
        <BoundPropertyInt Name="rotateStepNinety" Value="0" />
      </BoundProperties>
    </ImageClip>
    <ImageClip extentID="5828" gapBefore="0" mediaItemID="5824" duration="0.20000000000000001">
      <Effects />
      <Transitions />
      <BoundProperties>
        <BoundPropertyInt Name="rotateStepNinety" Value="0" />
      </BoundProperties>
    </ImageClip>
    <ImageClip extentID="661" gapBefore="0" mediaItemID="657" duration="0.20000000000000001">
      <Effects />
      <Transitions />
      <BoundProperties>
        <BoundPropertyInt Name="rotateStepNinety" Value="0" />
      </BoundProperties>
    </ImageClip>
    <ImageClip extentID="5829" gapBefore="0" mediaItemID="5825" duration="0.20000000000000001">
      <Effects />
      <Transitions />
      <BoundProperties>
        <BoundPropertyInt Name="rotateStepNinety" Value="0" />
      </BoundProperties>
    </ImageClip>
    <ImageClip extentID="662" gapBefore="0" mediaItemID="658" duration="0.20000000000000001">
      <Effects />
      <Transitions />
      <BoundProperties>
        <BoundPropertyInt Name="rotateStepNinety" Value="0" />
      </BoundProperties>
    </ImageClip>
    <ImageClip extentID="5830" gapBefore="0" mediaItemID="5826" duration="0.20000000000000001">
      <Effects />
      <Transitions />
      <BoundProperties>
        <BoundPropertyInt Name="rotateStepNinety" Value="0" />
      </BoundProperties>
    </ImageClip>
    <ImageClip extentID="663" gapBefore="0" mediaItemID="659" duration="0.20000000000000001">
      <Effects />
      <Transitions />
      <BoundProperties>
        <BoundPropertyInt Name="rotateStepNinety" Value="0" />
      </BoundProperties>
    </ImageClip>
    <ImageClip extentID="5831" gapBefore="0" mediaItemID="5827" duration="0.20000000000000001">
      <Effects />
      <Transitions />
      <BoundProperties>
        <BoundPropertyInt Name="rotateStepNinety" Value="0" />
      </BoundProperties>
    </ImageClip>
    <ImageClip extentID="664" gapBefore="0" mediaItemID="660" duration="0.20000000000000001">
      <Effects />
      <Transitions />
      <BoundProperties>
        <BoundPropertyInt Name="rotateStepNinety" Value="0" />
      </BoundProperties>
    </ImageClip>
    <ImageClip extentID="5832" gapBefore="0" mediaItemID="5828" duration="0.20000000000000001">
      <Effects />
      <Transitions />
      <BoundProperties>
        <BoundPropertyInt Name="rotateStepNinety" Value="0" />
      </BoundProperties>
    </ImageClip>
    <ImageClip extentID="665" gapBefore="0" mediaItemID="661" duration="0.20000000000000001">
      <Effects />
      <Transitions />
      <BoundProperties>
        <BoundPropertyInt Name="rotateStepNinety" Value="0" />
      </BoundProperties>
    </ImageClip>
    <ImageClip extentID="5833" gapBefore="0" mediaItemID="5829" duration="0.20000000000000001">
      <Effects />
      <Transitions />
      <BoundProperties>
        <BoundPropertyInt Name="rotateStepNinety" Value="0" />
      </BoundProperties>
    </ImageClip>
    <ImageClip extentID="666" gapBefore="0" mediaItemID="662" duration="0.20000000000000001">
      <Effects />
      <Transitions />
      <BoundProperties>
        <BoundPropertyInt Name="rotateStepNinety" Value="0" />
      </BoundProperties>
    </ImageClip>
    <ImageClip extentID="5834" gapBefore="0" mediaItemID="5830" duration="0.20000000000000001">
      <Effects />
      <Transitions />
      <BoundProperties>
        <BoundPropertyInt Name="rotateStepNinety" Value="0" />
      </BoundProperties>
    </ImageClip>
    <ImageClip extentID="667" gapBefore="0" mediaItemID="663" duration="0.20000000000000001">
      <Effects />
      <Transitions />
      <BoundProperties>
        <BoundPropertyInt Name="rotateStepNinety" Value="0" />
      </BoundProperties>
    </ImageClip>
    <ImageClip extentID="5835" gapBefore="0" mediaItemID="5831" duration="0.20000000000000001">
      <Effects />
      <Transitions />
      <BoundProperties>
        <BoundPropertyInt Name="rotateStepNinety" Value="0" />
      </BoundProperties>
    </ImageClip>
    <ImageClip extentID="668" gapBefore="0" mediaItemID="664" duration="0.20000000000000001">
      <Effects />
      <Transitions />
      <BoundProperties>
        <BoundPropertyInt Name="rotateStepNinety" Value="0" />
      </BoundProperties>
    </ImageClip>
    <ImageClip extentID="5836" gapBefore="0" mediaItemID="5832" duration="0.20000000000000001">
      <Effects />
      <Transitions />
      <BoundProperties>
        <BoundPropertyInt Name="rotateStepNinety" Value="0" />
      </BoundProperties>
    </ImageClip>
    <ImageClip extentID="669" gapBefore="0" mediaItemID="665" duration="0.20000000000000001">
      <Effects />
      <Transitions />
      <BoundProperties>
        <BoundPropertyInt Name="rotateStepNinety" Value="0" />
      </BoundProperties>
    </ImageClip>
    <ImageClip extentID="5837" gapBefore="0" mediaItemID="5833" duration="0.20000000000000001">
      <Effects />
      <Transitions />
      <BoundProperties>
        <BoundPropertyInt Name="rotateStepNinety" Value="0" />
      </BoundProperties>
    </ImageClip>
    <ImageClip extentID="670" gapBefore="0" mediaItemID="666" duration="0.20000000000000001">
      <Effects />
      <Transitions />
      <BoundProperties>
        <BoundPropertyInt Name="rotateStepNinety" Value="0" />
      </BoundProperties>
    </ImageClip>
    <ImageClip extentID="5838" gapBefore="0" mediaItemID="5834" duration="0.20000000000000001">
      <Effects />
      <Transitions />
      <BoundProperties>
        <BoundPropertyInt Name="rotateStepNinety" Value="0" />
      </BoundProperties>
    </ImageClip>
    <ImageClip extentID="671" gapBefore="0" mediaItemID="667" duration="0.20000000000000001">
      <Effects />
      <Transitions />
      <BoundProperties>
        <BoundPropertyInt Name="rotateStepNinety" Value="0" />
      </BoundProperties>
    </ImageClip>
    <ImageClip extentID="5839" gapBefore="0" mediaItemID="5835" duration="0.20000000000000001">
      <Effects />
      <Transitions />
      <BoundProperties>
        <BoundPropertyInt Name="rotateStepNinety" Value="0" />
      </BoundProperties>
    </ImageClip>
    <ImageClip extentID="672" gapBefore="0" mediaItemID="668" duration="0.20000000000000001">
      <Effects />
      <Transitions />
      <BoundProperties>
        <BoundPropertyInt Name="rotateStepNinety" Value="0" />
      </BoundProperties>
    </ImageClip>
    <ImageClip extentID="5840" gapBefore="0" mediaItemID="5836" duration="0.20000000000000001">
      <Effects />
      <Transitions />
      <BoundProperties>
        <BoundPropertyInt Name="rotateStepNinety" Value="0" />
      </BoundProperties>
    </ImageClip>
    <ImageClip extentID="673" gapBefore="0" mediaItemID="669" duration="0.20000000000000001">
      <Effects />
      <Transitions />
      <BoundProperties>
        <BoundPropertyInt Name="rotateStepNinety" Value="0" />
      </BoundProperties>
    </ImageClip>
    <ImageClip extentID="5841" gapBefore="0" mediaItemID="5837" duration="0.20000000000000001">
      <Effects />
      <Transitions />
      <BoundProperties>
        <BoundPropertyInt Name="rotateStepNinety" Value="0" />
      </BoundProperties>
    </ImageClip>
    <ImageClip extentID="674" gapBefore="0" mediaItemID="670" duration="0.20000000000000001">
      <Effects />
      <Transitions />
      <BoundProperties>
        <BoundPropertyInt Name="rotateStepNinety" Value="0" />
      </BoundProperties>
    </ImageClip>
    <ImageClip extentID="5842" gapBefore="0" mediaItemID="5838" duration="0.20000000000000001">
      <Effects />
      <Transitions />
      <BoundProperties>
        <BoundPropertyInt Name="rotateStepNinety" Value="0" />
      </BoundProperties>
    </ImageClip>
    <ImageClip extentID="675" gapBefore="0" mediaItemID="671" duration="0.20000000000000001">
      <Effects />
      <Transitions />
      <BoundProperties>
        <BoundPropertyInt Name="rotateStepNinety" Value="0" />
      </BoundProperties>
    </ImageClip>
    <ImageClip extentID="5843" gapBefore="0" mediaItemID="5839" duration="0.20000000000000001">
      <Effects />
      <Transitions />
      <BoundProperties>
        <BoundPropertyInt Name="rotateStepNinety" Value="0" />
      </BoundProperties>
    </ImageClip>
    <ImageClip extentID="676" gapBefore="0" mediaItemID="672" duration="0.20000000000000001">
      <Effects />
      <Transitions />
      <BoundProperties>
        <BoundPropertyInt Name="rotateStepNinety" Value="0" />
      </BoundProperties>
    </ImageClip>
    <ImageClip extentID="5844" gapBefore="0" mediaItemID="5840" duration="0.20000000000000001">
      <Effects />
      <Transitions />
      <BoundProperties>
        <BoundPropertyInt Name="rotateStepNinety" Value="0" />
      </BoundProperties>
    </ImageClip>
    <ImageClip extentID="677" gapBefore="0" mediaItemID="673" duration="0.20000000000000001">
      <Effects />
      <Transitions />
      <BoundProperties>
        <BoundPropertyInt Name="rotateStepNinety" Value="0" />
      </BoundProperties>
    </ImageClip>
    <ImageClip extentID="5845" gapBefore="0" mediaItemID="5841" duration="0.20000000000000001">
      <Effects />
      <Transitions />
      <BoundProperties>
        <BoundPropertyInt Name="rotateStepNinety" Value="0" />
      </BoundProperties>
    </ImageClip>
    <ImageClip extentID="678" gapBefore="0" mediaItemID="674" duration="0.20000000000000001">
      <Effects />
      <Transitions />
      <BoundProperties>
        <BoundPropertyInt Name="rotateStepNinety" Value="0" />
      </BoundProperties>
    </ImageClip>
    <ImageClip extentID="5846" gapBefore="0" mediaItemID="5842" duration="0.20000000000000001">
      <Effects />
      <Transitions />
      <BoundProperties>
        <BoundPropertyInt Name="rotateStepNinety" Value="0" />
      </BoundProperties>
    </ImageClip>
    <ImageClip extentID="679" gapBefore="0" mediaItemID="675" duration="0.20000000000000001">
      <Effects />
      <Transitions />
      <BoundProperties>
        <BoundPropertyInt Name="rotateStepNinety" Value="0" />
      </BoundProperties>
    </ImageClip>
    <ImageClip extentID="5847" gapBefore="0" mediaItemID="5843" duration="0.20000000000000001">
      <Effects />
      <Transitions />
      <BoundProperties>
        <BoundPropertyInt Name="rotateStepNinety" Value="0" />
      </BoundProperties>
    </ImageClip>
    <ImageClip extentID="680" gapBefore="0" mediaItemID="676" duration="0.20000000000000001">
      <Effects />
      <Transitions />
      <BoundProperties>
        <BoundPropertyInt Name="rotateStepNinety" Value="0" />
      </BoundProperties>
    </ImageClip>
    <ImageClip extentID="5848" gapBefore="0" mediaItemID="5844" duration="0.20000000000000001">
      <Effects />
      <Transitions />
      <BoundProperties>
        <BoundPropertyInt Name="rotateStepNinety" Value="0" />
      </BoundProperties>
    </ImageClip>
    <ImageClip extentID="681" gapBefore="0" mediaItemID="677" duration="0.20000000000000001">
      <Effects />
      <Transitions />
      <BoundProperties>
        <BoundPropertyInt Name="rotateStepNinety" Value="0" />
      </BoundProperties>
    </ImageClip>
    <ImageClip extentID="5849" gapBefore="0" mediaItemID="5845" duration="0.20000000000000001">
      <Effects />
      <Transitions />
      <BoundProperties>
        <BoundPropertyInt Name="rotateStepNinety" Value="0" />
      </BoundProperties>
    </ImageClip>
    <ImageClip extentID="682" gapBefore="0" mediaItemID="678" duration="0.20000000000000001">
      <Effects />
      <Transitions />
      <BoundProperties>
        <BoundPropertyInt Name="rotateStepNinety" Value="0" />
      </BoundProperties>
    </ImageClip>
    <ImageClip extentID="5850" gapBefore="0" mediaItemID="5846" duration="0.20000000000000001">
      <Effects />
      <Transitions />
      <BoundProperties>
        <BoundPropertyInt Name="rotateStepNinety" Value="0" />
      </BoundProperties>
    </ImageClip>
    <ImageClip extentID="683" gapBefore="0" mediaItemID="679" duration="0.20000000000000001">
      <Effects />
      <Transitions />
      <BoundProperties>
        <BoundPropertyInt Name="rotateStepNinety" Value="0" />
      </BoundProperties>
    </ImageClip>
    <ImageClip extentID="5851" gapBefore="0" mediaItemID="5847" duration="0.20000000000000001">
      <Effects />
      <Transitions />
      <BoundProperties>
        <BoundPropertyInt Name="rotateStepNinety" Value="0" />
      </BoundProperties>
    </ImageClip>
    <ImageClip extentID="684" gapBefore="0" mediaItemID="680" duration="0.20000000000000001">
      <Effects />
      <Transitions />
      <BoundProperties>
        <BoundPropertyInt Name="rotateStepNinety" Value="0" />
      </BoundProperties>
    </ImageClip>
    <ImageClip extentID="5852" gapBefore="0" mediaItemID="5848" duration="0.20000000000000001">
      <Effects />
      <Transitions />
      <BoundProperties>
        <BoundPropertyInt Name="rotateStepNinety" Value="0" />
      </BoundProperties>
    </ImageClip>
    <ImageClip extentID="685" gapBefore="0" mediaItemID="681" duration="0.20000000000000001">
      <Effects />
      <Transitions />
      <BoundProperties>
        <BoundPropertyInt Name="rotateStepNinety" Value="0" />
      </BoundProperties>
    </ImageClip>
    <ImageClip extentID="5853" gapBefore="0" mediaItemID="5849" duration="0.20000000000000001">
      <Effects />
      <Transitions />
      <BoundProperties>
        <BoundPropertyInt Name="rotateStepNinety" Value="0" />
      </BoundProperties>
    </ImageClip>
    <ImageClip extentID="686" gapBefore="0" mediaItemID="682" duration="0.20000000000000001">
      <Effects />
      <Transitions />
      <BoundProperties>
        <BoundPropertyInt Name="rotateStepNinety" Value="0" />
      </BoundProperties>
    </ImageClip>
    <ImageClip extentID="5854" gapBefore="0" mediaItemID="5850" duration="0.20000000000000001">
      <Effects />
      <Transitions />
      <BoundProperties>
        <BoundPropertyInt Name="rotateStepNinety" Value="0" />
      </BoundProperties>
    </ImageClip>
    <ImageClip extentID="687" gapBefore="0" mediaItemID="683" duration="0.20000000000000001">
      <Effects />
      <Transitions />
      <BoundProperties>
        <BoundPropertyInt Name="rotateStepNinety" Value="0" />
      </BoundProperties>
    </ImageClip>
    <ImageClip extentID="5855" gapBefore="0" mediaItemID="5851" duration="0.20000000000000001">
      <Effects />
      <Transitions />
      <BoundProperties>
        <BoundPropertyInt Name="rotateStepNinety" Value="0" />
      </BoundProperties>
    </ImageClip>
    <ImageClip extentID="688" gapBefore="0" mediaItemID="684" duration="0.20000000000000001">
      <Effects />
      <Transitions />
      <BoundProperties>
        <BoundPropertyInt Name="rotateStepNinety" Value="0" />
      </BoundProperties>
    </ImageClip>
    <ImageClip extentID="5856" gapBefore="0" mediaItemID="5852" duration="0.20000000000000001">
      <Effects />
      <Transitions />
      <BoundProperties>
        <BoundPropertyInt Name="rotateStepNinety" Value="0" />
      </BoundProperties>
    </ImageClip>
    <ImageClip extentID="689" gapBefore="0" mediaItemID="685" duration="0.20000000000000001">
      <Effects />
      <Transitions />
      <BoundProperties>
        <BoundPropertyInt Name="rotateStepNinety" Value="0" />
      </BoundProperties>
    </ImageClip>
    <ImageClip extentID="5857" gapBefore="0" mediaItemID="5853" duration="0.20000000000000001">
      <Effects />
      <Transitions />
      <BoundProperties>
        <BoundPropertyInt Name="rotateStepNinety" Value="0" />
      </BoundProperties>
    </ImageClip>
    <ImageClip extentID="690" gapBefore="0" mediaItemID="686" duration="0.20000000000000001">
      <Effects />
      <Transitions />
      <BoundProperties>
        <BoundPropertyInt Name="rotateStepNinety" Value="0" />
      </BoundProperties>
    </ImageClip>
    <ImageClip extentID="5858" gapBefore="0" mediaItemID="5854" duration="0.20000000000000001">
      <Effects />
      <Transitions />
      <BoundProperties>
        <BoundPropertyInt Name="rotateStepNinety" Value="0" />
      </BoundProperties>
    </ImageClip>
    <ImageClip extentID="691" gapBefore="0" mediaItemID="687" duration="0.20000000000000001">
      <Effects />
      <Transitions />
      <BoundProperties>
        <BoundPropertyInt Name="rotateStepNinety" Value="0" />
      </BoundProperties>
    </ImageClip>
    <ImageClip extentID="5859" gapBefore="0" mediaItemID="5855" duration="0.20000000000000001">
      <Effects />
      <Transitions />
      <BoundProperties>
        <BoundPropertyInt Name="rotateStepNinety" Value="0" />
      </BoundProperties>
    </ImageClip>
    <ImageClip extentID="692" gapBefore="0" mediaItemID="688" duration="0.20000000000000001">
      <Effects />
      <Transitions />
      <BoundProperties>
        <BoundPropertyInt Name="rotateStepNinety" Value="0" />
      </BoundProperties>
    </ImageClip>
    <ImageClip extentID="5860" gapBefore="0" mediaItemID="5856" duration="0.20000000000000001">
      <Effects />
      <Transitions />
      <BoundProperties>
        <BoundPropertyInt Name="rotateStepNinety" Value="0" />
      </BoundProperties>
    </ImageClip>
    <ImageClip extentID="693" gapBefore="0" mediaItemID="689" duration="0.20000000000000001">
      <Effects />
      <Transitions />
      <BoundProperties>
        <BoundPropertyInt Name="rotateStepNinety" Value="0" />
      </BoundProperties>
    </ImageClip>
    <ImageClip extentID="5861" gapBefore="0" mediaItemID="5857" duration="0.20000000000000001">
      <Effects />
      <Transitions />
      <BoundProperties>
        <BoundPropertyInt Name="rotateStepNinety" Value="0" />
      </BoundProperties>
    </ImageClip>
    <ImageClip extentID="694" gapBefore="0" mediaItemID="690" duration="0.20000000000000001">
      <Effects />
      <Transitions />
      <BoundProperties>
        <BoundPropertyInt Name="rotateStepNinety" Value="0" />
      </BoundProperties>
    </ImageClip>
    <ImageClip extentID="5862" gapBefore="0" mediaItemID="5858" duration="0.20000000000000001">
      <Effects />
      <Transitions />
      <BoundProperties>
        <BoundPropertyInt Name="rotateStepNinety" Value="0" />
      </BoundProperties>
    </ImageClip>
    <ImageClip extentID="695" gapBefore="0" mediaItemID="691" duration="0.20000000000000001">
      <Effects />
      <Transitions />
      <BoundProperties>
        <BoundPropertyInt Name="rotateStepNinety" Value="0" />
      </BoundProperties>
    </ImageClip>
    <ImageClip extentID="5863" gapBefore="0" mediaItemID="5859" duration="0.20000000000000001">
      <Effects />
      <Transitions />
      <BoundProperties>
        <BoundPropertyInt Name="rotateStepNinety" Value="0" />
      </BoundProperties>
    </ImageClip>
    <ImageClip extentID="696" gapBefore="0" mediaItemID="692" duration="0.20000000000000001">
      <Effects />
      <Transitions />
      <BoundProperties>
        <BoundPropertyInt Name="rotateStepNinety" Value="0" />
      </BoundProperties>
    </ImageClip>
    <ImageClip extentID="5864" gapBefore="0" mediaItemID="5860" duration="0.20000000000000001">
      <Effects />
      <Transitions />
      <BoundProperties>
        <BoundPropertyInt Name="rotateStepNinety" Value="0" />
      </BoundProperties>
    </ImageClip>
    <ImageClip extentID="697" gapBefore="0" mediaItemID="693" duration="0.20000000000000001">
      <Effects />
      <Transitions />
      <BoundProperties>
        <BoundPropertyInt Name="rotateStepNinety" Value="0" />
      </BoundProperties>
    </ImageClip>
    <ImageClip extentID="5865" gapBefore="0" mediaItemID="5861" duration="0.20000000000000001">
      <Effects />
      <Transitions />
      <BoundProperties>
        <BoundPropertyInt Name="rotateStepNinety" Value="0" />
      </BoundProperties>
    </ImageClip>
    <ImageClip extentID="698" gapBefore="0" mediaItemID="694" duration="0.20000000000000001">
      <Effects />
      <Transitions />
      <BoundProperties>
        <BoundPropertyInt Name="rotateStepNinety" Value="0" />
      </BoundProperties>
    </ImageClip>
    <ImageClip extentID="5866" gapBefore="0" mediaItemID="5862" duration="0.20000000000000001">
      <Effects />
      <Transitions />
      <BoundProperties>
        <BoundPropertyInt Name="rotateStepNinety" Value="0" />
      </BoundProperties>
    </ImageClip>
    <ImageClip extentID="699" gapBefore="0" mediaItemID="695" duration="0.20000000000000001">
      <Effects />
      <Transitions />
      <BoundProperties>
        <BoundPropertyInt Name="rotateStepNinety" Value="0" />
      </BoundProperties>
    </ImageClip>
    <ImageClip extentID="5867" gapBefore="0" mediaItemID="5863" duration="0.20000000000000001">
      <Effects />
      <Transitions />
      <BoundProperties>
        <BoundPropertyInt Name="rotateStepNinety" Value="0" />
      </BoundProperties>
    </ImageClip>
    <ImageClip extentID="700" gapBefore="0" mediaItemID="696" duration="0.20000000000000001">
      <Effects />
      <Transitions />
      <BoundProperties>
        <BoundPropertyInt Name="rotateStepNinety" Value="0" />
      </BoundProperties>
    </ImageClip>
    <ImageClip extentID="5868" gapBefore="0" mediaItemID="5864" duration="0.20000000000000001">
      <Effects />
      <Transitions />
      <BoundProperties>
        <BoundPropertyInt Name="rotateStepNinety" Value="0" />
      </BoundProperties>
    </ImageClip>
    <ImageClip extentID="701" gapBefore="0" mediaItemID="697" duration="0.20000000000000001">
      <Effects />
      <Transitions />
      <BoundProperties>
        <BoundPropertyInt Name="rotateStepNinety" Value="0" />
      </BoundProperties>
    </ImageClip>
    <ImageClip extentID="5869" gapBefore="0" mediaItemID="5865" duration="0.20000000000000001">
      <Effects />
      <Transitions />
      <BoundProperties>
        <BoundPropertyInt Name="rotateStepNinety" Value="0" />
      </BoundProperties>
    </ImageClip>
    <ImageClip extentID="702" gapBefore="0" mediaItemID="698" duration="0.20000000000000001">
      <Effects />
      <Transitions />
      <BoundProperties>
        <BoundPropertyInt Name="rotateStepNinety" Value="0" />
      </BoundProperties>
    </ImageClip>
    <ImageClip extentID="5870" gapBefore="0" mediaItemID="5866" duration="0.20000000000000001">
      <Effects />
      <Transitions />
      <BoundProperties>
        <BoundPropertyInt Name="rotateStepNinety" Value="0" />
      </BoundProperties>
    </ImageClip>
    <ImageClip extentID="703" gapBefore="0" mediaItemID="699" duration="0.20000000000000001">
      <Effects />
      <Transitions />
      <BoundProperties>
        <BoundPropertyInt Name="rotateStepNinety" Value="0" />
      </BoundProperties>
    </ImageClip>
    <ImageClip extentID="5871" gapBefore="0" mediaItemID="5867" duration="0.20000000000000001">
      <Effects />
      <Transitions />
      <BoundProperties>
        <BoundPropertyInt Name="rotateStepNinety" Value="0" />
      </BoundProperties>
    </ImageClip>
    <ImageClip extentID="704" gapBefore="0" mediaItemID="700" duration="0.20000000000000001">
      <Effects />
      <Transitions />
      <BoundProperties>
        <BoundPropertyInt Name="rotateStepNinety" Value="0" />
      </BoundProperties>
    </ImageClip>
    <ImageClip extentID="5872" gapBefore="0" mediaItemID="5868" duration="0.20000000000000001">
      <Effects />
      <Transitions />
      <BoundProperties>
        <BoundPropertyInt Name="rotateStepNinety" Value="0" />
      </BoundProperties>
    </ImageClip>
    <ImageClip extentID="705" gapBefore="0" mediaItemID="701" duration="0.20000000000000001">
      <Effects />
      <Transitions />
      <BoundProperties>
        <BoundPropertyInt Name="rotateStepNinety" Value="0" />
      </BoundProperties>
    </ImageClip>
    <ImageClip extentID="5873" gapBefore="0" mediaItemID="5869" duration="0.20000000000000001">
      <Effects />
      <Transitions />
      <BoundProperties>
        <BoundPropertyInt Name="rotateStepNinety" Value="0" />
      </BoundProperties>
    </ImageClip>
    <ImageClip extentID="706" gapBefore="0" mediaItemID="702" duration="0.20000000000000001">
      <Effects />
      <Transitions />
      <BoundProperties>
        <BoundPropertyInt Name="rotateStepNinety" Value="0" />
      </BoundProperties>
    </ImageClip>
    <ImageClip extentID="5874" gapBefore="0" mediaItemID="5870" duration="0.20000000000000001">
      <Effects />
      <Transitions />
      <BoundProperties>
        <BoundPropertyInt Name="rotateStepNinety" Value="0" />
      </BoundProperties>
    </ImageClip>
    <ImageClip extentID="707" gapBefore="0" mediaItemID="703" duration="0.20000000000000001">
      <Effects />
      <Transitions />
      <BoundProperties>
        <BoundPropertyInt Name="rotateStepNinety" Value="0" />
      </BoundProperties>
    </ImageClip>
    <ImageClip extentID="5875" gapBefore="0" mediaItemID="5871" duration="0.20000000000000001">
      <Effects />
      <Transitions />
      <BoundProperties>
        <BoundPropertyInt Name="rotateStepNinety" Value="0" />
      </BoundProperties>
    </ImageClip>
    <ImageClip extentID="708" gapBefore="0" mediaItemID="704" duration="0.20000000000000001">
      <Effects />
      <Transitions />
      <BoundProperties>
        <BoundPropertyInt Name="rotateStepNinety" Value="0" />
      </BoundProperties>
    </ImageClip>
    <ImageClip extentID="5876" gapBefore="0" mediaItemID="5872" duration="0.20000000000000001">
      <Effects />
      <Transitions />
      <BoundProperties>
        <BoundPropertyInt Name="rotateStepNinety" Value="0" />
      </BoundProperties>
    </ImageClip>
    <ImageClip extentID="709" gapBefore="0" mediaItemID="705" duration="0.20000000000000001">
      <Effects />
      <Transitions />
      <BoundProperties>
        <BoundPropertyInt Name="rotateStepNinety" Value="0" />
      </BoundProperties>
    </ImageClip>
    <ImageClip extentID="5877" gapBefore="0" mediaItemID="5873" duration="0.20000000000000001">
      <Effects />
      <Transitions />
      <BoundProperties>
        <BoundPropertyInt Name="rotateStepNinety" Value="0" />
      </BoundProperties>
    </ImageClip>
    <ImageClip extentID="710" gapBefore="0" mediaItemID="706" duration="0.20000000000000001">
      <Effects />
      <Transitions />
      <BoundProperties>
        <BoundPropertyInt Name="rotateStepNinety" Value="0" />
      </BoundProperties>
    </ImageClip>
    <ImageClip extentID="5878" gapBefore="0" mediaItemID="5874" duration="0.20000000000000001">
      <Effects />
      <Transitions />
      <BoundProperties>
        <BoundPropertyInt Name="rotateStepNinety" Value="0" />
      </BoundProperties>
    </ImageClip>
    <ImageClip extentID="711" gapBefore="0" mediaItemID="707" duration="0.20000000000000001">
      <Effects />
      <Transitions />
      <BoundProperties>
        <BoundPropertyInt Name="rotateStepNinety" Value="0" />
      </BoundProperties>
    </ImageClip>
    <ImageClip extentID="5879" gapBefore="0" mediaItemID="5875" duration="0.20000000000000001">
      <Effects />
      <Transitions />
      <BoundProperties>
        <BoundPropertyInt Name="rotateStepNinety" Value="0" />
      </BoundProperties>
    </ImageClip>
    <ImageClip extentID="712" gapBefore="0" mediaItemID="708" duration="0.20000000000000001">
      <Effects />
      <Transitions />
      <BoundProperties>
        <BoundPropertyInt Name="rotateStepNinety" Value="0" />
      </BoundProperties>
    </ImageClip>
    <ImageClip extentID="5880" gapBefore="0" mediaItemID="5876" duration="0.20000000000000001">
      <Effects />
      <Transitions />
      <BoundProperties>
        <BoundPropertyInt Name="rotateStepNinety" Value="0" />
      </BoundProperties>
    </ImageClip>
    <ImageClip extentID="713" gapBefore="0" mediaItemID="709" duration="0.20000000000000001">
      <Effects />
      <Transitions />
      <BoundProperties>
        <BoundPropertyInt Name="rotateStepNinety" Value="0" />
      </BoundProperties>
    </ImageClip>
    <ImageClip extentID="5881" gapBefore="0" mediaItemID="5877" duration="0.20000000000000001">
      <Effects />
      <Transitions />
      <BoundProperties>
        <BoundPropertyInt Name="rotateStepNinety" Value="0" />
      </BoundProperties>
    </ImageClip>
    <ImageClip extentID="714" gapBefore="0" mediaItemID="710" duration="0.20000000000000001">
      <Effects />
      <Transitions />
      <BoundProperties>
        <BoundPropertyInt Name="rotateStepNinety" Value="0" />
      </BoundProperties>
    </ImageClip>
    <ImageClip extentID="5882" gapBefore="0" mediaItemID="5878" duration="0.20000000000000001">
      <Effects />
      <Transitions />
      <BoundProperties>
        <BoundPropertyInt Name="rotateStepNinety" Value="0" />
      </BoundProperties>
    </ImageClip>
    <ImageClip extentID="715" gapBefore="0" mediaItemID="711" duration="0.20000000000000001">
      <Effects />
      <Transitions />
      <BoundProperties>
        <BoundPropertyInt Name="rotateStepNinety" Value="0" />
      </BoundProperties>
    </ImageClip>
    <ImageClip extentID="5883" gapBefore="0" mediaItemID="5879" duration="0.20000000000000001">
      <Effects />
      <Transitions />
      <BoundProperties>
        <BoundPropertyInt Name="rotateStepNinety" Value="0" />
      </BoundProperties>
    </ImageClip>
    <ImageClip extentID="716" gapBefore="0" mediaItemID="712" duration="0.20000000000000001">
      <Effects />
      <Transitions />
      <BoundProperties>
        <BoundPropertyInt Name="rotateStepNinety" Value="0" />
      </BoundProperties>
    </ImageClip>
    <ImageClip extentID="5884" gapBefore="0" mediaItemID="5880" duration="0.20000000000000001">
      <Effects />
      <Transitions />
      <BoundProperties>
        <BoundPropertyInt Name="rotateStepNinety" Value="0" />
      </BoundProperties>
    </ImageClip>
    <ImageClip extentID="717" gapBefore="0" mediaItemID="713" duration="0.20000000000000001">
      <Effects />
      <Transitions />
      <BoundProperties>
        <BoundPropertyInt Name="rotateStepNinety" Value="0" />
      </BoundProperties>
    </ImageClip>
    <ImageClip extentID="5885" gapBefore="0" mediaItemID="5881" duration="0.20000000000000001">
      <Effects />
      <Transitions />
      <BoundProperties>
        <BoundPropertyInt Name="rotateStepNinety" Value="0" />
      </BoundProperties>
    </ImageClip>
    <ImageClip extentID="718" gapBefore="0" mediaItemID="714" duration="0.20000000000000001">
      <Effects />
      <Transitions />
      <BoundProperties>
        <BoundPropertyInt Name="rotateStepNinety" Value="0" />
      </BoundProperties>
    </ImageClip>
    <ImageClip extentID="5886" gapBefore="0" mediaItemID="5882" duration="0.20000000000000001">
      <Effects />
      <Transitions />
      <BoundProperties>
        <BoundPropertyInt Name="rotateStepNinety" Value="0" />
      </BoundProperties>
    </ImageClip>
    <ImageClip extentID="719" gapBefore="0" mediaItemID="715" duration="0.20000000000000001">
      <Effects />
      <Transitions />
      <BoundProperties>
        <BoundPropertyInt Name="rotateStepNinety" Value="0" />
      </BoundProperties>
    </ImageClip>
    <ImageClip extentID="5887" gapBefore="0" mediaItemID="5883" duration="0.20000000000000001">
      <Effects />
      <Transitions />
      <BoundProperties>
        <BoundPropertyInt Name="rotateStepNinety" Value="0" />
      </BoundProperties>
    </ImageClip>
    <ImageClip extentID="720" gapBefore="0" mediaItemID="716" duration="0.20000000000000001">
      <Effects />
      <Transitions />
      <BoundProperties>
        <BoundPropertyInt Name="rotateStepNinety" Value="0" />
      </BoundProperties>
    </ImageClip>
    <ImageClip extentID="5888" gapBefore="0" mediaItemID="5884" duration="0.20000000000000001">
      <Effects />
      <Transitions />
      <BoundProperties>
        <BoundPropertyInt Name="rotateStepNinety" Value="0" />
      </BoundProperties>
    </ImageClip>
    <ImageClip extentID="721" gapBefore="0" mediaItemID="717" duration="0.20000000000000001">
      <Effects />
      <Transitions />
      <BoundProperties>
        <BoundPropertyInt Name="rotateStepNinety" Value="0" />
      </BoundProperties>
    </ImageClip>
    <ImageClip extentID="5889" gapBefore="0" mediaItemID="5885" duration="0.20000000000000001">
      <Effects />
      <Transitions />
      <BoundProperties>
        <BoundPropertyInt Name="rotateStepNinety" Value="0" />
      </BoundProperties>
    </ImageClip>
    <ImageClip extentID="722" gapBefore="0" mediaItemID="718" duration="0.20000000000000001">
      <Effects />
      <Transitions />
      <BoundProperties>
        <BoundPropertyInt Name="rotateStepNinety" Value="0" />
      </BoundProperties>
    </ImageClip>
    <ImageClip extentID="5890" gapBefore="0" mediaItemID="5886" duration="0.20000000000000001">
      <Effects />
      <Transitions />
      <BoundProperties>
        <BoundPropertyInt Name="rotateStepNinety" Value="0" />
      </BoundProperties>
    </ImageClip>
    <ImageClip extentID="723" gapBefore="0" mediaItemID="719" duration="0.20000000000000001">
      <Effects />
      <Transitions />
      <BoundProperties>
        <BoundPropertyInt Name="rotateStepNinety" Value="0" />
      </BoundProperties>
    </ImageClip>
    <ImageClip extentID="5891" gapBefore="0" mediaItemID="5887" duration="0.20000000000000001">
      <Effects />
      <Transitions />
      <BoundProperties>
        <BoundPropertyInt Name="rotateStepNinety" Value="0" />
      </BoundProperties>
    </ImageClip>
    <ImageClip extentID="724" gapBefore="0" mediaItemID="720" duration="0.20000000000000001">
      <Effects />
      <Transitions />
      <BoundProperties>
        <BoundPropertyInt Name="rotateStepNinety" Value="0" />
      </BoundProperties>
    </ImageClip>
    <ImageClip extentID="5892" gapBefore="0" mediaItemID="5888" duration="0.20000000000000001">
      <Effects />
      <Transitions />
      <BoundProperties>
        <BoundPropertyInt Name="rotateStepNinety" Value="0" />
      </BoundProperties>
    </ImageClip>
    <ImageClip extentID="725" gapBefore="0" mediaItemID="721" duration="0.20000000000000001">
      <Effects />
      <Transitions />
      <BoundProperties>
        <BoundPropertyInt Name="rotateStepNinety" Value="0" />
      </BoundProperties>
    </ImageClip>
    <ImageClip extentID="5893" gapBefore="0" mediaItemID="5889" duration="0.20000000000000001">
      <Effects />
      <Transitions />
      <BoundProperties>
        <BoundPropertyInt Name="rotateStepNinety" Value="0" />
      </BoundProperties>
    </ImageClip>
    <ImageClip extentID="726" gapBefore="0" mediaItemID="722" duration="0.20000000000000001">
      <Effects />
      <Transitions />
      <BoundProperties>
        <BoundPropertyInt Name="rotateStepNinety" Value="0" />
      </BoundProperties>
    </ImageClip>
    <ImageClip extentID="5894" gapBefore="0" mediaItemID="5890" duration="0.20000000000000001">
      <Effects />
      <Transitions />
      <BoundProperties>
        <BoundPropertyInt Name="rotateStepNinety" Value="0" />
      </BoundProperties>
    </ImageClip>
    <ImageClip extentID="727" gapBefore="0" mediaItemID="723" duration="0.20000000000000001">
      <Effects />
      <Transitions />
      <BoundProperties>
        <BoundPropertyInt Name="rotateStepNinety" Value="0" />
      </BoundProperties>
    </ImageClip>
    <ImageClip extentID="5895" gapBefore="0" mediaItemID="5891" duration="0.20000000000000001">
      <Effects />
      <Transitions />
      <BoundProperties>
        <BoundPropertyInt Name="rotateStepNinety" Value="0" />
      </BoundProperties>
    </ImageClip>
    <ImageClip extentID="728" gapBefore="0" mediaItemID="724" duration="0.20000000000000001">
      <Effects />
      <Transitions />
      <BoundProperties>
        <BoundPropertyInt Name="rotateStepNinety" Value="0" />
      </BoundProperties>
    </ImageClip>
    <ImageClip extentID="5896" gapBefore="0" mediaItemID="5892" duration="0.20000000000000001">
      <Effects />
      <Transitions />
      <BoundProperties>
        <BoundPropertyInt Name="rotateStepNinety" Value="0" />
      </BoundProperties>
    </ImageClip>
    <ImageClip extentID="729" gapBefore="0" mediaItemID="725" duration="0.20000000000000001">
      <Effects />
      <Transitions />
      <BoundProperties>
        <BoundPropertyInt Name="rotateStepNinety" Value="0" />
      </BoundProperties>
    </ImageClip>
    <ImageClip extentID="5897" gapBefore="0" mediaItemID="5893" duration="0.20000000000000001">
      <Effects />
      <Transitions />
      <BoundProperties>
        <BoundPropertyInt Name="rotateStepNinety" Value="0" />
      </BoundProperties>
    </ImageClip>
    <ImageClip extentID="730" gapBefore="0" mediaItemID="726" duration="0.20000000000000001">
      <Effects />
      <Transitions />
      <BoundProperties>
        <BoundPropertyInt Name="rotateStepNinety" Value="0" />
      </BoundProperties>
    </ImageClip>
    <ImageClip extentID="5898" gapBefore="0" mediaItemID="5894" duration="0.20000000000000001">
      <Effects />
      <Transitions />
      <BoundProperties>
        <BoundPropertyInt Name="rotateStepNinety" Value="0" />
      </BoundProperties>
    </ImageClip>
    <ImageClip extentID="731" gapBefore="0" mediaItemID="727" duration="0.20000000000000001">
      <Effects />
      <Transitions />
      <BoundProperties>
        <BoundPropertyInt Name="rotateStepNinety" Value="0" />
      </BoundProperties>
    </ImageClip>
    <ImageClip extentID="5899" gapBefore="0" mediaItemID="5895" duration="0.20000000000000001">
      <Effects />
      <Transitions />
      <BoundProperties>
        <BoundPropertyInt Name="rotateStepNinety" Value="0" />
      </BoundProperties>
    </ImageClip>
    <ImageClip extentID="732" gapBefore="0" mediaItemID="728" duration="0.20000000000000001">
      <Effects />
      <Transitions />
      <BoundProperties>
        <BoundPropertyInt Name="rotateStepNinety" Value="0" />
      </BoundProperties>
    </ImageClip>
    <ImageClip extentID="5900" gapBefore="0" mediaItemID="5896" duration="0.20000000000000001">
      <Effects />
      <Transitions />
      <BoundProperties>
        <BoundPropertyInt Name="rotateStepNinety" Value="0" />
      </BoundProperties>
    </ImageClip>
    <ImageClip extentID="733" gapBefore="0" mediaItemID="729" duration="0.20000000000000001">
      <Effects />
      <Transitions />
      <BoundProperties>
        <BoundPropertyInt Name="rotateStepNinety" Value="0" />
      </BoundProperties>
    </ImageClip>
    <ImageClip extentID="5901" gapBefore="0" mediaItemID="5897" duration="0.20000000000000001">
      <Effects />
      <Transitions />
      <BoundProperties>
        <BoundPropertyInt Name="rotateStepNinety" Value="0" />
      </BoundProperties>
    </ImageClip>
    <ImageClip extentID="734" gapBefore="0" mediaItemID="730" duration="0.20000000000000001">
      <Effects />
      <Transitions />
      <BoundProperties>
        <BoundPropertyInt Name="rotateStepNinety" Value="0" />
      </BoundProperties>
    </ImageClip>
    <ImageClip extentID="5902" gapBefore="0" mediaItemID="5898" duration="0.20000000000000001">
      <Effects />
      <Transitions />
      <BoundProperties>
        <BoundPropertyInt Name="rotateStepNinety" Value="0" />
      </BoundProperties>
    </ImageClip>
    <ImageClip extentID="735" gapBefore="0" mediaItemID="731" duration="0.20000000000000001">
      <Effects />
      <Transitions />
      <BoundProperties>
        <BoundPropertyInt Name="rotateStepNinety" Value="0" />
      </BoundProperties>
    </ImageClip>
    <ImageClip extentID="5903" gapBefore="0" mediaItemID="5899" duration="0.20000000000000001">
      <Effects />
      <Transitions />
      <BoundProperties>
        <BoundPropertyInt Name="rotateStepNinety" Value="0" />
      </BoundProperties>
    </ImageClip>
    <ImageClip extentID="736" gapBefore="0" mediaItemID="732" duration="0.20000000000000001">
      <Effects />
      <Transitions />
      <BoundProperties>
        <BoundPropertyInt Name="rotateStepNinety" Value="0" />
      </BoundProperties>
    </ImageClip>
    <ImageClip extentID="5904" gapBefore="0" mediaItemID="5900" duration="0.20000000000000001">
      <Effects />
      <Transitions />
      <BoundProperties>
        <BoundPropertyInt Name="rotateStepNinety" Value="0" />
      </BoundProperties>
    </ImageClip>
    <ImageClip extentID="737" gapBefore="0" mediaItemID="733" duration="0.20000000000000001">
      <Effects />
      <Transitions />
      <BoundProperties>
        <BoundPropertyInt Name="rotateStepNinety" Value="0" />
      </BoundProperties>
    </ImageClip>
    <ImageClip extentID="5905" gapBefore="0" mediaItemID="5901" duration="0.20000000000000001">
      <Effects />
      <Transitions />
      <BoundProperties>
        <BoundPropertyInt Name="rotateStepNinety" Value="0" />
      </BoundProperties>
    </ImageClip>
    <ImageClip extentID="738" gapBefore="0" mediaItemID="734" duration="0.20000000000000001">
      <Effects />
      <Transitions />
      <BoundProperties>
        <BoundPropertyInt Name="rotateStepNinety" Value="0" />
      </BoundProperties>
    </ImageClip>
    <ImageClip extentID="5906" gapBefore="0" mediaItemID="5902" duration="0.20000000000000001">
      <Effects />
      <Transitions />
      <BoundProperties>
        <BoundPropertyInt Name="rotateStepNinety" Value="0" />
      </BoundProperties>
    </ImageClip>
    <ImageClip extentID="739" gapBefore="0" mediaItemID="735" duration="0.20000000000000001">
      <Effects />
      <Transitions />
      <BoundProperties>
        <BoundPropertyInt Name="rotateStepNinety" Value="0" />
      </BoundProperties>
    </ImageClip>
    <ImageClip extentID="5907" gapBefore="0" mediaItemID="5903" duration="0.20000000000000001">
      <Effects />
      <Transitions />
      <BoundProperties>
        <BoundPropertyInt Name="rotateStepNinety" Value="0" />
      </BoundProperties>
    </ImageClip>
    <ImageClip extentID="740" gapBefore="0" mediaItemID="736" duration="0.20000000000000001">
      <Effects />
      <Transitions />
      <BoundProperties>
        <BoundPropertyInt Name="rotateStepNinety" Value="0" />
      </BoundProperties>
    </ImageClip>
    <ImageClip extentID="5908" gapBefore="0" mediaItemID="5904" duration="0.20000000000000001">
      <Effects />
      <Transitions />
      <BoundProperties>
        <BoundPropertyInt Name="rotateStepNinety" Value="0" />
      </BoundProperties>
    </ImageClip>
    <ImageClip extentID="741" gapBefore="0" mediaItemID="737" duration="0.20000000000000001">
      <Effects />
      <Transitions />
      <BoundProperties>
        <BoundPropertyInt Name="rotateStepNinety" Value="0" />
      </BoundProperties>
    </ImageClip>
    <ImageClip extentID="5909" gapBefore="0" mediaItemID="5905" duration="0.20000000000000001">
      <Effects />
      <Transitions />
      <BoundProperties>
        <BoundPropertyInt Name="rotateStepNinety" Value="0" />
      </BoundProperties>
    </ImageClip>
    <ImageClip extentID="742" gapBefore="0" mediaItemID="738" duration="0.20000000000000001">
      <Effects />
      <Transitions />
      <BoundProperties>
        <BoundPropertyInt Name="rotateStepNinety" Value="0" />
      </BoundProperties>
    </ImageClip>
    <ImageClip extentID="5910" gapBefore="0" mediaItemID="5906" duration="0.20000000000000001">
      <Effects />
      <Transitions />
      <BoundProperties>
        <BoundPropertyInt Name="rotateStepNinety" Value="0" />
      </BoundProperties>
    </ImageClip>
    <ImageClip extentID="743" gapBefore="0" mediaItemID="739" duration="0.20000000000000001">
      <Effects />
      <Transitions />
      <BoundProperties>
        <BoundPropertyInt Name="rotateStepNinety" Value="0" />
      </BoundProperties>
    </ImageClip>
    <ImageClip extentID="5911" gapBefore="0" mediaItemID="5907" duration="0.20000000000000001">
      <Effects />
      <Transitions />
      <BoundProperties>
        <BoundPropertyInt Name="rotateStepNinety" Value="0" />
      </BoundProperties>
    </ImageClip>
    <ImageClip extentID="744" gapBefore="0" mediaItemID="740" duration="0.20000000000000001">
      <Effects />
      <Transitions />
      <BoundProperties>
        <BoundPropertyInt Name="rotateStepNinety" Value="0" />
      </BoundProperties>
    </ImageClip>
    <ImageClip extentID="5912" gapBefore="0" mediaItemID="5908" duration="0.20000000000000001">
      <Effects />
      <Transitions />
      <BoundProperties>
        <BoundPropertyInt Name="rotateStepNinety" Value="0" />
      </BoundProperties>
    </ImageClip>
    <ImageClip extentID="745" gapBefore="0" mediaItemID="741" duration="0.20000000000000001">
      <Effects />
      <Transitions />
      <BoundProperties>
        <BoundPropertyInt Name="rotateStepNinety" Value="0" />
      </BoundProperties>
    </ImageClip>
    <ImageClip extentID="5913" gapBefore="0" mediaItemID="5909" duration="0.20000000000000001">
      <Effects />
      <Transitions />
      <BoundProperties>
        <BoundPropertyInt Name="rotateStepNinety" Value="0" />
      </BoundProperties>
    </ImageClip>
    <ImageClip extentID="746" gapBefore="0" mediaItemID="742" duration="0.20000000000000001">
      <Effects />
      <Transitions />
      <BoundProperties>
        <BoundPropertyInt Name="rotateStepNinety" Value="0" />
      </BoundProperties>
    </ImageClip>
    <ImageClip extentID="5914" gapBefore="0" mediaItemID="5910" duration="0.20000000000000001">
      <Effects />
      <Transitions />
      <BoundProperties>
        <BoundPropertyInt Name="rotateStepNinety" Value="0" />
      </BoundProperties>
    </ImageClip>
    <ImageClip extentID="747" gapBefore="0" mediaItemID="743" duration="0.20000000000000001">
      <Effects />
      <Transitions />
      <BoundProperties>
        <BoundPropertyInt Name="rotateStepNinety" Value="0" />
      </BoundProperties>
    </ImageClip>
    <ImageClip extentID="5915" gapBefore="0" mediaItemID="5911" duration="0.20000000000000001">
      <Effects />
      <Transitions />
      <BoundProperties>
        <BoundPropertyInt Name="rotateStepNinety" Value="0" />
      </BoundProperties>
    </ImageClip>
    <ImageClip extentID="748" gapBefore="0" mediaItemID="744" duration="0.20000000000000001">
      <Effects />
      <Transitions />
      <BoundProperties>
        <BoundPropertyInt Name="rotateStepNinety" Value="0" />
      </BoundProperties>
    </ImageClip>
    <ImageClip extentID="5916" gapBefore="0" mediaItemID="5912" duration="0.20000000000000001">
      <Effects />
      <Transitions />
      <BoundProperties>
        <BoundPropertyInt Name="rotateStepNinety" Value="0" />
      </BoundProperties>
    </ImageClip>
    <ImageClip extentID="749" gapBefore="0" mediaItemID="745" duration="0.20000000000000001">
      <Effects />
      <Transitions />
      <BoundProperties>
        <BoundPropertyInt Name="rotateStepNinety" Value="0" />
      </BoundProperties>
    </ImageClip>
    <ImageClip extentID="5917" gapBefore="0" mediaItemID="5913" duration="0.20000000000000001">
      <Effects />
      <Transitions />
      <BoundProperties>
        <BoundPropertyInt Name="rotateStepNinety" Value="0" />
      </BoundProperties>
    </ImageClip>
    <ImageClip extentID="750" gapBefore="0" mediaItemID="746" duration="0.20000000000000001">
      <Effects />
      <Transitions />
      <BoundProperties>
        <BoundPropertyInt Name="rotateStepNinety" Value="0" />
      </BoundProperties>
    </ImageClip>
    <ImageClip extentID="5918" gapBefore="0" mediaItemID="5914" duration="0.20000000000000001">
      <Effects />
      <Transitions />
      <BoundProperties>
        <BoundPropertyInt Name="rotateStepNinety" Value="0" />
      </BoundProperties>
    </ImageClip>
    <ImageClip extentID="751" gapBefore="0" mediaItemID="747" duration="0.20000000000000001">
      <Effects />
      <Transitions />
      <BoundProperties>
        <BoundPropertyInt Name="rotateStepNinety" Value="0" />
      </BoundProperties>
    </ImageClip>
    <ImageClip extentID="5919" gapBefore="0" mediaItemID="5915" duration="0.20000000000000001">
      <Effects />
      <Transitions />
      <BoundProperties>
        <BoundPropertyInt Name="rotateStepNinety" Value="0" />
      </BoundProperties>
    </ImageClip>
    <ImageClip extentID="752" gapBefore="0" mediaItemID="748" duration="0.20000000000000001">
      <Effects />
      <Transitions />
      <BoundProperties>
        <BoundPropertyInt Name="rotateStepNinety" Value="0" />
      </BoundProperties>
    </ImageClip>
    <ImageClip extentID="5920" gapBefore="0" mediaItemID="5916" duration="0.20000000000000001">
      <Effects />
      <Transitions />
      <BoundProperties>
        <BoundPropertyInt Name="rotateStepNinety" Value="0" />
      </BoundProperties>
    </ImageClip>
    <ImageClip extentID="753" gapBefore="0" mediaItemID="749" duration="0.20000000000000001">
      <Effects />
      <Transitions />
      <BoundProperties>
        <BoundPropertyInt Name="rotateStepNinety" Value="0" />
      </BoundProperties>
    </ImageClip>
    <ImageClip extentID="5921" gapBefore="0" mediaItemID="5917" duration="0.20000000000000001">
      <Effects />
      <Transitions />
      <BoundProperties>
        <BoundPropertyInt Name="rotateStepNinety" Value="0" />
      </BoundProperties>
    </ImageClip>
    <ImageClip extentID="754" gapBefore="0" mediaItemID="750" duration="0.20000000000000001">
      <Effects />
      <Transitions />
      <BoundProperties>
        <BoundPropertyInt Name="rotateStepNinety" Value="0" />
      </BoundProperties>
    </ImageClip>
    <ImageClip extentID="5922" gapBefore="0" mediaItemID="5918" duration="0.20000000000000001">
      <Effects />
      <Transitions />
      <BoundProperties>
        <BoundPropertyInt Name="rotateStepNinety" Value="0" />
      </BoundProperties>
    </ImageClip>
    <ImageClip extentID="755" gapBefore="0" mediaItemID="751" duration="0.20000000000000001">
      <Effects />
      <Transitions />
      <BoundProperties>
        <BoundPropertyInt Name="rotateStepNinety" Value="0" />
      </BoundProperties>
    </ImageClip>
    <ImageClip extentID="5923" gapBefore="0" mediaItemID="5919" duration="0.20000000000000001">
      <Effects />
      <Transitions />
      <BoundProperties>
        <BoundPropertyInt Name="rotateStepNinety" Value="0" />
      </BoundProperties>
    </ImageClip>
    <ImageClip extentID="756" gapBefore="0" mediaItemID="752" duration="0.20000000000000001">
      <Effects />
      <Transitions />
      <BoundProperties>
        <BoundPropertyInt Name="rotateStepNinety" Value="0" />
      </BoundProperties>
    </ImageClip>
    <ImageClip extentID="5924" gapBefore="0" mediaItemID="5920" duration="0.20000000000000001">
      <Effects />
      <Transitions />
      <BoundProperties>
        <BoundPropertyInt Name="rotateStepNinety" Value="0" />
      </BoundProperties>
    </ImageClip>
    <ImageClip extentID="757" gapBefore="0" mediaItemID="753" duration="0.20000000000000001">
      <Effects />
      <Transitions />
      <BoundProperties>
        <BoundPropertyInt Name="rotateStepNinety" Value="0" />
      </BoundProperties>
    </ImageClip>
    <ImageClip extentID="5925" gapBefore="0" mediaItemID="5921" duration="0.20000000000000001">
      <Effects />
      <Transitions />
      <BoundProperties>
        <BoundPropertyInt Name="rotateStepNinety" Value="0" />
      </BoundProperties>
    </ImageClip>
    <ImageClip extentID="758" gapBefore="0" mediaItemID="754" duration="0.20000000000000001">
      <Effects />
      <Transitions />
      <BoundProperties>
        <BoundPropertyInt Name="rotateStepNinety" Value="0" />
      </BoundProperties>
    </ImageClip>
    <ImageClip extentID="5926" gapBefore="0" mediaItemID="5922" duration="0.20000000000000001">
      <Effects />
      <Transitions />
      <BoundProperties>
        <BoundPropertyInt Name="rotateStepNinety" Value="0" />
      </BoundProperties>
    </ImageClip>
    <ImageClip extentID="759" gapBefore="0" mediaItemID="755" duration="0.20000000000000001">
      <Effects />
      <Transitions />
      <BoundProperties>
        <BoundPropertyInt Name="rotateStepNinety" Value="0" />
      </BoundProperties>
    </ImageClip>
    <ImageClip extentID="5927" gapBefore="0" mediaItemID="5923" duration="0.20000000000000001">
      <Effects />
      <Transitions />
      <BoundProperties>
        <BoundPropertyInt Name="rotateStepNinety" Value="0" />
      </BoundProperties>
    </ImageClip>
    <ImageClip extentID="760" gapBefore="0" mediaItemID="756" duration="0.20000000000000001">
      <Effects />
      <Transitions />
      <BoundProperties>
        <BoundPropertyInt Name="rotateStepNinety" Value="0" />
      </BoundProperties>
    </ImageClip>
    <ImageClip extentID="5928" gapBefore="0" mediaItemID="5924" duration="0.20000000000000001">
      <Effects />
      <Transitions />
      <BoundProperties>
        <BoundPropertyInt Name="rotateStepNinety" Value="0" />
      </BoundProperties>
    </ImageClip>
    <ImageClip extentID="761" gapBefore="0" mediaItemID="757" duration="0.20000000000000001">
      <Effects />
      <Transitions />
      <BoundProperties>
        <BoundPropertyInt Name="rotateStepNinety" Value="0" />
      </BoundProperties>
    </ImageClip>
    <ImageClip extentID="5929" gapBefore="0" mediaItemID="5925" duration="0.20000000000000001">
      <Effects />
      <Transitions />
      <BoundProperties>
        <BoundPropertyInt Name="rotateStepNinety" Value="0" />
      </BoundProperties>
    </ImageClip>
    <ImageClip extentID="762" gapBefore="0" mediaItemID="758" duration="0.20000000000000001">
      <Effects />
      <Transitions />
      <BoundProperties>
        <BoundPropertyInt Name="rotateStepNinety" Value="0" />
      </BoundProperties>
    </ImageClip>
    <ImageClip extentID="5930" gapBefore="0" mediaItemID="5926" duration="0.20000000000000001">
      <Effects />
      <Transitions />
      <BoundProperties>
        <BoundPropertyInt Name="rotateStepNinety" Value="0" />
      </BoundProperties>
    </ImageClip>
    <ImageClip extentID="763" gapBefore="0" mediaItemID="759" duration="0.20000000000000001">
      <Effects />
      <Transitions />
      <BoundProperties>
        <BoundPropertyInt Name="rotateStepNinety" Value="0" />
      </BoundProperties>
    </ImageClip>
    <ImageClip extentID="5931" gapBefore="0" mediaItemID="5927" duration="0.20000000000000001">
      <Effects />
      <Transitions />
      <BoundProperties>
        <BoundPropertyInt Name="rotateStepNinety" Value="0" />
      </BoundProperties>
    </ImageClip>
    <ImageClip extentID="764" gapBefore="0" mediaItemID="760" duration="0.20000000000000001">
      <Effects />
      <Transitions />
      <BoundProperties>
        <BoundPropertyInt Name="rotateStepNinety" Value="0" />
      </BoundProperties>
    </ImageClip>
    <ImageClip extentID="5932" gapBefore="0" mediaItemID="5928" duration="0.20000000000000001">
      <Effects />
      <Transitions />
      <BoundProperties>
        <BoundPropertyInt Name="rotateStepNinety" Value="0" />
      </BoundProperties>
    </ImageClip>
    <ImageClip extentID="765" gapBefore="0" mediaItemID="761" duration="0.20000000000000001">
      <Effects />
      <Transitions />
      <BoundProperties>
        <BoundPropertyInt Name="rotateStepNinety" Value="0" />
      </BoundProperties>
    </ImageClip>
    <ImageClip extentID="5933" gapBefore="0" mediaItemID="5929" duration="0.20000000000000001">
      <Effects />
      <Transitions />
      <BoundProperties>
        <BoundPropertyInt Name="rotateStepNinety" Value="0" />
      </BoundProperties>
    </ImageClip>
    <ImageClip extentID="766" gapBefore="0" mediaItemID="762" duration="0.20000000000000001">
      <Effects />
      <Transitions />
      <BoundProperties>
        <BoundPropertyInt Name="rotateStepNinety" Value="0" />
      </BoundProperties>
    </ImageClip>
    <ImageClip extentID="5934" gapBefore="0" mediaItemID="5930" duration="0.20000000000000001">
      <Effects />
      <Transitions />
      <BoundProperties>
        <BoundPropertyInt Name="rotateStepNinety" Value="0" />
      </BoundProperties>
    </ImageClip>
    <ImageClip extentID="767" gapBefore="0" mediaItemID="763" duration="0.20000000000000001">
      <Effects />
      <Transitions />
      <BoundProperties>
        <BoundPropertyInt Name="rotateStepNinety" Value="0" />
      </BoundProperties>
    </ImageClip>
    <ImageClip extentID="5935" gapBefore="0" mediaItemID="5931" duration="0.20000000000000001">
      <Effects />
      <Transitions />
      <BoundProperties>
        <BoundPropertyInt Name="rotateStepNinety" Value="0" />
      </BoundProperties>
    </ImageClip>
    <ImageClip extentID="768" gapBefore="0" mediaItemID="764" duration="0.20000000000000001">
      <Effects />
      <Transitions />
      <BoundProperties>
        <BoundPropertyInt Name="rotateStepNinety" Value="0" />
      </BoundProperties>
    </ImageClip>
    <ImageClip extentID="5936" gapBefore="0" mediaItemID="5932" duration="0.20000000000000001">
      <Effects />
      <Transitions />
      <BoundProperties>
        <BoundPropertyInt Name="rotateStepNinety" Value="0" />
      </BoundProperties>
    </ImageClip>
    <ImageClip extentID="769" gapBefore="0" mediaItemID="765" duration="0.20000000000000001">
      <Effects />
      <Transitions />
      <BoundProperties>
        <BoundPropertyInt Name="rotateStepNinety" Value="0" />
      </BoundProperties>
    </ImageClip>
    <ImageClip extentID="5937" gapBefore="0" mediaItemID="5933" duration="0.20000000000000001">
      <Effects />
      <Transitions />
      <BoundProperties>
        <BoundPropertyInt Name="rotateStepNinety" Value="0" />
      </BoundProperties>
    </ImageClip>
    <ImageClip extentID="770" gapBefore="0" mediaItemID="766" duration="0.20000000000000001">
      <Effects />
      <Transitions />
      <BoundProperties>
        <BoundPropertyInt Name="rotateStepNinety" Value="0" />
      </BoundProperties>
    </ImageClip>
    <ImageClip extentID="5938" gapBefore="0" mediaItemID="5934" duration="0.20000000000000001">
      <Effects />
      <Transitions />
      <BoundProperties>
        <BoundPropertyInt Name="rotateStepNinety" Value="0" />
      </BoundProperties>
    </ImageClip>
    <ImageClip extentID="771" gapBefore="0" mediaItemID="767" duration="0.20000000000000001">
      <Effects />
      <Transitions />
      <BoundProperties>
        <BoundPropertyInt Name="rotateStepNinety" Value="0" />
      </BoundProperties>
    </ImageClip>
    <ImageClip extentID="5939" gapBefore="0" mediaItemID="5935" duration="0.20000000000000001">
      <Effects />
      <Transitions />
      <BoundProperties>
        <BoundPropertyInt Name="rotateStepNinety" Value="0" />
      </BoundProperties>
    </ImageClip>
    <ImageClip extentID="772" gapBefore="0" mediaItemID="768" duration="0.20000000000000001">
      <Effects />
      <Transitions />
      <BoundProperties>
        <BoundPropertyInt Name="rotateStepNinety" Value="0" />
      </BoundProperties>
    </ImageClip>
    <ImageClip extentID="5940" gapBefore="0" mediaItemID="5936" duration="0.20000000000000001">
      <Effects />
      <Transitions />
      <BoundProperties>
        <BoundPropertyInt Name="rotateStepNinety" Value="0" />
      </BoundProperties>
    </ImageClip>
    <ImageClip extentID="773" gapBefore="0" mediaItemID="769" duration="0.20000000000000001">
      <Effects />
      <Transitions />
      <BoundProperties>
        <BoundPropertyInt Name="rotateStepNinety" Value="0" />
      </BoundProperties>
    </ImageClip>
    <ImageClip extentID="5941" gapBefore="0" mediaItemID="5937" duration="0.20000000000000001">
      <Effects />
      <Transitions />
      <BoundProperties>
        <BoundPropertyInt Name="rotateStepNinety" Value="0" />
      </BoundProperties>
    </ImageClip>
    <ImageClip extentID="774" gapBefore="0" mediaItemID="770" duration="0.20000000000000001">
      <Effects />
      <Transitions />
      <BoundProperties>
        <BoundPropertyInt Name="rotateStepNinety" Value="0" />
      </BoundProperties>
    </ImageClip>
    <ImageClip extentID="5942" gapBefore="0" mediaItemID="5938" duration="0.20000000000000001">
      <Effects />
      <Transitions />
      <BoundProperties>
        <BoundPropertyInt Name="rotateStepNinety" Value="0" />
      </BoundProperties>
    </ImageClip>
    <ImageClip extentID="775" gapBefore="0" mediaItemID="771" duration="0.20000000000000001">
      <Effects />
      <Transitions />
      <BoundProperties>
        <BoundPropertyInt Name="rotateStepNinety" Value="0" />
      </BoundProperties>
    </ImageClip>
    <ImageClip extentID="5943" gapBefore="0" mediaItemID="5939" duration="0.20000000000000001">
      <Effects />
      <Transitions />
      <BoundProperties>
        <BoundPropertyInt Name="rotateStepNinety" Value="0" />
      </BoundProperties>
    </ImageClip>
    <ImageClip extentID="776" gapBefore="0" mediaItemID="772" duration="0.20000000000000001">
      <Effects />
      <Transitions />
      <BoundProperties>
        <BoundPropertyInt Name="rotateStepNinety" Value="0" />
      </BoundProperties>
    </ImageClip>
    <ImageClip extentID="5944" gapBefore="0" mediaItemID="5940" duration="0.20000000000000001">
      <Effects />
      <Transitions />
      <BoundProperties>
        <BoundPropertyInt Name="rotateStepNinety" Value="0" />
      </BoundProperties>
    </ImageClip>
    <ImageClip extentID="777" gapBefore="0" mediaItemID="773" duration="0.20000000000000001">
      <Effects />
      <Transitions />
      <BoundProperties>
        <BoundPropertyInt Name="rotateStepNinety" Value="0" />
      </BoundProperties>
    </ImageClip>
    <ImageClip extentID="5945" gapBefore="0" mediaItemID="5941" duration="0.20000000000000001">
      <Effects />
      <Transitions />
      <BoundProperties>
        <BoundPropertyInt Name="rotateStepNinety" Value="0" />
      </BoundProperties>
    </ImageClip>
    <ImageClip extentID="778" gapBefore="0" mediaItemID="774" duration="0.20000000000000001">
      <Effects />
      <Transitions />
      <BoundProperties>
        <BoundPropertyInt Name="rotateStepNinety" Value="0" />
      </BoundProperties>
    </ImageClip>
    <ImageClip extentID="5946" gapBefore="0" mediaItemID="5942" duration="0.20000000000000001">
      <Effects />
      <Transitions />
      <BoundProperties>
        <BoundPropertyInt Name="rotateStepNinety" Value="0" />
      </BoundProperties>
    </ImageClip>
    <ImageClip extentID="779" gapBefore="0" mediaItemID="775" duration="0.20000000000000001">
      <Effects />
      <Transitions />
      <BoundProperties>
        <BoundPropertyInt Name="rotateStepNinety" Value="0" />
      </BoundProperties>
    </ImageClip>
    <ImageClip extentID="5947" gapBefore="0" mediaItemID="5943" duration="0.20000000000000001">
      <Effects />
      <Transitions />
      <BoundProperties>
        <BoundPropertyInt Name="rotateStepNinety" Value="0" />
      </BoundProperties>
    </ImageClip>
    <ImageClip extentID="780" gapBefore="0" mediaItemID="776" duration="0.20000000000000001">
      <Effects />
      <Transitions />
      <BoundProperties>
        <BoundPropertyInt Name="rotateStepNinety" Value="0" />
      </BoundProperties>
    </ImageClip>
    <ImageClip extentID="5948" gapBefore="0" mediaItemID="5944" duration="0.20000000000000001">
      <Effects />
      <Transitions />
      <BoundProperties>
        <BoundPropertyInt Name="rotateStepNinety" Value="0" />
      </BoundProperties>
    </ImageClip>
    <ImageClip extentID="781" gapBefore="0" mediaItemID="777" duration="0.20000000000000001">
      <Effects />
      <Transitions />
      <BoundProperties>
        <BoundPropertyInt Name="rotateStepNinety" Value="0" />
      </BoundProperties>
    </ImageClip>
    <ImageClip extentID="5949" gapBefore="0" mediaItemID="5945" duration="0.20000000000000001">
      <Effects />
      <Transitions />
      <BoundProperties>
        <BoundPropertyInt Name="rotateStepNinety" Value="0" />
      </BoundProperties>
    </ImageClip>
    <ImageClip extentID="782" gapBefore="0" mediaItemID="778" duration="0.20000000000000001">
      <Effects />
      <Transitions />
      <BoundProperties>
        <BoundPropertyInt Name="rotateStepNinety" Value="0" />
      </BoundProperties>
    </ImageClip>
    <ImageClip extentID="5950" gapBefore="0" mediaItemID="5946" duration="0.20000000000000001">
      <Effects />
      <Transitions />
      <BoundProperties>
        <BoundPropertyInt Name="rotateStepNinety" Value="0" />
      </BoundProperties>
    </ImageClip>
    <ImageClip extentID="783" gapBefore="0" mediaItemID="779" duration="0.20000000000000001">
      <Effects />
      <Transitions />
      <BoundProperties>
        <BoundPropertyInt Name="rotateStepNinety" Value="0" />
      </BoundProperties>
    </ImageClip>
    <ImageClip extentID="5951" gapBefore="0" mediaItemID="5947" duration="0.20000000000000001">
      <Effects />
      <Transitions />
      <BoundProperties>
        <BoundPropertyInt Name="rotateStepNinety" Value="0" />
      </BoundProperties>
    </ImageClip>
    <ImageClip extentID="784" gapBefore="0" mediaItemID="780" duration="0.20000000000000001">
      <Effects />
      <Transitions />
      <BoundProperties>
        <BoundPropertyInt Name="rotateStepNinety" Value="0" />
      </BoundProperties>
    </ImageClip>
    <ImageClip extentID="5952" gapBefore="0" mediaItemID="5948" duration="0.20000000000000001">
      <Effects />
      <Transitions />
      <BoundProperties>
        <BoundPropertyInt Name="rotateStepNinety" Value="0" />
      </BoundProperties>
    </ImageClip>
    <ImageClip extentID="785" gapBefore="0" mediaItemID="781" duration="0.20000000000000001">
      <Effects />
      <Transitions />
      <BoundProperties>
        <BoundPropertyInt Name="rotateStepNinety" Value="0" />
      </BoundProperties>
    </ImageClip>
    <ImageClip extentID="5953" gapBefore="0" mediaItemID="5949" duration="0.20000000000000001">
      <Effects />
      <Transitions />
      <BoundProperties>
        <BoundPropertyInt Name="rotateStepNinety" Value="0" />
      </BoundProperties>
    </ImageClip>
    <ImageClip extentID="786" gapBefore="0" mediaItemID="782" duration="0.20000000000000001">
      <Effects />
      <Transitions />
      <BoundProperties>
        <BoundPropertyInt Name="rotateStepNinety" Value="0" />
      </BoundProperties>
    </ImageClip>
    <ImageClip extentID="5954" gapBefore="0" mediaItemID="5950" duration="0.20000000000000001">
      <Effects />
      <Transitions />
      <BoundProperties>
        <BoundPropertyInt Name="rotateStepNinety" Value="0" />
      </BoundProperties>
    </ImageClip>
    <ImageClip extentID="787" gapBefore="0" mediaItemID="783" duration="0.20000000000000001">
      <Effects />
      <Transitions />
      <BoundProperties>
        <BoundPropertyInt Name="rotateStepNinety" Value="0" />
      </BoundProperties>
    </ImageClip>
    <ImageClip extentID="5955" gapBefore="0" mediaItemID="5951" duration="0.20000000000000001">
      <Effects />
      <Transitions />
      <BoundProperties>
        <BoundPropertyInt Name="rotateStepNinety" Value="0" />
      </BoundProperties>
    </ImageClip>
    <ImageClip extentID="788" gapBefore="0" mediaItemID="784" duration="0.20000000000000001">
      <Effects />
      <Transitions />
      <BoundProperties>
        <BoundPropertyInt Name="rotateStepNinety" Value="0" />
      </BoundProperties>
    </ImageClip>
    <ImageClip extentID="5956" gapBefore="0" mediaItemID="5952" duration="0.20000000000000001">
      <Effects />
      <Transitions />
      <BoundProperties>
        <BoundPropertyInt Name="rotateStepNinety" Value="0" />
      </BoundProperties>
    </ImageClip>
    <ImageClip extentID="789" gapBefore="0" mediaItemID="785" duration="0.20000000000000001">
      <Effects />
      <Transitions />
      <BoundProperties>
        <BoundPropertyInt Name="rotateStepNinety" Value="0" />
      </BoundProperties>
    </ImageClip>
    <ImageClip extentID="5957" gapBefore="0" mediaItemID="5953" duration="0.20000000000000001">
      <Effects />
      <Transitions />
      <BoundProperties>
        <BoundPropertyInt Name="rotateStepNinety" Value="0" />
      </BoundProperties>
    </ImageClip>
    <ImageClip extentID="790" gapBefore="0" mediaItemID="786" duration="0.20000000000000001">
      <Effects />
      <Transitions />
      <BoundProperties>
        <BoundPropertyInt Name="rotateStepNinety" Value="0" />
      </BoundProperties>
    </ImageClip>
    <ImageClip extentID="5958" gapBefore="0" mediaItemID="5954" duration="0.20000000000000001">
      <Effects />
      <Transitions />
      <BoundProperties>
        <BoundPropertyInt Name="rotateStepNinety" Value="0" />
      </BoundProperties>
    </ImageClip>
    <ImageClip extentID="791" gapBefore="0" mediaItemID="787" duration="0.20000000000000001">
      <Effects />
      <Transitions />
      <BoundProperties>
        <BoundPropertyInt Name="rotateStepNinety" Value="0" />
      </BoundProperties>
    </ImageClip>
    <ImageClip extentID="5959" gapBefore="0" mediaItemID="5955" duration="0.20000000000000001">
      <Effects />
      <Transitions />
      <BoundProperties>
        <BoundPropertyInt Name="rotateStepNinety" Value="0" />
      </BoundProperties>
    </ImageClip>
    <ImageClip extentID="792" gapBefore="0" mediaItemID="788" duration="0.20000000000000001">
      <Effects />
      <Transitions />
      <BoundProperties>
        <BoundPropertyInt Name="rotateStepNinety" Value="0" />
      </BoundProperties>
    </ImageClip>
    <ImageClip extentID="5960" gapBefore="0" mediaItemID="5956" duration="0.20000000000000001">
      <Effects />
      <Transitions />
      <BoundProperties>
        <BoundPropertyInt Name="rotateStepNinety" Value="0" />
      </BoundProperties>
    </ImageClip>
    <ImageClip extentID="793" gapBefore="0" mediaItemID="789" duration="0.20000000000000001">
      <Effects />
      <Transitions />
      <BoundProperties>
        <BoundPropertyInt Name="rotateStepNinety" Value="0" />
      </BoundProperties>
    </ImageClip>
    <ImageClip extentID="5961" gapBefore="0" mediaItemID="5957" duration="0.20000000000000001">
      <Effects />
      <Transitions />
      <BoundProperties>
        <BoundPropertyInt Name="rotateStepNinety" Value="0" />
      </BoundProperties>
    </ImageClip>
    <ImageClip extentID="794" gapBefore="0" mediaItemID="790" duration="0.20000000000000001">
      <Effects />
      <Transitions />
      <BoundProperties>
        <BoundPropertyInt Name="rotateStepNinety" Value="0" />
      </BoundProperties>
    </ImageClip>
    <ImageClip extentID="5962" gapBefore="0" mediaItemID="5958" duration="0.20000000000000001">
      <Effects />
      <Transitions />
      <BoundProperties>
        <BoundPropertyInt Name="rotateStepNinety" Value="0" />
      </BoundProperties>
    </ImageClip>
    <ImageClip extentID="795" gapBefore="0" mediaItemID="791" duration="0.20000000000000001">
      <Effects />
      <Transitions />
      <BoundProperties>
        <BoundPropertyInt Name="rotateStepNinety" Value="0" />
      </BoundProperties>
    </ImageClip>
    <ImageClip extentID="5963" gapBefore="0" mediaItemID="5959" duration="0.20000000000000001">
      <Effects />
      <Transitions />
      <BoundProperties>
        <BoundPropertyInt Name="rotateStepNinety" Value="0" />
      </BoundProperties>
    </ImageClip>
    <ImageClip extentID="796" gapBefore="0" mediaItemID="792" duration="0.20000000000000001">
      <Effects />
      <Transitions />
      <BoundProperties>
        <BoundPropertyInt Name="rotateStepNinety" Value="0" />
      </BoundProperties>
    </ImageClip>
    <ImageClip extentID="5964" gapBefore="0" mediaItemID="5960" duration="0.20000000000000001">
      <Effects />
      <Transitions />
      <BoundProperties>
        <BoundPropertyInt Name="rotateStepNinety" Value="0" />
      </BoundProperties>
    </ImageClip>
    <ImageClip extentID="797" gapBefore="0" mediaItemID="793" duration="0.20000000000000001">
      <Effects />
      <Transitions />
      <BoundProperties>
        <BoundPropertyInt Name="rotateStepNinety" Value="0" />
      </BoundProperties>
    </ImageClip>
    <ImageClip extentID="5965" gapBefore="0" mediaItemID="5961" duration="0.20000000000000001">
      <Effects />
      <Transitions />
      <BoundProperties>
        <BoundPropertyInt Name="rotateStepNinety" Value="0" />
      </BoundProperties>
    </ImageClip>
    <ImageClip extentID="798" gapBefore="0" mediaItemID="794" duration="0.20000000000000001">
      <Effects />
      <Transitions />
      <BoundProperties>
        <BoundPropertyInt Name="rotateStepNinety" Value="0" />
      </BoundProperties>
    </ImageClip>
    <ImageClip extentID="5966" gapBefore="0" mediaItemID="5962" duration="0.20000000000000001">
      <Effects />
      <Transitions />
      <BoundProperties>
        <BoundPropertyInt Name="rotateStepNinety" Value="0" />
      </BoundProperties>
    </ImageClip>
    <ImageClip extentID="799" gapBefore="0" mediaItemID="795" duration="0.20000000000000001">
      <Effects />
      <Transitions />
      <BoundProperties>
        <BoundPropertyInt Name="rotateStepNinety" Value="0" />
      </BoundProperties>
    </ImageClip>
    <ImageClip extentID="5967" gapBefore="0" mediaItemID="5963" duration="0.20000000000000001">
      <Effects />
      <Transitions />
      <BoundProperties>
        <BoundPropertyInt Name="rotateStepNinety" Value="0" />
      </BoundProperties>
    </ImageClip>
    <ImageClip extentID="800" gapBefore="0" mediaItemID="796" duration="0.20000000000000001">
      <Effects />
      <Transitions />
      <BoundProperties>
        <BoundPropertyInt Name="rotateStepNinety" Value="0" />
      </BoundProperties>
    </ImageClip>
    <ImageClip extentID="5968" gapBefore="0" mediaItemID="5964" duration="0.20000000000000001">
      <Effects />
      <Transitions />
      <BoundProperties>
        <BoundPropertyInt Name="rotateStepNinety" Value="0" />
      </BoundProperties>
    </ImageClip>
    <ImageClip extentID="801" gapBefore="0" mediaItemID="797" duration="0.20000000000000001">
      <Effects />
      <Transitions />
      <BoundProperties>
        <BoundPropertyInt Name="rotateStepNinety" Value="0" />
      </BoundProperties>
    </ImageClip>
    <ImageClip extentID="5969" gapBefore="0" mediaItemID="5965" duration="0.20000000000000001">
      <Effects />
      <Transitions />
      <BoundProperties>
        <BoundPropertyInt Name="rotateStepNinety" Value="0" />
      </BoundProperties>
    </ImageClip>
    <ImageClip extentID="802" gapBefore="0" mediaItemID="798" duration="0.20000000000000001">
      <Effects />
      <Transitions />
      <BoundProperties>
        <BoundPropertyInt Name="rotateStepNinety" Value="0" />
      </BoundProperties>
    </ImageClip>
    <ImageClip extentID="5970" gapBefore="0" mediaItemID="5966" duration="0.20000000000000001">
      <Effects />
      <Transitions />
      <BoundProperties>
        <BoundPropertyInt Name="rotateStepNinety" Value="0" />
      </BoundProperties>
    </ImageClip>
    <ImageClip extentID="803" gapBefore="0" mediaItemID="799" duration="0.20000000000000001">
      <Effects />
      <Transitions />
      <BoundProperties>
        <BoundPropertyInt Name="rotateStepNinety" Value="0" />
      </BoundProperties>
    </ImageClip>
    <ImageClip extentID="5971" gapBefore="0" mediaItemID="5967" duration="0.20000000000000001">
      <Effects />
      <Transitions />
      <BoundProperties>
        <BoundPropertyInt Name="rotateStepNinety" Value="0" />
      </BoundProperties>
    </ImageClip>
    <ImageClip extentID="804" gapBefore="0" mediaItemID="800" duration="0.20000000000000001">
      <Effects />
      <Transitions />
      <BoundProperties>
        <BoundPropertyInt Name="rotateStepNinety" Value="0" />
      </BoundProperties>
    </ImageClip>
    <ImageClip extentID="5972" gapBefore="0" mediaItemID="5968" duration="0.20000000000000001">
      <Effects />
      <Transitions />
      <BoundProperties>
        <BoundPropertyInt Name="rotateStepNinety" Value="0" />
      </BoundProperties>
    </ImageClip>
    <ImageClip extentID="805" gapBefore="0" mediaItemID="801" duration="0.20000000000000001">
      <Effects />
      <Transitions />
      <BoundProperties>
        <BoundPropertyInt Name="rotateStepNinety" Value="0" />
      </BoundProperties>
    </ImageClip>
    <ImageClip extentID="5973" gapBefore="0" mediaItemID="5969" duration="0.20000000000000001">
      <Effects />
      <Transitions />
      <BoundProperties>
        <BoundPropertyInt Name="rotateStepNinety" Value="0" />
      </BoundProperties>
    </ImageClip>
    <ImageClip extentID="806" gapBefore="0" mediaItemID="802" duration="0.20000000000000001">
      <Effects />
      <Transitions />
      <BoundProperties>
        <BoundPropertyInt Name="rotateStepNinety" Value="0" />
      </BoundProperties>
    </ImageClip>
    <ImageClip extentID="5974" gapBefore="0" mediaItemID="5970" duration="0.20000000000000001">
      <Effects />
      <Transitions />
      <BoundProperties>
        <BoundPropertyInt Name="rotateStepNinety" Value="0" />
      </BoundProperties>
    </ImageClip>
    <ImageClip extentID="807" gapBefore="0" mediaItemID="803" duration="0.20000000000000001">
      <Effects />
      <Transitions />
      <BoundProperties>
        <BoundPropertyInt Name="rotateStepNinety" Value="0" />
      </BoundProperties>
    </ImageClip>
    <ImageClip extentID="5975" gapBefore="0" mediaItemID="5971" duration="0.20000000000000001">
      <Effects />
      <Transitions />
      <BoundProperties>
        <BoundPropertyInt Name="rotateStepNinety" Value="0" />
      </BoundProperties>
    </ImageClip>
    <ImageClip extentID="808" gapBefore="0" mediaItemID="804" duration="0.20000000000000001">
      <Effects />
      <Transitions />
      <BoundProperties>
        <BoundPropertyInt Name="rotateStepNinety" Value="0" />
      </BoundProperties>
    </ImageClip>
    <ImageClip extentID="5976" gapBefore="0" mediaItemID="5972" duration="0.20000000000000001">
      <Effects />
      <Transitions />
      <BoundProperties>
        <BoundPropertyInt Name="rotateStepNinety" Value="0" />
      </BoundProperties>
    </ImageClip>
    <ImageClip extentID="809" gapBefore="0" mediaItemID="805" duration="0.20000000000000001">
      <Effects />
      <Transitions />
      <BoundProperties>
        <BoundPropertyInt Name="rotateStepNinety" Value="0" />
      </BoundProperties>
    </ImageClip>
    <ImageClip extentID="5977" gapBefore="0" mediaItemID="5973" duration="0.20000000000000001">
      <Effects />
      <Transitions />
      <BoundProperties>
        <BoundPropertyInt Name="rotateStepNinety" Value="0" />
      </BoundProperties>
    </ImageClip>
    <ImageClip extentID="810" gapBefore="0" mediaItemID="806" duration="0.20000000000000001">
      <Effects />
      <Transitions />
      <BoundProperties>
        <BoundPropertyInt Name="rotateStepNinety" Value="0" />
      </BoundProperties>
    </ImageClip>
    <ImageClip extentID="5978" gapBefore="0" mediaItemID="5974" duration="0.20000000000000001">
      <Effects />
      <Transitions />
      <BoundProperties>
        <BoundPropertyInt Name="rotateStepNinety" Value="0" />
      </BoundProperties>
    </ImageClip>
    <ImageClip extentID="811" gapBefore="0" mediaItemID="807" duration="0.20000000000000001">
      <Effects />
      <Transitions />
      <BoundProperties>
        <BoundPropertyInt Name="rotateStepNinety" Value="0" />
      </BoundProperties>
    </ImageClip>
    <ImageClip extentID="5979" gapBefore="0" mediaItemID="5975" duration="0.20000000000000001">
      <Effects />
      <Transitions />
      <BoundProperties>
        <BoundPropertyInt Name="rotateStepNinety" Value="0" />
      </BoundProperties>
    </ImageClip>
    <ImageClip extentID="812" gapBefore="0" mediaItemID="808" duration="0.20000000000000001">
      <Effects />
      <Transitions />
      <BoundProperties>
        <BoundPropertyInt Name="rotateStepNinety" Value="0" />
      </BoundProperties>
    </ImageClip>
    <ImageClip extentID="5980" gapBefore="0" mediaItemID="5976" duration="0.20000000000000001">
      <Effects />
      <Transitions />
      <BoundProperties>
        <BoundPropertyInt Name="rotateStepNinety" Value="0" />
      </BoundProperties>
    </ImageClip>
    <ImageClip extentID="813" gapBefore="0" mediaItemID="809" duration="0.20000000000000001">
      <Effects />
      <Transitions />
      <BoundProperties>
        <BoundPropertyInt Name="rotateStepNinety" Value="0" />
      </BoundProperties>
    </ImageClip>
    <ImageClip extentID="5981" gapBefore="0" mediaItemID="5977" duration="0.20000000000000001">
      <Effects />
      <Transitions />
      <BoundProperties>
        <BoundPropertyInt Name="rotateStepNinety" Value="0" />
      </BoundProperties>
    </ImageClip>
    <ImageClip extentID="814" gapBefore="0" mediaItemID="810" duration="0.20000000000000001">
      <Effects />
      <Transitions />
      <BoundProperties>
        <BoundPropertyInt Name="rotateStepNinety" Value="0" />
      </BoundProperties>
    </ImageClip>
    <ImageClip extentID="5982" gapBefore="0" mediaItemID="5978" duration="0.20000000000000001">
      <Effects />
      <Transitions />
      <BoundProperties>
        <BoundPropertyInt Name="rotateStepNinety" Value="0" />
      </BoundProperties>
    </ImageClip>
    <ImageClip extentID="815" gapBefore="0" mediaItemID="811" duration="0.20000000000000001">
      <Effects />
      <Transitions />
      <BoundProperties>
        <BoundPropertyInt Name="rotateStepNinety" Value="0" />
      </BoundProperties>
    </ImageClip>
    <ImageClip extentID="5983" gapBefore="0" mediaItemID="5979" duration="0.20000000000000001">
      <Effects />
      <Transitions />
      <BoundProperties>
        <BoundPropertyInt Name="rotateStepNinety" Value="0" />
      </BoundProperties>
    </ImageClip>
    <ImageClip extentID="816" gapBefore="0" mediaItemID="812" duration="0.20000000000000001">
      <Effects />
      <Transitions />
      <BoundProperties>
        <BoundPropertyInt Name="rotateStepNinety" Value="0" />
      </BoundProperties>
    </ImageClip>
    <ImageClip extentID="5984" gapBefore="0" mediaItemID="5980" duration="0.20000000000000001">
      <Effects />
      <Transitions />
      <BoundProperties>
        <BoundPropertyInt Name="rotateStepNinety" Value="0" />
      </BoundProperties>
    </ImageClip>
    <ImageClip extentID="817" gapBefore="0" mediaItemID="813" duration="0.20000000000000001">
      <Effects />
      <Transitions />
      <BoundProperties>
        <BoundPropertyInt Name="rotateStepNinety" Value="0" />
      </BoundProperties>
    </ImageClip>
    <ImageClip extentID="5985" gapBefore="0" mediaItemID="5981" duration="0.20000000000000001">
      <Effects />
      <Transitions />
      <BoundProperties>
        <BoundPropertyInt Name="rotateStepNinety" Value="0" />
      </BoundProperties>
    </ImageClip>
    <ImageClip extentID="818" gapBefore="0" mediaItemID="814" duration="0.20000000000000001">
      <Effects />
      <Transitions />
      <BoundProperties>
        <BoundPropertyInt Name="rotateStepNinety" Value="0" />
      </BoundProperties>
    </ImageClip>
    <ImageClip extentID="5986" gapBefore="0" mediaItemID="5982" duration="0.20000000000000001">
      <Effects />
      <Transitions />
      <BoundProperties>
        <BoundPropertyInt Name="rotateStepNinety" Value="0" />
      </BoundProperties>
    </ImageClip>
    <ImageClip extentID="819" gapBefore="0" mediaItemID="815" duration="0.20000000000000001">
      <Effects />
      <Transitions />
      <BoundProperties>
        <BoundPropertyInt Name="rotateStepNinety" Value="0" />
      </BoundProperties>
    </ImageClip>
    <ImageClip extentID="5987" gapBefore="0" mediaItemID="5983" duration="0.20000000000000001">
      <Effects />
      <Transitions />
      <BoundProperties>
        <BoundPropertyInt Name="rotateStepNinety" Value="0" />
      </BoundProperties>
    </ImageClip>
    <ImageClip extentID="820" gapBefore="0" mediaItemID="816" duration="0.20000000000000001">
      <Effects />
      <Transitions />
      <BoundProperties>
        <BoundPropertyInt Name="rotateStepNinety" Value="0" />
      </BoundProperties>
    </ImageClip>
    <ImageClip extentID="5988" gapBefore="0" mediaItemID="5984" duration="0.20000000000000001">
      <Effects />
      <Transitions />
      <BoundProperties>
        <BoundPropertyInt Name="rotateStepNinety" Value="0" />
      </BoundProperties>
    </ImageClip>
    <ImageClip extentID="821" gapBefore="0" mediaItemID="817" duration="0.20000000000000001">
      <Effects />
      <Transitions />
      <BoundProperties>
        <BoundPropertyInt Name="rotateStepNinety" Value="0" />
      </BoundProperties>
    </ImageClip>
    <ImageClip extentID="5989" gapBefore="0" mediaItemID="5985" duration="0.20000000000000001">
      <Effects />
      <Transitions />
      <BoundProperties>
        <BoundPropertyInt Name="rotateStepNinety" Value="0" />
      </BoundProperties>
    </ImageClip>
    <ImageClip extentID="822" gapBefore="0" mediaItemID="818" duration="0.20000000000000001">
      <Effects />
      <Transitions />
      <BoundProperties>
        <BoundPropertyInt Name="rotateStepNinety" Value="0" />
      </BoundProperties>
    </ImageClip>
    <ImageClip extentID="5990" gapBefore="0" mediaItemID="5986" duration="0.20000000000000001">
      <Effects />
      <Transitions />
      <BoundProperties>
        <BoundPropertyInt Name="rotateStepNinety" Value="0" />
      </BoundProperties>
    </ImageClip>
    <ImageClip extentID="823" gapBefore="0" mediaItemID="819" duration="0.20000000000000001">
      <Effects />
      <Transitions />
      <BoundProperties>
        <BoundPropertyInt Name="rotateStepNinety" Value="0" />
      </BoundProperties>
    </ImageClip>
    <ImageClip extentID="5991" gapBefore="0" mediaItemID="5987" duration="0.20000000000000001">
      <Effects />
      <Transitions />
      <BoundProperties>
        <BoundPropertyInt Name="rotateStepNinety" Value="0" />
      </BoundProperties>
    </ImageClip>
    <ImageClip extentID="824" gapBefore="0" mediaItemID="820" duration="0.20000000000000001">
      <Effects />
      <Transitions />
      <BoundProperties>
        <BoundPropertyInt Name="rotateStepNinety" Value="0" />
      </BoundProperties>
    </ImageClip>
    <ImageClip extentID="5992" gapBefore="0" mediaItemID="5988" duration="0.20000000000000001">
      <Effects />
      <Transitions />
      <BoundProperties>
        <BoundPropertyInt Name="rotateStepNinety" Value="0" />
      </BoundProperties>
    </ImageClip>
    <ImageClip extentID="825" gapBefore="0" mediaItemID="821" duration="0.20000000000000001">
      <Effects />
      <Transitions />
      <BoundProperties>
        <BoundPropertyInt Name="rotateStepNinety" Value="0" />
      </BoundProperties>
    </ImageClip>
    <ImageClip extentID="5993" gapBefore="0" mediaItemID="5989" duration="0.20000000000000001">
      <Effects />
      <Transitions />
      <BoundProperties>
        <BoundPropertyInt Name="rotateStepNinety" Value="0" />
      </BoundProperties>
    </ImageClip>
    <ImageClip extentID="826" gapBefore="0" mediaItemID="822" duration="0.20000000000000001">
      <Effects />
      <Transitions />
      <BoundProperties>
        <BoundPropertyInt Name="rotateStepNinety" Value="0" />
      </BoundProperties>
    </ImageClip>
    <ImageClip extentID="5994" gapBefore="0" mediaItemID="5990" duration="0.20000000000000001">
      <Effects />
      <Transitions />
      <BoundProperties>
        <BoundPropertyInt Name="rotateStepNinety" Value="0" />
      </BoundProperties>
    </ImageClip>
    <ImageClip extentID="827" gapBefore="0" mediaItemID="823" duration="0.20000000000000001">
      <Effects />
      <Transitions />
      <BoundProperties>
        <BoundPropertyInt Name="rotateStepNinety" Value="0" />
      </BoundProperties>
    </ImageClip>
    <ImageClip extentID="5995" gapBefore="0" mediaItemID="5991" duration="0.20000000000000001">
      <Effects />
      <Transitions />
      <BoundProperties>
        <BoundPropertyInt Name="rotateStepNinety" Value="0" />
      </BoundProperties>
    </ImageClip>
    <ImageClip extentID="828" gapBefore="0" mediaItemID="824" duration="0.20000000000000001">
      <Effects />
      <Transitions />
      <BoundProperties>
        <BoundPropertyInt Name="rotateStepNinety" Value="0" />
      </BoundProperties>
    </ImageClip>
    <ImageClip extentID="5996" gapBefore="0" mediaItemID="5992" duration="0.20000000000000001">
      <Effects />
      <Transitions />
      <BoundProperties>
        <BoundPropertyInt Name="rotateStepNinety" Value="0" />
      </BoundProperties>
    </ImageClip>
    <ImageClip extentID="829" gapBefore="0" mediaItemID="825" duration="0.20000000000000001">
      <Effects />
      <Transitions />
      <BoundProperties>
        <BoundPropertyInt Name="rotateStepNinety" Value="0" />
      </BoundProperties>
    </ImageClip>
    <ImageClip extentID="5997" gapBefore="0" mediaItemID="5993" duration="0.20000000000000001">
      <Effects />
      <Transitions />
      <BoundProperties>
        <BoundPropertyInt Name="rotateStepNinety" Value="0" />
      </BoundProperties>
    </ImageClip>
    <ImageClip extentID="830" gapBefore="0" mediaItemID="826" duration="0.20000000000000001">
      <Effects />
      <Transitions />
      <BoundProperties>
        <BoundPropertyInt Name="rotateStepNinety" Value="0" />
      </BoundProperties>
    </ImageClip>
    <ImageClip extentID="5998" gapBefore="0" mediaItemID="5994" duration="0.20000000000000001">
      <Effects />
      <Transitions />
      <BoundProperties>
        <BoundPropertyInt Name="rotateStepNinety" Value="0" />
      </BoundProperties>
    </ImageClip>
    <ImageClip extentID="831" gapBefore="0" mediaItemID="827" duration="0.20000000000000001">
      <Effects />
      <Transitions />
      <BoundProperties>
        <BoundPropertyInt Name="rotateStepNinety" Value="0" />
      </BoundProperties>
    </ImageClip>
    <ImageClip extentID="5999" gapBefore="0" mediaItemID="5995" duration="0.20000000000000001">
      <Effects />
      <Transitions />
      <BoundProperties>
        <BoundPropertyInt Name="rotateStepNinety" Value="0" />
      </BoundProperties>
    </ImageClip>
    <ImageClip extentID="832" gapBefore="0" mediaItemID="828" duration="0.20000000000000001">
      <Effects />
      <Transitions />
      <BoundProperties>
        <BoundPropertyInt Name="rotateStepNinety" Value="0" />
      </BoundProperties>
    </ImageClip>
    <ImageClip extentID="6000" gapBefore="0" mediaItemID="5996" duration="0.20000000000000001">
      <Effects />
      <Transitions />
      <BoundProperties>
        <BoundPropertyInt Name="rotateStepNinety" Value="0" />
      </BoundProperties>
    </ImageClip>
    <ImageClip extentID="833" gapBefore="0" mediaItemID="829" duration="0.20000000000000001">
      <Effects />
      <Transitions />
      <BoundProperties>
        <BoundPropertyInt Name="rotateStepNinety" Value="0" />
      </BoundProperties>
    </ImageClip>
    <ImageClip extentID="6001" gapBefore="0" mediaItemID="5997" duration="0.20000000000000001">
      <Effects />
      <Transitions />
      <BoundProperties>
        <BoundPropertyInt Name="rotateStepNinety" Value="0" />
      </BoundProperties>
    </ImageClip>
    <ImageClip extentID="834" gapBefore="0" mediaItemID="830" duration="0.20000000000000001">
      <Effects />
      <Transitions />
      <BoundProperties>
        <BoundPropertyInt Name="rotateStepNinety" Value="0" />
      </BoundProperties>
    </ImageClip>
    <ImageClip extentID="6002" gapBefore="0" mediaItemID="5998" duration="0.20000000000000001">
      <Effects />
      <Transitions />
      <BoundProperties>
        <BoundPropertyInt Name="rotateStepNinety" Value="0" />
      </BoundProperties>
    </ImageClip>
    <ImageClip extentID="835" gapBefore="0" mediaItemID="831" duration="0.20000000000000001">
      <Effects />
      <Transitions />
      <BoundProperties>
        <BoundPropertyInt Name="rotateStepNinety" Value="0" />
      </BoundProperties>
    </ImageClip>
    <ImageClip extentID="6003" gapBefore="0" mediaItemID="5999" duration="0.20000000000000001">
      <Effects />
      <Transitions />
      <BoundProperties>
        <BoundPropertyInt Name="rotateStepNinety" Value="0" />
      </BoundProperties>
    </ImageClip>
    <ImageClip extentID="836" gapBefore="0" mediaItemID="832" duration="0.20000000000000001">
      <Effects />
      <Transitions />
      <BoundProperties>
        <BoundPropertyInt Name="rotateStepNinety" Value="0" />
      </BoundProperties>
    </ImageClip>
    <ImageClip extentID="6004" gapBefore="0" mediaItemID="6000" duration="0.20000000000000001">
      <Effects />
      <Transitions />
      <BoundProperties>
        <BoundPropertyInt Name="rotateStepNinety" Value="0" />
      </BoundProperties>
    </ImageClip>
    <ImageClip extentID="837" gapBefore="0" mediaItemID="833" duration="0.20000000000000001">
      <Effects />
      <Transitions />
      <BoundProperties>
        <BoundPropertyInt Name="rotateStepNinety" Value="0" />
      </BoundProperties>
    </ImageClip>
    <ImageClip extentID="838" gapBefore="0" mediaItemID="834" duration="0.20000000000000001">
      <Effects />
      <Transitions />
      <BoundProperties>
        <BoundPropertyInt Name="rotateStepNinety" Value="0" />
      </BoundProperties>
    </ImageClip>
    <ImageClip extentID="839" gapBefore="0" mediaItemID="835" duration="0.20000000000000001">
      <Effects />
      <Transitions />
      <BoundProperties>
        <BoundPropertyInt Name="rotateStepNinety" Value="0" />
      </BoundProperties>
    </ImageClip>
    <ImageClip extentID="840" gapBefore="0" mediaItemID="836" duration="0.20000000000000001">
      <Effects />
      <Transitions />
      <BoundProperties>
        <BoundPropertyInt Name="rotateStepNinety" Value="0" />
      </BoundProperties>
    </ImageClip>
    <ImageClip extentID="841" gapBefore="0" mediaItemID="837" duration="0.20000000000000001">
      <Effects />
      <Transitions />
      <BoundProperties>
        <BoundPropertyInt Name="rotateStepNinety" Value="0" />
      </BoundProperties>
    </ImageClip>
    <ImageClip extentID="842" gapBefore="0" mediaItemID="838" duration="0.20000000000000001">
      <Effects />
      <Transitions />
      <BoundProperties>
        <BoundPropertyInt Name="rotateStepNinety" Value="0" />
      </BoundProperties>
    </ImageClip>
    <ImageClip extentID="843" gapBefore="0" mediaItemID="839" duration="0.20000000000000001">
      <Effects />
      <Transitions />
      <BoundProperties>
        <BoundPropertyInt Name="rotateStepNinety" Value="0" />
      </BoundProperties>
    </ImageClip>
    <ImageClip extentID="844" gapBefore="0" mediaItemID="840" duration="0.20000000000000001">
      <Effects />
      <Transitions />
      <BoundProperties>
        <BoundPropertyInt Name="rotateStepNinety" Value="0" />
      </BoundProperties>
    </ImageClip>
    <ImageClip extentID="845" gapBefore="0" mediaItemID="841" duration="0.20000000000000001">
      <Effects />
      <Transitions />
      <BoundProperties>
        <BoundPropertyInt Name="rotateStepNinety" Value="0" />
      </BoundProperties>
    </ImageClip>
    <ImageClip extentID="846" gapBefore="0" mediaItemID="842" duration="0.20000000000000001">
      <Effects />
      <Transitions />
      <BoundProperties>
        <BoundPropertyInt Name="rotateStepNinety" Value="0" />
      </BoundProperties>
    </ImageClip>
    <ImageClip extentID="847" gapBefore="0" mediaItemID="843" duration="0.20000000000000001">
      <Effects />
      <Transitions />
      <BoundProperties>
        <BoundPropertyInt Name="rotateStepNinety" Value="0" />
      </BoundProperties>
    </ImageClip>
    <ImageClip extentID="848" gapBefore="0" mediaItemID="844" duration="0.20000000000000001">
      <Effects />
      <Transitions />
      <BoundProperties>
        <BoundPropertyInt Name="rotateStepNinety" Value="0" />
      </BoundProperties>
    </ImageClip>
    <ImageClip extentID="849" gapBefore="0" mediaItemID="845" duration="0.20000000000000001">
      <Effects />
      <Transitions />
      <BoundProperties>
        <BoundPropertyInt Name="rotateStepNinety" Value="0" />
      </BoundProperties>
    </ImageClip>
    <ImageClip extentID="850" gapBefore="0" mediaItemID="846" duration="0.20000000000000001">
      <Effects />
      <Transitions />
      <BoundProperties>
        <BoundPropertyInt Name="rotateStepNinety" Value="0" />
      </BoundProperties>
    </ImageClip>
    <ImageClip extentID="851" gapBefore="0" mediaItemID="847" duration="0.20000000000000001">
      <Effects />
      <Transitions />
      <BoundProperties>
        <BoundPropertyInt Name="rotateStepNinety" Value="0" />
      </BoundProperties>
    </ImageClip>
    <ImageClip extentID="852" gapBefore="0" mediaItemID="848" duration="0.20000000000000001">
      <Effects />
      <Transitions />
      <BoundProperties>
        <BoundPropertyInt Name="rotateStepNinety" Value="0" />
      </BoundProperties>
    </ImageClip>
    <ImageClip extentID="853" gapBefore="0" mediaItemID="849" duration="0.20000000000000001">
      <Effects />
      <Transitions />
      <BoundProperties>
        <BoundPropertyInt Name="rotateStepNinety" Value="0" />
      </BoundProperties>
    </ImageClip>
    <ImageClip extentID="854" gapBefore="0" mediaItemID="850" duration="0.20000000000000001">
      <Effects />
      <Transitions />
      <BoundProperties>
        <BoundPropertyInt Name="rotateStepNinety" Value="0" />
      </BoundProperties>
    </ImageClip>
    <ImageClip extentID="855" gapBefore="0" mediaItemID="851" duration="0.20000000000000001">
      <Effects />
      <Transitions />
      <BoundProperties>
        <BoundPropertyInt Name="rotateStepNinety" Value="0" />
      </BoundProperties>
    </ImageClip>
    <ImageClip extentID="856" gapBefore="0" mediaItemID="852" duration="0.20000000000000001">
      <Effects />
      <Transitions />
      <BoundProperties>
        <BoundPropertyInt Name="rotateStepNinety" Value="0" />
      </BoundProperties>
    </ImageClip>
    <ImageClip extentID="857" gapBefore="0" mediaItemID="853" duration="0.20000000000000001">
      <Effects />
      <Transitions />
      <BoundProperties>
        <BoundPropertyInt Name="rotateStepNinety" Value="0" />
      </BoundProperties>
    </ImageClip>
    <ImageClip extentID="858" gapBefore="0" mediaItemID="854" duration="0.20000000000000001">
      <Effects />
      <Transitions />
      <BoundProperties>
        <BoundPropertyInt Name="rotateStepNinety" Value="0" />
      </BoundProperties>
    </ImageClip>
    <ImageClip extentID="859" gapBefore="0" mediaItemID="855" duration="0.20000000000000001">
      <Effects />
      <Transitions />
      <BoundProperties>
        <BoundPropertyInt Name="rotateStepNinety" Value="0" />
      </BoundProperties>
    </ImageClip>
    <ImageClip extentID="860" gapBefore="0" mediaItemID="856" duration="0.20000000000000001">
      <Effects />
      <Transitions />
      <BoundProperties>
        <BoundPropertyInt Name="rotateStepNinety" Value="0" />
      </BoundProperties>
    </ImageClip>
    <ImageClip extentID="861" gapBefore="0" mediaItemID="857" duration="0.20000000000000001">
      <Effects />
      <Transitions />
      <BoundProperties>
        <BoundPropertyInt Name="rotateStepNinety" Value="0" />
      </BoundProperties>
    </ImageClip>
    <ImageClip extentID="862" gapBefore="0" mediaItemID="858" duration="0.20000000000000001">
      <Effects />
      <Transitions />
      <BoundProperties>
        <BoundPropertyInt Name="rotateStepNinety" Value="0" />
      </BoundProperties>
    </ImageClip>
    <ImageClip extentID="863" gapBefore="0" mediaItemID="859" duration="0.20000000000000001">
      <Effects />
      <Transitions />
      <BoundProperties>
        <BoundPropertyInt Name="rotateStepNinety" Value="0" />
      </BoundProperties>
    </ImageClip>
    <ImageClip extentID="864" gapBefore="0" mediaItemID="860" duration="0.20000000000000001">
      <Effects />
      <Transitions />
      <BoundProperties>
        <BoundPropertyInt Name="rotateStepNinety" Value="0" />
      </BoundProperties>
    </ImageClip>
    <ImageClip extentID="865" gapBefore="0" mediaItemID="861" duration="0.20000000000000001">
      <Effects />
      <Transitions />
      <BoundProperties>
        <BoundPropertyInt Name="rotateStepNinety" Value="0" />
      </BoundProperties>
    </ImageClip>
    <ImageClip extentID="866" gapBefore="0" mediaItemID="862" duration="0.20000000000000001">
      <Effects />
      <Transitions />
      <BoundProperties>
        <BoundPropertyInt Name="rotateStepNinety" Value="0" />
      </BoundProperties>
    </ImageClip>
    <ImageClip extentID="867" gapBefore="0" mediaItemID="863" duration="0.20000000000000001">
      <Effects />
      <Transitions />
      <BoundProperties>
        <BoundPropertyInt Name="rotateStepNinety" Value="0" />
      </BoundProperties>
    </ImageClip>
    <ImageClip extentID="868" gapBefore="0" mediaItemID="864" duration="0.20000000000000001">
      <Effects />
      <Transitions />
      <BoundProperties>
        <BoundPropertyInt Name="rotateStepNinety" Value="0" />
      </BoundProperties>
    </ImageClip>
    <ImageClip extentID="869" gapBefore="0" mediaItemID="865" duration="0.20000000000000001">
      <Effects />
      <Transitions />
      <BoundProperties>
        <BoundPropertyInt Name="rotateStepNinety" Value="0" />
      </BoundProperties>
    </ImageClip>
    <ImageClip extentID="870" gapBefore="0" mediaItemID="866" duration="0.20000000000000001">
      <Effects />
      <Transitions />
      <BoundProperties>
        <BoundPropertyInt Name="rotateStepNinety" Value="0" />
      </BoundProperties>
    </ImageClip>
    <ImageClip extentID="871" gapBefore="0" mediaItemID="867" duration="0.20000000000000001">
      <Effects />
      <Transitions />
      <BoundProperties>
        <BoundPropertyInt Name="rotateStepNinety" Value="0" />
      </BoundProperties>
    </ImageClip>
    <ImageClip extentID="872" gapBefore="0" mediaItemID="868" duration="0.20000000000000001">
      <Effects />
      <Transitions />
      <BoundProperties>
        <BoundPropertyInt Name="rotateStepNinety" Value="0" />
      </BoundProperties>
    </ImageClip>
    <ImageClip extentID="873" gapBefore="0" mediaItemID="869" duration="0.20000000000000001">
      <Effects />
      <Transitions />
      <BoundProperties>
        <BoundPropertyInt Name="rotateStepNinety" Value="0" />
      </BoundProperties>
    </ImageClip>
    <ImageClip extentID="874" gapBefore="0" mediaItemID="870" duration="0.20000000000000001">
      <Effects />
      <Transitions />
      <BoundProperties>
        <BoundPropertyInt Name="rotateStepNinety" Value="0" />
      </BoundProperties>
    </ImageClip>
    <ImageClip extentID="875" gapBefore="0" mediaItemID="871" duration="0.20000000000000001">
      <Effects />
      <Transitions />
      <BoundProperties>
        <BoundPropertyInt Name="rotateStepNinety" Value="0" />
      </BoundProperties>
    </ImageClip>
    <ImageClip extentID="876" gapBefore="0" mediaItemID="872" duration="0.20000000000000001">
      <Effects />
      <Transitions />
      <BoundProperties>
        <BoundPropertyInt Name="rotateStepNinety" Value="0" />
      </BoundProperties>
    </ImageClip>
    <ImageClip extentID="877" gapBefore="0" mediaItemID="873" duration="0.20000000000000001">
      <Effects />
      <Transitions />
      <BoundProperties>
        <BoundPropertyInt Name="rotateStepNinety" Value="0" />
      </BoundProperties>
    </ImageClip>
    <ImageClip extentID="878" gapBefore="0" mediaItemID="874" duration="0.20000000000000001">
      <Effects />
      <Transitions />
      <BoundProperties>
        <BoundPropertyInt Name="rotateStepNinety" Value="0" />
      </BoundProperties>
    </ImageClip>
    <ImageClip extentID="879" gapBefore="0" mediaItemID="875" duration="0.20000000000000001">
      <Effects />
      <Transitions />
      <BoundProperties>
        <BoundPropertyInt Name="rotateStepNinety" Value="0" />
      </BoundProperties>
    </ImageClip>
    <ImageClip extentID="880" gapBefore="0" mediaItemID="876" duration="0.20000000000000001">
      <Effects />
      <Transitions />
      <BoundProperties>
        <BoundPropertyInt Name="rotateStepNinety" Value="0" />
      </BoundProperties>
    </ImageClip>
    <ImageClip extentID="881" gapBefore="0" mediaItemID="877" duration="0.20000000000000001">
      <Effects />
      <Transitions />
      <BoundProperties>
        <BoundPropertyInt Name="rotateStepNinety" Value="0" />
      </BoundProperties>
    </ImageClip>
    <ImageClip extentID="882" gapBefore="0" mediaItemID="878" duration="0.20000000000000001">
      <Effects />
      <Transitions />
      <BoundProperties>
        <BoundPropertyInt Name="rotateStepNinety" Value="0" />
      </BoundProperties>
    </ImageClip>
    <ImageClip extentID="883" gapBefore="0" mediaItemID="879" duration="0.20000000000000001">
      <Effects />
      <Transitions />
      <BoundProperties>
        <BoundPropertyInt Name="rotateStepNinety" Value="0" />
      </BoundProperties>
    </ImageClip>
    <ImageClip extentID="884" gapBefore="0" mediaItemID="880" duration="0.20000000000000001">
      <Effects />
      <Transitions />
      <BoundProperties>
        <BoundPropertyInt Name="rotateStepNinety" Value="0" />
      </BoundProperties>
    </ImageClip>
    <ImageClip extentID="885" gapBefore="0" mediaItemID="881" duration="0.20000000000000001">
      <Effects />
      <Transitions />
      <BoundProperties>
        <BoundPropertyInt Name="rotateStepNinety" Value="0" />
      </BoundProperties>
    </ImageClip>
    <ImageClip extentID="886" gapBefore="0" mediaItemID="882" duration="0.20000000000000001">
      <Effects />
      <Transitions />
      <BoundProperties>
        <BoundPropertyInt Name="rotateStepNinety" Value="0" />
      </BoundProperties>
    </ImageClip>
    <ImageClip extentID="887" gapBefore="0" mediaItemID="883" duration="0.20000000000000001">
      <Effects />
      <Transitions />
      <BoundProperties>
        <BoundPropertyInt Name="rotateStepNinety" Value="0" />
      </BoundProperties>
    </ImageClip>
    <ImageClip extentID="888" gapBefore="0" mediaItemID="884" duration="0.20000000000000001">
      <Effects />
      <Transitions />
      <BoundProperties>
        <BoundPropertyInt Name="rotateStepNinety" Value="0" />
      </BoundProperties>
    </ImageClip>
    <ImageClip extentID="889" gapBefore="0" mediaItemID="885" duration="0.20000000000000001">
      <Effects />
      <Transitions />
      <BoundProperties>
        <BoundPropertyInt Name="rotateStepNinety" Value="0" />
      </BoundProperties>
    </ImageClip>
    <ImageClip extentID="890" gapBefore="0" mediaItemID="886" duration="0.20000000000000001">
      <Effects />
      <Transitions />
      <BoundProperties>
        <BoundPropertyInt Name="rotateStepNinety" Value="0" />
      </BoundProperties>
    </ImageClip>
    <ImageClip extentID="891" gapBefore="0" mediaItemID="887" duration="0.20000000000000001">
      <Effects />
      <Transitions />
      <BoundProperties>
        <BoundPropertyInt Name="rotateStepNinety" Value="0" />
      </BoundProperties>
    </ImageClip>
    <ImageClip extentID="892" gapBefore="0" mediaItemID="888" duration="0.20000000000000001">
      <Effects />
      <Transitions />
      <BoundProperties>
        <BoundPropertyInt Name="rotateStepNinety" Value="0" />
      </BoundProperties>
    </ImageClip>
    <ImageClip extentID="893" gapBefore="0" mediaItemID="889" duration="0.20000000000000001">
      <Effects />
      <Transitions />
      <BoundProperties>
        <BoundPropertyInt Name="rotateStepNinety" Value="0" />
      </BoundProperties>
    </ImageClip>
    <ImageClip extentID="894" gapBefore="0" mediaItemID="890" duration="0.20000000000000001">
      <Effects />
      <Transitions />
      <BoundProperties>
        <BoundPropertyInt Name="rotateStepNinety" Value="0" />
      </BoundProperties>
    </ImageClip>
    <ImageClip extentID="895" gapBefore="0" mediaItemID="891" duration="0.20000000000000001">
      <Effects />
      <Transitions />
      <BoundProperties>
        <BoundPropertyInt Name="rotateStepNinety" Value="0" />
      </BoundProperties>
    </ImageClip>
    <ImageClip extentID="896" gapBefore="0" mediaItemID="892" duration="0.20000000000000001">
      <Effects />
      <Transitions />
      <BoundProperties>
        <BoundPropertyInt Name="rotateStepNinety" Value="0" />
      </BoundProperties>
    </ImageClip>
    <ImageClip extentID="897" gapBefore="0" mediaItemID="893" duration="0.20000000000000001">
      <Effects />
      <Transitions />
      <BoundProperties>
        <BoundPropertyInt Name="rotateStepNinety" Value="0" />
      </BoundProperties>
    </ImageClip>
    <ImageClip extentID="898" gapBefore="0" mediaItemID="894" duration="0.20000000000000001">
      <Effects />
      <Transitions />
      <BoundProperties>
        <BoundPropertyInt Name="rotateStepNinety" Value="0" />
      </BoundProperties>
    </ImageClip>
    <ImageClip extentID="899" gapBefore="0" mediaItemID="895" duration="0.20000000000000001">
      <Effects />
      <Transitions />
      <BoundProperties>
        <BoundPropertyInt Name="rotateStepNinety" Value="0" />
      </BoundProperties>
    </ImageClip>
    <ImageClip extentID="900" gapBefore="0" mediaItemID="896" duration="0.20000000000000001">
      <Effects />
      <Transitions />
      <BoundProperties>
        <BoundPropertyInt Name="rotateStepNinety" Value="0" />
      </BoundProperties>
    </ImageClip>
    <ImageClip extentID="901" gapBefore="0" mediaItemID="897" duration="0.20000000000000001">
      <Effects />
      <Transitions />
      <BoundProperties>
        <BoundPropertyInt Name="rotateStepNinety" Value="0" />
      </BoundProperties>
    </ImageClip>
    <ImageClip extentID="902" gapBefore="0" mediaItemID="898" duration="0.20000000000000001">
      <Effects />
      <Transitions />
      <BoundProperties>
        <BoundPropertyInt Name="rotateStepNinety" Value="0" />
      </BoundProperties>
    </ImageClip>
    <ImageClip extentID="903" gapBefore="0" mediaItemID="899" duration="0.20000000000000001">
      <Effects />
      <Transitions />
      <BoundProperties>
        <BoundPropertyInt Name="rotateStepNinety" Value="0" />
      </BoundProperties>
    </ImageClip>
    <ImageClip extentID="904" gapBefore="0" mediaItemID="900" duration="0.20000000000000001">
      <Effects />
      <Transitions />
      <BoundProperties>
        <BoundPropertyInt Name="rotateStepNinety" Value="0" />
      </BoundProperties>
    </ImageClip>
    <ImageClip extentID="905" gapBefore="0" mediaItemID="901" duration="0.20000000000000001">
      <Effects />
      <Transitions />
      <BoundProperties>
        <BoundPropertyInt Name="rotateStepNinety" Value="0" />
      </BoundProperties>
    </ImageClip>
    <ImageClip extentID="906" gapBefore="0" mediaItemID="902" duration="0.20000000000000001">
      <Effects />
      <Transitions />
      <BoundProperties>
        <BoundPropertyInt Name="rotateStepNinety" Value="0" />
      </BoundProperties>
    </ImageClip>
    <ImageClip extentID="907" gapBefore="0" mediaItemID="903" duration="0.20000000000000001">
      <Effects />
      <Transitions />
      <BoundProperties>
        <BoundPropertyInt Name="rotateStepNinety" Value="0" />
      </BoundProperties>
    </ImageClip>
    <ImageClip extentID="908" gapBefore="0" mediaItemID="904" duration="0.20000000000000001">
      <Effects />
      <Transitions />
      <BoundProperties>
        <BoundPropertyInt Name="rotateStepNinety" Value="0" />
      </BoundProperties>
    </ImageClip>
    <ImageClip extentID="909" gapBefore="0" mediaItemID="905" duration="0.20000000000000001">
      <Effects />
      <Transitions />
      <BoundProperties>
        <BoundPropertyInt Name="rotateStepNinety" Value="0" />
      </BoundProperties>
    </ImageClip>
    <ImageClip extentID="910" gapBefore="0" mediaItemID="906" duration="0.20000000000000001">
      <Effects />
      <Transitions />
      <BoundProperties>
        <BoundPropertyInt Name="rotateStepNinety" Value="0" />
      </BoundProperties>
    </ImageClip>
    <ImageClip extentID="911" gapBefore="0" mediaItemID="907" duration="0.20000000000000001">
      <Effects />
      <Transitions />
      <BoundProperties>
        <BoundPropertyInt Name="rotateStepNinety" Value="0" />
      </BoundProperties>
    </ImageClip>
    <ImageClip extentID="912" gapBefore="0" mediaItemID="908" duration="0.20000000000000001">
      <Effects />
      <Transitions />
      <BoundProperties>
        <BoundPropertyInt Name="rotateStepNinety" Value="0" />
      </BoundProperties>
    </ImageClip>
    <ImageClip extentID="913" gapBefore="0" mediaItemID="909" duration="0.20000000000000001">
      <Effects />
      <Transitions />
      <BoundProperties>
        <BoundPropertyInt Name="rotateStepNinety" Value="0" />
      </BoundProperties>
    </ImageClip>
    <ImageClip extentID="914" gapBefore="0" mediaItemID="910" duration="0.20000000000000001">
      <Effects />
      <Transitions />
      <BoundProperties>
        <BoundPropertyInt Name="rotateStepNinety" Value="0" />
      </BoundProperties>
    </ImageClip>
    <ImageClip extentID="915" gapBefore="0" mediaItemID="911" duration="0.20000000000000001">
      <Effects />
      <Transitions />
      <BoundProperties>
        <BoundPropertyInt Name="rotateStepNinety" Value="0" />
      </BoundProperties>
    </ImageClip>
    <ImageClip extentID="916" gapBefore="0" mediaItemID="912" duration="0.20000000000000001">
      <Effects />
      <Transitions />
      <BoundProperties>
        <BoundPropertyInt Name="rotateStepNinety" Value="0" />
      </BoundProperties>
    </ImageClip>
    <ImageClip extentID="917" gapBefore="0" mediaItemID="913" duration="0.20000000000000001">
      <Effects />
      <Transitions />
      <BoundProperties>
        <BoundPropertyInt Name="rotateStepNinety" Value="0" />
      </BoundProperties>
    </ImageClip>
    <ImageClip extentID="918" gapBefore="0" mediaItemID="914" duration="0.20000000000000001">
      <Effects />
      <Transitions />
      <BoundProperties>
        <BoundPropertyInt Name="rotateStepNinety" Value="0" />
      </BoundProperties>
    </ImageClip>
    <ImageClip extentID="919" gapBefore="0" mediaItemID="915" duration="0.20000000000000001">
      <Effects />
      <Transitions />
      <BoundProperties>
        <BoundPropertyInt Name="rotateStepNinety" Value="0" />
      </BoundProperties>
    </ImageClip>
    <ImageClip extentID="920" gapBefore="0" mediaItemID="916" duration="0.20000000000000001">
      <Effects />
      <Transitions />
      <BoundProperties>
        <BoundPropertyInt Name="rotateStepNinety" Value="0" />
      </BoundProperties>
    </ImageClip>
    <ImageClip extentID="921" gapBefore="0" mediaItemID="917" duration="0.20000000000000001">
      <Effects />
      <Transitions />
      <BoundProperties>
        <BoundPropertyInt Name="rotateStepNinety" Value="0" />
      </BoundProperties>
    </ImageClip>
    <ImageClip extentID="922" gapBefore="0" mediaItemID="918" duration="0.20000000000000001">
      <Effects />
      <Transitions />
      <BoundProperties>
        <BoundPropertyInt Name="rotateStepNinety" Value="0" />
      </BoundProperties>
    </ImageClip>
    <ImageClip extentID="923" gapBefore="0" mediaItemID="919" duration="0.20000000000000001">
      <Effects />
      <Transitions />
      <BoundProperties>
        <BoundPropertyInt Name="rotateStepNinety" Value="0" />
      </BoundProperties>
    </ImageClip>
    <ImageClip extentID="924" gapBefore="0" mediaItemID="920" duration="0.20000000000000001">
      <Effects />
      <Transitions />
      <BoundProperties>
        <BoundPropertyInt Name="rotateStepNinety" Value="0" />
      </BoundProperties>
    </ImageClip>
    <ImageClip extentID="925" gapBefore="0" mediaItemID="921" duration="0.20000000000000001">
      <Effects />
      <Transitions />
      <BoundProperties>
        <BoundPropertyInt Name="rotateStepNinety" Value="0" />
      </BoundProperties>
    </ImageClip>
    <ImageClip extentID="926" gapBefore="0" mediaItemID="922" duration="0.20000000000000001">
      <Effects />
      <Transitions />
      <BoundProperties>
        <BoundPropertyInt Name="rotateStepNinety" Value="0" />
      </BoundProperties>
    </ImageClip>
    <ImageClip extentID="927" gapBefore="0" mediaItemID="923" duration="0.20000000000000001">
      <Effects />
      <Transitions />
      <BoundProperties>
        <BoundPropertyInt Name="rotateStepNinety" Value="0" />
      </BoundProperties>
    </ImageClip>
    <ImageClip extentID="928" gapBefore="0" mediaItemID="924" duration="0.20000000000000001">
      <Effects />
      <Transitions />
      <BoundProperties>
        <BoundPropertyInt Name="rotateStepNinety" Value="0" />
      </BoundProperties>
    </ImageClip>
    <ImageClip extentID="929" gapBefore="0" mediaItemID="925" duration="0.20000000000000001">
      <Effects />
      <Transitions />
      <BoundProperties>
        <BoundPropertyInt Name="rotateStepNinety" Value="0" />
      </BoundProperties>
    </ImageClip>
    <ImageClip extentID="930" gapBefore="0" mediaItemID="926" duration="0.20000000000000001">
      <Effects />
      <Transitions />
      <BoundProperties>
        <BoundPropertyInt Name="rotateStepNinety" Value="0" />
      </BoundProperties>
    </ImageClip>
    <ImageClip extentID="931" gapBefore="0" mediaItemID="927" duration="0.20000000000000001">
      <Effects />
      <Transitions />
      <BoundProperties>
        <BoundPropertyInt Name="rotateStepNinety" Value="0" />
      </BoundProperties>
    </ImageClip>
    <ImageClip extentID="932" gapBefore="0" mediaItemID="928" duration="0.20000000000000001">
      <Effects />
      <Transitions />
      <BoundProperties>
        <BoundPropertyInt Name="rotateStepNinety" Value="0" />
      </BoundProperties>
    </ImageClip>
    <ImageClip extentID="933" gapBefore="0" mediaItemID="929" duration="0.20000000000000001">
      <Effects />
      <Transitions />
      <BoundProperties>
        <BoundPropertyInt Name="rotateStepNinety" Value="0" />
      </BoundProperties>
    </ImageClip>
    <ImageClip extentID="934" gapBefore="0" mediaItemID="930" duration="0.20000000000000001">
      <Effects />
      <Transitions />
      <BoundProperties>
        <BoundPropertyInt Name="rotateStepNinety" Value="0" />
      </BoundProperties>
    </ImageClip>
    <ImageClip extentID="935" gapBefore="0" mediaItemID="931" duration="0.20000000000000001">
      <Effects />
      <Transitions />
      <BoundProperties>
        <BoundPropertyInt Name="rotateStepNinety" Value="0" />
      </BoundProperties>
    </ImageClip>
    <ImageClip extentID="936" gapBefore="0" mediaItemID="932" duration="0.20000000000000001">
      <Effects />
      <Transitions />
      <BoundProperties>
        <BoundPropertyInt Name="rotateStepNinety" Value="0" />
      </BoundProperties>
    </ImageClip>
    <ImageClip extentID="937" gapBefore="0" mediaItemID="933" duration="0.20000000000000001">
      <Effects />
      <Transitions />
      <BoundProperties>
        <BoundPropertyInt Name="rotateStepNinety" Value="0" />
      </BoundProperties>
    </ImageClip>
    <ImageClip extentID="938" gapBefore="0" mediaItemID="934" duration="0.20000000000000001">
      <Effects />
      <Transitions />
      <BoundProperties>
        <BoundPropertyInt Name="rotateStepNinety" Value="0" />
      </BoundProperties>
    </ImageClip>
    <ImageClip extentID="939" gapBefore="0" mediaItemID="935" duration="0.20000000000000001">
      <Effects />
      <Transitions />
      <BoundProperties>
        <BoundPropertyInt Name="rotateStepNinety" Value="0" />
      </BoundProperties>
    </ImageClip>
    <ImageClip extentID="940" gapBefore="0" mediaItemID="936" duration="0.20000000000000001">
      <Effects />
      <Transitions />
      <BoundProperties>
        <BoundPropertyInt Name="rotateStepNinety" Value="0" />
      </BoundProperties>
    </ImageClip>
    <ImageClip extentID="941" gapBefore="0" mediaItemID="937" duration="0.20000000000000001">
      <Effects />
      <Transitions />
      <BoundProperties>
        <BoundPropertyInt Name="rotateStepNinety" Value="0" />
      </BoundProperties>
    </ImageClip>
    <ImageClip extentID="942" gapBefore="0" mediaItemID="938" duration="0.20000000000000001">
      <Effects />
      <Transitions />
      <BoundProperties>
        <BoundPropertyInt Name="rotateStepNinety" Value="0" />
      </BoundProperties>
    </ImageClip>
    <ImageClip extentID="943" gapBefore="0" mediaItemID="939" duration="0.20000000000000001">
      <Effects />
      <Transitions />
      <BoundProperties>
        <BoundPropertyInt Name="rotateStepNinety" Value="0" />
      </BoundProperties>
    </ImageClip>
    <ImageClip extentID="944" gapBefore="0" mediaItemID="940" duration="0.20000000000000001">
      <Effects />
      <Transitions />
      <BoundProperties>
        <BoundPropertyInt Name="rotateStepNinety" Value="0" />
      </BoundProperties>
    </ImageClip>
    <ImageClip extentID="945" gapBefore="0" mediaItemID="941" duration="0.20000000000000001">
      <Effects />
      <Transitions />
      <BoundProperties>
        <BoundPropertyInt Name="rotateStepNinety" Value="0" />
      </BoundProperties>
    </ImageClip>
    <ImageClip extentID="946" gapBefore="0" mediaItemID="942" duration="0.20000000000000001">
      <Effects />
      <Transitions />
      <BoundProperties>
        <BoundPropertyInt Name="rotateStepNinety" Value="0" />
      </BoundProperties>
    </ImageClip>
    <ImageClip extentID="947" gapBefore="0" mediaItemID="943" duration="0.20000000000000001">
      <Effects />
      <Transitions />
      <BoundProperties>
        <BoundPropertyInt Name="rotateStepNinety" Value="0" />
      </BoundProperties>
    </ImageClip>
    <ImageClip extentID="948" gapBefore="0" mediaItemID="944" duration="0.20000000000000001">
      <Effects />
      <Transitions />
      <BoundProperties>
        <BoundPropertyInt Name="rotateStepNinety" Value="0" />
      </BoundProperties>
    </ImageClip>
    <ImageClip extentID="949" gapBefore="0" mediaItemID="945" duration="0.20000000000000001">
      <Effects />
      <Transitions />
      <BoundProperties>
        <BoundPropertyInt Name="rotateStepNinety" Value="0" />
      </BoundProperties>
    </ImageClip>
    <ImageClip extentID="950" gapBefore="0" mediaItemID="946" duration="0.20000000000000001">
      <Effects />
      <Transitions />
      <BoundProperties>
        <BoundPropertyInt Name="rotateStepNinety" Value="0" />
      </BoundProperties>
    </ImageClip>
    <ImageClip extentID="951" gapBefore="0" mediaItemID="947" duration="0.20000000000000001">
      <Effects />
      <Transitions />
      <BoundProperties>
        <BoundPropertyInt Name="rotateStepNinety" Value="0" />
      </BoundProperties>
    </ImageClip>
    <ImageClip extentID="952" gapBefore="0" mediaItemID="948" duration="0.20000000000000001">
      <Effects />
      <Transitions />
      <BoundProperties>
        <BoundPropertyInt Name="rotateStepNinety" Value="0" />
      </BoundProperties>
    </ImageClip>
    <ImageClip extentID="953" gapBefore="0" mediaItemID="949" duration="0.20000000000000001">
      <Effects />
      <Transitions />
      <BoundProperties>
        <BoundPropertyInt Name="rotateStepNinety" Value="0" />
      </BoundProperties>
    </ImageClip>
    <ImageClip extentID="954" gapBefore="0" mediaItemID="950" duration="0.20000000000000001">
      <Effects />
      <Transitions />
      <BoundProperties>
        <BoundPropertyInt Name="rotateStepNinety" Value="0" />
      </BoundProperties>
    </ImageClip>
    <ImageClip extentID="955" gapBefore="0" mediaItemID="951" duration="0.20000000000000001">
      <Effects />
      <Transitions />
      <BoundProperties>
        <BoundPropertyInt Name="rotateStepNinety" Value="0" />
      </BoundProperties>
    </ImageClip>
    <ImageClip extentID="956" gapBefore="0" mediaItemID="952" duration="0.20000000000000001">
      <Effects />
      <Transitions />
      <BoundProperties>
        <BoundPropertyInt Name="rotateStepNinety" Value="0" />
      </BoundProperties>
    </ImageClip>
    <ImageClip extentID="957" gapBefore="0" mediaItemID="953" duration="0.20000000000000001">
      <Effects />
      <Transitions />
      <BoundProperties>
        <BoundPropertyInt Name="rotateStepNinety" Value="0" />
      </BoundProperties>
    </ImageClip>
    <ImageClip extentID="958" gapBefore="0" mediaItemID="954" duration="0.20000000000000001">
      <Effects />
      <Transitions />
      <BoundProperties>
        <BoundPropertyInt Name="rotateStepNinety" Value="0" />
      </BoundProperties>
    </ImageClip>
    <ImageClip extentID="959" gapBefore="0" mediaItemID="955" duration="0.20000000000000001">
      <Effects />
      <Transitions />
      <BoundProperties>
        <BoundPropertyInt Name="rotateStepNinety" Value="0" />
      </BoundProperties>
    </ImageClip>
    <ImageClip extentID="960" gapBefore="0" mediaItemID="956" duration="0.20000000000000001">
      <Effects />
      <Transitions />
      <BoundProperties>
        <BoundPropertyInt Name="rotateStepNinety" Value="0" />
      </BoundProperties>
    </ImageClip>
    <ImageClip extentID="961" gapBefore="0" mediaItemID="957" duration="0.20000000000000001">
      <Effects />
      <Transitions />
      <BoundProperties>
        <BoundPropertyInt Name="rotateStepNinety" Value="0" />
      </BoundProperties>
    </ImageClip>
    <ImageClip extentID="962" gapBefore="0" mediaItemID="958" duration="0.20000000000000001">
      <Effects />
      <Transitions />
      <BoundProperties>
        <BoundPropertyInt Name="rotateStepNinety" Value="0" />
      </BoundProperties>
    </ImageClip>
    <ImageClip extentID="963" gapBefore="0" mediaItemID="959" duration="0.20000000000000001">
      <Effects />
      <Transitions />
      <BoundProperties>
        <BoundPropertyInt Name="rotateStepNinety" Value="0" />
      </BoundProperties>
    </ImageClip>
    <ImageClip extentID="964" gapBefore="0" mediaItemID="960" duration="0.20000000000000001">
      <Effects />
      <Transitions />
      <BoundProperties>
        <BoundPropertyInt Name="rotateStepNinety" Value="0" />
      </BoundProperties>
    </ImageClip>
    <ImageClip extentID="965" gapBefore="0" mediaItemID="961" duration="0.20000000000000001">
      <Effects />
      <Transitions />
      <BoundProperties>
        <BoundPropertyInt Name="rotateStepNinety" Value="0" />
      </BoundProperties>
    </ImageClip>
    <ImageClip extentID="966" gapBefore="0" mediaItemID="962" duration="0.20000000000000001">
      <Effects />
      <Transitions />
      <BoundProperties>
        <BoundPropertyInt Name="rotateStepNinety" Value="0" />
      </BoundProperties>
    </ImageClip>
    <ImageClip extentID="967" gapBefore="0" mediaItemID="963" duration="0.20000000000000001">
      <Effects />
      <Transitions />
      <BoundProperties>
        <BoundPropertyInt Name="rotateStepNinety" Value="0" />
      </BoundProperties>
    </ImageClip>
    <ImageClip extentID="968" gapBefore="0" mediaItemID="964" duration="0.20000000000000001">
      <Effects />
      <Transitions />
      <BoundProperties>
        <BoundPropertyInt Name="rotateStepNinety" Value="0" />
      </BoundProperties>
    </ImageClip>
    <ImageClip extentID="969" gapBefore="0" mediaItemID="965" duration="0.20000000000000001">
      <Effects />
      <Transitions />
      <BoundProperties>
        <BoundPropertyInt Name="rotateStepNinety" Value="0" />
      </BoundProperties>
    </ImageClip>
    <ImageClip extentID="970" gapBefore="0" mediaItemID="966" duration="0.20000000000000001">
      <Effects />
      <Transitions />
      <BoundProperties>
        <BoundPropertyInt Name="rotateStepNinety" Value="0" />
      </BoundProperties>
    </ImageClip>
    <ImageClip extentID="971" gapBefore="0" mediaItemID="967" duration="0.20000000000000001">
      <Effects />
      <Transitions />
      <BoundProperties>
        <BoundPropertyInt Name="rotateStepNinety" Value="0" />
      </BoundProperties>
    </ImageClip>
    <ImageClip extentID="972" gapBefore="0" mediaItemID="968" duration="0.20000000000000001">
      <Effects />
      <Transitions />
      <BoundProperties>
        <BoundPropertyInt Name="rotateStepNinety" Value="0" />
      </BoundProperties>
    </ImageClip>
    <ImageClip extentID="973" gapBefore="0" mediaItemID="969" duration="0.20000000000000001">
      <Effects />
      <Transitions />
      <BoundProperties>
        <BoundPropertyInt Name="rotateStepNinety" Value="0" />
      </BoundProperties>
    </ImageClip>
    <ImageClip extentID="974" gapBefore="0" mediaItemID="970" duration="0.20000000000000001">
      <Effects />
      <Transitions />
      <BoundProperties>
        <BoundPropertyInt Name="rotateStepNinety" Value="0" />
      </BoundProperties>
    </ImageClip>
    <ImageClip extentID="975" gapBefore="0" mediaItemID="971" duration="0.20000000000000001">
      <Effects />
      <Transitions />
      <BoundProperties>
        <BoundPropertyInt Name="rotateStepNinety" Value="0" />
      </BoundProperties>
    </ImageClip>
    <ImageClip extentID="976" gapBefore="0" mediaItemID="972" duration="0.20000000000000001">
      <Effects />
      <Transitions />
      <BoundProperties>
        <BoundPropertyInt Name="rotateStepNinety" Value="0" />
      </BoundProperties>
    </ImageClip>
    <ImageClip extentID="977" gapBefore="0" mediaItemID="973" duration="0.20000000000000001">
      <Effects />
      <Transitions />
      <BoundProperties>
        <BoundPropertyInt Name="rotateStepNinety" Value="0" />
      </BoundProperties>
    </ImageClip>
    <ImageClip extentID="978" gapBefore="0" mediaItemID="974" duration="0.20000000000000001">
      <Effects />
      <Transitions />
      <BoundProperties>
        <BoundPropertyInt Name="rotateStepNinety" Value="0" />
      </BoundProperties>
    </ImageClip>
    <ImageClip extentID="979" gapBefore="0" mediaItemID="975" duration="0.20000000000000001">
      <Effects />
      <Transitions />
      <BoundProperties>
        <BoundPropertyInt Name="rotateStepNinety" Value="0" />
      </BoundProperties>
    </ImageClip>
    <ImageClip extentID="980" gapBefore="0" mediaItemID="976" duration="0.20000000000000001">
      <Effects />
      <Transitions />
      <BoundProperties>
        <BoundPropertyInt Name="rotateStepNinety" Value="0" />
      </BoundProperties>
    </ImageClip>
    <ImageClip extentID="981" gapBefore="0" mediaItemID="977" duration="0.20000000000000001">
      <Effects />
      <Transitions />
      <BoundProperties>
        <BoundPropertyInt Name="rotateStepNinety" Value="0" />
      </BoundProperties>
    </ImageClip>
    <ImageClip extentID="982" gapBefore="0" mediaItemID="978" duration="0.20000000000000001">
      <Effects />
      <Transitions />
      <BoundProperties>
        <BoundPropertyInt Name="rotateStepNinety" Value="0" />
      </BoundProperties>
    </ImageClip>
    <ImageClip extentID="983" gapBefore="0" mediaItemID="979" duration="0.20000000000000001">
      <Effects />
      <Transitions />
      <BoundProperties>
        <BoundPropertyInt Name="rotateStepNinety" Value="0" />
      </BoundProperties>
    </ImageClip>
    <ImageClip extentID="984" gapBefore="0" mediaItemID="980" duration="0.20000000000000001">
      <Effects />
      <Transitions />
      <BoundProperties>
        <BoundPropertyInt Name="rotateStepNinety" Value="0" />
      </BoundProperties>
    </ImageClip>
    <ImageClip extentID="985" gapBefore="0" mediaItemID="981" duration="0.20000000000000001">
      <Effects />
      <Transitions />
      <BoundProperties>
        <BoundPropertyInt Name="rotateStepNinety" Value="0" />
      </BoundProperties>
    </ImageClip>
    <ImageClip extentID="986" gapBefore="0" mediaItemID="982" duration="0.20000000000000001">
      <Effects />
      <Transitions />
      <BoundProperties>
        <BoundPropertyInt Name="rotateStepNinety" Value="0" />
      </BoundProperties>
    </ImageClip>
    <ImageClip extentID="987" gapBefore="0" mediaItemID="983" duration="0.20000000000000001">
      <Effects />
      <Transitions />
      <BoundProperties>
        <BoundPropertyInt Name="rotateStepNinety" Value="0" />
      </BoundProperties>
    </ImageClip>
    <ImageClip extentID="988" gapBefore="0" mediaItemID="984" duration="0.20000000000000001">
      <Effects />
      <Transitions />
      <BoundProperties>
        <BoundPropertyInt Name="rotateStepNinety" Value="0" />
      </BoundProperties>
    </ImageClip>
    <ImageClip extentID="989" gapBefore="0" mediaItemID="985" duration="0.20000000000000001">
      <Effects />
      <Transitions />
      <BoundProperties>
        <BoundPropertyInt Name="rotateStepNinety" Value="0" />
      </BoundProperties>
    </ImageClip>
    <ImageClip extentID="990" gapBefore="0" mediaItemID="986" duration="0.20000000000000001">
      <Effects />
      <Transitions />
      <BoundProperties>
        <BoundPropertyInt Name="rotateStepNinety" Value="0" />
      </BoundProperties>
    </ImageClip>
    <ImageClip extentID="991" gapBefore="0" mediaItemID="987" duration="0.20000000000000001">
      <Effects />
      <Transitions />
      <BoundProperties>
        <BoundPropertyInt Name="rotateStepNinety" Value="0" />
      </BoundProperties>
    </ImageClip>
    <ImageClip extentID="992" gapBefore="0" mediaItemID="988" duration="0.20000000000000001">
      <Effects />
      <Transitions />
      <BoundProperties>
        <BoundPropertyInt Name="rotateStepNinety" Value="0" />
      </BoundProperties>
    </ImageClip>
    <ImageClip extentID="993" gapBefore="0" mediaItemID="989" duration="0.20000000000000001">
      <Effects />
      <Transitions />
      <BoundProperties>
        <BoundPropertyInt Name="rotateStepNinety" Value="0" />
      </BoundProperties>
    </ImageClip>
    <ImageClip extentID="994" gapBefore="0" mediaItemID="990" duration="0.20000000000000001">
      <Effects />
      <Transitions />
      <BoundProperties>
        <BoundPropertyInt Name="rotateStepNinety" Value="0" />
      </BoundProperties>
    </ImageClip>
    <ImageClip extentID="995" gapBefore="0" mediaItemID="991" duration="0.20000000000000001">
      <Effects />
      <Transitions />
      <BoundProperties>
        <BoundPropertyInt Name="rotateStepNinety" Value="0" />
      </BoundProperties>
    </ImageClip>
    <ImageClip extentID="996" gapBefore="0" mediaItemID="992" duration="0.20000000000000001">
      <Effects />
      <Transitions />
      <BoundProperties>
        <BoundPropertyInt Name="rotateStepNinety" Value="0" />
      </BoundProperties>
    </ImageClip>
    <ImageClip extentID="997" gapBefore="0" mediaItemID="993" duration="0.20000000000000001">
      <Effects />
      <Transitions />
      <BoundProperties>
        <BoundPropertyInt Name="rotateStepNinety" Value="0" />
      </BoundProperties>
    </ImageClip>
    <ImageClip extentID="998" gapBefore="0" mediaItemID="994" duration="0.20000000000000001">
      <Effects />
      <Transitions />
      <BoundProperties>
        <BoundPropertyInt Name="rotateStepNinety" Value="0" />
      </BoundProperties>
    </ImageClip>
    <ImageClip extentID="999" gapBefore="0" mediaItemID="995" duration="0.20000000000000001">
      <Effects />
      <Transitions />
      <BoundProperties>
        <BoundPropertyInt Name="rotateStepNinety" Value="0" />
      </BoundProperties>
    </ImageClip>
    <ImageClip extentID="1000" gapBefore="0" mediaItemID="996" duration="0.20000000000000001">
      <Effects />
      <Transitions />
      <BoundProperties>
        <BoundPropertyInt Name="rotateStepNinety" Value="0" />
      </BoundProperties>
    </ImageClip>
    <ImageClip extentID="1001" gapBefore="0" mediaItemID="997" duration="0.20000000000000001">
      <Effects />
      <Transitions />
      <BoundProperties>
        <BoundPropertyInt Name="rotateStepNinety" Value="0" />
      </BoundProperties>
    </ImageClip>
    <ImageClip extentID="1002" gapBefore="0" mediaItemID="998" duration="0.20000000000000001">
      <Effects />
      <Transitions />
      <BoundProperties>
        <BoundPropertyInt Name="rotateStepNinety" Value="0" />
      </BoundProperties>
    </ImageClip>
    <ImageClip extentID="1003" gapBefore="0" mediaItemID="999" duration="0.20000000000000001">
      <Effects />
      <Transitions />
      <BoundProperties>
        <BoundPropertyInt Name="rotateStepNinety" Value="0" />
      </BoundProperties>
    </ImageClip>
    <ImageClip extentID="1004" gapBefore="0" mediaItemID="1000" duration="0.20000000000000001">
      <Effects />
      <Transitions />
      <BoundProperties>
        <BoundPropertyInt Name="rotateStepNinety" Value="0" />
      </BoundProperties>
    </ImageClip>
    <ImageClip extentID="1005" gapBefore="0" mediaItemID="1001" duration="0.20000000000000001">
      <Effects />
      <Transitions />
      <BoundProperties>
        <BoundPropertyInt Name="rotateStepNinety" Value="0" />
      </BoundProperties>
    </ImageClip>
    <ImageClip extentID="1006" gapBefore="0" mediaItemID="1002" duration="0.20000000000000001">
      <Effects />
      <Transitions />
      <BoundProperties>
        <BoundPropertyInt Name="rotateStepNinety" Value="0" />
      </BoundProperties>
    </ImageClip>
    <ImageClip extentID="1007" gapBefore="0" mediaItemID="1003" duration="0.20000000000000001">
      <Effects />
      <Transitions />
      <BoundProperties>
        <BoundPropertyInt Name="rotateStepNinety" Value="0" />
      </BoundProperties>
    </ImageClip>
    <ImageClip extentID="1008" gapBefore="0" mediaItemID="1004" duration="0.20000000000000001">
      <Effects />
      <Transitions />
      <BoundProperties>
        <BoundPropertyInt Name="rotateStepNinety" Value="0" />
      </BoundProperties>
    </ImageClip>
    <ImageClip extentID="1009" gapBefore="0" mediaItemID="1005" duration="0.20000000000000001">
      <Effects />
      <Transitions />
      <BoundProperties>
        <BoundPropertyInt Name="rotateStepNinety" Value="0" />
      </BoundProperties>
    </ImageClip>
    <ImageClip extentID="1010" gapBefore="0" mediaItemID="1006" duration="0.20000000000000001">
      <Effects />
      <Transitions />
      <BoundProperties>
        <BoundPropertyInt Name="rotateStepNinety" Value="0" />
      </BoundProperties>
    </ImageClip>
    <ImageClip extentID="1011" gapBefore="0" mediaItemID="1007" duration="0.20000000000000001">
      <Effects />
      <Transitions />
      <BoundProperties>
        <BoundPropertyInt Name="rotateStepNinety" Value="0" />
      </BoundProperties>
    </ImageClip>
    <ImageClip extentID="1012" gapBefore="0" mediaItemID="1008" duration="0.20000000000000001">
      <Effects />
      <Transitions />
      <BoundProperties>
        <BoundPropertyInt Name="rotateStepNinety" Value="0" />
      </BoundProperties>
    </ImageClip>
    <ImageClip extentID="1013" gapBefore="0" mediaItemID="1009" duration="0.20000000000000001">
      <Effects />
      <Transitions />
      <BoundProperties>
        <BoundPropertyInt Name="rotateStepNinety" Value="0" />
      </BoundProperties>
    </ImageClip>
    <ImageClip extentID="1014" gapBefore="0" mediaItemID="1010" duration="0.20000000000000001">
      <Effects />
      <Transitions />
      <BoundProperties>
        <BoundPropertyInt Name="rotateStepNinety" Value="0" />
      </BoundProperties>
    </ImageClip>
    <ImageClip extentID="1015" gapBefore="0" mediaItemID="1011" duration="0.20000000000000001">
      <Effects />
      <Transitions />
      <BoundProperties>
        <BoundPropertyInt Name="rotateStepNinety" Value="0" />
      </BoundProperties>
    </ImageClip>
    <ImageClip extentID="1016" gapBefore="0" mediaItemID="1012" duration="0.20000000000000001">
      <Effects />
      <Transitions />
      <BoundProperties>
        <BoundPropertyInt Name="rotateStepNinety" Value="0" />
      </BoundProperties>
    </ImageClip>
    <ImageClip extentID="1017" gapBefore="0" mediaItemID="1013" duration="0.20000000000000001">
      <Effects />
      <Transitions />
      <BoundProperties>
        <BoundPropertyInt Name="rotateStepNinety" Value="0" />
      </BoundProperties>
    </ImageClip>
    <ImageClip extentID="1018" gapBefore="0" mediaItemID="1014" duration="0.20000000000000001">
      <Effects />
      <Transitions />
      <BoundProperties>
        <BoundPropertyInt Name="rotateStepNinety" Value="0" />
      </BoundProperties>
    </ImageClip>
    <ImageClip extentID="1019" gapBefore="0" mediaItemID="1015" duration="0.20000000000000001">
      <Effects />
      <Transitions />
      <BoundProperties>
        <BoundPropertyInt Name="rotateStepNinety" Value="0" />
      </BoundProperties>
    </ImageClip>
    <ImageClip extentID="1020" gapBefore="0" mediaItemID="1016" duration="0.20000000000000001">
      <Effects />
      <Transitions />
      <BoundProperties>
        <BoundPropertyInt Name="rotateStepNinety" Value="0" />
      </BoundProperties>
    </ImageClip>
    <ImageClip extentID="1021" gapBefore="0" mediaItemID="1017" duration="0.20000000000000001">
      <Effects />
      <Transitions />
      <BoundProperties>
        <BoundPropertyInt Name="rotateStepNinety" Value="0" />
      </BoundProperties>
    </ImageClip>
    <ImageClip extentID="1022" gapBefore="0" mediaItemID="1018" duration="0.20000000000000001">
      <Effects />
      <Transitions />
      <BoundProperties>
        <BoundPropertyInt Name="rotateStepNinety" Value="0" />
      </BoundProperties>
    </ImageClip>
    <ImageClip extentID="1023" gapBefore="0" mediaItemID="1019" duration="0.20000000000000001">
      <Effects />
      <Transitions />
      <BoundProperties>
        <BoundPropertyInt Name="rotateStepNinety" Value="0" />
      </BoundProperties>
    </ImageClip>
    <ImageClip extentID="1024" gapBefore="0" mediaItemID="1020" duration="0.20000000000000001">
      <Effects />
      <Transitions />
      <BoundProperties>
        <BoundPropertyInt Name="rotateStepNinety" Value="0" />
      </BoundProperties>
    </ImageClip>
    <ImageClip extentID="1025" gapBefore="0" mediaItemID="1021" duration="0.20000000000000001">
      <Effects />
      <Transitions />
      <BoundProperties>
        <BoundPropertyInt Name="rotateStepNinety" Value="0" />
      </BoundProperties>
    </ImageClip>
    <ImageClip extentID="1026" gapBefore="0" mediaItemID="1022" duration="0.20000000000000001">
      <Effects />
      <Transitions />
      <BoundProperties>
        <BoundPropertyInt Name="rotateStepNinety" Value="0" />
      </BoundProperties>
    </ImageClip>
    <ImageClip extentID="1027" gapBefore="0" mediaItemID="1023" duration="0.20000000000000001">
      <Effects />
      <Transitions />
      <BoundProperties>
        <BoundPropertyInt Name="rotateStepNinety" Value="0" />
      </BoundProperties>
    </ImageClip>
    <ImageClip extentID="1028" gapBefore="0" mediaItemID="1024" duration="0.20000000000000001">
      <Effects />
      <Transitions />
      <BoundProperties>
        <BoundPropertyInt Name="rotateStepNinety" Value="0" />
      </BoundProperties>
    </ImageClip>
    <ImageClip extentID="1029" gapBefore="0" mediaItemID="1025" duration="0.20000000000000001">
      <Effects />
      <Transitions />
      <BoundProperties>
        <BoundPropertyInt Name="rotateStepNinety" Value="0" />
      </BoundProperties>
    </ImageClip>
    <ImageClip extentID="1030" gapBefore="0" mediaItemID="1026" duration="0.20000000000000001">
      <Effects />
      <Transitions />
      <BoundProperties>
        <BoundPropertyInt Name="rotateStepNinety" Value="0" />
      </BoundProperties>
    </ImageClip>
    <ImageClip extentID="1031" gapBefore="0" mediaItemID="1027" duration="0.20000000000000001">
      <Effects />
      <Transitions />
      <BoundProperties>
        <BoundPropertyInt Name="rotateStepNinety" Value="0" />
      </BoundProperties>
    </ImageClip>
    <ImageClip extentID="1032" gapBefore="0" mediaItemID="1028" duration="0.20000000000000001">
      <Effects />
      <Transitions />
      <BoundProperties>
        <BoundPropertyInt Name="rotateStepNinety" Value="0" />
      </BoundProperties>
    </ImageClip>
    <ImageClip extentID="1033" gapBefore="0" mediaItemID="1029" duration="0.20000000000000001">
      <Effects />
      <Transitions />
      <BoundProperties>
        <BoundPropertyInt Name="rotateStepNinety" Value="0" />
      </BoundProperties>
    </ImageClip>
    <ImageClip extentID="1034" gapBefore="0" mediaItemID="1030" duration="0.20000000000000001">
      <Effects />
      <Transitions />
      <BoundProperties>
        <BoundPropertyInt Name="rotateStepNinety" Value="0" />
      </BoundProperties>
    </ImageClip>
    <ImageClip extentID="1035" gapBefore="0" mediaItemID="1031" duration="0.20000000000000001">
      <Effects />
      <Transitions />
      <BoundProperties>
        <BoundPropertyInt Name="rotateStepNinety" Value="0" />
      </BoundProperties>
    </ImageClip>
    <ImageClip extentID="1036" gapBefore="0" mediaItemID="1032" duration="0.20000000000000001">
      <Effects />
      <Transitions />
      <BoundProperties>
        <BoundPropertyInt Name="rotateStepNinety" Value="0" />
      </BoundProperties>
    </ImageClip>
    <ImageClip extentID="1037" gapBefore="0" mediaItemID="1033" duration="0.20000000000000001">
      <Effects />
      <Transitions />
      <BoundProperties>
        <BoundPropertyInt Name="rotateStepNinety" Value="0" />
      </BoundProperties>
    </ImageClip>
    <ImageClip extentID="1038" gapBefore="0" mediaItemID="1034" duration="0.20000000000000001">
      <Effects />
      <Transitions />
      <BoundProperties>
        <BoundPropertyInt Name="rotateStepNinety" Value="0" />
      </BoundProperties>
    </ImageClip>
    <ImageClip extentID="1039" gapBefore="0" mediaItemID="1035" duration="0.20000000000000001">
      <Effects />
      <Transitions />
      <BoundProperties>
        <BoundPropertyInt Name="rotateStepNinety" Value="0" />
      </BoundProperties>
    </ImageClip>
    <ImageClip extentID="1040" gapBefore="0" mediaItemID="1036" duration="0.20000000000000001">
      <Effects />
      <Transitions />
      <BoundProperties>
        <BoundPropertyInt Name="rotateStepNinety" Value="0" />
      </BoundProperties>
    </ImageClip>
    <ImageClip extentID="1041" gapBefore="0" mediaItemID="1037" duration="0.20000000000000001">
      <Effects />
      <Transitions />
      <BoundProperties>
        <BoundPropertyInt Name="rotateStepNinety" Value="0" />
      </BoundProperties>
    </ImageClip>
    <ImageClip extentID="1042" gapBefore="0" mediaItemID="1038" duration="0.20000000000000001">
      <Effects />
      <Transitions />
      <BoundProperties>
        <BoundPropertyInt Name="rotateStepNinety" Value="0" />
      </BoundProperties>
    </ImageClip>
    <ImageClip extentID="1043" gapBefore="0" mediaItemID="1039" duration="0.20000000000000001">
      <Effects />
      <Transitions />
      <BoundProperties>
        <BoundPropertyInt Name="rotateStepNinety" Value="0" />
      </BoundProperties>
    </ImageClip>
    <ImageClip extentID="1044" gapBefore="0" mediaItemID="1040" duration="0.20000000000000001">
      <Effects />
      <Transitions />
      <BoundProperties>
        <BoundPropertyInt Name="rotateStepNinety" Value="0" />
      </BoundProperties>
    </ImageClip>
    <ImageClip extentID="1045" gapBefore="0" mediaItemID="1041" duration="0.20000000000000001">
      <Effects />
      <Transitions />
      <BoundProperties>
        <BoundPropertyInt Name="rotateStepNinety" Value="0" />
      </BoundProperties>
    </ImageClip>
    <ImageClip extentID="1046" gapBefore="0" mediaItemID="1042" duration="0.20000000000000001">
      <Effects />
      <Transitions />
      <BoundProperties>
        <BoundPropertyInt Name="rotateStepNinety" Value="0" />
      </BoundProperties>
    </ImageClip>
    <ImageClip extentID="1047" gapBefore="0" mediaItemID="1043" duration="0.20000000000000001">
      <Effects />
      <Transitions />
      <BoundProperties>
        <BoundPropertyInt Name="rotateStepNinety" Value="0" />
      </BoundProperties>
    </ImageClip>
    <ImageClip extentID="1048" gapBefore="0" mediaItemID="1044" duration="0.20000000000000001">
      <Effects />
      <Transitions />
      <BoundProperties>
        <BoundPropertyInt Name="rotateStepNinety" Value="0" />
      </BoundProperties>
    </ImageClip>
    <ImageClip extentID="1049" gapBefore="0" mediaItemID="1045" duration="0.20000000000000001">
      <Effects />
      <Transitions />
      <BoundProperties>
        <BoundPropertyInt Name="rotateStepNinety" Value="0" />
      </BoundProperties>
    </ImageClip>
    <ImageClip extentID="1050" gapBefore="0" mediaItemID="1046" duration="0.20000000000000001">
      <Effects />
      <Transitions />
      <BoundProperties>
        <BoundPropertyInt Name="rotateStepNinety" Value="0" />
      </BoundProperties>
    </ImageClip>
    <ImageClip extentID="1051" gapBefore="0" mediaItemID="1047" duration="0.20000000000000001">
      <Effects />
      <Transitions />
      <BoundProperties>
        <BoundPropertyInt Name="rotateStepNinety" Value="0" />
      </BoundProperties>
    </ImageClip>
    <ImageClip extentID="1052" gapBefore="0" mediaItemID="1048" duration="0.20000000000000001">
      <Effects />
      <Transitions />
      <BoundProperties>
        <BoundPropertyInt Name="rotateStepNinety" Value="0" />
      </BoundProperties>
    </ImageClip>
    <ImageClip extentID="1053" gapBefore="0" mediaItemID="1049" duration="0.20000000000000001">
      <Effects />
      <Transitions />
      <BoundProperties>
        <BoundPropertyInt Name="rotateStepNinety" Value="0" />
      </BoundProperties>
    </ImageClip>
    <ImageClip extentID="1054" gapBefore="0" mediaItemID="1050" duration="0.20000000000000001">
      <Effects />
      <Transitions />
      <BoundProperties>
        <BoundPropertyInt Name="rotateStepNinety" Value="0" />
      </BoundProperties>
    </ImageClip>
    <ImageClip extentID="1055" gapBefore="0" mediaItemID="1051" duration="0.20000000000000001">
      <Effects />
      <Transitions />
      <BoundProperties>
        <BoundPropertyInt Name="rotateStepNinety" Value="0" />
      </BoundProperties>
    </ImageClip>
    <ImageClip extentID="1056" gapBefore="0" mediaItemID="1052" duration="0.20000000000000001">
      <Effects />
      <Transitions />
      <BoundProperties>
        <BoundPropertyInt Name="rotateStepNinety" Value="0" />
      </BoundProperties>
    </ImageClip>
    <ImageClip extentID="1057" gapBefore="0" mediaItemID="1053" duration="0.20000000000000001">
      <Effects />
      <Transitions />
      <BoundProperties>
        <BoundPropertyInt Name="rotateStepNinety" Value="0" />
      </BoundProperties>
    </ImageClip>
    <ImageClip extentID="1058" gapBefore="0" mediaItemID="1054" duration="0.20000000000000001">
      <Effects />
      <Transitions />
      <BoundProperties>
        <BoundPropertyInt Name="rotateStepNinety" Value="0" />
      </BoundProperties>
    </ImageClip>
    <ImageClip extentID="1059" gapBefore="0" mediaItemID="1055" duration="0.20000000000000001">
      <Effects />
      <Transitions />
      <BoundProperties>
        <BoundPropertyInt Name="rotateStepNinety" Value="0" />
      </BoundProperties>
    </ImageClip>
    <ImageClip extentID="1060" gapBefore="0" mediaItemID="1056" duration="0.20000000000000001">
      <Effects />
      <Transitions />
      <BoundProperties>
        <BoundPropertyInt Name="rotateStepNinety" Value="0" />
      </BoundProperties>
    </ImageClip>
    <ImageClip extentID="1061" gapBefore="0" mediaItemID="1057" duration="0.20000000000000001">
      <Effects />
      <Transitions />
      <BoundProperties>
        <BoundPropertyInt Name="rotateStepNinety" Value="0" />
      </BoundProperties>
    </ImageClip>
    <ImageClip extentID="1062" gapBefore="0" mediaItemID="1058" duration="0.20000000000000001">
      <Effects />
      <Transitions />
      <BoundProperties>
        <BoundPropertyInt Name="rotateStepNinety" Value="0" />
      </BoundProperties>
    </ImageClip>
    <ImageClip extentID="1063" gapBefore="0" mediaItemID="1059" duration="0.20000000000000001">
      <Effects />
      <Transitions />
      <BoundProperties>
        <BoundPropertyInt Name="rotateStepNinety" Value="0" />
      </BoundProperties>
    </ImageClip>
    <ImageClip extentID="1064" gapBefore="0" mediaItemID="1060" duration="0.20000000000000001">
      <Effects />
      <Transitions />
      <BoundProperties>
        <BoundPropertyInt Name="rotateStepNinety" Value="0" />
      </BoundProperties>
    </ImageClip>
    <ImageClip extentID="1065" gapBefore="0" mediaItemID="1061" duration="0.20000000000000001">
      <Effects />
      <Transitions />
      <BoundProperties>
        <BoundPropertyInt Name="rotateStepNinety" Value="0" />
      </BoundProperties>
    </ImageClip>
    <ImageClip extentID="1066" gapBefore="0" mediaItemID="1062" duration="0.20000000000000001">
      <Effects />
      <Transitions />
      <BoundProperties>
        <BoundPropertyInt Name="rotateStepNinety" Value="0" />
      </BoundProperties>
    </ImageClip>
    <ImageClip extentID="1067" gapBefore="0" mediaItemID="1063" duration="0.20000000000000001">
      <Effects />
      <Transitions />
      <BoundProperties>
        <BoundPropertyInt Name="rotateStepNinety" Value="0" />
      </BoundProperties>
    </ImageClip>
    <ImageClip extentID="1068" gapBefore="0" mediaItemID="1064" duration="0.20000000000000001">
      <Effects />
      <Transitions />
      <BoundProperties>
        <BoundPropertyInt Name="rotateStepNinety" Value="0" />
      </BoundProperties>
    </ImageClip>
    <ImageClip extentID="1069" gapBefore="0" mediaItemID="1065" duration="0.20000000000000001">
      <Effects />
      <Transitions />
      <BoundProperties>
        <BoundPropertyInt Name="rotateStepNinety" Value="0" />
      </BoundProperties>
    </ImageClip>
    <ImageClip extentID="1070" gapBefore="0" mediaItemID="1066" duration="0.20000000000000001">
      <Effects />
      <Transitions />
      <BoundProperties>
        <BoundPropertyInt Name="rotateStepNinety" Value="0" />
      </BoundProperties>
    </ImageClip>
    <ImageClip extentID="1071" gapBefore="0" mediaItemID="1067" duration="0.20000000000000001">
      <Effects />
      <Transitions />
      <BoundProperties>
        <BoundPropertyInt Name="rotateStepNinety" Value="0" />
      </BoundProperties>
    </ImageClip>
    <ImageClip extentID="1072" gapBefore="0" mediaItemID="1068" duration="0.20000000000000001">
      <Effects />
      <Transitions />
      <BoundProperties>
        <BoundPropertyInt Name="rotateStepNinety" Value="0" />
      </BoundProperties>
    </ImageClip>
    <ImageClip extentID="1073" gapBefore="0" mediaItemID="1069" duration="0.20000000000000001">
      <Effects />
      <Transitions />
      <BoundProperties>
        <BoundPropertyInt Name="rotateStepNinety" Value="0" />
      </BoundProperties>
    </ImageClip>
    <ImageClip extentID="1074" gapBefore="0" mediaItemID="1070" duration="0.20000000000000001">
      <Effects />
      <Transitions />
      <BoundProperties>
        <BoundPropertyInt Name="rotateStepNinety" Value="0" />
      </BoundProperties>
    </ImageClip>
    <ImageClip extentID="1075" gapBefore="0" mediaItemID="1071" duration="0.20000000000000001">
      <Effects />
      <Transitions />
      <BoundProperties>
        <BoundPropertyInt Name="rotateStepNinety" Value="0" />
      </BoundProperties>
    </ImageClip>
    <ImageClip extentID="1076" gapBefore="0" mediaItemID="1072" duration="0.20000000000000001">
      <Effects />
      <Transitions />
      <BoundProperties>
        <BoundPropertyInt Name="rotateStepNinety" Value="0" />
      </BoundProperties>
    </ImageClip>
    <ImageClip extentID="1077" gapBefore="0" mediaItemID="1073" duration="0.20000000000000001">
      <Effects />
      <Transitions />
      <BoundProperties>
        <BoundPropertyInt Name="rotateStepNinety" Value="0" />
      </BoundProperties>
    </ImageClip>
    <ImageClip extentID="1078" gapBefore="0" mediaItemID="1074" duration="0.20000000000000001">
      <Effects />
      <Transitions />
      <BoundProperties>
        <BoundPropertyInt Name="rotateStepNinety" Value="0" />
      </BoundProperties>
    </ImageClip>
    <ImageClip extentID="1079" gapBefore="0" mediaItemID="1075" duration="0.20000000000000001">
      <Effects />
      <Transitions />
      <BoundProperties>
        <BoundPropertyInt Name="rotateStepNinety" Value="0" />
      </BoundProperties>
    </ImageClip>
    <ImageClip extentID="1080" gapBefore="0" mediaItemID="1076" duration="0.20000000000000001">
      <Effects />
      <Transitions />
      <BoundProperties>
        <BoundPropertyInt Name="rotateStepNinety" Value="0" />
      </BoundProperties>
    </ImageClip>
    <ImageClip extentID="1081" gapBefore="0" mediaItemID="1077" duration="0.20000000000000001">
      <Effects />
      <Transitions />
      <BoundProperties>
        <BoundPropertyInt Name="rotateStepNinety" Value="0" />
      </BoundProperties>
    </ImageClip>
    <ImageClip extentID="1082" gapBefore="0" mediaItemID="1078" duration="0.20000000000000001">
      <Effects />
      <Transitions />
      <BoundProperties>
        <BoundPropertyInt Name="rotateStepNinety" Value="0" />
      </BoundProperties>
    </ImageClip>
    <ImageClip extentID="1083" gapBefore="0" mediaItemID="1079" duration="0.20000000000000001">
      <Effects />
      <Transitions />
      <BoundProperties>
        <BoundPropertyInt Name="rotateStepNinety" Value="0" />
      </BoundProperties>
    </ImageClip>
    <ImageClip extentID="1084" gapBefore="0" mediaItemID="1080" duration="0.20000000000000001">
      <Effects />
      <Transitions />
      <BoundProperties>
        <BoundPropertyInt Name="rotateStepNinety" Value="0" />
      </BoundProperties>
    </ImageClip>
    <ImageClip extentID="1085" gapBefore="0" mediaItemID="1081" duration="0.20000000000000001">
      <Effects />
      <Transitions />
      <BoundProperties>
        <BoundPropertyInt Name="rotateStepNinety" Value="0" />
      </BoundProperties>
    </ImageClip>
    <ImageClip extentID="1086" gapBefore="0" mediaItemID="1082" duration="0.20000000000000001">
      <Effects />
      <Transitions />
      <BoundProperties>
        <BoundPropertyInt Name="rotateStepNinety" Value="0" />
      </BoundProperties>
    </ImageClip>
    <ImageClip extentID="1087" gapBefore="0" mediaItemID="1083" duration="0.20000000000000001">
      <Effects />
      <Transitions />
      <BoundProperties>
        <BoundPropertyInt Name="rotateStepNinety" Value="0" />
      </BoundProperties>
    </ImageClip>
    <ImageClip extentID="1088" gapBefore="0" mediaItemID="1084" duration="0.20000000000000001">
      <Effects />
      <Transitions />
      <BoundProperties>
        <BoundPropertyInt Name="rotateStepNinety" Value="0" />
      </BoundProperties>
    </ImageClip>
    <ImageClip extentID="1089" gapBefore="0" mediaItemID="1085" duration="0.20000000000000001">
      <Effects />
      <Transitions />
      <BoundProperties>
        <BoundPropertyInt Name="rotateStepNinety" Value="0" />
      </BoundProperties>
    </ImageClip>
    <ImageClip extentID="1090" gapBefore="0" mediaItemID="1086" duration="0.20000000000000001">
      <Effects />
      <Transitions />
      <BoundProperties>
        <BoundPropertyInt Name="rotateStepNinety" Value="0" />
      </BoundProperties>
    </ImageClip>
    <ImageClip extentID="1091" gapBefore="0" mediaItemID="1087" duration="0.20000000000000001">
      <Effects />
      <Transitions />
      <BoundProperties>
        <BoundPropertyInt Name="rotateStepNinety" Value="0" />
      </BoundProperties>
    </ImageClip>
    <ImageClip extentID="1092" gapBefore="0" mediaItemID="1088" duration="0.20000000000000001">
      <Effects />
      <Transitions />
      <BoundProperties>
        <BoundPropertyInt Name="rotateStepNinety" Value="0" />
      </BoundProperties>
    </ImageClip>
    <ImageClip extentID="1093" gapBefore="0" mediaItemID="1089" duration="0.20000000000000001">
      <Effects />
      <Transitions />
      <BoundProperties>
        <BoundPropertyInt Name="rotateStepNinety" Value="0" />
      </BoundProperties>
    </ImageClip>
    <ImageClip extentID="1094" gapBefore="0" mediaItemID="1090" duration="0.20000000000000001">
      <Effects />
      <Transitions />
      <BoundProperties>
        <BoundPropertyInt Name="rotateStepNinety" Value="0" />
      </BoundProperties>
    </ImageClip>
    <ImageClip extentID="1095" gapBefore="0" mediaItemID="1091" duration="0.20000000000000001">
      <Effects />
      <Transitions />
      <BoundProperties>
        <BoundPropertyInt Name="rotateStepNinety" Value="0" />
      </BoundProperties>
    </ImageClip>
    <ImageClip extentID="1096" gapBefore="0" mediaItemID="1092" duration="0.20000000000000001">
      <Effects />
      <Transitions />
      <BoundProperties>
        <BoundPropertyInt Name="rotateStepNinety" Value="0" />
      </BoundProperties>
    </ImageClip>
    <ImageClip extentID="1097" gapBefore="0" mediaItemID="1093" duration="0.20000000000000001">
      <Effects />
      <Transitions />
      <BoundProperties>
        <BoundPropertyInt Name="rotateStepNinety" Value="0" />
      </BoundProperties>
    </ImageClip>
    <ImageClip extentID="1098" gapBefore="0" mediaItemID="1094" duration="0.20000000000000001">
      <Effects />
      <Transitions />
      <BoundProperties>
        <BoundPropertyInt Name="rotateStepNinety" Value="0" />
      </BoundProperties>
    </ImageClip>
    <ImageClip extentID="1099" gapBefore="0" mediaItemID="1095" duration="0.20000000000000001">
      <Effects />
      <Transitions />
      <BoundProperties>
        <BoundPropertyInt Name="rotateStepNinety" Value="0" />
      </BoundProperties>
    </ImageClip>
    <ImageClip extentID="1100" gapBefore="0" mediaItemID="1096" duration="0.20000000000000001">
      <Effects />
      <Transitions />
      <BoundProperties>
        <BoundPropertyInt Name="rotateStepNinety" Value="0" />
      </BoundProperties>
    </ImageClip>
    <ImageClip extentID="1101" gapBefore="0" mediaItemID="1097" duration="0.20000000000000001">
      <Effects />
      <Transitions />
      <BoundProperties>
        <BoundPropertyInt Name="rotateStepNinety" Value="0" />
      </BoundProperties>
    </ImageClip>
    <ImageClip extentID="1102" gapBefore="0" mediaItemID="1098" duration="0.20000000000000001">
      <Effects />
      <Transitions />
      <BoundProperties>
        <BoundPropertyInt Name="rotateStepNinety" Value="0" />
      </BoundProperties>
    </ImageClip>
    <ImageClip extentID="1103" gapBefore="0" mediaItemID="1099" duration="0.20000000000000001">
      <Effects />
      <Transitions />
      <BoundProperties>
        <BoundPropertyInt Name="rotateStepNinety" Value="0" />
      </BoundProperties>
    </ImageClip>
    <ImageClip extentID="1104" gapBefore="0" mediaItemID="1100" duration="0.20000000000000001">
      <Effects />
      <Transitions />
      <BoundProperties>
        <BoundPropertyInt Name="rotateStepNinety" Value="0" />
      </BoundProperties>
    </ImageClip>
    <ImageClip extentID="1105" gapBefore="0" mediaItemID="1101" duration="0.20000000000000001">
      <Effects />
      <Transitions />
      <BoundProperties>
        <BoundPropertyInt Name="rotateStepNinety" Value="0" />
      </BoundProperties>
    </ImageClip>
    <ImageClip extentID="1106" gapBefore="0" mediaItemID="1102" duration="0.20000000000000001">
      <Effects />
      <Transitions />
      <BoundProperties>
        <BoundPropertyInt Name="rotateStepNinety" Value="0" />
      </BoundProperties>
    </ImageClip>
    <ImageClip extentID="1107" gapBefore="0" mediaItemID="1103" duration="0.20000000000000001">
      <Effects />
      <Transitions />
      <BoundProperties>
        <BoundPropertyInt Name="rotateStepNinety" Value="0" />
      </BoundProperties>
    </ImageClip>
    <ImageClip extentID="1108" gapBefore="0" mediaItemID="1104" duration="0.20000000000000001">
      <Effects />
      <Transitions />
      <BoundProperties>
        <BoundPropertyInt Name="rotateStepNinety" Value="0" />
      </BoundProperties>
    </ImageClip>
    <ImageClip extentID="1109" gapBefore="0" mediaItemID="1105" duration="0.20000000000000001">
      <Effects />
      <Transitions />
      <BoundProperties>
        <BoundPropertyInt Name="rotateStepNinety" Value="0" />
      </BoundProperties>
    </ImageClip>
    <ImageClip extentID="1110" gapBefore="0" mediaItemID="1106" duration="0.20000000000000001">
      <Effects />
      <Transitions />
      <BoundProperties>
        <BoundPropertyInt Name="rotateStepNinety" Value="0" />
      </BoundProperties>
    </ImageClip>
    <ImageClip extentID="1111" gapBefore="0" mediaItemID="1107" duration="0.20000000000000001">
      <Effects />
      <Transitions />
      <BoundProperties>
        <BoundPropertyInt Name="rotateStepNinety" Value="0" />
      </BoundProperties>
    </ImageClip>
    <ImageClip extentID="1112" gapBefore="0" mediaItemID="1108" duration="0.20000000000000001">
      <Effects />
      <Transitions />
      <BoundProperties>
        <BoundPropertyInt Name="rotateStepNinety" Value="0" />
      </BoundProperties>
    </ImageClip>
    <ImageClip extentID="1113" gapBefore="0" mediaItemID="1109" duration="0.20000000000000001">
      <Effects />
      <Transitions />
      <BoundProperties>
        <BoundPropertyInt Name="rotateStepNinety" Value="0" />
      </BoundProperties>
    </ImageClip>
    <ImageClip extentID="1114" gapBefore="0" mediaItemID="1110" duration="0.20000000000000001">
      <Effects />
      <Transitions />
      <BoundProperties>
        <BoundPropertyInt Name="rotateStepNinety" Value="0" />
      </BoundProperties>
    </ImageClip>
    <ImageClip extentID="1115" gapBefore="0" mediaItemID="1111" duration="0.20000000000000001">
      <Effects />
      <Transitions />
      <BoundProperties>
        <BoundPropertyInt Name="rotateStepNinety" Value="0" />
      </BoundProperties>
    </ImageClip>
    <ImageClip extentID="1116" gapBefore="0" mediaItemID="1112" duration="0.20000000000000001">
      <Effects />
      <Transitions />
      <BoundProperties>
        <BoundPropertyInt Name="rotateStepNinety" Value="0" />
      </BoundProperties>
    </ImageClip>
    <ImageClip extentID="1117" gapBefore="0" mediaItemID="1113" duration="0.20000000000000001">
      <Effects />
      <Transitions />
      <BoundProperties>
        <BoundPropertyInt Name="rotateStepNinety" Value="0" />
      </BoundProperties>
    </ImageClip>
    <ImageClip extentID="1118" gapBefore="0" mediaItemID="1114" duration="0.20000000000000001">
      <Effects />
      <Transitions />
      <BoundProperties>
        <BoundPropertyInt Name="rotateStepNinety" Value="0" />
      </BoundProperties>
    </ImageClip>
    <ImageClip extentID="1119" gapBefore="0" mediaItemID="1115" duration="0.20000000000000001">
      <Effects />
      <Transitions />
      <BoundProperties>
        <BoundPropertyInt Name="rotateStepNinety" Value="0" />
      </BoundProperties>
    </ImageClip>
    <ImageClip extentID="1120" gapBefore="0" mediaItemID="1116" duration="0.20000000000000001">
      <Effects />
      <Transitions />
      <BoundProperties>
        <BoundPropertyInt Name="rotateStepNinety" Value="0" />
      </BoundProperties>
    </ImageClip>
    <ImageClip extentID="1121" gapBefore="0" mediaItemID="1117" duration="0.20000000000000001">
      <Effects />
      <Transitions />
      <BoundProperties>
        <BoundPropertyInt Name="rotateStepNinety" Value="0" />
      </BoundProperties>
    </ImageClip>
    <ImageClip extentID="1122" gapBefore="0" mediaItemID="1118" duration="0.20000000000000001">
      <Effects />
      <Transitions />
      <BoundProperties>
        <BoundPropertyInt Name="rotateStepNinety" Value="0" />
      </BoundProperties>
    </ImageClip>
    <ImageClip extentID="1123" gapBefore="0" mediaItemID="1119" duration="0.20000000000000001">
      <Effects />
      <Transitions />
      <BoundProperties>
        <BoundPropertyInt Name="rotateStepNinety" Value="0" />
      </BoundProperties>
    </ImageClip>
    <ImageClip extentID="1124" gapBefore="0" mediaItemID="1120" duration="0.20000000000000001">
      <Effects />
      <Transitions />
      <BoundProperties>
        <BoundPropertyInt Name="rotateStepNinety" Value="0" />
      </BoundProperties>
    </ImageClip>
    <ImageClip extentID="1125" gapBefore="0" mediaItemID="1121" duration="0.20000000000000001">
      <Effects />
      <Transitions />
      <BoundProperties>
        <BoundPropertyInt Name="rotateStepNinety" Value="0" />
      </BoundProperties>
    </ImageClip>
    <ImageClip extentID="1126" gapBefore="0" mediaItemID="1122" duration="0.20000000000000001">
      <Effects />
      <Transitions />
      <BoundProperties>
        <BoundPropertyInt Name="rotateStepNinety" Value="0" />
      </BoundProperties>
    </ImageClip>
    <ImageClip extentID="1127" gapBefore="0" mediaItemID="1123" duration="0.20000000000000001">
      <Effects />
      <Transitions />
      <BoundProperties>
        <BoundPropertyInt Name="rotateStepNinety" Value="0" />
      </BoundProperties>
    </ImageClip>
    <ImageClip extentID="1128" gapBefore="0" mediaItemID="1124" duration="0.20000000000000001">
      <Effects />
      <Transitions />
      <BoundProperties>
        <BoundPropertyInt Name="rotateStepNinety" Value="0" />
      </BoundProperties>
    </ImageClip>
    <ImageClip extentID="1129" gapBefore="0" mediaItemID="1125" duration="0.20000000000000001">
      <Effects />
      <Transitions />
      <BoundProperties>
        <BoundPropertyInt Name="rotateStepNinety" Value="0" />
      </BoundProperties>
    </ImageClip>
    <ImageClip extentID="1130" gapBefore="0" mediaItemID="1126" duration="0.20000000000000001">
      <Effects />
      <Transitions />
      <BoundProperties>
        <BoundPropertyInt Name="rotateStepNinety" Value="0" />
      </BoundProperties>
    </ImageClip>
    <ImageClip extentID="1131" gapBefore="0" mediaItemID="1127" duration="0.20000000000000001">
      <Effects />
      <Transitions />
      <BoundProperties>
        <BoundPropertyInt Name="rotateStepNinety" Value="0" />
      </BoundProperties>
    </ImageClip>
    <ImageClip extentID="1132" gapBefore="0" mediaItemID="1128" duration="0.20000000000000001">
      <Effects />
      <Transitions />
      <BoundProperties>
        <BoundPropertyInt Name="rotateStepNinety" Value="0" />
      </BoundProperties>
    </ImageClip>
    <ImageClip extentID="1133" gapBefore="0" mediaItemID="1129" duration="0.20000000000000001">
      <Effects />
      <Transitions />
      <BoundProperties>
        <BoundPropertyInt Name="rotateStepNinety" Value="0" />
      </BoundProperties>
    </ImageClip>
    <ImageClip extentID="1134" gapBefore="0" mediaItemID="1130" duration="0.20000000000000001">
      <Effects />
      <Transitions />
      <BoundProperties>
        <BoundPropertyInt Name="rotateStepNinety" Value="0" />
      </BoundProperties>
    </ImageClip>
    <ImageClip extentID="1135" gapBefore="0" mediaItemID="1131" duration="0.20000000000000001">
      <Effects />
      <Transitions />
      <BoundProperties>
        <BoundPropertyInt Name="rotateStepNinety" Value="0" />
      </BoundProperties>
    </ImageClip>
    <ImageClip extentID="1136" gapBefore="0" mediaItemID="1132" duration="0.20000000000000001">
      <Effects />
      <Transitions />
      <BoundProperties>
        <BoundPropertyInt Name="rotateStepNinety" Value="0" />
      </BoundProperties>
    </ImageClip>
    <ImageClip extentID="1137" gapBefore="0" mediaItemID="1133" duration="0.20000000000000001">
      <Effects />
      <Transitions />
      <BoundProperties>
        <BoundPropertyInt Name="rotateStepNinety" Value="0" />
      </BoundProperties>
    </ImageClip>
    <ImageClip extentID="1138" gapBefore="0" mediaItemID="1134" duration="0.20000000000000001">
      <Effects />
      <Transitions />
      <BoundProperties>
        <BoundPropertyInt Name="rotateStepNinety" Value="0" />
      </BoundProperties>
    </ImageClip>
    <ImageClip extentID="1139" gapBefore="0" mediaItemID="1135" duration="0.20000000000000001">
      <Effects />
      <Transitions />
      <BoundProperties>
        <BoundPropertyInt Name="rotateStepNinety" Value="0" />
      </BoundProperties>
    </ImageClip>
    <ImageClip extentID="1140" gapBefore="0" mediaItemID="1136" duration="0.20000000000000001">
      <Effects />
      <Transitions />
      <BoundProperties>
        <BoundPropertyInt Name="rotateStepNinety" Value="0" />
      </BoundProperties>
    </ImageClip>
    <ImageClip extentID="1141" gapBefore="0" mediaItemID="1137" duration="0.20000000000000001">
      <Effects />
      <Transitions />
      <BoundProperties>
        <BoundPropertyInt Name="rotateStepNinety" Value="0" />
      </BoundProperties>
    </ImageClip>
    <ImageClip extentID="1142" gapBefore="0" mediaItemID="1138" duration="0.20000000000000001">
      <Effects />
      <Transitions />
      <BoundProperties>
        <BoundPropertyInt Name="rotateStepNinety" Value="0" />
      </BoundProperties>
    </ImageClip>
    <ImageClip extentID="1143" gapBefore="0" mediaItemID="1139" duration="0.20000000000000001">
      <Effects />
      <Transitions />
      <BoundProperties>
        <BoundPropertyInt Name="rotateStepNinety" Value="0" />
      </BoundProperties>
    </ImageClip>
    <ImageClip extentID="1144" gapBefore="0" mediaItemID="1140" duration="0.20000000000000001">
      <Effects />
      <Transitions />
      <BoundProperties>
        <BoundPropertyInt Name="rotateStepNinety" Value="0" />
      </BoundProperties>
    </ImageClip>
    <ImageClip extentID="1145" gapBefore="0" mediaItemID="1141" duration="0.20000000000000001">
      <Effects />
      <Transitions />
      <BoundProperties>
        <BoundPropertyInt Name="rotateStepNinety" Value="0" />
      </BoundProperties>
    </ImageClip>
    <ImageClip extentID="1146" gapBefore="0" mediaItemID="1142" duration="0.20000000000000001">
      <Effects />
      <Transitions />
      <BoundProperties>
        <BoundPropertyInt Name="rotateStepNinety" Value="0" />
      </BoundProperties>
    </ImageClip>
    <ImageClip extentID="1147" gapBefore="0" mediaItemID="1143" duration="0.20000000000000001">
      <Effects />
      <Transitions />
      <BoundProperties>
        <BoundPropertyInt Name="rotateStepNinety" Value="0" />
      </BoundProperties>
    </ImageClip>
    <ImageClip extentID="1148" gapBefore="0" mediaItemID="1144" duration="0.20000000000000001">
      <Effects />
      <Transitions />
      <BoundProperties>
        <BoundPropertyInt Name="rotateStepNinety" Value="0" />
      </BoundProperties>
    </ImageClip>
    <ImageClip extentID="1149" gapBefore="0" mediaItemID="1145" duration="0.20000000000000001">
      <Effects />
      <Transitions />
      <BoundProperties>
        <BoundPropertyInt Name="rotateStepNinety" Value="0" />
      </BoundProperties>
    </ImageClip>
    <ImageClip extentID="1150" gapBefore="0" mediaItemID="1146" duration="0.20000000000000001">
      <Effects />
      <Transitions />
      <BoundProperties>
        <BoundPropertyInt Name="rotateStepNinety" Value="0" />
      </BoundProperties>
    </ImageClip>
    <ImageClip extentID="1151" gapBefore="0" mediaItemID="1147" duration="0.20000000000000001">
      <Effects />
      <Transitions />
      <BoundProperties>
        <BoundPropertyInt Name="rotateStepNinety" Value="0" />
      </BoundProperties>
    </ImageClip>
    <ImageClip extentID="1152" gapBefore="0" mediaItemID="1148" duration="0.20000000000000001">
      <Effects />
      <Transitions />
      <BoundProperties>
        <BoundPropertyInt Name="rotateStepNinety" Value="0" />
      </BoundProperties>
    </ImageClip>
    <ImageClip extentID="1153" gapBefore="0" mediaItemID="1149" duration="0.20000000000000001">
      <Effects />
      <Transitions />
      <BoundProperties>
        <BoundPropertyInt Name="rotateStepNinety" Value="0" />
      </BoundProperties>
    </ImageClip>
    <ImageClip extentID="1154" gapBefore="0" mediaItemID="1150" duration="0.20000000000000001">
      <Effects />
      <Transitions />
      <BoundProperties>
        <BoundPropertyInt Name="rotateStepNinety" Value="0" />
      </BoundProperties>
    </ImageClip>
    <ImageClip extentID="1155" gapBefore="0" mediaItemID="1151" duration="0.20000000000000001">
      <Effects />
      <Transitions />
      <BoundProperties>
        <BoundPropertyInt Name="rotateStepNinety" Value="0" />
      </BoundProperties>
    </ImageClip>
    <ImageClip extentID="1156" gapBefore="0" mediaItemID="1152" duration="0.20000000000000001">
      <Effects />
      <Transitions />
      <BoundProperties>
        <BoundPropertyInt Name="rotateStepNinety" Value="0" />
      </BoundProperties>
    </ImageClip>
    <ImageClip extentID="1157" gapBefore="0" mediaItemID="1153" duration="0.20000000000000001">
      <Effects />
      <Transitions />
      <BoundProperties>
        <BoundPropertyInt Name="rotateStepNinety" Value="0" />
      </BoundProperties>
    </ImageClip>
    <ImageClip extentID="1158" gapBefore="0" mediaItemID="1154" duration="0.20000000000000001">
      <Effects />
      <Transitions />
      <BoundProperties>
        <BoundPropertyInt Name="rotateStepNinety" Value="0" />
      </BoundProperties>
    </ImageClip>
    <ImageClip extentID="1159" gapBefore="0" mediaItemID="1155" duration="0.20000000000000001">
      <Effects />
      <Transitions />
      <BoundProperties>
        <BoundPropertyInt Name="rotateStepNinety" Value="0" />
      </BoundProperties>
    </ImageClip>
    <ImageClip extentID="1160" gapBefore="0" mediaItemID="1156" duration="0.20000000000000001">
      <Effects />
      <Transitions />
      <BoundProperties>
        <BoundPropertyInt Name="rotateStepNinety" Value="0" />
      </BoundProperties>
    </ImageClip>
    <ImageClip extentID="1161" gapBefore="0" mediaItemID="1157" duration="0.20000000000000001">
      <Effects />
      <Transitions />
      <BoundProperties>
        <BoundPropertyInt Name="rotateStepNinety" Value="0" />
      </BoundProperties>
    </ImageClip>
    <ImageClip extentID="1162" gapBefore="0" mediaItemID="1158" duration="0.20000000000000001">
      <Effects />
      <Transitions />
      <BoundProperties>
        <BoundPropertyInt Name="rotateStepNinety" Value="0" />
      </BoundProperties>
    </ImageClip>
    <ImageClip extentID="1163" gapBefore="0" mediaItemID="1159" duration="0.20000000000000001">
      <Effects />
      <Transitions />
      <BoundProperties>
        <BoundPropertyInt Name="rotateStepNinety" Value="0" />
      </BoundProperties>
    </ImageClip>
    <ImageClip extentID="1164" gapBefore="0" mediaItemID="1160" duration="0.20000000000000001">
      <Effects />
      <Transitions />
      <BoundProperties>
        <BoundPropertyInt Name="rotateStepNinety" Value="0" />
      </BoundProperties>
    </ImageClip>
    <ImageClip extentID="1165" gapBefore="0" mediaItemID="1161" duration="0.20000000000000001">
      <Effects />
      <Transitions />
      <BoundProperties>
        <BoundPropertyInt Name="rotateStepNinety" Value="0" />
      </BoundProperties>
    </ImageClip>
    <ImageClip extentID="1166" gapBefore="0" mediaItemID="1162" duration="0.20000000000000001">
      <Effects />
      <Transitions />
      <BoundProperties>
        <BoundPropertyInt Name="rotateStepNinety" Value="0" />
      </BoundProperties>
    </ImageClip>
    <ImageClip extentID="1167" gapBefore="0" mediaItemID="1163" duration="0.20000000000000001">
      <Effects />
      <Transitions />
      <BoundProperties>
        <BoundPropertyInt Name="rotateStepNinety" Value="0" />
      </BoundProperties>
    </ImageClip>
    <ImageClip extentID="1168" gapBefore="0" mediaItemID="1164" duration="0.20000000000000001">
      <Effects />
      <Transitions />
      <BoundProperties>
        <BoundPropertyInt Name="rotateStepNinety" Value="0" />
      </BoundProperties>
    </ImageClip>
    <ImageClip extentID="1169" gapBefore="0" mediaItemID="1165" duration="0.20000000000000001">
      <Effects />
      <Transitions />
      <BoundProperties>
        <BoundPropertyInt Name="rotateStepNinety" Value="0" />
      </BoundProperties>
    </ImageClip>
    <ImageClip extentID="1170" gapBefore="0" mediaItemID="1166" duration="0.20000000000000001">
      <Effects />
      <Transitions />
      <BoundProperties>
        <BoundPropertyInt Name="rotateStepNinety" Value="0" />
      </BoundProperties>
    </ImageClip>
    <ImageClip extentID="1171" gapBefore="0" mediaItemID="1167" duration="0.20000000000000001">
      <Effects />
      <Transitions />
      <BoundProperties>
        <BoundPropertyInt Name="rotateStepNinety" Value="0" />
      </BoundProperties>
    </ImageClip>
    <ImageClip extentID="1172" gapBefore="0" mediaItemID="1168" duration="0.20000000000000001">
      <Effects />
      <Transitions />
      <BoundProperties>
        <BoundPropertyInt Name="rotateStepNinety" Value="0" />
      </BoundProperties>
    </ImageClip>
    <ImageClip extentID="1173" gapBefore="0" mediaItemID="1169" duration="0.20000000000000001">
      <Effects />
      <Transitions />
      <BoundProperties>
        <BoundPropertyInt Name="rotateStepNinety" Value="0" />
      </BoundProperties>
    </ImageClip>
    <ImageClip extentID="1174" gapBefore="0" mediaItemID="1170" duration="0.20000000000000001">
      <Effects />
      <Transitions />
      <BoundProperties>
        <BoundPropertyInt Name="rotateStepNinety" Value="0" />
      </BoundProperties>
    </ImageClip>
    <ImageClip extentID="1175" gapBefore="0" mediaItemID="1171" duration="0.20000000000000001">
      <Effects />
      <Transitions />
      <BoundProperties>
        <BoundPropertyInt Name="rotateStepNinety" Value="0" />
      </BoundProperties>
    </ImageClip>
    <ImageClip extentID="1176" gapBefore="0" mediaItemID="1172" duration="0.20000000000000001">
      <Effects />
      <Transitions />
      <BoundProperties>
        <BoundPropertyInt Name="rotateStepNinety" Value="0" />
      </BoundProperties>
    </ImageClip>
    <ImageClip extentID="1177" gapBefore="0" mediaItemID="1173" duration="0.20000000000000001">
      <Effects />
      <Transitions />
      <BoundProperties>
        <BoundPropertyInt Name="rotateStepNinety" Value="0" />
      </BoundProperties>
    </ImageClip>
    <ImageClip extentID="1178" gapBefore="0" mediaItemID="1174" duration="0.20000000000000001">
      <Effects />
      <Transitions />
      <BoundProperties>
        <BoundPropertyInt Name="rotateStepNinety" Value="0" />
      </BoundProperties>
    </ImageClip>
    <ImageClip extentID="1179" gapBefore="0" mediaItemID="1175" duration="0.20000000000000001">
      <Effects />
      <Transitions />
      <BoundProperties>
        <BoundPropertyInt Name="rotateStepNinety" Value="0" />
      </BoundProperties>
    </ImageClip>
    <ImageClip extentID="1180" gapBefore="0" mediaItemID="1176" duration="0.20000000000000001">
      <Effects />
      <Transitions />
      <BoundProperties>
        <BoundPropertyInt Name="rotateStepNinety" Value="0" />
      </BoundProperties>
    </ImageClip>
    <ImageClip extentID="1181" gapBefore="0" mediaItemID="1177" duration="0.20000000000000001">
      <Effects />
      <Transitions />
      <BoundProperties>
        <BoundPropertyInt Name="rotateStepNinety" Value="0" />
      </BoundProperties>
    </ImageClip>
    <ImageClip extentID="1182" gapBefore="0" mediaItemID="1178" duration="0.20000000000000001">
      <Effects />
      <Transitions />
      <BoundProperties>
        <BoundPropertyInt Name="rotateStepNinety" Value="0" />
      </BoundProperties>
    </ImageClip>
    <ImageClip extentID="1183" gapBefore="0" mediaItemID="1179" duration="0.20000000000000001">
      <Effects />
      <Transitions />
      <BoundProperties>
        <BoundPropertyInt Name="rotateStepNinety" Value="0" />
      </BoundProperties>
    </ImageClip>
    <ImageClip extentID="1184" gapBefore="0" mediaItemID="1180" duration="0.20000000000000001">
      <Effects />
      <Transitions />
      <BoundProperties>
        <BoundPropertyInt Name="rotateStepNinety" Value="0" />
      </BoundProperties>
    </ImageClip>
    <ImageClip extentID="1185" gapBefore="0" mediaItemID="1181" duration="0.20000000000000001">
      <Effects />
      <Transitions />
      <BoundProperties>
        <BoundPropertyInt Name="rotateStepNinety" Value="0" />
      </BoundProperties>
    </ImageClip>
    <ImageClip extentID="1186" gapBefore="0" mediaItemID="1182" duration="0.20000000000000001">
      <Effects />
      <Transitions />
      <BoundProperties>
        <BoundPropertyInt Name="rotateStepNinety" Value="0" />
      </BoundProperties>
    </ImageClip>
    <ImageClip extentID="1187" gapBefore="0" mediaItemID="1183" duration="0.20000000000000001">
      <Effects />
      <Transitions />
      <BoundProperties>
        <BoundPropertyInt Name="rotateStepNinety" Value="0" />
      </BoundProperties>
    </ImageClip>
    <ImageClip extentID="1188" gapBefore="0" mediaItemID="1184" duration="0.20000000000000001">
      <Effects />
      <Transitions />
      <BoundProperties>
        <BoundPropertyInt Name="rotateStepNinety" Value="0" />
      </BoundProperties>
    </ImageClip>
    <ImageClip extentID="1189" gapBefore="0" mediaItemID="1185" duration="0.20000000000000001">
      <Effects />
      <Transitions />
      <BoundProperties>
        <BoundPropertyInt Name="rotateStepNinety" Value="0" />
      </BoundProperties>
    </ImageClip>
    <ImageClip extentID="1190" gapBefore="0" mediaItemID="1186" duration="0.20000000000000001">
      <Effects />
      <Transitions />
      <BoundProperties>
        <BoundPropertyInt Name="rotateStepNinety" Value="0" />
      </BoundProperties>
    </ImageClip>
    <ImageClip extentID="1191" gapBefore="0" mediaItemID="1187" duration="0.20000000000000001">
      <Effects />
      <Transitions />
      <BoundProperties>
        <BoundPropertyInt Name="rotateStepNinety" Value="0" />
      </BoundProperties>
    </ImageClip>
    <ImageClip extentID="1192" gapBefore="0" mediaItemID="1188" duration="0.20000000000000001">
      <Effects />
      <Transitions />
      <BoundProperties>
        <BoundPropertyInt Name="rotateStepNinety" Value="0" />
      </BoundProperties>
    </ImageClip>
    <ImageClip extentID="1193" gapBefore="0" mediaItemID="1189" duration="0.20000000000000001">
      <Effects />
      <Transitions />
      <BoundProperties>
        <BoundPropertyInt Name="rotateStepNinety" Value="0" />
      </BoundProperties>
    </ImageClip>
    <ImageClip extentID="1194" gapBefore="0" mediaItemID="1190" duration="0.20000000000000001">
      <Effects />
      <Transitions />
      <BoundProperties>
        <BoundPropertyInt Name="rotateStepNinety" Value="0" />
      </BoundProperties>
    </ImageClip>
    <ImageClip extentID="1195" gapBefore="0" mediaItemID="1191" duration="0.20000000000000001">
      <Effects />
      <Transitions />
      <BoundProperties>
        <BoundPropertyInt Name="rotateStepNinety" Value="0" />
      </BoundProperties>
    </ImageClip>
    <ImageClip extentID="1196" gapBefore="0" mediaItemID="1192" duration="0.20000000000000001">
      <Effects />
      <Transitions />
      <BoundProperties>
        <BoundPropertyInt Name="rotateStepNinety" Value="0" />
      </BoundProperties>
    </ImageClip>
    <ImageClip extentID="1197" gapBefore="0" mediaItemID="1193" duration="0.20000000000000001">
      <Effects />
      <Transitions />
      <BoundProperties>
        <BoundPropertyInt Name="rotateStepNinety" Value="0" />
      </BoundProperties>
    </ImageClip>
    <ImageClip extentID="1198" gapBefore="0" mediaItemID="1194" duration="0.20000000000000001">
      <Effects />
      <Transitions />
      <BoundProperties>
        <BoundPropertyInt Name="rotateStepNinety" Value="0" />
      </BoundProperties>
    </ImageClip>
    <ImageClip extentID="1199" gapBefore="0" mediaItemID="1195" duration="0.20000000000000001">
      <Effects />
      <Transitions />
      <BoundProperties>
        <BoundPropertyInt Name="rotateStepNinety" Value="0" />
      </BoundProperties>
    </ImageClip>
    <ImageClip extentID="1200" gapBefore="0" mediaItemID="1196" duration="0.20000000000000001">
      <Effects />
      <Transitions />
      <BoundProperties>
        <BoundPropertyInt Name="rotateStepNinety" Value="0" />
      </BoundProperties>
    </ImageClip>
    <ImageClip extentID="1201" gapBefore="0" mediaItemID="1197" duration="0.20000000000000001">
      <Effects />
      <Transitions />
      <BoundProperties>
        <BoundPropertyInt Name="rotateStepNinety" Value="0" />
      </BoundProperties>
    </ImageClip>
    <ImageClip extentID="1202" gapBefore="0" mediaItemID="1198" duration="0.20000000000000001">
      <Effects />
      <Transitions />
      <BoundProperties>
        <BoundPropertyInt Name="rotateStepNinety" Value="0" />
      </BoundProperties>
    </ImageClip>
    <ImageClip extentID="1203" gapBefore="0" mediaItemID="1199" duration="0.20000000000000001">
      <Effects />
      <Transitions />
      <BoundProperties>
        <BoundPropertyInt Name="rotateStepNinety" Value="0" />
      </BoundProperties>
    </ImageClip>
    <ImageClip extentID="1204" gapBefore="0" mediaItemID="1200" duration="0.20000000000000001">
      <Effects />
      <Transitions />
      <BoundProperties>
        <BoundPropertyInt Name="rotateStepNinety" Value="0" />
      </BoundProperties>
    </ImageClip>
    <ImageClip extentID="1205" gapBefore="0" mediaItemID="1201" duration="0.20000000000000001">
      <Effects />
      <Transitions />
      <BoundProperties>
        <BoundPropertyInt Name="rotateStepNinety" Value="0" />
      </BoundProperties>
    </ImageClip>
    <ImageClip extentID="1206" gapBefore="0" mediaItemID="1202" duration="0.20000000000000001">
      <Effects />
      <Transitions />
      <BoundProperties>
        <BoundPropertyInt Name="rotateStepNinety" Value="0" />
      </BoundProperties>
    </ImageClip>
    <ImageClip extentID="1207" gapBefore="0" mediaItemID="1203" duration="0.20000000000000001">
      <Effects />
      <Transitions />
      <BoundProperties>
        <BoundPropertyInt Name="rotateStepNinety" Value="0" />
      </BoundProperties>
    </ImageClip>
    <ImageClip extentID="1208" gapBefore="0" mediaItemID="1204" duration="0.20000000000000001">
      <Effects />
      <Transitions />
      <BoundProperties>
        <BoundPropertyInt Name="rotateStepNinety" Value="0" />
      </BoundProperties>
    </ImageClip>
    <ImageClip extentID="1209" gapBefore="0" mediaItemID="1205" duration="0.20000000000000001">
      <Effects />
      <Transitions />
      <BoundProperties>
        <BoundPropertyInt Name="rotateStepNinety" Value="0" />
      </BoundProperties>
    </ImageClip>
    <ImageClip extentID="1210" gapBefore="0" mediaItemID="1206" duration="0.20000000000000001">
      <Effects />
      <Transitions />
      <BoundProperties>
        <BoundPropertyInt Name="rotateStepNinety" Value="0" />
      </BoundProperties>
    </ImageClip>
    <ImageClip extentID="1211" gapBefore="0" mediaItemID="1207" duration="0.20000000000000001">
      <Effects />
      <Transitions />
      <BoundProperties>
        <BoundPropertyInt Name="rotateStepNinety" Value="0" />
      </BoundProperties>
    </ImageClip>
    <ImageClip extentID="1212" gapBefore="0" mediaItemID="1208" duration="0.20000000000000001">
      <Effects />
      <Transitions />
      <BoundProperties>
        <BoundPropertyInt Name="rotateStepNinety" Value="0" />
      </BoundProperties>
    </ImageClip>
    <ImageClip extentID="1213" gapBefore="0" mediaItemID="1209" duration="0.20000000000000001">
      <Effects />
      <Transitions />
      <BoundProperties>
        <BoundPropertyInt Name="rotateStepNinety" Value="0" />
      </BoundProperties>
    </ImageClip>
    <ImageClip extentID="1214" gapBefore="0" mediaItemID="1210" duration="0.20000000000000001">
      <Effects />
      <Transitions />
      <BoundProperties>
        <BoundPropertyInt Name="rotateStepNinety" Value="0" />
      </BoundProperties>
    </ImageClip>
    <ImageClip extentID="1215" gapBefore="0" mediaItemID="1211" duration="0.20000000000000001">
      <Effects />
      <Transitions />
      <BoundProperties>
        <BoundPropertyInt Name="rotateStepNinety" Value="0" />
      </BoundProperties>
    </ImageClip>
    <ImageClip extentID="1216" gapBefore="0" mediaItemID="1212" duration="0.20000000000000001">
      <Effects />
      <Transitions />
      <BoundProperties>
        <BoundPropertyInt Name="rotateStepNinety" Value="0" />
      </BoundProperties>
    </ImageClip>
    <ImageClip extentID="1217" gapBefore="0" mediaItemID="1213" duration="0.20000000000000001">
      <Effects />
      <Transitions />
      <BoundProperties>
        <BoundPropertyInt Name="rotateStepNinety" Value="0" />
      </BoundProperties>
    </ImageClip>
    <ImageClip extentID="1218" gapBefore="0" mediaItemID="1214" duration="0.20000000000000001">
      <Effects />
      <Transitions />
      <BoundProperties>
        <BoundPropertyInt Name="rotateStepNinety" Value="0" />
      </BoundProperties>
    </ImageClip>
    <ImageClip extentID="1219" gapBefore="0" mediaItemID="1215" duration="0.20000000000000001">
      <Effects />
      <Transitions />
      <BoundProperties>
        <BoundPropertyInt Name="rotateStepNinety" Value="0" />
      </BoundProperties>
    </ImageClip>
    <ImageClip extentID="1220" gapBefore="0" mediaItemID="1216" duration="0.20000000000000001">
      <Effects />
      <Transitions />
      <BoundProperties>
        <BoundPropertyInt Name="rotateStepNinety" Value="0" />
      </BoundProperties>
    </ImageClip>
    <ImageClip extentID="1221" gapBefore="0" mediaItemID="1217" duration="0.20000000000000001">
      <Effects />
      <Transitions />
      <BoundProperties>
        <BoundPropertyInt Name="rotateStepNinety" Value="0" />
      </BoundProperties>
    </ImageClip>
    <ImageClip extentID="1222" gapBefore="0" mediaItemID="1218" duration="0.20000000000000001">
      <Effects />
      <Transitions />
      <BoundProperties>
        <BoundPropertyInt Name="rotateStepNinety" Value="0" />
      </BoundProperties>
    </ImageClip>
    <ImageClip extentID="1223" gapBefore="0" mediaItemID="1219" duration="0.20000000000000001">
      <Effects />
      <Transitions />
      <BoundProperties>
        <BoundPropertyInt Name="rotateStepNinety" Value="0" />
      </BoundProperties>
    </ImageClip>
    <ImageClip extentID="1224" gapBefore="0" mediaItemID="1220" duration="0.20000000000000001">
      <Effects />
      <Transitions />
      <BoundProperties>
        <BoundPropertyInt Name="rotateStepNinety" Value="0" />
      </BoundProperties>
    </ImageClip>
    <ImageClip extentID="1225" gapBefore="0" mediaItemID="1221" duration="0.20000000000000001">
      <Effects />
      <Transitions />
      <BoundProperties>
        <BoundPropertyInt Name="rotateStepNinety" Value="0" />
      </BoundProperties>
    </ImageClip>
    <ImageClip extentID="1226" gapBefore="0" mediaItemID="1222" duration="0.20000000000000001">
      <Effects />
      <Transitions />
      <BoundProperties>
        <BoundPropertyInt Name="rotateStepNinety" Value="0" />
      </BoundProperties>
    </ImageClip>
    <ImageClip extentID="1227" gapBefore="0" mediaItemID="1223" duration="0.20000000000000001">
      <Effects />
      <Transitions />
      <BoundProperties>
        <BoundPropertyInt Name="rotateStepNinety" Value="0" />
      </BoundProperties>
    </ImageClip>
    <ImageClip extentID="1228" gapBefore="0" mediaItemID="1224" duration="0.20000000000000001">
      <Effects />
      <Transitions />
      <BoundProperties>
        <BoundPropertyInt Name="rotateStepNinety" Value="0" />
      </BoundProperties>
    </ImageClip>
    <ImageClip extentID="1229" gapBefore="0" mediaItemID="1225" duration="0.20000000000000001">
      <Effects />
      <Transitions />
      <BoundProperties>
        <BoundPropertyInt Name="rotateStepNinety" Value="0" />
      </BoundProperties>
    </ImageClip>
    <ImageClip extentID="1230" gapBefore="0" mediaItemID="1226" duration="0.20000000000000001">
      <Effects />
      <Transitions />
      <BoundProperties>
        <BoundPropertyInt Name="rotateStepNinety" Value="0" />
      </BoundProperties>
    </ImageClip>
    <ImageClip extentID="1231" gapBefore="0" mediaItemID="1227" duration="0.20000000000000001">
      <Effects />
      <Transitions />
      <BoundProperties>
        <BoundPropertyInt Name="rotateStepNinety" Value="0" />
      </BoundProperties>
    </ImageClip>
    <ImageClip extentID="1232" gapBefore="0" mediaItemID="1228" duration="0.20000000000000001">
      <Effects />
      <Transitions />
      <BoundProperties>
        <BoundPropertyInt Name="rotateStepNinety" Value="0" />
      </BoundProperties>
    </ImageClip>
    <ImageClip extentID="1233" gapBefore="0" mediaItemID="1229" duration="0.20000000000000001">
      <Effects />
      <Transitions />
      <BoundProperties>
        <BoundPropertyInt Name="rotateStepNinety" Value="0" />
      </BoundProperties>
    </ImageClip>
    <ImageClip extentID="1234" gapBefore="0" mediaItemID="1230" duration="0.20000000000000001">
      <Effects />
      <Transitions />
      <BoundProperties>
        <BoundPropertyInt Name="rotateStepNinety" Value="0" />
      </BoundProperties>
    </ImageClip>
    <ImageClip extentID="1235" gapBefore="0" mediaItemID="1231" duration="0.20000000000000001">
      <Effects />
      <Transitions />
      <BoundProperties>
        <BoundPropertyInt Name="rotateStepNinety" Value="0" />
      </BoundProperties>
    </ImageClip>
    <ImageClip extentID="1236" gapBefore="0" mediaItemID="1232" duration="0.20000000000000001">
      <Effects />
      <Transitions />
      <BoundProperties>
        <BoundPropertyInt Name="rotateStepNinety" Value="0" />
      </BoundProperties>
    </ImageClip>
    <ImageClip extentID="1237" gapBefore="0" mediaItemID="1233" duration="0.20000000000000001">
      <Effects />
      <Transitions />
      <BoundProperties>
        <BoundPropertyInt Name="rotateStepNinety" Value="0" />
      </BoundProperties>
    </ImageClip>
    <ImageClip extentID="1238" gapBefore="0" mediaItemID="1234" duration="0.20000000000000001">
      <Effects />
      <Transitions />
      <BoundProperties>
        <BoundPropertyInt Name="rotateStepNinety" Value="0" />
      </BoundProperties>
    </ImageClip>
    <ImageClip extentID="1239" gapBefore="0" mediaItemID="1235" duration="0.20000000000000001">
      <Effects />
      <Transitions />
      <BoundProperties>
        <BoundPropertyInt Name="rotateStepNinety" Value="0" />
      </BoundProperties>
    </ImageClip>
    <ImageClip extentID="1240" gapBefore="0" mediaItemID="1236" duration="0.20000000000000001">
      <Effects />
      <Transitions />
      <BoundProperties>
        <BoundPropertyInt Name="rotateStepNinety" Value="0" />
      </BoundProperties>
    </ImageClip>
    <ImageClip extentID="1241" gapBefore="0" mediaItemID="1237" duration="0.20000000000000001">
      <Effects />
      <Transitions />
      <BoundProperties>
        <BoundPropertyInt Name="rotateStepNinety" Value="0" />
      </BoundProperties>
    </ImageClip>
    <ImageClip extentID="1242" gapBefore="0" mediaItemID="1238" duration="0.20000000000000001">
      <Effects />
      <Transitions />
      <BoundProperties>
        <BoundPropertyInt Name="rotateStepNinety" Value="0" />
      </BoundProperties>
    </ImageClip>
    <ImageClip extentID="1243" gapBefore="0" mediaItemID="1239" duration="0.20000000000000001">
      <Effects />
      <Transitions />
      <BoundProperties>
        <BoundPropertyInt Name="rotateStepNinety" Value="0" />
      </BoundProperties>
    </ImageClip>
    <ImageClip extentID="1244" gapBefore="0" mediaItemID="1240" duration="0.20000000000000001">
      <Effects />
      <Transitions />
      <BoundProperties>
        <BoundPropertyInt Name="rotateStepNinety" Value="0" />
      </BoundProperties>
    </ImageClip>
    <ImageClip extentID="1245" gapBefore="0" mediaItemID="1241" duration="0.20000000000000001">
      <Effects />
      <Transitions />
      <BoundProperties>
        <BoundPropertyInt Name="rotateStepNinety" Value="0" />
      </BoundProperties>
    </ImageClip>
    <ImageClip extentID="1246" gapBefore="0" mediaItemID="1242" duration="0.20000000000000001">
      <Effects />
      <Transitions />
      <BoundProperties>
        <BoundPropertyInt Name="rotateStepNinety" Value="0" />
      </BoundProperties>
    </ImageClip>
    <ImageClip extentID="1247" gapBefore="0" mediaItemID="1243" duration="0.20000000000000001">
      <Effects />
      <Transitions />
      <BoundProperties>
        <BoundPropertyInt Name="rotateStepNinety" Value="0" />
      </BoundProperties>
    </ImageClip>
    <ImageClip extentID="1248" gapBefore="0" mediaItemID="1244" duration="0.20000000000000001">
      <Effects />
      <Transitions />
      <BoundProperties>
        <BoundPropertyInt Name="rotateStepNinety" Value="0" />
      </BoundProperties>
    </ImageClip>
    <ImageClip extentID="1249" gapBefore="0" mediaItemID="1245" duration="0.20000000000000001">
      <Effects />
      <Transitions />
      <BoundProperties>
        <BoundPropertyInt Name="rotateStepNinety" Value="0" />
      </BoundProperties>
    </ImageClip>
    <ImageClip extentID="1250" gapBefore="0" mediaItemID="1246" duration="0.20000000000000001">
      <Effects />
      <Transitions />
      <BoundProperties>
        <BoundPropertyInt Name="rotateStepNinety" Value="0" />
      </BoundProperties>
    </ImageClip>
    <ImageClip extentID="1251" gapBefore="0" mediaItemID="1247" duration="0.20000000000000001">
      <Effects />
      <Transitions />
      <BoundProperties>
        <BoundPropertyInt Name="rotateStepNinety" Value="0" />
      </BoundProperties>
    </ImageClip>
    <ImageClip extentID="1252" gapBefore="0" mediaItemID="1248" duration="0.20000000000000001">
      <Effects />
      <Transitions />
      <BoundProperties>
        <BoundPropertyInt Name="rotateStepNinety" Value="0" />
      </BoundProperties>
    </ImageClip>
    <ImageClip extentID="1253" gapBefore="0" mediaItemID="1249" duration="0.20000000000000001">
      <Effects />
      <Transitions />
      <BoundProperties>
        <BoundPropertyInt Name="rotateStepNinety" Value="0" />
      </BoundProperties>
    </ImageClip>
    <ImageClip extentID="1254" gapBefore="0" mediaItemID="1250" duration="0.20000000000000001">
      <Effects />
      <Transitions />
      <BoundProperties>
        <BoundPropertyInt Name="rotateStepNinety" Value="0" />
      </BoundProperties>
    </ImageClip>
    <ImageClip extentID="1255" gapBefore="0" mediaItemID="1251" duration="0.20000000000000001">
      <Effects />
      <Transitions />
      <BoundProperties>
        <BoundPropertyInt Name="rotateStepNinety" Value="0" />
      </BoundProperties>
    </ImageClip>
    <ImageClip extentID="1256" gapBefore="0" mediaItemID="1252" duration="0.20000000000000001">
      <Effects />
      <Transitions />
      <BoundProperties>
        <BoundPropertyInt Name="rotateStepNinety" Value="0" />
      </BoundProperties>
    </ImageClip>
    <ImageClip extentID="1257" gapBefore="0" mediaItemID="1253" duration="0.20000000000000001">
      <Effects />
      <Transitions />
      <BoundProperties>
        <BoundPropertyInt Name="rotateStepNinety" Value="0" />
      </BoundProperties>
    </ImageClip>
    <ImageClip extentID="1258" gapBefore="0" mediaItemID="1254" duration="0.20000000000000001">
      <Effects />
      <Transitions />
      <BoundProperties>
        <BoundPropertyInt Name="rotateStepNinety" Value="0" />
      </BoundProperties>
    </ImageClip>
    <ImageClip extentID="1259" gapBefore="0" mediaItemID="1255" duration="0.20000000000000001">
      <Effects />
      <Transitions />
      <BoundProperties>
        <BoundPropertyInt Name="rotateStepNinety" Value="0" />
      </BoundProperties>
    </ImageClip>
    <ImageClip extentID="1260" gapBefore="0" mediaItemID="1256" duration="0.20000000000000001">
      <Effects />
      <Transitions />
      <BoundProperties>
        <BoundPropertyInt Name="rotateStepNinety" Value="0" />
      </BoundProperties>
    </ImageClip>
    <ImageClip extentID="1261" gapBefore="0" mediaItemID="1257" duration="0.20000000000000001">
      <Effects />
      <Transitions />
      <BoundProperties>
        <BoundPropertyInt Name="rotateStepNinety" Value="0" />
      </BoundProperties>
    </ImageClip>
    <ImageClip extentID="1262" gapBefore="0" mediaItemID="1258" duration="0.20000000000000001">
      <Effects />
      <Transitions />
      <BoundProperties>
        <BoundPropertyInt Name="rotateStepNinety" Value="0" />
      </BoundProperties>
    </ImageClip>
    <ImageClip extentID="1263" gapBefore="0" mediaItemID="1259" duration="0.20000000000000001">
      <Effects />
      <Transitions />
      <BoundProperties>
        <BoundPropertyInt Name="rotateStepNinety" Value="0" />
      </BoundProperties>
    </ImageClip>
    <ImageClip extentID="1264" gapBefore="0" mediaItemID="1260" duration="0.20000000000000001">
      <Effects />
      <Transitions />
      <BoundProperties>
        <BoundPropertyInt Name="rotateStepNinety" Value="0" />
      </BoundProperties>
    </ImageClip>
    <ImageClip extentID="1265" gapBefore="0" mediaItemID="1261" duration="0.20000000000000001">
      <Effects />
      <Transitions />
      <BoundProperties>
        <BoundPropertyInt Name="rotateStepNinety" Value="0" />
      </BoundProperties>
    </ImageClip>
    <ImageClip extentID="1266" gapBefore="0" mediaItemID="1262" duration="0.20000000000000001">
      <Effects />
      <Transitions />
      <BoundProperties>
        <BoundPropertyInt Name="rotateStepNinety" Value="0" />
      </BoundProperties>
    </ImageClip>
    <ImageClip extentID="1267" gapBefore="0" mediaItemID="1263" duration="0.20000000000000001">
      <Effects />
      <Transitions />
      <BoundProperties>
        <BoundPropertyInt Name="rotateStepNinety" Value="0" />
      </BoundProperties>
    </ImageClip>
    <ImageClip extentID="1268" gapBefore="0" mediaItemID="1264" duration="0.20000000000000001">
      <Effects />
      <Transitions />
      <BoundProperties>
        <BoundPropertyInt Name="rotateStepNinety" Value="0" />
      </BoundProperties>
    </ImageClip>
    <ImageClip extentID="1269" gapBefore="0" mediaItemID="1265" duration="0.20000000000000001">
      <Effects />
      <Transitions />
      <BoundProperties>
        <BoundPropertyInt Name="rotateStepNinety" Value="0" />
      </BoundProperties>
    </ImageClip>
    <ImageClip extentID="1270" gapBefore="0" mediaItemID="1266" duration="0.20000000000000001">
      <Effects />
      <Transitions />
      <BoundProperties>
        <BoundPropertyInt Name="rotateStepNinety" Value="0" />
      </BoundProperties>
    </ImageClip>
    <ImageClip extentID="1271" gapBefore="0" mediaItemID="1267" duration="0.20000000000000001">
      <Effects />
      <Transitions />
      <BoundProperties>
        <BoundPropertyInt Name="rotateStepNinety" Value="0" />
      </BoundProperties>
    </ImageClip>
    <ImageClip extentID="1272" gapBefore="0" mediaItemID="1268" duration="0.20000000000000001">
      <Effects />
      <Transitions />
      <BoundProperties>
        <BoundPropertyInt Name="rotateStepNinety" Value="0" />
      </BoundProperties>
    </ImageClip>
    <ImageClip extentID="1273" gapBefore="0" mediaItemID="1269" duration="0.20000000000000001">
      <Effects />
      <Transitions />
      <BoundProperties>
        <BoundPropertyInt Name="rotateStepNinety" Value="0" />
      </BoundProperties>
    </ImageClip>
    <ImageClip extentID="1274" gapBefore="0" mediaItemID="1270" duration="0.20000000000000001">
      <Effects />
      <Transitions />
      <BoundProperties>
        <BoundPropertyInt Name="rotateStepNinety" Value="0" />
      </BoundProperties>
    </ImageClip>
    <ImageClip extentID="1275" gapBefore="0" mediaItemID="1271" duration="0.20000000000000001">
      <Effects />
      <Transitions />
      <BoundProperties>
        <BoundPropertyInt Name="rotateStepNinety" Value="0" />
      </BoundProperties>
    </ImageClip>
    <ImageClip extentID="1276" gapBefore="0" mediaItemID="1272" duration="0.20000000000000001">
      <Effects />
      <Transitions />
      <BoundProperties>
        <BoundPropertyInt Name="rotateStepNinety" Value="0" />
      </BoundProperties>
    </ImageClip>
    <ImageClip extentID="1277" gapBefore="0" mediaItemID="1273" duration="0.20000000000000001">
      <Effects />
      <Transitions />
      <BoundProperties>
        <BoundPropertyInt Name="rotateStepNinety" Value="0" />
      </BoundProperties>
    </ImageClip>
    <ImageClip extentID="1278" gapBefore="0" mediaItemID="1274" duration="0.20000000000000001">
      <Effects />
      <Transitions />
      <BoundProperties>
        <BoundPropertyInt Name="rotateStepNinety" Value="0" />
      </BoundProperties>
    </ImageClip>
    <ImageClip extentID="1279" gapBefore="0" mediaItemID="1275" duration="0.20000000000000001">
      <Effects />
      <Transitions />
      <BoundProperties>
        <BoundPropertyInt Name="rotateStepNinety" Value="0" />
      </BoundProperties>
    </ImageClip>
    <ImageClip extentID="1280" gapBefore="0" mediaItemID="1276" duration="0.20000000000000001">
      <Effects />
      <Transitions />
      <BoundProperties>
        <BoundPropertyInt Name="rotateStepNinety" Value="0" />
      </BoundProperties>
    </ImageClip>
    <ImageClip extentID="1281" gapBefore="0" mediaItemID="1277" duration="0.20000000000000001">
      <Effects />
      <Transitions />
      <BoundProperties>
        <BoundPropertyInt Name="rotateStepNinety" Value="0" />
      </BoundProperties>
    </ImageClip>
    <ImageClip extentID="1282" gapBefore="0" mediaItemID="1278" duration="0.20000000000000001">
      <Effects />
      <Transitions />
      <BoundProperties>
        <BoundPropertyInt Name="rotateStepNinety" Value="0" />
      </BoundProperties>
    </ImageClip>
    <ImageClip extentID="1283" gapBefore="0" mediaItemID="1279" duration="0.20000000000000001">
      <Effects />
      <Transitions />
      <BoundProperties>
        <BoundPropertyInt Name="rotateStepNinety" Value="0" />
      </BoundProperties>
    </ImageClip>
    <ImageClip extentID="1284" gapBefore="0" mediaItemID="1280" duration="0.20000000000000001">
      <Effects />
      <Transitions />
      <BoundProperties>
        <BoundPropertyInt Name="rotateStepNinety" Value="0" />
      </BoundProperties>
    </ImageClip>
    <ImageClip extentID="1285" gapBefore="0" mediaItemID="1281" duration="0.20000000000000001">
      <Effects />
      <Transitions />
      <BoundProperties>
        <BoundPropertyInt Name="rotateStepNinety" Value="0" />
      </BoundProperties>
    </ImageClip>
    <ImageClip extentID="1286" gapBefore="0" mediaItemID="1282" duration="0.20000000000000001">
      <Effects />
      <Transitions />
      <BoundProperties>
        <BoundPropertyInt Name="rotateStepNinety" Value="0" />
      </BoundProperties>
    </ImageClip>
    <ImageClip extentID="1287" gapBefore="0" mediaItemID="1283" duration="0.20000000000000001">
      <Effects />
      <Transitions />
      <BoundProperties>
        <BoundPropertyInt Name="rotateStepNinety" Value="0" />
      </BoundProperties>
    </ImageClip>
    <ImageClip extentID="1288" gapBefore="0" mediaItemID="1284" duration="0.20000000000000001">
      <Effects />
      <Transitions />
      <BoundProperties>
        <BoundPropertyInt Name="rotateStepNinety" Value="0" />
      </BoundProperties>
    </ImageClip>
    <ImageClip extentID="1289" gapBefore="0" mediaItemID="1285" duration="0.20000000000000001">
      <Effects />
      <Transitions />
      <BoundProperties>
        <BoundPropertyInt Name="rotateStepNinety" Value="0" />
      </BoundProperties>
    </ImageClip>
    <ImageClip extentID="1290" gapBefore="0" mediaItemID="1286" duration="0.20000000000000001">
      <Effects />
      <Transitions />
      <BoundProperties>
        <BoundPropertyInt Name="rotateStepNinety" Value="0" />
      </BoundProperties>
    </ImageClip>
    <ImageClip extentID="1291" gapBefore="0" mediaItemID="1287" duration="0.20000000000000001">
      <Effects />
      <Transitions />
      <BoundProperties>
        <BoundPropertyInt Name="rotateStepNinety" Value="0" />
      </BoundProperties>
    </ImageClip>
    <ImageClip extentID="1292" gapBefore="0" mediaItemID="1288" duration="0.20000000000000001">
      <Effects />
      <Transitions />
      <BoundProperties>
        <BoundPropertyInt Name="rotateStepNinety" Value="0" />
      </BoundProperties>
    </ImageClip>
    <ImageClip extentID="1293" gapBefore="0" mediaItemID="1289" duration="0.20000000000000001">
      <Effects />
      <Transitions />
      <BoundProperties>
        <BoundPropertyInt Name="rotateStepNinety" Value="0" />
      </BoundProperties>
    </ImageClip>
    <ImageClip extentID="1294" gapBefore="0" mediaItemID="1290" duration="0.20000000000000001">
      <Effects />
      <Transitions />
      <BoundProperties>
        <BoundPropertyInt Name="rotateStepNinety" Value="0" />
      </BoundProperties>
    </ImageClip>
    <ImageClip extentID="1295" gapBefore="0" mediaItemID="1291" duration="0.20000000000000001">
      <Effects />
      <Transitions />
      <BoundProperties>
        <BoundPropertyInt Name="rotateStepNinety" Value="0" />
      </BoundProperties>
    </ImageClip>
    <ImageClip extentID="1296" gapBefore="0" mediaItemID="1292" duration="0.20000000000000001">
      <Effects />
      <Transitions />
      <BoundProperties>
        <BoundPropertyInt Name="rotateStepNinety" Value="0" />
      </BoundProperties>
    </ImageClip>
    <ImageClip extentID="1297" gapBefore="0" mediaItemID="1293" duration="0.20000000000000001">
      <Effects />
      <Transitions />
      <BoundProperties>
        <BoundPropertyInt Name="rotateStepNinety" Value="0" />
      </BoundProperties>
    </ImageClip>
    <ImageClip extentID="1298" gapBefore="0" mediaItemID="1294" duration="0.20000000000000001">
      <Effects />
      <Transitions />
      <BoundProperties>
        <BoundPropertyInt Name="rotateStepNinety" Value="0" />
      </BoundProperties>
    </ImageClip>
    <ImageClip extentID="1299" gapBefore="0" mediaItemID="1295" duration="0.20000000000000001">
      <Effects />
      <Transitions />
      <BoundProperties>
        <BoundPropertyInt Name="rotateStepNinety" Value="0" />
      </BoundProperties>
    </ImageClip>
    <ImageClip extentID="1300" gapBefore="0" mediaItemID="1296" duration="0.20000000000000001">
      <Effects />
      <Transitions />
      <BoundProperties>
        <BoundPropertyInt Name="rotateStepNinety" Value="0" />
      </BoundProperties>
    </ImageClip>
    <ImageClip extentID="1301" gapBefore="0" mediaItemID="1297" duration="0.20000000000000001">
      <Effects />
      <Transitions />
      <BoundProperties>
        <BoundPropertyInt Name="rotateStepNinety" Value="0" />
      </BoundProperties>
    </ImageClip>
    <ImageClip extentID="1302" gapBefore="0" mediaItemID="1298" duration="0.20000000000000001">
      <Effects />
      <Transitions />
      <BoundProperties>
        <BoundPropertyInt Name="rotateStepNinety" Value="0" />
      </BoundProperties>
    </ImageClip>
    <ImageClip extentID="1303" gapBefore="0" mediaItemID="1299" duration="0.20000000000000001">
      <Effects />
      <Transitions />
      <BoundProperties>
        <BoundPropertyInt Name="rotateStepNinety" Value="0" />
      </BoundProperties>
    </ImageClip>
    <ImageClip extentID="1304" gapBefore="0" mediaItemID="1300" duration="0.20000000000000001">
      <Effects />
      <Transitions />
      <BoundProperties>
        <BoundPropertyInt Name="rotateStepNinety" Value="0" />
      </BoundProperties>
    </ImageClip>
    <ImageClip extentID="1305" gapBefore="0" mediaItemID="1301" duration="0.20000000000000001">
      <Effects />
      <Transitions />
      <BoundProperties>
        <BoundPropertyInt Name="rotateStepNinety" Value="0" />
      </BoundProperties>
    </ImageClip>
    <ImageClip extentID="1306" gapBefore="0" mediaItemID="1302" duration="0.20000000000000001">
      <Effects />
      <Transitions />
      <BoundProperties>
        <BoundPropertyInt Name="rotateStepNinety" Value="0" />
      </BoundProperties>
    </ImageClip>
    <ImageClip extentID="1307" gapBefore="0" mediaItemID="1303" duration="0.20000000000000001">
      <Effects />
      <Transitions />
      <BoundProperties>
        <BoundPropertyInt Name="rotateStepNinety" Value="0" />
      </BoundProperties>
    </ImageClip>
    <ImageClip extentID="1308" gapBefore="0" mediaItemID="1304" duration="0.20000000000000001">
      <Effects />
      <Transitions />
      <BoundProperties>
        <BoundPropertyInt Name="rotateStepNinety" Value="0" />
      </BoundProperties>
    </ImageClip>
    <ImageClip extentID="1309" gapBefore="0" mediaItemID="1305" duration="0.20000000000000001">
      <Effects />
      <Transitions />
      <BoundProperties>
        <BoundPropertyInt Name="rotateStepNinety" Value="0" />
      </BoundProperties>
    </ImageClip>
    <ImageClip extentID="1310" gapBefore="0" mediaItemID="1306" duration="0.20000000000000001">
      <Effects />
      <Transitions />
      <BoundProperties>
        <BoundPropertyInt Name="rotateStepNinety" Value="0" />
      </BoundProperties>
    </ImageClip>
    <ImageClip extentID="1311" gapBefore="0" mediaItemID="1307" duration="0.20000000000000001">
      <Effects />
      <Transitions />
      <BoundProperties>
        <BoundPropertyInt Name="rotateStepNinety" Value="0" />
      </BoundProperties>
    </ImageClip>
    <ImageClip extentID="1312" gapBefore="0" mediaItemID="1308" duration="0.20000000000000001">
      <Effects />
      <Transitions />
      <BoundProperties>
        <BoundPropertyInt Name="rotateStepNinety" Value="0" />
      </BoundProperties>
    </ImageClip>
    <ImageClip extentID="1313" gapBefore="0" mediaItemID="1309" duration="0.20000000000000001">
      <Effects />
      <Transitions />
      <BoundProperties>
        <BoundPropertyInt Name="rotateStepNinety" Value="0" />
      </BoundProperties>
    </ImageClip>
    <ImageClip extentID="1314" gapBefore="0" mediaItemID="1310" duration="0.20000000000000001">
      <Effects />
      <Transitions />
      <BoundProperties>
        <BoundPropertyInt Name="rotateStepNinety" Value="0" />
      </BoundProperties>
    </ImageClip>
    <ImageClip extentID="1315" gapBefore="0" mediaItemID="1311" duration="0.20000000000000001">
      <Effects />
      <Transitions />
      <BoundProperties>
        <BoundPropertyInt Name="rotateStepNinety" Value="0" />
      </BoundProperties>
    </ImageClip>
    <ImageClip extentID="1316" gapBefore="0" mediaItemID="1312" duration="0.20000000000000001">
      <Effects />
      <Transitions />
      <BoundProperties>
        <BoundPropertyInt Name="rotateStepNinety" Value="0" />
      </BoundProperties>
    </ImageClip>
    <ImageClip extentID="1317" gapBefore="0" mediaItemID="1313" duration="0.20000000000000001">
      <Effects />
      <Transitions />
      <BoundProperties>
        <BoundPropertyInt Name="rotateStepNinety" Value="0" />
      </BoundProperties>
    </ImageClip>
    <ImageClip extentID="1318" gapBefore="0" mediaItemID="1314" duration="0.20000000000000001">
      <Effects />
      <Transitions />
      <BoundProperties>
        <BoundPropertyInt Name="rotateStepNinety" Value="0" />
      </BoundProperties>
    </ImageClip>
    <ImageClip extentID="1319" gapBefore="0" mediaItemID="1315" duration="0.20000000000000001">
      <Effects />
      <Transitions />
      <BoundProperties>
        <BoundPropertyInt Name="rotateStepNinety" Value="0" />
      </BoundProperties>
    </ImageClip>
    <ImageClip extentID="1320" gapBefore="0" mediaItemID="1316" duration="0.20000000000000001">
      <Effects />
      <Transitions />
      <BoundProperties>
        <BoundPropertyInt Name="rotateStepNinety" Value="0" />
      </BoundProperties>
    </ImageClip>
    <ImageClip extentID="1321" gapBefore="0" mediaItemID="1317" duration="0.20000000000000001">
      <Effects />
      <Transitions />
      <BoundProperties>
        <BoundPropertyInt Name="rotateStepNinety" Value="0" />
      </BoundProperties>
    </ImageClip>
    <ImageClip extentID="1322" gapBefore="0" mediaItemID="1318" duration="0.20000000000000001">
      <Effects />
      <Transitions />
      <BoundProperties>
        <BoundPropertyInt Name="rotateStepNinety" Value="0" />
      </BoundProperties>
    </ImageClip>
    <ImageClip extentID="1323" gapBefore="0" mediaItemID="1319" duration="0.20000000000000001">
      <Effects />
      <Transitions />
      <BoundProperties>
        <BoundPropertyInt Name="rotateStepNinety" Value="0" />
      </BoundProperties>
    </ImageClip>
    <ImageClip extentID="1324" gapBefore="0" mediaItemID="1320" duration="0.20000000000000001">
      <Effects />
      <Transitions />
      <BoundProperties>
        <BoundPropertyInt Name="rotateStepNinety" Value="0" />
      </BoundProperties>
    </ImageClip>
    <ImageClip extentID="1325" gapBefore="0" mediaItemID="1321" duration="0.20000000000000001">
      <Effects />
      <Transitions />
      <BoundProperties>
        <BoundPropertyInt Name="rotateStepNinety" Value="0" />
      </BoundProperties>
    </ImageClip>
    <ImageClip extentID="1326" gapBefore="0" mediaItemID="1322" duration="0.20000000000000001">
      <Effects />
      <Transitions />
      <BoundProperties>
        <BoundPropertyInt Name="rotateStepNinety" Value="0" />
      </BoundProperties>
    </ImageClip>
    <ImageClip extentID="1327" gapBefore="0" mediaItemID="1323" duration="0.20000000000000001">
      <Effects />
      <Transitions />
      <BoundProperties>
        <BoundPropertyInt Name="rotateStepNinety" Value="0" />
      </BoundProperties>
    </ImageClip>
    <ImageClip extentID="1328" gapBefore="0" mediaItemID="1324" duration="0.20000000000000001">
      <Effects />
      <Transitions />
      <BoundProperties>
        <BoundPropertyInt Name="rotateStepNinety" Value="0" />
      </BoundProperties>
    </ImageClip>
    <ImageClip extentID="1329" gapBefore="0" mediaItemID="1325" duration="0.20000000000000001">
      <Effects />
      <Transitions />
      <BoundProperties>
        <BoundPropertyInt Name="rotateStepNinety" Value="0" />
      </BoundProperties>
    </ImageClip>
    <ImageClip extentID="1330" gapBefore="0" mediaItemID="1326" duration="0.20000000000000001">
      <Effects />
      <Transitions />
      <BoundProperties>
        <BoundPropertyInt Name="rotateStepNinety" Value="0" />
      </BoundProperties>
    </ImageClip>
    <ImageClip extentID="1331" gapBefore="0" mediaItemID="1327" duration="0.20000000000000001">
      <Effects />
      <Transitions />
      <BoundProperties>
        <BoundPropertyInt Name="rotateStepNinety" Value="0" />
      </BoundProperties>
    </ImageClip>
    <ImageClip extentID="1332" gapBefore="0" mediaItemID="1328" duration="0.20000000000000001">
      <Effects />
      <Transitions />
      <BoundProperties>
        <BoundPropertyInt Name="rotateStepNinety" Value="0" />
      </BoundProperties>
    </ImageClip>
    <ImageClip extentID="1333" gapBefore="0" mediaItemID="1329" duration="0.20000000000000001">
      <Effects />
      <Transitions />
      <BoundProperties>
        <BoundPropertyInt Name="rotateStepNinety" Value="0" />
      </BoundProperties>
    </ImageClip>
    <ImageClip extentID="1334" gapBefore="0" mediaItemID="1330" duration="0.20000000000000001">
      <Effects />
      <Transitions />
      <BoundProperties>
        <BoundPropertyInt Name="rotateStepNinety" Value="0" />
      </BoundProperties>
    </ImageClip>
    <ImageClip extentID="1335" gapBefore="0" mediaItemID="1331" duration="0.20000000000000001">
      <Effects />
      <Transitions />
      <BoundProperties>
        <BoundPropertyInt Name="rotateStepNinety" Value="0" />
      </BoundProperties>
    </ImageClip>
    <ImageClip extentID="1336" gapBefore="0" mediaItemID="1332" duration="0.20000000000000001">
      <Effects />
      <Transitions />
      <BoundProperties>
        <BoundPropertyInt Name="rotateStepNinety" Value="0" />
      </BoundProperties>
    </ImageClip>
    <ImageClip extentID="1337" gapBefore="0" mediaItemID="1333" duration="0.20000000000000001">
      <Effects />
      <Transitions />
      <BoundProperties>
        <BoundPropertyInt Name="rotateStepNinety" Value="0" />
      </BoundProperties>
    </ImageClip>
    <ImageClip extentID="1338" gapBefore="0" mediaItemID="1334" duration="0.20000000000000001">
      <Effects />
      <Transitions />
      <BoundProperties>
        <BoundPropertyInt Name="rotateStepNinety" Value="0" />
      </BoundProperties>
    </ImageClip>
    <ImageClip extentID="1339" gapBefore="0" mediaItemID="1335" duration="0.20000000000000001">
      <Effects />
      <Transitions />
      <BoundProperties>
        <BoundPropertyInt Name="rotateStepNinety" Value="0" />
      </BoundProperties>
    </ImageClip>
    <ImageClip extentID="1340" gapBefore="0" mediaItemID="1336" duration="0.20000000000000001">
      <Effects />
      <Transitions />
      <BoundProperties>
        <BoundPropertyInt Name="rotateStepNinety" Value="0" />
      </BoundProperties>
    </ImageClip>
    <ImageClip extentID="1341" gapBefore="0" mediaItemID="1337" duration="0.20000000000000001">
      <Effects />
      <Transitions />
      <BoundProperties>
        <BoundPropertyInt Name="rotateStepNinety" Value="0" />
      </BoundProperties>
    </ImageClip>
    <ImageClip extentID="1342" gapBefore="0" mediaItemID="1338" duration="0.20000000000000001">
      <Effects />
      <Transitions />
      <BoundProperties>
        <BoundPropertyInt Name="rotateStepNinety" Value="0" />
      </BoundProperties>
    </ImageClip>
    <ImageClip extentID="1343" gapBefore="0" mediaItemID="1339" duration="0.20000000000000001">
      <Effects />
      <Transitions />
      <BoundProperties>
        <BoundPropertyInt Name="rotateStepNinety" Value="0" />
      </BoundProperties>
    </ImageClip>
    <ImageClip extentID="1344" gapBefore="0" mediaItemID="1340" duration="0.20000000000000001">
      <Effects />
      <Transitions />
      <BoundProperties>
        <BoundPropertyInt Name="rotateStepNinety" Value="0" />
      </BoundProperties>
    </ImageClip>
    <ImageClip extentID="1345" gapBefore="0" mediaItemID="1341" duration="0.20000000000000001">
      <Effects />
      <Transitions />
      <BoundProperties>
        <BoundPropertyInt Name="rotateStepNinety" Value="0" />
      </BoundProperties>
    </ImageClip>
    <ImageClip extentID="1346" gapBefore="0" mediaItemID="1342" duration="0.20000000000000001">
      <Effects />
      <Transitions />
      <BoundProperties>
        <BoundPropertyInt Name="rotateStepNinety" Value="0" />
      </BoundProperties>
    </ImageClip>
    <ImageClip extentID="1347" gapBefore="0" mediaItemID="1343" duration="0.20000000000000001">
      <Effects />
      <Transitions />
      <BoundProperties>
        <BoundPropertyInt Name="rotateStepNinety" Value="0" />
      </BoundProperties>
    </ImageClip>
    <ImageClip extentID="1348" gapBefore="0" mediaItemID="1344" duration="0.20000000000000001">
      <Effects />
      <Transitions />
      <BoundProperties>
        <BoundPropertyInt Name="rotateStepNinety" Value="0" />
      </BoundProperties>
    </ImageClip>
    <ImageClip extentID="1349" gapBefore="0" mediaItemID="1345" duration="0.20000000000000001">
      <Effects />
      <Transitions />
      <BoundProperties>
        <BoundPropertyInt Name="rotateStepNinety" Value="0" />
      </BoundProperties>
    </ImageClip>
    <ImageClip extentID="1350" gapBefore="0" mediaItemID="1346" duration="0.20000000000000001">
      <Effects />
      <Transitions />
      <BoundProperties>
        <BoundPropertyInt Name="rotateStepNinety" Value="0" />
      </BoundProperties>
    </ImageClip>
    <ImageClip extentID="1351" gapBefore="0" mediaItemID="1347" duration="0.20000000000000001">
      <Effects />
      <Transitions />
      <BoundProperties>
        <BoundPropertyInt Name="rotateStepNinety" Value="0" />
      </BoundProperties>
    </ImageClip>
    <ImageClip extentID="1352" gapBefore="0" mediaItemID="1348" duration="0.20000000000000001">
      <Effects />
      <Transitions />
      <BoundProperties>
        <BoundPropertyInt Name="rotateStepNinety" Value="0" />
      </BoundProperties>
    </ImageClip>
    <ImageClip extentID="1353" gapBefore="0" mediaItemID="1349" duration="0.20000000000000001">
      <Effects />
      <Transitions />
      <BoundProperties>
        <BoundPropertyInt Name="rotateStepNinety" Value="0" />
      </BoundProperties>
    </ImageClip>
    <ImageClip extentID="1354" gapBefore="0" mediaItemID="1350" duration="0.20000000000000001">
      <Effects />
      <Transitions />
      <BoundProperties>
        <BoundPropertyInt Name="rotateStepNinety" Value="0" />
      </BoundProperties>
    </ImageClip>
    <ImageClip extentID="1355" gapBefore="0" mediaItemID="1351" duration="0.20000000000000001">
      <Effects />
      <Transitions />
      <BoundProperties>
        <BoundPropertyInt Name="rotateStepNinety" Value="0" />
      </BoundProperties>
    </ImageClip>
    <ImageClip extentID="1356" gapBefore="0" mediaItemID="1352" duration="0.20000000000000001">
      <Effects />
      <Transitions />
      <BoundProperties>
        <BoundPropertyInt Name="rotateStepNinety" Value="0" />
      </BoundProperties>
    </ImageClip>
    <ImageClip extentID="1357" gapBefore="0" mediaItemID="1353" duration="0.20000000000000001">
      <Effects />
      <Transitions />
      <BoundProperties>
        <BoundPropertyInt Name="rotateStepNinety" Value="0" />
      </BoundProperties>
    </ImageClip>
    <ImageClip extentID="1358" gapBefore="0" mediaItemID="1354" duration="0.20000000000000001">
      <Effects />
      <Transitions />
      <BoundProperties>
        <BoundPropertyInt Name="rotateStepNinety" Value="0" />
      </BoundProperties>
    </ImageClip>
    <ImageClip extentID="1359" gapBefore="0" mediaItemID="1355" duration="0.20000000000000001">
      <Effects />
      <Transitions />
      <BoundProperties>
        <BoundPropertyInt Name="rotateStepNinety" Value="0" />
      </BoundProperties>
    </ImageClip>
    <ImageClip extentID="1360" gapBefore="0" mediaItemID="1356" duration="0.20000000000000001">
      <Effects />
      <Transitions />
      <BoundProperties>
        <BoundPropertyInt Name="rotateStepNinety" Value="0" />
      </BoundProperties>
    </ImageClip>
    <ImageClip extentID="1361" gapBefore="0" mediaItemID="1357" duration="0.20000000000000001">
      <Effects />
      <Transitions />
      <BoundProperties>
        <BoundPropertyInt Name="rotateStepNinety" Value="0" />
      </BoundProperties>
    </ImageClip>
    <ImageClip extentID="1362" gapBefore="0" mediaItemID="1358" duration="0.20000000000000001">
      <Effects />
      <Transitions />
      <BoundProperties>
        <BoundPropertyInt Name="rotateStepNinety" Value="0" />
      </BoundProperties>
    </ImageClip>
    <ImageClip extentID="1363" gapBefore="0" mediaItemID="1359" duration="0.20000000000000001">
      <Effects />
      <Transitions />
      <BoundProperties>
        <BoundPropertyInt Name="rotateStepNinety" Value="0" />
      </BoundProperties>
    </ImageClip>
    <ImageClip extentID="1364" gapBefore="0" mediaItemID="1360" duration="0.20000000000000001">
      <Effects />
      <Transitions />
      <BoundProperties>
        <BoundPropertyInt Name="rotateStepNinety" Value="0" />
      </BoundProperties>
    </ImageClip>
    <ImageClip extentID="1365" gapBefore="0" mediaItemID="1361" duration="0.20000000000000001">
      <Effects />
      <Transitions />
      <BoundProperties>
        <BoundPropertyInt Name="rotateStepNinety" Value="0" />
      </BoundProperties>
    </ImageClip>
    <ImageClip extentID="1366" gapBefore="0" mediaItemID="1362" duration="0.20000000000000001">
      <Effects />
      <Transitions />
      <BoundProperties>
        <BoundPropertyInt Name="rotateStepNinety" Value="0" />
      </BoundProperties>
    </ImageClip>
    <ImageClip extentID="1367" gapBefore="0" mediaItemID="1363" duration="0.20000000000000001">
      <Effects />
      <Transitions />
      <BoundProperties>
        <BoundPropertyInt Name="rotateStepNinety" Value="0" />
      </BoundProperties>
    </ImageClip>
    <ImageClip extentID="1368" gapBefore="0" mediaItemID="1364" duration="0.20000000000000001">
      <Effects />
      <Transitions />
      <BoundProperties>
        <BoundPropertyInt Name="rotateStepNinety" Value="0" />
      </BoundProperties>
    </ImageClip>
    <ImageClip extentID="1369" gapBefore="0" mediaItemID="1365" duration="0.20000000000000001">
      <Effects />
      <Transitions />
      <BoundProperties>
        <BoundPropertyInt Name="rotateStepNinety" Value="0" />
      </BoundProperties>
    </ImageClip>
    <ImageClip extentID="1370" gapBefore="0" mediaItemID="1366" duration="0.20000000000000001">
      <Effects />
      <Transitions />
      <BoundProperties>
        <BoundPropertyInt Name="rotateStepNinety" Value="0" />
      </BoundProperties>
    </ImageClip>
    <ImageClip extentID="1371" gapBefore="0" mediaItemID="1367" duration="0.20000000000000001">
      <Effects />
      <Transitions />
      <BoundProperties>
        <BoundPropertyInt Name="rotateStepNinety" Value="0" />
      </BoundProperties>
    </ImageClip>
    <ImageClip extentID="1372" gapBefore="0" mediaItemID="1368" duration="0.20000000000000001">
      <Effects />
      <Transitions />
      <BoundProperties>
        <BoundPropertyInt Name="rotateStepNinety" Value="0" />
      </BoundProperties>
    </ImageClip>
    <ImageClip extentID="1373" gapBefore="0" mediaItemID="1369" duration="0.20000000000000001">
      <Effects />
      <Transitions />
      <BoundProperties>
        <BoundPropertyInt Name="rotateStepNinety" Value="0" />
      </BoundProperties>
    </ImageClip>
    <ImageClip extentID="1374" gapBefore="0" mediaItemID="1370" duration="0.20000000000000001">
      <Effects />
      <Transitions />
      <BoundProperties>
        <BoundPropertyInt Name="rotateStepNinety" Value="0" />
      </BoundProperties>
    </ImageClip>
    <ImageClip extentID="1375" gapBefore="0" mediaItemID="1371" duration="0.20000000000000001">
      <Effects />
      <Transitions />
      <BoundProperties>
        <BoundPropertyInt Name="rotateStepNinety" Value="0" />
      </BoundProperties>
    </ImageClip>
    <ImageClip extentID="1376" gapBefore="0" mediaItemID="1372" duration="0.20000000000000001">
      <Effects />
      <Transitions />
      <BoundProperties>
        <BoundPropertyInt Name="rotateStepNinety" Value="0" />
      </BoundProperties>
    </ImageClip>
    <ImageClip extentID="1377" gapBefore="0" mediaItemID="1373" duration="0.20000000000000001">
      <Effects />
      <Transitions />
      <BoundProperties>
        <BoundPropertyInt Name="rotateStepNinety" Value="0" />
      </BoundProperties>
    </ImageClip>
    <ImageClip extentID="1378" gapBefore="0" mediaItemID="1374" duration="0.20000000000000001">
      <Effects />
      <Transitions />
      <BoundProperties>
        <BoundPropertyInt Name="rotateStepNinety" Value="0" />
      </BoundProperties>
    </ImageClip>
    <ImageClip extentID="1379" gapBefore="0" mediaItemID="1375" duration="0.20000000000000001">
      <Effects />
      <Transitions />
      <BoundProperties>
        <BoundPropertyInt Name="rotateStepNinety" Value="0" />
      </BoundProperties>
    </ImageClip>
    <ImageClip extentID="1380" gapBefore="0" mediaItemID="1376" duration="0.20000000000000001">
      <Effects />
      <Transitions />
      <BoundProperties>
        <BoundPropertyInt Name="rotateStepNinety" Value="0" />
      </BoundProperties>
    </ImageClip>
    <ImageClip extentID="1381" gapBefore="0" mediaItemID="1377" duration="0.20000000000000001">
      <Effects />
      <Transitions />
      <BoundProperties>
        <BoundPropertyInt Name="rotateStepNinety" Value="0" />
      </BoundProperties>
    </ImageClip>
    <ImageClip extentID="1382" gapBefore="0" mediaItemID="1378" duration="0.20000000000000001">
      <Effects />
      <Transitions />
      <BoundProperties>
        <BoundPropertyInt Name="rotateStepNinety" Value="0" />
      </BoundProperties>
    </ImageClip>
    <ImageClip extentID="1383" gapBefore="0" mediaItemID="1379" duration="0.20000000000000001">
      <Effects />
      <Transitions />
      <BoundProperties>
        <BoundPropertyInt Name="rotateStepNinety" Value="0" />
      </BoundProperties>
    </ImageClip>
    <ImageClip extentID="1384" gapBefore="0" mediaItemID="1380" duration="0.20000000000000001">
      <Effects />
      <Transitions />
      <BoundProperties>
        <BoundPropertyInt Name="rotateStepNinety" Value="0" />
      </BoundProperties>
    </ImageClip>
    <ImageClip extentID="1385" gapBefore="0" mediaItemID="1381" duration="0.20000000000000001">
      <Effects />
      <Transitions />
      <BoundProperties>
        <BoundPropertyInt Name="rotateStepNinety" Value="0" />
      </BoundProperties>
    </ImageClip>
    <ImageClip extentID="1386" gapBefore="0" mediaItemID="1382" duration="0.20000000000000001">
      <Effects />
      <Transitions />
      <BoundProperties>
        <BoundPropertyInt Name="rotateStepNinety" Value="0" />
      </BoundProperties>
    </ImageClip>
    <ImageClip extentID="1387" gapBefore="0" mediaItemID="1383" duration="0.20000000000000001">
      <Effects />
      <Transitions />
      <BoundProperties>
        <BoundPropertyInt Name="rotateStepNinety" Value="0" />
      </BoundProperties>
    </ImageClip>
    <ImageClip extentID="1388" gapBefore="0" mediaItemID="1384" duration="0.20000000000000001">
      <Effects />
      <Transitions />
      <BoundProperties>
        <BoundPropertyInt Name="rotateStepNinety" Value="0" />
      </BoundProperties>
    </ImageClip>
    <ImageClip extentID="1389" gapBefore="0" mediaItemID="1385" duration="0.20000000000000001">
      <Effects />
      <Transitions />
      <BoundProperties>
        <BoundPropertyInt Name="rotateStepNinety" Value="0" />
      </BoundProperties>
    </ImageClip>
    <ImageClip extentID="1390" gapBefore="0" mediaItemID="1386" duration="0.20000000000000001">
      <Effects />
      <Transitions />
      <BoundProperties>
        <BoundPropertyInt Name="rotateStepNinety" Value="0" />
      </BoundProperties>
    </ImageClip>
    <ImageClip extentID="1391" gapBefore="0" mediaItemID="1387" duration="0.20000000000000001">
      <Effects />
      <Transitions />
      <BoundProperties>
        <BoundPropertyInt Name="rotateStepNinety" Value="0" />
      </BoundProperties>
    </ImageClip>
    <ImageClip extentID="1392" gapBefore="0" mediaItemID="1388" duration="0.20000000000000001">
      <Effects />
      <Transitions />
      <BoundProperties>
        <BoundPropertyInt Name="rotateStepNinety" Value="0" />
      </BoundProperties>
    </ImageClip>
    <ImageClip extentID="1393" gapBefore="0" mediaItemID="1389" duration="0.20000000000000001">
      <Effects />
      <Transitions />
      <BoundProperties>
        <BoundPropertyInt Name="rotateStepNinety" Value="0" />
      </BoundProperties>
    </ImageClip>
    <ImageClip extentID="1394" gapBefore="0" mediaItemID="1390" duration="0.20000000000000001">
      <Effects />
      <Transitions />
      <BoundProperties>
        <BoundPropertyInt Name="rotateStepNinety" Value="0" />
      </BoundProperties>
    </ImageClip>
    <ImageClip extentID="1395" gapBefore="0" mediaItemID="1391" duration="0.20000000000000001">
      <Effects />
      <Transitions />
      <BoundProperties>
        <BoundPropertyInt Name="rotateStepNinety" Value="0" />
      </BoundProperties>
    </ImageClip>
    <ImageClip extentID="1396" gapBefore="0" mediaItemID="1392" duration="0.20000000000000001">
      <Effects />
      <Transitions />
      <BoundProperties>
        <BoundPropertyInt Name="rotateStepNinety" Value="0" />
      </BoundProperties>
    </ImageClip>
    <ImageClip extentID="1397" gapBefore="0" mediaItemID="1393" duration="0.20000000000000001">
      <Effects />
      <Transitions />
      <BoundProperties>
        <BoundPropertyInt Name="rotateStepNinety" Value="0" />
      </BoundProperties>
    </ImageClip>
    <ImageClip extentID="1398" gapBefore="0" mediaItemID="1394" duration="0.20000000000000001">
      <Effects />
      <Transitions />
      <BoundProperties>
        <BoundPropertyInt Name="rotateStepNinety" Value="0" />
      </BoundProperties>
    </ImageClip>
    <ImageClip extentID="1399" gapBefore="0" mediaItemID="1395" duration="0.20000000000000001">
      <Effects />
      <Transitions />
      <BoundProperties>
        <BoundPropertyInt Name="rotateStepNinety" Value="0" />
      </BoundProperties>
    </ImageClip>
    <ImageClip extentID="1400" gapBefore="0" mediaItemID="1396" duration="0.20000000000000001">
      <Effects />
      <Transitions />
      <BoundProperties>
        <BoundPropertyInt Name="rotateStepNinety" Value="0" />
      </BoundProperties>
    </ImageClip>
    <ImageClip extentID="1401" gapBefore="0" mediaItemID="1397" duration="0.20000000000000001">
      <Effects />
      <Transitions />
      <BoundProperties>
        <BoundPropertyInt Name="rotateStepNinety" Value="0" />
      </BoundProperties>
    </ImageClip>
    <ImageClip extentID="1402" gapBefore="0" mediaItemID="1398" duration="0.20000000000000001">
      <Effects />
      <Transitions />
      <BoundProperties>
        <BoundPropertyInt Name="rotateStepNinety" Value="0" />
      </BoundProperties>
    </ImageClip>
    <ImageClip extentID="1403" gapBefore="0" mediaItemID="1399" duration="0.20000000000000001">
      <Effects />
      <Transitions />
      <BoundProperties>
        <BoundPropertyInt Name="rotateStepNinety" Value="0" />
      </BoundProperties>
    </ImageClip>
    <ImageClip extentID="1404" gapBefore="0" mediaItemID="1400" duration="0.20000000000000001">
      <Effects />
      <Transitions />
      <BoundProperties>
        <BoundPropertyInt Name="rotateStepNinety" Value="0" />
      </BoundProperties>
    </ImageClip>
    <ImageClip extentID="1405" gapBefore="0" mediaItemID="1401" duration="0.20000000000000001">
      <Effects />
      <Transitions />
      <BoundProperties>
        <BoundPropertyInt Name="rotateStepNinety" Value="0" />
      </BoundProperties>
    </ImageClip>
    <ImageClip extentID="1406" gapBefore="0" mediaItemID="1402" duration="0.20000000000000001">
      <Effects />
      <Transitions />
      <BoundProperties>
        <BoundPropertyInt Name="rotateStepNinety" Value="0" />
      </BoundProperties>
    </ImageClip>
    <ImageClip extentID="1407" gapBefore="0" mediaItemID="1403" duration="0.20000000000000001">
      <Effects />
      <Transitions />
      <BoundProperties>
        <BoundPropertyInt Name="rotateStepNinety" Value="0" />
      </BoundProperties>
    </ImageClip>
    <ImageClip extentID="1408" gapBefore="0" mediaItemID="1404" duration="0.20000000000000001">
      <Effects />
      <Transitions />
      <BoundProperties>
        <BoundPropertyInt Name="rotateStepNinety" Value="0" />
      </BoundProperties>
    </ImageClip>
    <ImageClip extentID="1409" gapBefore="0" mediaItemID="1405" duration="0.20000000000000001">
      <Effects />
      <Transitions />
      <BoundProperties>
        <BoundPropertyInt Name="rotateStepNinety" Value="0" />
      </BoundProperties>
    </ImageClip>
    <ImageClip extentID="1410" gapBefore="0" mediaItemID="1406" duration="0.20000000000000001">
      <Effects />
      <Transitions />
      <BoundProperties>
        <BoundPropertyInt Name="rotateStepNinety" Value="0" />
      </BoundProperties>
    </ImageClip>
    <ImageClip extentID="1411" gapBefore="0" mediaItemID="1407" duration="0.20000000000000001">
      <Effects />
      <Transitions />
      <BoundProperties>
        <BoundPropertyInt Name="rotateStepNinety" Value="0" />
      </BoundProperties>
    </ImageClip>
    <ImageClip extentID="1412" gapBefore="0" mediaItemID="1408" duration="0.20000000000000001">
      <Effects />
      <Transitions />
      <BoundProperties>
        <BoundPropertyInt Name="rotateStepNinety" Value="0" />
      </BoundProperties>
    </ImageClip>
    <ImageClip extentID="1413" gapBefore="0" mediaItemID="1409" duration="0.20000000000000001">
      <Effects />
      <Transitions />
      <BoundProperties>
        <BoundPropertyInt Name="rotateStepNinety" Value="0" />
      </BoundProperties>
    </ImageClip>
    <ImageClip extentID="1414" gapBefore="0" mediaItemID="1410" duration="0.20000000000000001">
      <Effects />
      <Transitions />
      <BoundProperties>
        <BoundPropertyInt Name="rotateStepNinety" Value="0" />
      </BoundProperties>
    </ImageClip>
    <ImageClip extentID="1415" gapBefore="0" mediaItemID="1411" duration="0.20000000000000001">
      <Effects />
      <Transitions />
      <BoundProperties>
        <BoundPropertyInt Name="rotateStepNinety" Value="0" />
      </BoundProperties>
    </ImageClip>
    <ImageClip extentID="1416" gapBefore="0" mediaItemID="1412" duration="0.20000000000000001">
      <Effects />
      <Transitions />
      <BoundProperties>
        <BoundPropertyInt Name="rotateStepNinety" Value="0" />
      </BoundProperties>
    </ImageClip>
    <ImageClip extentID="1417" gapBefore="0" mediaItemID="1413" duration="0.20000000000000001">
      <Effects />
      <Transitions />
      <BoundProperties>
        <BoundPropertyInt Name="rotateStepNinety" Value="0" />
      </BoundProperties>
    </ImageClip>
    <ImageClip extentID="1418" gapBefore="0" mediaItemID="1414" duration="0.20000000000000001">
      <Effects />
      <Transitions />
      <BoundProperties>
        <BoundPropertyInt Name="rotateStepNinety" Value="0" />
      </BoundProperties>
    </ImageClip>
    <ImageClip extentID="1419" gapBefore="0" mediaItemID="1415" duration="0.20000000000000001">
      <Effects />
      <Transitions />
      <BoundProperties>
        <BoundPropertyInt Name="rotateStepNinety" Value="0" />
      </BoundProperties>
    </ImageClip>
    <ImageClip extentID="1420" gapBefore="0" mediaItemID="1416" duration="0.20000000000000001">
      <Effects />
      <Transitions />
      <BoundProperties>
        <BoundPropertyInt Name="rotateStepNinety" Value="0" />
      </BoundProperties>
    </ImageClip>
    <ImageClip extentID="1421" gapBefore="0" mediaItemID="1417" duration="0.20000000000000001">
      <Effects />
      <Transitions />
      <BoundProperties>
        <BoundPropertyInt Name="rotateStepNinety" Value="0" />
      </BoundProperties>
    </ImageClip>
    <ImageClip extentID="1422" gapBefore="0" mediaItemID="1418" duration="0.20000000000000001">
      <Effects />
      <Transitions />
      <BoundProperties>
        <BoundPropertyInt Name="rotateStepNinety" Value="0" />
      </BoundProperties>
    </ImageClip>
    <ImageClip extentID="1423" gapBefore="0" mediaItemID="1419" duration="0.20000000000000001">
      <Effects />
      <Transitions />
      <BoundProperties>
        <BoundPropertyInt Name="rotateStepNinety" Value="0" />
      </BoundProperties>
    </ImageClip>
    <ImageClip extentID="1424" gapBefore="0" mediaItemID="1420" duration="0.20000000000000001">
      <Effects />
      <Transitions />
      <BoundProperties>
        <BoundPropertyInt Name="rotateStepNinety" Value="0" />
      </BoundProperties>
    </ImageClip>
    <ImageClip extentID="1425" gapBefore="0" mediaItemID="1421" duration="0.20000000000000001">
      <Effects />
      <Transitions />
      <BoundProperties>
        <BoundPropertyInt Name="rotateStepNinety" Value="0" />
      </BoundProperties>
    </ImageClip>
    <ImageClip extentID="1426" gapBefore="0" mediaItemID="1422" duration="0.20000000000000001">
      <Effects />
      <Transitions />
      <BoundProperties>
        <BoundPropertyInt Name="rotateStepNinety" Value="0" />
      </BoundProperties>
    </ImageClip>
    <ImageClip extentID="1427" gapBefore="0" mediaItemID="1423" duration="0.20000000000000001">
      <Effects />
      <Transitions />
      <BoundProperties>
        <BoundPropertyInt Name="rotateStepNinety" Value="0" />
      </BoundProperties>
    </ImageClip>
    <ImageClip extentID="1428" gapBefore="0" mediaItemID="1424" duration="0.20000000000000001">
      <Effects />
      <Transitions />
      <BoundProperties>
        <BoundPropertyInt Name="rotateStepNinety" Value="0" />
      </BoundProperties>
    </ImageClip>
    <ImageClip extentID="1429" gapBefore="0" mediaItemID="1425" duration="0.20000000000000001">
      <Effects />
      <Transitions />
      <BoundProperties>
        <BoundPropertyInt Name="rotateStepNinety" Value="0" />
      </BoundProperties>
    </ImageClip>
    <ImageClip extentID="1430" gapBefore="0" mediaItemID="1426" duration="0.20000000000000001">
      <Effects />
      <Transitions />
      <BoundProperties>
        <BoundPropertyInt Name="rotateStepNinety" Value="0" />
      </BoundProperties>
    </ImageClip>
    <ImageClip extentID="1431" gapBefore="0" mediaItemID="1427" duration="0.20000000000000001">
      <Effects />
      <Transitions />
      <BoundProperties>
        <BoundPropertyInt Name="rotateStepNinety" Value="0" />
      </BoundProperties>
    </ImageClip>
    <ImageClip extentID="1432" gapBefore="0" mediaItemID="1428" duration="0.20000000000000001">
      <Effects />
      <Transitions />
      <BoundProperties>
        <BoundPropertyInt Name="rotateStepNinety" Value="0" />
      </BoundProperties>
    </ImageClip>
    <ImageClip extentID="1433" gapBefore="0" mediaItemID="1429" duration="0.20000000000000001">
      <Effects />
      <Transitions />
      <BoundProperties>
        <BoundPropertyInt Name="rotateStepNinety" Value="0" />
      </BoundProperties>
    </ImageClip>
    <ImageClip extentID="1434" gapBefore="0" mediaItemID="1430" duration="0.20000000000000001">
      <Effects />
      <Transitions />
      <BoundProperties>
        <BoundPropertyInt Name="rotateStepNinety" Value="0" />
      </BoundProperties>
    </ImageClip>
    <ImageClip extentID="1435" gapBefore="0" mediaItemID="1431" duration="0.20000000000000001">
      <Effects />
      <Transitions />
      <BoundProperties>
        <BoundPropertyInt Name="rotateStepNinety" Value="0" />
      </BoundProperties>
    </ImageClip>
    <ImageClip extentID="1436" gapBefore="0" mediaItemID="1432" duration="0.20000000000000001">
      <Effects />
      <Transitions />
      <BoundProperties>
        <BoundPropertyInt Name="rotateStepNinety" Value="0" />
      </BoundProperties>
    </ImageClip>
    <ImageClip extentID="1437" gapBefore="0" mediaItemID="1433" duration="0.20000000000000001">
      <Effects />
      <Transitions />
      <BoundProperties>
        <BoundPropertyInt Name="rotateStepNinety" Value="0" />
      </BoundProperties>
    </ImageClip>
    <ImageClip extentID="1438" gapBefore="0" mediaItemID="1434" duration="0.20000000000000001">
      <Effects />
      <Transitions />
      <BoundProperties>
        <BoundPropertyInt Name="rotateStepNinety" Value="0" />
      </BoundProperties>
    </ImageClip>
    <ImageClip extentID="1439" gapBefore="0" mediaItemID="1435" duration="0.20000000000000001">
      <Effects />
      <Transitions />
      <BoundProperties>
        <BoundPropertyInt Name="rotateStepNinety" Value="0" />
      </BoundProperties>
    </ImageClip>
    <ImageClip extentID="1440" gapBefore="0" mediaItemID="1436" duration="0.20000000000000001">
      <Effects />
      <Transitions />
      <BoundProperties>
        <BoundPropertyInt Name="rotateStepNinety" Value="0" />
      </BoundProperties>
    </ImageClip>
    <ImageClip extentID="1441" gapBefore="0" mediaItemID="1437" duration="0.20000000000000001">
      <Effects />
      <Transitions />
      <BoundProperties>
        <BoundPropertyInt Name="rotateStepNinety" Value="0" />
      </BoundProperties>
    </ImageClip>
    <ImageClip extentID="1442" gapBefore="0" mediaItemID="1438" duration="0.20000000000000001">
      <Effects />
      <Transitions />
      <BoundProperties>
        <BoundPropertyInt Name="rotateStepNinety" Value="0" />
      </BoundProperties>
    </ImageClip>
    <ImageClip extentID="1443" gapBefore="0" mediaItemID="1439" duration="0.20000000000000001">
      <Effects />
      <Transitions />
      <BoundProperties>
        <BoundPropertyInt Name="rotateStepNinety" Value="0" />
      </BoundProperties>
    </ImageClip>
    <ImageClip extentID="1444" gapBefore="0" mediaItemID="1440" duration="0.20000000000000001">
      <Effects />
      <Transitions />
      <BoundProperties>
        <BoundPropertyInt Name="rotateStepNinety" Value="0" />
      </BoundProperties>
    </ImageClip>
    <ImageClip extentID="1445" gapBefore="0" mediaItemID="1441" duration="0.20000000000000001">
      <Effects />
      <Transitions />
      <BoundProperties>
        <BoundPropertyInt Name="rotateStepNinety" Value="0" />
      </BoundProperties>
    </ImageClip>
    <ImageClip extentID="1446" gapBefore="0" mediaItemID="1442" duration="0.20000000000000001">
      <Effects />
      <Transitions />
      <BoundProperties>
        <BoundPropertyInt Name="rotateStepNinety" Value="0" />
      </BoundProperties>
    </ImageClip>
    <ImageClip extentID="1447" gapBefore="0" mediaItemID="1443" duration="0.20000000000000001">
      <Effects />
      <Transitions />
      <BoundProperties>
        <BoundPropertyInt Name="rotateStepNinety" Value="0" />
      </BoundProperties>
    </ImageClip>
    <ImageClip extentID="1448" gapBefore="0" mediaItemID="1444" duration="0.20000000000000001">
      <Effects />
      <Transitions />
      <BoundProperties>
        <BoundPropertyInt Name="rotateStepNinety" Value="0" />
      </BoundProperties>
    </ImageClip>
    <ImageClip extentID="1449" gapBefore="0" mediaItemID="1445" duration="0.20000000000000001">
      <Effects />
      <Transitions />
      <BoundProperties>
        <BoundPropertyInt Name="rotateStepNinety" Value="0" />
      </BoundProperties>
    </ImageClip>
    <ImageClip extentID="1450" gapBefore="0" mediaItemID="1446" duration="0.20000000000000001">
      <Effects />
      <Transitions />
      <BoundProperties>
        <BoundPropertyInt Name="rotateStepNinety" Value="0" />
      </BoundProperties>
    </ImageClip>
    <ImageClip extentID="1451" gapBefore="0" mediaItemID="1447" duration="0.20000000000000001">
      <Effects />
      <Transitions />
      <BoundProperties>
        <BoundPropertyInt Name="rotateStepNinety" Value="0" />
      </BoundProperties>
    </ImageClip>
    <ImageClip extentID="1452" gapBefore="0" mediaItemID="1448" duration="0.20000000000000001">
      <Effects />
      <Transitions />
      <BoundProperties>
        <BoundPropertyInt Name="rotateStepNinety" Value="0" />
      </BoundProperties>
    </ImageClip>
    <ImageClip extentID="1453" gapBefore="0" mediaItemID="1449" duration="0.20000000000000001">
      <Effects />
      <Transitions />
      <BoundProperties>
        <BoundPropertyInt Name="rotateStepNinety" Value="0" />
      </BoundProperties>
    </ImageClip>
    <ImageClip extentID="1454" gapBefore="0" mediaItemID="1450" duration="0.20000000000000001">
      <Effects />
      <Transitions />
      <BoundProperties>
        <BoundPropertyInt Name="rotateStepNinety" Value="0" />
      </BoundProperties>
    </ImageClip>
    <ImageClip extentID="1455" gapBefore="0" mediaItemID="1451" duration="0.20000000000000001">
      <Effects />
      <Transitions />
      <BoundProperties>
        <BoundPropertyInt Name="rotateStepNinety" Value="0" />
      </BoundProperties>
    </ImageClip>
    <ImageClip extentID="1456" gapBefore="0" mediaItemID="1452" duration="0.20000000000000001">
      <Effects />
      <Transitions />
      <BoundProperties>
        <BoundPropertyInt Name="rotateStepNinety" Value="0" />
      </BoundProperties>
    </ImageClip>
    <ImageClip extentID="1457" gapBefore="0" mediaItemID="1453" duration="0.20000000000000001">
      <Effects />
      <Transitions />
      <BoundProperties>
        <BoundPropertyInt Name="rotateStepNinety" Value="0" />
      </BoundProperties>
    </ImageClip>
    <ImageClip extentID="1458" gapBefore="0" mediaItemID="1454" duration="0.20000000000000001">
      <Effects />
      <Transitions />
      <BoundProperties>
        <BoundPropertyInt Name="rotateStepNinety" Value="0" />
      </BoundProperties>
    </ImageClip>
    <ImageClip extentID="1459" gapBefore="0" mediaItemID="1455" duration="0.20000000000000001">
      <Effects />
      <Transitions />
      <BoundProperties>
        <BoundPropertyInt Name="rotateStepNinety" Value="0" />
      </BoundProperties>
    </ImageClip>
    <ImageClip extentID="1460" gapBefore="0" mediaItemID="1456" duration="0.20000000000000001">
      <Effects />
      <Transitions />
      <BoundProperties>
        <BoundPropertyInt Name="rotateStepNinety" Value="0" />
      </BoundProperties>
    </ImageClip>
    <ImageClip extentID="1461" gapBefore="0" mediaItemID="1457" duration="0.20000000000000001">
      <Effects />
      <Transitions />
      <BoundProperties>
        <BoundPropertyInt Name="rotateStepNinety" Value="0" />
      </BoundProperties>
    </ImageClip>
    <ImageClip extentID="1462" gapBefore="0" mediaItemID="1458" duration="0.20000000000000001">
      <Effects />
      <Transitions />
      <BoundProperties>
        <BoundPropertyInt Name="rotateStepNinety" Value="0" />
      </BoundProperties>
    </ImageClip>
    <ImageClip extentID="1463" gapBefore="0" mediaItemID="1459" duration="0.20000000000000001">
      <Effects />
      <Transitions />
      <BoundProperties>
        <BoundPropertyInt Name="rotateStepNinety" Value="0" />
      </BoundProperties>
    </ImageClip>
    <ImageClip extentID="1464" gapBefore="0" mediaItemID="1460" duration="0.20000000000000001">
      <Effects />
      <Transitions />
      <BoundProperties>
        <BoundPropertyInt Name="rotateStepNinety" Value="0" />
      </BoundProperties>
    </ImageClip>
    <ImageClip extentID="1465" gapBefore="0" mediaItemID="1461" duration="0.20000000000000001">
      <Effects />
      <Transitions />
      <BoundProperties>
        <BoundPropertyInt Name="rotateStepNinety" Value="0" />
      </BoundProperties>
    </ImageClip>
    <ImageClip extentID="1466" gapBefore="0" mediaItemID="1462" duration="0.20000000000000001">
      <Effects />
      <Transitions />
      <BoundProperties>
        <BoundPropertyInt Name="rotateStepNinety" Value="0" />
      </BoundProperties>
    </ImageClip>
    <ImageClip extentID="1467" gapBefore="0" mediaItemID="1463" duration="0.20000000000000001">
      <Effects />
      <Transitions />
      <BoundProperties>
        <BoundPropertyInt Name="rotateStepNinety" Value="0" />
      </BoundProperties>
    </ImageClip>
    <ImageClip extentID="1468" gapBefore="0" mediaItemID="1464" duration="0.20000000000000001">
      <Effects />
      <Transitions />
      <BoundProperties>
        <BoundPropertyInt Name="rotateStepNinety" Value="0" />
      </BoundProperties>
    </ImageClip>
    <ImageClip extentID="1469" gapBefore="0" mediaItemID="1465" duration="0.20000000000000001">
      <Effects />
      <Transitions />
      <BoundProperties>
        <BoundPropertyInt Name="rotateStepNinety" Value="0" />
      </BoundProperties>
    </ImageClip>
    <ImageClip extentID="1470" gapBefore="0" mediaItemID="1466" duration="0.20000000000000001">
      <Effects />
      <Transitions />
      <BoundProperties>
        <BoundPropertyInt Name="rotateStepNinety" Value="0" />
      </BoundProperties>
    </ImageClip>
    <ImageClip extentID="1471" gapBefore="0" mediaItemID="1467" duration="0.20000000000000001">
      <Effects />
      <Transitions />
      <BoundProperties>
        <BoundPropertyInt Name="rotateStepNinety" Value="0" />
      </BoundProperties>
    </ImageClip>
    <ImageClip extentID="1472" gapBefore="0" mediaItemID="1468" duration="0.20000000000000001">
      <Effects />
      <Transitions />
      <BoundProperties>
        <BoundPropertyInt Name="rotateStepNinety" Value="0" />
      </BoundProperties>
    </ImageClip>
    <ImageClip extentID="1473" gapBefore="0" mediaItemID="1469" duration="0.20000000000000001">
      <Effects />
      <Transitions />
      <BoundProperties>
        <BoundPropertyInt Name="rotateStepNinety" Value="0" />
      </BoundProperties>
    </ImageClip>
    <ImageClip extentID="1474" gapBefore="0" mediaItemID="1470" duration="0.20000000000000001">
      <Effects />
      <Transitions />
      <BoundProperties>
        <BoundPropertyInt Name="rotateStepNinety" Value="0" />
      </BoundProperties>
    </ImageClip>
    <ImageClip extentID="1475" gapBefore="0" mediaItemID="1471" duration="0.20000000000000001">
      <Effects />
      <Transitions />
      <BoundProperties>
        <BoundPropertyInt Name="rotateStepNinety" Value="0" />
      </BoundProperties>
    </ImageClip>
    <ImageClip extentID="1476" gapBefore="0" mediaItemID="1472" duration="0.20000000000000001">
      <Effects />
      <Transitions />
      <BoundProperties>
        <BoundPropertyInt Name="rotateStepNinety" Value="0" />
      </BoundProperties>
    </ImageClip>
    <ImageClip extentID="1477" gapBefore="0" mediaItemID="1473" duration="0.20000000000000001">
      <Effects />
      <Transitions />
      <BoundProperties>
        <BoundPropertyInt Name="rotateStepNinety" Value="0" />
      </BoundProperties>
    </ImageClip>
    <ImageClip extentID="1478" gapBefore="0" mediaItemID="1474" duration="0.20000000000000001">
      <Effects />
      <Transitions />
      <BoundProperties>
        <BoundPropertyInt Name="rotateStepNinety" Value="0" />
      </BoundProperties>
    </ImageClip>
    <ImageClip extentID="1479" gapBefore="0" mediaItemID="1475" duration="0.20000000000000001">
      <Effects />
      <Transitions />
      <BoundProperties>
        <BoundPropertyInt Name="rotateStepNinety" Value="0" />
      </BoundProperties>
    </ImageClip>
    <ImageClip extentID="1480" gapBefore="0" mediaItemID="1476" duration="0.20000000000000001">
      <Effects />
      <Transitions />
      <BoundProperties>
        <BoundPropertyInt Name="rotateStepNinety" Value="0" />
      </BoundProperties>
    </ImageClip>
    <ImageClip extentID="1481" gapBefore="0" mediaItemID="1477" duration="0.20000000000000001">
      <Effects />
      <Transitions />
      <BoundProperties>
        <BoundPropertyInt Name="rotateStepNinety" Value="0" />
      </BoundProperties>
    </ImageClip>
    <ImageClip extentID="1482" gapBefore="0" mediaItemID="1478" duration="0.20000000000000001">
      <Effects />
      <Transitions />
      <BoundProperties>
        <BoundPropertyInt Name="rotateStepNinety" Value="0" />
      </BoundProperties>
    </ImageClip>
    <ImageClip extentID="1483" gapBefore="0" mediaItemID="1479" duration="0.20000000000000001">
      <Effects />
      <Transitions />
      <BoundProperties>
        <BoundPropertyInt Name="rotateStepNinety" Value="0" />
      </BoundProperties>
    </ImageClip>
    <ImageClip extentID="1484" gapBefore="0" mediaItemID="1480" duration="0.20000000000000001">
      <Effects />
      <Transitions />
      <BoundProperties>
        <BoundPropertyInt Name="rotateStepNinety" Value="0" />
      </BoundProperties>
    </ImageClip>
    <ImageClip extentID="1485" gapBefore="0" mediaItemID="1481" duration="0.20000000000000001">
      <Effects />
      <Transitions />
      <BoundProperties>
        <BoundPropertyInt Name="rotateStepNinety" Value="0" />
      </BoundProperties>
    </ImageClip>
    <ImageClip extentID="1486" gapBefore="0" mediaItemID="1482" duration="0.20000000000000001">
      <Effects />
      <Transitions />
      <BoundProperties>
        <BoundPropertyInt Name="rotateStepNinety" Value="0" />
      </BoundProperties>
    </ImageClip>
    <ImageClip extentID="1487" gapBefore="0" mediaItemID="1483" duration="0.20000000000000001">
      <Effects />
      <Transitions />
      <BoundProperties>
        <BoundPropertyInt Name="rotateStepNinety" Value="0" />
      </BoundProperties>
    </ImageClip>
    <ImageClip extentID="1488" gapBefore="0" mediaItemID="1484" duration="0.20000000000000001">
      <Effects />
      <Transitions />
      <BoundProperties>
        <BoundPropertyInt Name="rotateStepNinety" Value="0" />
      </BoundProperties>
    </ImageClip>
    <ImageClip extentID="1489" gapBefore="0" mediaItemID="1485" duration="0.20000000000000001">
      <Effects />
      <Transitions />
      <BoundProperties>
        <BoundPropertyInt Name="rotateStepNinety" Value="0" />
      </BoundProperties>
    </ImageClip>
    <ImageClip extentID="1490" gapBefore="0" mediaItemID="1486" duration="0.20000000000000001">
      <Effects />
      <Transitions />
      <BoundProperties>
        <BoundPropertyInt Name="rotateStepNinety" Value="0" />
      </BoundProperties>
    </ImageClip>
    <ImageClip extentID="1491" gapBefore="0" mediaItemID="1487" duration="0.20000000000000001">
      <Effects />
      <Transitions />
      <BoundProperties>
        <BoundPropertyInt Name="rotateStepNinety" Value="0" />
      </BoundProperties>
    </ImageClip>
    <ImageClip extentID="1492" gapBefore="0" mediaItemID="1488" duration="0.20000000000000001">
      <Effects />
      <Transitions />
      <BoundProperties>
        <BoundPropertyInt Name="rotateStepNinety" Value="0" />
      </BoundProperties>
    </ImageClip>
    <ImageClip extentID="1493" gapBefore="0" mediaItemID="1489" duration="0.20000000000000001">
      <Effects />
      <Transitions />
      <BoundProperties>
        <BoundPropertyInt Name="rotateStepNinety" Value="0" />
      </BoundProperties>
    </ImageClip>
    <ImageClip extentID="1494" gapBefore="0" mediaItemID="1490" duration="0.20000000000000001">
      <Effects />
      <Transitions />
      <BoundProperties>
        <BoundPropertyInt Name="rotateStepNinety" Value="0" />
      </BoundProperties>
    </ImageClip>
    <ImageClip extentID="1495" gapBefore="0" mediaItemID="1491" duration="0.20000000000000001">
      <Effects />
      <Transitions />
      <BoundProperties>
        <BoundPropertyInt Name="rotateStepNinety" Value="0" />
      </BoundProperties>
    </ImageClip>
    <ImageClip extentID="1496" gapBefore="0" mediaItemID="1492" duration="0.20000000000000001">
      <Effects />
      <Transitions />
      <BoundProperties>
        <BoundPropertyInt Name="rotateStepNinety" Value="0" />
      </BoundProperties>
    </ImageClip>
    <ImageClip extentID="1497" gapBefore="0" mediaItemID="1493" duration="0.20000000000000001">
      <Effects />
      <Transitions />
      <BoundProperties>
        <BoundPropertyInt Name="rotateStepNinety" Value="0" />
      </BoundProperties>
    </ImageClip>
    <ImageClip extentID="1498" gapBefore="0" mediaItemID="1494" duration="0.20000000000000001">
      <Effects />
      <Transitions />
      <BoundProperties>
        <BoundPropertyInt Name="rotateStepNinety" Value="0" />
      </BoundProperties>
    </ImageClip>
    <ImageClip extentID="1499" gapBefore="0" mediaItemID="1495" duration="0.20000000000000001">
      <Effects />
      <Transitions />
      <BoundProperties>
        <BoundPropertyInt Name="rotateStepNinety" Value="0" />
      </BoundProperties>
    </ImageClip>
    <ImageClip extentID="1500" gapBefore="0" mediaItemID="1496" duration="0.20000000000000001">
      <Effects />
      <Transitions />
      <BoundProperties>
        <BoundPropertyInt Name="rotateStepNinety" Value="0" />
      </BoundProperties>
    </ImageClip>
    <ImageClip extentID="1501" gapBefore="0" mediaItemID="1497" duration="0.20000000000000001">
      <Effects />
      <Transitions />
      <BoundProperties>
        <BoundPropertyInt Name="rotateStepNinety" Value="0" />
      </BoundProperties>
    </ImageClip>
    <ImageClip extentID="1502" gapBefore="0" mediaItemID="1498" duration="0.20000000000000001">
      <Effects />
      <Transitions />
      <BoundProperties>
        <BoundPropertyInt Name="rotateStepNinety" Value="0" />
      </BoundProperties>
    </ImageClip>
    <ImageClip extentID="1503" gapBefore="0" mediaItemID="1499" duration="0.20000000000000001">
      <Effects />
      <Transitions />
      <BoundProperties>
        <BoundPropertyInt Name="rotateStepNinety" Value="0" />
      </BoundProperties>
    </ImageClip>
    <ImageClip extentID="1504" gapBefore="0" mediaItemID="1500" duration="0.20000000000000001">
      <Effects />
      <Transitions />
      <BoundProperties>
        <BoundPropertyInt Name="rotateStepNinety" Value="0" />
      </BoundProperties>
    </ImageClip>
    <ImageClip extentID="1505" gapBefore="0" mediaItemID="1501" duration="0.20000000000000001">
      <Effects />
      <Transitions />
      <BoundProperties>
        <BoundPropertyInt Name="rotateStepNinety" Value="0" />
      </BoundProperties>
    </ImageClip>
    <ImageClip extentID="1506" gapBefore="0" mediaItemID="1502" duration="0.20000000000000001">
      <Effects />
      <Transitions />
      <BoundProperties>
        <BoundPropertyInt Name="rotateStepNinety" Value="0" />
      </BoundProperties>
    </ImageClip>
    <ImageClip extentID="1507" gapBefore="0" mediaItemID="1503" duration="0.20000000000000001">
      <Effects />
      <Transitions />
      <BoundProperties>
        <BoundPropertyInt Name="rotateStepNinety" Value="0" />
      </BoundProperties>
    </ImageClip>
    <ImageClip extentID="1508" gapBefore="0" mediaItemID="1504" duration="0.20000000000000001">
      <Effects />
      <Transitions />
      <BoundProperties>
        <BoundPropertyInt Name="rotateStepNinety" Value="0" />
      </BoundProperties>
    </ImageClip>
    <ImageClip extentID="1509" gapBefore="0" mediaItemID="1505" duration="0.20000000000000001">
      <Effects />
      <Transitions />
      <BoundProperties>
        <BoundPropertyInt Name="rotateStepNinety" Value="0" />
      </BoundProperties>
    </ImageClip>
    <ImageClip extentID="1510" gapBefore="0" mediaItemID="1506" duration="0.20000000000000001">
      <Effects />
      <Transitions />
      <BoundProperties>
        <BoundPropertyInt Name="rotateStepNinety" Value="0" />
      </BoundProperties>
    </ImageClip>
    <ImageClip extentID="1511" gapBefore="0" mediaItemID="1507" duration="0.20000000000000001">
      <Effects />
      <Transitions />
      <BoundProperties>
        <BoundPropertyInt Name="rotateStepNinety" Value="0" />
      </BoundProperties>
    </ImageClip>
    <ImageClip extentID="1512" gapBefore="0" mediaItemID="1508" duration="0.20000000000000001">
      <Effects />
      <Transitions />
      <BoundProperties>
        <BoundPropertyInt Name="rotateStepNinety" Value="0" />
      </BoundProperties>
    </ImageClip>
    <ImageClip extentID="1513" gapBefore="0" mediaItemID="1509" duration="0.20000000000000001">
      <Effects />
      <Transitions />
      <BoundProperties>
        <BoundPropertyInt Name="rotateStepNinety" Value="0" />
      </BoundProperties>
    </ImageClip>
    <ImageClip extentID="1514" gapBefore="0" mediaItemID="1510" duration="0.20000000000000001">
      <Effects />
      <Transitions />
      <BoundProperties>
        <BoundPropertyInt Name="rotateStepNinety" Value="0" />
      </BoundProperties>
    </ImageClip>
    <ImageClip extentID="1515" gapBefore="0" mediaItemID="1511" duration="0.20000000000000001">
      <Effects />
      <Transitions />
      <BoundProperties>
        <BoundPropertyInt Name="rotateStepNinety" Value="0" />
      </BoundProperties>
    </ImageClip>
    <ImageClip extentID="1516" gapBefore="0" mediaItemID="1512" duration="0.20000000000000001">
      <Effects />
      <Transitions />
      <BoundProperties>
        <BoundPropertyInt Name="rotateStepNinety" Value="0" />
      </BoundProperties>
    </ImageClip>
    <ImageClip extentID="1517" gapBefore="0" mediaItemID="1513" duration="0.20000000000000001">
      <Effects />
      <Transitions />
      <BoundProperties>
        <BoundPropertyInt Name="rotateStepNinety" Value="0" />
      </BoundProperties>
    </ImageClip>
    <ImageClip extentID="1518" gapBefore="0" mediaItemID="1514" duration="0.20000000000000001">
      <Effects />
      <Transitions />
      <BoundProperties>
        <BoundPropertyInt Name="rotateStepNinety" Value="0" />
      </BoundProperties>
    </ImageClip>
    <ImageClip extentID="1519" gapBefore="0" mediaItemID="1515" duration="0.20000000000000001">
      <Effects />
      <Transitions />
      <BoundProperties>
        <BoundPropertyInt Name="rotateStepNinety" Value="0" />
      </BoundProperties>
    </ImageClip>
    <ImageClip extentID="1520" gapBefore="0" mediaItemID="1516" duration="0.20000000000000001">
      <Effects />
      <Transitions />
      <BoundProperties>
        <BoundPropertyInt Name="rotateStepNinety" Value="0" />
      </BoundProperties>
    </ImageClip>
    <ImageClip extentID="1521" gapBefore="0" mediaItemID="1517" duration="0.20000000000000001">
      <Effects />
      <Transitions />
      <BoundProperties>
        <BoundPropertyInt Name="rotateStepNinety" Value="0" />
      </BoundProperties>
    </ImageClip>
    <ImageClip extentID="1522" gapBefore="0" mediaItemID="1518" duration="0.20000000000000001">
      <Effects />
      <Transitions />
      <BoundProperties>
        <BoundPropertyInt Name="rotateStepNinety" Value="0" />
      </BoundProperties>
    </ImageClip>
    <ImageClip extentID="1523" gapBefore="0" mediaItemID="1519" duration="0.20000000000000001">
      <Effects />
      <Transitions />
      <BoundProperties>
        <BoundPropertyInt Name="rotateStepNinety" Value="0" />
      </BoundProperties>
    </ImageClip>
    <ImageClip extentID="1524" gapBefore="0" mediaItemID="1520" duration="0.20000000000000001">
      <Effects />
      <Transitions />
      <BoundProperties>
        <BoundPropertyInt Name="rotateStepNinety" Value="0" />
      </BoundProperties>
    </ImageClip>
    <ImageClip extentID="1525" gapBefore="0" mediaItemID="1521" duration="0.20000000000000001">
      <Effects />
      <Transitions />
      <BoundProperties>
        <BoundPropertyInt Name="rotateStepNinety" Value="0" />
      </BoundProperties>
    </ImageClip>
    <ImageClip extentID="1526" gapBefore="0" mediaItemID="1522" duration="0.20000000000000001">
      <Effects />
      <Transitions />
      <BoundProperties>
        <BoundPropertyInt Name="rotateStepNinety" Value="0" />
      </BoundProperties>
    </ImageClip>
    <ImageClip extentID="1527" gapBefore="0" mediaItemID="1523" duration="0.20000000000000001">
      <Effects />
      <Transitions />
      <BoundProperties>
        <BoundPropertyInt Name="rotateStepNinety" Value="0" />
      </BoundProperties>
    </ImageClip>
    <ImageClip extentID="1528" gapBefore="0" mediaItemID="1524" duration="0.20000000000000001">
      <Effects />
      <Transitions />
      <BoundProperties>
        <BoundPropertyInt Name="rotateStepNinety" Value="0" />
      </BoundProperties>
    </ImageClip>
    <ImageClip extentID="1529" gapBefore="0" mediaItemID="1525" duration="0.20000000000000001">
      <Effects />
      <Transitions />
      <BoundProperties>
        <BoundPropertyInt Name="rotateStepNinety" Value="0" />
      </BoundProperties>
    </ImageClip>
    <ImageClip extentID="1530" gapBefore="0" mediaItemID="1526" duration="0.20000000000000001">
      <Effects />
      <Transitions />
      <BoundProperties>
        <BoundPropertyInt Name="rotateStepNinety" Value="0" />
      </BoundProperties>
    </ImageClip>
    <ImageClip extentID="1531" gapBefore="0" mediaItemID="1527" duration="0.20000000000000001">
      <Effects />
      <Transitions />
      <BoundProperties>
        <BoundPropertyInt Name="rotateStepNinety" Value="0" />
      </BoundProperties>
    </ImageClip>
    <ImageClip extentID="1532" gapBefore="0" mediaItemID="1528" duration="0.20000000000000001">
      <Effects />
      <Transitions />
      <BoundProperties>
        <BoundPropertyInt Name="rotateStepNinety" Value="0" />
      </BoundProperties>
    </ImageClip>
    <ImageClip extentID="1533" gapBefore="0" mediaItemID="1529" duration="0.20000000000000001">
      <Effects />
      <Transitions />
      <BoundProperties>
        <BoundPropertyInt Name="rotateStepNinety" Value="0" />
      </BoundProperties>
    </ImageClip>
    <ImageClip extentID="1534" gapBefore="0" mediaItemID="1530" duration="0.20000000000000001">
      <Effects />
      <Transitions />
      <BoundProperties>
        <BoundPropertyInt Name="rotateStepNinety" Value="0" />
      </BoundProperties>
    </ImageClip>
    <ImageClip extentID="1535" gapBefore="0" mediaItemID="1531" duration="0.20000000000000001">
      <Effects />
      <Transitions />
      <BoundProperties>
        <BoundPropertyInt Name="rotateStepNinety" Value="0" />
      </BoundProperties>
    </ImageClip>
    <ImageClip extentID="1536" gapBefore="0" mediaItemID="1532" duration="0.20000000000000001">
      <Effects />
      <Transitions />
      <BoundProperties>
        <BoundPropertyInt Name="rotateStepNinety" Value="0" />
      </BoundProperties>
    </ImageClip>
    <ImageClip extentID="1537" gapBefore="0" mediaItemID="1533" duration="0.20000000000000001">
      <Effects />
      <Transitions />
      <BoundProperties>
        <BoundPropertyInt Name="rotateStepNinety" Value="0" />
      </BoundProperties>
    </ImageClip>
    <ImageClip extentID="1538" gapBefore="0" mediaItemID="1534" duration="0.20000000000000001">
      <Effects />
      <Transitions />
      <BoundProperties>
        <BoundPropertyInt Name="rotateStepNinety" Value="0" />
      </BoundProperties>
    </ImageClip>
    <ImageClip extentID="1539" gapBefore="0" mediaItemID="1535" duration="0.20000000000000001">
      <Effects />
      <Transitions />
      <BoundProperties>
        <BoundPropertyInt Name="rotateStepNinety" Value="0" />
      </BoundProperties>
    </ImageClip>
    <ImageClip extentID="1540" gapBefore="0" mediaItemID="1536" duration="0.20000000000000001">
      <Effects />
      <Transitions />
      <BoundProperties>
        <BoundPropertyInt Name="rotateStepNinety" Value="0" />
      </BoundProperties>
    </ImageClip>
    <ImageClip extentID="1541" gapBefore="0" mediaItemID="1537" duration="0.20000000000000001">
      <Effects />
      <Transitions />
      <BoundProperties>
        <BoundPropertyInt Name="rotateStepNinety" Value="0" />
      </BoundProperties>
    </ImageClip>
    <ImageClip extentID="1542" gapBefore="0" mediaItemID="1538" duration="0.20000000000000001">
      <Effects />
      <Transitions />
      <BoundProperties>
        <BoundPropertyInt Name="rotateStepNinety" Value="0" />
      </BoundProperties>
    </ImageClip>
    <ImageClip extentID="1543" gapBefore="0" mediaItemID="1539" duration="0.20000000000000001">
      <Effects />
      <Transitions />
      <BoundProperties>
        <BoundPropertyInt Name="rotateStepNinety" Value="0" />
      </BoundProperties>
    </ImageClip>
    <ImageClip extentID="1544" gapBefore="0" mediaItemID="1540" duration="0.20000000000000001">
      <Effects />
      <Transitions />
      <BoundProperties>
        <BoundPropertyInt Name="rotateStepNinety" Value="0" />
      </BoundProperties>
    </ImageClip>
    <ImageClip extentID="1545" gapBefore="0" mediaItemID="1541" duration="0.20000000000000001">
      <Effects />
      <Transitions />
      <BoundProperties>
        <BoundPropertyInt Name="rotateStepNinety" Value="0" />
      </BoundProperties>
    </ImageClip>
    <ImageClip extentID="1546" gapBefore="0" mediaItemID="1542" duration="0.20000000000000001">
      <Effects />
      <Transitions />
      <BoundProperties>
        <BoundPropertyInt Name="rotateStepNinety" Value="0" />
      </BoundProperties>
    </ImageClip>
    <ImageClip extentID="1547" gapBefore="0" mediaItemID="1543" duration="0.20000000000000001">
      <Effects />
      <Transitions />
      <BoundProperties>
        <BoundPropertyInt Name="rotateStepNinety" Value="0" />
      </BoundProperties>
    </ImageClip>
    <ImageClip extentID="1548" gapBefore="0" mediaItemID="1544" duration="0.20000000000000001">
      <Effects />
      <Transitions />
      <BoundProperties>
        <BoundPropertyInt Name="rotateStepNinety" Value="0" />
      </BoundProperties>
    </ImageClip>
    <ImageClip extentID="1549" gapBefore="0" mediaItemID="1545" duration="0.20000000000000001">
      <Effects />
      <Transitions />
      <BoundProperties>
        <BoundPropertyInt Name="rotateStepNinety" Value="0" />
      </BoundProperties>
    </ImageClip>
    <ImageClip extentID="1550" gapBefore="0" mediaItemID="1546" duration="0.20000000000000001">
      <Effects />
      <Transitions />
      <BoundProperties>
        <BoundPropertyInt Name="rotateStepNinety" Value="0" />
      </BoundProperties>
    </ImageClip>
    <ImageClip extentID="1551" gapBefore="0" mediaItemID="1547" duration="0.20000000000000001">
      <Effects />
      <Transitions />
      <BoundProperties>
        <BoundPropertyInt Name="rotateStepNinety" Value="0" />
      </BoundProperties>
    </ImageClip>
    <ImageClip extentID="1552" gapBefore="0" mediaItemID="1548" duration="0.20000000000000001">
      <Effects />
      <Transitions />
      <BoundProperties>
        <BoundPropertyInt Name="rotateStepNinety" Value="0" />
      </BoundProperties>
    </ImageClip>
    <ImageClip extentID="1553" gapBefore="0" mediaItemID="1549" duration="0.20000000000000001">
      <Effects />
      <Transitions />
      <BoundProperties>
        <BoundPropertyInt Name="rotateStepNinety" Value="0" />
      </BoundProperties>
    </ImageClip>
    <ImageClip extentID="1554" gapBefore="0" mediaItemID="1550" duration="0.20000000000000001">
      <Effects />
      <Transitions />
      <BoundProperties>
        <BoundPropertyInt Name="rotateStepNinety" Value="0" />
      </BoundProperties>
    </ImageClip>
    <ImageClip extentID="1555" gapBefore="0" mediaItemID="1551" duration="0.20000000000000001">
      <Effects />
      <Transitions />
      <BoundProperties>
        <BoundPropertyInt Name="rotateStepNinety" Value="0" />
      </BoundProperties>
    </ImageClip>
    <ImageClip extentID="1556" gapBefore="0" mediaItemID="1552" duration="0.20000000000000001">
      <Effects />
      <Transitions />
      <BoundProperties>
        <BoundPropertyInt Name="rotateStepNinety" Value="0" />
      </BoundProperties>
    </ImageClip>
    <ImageClip extentID="1557" gapBefore="0" mediaItemID="1553" duration="0.20000000000000001">
      <Effects />
      <Transitions />
      <BoundProperties>
        <BoundPropertyInt Name="rotateStepNinety" Value="0" />
      </BoundProperties>
    </ImageClip>
    <ImageClip extentID="1558" gapBefore="0" mediaItemID="1554" duration="0.20000000000000001">
      <Effects />
      <Transitions />
      <BoundProperties>
        <BoundPropertyInt Name="rotateStepNinety" Value="0" />
      </BoundProperties>
    </ImageClip>
    <ImageClip extentID="1559" gapBefore="0" mediaItemID="1555" duration="0.20000000000000001">
      <Effects />
      <Transitions />
      <BoundProperties>
        <BoundPropertyInt Name="rotateStepNinety" Value="0" />
      </BoundProperties>
    </ImageClip>
    <ImageClip extentID="1560" gapBefore="0" mediaItemID="1556" duration="0.20000000000000001">
      <Effects />
      <Transitions />
      <BoundProperties>
        <BoundPropertyInt Name="rotateStepNinety" Value="0" />
      </BoundProperties>
    </ImageClip>
    <ImageClip extentID="1561" gapBefore="0" mediaItemID="1557" duration="0.20000000000000001">
      <Effects />
      <Transitions />
      <BoundProperties>
        <BoundPropertyInt Name="rotateStepNinety" Value="0" />
      </BoundProperties>
    </ImageClip>
    <ImageClip extentID="1562" gapBefore="0" mediaItemID="1558" duration="0.20000000000000001">
      <Effects />
      <Transitions />
      <BoundProperties>
        <BoundPropertyInt Name="rotateStepNinety" Value="0" />
      </BoundProperties>
    </ImageClip>
    <ImageClip extentID="1563" gapBefore="0" mediaItemID="1559" duration="0.20000000000000001">
      <Effects />
      <Transitions />
      <BoundProperties>
        <BoundPropertyInt Name="rotateStepNinety" Value="0" />
      </BoundProperties>
    </ImageClip>
    <ImageClip extentID="1564" gapBefore="0" mediaItemID="1560" duration="0.20000000000000001">
      <Effects />
      <Transitions />
      <BoundProperties>
        <BoundPropertyInt Name="rotateStepNinety" Value="0" />
      </BoundProperties>
    </ImageClip>
    <ImageClip extentID="1565" gapBefore="0" mediaItemID="1561" duration="0.20000000000000001">
      <Effects />
      <Transitions />
      <BoundProperties>
        <BoundPropertyInt Name="rotateStepNinety" Value="0" />
      </BoundProperties>
    </ImageClip>
    <ImageClip extentID="1566" gapBefore="0" mediaItemID="1562" duration="0.20000000000000001">
      <Effects />
      <Transitions />
      <BoundProperties>
        <BoundPropertyInt Name="rotateStepNinety" Value="0" />
      </BoundProperties>
    </ImageClip>
    <ImageClip extentID="1567" gapBefore="0" mediaItemID="1563" duration="0.20000000000000001">
      <Effects />
      <Transitions />
      <BoundProperties>
        <BoundPropertyInt Name="rotateStepNinety" Value="0" />
      </BoundProperties>
    </ImageClip>
    <ImageClip extentID="1568" gapBefore="0" mediaItemID="1564" duration="0.20000000000000001">
      <Effects />
      <Transitions />
      <BoundProperties>
        <BoundPropertyInt Name="rotateStepNinety" Value="0" />
      </BoundProperties>
    </ImageClip>
    <ImageClip extentID="1569" gapBefore="0" mediaItemID="1565" duration="0.20000000000000001">
      <Effects />
      <Transitions />
      <BoundProperties>
        <BoundPropertyInt Name="rotateStepNinety" Value="0" />
      </BoundProperties>
    </ImageClip>
    <ImageClip extentID="1570" gapBefore="0" mediaItemID="1566" duration="0.20000000000000001">
      <Effects />
      <Transitions />
      <BoundProperties>
        <BoundPropertyInt Name="rotateStepNinety" Value="0" />
      </BoundProperties>
    </ImageClip>
    <ImageClip extentID="1571" gapBefore="0" mediaItemID="1567" duration="0.20000000000000001">
      <Effects />
      <Transitions />
      <BoundProperties>
        <BoundPropertyInt Name="rotateStepNinety" Value="0" />
      </BoundProperties>
    </ImageClip>
    <ImageClip extentID="1572" gapBefore="0" mediaItemID="1568" duration="0.20000000000000001">
      <Effects />
      <Transitions />
      <BoundProperties>
        <BoundPropertyInt Name="rotateStepNinety" Value="0" />
      </BoundProperties>
    </ImageClip>
    <ImageClip extentID="1573" gapBefore="0" mediaItemID="1569" duration="0.20000000000000001">
      <Effects />
      <Transitions />
      <BoundProperties>
        <BoundPropertyInt Name="rotateStepNinety" Value="0" />
      </BoundProperties>
    </ImageClip>
    <ImageClip extentID="1574" gapBefore="0" mediaItemID="1570" duration="0.20000000000000001">
      <Effects />
      <Transitions />
      <BoundProperties>
        <BoundPropertyInt Name="rotateStepNinety" Value="0" />
      </BoundProperties>
    </ImageClip>
    <ImageClip extentID="1575" gapBefore="0" mediaItemID="1571" duration="0.20000000000000001">
      <Effects />
      <Transitions />
      <BoundProperties>
        <BoundPropertyInt Name="rotateStepNinety" Value="0" />
      </BoundProperties>
    </ImageClip>
    <ImageClip extentID="1576" gapBefore="0" mediaItemID="1572" duration="0.20000000000000001">
      <Effects />
      <Transitions />
      <BoundProperties>
        <BoundPropertyInt Name="rotateStepNinety" Value="0" />
      </BoundProperties>
    </ImageClip>
    <ImageClip extentID="1577" gapBefore="0" mediaItemID="1573" duration="0.20000000000000001">
      <Effects />
      <Transitions />
      <BoundProperties>
        <BoundPropertyInt Name="rotateStepNinety" Value="0" />
      </BoundProperties>
    </ImageClip>
    <ImageClip extentID="1578" gapBefore="0" mediaItemID="1574" duration="0.20000000000000001">
      <Effects />
      <Transitions />
      <BoundProperties>
        <BoundPropertyInt Name="rotateStepNinety" Value="0" />
      </BoundProperties>
    </ImageClip>
    <ImageClip extentID="1579" gapBefore="0" mediaItemID="1575" duration="0.20000000000000001">
      <Effects />
      <Transitions />
      <BoundProperties>
        <BoundPropertyInt Name="rotateStepNinety" Value="0" />
      </BoundProperties>
    </ImageClip>
    <ImageClip extentID="1580" gapBefore="0" mediaItemID="1576" duration="0.20000000000000001">
      <Effects />
      <Transitions />
      <BoundProperties>
        <BoundPropertyInt Name="rotateStepNinety" Value="0" />
      </BoundProperties>
    </ImageClip>
    <ImageClip extentID="1581" gapBefore="0" mediaItemID="1577" duration="0.20000000000000001">
      <Effects />
      <Transitions />
      <BoundProperties>
        <BoundPropertyInt Name="rotateStepNinety" Value="0" />
      </BoundProperties>
    </ImageClip>
    <ImageClip extentID="1582" gapBefore="0" mediaItemID="1578" duration="0.20000000000000001">
      <Effects />
      <Transitions />
      <BoundProperties>
        <BoundPropertyInt Name="rotateStepNinety" Value="0" />
      </BoundProperties>
    </ImageClip>
    <ImageClip extentID="1583" gapBefore="0" mediaItemID="1579" duration="0.20000000000000001">
      <Effects />
      <Transitions />
      <BoundProperties>
        <BoundPropertyInt Name="rotateStepNinety" Value="0" />
      </BoundProperties>
    </ImageClip>
    <ImageClip extentID="1584" gapBefore="0" mediaItemID="1580" duration="0.20000000000000001">
      <Effects />
      <Transitions />
      <BoundProperties>
        <BoundPropertyInt Name="rotateStepNinety" Value="0" />
      </BoundProperties>
    </ImageClip>
    <ImageClip extentID="1585" gapBefore="0" mediaItemID="1581" duration="0.20000000000000001">
      <Effects />
      <Transitions />
      <BoundProperties>
        <BoundPropertyInt Name="rotateStepNinety" Value="0" />
      </BoundProperties>
    </ImageClip>
    <ImageClip extentID="1586" gapBefore="0" mediaItemID="1582" duration="0.20000000000000001">
      <Effects />
      <Transitions />
      <BoundProperties>
        <BoundPropertyInt Name="rotateStepNinety" Value="0" />
      </BoundProperties>
    </ImageClip>
    <ImageClip extentID="1587" gapBefore="0" mediaItemID="1583" duration="0.20000000000000001">
      <Effects />
      <Transitions />
      <BoundProperties>
        <BoundPropertyInt Name="rotateStepNinety" Value="0" />
      </BoundProperties>
    </ImageClip>
    <ImageClip extentID="1588" gapBefore="0" mediaItemID="1584" duration="0.20000000000000001">
      <Effects />
      <Transitions />
      <BoundProperties>
        <BoundPropertyInt Name="rotateStepNinety" Value="0" />
      </BoundProperties>
    </ImageClip>
    <ImageClip extentID="1589" gapBefore="0" mediaItemID="1585" duration="0.20000000000000001">
      <Effects />
      <Transitions />
      <BoundProperties>
        <BoundPropertyInt Name="rotateStepNinety" Value="0" />
      </BoundProperties>
    </ImageClip>
    <ImageClip extentID="1590" gapBefore="0" mediaItemID="1586" duration="0.20000000000000001">
      <Effects />
      <Transitions />
      <BoundProperties>
        <BoundPropertyInt Name="rotateStepNinety" Value="0" />
      </BoundProperties>
    </ImageClip>
    <ImageClip extentID="1591" gapBefore="0" mediaItemID="1587" duration="0.20000000000000001">
      <Effects />
      <Transitions />
      <BoundProperties>
        <BoundPropertyInt Name="rotateStepNinety" Value="0" />
      </BoundProperties>
    </ImageClip>
    <ImageClip extentID="1592" gapBefore="0" mediaItemID="1588" duration="0.20000000000000001">
      <Effects />
      <Transitions />
      <BoundProperties>
        <BoundPropertyInt Name="rotateStepNinety" Value="0" />
      </BoundProperties>
    </ImageClip>
    <ImageClip extentID="1593" gapBefore="0" mediaItemID="1589" duration="0.20000000000000001">
      <Effects />
      <Transitions />
      <BoundProperties>
        <BoundPropertyInt Name="rotateStepNinety" Value="0" />
      </BoundProperties>
    </ImageClip>
    <ImageClip extentID="1594" gapBefore="0" mediaItemID="1590" duration="0.20000000000000001">
      <Effects />
      <Transitions />
      <BoundProperties>
        <BoundPropertyInt Name="rotateStepNinety" Value="0" />
      </BoundProperties>
    </ImageClip>
    <ImageClip extentID="1595" gapBefore="0" mediaItemID="1591" duration="0.20000000000000001">
      <Effects />
      <Transitions />
      <BoundProperties>
        <BoundPropertyInt Name="rotateStepNinety" Value="0" />
      </BoundProperties>
    </ImageClip>
    <ImageClip extentID="1596" gapBefore="0" mediaItemID="1592" duration="0.20000000000000001">
      <Effects />
      <Transitions />
      <BoundProperties>
        <BoundPropertyInt Name="rotateStepNinety" Value="0" />
      </BoundProperties>
    </ImageClip>
    <ImageClip extentID="1597" gapBefore="0" mediaItemID="1593" duration="0.20000000000000001">
      <Effects />
      <Transitions />
      <BoundProperties>
        <BoundPropertyInt Name="rotateStepNinety" Value="0" />
      </BoundProperties>
    </ImageClip>
    <ImageClip extentID="1598" gapBefore="0" mediaItemID="1594" duration="0.20000000000000001">
      <Effects />
      <Transitions />
      <BoundProperties>
        <BoundPropertyInt Name="rotateStepNinety" Value="0" />
      </BoundProperties>
    </ImageClip>
    <ImageClip extentID="1599" gapBefore="0" mediaItemID="1595" duration="0.20000000000000001">
      <Effects />
      <Transitions />
      <BoundProperties>
        <BoundPropertyInt Name="rotateStepNinety" Value="0" />
      </BoundProperties>
    </ImageClip>
    <ImageClip extentID="1600" gapBefore="0" mediaItemID="1596" duration="0.20000000000000001">
      <Effects />
      <Transitions />
      <BoundProperties>
        <BoundPropertyInt Name="rotateStepNinety" Value="0" />
      </BoundProperties>
    </ImageClip>
    <ImageClip extentID="1601" gapBefore="0" mediaItemID="1597" duration="0.20000000000000001">
      <Effects />
      <Transitions />
      <BoundProperties>
        <BoundPropertyInt Name="rotateStepNinety" Value="0" />
      </BoundProperties>
    </ImageClip>
    <ImageClip extentID="1602" gapBefore="0" mediaItemID="1598" duration="0.20000000000000001">
      <Effects />
      <Transitions />
      <BoundProperties>
        <BoundPropertyInt Name="rotateStepNinety" Value="0" />
      </BoundProperties>
    </ImageClip>
    <ImageClip extentID="1603" gapBefore="0" mediaItemID="1599" duration="0.20000000000000001">
      <Effects />
      <Transitions />
      <BoundProperties>
        <BoundPropertyInt Name="rotateStepNinety" Value="0" />
      </BoundProperties>
    </ImageClip>
    <ImageClip extentID="1604" gapBefore="0" mediaItemID="1600" duration="0.20000000000000001">
      <Effects />
      <Transitions />
      <BoundProperties>
        <BoundPropertyInt Name="rotateStepNinety" Value="0" />
      </BoundProperties>
    </ImageClip>
    <ImageClip extentID="1605" gapBefore="0" mediaItemID="1601" duration="0.20000000000000001">
      <Effects />
      <Transitions />
      <BoundProperties>
        <BoundPropertyInt Name="rotateStepNinety" Value="0" />
      </BoundProperties>
    </ImageClip>
    <ImageClip extentID="1606" gapBefore="0" mediaItemID="1602" duration="0.20000000000000001">
      <Effects />
      <Transitions />
      <BoundProperties>
        <BoundPropertyInt Name="rotateStepNinety" Value="0" />
      </BoundProperties>
    </ImageClip>
    <ImageClip extentID="1607" gapBefore="0" mediaItemID="1603" duration="0.20000000000000001">
      <Effects />
      <Transitions />
      <BoundProperties>
        <BoundPropertyInt Name="rotateStepNinety" Value="0" />
      </BoundProperties>
    </ImageClip>
    <ImageClip extentID="1608" gapBefore="0" mediaItemID="1604" duration="0.20000000000000001">
      <Effects />
      <Transitions />
      <BoundProperties>
        <BoundPropertyInt Name="rotateStepNinety" Value="0" />
      </BoundProperties>
    </ImageClip>
    <ImageClip extentID="1609" gapBefore="0" mediaItemID="1605" duration="0.20000000000000001">
      <Effects />
      <Transitions />
      <BoundProperties>
        <BoundPropertyInt Name="rotateStepNinety" Value="0" />
      </BoundProperties>
    </ImageClip>
    <ImageClip extentID="1610" gapBefore="0" mediaItemID="1606" duration="0.20000000000000001">
      <Effects />
      <Transitions />
      <BoundProperties>
        <BoundPropertyInt Name="rotateStepNinety" Value="0" />
      </BoundProperties>
    </ImageClip>
    <ImageClip extentID="1611" gapBefore="0" mediaItemID="1607" duration="0.20000000000000001">
      <Effects />
      <Transitions />
      <BoundProperties>
        <BoundPropertyInt Name="rotateStepNinety" Value="0" />
      </BoundProperties>
    </ImageClip>
    <ImageClip extentID="1612" gapBefore="0" mediaItemID="1608" duration="0.20000000000000001">
      <Effects />
      <Transitions />
      <BoundProperties>
        <BoundPropertyInt Name="rotateStepNinety" Value="0" />
      </BoundProperties>
    </ImageClip>
    <ImageClip extentID="1613" gapBefore="0" mediaItemID="1609" duration="0.20000000000000001">
      <Effects />
      <Transitions />
      <BoundProperties>
        <BoundPropertyInt Name="rotateStepNinety" Value="0" />
      </BoundProperties>
    </ImageClip>
    <ImageClip extentID="1614" gapBefore="0" mediaItemID="1610" duration="0.20000000000000001">
      <Effects />
      <Transitions />
      <BoundProperties>
        <BoundPropertyInt Name="rotateStepNinety" Value="0" />
      </BoundProperties>
    </ImageClip>
    <ImageClip extentID="1615" gapBefore="0" mediaItemID="1611" duration="0.20000000000000001">
      <Effects />
      <Transitions />
      <BoundProperties>
        <BoundPropertyInt Name="rotateStepNinety" Value="0" />
      </BoundProperties>
    </ImageClip>
    <ImageClip extentID="1616" gapBefore="0" mediaItemID="1612" duration="0.20000000000000001">
      <Effects />
      <Transitions />
      <BoundProperties>
        <BoundPropertyInt Name="rotateStepNinety" Value="0" />
      </BoundProperties>
    </ImageClip>
    <ImageClip extentID="1617" gapBefore="0" mediaItemID="1613" duration="0.20000000000000001">
      <Effects />
      <Transitions />
      <BoundProperties>
        <BoundPropertyInt Name="rotateStepNinety" Value="0" />
      </BoundProperties>
    </ImageClip>
    <ImageClip extentID="1618" gapBefore="0" mediaItemID="1614" duration="0.20000000000000001">
      <Effects />
      <Transitions />
      <BoundProperties>
        <BoundPropertyInt Name="rotateStepNinety" Value="0" />
      </BoundProperties>
    </ImageClip>
    <ImageClip extentID="1619" gapBefore="0" mediaItemID="1615" duration="0.20000000000000001">
      <Effects />
      <Transitions />
      <BoundProperties>
        <BoundPropertyInt Name="rotateStepNinety" Value="0" />
      </BoundProperties>
    </ImageClip>
    <ImageClip extentID="1620" gapBefore="0" mediaItemID="1616" duration="0.20000000000000001">
      <Effects />
      <Transitions />
      <BoundProperties>
        <BoundPropertyInt Name="rotateStepNinety" Value="0" />
      </BoundProperties>
    </ImageClip>
    <ImageClip extentID="1621" gapBefore="0" mediaItemID="1617" duration="0.20000000000000001">
      <Effects />
      <Transitions />
      <BoundProperties>
        <BoundPropertyInt Name="rotateStepNinety" Value="0" />
      </BoundProperties>
    </ImageClip>
    <ImageClip extentID="1622" gapBefore="0" mediaItemID="1618" duration="0.20000000000000001">
      <Effects />
      <Transitions />
      <BoundProperties>
        <BoundPropertyInt Name="rotateStepNinety" Value="0" />
      </BoundProperties>
    </ImageClip>
    <ImageClip extentID="1623" gapBefore="0" mediaItemID="1619" duration="0.20000000000000001">
      <Effects />
      <Transitions />
      <BoundProperties>
        <BoundPropertyInt Name="rotateStepNinety" Value="0" />
      </BoundProperties>
    </ImageClip>
    <ImageClip extentID="1624" gapBefore="0" mediaItemID="1620" duration="0.20000000000000001">
      <Effects />
      <Transitions />
      <BoundProperties>
        <BoundPropertyInt Name="rotateStepNinety" Value="0" />
      </BoundProperties>
    </ImageClip>
    <ImageClip extentID="1625" gapBefore="0" mediaItemID="1621" duration="0.20000000000000001">
      <Effects />
      <Transitions />
      <BoundProperties>
        <BoundPropertyInt Name="rotateStepNinety" Value="0" />
      </BoundProperties>
    </ImageClip>
    <ImageClip extentID="1626" gapBefore="0" mediaItemID="1622" duration="0.20000000000000001">
      <Effects />
      <Transitions />
      <BoundProperties>
        <BoundPropertyInt Name="rotateStepNinety" Value="0" />
      </BoundProperties>
    </ImageClip>
    <ImageClip extentID="1627" gapBefore="0" mediaItemID="1623" duration="0.20000000000000001">
      <Effects />
      <Transitions />
      <BoundProperties>
        <BoundPropertyInt Name="rotateStepNinety" Value="0" />
      </BoundProperties>
    </ImageClip>
    <ImageClip extentID="1628" gapBefore="0" mediaItemID="1624" duration="0.20000000000000001">
      <Effects />
      <Transitions />
      <BoundProperties>
        <BoundPropertyInt Name="rotateStepNinety" Value="0" />
      </BoundProperties>
    </ImageClip>
    <ImageClip extentID="1629" gapBefore="0" mediaItemID="1625" duration="0.20000000000000001">
      <Effects />
      <Transitions />
      <BoundProperties>
        <BoundPropertyInt Name="rotateStepNinety" Value="0" />
      </BoundProperties>
    </ImageClip>
    <ImageClip extentID="1630" gapBefore="0" mediaItemID="1626" duration="0.20000000000000001">
      <Effects />
      <Transitions />
      <BoundProperties>
        <BoundPropertyInt Name="rotateStepNinety" Value="0" />
      </BoundProperties>
    </ImageClip>
    <ImageClip extentID="1631" gapBefore="0" mediaItemID="1627" duration="0.20000000000000001">
      <Effects />
      <Transitions />
      <BoundProperties>
        <BoundPropertyInt Name="rotateStepNinety" Value="0" />
      </BoundProperties>
    </ImageClip>
    <ImageClip extentID="1632" gapBefore="0" mediaItemID="1628" duration="0.20000000000000001">
      <Effects />
      <Transitions />
      <BoundProperties>
        <BoundPropertyInt Name="rotateStepNinety" Value="0" />
      </BoundProperties>
    </ImageClip>
    <ImageClip extentID="1633" gapBefore="0" mediaItemID="1629" duration="0.20000000000000001">
      <Effects />
      <Transitions />
      <BoundProperties>
        <BoundPropertyInt Name="rotateStepNinety" Value="0" />
      </BoundProperties>
    </ImageClip>
    <ImageClip extentID="1634" gapBefore="0" mediaItemID="1630" duration="0.20000000000000001">
      <Effects />
      <Transitions />
      <BoundProperties>
        <BoundPropertyInt Name="rotateStepNinety" Value="0" />
      </BoundProperties>
    </ImageClip>
    <ImageClip extentID="1635" gapBefore="0" mediaItemID="1631" duration="0.20000000000000001">
      <Effects />
      <Transitions />
      <BoundProperties>
        <BoundPropertyInt Name="rotateStepNinety" Value="0" />
      </BoundProperties>
    </ImageClip>
    <ImageClip extentID="1636" gapBefore="0" mediaItemID="1632" duration="0.20000000000000001">
      <Effects />
      <Transitions />
      <BoundProperties>
        <BoundPropertyInt Name="rotateStepNinety" Value="0" />
      </BoundProperties>
    </ImageClip>
    <ImageClip extentID="1637" gapBefore="0" mediaItemID="1633" duration="0.20000000000000001">
      <Effects />
      <Transitions />
      <BoundProperties>
        <BoundPropertyInt Name="rotateStepNinety" Value="0" />
      </BoundProperties>
    </ImageClip>
    <ImageClip extentID="1638" gapBefore="0" mediaItemID="1634" duration="0.20000000000000001">
      <Effects />
      <Transitions />
      <BoundProperties>
        <BoundPropertyInt Name="rotateStepNinety" Value="0" />
      </BoundProperties>
    </ImageClip>
    <ImageClip extentID="1639" gapBefore="0" mediaItemID="1635" duration="0.20000000000000001">
      <Effects />
      <Transitions />
      <BoundProperties>
        <BoundPropertyInt Name="rotateStepNinety" Value="0" />
      </BoundProperties>
    </ImageClip>
    <ImageClip extentID="1640" gapBefore="0" mediaItemID="1636" duration="0.20000000000000001">
      <Effects />
      <Transitions />
      <BoundProperties>
        <BoundPropertyInt Name="rotateStepNinety" Value="0" />
      </BoundProperties>
    </ImageClip>
    <ImageClip extentID="1641" gapBefore="0" mediaItemID="1637" duration="0.20000000000000001">
      <Effects />
      <Transitions />
      <BoundProperties>
        <BoundPropertyInt Name="rotateStepNinety" Value="0" />
      </BoundProperties>
    </ImageClip>
    <ImageClip extentID="1642" gapBefore="0" mediaItemID="1638" duration="0.20000000000000001">
      <Effects />
      <Transitions />
      <BoundProperties>
        <BoundPropertyInt Name="rotateStepNinety" Value="0" />
      </BoundProperties>
    </ImageClip>
    <ImageClip extentID="1643" gapBefore="0" mediaItemID="1639" duration="0.20000000000000001">
      <Effects />
      <Transitions />
      <BoundProperties>
        <BoundPropertyInt Name="rotateStepNinety" Value="0" />
      </BoundProperties>
    </ImageClip>
    <ImageClip extentID="1644" gapBefore="0" mediaItemID="1640" duration="0.20000000000000001">
      <Effects />
      <Transitions />
      <BoundProperties>
        <BoundPropertyInt Name="rotateStepNinety" Value="0" />
      </BoundProperties>
    </ImageClip>
    <ImageClip extentID="1645" gapBefore="0" mediaItemID="1641" duration="0.20000000000000001">
      <Effects />
      <Transitions />
      <BoundProperties>
        <BoundPropertyInt Name="rotateStepNinety" Value="0" />
      </BoundProperties>
    </ImageClip>
    <ImageClip extentID="1646" gapBefore="0" mediaItemID="1642" duration="0.20000000000000001">
      <Effects />
      <Transitions />
      <BoundProperties>
        <BoundPropertyInt Name="rotateStepNinety" Value="0" />
      </BoundProperties>
    </ImageClip>
    <ImageClip extentID="1647" gapBefore="0" mediaItemID="1643" duration="0.20000000000000001">
      <Effects />
      <Transitions />
      <BoundProperties>
        <BoundPropertyInt Name="rotateStepNinety" Value="0" />
      </BoundProperties>
    </ImageClip>
    <ImageClip extentID="1648" gapBefore="0" mediaItemID="1644" duration="0.20000000000000001">
      <Effects />
      <Transitions />
      <BoundProperties>
        <BoundPropertyInt Name="rotateStepNinety" Value="0" />
      </BoundProperties>
    </ImageClip>
    <ImageClip extentID="1649" gapBefore="0" mediaItemID="1645" duration="0.20000000000000001">
      <Effects />
      <Transitions />
      <BoundProperties>
        <BoundPropertyInt Name="rotateStepNinety" Value="0" />
      </BoundProperties>
    </ImageClip>
    <ImageClip extentID="1650" gapBefore="0" mediaItemID="1646" duration="0.20000000000000001">
      <Effects />
      <Transitions />
      <BoundProperties>
        <BoundPropertyInt Name="rotateStepNinety" Value="0" />
      </BoundProperties>
    </ImageClip>
    <ImageClip extentID="1651" gapBefore="0" mediaItemID="1647" duration="0.20000000000000001">
      <Effects />
      <Transitions />
      <BoundProperties>
        <BoundPropertyInt Name="rotateStepNinety" Value="0" />
      </BoundProperties>
    </ImageClip>
    <ImageClip extentID="1652" gapBefore="0" mediaItemID="1648" duration="0.20000000000000001">
      <Effects />
      <Transitions />
      <BoundProperties>
        <BoundPropertyInt Name="rotateStepNinety" Value="0" />
      </BoundProperties>
    </ImageClip>
    <ImageClip extentID="1653" gapBefore="0" mediaItemID="1649" duration="0.20000000000000001">
      <Effects />
      <Transitions />
      <BoundProperties>
        <BoundPropertyInt Name="rotateStepNinety" Value="0" />
      </BoundProperties>
    </ImageClip>
    <ImageClip extentID="1654" gapBefore="0" mediaItemID="1650" duration="0.20000000000000001">
      <Effects />
      <Transitions />
      <BoundProperties>
        <BoundPropertyInt Name="rotateStepNinety" Value="0" />
      </BoundProperties>
    </ImageClip>
    <ImageClip extentID="1655" gapBefore="0" mediaItemID="1651" duration="0.20000000000000001">
      <Effects />
      <Transitions />
      <BoundProperties>
        <BoundPropertyInt Name="rotateStepNinety" Value="0" />
      </BoundProperties>
    </ImageClip>
    <ImageClip extentID="1656" gapBefore="0" mediaItemID="1652" duration="0.20000000000000001">
      <Effects />
      <Transitions />
      <BoundProperties>
        <BoundPropertyInt Name="rotateStepNinety" Value="0" />
      </BoundProperties>
    </ImageClip>
    <ImageClip extentID="1657" gapBefore="0" mediaItemID="1653" duration="0.20000000000000001">
      <Effects />
      <Transitions />
      <BoundProperties>
        <BoundPropertyInt Name="rotateStepNinety" Value="0" />
      </BoundProperties>
    </ImageClip>
    <ImageClip extentID="1658" gapBefore="0" mediaItemID="1654" duration="0.20000000000000001">
      <Effects />
      <Transitions />
      <BoundProperties>
        <BoundPropertyInt Name="rotateStepNinety" Value="0" />
      </BoundProperties>
    </ImageClip>
    <ImageClip extentID="1659" gapBefore="0" mediaItemID="1655" duration="0.20000000000000001">
      <Effects />
      <Transitions />
      <BoundProperties>
        <BoundPropertyInt Name="rotateStepNinety" Value="0" />
      </BoundProperties>
    </ImageClip>
    <ImageClip extentID="1660" gapBefore="0" mediaItemID="1656" duration="0.20000000000000001">
      <Effects />
      <Transitions />
      <BoundProperties>
        <BoundPropertyInt Name="rotateStepNinety" Value="0" />
      </BoundProperties>
    </ImageClip>
    <ImageClip extentID="1661" gapBefore="0" mediaItemID="1657" duration="0.20000000000000001">
      <Effects />
      <Transitions />
      <BoundProperties>
        <BoundPropertyInt Name="rotateStepNinety" Value="0" />
      </BoundProperties>
    </ImageClip>
    <ImageClip extentID="1662" gapBefore="0" mediaItemID="1658" duration="0.20000000000000001">
      <Effects />
      <Transitions />
      <BoundProperties>
        <BoundPropertyInt Name="rotateStepNinety" Value="0" />
      </BoundProperties>
    </ImageClip>
    <ImageClip extentID="1663" gapBefore="0" mediaItemID="1659" duration="0.20000000000000001">
      <Effects />
      <Transitions />
      <BoundProperties>
        <BoundPropertyInt Name="rotateStepNinety" Value="0" />
      </BoundProperties>
    </ImageClip>
    <ImageClip extentID="1664" gapBefore="0" mediaItemID="1660" duration="0.20000000000000001">
      <Effects />
      <Transitions />
      <BoundProperties>
        <BoundPropertyInt Name="rotateStepNinety" Value="0" />
      </BoundProperties>
    </ImageClip>
    <ImageClip extentID="1665" gapBefore="0" mediaItemID="1661" duration="0.20000000000000001">
      <Effects />
      <Transitions />
      <BoundProperties>
        <BoundPropertyInt Name="rotateStepNinety" Value="0" />
      </BoundProperties>
    </ImageClip>
    <ImageClip extentID="1666" gapBefore="0" mediaItemID="1662" duration="0.20000000000000001">
      <Effects />
      <Transitions />
      <BoundProperties>
        <BoundPropertyInt Name="rotateStepNinety" Value="0" />
      </BoundProperties>
    </ImageClip>
    <ImageClip extentID="1667" gapBefore="0" mediaItemID="1663" duration="0.20000000000000001">
      <Effects />
      <Transitions />
      <BoundProperties>
        <BoundPropertyInt Name="rotateStepNinety" Value="0" />
      </BoundProperties>
    </ImageClip>
    <ImageClip extentID="1668" gapBefore="0" mediaItemID="1664" duration="0.20000000000000001">
      <Effects />
      <Transitions />
      <BoundProperties>
        <BoundPropertyInt Name="rotateStepNinety" Value="0" />
      </BoundProperties>
    </ImageClip>
    <ImageClip extentID="1669" gapBefore="0" mediaItemID="1665" duration="0.20000000000000001">
      <Effects />
      <Transitions />
      <BoundProperties>
        <BoundPropertyInt Name="rotateStepNinety" Value="0" />
      </BoundProperties>
    </ImageClip>
    <ImageClip extentID="1670" gapBefore="0" mediaItemID="1666" duration="0.20000000000000001">
      <Effects />
      <Transitions />
      <BoundProperties>
        <BoundPropertyInt Name="rotateStepNinety" Value="0" />
      </BoundProperties>
    </ImageClip>
    <ImageClip extentID="1671" gapBefore="0" mediaItemID="1667" duration="0.20000000000000001">
      <Effects />
      <Transitions />
      <BoundProperties>
        <BoundPropertyInt Name="rotateStepNinety" Value="0" />
      </BoundProperties>
    </ImageClip>
    <ImageClip extentID="1672" gapBefore="0" mediaItemID="1668" duration="0.20000000000000001">
      <Effects />
      <Transitions />
      <BoundProperties>
        <BoundPropertyInt Name="rotateStepNinety" Value="0" />
      </BoundProperties>
    </ImageClip>
    <ImageClip extentID="1673" gapBefore="0" mediaItemID="1669" duration="0.20000000000000001">
      <Effects />
      <Transitions />
      <BoundProperties>
        <BoundPropertyInt Name="rotateStepNinety" Value="0" />
      </BoundProperties>
    </ImageClip>
    <ImageClip extentID="1674" gapBefore="0" mediaItemID="1670" duration="0.20000000000000001">
      <Effects />
      <Transitions />
      <BoundProperties>
        <BoundPropertyInt Name="rotateStepNinety" Value="0" />
      </BoundProperties>
    </ImageClip>
    <ImageClip extentID="1675" gapBefore="0" mediaItemID="1671" duration="0.20000000000000001">
      <Effects />
      <Transitions />
      <BoundProperties>
        <BoundPropertyInt Name="rotateStepNinety" Value="0" />
      </BoundProperties>
    </ImageClip>
    <ImageClip extentID="1676" gapBefore="0" mediaItemID="1672" duration="0.20000000000000001">
      <Effects />
      <Transitions />
      <BoundProperties>
        <BoundPropertyInt Name="rotateStepNinety" Value="0" />
      </BoundProperties>
    </ImageClip>
    <ImageClip extentID="1677" gapBefore="0" mediaItemID="1673" duration="0.20000000000000001">
      <Effects />
      <Transitions />
      <BoundProperties>
        <BoundPropertyInt Name="rotateStepNinety" Value="0" />
      </BoundProperties>
    </ImageClip>
    <ImageClip extentID="1678" gapBefore="0" mediaItemID="1674" duration="0.20000000000000001">
      <Effects />
      <Transitions />
      <BoundProperties>
        <BoundPropertyInt Name="rotateStepNinety" Value="0" />
      </BoundProperties>
    </ImageClip>
    <ImageClip extentID="1679" gapBefore="0" mediaItemID="1675" duration="0.20000000000000001">
      <Effects />
      <Transitions />
      <BoundProperties>
        <BoundPropertyInt Name="rotateStepNinety" Value="0" />
      </BoundProperties>
    </ImageClip>
    <ImageClip extentID="1680" gapBefore="0" mediaItemID="1676" duration="0.20000000000000001">
      <Effects />
      <Transitions />
      <BoundProperties>
        <BoundPropertyInt Name="rotateStepNinety" Value="0" />
      </BoundProperties>
    </ImageClip>
    <ImageClip extentID="1681" gapBefore="0" mediaItemID="1677" duration="0.20000000000000001">
      <Effects />
      <Transitions />
      <BoundProperties>
        <BoundPropertyInt Name="rotateStepNinety" Value="0" />
      </BoundProperties>
    </ImageClip>
    <ImageClip extentID="1682" gapBefore="0" mediaItemID="1678" duration="0.20000000000000001">
      <Effects />
      <Transitions />
      <BoundProperties>
        <BoundPropertyInt Name="rotateStepNinety" Value="0" />
      </BoundProperties>
    </ImageClip>
    <ImageClip extentID="1683" gapBefore="0" mediaItemID="1679" duration="0.20000000000000001">
      <Effects />
      <Transitions />
      <BoundProperties>
        <BoundPropertyInt Name="rotateStepNinety" Value="0" />
      </BoundProperties>
    </ImageClip>
    <ImageClip extentID="1684" gapBefore="0" mediaItemID="1680" duration="0.20000000000000001">
      <Effects />
      <Transitions />
      <BoundProperties>
        <BoundPropertyInt Name="rotateStepNinety" Value="0" />
      </BoundProperties>
    </ImageClip>
    <ImageClip extentID="1685" gapBefore="0" mediaItemID="1681" duration="0.20000000000000001">
      <Effects />
      <Transitions />
      <BoundProperties>
        <BoundPropertyInt Name="rotateStepNinety" Value="0" />
      </BoundProperties>
    </ImageClip>
    <ImageClip extentID="1686" gapBefore="0" mediaItemID="1682" duration="0.20000000000000001">
      <Effects />
      <Transitions />
      <BoundProperties>
        <BoundPropertyInt Name="rotateStepNinety" Value="0" />
      </BoundProperties>
    </ImageClip>
    <ImageClip extentID="1687" gapBefore="0" mediaItemID="1683" duration="0.20000000000000001">
      <Effects />
      <Transitions />
      <BoundProperties>
        <BoundPropertyInt Name="rotateStepNinety" Value="0" />
      </BoundProperties>
    </ImageClip>
    <ImageClip extentID="1688" gapBefore="0" mediaItemID="1684" duration="0.20000000000000001">
      <Effects />
      <Transitions />
      <BoundProperties>
        <BoundPropertyInt Name="rotateStepNinety" Value="0" />
      </BoundProperties>
    </ImageClip>
    <ImageClip extentID="1689" gapBefore="0" mediaItemID="1685" duration="0.20000000000000001">
      <Effects />
      <Transitions />
      <BoundProperties>
        <BoundPropertyInt Name="rotateStepNinety" Value="0" />
      </BoundProperties>
    </ImageClip>
    <ImageClip extentID="1690" gapBefore="0" mediaItemID="1686" duration="0.20000000000000001">
      <Effects />
      <Transitions />
      <BoundProperties>
        <BoundPropertyInt Name="rotateStepNinety" Value="0" />
      </BoundProperties>
    </ImageClip>
    <ImageClip extentID="1691" gapBefore="0" mediaItemID="1687" duration="0.20000000000000001">
      <Effects />
      <Transitions />
      <BoundProperties>
        <BoundPropertyInt Name="rotateStepNinety" Value="0" />
      </BoundProperties>
    </ImageClip>
    <ImageClip extentID="1692" gapBefore="0" mediaItemID="1688" duration="0.20000000000000001">
      <Effects />
      <Transitions />
      <BoundProperties>
        <BoundPropertyInt Name="rotateStepNinety" Value="0" />
      </BoundProperties>
    </ImageClip>
    <ImageClip extentID="1693" gapBefore="0" mediaItemID="1689" duration="0.20000000000000001">
      <Effects />
      <Transitions />
      <BoundProperties>
        <BoundPropertyInt Name="rotateStepNinety" Value="0" />
      </BoundProperties>
    </ImageClip>
    <ImageClip extentID="1694" gapBefore="0" mediaItemID="1690" duration="0.20000000000000001">
      <Effects />
      <Transitions />
      <BoundProperties>
        <BoundPropertyInt Name="rotateStepNinety" Value="0" />
      </BoundProperties>
    </ImageClip>
    <ImageClip extentID="1695" gapBefore="0" mediaItemID="1691" duration="0.20000000000000001">
      <Effects />
      <Transitions />
      <BoundProperties>
        <BoundPropertyInt Name="rotateStepNinety" Value="0" />
      </BoundProperties>
    </ImageClip>
    <ImageClip extentID="1696" gapBefore="0" mediaItemID="1692" duration="0.20000000000000001">
      <Effects />
      <Transitions />
      <BoundProperties>
        <BoundPropertyInt Name="rotateStepNinety" Value="0" />
      </BoundProperties>
    </ImageClip>
    <ImageClip extentID="1697" gapBefore="0" mediaItemID="1693" duration="0.20000000000000001">
      <Effects />
      <Transitions />
      <BoundProperties>
        <BoundPropertyInt Name="rotateStepNinety" Value="0" />
      </BoundProperties>
    </ImageClip>
    <ImageClip extentID="1698" gapBefore="0" mediaItemID="1694" duration="0.20000000000000001">
      <Effects />
      <Transitions />
      <BoundProperties>
        <BoundPropertyInt Name="rotateStepNinety" Value="0" />
      </BoundProperties>
    </ImageClip>
    <ImageClip extentID="1699" gapBefore="0" mediaItemID="1695" duration="0.20000000000000001">
      <Effects />
      <Transitions />
      <BoundProperties>
        <BoundPropertyInt Name="rotateStepNinety" Value="0" />
      </BoundProperties>
    </ImageClip>
    <ImageClip extentID="1700" gapBefore="0" mediaItemID="1696" duration="0.20000000000000001">
      <Effects />
      <Transitions />
      <BoundProperties>
        <BoundPropertyInt Name="rotateStepNinety" Value="0" />
      </BoundProperties>
    </ImageClip>
    <ImageClip extentID="1701" gapBefore="0" mediaItemID="1697" duration="0.20000000000000001">
      <Effects />
      <Transitions />
      <BoundProperties>
        <BoundPropertyInt Name="rotateStepNinety" Value="0" />
      </BoundProperties>
    </ImageClip>
    <ImageClip extentID="1702" gapBefore="0" mediaItemID="1698" duration="0.20000000000000001">
      <Effects />
      <Transitions />
      <BoundProperties>
        <BoundPropertyInt Name="rotateStepNinety" Value="0" />
      </BoundProperties>
    </ImageClip>
    <ImageClip extentID="1703" gapBefore="0" mediaItemID="1699" duration="0.20000000000000001">
      <Effects />
      <Transitions />
      <BoundProperties>
        <BoundPropertyInt Name="rotateStepNinety" Value="0" />
      </BoundProperties>
    </ImageClip>
    <ImageClip extentID="1704" gapBefore="0" mediaItemID="1700" duration="0.20000000000000001">
      <Effects />
      <Transitions />
      <BoundProperties>
        <BoundPropertyInt Name="rotateStepNinety" Value="0" />
      </BoundProperties>
    </ImageClip>
    <ImageClip extentID="1705" gapBefore="0" mediaItemID="1701" duration="0.20000000000000001">
      <Effects />
      <Transitions />
      <BoundProperties>
        <BoundPropertyInt Name="rotateStepNinety" Value="0" />
      </BoundProperties>
    </ImageClip>
    <ImageClip extentID="1706" gapBefore="0" mediaItemID="1702" duration="0.20000000000000001">
      <Effects />
      <Transitions />
      <BoundProperties>
        <BoundPropertyInt Name="rotateStepNinety" Value="0" />
      </BoundProperties>
    </ImageClip>
    <ImageClip extentID="1707" gapBefore="0" mediaItemID="1703" duration="0.20000000000000001">
      <Effects />
      <Transitions />
      <BoundProperties>
        <BoundPropertyInt Name="rotateStepNinety" Value="0" />
      </BoundProperties>
    </ImageClip>
    <ImageClip extentID="1708" gapBefore="0" mediaItemID="1704" duration="0.20000000000000001">
      <Effects />
      <Transitions />
      <BoundProperties>
        <BoundPropertyInt Name="rotateStepNinety" Value="0" />
      </BoundProperties>
    </ImageClip>
    <ImageClip extentID="1709" gapBefore="0" mediaItemID="1705" duration="0.20000000000000001">
      <Effects />
      <Transitions />
      <BoundProperties>
        <BoundPropertyInt Name="rotateStepNinety" Value="0" />
      </BoundProperties>
    </ImageClip>
    <ImageClip extentID="1710" gapBefore="0" mediaItemID="1706" duration="0.20000000000000001">
      <Effects />
      <Transitions />
      <BoundProperties>
        <BoundPropertyInt Name="rotateStepNinety" Value="0" />
      </BoundProperties>
    </ImageClip>
    <ImageClip extentID="1711" gapBefore="0" mediaItemID="1707" duration="0.20000000000000001">
      <Effects />
      <Transitions />
      <BoundProperties>
        <BoundPropertyInt Name="rotateStepNinety" Value="0" />
      </BoundProperties>
    </ImageClip>
    <ImageClip extentID="1712" gapBefore="0" mediaItemID="1708" duration="0.20000000000000001">
      <Effects />
      <Transitions />
      <BoundProperties>
        <BoundPropertyInt Name="rotateStepNinety" Value="0" />
      </BoundProperties>
    </ImageClip>
    <ImageClip extentID="1713" gapBefore="0" mediaItemID="1709" duration="0.20000000000000001">
      <Effects />
      <Transitions />
      <BoundProperties>
        <BoundPropertyInt Name="rotateStepNinety" Value="0" />
      </BoundProperties>
    </ImageClip>
    <ImageClip extentID="1714" gapBefore="0" mediaItemID="1710" duration="0.20000000000000001">
      <Effects />
      <Transitions />
      <BoundProperties>
        <BoundPropertyInt Name="rotateStepNinety" Value="0" />
      </BoundProperties>
    </ImageClip>
    <ImageClip extentID="1715" gapBefore="0" mediaItemID="1711" duration="0.20000000000000001">
      <Effects />
      <Transitions />
      <BoundProperties>
        <BoundPropertyInt Name="rotateStepNinety" Value="0" />
      </BoundProperties>
    </ImageClip>
    <ImageClip extentID="1716" gapBefore="0" mediaItemID="1712" duration="0.20000000000000001">
      <Effects />
      <Transitions />
      <BoundProperties>
        <BoundPropertyInt Name="rotateStepNinety" Value="0" />
      </BoundProperties>
    </ImageClip>
    <ImageClip extentID="1717" gapBefore="0" mediaItemID="1713" duration="0.20000000000000001">
      <Effects />
      <Transitions />
      <BoundProperties>
        <BoundPropertyInt Name="rotateStepNinety" Value="0" />
      </BoundProperties>
    </ImageClip>
    <ImageClip extentID="1718" gapBefore="0" mediaItemID="1714" duration="0.20000000000000001">
      <Effects />
      <Transitions />
      <BoundProperties>
        <BoundPropertyInt Name="rotateStepNinety" Value="0" />
      </BoundProperties>
    </ImageClip>
    <ImageClip extentID="1719" gapBefore="0" mediaItemID="1715" duration="0.20000000000000001">
      <Effects />
      <Transitions />
      <BoundProperties>
        <BoundPropertyInt Name="rotateStepNinety" Value="0" />
      </BoundProperties>
    </ImageClip>
    <ImageClip extentID="1720" gapBefore="0" mediaItemID="1716" duration="0.20000000000000001">
      <Effects />
      <Transitions />
      <BoundProperties>
        <BoundPropertyInt Name="rotateStepNinety" Value="0" />
      </BoundProperties>
    </ImageClip>
    <ImageClip extentID="1721" gapBefore="0" mediaItemID="1717" duration="0.20000000000000001">
      <Effects />
      <Transitions />
      <BoundProperties>
        <BoundPropertyInt Name="rotateStepNinety" Value="0" />
      </BoundProperties>
    </ImageClip>
    <ImageClip extentID="1722" gapBefore="0" mediaItemID="1718" duration="0.20000000000000001">
      <Effects />
      <Transitions />
      <BoundProperties>
        <BoundPropertyInt Name="rotateStepNinety" Value="0" />
      </BoundProperties>
    </ImageClip>
    <ImageClip extentID="1723" gapBefore="0" mediaItemID="1719" duration="0.20000000000000001">
      <Effects />
      <Transitions />
      <BoundProperties>
        <BoundPropertyInt Name="rotateStepNinety" Value="0" />
      </BoundProperties>
    </ImageClip>
    <ImageClip extentID="1724" gapBefore="0" mediaItemID="1720" duration="0.20000000000000001">
      <Effects />
      <Transitions />
      <BoundProperties>
        <BoundPropertyInt Name="rotateStepNinety" Value="0" />
      </BoundProperties>
    </ImageClip>
    <ImageClip extentID="1725" gapBefore="0" mediaItemID="1721" duration="0.20000000000000001">
      <Effects />
      <Transitions />
      <BoundProperties>
        <BoundPropertyInt Name="rotateStepNinety" Value="0" />
      </BoundProperties>
    </ImageClip>
    <ImageClip extentID="1726" gapBefore="0" mediaItemID="1722" duration="0.20000000000000001">
      <Effects />
      <Transitions />
      <BoundProperties>
        <BoundPropertyInt Name="rotateStepNinety" Value="0" />
      </BoundProperties>
    </ImageClip>
    <ImageClip extentID="1727" gapBefore="0" mediaItemID="1723" duration="0.20000000000000001">
      <Effects />
      <Transitions />
      <BoundProperties>
        <BoundPropertyInt Name="rotateStepNinety" Value="0" />
      </BoundProperties>
    </ImageClip>
    <ImageClip extentID="1728" gapBefore="0" mediaItemID="1724" duration="0.20000000000000001">
      <Effects />
      <Transitions />
      <BoundProperties>
        <BoundPropertyInt Name="rotateStepNinety" Value="0" />
      </BoundProperties>
    </ImageClip>
    <ImageClip extentID="1729" gapBefore="0" mediaItemID="1725" duration="0.20000000000000001">
      <Effects />
      <Transitions />
      <BoundProperties>
        <BoundPropertyInt Name="rotateStepNinety" Value="0" />
      </BoundProperties>
    </ImageClip>
    <ImageClip extentID="1730" gapBefore="0" mediaItemID="1726" duration="0.20000000000000001">
      <Effects />
      <Transitions />
      <BoundProperties>
        <BoundPropertyInt Name="rotateStepNinety" Value="0" />
      </BoundProperties>
    </ImageClip>
    <ImageClip extentID="1731" gapBefore="0" mediaItemID="1727" duration="0.20000000000000001">
      <Effects />
      <Transitions />
      <BoundProperties>
        <BoundPropertyInt Name="rotateStepNinety" Value="0" />
      </BoundProperties>
    </ImageClip>
    <ImageClip extentID="1732" gapBefore="0" mediaItemID="1728" duration="0.20000000000000001">
      <Effects />
      <Transitions />
      <BoundProperties>
        <BoundPropertyInt Name="rotateStepNinety" Value="0" />
      </BoundProperties>
    </ImageClip>
    <ImageClip extentID="1733" gapBefore="0" mediaItemID="1729" duration="0.20000000000000001">
      <Effects />
      <Transitions />
      <BoundProperties>
        <BoundPropertyInt Name="rotateStepNinety" Value="0" />
      </BoundProperties>
    </ImageClip>
    <ImageClip extentID="1734" gapBefore="0" mediaItemID="1730" duration="0.20000000000000001">
      <Effects />
      <Transitions />
      <BoundProperties>
        <BoundPropertyInt Name="rotateStepNinety" Value="0" />
      </BoundProperties>
    </ImageClip>
    <ImageClip extentID="1735" gapBefore="0" mediaItemID="1731" duration="0.20000000000000001">
      <Effects />
      <Transitions />
      <BoundProperties>
        <BoundPropertyInt Name="rotateStepNinety" Value="0" />
      </BoundProperties>
    </ImageClip>
    <ImageClip extentID="1736" gapBefore="0" mediaItemID="1732" duration="0.20000000000000001">
      <Effects />
      <Transitions />
      <BoundProperties>
        <BoundPropertyInt Name="rotateStepNinety" Value="0" />
      </BoundProperties>
    </ImageClip>
    <ImageClip extentID="1737" gapBefore="0" mediaItemID="1733" duration="0.20000000000000001">
      <Effects />
      <Transitions />
      <BoundProperties>
        <BoundPropertyInt Name="rotateStepNinety" Value="0" />
      </BoundProperties>
    </ImageClip>
    <ImageClip extentID="1738" gapBefore="0" mediaItemID="1734" duration="0.20000000000000001">
      <Effects />
      <Transitions />
      <BoundProperties>
        <BoundPropertyInt Name="rotateStepNinety" Value="0" />
      </BoundProperties>
    </ImageClip>
    <ImageClip extentID="1739" gapBefore="0" mediaItemID="1735" duration="0.20000000000000001">
      <Effects />
      <Transitions />
      <BoundProperties>
        <BoundPropertyInt Name="rotateStepNinety" Value="0" />
      </BoundProperties>
    </ImageClip>
    <ImageClip extentID="1740" gapBefore="0" mediaItemID="1736" duration="0.20000000000000001">
      <Effects />
      <Transitions />
      <BoundProperties>
        <BoundPropertyInt Name="rotateStepNinety" Value="0" />
      </BoundProperties>
    </ImageClip>
    <ImageClip extentID="1741" gapBefore="0" mediaItemID="1737" duration="0.20000000000000001">
      <Effects />
      <Transitions />
      <BoundProperties>
        <BoundPropertyInt Name="rotateStepNinety" Value="0" />
      </BoundProperties>
    </ImageClip>
    <ImageClip extentID="1742" gapBefore="0" mediaItemID="1738" duration="0.20000000000000001">
      <Effects />
      <Transitions />
      <BoundProperties>
        <BoundPropertyInt Name="rotateStepNinety" Value="0" />
      </BoundProperties>
    </ImageClip>
    <ImageClip extentID="1743" gapBefore="0" mediaItemID="1739" duration="0.20000000000000001">
      <Effects />
      <Transitions />
      <BoundProperties>
        <BoundPropertyInt Name="rotateStepNinety" Value="0" />
      </BoundProperties>
    </ImageClip>
    <ImageClip extentID="1744" gapBefore="0" mediaItemID="1740" duration="0.20000000000000001">
      <Effects />
      <Transitions />
      <BoundProperties>
        <BoundPropertyInt Name="rotateStepNinety" Value="0" />
      </BoundProperties>
    </ImageClip>
    <ImageClip extentID="1745" gapBefore="0" mediaItemID="1741" duration="0.20000000000000001">
      <Effects />
      <Transitions />
      <BoundProperties>
        <BoundPropertyInt Name="rotateStepNinety" Value="0" />
      </BoundProperties>
    </ImageClip>
    <ImageClip extentID="1746" gapBefore="0" mediaItemID="1742" duration="0.20000000000000001">
      <Effects />
      <Transitions />
      <BoundProperties>
        <BoundPropertyInt Name="rotateStepNinety" Value="0" />
      </BoundProperties>
    </ImageClip>
    <ImageClip extentID="1747" gapBefore="0" mediaItemID="1743" duration="0.20000000000000001">
      <Effects />
      <Transitions />
      <BoundProperties>
        <BoundPropertyInt Name="rotateStepNinety" Value="0" />
      </BoundProperties>
    </ImageClip>
    <ImageClip extentID="1748" gapBefore="0" mediaItemID="1744" duration="0.20000000000000001">
      <Effects />
      <Transitions />
      <BoundProperties>
        <BoundPropertyInt Name="rotateStepNinety" Value="0" />
      </BoundProperties>
    </ImageClip>
    <ImageClip extentID="1749" gapBefore="0" mediaItemID="1745" duration="0.20000000000000001">
      <Effects />
      <Transitions />
      <BoundProperties>
        <BoundPropertyInt Name="rotateStepNinety" Value="0" />
      </BoundProperties>
    </ImageClip>
    <ImageClip extentID="1750" gapBefore="0" mediaItemID="1746" duration="0.20000000000000001">
      <Effects />
      <Transitions />
      <BoundProperties>
        <BoundPropertyInt Name="rotateStepNinety" Value="0" />
      </BoundProperties>
    </ImageClip>
    <ImageClip extentID="1751" gapBefore="0" mediaItemID="1747" duration="0.20000000000000001">
      <Effects />
      <Transitions />
      <BoundProperties>
        <BoundPropertyInt Name="rotateStepNinety" Value="0" />
      </BoundProperties>
    </ImageClip>
    <ImageClip extentID="1752" gapBefore="0" mediaItemID="1748" duration="0.20000000000000001">
      <Effects />
      <Transitions />
      <BoundProperties>
        <BoundPropertyInt Name="rotateStepNinety" Value="0" />
      </BoundProperties>
    </ImageClip>
    <ImageClip extentID="1753" gapBefore="0" mediaItemID="1749" duration="0.20000000000000001">
      <Effects />
      <Transitions />
      <BoundProperties>
        <BoundPropertyInt Name="rotateStepNinety" Value="0" />
      </BoundProperties>
    </ImageClip>
    <ImageClip extentID="1754" gapBefore="0" mediaItemID="1750" duration="0.20000000000000001">
      <Effects />
      <Transitions />
      <BoundProperties>
        <BoundPropertyInt Name="rotateStepNinety" Value="0" />
      </BoundProperties>
    </ImageClip>
    <ImageClip extentID="1755" gapBefore="0" mediaItemID="1751" duration="0.20000000000000001">
      <Effects />
      <Transitions />
      <BoundProperties>
        <BoundPropertyInt Name="rotateStepNinety" Value="0" />
      </BoundProperties>
    </ImageClip>
    <ImageClip extentID="1756" gapBefore="0" mediaItemID="1752" duration="0.20000000000000001">
      <Effects />
      <Transitions />
      <BoundProperties>
        <BoundPropertyInt Name="rotateStepNinety" Value="0" />
      </BoundProperties>
    </ImageClip>
    <ImageClip extentID="1757" gapBefore="0" mediaItemID="1753" duration="0.20000000000000001">
      <Effects />
      <Transitions />
      <BoundProperties>
        <BoundPropertyInt Name="rotateStepNinety" Value="0" />
      </BoundProperties>
    </ImageClip>
    <ImageClip extentID="1758" gapBefore="0" mediaItemID="1754" duration="0.20000000000000001">
      <Effects />
      <Transitions />
      <BoundProperties>
        <BoundPropertyInt Name="rotateStepNinety" Value="0" />
      </BoundProperties>
    </ImageClip>
    <ImageClip extentID="1759" gapBefore="0" mediaItemID="1755" duration="0.20000000000000001">
      <Effects />
      <Transitions />
      <BoundProperties>
        <BoundPropertyInt Name="rotateStepNinety" Value="0" />
      </BoundProperties>
    </ImageClip>
    <ImageClip extentID="1760" gapBefore="0" mediaItemID="1756" duration="0.20000000000000001">
      <Effects />
      <Transitions />
      <BoundProperties>
        <BoundPropertyInt Name="rotateStepNinety" Value="0" />
      </BoundProperties>
    </ImageClip>
    <ImageClip extentID="1761" gapBefore="0" mediaItemID="1757" duration="0.20000000000000001">
      <Effects />
      <Transitions />
      <BoundProperties>
        <BoundPropertyInt Name="rotateStepNinety" Value="0" />
      </BoundProperties>
    </ImageClip>
    <ImageClip extentID="1762" gapBefore="0" mediaItemID="1758" duration="0.20000000000000001">
      <Effects />
      <Transitions />
      <BoundProperties>
        <BoundPropertyInt Name="rotateStepNinety" Value="0" />
      </BoundProperties>
    </ImageClip>
    <ImageClip extentID="1763" gapBefore="0" mediaItemID="1759" duration="0.20000000000000001">
      <Effects />
      <Transitions />
      <BoundProperties>
        <BoundPropertyInt Name="rotateStepNinety" Value="0" />
      </BoundProperties>
    </ImageClip>
    <ImageClip extentID="1764" gapBefore="0" mediaItemID="1760" duration="0.20000000000000001">
      <Effects />
      <Transitions />
      <BoundProperties>
        <BoundPropertyInt Name="rotateStepNinety" Value="0" />
      </BoundProperties>
    </ImageClip>
    <ImageClip extentID="1765" gapBefore="0" mediaItemID="1761" duration="0.20000000000000001">
      <Effects />
      <Transitions />
      <BoundProperties>
        <BoundPropertyInt Name="rotateStepNinety" Value="0" />
      </BoundProperties>
    </ImageClip>
    <ImageClip extentID="1766" gapBefore="0" mediaItemID="1762" duration="0.20000000000000001">
      <Effects />
      <Transitions />
      <BoundProperties>
        <BoundPropertyInt Name="rotateStepNinety" Value="0" />
      </BoundProperties>
    </ImageClip>
    <ImageClip extentID="1767" gapBefore="0" mediaItemID="1763" duration="0.20000000000000001">
      <Effects />
      <Transitions />
      <BoundProperties>
        <BoundPropertyInt Name="rotateStepNinety" Value="0" />
      </BoundProperties>
    </ImageClip>
    <ImageClip extentID="1768" gapBefore="0" mediaItemID="1764" duration="0.20000000000000001">
      <Effects />
      <Transitions />
      <BoundProperties>
        <BoundPropertyInt Name="rotateStepNinety" Value="0" />
      </BoundProperties>
    </ImageClip>
    <ImageClip extentID="1769" gapBefore="0" mediaItemID="1765" duration="0.20000000000000001">
      <Effects />
      <Transitions />
      <BoundProperties>
        <BoundPropertyInt Name="rotateStepNinety" Value="0" />
      </BoundProperties>
    </ImageClip>
    <ImageClip extentID="1770" gapBefore="0" mediaItemID="1766" duration="0.20000000000000001">
      <Effects />
      <Transitions />
      <BoundProperties>
        <BoundPropertyInt Name="rotateStepNinety" Value="0" />
      </BoundProperties>
    </ImageClip>
    <ImageClip extentID="1771" gapBefore="0" mediaItemID="1767" duration="0.20000000000000001">
      <Effects />
      <Transitions />
      <BoundProperties>
        <BoundPropertyInt Name="rotateStepNinety" Value="0" />
      </BoundProperties>
    </ImageClip>
    <ImageClip extentID="1772" gapBefore="0" mediaItemID="1768" duration="0.20000000000000001">
      <Effects />
      <Transitions />
      <BoundProperties>
        <BoundPropertyInt Name="rotateStepNinety" Value="0" />
      </BoundProperties>
    </ImageClip>
    <ImageClip extentID="1773" gapBefore="0" mediaItemID="1769" duration="0.20000000000000001">
      <Effects />
      <Transitions />
      <BoundProperties>
        <BoundPropertyInt Name="rotateStepNinety" Value="0" />
      </BoundProperties>
    </ImageClip>
    <ImageClip extentID="1774" gapBefore="0" mediaItemID="1770" duration="0.20000000000000001">
      <Effects />
      <Transitions />
      <BoundProperties>
        <BoundPropertyInt Name="rotateStepNinety" Value="0" />
      </BoundProperties>
    </ImageClip>
    <ImageClip extentID="1775" gapBefore="0" mediaItemID="1771" duration="0.20000000000000001">
      <Effects />
      <Transitions />
      <BoundProperties>
        <BoundPropertyInt Name="rotateStepNinety" Value="0" />
      </BoundProperties>
    </ImageClip>
    <ImageClip extentID="1776" gapBefore="0" mediaItemID="1772" duration="0.20000000000000001">
      <Effects />
      <Transitions />
      <BoundProperties>
        <BoundPropertyInt Name="rotateStepNinety" Value="0" />
      </BoundProperties>
    </ImageClip>
    <ImageClip extentID="1777" gapBefore="0" mediaItemID="1773" duration="0.20000000000000001">
      <Effects />
      <Transitions />
      <BoundProperties>
        <BoundPropertyInt Name="rotateStepNinety" Value="0" />
      </BoundProperties>
    </ImageClip>
    <ImageClip extentID="1778" gapBefore="0" mediaItemID="1774" duration="0.20000000000000001">
      <Effects />
      <Transitions />
      <BoundProperties>
        <BoundPropertyInt Name="rotateStepNinety" Value="0" />
      </BoundProperties>
    </ImageClip>
    <ImageClip extentID="1779" gapBefore="0" mediaItemID="1775" duration="0.20000000000000001">
      <Effects />
      <Transitions />
      <BoundProperties>
        <BoundPropertyInt Name="rotateStepNinety" Value="0" />
      </BoundProperties>
    </ImageClip>
    <ImageClip extentID="1780" gapBefore="0" mediaItemID="1776" duration="0.20000000000000001">
      <Effects />
      <Transitions />
      <BoundProperties>
        <BoundPropertyInt Name="rotateStepNinety" Value="0" />
      </BoundProperties>
    </ImageClip>
    <ImageClip extentID="1781" gapBefore="0" mediaItemID="1777" duration="0.20000000000000001">
      <Effects />
      <Transitions />
      <BoundProperties>
        <BoundPropertyInt Name="rotateStepNinety" Value="0" />
      </BoundProperties>
    </ImageClip>
    <ImageClip extentID="1782" gapBefore="0" mediaItemID="1778" duration="0.20000000000000001">
      <Effects />
      <Transitions />
      <BoundProperties>
        <BoundPropertyInt Name="rotateStepNinety" Value="0" />
      </BoundProperties>
    </ImageClip>
    <ImageClip extentID="1783" gapBefore="0" mediaItemID="1779" duration="0.20000000000000001">
      <Effects />
      <Transitions />
      <BoundProperties>
        <BoundPropertyInt Name="rotateStepNinety" Value="0" />
      </BoundProperties>
    </ImageClip>
    <ImageClip extentID="1784" gapBefore="0" mediaItemID="1780" duration="0.20000000000000001">
      <Effects />
      <Transitions />
      <BoundProperties>
        <BoundPropertyInt Name="rotateStepNinety" Value="0" />
      </BoundProperties>
    </ImageClip>
    <ImageClip extentID="1785" gapBefore="0" mediaItemID="1781" duration="0.20000000000000001">
      <Effects />
      <Transitions />
      <BoundProperties>
        <BoundPropertyInt Name="rotateStepNinety" Value="0" />
      </BoundProperties>
    </ImageClip>
    <ImageClip extentID="1786" gapBefore="0" mediaItemID="1782" duration="0.20000000000000001">
      <Effects />
      <Transitions />
      <BoundProperties>
        <BoundPropertyInt Name="rotateStepNinety" Value="0" />
      </BoundProperties>
    </ImageClip>
    <ImageClip extentID="1787" gapBefore="0" mediaItemID="1783" duration="0.20000000000000001">
      <Effects />
      <Transitions />
      <BoundProperties>
        <BoundPropertyInt Name="rotateStepNinety" Value="0" />
      </BoundProperties>
    </ImageClip>
    <ImageClip extentID="1788" gapBefore="0" mediaItemID="1784" duration="0.20000000000000001">
      <Effects />
      <Transitions />
      <BoundProperties>
        <BoundPropertyInt Name="rotateStepNinety" Value="0" />
      </BoundProperties>
    </ImageClip>
    <ImageClip extentID="1789" gapBefore="0" mediaItemID="1785" duration="0.20000000000000001">
      <Effects />
      <Transitions />
      <BoundProperties>
        <BoundPropertyInt Name="rotateStepNinety" Value="0" />
      </BoundProperties>
    </ImageClip>
    <ImageClip extentID="1790" gapBefore="0" mediaItemID="1786" duration="0.20000000000000001">
      <Effects />
      <Transitions />
      <BoundProperties>
        <BoundPropertyInt Name="rotateStepNinety" Value="0" />
      </BoundProperties>
    </ImageClip>
    <ImageClip extentID="1791" gapBefore="0" mediaItemID="1787" duration="0.20000000000000001">
      <Effects />
      <Transitions />
      <BoundProperties>
        <BoundPropertyInt Name="rotateStepNinety" Value="0" />
      </BoundProperties>
    </ImageClip>
    <ImageClip extentID="1792" gapBefore="0" mediaItemID="1788" duration="0.20000000000000001">
      <Effects />
      <Transitions />
      <BoundProperties>
        <BoundPropertyInt Name="rotateStepNinety" Value="0" />
      </BoundProperties>
    </ImageClip>
    <ImageClip extentID="1793" gapBefore="0" mediaItemID="1789" duration="0.20000000000000001">
      <Effects />
      <Transitions />
      <BoundProperties>
        <BoundPropertyInt Name="rotateStepNinety" Value="0" />
      </BoundProperties>
    </ImageClip>
    <ImageClip extentID="1794" gapBefore="0" mediaItemID="1790" duration="0.20000000000000001">
      <Effects />
      <Transitions />
      <BoundProperties>
        <BoundPropertyInt Name="rotateStepNinety" Value="0" />
      </BoundProperties>
    </ImageClip>
    <ImageClip extentID="1795" gapBefore="0" mediaItemID="1791" duration="0.20000000000000001">
      <Effects />
      <Transitions />
      <BoundProperties>
        <BoundPropertyInt Name="rotateStepNinety" Value="0" />
      </BoundProperties>
    </ImageClip>
    <ImageClip extentID="1796" gapBefore="0" mediaItemID="1792" duration="0.20000000000000001">
      <Effects />
      <Transitions />
      <BoundProperties>
        <BoundPropertyInt Name="rotateStepNinety" Value="0" />
      </BoundProperties>
    </ImageClip>
    <ImageClip extentID="1797" gapBefore="0" mediaItemID="1793" duration="0.20000000000000001">
      <Effects />
      <Transitions />
      <BoundProperties>
        <BoundPropertyInt Name="rotateStepNinety" Value="0" />
      </BoundProperties>
    </ImageClip>
    <ImageClip extentID="1798" gapBefore="0" mediaItemID="1794" duration="0.20000000000000001">
      <Effects />
      <Transitions />
      <BoundProperties>
        <BoundPropertyInt Name="rotateStepNinety" Value="0" />
      </BoundProperties>
    </ImageClip>
    <ImageClip extentID="1799" gapBefore="0" mediaItemID="1795" duration="0.20000000000000001">
      <Effects />
      <Transitions />
      <BoundProperties>
        <BoundPropertyInt Name="rotateStepNinety" Value="0" />
      </BoundProperties>
    </ImageClip>
    <ImageClip extentID="1800" gapBefore="0" mediaItemID="1796" duration="0.20000000000000001">
      <Effects />
      <Transitions />
      <BoundProperties>
        <BoundPropertyInt Name="rotateStepNinety" Value="0" />
      </BoundProperties>
    </ImageClip>
    <ImageClip extentID="1801" gapBefore="0" mediaItemID="1797" duration="0.20000000000000001">
      <Effects />
      <Transitions />
      <BoundProperties>
        <BoundPropertyInt Name="rotateStepNinety" Value="0" />
      </BoundProperties>
    </ImageClip>
    <ImageClip extentID="1802" gapBefore="0" mediaItemID="1798" duration="0.20000000000000001">
      <Effects />
      <Transitions />
      <BoundProperties>
        <BoundPropertyInt Name="rotateStepNinety" Value="0" />
      </BoundProperties>
    </ImageClip>
    <ImageClip extentID="1803" gapBefore="0" mediaItemID="1799" duration="0.20000000000000001">
      <Effects />
      <Transitions />
      <BoundProperties>
        <BoundPropertyInt Name="rotateStepNinety" Value="0" />
      </BoundProperties>
    </ImageClip>
    <ImageClip extentID="1804" gapBefore="0" mediaItemID="1800" duration="0.20000000000000001">
      <Effects />
      <Transitions />
      <BoundProperties>
        <BoundPropertyInt Name="rotateStepNinety" Value="0" />
      </BoundProperties>
    </ImageClip>
    <ImageClip extentID="1805" gapBefore="0" mediaItemID="1801" duration="0.20000000000000001">
      <Effects />
      <Transitions />
      <BoundProperties>
        <BoundPropertyInt Name="rotateStepNinety" Value="0" />
      </BoundProperties>
    </ImageClip>
    <ImageClip extentID="1806" gapBefore="0" mediaItemID="1802" duration="0.20000000000000001">
      <Effects />
      <Transitions />
      <BoundProperties>
        <BoundPropertyInt Name="rotateStepNinety" Value="0" />
      </BoundProperties>
    </ImageClip>
    <ImageClip extentID="1807" gapBefore="0" mediaItemID="1803" duration="0.20000000000000001">
      <Effects />
      <Transitions />
      <BoundProperties>
        <BoundPropertyInt Name="rotateStepNinety" Value="0" />
      </BoundProperties>
    </ImageClip>
    <ImageClip extentID="1808" gapBefore="0" mediaItemID="1804" duration="0.20000000000000001">
      <Effects />
      <Transitions />
      <BoundProperties>
        <BoundPropertyInt Name="rotateStepNinety" Value="0" />
      </BoundProperties>
    </ImageClip>
    <ImageClip extentID="1809" gapBefore="0" mediaItemID="1805" duration="0.20000000000000001">
      <Effects />
      <Transitions />
      <BoundProperties>
        <BoundPropertyInt Name="rotateStepNinety" Value="0" />
      </BoundProperties>
    </ImageClip>
    <ImageClip extentID="1810" gapBefore="0" mediaItemID="1806" duration="0.20000000000000001">
      <Effects />
      <Transitions />
      <BoundProperties>
        <BoundPropertyInt Name="rotateStepNinety" Value="0" />
      </BoundProperties>
    </ImageClip>
    <ImageClip extentID="1811" gapBefore="0" mediaItemID="1807" duration="0.20000000000000001">
      <Effects />
      <Transitions />
      <BoundProperties>
        <BoundPropertyInt Name="rotateStepNinety" Value="0" />
      </BoundProperties>
    </ImageClip>
    <ImageClip extentID="1812" gapBefore="0" mediaItemID="1808" duration="0.20000000000000001">
      <Effects />
      <Transitions />
      <BoundProperties>
        <BoundPropertyInt Name="rotateStepNinety" Value="0" />
      </BoundProperties>
    </ImageClip>
    <ImageClip extentID="1813" gapBefore="0" mediaItemID="1809" duration="0.20000000000000001">
      <Effects />
      <Transitions />
      <BoundProperties>
        <BoundPropertyInt Name="rotateStepNinety" Value="0" />
      </BoundProperties>
    </ImageClip>
    <ImageClip extentID="1814" gapBefore="0" mediaItemID="1810" duration="0.20000000000000001">
      <Effects />
      <Transitions />
      <BoundProperties>
        <BoundPropertyInt Name="rotateStepNinety" Value="0" />
      </BoundProperties>
    </ImageClip>
    <ImageClip extentID="1815" gapBefore="0" mediaItemID="1811" duration="0.20000000000000001">
      <Effects />
      <Transitions />
      <BoundProperties>
        <BoundPropertyInt Name="rotateStepNinety" Value="0" />
      </BoundProperties>
    </ImageClip>
    <ImageClip extentID="1816" gapBefore="0" mediaItemID="1812" duration="0.20000000000000001">
      <Effects />
      <Transitions />
      <BoundProperties>
        <BoundPropertyInt Name="rotateStepNinety" Value="0" />
      </BoundProperties>
    </ImageClip>
    <ImageClip extentID="1817" gapBefore="0" mediaItemID="1813" duration="0.20000000000000001">
      <Effects />
      <Transitions />
      <BoundProperties>
        <BoundPropertyInt Name="rotateStepNinety" Value="0" />
      </BoundProperties>
    </ImageClip>
    <ImageClip extentID="1818" gapBefore="0" mediaItemID="1814" duration="0.20000000000000001">
      <Effects />
      <Transitions />
      <BoundProperties>
        <BoundPropertyInt Name="rotateStepNinety" Value="0" />
      </BoundProperties>
    </ImageClip>
    <ImageClip extentID="1819" gapBefore="0" mediaItemID="1815" duration="0.20000000000000001">
      <Effects />
      <Transitions />
      <BoundProperties>
        <BoundPropertyInt Name="rotateStepNinety" Value="0" />
      </BoundProperties>
    </ImageClip>
    <ImageClip extentID="1820" gapBefore="0" mediaItemID="1816" duration="0.20000000000000001">
      <Effects />
      <Transitions />
      <BoundProperties>
        <BoundPropertyInt Name="rotateStepNinety" Value="0" />
      </BoundProperties>
    </ImageClip>
    <ImageClip extentID="1821" gapBefore="0" mediaItemID="1817" duration="0.20000000000000001">
      <Effects />
      <Transitions />
      <BoundProperties>
        <BoundPropertyInt Name="rotateStepNinety" Value="0" />
      </BoundProperties>
    </ImageClip>
    <ImageClip extentID="1822" gapBefore="0" mediaItemID="1818" duration="0.20000000000000001">
      <Effects />
      <Transitions />
      <BoundProperties>
        <BoundPropertyInt Name="rotateStepNinety" Value="0" />
      </BoundProperties>
    </ImageClip>
    <ImageClip extentID="1823" gapBefore="0" mediaItemID="1819" duration="0.20000000000000001">
      <Effects />
      <Transitions />
      <BoundProperties>
        <BoundPropertyInt Name="rotateStepNinety" Value="0" />
      </BoundProperties>
    </ImageClip>
    <ImageClip extentID="1824" gapBefore="0" mediaItemID="1820" duration="0.20000000000000001">
      <Effects />
      <Transitions />
      <BoundProperties>
        <BoundPropertyInt Name="rotateStepNinety" Value="0" />
      </BoundProperties>
    </ImageClip>
    <ImageClip extentID="1825" gapBefore="0" mediaItemID="1821" duration="0.20000000000000001">
      <Effects />
      <Transitions />
      <BoundProperties>
        <BoundPropertyInt Name="rotateStepNinety" Value="0" />
      </BoundProperties>
    </ImageClip>
    <ImageClip extentID="1826" gapBefore="0" mediaItemID="1822" duration="0.20000000000000001">
      <Effects />
      <Transitions />
      <BoundProperties>
        <BoundPropertyInt Name="rotateStepNinety" Value="0" />
      </BoundProperties>
    </ImageClip>
    <ImageClip extentID="1827" gapBefore="0" mediaItemID="1823" duration="0.20000000000000001">
      <Effects />
      <Transitions />
      <BoundProperties>
        <BoundPropertyInt Name="rotateStepNinety" Value="0" />
      </BoundProperties>
    </ImageClip>
    <ImageClip extentID="1828" gapBefore="0" mediaItemID="1824" duration="0.20000000000000001">
      <Effects />
      <Transitions />
      <BoundProperties>
        <BoundPropertyInt Name="rotateStepNinety" Value="0" />
      </BoundProperties>
    </ImageClip>
    <ImageClip extentID="1829" gapBefore="0" mediaItemID="1825" duration="0.20000000000000001">
      <Effects />
      <Transitions />
      <BoundProperties>
        <BoundPropertyInt Name="rotateStepNinety" Value="0" />
      </BoundProperties>
    </ImageClip>
    <ImageClip extentID="1830" gapBefore="0" mediaItemID="1826" duration="0.20000000000000001">
      <Effects />
      <Transitions />
      <BoundProperties>
        <BoundPropertyInt Name="rotateStepNinety" Value="0" />
      </BoundProperties>
    </ImageClip>
    <ImageClip extentID="1831" gapBefore="0" mediaItemID="1827" duration="0.20000000000000001">
      <Effects />
      <Transitions />
      <BoundProperties>
        <BoundPropertyInt Name="rotateStepNinety" Value="0" />
      </BoundProperties>
    </ImageClip>
    <ImageClip extentID="1832" gapBefore="0" mediaItemID="1828" duration="0.20000000000000001">
      <Effects />
      <Transitions />
      <BoundProperties>
        <BoundPropertyInt Name="rotateStepNinety" Value="0" />
      </BoundProperties>
    </ImageClip>
    <ImageClip extentID="1833" gapBefore="0" mediaItemID="1829" duration="0.20000000000000001">
      <Effects />
      <Transitions />
      <BoundProperties>
        <BoundPropertyInt Name="rotateStepNinety" Value="0" />
      </BoundProperties>
    </ImageClip>
    <ImageClip extentID="1834" gapBefore="0" mediaItemID="1830" duration="0.20000000000000001">
      <Effects />
      <Transitions />
      <BoundProperties>
        <BoundPropertyInt Name="rotateStepNinety" Value="0" />
      </BoundProperties>
    </ImageClip>
    <ImageClip extentID="1835" gapBefore="0" mediaItemID="1831" duration="0.20000000000000001">
      <Effects />
      <Transitions />
      <BoundProperties>
        <BoundPropertyInt Name="rotateStepNinety" Value="0" />
      </BoundProperties>
    </ImageClip>
    <ImageClip extentID="1836" gapBefore="0" mediaItemID="1832" duration="0.20000000000000001">
      <Effects />
      <Transitions />
      <BoundProperties>
        <BoundPropertyInt Name="rotateStepNinety" Value="0" />
      </BoundProperties>
    </ImageClip>
    <ImageClip extentID="1837" gapBefore="0" mediaItemID="1833" duration="0.20000000000000001">
      <Effects />
      <Transitions />
      <BoundProperties>
        <BoundPropertyInt Name="rotateStepNinety" Value="0" />
      </BoundProperties>
    </ImageClip>
    <ImageClip extentID="1838" gapBefore="0" mediaItemID="1834" duration="0.20000000000000001">
      <Effects />
      <Transitions />
      <BoundProperties>
        <BoundPropertyInt Name="rotateStepNinety" Value="0" />
      </BoundProperties>
    </ImageClip>
    <ImageClip extentID="1839" gapBefore="0" mediaItemID="1835" duration="0.20000000000000001">
      <Effects />
      <Transitions />
      <BoundProperties>
        <BoundPropertyInt Name="rotateStepNinety" Value="0" />
      </BoundProperties>
    </ImageClip>
    <ImageClip extentID="1840" gapBefore="0" mediaItemID="1836" duration="0.20000000000000001">
      <Effects />
      <Transitions />
      <BoundProperties>
        <BoundPropertyInt Name="rotateStepNinety" Value="0" />
      </BoundProperties>
    </ImageClip>
    <ImageClip extentID="1841" gapBefore="0" mediaItemID="1837" duration="0.20000000000000001">
      <Effects />
      <Transitions />
      <BoundProperties>
        <BoundPropertyInt Name="rotateStepNinety" Value="0" />
      </BoundProperties>
    </ImageClip>
    <ImageClip extentID="1842" gapBefore="0" mediaItemID="1838" duration="0.20000000000000001">
      <Effects />
      <Transitions />
      <BoundProperties>
        <BoundPropertyInt Name="rotateStepNinety" Value="0" />
      </BoundProperties>
    </ImageClip>
    <ImageClip extentID="1843" gapBefore="0" mediaItemID="1839" duration="0.20000000000000001">
      <Effects />
      <Transitions />
      <BoundProperties>
        <BoundPropertyInt Name="rotateStepNinety" Value="0" />
      </BoundProperties>
    </ImageClip>
    <ImageClip extentID="1844" gapBefore="0" mediaItemID="1840" duration="0.20000000000000001">
      <Effects />
      <Transitions />
      <BoundProperties>
        <BoundPropertyInt Name="rotateStepNinety" Value="0" />
      </BoundProperties>
    </ImageClip>
    <ImageClip extentID="1845" gapBefore="0" mediaItemID="1841" duration="0.20000000000000001">
      <Effects />
      <Transitions />
      <BoundProperties>
        <BoundPropertyInt Name="rotateStepNinety" Value="0" />
      </BoundProperties>
    </ImageClip>
    <ImageClip extentID="1846" gapBefore="0" mediaItemID="1842" duration="0.20000000000000001">
      <Effects />
      <Transitions />
      <BoundProperties>
        <BoundPropertyInt Name="rotateStepNinety" Value="0" />
      </BoundProperties>
    </ImageClip>
    <ImageClip extentID="1847" gapBefore="0" mediaItemID="1843" duration="0.20000000000000001">
      <Effects />
      <Transitions />
      <BoundProperties>
        <BoundPropertyInt Name="rotateStepNinety" Value="0" />
      </BoundProperties>
    </ImageClip>
    <ImageClip extentID="1848" gapBefore="0" mediaItemID="1844" duration="0.20000000000000001">
      <Effects />
      <Transitions />
      <BoundProperties>
        <BoundPropertyInt Name="rotateStepNinety" Value="0" />
      </BoundProperties>
    </ImageClip>
    <ImageClip extentID="1849" gapBefore="0" mediaItemID="1845" duration="0.20000000000000001">
      <Effects />
      <Transitions />
      <BoundProperties>
        <BoundPropertyInt Name="rotateStepNinety" Value="0" />
      </BoundProperties>
    </ImageClip>
    <ImageClip extentID="1850" gapBefore="0" mediaItemID="1846" duration="0.20000000000000001">
      <Effects />
      <Transitions />
      <BoundProperties>
        <BoundPropertyInt Name="rotateStepNinety" Value="0" />
      </BoundProperties>
    </ImageClip>
    <ImageClip extentID="1851" gapBefore="0" mediaItemID="1847" duration="0.20000000000000001">
      <Effects />
      <Transitions />
      <BoundProperties>
        <BoundPropertyInt Name="rotateStepNinety" Value="0" />
      </BoundProperties>
    </ImageClip>
    <ImageClip extentID="1852" gapBefore="0" mediaItemID="1848" duration="0.20000000000000001">
      <Effects />
      <Transitions />
      <BoundProperties>
        <BoundPropertyInt Name="rotateStepNinety" Value="0" />
      </BoundProperties>
    </ImageClip>
    <ImageClip extentID="1853" gapBefore="0" mediaItemID="1849" duration="0.20000000000000001">
      <Effects />
      <Transitions />
      <BoundProperties>
        <BoundPropertyInt Name="rotateStepNinety" Value="0" />
      </BoundProperties>
    </ImageClip>
    <ImageClip extentID="1854" gapBefore="0" mediaItemID="1850" duration="0.20000000000000001">
      <Effects />
      <Transitions />
      <BoundProperties>
        <BoundPropertyInt Name="rotateStepNinety" Value="0" />
      </BoundProperties>
    </ImageClip>
    <ImageClip extentID="1855" gapBefore="0" mediaItemID="1851" duration="0.20000000000000001">
      <Effects />
      <Transitions />
      <BoundProperties>
        <BoundPropertyInt Name="rotateStepNinety" Value="0" />
      </BoundProperties>
    </ImageClip>
    <ImageClip extentID="1856" gapBefore="0" mediaItemID="1852" duration="0.20000000000000001">
      <Effects />
      <Transitions />
      <BoundProperties>
        <BoundPropertyInt Name="rotateStepNinety" Value="0" />
      </BoundProperties>
    </ImageClip>
    <ImageClip extentID="1857" gapBefore="0" mediaItemID="1853" duration="0.20000000000000001">
      <Effects />
      <Transitions />
      <BoundProperties>
        <BoundPropertyInt Name="rotateStepNinety" Value="0" />
      </BoundProperties>
    </ImageClip>
    <ImageClip extentID="1858" gapBefore="0" mediaItemID="1854" duration="0.20000000000000001">
      <Effects />
      <Transitions />
      <BoundProperties>
        <BoundPropertyInt Name="rotateStepNinety" Value="0" />
      </BoundProperties>
    </ImageClip>
    <ImageClip extentID="1859" gapBefore="0" mediaItemID="1855" duration="0.20000000000000001">
      <Effects />
      <Transitions />
      <BoundProperties>
        <BoundPropertyInt Name="rotateStepNinety" Value="0" />
      </BoundProperties>
    </ImageClip>
    <ImageClip extentID="1860" gapBefore="0" mediaItemID="1856" duration="0.20000000000000001">
      <Effects />
      <Transitions />
      <BoundProperties>
        <BoundPropertyInt Name="rotateStepNinety" Value="0" />
      </BoundProperties>
    </ImageClip>
    <ImageClip extentID="1861" gapBefore="0" mediaItemID="1857" duration="0.20000000000000001">
      <Effects />
      <Transitions />
      <BoundProperties>
        <BoundPropertyInt Name="rotateStepNinety" Value="0" />
      </BoundProperties>
    </ImageClip>
    <ImageClip extentID="1862" gapBefore="0" mediaItemID="1858" duration="0.20000000000000001">
      <Effects />
      <Transitions />
      <BoundProperties>
        <BoundPropertyInt Name="rotateStepNinety" Value="0" />
      </BoundProperties>
    </ImageClip>
    <ImageClip extentID="1863" gapBefore="0" mediaItemID="1859" duration="0.20000000000000001">
      <Effects />
      <Transitions />
      <BoundProperties>
        <BoundPropertyInt Name="rotateStepNinety" Value="0" />
      </BoundProperties>
    </ImageClip>
    <ImageClip extentID="1864" gapBefore="0" mediaItemID="1860" duration="0.20000000000000001">
      <Effects />
      <Transitions />
      <BoundProperties>
        <BoundPropertyInt Name="rotateStepNinety" Value="0" />
      </BoundProperties>
    </ImageClip>
    <ImageClip extentID="1865" gapBefore="0" mediaItemID="1861" duration="0.20000000000000001">
      <Effects />
      <Transitions />
      <BoundProperties>
        <BoundPropertyInt Name="rotateStepNinety" Value="0" />
      </BoundProperties>
    </ImageClip>
    <ImageClip extentID="1866" gapBefore="0" mediaItemID="1862" duration="0.20000000000000001">
      <Effects />
      <Transitions />
      <BoundProperties>
        <BoundPropertyInt Name="rotateStepNinety" Value="0" />
      </BoundProperties>
    </ImageClip>
    <ImageClip extentID="1867" gapBefore="0" mediaItemID="1863" duration="0.20000000000000001">
      <Effects />
      <Transitions />
      <BoundProperties>
        <BoundPropertyInt Name="rotateStepNinety" Value="0" />
      </BoundProperties>
    </ImageClip>
    <ImageClip extentID="1868" gapBefore="0" mediaItemID="1864" duration="0.20000000000000001">
      <Effects />
      <Transitions />
      <BoundProperties>
        <BoundPropertyInt Name="rotateStepNinety" Value="0" />
      </BoundProperties>
    </ImageClip>
    <ImageClip extentID="1869" gapBefore="0" mediaItemID="1865" duration="0.20000000000000001">
      <Effects />
      <Transitions />
      <BoundProperties>
        <BoundPropertyInt Name="rotateStepNinety" Value="0" />
      </BoundProperties>
    </ImageClip>
    <ImageClip extentID="1870" gapBefore="0" mediaItemID="1866" duration="0.20000000000000001">
      <Effects />
      <Transitions />
      <BoundProperties>
        <BoundPropertyInt Name="rotateStepNinety" Value="0" />
      </BoundProperties>
    </ImageClip>
    <ImageClip extentID="1871" gapBefore="0" mediaItemID="1867" duration="0.20000000000000001">
      <Effects />
      <Transitions />
      <BoundProperties>
        <BoundPropertyInt Name="rotateStepNinety" Value="0" />
      </BoundProperties>
    </ImageClip>
    <ImageClip extentID="1872" gapBefore="0" mediaItemID="1868" duration="0.20000000000000001">
      <Effects />
      <Transitions />
      <BoundProperties>
        <BoundPropertyInt Name="rotateStepNinety" Value="0" />
      </BoundProperties>
    </ImageClip>
    <ImageClip extentID="1873" gapBefore="0" mediaItemID="1869" duration="0.20000000000000001">
      <Effects />
      <Transitions />
      <BoundProperties>
        <BoundPropertyInt Name="rotateStepNinety" Value="0" />
      </BoundProperties>
    </ImageClip>
    <ImageClip extentID="1874" gapBefore="0" mediaItemID="1870" duration="0.20000000000000001">
      <Effects />
      <Transitions />
      <BoundProperties>
        <BoundPropertyInt Name="rotateStepNinety" Value="0" />
      </BoundProperties>
    </ImageClip>
    <ImageClip extentID="1875" gapBefore="0" mediaItemID="1871" duration="0.20000000000000001">
      <Effects />
      <Transitions />
      <BoundProperties>
        <BoundPropertyInt Name="rotateStepNinety" Value="0" />
      </BoundProperties>
    </ImageClip>
    <ImageClip extentID="1876" gapBefore="0" mediaItemID="1872" duration="0.20000000000000001">
      <Effects />
      <Transitions />
      <BoundProperties>
        <BoundPropertyInt Name="rotateStepNinety" Value="0" />
      </BoundProperties>
    </ImageClip>
    <ImageClip extentID="1877" gapBefore="0" mediaItemID="1873" duration="0.20000000000000001">
      <Effects />
      <Transitions />
      <BoundProperties>
        <BoundPropertyInt Name="rotateStepNinety" Value="0" />
      </BoundProperties>
    </ImageClip>
    <ImageClip extentID="1878" gapBefore="0" mediaItemID="1874" duration="0.20000000000000001">
      <Effects />
      <Transitions />
      <BoundProperties>
        <BoundPropertyInt Name="rotateStepNinety" Value="0" />
      </BoundProperties>
    </ImageClip>
    <ImageClip extentID="1879" gapBefore="0" mediaItemID="1875" duration="0.20000000000000001">
      <Effects />
      <Transitions />
      <BoundProperties>
        <BoundPropertyInt Name="rotateStepNinety" Value="0" />
      </BoundProperties>
    </ImageClip>
    <ImageClip extentID="1880" gapBefore="0" mediaItemID="1876" duration="0.20000000000000001">
      <Effects />
      <Transitions />
      <BoundProperties>
        <BoundPropertyInt Name="rotateStepNinety" Value="0" />
      </BoundProperties>
    </ImageClip>
    <ImageClip extentID="1881" gapBefore="0" mediaItemID="1877" duration="0.20000000000000001">
      <Effects />
      <Transitions />
      <BoundProperties>
        <BoundPropertyInt Name="rotateStepNinety" Value="0" />
      </BoundProperties>
    </ImageClip>
    <ImageClip extentID="1882" gapBefore="0" mediaItemID="1878" duration="0.20000000000000001">
      <Effects />
      <Transitions />
      <BoundProperties>
        <BoundPropertyInt Name="rotateStepNinety" Value="0" />
      </BoundProperties>
    </ImageClip>
    <ImageClip extentID="1883" gapBefore="0" mediaItemID="1879" duration="0.20000000000000001">
      <Effects />
      <Transitions />
      <BoundProperties>
        <BoundPropertyInt Name="rotateStepNinety" Value="0" />
      </BoundProperties>
    </ImageClip>
    <ImageClip extentID="1884" gapBefore="0" mediaItemID="1880" duration="0.20000000000000001">
      <Effects />
      <Transitions />
      <BoundProperties>
        <BoundPropertyInt Name="rotateStepNinety" Value="0" />
      </BoundProperties>
    </ImageClip>
    <ImageClip extentID="1885" gapBefore="0" mediaItemID="1881" duration="0.20000000000000001">
      <Effects />
      <Transitions />
      <BoundProperties>
        <BoundPropertyInt Name="rotateStepNinety" Value="0" />
      </BoundProperties>
    </ImageClip>
    <ImageClip extentID="1886" gapBefore="0" mediaItemID="1882" duration="0.20000000000000001">
      <Effects />
      <Transitions />
      <BoundProperties>
        <BoundPropertyInt Name="rotateStepNinety" Value="0" />
      </BoundProperties>
    </ImageClip>
    <ImageClip extentID="1887" gapBefore="0" mediaItemID="1883" duration="0.20000000000000001">
      <Effects />
      <Transitions />
      <BoundProperties>
        <BoundPropertyInt Name="rotateStepNinety" Value="0" />
      </BoundProperties>
    </ImageClip>
    <ImageClip extentID="1888" gapBefore="0" mediaItemID="1884" duration="0.20000000000000001">
      <Effects />
      <Transitions />
      <BoundProperties>
        <BoundPropertyInt Name="rotateStepNinety" Value="0" />
      </BoundProperties>
    </ImageClip>
    <ImageClip extentID="1889" gapBefore="0" mediaItemID="1885" duration="0.20000000000000001">
      <Effects />
      <Transitions />
      <BoundProperties>
        <BoundPropertyInt Name="rotateStepNinety" Value="0" />
      </BoundProperties>
    </ImageClip>
    <ImageClip extentID="1890" gapBefore="0" mediaItemID="1886" duration="0.20000000000000001">
      <Effects />
      <Transitions />
      <BoundProperties>
        <BoundPropertyInt Name="rotateStepNinety" Value="0" />
      </BoundProperties>
    </ImageClip>
    <ImageClip extentID="1891" gapBefore="0" mediaItemID="1887" duration="0.20000000000000001">
      <Effects />
      <Transitions />
      <BoundProperties>
        <BoundPropertyInt Name="rotateStepNinety" Value="0" />
      </BoundProperties>
    </ImageClip>
    <ImageClip extentID="1892" gapBefore="0" mediaItemID="1888" duration="0.20000000000000001">
      <Effects />
      <Transitions />
      <BoundProperties>
        <BoundPropertyInt Name="rotateStepNinety" Value="0" />
      </BoundProperties>
    </ImageClip>
    <ImageClip extentID="1893" gapBefore="0" mediaItemID="1889" duration="0.20000000000000001">
      <Effects />
      <Transitions />
      <BoundProperties>
        <BoundPropertyInt Name="rotateStepNinety" Value="0" />
      </BoundProperties>
    </ImageClip>
    <ImageClip extentID="1894" gapBefore="0" mediaItemID="1890" duration="0.20000000000000001">
      <Effects />
      <Transitions />
      <BoundProperties>
        <BoundPropertyInt Name="rotateStepNinety" Value="0" />
      </BoundProperties>
    </ImageClip>
    <ImageClip extentID="1895" gapBefore="0" mediaItemID="1891" duration="0.20000000000000001">
      <Effects />
      <Transitions />
      <BoundProperties>
        <BoundPropertyInt Name="rotateStepNinety" Value="0" />
      </BoundProperties>
    </ImageClip>
    <ImageClip extentID="1896" gapBefore="0" mediaItemID="1892" duration="0.20000000000000001">
      <Effects />
      <Transitions />
      <BoundProperties>
        <BoundPropertyInt Name="rotateStepNinety" Value="0" />
      </BoundProperties>
    </ImageClip>
    <ImageClip extentID="1897" gapBefore="0" mediaItemID="1893" duration="0.20000000000000001">
      <Effects />
      <Transitions />
      <BoundProperties>
        <BoundPropertyInt Name="rotateStepNinety" Value="0" />
      </BoundProperties>
    </ImageClip>
    <ImageClip extentID="1898" gapBefore="0" mediaItemID="1894" duration="0.20000000000000001">
      <Effects />
      <Transitions />
      <BoundProperties>
        <BoundPropertyInt Name="rotateStepNinety" Value="0" />
      </BoundProperties>
    </ImageClip>
    <ImageClip extentID="1899" gapBefore="0" mediaItemID="1895" duration="0.20000000000000001">
      <Effects />
      <Transitions />
      <BoundProperties>
        <BoundPropertyInt Name="rotateStepNinety" Value="0" />
      </BoundProperties>
    </ImageClip>
    <ImageClip extentID="1900" gapBefore="0" mediaItemID="1896" duration="0.20000000000000001">
      <Effects />
      <Transitions />
      <BoundProperties>
        <BoundPropertyInt Name="rotateStepNinety" Value="0" />
      </BoundProperties>
    </ImageClip>
    <ImageClip extentID="1901" gapBefore="0" mediaItemID="1897" duration="0.20000000000000001">
      <Effects />
      <Transitions />
      <BoundProperties>
        <BoundPropertyInt Name="rotateStepNinety" Value="0" />
      </BoundProperties>
    </ImageClip>
    <ImageClip extentID="1902" gapBefore="0" mediaItemID="1898" duration="0.20000000000000001">
      <Effects />
      <Transitions />
      <BoundProperties>
        <BoundPropertyInt Name="rotateStepNinety" Value="0" />
      </BoundProperties>
    </ImageClip>
    <ImageClip extentID="1903" gapBefore="0" mediaItemID="1899" duration="0.20000000000000001">
      <Effects />
      <Transitions />
      <BoundProperties>
        <BoundPropertyInt Name="rotateStepNinety" Value="0" />
      </BoundProperties>
    </ImageClip>
    <ImageClip extentID="1904" gapBefore="0" mediaItemID="1900" duration="0.20000000000000001">
      <Effects />
      <Transitions />
      <BoundProperties>
        <BoundPropertyInt Name="rotateStepNinety" Value="0" />
      </BoundProperties>
    </ImageClip>
    <ImageClip extentID="1905" gapBefore="0" mediaItemID="1901" duration="0.20000000000000001">
      <Effects />
      <Transitions />
      <BoundProperties>
        <BoundPropertyInt Name="rotateStepNinety" Value="0" />
      </BoundProperties>
    </ImageClip>
    <ImageClip extentID="1906" gapBefore="0" mediaItemID="1902" duration="0.20000000000000001">
      <Effects />
      <Transitions />
      <BoundProperties>
        <BoundPropertyInt Name="rotateStepNinety" Value="0" />
      </BoundProperties>
    </ImageClip>
    <ImageClip extentID="1907" gapBefore="0" mediaItemID="1903" duration="0.20000000000000001">
      <Effects />
      <Transitions />
      <BoundProperties>
        <BoundPropertyInt Name="rotateStepNinety" Value="0" />
      </BoundProperties>
    </ImageClip>
    <ImageClip extentID="1908" gapBefore="0" mediaItemID="1904" duration="0.20000000000000001">
      <Effects />
      <Transitions />
      <BoundProperties>
        <BoundPropertyInt Name="rotateStepNinety" Value="0" />
      </BoundProperties>
    </ImageClip>
    <ImageClip extentID="1909" gapBefore="0" mediaItemID="1905" duration="0.20000000000000001">
      <Effects />
      <Transitions />
      <BoundProperties>
        <BoundPropertyInt Name="rotateStepNinety" Value="0" />
      </BoundProperties>
    </ImageClip>
    <ImageClip extentID="1910" gapBefore="0" mediaItemID="1906" duration="0.20000000000000001">
      <Effects />
      <Transitions />
      <BoundProperties>
        <BoundPropertyInt Name="rotateStepNinety" Value="0" />
      </BoundProperties>
    </ImageClip>
    <ImageClip extentID="1911" gapBefore="0" mediaItemID="1907" duration="0.20000000000000001">
      <Effects />
      <Transitions />
      <BoundProperties>
        <BoundPropertyInt Name="rotateStepNinety" Value="0" />
      </BoundProperties>
    </ImageClip>
    <ImageClip extentID="1912" gapBefore="0" mediaItemID="1908" duration="0.20000000000000001">
      <Effects />
      <Transitions />
      <BoundProperties>
        <BoundPropertyInt Name="rotateStepNinety" Value="0" />
      </BoundProperties>
    </ImageClip>
    <ImageClip extentID="1913" gapBefore="0" mediaItemID="1909" duration="0.20000000000000001">
      <Effects />
      <Transitions />
      <BoundProperties>
        <BoundPropertyInt Name="rotateStepNinety" Value="0" />
      </BoundProperties>
    </ImageClip>
    <ImageClip extentID="1914" gapBefore="0" mediaItemID="1910" duration="0.20000000000000001">
      <Effects />
      <Transitions />
      <BoundProperties>
        <BoundPropertyInt Name="rotateStepNinety" Value="0" />
      </BoundProperties>
    </ImageClip>
    <ImageClip extentID="1915" gapBefore="0" mediaItemID="1911" duration="0.20000000000000001">
      <Effects />
      <Transitions />
      <BoundProperties>
        <BoundPropertyInt Name="rotateStepNinety" Value="0" />
      </BoundProperties>
    </ImageClip>
    <ImageClip extentID="1916" gapBefore="0" mediaItemID="1912" duration="0.20000000000000001">
      <Effects />
      <Transitions />
      <BoundProperties>
        <BoundPropertyInt Name="rotateStepNinety" Value="0" />
      </BoundProperties>
    </ImageClip>
    <ImageClip extentID="1917" gapBefore="0" mediaItemID="1913" duration="0.20000000000000001">
      <Effects />
      <Transitions />
      <BoundProperties>
        <BoundPropertyInt Name="rotateStepNinety" Value="0" />
      </BoundProperties>
    </ImageClip>
    <ImageClip extentID="1918" gapBefore="0" mediaItemID="1914" duration="0.20000000000000001">
      <Effects />
      <Transitions />
      <BoundProperties>
        <BoundPropertyInt Name="rotateStepNinety" Value="0" />
      </BoundProperties>
    </ImageClip>
    <ImageClip extentID="1919" gapBefore="0" mediaItemID="1915" duration="0.20000000000000001">
      <Effects />
      <Transitions />
      <BoundProperties>
        <BoundPropertyInt Name="rotateStepNinety" Value="0" />
      </BoundProperties>
    </ImageClip>
    <ImageClip extentID="1920" gapBefore="0" mediaItemID="1916" duration="0.20000000000000001">
      <Effects />
      <Transitions />
      <BoundProperties>
        <BoundPropertyInt Name="rotateStepNinety" Value="0" />
      </BoundProperties>
    </ImageClip>
    <ImageClip extentID="1921" gapBefore="0" mediaItemID="1917" duration="0.20000000000000001">
      <Effects />
      <Transitions />
      <BoundProperties>
        <BoundPropertyInt Name="rotateStepNinety" Value="0" />
      </BoundProperties>
    </ImageClip>
    <ImageClip extentID="1922" gapBefore="0" mediaItemID="1918" duration="0.20000000000000001">
      <Effects />
      <Transitions />
      <BoundProperties>
        <BoundPropertyInt Name="rotateStepNinety" Value="0" />
      </BoundProperties>
    </ImageClip>
    <ImageClip extentID="1923" gapBefore="0" mediaItemID="1919" duration="0.20000000000000001">
      <Effects />
      <Transitions />
      <BoundProperties>
        <BoundPropertyInt Name="rotateStepNinety" Value="0" />
      </BoundProperties>
    </ImageClip>
    <ImageClip extentID="1924" gapBefore="0" mediaItemID="1920" duration="0.20000000000000001">
      <Effects />
      <Transitions />
      <BoundProperties>
        <BoundPropertyInt Name="rotateStepNinety" Value="0" />
      </BoundProperties>
    </ImageClip>
    <ImageClip extentID="1925" gapBefore="0" mediaItemID="1921" duration="0.20000000000000001">
      <Effects />
      <Transitions />
      <BoundProperties>
        <BoundPropertyInt Name="rotateStepNinety" Value="0" />
      </BoundProperties>
    </ImageClip>
    <ImageClip extentID="1926" gapBefore="0" mediaItemID="1922" duration="0.20000000000000001">
      <Effects />
      <Transitions />
      <BoundProperties>
        <BoundPropertyInt Name="rotateStepNinety" Value="0" />
      </BoundProperties>
    </ImageClip>
    <ImageClip extentID="1927" gapBefore="0" mediaItemID="1923" duration="0.20000000000000001">
      <Effects />
      <Transitions />
      <BoundProperties>
        <BoundPropertyInt Name="rotateStepNinety" Value="0" />
      </BoundProperties>
    </ImageClip>
    <ImageClip extentID="1928" gapBefore="0" mediaItemID="1924" duration="0.20000000000000001">
      <Effects />
      <Transitions />
      <BoundProperties>
        <BoundPropertyInt Name="rotateStepNinety" Value="0" />
      </BoundProperties>
    </ImageClip>
    <ImageClip extentID="1929" gapBefore="0" mediaItemID="1925" duration="0.20000000000000001">
      <Effects />
      <Transitions />
      <BoundProperties>
        <BoundPropertyInt Name="rotateStepNinety" Value="0" />
      </BoundProperties>
    </ImageClip>
    <ImageClip extentID="1930" gapBefore="0" mediaItemID="1926" duration="0.20000000000000001">
      <Effects />
      <Transitions />
      <BoundProperties>
        <BoundPropertyInt Name="rotateStepNinety" Value="0" />
      </BoundProperties>
    </ImageClip>
    <ImageClip extentID="1931" gapBefore="0" mediaItemID="1927" duration="0.20000000000000001">
      <Effects />
      <Transitions />
      <BoundProperties>
        <BoundPropertyInt Name="rotateStepNinety" Value="0" />
      </BoundProperties>
    </ImageClip>
    <ImageClip extentID="1932" gapBefore="0" mediaItemID="1928" duration="0.20000000000000001">
      <Effects />
      <Transitions />
      <BoundProperties>
        <BoundPropertyInt Name="rotateStepNinety" Value="0" />
      </BoundProperties>
    </ImageClip>
    <ImageClip extentID="1933" gapBefore="0" mediaItemID="1929" duration="0.20000000000000001">
      <Effects />
      <Transitions />
      <BoundProperties>
        <BoundPropertyInt Name="rotateStepNinety" Value="0" />
      </BoundProperties>
    </ImageClip>
    <ImageClip extentID="1934" gapBefore="0" mediaItemID="1930" duration="0.20000000000000001">
      <Effects />
      <Transitions />
      <BoundProperties>
        <BoundPropertyInt Name="rotateStepNinety" Value="0" />
      </BoundProperties>
    </ImageClip>
    <ImageClip extentID="1935" gapBefore="0" mediaItemID="1931" duration="0.20000000000000001">
      <Effects />
      <Transitions />
      <BoundProperties>
        <BoundPropertyInt Name="rotateStepNinety" Value="0" />
      </BoundProperties>
    </ImageClip>
    <ImageClip extentID="1936" gapBefore="0" mediaItemID="1932" duration="0.20000000000000001">
      <Effects />
      <Transitions />
      <BoundProperties>
        <BoundPropertyInt Name="rotateStepNinety" Value="0" />
      </BoundProperties>
    </ImageClip>
    <ImageClip extentID="1937" gapBefore="0" mediaItemID="1933" duration="0.20000000000000001">
      <Effects />
      <Transitions />
      <BoundProperties>
        <BoundPropertyInt Name="rotateStepNinety" Value="0" />
      </BoundProperties>
    </ImageClip>
    <ImageClip extentID="1938" gapBefore="0" mediaItemID="1934" duration="0.20000000000000001">
      <Effects />
      <Transitions />
      <BoundProperties>
        <BoundPropertyInt Name="rotateStepNinety" Value="0" />
      </BoundProperties>
    </ImageClip>
    <ImageClip extentID="1939" gapBefore="0" mediaItemID="1935" duration="0.20000000000000001">
      <Effects />
      <Transitions />
      <BoundProperties>
        <BoundPropertyInt Name="rotateStepNinety" Value="0" />
      </BoundProperties>
    </ImageClip>
    <ImageClip extentID="1940" gapBefore="0" mediaItemID="1936" duration="0.20000000000000001">
      <Effects />
      <Transitions />
      <BoundProperties>
        <BoundPropertyInt Name="rotateStepNinety" Value="0" />
      </BoundProperties>
    </ImageClip>
    <ImageClip extentID="1941" gapBefore="0" mediaItemID="1937" duration="0.20000000000000001">
      <Effects />
      <Transitions />
      <BoundProperties>
        <BoundPropertyInt Name="rotateStepNinety" Value="0" />
      </BoundProperties>
    </ImageClip>
    <ImageClip extentID="1942" gapBefore="0" mediaItemID="1938" duration="0.20000000000000001">
      <Effects />
      <Transitions />
      <BoundProperties>
        <BoundPropertyInt Name="rotateStepNinety" Value="0" />
      </BoundProperties>
    </ImageClip>
    <ImageClip extentID="1943" gapBefore="0" mediaItemID="1939" duration="0.20000000000000001">
      <Effects />
      <Transitions />
      <BoundProperties>
        <BoundPropertyInt Name="rotateStepNinety" Value="0" />
      </BoundProperties>
    </ImageClip>
    <ImageClip extentID="1944" gapBefore="0" mediaItemID="1940" duration="0.20000000000000001">
      <Effects />
      <Transitions />
      <BoundProperties>
        <BoundPropertyInt Name="rotateStepNinety" Value="0" />
      </BoundProperties>
    </ImageClip>
    <ImageClip extentID="1945" gapBefore="0" mediaItemID="1941" duration="0.20000000000000001">
      <Effects />
      <Transitions />
      <BoundProperties>
        <BoundPropertyInt Name="rotateStepNinety" Value="0" />
      </BoundProperties>
    </ImageClip>
    <ImageClip extentID="1946" gapBefore="0" mediaItemID="1942" duration="0.20000000000000001">
      <Effects />
      <Transitions />
      <BoundProperties>
        <BoundPropertyInt Name="rotateStepNinety" Value="0" />
      </BoundProperties>
    </ImageClip>
    <ImageClip extentID="1947" gapBefore="0" mediaItemID="1943" duration="0.20000000000000001">
      <Effects />
      <Transitions />
      <BoundProperties>
        <BoundPropertyInt Name="rotateStepNinety" Value="0" />
      </BoundProperties>
    </ImageClip>
    <ImageClip extentID="1948" gapBefore="0" mediaItemID="1944" duration="0.20000000000000001">
      <Effects />
      <Transitions />
      <BoundProperties>
        <BoundPropertyInt Name="rotateStepNinety" Value="0" />
      </BoundProperties>
    </ImageClip>
    <ImageClip extentID="1949" gapBefore="0" mediaItemID="1945" duration="0.20000000000000001">
      <Effects />
      <Transitions />
      <BoundProperties>
        <BoundPropertyInt Name="rotateStepNinety" Value="0" />
      </BoundProperties>
    </ImageClip>
    <ImageClip extentID="1950" gapBefore="0" mediaItemID="1946" duration="0.20000000000000001">
      <Effects />
      <Transitions />
      <BoundProperties>
        <BoundPropertyInt Name="rotateStepNinety" Value="0" />
      </BoundProperties>
    </ImageClip>
    <ImageClip extentID="1951" gapBefore="0" mediaItemID="1947" duration="0.20000000000000001">
      <Effects />
      <Transitions />
      <BoundProperties>
        <BoundPropertyInt Name="rotateStepNinety" Value="0" />
      </BoundProperties>
    </ImageClip>
    <ImageClip extentID="1952" gapBefore="0" mediaItemID="1948" duration="0.20000000000000001">
      <Effects />
      <Transitions />
      <BoundProperties>
        <BoundPropertyInt Name="rotateStepNinety" Value="0" />
      </BoundProperties>
    </ImageClip>
    <ImageClip extentID="1953" gapBefore="0" mediaItemID="1949" duration="0.20000000000000001">
      <Effects />
      <Transitions />
      <BoundProperties>
        <BoundPropertyInt Name="rotateStepNinety" Value="0" />
      </BoundProperties>
    </ImageClip>
    <ImageClip extentID="1954" gapBefore="0" mediaItemID="1950" duration="0.20000000000000001">
      <Effects />
      <Transitions />
      <BoundProperties>
        <BoundPropertyInt Name="rotateStepNinety" Value="0" />
      </BoundProperties>
    </ImageClip>
    <ImageClip extentID="1955" gapBefore="0" mediaItemID="1951" duration="0.20000000000000001">
      <Effects />
      <Transitions />
      <BoundProperties>
        <BoundPropertyInt Name="rotateStepNinety" Value="0" />
      </BoundProperties>
    </ImageClip>
    <ImageClip extentID="1956" gapBefore="0" mediaItemID="1952" duration="0.20000000000000001">
      <Effects />
      <Transitions />
      <BoundProperties>
        <BoundPropertyInt Name="rotateStepNinety" Value="0" />
      </BoundProperties>
    </ImageClip>
    <ImageClip extentID="1957" gapBefore="0" mediaItemID="1953" duration="0.20000000000000001">
      <Effects />
      <Transitions />
      <BoundProperties>
        <BoundPropertyInt Name="rotateStepNinety" Value="0" />
      </BoundProperties>
    </ImageClip>
    <ImageClip extentID="1958" gapBefore="0" mediaItemID="1954" duration="0.20000000000000001">
      <Effects />
      <Transitions />
      <BoundProperties>
        <BoundPropertyInt Name="rotateStepNinety" Value="0" />
      </BoundProperties>
    </ImageClip>
    <ImageClip extentID="1959" gapBefore="0" mediaItemID="1955" duration="0.20000000000000001">
      <Effects />
      <Transitions />
      <BoundProperties>
        <BoundPropertyInt Name="rotateStepNinety" Value="0" />
      </BoundProperties>
    </ImageClip>
    <ImageClip extentID="1960" gapBefore="0" mediaItemID="1956" duration="0.20000000000000001">
      <Effects />
      <Transitions />
      <BoundProperties>
        <BoundPropertyInt Name="rotateStepNinety" Value="0" />
      </BoundProperties>
    </ImageClip>
    <ImageClip extentID="1961" gapBefore="0" mediaItemID="1957" duration="0.20000000000000001">
      <Effects />
      <Transitions />
      <BoundProperties>
        <BoundPropertyInt Name="rotateStepNinety" Value="0" />
      </BoundProperties>
    </ImageClip>
    <ImageClip extentID="1962" gapBefore="0" mediaItemID="1958" duration="0.20000000000000001">
      <Effects />
      <Transitions />
      <BoundProperties>
        <BoundPropertyInt Name="rotateStepNinety" Value="0" />
      </BoundProperties>
    </ImageClip>
    <ImageClip extentID="1963" gapBefore="0" mediaItemID="1959" duration="0.20000000000000001">
      <Effects />
      <Transitions />
      <BoundProperties>
        <BoundPropertyInt Name="rotateStepNinety" Value="0" />
      </BoundProperties>
    </ImageClip>
    <ImageClip extentID="1964" gapBefore="0" mediaItemID="1960" duration="0.20000000000000001">
      <Effects />
      <Transitions />
      <BoundProperties>
        <BoundPropertyInt Name="rotateStepNinety" Value="0" />
      </BoundProperties>
    </ImageClip>
    <ImageClip extentID="1965" gapBefore="0" mediaItemID="1961" duration="0.20000000000000001">
      <Effects />
      <Transitions />
      <BoundProperties>
        <BoundPropertyInt Name="rotateStepNinety" Value="0" />
      </BoundProperties>
    </ImageClip>
    <ImageClip extentID="1966" gapBefore="0" mediaItemID="1962" duration="0.20000000000000001">
      <Effects />
      <Transitions />
      <BoundProperties>
        <BoundPropertyInt Name="rotateStepNinety" Value="0" />
      </BoundProperties>
    </ImageClip>
    <ImageClip extentID="1967" gapBefore="0" mediaItemID="1963" duration="0.20000000000000001">
      <Effects />
      <Transitions />
      <BoundProperties>
        <BoundPropertyInt Name="rotateStepNinety" Value="0" />
      </BoundProperties>
    </ImageClip>
    <ImageClip extentID="1968" gapBefore="0" mediaItemID="1964" duration="0.20000000000000001">
      <Effects />
      <Transitions />
      <BoundProperties>
        <BoundPropertyInt Name="rotateStepNinety" Value="0" />
      </BoundProperties>
    </ImageClip>
    <ImageClip extentID="1969" gapBefore="0" mediaItemID="1965" duration="0.20000000000000001">
      <Effects />
      <Transitions />
      <BoundProperties>
        <BoundPropertyInt Name="rotateStepNinety" Value="0" />
      </BoundProperties>
    </ImageClip>
    <ImageClip extentID="1970" gapBefore="0" mediaItemID="1966" duration="0.20000000000000001">
      <Effects />
      <Transitions />
      <BoundProperties>
        <BoundPropertyInt Name="rotateStepNinety" Value="0" />
      </BoundProperties>
    </ImageClip>
    <ImageClip extentID="1971" gapBefore="0" mediaItemID="1967" duration="0.20000000000000001">
      <Effects />
      <Transitions />
      <BoundProperties>
        <BoundPropertyInt Name="rotateStepNinety" Value="0" />
      </BoundProperties>
    </ImageClip>
    <ImageClip extentID="1972" gapBefore="0" mediaItemID="1968" duration="0.20000000000000001">
      <Effects />
      <Transitions />
      <BoundProperties>
        <BoundPropertyInt Name="rotateStepNinety" Value="0" />
      </BoundProperties>
    </ImageClip>
    <ImageClip extentID="1973" gapBefore="0" mediaItemID="1969" duration="0.20000000000000001">
      <Effects />
      <Transitions />
      <BoundProperties>
        <BoundPropertyInt Name="rotateStepNinety" Value="0" />
      </BoundProperties>
    </ImageClip>
    <ImageClip extentID="1974" gapBefore="0" mediaItemID="1970" duration="0.20000000000000001">
      <Effects />
      <Transitions />
      <BoundProperties>
        <BoundPropertyInt Name="rotateStepNinety" Value="0" />
      </BoundProperties>
    </ImageClip>
    <ImageClip extentID="1975" gapBefore="0" mediaItemID="1971" duration="0.20000000000000001">
      <Effects />
      <Transitions />
      <BoundProperties>
        <BoundPropertyInt Name="rotateStepNinety" Value="0" />
      </BoundProperties>
    </ImageClip>
    <ImageClip extentID="1976" gapBefore="0" mediaItemID="1972" duration="0.20000000000000001">
      <Effects />
      <Transitions />
      <BoundProperties>
        <BoundPropertyInt Name="rotateStepNinety" Value="0" />
      </BoundProperties>
    </ImageClip>
    <ImageClip extentID="1977" gapBefore="0" mediaItemID="1973" duration="0.20000000000000001">
      <Effects />
      <Transitions />
      <BoundProperties>
        <BoundPropertyInt Name="rotateStepNinety" Value="0" />
      </BoundProperties>
    </ImageClip>
    <ImageClip extentID="1978" gapBefore="0" mediaItemID="1974" duration="0.20000000000000001">
      <Effects />
      <Transitions />
      <BoundProperties>
        <BoundPropertyInt Name="rotateStepNinety" Value="0" />
      </BoundProperties>
    </ImageClip>
    <ImageClip extentID="1979" gapBefore="0" mediaItemID="1975" duration="0.20000000000000001">
      <Effects />
      <Transitions />
      <BoundProperties>
        <BoundPropertyInt Name="rotateStepNinety" Value="0" />
      </BoundProperties>
    </ImageClip>
    <ImageClip extentID="1980" gapBefore="0" mediaItemID="1976" duration="0.20000000000000001">
      <Effects />
      <Transitions />
      <BoundProperties>
        <BoundPropertyInt Name="rotateStepNinety" Value="0" />
      </BoundProperties>
    </ImageClip>
    <ImageClip extentID="1981" gapBefore="0" mediaItemID="1977" duration="0.20000000000000001">
      <Effects />
      <Transitions />
      <BoundProperties>
        <BoundPropertyInt Name="rotateStepNinety" Value="0" />
      </BoundProperties>
    </ImageClip>
    <ImageClip extentID="1982" gapBefore="0" mediaItemID="1978" duration="0.20000000000000001">
      <Effects />
      <Transitions />
      <BoundProperties>
        <BoundPropertyInt Name="rotateStepNinety" Value="0" />
      </BoundProperties>
    </ImageClip>
    <ImageClip extentID="1983" gapBefore="0" mediaItemID="1979" duration="0.20000000000000001">
      <Effects />
      <Transitions />
      <BoundProperties>
        <BoundPropertyInt Name="rotateStepNinety" Value="0" />
      </BoundProperties>
    </ImageClip>
    <ImageClip extentID="1984" gapBefore="0" mediaItemID="1980" duration="0.20000000000000001">
      <Effects />
      <Transitions />
      <BoundProperties>
        <BoundPropertyInt Name="rotateStepNinety" Value="0" />
      </BoundProperties>
    </ImageClip>
    <ImageClip extentID="1985" gapBefore="0" mediaItemID="1981" duration="0.20000000000000001">
      <Effects />
      <Transitions />
      <BoundProperties>
        <BoundPropertyInt Name="rotateStepNinety" Value="0" />
      </BoundProperties>
    </ImageClip>
    <ImageClip extentID="1986" gapBefore="0" mediaItemID="1982" duration="0.20000000000000001">
      <Effects />
      <Transitions />
      <BoundProperties>
        <BoundPropertyInt Name="rotateStepNinety" Value="0" />
      </BoundProperties>
    </ImageClip>
    <ImageClip extentID="1987" gapBefore="0" mediaItemID="1983" duration="0.20000000000000001">
      <Effects />
      <Transitions />
      <BoundProperties>
        <BoundPropertyInt Name="rotateStepNinety" Value="0" />
      </BoundProperties>
    </ImageClip>
    <ImageClip extentID="1988" gapBefore="0" mediaItemID="1984" duration="0.20000000000000001">
      <Effects />
      <Transitions />
      <BoundProperties>
        <BoundPropertyInt Name="rotateStepNinety" Value="0" />
      </BoundProperties>
    </ImageClip>
    <ImageClip extentID="1989" gapBefore="0" mediaItemID="1985" duration="0.20000000000000001">
      <Effects />
      <Transitions />
      <BoundProperties>
        <BoundPropertyInt Name="rotateStepNinety" Value="0" />
      </BoundProperties>
    </ImageClip>
    <ImageClip extentID="1990" gapBefore="0" mediaItemID="1986" duration="0.20000000000000001">
      <Effects />
      <Transitions />
      <BoundProperties>
        <BoundPropertyInt Name="rotateStepNinety" Value="0" />
      </BoundProperties>
    </ImageClip>
    <ImageClip extentID="1991" gapBefore="0" mediaItemID="1987" duration="0.20000000000000001">
      <Effects />
      <Transitions />
      <BoundProperties>
        <BoundPropertyInt Name="rotateStepNinety" Value="0" />
      </BoundProperties>
    </ImageClip>
    <ImageClip extentID="1992" gapBefore="0" mediaItemID="1988" duration="0.20000000000000001">
      <Effects />
      <Transitions />
      <BoundProperties>
        <BoundPropertyInt Name="rotateStepNinety" Value="0" />
      </BoundProperties>
    </ImageClip>
    <ImageClip extentID="1993" gapBefore="0" mediaItemID="1989" duration="0.20000000000000001">
      <Effects />
      <Transitions />
      <BoundProperties>
        <BoundPropertyInt Name="rotateStepNinety" Value="0" />
      </BoundProperties>
    </ImageClip>
    <ImageClip extentID="1994" gapBefore="0" mediaItemID="1990" duration="0.20000000000000001">
      <Effects />
      <Transitions />
      <BoundProperties>
        <BoundPropertyInt Name="rotateStepNinety" Value="0" />
      </BoundProperties>
    </ImageClip>
    <ImageClip extentID="1995" gapBefore="0" mediaItemID="1991" duration="0.20000000000000001">
      <Effects />
      <Transitions />
      <BoundProperties>
        <BoundPropertyInt Name="rotateStepNinety" Value="0" />
      </BoundProperties>
    </ImageClip>
    <ImageClip extentID="1996" gapBefore="0" mediaItemID="1992" duration="0.20000000000000001">
      <Effects />
      <Transitions />
      <BoundProperties>
        <BoundPropertyInt Name="rotateStepNinety" Value="0" />
      </BoundProperties>
    </ImageClip>
    <ImageClip extentID="1997" gapBefore="0" mediaItemID="1993" duration="0.20000000000000001">
      <Effects />
      <Transitions />
      <BoundProperties>
        <BoundPropertyInt Name="rotateStepNinety" Value="0" />
      </BoundProperties>
    </ImageClip>
    <ImageClip extentID="1998" gapBefore="0" mediaItemID="1994" duration="0.20000000000000001">
      <Effects />
      <Transitions />
      <BoundProperties>
        <BoundPropertyInt Name="rotateStepNinety" Value="0" />
      </BoundProperties>
    </ImageClip>
    <ImageClip extentID="1999" gapBefore="0" mediaItemID="1995" duration="0.20000000000000001">
      <Effects />
      <Transitions />
      <BoundProperties>
        <BoundPropertyInt Name="rotateStepNinety" Value="0" />
      </BoundProperties>
    </ImageClip>
    <ImageClip extentID="2000" gapBefore="0" mediaItemID="1996" duration="0.20000000000000001">
      <Effects />
      <Transitions />
      <BoundProperties>
        <BoundPropertyInt Name="rotateStepNinety" Value="0" />
      </BoundProperties>
    </ImageClip>
    <ImageClip extentID="2001" gapBefore="0" mediaItemID="1997" duration="0.20000000000000001">
      <Effects />
      <Transitions />
      <BoundProperties>
        <BoundPropertyInt Name="rotateStepNinety" Value="0" />
      </BoundProperties>
    </ImageClip>
    <ImageClip extentID="2002" gapBefore="0" mediaItemID="1998" duration="0.20000000000000001">
      <Effects />
      <Transitions />
      <BoundProperties>
        <BoundPropertyInt Name="rotateStepNinety" Value="0" />
      </BoundProperties>
    </ImageClip>
    <ImageClip extentID="2003" gapBefore="0" mediaItemID="1999" duration="0.20000000000000001">
      <Effects />
      <Transitions />
      <BoundProperties>
        <BoundPropertyInt Name="rotateStepNinety" Value="0" />
      </BoundProperties>
    </ImageClip>
    <ImageClip extentID="2004" gapBefore="0" mediaItemID="2000" duration="0.20000000000000001">
      <Effects />
      <Transitions />
      <BoundProperties>
        <BoundPropertyInt Name="rotateStepNinety" Value="0" />
      </BoundProperties>
    </ImageClip>
    <ImageClip extentID="2005" gapBefore="0" mediaItemID="2001" duration="0.20000000000000001">
      <Effects />
      <Transitions />
      <BoundProperties>
        <BoundPropertyInt Name="rotateStepNinety" Value="0" />
      </BoundProperties>
    </ImageClip>
    <ImageClip extentID="2006" gapBefore="0" mediaItemID="2002" duration="0.20000000000000001">
      <Effects />
      <Transitions />
      <BoundProperties>
        <BoundPropertyInt Name="rotateStepNinety" Value="0" />
      </BoundProperties>
    </ImageClip>
    <ImageClip extentID="2007" gapBefore="0" mediaItemID="2003" duration="0.20000000000000001">
      <Effects />
      <Transitions />
      <BoundProperties>
        <BoundPropertyInt Name="rotateStepNinety" Value="0" />
      </BoundProperties>
    </ImageClip>
    <ImageClip extentID="2008" gapBefore="0" mediaItemID="2004" duration="0.20000000000000001">
      <Effects />
      <Transitions />
      <BoundProperties>
        <BoundPropertyInt Name="rotateStepNinety" Value="0" />
      </BoundProperties>
    </ImageClip>
    <ImageClip extentID="2009" gapBefore="0" mediaItemID="2005" duration="0.20000000000000001">
      <Effects />
      <Transitions />
      <BoundProperties>
        <BoundPropertyInt Name="rotateStepNinety" Value="0" />
      </BoundProperties>
    </ImageClip>
    <ImageClip extentID="2010" gapBefore="0" mediaItemID="2006" duration="0.20000000000000001">
      <Effects />
      <Transitions />
      <BoundProperties>
        <BoundPropertyInt Name="rotateStepNinety" Value="0" />
      </BoundProperties>
    </ImageClip>
    <ImageClip extentID="2011" gapBefore="0" mediaItemID="2007" duration="0.20000000000000001">
      <Effects />
      <Transitions />
      <BoundProperties>
        <BoundPropertyInt Name="rotateStepNinety" Value="0" />
      </BoundProperties>
    </ImageClip>
    <ImageClip extentID="2012" gapBefore="0" mediaItemID="2008" duration="0.20000000000000001">
      <Effects />
      <Transitions />
      <BoundProperties>
        <BoundPropertyInt Name="rotateStepNinety" Value="0" />
      </BoundProperties>
    </ImageClip>
    <ImageClip extentID="2013" gapBefore="0" mediaItemID="2009" duration="0.20000000000000001">
      <Effects />
      <Transitions />
      <BoundProperties>
        <BoundPropertyInt Name="rotateStepNinety" Value="0" />
      </BoundProperties>
    </ImageClip>
    <ImageClip extentID="2014" gapBefore="0" mediaItemID="2010" duration="0.20000000000000001">
      <Effects />
      <Transitions />
      <BoundProperties>
        <BoundPropertyInt Name="rotateStepNinety" Value="0" />
      </BoundProperties>
    </ImageClip>
    <ImageClip extentID="2015" gapBefore="0" mediaItemID="2011" duration="0.20000000000000001">
      <Effects />
      <Transitions />
      <BoundProperties>
        <BoundPropertyInt Name="rotateStepNinety" Value="0" />
      </BoundProperties>
    </ImageClip>
    <ImageClip extentID="2016" gapBefore="0" mediaItemID="2012" duration="0.20000000000000001">
      <Effects />
      <Transitions />
      <BoundProperties>
        <BoundPropertyInt Name="rotateStepNinety" Value="0" />
      </BoundProperties>
    </ImageClip>
    <ImageClip extentID="2017" gapBefore="0" mediaItemID="2013" duration="0.20000000000000001">
      <Effects />
      <Transitions />
      <BoundProperties>
        <BoundPropertyInt Name="rotateStepNinety" Value="0" />
      </BoundProperties>
    </ImageClip>
    <ImageClip extentID="2018" gapBefore="0" mediaItemID="2014" duration="0.20000000000000001">
      <Effects />
      <Transitions />
      <BoundProperties>
        <BoundPropertyInt Name="rotateStepNinety" Value="0" />
      </BoundProperties>
    </ImageClip>
    <ImageClip extentID="2019" gapBefore="0" mediaItemID="2015" duration="0.20000000000000001">
      <Effects />
      <Transitions />
      <BoundProperties>
        <BoundPropertyInt Name="rotateStepNinety" Value="0" />
      </BoundProperties>
    </ImageClip>
    <ImageClip extentID="2020" gapBefore="0" mediaItemID="2016" duration="0.20000000000000001">
      <Effects />
      <Transitions />
      <BoundProperties>
        <BoundPropertyInt Name="rotateStepNinety" Value="0" />
      </BoundProperties>
    </ImageClip>
    <ImageClip extentID="2021" gapBefore="0" mediaItemID="2017" duration="0.20000000000000001">
      <Effects />
      <Transitions />
      <BoundProperties>
        <BoundPropertyInt Name="rotateStepNinety" Value="0" />
      </BoundProperties>
    </ImageClip>
    <ImageClip extentID="2022" gapBefore="0" mediaItemID="2018" duration="0.20000000000000001">
      <Effects />
      <Transitions />
      <BoundProperties>
        <BoundPropertyInt Name="rotateStepNinety" Value="0" />
      </BoundProperties>
    </ImageClip>
    <ImageClip extentID="2023" gapBefore="0" mediaItemID="2019" duration="0.20000000000000001">
      <Effects />
      <Transitions />
      <BoundProperties>
        <BoundPropertyInt Name="rotateStepNinety" Value="0" />
      </BoundProperties>
    </ImageClip>
    <ImageClip extentID="2024" gapBefore="0" mediaItemID="2020" duration="0.20000000000000001">
      <Effects />
      <Transitions />
      <BoundProperties>
        <BoundPropertyInt Name="rotateStepNinety" Value="0" />
      </BoundProperties>
    </ImageClip>
    <ImageClip extentID="2025" gapBefore="0" mediaItemID="2021" duration="0.20000000000000001">
      <Effects />
      <Transitions />
      <BoundProperties>
        <BoundPropertyInt Name="rotateStepNinety" Value="0" />
      </BoundProperties>
    </ImageClip>
    <ImageClip extentID="2026" gapBefore="0" mediaItemID="2022" duration="0.20000000000000001">
      <Effects />
      <Transitions />
      <BoundProperties>
        <BoundPropertyInt Name="rotateStepNinety" Value="0" />
      </BoundProperties>
    </ImageClip>
    <ImageClip extentID="2027" gapBefore="0" mediaItemID="2023" duration="0.20000000000000001">
      <Effects />
      <Transitions />
      <BoundProperties>
        <BoundPropertyInt Name="rotateStepNinety" Value="0" />
      </BoundProperties>
    </ImageClip>
    <ImageClip extentID="2028" gapBefore="0" mediaItemID="2024" duration="0.20000000000000001">
      <Effects />
      <Transitions />
      <BoundProperties>
        <BoundPropertyInt Name="rotateStepNinety" Value="0" />
      </BoundProperties>
    </ImageClip>
    <ImageClip extentID="2029" gapBefore="0" mediaItemID="2025" duration="0.20000000000000001">
      <Effects />
      <Transitions />
      <BoundProperties>
        <BoundPropertyInt Name="rotateStepNinety" Value="0" />
      </BoundProperties>
    </ImageClip>
    <ImageClip extentID="2030" gapBefore="0" mediaItemID="2026" duration="0.20000000000000001">
      <Effects />
      <Transitions />
      <BoundProperties>
        <BoundPropertyInt Name="rotateStepNinety" Value="0" />
      </BoundProperties>
    </ImageClip>
    <ImageClip extentID="2031" gapBefore="0" mediaItemID="2027" duration="0.20000000000000001">
      <Effects />
      <Transitions />
      <BoundProperties>
        <BoundPropertyInt Name="rotateStepNinety" Value="0" />
      </BoundProperties>
    </ImageClip>
    <ImageClip extentID="2032" gapBefore="0" mediaItemID="2028" duration="0.20000000000000001">
      <Effects />
      <Transitions />
      <BoundProperties>
        <BoundPropertyInt Name="rotateStepNinety" Value="0" />
      </BoundProperties>
    </ImageClip>
    <ImageClip extentID="2033" gapBefore="0" mediaItemID="2029" duration="0.20000000000000001">
      <Effects />
      <Transitions />
      <BoundProperties>
        <BoundPropertyInt Name="rotateStepNinety" Value="0" />
      </BoundProperties>
    </ImageClip>
    <ImageClip extentID="2034" gapBefore="0" mediaItemID="2030" duration="0.20000000000000001">
      <Effects />
      <Transitions />
      <BoundProperties>
        <BoundPropertyInt Name="rotateStepNinety" Value="0" />
      </BoundProperties>
    </ImageClip>
    <ImageClip extentID="2035" gapBefore="0" mediaItemID="2031" duration="0.20000000000000001">
      <Effects />
      <Transitions />
      <BoundProperties>
        <BoundPropertyInt Name="rotateStepNinety" Value="0" />
      </BoundProperties>
    </ImageClip>
    <ImageClip extentID="2036" gapBefore="0" mediaItemID="2032" duration="0.20000000000000001">
      <Effects />
      <Transitions />
      <BoundProperties>
        <BoundPropertyInt Name="rotateStepNinety" Value="0" />
      </BoundProperties>
    </ImageClip>
    <ImageClip extentID="2037" gapBefore="0" mediaItemID="2033" duration="0.20000000000000001">
      <Effects />
      <Transitions />
      <BoundProperties>
        <BoundPropertyInt Name="rotateStepNinety" Value="0" />
      </BoundProperties>
    </ImageClip>
    <ImageClip extentID="2038" gapBefore="0" mediaItemID="2034" duration="0.20000000000000001">
      <Effects />
      <Transitions />
      <BoundProperties>
        <BoundPropertyInt Name="rotateStepNinety" Value="0" />
      </BoundProperties>
    </ImageClip>
    <ImageClip extentID="2039" gapBefore="0" mediaItemID="2035" duration="0.20000000000000001">
      <Effects />
      <Transitions />
      <BoundProperties>
        <BoundPropertyInt Name="rotateStepNinety" Value="0" />
      </BoundProperties>
    </ImageClip>
    <ImageClip extentID="2040" gapBefore="0" mediaItemID="2036" duration="0.20000000000000001">
      <Effects />
      <Transitions />
      <BoundProperties>
        <BoundPropertyInt Name="rotateStepNinety" Value="0" />
      </BoundProperties>
    </ImageClip>
    <ImageClip extentID="2041" gapBefore="0" mediaItemID="2037" duration="0.20000000000000001">
      <Effects />
      <Transitions />
      <BoundProperties>
        <BoundPropertyInt Name="rotateStepNinety" Value="0" />
      </BoundProperties>
    </ImageClip>
    <ImageClip extentID="2042" gapBefore="0" mediaItemID="2038" duration="0.20000000000000001">
      <Effects />
      <Transitions />
      <BoundProperties>
        <BoundPropertyInt Name="rotateStepNinety" Value="0" />
      </BoundProperties>
    </ImageClip>
    <ImageClip extentID="2043" gapBefore="0" mediaItemID="2039" duration="0.20000000000000001">
      <Effects />
      <Transitions />
      <BoundProperties>
        <BoundPropertyInt Name="rotateStepNinety" Value="0" />
      </BoundProperties>
    </ImageClip>
    <ImageClip extentID="2044" gapBefore="0" mediaItemID="2040" duration="0.20000000000000001">
      <Effects />
      <Transitions />
      <BoundProperties>
        <BoundPropertyInt Name="rotateStepNinety" Value="0" />
      </BoundProperties>
    </ImageClip>
    <ImageClip extentID="2045" gapBefore="0" mediaItemID="2041" duration="0.20000000000000001">
      <Effects />
      <Transitions />
      <BoundProperties>
        <BoundPropertyInt Name="rotateStepNinety" Value="0" />
      </BoundProperties>
    </ImageClip>
    <ImageClip extentID="2046" gapBefore="0" mediaItemID="2042" duration="0.20000000000000001">
      <Effects />
      <Transitions />
      <BoundProperties>
        <BoundPropertyInt Name="rotateStepNinety" Value="0" />
      </BoundProperties>
    </ImageClip>
    <ImageClip extentID="2047" gapBefore="0" mediaItemID="2043" duration="0.20000000000000001">
      <Effects />
      <Transitions />
      <BoundProperties>
        <BoundPropertyInt Name="rotateStepNinety" Value="0" />
      </BoundProperties>
    </ImageClip>
    <ImageClip extentID="2048" gapBefore="0" mediaItemID="2044" duration="0.20000000000000001">
      <Effects />
      <Transitions />
      <BoundProperties>
        <BoundPropertyInt Name="rotateStepNinety" Value="0" />
      </BoundProperties>
    </ImageClip>
    <ImageClip extentID="2049" gapBefore="0" mediaItemID="2045" duration="0.20000000000000001">
      <Effects />
      <Transitions />
      <BoundProperties>
        <BoundPropertyInt Name="rotateStepNinety" Value="0" />
      </BoundProperties>
    </ImageClip>
    <ImageClip extentID="2050" gapBefore="0" mediaItemID="2046" duration="0.20000000000000001">
      <Effects />
      <Transitions />
      <BoundProperties>
        <BoundPropertyInt Name="rotateStepNinety" Value="0" />
      </BoundProperties>
    </ImageClip>
    <ImageClip extentID="2051" gapBefore="0" mediaItemID="2047" duration="0.20000000000000001">
      <Effects />
      <Transitions />
      <BoundProperties>
        <BoundPropertyInt Name="rotateStepNinety" Value="0" />
      </BoundProperties>
    </ImageClip>
    <ImageClip extentID="2052" gapBefore="0" mediaItemID="2048" duration="0.20000000000000001">
      <Effects />
      <Transitions />
      <BoundProperties>
        <BoundPropertyInt Name="rotateStepNinety" Value="0" />
      </BoundProperties>
    </ImageClip>
    <ImageClip extentID="2053" gapBefore="0" mediaItemID="2049" duration="0.20000000000000001">
      <Effects />
      <Transitions />
      <BoundProperties>
        <BoundPropertyInt Name="rotateStepNinety" Value="0" />
      </BoundProperties>
    </ImageClip>
    <ImageClip extentID="2054" gapBefore="0" mediaItemID="2050" duration="0.20000000000000001">
      <Effects />
      <Transitions />
      <BoundProperties>
        <BoundPropertyInt Name="rotateStepNinety" Value="0" />
      </BoundProperties>
    </ImageClip>
    <ImageClip extentID="2055" gapBefore="0" mediaItemID="2051" duration="0.20000000000000001">
      <Effects />
      <Transitions />
      <BoundProperties>
        <BoundPropertyInt Name="rotateStepNinety" Value="0" />
      </BoundProperties>
    </ImageClip>
    <ImageClip extentID="2056" gapBefore="0" mediaItemID="2052" duration="0.20000000000000001">
      <Effects />
      <Transitions />
      <BoundProperties>
        <BoundPropertyInt Name="rotateStepNinety" Value="0" />
      </BoundProperties>
    </ImageClip>
    <ImageClip extentID="2057" gapBefore="0" mediaItemID="2053" duration="0.20000000000000001">
      <Effects />
      <Transitions />
      <BoundProperties>
        <BoundPropertyInt Name="rotateStepNinety" Value="0" />
      </BoundProperties>
    </ImageClip>
    <ImageClip extentID="2058" gapBefore="0" mediaItemID="2054" duration="0.20000000000000001">
      <Effects />
      <Transitions />
      <BoundProperties>
        <BoundPropertyInt Name="rotateStepNinety" Value="0" />
      </BoundProperties>
    </ImageClip>
    <ImageClip extentID="2059" gapBefore="0" mediaItemID="2055" duration="0.20000000000000001">
      <Effects />
      <Transitions />
      <BoundProperties>
        <BoundPropertyInt Name="rotateStepNinety" Value="0" />
      </BoundProperties>
    </ImageClip>
    <ImageClip extentID="2060" gapBefore="0" mediaItemID="2056" duration="0.20000000000000001">
      <Effects />
      <Transitions />
      <BoundProperties>
        <BoundPropertyInt Name="rotateStepNinety" Value="0" />
      </BoundProperties>
    </ImageClip>
    <ImageClip extentID="2061" gapBefore="0" mediaItemID="2057" duration="0.20000000000000001">
      <Effects />
      <Transitions />
      <BoundProperties>
        <BoundPropertyInt Name="rotateStepNinety" Value="0" />
      </BoundProperties>
    </ImageClip>
    <ImageClip extentID="2062" gapBefore="0" mediaItemID="2058" duration="0.20000000000000001">
      <Effects />
      <Transitions />
      <BoundProperties>
        <BoundPropertyInt Name="rotateStepNinety" Value="0" />
      </BoundProperties>
    </ImageClip>
    <ImageClip extentID="2063" gapBefore="0" mediaItemID="2059" duration="0.20000000000000001">
      <Effects />
      <Transitions />
      <BoundProperties>
        <BoundPropertyInt Name="rotateStepNinety" Value="0" />
      </BoundProperties>
    </ImageClip>
    <ImageClip extentID="2064" gapBefore="0" mediaItemID="2060" duration="0.20000000000000001">
      <Effects />
      <Transitions />
      <BoundProperties>
        <BoundPropertyInt Name="rotateStepNinety" Value="0" />
      </BoundProperties>
    </ImageClip>
    <ImageClip extentID="2065" gapBefore="0" mediaItemID="2061" duration="0.20000000000000001">
      <Effects />
      <Transitions />
      <BoundProperties>
        <BoundPropertyInt Name="rotateStepNinety" Value="0" />
      </BoundProperties>
    </ImageClip>
    <ImageClip extentID="2066" gapBefore="0" mediaItemID="2062" duration="0.20000000000000001">
      <Effects />
      <Transitions />
      <BoundProperties>
        <BoundPropertyInt Name="rotateStepNinety" Value="0" />
      </BoundProperties>
    </ImageClip>
    <ImageClip extentID="2067" gapBefore="0" mediaItemID="2063" duration="0.20000000000000001">
      <Effects />
      <Transitions />
      <BoundProperties>
        <BoundPropertyInt Name="rotateStepNinety" Value="0" />
      </BoundProperties>
    </ImageClip>
    <ImageClip extentID="2068" gapBefore="0" mediaItemID="2064" duration="0.20000000000000001">
      <Effects />
      <Transitions />
      <BoundProperties>
        <BoundPropertyInt Name="rotateStepNinety" Value="0" />
      </BoundProperties>
    </ImageClip>
    <ImageClip extentID="2069" gapBefore="0" mediaItemID="2065" duration="0.20000000000000001">
      <Effects />
      <Transitions />
      <BoundProperties>
        <BoundPropertyInt Name="rotateStepNinety" Value="0" />
      </BoundProperties>
    </ImageClip>
    <ImageClip extentID="2070" gapBefore="0" mediaItemID="2066" duration="0.20000000000000001">
      <Effects />
      <Transitions />
      <BoundProperties>
        <BoundPropertyInt Name="rotateStepNinety" Value="0" />
      </BoundProperties>
    </ImageClip>
    <ImageClip extentID="2071" gapBefore="0" mediaItemID="2067" duration="0.20000000000000001">
      <Effects />
      <Transitions />
      <BoundProperties>
        <BoundPropertyInt Name="rotateStepNinety" Value="0" />
      </BoundProperties>
    </ImageClip>
    <ImageClip extentID="2072" gapBefore="0" mediaItemID="2068" duration="0.20000000000000001">
      <Effects />
      <Transitions />
      <BoundProperties>
        <BoundPropertyInt Name="rotateStepNinety" Value="0" />
      </BoundProperties>
    </ImageClip>
    <ImageClip extentID="2073" gapBefore="0" mediaItemID="2069" duration="0.20000000000000001">
      <Effects />
      <Transitions />
      <BoundProperties>
        <BoundPropertyInt Name="rotateStepNinety" Value="0" />
      </BoundProperties>
    </ImageClip>
    <ImageClip extentID="2074" gapBefore="0" mediaItemID="2070" duration="0.20000000000000001">
      <Effects />
      <Transitions />
      <BoundProperties>
        <BoundPropertyInt Name="rotateStepNinety" Value="0" />
      </BoundProperties>
    </ImageClip>
    <ImageClip extentID="2075" gapBefore="0" mediaItemID="2071" duration="0.20000000000000001">
      <Effects />
      <Transitions />
      <BoundProperties>
        <BoundPropertyInt Name="rotateStepNinety" Value="0" />
      </BoundProperties>
    </ImageClip>
    <ImageClip extentID="2076" gapBefore="0" mediaItemID="2072" duration="0.20000000000000001">
      <Effects />
      <Transitions />
      <BoundProperties>
        <BoundPropertyInt Name="rotateStepNinety" Value="0" />
      </BoundProperties>
    </ImageClip>
    <ImageClip extentID="2077" gapBefore="0" mediaItemID="2073" duration="0.20000000000000001">
      <Effects />
      <Transitions />
      <BoundProperties>
        <BoundPropertyInt Name="rotateStepNinety" Value="0" />
      </BoundProperties>
    </ImageClip>
    <ImageClip extentID="2078" gapBefore="0" mediaItemID="2074" duration="0.20000000000000001">
      <Effects />
      <Transitions />
      <BoundProperties>
        <BoundPropertyInt Name="rotateStepNinety" Value="0" />
      </BoundProperties>
    </ImageClip>
    <ImageClip extentID="2079" gapBefore="0" mediaItemID="2075" duration="0.20000000000000001">
      <Effects />
      <Transitions />
      <BoundProperties>
        <BoundPropertyInt Name="rotateStepNinety" Value="0" />
      </BoundProperties>
    </ImageClip>
    <ImageClip extentID="2080" gapBefore="0" mediaItemID="2076" duration="0.20000000000000001">
      <Effects />
      <Transitions />
      <BoundProperties>
        <BoundPropertyInt Name="rotateStepNinety" Value="0" />
      </BoundProperties>
    </ImageClip>
    <ImageClip extentID="2081" gapBefore="0" mediaItemID="2077" duration="0.20000000000000001">
      <Effects />
      <Transitions />
      <BoundProperties>
        <BoundPropertyInt Name="rotateStepNinety" Value="0" />
      </BoundProperties>
    </ImageClip>
    <ImageClip extentID="2082" gapBefore="0" mediaItemID="2078" duration="0.20000000000000001">
      <Effects />
      <Transitions />
      <BoundProperties>
        <BoundPropertyInt Name="rotateStepNinety" Value="0" />
      </BoundProperties>
    </ImageClip>
    <ImageClip extentID="2083" gapBefore="0" mediaItemID="2079" duration="0.20000000000000001">
      <Effects />
      <Transitions />
      <BoundProperties>
        <BoundPropertyInt Name="rotateStepNinety" Value="0" />
      </BoundProperties>
    </ImageClip>
    <ImageClip extentID="2084" gapBefore="0" mediaItemID="2080" duration="0.20000000000000001">
      <Effects />
      <Transitions />
      <BoundProperties>
        <BoundPropertyInt Name="rotateStepNinety" Value="0" />
      </BoundProperties>
    </ImageClip>
    <ImageClip extentID="2085" gapBefore="0" mediaItemID="2081" duration="0.20000000000000001">
      <Effects />
      <Transitions />
      <BoundProperties>
        <BoundPropertyInt Name="rotateStepNinety" Value="0" />
      </BoundProperties>
    </ImageClip>
    <ImageClip extentID="2086" gapBefore="0" mediaItemID="2082" duration="0.20000000000000001">
      <Effects />
      <Transitions />
      <BoundProperties>
        <BoundPropertyInt Name="rotateStepNinety" Value="0" />
      </BoundProperties>
    </ImageClip>
    <ImageClip extentID="2087" gapBefore="0" mediaItemID="2083" duration="0.20000000000000001">
      <Effects />
      <Transitions />
      <BoundProperties>
        <BoundPropertyInt Name="rotateStepNinety" Value="0" />
      </BoundProperties>
    </ImageClip>
    <ImageClip extentID="2088" gapBefore="0" mediaItemID="2084" duration="0.20000000000000001">
      <Effects />
      <Transitions />
      <BoundProperties>
        <BoundPropertyInt Name="rotateStepNinety" Value="0" />
      </BoundProperties>
    </ImageClip>
    <ImageClip extentID="2089" gapBefore="0" mediaItemID="2085" duration="0.20000000000000001">
      <Effects />
      <Transitions />
      <BoundProperties>
        <BoundPropertyInt Name="rotateStepNinety" Value="0" />
      </BoundProperties>
    </ImageClip>
    <ImageClip extentID="2090" gapBefore="0" mediaItemID="2086" duration="0.20000000000000001">
      <Effects />
      <Transitions />
      <BoundProperties>
        <BoundPropertyInt Name="rotateStepNinety" Value="0" />
      </BoundProperties>
    </ImageClip>
    <ImageClip extentID="2091" gapBefore="0" mediaItemID="2087" duration="0.20000000000000001">
      <Effects />
      <Transitions />
      <BoundProperties>
        <BoundPropertyInt Name="rotateStepNinety" Value="0" />
      </BoundProperties>
    </ImageClip>
    <ImageClip extentID="2092" gapBefore="0" mediaItemID="2088" duration="0.20000000000000001">
      <Effects />
      <Transitions />
      <BoundProperties>
        <BoundPropertyInt Name="rotateStepNinety" Value="0" />
      </BoundProperties>
    </ImageClip>
    <ImageClip extentID="2093" gapBefore="0" mediaItemID="2089" duration="0.20000000000000001">
      <Effects />
      <Transitions />
      <BoundProperties>
        <BoundPropertyInt Name="rotateStepNinety" Value="0" />
      </BoundProperties>
    </ImageClip>
    <ImageClip extentID="2094" gapBefore="0" mediaItemID="2090" duration="0.20000000000000001">
      <Effects />
      <Transitions />
      <BoundProperties>
        <BoundPropertyInt Name="rotateStepNinety" Value="0" />
      </BoundProperties>
    </ImageClip>
    <ImageClip extentID="2095" gapBefore="0" mediaItemID="2091" duration="0.20000000000000001">
      <Effects />
      <Transitions />
      <BoundProperties>
        <BoundPropertyInt Name="rotateStepNinety" Value="0" />
      </BoundProperties>
    </ImageClip>
    <ImageClip extentID="2096" gapBefore="0" mediaItemID="2092" duration="0.20000000000000001">
      <Effects />
      <Transitions />
      <BoundProperties>
        <BoundPropertyInt Name="rotateStepNinety" Value="0" />
      </BoundProperties>
    </ImageClip>
    <ImageClip extentID="2097" gapBefore="0" mediaItemID="2093" duration="0.20000000000000001">
      <Effects />
      <Transitions />
      <BoundProperties>
        <BoundPropertyInt Name="rotateStepNinety" Value="0" />
      </BoundProperties>
    </ImageClip>
    <ImageClip extentID="2098" gapBefore="0" mediaItemID="2094" duration="0.20000000000000001">
      <Effects />
      <Transitions />
      <BoundProperties>
        <BoundPropertyInt Name="rotateStepNinety" Value="0" />
      </BoundProperties>
    </ImageClip>
    <ImageClip extentID="2099" gapBefore="0" mediaItemID="2095" duration="0.20000000000000001">
      <Effects />
      <Transitions />
      <BoundProperties>
        <BoundPropertyInt Name="rotateStepNinety" Value="0" />
      </BoundProperties>
    </ImageClip>
    <ImageClip extentID="2100" gapBefore="0" mediaItemID="2096" duration="0.20000000000000001">
      <Effects />
      <Transitions />
      <BoundProperties>
        <BoundPropertyInt Name="rotateStepNinety" Value="0" />
      </BoundProperties>
    </ImageClip>
    <ImageClip extentID="2101" gapBefore="0" mediaItemID="2097" duration="0.20000000000000001">
      <Effects />
      <Transitions />
      <BoundProperties>
        <BoundPropertyInt Name="rotateStepNinety" Value="0" />
      </BoundProperties>
    </ImageClip>
    <ImageClip extentID="2102" gapBefore="0" mediaItemID="2098" duration="0.20000000000000001">
      <Effects />
      <Transitions />
      <BoundProperties>
        <BoundPropertyInt Name="rotateStepNinety" Value="0" />
      </BoundProperties>
    </ImageClip>
    <ImageClip extentID="2103" gapBefore="0" mediaItemID="2099" duration="0.20000000000000001">
      <Effects />
      <Transitions />
      <BoundProperties>
        <BoundPropertyInt Name="rotateStepNinety" Value="0" />
      </BoundProperties>
    </ImageClip>
    <ImageClip extentID="2104" gapBefore="0" mediaItemID="2100" duration="0.20000000000000001">
      <Effects />
      <Transitions />
      <BoundProperties>
        <BoundPropertyInt Name="rotateStepNinety" Value="0" />
      </BoundProperties>
    </ImageClip>
    <ImageClip extentID="2105" gapBefore="0" mediaItemID="2101" duration="0.20000000000000001">
      <Effects />
      <Transitions />
      <BoundProperties>
        <BoundPropertyInt Name="rotateStepNinety" Value="0" />
      </BoundProperties>
    </ImageClip>
    <ImageClip extentID="2106" gapBefore="0" mediaItemID="2102" duration="0.20000000000000001">
      <Effects />
      <Transitions />
      <BoundProperties>
        <BoundPropertyInt Name="rotateStepNinety" Value="0" />
      </BoundProperties>
    </ImageClip>
    <ImageClip extentID="2107" gapBefore="0" mediaItemID="2103" duration="0.20000000000000001">
      <Effects />
      <Transitions />
      <BoundProperties>
        <BoundPropertyInt Name="rotateStepNinety" Value="0" />
      </BoundProperties>
    </ImageClip>
    <ImageClip extentID="2108" gapBefore="0" mediaItemID="2104" duration="0.20000000000000001">
      <Effects />
      <Transitions />
      <BoundProperties>
        <BoundPropertyInt Name="rotateStepNinety" Value="0" />
      </BoundProperties>
    </ImageClip>
    <ImageClip extentID="2109" gapBefore="0" mediaItemID="2105" duration="0.20000000000000001">
      <Effects />
      <Transitions />
      <BoundProperties>
        <BoundPropertyInt Name="rotateStepNinety" Value="0" />
      </BoundProperties>
    </ImageClip>
    <ImageClip extentID="2110" gapBefore="0" mediaItemID="2106" duration="0.20000000000000001">
      <Effects />
      <Transitions />
      <BoundProperties>
        <BoundPropertyInt Name="rotateStepNinety" Value="0" />
      </BoundProperties>
    </ImageClip>
    <ImageClip extentID="2111" gapBefore="0" mediaItemID="2107" duration="0.20000000000000001">
      <Effects />
      <Transitions />
      <BoundProperties>
        <BoundPropertyInt Name="rotateStepNinety" Value="0" />
      </BoundProperties>
    </ImageClip>
    <ImageClip extentID="2112" gapBefore="0" mediaItemID="2108" duration="0.20000000000000001">
      <Effects />
      <Transitions />
      <BoundProperties>
        <BoundPropertyInt Name="rotateStepNinety" Value="0" />
      </BoundProperties>
    </ImageClip>
    <ImageClip extentID="2113" gapBefore="0" mediaItemID="2109" duration="0.20000000000000001">
      <Effects />
      <Transitions />
      <BoundProperties>
        <BoundPropertyInt Name="rotateStepNinety" Value="0" />
      </BoundProperties>
    </ImageClip>
    <ImageClip extentID="2114" gapBefore="0" mediaItemID="2110" duration="0.20000000000000001">
      <Effects />
      <Transitions />
      <BoundProperties>
        <BoundPropertyInt Name="rotateStepNinety" Value="0" />
      </BoundProperties>
    </ImageClip>
    <ImageClip extentID="2115" gapBefore="0" mediaItemID="2111" duration="0.20000000000000001">
      <Effects />
      <Transitions />
      <BoundProperties>
        <BoundPropertyInt Name="rotateStepNinety" Value="0" />
      </BoundProperties>
    </ImageClip>
    <ImageClip extentID="2116" gapBefore="0" mediaItemID="2112" duration="0.20000000000000001">
      <Effects />
      <Transitions />
      <BoundProperties>
        <BoundPropertyInt Name="rotateStepNinety" Value="0" />
      </BoundProperties>
    </ImageClip>
    <ImageClip extentID="2117" gapBefore="0" mediaItemID="2113" duration="0.20000000000000001">
      <Effects />
      <Transitions />
      <BoundProperties>
        <BoundPropertyInt Name="rotateStepNinety" Value="0" />
      </BoundProperties>
    </ImageClip>
    <ImageClip extentID="2118" gapBefore="0" mediaItemID="2114" duration="0.20000000000000001">
      <Effects />
      <Transitions />
      <BoundProperties>
        <BoundPropertyInt Name="rotateStepNinety" Value="0" />
      </BoundProperties>
    </ImageClip>
    <ImageClip extentID="2119" gapBefore="0" mediaItemID="2115" duration="0.20000000000000001">
      <Effects />
      <Transitions />
      <BoundProperties>
        <BoundPropertyInt Name="rotateStepNinety" Value="0" />
      </BoundProperties>
    </ImageClip>
    <ImageClip extentID="2120" gapBefore="0" mediaItemID="2116" duration="0.20000000000000001">
      <Effects />
      <Transitions />
      <BoundProperties>
        <BoundPropertyInt Name="rotateStepNinety" Value="0" />
      </BoundProperties>
    </ImageClip>
    <ImageClip extentID="2121" gapBefore="0" mediaItemID="2117" duration="0.20000000000000001">
      <Effects />
      <Transitions />
      <BoundProperties>
        <BoundPropertyInt Name="rotateStepNinety" Value="0" />
      </BoundProperties>
    </ImageClip>
    <ImageClip extentID="2122" gapBefore="0" mediaItemID="2118" duration="0.20000000000000001">
      <Effects />
      <Transitions />
      <BoundProperties>
        <BoundPropertyInt Name="rotateStepNinety" Value="0" />
      </BoundProperties>
    </ImageClip>
    <ImageClip extentID="2123" gapBefore="0" mediaItemID="2119" duration="0.20000000000000001">
      <Effects />
      <Transitions />
      <BoundProperties>
        <BoundPropertyInt Name="rotateStepNinety" Value="0" />
      </BoundProperties>
    </ImageClip>
    <ImageClip extentID="2124" gapBefore="0" mediaItemID="2120" duration="0.20000000000000001">
      <Effects />
      <Transitions />
      <BoundProperties>
        <BoundPropertyInt Name="rotateStepNinety" Value="0" />
      </BoundProperties>
    </ImageClip>
    <ImageClip extentID="2125" gapBefore="0" mediaItemID="2121" duration="0.20000000000000001">
      <Effects />
      <Transitions />
      <BoundProperties>
        <BoundPropertyInt Name="rotateStepNinety" Value="0" />
      </BoundProperties>
    </ImageClip>
    <ImageClip extentID="2126" gapBefore="0" mediaItemID="2122" duration="0.20000000000000001">
      <Effects />
      <Transitions />
      <BoundProperties>
        <BoundPropertyInt Name="rotateStepNinety" Value="0" />
      </BoundProperties>
    </ImageClip>
    <ImageClip extentID="2127" gapBefore="0" mediaItemID="2123" duration="0.20000000000000001">
      <Effects />
      <Transitions />
      <BoundProperties>
        <BoundPropertyInt Name="rotateStepNinety" Value="0" />
      </BoundProperties>
    </ImageClip>
    <ImageClip extentID="2128" gapBefore="0" mediaItemID="2124" duration="0.20000000000000001">
      <Effects />
      <Transitions />
      <BoundProperties>
        <BoundPropertyInt Name="rotateStepNinety" Value="0" />
      </BoundProperties>
    </ImageClip>
    <ImageClip extentID="2129" gapBefore="0" mediaItemID="2125" duration="0.20000000000000001">
      <Effects />
      <Transitions />
      <BoundProperties>
        <BoundPropertyInt Name="rotateStepNinety" Value="0" />
      </BoundProperties>
    </ImageClip>
    <ImageClip extentID="2130" gapBefore="0" mediaItemID="2126" duration="0.20000000000000001">
      <Effects />
      <Transitions />
      <BoundProperties>
        <BoundPropertyInt Name="rotateStepNinety" Value="0" />
      </BoundProperties>
    </ImageClip>
    <ImageClip extentID="2131" gapBefore="0" mediaItemID="2127" duration="0.20000000000000001">
      <Effects />
      <Transitions />
      <BoundProperties>
        <BoundPropertyInt Name="rotateStepNinety" Value="0" />
      </BoundProperties>
    </ImageClip>
    <ImageClip extentID="2132" gapBefore="0" mediaItemID="2128" duration="0.20000000000000001">
      <Effects />
      <Transitions />
      <BoundProperties>
        <BoundPropertyInt Name="rotateStepNinety" Value="0" />
      </BoundProperties>
    </ImageClip>
    <ImageClip extentID="2133" gapBefore="0" mediaItemID="2129" duration="0.20000000000000001">
      <Effects />
      <Transitions />
      <BoundProperties>
        <BoundPropertyInt Name="rotateStepNinety" Value="0" />
      </BoundProperties>
    </ImageClip>
    <ImageClip extentID="2134" gapBefore="0" mediaItemID="2130" duration="0.20000000000000001">
      <Effects />
      <Transitions />
      <BoundProperties>
        <BoundPropertyInt Name="rotateStepNinety" Value="0" />
      </BoundProperties>
    </ImageClip>
    <ImageClip extentID="2135" gapBefore="0" mediaItemID="2131" duration="0.20000000000000001">
      <Effects />
      <Transitions />
      <BoundProperties>
        <BoundPropertyInt Name="rotateStepNinety" Value="0" />
      </BoundProperties>
    </ImageClip>
    <ImageClip extentID="2136" gapBefore="0" mediaItemID="2132" duration="0.20000000000000001">
      <Effects />
      <Transitions />
      <BoundProperties>
        <BoundPropertyInt Name="rotateStepNinety" Value="0" />
      </BoundProperties>
    </ImageClip>
    <ImageClip extentID="2137" gapBefore="0" mediaItemID="2133" duration="0.20000000000000001">
      <Effects />
      <Transitions />
      <BoundProperties>
        <BoundPropertyInt Name="rotateStepNinety" Value="0" />
      </BoundProperties>
    </ImageClip>
    <ImageClip extentID="2138" gapBefore="0" mediaItemID="2134" duration="0.20000000000000001">
      <Effects />
      <Transitions />
      <BoundProperties>
        <BoundPropertyInt Name="rotateStepNinety" Value="0" />
      </BoundProperties>
    </ImageClip>
    <ImageClip extentID="2139" gapBefore="0" mediaItemID="2135" duration="0.20000000000000001">
      <Effects />
      <Transitions />
      <BoundProperties>
        <BoundPropertyInt Name="rotateStepNinety" Value="0" />
      </BoundProperties>
    </ImageClip>
    <ImageClip extentID="2140" gapBefore="0" mediaItemID="2136" duration="0.20000000000000001">
      <Effects />
      <Transitions />
      <BoundProperties>
        <BoundPropertyInt Name="rotateStepNinety" Value="0" />
      </BoundProperties>
    </ImageClip>
    <ImageClip extentID="2141" gapBefore="0" mediaItemID="2137" duration="0.20000000000000001">
      <Effects />
      <Transitions />
      <BoundProperties>
        <BoundPropertyInt Name="rotateStepNinety" Value="0" />
      </BoundProperties>
    </ImageClip>
    <ImageClip extentID="2142" gapBefore="0" mediaItemID="2138" duration="0.20000000000000001">
      <Effects />
      <Transitions />
      <BoundProperties>
        <BoundPropertyInt Name="rotateStepNinety" Value="0" />
      </BoundProperties>
    </ImageClip>
    <ImageClip extentID="2143" gapBefore="0" mediaItemID="2139" duration="0.20000000000000001">
      <Effects />
      <Transitions />
      <BoundProperties>
        <BoundPropertyInt Name="rotateStepNinety" Value="0" />
      </BoundProperties>
    </ImageClip>
    <ImageClip extentID="2144" gapBefore="0" mediaItemID="2140" duration="0.20000000000000001">
      <Effects />
      <Transitions />
      <BoundProperties>
        <BoundPropertyInt Name="rotateStepNinety" Value="0" />
      </BoundProperties>
    </ImageClip>
    <ImageClip extentID="2145" gapBefore="0" mediaItemID="2141" duration="0.20000000000000001">
      <Effects />
      <Transitions />
      <BoundProperties>
        <BoundPropertyInt Name="rotateStepNinety" Value="0" />
      </BoundProperties>
    </ImageClip>
    <ImageClip extentID="2146" gapBefore="0" mediaItemID="2142" duration="0.20000000000000001">
      <Effects />
      <Transitions />
      <BoundProperties>
        <BoundPropertyInt Name="rotateStepNinety" Value="0" />
      </BoundProperties>
    </ImageClip>
    <ImageClip extentID="2147" gapBefore="0" mediaItemID="2143" duration="0.20000000000000001">
      <Effects />
      <Transitions />
      <BoundProperties>
        <BoundPropertyInt Name="rotateStepNinety" Value="0" />
      </BoundProperties>
    </ImageClip>
    <ImageClip extentID="2148" gapBefore="0" mediaItemID="2144" duration="0.20000000000000001">
      <Effects />
      <Transitions />
      <BoundProperties>
        <BoundPropertyInt Name="rotateStepNinety" Value="0" />
      </BoundProperties>
    </ImageClip>
    <ImageClip extentID="2149" gapBefore="0" mediaItemID="2145" duration="0.20000000000000001">
      <Effects />
      <Transitions />
      <BoundProperties>
        <BoundPropertyInt Name="rotateStepNinety" Value="0" />
      </BoundProperties>
    </ImageClip>
    <ImageClip extentID="2150" gapBefore="0" mediaItemID="2146" duration="0.20000000000000001">
      <Effects />
      <Transitions />
      <BoundProperties>
        <BoundPropertyInt Name="rotateStepNinety" Value="0" />
      </BoundProperties>
    </ImageClip>
    <ImageClip extentID="2151" gapBefore="0" mediaItemID="2147" duration="0.20000000000000001">
      <Effects />
      <Transitions />
      <BoundProperties>
        <BoundPropertyInt Name="rotateStepNinety" Value="0" />
      </BoundProperties>
    </ImageClip>
    <ImageClip extentID="2152" gapBefore="0" mediaItemID="2148" duration="0.20000000000000001">
      <Effects />
      <Transitions />
      <BoundProperties>
        <BoundPropertyInt Name="rotateStepNinety" Value="0" />
      </BoundProperties>
    </ImageClip>
    <ImageClip extentID="2153" gapBefore="0" mediaItemID="2149" duration="0.20000000000000001">
      <Effects />
      <Transitions />
      <BoundProperties>
        <BoundPropertyInt Name="rotateStepNinety" Value="0" />
      </BoundProperties>
    </ImageClip>
    <ImageClip extentID="2154" gapBefore="0" mediaItemID="2150" duration="0.20000000000000001">
      <Effects />
      <Transitions />
      <BoundProperties>
        <BoundPropertyInt Name="rotateStepNinety" Value="0" />
      </BoundProperties>
    </ImageClip>
    <ImageClip extentID="2155" gapBefore="0" mediaItemID="2151" duration="0.20000000000000001">
      <Effects />
      <Transitions />
      <BoundProperties>
        <BoundPropertyInt Name="rotateStepNinety" Value="0" />
      </BoundProperties>
    </ImageClip>
    <ImageClip extentID="2156" gapBefore="0" mediaItemID="2152" duration="0.20000000000000001">
      <Effects />
      <Transitions />
      <BoundProperties>
        <BoundPropertyInt Name="rotateStepNinety" Value="0" />
      </BoundProperties>
    </ImageClip>
    <ImageClip extentID="2157" gapBefore="0" mediaItemID="2153" duration="0.20000000000000001">
      <Effects />
      <Transitions />
      <BoundProperties>
        <BoundPropertyInt Name="rotateStepNinety" Value="0" />
      </BoundProperties>
    </ImageClip>
    <ImageClip extentID="2158" gapBefore="0" mediaItemID="2154" duration="0.20000000000000001">
      <Effects />
      <Transitions />
      <BoundProperties>
        <BoundPropertyInt Name="rotateStepNinety" Value="0" />
      </BoundProperties>
    </ImageClip>
    <ImageClip extentID="2159" gapBefore="0" mediaItemID="2155" duration="0.20000000000000001">
      <Effects />
      <Transitions />
      <BoundProperties>
        <BoundPropertyInt Name="rotateStepNinety" Value="0" />
      </BoundProperties>
    </ImageClip>
    <ImageClip extentID="2160" gapBefore="0" mediaItemID="2156" duration="0.20000000000000001">
      <Effects />
      <Transitions />
      <BoundProperties>
        <BoundPropertyInt Name="rotateStepNinety" Value="0" />
      </BoundProperties>
    </ImageClip>
    <ImageClip extentID="2161" gapBefore="0" mediaItemID="2157" duration="0.20000000000000001">
      <Effects />
      <Transitions />
      <BoundProperties>
        <BoundPropertyInt Name="rotateStepNinety" Value="0" />
      </BoundProperties>
    </ImageClip>
    <ImageClip extentID="2162" gapBefore="0" mediaItemID="2158" duration="0.20000000000000001">
      <Effects />
      <Transitions />
      <BoundProperties>
        <BoundPropertyInt Name="rotateStepNinety" Value="0" />
      </BoundProperties>
    </ImageClip>
    <ImageClip extentID="2163" gapBefore="0" mediaItemID="2159" duration="0.20000000000000001">
      <Effects />
      <Transitions />
      <BoundProperties>
        <BoundPropertyInt Name="rotateStepNinety" Value="0" />
      </BoundProperties>
    </ImageClip>
    <ImageClip extentID="2164" gapBefore="0" mediaItemID="2160" duration="0.20000000000000001">
      <Effects />
      <Transitions />
      <BoundProperties>
        <BoundPropertyInt Name="rotateStepNinety" Value="0" />
      </BoundProperties>
    </ImageClip>
    <ImageClip extentID="2165" gapBefore="0" mediaItemID="2161" duration="0.20000000000000001">
      <Effects />
      <Transitions />
      <BoundProperties>
        <BoundPropertyInt Name="rotateStepNinety" Value="0" />
      </BoundProperties>
    </ImageClip>
    <ImageClip extentID="2166" gapBefore="0" mediaItemID="2162" duration="0.20000000000000001">
      <Effects />
      <Transitions />
      <BoundProperties>
        <BoundPropertyInt Name="rotateStepNinety" Value="0" />
      </BoundProperties>
    </ImageClip>
    <ImageClip extentID="2167" gapBefore="0" mediaItemID="2163" duration="0.20000000000000001">
      <Effects />
      <Transitions />
      <BoundProperties>
        <BoundPropertyInt Name="rotateStepNinety" Value="0" />
      </BoundProperties>
    </ImageClip>
    <ImageClip extentID="2168" gapBefore="0" mediaItemID="2164" duration="0.20000000000000001">
      <Effects />
      <Transitions />
      <BoundProperties>
        <BoundPropertyInt Name="rotateStepNinety" Value="0" />
      </BoundProperties>
    </ImageClip>
    <ImageClip extentID="2169" gapBefore="0" mediaItemID="2165" duration="0.20000000000000001">
      <Effects />
      <Transitions />
      <BoundProperties>
        <BoundPropertyInt Name="rotateStepNinety" Value="0" />
      </BoundProperties>
    </ImageClip>
    <ImageClip extentID="2170" gapBefore="0" mediaItemID="2166" duration="0.20000000000000001">
      <Effects />
      <Transitions />
      <BoundProperties>
        <BoundPropertyInt Name="rotateStepNinety" Value="0" />
      </BoundProperties>
    </ImageClip>
    <ImageClip extentID="2171" gapBefore="0" mediaItemID="2167" duration="0.20000000000000001">
      <Effects />
      <Transitions />
      <BoundProperties>
        <BoundPropertyInt Name="rotateStepNinety" Value="0" />
      </BoundProperties>
    </ImageClip>
    <ImageClip extentID="2172" gapBefore="0" mediaItemID="2168" duration="0.20000000000000001">
      <Effects />
      <Transitions />
      <BoundProperties>
        <BoundPropertyInt Name="rotateStepNinety" Value="0" />
      </BoundProperties>
    </ImageClip>
    <ImageClip extentID="2173" gapBefore="0" mediaItemID="2169" duration="0.20000000000000001">
      <Effects />
      <Transitions />
      <BoundProperties>
        <BoundPropertyInt Name="rotateStepNinety" Value="0" />
      </BoundProperties>
    </ImageClip>
    <ImageClip extentID="2174" gapBefore="0" mediaItemID="2170" duration="0.20000000000000001">
      <Effects />
      <Transitions />
      <BoundProperties>
        <BoundPropertyInt Name="rotateStepNinety" Value="0" />
      </BoundProperties>
    </ImageClip>
    <ImageClip extentID="2175" gapBefore="0" mediaItemID="2171" duration="0.20000000000000001">
      <Effects />
      <Transitions />
      <BoundProperties>
        <BoundPropertyInt Name="rotateStepNinety" Value="0" />
      </BoundProperties>
    </ImageClip>
    <ImageClip extentID="2176" gapBefore="0" mediaItemID="2172" duration="0.20000000000000001">
      <Effects />
      <Transitions />
      <BoundProperties>
        <BoundPropertyInt Name="rotateStepNinety" Value="0" />
      </BoundProperties>
    </ImageClip>
    <ImageClip extentID="2177" gapBefore="0" mediaItemID="2173" duration="0.20000000000000001">
      <Effects />
      <Transitions />
      <BoundProperties>
        <BoundPropertyInt Name="rotateStepNinety" Value="0" />
      </BoundProperties>
    </ImageClip>
    <ImageClip extentID="2178" gapBefore="0" mediaItemID="2174" duration="0.20000000000000001">
      <Effects />
      <Transitions />
      <BoundProperties>
        <BoundPropertyInt Name="rotateStepNinety" Value="0" />
      </BoundProperties>
    </ImageClip>
    <ImageClip extentID="2179" gapBefore="0" mediaItemID="2175" duration="0.20000000000000001">
      <Effects />
      <Transitions />
      <BoundProperties>
        <BoundPropertyInt Name="rotateStepNinety" Value="0" />
      </BoundProperties>
    </ImageClip>
    <ImageClip extentID="2180" gapBefore="0" mediaItemID="2176" duration="0.20000000000000001">
      <Effects />
      <Transitions />
      <BoundProperties>
        <BoundPropertyInt Name="rotateStepNinety" Value="0" />
      </BoundProperties>
    </ImageClip>
    <ImageClip extentID="2181" gapBefore="0" mediaItemID="2177" duration="0.20000000000000001">
      <Effects />
      <Transitions />
      <BoundProperties>
        <BoundPropertyInt Name="rotateStepNinety" Value="0" />
      </BoundProperties>
    </ImageClip>
    <ImageClip extentID="2182" gapBefore="0" mediaItemID="2178" duration="0.20000000000000001">
      <Effects />
      <Transitions />
      <BoundProperties>
        <BoundPropertyInt Name="rotateStepNinety" Value="0" />
      </BoundProperties>
    </ImageClip>
    <ImageClip extentID="2183" gapBefore="0" mediaItemID="2179" duration="0.20000000000000001">
      <Effects />
      <Transitions />
      <BoundProperties>
        <BoundPropertyInt Name="rotateStepNinety" Value="0" />
      </BoundProperties>
    </ImageClip>
    <ImageClip extentID="2184" gapBefore="0" mediaItemID="2180" duration="0.20000000000000001">
      <Effects />
      <Transitions />
      <BoundProperties>
        <BoundPropertyInt Name="rotateStepNinety" Value="0" />
      </BoundProperties>
    </ImageClip>
    <ImageClip extentID="2185" gapBefore="0" mediaItemID="2181" duration="0.20000000000000001">
      <Effects />
      <Transitions />
      <BoundProperties>
        <BoundPropertyInt Name="rotateStepNinety" Value="0" />
      </BoundProperties>
    </ImageClip>
    <ImageClip extentID="2186" gapBefore="0" mediaItemID="2182" duration="0.20000000000000001">
      <Effects />
      <Transitions />
      <BoundProperties>
        <BoundPropertyInt Name="rotateStepNinety" Value="0" />
      </BoundProperties>
    </ImageClip>
    <ImageClip extentID="2187" gapBefore="0" mediaItemID="2183" duration="0.20000000000000001">
      <Effects />
      <Transitions />
      <BoundProperties>
        <BoundPropertyInt Name="rotateStepNinety" Value="0" />
      </BoundProperties>
    </ImageClip>
    <ImageClip extentID="2188" gapBefore="0" mediaItemID="2184" duration="0.20000000000000001">
      <Effects />
      <Transitions />
      <BoundProperties>
        <BoundPropertyInt Name="rotateStepNinety" Value="0" />
      </BoundProperties>
    </ImageClip>
    <ImageClip extentID="2189" gapBefore="0" mediaItemID="2185" duration="0.20000000000000001">
      <Effects />
      <Transitions />
      <BoundProperties>
        <BoundPropertyInt Name="rotateStepNinety" Value="0" />
      </BoundProperties>
    </ImageClip>
    <ImageClip extentID="2190" gapBefore="0" mediaItemID="2186" duration="0.20000000000000001">
      <Effects />
      <Transitions />
      <BoundProperties>
        <BoundPropertyInt Name="rotateStepNinety" Value="0" />
      </BoundProperties>
    </ImageClip>
    <ImageClip extentID="2191" gapBefore="0" mediaItemID="2187" duration="0.20000000000000001">
      <Effects />
      <Transitions />
      <BoundProperties>
        <BoundPropertyInt Name="rotateStepNinety" Value="0" />
      </BoundProperties>
    </ImageClip>
    <ImageClip extentID="2192" gapBefore="0" mediaItemID="2188" duration="0.20000000000000001">
      <Effects />
      <Transitions />
      <BoundProperties>
        <BoundPropertyInt Name="rotateStepNinety" Value="0" />
      </BoundProperties>
    </ImageClip>
    <ImageClip extentID="2193" gapBefore="0" mediaItemID="2189" duration="0.20000000000000001">
      <Effects />
      <Transitions />
      <BoundProperties>
        <BoundPropertyInt Name="rotateStepNinety" Value="0" />
      </BoundProperties>
    </ImageClip>
    <ImageClip extentID="2194" gapBefore="0" mediaItemID="2190" duration="0.20000000000000001">
      <Effects />
      <Transitions />
      <BoundProperties>
        <BoundPropertyInt Name="rotateStepNinety" Value="0" />
      </BoundProperties>
    </ImageClip>
    <ImageClip extentID="2195" gapBefore="0" mediaItemID="2191" duration="0.20000000000000001">
      <Effects />
      <Transitions />
      <BoundProperties>
        <BoundPropertyInt Name="rotateStepNinety" Value="0" />
      </BoundProperties>
    </ImageClip>
    <ImageClip extentID="2196" gapBefore="0" mediaItemID="2192" duration="0.20000000000000001">
      <Effects />
      <Transitions />
      <BoundProperties>
        <BoundPropertyInt Name="rotateStepNinety" Value="0" />
      </BoundProperties>
    </ImageClip>
    <ImageClip extentID="2197" gapBefore="0" mediaItemID="2193" duration="0.20000000000000001">
      <Effects />
      <Transitions />
      <BoundProperties>
        <BoundPropertyInt Name="rotateStepNinety" Value="0" />
      </BoundProperties>
    </ImageClip>
    <ImageClip extentID="2198" gapBefore="0" mediaItemID="2194" duration="0.20000000000000001">
      <Effects />
      <Transitions />
      <BoundProperties>
        <BoundPropertyInt Name="rotateStepNinety" Value="0" />
      </BoundProperties>
    </ImageClip>
    <ImageClip extentID="2199" gapBefore="0" mediaItemID="2195" duration="0.20000000000000001">
      <Effects />
      <Transitions />
      <BoundProperties>
        <BoundPropertyInt Name="rotateStepNinety" Value="0" />
      </BoundProperties>
    </ImageClip>
    <ImageClip extentID="2200" gapBefore="0" mediaItemID="2196" duration="0.20000000000000001">
      <Effects />
      <Transitions />
      <BoundProperties>
        <BoundPropertyInt Name="rotateStepNinety" Value="0" />
      </BoundProperties>
    </ImageClip>
    <ImageClip extentID="2201" gapBefore="0" mediaItemID="2197" duration="0.20000000000000001">
      <Effects />
      <Transitions />
      <BoundProperties>
        <BoundPropertyInt Name="rotateStepNinety" Value="0" />
      </BoundProperties>
    </ImageClip>
    <ImageClip extentID="2202" gapBefore="0" mediaItemID="2198" duration="0.20000000000000001">
      <Effects />
      <Transitions />
      <BoundProperties>
        <BoundPropertyInt Name="rotateStepNinety" Value="0" />
      </BoundProperties>
    </ImageClip>
    <ImageClip extentID="2203" gapBefore="0" mediaItemID="2199" duration="0.20000000000000001">
      <Effects />
      <Transitions />
      <BoundProperties>
        <BoundPropertyInt Name="rotateStepNinety" Value="0" />
      </BoundProperties>
    </ImageClip>
    <ImageClip extentID="2204" gapBefore="0" mediaItemID="2200" duration="0.20000000000000001">
      <Effects />
      <Transitions />
      <BoundProperties>
        <BoundPropertyInt Name="rotateStepNinety" Value="0" />
      </BoundProperties>
    </ImageClip>
    <ImageClip extentID="2205" gapBefore="0" mediaItemID="2201" duration="0.20000000000000001">
      <Effects />
      <Transitions />
      <BoundProperties>
        <BoundPropertyInt Name="rotateStepNinety" Value="0" />
      </BoundProperties>
    </ImageClip>
    <ImageClip extentID="2206" gapBefore="0" mediaItemID="2202" duration="0.20000000000000001">
      <Effects />
      <Transitions />
      <BoundProperties>
        <BoundPropertyInt Name="rotateStepNinety" Value="0" />
      </BoundProperties>
    </ImageClip>
    <ImageClip extentID="2207" gapBefore="0" mediaItemID="2203" duration="0.20000000000000001">
      <Effects />
      <Transitions />
      <BoundProperties>
        <BoundPropertyInt Name="rotateStepNinety" Value="0" />
      </BoundProperties>
    </ImageClip>
    <ImageClip extentID="2208" gapBefore="0" mediaItemID="2204" duration="0.20000000000000001">
      <Effects />
      <Transitions />
      <BoundProperties>
        <BoundPropertyInt Name="rotateStepNinety" Value="0" />
      </BoundProperties>
    </ImageClip>
    <ImageClip extentID="2209" gapBefore="0" mediaItemID="2205" duration="0.20000000000000001">
      <Effects />
      <Transitions />
      <BoundProperties>
        <BoundPropertyInt Name="rotateStepNinety" Value="0" />
      </BoundProperties>
    </ImageClip>
    <ImageClip extentID="2210" gapBefore="0" mediaItemID="2206" duration="0.20000000000000001">
      <Effects />
      <Transitions />
      <BoundProperties>
        <BoundPropertyInt Name="rotateStepNinety" Value="0" />
      </BoundProperties>
    </ImageClip>
    <ImageClip extentID="2211" gapBefore="0" mediaItemID="2207" duration="0.20000000000000001">
      <Effects />
      <Transitions />
      <BoundProperties>
        <BoundPropertyInt Name="rotateStepNinety" Value="0" />
      </BoundProperties>
    </ImageClip>
    <ImageClip extentID="2212" gapBefore="0" mediaItemID="2208" duration="0.20000000000000001">
      <Effects />
      <Transitions />
      <BoundProperties>
        <BoundPropertyInt Name="rotateStepNinety" Value="0" />
      </BoundProperties>
    </ImageClip>
    <ImageClip extentID="2213" gapBefore="0" mediaItemID="2209" duration="0.20000000000000001">
      <Effects />
      <Transitions />
      <BoundProperties>
        <BoundPropertyInt Name="rotateStepNinety" Value="0" />
      </BoundProperties>
    </ImageClip>
    <ImageClip extentID="2214" gapBefore="0" mediaItemID="2210" duration="0.20000000000000001">
      <Effects />
      <Transitions />
      <BoundProperties>
        <BoundPropertyInt Name="rotateStepNinety" Value="0" />
      </BoundProperties>
    </ImageClip>
    <ImageClip extentID="2215" gapBefore="0" mediaItemID="2211" duration="0.20000000000000001">
      <Effects />
      <Transitions />
      <BoundProperties>
        <BoundPropertyInt Name="rotateStepNinety" Value="0" />
      </BoundProperties>
    </ImageClip>
    <ImageClip extentID="2216" gapBefore="0" mediaItemID="2212" duration="0.20000000000000001">
      <Effects />
      <Transitions />
      <BoundProperties>
        <BoundPropertyInt Name="rotateStepNinety" Value="0" />
      </BoundProperties>
    </ImageClip>
    <ImageClip extentID="2217" gapBefore="0" mediaItemID="2213" duration="0.20000000000000001">
      <Effects />
      <Transitions />
      <BoundProperties>
        <BoundPropertyInt Name="rotateStepNinety" Value="0" />
      </BoundProperties>
    </ImageClip>
    <ImageClip extentID="2218" gapBefore="0" mediaItemID="2214" duration="0.20000000000000001">
      <Effects />
      <Transitions />
      <BoundProperties>
        <BoundPropertyInt Name="rotateStepNinety" Value="0" />
      </BoundProperties>
    </ImageClip>
    <ImageClip extentID="2219" gapBefore="0" mediaItemID="2215" duration="0.20000000000000001">
      <Effects />
      <Transitions />
      <BoundProperties>
        <BoundPropertyInt Name="rotateStepNinety" Value="0" />
      </BoundProperties>
    </ImageClip>
    <ImageClip extentID="2220" gapBefore="0" mediaItemID="2216" duration="0.20000000000000001">
      <Effects />
      <Transitions />
      <BoundProperties>
        <BoundPropertyInt Name="rotateStepNinety" Value="0" />
      </BoundProperties>
    </ImageClip>
    <ImageClip extentID="2221" gapBefore="0" mediaItemID="2217" duration="0.20000000000000001">
      <Effects />
      <Transitions />
      <BoundProperties>
        <BoundPropertyInt Name="rotateStepNinety" Value="0" />
      </BoundProperties>
    </ImageClip>
    <ImageClip extentID="2222" gapBefore="0" mediaItemID="2218" duration="0.20000000000000001">
      <Effects />
      <Transitions />
      <BoundProperties>
        <BoundPropertyInt Name="rotateStepNinety" Value="0" />
      </BoundProperties>
    </ImageClip>
    <ImageClip extentID="2223" gapBefore="0" mediaItemID="2219" duration="0.20000000000000001">
      <Effects />
      <Transitions />
      <BoundProperties>
        <BoundPropertyInt Name="rotateStepNinety" Value="0" />
      </BoundProperties>
    </ImageClip>
    <ImageClip extentID="2224" gapBefore="0" mediaItemID="2220" duration="0.20000000000000001">
      <Effects />
      <Transitions />
      <BoundProperties>
        <BoundPropertyInt Name="rotateStepNinety" Value="0" />
      </BoundProperties>
    </ImageClip>
    <ImageClip extentID="2225" gapBefore="0" mediaItemID="2221" duration="0.20000000000000001">
      <Effects />
      <Transitions />
      <BoundProperties>
        <BoundPropertyInt Name="rotateStepNinety" Value="0" />
      </BoundProperties>
    </ImageClip>
    <ImageClip extentID="2226" gapBefore="0" mediaItemID="2222" duration="0.20000000000000001">
      <Effects />
      <Transitions />
      <BoundProperties>
        <BoundPropertyInt Name="rotateStepNinety" Value="0" />
      </BoundProperties>
    </ImageClip>
    <ImageClip extentID="2227" gapBefore="0" mediaItemID="2223" duration="0.20000000000000001">
      <Effects />
      <Transitions />
      <BoundProperties>
        <BoundPropertyInt Name="rotateStepNinety" Value="0" />
      </BoundProperties>
    </ImageClip>
    <ImageClip extentID="2228" gapBefore="0" mediaItemID="2224" duration="0.20000000000000001">
      <Effects />
      <Transitions />
      <BoundProperties>
        <BoundPropertyInt Name="rotateStepNinety" Value="0" />
      </BoundProperties>
    </ImageClip>
    <ImageClip extentID="2229" gapBefore="0" mediaItemID="2225" duration="0.20000000000000001">
      <Effects />
      <Transitions />
      <BoundProperties>
        <BoundPropertyInt Name="rotateStepNinety" Value="0" />
      </BoundProperties>
    </ImageClip>
    <ImageClip extentID="2230" gapBefore="0" mediaItemID="2226" duration="0.20000000000000001">
      <Effects />
      <Transitions />
      <BoundProperties>
        <BoundPropertyInt Name="rotateStepNinety" Value="0" />
      </BoundProperties>
    </ImageClip>
    <ImageClip extentID="2231" gapBefore="0" mediaItemID="2227" duration="0.20000000000000001">
      <Effects />
      <Transitions />
      <BoundProperties>
        <BoundPropertyInt Name="rotateStepNinety" Value="0" />
      </BoundProperties>
    </ImageClip>
    <ImageClip extentID="2232" gapBefore="0" mediaItemID="2228" duration="0.20000000000000001">
      <Effects />
      <Transitions />
      <BoundProperties>
        <BoundPropertyInt Name="rotateStepNinety" Value="0" />
      </BoundProperties>
    </ImageClip>
    <ImageClip extentID="2233" gapBefore="0" mediaItemID="2229" duration="0.20000000000000001">
      <Effects />
      <Transitions />
      <BoundProperties>
        <BoundPropertyInt Name="rotateStepNinety" Value="0" />
      </BoundProperties>
    </ImageClip>
    <ImageClip extentID="2234" gapBefore="0" mediaItemID="2230" duration="0.20000000000000001">
      <Effects />
      <Transitions />
      <BoundProperties>
        <BoundPropertyInt Name="rotateStepNinety" Value="0" />
      </BoundProperties>
    </ImageClip>
    <ImageClip extentID="2235" gapBefore="0" mediaItemID="2231" duration="0.20000000000000001">
      <Effects />
      <Transitions />
      <BoundProperties>
        <BoundPropertyInt Name="rotateStepNinety" Value="0" />
      </BoundProperties>
    </ImageClip>
    <ImageClip extentID="2236" gapBefore="0" mediaItemID="2232" duration="0.20000000000000001">
      <Effects />
      <Transitions />
      <BoundProperties>
        <BoundPropertyInt Name="rotateStepNinety" Value="0" />
      </BoundProperties>
    </ImageClip>
    <ImageClip extentID="2237" gapBefore="0" mediaItemID="2233" duration="0.20000000000000001">
      <Effects />
      <Transitions />
      <BoundProperties>
        <BoundPropertyInt Name="rotateStepNinety" Value="0" />
      </BoundProperties>
    </ImageClip>
    <ImageClip extentID="2238" gapBefore="0" mediaItemID="2234" duration="0.20000000000000001">
      <Effects />
      <Transitions />
      <BoundProperties>
        <BoundPropertyInt Name="rotateStepNinety" Value="0" />
      </BoundProperties>
    </ImageClip>
    <ImageClip extentID="2239" gapBefore="0" mediaItemID="2235" duration="0.20000000000000001">
      <Effects />
      <Transitions />
      <BoundProperties>
        <BoundPropertyInt Name="rotateStepNinety" Value="0" />
      </BoundProperties>
    </ImageClip>
    <ImageClip extentID="2240" gapBefore="0" mediaItemID="2236" duration="0.20000000000000001">
      <Effects />
      <Transitions />
      <BoundProperties>
        <BoundPropertyInt Name="rotateStepNinety" Value="0" />
      </BoundProperties>
    </ImageClip>
    <ImageClip extentID="2241" gapBefore="0" mediaItemID="2237" duration="0.20000000000000001">
      <Effects />
      <Transitions />
      <BoundProperties>
        <BoundPropertyInt Name="rotateStepNinety" Value="0" />
      </BoundProperties>
    </ImageClip>
    <ImageClip extentID="2242" gapBefore="0" mediaItemID="2238" duration="0.20000000000000001">
      <Effects />
      <Transitions />
      <BoundProperties>
        <BoundPropertyInt Name="rotateStepNinety" Value="0" />
      </BoundProperties>
    </ImageClip>
    <ImageClip extentID="2243" gapBefore="0" mediaItemID="2239" duration="0.20000000000000001">
      <Effects />
      <Transitions />
      <BoundProperties>
        <BoundPropertyInt Name="rotateStepNinety" Value="0" />
      </BoundProperties>
    </ImageClip>
    <ImageClip extentID="2244" gapBefore="0" mediaItemID="2240" duration="0.20000000000000001">
      <Effects />
      <Transitions />
      <BoundProperties>
        <BoundPropertyInt Name="rotateStepNinety" Value="0" />
      </BoundProperties>
    </ImageClip>
    <ImageClip extentID="2245" gapBefore="0" mediaItemID="2241" duration="0.20000000000000001">
      <Effects />
      <Transitions />
      <BoundProperties>
        <BoundPropertyInt Name="rotateStepNinety" Value="0" />
      </BoundProperties>
    </ImageClip>
    <ImageClip extentID="2246" gapBefore="0" mediaItemID="2242" duration="0.20000000000000001">
      <Effects />
      <Transitions />
      <BoundProperties>
        <BoundPropertyInt Name="rotateStepNinety" Value="0" />
      </BoundProperties>
    </ImageClip>
    <ImageClip extentID="2247" gapBefore="0" mediaItemID="2243" duration="0.20000000000000001">
      <Effects />
      <Transitions />
      <BoundProperties>
        <BoundPropertyInt Name="rotateStepNinety" Value="0" />
      </BoundProperties>
    </ImageClip>
    <ImageClip extentID="2248" gapBefore="0" mediaItemID="2244" duration="0.20000000000000001">
      <Effects />
      <Transitions />
      <BoundProperties>
        <BoundPropertyInt Name="rotateStepNinety" Value="0" />
      </BoundProperties>
    </ImageClip>
    <ImageClip extentID="2249" gapBefore="0" mediaItemID="2245" duration="0.20000000000000001">
      <Effects />
      <Transitions />
      <BoundProperties>
        <BoundPropertyInt Name="rotateStepNinety" Value="0" />
      </BoundProperties>
    </ImageClip>
    <ImageClip extentID="2250" gapBefore="0" mediaItemID="2246" duration="0.20000000000000001">
      <Effects />
      <Transitions />
      <BoundProperties>
        <BoundPropertyInt Name="rotateStepNinety" Value="0" />
      </BoundProperties>
    </ImageClip>
    <ImageClip extentID="2251" gapBefore="0" mediaItemID="2247" duration="0.20000000000000001">
      <Effects />
      <Transitions />
      <BoundProperties>
        <BoundPropertyInt Name="rotateStepNinety" Value="0" />
      </BoundProperties>
    </ImageClip>
    <ImageClip extentID="2252" gapBefore="0" mediaItemID="2248" duration="0.20000000000000001">
      <Effects />
      <Transitions />
      <BoundProperties>
        <BoundPropertyInt Name="rotateStepNinety" Value="0" />
      </BoundProperties>
    </ImageClip>
    <ImageClip extentID="2253" gapBefore="0" mediaItemID="2249" duration="0.20000000000000001">
      <Effects />
      <Transitions />
      <BoundProperties>
        <BoundPropertyInt Name="rotateStepNinety" Value="0" />
      </BoundProperties>
    </ImageClip>
    <ImageClip extentID="2254" gapBefore="0" mediaItemID="2250" duration="0.20000000000000001">
      <Effects />
      <Transitions />
      <BoundProperties>
        <BoundPropertyInt Name="rotateStepNinety" Value="0" />
      </BoundProperties>
    </ImageClip>
    <ImageClip extentID="2255" gapBefore="0" mediaItemID="2251" duration="0.20000000000000001">
      <Effects />
      <Transitions />
      <BoundProperties>
        <BoundPropertyInt Name="rotateStepNinety" Value="0" />
      </BoundProperties>
    </ImageClip>
    <ImageClip extentID="2256" gapBefore="0" mediaItemID="2252" duration="0.20000000000000001">
      <Effects />
      <Transitions />
      <BoundProperties>
        <BoundPropertyInt Name="rotateStepNinety" Value="0" />
      </BoundProperties>
    </ImageClip>
    <ImageClip extentID="2257" gapBefore="0" mediaItemID="2253" duration="0.20000000000000001">
      <Effects />
      <Transitions />
      <BoundProperties>
        <BoundPropertyInt Name="rotateStepNinety" Value="0" />
      </BoundProperties>
    </ImageClip>
    <ImageClip extentID="2258" gapBefore="0" mediaItemID="2254" duration="0.20000000000000001">
      <Effects />
      <Transitions />
      <BoundProperties>
        <BoundPropertyInt Name="rotateStepNinety" Value="0" />
      </BoundProperties>
    </ImageClip>
    <ImageClip extentID="2259" gapBefore="0" mediaItemID="2255" duration="0.20000000000000001">
      <Effects />
      <Transitions />
      <BoundProperties>
        <BoundPropertyInt Name="rotateStepNinety" Value="0" />
      </BoundProperties>
    </ImageClip>
    <ImageClip extentID="2260" gapBefore="0" mediaItemID="2256" duration="0.20000000000000001">
      <Effects />
      <Transitions />
      <BoundProperties>
        <BoundPropertyInt Name="rotateStepNinety" Value="0" />
      </BoundProperties>
    </ImageClip>
    <ImageClip extentID="2261" gapBefore="0" mediaItemID="2257" duration="0.20000000000000001">
      <Effects />
      <Transitions />
      <BoundProperties>
        <BoundPropertyInt Name="rotateStepNinety" Value="0" />
      </BoundProperties>
    </ImageClip>
    <ImageClip extentID="2262" gapBefore="0" mediaItemID="2258" duration="0.20000000000000001">
      <Effects />
      <Transitions />
      <BoundProperties>
        <BoundPropertyInt Name="rotateStepNinety" Value="0" />
      </BoundProperties>
    </ImageClip>
    <ImageClip extentID="2263" gapBefore="0" mediaItemID="2259" duration="0.20000000000000001">
      <Effects />
      <Transitions />
      <BoundProperties>
        <BoundPropertyInt Name="rotateStepNinety" Value="0" />
      </BoundProperties>
    </ImageClip>
    <ImageClip extentID="2264" gapBefore="0" mediaItemID="2260" duration="0.20000000000000001">
      <Effects />
      <Transitions />
      <BoundProperties>
        <BoundPropertyInt Name="rotateStepNinety" Value="0" />
      </BoundProperties>
    </ImageClip>
    <ImageClip extentID="2265" gapBefore="0" mediaItemID="2261" duration="0.20000000000000001">
      <Effects />
      <Transitions />
      <BoundProperties>
        <BoundPropertyInt Name="rotateStepNinety" Value="0" />
      </BoundProperties>
    </ImageClip>
    <ImageClip extentID="2266" gapBefore="0" mediaItemID="2262" duration="0.20000000000000001">
      <Effects />
      <Transitions />
      <BoundProperties>
        <BoundPropertyInt Name="rotateStepNinety" Value="0" />
      </BoundProperties>
    </ImageClip>
    <ImageClip extentID="2267" gapBefore="0" mediaItemID="2263" duration="0.20000000000000001">
      <Effects />
      <Transitions />
      <BoundProperties>
        <BoundPropertyInt Name="rotateStepNinety" Value="0" />
      </BoundProperties>
    </ImageClip>
    <ImageClip extentID="2268" gapBefore="0" mediaItemID="2264" duration="0.20000000000000001">
      <Effects />
      <Transitions />
      <BoundProperties>
        <BoundPropertyInt Name="rotateStepNinety" Value="0" />
      </BoundProperties>
    </ImageClip>
    <ImageClip extentID="2269" gapBefore="0" mediaItemID="2265" duration="0.20000000000000001">
      <Effects />
      <Transitions />
      <BoundProperties>
        <BoundPropertyInt Name="rotateStepNinety" Value="0" />
      </BoundProperties>
    </ImageClip>
    <ImageClip extentID="2270" gapBefore="0" mediaItemID="2266" duration="0.20000000000000001">
      <Effects />
      <Transitions />
      <BoundProperties>
        <BoundPropertyInt Name="rotateStepNinety" Value="0" />
      </BoundProperties>
    </ImageClip>
    <ImageClip extentID="2271" gapBefore="0" mediaItemID="2267" duration="0.20000000000000001">
      <Effects />
      <Transitions />
      <BoundProperties>
        <BoundPropertyInt Name="rotateStepNinety" Value="0" />
      </BoundProperties>
    </ImageClip>
    <ImageClip extentID="2272" gapBefore="0" mediaItemID="2268" duration="0.20000000000000001">
      <Effects />
      <Transitions />
      <BoundProperties>
        <BoundPropertyInt Name="rotateStepNinety" Value="0" />
      </BoundProperties>
    </ImageClip>
    <ImageClip extentID="2273" gapBefore="0" mediaItemID="2269" duration="0.20000000000000001">
      <Effects />
      <Transitions />
      <BoundProperties>
        <BoundPropertyInt Name="rotateStepNinety" Value="0" />
      </BoundProperties>
    </ImageClip>
    <ImageClip extentID="2274" gapBefore="0" mediaItemID="2270" duration="0.20000000000000001">
      <Effects />
      <Transitions />
      <BoundProperties>
        <BoundPropertyInt Name="rotateStepNinety" Value="0" />
      </BoundProperties>
    </ImageClip>
    <ImageClip extentID="2275" gapBefore="0" mediaItemID="2271" duration="0.20000000000000001">
      <Effects />
      <Transitions />
      <BoundProperties>
        <BoundPropertyInt Name="rotateStepNinety" Value="0" />
      </BoundProperties>
    </ImageClip>
    <ImageClip extentID="2276" gapBefore="0" mediaItemID="2272" duration="0.20000000000000001">
      <Effects />
      <Transitions />
      <BoundProperties>
        <BoundPropertyInt Name="rotateStepNinety" Value="0" />
      </BoundProperties>
    </ImageClip>
    <ImageClip extentID="2277" gapBefore="0" mediaItemID="2273" duration="0.20000000000000001">
      <Effects />
      <Transitions />
      <BoundProperties>
        <BoundPropertyInt Name="rotateStepNinety" Value="0" />
      </BoundProperties>
    </ImageClip>
    <ImageClip extentID="2278" gapBefore="0" mediaItemID="2274" duration="0.20000000000000001">
      <Effects />
      <Transitions />
      <BoundProperties>
        <BoundPropertyInt Name="rotateStepNinety" Value="0" />
      </BoundProperties>
    </ImageClip>
    <ImageClip extentID="2279" gapBefore="0" mediaItemID="2275" duration="0.20000000000000001">
      <Effects />
      <Transitions />
      <BoundProperties>
        <BoundPropertyInt Name="rotateStepNinety" Value="0" />
      </BoundProperties>
    </ImageClip>
    <ImageClip extentID="2280" gapBefore="0" mediaItemID="2276" duration="0.20000000000000001">
      <Effects />
      <Transitions />
      <BoundProperties>
        <BoundPropertyInt Name="rotateStepNinety" Value="0" />
      </BoundProperties>
    </ImageClip>
    <ImageClip extentID="2281" gapBefore="0" mediaItemID="2277" duration="0.20000000000000001">
      <Effects />
      <Transitions />
      <BoundProperties>
        <BoundPropertyInt Name="rotateStepNinety" Value="0" />
      </BoundProperties>
    </ImageClip>
    <ImageClip extentID="2282" gapBefore="0" mediaItemID="2278" duration="0.20000000000000001">
      <Effects />
      <Transitions />
      <BoundProperties>
        <BoundPropertyInt Name="rotateStepNinety" Value="0" />
      </BoundProperties>
    </ImageClip>
    <ImageClip extentID="2283" gapBefore="0" mediaItemID="2279" duration="0.20000000000000001">
      <Effects />
      <Transitions />
      <BoundProperties>
        <BoundPropertyInt Name="rotateStepNinety" Value="0" />
      </BoundProperties>
    </ImageClip>
    <ImageClip extentID="2284" gapBefore="0" mediaItemID="2280" duration="0.20000000000000001">
      <Effects />
      <Transitions />
      <BoundProperties>
        <BoundPropertyInt Name="rotateStepNinety" Value="0" />
      </BoundProperties>
    </ImageClip>
    <ImageClip extentID="2285" gapBefore="0" mediaItemID="2281" duration="0.20000000000000001">
      <Effects />
      <Transitions />
      <BoundProperties>
        <BoundPropertyInt Name="rotateStepNinety" Value="0" />
      </BoundProperties>
    </ImageClip>
    <ImageClip extentID="2286" gapBefore="0" mediaItemID="2282" duration="0.20000000000000001">
      <Effects />
      <Transitions />
      <BoundProperties>
        <BoundPropertyInt Name="rotateStepNinety" Value="0" />
      </BoundProperties>
    </ImageClip>
    <ImageClip extentID="2287" gapBefore="0" mediaItemID="2283" duration="0.20000000000000001">
      <Effects />
      <Transitions />
      <BoundProperties>
        <BoundPropertyInt Name="rotateStepNinety" Value="0" />
      </BoundProperties>
    </ImageClip>
    <ImageClip extentID="2288" gapBefore="0" mediaItemID="2284" duration="0.20000000000000001">
      <Effects />
      <Transitions />
      <BoundProperties>
        <BoundPropertyInt Name="rotateStepNinety" Value="0" />
      </BoundProperties>
    </ImageClip>
    <ImageClip extentID="2289" gapBefore="0" mediaItemID="2285" duration="0.20000000000000001">
      <Effects />
      <Transitions />
      <BoundProperties>
        <BoundPropertyInt Name="rotateStepNinety" Value="0" />
      </BoundProperties>
    </ImageClip>
    <ImageClip extentID="2290" gapBefore="0" mediaItemID="2286" duration="0.20000000000000001">
      <Effects />
      <Transitions />
      <BoundProperties>
        <BoundPropertyInt Name="rotateStepNinety" Value="0" />
      </BoundProperties>
    </ImageClip>
    <ImageClip extentID="2291" gapBefore="0" mediaItemID="2287" duration="0.20000000000000001">
      <Effects />
      <Transitions />
      <BoundProperties>
        <BoundPropertyInt Name="rotateStepNinety" Value="0" />
      </BoundProperties>
    </ImageClip>
    <ImageClip extentID="2292" gapBefore="0" mediaItemID="2288" duration="0.20000000000000001">
      <Effects />
      <Transitions />
      <BoundProperties>
        <BoundPropertyInt Name="rotateStepNinety" Value="0" />
      </BoundProperties>
    </ImageClip>
    <ImageClip extentID="2293" gapBefore="0" mediaItemID="2289" duration="0.20000000000000001">
      <Effects />
      <Transitions />
      <BoundProperties>
        <BoundPropertyInt Name="rotateStepNinety" Value="0" />
      </BoundProperties>
    </ImageClip>
    <ImageClip extentID="2294" gapBefore="0" mediaItemID="2290" duration="0.20000000000000001">
      <Effects />
      <Transitions />
      <BoundProperties>
        <BoundPropertyInt Name="rotateStepNinety" Value="0" />
      </BoundProperties>
    </ImageClip>
    <ImageClip extentID="2295" gapBefore="0" mediaItemID="2291" duration="0.20000000000000001">
      <Effects />
      <Transitions />
      <BoundProperties>
        <BoundPropertyInt Name="rotateStepNinety" Value="0" />
      </BoundProperties>
    </ImageClip>
    <ImageClip extentID="2296" gapBefore="0" mediaItemID="2292" duration="0.20000000000000001">
      <Effects />
      <Transitions />
      <BoundProperties>
        <BoundPropertyInt Name="rotateStepNinety" Value="0" />
      </BoundProperties>
    </ImageClip>
    <ImageClip extentID="2297" gapBefore="0" mediaItemID="2293" duration="0.20000000000000001">
      <Effects />
      <Transitions />
      <BoundProperties>
        <BoundPropertyInt Name="rotateStepNinety" Value="0" />
      </BoundProperties>
    </ImageClip>
    <ImageClip extentID="2298" gapBefore="0" mediaItemID="2294" duration="0.20000000000000001">
      <Effects />
      <Transitions />
      <BoundProperties>
        <BoundPropertyInt Name="rotateStepNinety" Value="0" />
      </BoundProperties>
    </ImageClip>
    <ImageClip extentID="2299" gapBefore="0" mediaItemID="2295" duration="0.20000000000000001">
      <Effects />
      <Transitions />
      <BoundProperties>
        <BoundPropertyInt Name="rotateStepNinety" Value="0" />
      </BoundProperties>
    </ImageClip>
    <ImageClip extentID="2300" gapBefore="0" mediaItemID="2296" duration="0.20000000000000001">
      <Effects />
      <Transitions />
      <BoundProperties>
        <BoundPropertyInt Name="rotateStepNinety" Value="0" />
      </BoundProperties>
    </ImageClip>
    <ImageClip extentID="2301" gapBefore="0" mediaItemID="2297" duration="0.20000000000000001">
      <Effects />
      <Transitions />
      <BoundProperties>
        <BoundPropertyInt Name="rotateStepNinety" Value="0" />
      </BoundProperties>
    </ImageClip>
    <ImageClip extentID="2302" gapBefore="0" mediaItemID="2298" duration="0.20000000000000001">
      <Effects />
      <Transitions />
      <BoundProperties>
        <BoundPropertyInt Name="rotateStepNinety" Value="0" />
      </BoundProperties>
    </ImageClip>
    <ImageClip extentID="2303" gapBefore="0" mediaItemID="2299" duration="0.20000000000000001">
      <Effects />
      <Transitions />
      <BoundProperties>
        <BoundPropertyInt Name="rotateStepNinety" Value="0" />
      </BoundProperties>
    </ImageClip>
    <ImageClip extentID="2304" gapBefore="0" mediaItemID="2300" duration="0.20000000000000001">
      <Effects />
      <Transitions />
      <BoundProperties>
        <BoundPropertyInt Name="rotateStepNinety" Value="0" />
      </BoundProperties>
    </ImageClip>
    <ImageClip extentID="2305" gapBefore="0" mediaItemID="2301" duration="0.20000000000000001">
      <Effects />
      <Transitions />
      <BoundProperties>
        <BoundPropertyInt Name="rotateStepNinety" Value="0" />
      </BoundProperties>
    </ImageClip>
    <ImageClip extentID="2306" gapBefore="0" mediaItemID="2302" duration="0.20000000000000001">
      <Effects />
      <Transitions />
      <BoundProperties>
        <BoundPropertyInt Name="rotateStepNinety" Value="0" />
      </BoundProperties>
    </ImageClip>
    <ImageClip extentID="2307" gapBefore="0" mediaItemID="2303" duration="0.20000000000000001">
      <Effects />
      <Transitions />
      <BoundProperties>
        <BoundPropertyInt Name="rotateStepNinety" Value="0" />
      </BoundProperties>
    </ImageClip>
    <ImageClip extentID="2308" gapBefore="0" mediaItemID="2304" duration="0.20000000000000001">
      <Effects />
      <Transitions />
      <BoundProperties>
        <BoundPropertyInt Name="rotateStepNinety" Value="0" />
      </BoundProperties>
    </ImageClip>
    <ImageClip extentID="2309" gapBefore="0" mediaItemID="2305" duration="0.20000000000000001">
      <Effects />
      <Transitions />
      <BoundProperties>
        <BoundPropertyInt Name="rotateStepNinety" Value="0" />
      </BoundProperties>
    </ImageClip>
    <ImageClip extentID="2310" gapBefore="0" mediaItemID="2306" duration="0.20000000000000001">
      <Effects />
      <Transitions />
      <BoundProperties>
        <BoundPropertyInt Name="rotateStepNinety" Value="0" />
      </BoundProperties>
    </ImageClip>
    <ImageClip extentID="2311" gapBefore="0" mediaItemID="2307" duration="0.20000000000000001">
      <Effects />
      <Transitions />
      <BoundProperties>
        <BoundPropertyInt Name="rotateStepNinety" Value="0" />
      </BoundProperties>
    </ImageClip>
    <ImageClip extentID="2312" gapBefore="0" mediaItemID="2308" duration="0.20000000000000001">
      <Effects />
      <Transitions />
      <BoundProperties>
        <BoundPropertyInt Name="rotateStepNinety" Value="0" />
      </BoundProperties>
    </ImageClip>
    <ImageClip extentID="2313" gapBefore="0" mediaItemID="2309" duration="0.20000000000000001">
      <Effects />
      <Transitions />
      <BoundProperties>
        <BoundPropertyInt Name="rotateStepNinety" Value="0" />
      </BoundProperties>
    </ImageClip>
    <ImageClip extentID="2314" gapBefore="0" mediaItemID="2310" duration="0.20000000000000001">
      <Effects />
      <Transitions />
      <BoundProperties>
        <BoundPropertyInt Name="rotateStepNinety" Value="0" />
      </BoundProperties>
    </ImageClip>
    <ImageClip extentID="2315" gapBefore="0" mediaItemID="2311" duration="0.20000000000000001">
      <Effects />
      <Transitions />
      <BoundProperties>
        <BoundPropertyInt Name="rotateStepNinety" Value="0" />
      </BoundProperties>
    </ImageClip>
    <ImageClip extentID="2316" gapBefore="0" mediaItemID="2312" duration="0.20000000000000001">
      <Effects />
      <Transitions />
      <BoundProperties>
        <BoundPropertyInt Name="rotateStepNinety" Value="0" />
      </BoundProperties>
    </ImageClip>
    <ImageClip extentID="2317" gapBefore="0" mediaItemID="2313" duration="0.20000000000000001">
      <Effects />
      <Transitions />
      <BoundProperties>
        <BoundPropertyInt Name="rotateStepNinety" Value="0" />
      </BoundProperties>
    </ImageClip>
    <ImageClip extentID="2318" gapBefore="0" mediaItemID="2314" duration="0.20000000000000001">
      <Effects />
      <Transitions />
      <BoundProperties>
        <BoundPropertyInt Name="rotateStepNinety" Value="0" />
      </BoundProperties>
    </ImageClip>
    <ImageClip extentID="2319" gapBefore="0" mediaItemID="2315" duration="0.20000000000000001">
      <Effects />
      <Transitions />
      <BoundProperties>
        <BoundPropertyInt Name="rotateStepNinety" Value="0" />
      </BoundProperties>
    </ImageClip>
    <ImageClip extentID="2320" gapBefore="0" mediaItemID="2316" duration="0.20000000000000001">
      <Effects />
      <Transitions />
      <BoundProperties>
        <BoundPropertyInt Name="rotateStepNinety" Value="0" />
      </BoundProperties>
    </ImageClip>
    <ImageClip extentID="2321" gapBefore="0" mediaItemID="2317" duration="0.20000000000000001">
      <Effects />
      <Transitions />
      <BoundProperties>
        <BoundPropertyInt Name="rotateStepNinety" Value="0" />
      </BoundProperties>
    </ImageClip>
    <ImageClip extentID="2322" gapBefore="0" mediaItemID="2318" duration="0.20000000000000001">
      <Effects />
      <Transitions />
      <BoundProperties>
        <BoundPropertyInt Name="rotateStepNinety" Value="0" />
      </BoundProperties>
    </ImageClip>
    <ImageClip extentID="2323" gapBefore="0" mediaItemID="2319" duration="0.20000000000000001">
      <Effects />
      <Transitions />
      <BoundProperties>
        <BoundPropertyInt Name="rotateStepNinety" Value="0" />
      </BoundProperties>
    </ImageClip>
    <ImageClip extentID="2324" gapBefore="0" mediaItemID="2320" duration="0.20000000000000001">
      <Effects />
      <Transitions />
      <BoundProperties>
        <BoundPropertyInt Name="rotateStepNinety" Value="0" />
      </BoundProperties>
    </ImageClip>
    <ImageClip extentID="2325" gapBefore="0" mediaItemID="2321" duration="0.20000000000000001">
      <Effects />
      <Transitions />
      <BoundProperties>
        <BoundPropertyInt Name="rotateStepNinety" Value="0" />
      </BoundProperties>
    </ImageClip>
    <ImageClip extentID="2326" gapBefore="0" mediaItemID="2322" duration="0.20000000000000001">
      <Effects />
      <Transitions />
      <BoundProperties>
        <BoundPropertyInt Name="rotateStepNinety" Value="0" />
      </BoundProperties>
    </ImageClip>
    <ImageClip extentID="2327" gapBefore="0" mediaItemID="2323" duration="0.20000000000000001">
      <Effects />
      <Transitions />
      <BoundProperties>
        <BoundPropertyInt Name="rotateStepNinety" Value="0" />
      </BoundProperties>
    </ImageClip>
    <ImageClip extentID="2328" gapBefore="0" mediaItemID="2324" duration="0.20000000000000001">
      <Effects />
      <Transitions />
      <BoundProperties>
        <BoundPropertyInt Name="rotateStepNinety" Value="0" />
      </BoundProperties>
    </ImageClip>
    <ImageClip extentID="2329" gapBefore="0" mediaItemID="2325" duration="0.20000000000000001">
      <Effects />
      <Transitions />
      <BoundProperties>
        <BoundPropertyInt Name="rotateStepNinety" Value="0" />
      </BoundProperties>
    </ImageClip>
    <ImageClip extentID="2330" gapBefore="0" mediaItemID="2326" duration="0.20000000000000001">
      <Effects />
      <Transitions />
      <BoundProperties>
        <BoundPropertyInt Name="rotateStepNinety" Value="0" />
      </BoundProperties>
    </ImageClip>
    <ImageClip extentID="2331" gapBefore="0" mediaItemID="2327" duration="0.20000000000000001">
      <Effects />
      <Transitions />
      <BoundProperties>
        <BoundPropertyInt Name="rotateStepNinety" Value="0" />
      </BoundProperties>
    </ImageClip>
    <ImageClip extentID="2332" gapBefore="0" mediaItemID="2328" duration="0.20000000000000001">
      <Effects />
      <Transitions />
      <BoundProperties>
        <BoundPropertyInt Name="rotateStepNinety" Value="0" />
      </BoundProperties>
    </ImageClip>
    <ImageClip extentID="2333" gapBefore="0" mediaItemID="2329" duration="0.20000000000000001">
      <Effects />
      <Transitions />
      <BoundProperties>
        <BoundPropertyInt Name="rotateStepNinety" Value="0" />
      </BoundProperties>
    </ImageClip>
    <ImageClip extentID="2334" gapBefore="0" mediaItemID="2330" duration="0.20000000000000001">
      <Effects />
      <Transitions />
      <BoundProperties>
        <BoundPropertyInt Name="rotateStepNinety" Value="0" />
      </BoundProperties>
    </ImageClip>
    <ImageClip extentID="2335" gapBefore="0" mediaItemID="2331" duration="0.20000000000000001">
      <Effects />
      <Transitions />
      <BoundProperties>
        <BoundPropertyInt Name="rotateStepNinety" Value="0" />
      </BoundProperties>
    </ImageClip>
    <ImageClip extentID="2336" gapBefore="0" mediaItemID="2332" duration="0.20000000000000001">
      <Effects />
      <Transitions />
      <BoundProperties>
        <BoundPropertyInt Name="rotateStepNinety" Value="0" />
      </BoundProperties>
    </ImageClip>
    <ImageClip extentID="2337" gapBefore="0" mediaItemID="2333" duration="0.20000000000000001">
      <Effects />
      <Transitions />
      <BoundProperties>
        <BoundPropertyInt Name="rotateStepNinety" Value="0" />
      </BoundProperties>
    </ImageClip>
    <ImageClip extentID="2338" gapBefore="0" mediaItemID="2334" duration="0.20000000000000001">
      <Effects />
      <Transitions />
      <BoundProperties>
        <BoundPropertyInt Name="rotateStepNinety" Value="0" />
      </BoundProperties>
    </ImageClip>
    <ImageClip extentID="2339" gapBefore="0" mediaItemID="2335" duration="0.20000000000000001">
      <Effects />
      <Transitions />
      <BoundProperties>
        <BoundPropertyInt Name="rotateStepNinety" Value="0" />
      </BoundProperties>
    </ImageClip>
    <ImageClip extentID="2340" gapBefore="0" mediaItemID="2336" duration="0.20000000000000001">
      <Effects />
      <Transitions />
      <BoundProperties>
        <BoundPropertyInt Name="rotateStepNinety" Value="0" />
      </BoundProperties>
    </ImageClip>
    <ImageClip extentID="2341" gapBefore="0" mediaItemID="2337" duration="0.20000000000000001">
      <Effects />
      <Transitions />
      <BoundProperties>
        <BoundPropertyInt Name="rotateStepNinety" Value="0" />
      </BoundProperties>
    </ImageClip>
    <ImageClip extentID="2342" gapBefore="0" mediaItemID="2338" duration="0.20000000000000001">
      <Effects />
      <Transitions />
      <BoundProperties>
        <BoundPropertyInt Name="rotateStepNinety" Value="0" />
      </BoundProperties>
    </ImageClip>
    <ImageClip extentID="2343" gapBefore="0" mediaItemID="2339" duration="0.20000000000000001">
      <Effects />
      <Transitions />
      <BoundProperties>
        <BoundPropertyInt Name="rotateStepNinety" Value="0" />
      </BoundProperties>
    </ImageClip>
    <ImageClip extentID="2344" gapBefore="0" mediaItemID="2340" duration="0.20000000000000001">
      <Effects />
      <Transitions />
      <BoundProperties>
        <BoundPropertyInt Name="rotateStepNinety" Value="0" />
      </BoundProperties>
    </ImageClip>
    <ImageClip extentID="2345" gapBefore="0" mediaItemID="2341" duration="0.20000000000000001">
      <Effects />
      <Transitions />
      <BoundProperties>
        <BoundPropertyInt Name="rotateStepNinety" Value="0" />
      </BoundProperties>
    </ImageClip>
    <ImageClip extentID="2346" gapBefore="0" mediaItemID="2342" duration="0.20000000000000001">
      <Effects />
      <Transitions />
      <BoundProperties>
        <BoundPropertyInt Name="rotateStepNinety" Value="0" />
      </BoundProperties>
    </ImageClip>
    <ImageClip extentID="2347" gapBefore="0" mediaItemID="2343" duration="0.20000000000000001">
      <Effects />
      <Transitions />
      <BoundProperties>
        <BoundPropertyInt Name="rotateStepNinety" Value="0" />
      </BoundProperties>
    </ImageClip>
    <ImageClip extentID="2348" gapBefore="0" mediaItemID="2344" duration="0.20000000000000001">
      <Effects />
      <Transitions />
      <BoundProperties>
        <BoundPropertyInt Name="rotateStepNinety" Value="0" />
      </BoundProperties>
    </ImageClip>
    <ImageClip extentID="2349" gapBefore="0" mediaItemID="2345" duration="0.20000000000000001">
      <Effects />
      <Transitions />
      <BoundProperties>
        <BoundPropertyInt Name="rotateStepNinety" Value="0" />
      </BoundProperties>
    </ImageClip>
    <ImageClip extentID="2350" gapBefore="0" mediaItemID="2346" duration="0.20000000000000001">
      <Effects />
      <Transitions />
      <BoundProperties>
        <BoundPropertyInt Name="rotateStepNinety" Value="0" />
      </BoundProperties>
    </ImageClip>
    <ImageClip extentID="2351" gapBefore="0" mediaItemID="2347" duration="0.20000000000000001">
      <Effects />
      <Transitions />
      <BoundProperties>
        <BoundPropertyInt Name="rotateStepNinety" Value="0" />
      </BoundProperties>
    </ImageClip>
    <ImageClip extentID="2352" gapBefore="0" mediaItemID="2348" duration="0.20000000000000001">
      <Effects />
      <Transitions />
      <BoundProperties>
        <BoundPropertyInt Name="rotateStepNinety" Value="0" />
      </BoundProperties>
    </ImageClip>
    <ImageClip extentID="2353" gapBefore="0" mediaItemID="2349" duration="0.20000000000000001">
      <Effects />
      <Transitions />
      <BoundProperties>
        <BoundPropertyInt Name="rotateStepNinety" Value="0" />
      </BoundProperties>
    </ImageClip>
    <ImageClip extentID="2354" gapBefore="0" mediaItemID="2350" duration="0.20000000000000001">
      <Effects />
      <Transitions />
      <BoundProperties>
        <BoundPropertyInt Name="rotateStepNinety" Value="0" />
      </BoundProperties>
    </ImageClip>
    <ImageClip extentID="2355" gapBefore="0" mediaItemID="2351" duration="0.20000000000000001">
      <Effects />
      <Transitions />
      <BoundProperties>
        <BoundPropertyInt Name="rotateStepNinety" Value="0" />
      </BoundProperties>
    </ImageClip>
    <ImageClip extentID="2356" gapBefore="0" mediaItemID="2352" duration="0.20000000000000001">
      <Effects />
      <Transitions />
      <BoundProperties>
        <BoundPropertyInt Name="rotateStepNinety" Value="0" />
      </BoundProperties>
    </ImageClip>
    <ImageClip extentID="2357" gapBefore="0" mediaItemID="2353" duration="0.20000000000000001">
      <Effects />
      <Transitions />
      <BoundProperties>
        <BoundPropertyInt Name="rotateStepNinety" Value="0" />
      </BoundProperties>
    </ImageClip>
    <ImageClip extentID="2358" gapBefore="0" mediaItemID="2354" duration="0.20000000000000001">
      <Effects />
      <Transitions />
      <BoundProperties>
        <BoundPropertyInt Name="rotateStepNinety" Value="0" />
      </BoundProperties>
    </ImageClip>
    <ImageClip extentID="2359" gapBefore="0" mediaItemID="2355" duration="0.20000000000000001">
      <Effects />
      <Transitions />
      <BoundProperties>
        <BoundPropertyInt Name="rotateStepNinety" Value="0" />
      </BoundProperties>
    </ImageClip>
    <ImageClip extentID="2360" gapBefore="0" mediaItemID="2356" duration="0.20000000000000001">
      <Effects />
      <Transitions />
      <BoundProperties>
        <BoundPropertyInt Name="rotateStepNinety" Value="0" />
      </BoundProperties>
    </ImageClip>
    <ImageClip extentID="2361" gapBefore="0" mediaItemID="2357" duration="0.20000000000000001">
      <Effects />
      <Transitions />
      <BoundProperties>
        <BoundPropertyInt Name="rotateStepNinety" Value="0" />
      </BoundProperties>
    </ImageClip>
    <ImageClip extentID="2362" gapBefore="0" mediaItemID="2358" duration="0.20000000000000001">
      <Effects />
      <Transitions />
      <BoundProperties>
        <BoundPropertyInt Name="rotateStepNinety" Value="0" />
      </BoundProperties>
    </ImageClip>
    <ImageClip extentID="2363" gapBefore="0" mediaItemID="2359" duration="0.20000000000000001">
      <Effects />
      <Transitions />
      <BoundProperties>
        <BoundPropertyInt Name="rotateStepNinety" Value="0" />
      </BoundProperties>
    </ImageClip>
    <ImageClip extentID="2364" gapBefore="0" mediaItemID="2360" duration="0.20000000000000001">
      <Effects />
      <Transitions />
      <BoundProperties>
        <BoundPropertyInt Name="rotateStepNinety" Value="0" />
      </BoundProperties>
    </ImageClip>
    <ImageClip extentID="2365" gapBefore="0" mediaItemID="2361" duration="0.20000000000000001">
      <Effects />
      <Transitions />
      <BoundProperties>
        <BoundPropertyInt Name="rotateStepNinety" Value="0" />
      </BoundProperties>
    </ImageClip>
    <ImageClip extentID="2366" gapBefore="0" mediaItemID="2362" duration="0.20000000000000001">
      <Effects />
      <Transitions />
      <BoundProperties>
        <BoundPropertyInt Name="rotateStepNinety" Value="0" />
      </BoundProperties>
    </ImageClip>
    <ImageClip extentID="2367" gapBefore="0" mediaItemID="2363" duration="0.20000000000000001">
      <Effects />
      <Transitions />
      <BoundProperties>
        <BoundPropertyInt Name="rotateStepNinety" Value="0" />
      </BoundProperties>
    </ImageClip>
    <ImageClip extentID="2368" gapBefore="0" mediaItemID="2364" duration="0.20000000000000001">
      <Effects />
      <Transitions />
      <BoundProperties>
        <BoundPropertyInt Name="rotateStepNinety" Value="0" />
      </BoundProperties>
    </ImageClip>
    <ImageClip extentID="2369" gapBefore="0" mediaItemID="2365" duration="0.20000000000000001">
      <Effects />
      <Transitions />
      <BoundProperties>
        <BoundPropertyInt Name="rotateStepNinety" Value="0" />
      </BoundProperties>
    </ImageClip>
    <ImageClip extentID="2370" gapBefore="0" mediaItemID="2366" duration="0.20000000000000001">
      <Effects />
      <Transitions />
      <BoundProperties>
        <BoundPropertyInt Name="rotateStepNinety" Value="0" />
      </BoundProperties>
    </ImageClip>
    <ImageClip extentID="2371" gapBefore="0" mediaItemID="2367" duration="0.20000000000000001">
      <Effects />
      <Transitions />
      <BoundProperties>
        <BoundPropertyInt Name="rotateStepNinety" Value="0" />
      </BoundProperties>
    </ImageClip>
    <ImageClip extentID="2372" gapBefore="0" mediaItemID="2368" duration="0.20000000000000001">
      <Effects />
      <Transitions />
      <BoundProperties>
        <BoundPropertyInt Name="rotateStepNinety" Value="0" />
      </BoundProperties>
    </ImageClip>
    <ImageClip extentID="2373" gapBefore="0" mediaItemID="2369" duration="0.20000000000000001">
      <Effects />
      <Transitions />
      <BoundProperties>
        <BoundPropertyInt Name="rotateStepNinety" Value="0" />
      </BoundProperties>
    </ImageClip>
    <ImageClip extentID="2374" gapBefore="0" mediaItemID="2370" duration="0.20000000000000001">
      <Effects />
      <Transitions />
      <BoundProperties>
        <BoundPropertyInt Name="rotateStepNinety" Value="0" />
      </BoundProperties>
    </ImageClip>
    <ImageClip extentID="2375" gapBefore="0" mediaItemID="2371" duration="0.20000000000000001">
      <Effects />
      <Transitions />
      <BoundProperties>
        <BoundPropertyInt Name="rotateStepNinety" Value="0" />
      </BoundProperties>
    </ImageClip>
    <ImageClip extentID="2376" gapBefore="0" mediaItemID="2372" duration="0.20000000000000001">
      <Effects />
      <Transitions />
      <BoundProperties>
        <BoundPropertyInt Name="rotateStepNinety" Value="0" />
      </BoundProperties>
    </ImageClip>
    <ImageClip extentID="2377" gapBefore="0" mediaItemID="2373" duration="0.20000000000000001">
      <Effects />
      <Transitions />
      <BoundProperties>
        <BoundPropertyInt Name="rotateStepNinety" Value="0" />
      </BoundProperties>
    </ImageClip>
    <ImageClip extentID="2378" gapBefore="0" mediaItemID="2374" duration="0.20000000000000001">
      <Effects />
      <Transitions />
      <BoundProperties>
        <BoundPropertyInt Name="rotateStepNinety" Value="0" />
      </BoundProperties>
    </ImageClip>
    <ImageClip extentID="2379" gapBefore="0" mediaItemID="2375" duration="0.20000000000000001">
      <Effects />
      <Transitions />
      <BoundProperties>
        <BoundPropertyInt Name="rotateStepNinety" Value="0" />
      </BoundProperties>
    </ImageClip>
    <ImageClip extentID="2380" gapBefore="0" mediaItemID="2376" duration="0.20000000000000001">
      <Effects />
      <Transitions />
      <BoundProperties>
        <BoundPropertyInt Name="rotateStepNinety" Value="0" />
      </BoundProperties>
    </ImageClip>
    <ImageClip extentID="2381" gapBefore="0" mediaItemID="2377" duration="0.20000000000000001">
      <Effects />
      <Transitions />
      <BoundProperties>
        <BoundPropertyInt Name="rotateStepNinety" Value="0" />
      </BoundProperties>
    </ImageClip>
    <ImageClip extentID="2382" gapBefore="0" mediaItemID="2378" duration="0.20000000000000001">
      <Effects />
      <Transitions />
      <BoundProperties>
        <BoundPropertyInt Name="rotateStepNinety" Value="0" />
      </BoundProperties>
    </ImageClip>
    <ImageClip extentID="2383" gapBefore="0" mediaItemID="2379" duration="0.20000000000000001">
      <Effects />
      <Transitions />
      <BoundProperties>
        <BoundPropertyInt Name="rotateStepNinety" Value="0" />
      </BoundProperties>
    </ImageClip>
    <ImageClip extentID="2384" gapBefore="0" mediaItemID="2380" duration="0.20000000000000001">
      <Effects />
      <Transitions />
      <BoundProperties>
        <BoundPropertyInt Name="rotateStepNinety" Value="0" />
      </BoundProperties>
    </ImageClip>
    <ImageClip extentID="2385" gapBefore="0" mediaItemID="2381" duration="0.20000000000000001">
      <Effects />
      <Transitions />
      <BoundProperties>
        <BoundPropertyInt Name="rotateStepNinety" Value="0" />
      </BoundProperties>
    </ImageClip>
    <ImageClip extentID="2386" gapBefore="0" mediaItemID="2382" duration="0.20000000000000001">
      <Effects />
      <Transitions />
      <BoundProperties>
        <BoundPropertyInt Name="rotateStepNinety" Value="0" />
      </BoundProperties>
    </ImageClip>
    <ImageClip extentID="2387" gapBefore="0" mediaItemID="2383" duration="0.20000000000000001">
      <Effects />
      <Transitions />
      <BoundProperties>
        <BoundPropertyInt Name="rotateStepNinety" Value="0" />
      </BoundProperties>
    </ImageClip>
    <ImageClip extentID="2388" gapBefore="0" mediaItemID="2384" duration="0.20000000000000001">
      <Effects />
      <Transitions />
      <BoundProperties>
        <BoundPropertyInt Name="rotateStepNinety" Value="0" />
      </BoundProperties>
    </ImageClip>
    <ImageClip extentID="2389" gapBefore="0" mediaItemID="2385" duration="0.20000000000000001">
      <Effects />
      <Transitions />
      <BoundProperties>
        <BoundPropertyInt Name="rotateStepNinety" Value="0" />
      </BoundProperties>
    </ImageClip>
    <ImageClip extentID="2390" gapBefore="0" mediaItemID="2386" duration="0.20000000000000001">
      <Effects />
      <Transitions />
      <BoundProperties>
        <BoundPropertyInt Name="rotateStepNinety" Value="0" />
      </BoundProperties>
    </ImageClip>
    <ImageClip extentID="2391" gapBefore="0" mediaItemID="2387" duration="0.20000000000000001">
      <Effects />
      <Transitions />
      <BoundProperties>
        <BoundPropertyInt Name="rotateStepNinety" Value="0" />
      </BoundProperties>
    </ImageClip>
    <ImageClip extentID="2392" gapBefore="0" mediaItemID="2388" duration="0.20000000000000001">
      <Effects />
      <Transitions />
      <BoundProperties>
        <BoundPropertyInt Name="rotateStepNinety" Value="0" />
      </BoundProperties>
    </ImageClip>
    <ImageClip extentID="2393" gapBefore="0" mediaItemID="2389" duration="0.20000000000000001">
      <Effects />
      <Transitions />
      <BoundProperties>
        <BoundPropertyInt Name="rotateStepNinety" Value="0" />
      </BoundProperties>
    </ImageClip>
    <ImageClip extentID="2394" gapBefore="0" mediaItemID="2390" duration="0.20000000000000001">
      <Effects />
      <Transitions />
      <BoundProperties>
        <BoundPropertyInt Name="rotateStepNinety" Value="0" />
      </BoundProperties>
    </ImageClip>
    <ImageClip extentID="2395" gapBefore="0" mediaItemID="2391" duration="0.20000000000000001">
      <Effects />
      <Transitions />
      <BoundProperties>
        <BoundPropertyInt Name="rotateStepNinety" Value="0" />
      </BoundProperties>
    </ImageClip>
    <ImageClip extentID="2396" gapBefore="0" mediaItemID="2392" duration="0.20000000000000001">
      <Effects />
      <Transitions />
      <BoundProperties>
        <BoundPropertyInt Name="rotateStepNinety" Value="0" />
      </BoundProperties>
    </ImageClip>
    <ImageClip extentID="2397" gapBefore="0" mediaItemID="2393" duration="0.20000000000000001">
      <Effects />
      <Transitions />
      <BoundProperties>
        <BoundPropertyInt Name="rotateStepNinety" Value="0" />
      </BoundProperties>
    </ImageClip>
    <ImageClip extentID="2398" gapBefore="0" mediaItemID="2394" duration="0.20000000000000001">
      <Effects />
      <Transitions />
      <BoundProperties>
        <BoundPropertyInt Name="rotateStepNinety" Value="0" />
      </BoundProperties>
    </ImageClip>
    <ImageClip extentID="2399" gapBefore="0" mediaItemID="2395" duration="0.20000000000000001">
      <Effects />
      <Transitions />
      <BoundProperties>
        <BoundPropertyInt Name="rotateStepNinety" Value="0" />
      </BoundProperties>
    </ImageClip>
    <ImageClip extentID="2400" gapBefore="0" mediaItemID="2396" duration="0.20000000000000001">
      <Effects />
      <Transitions />
      <BoundProperties>
        <BoundPropertyInt Name="rotateStepNinety" Value="0" />
      </BoundProperties>
    </ImageClip>
    <ImageClip extentID="2401" gapBefore="0" mediaItemID="2397" duration="0.20000000000000001">
      <Effects />
      <Transitions />
      <BoundProperties>
        <BoundPropertyInt Name="rotateStepNinety" Value="0" />
      </BoundProperties>
    </ImageClip>
    <ImageClip extentID="2402" gapBefore="0" mediaItemID="2398" duration="0.20000000000000001">
      <Effects />
      <Transitions />
      <BoundProperties>
        <BoundPropertyInt Name="rotateStepNinety" Value="0" />
      </BoundProperties>
    </ImageClip>
    <ImageClip extentID="2403" gapBefore="0" mediaItemID="2399" duration="0.20000000000000001">
      <Effects />
      <Transitions />
      <BoundProperties>
        <BoundPropertyInt Name="rotateStepNinety" Value="0" />
      </BoundProperties>
    </ImageClip>
    <ImageClip extentID="2404" gapBefore="0" mediaItemID="2400" duration="0.20000000000000001">
      <Effects />
      <Transitions />
      <BoundProperties>
        <BoundPropertyInt Name="rotateStepNinety" Value="0" />
      </BoundProperties>
    </ImageClip>
    <ImageClip extentID="2405" gapBefore="0" mediaItemID="2401" duration="0.20000000000000001">
      <Effects />
      <Transitions />
      <BoundProperties>
        <BoundPropertyInt Name="rotateStepNinety" Value="0" />
      </BoundProperties>
    </ImageClip>
    <ImageClip extentID="2406" gapBefore="0" mediaItemID="2402" duration="0.20000000000000001">
      <Effects />
      <Transitions />
      <BoundProperties>
        <BoundPropertyInt Name="rotateStepNinety" Value="0" />
      </BoundProperties>
    </ImageClip>
    <ImageClip extentID="2407" gapBefore="0" mediaItemID="2403" duration="0.20000000000000001">
      <Effects />
      <Transitions />
      <BoundProperties>
        <BoundPropertyInt Name="rotateStepNinety" Value="0" />
      </BoundProperties>
    </ImageClip>
    <ImageClip extentID="2408" gapBefore="0" mediaItemID="2404" duration="0.20000000000000001">
      <Effects />
      <Transitions />
      <BoundProperties>
        <BoundPropertyInt Name="rotateStepNinety" Value="0" />
      </BoundProperties>
    </ImageClip>
    <ImageClip extentID="2409" gapBefore="0" mediaItemID="2405" duration="0.20000000000000001">
      <Effects />
      <Transitions />
      <BoundProperties>
        <BoundPropertyInt Name="rotateStepNinety" Value="0" />
      </BoundProperties>
    </ImageClip>
    <ImageClip extentID="2410" gapBefore="0" mediaItemID="2406" duration="0.20000000000000001">
      <Effects />
      <Transitions />
      <BoundProperties>
        <BoundPropertyInt Name="rotateStepNinety" Value="0" />
      </BoundProperties>
    </ImageClip>
    <ImageClip extentID="2411" gapBefore="0" mediaItemID="2407" duration="0.20000000000000001">
      <Effects />
      <Transitions />
      <BoundProperties>
        <BoundPropertyInt Name="rotateStepNinety" Value="0" />
      </BoundProperties>
    </ImageClip>
    <ImageClip extentID="2412" gapBefore="0" mediaItemID="2408" duration="0.20000000000000001">
      <Effects />
      <Transitions />
      <BoundProperties>
        <BoundPropertyInt Name="rotateStepNinety" Value="0" />
      </BoundProperties>
    </ImageClip>
    <ImageClip extentID="2413" gapBefore="0" mediaItemID="2409" duration="0.20000000000000001">
      <Effects />
      <Transitions />
      <BoundProperties>
        <BoundPropertyInt Name="rotateStepNinety" Value="0" />
      </BoundProperties>
    </ImageClip>
    <ImageClip extentID="2414" gapBefore="0" mediaItemID="2410" duration="0.20000000000000001">
      <Effects />
      <Transitions />
      <BoundProperties>
        <BoundPropertyInt Name="rotateStepNinety" Value="0" />
      </BoundProperties>
    </ImageClip>
    <ImageClip extentID="2415" gapBefore="0" mediaItemID="2411" duration="0.20000000000000001">
      <Effects />
      <Transitions />
      <BoundProperties>
        <BoundPropertyInt Name="rotateStepNinety" Value="0" />
      </BoundProperties>
    </ImageClip>
    <ImageClip extentID="2416" gapBefore="0" mediaItemID="2412" duration="0.20000000000000001">
      <Effects />
      <Transitions />
      <BoundProperties>
        <BoundPropertyInt Name="rotateStepNinety" Value="0" />
      </BoundProperties>
    </ImageClip>
    <ImageClip extentID="2417" gapBefore="0" mediaItemID="2413" duration="0.20000000000000001">
      <Effects />
      <Transitions />
      <BoundProperties>
        <BoundPropertyInt Name="rotateStepNinety" Value="0" />
      </BoundProperties>
    </ImageClip>
    <ImageClip extentID="2418" gapBefore="0" mediaItemID="2414" duration="0.20000000000000001">
      <Effects />
      <Transitions />
      <BoundProperties>
        <BoundPropertyInt Name="rotateStepNinety" Value="0" />
      </BoundProperties>
    </ImageClip>
    <ImageClip extentID="2419" gapBefore="0" mediaItemID="2415" duration="0.20000000000000001">
      <Effects />
      <Transitions />
      <BoundProperties>
        <BoundPropertyInt Name="rotateStepNinety" Value="0" />
      </BoundProperties>
    </ImageClip>
    <ImageClip extentID="2420" gapBefore="0" mediaItemID="2416" duration="0.20000000000000001">
      <Effects />
      <Transitions />
      <BoundProperties>
        <BoundPropertyInt Name="rotateStepNinety" Value="0" />
      </BoundProperties>
    </ImageClip>
    <ImageClip extentID="2421" gapBefore="0" mediaItemID="2417" duration="0.20000000000000001">
      <Effects />
      <Transitions />
      <BoundProperties>
        <BoundPropertyInt Name="rotateStepNinety" Value="0" />
      </BoundProperties>
    </ImageClip>
    <ImageClip extentID="2422" gapBefore="0" mediaItemID="2418" duration="0.20000000000000001">
      <Effects />
      <Transitions />
      <BoundProperties>
        <BoundPropertyInt Name="rotateStepNinety" Value="0" />
      </BoundProperties>
    </ImageClip>
    <ImageClip extentID="2423" gapBefore="0" mediaItemID="2419" duration="0.20000000000000001">
      <Effects />
      <Transitions />
      <BoundProperties>
        <BoundPropertyInt Name="rotateStepNinety" Value="0" />
      </BoundProperties>
    </ImageClip>
    <ImageClip extentID="2424" gapBefore="0" mediaItemID="2420" duration="0.20000000000000001">
      <Effects />
      <Transitions />
      <BoundProperties>
        <BoundPropertyInt Name="rotateStepNinety" Value="0" />
      </BoundProperties>
    </ImageClip>
    <ImageClip extentID="2425" gapBefore="0" mediaItemID="2421" duration="0.20000000000000001">
      <Effects />
      <Transitions />
      <BoundProperties>
        <BoundPropertyInt Name="rotateStepNinety" Value="0" />
      </BoundProperties>
    </ImageClip>
    <ImageClip extentID="2426" gapBefore="0" mediaItemID="2422" duration="0.20000000000000001">
      <Effects />
      <Transitions />
      <BoundProperties>
        <BoundPropertyInt Name="rotateStepNinety" Value="0" />
      </BoundProperties>
    </ImageClip>
    <ImageClip extentID="2427" gapBefore="0" mediaItemID="2423" duration="0.20000000000000001">
      <Effects />
      <Transitions />
      <BoundProperties>
        <BoundPropertyInt Name="rotateStepNinety" Value="0" />
      </BoundProperties>
    </ImageClip>
    <ImageClip extentID="2428" gapBefore="0" mediaItemID="2424" duration="0.20000000000000001">
      <Effects />
      <Transitions />
      <BoundProperties>
        <BoundPropertyInt Name="rotateStepNinety" Value="0" />
      </BoundProperties>
    </ImageClip>
    <ImageClip extentID="2429" gapBefore="0" mediaItemID="2425" duration="0.20000000000000001">
      <Effects />
      <Transitions />
      <BoundProperties>
        <BoundPropertyInt Name="rotateStepNinety" Value="0" />
      </BoundProperties>
    </ImageClip>
    <ImageClip extentID="2430" gapBefore="0" mediaItemID="2426" duration="0.20000000000000001">
      <Effects />
      <Transitions />
      <BoundProperties>
        <BoundPropertyInt Name="rotateStepNinety" Value="0" />
      </BoundProperties>
    </ImageClip>
    <ImageClip extentID="2431" gapBefore="0" mediaItemID="2427" duration="0.20000000000000001">
      <Effects />
      <Transitions />
      <BoundProperties>
        <BoundPropertyInt Name="rotateStepNinety" Value="0" />
      </BoundProperties>
    </ImageClip>
    <ImageClip extentID="2432" gapBefore="0" mediaItemID="2428" duration="0.20000000000000001">
      <Effects />
      <Transitions />
      <BoundProperties>
        <BoundPropertyInt Name="rotateStepNinety" Value="0" />
      </BoundProperties>
    </ImageClip>
    <ImageClip extentID="2433" gapBefore="0" mediaItemID="2429" duration="0.20000000000000001">
      <Effects />
      <Transitions />
      <BoundProperties>
        <BoundPropertyInt Name="rotateStepNinety" Value="0" />
      </BoundProperties>
    </ImageClip>
    <ImageClip extentID="2434" gapBefore="0" mediaItemID="2430" duration="0.20000000000000001">
      <Effects />
      <Transitions />
      <BoundProperties>
        <BoundPropertyInt Name="rotateStepNinety" Value="0" />
      </BoundProperties>
    </ImageClip>
    <ImageClip extentID="2435" gapBefore="0" mediaItemID="2431" duration="0.20000000000000001">
      <Effects />
      <Transitions />
      <BoundProperties>
        <BoundPropertyInt Name="rotateStepNinety" Value="0" />
      </BoundProperties>
    </ImageClip>
    <ImageClip extentID="2436" gapBefore="0" mediaItemID="2432" duration="0.20000000000000001">
      <Effects />
      <Transitions />
      <BoundProperties>
        <BoundPropertyInt Name="rotateStepNinety" Value="0" />
      </BoundProperties>
    </ImageClip>
    <ImageClip extentID="2437" gapBefore="0" mediaItemID="2433" duration="0.20000000000000001">
      <Effects />
      <Transitions />
      <BoundProperties>
        <BoundPropertyInt Name="rotateStepNinety" Value="0" />
      </BoundProperties>
    </ImageClip>
    <ImageClip extentID="2438" gapBefore="0" mediaItemID="2434" duration="0.20000000000000001">
      <Effects />
      <Transitions />
      <BoundProperties>
        <BoundPropertyInt Name="rotateStepNinety" Value="0" />
      </BoundProperties>
    </ImageClip>
    <ImageClip extentID="2439" gapBefore="0" mediaItemID="2435" duration="0.20000000000000001">
      <Effects />
      <Transitions />
      <BoundProperties>
        <BoundPropertyInt Name="rotateStepNinety" Value="0" />
      </BoundProperties>
    </ImageClip>
    <ImageClip extentID="2440" gapBefore="0" mediaItemID="2436" duration="0.20000000000000001">
      <Effects />
      <Transitions />
      <BoundProperties>
        <BoundPropertyInt Name="rotateStepNinety" Value="0" />
      </BoundProperties>
    </ImageClip>
    <ImageClip extentID="2441" gapBefore="0" mediaItemID="2437" duration="0.20000000000000001">
      <Effects />
      <Transitions />
      <BoundProperties>
        <BoundPropertyInt Name="rotateStepNinety" Value="0" />
      </BoundProperties>
    </ImageClip>
    <ImageClip extentID="2442" gapBefore="0" mediaItemID="2438" duration="0.20000000000000001">
      <Effects />
      <Transitions />
      <BoundProperties>
        <BoundPropertyInt Name="rotateStepNinety" Value="0" />
      </BoundProperties>
    </ImageClip>
    <ImageClip extentID="2443" gapBefore="0" mediaItemID="2439" duration="0.20000000000000001">
      <Effects />
      <Transitions />
      <BoundProperties>
        <BoundPropertyInt Name="rotateStepNinety" Value="0" />
      </BoundProperties>
    </ImageClip>
    <ImageClip extentID="2444" gapBefore="0" mediaItemID="2440" duration="0.20000000000000001">
      <Effects />
      <Transitions />
      <BoundProperties>
        <BoundPropertyInt Name="rotateStepNinety" Value="0" />
      </BoundProperties>
    </ImageClip>
    <ImageClip extentID="2445" gapBefore="0" mediaItemID="2441" duration="0.20000000000000001">
      <Effects />
      <Transitions />
      <BoundProperties>
        <BoundPropertyInt Name="rotateStepNinety" Value="0" />
      </BoundProperties>
    </ImageClip>
    <ImageClip extentID="2446" gapBefore="0" mediaItemID="2442" duration="0.20000000000000001">
      <Effects />
      <Transitions />
      <BoundProperties>
        <BoundPropertyInt Name="rotateStepNinety" Value="0" />
      </BoundProperties>
    </ImageClip>
    <ImageClip extentID="2447" gapBefore="0" mediaItemID="2443" duration="0.20000000000000001">
      <Effects />
      <Transitions />
      <BoundProperties>
        <BoundPropertyInt Name="rotateStepNinety" Value="0" />
      </BoundProperties>
    </ImageClip>
    <ImageClip extentID="2448" gapBefore="0" mediaItemID="2444" duration="0.20000000000000001">
      <Effects />
      <Transitions />
      <BoundProperties>
        <BoundPropertyInt Name="rotateStepNinety" Value="0" />
      </BoundProperties>
    </ImageClip>
    <ImageClip extentID="2449" gapBefore="0" mediaItemID="2445" duration="0.20000000000000001">
      <Effects />
      <Transitions />
      <BoundProperties>
        <BoundPropertyInt Name="rotateStepNinety" Value="0" />
      </BoundProperties>
    </ImageClip>
    <ImageClip extentID="2450" gapBefore="0" mediaItemID="2446" duration="0.20000000000000001">
      <Effects />
      <Transitions />
      <BoundProperties>
        <BoundPropertyInt Name="rotateStepNinety" Value="0" />
      </BoundProperties>
    </ImageClip>
    <ImageClip extentID="2451" gapBefore="0" mediaItemID="2447" duration="0.20000000000000001">
      <Effects />
      <Transitions />
      <BoundProperties>
        <BoundPropertyInt Name="rotateStepNinety" Value="0" />
      </BoundProperties>
    </ImageClip>
    <ImageClip extentID="2452" gapBefore="0" mediaItemID="2448" duration="0.20000000000000001">
      <Effects />
      <Transitions />
      <BoundProperties>
        <BoundPropertyInt Name="rotateStepNinety" Value="0" />
      </BoundProperties>
    </ImageClip>
    <ImageClip extentID="2453" gapBefore="0" mediaItemID="2449" duration="0.20000000000000001">
      <Effects />
      <Transitions />
      <BoundProperties>
        <BoundPropertyInt Name="rotateStepNinety" Value="0" />
      </BoundProperties>
    </ImageClip>
    <ImageClip extentID="2454" gapBefore="0" mediaItemID="2450" duration="0.20000000000000001">
      <Effects />
      <Transitions />
      <BoundProperties>
        <BoundPropertyInt Name="rotateStepNinety" Value="0" />
      </BoundProperties>
    </ImageClip>
    <ImageClip extentID="2455" gapBefore="0" mediaItemID="2451" duration="0.20000000000000001">
      <Effects />
      <Transitions />
      <BoundProperties>
        <BoundPropertyInt Name="rotateStepNinety" Value="0" />
      </BoundProperties>
    </ImageClip>
    <ImageClip extentID="2456" gapBefore="0" mediaItemID="2452" duration="0.20000000000000001">
      <Effects />
      <Transitions />
      <BoundProperties>
        <BoundPropertyInt Name="rotateStepNinety" Value="0" />
      </BoundProperties>
    </ImageClip>
    <ImageClip extentID="2457" gapBefore="0" mediaItemID="2453" duration="0.20000000000000001">
      <Effects />
      <Transitions />
      <BoundProperties>
        <BoundPropertyInt Name="rotateStepNinety" Value="0" />
      </BoundProperties>
    </ImageClip>
    <ImageClip extentID="2458" gapBefore="0" mediaItemID="2454" duration="0.20000000000000001">
      <Effects />
      <Transitions />
      <BoundProperties>
        <BoundPropertyInt Name="rotateStepNinety" Value="0" />
      </BoundProperties>
    </ImageClip>
    <ImageClip extentID="2459" gapBefore="0" mediaItemID="2455" duration="0.20000000000000001">
      <Effects />
      <Transitions />
      <BoundProperties>
        <BoundPropertyInt Name="rotateStepNinety" Value="0" />
      </BoundProperties>
    </ImageClip>
    <ImageClip extentID="2460" gapBefore="0" mediaItemID="2456" duration="0.20000000000000001">
      <Effects />
      <Transitions />
      <BoundProperties>
        <BoundPropertyInt Name="rotateStepNinety" Value="0" />
      </BoundProperties>
    </ImageClip>
    <ImageClip extentID="2461" gapBefore="0" mediaItemID="2457" duration="0.20000000000000001">
      <Effects />
      <Transitions />
      <BoundProperties>
        <BoundPropertyInt Name="rotateStepNinety" Value="0" />
      </BoundProperties>
    </ImageClip>
    <ImageClip extentID="2462" gapBefore="0" mediaItemID="2458" duration="0.20000000000000001">
      <Effects />
      <Transitions />
      <BoundProperties>
        <BoundPropertyInt Name="rotateStepNinety" Value="0" />
      </BoundProperties>
    </ImageClip>
    <ImageClip extentID="2463" gapBefore="0" mediaItemID="2459" duration="0.20000000000000001">
      <Effects />
      <Transitions />
      <BoundProperties>
        <BoundPropertyInt Name="rotateStepNinety" Value="0" />
      </BoundProperties>
    </ImageClip>
    <ImageClip extentID="2464" gapBefore="0" mediaItemID="2460" duration="0.20000000000000001">
      <Effects />
      <Transitions />
      <BoundProperties>
        <BoundPropertyInt Name="rotateStepNinety" Value="0" />
      </BoundProperties>
    </ImageClip>
    <ImageClip extentID="2465" gapBefore="0" mediaItemID="2461" duration="0.20000000000000001">
      <Effects />
      <Transitions />
      <BoundProperties>
        <BoundPropertyInt Name="rotateStepNinety" Value="0" />
      </BoundProperties>
    </ImageClip>
    <ImageClip extentID="2466" gapBefore="0" mediaItemID="2462" duration="0.20000000000000001">
      <Effects />
      <Transitions />
      <BoundProperties>
        <BoundPropertyInt Name="rotateStepNinety" Value="0" />
      </BoundProperties>
    </ImageClip>
    <ImageClip extentID="2467" gapBefore="0" mediaItemID="2463" duration="0.20000000000000001">
      <Effects />
      <Transitions />
      <BoundProperties>
        <BoundPropertyInt Name="rotateStepNinety" Value="0" />
      </BoundProperties>
    </ImageClip>
    <ImageClip extentID="2468" gapBefore="0" mediaItemID="2464" duration="0.20000000000000001">
      <Effects />
      <Transitions />
      <BoundProperties>
        <BoundPropertyInt Name="rotateStepNinety" Value="0" />
      </BoundProperties>
    </ImageClip>
    <ImageClip extentID="2469" gapBefore="0" mediaItemID="2465" duration="0.20000000000000001">
      <Effects />
      <Transitions />
      <BoundProperties>
        <BoundPropertyInt Name="rotateStepNinety" Value="0" />
      </BoundProperties>
    </ImageClip>
    <ImageClip extentID="2470" gapBefore="0" mediaItemID="2466" duration="0.20000000000000001">
      <Effects />
      <Transitions />
      <BoundProperties>
        <BoundPropertyInt Name="rotateStepNinety" Value="0" />
      </BoundProperties>
    </ImageClip>
    <ImageClip extentID="2471" gapBefore="0" mediaItemID="2467" duration="0.20000000000000001">
      <Effects />
      <Transitions />
      <BoundProperties>
        <BoundPropertyInt Name="rotateStepNinety" Value="0" />
      </BoundProperties>
    </ImageClip>
    <ImageClip extentID="2472" gapBefore="0" mediaItemID="2468" duration="0.20000000000000001">
      <Effects />
      <Transitions />
      <BoundProperties>
        <BoundPropertyInt Name="rotateStepNinety" Value="0" />
      </BoundProperties>
    </ImageClip>
    <ImageClip extentID="2473" gapBefore="0" mediaItemID="2469" duration="0.20000000000000001">
      <Effects />
      <Transitions />
      <BoundProperties>
        <BoundPropertyInt Name="rotateStepNinety" Value="0" />
      </BoundProperties>
    </ImageClip>
    <ImageClip extentID="2474" gapBefore="0" mediaItemID="2470" duration="0.20000000000000001">
      <Effects />
      <Transitions />
      <BoundProperties>
        <BoundPropertyInt Name="rotateStepNinety" Value="0" />
      </BoundProperties>
    </ImageClip>
    <ImageClip extentID="2475" gapBefore="0" mediaItemID="2471" duration="0.20000000000000001">
      <Effects />
      <Transitions />
      <BoundProperties>
        <BoundPropertyInt Name="rotateStepNinety" Value="0" />
      </BoundProperties>
    </ImageClip>
    <ImageClip extentID="2476" gapBefore="0" mediaItemID="2472" duration="0.20000000000000001">
      <Effects />
      <Transitions />
      <BoundProperties>
        <BoundPropertyInt Name="rotateStepNinety" Value="0" />
      </BoundProperties>
    </ImageClip>
    <ImageClip extentID="2477" gapBefore="0" mediaItemID="2473" duration="0.20000000000000001">
      <Effects />
      <Transitions />
      <BoundProperties>
        <BoundPropertyInt Name="rotateStepNinety" Value="0" />
      </BoundProperties>
    </ImageClip>
    <ImageClip extentID="2478" gapBefore="0" mediaItemID="2474" duration="0.20000000000000001">
      <Effects />
      <Transitions />
      <BoundProperties>
        <BoundPropertyInt Name="rotateStepNinety" Value="0" />
      </BoundProperties>
    </ImageClip>
    <ImageClip extentID="2479" gapBefore="0" mediaItemID="2475" duration="0.20000000000000001">
      <Effects />
      <Transitions />
      <BoundProperties>
        <BoundPropertyInt Name="rotateStepNinety" Value="0" />
      </BoundProperties>
    </ImageClip>
    <ImageClip extentID="2480" gapBefore="0" mediaItemID="2476" duration="0.20000000000000001">
      <Effects />
      <Transitions />
      <BoundProperties>
        <BoundPropertyInt Name="rotateStepNinety" Value="0" />
      </BoundProperties>
    </ImageClip>
    <ImageClip extentID="2481" gapBefore="0" mediaItemID="2477" duration="0.20000000000000001">
      <Effects />
      <Transitions />
      <BoundProperties>
        <BoundPropertyInt Name="rotateStepNinety" Value="0" />
      </BoundProperties>
    </ImageClip>
    <ImageClip extentID="2482" gapBefore="0" mediaItemID="2478" duration="0.20000000000000001">
      <Effects />
      <Transitions />
      <BoundProperties>
        <BoundPropertyInt Name="rotateStepNinety" Value="0" />
      </BoundProperties>
    </ImageClip>
    <ImageClip extentID="2483" gapBefore="0" mediaItemID="2479" duration="0.20000000000000001">
      <Effects />
      <Transitions />
      <BoundProperties>
        <BoundPropertyInt Name="rotateStepNinety" Value="0" />
      </BoundProperties>
    </ImageClip>
    <ImageClip extentID="2484" gapBefore="0" mediaItemID="2480" duration="0.20000000000000001">
      <Effects />
      <Transitions />
      <BoundProperties>
        <BoundPropertyInt Name="rotateStepNinety" Value="0" />
      </BoundProperties>
    </ImageClip>
    <ImageClip extentID="2485" gapBefore="0" mediaItemID="2481" duration="0.20000000000000001">
      <Effects />
      <Transitions />
      <BoundProperties>
        <BoundPropertyInt Name="rotateStepNinety" Value="0" />
      </BoundProperties>
    </ImageClip>
    <ImageClip extentID="2486" gapBefore="0" mediaItemID="2482" duration="0.20000000000000001">
      <Effects />
      <Transitions />
      <BoundProperties>
        <BoundPropertyInt Name="rotateStepNinety" Value="0" />
      </BoundProperties>
    </ImageClip>
    <ImageClip extentID="2487" gapBefore="0" mediaItemID="2483" duration="0.20000000000000001">
      <Effects />
      <Transitions />
      <BoundProperties>
        <BoundPropertyInt Name="rotateStepNinety" Value="0" />
      </BoundProperties>
    </ImageClip>
    <ImageClip extentID="2488" gapBefore="0" mediaItemID="2484" duration="0.20000000000000001">
      <Effects />
      <Transitions />
      <BoundProperties>
        <BoundPropertyInt Name="rotateStepNinety" Value="0" />
      </BoundProperties>
    </ImageClip>
    <ImageClip extentID="2489" gapBefore="0" mediaItemID="2485" duration="0.20000000000000001">
      <Effects />
      <Transitions />
      <BoundProperties>
        <BoundPropertyInt Name="rotateStepNinety" Value="0" />
      </BoundProperties>
    </ImageClip>
    <ImageClip extentID="2490" gapBefore="0" mediaItemID="2486" duration="0.20000000000000001">
      <Effects />
      <Transitions />
      <BoundProperties>
        <BoundPropertyInt Name="rotateStepNinety" Value="0" />
      </BoundProperties>
    </ImageClip>
    <ImageClip extentID="2491" gapBefore="0" mediaItemID="2487" duration="0.20000000000000001">
      <Effects />
      <Transitions />
      <BoundProperties>
        <BoundPropertyInt Name="rotateStepNinety" Value="0" />
      </BoundProperties>
    </ImageClip>
    <ImageClip extentID="2492" gapBefore="0" mediaItemID="2488" duration="0.20000000000000001">
      <Effects />
      <Transitions />
      <BoundProperties>
        <BoundPropertyInt Name="rotateStepNinety" Value="0" />
      </BoundProperties>
    </ImageClip>
    <ImageClip extentID="2493" gapBefore="0" mediaItemID="2489" duration="0.20000000000000001">
      <Effects />
      <Transitions />
      <BoundProperties>
        <BoundPropertyInt Name="rotateStepNinety" Value="0" />
      </BoundProperties>
    </ImageClip>
    <ImageClip extentID="2494" gapBefore="0" mediaItemID="2490" duration="0.20000000000000001">
      <Effects />
      <Transitions />
      <BoundProperties>
        <BoundPropertyInt Name="rotateStepNinety" Value="0" />
      </BoundProperties>
    </ImageClip>
    <ImageClip extentID="2495" gapBefore="0" mediaItemID="2491" duration="0.20000000000000001">
      <Effects />
      <Transitions />
      <BoundProperties>
        <BoundPropertyInt Name="rotateStepNinety" Value="0" />
      </BoundProperties>
    </ImageClip>
    <ImageClip extentID="2496" gapBefore="0" mediaItemID="2492" duration="0.20000000000000001">
      <Effects />
      <Transitions />
      <BoundProperties>
        <BoundPropertyInt Name="rotateStepNinety" Value="0" />
      </BoundProperties>
    </ImageClip>
    <ImageClip extentID="2497" gapBefore="0" mediaItemID="2493" duration="0.20000000000000001">
      <Effects />
      <Transitions />
      <BoundProperties>
        <BoundPropertyInt Name="rotateStepNinety" Value="0" />
      </BoundProperties>
    </ImageClip>
    <ImageClip extentID="2498" gapBefore="0" mediaItemID="2494" duration="0.20000000000000001">
      <Effects />
      <Transitions />
      <BoundProperties>
        <BoundPropertyInt Name="rotateStepNinety" Value="0" />
      </BoundProperties>
    </ImageClip>
    <ImageClip extentID="2499" gapBefore="0" mediaItemID="2495" duration="0.20000000000000001">
      <Effects />
      <Transitions />
      <BoundProperties>
        <BoundPropertyInt Name="rotateStepNinety" Value="0" />
      </BoundProperties>
    </ImageClip>
    <ImageClip extentID="2500" gapBefore="0" mediaItemID="2496" duration="0.20000000000000001">
      <Effects />
      <Transitions />
      <BoundProperties>
        <BoundPropertyInt Name="rotateStepNinety" Value="0" />
      </BoundProperties>
    </ImageClip>
    <ImageClip extentID="2501" gapBefore="0" mediaItemID="2497" duration="0.20000000000000001">
      <Effects />
      <Transitions />
      <BoundProperties>
        <BoundPropertyInt Name="rotateStepNinety" Value="0" />
      </BoundProperties>
    </ImageClip>
    <ImageClip extentID="2502" gapBefore="0" mediaItemID="2498" duration="0.20000000000000001">
      <Effects />
      <Transitions />
      <BoundProperties>
        <BoundPropertyInt Name="rotateStepNinety" Value="0" />
      </BoundProperties>
    </ImageClip>
    <ImageClip extentID="2503" gapBefore="0" mediaItemID="2499" duration="0.20000000000000001">
      <Effects />
      <Transitions />
      <BoundProperties>
        <BoundPropertyInt Name="rotateStepNinety" Value="0" />
      </BoundProperties>
    </ImageClip>
    <ImageClip extentID="2504" gapBefore="0" mediaItemID="2500" duration="0.20000000000000001">
      <Effects />
      <Transitions />
      <BoundProperties>
        <BoundPropertyInt Name="rotateStepNinety" Value="0" />
      </BoundProperties>
    </ImageClip>
    <ImageClip extentID="2505" gapBefore="0" mediaItemID="2501" duration="0.20000000000000001">
      <Effects />
      <Transitions />
      <BoundProperties>
        <BoundPropertyInt Name="rotateStepNinety" Value="0" />
      </BoundProperties>
    </ImageClip>
    <ImageClip extentID="2506" gapBefore="0" mediaItemID="2502" duration="0.20000000000000001">
      <Effects />
      <Transitions />
      <BoundProperties>
        <BoundPropertyInt Name="rotateStepNinety" Value="0" />
      </BoundProperties>
    </ImageClip>
    <ImageClip extentID="2507" gapBefore="0" mediaItemID="2503" duration="0.20000000000000001">
      <Effects />
      <Transitions />
      <BoundProperties>
        <BoundPropertyInt Name="rotateStepNinety" Value="0" />
      </BoundProperties>
    </ImageClip>
    <ImageClip extentID="2508" gapBefore="0" mediaItemID="2504" duration="0.20000000000000001">
      <Effects />
      <Transitions />
      <BoundProperties>
        <BoundPropertyInt Name="rotateStepNinety" Value="0" />
      </BoundProperties>
    </ImageClip>
    <ImageClip extentID="2509" gapBefore="0" mediaItemID="2505" duration="0.20000000000000001">
      <Effects />
      <Transitions />
      <BoundProperties>
        <BoundPropertyInt Name="rotateStepNinety" Value="0" />
      </BoundProperties>
    </ImageClip>
    <ImageClip extentID="2510" gapBefore="0" mediaItemID="2506" duration="0.20000000000000001">
      <Effects />
      <Transitions />
      <BoundProperties>
        <BoundPropertyInt Name="rotateStepNinety" Value="0" />
      </BoundProperties>
    </ImageClip>
    <ImageClip extentID="2511" gapBefore="0" mediaItemID="2507" duration="0.20000000000000001">
      <Effects />
      <Transitions />
      <BoundProperties>
        <BoundPropertyInt Name="rotateStepNinety" Value="0" />
      </BoundProperties>
    </ImageClip>
    <ImageClip extentID="2512" gapBefore="0" mediaItemID="2508" duration="0.20000000000000001">
      <Effects />
      <Transitions />
      <BoundProperties>
        <BoundPropertyInt Name="rotateStepNinety" Value="0" />
      </BoundProperties>
    </ImageClip>
    <ImageClip extentID="2513" gapBefore="0" mediaItemID="2509" duration="0.20000000000000001">
      <Effects />
      <Transitions />
      <BoundProperties>
        <BoundPropertyInt Name="rotateStepNinety" Value="0" />
      </BoundProperties>
    </ImageClip>
    <ImageClip extentID="2514" gapBefore="0" mediaItemID="2510" duration="0.20000000000000001">
      <Effects />
      <Transitions />
      <BoundProperties>
        <BoundPropertyInt Name="rotateStepNinety" Value="0" />
      </BoundProperties>
    </ImageClip>
    <ImageClip extentID="2515" gapBefore="0" mediaItemID="2511" duration="0.20000000000000001">
      <Effects />
      <Transitions />
      <BoundProperties>
        <BoundPropertyInt Name="rotateStepNinety" Value="0" />
      </BoundProperties>
    </ImageClip>
    <ImageClip extentID="2516" gapBefore="0" mediaItemID="2512" duration="0.20000000000000001">
      <Effects />
      <Transitions />
      <BoundProperties>
        <BoundPropertyInt Name="rotateStepNinety" Value="0" />
      </BoundProperties>
    </ImageClip>
    <ImageClip extentID="2517" gapBefore="0" mediaItemID="2513" duration="0.20000000000000001">
      <Effects />
      <Transitions />
      <BoundProperties>
        <BoundPropertyInt Name="rotateStepNinety" Value="0" />
      </BoundProperties>
    </ImageClip>
    <ImageClip extentID="2518" gapBefore="0" mediaItemID="2514" duration="0.20000000000000001">
      <Effects />
      <Transitions />
      <BoundProperties>
        <BoundPropertyInt Name="rotateStepNinety" Value="0" />
      </BoundProperties>
    </ImageClip>
    <ImageClip extentID="2519" gapBefore="0" mediaItemID="2515" duration="0.20000000000000001">
      <Effects />
      <Transitions />
      <BoundProperties>
        <BoundPropertyInt Name="rotateStepNinety" Value="0" />
      </BoundProperties>
    </ImageClip>
    <ImageClip extentID="2520" gapBefore="0" mediaItemID="2516" duration="0.20000000000000001">
      <Effects />
      <Transitions />
      <BoundProperties>
        <BoundPropertyInt Name="rotateStepNinety" Value="0" />
      </BoundProperties>
    </ImageClip>
    <ImageClip extentID="2521" gapBefore="0" mediaItemID="2517" duration="0.20000000000000001">
      <Effects />
      <Transitions />
      <BoundProperties>
        <BoundPropertyInt Name="rotateStepNinety" Value="0" />
      </BoundProperties>
    </ImageClip>
    <ImageClip extentID="2522" gapBefore="0" mediaItemID="2518" duration="0.20000000000000001">
      <Effects />
      <Transitions />
      <BoundProperties>
        <BoundPropertyInt Name="rotateStepNinety" Value="0" />
      </BoundProperties>
    </ImageClip>
    <ImageClip extentID="2523" gapBefore="0" mediaItemID="2519" duration="0.20000000000000001">
      <Effects />
      <Transitions />
      <BoundProperties>
        <BoundPropertyInt Name="rotateStepNinety" Value="0" />
      </BoundProperties>
    </ImageClip>
    <ImageClip extentID="2524" gapBefore="0" mediaItemID="2520" duration="0.20000000000000001">
      <Effects />
      <Transitions />
      <BoundProperties>
        <BoundPropertyInt Name="rotateStepNinety" Value="0" />
      </BoundProperties>
    </ImageClip>
    <ImageClip extentID="2525" gapBefore="0" mediaItemID="2521" duration="0.20000000000000001">
      <Effects />
      <Transitions />
      <BoundProperties>
        <BoundPropertyInt Name="rotateStepNinety" Value="0" />
      </BoundProperties>
    </ImageClip>
    <ImageClip extentID="2526" gapBefore="0" mediaItemID="2522" duration="0.20000000000000001">
      <Effects />
      <Transitions />
      <BoundProperties>
        <BoundPropertyInt Name="rotateStepNinety" Value="0" />
      </BoundProperties>
    </ImageClip>
    <ImageClip extentID="2527" gapBefore="0" mediaItemID="2523" duration="0.20000000000000001">
      <Effects />
      <Transitions />
      <BoundProperties>
        <BoundPropertyInt Name="rotateStepNinety" Value="0" />
      </BoundProperties>
    </ImageClip>
    <ImageClip extentID="2528" gapBefore="0" mediaItemID="2524" duration="0.20000000000000001">
      <Effects />
      <Transitions />
      <BoundProperties>
        <BoundPropertyInt Name="rotateStepNinety" Value="0" />
      </BoundProperties>
    </ImageClip>
    <ImageClip extentID="2529" gapBefore="0" mediaItemID="2525" duration="0.20000000000000001">
      <Effects />
      <Transitions />
      <BoundProperties>
        <BoundPropertyInt Name="rotateStepNinety" Value="0" />
      </BoundProperties>
    </ImageClip>
    <ImageClip extentID="2530" gapBefore="0" mediaItemID="2526" duration="0.20000000000000001">
      <Effects />
      <Transitions />
      <BoundProperties>
        <BoundPropertyInt Name="rotateStepNinety" Value="0" />
      </BoundProperties>
    </ImageClip>
    <ImageClip extentID="2531" gapBefore="0" mediaItemID="2527" duration="0.20000000000000001">
      <Effects />
      <Transitions />
      <BoundProperties>
        <BoundPropertyInt Name="rotateStepNinety" Value="0" />
      </BoundProperties>
    </ImageClip>
    <ImageClip extentID="2532" gapBefore="0" mediaItemID="2528" duration="0.20000000000000001">
      <Effects />
      <Transitions />
      <BoundProperties>
        <BoundPropertyInt Name="rotateStepNinety" Value="0" />
      </BoundProperties>
    </ImageClip>
    <ImageClip extentID="2533" gapBefore="0" mediaItemID="2529" duration="0.20000000000000001">
      <Effects />
      <Transitions />
      <BoundProperties>
        <BoundPropertyInt Name="rotateStepNinety" Value="0" />
      </BoundProperties>
    </ImageClip>
    <ImageClip extentID="2534" gapBefore="0" mediaItemID="2530" duration="0.20000000000000001">
      <Effects />
      <Transitions />
      <BoundProperties>
        <BoundPropertyInt Name="rotateStepNinety" Value="0" />
      </BoundProperties>
    </ImageClip>
    <ImageClip extentID="2535" gapBefore="0" mediaItemID="2531" duration="0.20000000000000001">
      <Effects />
      <Transitions />
      <BoundProperties>
        <BoundPropertyInt Name="rotateStepNinety" Value="0" />
      </BoundProperties>
    </ImageClip>
    <ImageClip extentID="2536" gapBefore="0" mediaItemID="2532" duration="0.20000000000000001">
      <Effects />
      <Transitions />
      <BoundProperties>
        <BoundPropertyInt Name="rotateStepNinety" Value="0" />
      </BoundProperties>
    </ImageClip>
    <ImageClip extentID="2537" gapBefore="0" mediaItemID="2533" duration="0.20000000000000001">
      <Effects />
      <Transitions />
      <BoundProperties>
        <BoundPropertyInt Name="rotateStepNinety" Value="0" />
      </BoundProperties>
    </ImageClip>
    <ImageClip extentID="2538" gapBefore="0" mediaItemID="2534" duration="0.20000000000000001">
      <Effects />
      <Transitions />
      <BoundProperties>
        <BoundPropertyInt Name="rotateStepNinety" Value="0" />
      </BoundProperties>
    </ImageClip>
    <ImageClip extentID="2539" gapBefore="0" mediaItemID="2535" duration="0.20000000000000001">
      <Effects />
      <Transitions />
      <BoundProperties>
        <BoundPropertyInt Name="rotateStepNinety" Value="0" />
      </BoundProperties>
    </ImageClip>
    <ImageClip extentID="2540" gapBefore="0" mediaItemID="2536" duration="0.20000000000000001">
      <Effects />
      <Transitions />
      <BoundProperties>
        <BoundPropertyInt Name="rotateStepNinety" Value="0" />
      </BoundProperties>
    </ImageClip>
    <ImageClip extentID="2541" gapBefore="0" mediaItemID="2537" duration="0.20000000000000001">
      <Effects />
      <Transitions />
      <BoundProperties>
        <BoundPropertyInt Name="rotateStepNinety" Value="0" />
      </BoundProperties>
    </ImageClip>
    <ImageClip extentID="2542" gapBefore="0" mediaItemID="2538" duration="0.20000000000000001">
      <Effects />
      <Transitions />
      <BoundProperties>
        <BoundPropertyInt Name="rotateStepNinety" Value="0" />
      </BoundProperties>
    </ImageClip>
    <ImageClip extentID="2543" gapBefore="0" mediaItemID="2539" duration="0.20000000000000001">
      <Effects />
      <Transitions />
      <BoundProperties>
        <BoundPropertyInt Name="rotateStepNinety" Value="0" />
      </BoundProperties>
    </ImageClip>
    <ImageClip extentID="2544" gapBefore="0" mediaItemID="2540" duration="0.20000000000000001">
      <Effects />
      <Transitions />
      <BoundProperties>
        <BoundPropertyInt Name="rotateStepNinety" Value="0" />
      </BoundProperties>
    </ImageClip>
    <ImageClip extentID="2545" gapBefore="0" mediaItemID="2541" duration="0.20000000000000001">
      <Effects />
      <Transitions />
      <BoundProperties>
        <BoundPropertyInt Name="rotateStepNinety" Value="0" />
      </BoundProperties>
    </ImageClip>
    <ImageClip extentID="2546" gapBefore="0" mediaItemID="2542" duration="0.20000000000000001">
      <Effects />
      <Transitions />
      <BoundProperties>
        <BoundPropertyInt Name="rotateStepNinety" Value="0" />
      </BoundProperties>
    </ImageClip>
    <ImageClip extentID="2547" gapBefore="0" mediaItemID="2543" duration="0.20000000000000001">
      <Effects />
      <Transitions />
      <BoundProperties>
        <BoundPropertyInt Name="rotateStepNinety" Value="0" />
      </BoundProperties>
    </ImageClip>
    <ImageClip extentID="2548" gapBefore="0" mediaItemID="2544" duration="0.20000000000000001">
      <Effects />
      <Transitions />
      <BoundProperties>
        <BoundPropertyInt Name="rotateStepNinety" Value="0" />
      </BoundProperties>
    </ImageClip>
    <ImageClip extentID="2549" gapBefore="0" mediaItemID="2545" duration="0.20000000000000001">
      <Effects />
      <Transitions />
      <BoundProperties>
        <BoundPropertyInt Name="rotateStepNinety" Value="0" />
      </BoundProperties>
    </ImageClip>
    <ImageClip extentID="2550" gapBefore="0" mediaItemID="2546" duration="0.20000000000000001">
      <Effects />
      <Transitions />
      <BoundProperties>
        <BoundPropertyInt Name="rotateStepNinety" Value="0" />
      </BoundProperties>
    </ImageClip>
    <ImageClip extentID="2551" gapBefore="0" mediaItemID="2547" duration="0.20000000000000001">
      <Effects />
      <Transitions />
      <BoundProperties>
        <BoundPropertyInt Name="rotateStepNinety" Value="0" />
      </BoundProperties>
    </ImageClip>
    <ImageClip extentID="2552" gapBefore="0" mediaItemID="2548" duration="0.20000000000000001">
      <Effects />
      <Transitions />
      <BoundProperties>
        <BoundPropertyInt Name="rotateStepNinety" Value="0" />
      </BoundProperties>
    </ImageClip>
    <ImageClip extentID="2553" gapBefore="0" mediaItemID="2549" duration="0.20000000000000001">
      <Effects />
      <Transitions />
      <BoundProperties>
        <BoundPropertyInt Name="rotateStepNinety" Value="0" />
      </BoundProperties>
    </ImageClip>
    <ImageClip extentID="2554" gapBefore="0" mediaItemID="2550" duration="0.20000000000000001">
      <Effects />
      <Transitions />
      <BoundProperties>
        <BoundPropertyInt Name="rotateStepNinety" Value="0" />
      </BoundProperties>
    </ImageClip>
    <ImageClip extentID="2555" gapBefore="0" mediaItemID="2551" duration="0.20000000000000001">
      <Effects />
      <Transitions />
      <BoundProperties>
        <BoundPropertyInt Name="rotateStepNinety" Value="0" />
      </BoundProperties>
    </ImageClip>
    <ImageClip extentID="2556" gapBefore="0" mediaItemID="2552" duration="0.20000000000000001">
      <Effects />
      <Transitions />
      <BoundProperties>
        <BoundPropertyInt Name="rotateStepNinety" Value="0" />
      </BoundProperties>
    </ImageClip>
    <ImageClip extentID="2557" gapBefore="0" mediaItemID="2553" duration="0.20000000000000001">
      <Effects />
      <Transitions />
      <BoundProperties>
        <BoundPropertyInt Name="rotateStepNinety" Value="0" />
      </BoundProperties>
    </ImageClip>
    <ImageClip extentID="2558" gapBefore="0" mediaItemID="2554" duration="0.20000000000000001">
      <Effects />
      <Transitions />
      <BoundProperties>
        <BoundPropertyInt Name="rotateStepNinety" Value="0" />
      </BoundProperties>
    </ImageClip>
    <ImageClip extentID="2559" gapBefore="0" mediaItemID="2555" duration="0.20000000000000001">
      <Effects />
      <Transitions />
      <BoundProperties>
        <BoundPropertyInt Name="rotateStepNinety" Value="0" />
      </BoundProperties>
    </ImageClip>
    <ImageClip extentID="2560" gapBefore="0" mediaItemID="2556" duration="0.20000000000000001">
      <Effects />
      <Transitions />
      <BoundProperties>
        <BoundPropertyInt Name="rotateStepNinety" Value="0" />
      </BoundProperties>
    </ImageClip>
    <ImageClip extentID="2561" gapBefore="0" mediaItemID="2557" duration="0.20000000000000001">
      <Effects />
      <Transitions />
      <BoundProperties>
        <BoundPropertyInt Name="rotateStepNinety" Value="0" />
      </BoundProperties>
    </ImageClip>
    <ImageClip extentID="2562" gapBefore="0" mediaItemID="2558" duration="0.20000000000000001">
      <Effects />
      <Transitions />
      <BoundProperties>
        <BoundPropertyInt Name="rotateStepNinety" Value="0" />
      </BoundProperties>
    </ImageClip>
    <ImageClip extentID="2563" gapBefore="0" mediaItemID="2559" duration="0.20000000000000001">
      <Effects />
      <Transitions />
      <BoundProperties>
        <BoundPropertyInt Name="rotateStepNinety" Value="0" />
      </BoundProperties>
    </ImageClip>
    <ImageClip extentID="2564" gapBefore="0" mediaItemID="2560" duration="0.20000000000000001">
      <Effects />
      <Transitions />
      <BoundProperties>
        <BoundPropertyInt Name="rotateStepNinety" Value="0" />
      </BoundProperties>
    </ImageClip>
    <ImageClip extentID="2565" gapBefore="0" mediaItemID="2561" duration="0.20000000000000001">
      <Effects />
      <Transitions />
      <BoundProperties>
        <BoundPropertyInt Name="rotateStepNinety" Value="0" />
      </BoundProperties>
    </ImageClip>
    <ImageClip extentID="2566" gapBefore="0" mediaItemID="2562" duration="0.20000000000000001">
      <Effects />
      <Transitions />
      <BoundProperties>
        <BoundPropertyInt Name="rotateStepNinety" Value="0" />
      </BoundProperties>
    </ImageClip>
    <ImageClip extentID="2567" gapBefore="0" mediaItemID="2563" duration="0.20000000000000001">
      <Effects />
      <Transitions />
      <BoundProperties>
        <BoundPropertyInt Name="rotateStepNinety" Value="0" />
      </BoundProperties>
    </ImageClip>
    <ImageClip extentID="2568" gapBefore="0" mediaItemID="2564" duration="0.20000000000000001">
      <Effects />
      <Transitions />
      <BoundProperties>
        <BoundPropertyInt Name="rotateStepNinety" Value="0" />
      </BoundProperties>
    </ImageClip>
    <ImageClip extentID="2569" gapBefore="0" mediaItemID="2565" duration="0.20000000000000001">
      <Effects />
      <Transitions />
      <BoundProperties>
        <BoundPropertyInt Name="rotateStepNinety" Value="0" />
      </BoundProperties>
    </ImageClip>
    <ImageClip extentID="2570" gapBefore="0" mediaItemID="2566" duration="0.20000000000000001">
      <Effects />
      <Transitions />
      <BoundProperties>
        <BoundPropertyInt Name="rotateStepNinety" Value="0" />
      </BoundProperties>
    </ImageClip>
    <ImageClip extentID="2571" gapBefore="0" mediaItemID="2567" duration="0.20000000000000001">
      <Effects />
      <Transitions />
      <BoundProperties>
        <BoundPropertyInt Name="rotateStepNinety" Value="0" />
      </BoundProperties>
    </ImageClip>
    <ImageClip extentID="2572" gapBefore="0" mediaItemID="2568" duration="0.20000000000000001">
      <Effects />
      <Transitions />
      <BoundProperties>
        <BoundPropertyInt Name="rotateStepNinety" Value="0" />
      </BoundProperties>
    </ImageClip>
    <ImageClip extentID="2573" gapBefore="0" mediaItemID="2569" duration="0.20000000000000001">
      <Effects />
      <Transitions />
      <BoundProperties>
        <BoundPropertyInt Name="rotateStepNinety" Value="0" />
      </BoundProperties>
    </ImageClip>
    <ImageClip extentID="2574" gapBefore="0" mediaItemID="2570" duration="0.20000000000000001">
      <Effects />
      <Transitions />
      <BoundProperties>
        <BoundPropertyInt Name="rotateStepNinety" Value="0" />
      </BoundProperties>
    </ImageClip>
    <ImageClip extentID="2575" gapBefore="0" mediaItemID="2571" duration="0.20000000000000001">
      <Effects />
      <Transitions />
      <BoundProperties>
        <BoundPropertyInt Name="rotateStepNinety" Value="0" />
      </BoundProperties>
    </ImageClip>
    <ImageClip extentID="2576" gapBefore="0" mediaItemID="2572" duration="0.20000000000000001">
      <Effects />
      <Transitions />
      <BoundProperties>
        <BoundPropertyInt Name="rotateStepNinety" Value="0" />
      </BoundProperties>
    </ImageClip>
    <ImageClip extentID="2577" gapBefore="0" mediaItemID="2573" duration="0.20000000000000001">
      <Effects />
      <Transitions />
      <BoundProperties>
        <BoundPropertyInt Name="rotateStepNinety" Value="0" />
      </BoundProperties>
    </ImageClip>
    <ImageClip extentID="2578" gapBefore="0" mediaItemID="2574" duration="0.20000000000000001">
      <Effects />
      <Transitions />
      <BoundProperties>
        <BoundPropertyInt Name="rotateStepNinety" Value="0" />
      </BoundProperties>
    </ImageClip>
    <ImageClip extentID="2579" gapBefore="0" mediaItemID="2575" duration="0.20000000000000001">
      <Effects />
      <Transitions />
      <BoundProperties>
        <BoundPropertyInt Name="rotateStepNinety" Value="0" />
      </BoundProperties>
    </ImageClip>
    <ImageClip extentID="2580" gapBefore="0" mediaItemID="2576" duration="0.20000000000000001">
      <Effects />
      <Transitions />
      <BoundProperties>
        <BoundPropertyInt Name="rotateStepNinety" Value="0" />
      </BoundProperties>
    </ImageClip>
    <ImageClip extentID="2581" gapBefore="0" mediaItemID="2577" duration="0.20000000000000001">
      <Effects />
      <Transitions />
      <BoundProperties>
        <BoundPropertyInt Name="rotateStepNinety" Value="0" />
      </BoundProperties>
    </ImageClip>
    <ImageClip extentID="2582" gapBefore="0" mediaItemID="2578" duration="0.20000000000000001">
      <Effects />
      <Transitions />
      <BoundProperties>
        <BoundPropertyInt Name="rotateStepNinety" Value="0" />
      </BoundProperties>
    </ImageClip>
    <ImageClip extentID="2583" gapBefore="0" mediaItemID="2579" duration="0.20000000000000001">
      <Effects />
      <Transitions />
      <BoundProperties>
        <BoundPropertyInt Name="rotateStepNinety" Value="0" />
      </BoundProperties>
    </ImageClip>
    <ImageClip extentID="2584" gapBefore="0" mediaItemID="2580" duration="0.20000000000000001">
      <Effects />
      <Transitions />
      <BoundProperties>
        <BoundPropertyInt Name="rotateStepNinety" Value="0" />
      </BoundProperties>
    </ImageClip>
    <ImageClip extentID="2585" gapBefore="0" mediaItemID="2581" duration="0.20000000000000001">
      <Effects />
      <Transitions />
      <BoundProperties>
        <BoundPropertyInt Name="rotateStepNinety" Value="0" />
      </BoundProperties>
    </ImageClip>
    <ImageClip extentID="2586" gapBefore="0" mediaItemID="2582" duration="0.20000000000000001">
      <Effects />
      <Transitions />
      <BoundProperties>
        <BoundPropertyInt Name="rotateStepNinety" Value="0" />
      </BoundProperties>
    </ImageClip>
    <ImageClip extentID="2587" gapBefore="0" mediaItemID="2583" duration="0.20000000000000001">
      <Effects />
      <Transitions />
      <BoundProperties>
        <BoundPropertyInt Name="rotateStepNinety" Value="0" />
      </BoundProperties>
    </ImageClip>
    <ImageClip extentID="2588" gapBefore="0" mediaItemID="2584" duration="0.20000000000000001">
      <Effects />
      <Transitions />
      <BoundProperties>
        <BoundPropertyInt Name="rotateStepNinety" Value="0" />
      </BoundProperties>
    </ImageClip>
    <ImageClip extentID="2589" gapBefore="0" mediaItemID="2585" duration="0.20000000000000001">
      <Effects />
      <Transitions />
      <BoundProperties>
        <BoundPropertyInt Name="rotateStepNinety" Value="0" />
      </BoundProperties>
    </ImageClip>
    <ImageClip extentID="2590" gapBefore="0" mediaItemID="2586" duration="0.20000000000000001">
      <Effects />
      <Transitions />
      <BoundProperties>
        <BoundPropertyInt Name="rotateStepNinety" Value="0" />
      </BoundProperties>
    </ImageClip>
    <ImageClip extentID="2591" gapBefore="0" mediaItemID="2587" duration="0.20000000000000001">
      <Effects />
      <Transitions />
      <BoundProperties>
        <BoundPropertyInt Name="rotateStepNinety" Value="0" />
      </BoundProperties>
    </ImageClip>
    <ImageClip extentID="2592" gapBefore="0" mediaItemID="2588" duration="0.20000000000000001">
      <Effects />
      <Transitions />
      <BoundProperties>
        <BoundPropertyInt Name="rotateStepNinety" Value="0" />
      </BoundProperties>
    </ImageClip>
    <ImageClip extentID="2593" gapBefore="0" mediaItemID="2589" duration="0.20000000000000001">
      <Effects />
      <Transitions />
      <BoundProperties>
        <BoundPropertyInt Name="rotateStepNinety" Value="0" />
      </BoundProperties>
    </ImageClip>
    <ImageClip extentID="2594" gapBefore="0" mediaItemID="2590" duration="0.20000000000000001">
      <Effects />
      <Transitions />
      <BoundProperties>
        <BoundPropertyInt Name="rotateStepNinety" Value="0" />
      </BoundProperties>
    </ImageClip>
    <ImageClip extentID="2595" gapBefore="0" mediaItemID="2591" duration="0.20000000000000001">
      <Effects />
      <Transitions />
      <BoundProperties>
        <BoundPropertyInt Name="rotateStepNinety" Value="0" />
      </BoundProperties>
    </ImageClip>
    <ImageClip extentID="2596" gapBefore="0" mediaItemID="2592" duration="0.20000000000000001">
      <Effects />
      <Transitions />
      <BoundProperties>
        <BoundPropertyInt Name="rotateStepNinety" Value="0" />
      </BoundProperties>
    </ImageClip>
    <ImageClip extentID="2597" gapBefore="0" mediaItemID="2593" duration="0.20000000000000001">
      <Effects />
      <Transitions />
      <BoundProperties>
        <BoundPropertyInt Name="rotateStepNinety" Value="0" />
      </BoundProperties>
    </ImageClip>
    <ImageClip extentID="2598" gapBefore="0" mediaItemID="2594" duration="0.20000000000000001">
      <Effects />
      <Transitions />
      <BoundProperties>
        <BoundPropertyInt Name="rotateStepNinety" Value="0" />
      </BoundProperties>
    </ImageClip>
    <ImageClip extentID="2599" gapBefore="0" mediaItemID="2595" duration="0.20000000000000001">
      <Effects />
      <Transitions />
      <BoundProperties>
        <BoundPropertyInt Name="rotateStepNinety" Value="0" />
      </BoundProperties>
    </ImageClip>
    <ImageClip extentID="2600" gapBefore="0" mediaItemID="2596" duration="0.20000000000000001">
      <Effects />
      <Transitions />
      <BoundProperties>
        <BoundPropertyInt Name="rotateStepNinety" Value="0" />
      </BoundProperties>
    </ImageClip>
    <ImageClip extentID="2601" gapBefore="0" mediaItemID="2597" duration="0.20000000000000001">
      <Effects />
      <Transitions />
      <BoundProperties>
        <BoundPropertyInt Name="rotateStepNinety" Value="0" />
      </BoundProperties>
    </ImageClip>
    <ImageClip extentID="2602" gapBefore="0" mediaItemID="2598" duration="0.20000000000000001">
      <Effects />
      <Transitions />
      <BoundProperties>
        <BoundPropertyInt Name="rotateStepNinety" Value="0" />
      </BoundProperties>
    </ImageClip>
    <ImageClip extentID="2603" gapBefore="0" mediaItemID="2599" duration="0.20000000000000001">
      <Effects />
      <Transitions />
      <BoundProperties>
        <BoundPropertyInt Name="rotateStepNinety" Value="0" />
      </BoundProperties>
    </ImageClip>
    <ImageClip extentID="2604" gapBefore="0" mediaItemID="2600" duration="0.20000000000000001">
      <Effects />
      <Transitions />
      <BoundProperties>
        <BoundPropertyInt Name="rotateStepNinety" Value="0" />
      </BoundProperties>
    </ImageClip>
    <ImageClip extentID="2605" gapBefore="0" mediaItemID="2601" duration="0.20000000000000001">
      <Effects />
      <Transitions />
      <BoundProperties>
        <BoundPropertyInt Name="rotateStepNinety" Value="0" />
      </BoundProperties>
    </ImageClip>
    <ImageClip extentID="2606" gapBefore="0" mediaItemID="2602" duration="0.20000000000000001">
      <Effects />
      <Transitions />
      <BoundProperties>
        <BoundPropertyInt Name="rotateStepNinety" Value="0" />
      </BoundProperties>
    </ImageClip>
    <ImageClip extentID="2607" gapBefore="0" mediaItemID="2603" duration="0.20000000000000001">
      <Effects />
      <Transitions />
      <BoundProperties>
        <BoundPropertyInt Name="rotateStepNinety" Value="0" />
      </BoundProperties>
    </ImageClip>
    <ImageClip extentID="2608" gapBefore="0" mediaItemID="2604" duration="0.20000000000000001">
      <Effects />
      <Transitions />
      <BoundProperties>
        <BoundPropertyInt Name="rotateStepNinety" Value="0" />
      </BoundProperties>
    </ImageClip>
    <ImageClip extentID="2609" gapBefore="0" mediaItemID="2605" duration="0.20000000000000001">
      <Effects />
      <Transitions />
      <BoundProperties>
        <BoundPropertyInt Name="rotateStepNinety" Value="0" />
      </BoundProperties>
    </ImageClip>
    <ImageClip extentID="2610" gapBefore="0" mediaItemID="2606" duration="0.20000000000000001">
      <Effects />
      <Transitions />
      <BoundProperties>
        <BoundPropertyInt Name="rotateStepNinety" Value="0" />
      </BoundProperties>
    </ImageClip>
    <ImageClip extentID="2611" gapBefore="0" mediaItemID="2607" duration="0.20000000000000001">
      <Effects />
      <Transitions />
      <BoundProperties>
        <BoundPropertyInt Name="rotateStepNinety" Value="0" />
      </BoundProperties>
    </ImageClip>
    <ImageClip extentID="2612" gapBefore="0" mediaItemID="2608" duration="0.20000000000000001">
      <Effects />
      <Transitions />
      <BoundProperties>
        <BoundPropertyInt Name="rotateStepNinety" Value="0" />
      </BoundProperties>
    </ImageClip>
    <ImageClip extentID="2613" gapBefore="0" mediaItemID="2609" duration="0.20000000000000001">
      <Effects />
      <Transitions />
      <BoundProperties>
        <BoundPropertyInt Name="rotateStepNinety" Value="0" />
      </BoundProperties>
    </ImageClip>
    <ImageClip extentID="2614" gapBefore="0" mediaItemID="2610" duration="0.20000000000000001">
      <Effects />
      <Transitions />
      <BoundProperties>
        <BoundPropertyInt Name="rotateStepNinety" Value="0" />
      </BoundProperties>
    </ImageClip>
    <ImageClip extentID="2615" gapBefore="0" mediaItemID="2611" duration="0.20000000000000001">
      <Effects />
      <Transitions />
      <BoundProperties>
        <BoundPropertyInt Name="rotateStepNinety" Value="0" />
      </BoundProperties>
    </ImageClip>
    <ImageClip extentID="2616" gapBefore="0" mediaItemID="2612" duration="0.20000000000000001">
      <Effects />
      <Transitions />
      <BoundProperties>
        <BoundPropertyInt Name="rotateStepNinety" Value="0" />
      </BoundProperties>
    </ImageClip>
    <ImageClip extentID="2617" gapBefore="0" mediaItemID="2613" duration="0.20000000000000001">
      <Effects />
      <Transitions />
      <BoundProperties>
        <BoundPropertyInt Name="rotateStepNinety" Value="0" />
      </BoundProperties>
    </ImageClip>
    <ImageClip extentID="2618" gapBefore="0" mediaItemID="2614" duration="0.20000000000000001">
      <Effects />
      <Transitions />
      <BoundProperties>
        <BoundPropertyInt Name="rotateStepNinety" Value="0" />
      </BoundProperties>
    </ImageClip>
    <ImageClip extentID="2619" gapBefore="0" mediaItemID="2615" duration="0.20000000000000001">
      <Effects />
      <Transitions />
      <BoundProperties>
        <BoundPropertyInt Name="rotateStepNinety" Value="0" />
      </BoundProperties>
    </ImageClip>
    <ImageClip extentID="2620" gapBefore="0" mediaItemID="2616" duration="0.20000000000000001">
      <Effects />
      <Transitions />
      <BoundProperties>
        <BoundPropertyInt Name="rotateStepNinety" Value="0" />
      </BoundProperties>
    </ImageClip>
    <ImageClip extentID="2621" gapBefore="0" mediaItemID="2617" duration="0.20000000000000001">
      <Effects />
      <Transitions />
      <BoundProperties>
        <BoundPropertyInt Name="rotateStepNinety" Value="0" />
      </BoundProperties>
    </ImageClip>
    <ImageClip extentID="2622" gapBefore="0" mediaItemID="2618" duration="0.20000000000000001">
      <Effects />
      <Transitions />
      <BoundProperties>
        <BoundPropertyInt Name="rotateStepNinety" Value="0" />
      </BoundProperties>
    </ImageClip>
    <ImageClip extentID="2623" gapBefore="0" mediaItemID="2619" duration="0.20000000000000001">
      <Effects />
      <Transitions />
      <BoundProperties>
        <BoundPropertyInt Name="rotateStepNinety" Value="0" />
      </BoundProperties>
    </ImageClip>
    <ImageClip extentID="2624" gapBefore="0" mediaItemID="2620" duration="0.20000000000000001">
      <Effects />
      <Transitions />
      <BoundProperties>
        <BoundPropertyInt Name="rotateStepNinety" Value="0" />
      </BoundProperties>
    </ImageClip>
    <ImageClip extentID="2625" gapBefore="0" mediaItemID="2621" duration="0.20000000000000001">
      <Effects />
      <Transitions />
      <BoundProperties>
        <BoundPropertyInt Name="rotateStepNinety" Value="0" />
      </BoundProperties>
    </ImageClip>
    <ImageClip extentID="2626" gapBefore="0" mediaItemID="2622" duration="0.20000000000000001">
      <Effects />
      <Transitions />
      <BoundProperties>
        <BoundPropertyInt Name="rotateStepNinety" Value="0" />
      </BoundProperties>
    </ImageClip>
    <ImageClip extentID="2627" gapBefore="0" mediaItemID="2623" duration="0.20000000000000001">
      <Effects />
      <Transitions />
      <BoundProperties>
        <BoundPropertyInt Name="rotateStepNinety" Value="0" />
      </BoundProperties>
    </ImageClip>
    <ImageClip extentID="2628" gapBefore="0" mediaItemID="2624" duration="0.20000000000000001">
      <Effects />
      <Transitions />
      <BoundProperties>
        <BoundPropertyInt Name="rotateStepNinety" Value="0" />
      </BoundProperties>
    </ImageClip>
    <ImageClip extentID="2629" gapBefore="0" mediaItemID="2625" duration="0.20000000000000001">
      <Effects />
      <Transitions />
      <BoundProperties>
        <BoundPropertyInt Name="rotateStepNinety" Value="0" />
      </BoundProperties>
    </ImageClip>
    <ImageClip extentID="2630" gapBefore="0" mediaItemID="2626" duration="0.20000000000000001">
      <Effects />
      <Transitions />
      <BoundProperties>
        <BoundPropertyInt Name="rotateStepNinety" Value="0" />
      </BoundProperties>
    </ImageClip>
    <ImageClip extentID="2631" gapBefore="0" mediaItemID="2627" duration="0.20000000000000001">
      <Effects />
      <Transitions />
      <BoundProperties>
        <BoundPropertyInt Name="rotateStepNinety" Value="0" />
      </BoundProperties>
    </ImageClip>
    <ImageClip extentID="2632" gapBefore="0" mediaItemID="2628" duration="0.20000000000000001">
      <Effects />
      <Transitions />
      <BoundProperties>
        <BoundPropertyInt Name="rotateStepNinety" Value="0" />
      </BoundProperties>
    </ImageClip>
    <ImageClip extentID="2633" gapBefore="0" mediaItemID="2629" duration="0.20000000000000001">
      <Effects />
      <Transitions />
      <BoundProperties>
        <BoundPropertyInt Name="rotateStepNinety" Value="0" />
      </BoundProperties>
    </ImageClip>
    <ImageClip extentID="2634" gapBefore="0" mediaItemID="2630" duration="0.20000000000000001">
      <Effects />
      <Transitions />
      <BoundProperties>
        <BoundPropertyInt Name="rotateStepNinety" Value="0" />
      </BoundProperties>
    </ImageClip>
    <ImageClip extentID="2635" gapBefore="0" mediaItemID="2631" duration="0.20000000000000001">
      <Effects />
      <Transitions />
      <BoundProperties>
        <BoundPropertyInt Name="rotateStepNinety" Value="0" />
      </BoundProperties>
    </ImageClip>
    <ImageClip extentID="2636" gapBefore="0" mediaItemID="2632" duration="0.20000000000000001">
      <Effects />
      <Transitions />
      <BoundProperties>
        <BoundPropertyInt Name="rotateStepNinety" Value="0" />
      </BoundProperties>
    </ImageClip>
    <ImageClip extentID="2637" gapBefore="0" mediaItemID="2633" duration="0.20000000000000001">
      <Effects />
      <Transitions />
      <BoundProperties>
        <BoundPropertyInt Name="rotateStepNinety" Value="0" />
      </BoundProperties>
    </ImageClip>
    <ImageClip extentID="2638" gapBefore="0" mediaItemID="2634" duration="0.20000000000000001">
      <Effects />
      <Transitions />
      <BoundProperties>
        <BoundPropertyInt Name="rotateStepNinety" Value="0" />
      </BoundProperties>
    </ImageClip>
    <ImageClip extentID="2639" gapBefore="0" mediaItemID="2635" duration="0.20000000000000001">
      <Effects />
      <Transitions />
      <BoundProperties>
        <BoundPropertyInt Name="rotateStepNinety" Value="0" />
      </BoundProperties>
    </ImageClip>
    <ImageClip extentID="2640" gapBefore="0" mediaItemID="2636" duration="0.20000000000000001">
      <Effects />
      <Transitions />
      <BoundProperties>
        <BoundPropertyInt Name="rotateStepNinety" Value="0" />
      </BoundProperties>
    </ImageClip>
    <ImageClip extentID="2641" gapBefore="0" mediaItemID="2637" duration="0.20000000000000001">
      <Effects />
      <Transitions />
      <BoundProperties>
        <BoundPropertyInt Name="rotateStepNinety" Value="0" />
      </BoundProperties>
    </ImageClip>
    <ImageClip extentID="2642" gapBefore="0" mediaItemID="2638" duration="0.20000000000000001">
      <Effects />
      <Transitions />
      <BoundProperties>
        <BoundPropertyInt Name="rotateStepNinety" Value="0" />
      </BoundProperties>
    </ImageClip>
    <ImageClip extentID="2643" gapBefore="0" mediaItemID="2639" duration="0.20000000000000001">
      <Effects />
      <Transitions />
      <BoundProperties>
        <BoundPropertyInt Name="rotateStepNinety" Value="0" />
      </BoundProperties>
    </ImageClip>
    <ImageClip extentID="2644" gapBefore="0" mediaItemID="2640" duration="0.20000000000000001">
      <Effects />
      <Transitions />
      <BoundProperties>
        <BoundPropertyInt Name="rotateStepNinety" Value="0" />
      </BoundProperties>
    </ImageClip>
    <ImageClip extentID="2645" gapBefore="0" mediaItemID="2641" duration="0.20000000000000001">
      <Effects />
      <Transitions />
      <BoundProperties>
        <BoundPropertyInt Name="rotateStepNinety" Value="0" />
      </BoundProperties>
    </ImageClip>
    <ImageClip extentID="2646" gapBefore="0" mediaItemID="2642" duration="0.20000000000000001">
      <Effects />
      <Transitions />
      <BoundProperties>
        <BoundPropertyInt Name="rotateStepNinety" Value="0" />
      </BoundProperties>
    </ImageClip>
    <ImageClip extentID="2647" gapBefore="0" mediaItemID="2643" duration="0.20000000000000001">
      <Effects />
      <Transitions />
      <BoundProperties>
        <BoundPropertyInt Name="rotateStepNinety" Value="0" />
      </BoundProperties>
    </ImageClip>
    <ImageClip extentID="2648" gapBefore="0" mediaItemID="2644" duration="0.20000000000000001">
      <Effects />
      <Transitions />
      <BoundProperties>
        <BoundPropertyInt Name="rotateStepNinety" Value="0" />
      </BoundProperties>
    </ImageClip>
    <ImageClip extentID="2649" gapBefore="0" mediaItemID="2645" duration="0.20000000000000001">
      <Effects />
      <Transitions />
      <BoundProperties>
        <BoundPropertyInt Name="rotateStepNinety" Value="0" />
      </BoundProperties>
    </ImageClip>
    <ImageClip extentID="2650" gapBefore="0" mediaItemID="2646" duration="0.20000000000000001">
      <Effects />
      <Transitions />
      <BoundProperties>
        <BoundPropertyInt Name="rotateStepNinety" Value="0" />
      </BoundProperties>
    </ImageClip>
    <ImageClip extentID="2651" gapBefore="0" mediaItemID="2647" duration="0.20000000000000001">
      <Effects />
      <Transitions />
      <BoundProperties>
        <BoundPropertyInt Name="rotateStepNinety" Value="0" />
      </BoundProperties>
    </ImageClip>
    <ImageClip extentID="2652" gapBefore="0" mediaItemID="2648" duration="0.20000000000000001">
      <Effects />
      <Transitions />
      <BoundProperties>
        <BoundPropertyInt Name="rotateStepNinety" Value="0" />
      </BoundProperties>
    </ImageClip>
    <ImageClip extentID="2653" gapBefore="0" mediaItemID="2649" duration="0.20000000000000001">
      <Effects />
      <Transitions />
      <BoundProperties>
        <BoundPropertyInt Name="rotateStepNinety" Value="0" />
      </BoundProperties>
    </ImageClip>
    <ImageClip extentID="2654" gapBefore="0" mediaItemID="2650" duration="0.20000000000000001">
      <Effects />
      <Transitions />
      <BoundProperties>
        <BoundPropertyInt Name="rotateStepNinety" Value="0" />
      </BoundProperties>
    </ImageClip>
    <ImageClip extentID="2655" gapBefore="0" mediaItemID="2651" duration="0.20000000000000001">
      <Effects />
      <Transitions />
      <BoundProperties>
        <BoundPropertyInt Name="rotateStepNinety" Value="0" />
      </BoundProperties>
    </ImageClip>
    <ImageClip extentID="2656" gapBefore="0" mediaItemID="2652" duration="0.20000000000000001">
      <Effects />
      <Transitions />
      <BoundProperties>
        <BoundPropertyInt Name="rotateStepNinety" Value="0" />
      </BoundProperties>
    </ImageClip>
    <ImageClip extentID="2657" gapBefore="0" mediaItemID="2653" duration="0.20000000000000001">
      <Effects />
      <Transitions />
      <BoundProperties>
        <BoundPropertyInt Name="rotateStepNinety" Value="0" />
      </BoundProperties>
    </ImageClip>
    <ImageClip extentID="2658" gapBefore="0" mediaItemID="2654" duration="0.20000000000000001">
      <Effects />
      <Transitions />
      <BoundProperties>
        <BoundPropertyInt Name="rotateStepNinety" Value="0" />
      </BoundProperties>
    </ImageClip>
    <ImageClip extentID="2659" gapBefore="0" mediaItemID="2655" duration="0.20000000000000001">
      <Effects />
      <Transitions />
      <BoundProperties>
        <BoundPropertyInt Name="rotateStepNinety" Value="0" />
      </BoundProperties>
    </ImageClip>
    <ImageClip extentID="2660" gapBefore="0" mediaItemID="2656" duration="0.20000000000000001">
      <Effects />
      <Transitions />
      <BoundProperties>
        <BoundPropertyInt Name="rotateStepNinety" Value="0" />
      </BoundProperties>
    </ImageClip>
    <ImageClip extentID="2661" gapBefore="0" mediaItemID="2657" duration="0.20000000000000001">
      <Effects />
      <Transitions />
      <BoundProperties>
        <BoundPropertyInt Name="rotateStepNinety" Value="0" />
      </BoundProperties>
    </ImageClip>
    <ImageClip extentID="2662" gapBefore="0" mediaItemID="2658" duration="0.20000000000000001">
      <Effects />
      <Transitions />
      <BoundProperties>
        <BoundPropertyInt Name="rotateStepNinety" Value="0" />
      </BoundProperties>
    </ImageClip>
    <ImageClip extentID="2663" gapBefore="0" mediaItemID="2659" duration="0.20000000000000001">
      <Effects />
      <Transitions />
      <BoundProperties>
        <BoundPropertyInt Name="rotateStepNinety" Value="0" />
      </BoundProperties>
    </ImageClip>
    <ImageClip extentID="2664" gapBefore="0" mediaItemID="2660" duration="0.20000000000000001">
      <Effects />
      <Transitions />
      <BoundProperties>
        <BoundPropertyInt Name="rotateStepNinety" Value="0" />
      </BoundProperties>
    </ImageClip>
    <ImageClip extentID="2665" gapBefore="0" mediaItemID="2661" duration="0.20000000000000001">
      <Effects />
      <Transitions />
      <BoundProperties>
        <BoundPropertyInt Name="rotateStepNinety" Value="0" />
      </BoundProperties>
    </ImageClip>
    <ImageClip extentID="2666" gapBefore="0" mediaItemID="2662" duration="0.20000000000000001">
      <Effects />
      <Transitions />
      <BoundProperties>
        <BoundPropertyInt Name="rotateStepNinety" Value="0" />
      </BoundProperties>
    </ImageClip>
    <ImageClip extentID="2667" gapBefore="0" mediaItemID="2663" duration="0.20000000000000001">
      <Effects />
      <Transitions />
      <BoundProperties>
        <BoundPropertyInt Name="rotateStepNinety" Value="0" />
      </BoundProperties>
    </ImageClip>
    <ImageClip extentID="2668" gapBefore="0" mediaItemID="2664" duration="0.20000000000000001">
      <Effects />
      <Transitions />
      <BoundProperties>
        <BoundPropertyInt Name="rotateStepNinety" Value="0" />
      </BoundProperties>
    </ImageClip>
    <ImageClip extentID="2669" gapBefore="0" mediaItemID="2665" duration="0.20000000000000001">
      <Effects />
      <Transitions />
      <BoundProperties>
        <BoundPropertyInt Name="rotateStepNinety" Value="0" />
      </BoundProperties>
    </ImageClip>
    <ImageClip extentID="2670" gapBefore="0" mediaItemID="2666" duration="0.20000000000000001">
      <Effects />
      <Transitions />
      <BoundProperties>
        <BoundPropertyInt Name="rotateStepNinety" Value="0" />
      </BoundProperties>
    </ImageClip>
    <ImageClip extentID="2671" gapBefore="0" mediaItemID="2667" duration="0.20000000000000001">
      <Effects />
      <Transitions />
      <BoundProperties>
        <BoundPropertyInt Name="rotateStepNinety" Value="0" />
      </BoundProperties>
    </ImageClip>
    <ImageClip extentID="2672" gapBefore="0" mediaItemID="2668" duration="0.20000000000000001">
      <Effects />
      <Transitions />
      <BoundProperties>
        <BoundPropertyInt Name="rotateStepNinety" Value="0" />
      </BoundProperties>
    </ImageClip>
    <ImageClip extentID="2673" gapBefore="0" mediaItemID="2669" duration="0.20000000000000001">
      <Effects />
      <Transitions />
      <BoundProperties>
        <BoundPropertyInt Name="rotateStepNinety" Value="0" />
      </BoundProperties>
    </ImageClip>
    <ImageClip extentID="2674" gapBefore="0" mediaItemID="2670" duration="0.20000000000000001">
      <Effects />
      <Transitions />
      <BoundProperties>
        <BoundPropertyInt Name="rotateStepNinety" Value="0" />
      </BoundProperties>
    </ImageClip>
    <ImageClip extentID="2675" gapBefore="0" mediaItemID="2671" duration="0.20000000000000001">
      <Effects />
      <Transitions />
      <BoundProperties>
        <BoundPropertyInt Name="rotateStepNinety" Value="0" />
      </BoundProperties>
    </ImageClip>
    <ImageClip extentID="2676" gapBefore="0" mediaItemID="2672" duration="0.20000000000000001">
      <Effects />
      <Transitions />
      <BoundProperties>
        <BoundPropertyInt Name="rotateStepNinety" Value="0" />
      </BoundProperties>
    </ImageClip>
    <ImageClip extentID="2677" gapBefore="0" mediaItemID="2673" duration="0.20000000000000001">
      <Effects />
      <Transitions />
      <BoundProperties>
        <BoundPropertyInt Name="rotateStepNinety" Value="0" />
      </BoundProperties>
    </ImageClip>
    <ImageClip extentID="2678" gapBefore="0" mediaItemID="2674" duration="0.20000000000000001">
      <Effects />
      <Transitions />
      <BoundProperties>
        <BoundPropertyInt Name="rotateStepNinety" Value="0" />
      </BoundProperties>
    </ImageClip>
    <ImageClip extentID="2679" gapBefore="0" mediaItemID="2675" duration="0.20000000000000001">
      <Effects />
      <Transitions />
      <BoundProperties>
        <BoundPropertyInt Name="rotateStepNinety" Value="0" />
      </BoundProperties>
    </ImageClip>
    <ImageClip extentID="2680" gapBefore="0" mediaItemID="2676" duration="0.20000000000000001">
      <Effects />
      <Transitions />
      <BoundProperties>
        <BoundPropertyInt Name="rotateStepNinety" Value="0" />
      </BoundProperties>
    </ImageClip>
    <ImageClip extentID="2681" gapBefore="0" mediaItemID="2677" duration="0.20000000000000001">
      <Effects />
      <Transitions />
      <BoundProperties>
        <BoundPropertyInt Name="rotateStepNinety" Value="0" />
      </BoundProperties>
    </ImageClip>
    <ImageClip extentID="2682" gapBefore="0" mediaItemID="2678" duration="0.20000000000000001">
      <Effects />
      <Transitions />
      <BoundProperties>
        <BoundPropertyInt Name="rotateStepNinety" Value="0" />
      </BoundProperties>
    </ImageClip>
    <ImageClip extentID="2683" gapBefore="0" mediaItemID="2679" duration="0.20000000000000001">
      <Effects />
      <Transitions />
      <BoundProperties>
        <BoundPropertyInt Name="rotateStepNinety" Value="0" />
      </BoundProperties>
    </ImageClip>
    <ImageClip extentID="2684" gapBefore="0" mediaItemID="2680" duration="0.20000000000000001">
      <Effects />
      <Transitions />
      <BoundProperties>
        <BoundPropertyInt Name="rotateStepNinety" Value="0" />
      </BoundProperties>
    </ImageClip>
    <ImageClip extentID="2685" gapBefore="0" mediaItemID="2681" duration="0.20000000000000001">
      <Effects />
      <Transitions />
      <BoundProperties>
        <BoundPropertyInt Name="rotateStepNinety" Value="0" />
      </BoundProperties>
    </ImageClip>
    <ImageClip extentID="2686" gapBefore="0" mediaItemID="2682" duration="0.20000000000000001">
      <Effects />
      <Transitions />
      <BoundProperties>
        <BoundPropertyInt Name="rotateStepNinety" Value="0" />
      </BoundProperties>
    </ImageClip>
    <ImageClip extentID="2687" gapBefore="0" mediaItemID="2683" duration="0.20000000000000001">
      <Effects />
      <Transitions />
      <BoundProperties>
        <BoundPropertyInt Name="rotateStepNinety" Value="0" />
      </BoundProperties>
    </ImageClip>
    <ImageClip extentID="2688" gapBefore="0" mediaItemID="2684" duration="0.20000000000000001">
      <Effects />
      <Transitions />
      <BoundProperties>
        <BoundPropertyInt Name="rotateStepNinety" Value="0" />
      </BoundProperties>
    </ImageClip>
    <ImageClip extentID="2689" gapBefore="0" mediaItemID="2685" duration="0.20000000000000001">
      <Effects />
      <Transitions />
      <BoundProperties>
        <BoundPropertyInt Name="rotateStepNinety" Value="0" />
      </BoundProperties>
    </ImageClip>
    <ImageClip extentID="2690" gapBefore="0" mediaItemID="2686" duration="0.20000000000000001">
      <Effects />
      <Transitions />
      <BoundProperties>
        <BoundPropertyInt Name="rotateStepNinety" Value="0" />
      </BoundProperties>
    </ImageClip>
    <ImageClip extentID="2691" gapBefore="0" mediaItemID="2687" duration="0.20000000000000001">
      <Effects />
      <Transitions />
      <BoundProperties>
        <BoundPropertyInt Name="rotateStepNinety" Value="0" />
      </BoundProperties>
    </ImageClip>
    <ImageClip extentID="2692" gapBefore="0" mediaItemID="2688" duration="0.20000000000000001">
      <Effects />
      <Transitions />
      <BoundProperties>
        <BoundPropertyInt Name="rotateStepNinety" Value="0" />
      </BoundProperties>
    </ImageClip>
    <ImageClip extentID="2693" gapBefore="0" mediaItemID="2689" duration="0.20000000000000001">
      <Effects />
      <Transitions />
      <BoundProperties>
        <BoundPropertyInt Name="rotateStepNinety" Value="0" />
      </BoundProperties>
    </ImageClip>
    <ImageClip extentID="2694" gapBefore="0" mediaItemID="2690" duration="0.20000000000000001">
      <Effects />
      <Transitions />
      <BoundProperties>
        <BoundPropertyInt Name="rotateStepNinety" Value="0" />
      </BoundProperties>
    </ImageClip>
    <ImageClip extentID="2695" gapBefore="0" mediaItemID="2691" duration="0.20000000000000001">
      <Effects />
      <Transitions />
      <BoundProperties>
        <BoundPropertyInt Name="rotateStepNinety" Value="0" />
      </BoundProperties>
    </ImageClip>
    <ImageClip extentID="2696" gapBefore="0" mediaItemID="2692" duration="0.20000000000000001">
      <Effects />
      <Transitions />
      <BoundProperties>
        <BoundPropertyInt Name="rotateStepNinety" Value="0" />
      </BoundProperties>
    </ImageClip>
    <ImageClip extentID="2697" gapBefore="0" mediaItemID="2693" duration="0.20000000000000001">
      <Effects />
      <Transitions />
      <BoundProperties>
        <BoundPropertyInt Name="rotateStepNinety" Value="0" />
      </BoundProperties>
    </ImageClip>
    <ImageClip extentID="2698" gapBefore="0" mediaItemID="2694" duration="0.20000000000000001">
      <Effects />
      <Transitions />
      <BoundProperties>
        <BoundPropertyInt Name="rotateStepNinety" Value="0" />
      </BoundProperties>
    </ImageClip>
    <ImageClip extentID="2699" gapBefore="0" mediaItemID="2695" duration="0.20000000000000001">
      <Effects />
      <Transitions />
      <BoundProperties>
        <BoundPropertyInt Name="rotateStepNinety" Value="0" />
      </BoundProperties>
    </ImageClip>
    <ImageClip extentID="2700" gapBefore="0" mediaItemID="2696" duration="0.20000000000000001">
      <Effects />
      <Transitions />
      <BoundProperties>
        <BoundPropertyInt Name="rotateStepNinety" Value="0" />
      </BoundProperties>
    </ImageClip>
    <ImageClip extentID="2701" gapBefore="0" mediaItemID="2697" duration="0.20000000000000001">
      <Effects />
      <Transitions />
      <BoundProperties>
        <BoundPropertyInt Name="rotateStepNinety" Value="0" />
      </BoundProperties>
    </ImageClip>
    <ImageClip extentID="2702" gapBefore="0" mediaItemID="2698" duration="0.20000000000000001">
      <Effects />
      <Transitions />
      <BoundProperties>
        <BoundPropertyInt Name="rotateStepNinety" Value="0" />
      </BoundProperties>
    </ImageClip>
    <ImageClip extentID="2703" gapBefore="0" mediaItemID="2699" duration="0.20000000000000001">
      <Effects />
      <Transitions />
      <BoundProperties>
        <BoundPropertyInt Name="rotateStepNinety" Value="0" />
      </BoundProperties>
    </ImageClip>
    <ImageClip extentID="2704" gapBefore="0" mediaItemID="2700" duration="0.20000000000000001">
      <Effects />
      <Transitions />
      <BoundProperties>
        <BoundPropertyInt Name="rotateStepNinety" Value="0" />
      </BoundProperties>
    </ImageClip>
    <ImageClip extentID="2705" gapBefore="0" mediaItemID="2701" duration="0.20000000000000001">
      <Effects />
      <Transitions />
      <BoundProperties>
        <BoundPropertyInt Name="rotateStepNinety" Value="0" />
      </BoundProperties>
    </ImageClip>
    <ImageClip extentID="2706" gapBefore="0" mediaItemID="2702" duration="0.20000000000000001">
      <Effects />
      <Transitions />
      <BoundProperties>
        <BoundPropertyInt Name="rotateStepNinety" Value="0" />
      </BoundProperties>
    </ImageClip>
    <ImageClip extentID="2707" gapBefore="0" mediaItemID="2703" duration="0.20000000000000001">
      <Effects />
      <Transitions />
      <BoundProperties>
        <BoundPropertyInt Name="rotateStepNinety" Value="0" />
      </BoundProperties>
    </ImageClip>
    <ImageClip extentID="2708" gapBefore="0" mediaItemID="2704" duration="0.20000000000000001">
      <Effects />
      <Transitions />
      <BoundProperties>
        <BoundPropertyInt Name="rotateStepNinety" Value="0" />
      </BoundProperties>
    </ImageClip>
    <ImageClip extentID="2709" gapBefore="0" mediaItemID="2705" duration="0.20000000000000001">
      <Effects />
      <Transitions />
      <BoundProperties>
        <BoundPropertyInt Name="rotateStepNinety" Value="0" />
      </BoundProperties>
    </ImageClip>
    <ImageClip extentID="2710" gapBefore="0" mediaItemID="2706" duration="0.20000000000000001">
      <Effects />
      <Transitions />
      <BoundProperties>
        <BoundPropertyInt Name="rotateStepNinety" Value="0" />
      </BoundProperties>
    </ImageClip>
    <ImageClip extentID="2711" gapBefore="0" mediaItemID="2707" duration="0.20000000000000001">
      <Effects />
      <Transitions />
      <BoundProperties>
        <BoundPropertyInt Name="rotateStepNinety" Value="0" />
      </BoundProperties>
    </ImageClip>
    <ImageClip extentID="2712" gapBefore="0" mediaItemID="2708" duration="0.20000000000000001">
      <Effects />
      <Transitions />
      <BoundProperties>
        <BoundPropertyInt Name="rotateStepNinety" Value="0" />
      </BoundProperties>
    </ImageClip>
    <ImageClip extentID="2713" gapBefore="0" mediaItemID="2709" duration="0.20000000000000001">
      <Effects />
      <Transitions />
      <BoundProperties>
        <BoundPropertyInt Name="rotateStepNinety" Value="0" />
      </BoundProperties>
    </ImageClip>
    <ImageClip extentID="2714" gapBefore="0" mediaItemID="2710" duration="0.20000000000000001">
      <Effects />
      <Transitions />
      <BoundProperties>
        <BoundPropertyInt Name="rotateStepNinety" Value="0" />
      </BoundProperties>
    </ImageClip>
    <ImageClip extentID="2715" gapBefore="0" mediaItemID="2711" duration="0.20000000000000001">
      <Effects />
      <Transitions />
      <BoundProperties>
        <BoundPropertyInt Name="rotateStepNinety" Value="0" />
      </BoundProperties>
    </ImageClip>
    <ImageClip extentID="2716" gapBefore="0" mediaItemID="2712" duration="0.20000000000000001">
      <Effects />
      <Transitions />
      <BoundProperties>
        <BoundPropertyInt Name="rotateStepNinety" Value="0" />
      </BoundProperties>
    </ImageClip>
    <ImageClip extentID="2717" gapBefore="0" mediaItemID="2713" duration="0.20000000000000001">
      <Effects />
      <Transitions />
      <BoundProperties>
        <BoundPropertyInt Name="rotateStepNinety" Value="0" />
      </BoundProperties>
    </ImageClip>
    <ImageClip extentID="2718" gapBefore="0" mediaItemID="2714" duration="0.20000000000000001">
      <Effects />
      <Transitions />
      <BoundProperties>
        <BoundPropertyInt Name="rotateStepNinety" Value="0" />
      </BoundProperties>
    </ImageClip>
    <ImageClip extentID="2719" gapBefore="0" mediaItemID="2715" duration="0.20000000000000001">
      <Effects />
      <Transitions />
      <BoundProperties>
        <BoundPropertyInt Name="rotateStepNinety" Value="0" />
      </BoundProperties>
    </ImageClip>
    <ImageClip extentID="2720" gapBefore="0" mediaItemID="2716" duration="0.20000000000000001">
      <Effects />
      <Transitions />
      <BoundProperties>
        <BoundPropertyInt Name="rotateStepNinety" Value="0" />
      </BoundProperties>
    </ImageClip>
    <ImageClip extentID="2721" gapBefore="0" mediaItemID="2717" duration="0.20000000000000001">
      <Effects />
      <Transitions />
      <BoundProperties>
        <BoundPropertyInt Name="rotateStepNinety" Value="0" />
      </BoundProperties>
    </ImageClip>
    <ImageClip extentID="2722" gapBefore="0" mediaItemID="2718" duration="0.20000000000000001">
      <Effects />
      <Transitions />
      <BoundProperties>
        <BoundPropertyInt Name="rotateStepNinety" Value="0" />
      </BoundProperties>
    </ImageClip>
    <ImageClip extentID="2723" gapBefore="0" mediaItemID="2719" duration="0.20000000000000001">
      <Effects />
      <Transitions />
      <BoundProperties>
        <BoundPropertyInt Name="rotateStepNinety" Value="0" />
      </BoundProperties>
    </ImageClip>
    <ImageClip extentID="2724" gapBefore="0" mediaItemID="2720" duration="0.20000000000000001">
      <Effects />
      <Transitions />
      <BoundProperties>
        <BoundPropertyInt Name="rotateStepNinety" Value="0" />
      </BoundProperties>
    </ImageClip>
    <ImageClip extentID="2725" gapBefore="0" mediaItemID="2721" duration="0.20000000000000001">
      <Effects />
      <Transitions />
      <BoundProperties>
        <BoundPropertyInt Name="rotateStepNinety" Value="0" />
      </BoundProperties>
    </ImageClip>
    <ImageClip extentID="2726" gapBefore="0" mediaItemID="2722" duration="0.20000000000000001">
      <Effects />
      <Transitions />
      <BoundProperties>
        <BoundPropertyInt Name="rotateStepNinety" Value="0" />
      </BoundProperties>
    </ImageClip>
    <ImageClip extentID="2727" gapBefore="0" mediaItemID="2723" duration="0.20000000000000001">
      <Effects />
      <Transitions />
      <BoundProperties>
        <BoundPropertyInt Name="rotateStepNinety" Value="0" />
      </BoundProperties>
    </ImageClip>
    <ImageClip extentID="2728" gapBefore="0" mediaItemID="2724" duration="0.20000000000000001">
      <Effects />
      <Transitions />
      <BoundProperties>
        <BoundPropertyInt Name="rotateStepNinety" Value="0" />
      </BoundProperties>
    </ImageClip>
    <ImageClip extentID="2729" gapBefore="0" mediaItemID="2725" duration="0.20000000000000001">
      <Effects />
      <Transitions />
      <BoundProperties>
        <BoundPropertyInt Name="rotateStepNinety" Value="0" />
      </BoundProperties>
    </ImageClip>
    <ImageClip extentID="2730" gapBefore="0" mediaItemID="2726" duration="0.20000000000000001">
      <Effects />
      <Transitions />
      <BoundProperties>
        <BoundPropertyInt Name="rotateStepNinety" Value="0" />
      </BoundProperties>
    </ImageClip>
    <ImageClip extentID="2731" gapBefore="0" mediaItemID="2727" duration="0.20000000000000001">
      <Effects />
      <Transitions />
      <BoundProperties>
        <BoundPropertyInt Name="rotateStepNinety" Value="0" />
      </BoundProperties>
    </ImageClip>
    <ImageClip extentID="2732" gapBefore="0" mediaItemID="2728" duration="0.20000000000000001">
      <Effects />
      <Transitions />
      <BoundProperties>
        <BoundPropertyInt Name="rotateStepNinety" Value="0" />
      </BoundProperties>
    </ImageClip>
    <ImageClip extentID="2733" gapBefore="0" mediaItemID="2729" duration="0.20000000000000001">
      <Effects />
      <Transitions />
      <BoundProperties>
        <BoundPropertyInt Name="rotateStepNinety" Value="0" />
      </BoundProperties>
    </ImageClip>
    <ImageClip extentID="2734" gapBefore="0" mediaItemID="2730" duration="0.20000000000000001">
      <Effects />
      <Transitions />
      <BoundProperties>
        <BoundPropertyInt Name="rotateStepNinety" Value="0" />
      </BoundProperties>
    </ImageClip>
    <ImageClip extentID="2735" gapBefore="0" mediaItemID="2731" duration="0.20000000000000001">
      <Effects />
      <Transitions />
      <BoundProperties>
        <BoundPropertyInt Name="rotateStepNinety" Value="0" />
      </BoundProperties>
    </ImageClip>
    <ImageClip extentID="2736" gapBefore="0" mediaItemID="2732" duration="0.20000000000000001">
      <Effects />
      <Transitions />
      <BoundProperties>
        <BoundPropertyInt Name="rotateStepNinety" Value="0" />
      </BoundProperties>
    </ImageClip>
    <ImageClip extentID="2737" gapBefore="0" mediaItemID="2733" duration="0.20000000000000001">
      <Effects />
      <Transitions />
      <BoundProperties>
        <BoundPropertyInt Name="rotateStepNinety" Value="0" />
      </BoundProperties>
    </ImageClip>
    <ImageClip extentID="2738" gapBefore="0" mediaItemID="2734" duration="0.20000000000000001">
      <Effects />
      <Transitions />
      <BoundProperties>
        <BoundPropertyInt Name="rotateStepNinety" Value="0" />
      </BoundProperties>
    </ImageClip>
    <ImageClip extentID="2739" gapBefore="0" mediaItemID="2735" duration="0.20000000000000001">
      <Effects />
      <Transitions />
      <BoundProperties>
        <BoundPropertyInt Name="rotateStepNinety" Value="0" />
      </BoundProperties>
    </ImageClip>
    <ImageClip extentID="2740" gapBefore="0" mediaItemID="2736" duration="0.20000000000000001">
      <Effects />
      <Transitions />
      <BoundProperties>
        <BoundPropertyInt Name="rotateStepNinety" Value="0" />
      </BoundProperties>
    </ImageClip>
    <ImageClip extentID="2741" gapBefore="0" mediaItemID="2737" duration="0.20000000000000001">
      <Effects />
      <Transitions />
      <BoundProperties>
        <BoundPropertyInt Name="rotateStepNinety" Value="0" />
      </BoundProperties>
    </ImageClip>
    <ImageClip extentID="2742" gapBefore="0" mediaItemID="2738" duration="0.20000000000000001">
      <Effects />
      <Transitions />
      <BoundProperties>
        <BoundPropertyInt Name="rotateStepNinety" Value="0" />
      </BoundProperties>
    </ImageClip>
    <ImageClip extentID="2743" gapBefore="0" mediaItemID="2739" duration="0.20000000000000001">
      <Effects />
      <Transitions />
      <BoundProperties>
        <BoundPropertyInt Name="rotateStepNinety" Value="0" />
      </BoundProperties>
    </ImageClip>
    <ImageClip extentID="2744" gapBefore="0" mediaItemID="2740" duration="0.20000000000000001">
      <Effects />
      <Transitions />
      <BoundProperties>
        <BoundPropertyInt Name="rotateStepNinety" Value="0" />
      </BoundProperties>
    </ImageClip>
    <ImageClip extentID="2745" gapBefore="0" mediaItemID="2741" duration="0.20000000000000001">
      <Effects />
      <Transitions />
      <BoundProperties>
        <BoundPropertyInt Name="rotateStepNinety" Value="0" />
      </BoundProperties>
    </ImageClip>
    <ImageClip extentID="2746" gapBefore="0" mediaItemID="2742" duration="0.20000000000000001">
      <Effects />
      <Transitions />
      <BoundProperties>
        <BoundPropertyInt Name="rotateStepNinety" Value="0" />
      </BoundProperties>
    </ImageClip>
    <ImageClip extentID="2747" gapBefore="0" mediaItemID="2743" duration="0.20000000000000001">
      <Effects />
      <Transitions />
      <BoundProperties>
        <BoundPropertyInt Name="rotateStepNinety" Value="0" />
      </BoundProperties>
    </ImageClip>
    <ImageClip extentID="2748" gapBefore="0" mediaItemID="2744" duration="0.20000000000000001">
      <Effects />
      <Transitions />
      <BoundProperties>
        <BoundPropertyInt Name="rotateStepNinety" Value="0" />
      </BoundProperties>
    </ImageClip>
    <ImageClip extentID="2749" gapBefore="0" mediaItemID="2745" duration="0.20000000000000001">
      <Effects />
      <Transitions />
      <BoundProperties>
        <BoundPropertyInt Name="rotateStepNinety" Value="0" />
      </BoundProperties>
    </ImageClip>
    <ImageClip extentID="2750" gapBefore="0" mediaItemID="2746" duration="0.20000000000000001">
      <Effects />
      <Transitions />
      <BoundProperties>
        <BoundPropertyInt Name="rotateStepNinety" Value="0" />
      </BoundProperties>
    </ImageClip>
    <ImageClip extentID="2751" gapBefore="0" mediaItemID="2747" duration="0.20000000000000001">
      <Effects />
      <Transitions />
      <BoundProperties>
        <BoundPropertyInt Name="rotateStepNinety" Value="0" />
      </BoundProperties>
    </ImageClip>
    <ImageClip extentID="2752" gapBefore="0" mediaItemID="2748" duration="0.20000000000000001">
      <Effects />
      <Transitions />
      <BoundProperties>
        <BoundPropertyInt Name="rotateStepNinety" Value="0" />
      </BoundProperties>
    </ImageClip>
    <ImageClip extentID="2753" gapBefore="0" mediaItemID="2749" duration="0.20000000000000001">
      <Effects />
      <Transitions />
      <BoundProperties>
        <BoundPropertyInt Name="rotateStepNinety" Value="0" />
      </BoundProperties>
    </ImageClip>
    <ImageClip extentID="2754" gapBefore="0" mediaItemID="2750" duration="0.20000000000000001">
      <Effects />
      <Transitions />
      <BoundProperties>
        <BoundPropertyInt Name="rotateStepNinety" Value="0" />
      </BoundProperties>
    </ImageClip>
    <ImageClip extentID="2755" gapBefore="0" mediaItemID="2751" duration="0.20000000000000001">
      <Effects />
      <Transitions />
      <BoundProperties>
        <BoundPropertyInt Name="rotateStepNinety" Value="0" />
      </BoundProperties>
    </ImageClip>
    <ImageClip extentID="2756" gapBefore="0" mediaItemID="2752" duration="0.20000000000000001">
      <Effects />
      <Transitions />
      <BoundProperties>
        <BoundPropertyInt Name="rotateStepNinety" Value="0" />
      </BoundProperties>
    </ImageClip>
    <ImageClip extentID="2757" gapBefore="0" mediaItemID="2753" duration="0.20000000000000001">
      <Effects />
      <Transitions />
      <BoundProperties>
        <BoundPropertyInt Name="rotateStepNinety" Value="0" />
      </BoundProperties>
    </ImageClip>
    <ImageClip extentID="2758" gapBefore="0" mediaItemID="2754" duration="0.20000000000000001">
      <Effects />
      <Transitions />
      <BoundProperties>
        <BoundPropertyInt Name="rotateStepNinety" Value="0" />
      </BoundProperties>
    </ImageClip>
    <ImageClip extentID="2759" gapBefore="0" mediaItemID="2755" duration="0.20000000000000001">
      <Effects />
      <Transitions />
      <BoundProperties>
        <BoundPropertyInt Name="rotateStepNinety" Value="0" />
      </BoundProperties>
    </ImageClip>
    <ImageClip extentID="2760" gapBefore="0" mediaItemID="2756" duration="0.20000000000000001">
      <Effects />
      <Transitions />
      <BoundProperties>
        <BoundPropertyInt Name="rotateStepNinety" Value="0" />
      </BoundProperties>
    </ImageClip>
    <ImageClip extentID="2761" gapBefore="0" mediaItemID="2757" duration="0.20000000000000001">
      <Effects />
      <Transitions />
      <BoundProperties>
        <BoundPropertyInt Name="rotateStepNinety" Value="0" />
      </BoundProperties>
    </ImageClip>
    <ImageClip extentID="2762" gapBefore="0" mediaItemID="2758" duration="0.20000000000000001">
      <Effects />
      <Transitions />
      <BoundProperties>
        <BoundPropertyInt Name="rotateStepNinety" Value="0" />
      </BoundProperties>
    </ImageClip>
    <ImageClip extentID="2763" gapBefore="0" mediaItemID="2759" duration="0.20000000000000001">
      <Effects />
      <Transitions />
      <BoundProperties>
        <BoundPropertyInt Name="rotateStepNinety" Value="0" />
      </BoundProperties>
    </ImageClip>
    <ImageClip extentID="2764" gapBefore="0" mediaItemID="2760" duration="0.20000000000000001">
      <Effects />
      <Transitions />
      <BoundProperties>
        <BoundPropertyInt Name="rotateStepNinety" Value="0" />
      </BoundProperties>
    </ImageClip>
    <ImageClip extentID="2765" gapBefore="0" mediaItemID="2761" duration="0.20000000000000001">
      <Effects />
      <Transitions />
      <BoundProperties>
        <BoundPropertyInt Name="rotateStepNinety" Value="0" />
      </BoundProperties>
    </ImageClip>
    <ImageClip extentID="2766" gapBefore="0" mediaItemID="2762" duration="0.20000000000000001">
      <Effects />
      <Transitions />
      <BoundProperties>
        <BoundPropertyInt Name="rotateStepNinety" Value="0" />
      </BoundProperties>
    </ImageClip>
    <ImageClip extentID="2767" gapBefore="0" mediaItemID="2763" duration="0.20000000000000001">
      <Effects />
      <Transitions />
      <BoundProperties>
        <BoundPropertyInt Name="rotateStepNinety" Value="0" />
      </BoundProperties>
    </ImageClip>
    <ImageClip extentID="2768" gapBefore="0" mediaItemID="2764" duration="0.20000000000000001">
      <Effects />
      <Transitions />
      <BoundProperties>
        <BoundPropertyInt Name="rotateStepNinety" Value="0" />
      </BoundProperties>
    </ImageClip>
    <ImageClip extentID="2769" gapBefore="0" mediaItemID="2765" duration="0.20000000000000001">
      <Effects />
      <Transitions />
      <BoundProperties>
        <BoundPropertyInt Name="rotateStepNinety" Value="0" />
      </BoundProperties>
    </ImageClip>
    <ImageClip extentID="2770" gapBefore="0" mediaItemID="2766" duration="0.20000000000000001">
      <Effects />
      <Transitions />
      <BoundProperties>
        <BoundPropertyInt Name="rotateStepNinety" Value="0" />
      </BoundProperties>
    </ImageClip>
    <ImageClip extentID="2771" gapBefore="0" mediaItemID="2767" duration="0.20000000000000001">
      <Effects />
      <Transitions />
      <BoundProperties>
        <BoundPropertyInt Name="rotateStepNinety" Value="0" />
      </BoundProperties>
    </ImageClip>
    <ImageClip extentID="2772" gapBefore="0" mediaItemID="2768" duration="0.20000000000000001">
      <Effects />
      <Transitions />
      <BoundProperties>
        <BoundPropertyInt Name="rotateStepNinety" Value="0" />
      </BoundProperties>
    </ImageClip>
    <ImageClip extentID="2773" gapBefore="0" mediaItemID="2769" duration="0.20000000000000001">
      <Effects />
      <Transitions />
      <BoundProperties>
        <BoundPropertyInt Name="rotateStepNinety" Value="0" />
      </BoundProperties>
    </ImageClip>
    <ImageClip extentID="2774" gapBefore="0" mediaItemID="2770" duration="0.20000000000000001">
      <Effects />
      <Transitions />
      <BoundProperties>
        <BoundPropertyInt Name="rotateStepNinety" Value="0" />
      </BoundProperties>
    </ImageClip>
    <ImageClip extentID="2775" gapBefore="0" mediaItemID="2771" duration="0.20000000000000001">
      <Effects />
      <Transitions />
      <BoundProperties>
        <BoundPropertyInt Name="rotateStepNinety" Value="0" />
      </BoundProperties>
    </ImageClip>
    <ImageClip extentID="2776" gapBefore="0" mediaItemID="2772" duration="0.20000000000000001">
      <Effects />
      <Transitions />
      <BoundProperties>
        <BoundPropertyInt Name="rotateStepNinety" Value="0" />
      </BoundProperties>
    </ImageClip>
    <ImageClip extentID="2777" gapBefore="0" mediaItemID="2773" duration="0.20000000000000001">
      <Effects />
      <Transitions />
      <BoundProperties>
        <BoundPropertyInt Name="rotateStepNinety" Value="0" />
      </BoundProperties>
    </ImageClip>
    <ImageClip extentID="2778" gapBefore="0" mediaItemID="2774" duration="0.20000000000000001">
      <Effects />
      <Transitions />
      <BoundProperties>
        <BoundPropertyInt Name="rotateStepNinety" Value="0" />
      </BoundProperties>
    </ImageClip>
    <ImageClip extentID="2779" gapBefore="0" mediaItemID="2775" duration="0.20000000000000001">
      <Effects />
      <Transitions />
      <BoundProperties>
        <BoundPropertyInt Name="rotateStepNinety" Value="0" />
      </BoundProperties>
    </ImageClip>
    <ImageClip extentID="2780" gapBefore="0" mediaItemID="2776" duration="0.20000000000000001">
      <Effects />
      <Transitions />
      <BoundProperties>
        <BoundPropertyInt Name="rotateStepNinety" Value="0" />
      </BoundProperties>
    </ImageClip>
    <ImageClip extentID="2781" gapBefore="0" mediaItemID="2777" duration="0.20000000000000001">
      <Effects />
      <Transitions />
      <BoundProperties>
        <BoundPropertyInt Name="rotateStepNinety" Value="0" />
      </BoundProperties>
    </ImageClip>
    <ImageClip extentID="2782" gapBefore="0" mediaItemID="2778" duration="0.20000000000000001">
      <Effects />
      <Transitions />
      <BoundProperties>
        <BoundPropertyInt Name="rotateStepNinety" Value="0" />
      </BoundProperties>
    </ImageClip>
    <ImageClip extentID="2783" gapBefore="0" mediaItemID="2779" duration="0.20000000000000001">
      <Effects />
      <Transitions />
      <BoundProperties>
        <BoundPropertyInt Name="rotateStepNinety" Value="0" />
      </BoundProperties>
    </ImageClip>
    <ImageClip extentID="2784" gapBefore="0" mediaItemID="2780" duration="0.20000000000000001">
      <Effects />
      <Transitions />
      <BoundProperties>
        <BoundPropertyInt Name="rotateStepNinety" Value="0" />
      </BoundProperties>
    </ImageClip>
    <ImageClip extentID="2785" gapBefore="0" mediaItemID="2781" duration="0.20000000000000001">
      <Effects />
      <Transitions />
      <BoundProperties>
        <BoundPropertyInt Name="rotateStepNinety" Value="0" />
      </BoundProperties>
    </ImageClip>
    <ImageClip extentID="2786" gapBefore="0" mediaItemID="2782" duration="0.20000000000000001">
      <Effects />
      <Transitions />
      <BoundProperties>
        <BoundPropertyInt Name="rotateStepNinety" Value="0" />
      </BoundProperties>
    </ImageClip>
    <ImageClip extentID="2787" gapBefore="0" mediaItemID="2783" duration="0.20000000000000001">
      <Effects />
      <Transitions />
      <BoundProperties>
        <BoundPropertyInt Name="rotateStepNinety" Value="0" />
      </BoundProperties>
    </ImageClip>
    <ImageClip extentID="2788" gapBefore="0" mediaItemID="2784" duration="0.20000000000000001">
      <Effects />
      <Transitions />
      <BoundProperties>
        <BoundPropertyInt Name="rotateStepNinety" Value="0" />
      </BoundProperties>
    </ImageClip>
    <ImageClip extentID="2789" gapBefore="0" mediaItemID="2785" duration="0.20000000000000001">
      <Effects />
      <Transitions />
      <BoundProperties>
        <BoundPropertyInt Name="rotateStepNinety" Value="0" />
      </BoundProperties>
    </ImageClip>
    <ImageClip extentID="2790" gapBefore="0" mediaItemID="2786" duration="0.20000000000000001">
      <Effects />
      <Transitions />
      <BoundProperties>
        <BoundPropertyInt Name="rotateStepNinety" Value="0" />
      </BoundProperties>
    </ImageClip>
    <ImageClip extentID="2791" gapBefore="0" mediaItemID="2787" duration="0.20000000000000001">
      <Effects />
      <Transitions />
      <BoundProperties>
        <BoundPropertyInt Name="rotateStepNinety" Value="0" />
      </BoundProperties>
    </ImageClip>
    <ImageClip extentID="2792" gapBefore="0" mediaItemID="2788" duration="0.20000000000000001">
      <Effects />
      <Transitions />
      <BoundProperties>
        <BoundPropertyInt Name="rotateStepNinety" Value="0" />
      </BoundProperties>
    </ImageClip>
    <ImageClip extentID="2793" gapBefore="0" mediaItemID="2789" duration="0.20000000000000001">
      <Effects />
      <Transitions />
      <BoundProperties>
        <BoundPropertyInt Name="rotateStepNinety" Value="0" />
      </BoundProperties>
    </ImageClip>
    <ImageClip extentID="2794" gapBefore="0" mediaItemID="2790" duration="0.20000000000000001">
      <Effects />
      <Transitions />
      <BoundProperties>
        <BoundPropertyInt Name="rotateStepNinety" Value="0" />
      </BoundProperties>
    </ImageClip>
    <ImageClip extentID="2795" gapBefore="0" mediaItemID="2791" duration="0.20000000000000001">
      <Effects />
      <Transitions />
      <BoundProperties>
        <BoundPropertyInt Name="rotateStepNinety" Value="0" />
      </BoundProperties>
    </ImageClip>
    <ImageClip extentID="2796" gapBefore="0" mediaItemID="2792" duration="0.20000000000000001">
      <Effects />
      <Transitions />
      <BoundProperties>
        <BoundPropertyInt Name="rotateStepNinety" Value="0" />
      </BoundProperties>
    </ImageClip>
    <ImageClip extentID="2797" gapBefore="0" mediaItemID="2793" duration="0.20000000000000001">
      <Effects />
      <Transitions />
      <BoundProperties>
        <BoundPropertyInt Name="rotateStepNinety" Value="0" />
      </BoundProperties>
    </ImageClip>
    <ImageClip extentID="2798" gapBefore="0" mediaItemID="2794" duration="0.20000000000000001">
      <Effects />
      <Transitions />
      <BoundProperties>
        <BoundPropertyInt Name="rotateStepNinety" Value="0" />
      </BoundProperties>
    </ImageClip>
    <ImageClip extentID="2799" gapBefore="0" mediaItemID="2795" duration="0.20000000000000001">
      <Effects />
      <Transitions />
      <BoundProperties>
        <BoundPropertyInt Name="rotateStepNinety" Value="0" />
      </BoundProperties>
    </ImageClip>
    <ImageClip extentID="2800" gapBefore="0" mediaItemID="2796" duration="0.20000000000000001">
      <Effects />
      <Transitions />
      <BoundProperties>
        <BoundPropertyInt Name="rotateStepNinety" Value="0" />
      </BoundProperties>
    </ImageClip>
    <ImageClip extentID="2801" gapBefore="0" mediaItemID="2797" duration="0.20000000000000001">
      <Effects />
      <Transitions />
      <BoundProperties>
        <BoundPropertyInt Name="rotateStepNinety" Value="0" />
      </BoundProperties>
    </ImageClip>
    <ImageClip extentID="2802" gapBefore="0" mediaItemID="2798" duration="0.20000000000000001">
      <Effects />
      <Transitions />
      <BoundProperties>
        <BoundPropertyInt Name="rotateStepNinety" Value="0" />
      </BoundProperties>
    </ImageClip>
    <ImageClip extentID="2803" gapBefore="0" mediaItemID="2799" duration="0.20000000000000001">
      <Effects />
      <Transitions />
      <BoundProperties>
        <BoundPropertyInt Name="rotateStepNinety" Value="0" />
      </BoundProperties>
    </ImageClip>
    <ImageClip extentID="2804" gapBefore="0" mediaItemID="2800" duration="0.20000000000000001">
      <Effects />
      <Transitions />
      <BoundProperties>
        <BoundPropertyInt Name="rotateStepNinety" Value="0" />
      </BoundProperties>
    </ImageClip>
    <ImageClip extentID="2805" gapBefore="0" mediaItemID="2801" duration="0.20000000000000001">
      <Effects />
      <Transitions />
      <BoundProperties>
        <BoundPropertyInt Name="rotateStepNinety" Value="0" />
      </BoundProperties>
    </ImageClip>
    <ImageClip extentID="2806" gapBefore="0" mediaItemID="2802" duration="0.20000000000000001">
      <Effects />
      <Transitions />
      <BoundProperties>
        <BoundPropertyInt Name="rotateStepNinety" Value="0" />
      </BoundProperties>
    </ImageClip>
    <ImageClip extentID="2807" gapBefore="0" mediaItemID="2803" duration="0.20000000000000001">
      <Effects />
      <Transitions />
      <BoundProperties>
        <BoundPropertyInt Name="rotateStepNinety" Value="0" />
      </BoundProperties>
    </ImageClip>
    <ImageClip extentID="2808" gapBefore="0" mediaItemID="2804" duration="0.20000000000000001">
      <Effects />
      <Transitions />
      <BoundProperties>
        <BoundPropertyInt Name="rotateStepNinety" Value="0" />
      </BoundProperties>
    </ImageClip>
    <ImageClip extentID="2809" gapBefore="0" mediaItemID="2805" duration="0.20000000000000001">
      <Effects />
      <Transitions />
      <BoundProperties>
        <BoundPropertyInt Name="rotateStepNinety" Value="0" />
      </BoundProperties>
    </ImageClip>
    <ImageClip extentID="2810" gapBefore="0" mediaItemID="2806" duration="0.20000000000000001">
      <Effects />
      <Transitions />
      <BoundProperties>
        <BoundPropertyInt Name="rotateStepNinety" Value="0" />
      </BoundProperties>
    </ImageClip>
    <ImageClip extentID="2811" gapBefore="0" mediaItemID="2807" duration="0.20000000000000001">
      <Effects />
      <Transitions />
      <BoundProperties>
        <BoundPropertyInt Name="rotateStepNinety" Value="0" />
      </BoundProperties>
    </ImageClip>
    <ImageClip extentID="2812" gapBefore="0" mediaItemID="2808" duration="0.20000000000000001">
      <Effects />
      <Transitions />
      <BoundProperties>
        <BoundPropertyInt Name="rotateStepNinety" Value="0" />
      </BoundProperties>
    </ImageClip>
    <ImageClip extentID="2813" gapBefore="0" mediaItemID="2809" duration="0.20000000000000001">
      <Effects />
      <Transitions />
      <BoundProperties>
        <BoundPropertyInt Name="rotateStepNinety" Value="0" />
      </BoundProperties>
    </ImageClip>
    <ImageClip extentID="2814" gapBefore="0" mediaItemID="2810" duration="0.20000000000000001">
      <Effects />
      <Transitions />
      <BoundProperties>
        <BoundPropertyInt Name="rotateStepNinety" Value="0" />
      </BoundProperties>
    </ImageClip>
    <ImageClip extentID="2815" gapBefore="0" mediaItemID="2811" duration="0.20000000000000001">
      <Effects />
      <Transitions />
      <BoundProperties>
        <BoundPropertyInt Name="rotateStepNinety" Value="0" />
      </BoundProperties>
    </ImageClip>
    <ImageClip extentID="2816" gapBefore="0" mediaItemID="2812" duration="0.20000000000000001">
      <Effects />
      <Transitions />
      <BoundProperties>
        <BoundPropertyInt Name="rotateStepNinety" Value="0" />
      </BoundProperties>
    </ImageClip>
    <ImageClip extentID="2817" gapBefore="0" mediaItemID="2813" duration="0.20000000000000001">
      <Effects />
      <Transitions />
      <BoundProperties>
        <BoundPropertyInt Name="rotateStepNinety" Value="0" />
      </BoundProperties>
    </ImageClip>
    <ImageClip extentID="2818" gapBefore="0" mediaItemID="2814" duration="0.20000000000000001">
      <Effects />
      <Transitions />
      <BoundProperties>
        <BoundPropertyInt Name="rotateStepNinety" Value="0" />
      </BoundProperties>
    </ImageClip>
    <ImageClip extentID="2819" gapBefore="0" mediaItemID="2815" duration="0.20000000000000001">
      <Effects />
      <Transitions />
      <BoundProperties>
        <BoundPropertyInt Name="rotateStepNinety" Value="0" />
      </BoundProperties>
    </ImageClip>
    <ImageClip extentID="2820" gapBefore="0" mediaItemID="2816" duration="0.20000000000000001">
      <Effects />
      <Transitions />
      <BoundProperties>
        <BoundPropertyInt Name="rotateStepNinety" Value="0" />
      </BoundProperties>
    </ImageClip>
    <ImageClip extentID="2821" gapBefore="0" mediaItemID="2817" duration="0.20000000000000001">
      <Effects />
      <Transitions />
      <BoundProperties>
        <BoundPropertyInt Name="rotateStepNinety" Value="0" />
      </BoundProperties>
    </ImageClip>
    <ImageClip extentID="2822" gapBefore="0" mediaItemID="2818" duration="0.20000000000000001">
      <Effects />
      <Transitions />
      <BoundProperties>
        <BoundPropertyInt Name="rotateStepNinety" Value="0" />
      </BoundProperties>
    </ImageClip>
    <ImageClip extentID="2823" gapBefore="0" mediaItemID="2819" duration="0.20000000000000001">
      <Effects />
      <Transitions />
      <BoundProperties>
        <BoundPropertyInt Name="rotateStepNinety" Value="0" />
      </BoundProperties>
    </ImageClip>
    <ImageClip extentID="2824" gapBefore="0" mediaItemID="2820" duration="0.20000000000000001">
      <Effects />
      <Transitions />
      <BoundProperties>
        <BoundPropertyInt Name="rotateStepNinety" Value="0" />
      </BoundProperties>
    </ImageClip>
    <ImageClip extentID="2825" gapBefore="0" mediaItemID="2821" duration="0.20000000000000001">
      <Effects />
      <Transitions />
      <BoundProperties>
        <BoundPropertyInt Name="rotateStepNinety" Value="0" />
      </BoundProperties>
    </ImageClip>
    <ImageClip extentID="2826" gapBefore="0" mediaItemID="2822" duration="0.20000000000000001">
      <Effects />
      <Transitions />
      <BoundProperties>
        <BoundPropertyInt Name="rotateStepNinety" Value="0" />
      </BoundProperties>
    </ImageClip>
    <ImageClip extentID="2827" gapBefore="0" mediaItemID="2823" duration="0.20000000000000001">
      <Effects />
      <Transitions />
      <BoundProperties>
        <BoundPropertyInt Name="rotateStepNinety" Value="0" />
      </BoundProperties>
    </ImageClip>
    <ImageClip extentID="2828" gapBefore="0" mediaItemID="2824" duration="0.20000000000000001">
      <Effects />
      <Transitions />
      <BoundProperties>
        <BoundPropertyInt Name="rotateStepNinety" Value="0" />
      </BoundProperties>
    </ImageClip>
    <ImageClip extentID="2829" gapBefore="0" mediaItemID="2825" duration="0.20000000000000001">
      <Effects />
      <Transitions />
      <BoundProperties>
        <BoundPropertyInt Name="rotateStepNinety" Value="0" />
      </BoundProperties>
    </ImageClip>
    <ImageClip extentID="2830" gapBefore="0" mediaItemID="2826" duration="0.20000000000000001">
      <Effects />
      <Transitions />
      <BoundProperties>
        <BoundPropertyInt Name="rotateStepNinety" Value="0" />
      </BoundProperties>
    </ImageClip>
    <ImageClip extentID="2831" gapBefore="0" mediaItemID="2827" duration="0.20000000000000001">
      <Effects />
      <Transitions />
      <BoundProperties>
        <BoundPropertyInt Name="rotateStepNinety" Value="0" />
      </BoundProperties>
    </ImageClip>
    <ImageClip extentID="2832" gapBefore="0" mediaItemID="2828" duration="0.20000000000000001">
      <Effects />
      <Transitions />
      <BoundProperties>
        <BoundPropertyInt Name="rotateStepNinety" Value="0" />
      </BoundProperties>
    </ImageClip>
    <ImageClip extentID="2833" gapBefore="0" mediaItemID="2829" duration="0.20000000000000001">
      <Effects />
      <Transitions />
      <BoundProperties>
        <BoundPropertyInt Name="rotateStepNinety" Value="0" />
      </BoundProperties>
    </ImageClip>
    <ImageClip extentID="2834" gapBefore="0" mediaItemID="2830" duration="0.20000000000000001">
      <Effects />
      <Transitions />
      <BoundProperties>
        <BoundPropertyInt Name="rotateStepNinety" Value="0" />
      </BoundProperties>
    </ImageClip>
    <ImageClip extentID="2835" gapBefore="0" mediaItemID="2831" duration="0.20000000000000001">
      <Effects />
      <Transitions />
      <BoundProperties>
        <BoundPropertyInt Name="rotateStepNinety" Value="0" />
      </BoundProperties>
    </ImageClip>
    <ImageClip extentID="2836" gapBefore="0" mediaItemID="2832" duration="0.20000000000000001">
      <Effects />
      <Transitions />
      <BoundProperties>
        <BoundPropertyInt Name="rotateStepNinety" Value="0" />
      </BoundProperties>
    </ImageClip>
    <ImageClip extentID="2837" gapBefore="0" mediaItemID="2833" duration="0.20000000000000001">
      <Effects />
      <Transitions />
      <BoundProperties>
        <BoundPropertyInt Name="rotateStepNinety" Value="0" />
      </BoundProperties>
    </ImageClip>
    <ImageClip extentID="2838" gapBefore="0" mediaItemID="2834" duration="0.20000000000000001">
      <Effects />
      <Transitions />
      <BoundProperties>
        <BoundPropertyInt Name="rotateStepNinety" Value="0" />
      </BoundProperties>
    </ImageClip>
    <ImageClip extentID="2839" gapBefore="0" mediaItemID="2835" duration="0.20000000000000001">
      <Effects />
      <Transitions />
      <BoundProperties>
        <BoundPropertyInt Name="rotateStepNinety" Value="0" />
      </BoundProperties>
    </ImageClip>
    <ImageClip extentID="2840" gapBefore="0" mediaItemID="2836" duration="0.20000000000000001">
      <Effects />
      <Transitions />
      <BoundProperties>
        <BoundPropertyInt Name="rotateStepNinety" Value="0" />
      </BoundProperties>
    </ImageClip>
    <ImageClip extentID="2841" gapBefore="0" mediaItemID="2837" duration="0.20000000000000001">
      <Effects />
      <Transitions />
      <BoundProperties>
        <BoundPropertyInt Name="rotateStepNinety" Value="0" />
      </BoundProperties>
    </ImageClip>
    <ImageClip extentID="2842" gapBefore="0" mediaItemID="2838" duration="0.20000000000000001">
      <Effects />
      <Transitions />
      <BoundProperties>
        <BoundPropertyInt Name="rotateStepNinety" Value="0" />
      </BoundProperties>
    </ImageClip>
    <ImageClip extentID="2843" gapBefore="0" mediaItemID="2839" duration="0.20000000000000001">
      <Effects />
      <Transitions />
      <BoundProperties>
        <BoundPropertyInt Name="rotateStepNinety" Value="0" />
      </BoundProperties>
    </ImageClip>
    <ImageClip extentID="2844" gapBefore="0" mediaItemID="2840" duration="0.20000000000000001">
      <Effects />
      <Transitions />
      <BoundProperties>
        <BoundPropertyInt Name="rotateStepNinety" Value="0" />
      </BoundProperties>
    </ImageClip>
    <ImageClip extentID="2845" gapBefore="0" mediaItemID="2841" duration="0.20000000000000001">
      <Effects />
      <Transitions />
      <BoundProperties>
        <BoundPropertyInt Name="rotateStepNinety" Value="0" />
      </BoundProperties>
    </ImageClip>
    <ImageClip extentID="2846" gapBefore="0" mediaItemID="2842" duration="0.20000000000000001">
      <Effects />
      <Transitions />
      <BoundProperties>
        <BoundPropertyInt Name="rotateStepNinety" Value="0" />
      </BoundProperties>
    </ImageClip>
    <ImageClip extentID="2847" gapBefore="0" mediaItemID="2843" duration="0.20000000000000001">
      <Effects />
      <Transitions />
      <BoundProperties>
        <BoundPropertyInt Name="rotateStepNinety" Value="0" />
      </BoundProperties>
    </ImageClip>
    <ImageClip extentID="2848" gapBefore="0" mediaItemID="2844" duration="0.20000000000000001">
      <Effects />
      <Transitions />
      <BoundProperties>
        <BoundPropertyInt Name="rotateStepNinety" Value="0" />
      </BoundProperties>
    </ImageClip>
    <ImageClip extentID="2849" gapBefore="0" mediaItemID="2845" duration="0.20000000000000001">
      <Effects />
      <Transitions />
      <BoundProperties>
        <BoundPropertyInt Name="rotateStepNinety" Value="0" />
      </BoundProperties>
    </ImageClip>
    <ImageClip extentID="2850" gapBefore="0" mediaItemID="2846" duration="0.20000000000000001">
      <Effects />
      <Transitions />
      <BoundProperties>
        <BoundPropertyInt Name="rotateStepNinety" Value="0" />
      </BoundProperties>
    </ImageClip>
    <ImageClip extentID="2851" gapBefore="0" mediaItemID="2847" duration="0.20000000000000001">
      <Effects />
      <Transitions />
      <BoundProperties>
        <BoundPropertyInt Name="rotateStepNinety" Value="0" />
      </BoundProperties>
    </ImageClip>
    <ImageClip extentID="2852" gapBefore="0" mediaItemID="2848" duration="0.20000000000000001">
      <Effects />
      <Transitions />
      <BoundProperties>
        <BoundPropertyInt Name="rotateStepNinety" Value="0" />
      </BoundProperties>
    </ImageClip>
    <ImageClip extentID="2853" gapBefore="0" mediaItemID="2849" duration="0.20000000000000001">
      <Effects />
      <Transitions />
      <BoundProperties>
        <BoundPropertyInt Name="rotateStepNinety" Value="0" />
      </BoundProperties>
    </ImageClip>
    <ImageClip extentID="2854" gapBefore="0" mediaItemID="2850" duration="0.20000000000000001">
      <Effects />
      <Transitions />
      <BoundProperties>
        <BoundPropertyInt Name="rotateStepNinety" Value="0" />
      </BoundProperties>
    </ImageClip>
    <ImageClip extentID="2855" gapBefore="0" mediaItemID="2851" duration="0.20000000000000001">
      <Effects />
      <Transitions />
      <BoundProperties>
        <BoundPropertyInt Name="rotateStepNinety" Value="0" />
      </BoundProperties>
    </ImageClip>
    <ImageClip extentID="2856" gapBefore="0" mediaItemID="2852" duration="0.20000000000000001">
      <Effects />
      <Transitions />
      <BoundProperties>
        <BoundPropertyInt Name="rotateStepNinety" Value="0" />
      </BoundProperties>
    </ImageClip>
    <ImageClip extentID="2857" gapBefore="0" mediaItemID="2853" duration="0.20000000000000001">
      <Effects />
      <Transitions />
      <BoundProperties>
        <BoundPropertyInt Name="rotateStepNinety" Value="0" />
      </BoundProperties>
    </ImageClip>
    <ImageClip extentID="2858" gapBefore="0" mediaItemID="2854" duration="0.20000000000000001">
      <Effects />
      <Transitions />
      <BoundProperties>
        <BoundPropertyInt Name="rotateStepNinety" Value="0" />
      </BoundProperties>
    </ImageClip>
    <ImageClip extentID="2859" gapBefore="0" mediaItemID="2855" duration="0.20000000000000001">
      <Effects />
      <Transitions />
      <BoundProperties>
        <BoundPropertyInt Name="rotateStepNinety" Value="0" />
      </BoundProperties>
    </ImageClip>
    <ImageClip extentID="2860" gapBefore="0" mediaItemID="2856" duration="0.20000000000000001">
      <Effects />
      <Transitions />
      <BoundProperties>
        <BoundPropertyInt Name="rotateStepNinety" Value="0" />
      </BoundProperties>
    </ImageClip>
    <ImageClip extentID="2861" gapBefore="0" mediaItemID="2857" duration="0.20000000000000001">
      <Effects />
      <Transitions />
      <BoundProperties>
        <BoundPropertyInt Name="rotateStepNinety" Value="0" />
      </BoundProperties>
    </ImageClip>
    <ImageClip extentID="2862" gapBefore="0" mediaItemID="2858" duration="0.20000000000000001">
      <Effects />
      <Transitions />
      <BoundProperties>
        <BoundPropertyInt Name="rotateStepNinety" Value="0" />
      </BoundProperties>
    </ImageClip>
    <ImageClip extentID="2863" gapBefore="0" mediaItemID="2859" duration="0.20000000000000001">
      <Effects />
      <Transitions />
      <BoundProperties>
        <BoundPropertyInt Name="rotateStepNinety" Value="0" />
      </BoundProperties>
    </ImageClip>
    <ImageClip extentID="2864" gapBefore="0" mediaItemID="2860" duration="0.20000000000000001">
      <Effects />
      <Transitions />
      <BoundProperties>
        <BoundPropertyInt Name="rotateStepNinety" Value="0" />
      </BoundProperties>
    </ImageClip>
    <ImageClip extentID="2865" gapBefore="0" mediaItemID="2861" duration="0.20000000000000001">
      <Effects />
      <Transitions />
      <BoundProperties>
        <BoundPropertyInt Name="rotateStepNinety" Value="0" />
      </BoundProperties>
    </ImageClip>
    <ImageClip extentID="2866" gapBefore="0" mediaItemID="2862" duration="0.20000000000000001">
      <Effects />
      <Transitions />
      <BoundProperties>
        <BoundPropertyInt Name="rotateStepNinety" Value="0" />
      </BoundProperties>
    </ImageClip>
    <ImageClip extentID="2867" gapBefore="0" mediaItemID="2863" duration="0.20000000000000001">
      <Effects />
      <Transitions />
      <BoundProperties>
        <BoundPropertyInt Name="rotateStepNinety" Value="0" />
      </BoundProperties>
    </ImageClip>
    <ImageClip extentID="2868" gapBefore="0" mediaItemID="2864" duration="0.20000000000000001">
      <Effects />
      <Transitions />
      <BoundProperties>
        <BoundPropertyInt Name="rotateStepNinety" Value="0" />
      </BoundProperties>
    </ImageClip>
    <ImageClip extentID="2869" gapBefore="0" mediaItemID="2865" duration="0.20000000000000001">
      <Effects />
      <Transitions />
      <BoundProperties>
        <BoundPropertyInt Name="rotateStepNinety" Value="0" />
      </BoundProperties>
    </ImageClip>
    <ImageClip extentID="2870" gapBefore="0" mediaItemID="2866" duration="0.20000000000000001">
      <Effects />
      <Transitions />
      <BoundProperties>
        <BoundPropertyInt Name="rotateStepNinety" Value="0" />
      </BoundProperties>
    </ImageClip>
    <ImageClip extentID="2871" gapBefore="0" mediaItemID="2867" duration="0.20000000000000001">
      <Effects />
      <Transitions />
      <BoundProperties>
        <BoundPropertyInt Name="rotateStepNinety" Value="0" />
      </BoundProperties>
    </ImageClip>
    <ImageClip extentID="2872" gapBefore="0" mediaItemID="2868" duration="0.20000000000000001">
      <Effects />
      <Transitions />
      <BoundProperties>
        <BoundPropertyInt Name="rotateStepNinety" Value="0" />
      </BoundProperties>
    </ImageClip>
    <ImageClip extentID="2873" gapBefore="0" mediaItemID="2869" duration="0.20000000000000001">
      <Effects />
      <Transitions />
      <BoundProperties>
        <BoundPropertyInt Name="rotateStepNinety" Value="0" />
      </BoundProperties>
    </ImageClip>
    <ImageClip extentID="2874" gapBefore="0" mediaItemID="2870" duration="0.20000000000000001">
      <Effects />
      <Transitions />
      <BoundProperties>
        <BoundPropertyInt Name="rotateStepNinety" Value="0" />
      </BoundProperties>
    </ImageClip>
    <ImageClip extentID="2875" gapBefore="0" mediaItemID="2871" duration="0.20000000000000001">
      <Effects />
      <Transitions />
      <BoundProperties>
        <BoundPropertyInt Name="rotateStepNinety" Value="0" />
      </BoundProperties>
    </ImageClip>
    <ImageClip extentID="2876" gapBefore="0" mediaItemID="2872" duration="0.20000000000000001">
      <Effects />
      <Transitions />
      <BoundProperties>
        <BoundPropertyInt Name="rotateStepNinety" Value="0" />
      </BoundProperties>
    </ImageClip>
    <ImageClip extentID="2877" gapBefore="0" mediaItemID="2873" duration="0.20000000000000001">
      <Effects />
      <Transitions />
      <BoundProperties>
        <BoundPropertyInt Name="rotateStepNinety" Value="0" />
      </BoundProperties>
    </ImageClip>
    <ImageClip extentID="2878" gapBefore="0" mediaItemID="2874" duration="0.20000000000000001">
      <Effects />
      <Transitions />
      <BoundProperties>
        <BoundPropertyInt Name="rotateStepNinety" Value="0" />
      </BoundProperties>
    </ImageClip>
    <ImageClip extentID="2879" gapBefore="0" mediaItemID="2875" duration="0.20000000000000001">
      <Effects />
      <Transitions />
      <BoundProperties>
        <BoundPropertyInt Name="rotateStepNinety" Value="0" />
      </BoundProperties>
    </ImageClip>
    <ImageClip extentID="2880" gapBefore="0" mediaItemID="2876" duration="0.20000000000000001">
      <Effects />
      <Transitions />
      <BoundProperties>
        <BoundPropertyInt Name="rotateStepNinety" Value="0" />
      </BoundProperties>
    </ImageClip>
    <ImageClip extentID="2881" gapBefore="0" mediaItemID="2877" duration="0.20000000000000001">
      <Effects />
      <Transitions />
      <BoundProperties>
        <BoundPropertyInt Name="rotateStepNinety" Value="0" />
      </BoundProperties>
    </ImageClip>
    <ImageClip extentID="2882" gapBefore="0" mediaItemID="2878" duration="0.20000000000000001">
      <Effects />
      <Transitions />
      <BoundProperties>
        <BoundPropertyInt Name="rotateStepNinety" Value="0" />
      </BoundProperties>
    </ImageClip>
    <ImageClip extentID="2883" gapBefore="0" mediaItemID="2879" duration="0.20000000000000001">
      <Effects />
      <Transitions />
      <BoundProperties>
        <BoundPropertyInt Name="rotateStepNinety" Value="0" />
      </BoundProperties>
    </ImageClip>
    <ImageClip extentID="2884" gapBefore="0" mediaItemID="2880" duration="0.20000000000000001">
      <Effects />
      <Transitions />
      <BoundProperties>
        <BoundPropertyInt Name="rotateStepNinety" Value="0" />
      </BoundProperties>
    </ImageClip>
    <ImageClip extentID="2885" gapBefore="0" mediaItemID="2881" duration="0.20000000000000001">
      <Effects />
      <Transitions />
      <BoundProperties>
        <BoundPropertyInt Name="rotateStepNinety" Value="0" />
      </BoundProperties>
    </ImageClip>
    <ImageClip extentID="2886" gapBefore="0" mediaItemID="2882" duration="0.20000000000000001">
      <Effects />
      <Transitions />
      <BoundProperties>
        <BoundPropertyInt Name="rotateStepNinety" Value="0" />
      </BoundProperties>
    </ImageClip>
    <ImageClip extentID="2887" gapBefore="0" mediaItemID="2883" duration="0.20000000000000001">
      <Effects />
      <Transitions />
      <BoundProperties>
        <BoundPropertyInt Name="rotateStepNinety" Value="0" />
      </BoundProperties>
    </ImageClip>
    <ImageClip extentID="2888" gapBefore="0" mediaItemID="2884" duration="0.20000000000000001">
      <Effects />
      <Transitions />
      <BoundProperties>
        <BoundPropertyInt Name="rotateStepNinety" Value="0" />
      </BoundProperties>
    </ImageClip>
    <ImageClip extentID="2889" gapBefore="0" mediaItemID="2885" duration="0.20000000000000001">
      <Effects />
      <Transitions />
      <BoundProperties>
        <BoundPropertyInt Name="rotateStepNinety" Value="0" />
      </BoundProperties>
    </ImageClip>
    <ImageClip extentID="2890" gapBefore="0" mediaItemID="2886" duration="0.20000000000000001">
      <Effects />
      <Transitions />
      <BoundProperties>
        <BoundPropertyInt Name="rotateStepNinety" Value="0" />
      </BoundProperties>
    </ImageClip>
    <ImageClip extentID="2891" gapBefore="0" mediaItemID="2887" duration="0.20000000000000001">
      <Effects />
      <Transitions />
      <BoundProperties>
        <BoundPropertyInt Name="rotateStepNinety" Value="0" />
      </BoundProperties>
    </ImageClip>
    <ImageClip extentID="2892" gapBefore="0" mediaItemID="2888" duration="0.20000000000000001">
      <Effects />
      <Transitions />
      <BoundProperties>
        <BoundPropertyInt Name="rotateStepNinety" Value="0" />
      </BoundProperties>
    </ImageClip>
    <ImageClip extentID="2893" gapBefore="0" mediaItemID="2889" duration="0.20000000000000001">
      <Effects />
      <Transitions />
      <BoundProperties>
        <BoundPropertyInt Name="rotateStepNinety" Value="0" />
      </BoundProperties>
    </ImageClip>
    <ImageClip extentID="2894" gapBefore="0" mediaItemID="2890" duration="0.20000000000000001">
      <Effects />
      <Transitions />
      <BoundProperties>
        <BoundPropertyInt Name="rotateStepNinety" Value="0" />
      </BoundProperties>
    </ImageClip>
    <ImageClip extentID="2895" gapBefore="0" mediaItemID="2891" duration="0.20000000000000001">
      <Effects />
      <Transitions />
      <BoundProperties>
        <BoundPropertyInt Name="rotateStepNinety" Value="0" />
      </BoundProperties>
    </ImageClip>
    <ImageClip extentID="2896" gapBefore="0" mediaItemID="2892" duration="0.20000000000000001">
      <Effects />
      <Transitions />
      <BoundProperties>
        <BoundPropertyInt Name="rotateStepNinety" Value="0" />
      </BoundProperties>
    </ImageClip>
    <ImageClip extentID="2897" gapBefore="0" mediaItemID="2893" duration="0.20000000000000001">
      <Effects />
      <Transitions />
      <BoundProperties>
        <BoundPropertyInt Name="rotateStepNinety" Value="0" />
      </BoundProperties>
    </ImageClip>
    <ImageClip extentID="2898" gapBefore="0" mediaItemID="2894" duration="0.20000000000000001">
      <Effects />
      <Transitions />
      <BoundProperties>
        <BoundPropertyInt Name="rotateStepNinety" Value="0" />
      </BoundProperties>
    </ImageClip>
    <ImageClip extentID="2899" gapBefore="0" mediaItemID="2895" duration="0.20000000000000001">
      <Effects />
      <Transitions />
      <BoundProperties>
        <BoundPropertyInt Name="rotateStepNinety" Value="0" />
      </BoundProperties>
    </ImageClip>
    <ImageClip extentID="2900" gapBefore="0" mediaItemID="2896" duration="0.20000000000000001">
      <Effects />
      <Transitions />
      <BoundProperties>
        <BoundPropertyInt Name="rotateStepNinety" Value="0" />
      </BoundProperties>
    </ImageClip>
    <ImageClip extentID="2901" gapBefore="0" mediaItemID="2897" duration="0.20000000000000001">
      <Effects />
      <Transitions />
      <BoundProperties>
        <BoundPropertyInt Name="rotateStepNinety" Value="0" />
      </BoundProperties>
    </ImageClip>
    <ImageClip extentID="2902" gapBefore="0" mediaItemID="2898" duration="0.20000000000000001">
      <Effects />
      <Transitions />
      <BoundProperties>
        <BoundPropertyInt Name="rotateStepNinety" Value="0" />
      </BoundProperties>
    </ImageClip>
    <ImageClip extentID="2903" gapBefore="0" mediaItemID="2899" duration="0.20000000000000001">
      <Effects />
      <Transitions />
      <BoundProperties>
        <BoundPropertyInt Name="rotateStepNinety" Value="0" />
      </BoundProperties>
    </ImageClip>
    <ImageClip extentID="2904" gapBefore="0" mediaItemID="2900" duration="0.20000000000000001">
      <Effects />
      <Transitions />
      <BoundProperties>
        <BoundPropertyInt Name="rotateStepNinety" Value="0" />
      </BoundProperties>
    </ImageClip>
    <ImageClip extentID="2905" gapBefore="0" mediaItemID="2901" duration="0.20000000000000001">
      <Effects />
      <Transitions />
      <BoundProperties>
        <BoundPropertyInt Name="rotateStepNinety" Value="0" />
      </BoundProperties>
    </ImageClip>
    <ImageClip extentID="2906" gapBefore="0" mediaItemID="2902" duration="0.20000000000000001">
      <Effects />
      <Transitions />
      <BoundProperties>
        <BoundPropertyInt Name="rotateStepNinety" Value="0" />
      </BoundProperties>
    </ImageClip>
    <ImageClip extentID="2907" gapBefore="0" mediaItemID="2903" duration="0.20000000000000001">
      <Effects />
      <Transitions />
      <BoundProperties>
        <BoundPropertyInt Name="rotateStepNinety" Value="0" />
      </BoundProperties>
    </ImageClip>
    <ImageClip extentID="2908" gapBefore="0" mediaItemID="2904" duration="0.20000000000000001">
      <Effects />
      <Transitions />
      <BoundProperties>
        <BoundPropertyInt Name="rotateStepNinety" Value="0" />
      </BoundProperties>
    </ImageClip>
    <ImageClip extentID="2909" gapBefore="0" mediaItemID="2905" duration="0.20000000000000001">
      <Effects />
      <Transitions />
      <BoundProperties>
        <BoundPropertyInt Name="rotateStepNinety" Value="0" />
      </BoundProperties>
    </ImageClip>
    <ImageClip extentID="2910" gapBefore="0" mediaItemID="2906" duration="0.20000000000000001">
      <Effects />
      <Transitions />
      <BoundProperties>
        <BoundPropertyInt Name="rotateStepNinety" Value="0" />
      </BoundProperties>
    </ImageClip>
    <ImageClip extentID="2911" gapBefore="0" mediaItemID="2907" duration="0.20000000000000001">
      <Effects />
      <Transitions />
      <BoundProperties>
        <BoundPropertyInt Name="rotateStepNinety" Value="0" />
      </BoundProperties>
    </ImageClip>
    <ImageClip extentID="2912" gapBefore="0" mediaItemID="2908" duration="0.20000000000000001">
      <Effects />
      <Transitions />
      <BoundProperties>
        <BoundPropertyInt Name="rotateStepNinety" Value="0" />
      </BoundProperties>
    </ImageClip>
    <ImageClip extentID="2913" gapBefore="0" mediaItemID="2909" duration="0.20000000000000001">
      <Effects />
      <Transitions />
      <BoundProperties>
        <BoundPropertyInt Name="rotateStepNinety" Value="0" />
      </BoundProperties>
    </ImageClip>
    <ImageClip extentID="2914" gapBefore="0" mediaItemID="2910" duration="0.20000000000000001">
      <Effects />
      <Transitions />
      <BoundProperties>
        <BoundPropertyInt Name="rotateStepNinety" Value="0" />
      </BoundProperties>
    </ImageClip>
    <ImageClip extentID="2915" gapBefore="0" mediaItemID="2911" duration="0.20000000000000001">
      <Effects />
      <Transitions />
      <BoundProperties>
        <BoundPropertyInt Name="rotateStepNinety" Value="0" />
      </BoundProperties>
    </ImageClip>
    <ImageClip extentID="2916" gapBefore="0" mediaItemID="2912" duration="0.20000000000000001">
      <Effects />
      <Transitions />
      <BoundProperties>
        <BoundPropertyInt Name="rotateStepNinety" Value="0" />
      </BoundProperties>
    </ImageClip>
    <ImageClip extentID="2917" gapBefore="0" mediaItemID="2913" duration="0.20000000000000001">
      <Effects />
      <Transitions />
      <BoundProperties>
        <BoundPropertyInt Name="rotateStepNinety" Value="0" />
      </BoundProperties>
    </ImageClip>
    <ImageClip extentID="2918" gapBefore="0" mediaItemID="2914" duration="0.20000000000000001">
      <Effects />
      <Transitions />
      <BoundProperties>
        <BoundPropertyInt Name="rotateStepNinety" Value="0" />
      </BoundProperties>
    </ImageClip>
    <ImageClip extentID="2919" gapBefore="0" mediaItemID="2915" duration="0.20000000000000001">
      <Effects />
      <Transitions />
      <BoundProperties>
        <BoundPropertyInt Name="rotateStepNinety" Value="0" />
      </BoundProperties>
    </ImageClip>
    <ImageClip extentID="2920" gapBefore="0" mediaItemID="2916" duration="0.20000000000000001">
      <Effects />
      <Transitions />
      <BoundProperties>
        <BoundPropertyInt Name="rotateStepNinety" Value="0" />
      </BoundProperties>
    </ImageClip>
    <ImageClip extentID="2921" gapBefore="0" mediaItemID="2917" duration="0.20000000000000001">
      <Effects />
      <Transitions />
      <BoundProperties>
        <BoundPropertyInt Name="rotateStepNinety" Value="0" />
      </BoundProperties>
    </ImageClip>
    <ImageClip extentID="2922" gapBefore="0" mediaItemID="2918" duration="0.20000000000000001">
      <Effects />
      <Transitions />
      <BoundProperties>
        <BoundPropertyInt Name="rotateStepNinety" Value="0" />
      </BoundProperties>
    </ImageClip>
    <ImageClip extentID="2923" gapBefore="0" mediaItemID="2919" duration="0.20000000000000001">
      <Effects />
      <Transitions />
      <BoundProperties>
        <BoundPropertyInt Name="rotateStepNinety" Value="0" />
      </BoundProperties>
    </ImageClip>
    <ImageClip extentID="2924" gapBefore="0" mediaItemID="2920" duration="0.20000000000000001">
      <Effects />
      <Transitions />
      <BoundProperties>
        <BoundPropertyInt Name="rotateStepNinety" Value="0" />
      </BoundProperties>
    </ImageClip>
    <ImageClip extentID="2925" gapBefore="0" mediaItemID="2921" duration="0.20000000000000001">
      <Effects />
      <Transitions />
      <BoundProperties>
        <BoundPropertyInt Name="rotateStepNinety" Value="0" />
      </BoundProperties>
    </ImageClip>
    <ImageClip extentID="2926" gapBefore="0" mediaItemID="2922" duration="0.20000000000000001">
      <Effects />
      <Transitions />
      <BoundProperties>
        <BoundPropertyInt Name="rotateStepNinety" Value="0" />
      </BoundProperties>
    </ImageClip>
    <ImageClip extentID="2927" gapBefore="0" mediaItemID="2923" duration="0.20000000000000001">
      <Effects />
      <Transitions />
      <BoundProperties>
        <BoundPropertyInt Name="rotateStepNinety" Value="0" />
      </BoundProperties>
    </ImageClip>
    <ImageClip extentID="2928" gapBefore="0" mediaItemID="2924" duration="0.20000000000000001">
      <Effects />
      <Transitions />
      <BoundProperties>
        <BoundPropertyInt Name="rotateStepNinety" Value="0" />
      </BoundProperties>
    </ImageClip>
    <ImageClip extentID="2929" gapBefore="0" mediaItemID="2925" duration="0.20000000000000001">
      <Effects />
      <Transitions />
      <BoundProperties>
        <BoundPropertyInt Name="rotateStepNinety" Value="0" />
      </BoundProperties>
    </ImageClip>
    <ImageClip extentID="2930" gapBefore="0" mediaItemID="2926" duration="0.20000000000000001">
      <Effects />
      <Transitions />
      <BoundProperties>
        <BoundPropertyInt Name="rotateStepNinety" Value="0" />
      </BoundProperties>
    </ImageClip>
    <ImageClip extentID="2931" gapBefore="0" mediaItemID="2927" duration="0.20000000000000001">
      <Effects />
      <Transitions />
      <BoundProperties>
        <BoundPropertyInt Name="rotateStepNinety" Value="0" />
      </BoundProperties>
    </ImageClip>
    <ImageClip extentID="2932" gapBefore="0" mediaItemID="2928" duration="0.20000000000000001">
      <Effects />
      <Transitions />
      <BoundProperties>
        <BoundPropertyInt Name="rotateStepNinety" Value="0" />
      </BoundProperties>
    </ImageClip>
    <ImageClip extentID="2933" gapBefore="0" mediaItemID="2929" duration="0.20000000000000001">
      <Effects />
      <Transitions />
      <BoundProperties>
        <BoundPropertyInt Name="rotateStepNinety" Value="0" />
      </BoundProperties>
    </ImageClip>
    <ImageClip extentID="2934" gapBefore="0" mediaItemID="2930" duration="0.20000000000000001">
      <Effects />
      <Transitions />
      <BoundProperties>
        <BoundPropertyInt Name="rotateStepNinety" Value="0" />
      </BoundProperties>
    </ImageClip>
    <ImageClip extentID="2935" gapBefore="0" mediaItemID="2931" duration="0.20000000000000001">
      <Effects />
      <Transitions />
      <BoundProperties>
        <BoundPropertyInt Name="rotateStepNinety" Value="0" />
      </BoundProperties>
    </ImageClip>
    <ImageClip extentID="2936" gapBefore="0" mediaItemID="2932" duration="0.20000000000000001">
      <Effects />
      <Transitions />
      <BoundProperties>
        <BoundPropertyInt Name="rotateStepNinety" Value="0" />
      </BoundProperties>
    </ImageClip>
    <ImageClip extentID="2937" gapBefore="0" mediaItemID="2933" duration="0.20000000000000001">
      <Effects />
      <Transitions />
      <BoundProperties>
        <BoundPropertyInt Name="rotateStepNinety" Value="0" />
      </BoundProperties>
    </ImageClip>
    <ImageClip extentID="2938" gapBefore="0" mediaItemID="2934" duration="0.20000000000000001">
      <Effects />
      <Transitions />
      <BoundProperties>
        <BoundPropertyInt Name="rotateStepNinety" Value="0" />
      </BoundProperties>
    </ImageClip>
    <ImageClip extentID="2939" gapBefore="0" mediaItemID="2935" duration="0.20000000000000001">
      <Effects />
      <Transitions />
      <BoundProperties>
        <BoundPropertyInt Name="rotateStepNinety" Value="0" />
      </BoundProperties>
    </ImageClip>
    <ImageClip extentID="2940" gapBefore="0" mediaItemID="2936" duration="0.20000000000000001">
      <Effects />
      <Transitions />
      <BoundProperties>
        <BoundPropertyInt Name="rotateStepNinety" Value="0" />
      </BoundProperties>
    </ImageClip>
    <ImageClip extentID="2941" gapBefore="0" mediaItemID="2937" duration="0.20000000000000001">
      <Effects />
      <Transitions />
      <BoundProperties>
        <BoundPropertyInt Name="rotateStepNinety" Value="0" />
      </BoundProperties>
    </ImageClip>
    <ImageClip extentID="2942" gapBefore="0" mediaItemID="2938" duration="0.20000000000000001">
      <Effects />
      <Transitions />
      <BoundProperties>
        <BoundPropertyInt Name="rotateStepNinety" Value="0" />
      </BoundProperties>
    </ImageClip>
    <ImageClip extentID="2943" gapBefore="0" mediaItemID="2939" duration="0.20000000000000001">
      <Effects />
      <Transitions />
      <BoundProperties>
        <BoundPropertyInt Name="rotateStepNinety" Value="0" />
      </BoundProperties>
    </ImageClip>
    <ImageClip extentID="2944" gapBefore="0" mediaItemID="2940" duration="0.20000000000000001">
      <Effects />
      <Transitions />
      <BoundProperties>
        <BoundPropertyInt Name="rotateStepNinety" Value="0" />
      </BoundProperties>
    </ImageClip>
    <ImageClip extentID="2945" gapBefore="0" mediaItemID="2941" duration="0.20000000000000001">
      <Effects />
      <Transitions />
      <BoundProperties>
        <BoundPropertyInt Name="rotateStepNinety" Value="0" />
      </BoundProperties>
    </ImageClip>
    <ImageClip extentID="2946" gapBefore="0" mediaItemID="2942" duration="0.20000000000000001">
      <Effects />
      <Transitions />
      <BoundProperties>
        <BoundPropertyInt Name="rotateStepNinety" Value="0" />
      </BoundProperties>
    </ImageClip>
    <ImageClip extentID="2947" gapBefore="0" mediaItemID="2943" duration="0.20000000000000001">
      <Effects />
      <Transitions />
      <BoundProperties>
        <BoundPropertyInt Name="rotateStepNinety" Value="0" />
      </BoundProperties>
    </ImageClip>
    <ImageClip extentID="2948" gapBefore="0" mediaItemID="2944" duration="0.20000000000000001">
      <Effects />
      <Transitions />
      <BoundProperties>
        <BoundPropertyInt Name="rotateStepNinety" Value="0" />
      </BoundProperties>
    </ImageClip>
    <ImageClip extentID="2949" gapBefore="0" mediaItemID="2945" duration="0.20000000000000001">
      <Effects />
      <Transitions />
      <BoundProperties>
        <BoundPropertyInt Name="rotateStepNinety" Value="0" />
      </BoundProperties>
    </ImageClip>
    <ImageClip extentID="2950" gapBefore="0" mediaItemID="2946" duration="0.20000000000000001">
      <Effects />
      <Transitions />
      <BoundProperties>
        <BoundPropertyInt Name="rotateStepNinety" Value="0" />
      </BoundProperties>
    </ImageClip>
    <ImageClip extentID="2951" gapBefore="0" mediaItemID="2947" duration="0.20000000000000001">
      <Effects />
      <Transitions />
      <BoundProperties>
        <BoundPropertyInt Name="rotateStepNinety" Value="0" />
      </BoundProperties>
    </ImageClip>
    <ImageClip extentID="2952" gapBefore="0" mediaItemID="2948" duration="0.20000000000000001">
      <Effects />
      <Transitions />
      <BoundProperties>
        <BoundPropertyInt Name="rotateStepNinety" Value="0" />
      </BoundProperties>
    </ImageClip>
    <ImageClip extentID="2953" gapBefore="0" mediaItemID="2949" duration="0.20000000000000001">
      <Effects />
      <Transitions />
      <BoundProperties>
        <BoundPropertyInt Name="rotateStepNinety" Value="0" />
      </BoundProperties>
    </ImageClip>
    <ImageClip extentID="2954" gapBefore="0" mediaItemID="2950" duration="0.20000000000000001">
      <Effects />
      <Transitions />
      <BoundProperties>
        <BoundPropertyInt Name="rotateStepNinety" Value="0" />
      </BoundProperties>
    </ImageClip>
    <ImageClip extentID="2955" gapBefore="0" mediaItemID="2951" duration="0.20000000000000001">
      <Effects />
      <Transitions />
      <BoundProperties>
        <BoundPropertyInt Name="rotateStepNinety" Value="0" />
      </BoundProperties>
    </ImageClip>
    <ImageClip extentID="2956" gapBefore="0" mediaItemID="2952" duration="0.20000000000000001">
      <Effects />
      <Transitions />
      <BoundProperties>
        <BoundPropertyInt Name="rotateStepNinety" Value="0" />
      </BoundProperties>
    </ImageClip>
    <ImageClip extentID="2957" gapBefore="0" mediaItemID="2953" duration="0.20000000000000001">
      <Effects />
      <Transitions />
      <BoundProperties>
        <BoundPropertyInt Name="rotateStepNinety" Value="0" />
      </BoundProperties>
    </ImageClip>
    <ImageClip extentID="2958" gapBefore="0" mediaItemID="2954" duration="0.20000000000000001">
      <Effects />
      <Transitions />
      <BoundProperties>
        <BoundPropertyInt Name="rotateStepNinety" Value="0" />
      </BoundProperties>
    </ImageClip>
    <ImageClip extentID="2959" gapBefore="0" mediaItemID="2955" duration="0.20000000000000001">
      <Effects />
      <Transitions />
      <BoundProperties>
        <BoundPropertyInt Name="rotateStepNinety" Value="0" />
      </BoundProperties>
    </ImageClip>
    <ImageClip extentID="2960" gapBefore="0" mediaItemID="2956" duration="0.20000000000000001">
      <Effects />
      <Transitions />
      <BoundProperties>
        <BoundPropertyInt Name="rotateStepNinety" Value="0" />
      </BoundProperties>
    </ImageClip>
    <ImageClip extentID="2961" gapBefore="0" mediaItemID="2957" duration="0.20000000000000001">
      <Effects />
      <Transitions />
      <BoundProperties>
        <BoundPropertyInt Name="rotateStepNinety" Value="0" />
      </BoundProperties>
    </ImageClip>
    <ImageClip extentID="2962" gapBefore="0" mediaItemID="2958" duration="0.20000000000000001">
      <Effects />
      <Transitions />
      <BoundProperties>
        <BoundPropertyInt Name="rotateStepNinety" Value="0" />
      </BoundProperties>
    </ImageClip>
    <ImageClip extentID="2963" gapBefore="0" mediaItemID="2959" duration="0.20000000000000001">
      <Effects />
      <Transitions />
      <BoundProperties>
        <BoundPropertyInt Name="rotateStepNinety" Value="0" />
      </BoundProperties>
    </ImageClip>
    <ImageClip extentID="2964" gapBefore="0" mediaItemID="2960" duration="0.20000000000000001">
      <Effects />
      <Transitions />
      <BoundProperties>
        <BoundPropertyInt Name="rotateStepNinety" Value="0" />
      </BoundProperties>
    </ImageClip>
    <ImageClip extentID="2965" gapBefore="0" mediaItemID="2961" duration="0.20000000000000001">
      <Effects />
      <Transitions />
      <BoundProperties>
        <BoundPropertyInt Name="rotateStepNinety" Value="0" />
      </BoundProperties>
    </ImageClip>
    <ImageClip extentID="2966" gapBefore="0" mediaItemID="2962" duration="0.20000000000000001">
      <Effects />
      <Transitions />
      <BoundProperties>
        <BoundPropertyInt Name="rotateStepNinety" Value="0" />
      </BoundProperties>
    </ImageClip>
    <ImageClip extentID="2967" gapBefore="0" mediaItemID="2963" duration="0.20000000000000001">
      <Effects />
      <Transitions />
      <BoundProperties>
        <BoundPropertyInt Name="rotateStepNinety" Value="0" />
      </BoundProperties>
    </ImageClip>
    <ImageClip extentID="2968" gapBefore="0" mediaItemID="2964" duration="0.20000000000000001">
      <Effects />
      <Transitions />
      <BoundProperties>
        <BoundPropertyInt Name="rotateStepNinety" Value="0" />
      </BoundProperties>
    </ImageClip>
    <ImageClip extentID="2969" gapBefore="0" mediaItemID="2965" duration="0.20000000000000001">
      <Effects />
      <Transitions />
      <BoundProperties>
        <BoundPropertyInt Name="rotateStepNinety" Value="0" />
      </BoundProperties>
    </ImageClip>
    <ImageClip extentID="2970" gapBefore="0" mediaItemID="2966" duration="0.20000000000000001">
      <Effects />
      <Transitions />
      <BoundProperties>
        <BoundPropertyInt Name="rotateStepNinety" Value="0" />
      </BoundProperties>
    </ImageClip>
    <ImageClip extentID="2971" gapBefore="0" mediaItemID="2967" duration="0.20000000000000001">
      <Effects />
      <Transitions />
      <BoundProperties>
        <BoundPropertyInt Name="rotateStepNinety" Value="0" />
      </BoundProperties>
    </ImageClip>
    <ImageClip extentID="2972" gapBefore="0" mediaItemID="2968" duration="0.20000000000000001">
      <Effects />
      <Transitions />
      <BoundProperties>
        <BoundPropertyInt Name="rotateStepNinety" Value="0" />
      </BoundProperties>
    </ImageClip>
    <ImageClip extentID="2973" gapBefore="0" mediaItemID="2969" duration="0.20000000000000001">
      <Effects />
      <Transitions />
      <BoundProperties>
        <BoundPropertyInt Name="rotateStepNinety" Value="0" />
      </BoundProperties>
    </ImageClip>
    <ImageClip extentID="2974" gapBefore="0" mediaItemID="2970" duration="0.20000000000000001">
      <Effects />
      <Transitions />
      <BoundProperties>
        <BoundPropertyInt Name="rotateStepNinety" Value="0" />
      </BoundProperties>
    </ImageClip>
    <ImageClip extentID="2975" gapBefore="0" mediaItemID="2971" duration="0.20000000000000001">
      <Effects />
      <Transitions />
      <BoundProperties>
        <BoundPropertyInt Name="rotateStepNinety" Value="0" />
      </BoundProperties>
    </ImageClip>
    <ImageClip extentID="2976" gapBefore="0" mediaItemID="2972" duration="0.20000000000000001">
      <Effects />
      <Transitions />
      <BoundProperties>
        <BoundPropertyInt Name="rotateStepNinety" Value="0" />
      </BoundProperties>
    </ImageClip>
    <ImageClip extentID="2977" gapBefore="0" mediaItemID="2973" duration="0.20000000000000001">
      <Effects />
      <Transitions />
      <BoundProperties>
        <BoundPropertyInt Name="rotateStepNinety" Value="0" />
      </BoundProperties>
    </ImageClip>
    <ImageClip extentID="2978" gapBefore="0" mediaItemID="2974" duration="0.20000000000000001">
      <Effects />
      <Transitions />
      <BoundProperties>
        <BoundPropertyInt Name="rotateStepNinety" Value="0" />
      </BoundProperties>
    </ImageClip>
    <ImageClip extentID="2979" gapBefore="0" mediaItemID="2975" duration="0.20000000000000001">
      <Effects />
      <Transitions />
      <BoundProperties>
        <BoundPropertyInt Name="rotateStepNinety" Value="0" />
      </BoundProperties>
    </ImageClip>
    <ImageClip extentID="2980" gapBefore="0" mediaItemID="2976" duration="0.20000000000000001">
      <Effects />
      <Transitions />
      <BoundProperties>
        <BoundPropertyInt Name="rotateStepNinety" Value="0" />
      </BoundProperties>
    </ImageClip>
    <ImageClip extentID="2981" gapBefore="0" mediaItemID="2977" duration="0.20000000000000001">
      <Effects />
      <Transitions />
      <BoundProperties>
        <BoundPropertyInt Name="rotateStepNinety" Value="0" />
      </BoundProperties>
    </ImageClip>
    <ImageClip extentID="2982" gapBefore="0" mediaItemID="2978" duration="0.20000000000000001">
      <Effects />
      <Transitions />
      <BoundProperties>
        <BoundPropertyInt Name="rotateStepNinety" Value="0" />
      </BoundProperties>
    </ImageClip>
    <ImageClip extentID="2983" gapBefore="0" mediaItemID="2979" duration="0.20000000000000001">
      <Effects />
      <Transitions />
      <BoundProperties>
        <BoundPropertyInt Name="rotateStepNinety" Value="0" />
      </BoundProperties>
    </ImageClip>
    <ImageClip extentID="2984" gapBefore="0" mediaItemID="2980" duration="0.20000000000000001">
      <Effects />
      <Transitions />
      <BoundProperties>
        <BoundPropertyInt Name="rotateStepNinety" Value="0" />
      </BoundProperties>
    </ImageClip>
    <ImageClip extentID="2985" gapBefore="0" mediaItemID="2981" duration="0.20000000000000001">
      <Effects />
      <Transitions />
      <BoundProperties>
        <BoundPropertyInt Name="rotateStepNinety" Value="0" />
      </BoundProperties>
    </ImageClip>
    <ImageClip extentID="2986" gapBefore="0" mediaItemID="2982" duration="0.20000000000000001">
      <Effects />
      <Transitions />
      <BoundProperties>
        <BoundPropertyInt Name="rotateStepNinety" Value="0" />
      </BoundProperties>
    </ImageClip>
    <ImageClip extentID="2987" gapBefore="0" mediaItemID="2983" duration="0.20000000000000001">
      <Effects />
      <Transitions />
      <BoundProperties>
        <BoundPropertyInt Name="rotateStepNinety" Value="0" />
      </BoundProperties>
    </ImageClip>
    <ImageClip extentID="2988" gapBefore="0" mediaItemID="2984" duration="0.20000000000000001">
      <Effects />
      <Transitions />
      <BoundProperties>
        <BoundPropertyInt Name="rotateStepNinety" Value="0" />
      </BoundProperties>
    </ImageClip>
    <ImageClip extentID="2989" gapBefore="0" mediaItemID="2985" duration="0.20000000000000001">
      <Effects />
      <Transitions />
      <BoundProperties>
        <BoundPropertyInt Name="rotateStepNinety" Value="0" />
      </BoundProperties>
    </ImageClip>
    <ImageClip extentID="2990" gapBefore="0" mediaItemID="2986" duration="0.20000000000000001">
      <Effects />
      <Transitions />
      <BoundProperties>
        <BoundPropertyInt Name="rotateStepNinety" Value="0" />
      </BoundProperties>
    </ImageClip>
    <ImageClip extentID="2991" gapBefore="0" mediaItemID="2987" duration="0.20000000000000001">
      <Effects />
      <Transitions />
      <BoundProperties>
        <BoundPropertyInt Name="rotateStepNinety" Value="0" />
      </BoundProperties>
    </ImageClip>
    <ImageClip extentID="2992" gapBefore="0" mediaItemID="2988" duration="0.20000000000000001">
      <Effects />
      <Transitions />
      <BoundProperties>
        <BoundPropertyInt Name="rotateStepNinety" Value="0" />
      </BoundProperties>
    </ImageClip>
    <ImageClip extentID="2993" gapBefore="0" mediaItemID="2989" duration="0.20000000000000001">
      <Effects />
      <Transitions />
      <BoundProperties>
        <BoundPropertyInt Name="rotateStepNinety" Value="0" />
      </BoundProperties>
    </ImageClip>
    <ImageClip extentID="2994" gapBefore="0" mediaItemID="2990" duration="0.20000000000000001">
      <Effects />
      <Transitions />
      <BoundProperties>
        <BoundPropertyInt Name="rotateStepNinety" Value="0" />
      </BoundProperties>
    </ImageClip>
    <ImageClip extentID="2995" gapBefore="0" mediaItemID="2991" duration="0.20000000000000001">
      <Effects />
      <Transitions />
      <BoundProperties>
        <BoundPropertyInt Name="rotateStepNinety" Value="0" />
      </BoundProperties>
    </ImageClip>
    <ImageClip extentID="2996" gapBefore="0" mediaItemID="2992" duration="0.20000000000000001">
      <Effects />
      <Transitions />
      <BoundProperties>
        <BoundPropertyInt Name="rotateStepNinety" Value="0" />
      </BoundProperties>
    </ImageClip>
    <ImageClip extentID="2997" gapBefore="0" mediaItemID="2993" duration="0.20000000000000001">
      <Effects />
      <Transitions />
      <BoundProperties>
        <BoundPropertyInt Name="rotateStepNinety" Value="0" />
      </BoundProperties>
    </ImageClip>
    <ImageClip extentID="2998" gapBefore="0" mediaItemID="2994" duration="0.20000000000000001">
      <Effects />
      <Transitions />
      <BoundProperties>
        <BoundPropertyInt Name="rotateStepNinety" Value="0" />
      </BoundProperties>
    </ImageClip>
    <ImageClip extentID="2999" gapBefore="0" mediaItemID="2995" duration="0.20000000000000001">
      <Effects />
      <Transitions />
      <BoundProperties>
        <BoundPropertyInt Name="rotateStepNinety" Value="0" />
      </BoundProperties>
    </ImageClip>
    <ImageClip extentID="3000" gapBefore="0" mediaItemID="2996" duration="0.20000000000000001">
      <Effects />
      <Transitions />
      <BoundProperties>
        <BoundPropertyInt Name="rotateStepNinety" Value="0" />
      </BoundProperties>
    </ImageClip>
    <ImageClip extentID="3001" gapBefore="0" mediaItemID="2997" duration="0.20000000000000001">
      <Effects />
      <Transitions />
      <BoundProperties>
        <BoundPropertyInt Name="rotateStepNinety" Value="0" />
      </BoundProperties>
    </ImageClip>
    <ImageClip extentID="3002" gapBefore="0" mediaItemID="2998" duration="0.20000000000000001">
      <Effects />
      <Transitions />
      <BoundProperties>
        <BoundPropertyInt Name="rotateStepNinety" Value="0" />
      </BoundProperties>
    </ImageClip>
    <ImageClip extentID="3003" gapBefore="0" mediaItemID="2999" duration="0.20000000000000001">
      <Effects />
      <Transitions />
      <BoundProperties>
        <BoundPropertyInt Name="rotateStepNinety" Value="0" />
      </BoundProperties>
    </ImageClip>
    <ImageClip extentID="3004" gapBefore="0" mediaItemID="3000" duration="0.20000000000000001">
      <Effects />
      <Transitions />
      <BoundProperties>
        <BoundPropertyInt Name="rotateStepNinety" Value="0" />
      </BoundProperties>
    </ImageClip>
    <ImageClip extentID="3005" gapBefore="0" mediaItemID="3001" duration="0.20000000000000001">
      <Effects />
      <Transitions />
      <BoundProperties>
        <BoundPropertyInt Name="rotateStepNinety" Value="0" />
      </BoundProperties>
    </ImageClip>
    <ImageClip extentID="3006" gapBefore="0" mediaItemID="3002" duration="0.20000000000000001">
      <Effects />
      <Transitions />
      <BoundProperties>
        <BoundPropertyInt Name="rotateStepNinety" Value="0" />
      </BoundProperties>
    </ImageClip>
    <ImageClip extentID="3007" gapBefore="0" mediaItemID="3003" duration="0.20000000000000001">
      <Effects />
      <Transitions />
      <BoundProperties>
        <BoundPropertyInt Name="rotateStepNinety" Value="0" />
      </BoundProperties>
    </ImageClip>
    <ImageClip extentID="3008" gapBefore="0" mediaItemID="3004" duration="0.20000000000000001">
      <Effects />
      <Transitions />
      <BoundProperties>
        <BoundPropertyInt Name="rotateStepNinety" Value="0" />
      </BoundProperties>
    </ImageClip>
    <ImageClip extentID="3009" gapBefore="0" mediaItemID="3005" duration="0.20000000000000001">
      <Effects />
      <Transitions />
      <BoundProperties>
        <BoundPropertyInt Name="rotateStepNinety" Value="0" />
      </BoundProperties>
    </ImageClip>
    <ImageClip extentID="3010" gapBefore="0" mediaItemID="3006" duration="0.20000000000000001">
      <Effects />
      <Transitions />
      <BoundProperties>
        <BoundPropertyInt Name="rotateStepNinety" Value="0" />
      </BoundProperties>
    </ImageClip>
    <ImageClip extentID="3011" gapBefore="0" mediaItemID="3007" duration="0.20000000000000001">
      <Effects />
      <Transitions />
      <BoundProperties>
        <BoundPropertyInt Name="rotateStepNinety" Value="0" />
      </BoundProperties>
    </ImageClip>
    <ImageClip extentID="3012" gapBefore="0" mediaItemID="3008" duration="0.20000000000000001">
      <Effects />
      <Transitions />
      <BoundProperties>
        <BoundPropertyInt Name="rotateStepNinety" Value="0" />
      </BoundProperties>
    </ImageClip>
    <ImageClip extentID="3013" gapBefore="0" mediaItemID="3009" duration="0.20000000000000001">
      <Effects />
      <Transitions />
      <BoundProperties>
        <BoundPropertyInt Name="rotateStepNinety" Value="0" />
      </BoundProperties>
    </ImageClip>
    <ImageClip extentID="3014" gapBefore="0" mediaItemID="3010" duration="0.20000000000000001">
      <Effects />
      <Transitions />
      <BoundProperties>
        <BoundPropertyInt Name="rotateStepNinety" Value="0" />
      </BoundProperties>
    </ImageClip>
    <ImageClip extentID="3015" gapBefore="0" mediaItemID="3011" duration="0.20000000000000001">
      <Effects />
      <Transitions />
      <BoundProperties>
        <BoundPropertyInt Name="rotateStepNinety" Value="0" />
      </BoundProperties>
    </ImageClip>
    <ImageClip extentID="3016" gapBefore="0" mediaItemID="3012" duration="0.20000000000000001">
      <Effects />
      <Transitions />
      <BoundProperties>
        <BoundPropertyInt Name="rotateStepNinety" Value="0" />
      </BoundProperties>
    </ImageClip>
    <ImageClip extentID="3017" gapBefore="0" mediaItemID="3013" duration="0.20000000000000001">
      <Effects />
      <Transitions />
      <BoundProperties>
        <BoundPropertyInt Name="rotateStepNinety" Value="0" />
      </BoundProperties>
    </ImageClip>
    <ImageClip extentID="3018" gapBefore="0" mediaItemID="3014" duration="0.20000000000000001">
      <Effects />
      <Transitions />
      <BoundProperties>
        <BoundPropertyInt Name="rotateStepNinety" Value="0" />
      </BoundProperties>
    </ImageClip>
    <ImageClip extentID="3019" gapBefore="0" mediaItemID="3015" duration="0.20000000000000001">
      <Effects />
      <Transitions />
      <BoundProperties>
        <BoundPropertyInt Name="rotateStepNinety" Value="0" />
      </BoundProperties>
    </ImageClip>
    <ImageClip extentID="3020" gapBefore="0" mediaItemID="3016" duration="0.20000000000000001">
      <Effects />
      <Transitions />
      <BoundProperties>
        <BoundPropertyInt Name="rotateStepNinety" Value="0" />
      </BoundProperties>
    </ImageClip>
    <ImageClip extentID="3021" gapBefore="0" mediaItemID="3017" duration="0.20000000000000001">
      <Effects />
      <Transitions />
      <BoundProperties>
        <BoundPropertyInt Name="rotateStepNinety" Value="0" />
      </BoundProperties>
    </ImageClip>
    <ImageClip extentID="3022" gapBefore="0" mediaItemID="3018" duration="0.20000000000000001">
      <Effects />
      <Transitions />
      <BoundProperties>
        <BoundPropertyInt Name="rotateStepNinety" Value="0" />
      </BoundProperties>
    </ImageClip>
    <ImageClip extentID="3023" gapBefore="0" mediaItemID="3019" duration="0.20000000000000001">
      <Effects />
      <Transitions />
      <BoundProperties>
        <BoundPropertyInt Name="rotateStepNinety" Value="0" />
      </BoundProperties>
    </ImageClip>
    <ImageClip extentID="3024" gapBefore="0" mediaItemID="3020" duration="0.20000000000000001">
      <Effects />
      <Transitions />
      <BoundProperties>
        <BoundPropertyInt Name="rotateStepNinety" Value="0" />
      </BoundProperties>
    </ImageClip>
    <ImageClip extentID="3025" gapBefore="0" mediaItemID="3021" duration="0.20000000000000001">
      <Effects />
      <Transitions />
      <BoundProperties>
        <BoundPropertyInt Name="rotateStepNinety" Value="0" />
      </BoundProperties>
    </ImageClip>
    <ImageClip extentID="3026" gapBefore="0" mediaItemID="3022" duration="0.20000000000000001">
      <Effects />
      <Transitions />
      <BoundProperties>
        <BoundPropertyInt Name="rotateStepNinety" Value="0" />
      </BoundProperties>
    </ImageClip>
    <ImageClip extentID="3027" gapBefore="0" mediaItemID="3023" duration="0.20000000000000001">
      <Effects />
      <Transitions />
      <BoundProperties>
        <BoundPropertyInt Name="rotateStepNinety" Value="0" />
      </BoundProperties>
    </ImageClip>
    <ImageClip extentID="3028" gapBefore="0" mediaItemID="3024" duration="0.20000000000000001">
      <Effects />
      <Transitions />
      <BoundProperties>
        <BoundPropertyInt Name="rotateStepNinety" Value="0" />
      </BoundProperties>
    </ImageClip>
    <ImageClip extentID="3029" gapBefore="0" mediaItemID="3025" duration="0.20000000000000001">
      <Effects />
      <Transitions />
      <BoundProperties>
        <BoundPropertyInt Name="rotateStepNinety" Value="0" />
      </BoundProperties>
    </ImageClip>
    <ImageClip extentID="3030" gapBefore="0" mediaItemID="3026" duration="0.20000000000000001">
      <Effects />
      <Transitions />
      <BoundProperties>
        <BoundPropertyInt Name="rotateStepNinety" Value="0" />
      </BoundProperties>
    </ImageClip>
    <ImageClip extentID="3031" gapBefore="0" mediaItemID="3027" duration="0.20000000000000001">
      <Effects />
      <Transitions />
      <BoundProperties>
        <BoundPropertyInt Name="rotateStepNinety" Value="0" />
      </BoundProperties>
    </ImageClip>
    <ImageClip extentID="3032" gapBefore="0" mediaItemID="3028" duration="0.20000000000000001">
      <Effects />
      <Transitions />
      <BoundProperties>
        <BoundPropertyInt Name="rotateStepNinety" Value="0" />
      </BoundProperties>
    </ImageClip>
    <ImageClip extentID="3033" gapBefore="0" mediaItemID="3029" duration="0.20000000000000001">
      <Effects />
      <Transitions />
      <BoundProperties>
        <BoundPropertyInt Name="rotateStepNinety" Value="0" />
      </BoundProperties>
    </ImageClip>
    <ImageClip extentID="3034" gapBefore="0" mediaItemID="3030" duration="0.20000000000000001">
      <Effects />
      <Transitions />
      <BoundProperties>
        <BoundPropertyInt Name="rotateStepNinety" Value="0" />
      </BoundProperties>
    </ImageClip>
    <ImageClip extentID="3035" gapBefore="0" mediaItemID="3031" duration="0.20000000000000001">
      <Effects />
      <Transitions />
      <BoundProperties>
        <BoundPropertyInt Name="rotateStepNinety" Value="0" />
      </BoundProperties>
    </ImageClip>
    <ImageClip extentID="3036" gapBefore="0" mediaItemID="3032" duration="0.20000000000000001">
      <Effects />
      <Transitions />
      <BoundProperties>
        <BoundPropertyInt Name="rotateStepNinety" Value="0" />
      </BoundProperties>
    </ImageClip>
    <ImageClip extentID="3037" gapBefore="0" mediaItemID="3033" duration="0.20000000000000001">
      <Effects />
      <Transitions />
      <BoundProperties>
        <BoundPropertyInt Name="rotateStepNinety" Value="0" />
      </BoundProperties>
    </ImageClip>
    <ImageClip extentID="3038" gapBefore="0" mediaItemID="3034" duration="0.20000000000000001">
      <Effects />
      <Transitions />
      <BoundProperties>
        <BoundPropertyInt Name="rotateStepNinety" Value="0" />
      </BoundProperties>
    </ImageClip>
    <ImageClip extentID="3039" gapBefore="0" mediaItemID="3035" duration="0.20000000000000001">
      <Effects />
      <Transitions />
      <BoundProperties>
        <BoundPropertyInt Name="rotateStepNinety" Value="0" />
      </BoundProperties>
    </ImageClip>
    <ImageClip extentID="3040" gapBefore="0" mediaItemID="3036" duration="0.20000000000000001">
      <Effects />
      <Transitions />
      <BoundProperties>
        <BoundPropertyInt Name="rotateStepNinety" Value="0" />
      </BoundProperties>
    </ImageClip>
    <ImageClip extentID="3041" gapBefore="0" mediaItemID="3037" duration="0.20000000000000001">
      <Effects />
      <Transitions />
      <BoundProperties>
        <BoundPropertyInt Name="rotateStepNinety" Value="0" />
      </BoundProperties>
    </ImageClip>
    <ImageClip extentID="3042" gapBefore="0" mediaItemID="3038" duration="0.20000000000000001">
      <Effects />
      <Transitions />
      <BoundProperties>
        <BoundPropertyInt Name="rotateStepNinety" Value="0" />
      </BoundProperties>
    </ImageClip>
    <ImageClip extentID="3043" gapBefore="0" mediaItemID="3039" duration="0.20000000000000001">
      <Effects />
      <Transitions />
      <BoundProperties>
        <BoundPropertyInt Name="rotateStepNinety" Value="0" />
      </BoundProperties>
    </ImageClip>
    <ImageClip extentID="3044" gapBefore="0" mediaItemID="3040" duration="0.20000000000000001">
      <Effects />
      <Transitions />
      <BoundProperties>
        <BoundPropertyInt Name="rotateStepNinety" Value="0" />
      </BoundProperties>
    </ImageClip>
    <ImageClip extentID="3045" gapBefore="0" mediaItemID="3041" duration="0.20000000000000001">
      <Effects />
      <Transitions />
      <BoundProperties>
        <BoundPropertyInt Name="rotateStepNinety" Value="0" />
      </BoundProperties>
    </ImageClip>
    <ImageClip extentID="3046" gapBefore="0" mediaItemID="3042" duration="0.20000000000000001">
      <Effects />
      <Transitions />
      <BoundProperties>
        <BoundPropertyInt Name="rotateStepNinety" Value="0" />
      </BoundProperties>
    </ImageClip>
    <ImageClip extentID="3047" gapBefore="0" mediaItemID="3043" duration="0.20000000000000001">
      <Effects />
      <Transitions />
      <BoundProperties>
        <BoundPropertyInt Name="rotateStepNinety" Value="0" />
      </BoundProperties>
    </ImageClip>
    <ImageClip extentID="3048" gapBefore="0" mediaItemID="3044" duration="0.20000000000000001">
      <Effects />
      <Transitions />
      <BoundProperties>
        <BoundPropertyInt Name="rotateStepNinety" Value="0" />
      </BoundProperties>
    </ImageClip>
    <ImageClip extentID="3049" gapBefore="0" mediaItemID="3045" duration="0.20000000000000001">
      <Effects />
      <Transitions />
      <BoundProperties>
        <BoundPropertyInt Name="rotateStepNinety" Value="0" />
      </BoundProperties>
    </ImageClip>
    <ImageClip extentID="3050" gapBefore="0" mediaItemID="3046" duration="0.20000000000000001">
      <Effects />
      <Transitions />
      <BoundProperties>
        <BoundPropertyInt Name="rotateStepNinety" Value="0" />
      </BoundProperties>
    </ImageClip>
    <ImageClip extentID="3051" gapBefore="0" mediaItemID="3047" duration="0.20000000000000001">
      <Effects />
      <Transitions />
      <BoundProperties>
        <BoundPropertyInt Name="rotateStepNinety" Value="0" />
      </BoundProperties>
    </ImageClip>
    <ImageClip extentID="3052" gapBefore="0" mediaItemID="3048" duration="0.20000000000000001">
      <Effects />
      <Transitions />
      <BoundProperties>
        <BoundPropertyInt Name="rotateStepNinety" Value="0" />
      </BoundProperties>
    </ImageClip>
    <ImageClip extentID="3053" gapBefore="0" mediaItemID="3049" duration="0.20000000000000001">
      <Effects />
      <Transitions />
      <BoundProperties>
        <BoundPropertyInt Name="rotateStepNinety" Value="0" />
      </BoundProperties>
    </ImageClip>
    <ImageClip extentID="3054" gapBefore="0" mediaItemID="3050" duration="0.20000000000000001">
      <Effects />
      <Transitions />
      <BoundProperties>
        <BoundPropertyInt Name="rotateStepNinety" Value="0" />
      </BoundProperties>
    </ImageClip>
    <ImageClip extentID="3055" gapBefore="0" mediaItemID="3051" duration="0.20000000000000001">
      <Effects />
      <Transitions />
      <BoundProperties>
        <BoundPropertyInt Name="rotateStepNinety" Value="0" />
      </BoundProperties>
    </ImageClip>
    <ImageClip extentID="3056" gapBefore="0" mediaItemID="3052" duration="0.20000000000000001">
      <Effects />
      <Transitions />
      <BoundProperties>
        <BoundPropertyInt Name="rotateStepNinety" Value="0" />
      </BoundProperties>
    </ImageClip>
    <ImageClip extentID="3057" gapBefore="0" mediaItemID="3053" duration="0.20000000000000001">
      <Effects />
      <Transitions />
      <BoundProperties>
        <BoundPropertyInt Name="rotateStepNinety" Value="0" />
      </BoundProperties>
    </ImageClip>
    <ImageClip extentID="3058" gapBefore="0" mediaItemID="3054" duration="0.20000000000000001">
      <Effects />
      <Transitions />
      <BoundProperties>
        <BoundPropertyInt Name="rotateStepNinety" Value="0" />
      </BoundProperties>
    </ImageClip>
    <ImageClip extentID="3059" gapBefore="0" mediaItemID="3055" duration="0.20000000000000001">
      <Effects />
      <Transitions />
      <BoundProperties>
        <BoundPropertyInt Name="rotateStepNinety" Value="0" />
      </BoundProperties>
    </ImageClip>
    <ImageClip extentID="3060" gapBefore="0" mediaItemID="3056" duration="0.20000000000000001">
      <Effects />
      <Transitions />
      <BoundProperties>
        <BoundPropertyInt Name="rotateStepNinety" Value="0" />
      </BoundProperties>
    </ImageClip>
    <ImageClip extentID="3061" gapBefore="0" mediaItemID="3057" duration="0.20000000000000001">
      <Effects />
      <Transitions />
      <BoundProperties>
        <BoundPropertyInt Name="rotateStepNinety" Value="0" />
      </BoundProperties>
    </ImageClip>
    <ImageClip extentID="3062" gapBefore="0" mediaItemID="3058" duration="0.20000000000000001">
      <Effects />
      <Transitions />
      <BoundProperties>
        <BoundPropertyInt Name="rotateStepNinety" Value="0" />
      </BoundProperties>
    </ImageClip>
    <ImageClip extentID="3063" gapBefore="0" mediaItemID="3059" duration="0.20000000000000001">
      <Effects />
      <Transitions />
      <BoundProperties>
        <BoundPropertyInt Name="rotateStepNinety" Value="0" />
      </BoundProperties>
    </ImageClip>
    <ImageClip extentID="3064" gapBefore="0" mediaItemID="3060" duration="0.20000000000000001">
      <Effects />
      <Transitions />
      <BoundProperties>
        <BoundPropertyInt Name="rotateStepNinety" Value="0" />
      </BoundProperties>
    </ImageClip>
    <ImageClip extentID="3065" gapBefore="0" mediaItemID="3061" duration="0.20000000000000001">
      <Effects />
      <Transitions />
      <BoundProperties>
        <BoundPropertyInt Name="rotateStepNinety" Value="0" />
      </BoundProperties>
    </ImageClip>
    <ImageClip extentID="3066" gapBefore="0" mediaItemID="3062" duration="0.20000000000000001">
      <Effects />
      <Transitions />
      <BoundProperties>
        <BoundPropertyInt Name="rotateStepNinety" Value="0" />
      </BoundProperties>
    </ImageClip>
    <ImageClip extentID="3067" gapBefore="0" mediaItemID="3063" duration="0.20000000000000001">
      <Effects />
      <Transitions />
      <BoundProperties>
        <BoundPropertyInt Name="rotateStepNinety" Value="0" />
      </BoundProperties>
    </ImageClip>
    <ImageClip extentID="3068" gapBefore="0" mediaItemID="3064" duration="0.20000000000000001">
      <Effects />
      <Transitions />
      <BoundProperties>
        <BoundPropertyInt Name="rotateStepNinety" Value="0" />
      </BoundProperties>
    </ImageClip>
    <ImageClip extentID="3069" gapBefore="0" mediaItemID="3065" duration="0.20000000000000001">
      <Effects />
      <Transitions />
      <BoundProperties>
        <BoundPropertyInt Name="rotateStepNinety" Value="0" />
      </BoundProperties>
    </ImageClip>
    <ImageClip extentID="3070" gapBefore="0" mediaItemID="3066" duration="0.20000000000000001">
      <Effects />
      <Transitions />
      <BoundProperties>
        <BoundPropertyInt Name="rotateStepNinety" Value="0" />
      </BoundProperties>
    </ImageClip>
    <ImageClip extentID="3071" gapBefore="0" mediaItemID="3067" duration="0.20000000000000001">
      <Effects />
      <Transitions />
      <BoundProperties>
        <BoundPropertyInt Name="rotateStepNinety" Value="0" />
      </BoundProperties>
    </ImageClip>
    <ImageClip extentID="3072" gapBefore="0" mediaItemID="3068" duration="0.20000000000000001">
      <Effects />
      <Transitions />
      <BoundProperties>
        <BoundPropertyInt Name="rotateStepNinety" Value="0" />
      </BoundProperties>
    </ImageClip>
    <ImageClip extentID="3073" gapBefore="0" mediaItemID="3069" duration="0.20000000000000001">
      <Effects />
      <Transitions />
      <BoundProperties>
        <BoundPropertyInt Name="rotateStepNinety" Value="0" />
      </BoundProperties>
    </ImageClip>
    <ImageClip extentID="3074" gapBefore="0" mediaItemID="3070" duration="0.20000000000000001">
      <Effects />
      <Transitions />
      <BoundProperties>
        <BoundPropertyInt Name="rotateStepNinety" Value="0" />
      </BoundProperties>
    </ImageClip>
    <ImageClip extentID="3075" gapBefore="0" mediaItemID="3071" duration="0.20000000000000001">
      <Effects />
      <Transitions />
      <BoundProperties>
        <BoundPropertyInt Name="rotateStepNinety" Value="0" />
      </BoundProperties>
    </ImageClip>
    <ImageClip extentID="3076" gapBefore="0" mediaItemID="3072" duration="0.20000000000000001">
      <Effects />
      <Transitions />
      <BoundProperties>
        <BoundPropertyInt Name="rotateStepNinety" Value="0" />
      </BoundProperties>
    </ImageClip>
    <ImageClip extentID="3077" gapBefore="0" mediaItemID="3073" duration="0.20000000000000001">
      <Effects />
      <Transitions />
      <BoundProperties>
        <BoundPropertyInt Name="rotateStepNinety" Value="0" />
      </BoundProperties>
    </ImageClip>
    <ImageClip extentID="3078" gapBefore="0" mediaItemID="3074" duration="0.20000000000000001">
      <Effects />
      <Transitions />
      <BoundProperties>
        <BoundPropertyInt Name="rotateStepNinety" Value="0" />
      </BoundProperties>
    </ImageClip>
    <ImageClip extentID="3079" gapBefore="0" mediaItemID="3075" duration="0.20000000000000001">
      <Effects />
      <Transitions />
      <BoundProperties>
        <BoundPropertyInt Name="rotateStepNinety" Value="0" />
      </BoundProperties>
    </ImageClip>
    <ImageClip extentID="3080" gapBefore="0" mediaItemID="3076" duration="0.20000000000000001">
      <Effects />
      <Transitions />
      <BoundProperties>
        <BoundPropertyInt Name="rotateStepNinety" Value="0" />
      </BoundProperties>
    </ImageClip>
    <ImageClip extentID="3081" gapBefore="0" mediaItemID="3077" duration="0.20000000000000001">
      <Effects />
      <Transitions />
      <BoundProperties>
        <BoundPropertyInt Name="rotateStepNinety" Value="0" />
      </BoundProperties>
    </ImageClip>
    <ImageClip extentID="3082" gapBefore="0" mediaItemID="3078" duration="0.20000000000000001">
      <Effects />
      <Transitions />
      <BoundProperties>
        <BoundPropertyInt Name="rotateStepNinety" Value="0" />
      </BoundProperties>
    </ImageClip>
    <ImageClip extentID="3083" gapBefore="0" mediaItemID="3079" duration="0.20000000000000001">
      <Effects />
      <Transitions />
      <BoundProperties>
        <BoundPropertyInt Name="rotateStepNinety" Value="0" />
      </BoundProperties>
    </ImageClip>
    <ImageClip extentID="3084" gapBefore="0" mediaItemID="3080" duration="0.20000000000000001">
      <Effects />
      <Transitions />
      <BoundProperties>
        <BoundPropertyInt Name="rotateStepNinety" Value="0" />
      </BoundProperties>
    </ImageClip>
    <ImageClip extentID="3085" gapBefore="0" mediaItemID="3081" duration="0.20000000000000001">
      <Effects />
      <Transitions />
      <BoundProperties>
        <BoundPropertyInt Name="rotateStepNinety" Value="0" />
      </BoundProperties>
    </ImageClip>
    <ImageClip extentID="3086" gapBefore="0" mediaItemID="3082" duration="0.20000000000000001">
      <Effects />
      <Transitions />
      <BoundProperties>
        <BoundPropertyInt Name="rotateStepNinety" Value="0" />
      </BoundProperties>
    </ImageClip>
    <ImageClip extentID="3087" gapBefore="0" mediaItemID="3083" duration="0.20000000000000001">
      <Effects />
      <Transitions />
      <BoundProperties>
        <BoundPropertyInt Name="rotateStepNinety" Value="0" />
      </BoundProperties>
    </ImageClip>
    <ImageClip extentID="3088" gapBefore="0" mediaItemID="3084" duration="0.20000000000000001">
      <Effects />
      <Transitions />
      <BoundProperties>
        <BoundPropertyInt Name="rotateStepNinety" Value="0" />
      </BoundProperties>
    </ImageClip>
    <ImageClip extentID="3089" gapBefore="0" mediaItemID="3085" duration="0.20000000000000001">
      <Effects />
      <Transitions />
      <BoundProperties>
        <BoundPropertyInt Name="rotateStepNinety" Value="0" />
      </BoundProperties>
    </ImageClip>
    <ImageClip extentID="3090" gapBefore="0" mediaItemID="3086" duration="0.20000000000000001">
      <Effects />
      <Transitions />
      <BoundProperties>
        <BoundPropertyInt Name="rotateStepNinety" Value="0" />
      </BoundProperties>
    </ImageClip>
    <ImageClip extentID="3091" gapBefore="0" mediaItemID="3087" duration="0.20000000000000001">
      <Effects />
      <Transitions />
      <BoundProperties>
        <BoundPropertyInt Name="rotateStepNinety" Value="0" />
      </BoundProperties>
    </ImageClip>
    <ImageClip extentID="3092" gapBefore="0" mediaItemID="3088" duration="0.20000000000000001">
      <Effects />
      <Transitions />
      <BoundProperties>
        <BoundPropertyInt Name="rotateStepNinety" Value="0" />
      </BoundProperties>
    </ImageClip>
    <ImageClip extentID="3093" gapBefore="0" mediaItemID="3089" duration="0.20000000000000001">
      <Effects />
      <Transitions />
      <BoundProperties>
        <BoundPropertyInt Name="rotateStepNinety" Value="0" />
      </BoundProperties>
    </ImageClip>
    <ImageClip extentID="3094" gapBefore="0" mediaItemID="3090" duration="0.20000000000000001">
      <Effects />
      <Transitions />
      <BoundProperties>
        <BoundPropertyInt Name="rotateStepNinety" Value="0" />
      </BoundProperties>
    </ImageClip>
    <ImageClip extentID="3095" gapBefore="0" mediaItemID="3091" duration="0.20000000000000001">
      <Effects />
      <Transitions />
      <BoundProperties>
        <BoundPropertyInt Name="rotateStepNinety" Value="0" />
      </BoundProperties>
    </ImageClip>
    <ImageClip extentID="3096" gapBefore="0" mediaItemID="3092" duration="0.20000000000000001">
      <Effects />
      <Transitions />
      <BoundProperties>
        <BoundPropertyInt Name="rotateStepNinety" Value="0" />
      </BoundProperties>
    </ImageClip>
    <ImageClip extentID="3097" gapBefore="0" mediaItemID="3093" duration="0.20000000000000001">
      <Effects />
      <Transitions />
      <BoundProperties>
        <BoundPropertyInt Name="rotateStepNinety" Value="0" />
      </BoundProperties>
    </ImageClip>
    <ImageClip extentID="3098" gapBefore="0" mediaItemID="3094" duration="0.20000000000000001">
      <Effects />
      <Transitions />
      <BoundProperties>
        <BoundPropertyInt Name="rotateStepNinety" Value="0" />
      </BoundProperties>
    </ImageClip>
    <ImageClip extentID="3099" gapBefore="0" mediaItemID="3095" duration="0.20000000000000001">
      <Effects />
      <Transitions />
      <BoundProperties>
        <BoundPropertyInt Name="rotateStepNinety" Value="0" />
      </BoundProperties>
    </ImageClip>
    <ImageClip extentID="3100" gapBefore="0" mediaItemID="3096" duration="0.20000000000000001">
      <Effects />
      <Transitions />
      <BoundProperties>
        <BoundPropertyInt Name="rotateStepNinety" Value="0" />
      </BoundProperties>
    </ImageClip>
    <ImageClip extentID="3101" gapBefore="0" mediaItemID="3097" duration="0.20000000000000001">
      <Effects />
      <Transitions />
      <BoundProperties>
        <BoundPropertyInt Name="rotateStepNinety" Value="0" />
      </BoundProperties>
    </ImageClip>
    <ImageClip extentID="3102" gapBefore="0" mediaItemID="3098" duration="0.20000000000000001">
      <Effects />
      <Transitions />
      <BoundProperties>
        <BoundPropertyInt Name="rotateStepNinety" Value="0" />
      </BoundProperties>
    </ImageClip>
    <ImageClip extentID="3103" gapBefore="0" mediaItemID="3099" duration="0.20000000000000001">
      <Effects />
      <Transitions />
      <BoundProperties>
        <BoundPropertyInt Name="rotateStepNinety" Value="0" />
      </BoundProperties>
    </ImageClip>
    <ImageClip extentID="3104" gapBefore="0" mediaItemID="3100" duration="0.20000000000000001">
      <Effects />
      <Transitions />
      <BoundProperties>
        <BoundPropertyInt Name="rotateStepNinety" Value="0" />
      </BoundProperties>
    </ImageClip>
    <ImageClip extentID="3105" gapBefore="0" mediaItemID="3101" duration="0.20000000000000001">
      <Effects />
      <Transitions />
      <BoundProperties>
        <BoundPropertyInt Name="rotateStepNinety" Value="0" />
      </BoundProperties>
    </ImageClip>
    <ImageClip extentID="3106" gapBefore="0" mediaItemID="3102" duration="0.20000000000000001">
      <Effects />
      <Transitions />
      <BoundProperties>
        <BoundPropertyInt Name="rotateStepNinety" Value="0" />
      </BoundProperties>
    </ImageClip>
    <ImageClip extentID="3107" gapBefore="0" mediaItemID="3103" duration="0.20000000000000001">
      <Effects />
      <Transitions />
      <BoundProperties>
        <BoundPropertyInt Name="rotateStepNinety" Value="0" />
      </BoundProperties>
    </ImageClip>
    <ImageClip extentID="3108" gapBefore="0" mediaItemID="3104" duration="0.20000000000000001">
      <Effects />
      <Transitions />
      <BoundProperties>
        <BoundPropertyInt Name="rotateStepNinety" Value="0" />
      </BoundProperties>
    </ImageClip>
    <ImageClip extentID="3109" gapBefore="0" mediaItemID="3105" duration="0.20000000000000001">
      <Effects />
      <Transitions />
      <BoundProperties>
        <BoundPropertyInt Name="rotateStepNinety" Value="0" />
      </BoundProperties>
    </ImageClip>
    <ImageClip extentID="3110" gapBefore="0" mediaItemID="3106" duration="0.20000000000000001">
      <Effects />
      <Transitions />
      <BoundProperties>
        <BoundPropertyInt Name="rotateStepNinety" Value="0" />
      </BoundProperties>
    </ImageClip>
    <ImageClip extentID="3111" gapBefore="0" mediaItemID="3107" duration="0.20000000000000001">
      <Effects />
      <Transitions />
      <BoundProperties>
        <BoundPropertyInt Name="rotateStepNinety" Value="0" />
      </BoundProperties>
    </ImageClip>
    <ImageClip extentID="3112" gapBefore="0" mediaItemID="3108" duration="0.20000000000000001">
      <Effects />
      <Transitions />
      <BoundProperties>
        <BoundPropertyInt Name="rotateStepNinety" Value="0" />
      </BoundProperties>
    </ImageClip>
    <ImageClip extentID="3113" gapBefore="0" mediaItemID="3109" duration="0.20000000000000001">
      <Effects />
      <Transitions />
      <BoundProperties>
        <BoundPropertyInt Name="rotateStepNinety" Value="0" />
      </BoundProperties>
    </ImageClip>
    <ImageClip extentID="3114" gapBefore="0" mediaItemID="3110" duration="0.20000000000000001">
      <Effects />
      <Transitions />
      <BoundProperties>
        <BoundPropertyInt Name="rotateStepNinety" Value="0" />
      </BoundProperties>
    </ImageClip>
    <ImageClip extentID="3115" gapBefore="0" mediaItemID="3111" duration="0.20000000000000001">
      <Effects />
      <Transitions />
      <BoundProperties>
        <BoundPropertyInt Name="rotateStepNinety" Value="0" />
      </BoundProperties>
    </ImageClip>
    <ImageClip extentID="3116" gapBefore="0" mediaItemID="3112" duration="0.20000000000000001">
      <Effects />
      <Transitions />
      <BoundProperties>
        <BoundPropertyInt Name="rotateStepNinety" Value="0" />
      </BoundProperties>
    </ImageClip>
    <ImageClip extentID="3117" gapBefore="0" mediaItemID="3113" duration="0.20000000000000001">
      <Effects />
      <Transitions />
      <BoundProperties>
        <BoundPropertyInt Name="rotateStepNinety" Value="0" />
      </BoundProperties>
    </ImageClip>
    <ImageClip extentID="3118" gapBefore="0" mediaItemID="3114" duration="0.20000000000000001">
      <Effects />
      <Transitions />
      <BoundProperties>
        <BoundPropertyInt Name="rotateStepNinety" Value="0" />
      </BoundProperties>
    </ImageClip>
    <ImageClip extentID="3119" gapBefore="0" mediaItemID="3115" duration="0.20000000000000001">
      <Effects />
      <Transitions />
      <BoundProperties>
        <BoundPropertyInt Name="rotateStepNinety" Value="0" />
      </BoundProperties>
    </ImageClip>
    <ImageClip extentID="3120" gapBefore="0" mediaItemID="3116" duration="0.20000000000000001">
      <Effects />
      <Transitions />
      <BoundProperties>
        <BoundPropertyInt Name="rotateStepNinety" Value="0" />
      </BoundProperties>
    </ImageClip>
    <ImageClip extentID="3121" gapBefore="0" mediaItemID="3117" duration="0.20000000000000001">
      <Effects />
      <Transitions />
      <BoundProperties>
        <BoundPropertyInt Name="rotateStepNinety" Value="0" />
      </BoundProperties>
    </ImageClip>
    <ImageClip extentID="3122" gapBefore="0" mediaItemID="3118" duration="0.20000000000000001">
      <Effects />
      <Transitions />
      <BoundProperties>
        <BoundPropertyInt Name="rotateStepNinety" Value="0" />
      </BoundProperties>
    </ImageClip>
    <ImageClip extentID="3123" gapBefore="0" mediaItemID="3119" duration="0.20000000000000001">
      <Effects />
      <Transitions />
      <BoundProperties>
        <BoundPropertyInt Name="rotateStepNinety" Value="0" />
      </BoundProperties>
    </ImageClip>
    <ImageClip extentID="3124" gapBefore="0" mediaItemID="3120" duration="0.20000000000000001">
      <Effects />
      <Transitions />
      <BoundProperties>
        <BoundPropertyInt Name="rotateStepNinety" Value="0" />
      </BoundProperties>
    </ImageClip>
    <ImageClip extentID="3125" gapBefore="0" mediaItemID="3121" duration="0.20000000000000001">
      <Effects />
      <Transitions />
      <BoundProperties>
        <BoundPropertyInt Name="rotateStepNinety" Value="0" />
      </BoundProperties>
    </ImageClip>
    <ImageClip extentID="3126" gapBefore="0" mediaItemID="3122" duration="0.20000000000000001">
      <Effects />
      <Transitions />
      <BoundProperties>
        <BoundPropertyInt Name="rotateStepNinety" Value="0" />
      </BoundProperties>
    </ImageClip>
    <ImageClip extentID="3127" gapBefore="0" mediaItemID="3123" duration="0.20000000000000001">
      <Effects />
      <Transitions />
      <BoundProperties>
        <BoundPropertyInt Name="rotateStepNinety" Value="0" />
      </BoundProperties>
    </ImageClip>
    <ImageClip extentID="3128" gapBefore="0" mediaItemID="3124" duration="0.20000000000000001">
      <Effects />
      <Transitions />
      <BoundProperties>
        <BoundPropertyInt Name="rotateStepNinety" Value="0" />
      </BoundProperties>
    </ImageClip>
    <ImageClip extentID="3129" gapBefore="0" mediaItemID="3125" duration="0.20000000000000001">
      <Effects />
      <Transitions />
      <BoundProperties>
        <BoundPropertyInt Name="rotateStepNinety" Value="0" />
      </BoundProperties>
    </ImageClip>
    <ImageClip extentID="3130" gapBefore="0" mediaItemID="3126" duration="0.20000000000000001">
      <Effects />
      <Transitions />
      <BoundProperties>
        <BoundPropertyInt Name="rotateStepNinety" Value="0" />
      </BoundProperties>
    </ImageClip>
    <ImageClip extentID="3131" gapBefore="0" mediaItemID="3127" duration="0.20000000000000001">
      <Effects />
      <Transitions />
      <BoundProperties>
        <BoundPropertyInt Name="rotateStepNinety" Value="0" />
      </BoundProperties>
    </ImageClip>
    <ImageClip extentID="3132" gapBefore="0" mediaItemID="3128" duration="0.20000000000000001">
      <Effects />
      <Transitions />
      <BoundProperties>
        <BoundPropertyInt Name="rotateStepNinety" Value="0" />
      </BoundProperties>
    </ImageClip>
    <ImageClip extentID="3133" gapBefore="0" mediaItemID="3129" duration="0.20000000000000001">
      <Effects />
      <Transitions />
      <BoundProperties>
        <BoundPropertyInt Name="rotateStepNinety" Value="0" />
      </BoundProperties>
    </ImageClip>
    <ImageClip extentID="3134" gapBefore="0" mediaItemID="3130" duration="0.20000000000000001">
      <Effects />
      <Transitions />
      <BoundProperties>
        <BoundPropertyInt Name="rotateStepNinety" Value="0" />
      </BoundProperties>
    </ImageClip>
    <ImageClip extentID="3135" gapBefore="0" mediaItemID="3131" duration="0.20000000000000001">
      <Effects />
      <Transitions />
      <BoundProperties>
        <BoundPropertyInt Name="rotateStepNinety" Value="0" />
      </BoundProperties>
    </ImageClip>
    <ImageClip extentID="3136" gapBefore="0" mediaItemID="3132" duration="0.20000000000000001">
      <Effects />
      <Transitions />
      <BoundProperties>
        <BoundPropertyInt Name="rotateStepNinety" Value="0" />
      </BoundProperties>
    </ImageClip>
    <ImageClip extentID="3137" gapBefore="0" mediaItemID="3133" duration="0.20000000000000001">
      <Effects />
      <Transitions />
      <BoundProperties>
        <BoundPropertyInt Name="rotateStepNinety" Value="0" />
      </BoundProperties>
    </ImageClip>
    <ImageClip extentID="3138" gapBefore="0" mediaItemID="3134" duration="0.20000000000000001">
      <Effects />
      <Transitions />
      <BoundProperties>
        <BoundPropertyInt Name="rotateStepNinety" Value="0" />
      </BoundProperties>
    </ImageClip>
    <ImageClip extentID="3139" gapBefore="0" mediaItemID="3135" duration="0.20000000000000001">
      <Effects />
      <Transitions />
      <BoundProperties>
        <BoundPropertyInt Name="rotateStepNinety" Value="0" />
      </BoundProperties>
    </ImageClip>
    <ImageClip extentID="3140" gapBefore="0" mediaItemID="3136" duration="0.20000000000000001">
      <Effects />
      <Transitions />
      <BoundProperties>
        <BoundPropertyInt Name="rotateStepNinety" Value="0" />
      </BoundProperties>
    </ImageClip>
    <ImageClip extentID="3141" gapBefore="0" mediaItemID="3137" duration="0.20000000000000001">
      <Effects />
      <Transitions />
      <BoundProperties>
        <BoundPropertyInt Name="rotateStepNinety" Value="0" />
      </BoundProperties>
    </ImageClip>
    <ImageClip extentID="3142" gapBefore="0" mediaItemID="3138" duration="0.20000000000000001">
      <Effects />
      <Transitions />
      <BoundProperties>
        <BoundPropertyInt Name="rotateStepNinety" Value="0" />
      </BoundProperties>
    </ImageClip>
    <ImageClip extentID="3143" gapBefore="0" mediaItemID="3139" duration="0.20000000000000001">
      <Effects />
      <Transitions />
      <BoundProperties>
        <BoundPropertyInt Name="rotateStepNinety" Value="0" />
      </BoundProperties>
    </ImageClip>
    <ImageClip extentID="3144" gapBefore="0" mediaItemID="3140" duration="0.20000000000000001">
      <Effects />
      <Transitions />
      <BoundProperties>
        <BoundPropertyInt Name="rotateStepNinety" Value="0" />
      </BoundProperties>
    </ImageClip>
    <ImageClip extentID="3145" gapBefore="0" mediaItemID="3141" duration="0.20000000000000001">
      <Effects />
      <Transitions />
      <BoundProperties>
        <BoundPropertyInt Name="rotateStepNinety" Value="0" />
      </BoundProperties>
    </ImageClip>
    <ImageClip extentID="3146" gapBefore="0" mediaItemID="3142" duration="0.20000000000000001">
      <Effects />
      <Transitions />
      <BoundProperties>
        <BoundPropertyInt Name="rotateStepNinety" Value="0" />
      </BoundProperties>
    </ImageClip>
    <ImageClip extentID="3147" gapBefore="0" mediaItemID="3143" duration="0.20000000000000001">
      <Effects />
      <Transitions />
      <BoundProperties>
        <BoundPropertyInt Name="rotateStepNinety" Value="0" />
      </BoundProperties>
    </ImageClip>
    <ImageClip extentID="3148" gapBefore="0" mediaItemID="3144" duration="0.20000000000000001">
      <Effects />
      <Transitions />
      <BoundProperties>
        <BoundPropertyInt Name="rotateStepNinety" Value="0" />
      </BoundProperties>
    </ImageClip>
    <ImageClip extentID="3149" gapBefore="0" mediaItemID="3145" duration="0.20000000000000001">
      <Effects />
      <Transitions />
      <BoundProperties>
        <BoundPropertyInt Name="rotateStepNinety" Value="0" />
      </BoundProperties>
    </ImageClip>
    <ImageClip extentID="3150" gapBefore="0" mediaItemID="3146" duration="0.20000000000000001">
      <Effects />
      <Transitions />
      <BoundProperties>
        <BoundPropertyInt Name="rotateStepNinety" Value="0" />
      </BoundProperties>
    </ImageClip>
    <ImageClip extentID="3151" gapBefore="0" mediaItemID="3147" duration="0.20000000000000001">
      <Effects />
      <Transitions />
      <BoundProperties>
        <BoundPropertyInt Name="rotateStepNinety" Value="0" />
      </BoundProperties>
    </ImageClip>
    <ImageClip extentID="3152" gapBefore="0" mediaItemID="3148" duration="0.20000000000000001">
      <Effects />
      <Transitions />
      <BoundProperties>
        <BoundPropertyInt Name="rotateStepNinety" Value="0" />
      </BoundProperties>
    </ImageClip>
    <ImageClip extentID="3153" gapBefore="0" mediaItemID="3149" duration="0.20000000000000001">
      <Effects />
      <Transitions />
      <BoundProperties>
        <BoundPropertyInt Name="rotateStepNinety" Value="0" />
      </BoundProperties>
    </ImageClip>
    <ImageClip extentID="3154" gapBefore="0" mediaItemID="3150" duration="0.20000000000000001">
      <Effects />
      <Transitions />
      <BoundProperties>
        <BoundPropertyInt Name="rotateStepNinety" Value="0" />
      </BoundProperties>
    </ImageClip>
    <ImageClip extentID="3155" gapBefore="0" mediaItemID="3151" duration="0.20000000000000001">
      <Effects />
      <Transitions />
      <BoundProperties>
        <BoundPropertyInt Name="rotateStepNinety" Value="0" />
      </BoundProperties>
    </ImageClip>
    <ImageClip extentID="3156" gapBefore="0" mediaItemID="3152" duration="0.20000000000000001">
      <Effects />
      <Transitions />
      <BoundProperties>
        <BoundPropertyInt Name="rotateStepNinety" Value="0" />
      </BoundProperties>
    </ImageClip>
    <ImageClip extentID="3157" gapBefore="0" mediaItemID="3153" duration="0.20000000000000001">
      <Effects />
      <Transitions />
      <BoundProperties>
        <BoundPropertyInt Name="rotateStepNinety" Value="0" />
      </BoundProperties>
    </ImageClip>
    <ImageClip extentID="3158" gapBefore="0" mediaItemID="3154" duration="0.20000000000000001">
      <Effects />
      <Transitions />
      <BoundProperties>
        <BoundPropertyInt Name="rotateStepNinety" Value="0" />
      </BoundProperties>
    </ImageClip>
    <ImageClip extentID="3159" gapBefore="0" mediaItemID="3155" duration="0.20000000000000001">
      <Effects />
      <Transitions />
      <BoundProperties>
        <BoundPropertyInt Name="rotateStepNinety" Value="0" />
      </BoundProperties>
    </ImageClip>
    <ImageClip extentID="3160" gapBefore="0" mediaItemID="3156" duration="0.20000000000000001">
      <Effects />
      <Transitions />
      <BoundProperties>
        <BoundPropertyInt Name="rotateStepNinety" Value="0" />
      </BoundProperties>
    </ImageClip>
    <ImageClip extentID="3161" gapBefore="0" mediaItemID="3157" duration="0.20000000000000001">
      <Effects />
      <Transitions />
      <BoundProperties>
        <BoundPropertyInt Name="rotateStepNinety" Value="0" />
      </BoundProperties>
    </ImageClip>
    <ImageClip extentID="3162" gapBefore="0" mediaItemID="3158" duration="0.20000000000000001">
      <Effects />
      <Transitions />
      <BoundProperties>
        <BoundPropertyInt Name="rotateStepNinety" Value="0" />
      </BoundProperties>
    </ImageClip>
    <ImageClip extentID="3163" gapBefore="0" mediaItemID="3159" duration="0.20000000000000001">
      <Effects />
      <Transitions />
      <BoundProperties>
        <BoundPropertyInt Name="rotateStepNinety" Value="0" />
      </BoundProperties>
    </ImageClip>
    <ImageClip extentID="3164" gapBefore="0" mediaItemID="3160" duration="0.20000000000000001">
      <Effects />
      <Transitions />
      <BoundProperties>
        <BoundPropertyInt Name="rotateStepNinety" Value="0" />
      </BoundProperties>
    </ImageClip>
    <ImageClip extentID="3165" gapBefore="0" mediaItemID="3161" duration="0.20000000000000001">
      <Effects />
      <Transitions />
      <BoundProperties>
        <BoundPropertyInt Name="rotateStepNinety" Value="0" />
      </BoundProperties>
    </ImageClip>
    <ImageClip extentID="3166" gapBefore="0" mediaItemID="3162" duration="0.20000000000000001">
      <Effects />
      <Transitions />
      <BoundProperties>
        <BoundPropertyInt Name="rotateStepNinety" Value="0" />
      </BoundProperties>
    </ImageClip>
    <ImageClip extentID="3167" gapBefore="0" mediaItemID="3163" duration="0.20000000000000001">
      <Effects />
      <Transitions />
      <BoundProperties>
        <BoundPropertyInt Name="rotateStepNinety" Value="0" />
      </BoundProperties>
    </ImageClip>
    <ImageClip extentID="3168" gapBefore="0" mediaItemID="3164" duration="0.20000000000000001">
      <Effects />
      <Transitions />
      <BoundProperties>
        <BoundPropertyInt Name="rotateStepNinety" Value="0" />
      </BoundProperties>
    </ImageClip>
    <ImageClip extentID="3169" gapBefore="0" mediaItemID="3165" duration="0.20000000000000001">
      <Effects />
      <Transitions />
      <BoundProperties>
        <BoundPropertyInt Name="rotateStepNinety" Value="0" />
      </BoundProperties>
    </ImageClip>
    <ImageClip extentID="3170" gapBefore="0" mediaItemID="3166" duration="0.20000000000000001">
      <Effects />
      <Transitions />
      <BoundProperties>
        <BoundPropertyInt Name="rotateStepNinety" Value="0" />
      </BoundProperties>
    </ImageClip>
    <ImageClip extentID="3171" gapBefore="0" mediaItemID="3167" duration="0.20000000000000001">
      <Effects />
      <Transitions />
      <BoundProperties>
        <BoundPropertyInt Name="rotateStepNinety" Value="0" />
      </BoundProperties>
    </ImageClip>
    <ImageClip extentID="3172" gapBefore="0" mediaItemID="3168" duration="0.20000000000000001">
      <Effects />
      <Transitions />
      <BoundProperties>
        <BoundPropertyInt Name="rotateStepNinety" Value="0" />
      </BoundProperties>
    </ImageClip>
    <ImageClip extentID="3173" gapBefore="0" mediaItemID="3169" duration="0.20000000000000001">
      <Effects />
      <Transitions />
      <BoundProperties>
        <BoundPropertyInt Name="rotateStepNinety" Value="0" />
      </BoundProperties>
    </ImageClip>
    <ImageClip extentID="3174" gapBefore="0" mediaItemID="3170" duration="0.20000000000000001">
      <Effects />
      <Transitions />
      <BoundProperties>
        <BoundPropertyInt Name="rotateStepNinety" Value="0" />
      </BoundProperties>
    </ImageClip>
    <ImageClip extentID="3175" gapBefore="0" mediaItemID="3171" duration="0.20000000000000001">
      <Effects />
      <Transitions />
      <BoundProperties>
        <BoundPropertyInt Name="rotateStepNinety" Value="0" />
      </BoundProperties>
    </ImageClip>
    <ImageClip extentID="3176" gapBefore="0" mediaItemID="3172" duration="0.20000000000000001">
      <Effects />
      <Transitions />
      <BoundProperties>
        <BoundPropertyInt Name="rotateStepNinety" Value="0" />
      </BoundProperties>
    </ImageClip>
    <ImageClip extentID="3177" gapBefore="0" mediaItemID="3173" duration="0.20000000000000001">
      <Effects />
      <Transitions />
      <BoundProperties>
        <BoundPropertyInt Name="rotateStepNinety" Value="0" />
      </BoundProperties>
    </ImageClip>
    <ImageClip extentID="3178" gapBefore="0" mediaItemID="3174" duration="0.20000000000000001">
      <Effects />
      <Transitions />
      <BoundProperties>
        <BoundPropertyInt Name="rotateStepNinety" Value="0" />
      </BoundProperties>
    </ImageClip>
    <ImageClip extentID="3179" gapBefore="0" mediaItemID="3175" duration="0.20000000000000001">
      <Effects />
      <Transitions />
      <BoundProperties>
        <BoundPropertyInt Name="rotateStepNinety" Value="0" />
      </BoundProperties>
    </ImageClip>
    <ImageClip extentID="3180" gapBefore="0" mediaItemID="3176" duration="0.20000000000000001">
      <Effects />
      <Transitions />
      <BoundProperties>
        <BoundPropertyInt Name="rotateStepNinety" Value="0" />
      </BoundProperties>
    </ImageClip>
    <ImageClip extentID="3181" gapBefore="0" mediaItemID="3177" duration="0.20000000000000001">
      <Effects />
      <Transitions />
      <BoundProperties>
        <BoundPropertyInt Name="rotateStepNinety" Value="0" />
      </BoundProperties>
    </ImageClip>
    <ImageClip extentID="3182" gapBefore="0" mediaItemID="3178" duration="0.20000000000000001">
      <Effects />
      <Transitions />
      <BoundProperties>
        <BoundPropertyInt Name="rotateStepNinety" Value="0" />
      </BoundProperties>
    </ImageClip>
    <ImageClip extentID="3183" gapBefore="0" mediaItemID="3179" duration="0.20000000000000001">
      <Effects />
      <Transitions />
      <BoundProperties>
        <BoundPropertyInt Name="rotateStepNinety" Value="0" />
      </BoundProperties>
    </ImageClip>
    <ImageClip extentID="3184" gapBefore="0" mediaItemID="3180" duration="0.20000000000000001">
      <Effects />
      <Transitions />
      <BoundProperties>
        <BoundPropertyInt Name="rotateStepNinety" Value="0" />
      </BoundProperties>
    </ImageClip>
    <ImageClip extentID="3185" gapBefore="0" mediaItemID="3181" duration="0.20000000000000001">
      <Effects />
      <Transitions />
      <BoundProperties>
        <BoundPropertyInt Name="rotateStepNinety" Value="0" />
      </BoundProperties>
    </ImageClip>
    <ImageClip extentID="3186" gapBefore="0" mediaItemID="3182" duration="0.20000000000000001">
      <Effects />
      <Transitions />
      <BoundProperties>
        <BoundPropertyInt Name="rotateStepNinety" Value="0" />
      </BoundProperties>
    </ImageClip>
    <ImageClip extentID="3187" gapBefore="0" mediaItemID="3183" duration="0.20000000000000001">
      <Effects />
      <Transitions />
      <BoundProperties>
        <BoundPropertyInt Name="rotateStepNinety" Value="0" />
      </BoundProperties>
    </ImageClip>
    <ImageClip extentID="3188" gapBefore="0" mediaItemID="3184" duration="0.20000000000000001">
      <Effects />
      <Transitions />
      <BoundProperties>
        <BoundPropertyInt Name="rotateStepNinety" Value="0" />
      </BoundProperties>
    </ImageClip>
    <ImageClip extentID="3189" gapBefore="0" mediaItemID="3185" duration="0.20000000000000001">
      <Effects />
      <Transitions />
      <BoundProperties>
        <BoundPropertyInt Name="rotateStepNinety" Value="0" />
      </BoundProperties>
    </ImageClip>
    <ImageClip extentID="3190" gapBefore="0" mediaItemID="3186" duration="0.20000000000000001">
      <Effects />
      <Transitions />
      <BoundProperties>
        <BoundPropertyInt Name="rotateStepNinety" Value="0" />
      </BoundProperties>
    </ImageClip>
    <ImageClip extentID="3191" gapBefore="0" mediaItemID="3187" duration="0.20000000000000001">
      <Effects />
      <Transitions />
      <BoundProperties>
        <BoundPropertyInt Name="rotateStepNinety" Value="0" />
      </BoundProperties>
    </ImageClip>
    <ImageClip extentID="3192" gapBefore="0" mediaItemID="3188" duration="0.20000000000000001">
      <Effects />
      <Transitions />
      <BoundProperties>
        <BoundPropertyInt Name="rotateStepNinety" Value="0" />
      </BoundProperties>
    </ImageClip>
    <ImageClip extentID="3193" gapBefore="0" mediaItemID="3189" duration="0.20000000000000001">
      <Effects />
      <Transitions />
      <BoundProperties>
        <BoundPropertyInt Name="rotateStepNinety" Value="0" />
      </BoundProperties>
    </ImageClip>
    <ImageClip extentID="3194" gapBefore="0" mediaItemID="3190" duration="0.20000000000000001">
      <Effects />
      <Transitions />
      <BoundProperties>
        <BoundPropertyInt Name="rotateStepNinety" Value="0" />
      </BoundProperties>
    </ImageClip>
    <ImageClip extentID="3195" gapBefore="0" mediaItemID="3191" duration="0.20000000000000001">
      <Effects />
      <Transitions />
      <BoundProperties>
        <BoundPropertyInt Name="rotateStepNinety" Value="0" />
      </BoundProperties>
    </ImageClip>
    <ImageClip extentID="3196" gapBefore="0" mediaItemID="3192" duration="0.20000000000000001">
      <Effects />
      <Transitions />
      <BoundProperties>
        <BoundPropertyInt Name="rotateStepNinety" Value="0" />
      </BoundProperties>
    </ImageClip>
    <ImageClip extentID="3197" gapBefore="0" mediaItemID="3193" duration="0.20000000000000001">
      <Effects />
      <Transitions />
      <BoundProperties>
        <BoundPropertyInt Name="rotateStepNinety" Value="0" />
      </BoundProperties>
    </ImageClip>
    <ImageClip extentID="3198" gapBefore="0" mediaItemID="3194" duration="0.20000000000000001">
      <Effects />
      <Transitions />
      <BoundProperties>
        <BoundPropertyInt Name="rotateStepNinety" Value="0" />
      </BoundProperties>
    </ImageClip>
    <ImageClip extentID="3199" gapBefore="0" mediaItemID="3195" duration="0.20000000000000001">
      <Effects />
      <Transitions />
      <BoundProperties>
        <BoundPropertyInt Name="rotateStepNinety" Value="0" />
      </BoundProperties>
    </ImageClip>
    <ImageClip extentID="3200" gapBefore="0" mediaItemID="3196" duration="0.20000000000000001">
      <Effects />
      <Transitions />
      <BoundProperties>
        <BoundPropertyInt Name="rotateStepNinety" Value="0" />
      </BoundProperties>
    </ImageClip>
    <ImageClip extentID="3201" gapBefore="0" mediaItemID="3197" duration="0.20000000000000001">
      <Effects />
      <Transitions />
      <BoundProperties>
        <BoundPropertyInt Name="rotateStepNinety" Value="0" />
      </BoundProperties>
    </ImageClip>
    <ImageClip extentID="3202" gapBefore="0" mediaItemID="3198" duration="0.20000000000000001">
      <Effects />
      <Transitions />
      <BoundProperties>
        <BoundPropertyInt Name="rotateStepNinety" Value="0" />
      </BoundProperties>
    </ImageClip>
    <ImageClip extentID="3203" gapBefore="0" mediaItemID="3199" duration="0.20000000000000001">
      <Effects />
      <Transitions />
      <BoundProperties>
        <BoundPropertyInt Name="rotateStepNinety" Value="0" />
      </BoundProperties>
    </ImageClip>
    <ImageClip extentID="3204" gapBefore="0" mediaItemID="3200" duration="0.20000000000000001">
      <Effects />
      <Transitions />
      <BoundProperties>
        <BoundPropertyInt Name="rotateStepNinety" Value="0" />
      </BoundProperties>
    </ImageClip>
    <ImageClip extentID="3205" gapBefore="0" mediaItemID="3201" duration="0.20000000000000001">
      <Effects />
      <Transitions />
      <BoundProperties>
        <BoundPropertyInt Name="rotateStepNinety" Value="0" />
      </BoundProperties>
    </ImageClip>
    <ImageClip extentID="3206" gapBefore="0" mediaItemID="3202" duration="0.20000000000000001">
      <Effects />
      <Transitions />
      <BoundProperties>
        <BoundPropertyInt Name="rotateStepNinety" Value="0" />
      </BoundProperties>
    </ImageClip>
    <ImageClip extentID="3207" gapBefore="0" mediaItemID="3203" duration="0.20000000000000001">
      <Effects />
      <Transitions />
      <BoundProperties>
        <BoundPropertyInt Name="rotateStepNinety" Value="0" />
      </BoundProperties>
    </ImageClip>
    <ImageClip extentID="3208" gapBefore="0" mediaItemID="3204" duration="0.20000000000000001">
      <Effects />
      <Transitions />
      <BoundProperties>
        <BoundPropertyInt Name="rotateStepNinety" Value="0" />
      </BoundProperties>
    </ImageClip>
    <ImageClip extentID="3209" gapBefore="0" mediaItemID="3205" duration="0.20000000000000001">
      <Effects />
      <Transitions />
      <BoundProperties>
        <BoundPropertyInt Name="rotateStepNinety" Value="0" />
      </BoundProperties>
    </ImageClip>
    <ImageClip extentID="3210" gapBefore="0" mediaItemID="3206" duration="0.20000000000000001">
      <Effects />
      <Transitions />
      <BoundProperties>
        <BoundPropertyInt Name="rotateStepNinety" Value="0" />
      </BoundProperties>
    </ImageClip>
    <ImageClip extentID="3211" gapBefore="0" mediaItemID="3207" duration="0.20000000000000001">
      <Effects />
      <Transitions />
      <BoundProperties>
        <BoundPropertyInt Name="rotateStepNinety" Value="0" />
      </BoundProperties>
    </ImageClip>
    <ImageClip extentID="3212" gapBefore="0" mediaItemID="3208" duration="0.20000000000000001">
      <Effects />
      <Transitions />
      <BoundProperties>
        <BoundPropertyInt Name="rotateStepNinety" Value="0" />
      </BoundProperties>
    </ImageClip>
    <ImageClip extentID="3213" gapBefore="0" mediaItemID="3209" duration="0.20000000000000001">
      <Effects />
      <Transitions />
      <BoundProperties>
        <BoundPropertyInt Name="rotateStepNinety" Value="0" />
      </BoundProperties>
    </ImageClip>
    <ImageClip extentID="3214" gapBefore="0" mediaItemID="3210" duration="0.20000000000000001">
      <Effects />
      <Transitions />
      <BoundProperties>
        <BoundPropertyInt Name="rotateStepNinety" Value="0" />
      </BoundProperties>
    </ImageClip>
    <ImageClip extentID="3215" gapBefore="0" mediaItemID="3211" duration="0.20000000000000001">
      <Effects />
      <Transitions />
      <BoundProperties>
        <BoundPropertyInt Name="rotateStepNinety" Value="0" />
      </BoundProperties>
    </ImageClip>
    <ImageClip extentID="3216" gapBefore="0" mediaItemID="3212" duration="0.20000000000000001">
      <Effects />
      <Transitions />
      <BoundProperties>
        <BoundPropertyInt Name="rotateStepNinety" Value="0" />
      </BoundProperties>
    </ImageClip>
    <ImageClip extentID="3217" gapBefore="0" mediaItemID="3213" duration="0.20000000000000001">
      <Effects />
      <Transitions />
      <BoundProperties>
        <BoundPropertyInt Name="rotateStepNinety" Value="0" />
      </BoundProperties>
    </ImageClip>
    <ImageClip extentID="3218" gapBefore="0" mediaItemID="3214" duration="0.20000000000000001">
      <Effects />
      <Transitions />
      <BoundProperties>
        <BoundPropertyInt Name="rotateStepNinety" Value="0" />
      </BoundProperties>
    </ImageClip>
    <ImageClip extentID="3219" gapBefore="0" mediaItemID="3215" duration="0.20000000000000001">
      <Effects />
      <Transitions />
      <BoundProperties>
        <BoundPropertyInt Name="rotateStepNinety" Value="0" />
      </BoundProperties>
    </ImageClip>
    <ImageClip extentID="3220" gapBefore="0" mediaItemID="3216" duration="0.20000000000000001">
      <Effects />
      <Transitions />
      <BoundProperties>
        <BoundPropertyInt Name="rotateStepNinety" Value="0" />
      </BoundProperties>
    </ImageClip>
    <ImageClip extentID="3221" gapBefore="0" mediaItemID="3217" duration="0.20000000000000001">
      <Effects />
      <Transitions />
      <BoundProperties>
        <BoundPropertyInt Name="rotateStepNinety" Value="0" />
      </BoundProperties>
    </ImageClip>
    <ImageClip extentID="3222" gapBefore="0" mediaItemID="3218" duration="0.20000000000000001">
      <Effects />
      <Transitions />
      <BoundProperties>
        <BoundPropertyInt Name="rotateStepNinety" Value="0" />
      </BoundProperties>
    </ImageClip>
    <ImageClip extentID="3223" gapBefore="0" mediaItemID="3219" duration="0.20000000000000001">
      <Effects />
      <Transitions />
      <BoundProperties>
        <BoundPropertyInt Name="rotateStepNinety" Value="0" />
      </BoundProperties>
    </ImageClip>
    <ImageClip extentID="3224" gapBefore="0" mediaItemID="3220" duration="0.20000000000000001">
      <Effects />
      <Transitions />
      <BoundProperties>
        <BoundPropertyInt Name="rotateStepNinety" Value="0" />
      </BoundProperties>
    </ImageClip>
    <ImageClip extentID="3225" gapBefore="0" mediaItemID="3221" duration="0.20000000000000001">
      <Effects />
      <Transitions />
      <BoundProperties>
        <BoundPropertyInt Name="rotateStepNinety" Value="0" />
      </BoundProperties>
    </ImageClip>
    <ImageClip extentID="3226" gapBefore="0" mediaItemID="3222" duration="0.20000000000000001">
      <Effects />
      <Transitions />
      <BoundProperties>
        <BoundPropertyInt Name="rotateStepNinety" Value="0" />
      </BoundProperties>
    </ImageClip>
    <ImageClip extentID="3227" gapBefore="0" mediaItemID="3223" duration="0.20000000000000001">
      <Effects />
      <Transitions />
      <BoundProperties>
        <BoundPropertyInt Name="rotateStepNinety" Value="0" />
      </BoundProperties>
    </ImageClip>
    <ImageClip extentID="3228" gapBefore="0" mediaItemID="3224" duration="0.20000000000000001">
      <Effects />
      <Transitions />
      <BoundProperties>
        <BoundPropertyInt Name="rotateStepNinety" Value="0" />
      </BoundProperties>
    </ImageClip>
    <ImageClip extentID="3229" gapBefore="0" mediaItemID="3225" duration="0.20000000000000001">
      <Effects />
      <Transitions />
      <BoundProperties>
        <BoundPropertyInt Name="rotateStepNinety" Value="0" />
      </BoundProperties>
    </ImageClip>
    <ImageClip extentID="3230" gapBefore="0" mediaItemID="3226" duration="0.20000000000000001">
      <Effects />
      <Transitions />
      <BoundProperties>
        <BoundPropertyInt Name="rotateStepNinety" Value="0" />
      </BoundProperties>
    </ImageClip>
    <ImageClip extentID="3231" gapBefore="0" mediaItemID="3227" duration="0.20000000000000001">
      <Effects />
      <Transitions />
      <BoundProperties>
        <BoundPropertyInt Name="rotateStepNinety" Value="0" />
      </BoundProperties>
    </ImageClip>
    <ImageClip extentID="3232" gapBefore="0" mediaItemID="3228" duration="0.20000000000000001">
      <Effects />
      <Transitions />
      <BoundProperties>
        <BoundPropertyInt Name="rotateStepNinety" Value="0" />
      </BoundProperties>
    </ImageClip>
    <ImageClip extentID="3233" gapBefore="0" mediaItemID="3229" duration="0.20000000000000001">
      <Effects />
      <Transitions />
      <BoundProperties>
        <BoundPropertyInt Name="rotateStepNinety" Value="0" />
      </BoundProperties>
    </ImageClip>
    <ImageClip extentID="3234" gapBefore="0" mediaItemID="3230" duration="0.20000000000000001">
      <Effects />
      <Transitions />
      <BoundProperties>
        <BoundPropertyInt Name="rotateStepNinety" Value="0" />
      </BoundProperties>
    </ImageClip>
    <ImageClip extentID="3235" gapBefore="0" mediaItemID="3231" duration="0.20000000000000001">
      <Effects />
      <Transitions />
      <BoundProperties>
        <BoundPropertyInt Name="rotateStepNinety" Value="0" />
      </BoundProperties>
    </ImageClip>
    <ImageClip extentID="3236" gapBefore="0" mediaItemID="3232" duration="0.20000000000000001">
      <Effects />
      <Transitions />
      <BoundProperties>
        <BoundPropertyInt Name="rotateStepNinety" Value="0" />
      </BoundProperties>
    </ImageClip>
    <ImageClip extentID="3237" gapBefore="0" mediaItemID="3233" duration="0.20000000000000001">
      <Effects />
      <Transitions />
      <BoundProperties>
        <BoundPropertyInt Name="rotateStepNinety" Value="0" />
      </BoundProperties>
    </ImageClip>
    <ImageClip extentID="3238" gapBefore="0" mediaItemID="3234" duration="0.20000000000000001">
      <Effects />
      <Transitions />
      <BoundProperties>
        <BoundPropertyInt Name="rotateStepNinety" Value="0" />
      </BoundProperties>
    </ImageClip>
    <ImageClip extentID="3239" gapBefore="0" mediaItemID="3235" duration="0.20000000000000001">
      <Effects />
      <Transitions />
      <BoundProperties>
        <BoundPropertyInt Name="rotateStepNinety" Value="0" />
      </BoundProperties>
    </ImageClip>
    <ImageClip extentID="3240" gapBefore="0" mediaItemID="3236" duration="0.20000000000000001">
      <Effects />
      <Transitions />
      <BoundProperties>
        <BoundPropertyInt Name="rotateStepNinety" Value="0" />
      </BoundProperties>
    </ImageClip>
    <ImageClip extentID="3241" gapBefore="0" mediaItemID="3237" duration="0.20000000000000001">
      <Effects />
      <Transitions />
      <BoundProperties>
        <BoundPropertyInt Name="rotateStepNinety" Value="0" />
      </BoundProperties>
    </ImageClip>
    <ImageClip extentID="3242" gapBefore="0" mediaItemID="3238" duration="0.20000000000000001">
      <Effects />
      <Transitions />
      <BoundProperties>
        <BoundPropertyInt Name="rotateStepNinety" Value="0" />
      </BoundProperties>
    </ImageClip>
    <ImageClip extentID="3243" gapBefore="0" mediaItemID="3239" duration="0.20000000000000001">
      <Effects />
      <Transitions />
      <BoundProperties>
        <BoundPropertyInt Name="rotateStepNinety" Value="0" />
      </BoundProperties>
    </ImageClip>
    <ImageClip extentID="3244" gapBefore="0" mediaItemID="3240" duration="0.20000000000000001">
      <Effects />
      <Transitions />
      <BoundProperties>
        <BoundPropertyInt Name="rotateStepNinety" Value="0" />
      </BoundProperties>
    </ImageClip>
    <ImageClip extentID="3245" gapBefore="0" mediaItemID="3241" duration="0.20000000000000001">
      <Effects />
      <Transitions />
      <BoundProperties>
        <BoundPropertyInt Name="rotateStepNinety" Value="0" />
      </BoundProperties>
    </ImageClip>
    <ImageClip extentID="3246" gapBefore="0" mediaItemID="3242" duration="0.20000000000000001">
      <Effects />
      <Transitions />
      <BoundProperties>
        <BoundPropertyInt Name="rotateStepNinety" Value="0" />
      </BoundProperties>
    </ImageClip>
    <ImageClip extentID="3247" gapBefore="0" mediaItemID="3243" duration="0.20000000000000001">
      <Effects />
      <Transitions />
      <BoundProperties>
        <BoundPropertyInt Name="rotateStepNinety" Value="0" />
      </BoundProperties>
    </ImageClip>
    <ImageClip extentID="3248" gapBefore="0" mediaItemID="3244" duration="0.20000000000000001">
      <Effects />
      <Transitions />
      <BoundProperties>
        <BoundPropertyInt Name="rotateStepNinety" Value="0" />
      </BoundProperties>
    </ImageClip>
    <ImageClip extentID="3249" gapBefore="0" mediaItemID="3245" duration="0.20000000000000001">
      <Effects />
      <Transitions />
      <BoundProperties>
        <BoundPropertyInt Name="rotateStepNinety" Value="0" />
      </BoundProperties>
    </ImageClip>
    <ImageClip extentID="3250" gapBefore="0" mediaItemID="3246" duration="0.20000000000000001">
      <Effects />
      <Transitions />
      <BoundProperties>
        <BoundPropertyInt Name="rotateStepNinety" Value="0" />
      </BoundProperties>
    </ImageClip>
    <ImageClip extentID="3251" gapBefore="0" mediaItemID="3247" duration="0.20000000000000001">
      <Effects />
      <Transitions />
      <BoundProperties>
        <BoundPropertyInt Name="rotateStepNinety" Value="0" />
      </BoundProperties>
    </ImageClip>
    <ImageClip extentID="3252" gapBefore="0" mediaItemID="3248" duration="0.20000000000000001">
      <Effects />
      <Transitions />
      <BoundProperties>
        <BoundPropertyInt Name="rotateStepNinety" Value="0" />
      </BoundProperties>
    </ImageClip>
    <ImageClip extentID="3253" gapBefore="0" mediaItemID="3249" duration="0.20000000000000001">
      <Effects />
      <Transitions />
      <BoundProperties>
        <BoundPropertyInt Name="rotateStepNinety" Value="0" />
      </BoundProperties>
    </ImageClip>
    <ImageClip extentID="3254" gapBefore="0" mediaItemID="3250" duration="0.20000000000000001">
      <Effects />
      <Transitions />
      <BoundProperties>
        <BoundPropertyInt Name="rotateStepNinety" Value="0" />
      </BoundProperties>
    </ImageClip>
    <ImageClip extentID="3255" gapBefore="0" mediaItemID="3251" duration="0.20000000000000001">
      <Effects />
      <Transitions />
      <BoundProperties>
        <BoundPropertyInt Name="rotateStepNinety" Value="0" />
      </BoundProperties>
    </ImageClip>
    <ImageClip extentID="3256" gapBefore="0" mediaItemID="3252" duration="0.20000000000000001">
      <Effects />
      <Transitions />
      <BoundProperties>
        <BoundPropertyInt Name="rotateStepNinety" Value="0" />
      </BoundProperties>
    </ImageClip>
    <ImageClip extentID="3257" gapBefore="0" mediaItemID="3253" duration="0.20000000000000001">
      <Effects />
      <Transitions />
      <BoundProperties>
        <BoundPropertyInt Name="rotateStepNinety" Value="0" />
      </BoundProperties>
    </ImageClip>
    <ImageClip extentID="3258" gapBefore="0" mediaItemID="3254" duration="0.20000000000000001">
      <Effects />
      <Transitions />
      <BoundProperties>
        <BoundPropertyInt Name="rotateStepNinety" Value="0" />
      </BoundProperties>
    </ImageClip>
    <ImageClip extentID="3259" gapBefore="0" mediaItemID="3255" duration="0.20000000000000001">
      <Effects />
      <Transitions />
      <BoundProperties>
        <BoundPropertyInt Name="rotateStepNinety" Value="0" />
      </BoundProperties>
    </ImageClip>
    <ImageClip extentID="3260" gapBefore="0" mediaItemID="3256" duration="0.20000000000000001">
      <Effects />
      <Transitions />
      <BoundProperties>
        <BoundPropertyInt Name="rotateStepNinety" Value="0" />
      </BoundProperties>
    </ImageClip>
    <ImageClip extentID="3261" gapBefore="0" mediaItemID="3257" duration="0.20000000000000001">
      <Effects />
      <Transitions />
      <BoundProperties>
        <BoundPropertyInt Name="rotateStepNinety" Value="0" />
      </BoundProperties>
    </ImageClip>
    <ImageClip extentID="3262" gapBefore="0" mediaItemID="3258" duration="0.20000000000000001">
      <Effects />
      <Transitions />
      <BoundProperties>
        <BoundPropertyInt Name="rotateStepNinety" Value="0" />
      </BoundProperties>
    </ImageClip>
    <ImageClip extentID="3263" gapBefore="0" mediaItemID="3259" duration="0.20000000000000001">
      <Effects />
      <Transitions />
      <BoundProperties>
        <BoundPropertyInt Name="rotateStepNinety" Value="0" />
      </BoundProperties>
    </ImageClip>
    <ImageClip extentID="3264" gapBefore="0" mediaItemID="3260" duration="0.20000000000000001">
      <Effects />
      <Transitions />
      <BoundProperties>
        <BoundPropertyInt Name="rotateStepNinety" Value="0" />
      </BoundProperties>
    </ImageClip>
    <ImageClip extentID="3265" gapBefore="0" mediaItemID="3261" duration="0.20000000000000001">
      <Effects />
      <Transitions />
      <BoundProperties>
        <BoundPropertyInt Name="rotateStepNinety" Value="0" />
      </BoundProperties>
    </ImageClip>
    <ImageClip extentID="3266" gapBefore="0" mediaItemID="3262" duration="0.20000000000000001">
      <Effects />
      <Transitions />
      <BoundProperties>
        <BoundPropertyInt Name="rotateStepNinety" Value="0" />
      </BoundProperties>
    </ImageClip>
    <ImageClip extentID="3267" gapBefore="0" mediaItemID="3263" duration="0.20000000000000001">
      <Effects />
      <Transitions />
      <BoundProperties>
        <BoundPropertyInt Name="rotateStepNinety" Value="0" />
      </BoundProperties>
    </ImageClip>
    <ImageClip extentID="3268" gapBefore="0" mediaItemID="3264" duration="0.20000000000000001">
      <Effects />
      <Transitions />
      <BoundProperties>
        <BoundPropertyInt Name="rotateStepNinety" Value="0" />
      </BoundProperties>
    </ImageClip>
    <ImageClip extentID="3269" gapBefore="0" mediaItemID="3265" duration="0.20000000000000001">
      <Effects />
      <Transitions />
      <BoundProperties>
        <BoundPropertyInt Name="rotateStepNinety" Value="0" />
      </BoundProperties>
    </ImageClip>
    <ImageClip extentID="3270" gapBefore="0" mediaItemID="3266" duration="0.20000000000000001">
      <Effects />
      <Transitions />
      <BoundProperties>
        <BoundPropertyInt Name="rotateStepNinety" Value="0" />
      </BoundProperties>
    </ImageClip>
    <ImageClip extentID="3271" gapBefore="0" mediaItemID="3267" duration="0.20000000000000001">
      <Effects />
      <Transitions />
      <BoundProperties>
        <BoundPropertyInt Name="rotateStepNinety" Value="0" />
      </BoundProperties>
    </ImageClip>
    <ImageClip extentID="3272" gapBefore="0" mediaItemID="3268" duration="0.20000000000000001">
      <Effects />
      <Transitions />
      <BoundProperties>
        <BoundPropertyInt Name="rotateStepNinety" Value="0" />
      </BoundProperties>
    </ImageClip>
    <ImageClip extentID="3273" gapBefore="0" mediaItemID="3269" duration="0.20000000000000001">
      <Effects />
      <Transitions />
      <BoundProperties>
        <BoundPropertyInt Name="rotateStepNinety" Value="0" />
      </BoundProperties>
    </ImageClip>
    <ImageClip extentID="3274" gapBefore="0" mediaItemID="3270" duration="0.20000000000000001">
      <Effects />
      <Transitions />
      <BoundProperties>
        <BoundPropertyInt Name="rotateStepNinety" Value="0" />
      </BoundProperties>
    </ImageClip>
    <ImageClip extentID="3275" gapBefore="0" mediaItemID="3271" duration="0.20000000000000001">
      <Effects />
      <Transitions />
      <BoundProperties>
        <BoundPropertyInt Name="rotateStepNinety" Value="0" />
      </BoundProperties>
    </ImageClip>
    <ImageClip extentID="3276" gapBefore="0" mediaItemID="3272" duration="0.20000000000000001">
      <Effects />
      <Transitions />
      <BoundProperties>
        <BoundPropertyInt Name="rotateStepNinety" Value="0" />
      </BoundProperties>
    </ImageClip>
    <ImageClip extentID="3277" gapBefore="0" mediaItemID="3273" duration="0.20000000000000001">
      <Effects />
      <Transitions />
      <BoundProperties>
        <BoundPropertyInt Name="rotateStepNinety" Value="0" />
      </BoundProperties>
    </ImageClip>
    <ImageClip extentID="3278" gapBefore="0" mediaItemID="3274" duration="0.20000000000000001">
      <Effects />
      <Transitions />
      <BoundProperties>
        <BoundPropertyInt Name="rotateStepNinety" Value="0" />
      </BoundProperties>
    </ImageClip>
    <ImageClip extentID="3279" gapBefore="0" mediaItemID="3275" duration="0.20000000000000001">
      <Effects />
      <Transitions />
      <BoundProperties>
        <BoundPropertyInt Name="rotateStepNinety" Value="0" />
      </BoundProperties>
    </ImageClip>
    <ImageClip extentID="3280" gapBefore="0" mediaItemID="3276" duration="0.20000000000000001">
      <Effects />
      <Transitions />
      <BoundProperties>
        <BoundPropertyInt Name="rotateStepNinety" Value="0" />
      </BoundProperties>
    </ImageClip>
    <ImageClip extentID="3281" gapBefore="0" mediaItemID="3277" duration="0.20000000000000001">
      <Effects />
      <Transitions />
      <BoundProperties>
        <BoundPropertyInt Name="rotateStepNinety" Value="0" />
      </BoundProperties>
    </ImageClip>
    <ImageClip extentID="3282" gapBefore="0" mediaItemID="3278" duration="0.20000000000000001">
      <Effects />
      <Transitions />
      <BoundProperties>
        <BoundPropertyInt Name="rotateStepNinety" Value="0" />
      </BoundProperties>
    </ImageClip>
    <ImageClip extentID="3283" gapBefore="0" mediaItemID="3279" duration="0.20000000000000001">
      <Effects />
      <Transitions />
      <BoundProperties>
        <BoundPropertyInt Name="rotateStepNinety" Value="0" />
      </BoundProperties>
    </ImageClip>
    <ImageClip extentID="3284" gapBefore="0" mediaItemID="3280" duration="0.20000000000000001">
      <Effects />
      <Transitions />
      <BoundProperties>
        <BoundPropertyInt Name="rotateStepNinety" Value="0" />
      </BoundProperties>
    </ImageClip>
    <ImageClip extentID="3285" gapBefore="0" mediaItemID="3281" duration="0.20000000000000001">
      <Effects />
      <Transitions />
      <BoundProperties>
        <BoundPropertyInt Name="rotateStepNinety" Value="0" />
      </BoundProperties>
    </ImageClip>
    <ImageClip extentID="3286" gapBefore="0" mediaItemID="3282" duration="0.20000000000000001">
      <Effects />
      <Transitions />
      <BoundProperties>
        <BoundPropertyInt Name="rotateStepNinety" Value="0" />
      </BoundProperties>
    </ImageClip>
    <ImageClip extentID="3287" gapBefore="0" mediaItemID="3283" duration="0.20000000000000001">
      <Effects />
      <Transitions />
      <BoundProperties>
        <BoundPropertyInt Name="rotateStepNinety" Value="0" />
      </BoundProperties>
    </ImageClip>
    <ImageClip extentID="3288" gapBefore="0" mediaItemID="3284" duration="0.20000000000000001">
      <Effects />
      <Transitions />
      <BoundProperties>
        <BoundPropertyInt Name="rotateStepNinety" Value="0" />
      </BoundProperties>
    </ImageClip>
    <ImageClip extentID="3289" gapBefore="0" mediaItemID="3285" duration="0.20000000000000001">
      <Effects />
      <Transitions />
      <BoundProperties>
        <BoundPropertyInt Name="rotateStepNinety" Value="0" />
      </BoundProperties>
    </ImageClip>
    <ImageClip extentID="3290" gapBefore="0" mediaItemID="3286" duration="0.20000000000000001">
      <Effects />
      <Transitions />
      <BoundProperties>
        <BoundPropertyInt Name="rotateStepNinety" Value="0" />
      </BoundProperties>
    </ImageClip>
    <ImageClip extentID="3291" gapBefore="0" mediaItemID="3287" duration="0.20000000000000001">
      <Effects />
      <Transitions />
      <BoundProperties>
        <BoundPropertyInt Name="rotateStepNinety" Value="0" />
      </BoundProperties>
    </ImageClip>
    <ImageClip extentID="3292" gapBefore="0" mediaItemID="3288" duration="0.20000000000000001">
      <Effects />
      <Transitions />
      <BoundProperties>
        <BoundPropertyInt Name="rotateStepNinety" Value="0" />
      </BoundProperties>
    </ImageClip>
    <ImageClip extentID="3293" gapBefore="0" mediaItemID="3289" duration="0.20000000000000001">
      <Effects />
      <Transitions />
      <BoundProperties>
        <BoundPropertyInt Name="rotateStepNinety" Value="0" />
      </BoundProperties>
    </ImageClip>
    <ImageClip extentID="3294" gapBefore="0" mediaItemID="3290" duration="0.20000000000000001">
      <Effects />
      <Transitions />
      <BoundProperties>
        <BoundPropertyInt Name="rotateStepNinety" Value="0" />
      </BoundProperties>
    </ImageClip>
    <ImageClip extentID="3295" gapBefore="0" mediaItemID="3291" duration="0.20000000000000001">
      <Effects />
      <Transitions />
      <BoundProperties>
        <BoundPropertyInt Name="rotateStepNinety" Value="0" />
      </BoundProperties>
    </ImageClip>
    <ImageClip extentID="3296" gapBefore="0" mediaItemID="3292" duration="0.20000000000000001">
      <Effects />
      <Transitions />
      <BoundProperties>
        <BoundPropertyInt Name="rotateStepNinety" Value="0" />
      </BoundProperties>
    </ImageClip>
    <ImageClip extentID="3297" gapBefore="0" mediaItemID="3293" duration="0.20000000000000001">
      <Effects />
      <Transitions />
      <BoundProperties>
        <BoundPropertyInt Name="rotateStepNinety" Value="0" />
      </BoundProperties>
    </ImageClip>
    <ImageClip extentID="3298" gapBefore="0" mediaItemID="3294" duration="0.20000000000000001">
      <Effects />
      <Transitions />
      <BoundProperties>
        <BoundPropertyInt Name="rotateStepNinety" Value="0" />
      </BoundProperties>
    </ImageClip>
    <ImageClip extentID="3299" gapBefore="0" mediaItemID="3295" duration="0.20000000000000001">
      <Effects />
      <Transitions />
      <BoundProperties>
        <BoundPropertyInt Name="rotateStepNinety" Value="0" />
      </BoundProperties>
    </ImageClip>
    <ImageClip extentID="3300" gapBefore="0" mediaItemID="3296" duration="0.20000000000000001">
      <Effects />
      <Transitions />
      <BoundProperties>
        <BoundPropertyInt Name="rotateStepNinety" Value="0" />
      </BoundProperties>
    </ImageClip>
    <ImageClip extentID="3301" gapBefore="0" mediaItemID="3297" duration="0.20000000000000001">
      <Effects />
      <Transitions />
      <BoundProperties>
        <BoundPropertyInt Name="rotateStepNinety" Value="0" />
      </BoundProperties>
    </ImageClip>
    <ImageClip extentID="3302" gapBefore="0" mediaItemID="3298" duration="0.20000000000000001">
      <Effects />
      <Transitions />
      <BoundProperties>
        <BoundPropertyInt Name="rotateStepNinety" Value="0" />
      </BoundProperties>
    </ImageClip>
    <ImageClip extentID="3303" gapBefore="0" mediaItemID="3299" duration="0.20000000000000001">
      <Effects />
      <Transitions />
      <BoundProperties>
        <BoundPropertyInt Name="rotateStepNinety" Value="0" />
      </BoundProperties>
    </ImageClip>
    <ImageClip extentID="3304" gapBefore="0" mediaItemID="3300" duration="0.20000000000000001">
      <Effects />
      <Transitions />
      <BoundProperties>
        <BoundPropertyInt Name="rotateStepNinety" Value="0" />
      </BoundProperties>
    </ImageClip>
    <ImageClip extentID="3305" gapBefore="0" mediaItemID="3301" duration="0.20000000000000001">
      <Effects />
      <Transitions />
      <BoundProperties>
        <BoundPropertyInt Name="rotateStepNinety" Value="0" />
      </BoundProperties>
    </ImageClip>
    <ImageClip extentID="3306" gapBefore="0" mediaItemID="3302" duration="0.20000000000000001">
      <Effects />
      <Transitions />
      <BoundProperties>
        <BoundPropertyInt Name="rotateStepNinety" Value="0" />
      </BoundProperties>
    </ImageClip>
    <ImageClip extentID="3307" gapBefore="0" mediaItemID="3303" duration="0.20000000000000001">
      <Effects />
      <Transitions />
      <BoundProperties>
        <BoundPropertyInt Name="rotateStepNinety" Value="0" />
      </BoundProperties>
    </ImageClip>
    <ImageClip extentID="3308" gapBefore="0" mediaItemID="3304" duration="0.20000000000000001">
      <Effects />
      <Transitions />
      <BoundProperties>
        <BoundPropertyInt Name="rotateStepNinety" Value="0" />
      </BoundProperties>
    </ImageClip>
    <ImageClip extentID="3309" gapBefore="0" mediaItemID="3305" duration="0.20000000000000001">
      <Effects />
      <Transitions />
      <BoundProperties>
        <BoundPropertyInt Name="rotateStepNinety" Value="0" />
      </BoundProperties>
    </ImageClip>
    <ImageClip extentID="3310" gapBefore="0" mediaItemID="3306" duration="0.20000000000000001">
      <Effects />
      <Transitions />
      <BoundProperties>
        <BoundPropertyInt Name="rotateStepNinety" Value="0" />
      </BoundProperties>
    </ImageClip>
    <ImageClip extentID="3311" gapBefore="0" mediaItemID="3307" duration="0.20000000000000001">
      <Effects />
      <Transitions />
      <BoundProperties>
        <BoundPropertyInt Name="rotateStepNinety" Value="0" />
      </BoundProperties>
    </ImageClip>
    <ImageClip extentID="3312" gapBefore="0" mediaItemID="3308" duration="0.20000000000000001">
      <Effects />
      <Transitions />
      <BoundProperties>
        <BoundPropertyInt Name="rotateStepNinety" Value="0" />
      </BoundProperties>
    </ImageClip>
    <ImageClip extentID="3313" gapBefore="0" mediaItemID="3309" duration="0.20000000000000001">
      <Effects />
      <Transitions />
      <BoundProperties>
        <BoundPropertyInt Name="rotateStepNinety" Value="0" />
      </BoundProperties>
    </ImageClip>
    <ImageClip extentID="3314" gapBefore="0" mediaItemID="3310" duration="0.20000000000000001">
      <Effects />
      <Transitions />
      <BoundProperties>
        <BoundPropertyInt Name="rotateStepNinety" Value="0" />
      </BoundProperties>
    </ImageClip>
    <ImageClip extentID="3315" gapBefore="0" mediaItemID="3311" duration="0.20000000000000001">
      <Effects />
      <Transitions />
      <BoundProperties>
        <BoundPropertyInt Name="rotateStepNinety" Value="0" />
      </BoundProperties>
    </ImageClip>
    <ImageClip extentID="3316" gapBefore="0" mediaItemID="3312" duration="0.20000000000000001">
      <Effects />
      <Transitions />
      <BoundProperties>
        <BoundPropertyInt Name="rotateStepNinety" Value="0" />
      </BoundProperties>
    </ImageClip>
    <ImageClip extentID="3317" gapBefore="0" mediaItemID="3313" duration="0.20000000000000001">
      <Effects />
      <Transitions />
      <BoundProperties>
        <BoundPropertyInt Name="rotateStepNinety" Value="0" />
      </BoundProperties>
    </ImageClip>
    <ImageClip extentID="3318" gapBefore="0" mediaItemID="3314" duration="0.20000000000000001">
      <Effects />
      <Transitions />
      <BoundProperties>
        <BoundPropertyInt Name="rotateStepNinety" Value="0" />
      </BoundProperties>
    </ImageClip>
    <ImageClip extentID="3319" gapBefore="0" mediaItemID="3315" duration="0.20000000000000001">
      <Effects />
      <Transitions />
      <BoundProperties>
        <BoundPropertyInt Name="rotateStepNinety" Value="0" />
      </BoundProperties>
    </ImageClip>
    <ImageClip extentID="3320" gapBefore="0" mediaItemID="3316" duration="0.20000000000000001">
      <Effects />
      <Transitions />
      <BoundProperties>
        <BoundPropertyInt Name="rotateStepNinety" Value="0" />
      </BoundProperties>
    </ImageClip>
    <ImageClip extentID="3321" gapBefore="0" mediaItemID="3317" duration="0.20000000000000001">
      <Effects />
      <Transitions />
      <BoundProperties>
        <BoundPropertyInt Name="rotateStepNinety" Value="0" />
      </BoundProperties>
    </ImageClip>
    <ImageClip extentID="3322" gapBefore="0" mediaItemID="3318" duration="0.20000000000000001">
      <Effects />
      <Transitions />
      <BoundProperties>
        <BoundPropertyInt Name="rotateStepNinety" Value="0" />
      </BoundProperties>
    </ImageClip>
    <ImageClip extentID="3323" gapBefore="0" mediaItemID="3319" duration="0.20000000000000001">
      <Effects />
      <Transitions />
      <BoundProperties>
        <BoundPropertyInt Name="rotateStepNinety" Value="0" />
      </BoundProperties>
    </ImageClip>
    <ImageClip extentID="3324" gapBefore="0" mediaItemID="3320" duration="0.20000000000000001">
      <Effects />
      <Transitions />
      <BoundProperties>
        <BoundPropertyInt Name="rotateStepNinety" Value="0" />
      </BoundProperties>
    </ImageClip>
    <ImageClip extentID="3325" gapBefore="0" mediaItemID="3321" duration="0.20000000000000001">
      <Effects />
      <Transitions />
      <BoundProperties>
        <BoundPropertyInt Name="rotateStepNinety" Value="0" />
      </BoundProperties>
    </ImageClip>
    <ImageClip extentID="3326" gapBefore="0" mediaItemID="3322" duration="0.20000000000000001">
      <Effects />
      <Transitions />
      <BoundProperties>
        <BoundPropertyInt Name="rotateStepNinety" Value="0" />
      </BoundProperties>
    </ImageClip>
    <ImageClip extentID="3327" gapBefore="0" mediaItemID="3323" duration="0.20000000000000001">
      <Effects />
      <Transitions />
      <BoundProperties>
        <BoundPropertyInt Name="rotateStepNinety" Value="0" />
      </BoundProperties>
    </ImageClip>
    <ImageClip extentID="3328" gapBefore="0" mediaItemID="3324" duration="0.20000000000000001">
      <Effects />
      <Transitions />
      <BoundProperties>
        <BoundPropertyInt Name="rotateStepNinety" Value="0" />
      </BoundProperties>
    </ImageClip>
    <ImageClip extentID="3329" gapBefore="0" mediaItemID="3325" duration="0.20000000000000001">
      <Effects />
      <Transitions />
      <BoundProperties>
        <BoundPropertyInt Name="rotateStepNinety" Value="0" />
      </BoundProperties>
    </ImageClip>
    <ImageClip extentID="3330" gapBefore="0" mediaItemID="3326" duration="0.20000000000000001">
      <Effects />
      <Transitions />
      <BoundProperties>
        <BoundPropertyInt Name="rotateStepNinety" Value="0" />
      </BoundProperties>
    </ImageClip>
    <ImageClip extentID="3331" gapBefore="0" mediaItemID="3327" duration="0.20000000000000001">
      <Effects />
      <Transitions />
      <BoundProperties>
        <BoundPropertyInt Name="rotateStepNinety" Value="0" />
      </BoundProperties>
    </ImageClip>
    <ImageClip extentID="3332" gapBefore="0" mediaItemID="3328" duration="0.20000000000000001">
      <Effects />
      <Transitions />
      <BoundProperties>
        <BoundPropertyInt Name="rotateStepNinety" Value="0" />
      </BoundProperties>
    </ImageClip>
    <ImageClip extentID="3333" gapBefore="0" mediaItemID="3329" duration="0.20000000000000001">
      <Effects />
      <Transitions />
      <BoundProperties>
        <BoundPropertyInt Name="rotateStepNinety" Value="0" />
      </BoundProperties>
    </ImageClip>
    <ImageClip extentID="3334" gapBefore="0" mediaItemID="3330" duration="0.20000000000000001">
      <Effects />
      <Transitions />
      <BoundProperties>
        <BoundPropertyInt Name="rotateStepNinety" Value="0" />
      </BoundProperties>
    </ImageClip>
    <ImageClip extentID="3335" gapBefore="0" mediaItemID="3331" duration="0.20000000000000001">
      <Effects />
      <Transitions />
      <BoundProperties>
        <BoundPropertyInt Name="rotateStepNinety" Value="0" />
      </BoundProperties>
    </ImageClip>
    <ImageClip extentID="3336" gapBefore="0" mediaItemID="3332" duration="0.20000000000000001">
      <Effects />
      <Transitions />
      <BoundProperties>
        <BoundPropertyInt Name="rotateStepNinety" Value="0" />
      </BoundProperties>
    </ImageClip>
    <ImageClip extentID="3337" gapBefore="0" mediaItemID="3333" duration="0.20000000000000001">
      <Effects />
      <Transitions />
      <BoundProperties>
        <BoundPropertyInt Name="rotateStepNinety" Value="0" />
      </BoundProperties>
    </ImageClip>
    <ImageClip extentID="3338" gapBefore="0" mediaItemID="3334" duration="0.20000000000000001">
      <Effects />
      <Transitions />
      <BoundProperties>
        <BoundPropertyInt Name="rotateStepNinety" Value="0" />
      </BoundProperties>
    </ImageClip>
    <ImageClip extentID="3339" gapBefore="0" mediaItemID="3335" duration="0.20000000000000001">
      <Effects />
      <Transitions />
      <BoundProperties>
        <BoundPropertyInt Name="rotateStepNinety" Value="0" />
      </BoundProperties>
    </ImageClip>
    <ImageClip extentID="3340" gapBefore="0" mediaItemID="3336" duration="0.20000000000000001">
      <Effects />
      <Transitions />
      <BoundProperties>
        <BoundPropertyInt Name="rotateStepNinety" Value="0" />
      </BoundProperties>
    </ImageClip>
    <ImageClip extentID="3341" gapBefore="0" mediaItemID="3337" duration="0.20000000000000001">
      <Effects />
      <Transitions />
      <BoundProperties>
        <BoundPropertyInt Name="rotateStepNinety" Value="0" />
      </BoundProperties>
    </ImageClip>
    <ImageClip extentID="3342" gapBefore="0" mediaItemID="3338" duration="0.20000000000000001">
      <Effects />
      <Transitions />
      <BoundProperties>
        <BoundPropertyInt Name="rotateStepNinety" Value="0" />
      </BoundProperties>
    </ImageClip>
    <ImageClip extentID="3343" gapBefore="0" mediaItemID="3339" duration="0.20000000000000001">
      <Effects />
      <Transitions />
      <BoundProperties>
        <BoundPropertyInt Name="rotateStepNinety" Value="0" />
      </BoundProperties>
    </ImageClip>
    <ImageClip extentID="3344" gapBefore="0" mediaItemID="3340" duration="0.20000000000000001">
      <Effects />
      <Transitions />
      <BoundProperties>
        <BoundPropertyInt Name="rotateStepNinety" Value="0" />
      </BoundProperties>
    </ImageClip>
    <ImageClip extentID="3345" gapBefore="0" mediaItemID="3341" duration="0.20000000000000001">
      <Effects />
      <Transitions />
      <BoundProperties>
        <BoundPropertyInt Name="rotateStepNinety" Value="0" />
      </BoundProperties>
    </ImageClip>
    <ImageClip extentID="3346" gapBefore="0" mediaItemID="3342" duration="0.20000000000000001">
      <Effects />
      <Transitions />
      <BoundProperties>
        <BoundPropertyInt Name="rotateStepNinety" Value="0" />
      </BoundProperties>
    </ImageClip>
    <ImageClip extentID="3347" gapBefore="0" mediaItemID="3343" duration="0.20000000000000001">
      <Effects />
      <Transitions />
      <BoundProperties>
        <BoundPropertyInt Name="rotateStepNinety" Value="0" />
      </BoundProperties>
    </ImageClip>
    <ImageClip extentID="3348" gapBefore="0" mediaItemID="3344" duration="0.20000000000000001">
      <Effects />
      <Transitions />
      <BoundProperties>
        <BoundPropertyInt Name="rotateStepNinety" Value="0" />
      </BoundProperties>
    </ImageClip>
    <ImageClip extentID="3349" gapBefore="0" mediaItemID="3345" duration="0.20000000000000001">
      <Effects />
      <Transitions />
      <BoundProperties>
        <BoundPropertyInt Name="rotateStepNinety" Value="0" />
      </BoundProperties>
    </ImageClip>
    <ImageClip extentID="3350" gapBefore="0" mediaItemID="3346" duration="0.20000000000000001">
      <Effects />
      <Transitions />
      <BoundProperties>
        <BoundPropertyInt Name="rotateStepNinety" Value="0" />
      </BoundProperties>
    </ImageClip>
    <ImageClip extentID="3351" gapBefore="0" mediaItemID="3347" duration="0.20000000000000001">
      <Effects />
      <Transitions />
      <BoundProperties>
        <BoundPropertyInt Name="rotateStepNinety" Value="0" />
      </BoundProperties>
    </ImageClip>
    <ImageClip extentID="3352" gapBefore="0" mediaItemID="3348" duration="0.20000000000000001">
      <Effects />
      <Transitions />
      <BoundProperties>
        <BoundPropertyInt Name="rotateStepNinety" Value="0" />
      </BoundProperties>
    </ImageClip>
    <ImageClip extentID="3353" gapBefore="0" mediaItemID="3349" duration="0.20000000000000001">
      <Effects />
      <Transitions />
      <BoundProperties>
        <BoundPropertyInt Name="rotateStepNinety" Value="0" />
      </BoundProperties>
    </ImageClip>
    <ImageClip extentID="3354" gapBefore="0" mediaItemID="3350" duration="0.20000000000000001">
      <Effects />
      <Transitions />
      <BoundProperties>
        <BoundPropertyInt Name="rotateStepNinety" Value="0" />
      </BoundProperties>
    </ImageClip>
    <ImageClip extentID="3355" gapBefore="0" mediaItemID="3351" duration="0.20000000000000001">
      <Effects />
      <Transitions />
      <BoundProperties>
        <BoundPropertyInt Name="rotateStepNinety" Value="0" />
      </BoundProperties>
    </ImageClip>
    <ImageClip extentID="3356" gapBefore="0" mediaItemID="3352" duration="0.20000000000000001">
      <Effects />
      <Transitions />
      <BoundProperties>
        <BoundPropertyInt Name="rotateStepNinety" Value="0" />
      </BoundProperties>
    </ImageClip>
    <ImageClip extentID="3357" gapBefore="0" mediaItemID="3353" duration="0.20000000000000001">
      <Effects />
      <Transitions />
      <BoundProperties>
        <BoundPropertyInt Name="rotateStepNinety" Value="0" />
      </BoundProperties>
    </ImageClip>
    <ImageClip extentID="3358" gapBefore="0" mediaItemID="3354" duration="0.20000000000000001">
      <Effects />
      <Transitions />
      <BoundProperties>
        <BoundPropertyInt Name="rotateStepNinety" Value="0" />
      </BoundProperties>
    </ImageClip>
    <ImageClip extentID="3359" gapBefore="0" mediaItemID="3355" duration="0.20000000000000001">
      <Effects />
      <Transitions />
      <BoundProperties>
        <BoundPropertyInt Name="rotateStepNinety" Value="0" />
      </BoundProperties>
    </ImageClip>
    <ImageClip extentID="3360" gapBefore="0" mediaItemID="3356" duration="0.20000000000000001">
      <Effects />
      <Transitions />
      <BoundProperties>
        <BoundPropertyInt Name="rotateStepNinety" Value="0" />
      </BoundProperties>
    </ImageClip>
    <ImageClip extentID="3361" gapBefore="0" mediaItemID="3357" duration="0.20000000000000001">
      <Effects />
      <Transitions />
      <BoundProperties>
        <BoundPropertyInt Name="rotateStepNinety" Value="0" />
      </BoundProperties>
    </ImageClip>
    <ImageClip extentID="3362" gapBefore="0" mediaItemID="3358" duration="0.20000000000000001">
      <Effects />
      <Transitions />
      <BoundProperties>
        <BoundPropertyInt Name="rotateStepNinety" Value="0" />
      </BoundProperties>
    </ImageClip>
    <ImageClip extentID="3363" gapBefore="0" mediaItemID="3359" duration="0.20000000000000001">
      <Effects />
      <Transitions />
      <BoundProperties>
        <BoundPropertyInt Name="rotateStepNinety" Value="0" />
      </BoundProperties>
    </ImageClip>
    <ImageClip extentID="3364" gapBefore="0" mediaItemID="3360" duration="0.20000000000000001">
      <Effects />
      <Transitions />
      <BoundProperties>
        <BoundPropertyInt Name="rotateStepNinety" Value="0" />
      </BoundProperties>
    </ImageClip>
    <ImageClip extentID="3365" gapBefore="0" mediaItemID="3361" duration="0.20000000000000001">
      <Effects />
      <Transitions />
      <BoundProperties>
        <BoundPropertyInt Name="rotateStepNinety" Value="0" />
      </BoundProperties>
    </ImageClip>
    <ImageClip extentID="3366" gapBefore="0" mediaItemID="3362" duration="0.20000000000000001">
      <Effects />
      <Transitions />
      <BoundProperties>
        <BoundPropertyInt Name="rotateStepNinety" Value="0" />
      </BoundProperties>
    </ImageClip>
    <ImageClip extentID="3367" gapBefore="0" mediaItemID="3363" duration="0.20000000000000001">
      <Effects />
      <Transitions />
      <BoundProperties>
        <BoundPropertyInt Name="rotateStepNinety" Value="0" />
      </BoundProperties>
    </ImageClip>
    <ImageClip extentID="3368" gapBefore="0" mediaItemID="3364" duration="0.20000000000000001">
      <Effects />
      <Transitions />
      <BoundProperties>
        <BoundPropertyInt Name="rotateStepNinety" Value="0" />
      </BoundProperties>
    </ImageClip>
    <ImageClip extentID="3369" gapBefore="0" mediaItemID="3365" duration="0.20000000000000001">
      <Effects />
      <Transitions />
      <BoundProperties>
        <BoundPropertyInt Name="rotateStepNinety" Value="0" />
      </BoundProperties>
    </ImageClip>
    <ImageClip extentID="3370" gapBefore="0" mediaItemID="3366" duration="0.20000000000000001">
      <Effects />
      <Transitions />
      <BoundProperties>
        <BoundPropertyInt Name="rotateStepNinety" Value="0" />
      </BoundProperties>
    </ImageClip>
    <ImageClip extentID="3371" gapBefore="0" mediaItemID="3367" duration="0.20000000000000001">
      <Effects />
      <Transitions />
      <BoundProperties>
        <BoundPropertyInt Name="rotateStepNinety" Value="0" />
      </BoundProperties>
    </ImageClip>
    <ImageClip extentID="3372" gapBefore="0" mediaItemID="3368" duration="0.20000000000000001">
      <Effects />
      <Transitions />
      <BoundProperties>
        <BoundPropertyInt Name="rotateStepNinety" Value="0" />
      </BoundProperties>
    </ImageClip>
    <ImageClip extentID="3373" gapBefore="0" mediaItemID="3369" duration="0.20000000000000001">
      <Effects />
      <Transitions />
      <BoundProperties>
        <BoundPropertyInt Name="rotateStepNinety" Value="0" />
      </BoundProperties>
    </ImageClip>
    <ImageClip extentID="3374" gapBefore="0" mediaItemID="3370" duration="0.20000000000000001">
      <Effects />
      <Transitions />
      <BoundProperties>
        <BoundPropertyInt Name="rotateStepNinety" Value="0" />
      </BoundProperties>
    </ImageClip>
    <ImageClip extentID="3375" gapBefore="0" mediaItemID="3371" duration="0.20000000000000001">
      <Effects />
      <Transitions />
      <BoundProperties>
        <BoundPropertyInt Name="rotateStepNinety" Value="0" />
      </BoundProperties>
    </ImageClip>
    <ImageClip extentID="3376" gapBefore="0" mediaItemID="3372" duration="0.20000000000000001">
      <Effects />
      <Transitions />
      <BoundProperties>
        <BoundPropertyInt Name="rotateStepNinety" Value="0" />
      </BoundProperties>
    </ImageClip>
    <ImageClip extentID="3377" gapBefore="0" mediaItemID="3373" duration="0.20000000000000001">
      <Effects />
      <Transitions />
      <BoundProperties>
        <BoundPropertyInt Name="rotateStepNinety" Value="0" />
      </BoundProperties>
    </ImageClip>
    <ImageClip extentID="3378" gapBefore="0" mediaItemID="3374" duration="0.20000000000000001">
      <Effects />
      <Transitions />
      <BoundProperties>
        <BoundPropertyInt Name="rotateStepNinety" Value="0" />
      </BoundProperties>
    </ImageClip>
    <ImageClip extentID="3379" gapBefore="0" mediaItemID="3375" duration="0.20000000000000001">
      <Effects />
      <Transitions />
      <BoundProperties>
        <BoundPropertyInt Name="rotateStepNinety" Value="0" />
      </BoundProperties>
    </ImageClip>
    <ImageClip extentID="3380" gapBefore="0" mediaItemID="3376" duration="0.20000000000000001">
      <Effects />
      <Transitions />
      <BoundProperties>
        <BoundPropertyInt Name="rotateStepNinety" Value="0" />
      </BoundProperties>
    </ImageClip>
    <ImageClip extentID="3381" gapBefore="0" mediaItemID="3377" duration="0.20000000000000001">
      <Effects />
      <Transitions />
      <BoundProperties>
        <BoundPropertyInt Name="rotateStepNinety" Value="0" />
      </BoundProperties>
    </ImageClip>
    <ImageClip extentID="3382" gapBefore="0" mediaItemID="3378" duration="0.20000000000000001">
      <Effects />
      <Transitions />
      <BoundProperties>
        <BoundPropertyInt Name="rotateStepNinety" Value="0" />
      </BoundProperties>
    </ImageClip>
    <ImageClip extentID="3383" gapBefore="0" mediaItemID="3379" duration="0.20000000000000001">
      <Effects />
      <Transitions />
      <BoundProperties>
        <BoundPropertyInt Name="rotateStepNinety" Value="0" />
      </BoundProperties>
    </ImageClip>
    <ImageClip extentID="3384" gapBefore="0" mediaItemID="3380" duration="0.20000000000000001">
      <Effects />
      <Transitions />
      <BoundProperties>
        <BoundPropertyInt Name="rotateStepNinety" Value="0" />
      </BoundProperties>
    </ImageClip>
    <ImageClip extentID="3385" gapBefore="0" mediaItemID="3381" duration="0.20000000000000001">
      <Effects />
      <Transitions />
      <BoundProperties>
        <BoundPropertyInt Name="rotateStepNinety" Value="0" />
      </BoundProperties>
    </ImageClip>
    <ImageClip extentID="3386" gapBefore="0" mediaItemID="3382" duration="0.20000000000000001">
      <Effects />
      <Transitions />
      <BoundProperties>
        <BoundPropertyInt Name="rotateStepNinety" Value="0" />
      </BoundProperties>
    </ImageClip>
    <ImageClip extentID="3387" gapBefore="0" mediaItemID="3383" duration="0.20000000000000001">
      <Effects />
      <Transitions />
      <BoundProperties>
        <BoundPropertyInt Name="rotateStepNinety" Value="0" />
      </BoundProperties>
    </ImageClip>
    <ImageClip extentID="3388" gapBefore="0" mediaItemID="3384" duration="0.20000000000000001">
      <Effects />
      <Transitions />
      <BoundProperties>
        <BoundPropertyInt Name="rotateStepNinety" Value="0" />
      </BoundProperties>
    </ImageClip>
    <ImageClip extentID="3389" gapBefore="0" mediaItemID="3385" duration="0.20000000000000001">
      <Effects />
      <Transitions />
      <BoundProperties>
        <BoundPropertyInt Name="rotateStepNinety" Value="0" />
      </BoundProperties>
    </ImageClip>
    <ImageClip extentID="3390" gapBefore="0" mediaItemID="3386" duration="0.20000000000000001">
      <Effects />
      <Transitions />
      <BoundProperties>
        <BoundPropertyInt Name="rotateStepNinety" Value="0" />
      </BoundProperties>
    </ImageClip>
    <ImageClip extentID="3391" gapBefore="0" mediaItemID="3387" duration="0.20000000000000001">
      <Effects />
      <Transitions />
      <BoundProperties>
        <BoundPropertyInt Name="rotateStepNinety" Value="0" />
      </BoundProperties>
    </ImageClip>
    <ImageClip extentID="3392" gapBefore="0" mediaItemID="3388" duration="0.20000000000000001">
      <Effects />
      <Transitions />
      <BoundProperties>
        <BoundPropertyInt Name="rotateStepNinety" Value="0" />
      </BoundProperties>
    </ImageClip>
    <ImageClip extentID="3393" gapBefore="0" mediaItemID="3389" duration="0.20000000000000001">
      <Effects />
      <Transitions />
      <BoundProperties>
        <BoundPropertyInt Name="rotateStepNinety" Value="0" />
      </BoundProperties>
    </ImageClip>
    <ImageClip extentID="3394" gapBefore="0" mediaItemID="3390" duration="0.20000000000000001">
      <Effects />
      <Transitions />
      <BoundProperties>
        <BoundPropertyInt Name="rotateStepNinety" Value="0" />
      </BoundProperties>
    </ImageClip>
    <ImageClip extentID="3395" gapBefore="0" mediaItemID="3391" duration="0.20000000000000001">
      <Effects />
      <Transitions />
      <BoundProperties>
        <BoundPropertyInt Name="rotateStepNinety" Value="0" />
      </BoundProperties>
    </ImageClip>
    <ImageClip extentID="3396" gapBefore="0" mediaItemID="3392" duration="0.20000000000000001">
      <Effects />
      <Transitions />
      <BoundProperties>
        <BoundPropertyInt Name="rotateStepNinety" Value="0" />
      </BoundProperties>
    </ImageClip>
    <ImageClip extentID="3397" gapBefore="0" mediaItemID="3393" duration="0.20000000000000001">
      <Effects />
      <Transitions />
      <BoundProperties>
        <BoundPropertyInt Name="rotateStepNinety" Value="0" />
      </BoundProperties>
    </ImageClip>
    <ImageClip extentID="3398" gapBefore="0" mediaItemID="3394" duration="0.20000000000000001">
      <Effects />
      <Transitions />
      <BoundProperties>
        <BoundPropertyInt Name="rotateStepNinety" Value="0" />
      </BoundProperties>
    </ImageClip>
    <ImageClip extentID="3399" gapBefore="0" mediaItemID="3395" duration="0.20000000000000001">
      <Effects />
      <Transitions />
      <BoundProperties>
        <BoundPropertyInt Name="rotateStepNinety" Value="0" />
      </BoundProperties>
    </ImageClip>
    <ImageClip extentID="3400" gapBefore="0" mediaItemID="3396" duration="0.20000000000000001">
      <Effects />
      <Transitions />
      <BoundProperties>
        <BoundPropertyInt Name="rotateStepNinety" Value="0" />
      </BoundProperties>
    </ImageClip>
    <ImageClip extentID="3401" gapBefore="0" mediaItemID="3397" duration="0.20000000000000001">
      <Effects />
      <Transitions />
      <BoundProperties>
        <BoundPropertyInt Name="rotateStepNinety" Value="0" />
      </BoundProperties>
    </ImageClip>
    <ImageClip extentID="3402" gapBefore="0" mediaItemID="3398" duration="0.20000000000000001">
      <Effects />
      <Transitions />
      <BoundProperties>
        <BoundPropertyInt Name="rotateStepNinety" Value="0" />
      </BoundProperties>
    </ImageClip>
    <ImageClip extentID="3403" gapBefore="0" mediaItemID="3399" duration="0.20000000000000001">
      <Effects />
      <Transitions />
      <BoundProperties>
        <BoundPropertyInt Name="rotateStepNinety" Value="0" />
      </BoundProperties>
    </ImageClip>
    <ImageClip extentID="3404" gapBefore="0" mediaItemID="3400" duration="0.20000000000000001">
      <Effects />
      <Transitions />
      <BoundProperties>
        <BoundPropertyInt Name="rotateStepNinety" Value="0" />
      </BoundProperties>
    </ImageClip>
    <ImageClip extentID="3405" gapBefore="0" mediaItemID="3401" duration="0.20000000000000001">
      <Effects />
      <Transitions />
      <BoundProperties>
        <BoundPropertyInt Name="rotateStepNinety" Value="0" />
      </BoundProperties>
    </ImageClip>
    <ImageClip extentID="3406" gapBefore="0" mediaItemID="3402" duration="0.20000000000000001">
      <Effects />
      <Transitions />
      <BoundProperties>
        <BoundPropertyInt Name="rotateStepNinety" Value="0" />
      </BoundProperties>
    </ImageClip>
    <ImageClip extentID="3407" gapBefore="0" mediaItemID="3403" duration="0.20000000000000001">
      <Effects />
      <Transitions />
      <BoundProperties>
        <BoundPropertyInt Name="rotateStepNinety" Value="0" />
      </BoundProperties>
    </ImageClip>
    <ImageClip extentID="3408" gapBefore="0" mediaItemID="3404" duration="0.20000000000000001">
      <Effects />
      <Transitions />
      <BoundProperties>
        <BoundPropertyInt Name="rotateStepNinety" Value="0" />
      </BoundProperties>
    </ImageClip>
    <ImageClip extentID="3409" gapBefore="0" mediaItemID="3405" duration="0.20000000000000001">
      <Effects />
      <Transitions />
      <BoundProperties>
        <BoundPropertyInt Name="rotateStepNinety" Value="0" />
      </BoundProperties>
    </ImageClip>
    <ImageClip extentID="3410" gapBefore="0" mediaItemID="3406" duration="0.20000000000000001">
      <Effects />
      <Transitions />
      <BoundProperties>
        <BoundPropertyInt Name="rotateStepNinety" Value="0" />
      </BoundProperties>
    </ImageClip>
    <ImageClip extentID="3411" gapBefore="0" mediaItemID="3407" duration="0.20000000000000001">
      <Effects />
      <Transitions />
      <BoundProperties>
        <BoundPropertyInt Name="rotateStepNinety" Value="0" />
      </BoundProperties>
    </ImageClip>
    <ImageClip extentID="3412" gapBefore="0" mediaItemID="3408" duration="0.20000000000000001">
      <Effects />
      <Transitions />
      <BoundProperties>
        <BoundPropertyInt Name="rotateStepNinety" Value="0" />
      </BoundProperties>
    </ImageClip>
    <ImageClip extentID="3413" gapBefore="0" mediaItemID="3409" duration="0.20000000000000001">
      <Effects />
      <Transitions />
      <BoundProperties>
        <BoundPropertyInt Name="rotateStepNinety" Value="0" />
      </BoundProperties>
    </ImageClip>
    <ImageClip extentID="3414" gapBefore="0" mediaItemID="3410" duration="0.20000000000000001">
      <Effects />
      <Transitions />
      <BoundProperties>
        <BoundPropertyInt Name="rotateStepNinety" Value="0" />
      </BoundProperties>
    </ImageClip>
    <ImageClip extentID="3415" gapBefore="0" mediaItemID="3411" duration="0.20000000000000001">
      <Effects />
      <Transitions />
      <BoundProperties>
        <BoundPropertyInt Name="rotateStepNinety" Value="0" />
      </BoundProperties>
    </ImageClip>
    <ImageClip extentID="3416" gapBefore="0" mediaItemID="3412" duration="0.20000000000000001">
      <Effects />
      <Transitions />
      <BoundProperties>
        <BoundPropertyInt Name="rotateStepNinety" Value="0" />
      </BoundProperties>
    </ImageClip>
    <ImageClip extentID="3417" gapBefore="0" mediaItemID="3413" duration="0.20000000000000001">
      <Effects />
      <Transitions />
      <BoundProperties>
        <BoundPropertyInt Name="rotateStepNinety" Value="0" />
      </BoundProperties>
    </ImageClip>
    <ImageClip extentID="3418" gapBefore="0" mediaItemID="3414" duration="0.20000000000000001">
      <Effects />
      <Transitions />
      <BoundProperties>
        <BoundPropertyInt Name="rotateStepNinety" Value="0" />
      </BoundProperties>
    </ImageClip>
    <ImageClip extentID="3419" gapBefore="0" mediaItemID="3415" duration="0.20000000000000001">
      <Effects />
      <Transitions />
      <BoundProperties>
        <BoundPropertyInt Name="rotateStepNinety" Value="0" />
      </BoundProperties>
    </ImageClip>
    <ImageClip extentID="3420" gapBefore="0" mediaItemID="3416" duration="0.20000000000000001">
      <Effects />
      <Transitions />
      <BoundProperties>
        <BoundPropertyInt Name="rotateStepNinety" Value="0" />
      </BoundProperties>
    </ImageClip>
    <ImageClip extentID="3421" gapBefore="0" mediaItemID="3417" duration="0.20000000000000001">
      <Effects />
      <Transitions />
      <BoundProperties>
        <BoundPropertyInt Name="rotateStepNinety" Value="0" />
      </BoundProperties>
    </ImageClip>
    <ImageClip extentID="3422" gapBefore="0" mediaItemID="3418" duration="0.20000000000000001">
      <Effects />
      <Transitions />
      <BoundProperties>
        <BoundPropertyInt Name="rotateStepNinety" Value="0" />
      </BoundProperties>
    </ImageClip>
    <ImageClip extentID="3423" gapBefore="0" mediaItemID="3419" duration="0.20000000000000001">
      <Effects />
      <Transitions />
      <BoundProperties>
        <BoundPropertyInt Name="rotateStepNinety" Value="0" />
      </BoundProperties>
    </ImageClip>
    <ImageClip extentID="3424" gapBefore="0" mediaItemID="3420" duration="0.20000000000000001">
      <Effects />
      <Transitions />
      <BoundProperties>
        <BoundPropertyInt Name="rotateStepNinety" Value="0" />
      </BoundProperties>
    </ImageClip>
    <ImageClip extentID="3425" gapBefore="0" mediaItemID="3421" duration="0.20000000000000001">
      <Effects />
      <Transitions />
      <BoundProperties>
        <BoundPropertyInt Name="rotateStepNinety" Value="0" />
      </BoundProperties>
    </ImageClip>
    <ImageClip extentID="3426" gapBefore="0" mediaItemID="3422" duration="0.20000000000000001">
      <Effects />
      <Transitions />
      <BoundProperties>
        <BoundPropertyInt Name="rotateStepNinety" Value="0" />
      </BoundProperties>
    </ImageClip>
    <ImageClip extentID="3427" gapBefore="0" mediaItemID="3423" duration="0.20000000000000001">
      <Effects />
      <Transitions />
      <BoundProperties>
        <BoundPropertyInt Name="rotateStepNinety" Value="0" />
      </BoundProperties>
    </ImageClip>
    <ImageClip extentID="3428" gapBefore="0" mediaItemID="3424" duration="0.20000000000000001">
      <Effects />
      <Transitions />
      <BoundProperties>
        <BoundPropertyInt Name="rotateStepNinety" Value="0" />
      </BoundProperties>
    </ImageClip>
    <ImageClip extentID="3429" gapBefore="0" mediaItemID="3425" duration="0.20000000000000001">
      <Effects />
      <Transitions />
      <BoundProperties>
        <BoundPropertyInt Name="rotateStepNinety" Value="0" />
      </BoundProperties>
    </ImageClip>
    <ImageClip extentID="3430" gapBefore="0" mediaItemID="3426" duration="0.20000000000000001">
      <Effects />
      <Transitions />
      <BoundProperties>
        <BoundPropertyInt Name="rotateStepNinety" Value="0" />
      </BoundProperties>
    </ImageClip>
    <ImageClip extentID="3431" gapBefore="0" mediaItemID="3427" duration="0.20000000000000001">
      <Effects />
      <Transitions />
      <BoundProperties>
        <BoundPropertyInt Name="rotateStepNinety" Value="0" />
      </BoundProperties>
    </ImageClip>
    <ImageClip extentID="3432" gapBefore="0" mediaItemID="3428" duration="0.20000000000000001">
      <Effects />
      <Transitions />
      <BoundProperties>
        <BoundPropertyInt Name="rotateStepNinety" Value="0" />
      </BoundProperties>
    </ImageClip>
    <ImageClip extentID="3433" gapBefore="0" mediaItemID="3429" duration="0.20000000000000001">
      <Effects />
      <Transitions />
      <BoundProperties>
        <BoundPropertyInt Name="rotateStepNinety" Value="0" />
      </BoundProperties>
    </ImageClip>
    <ImageClip extentID="3434" gapBefore="0" mediaItemID="3430" duration="0.20000000000000001">
      <Effects />
      <Transitions />
      <BoundProperties>
        <BoundPropertyInt Name="rotateStepNinety" Value="0" />
      </BoundProperties>
    </ImageClip>
    <ImageClip extentID="3435" gapBefore="0" mediaItemID="3431" duration="0.20000000000000001">
      <Effects />
      <Transitions />
      <BoundProperties>
        <BoundPropertyInt Name="rotateStepNinety" Value="0" />
      </BoundProperties>
    </ImageClip>
    <ImageClip extentID="3436" gapBefore="0" mediaItemID="3432" duration="0.20000000000000001">
      <Effects />
      <Transitions />
      <BoundProperties>
        <BoundPropertyInt Name="rotateStepNinety" Value="0" />
      </BoundProperties>
    </ImageClip>
    <ImageClip extentID="3437" gapBefore="0" mediaItemID="3433" duration="0.20000000000000001">
      <Effects />
      <Transitions />
      <BoundProperties>
        <BoundPropertyInt Name="rotateStepNinety" Value="0" />
      </BoundProperties>
    </ImageClip>
    <ImageClip extentID="3438" gapBefore="0" mediaItemID="3434" duration="0.20000000000000001">
      <Effects />
      <Transitions />
      <BoundProperties>
        <BoundPropertyInt Name="rotateStepNinety" Value="0" />
      </BoundProperties>
    </ImageClip>
    <ImageClip extentID="3439" gapBefore="0" mediaItemID="3435" duration="0.20000000000000001">
      <Effects />
      <Transitions />
      <BoundProperties>
        <BoundPropertyInt Name="rotateStepNinety" Value="0" />
      </BoundProperties>
    </ImageClip>
    <ImageClip extentID="3440" gapBefore="0" mediaItemID="3436" duration="0.20000000000000001">
      <Effects />
      <Transitions />
      <BoundProperties>
        <BoundPropertyInt Name="rotateStepNinety" Value="0" />
      </BoundProperties>
    </ImageClip>
    <ImageClip extentID="3441" gapBefore="0" mediaItemID="3437" duration="0.20000000000000001">
      <Effects />
      <Transitions />
      <BoundProperties>
        <BoundPropertyInt Name="rotateStepNinety" Value="0" />
      </BoundProperties>
    </ImageClip>
    <ImageClip extentID="3442" gapBefore="0" mediaItemID="3438" duration="0.20000000000000001">
      <Effects />
      <Transitions />
      <BoundProperties>
        <BoundPropertyInt Name="rotateStepNinety" Value="0" />
      </BoundProperties>
    </ImageClip>
    <ImageClip extentID="3443" gapBefore="0" mediaItemID="3439" duration="0.20000000000000001">
      <Effects />
      <Transitions />
      <BoundProperties>
        <BoundPropertyInt Name="rotateStepNinety" Value="0" />
      </BoundProperties>
    </ImageClip>
    <ImageClip extentID="3444" gapBefore="0" mediaItemID="3440" duration="0.20000000000000001">
      <Effects />
      <Transitions />
      <BoundProperties>
        <BoundPropertyInt Name="rotateStepNinety" Value="0" />
      </BoundProperties>
    </ImageClip>
    <ImageClip extentID="3445" gapBefore="0" mediaItemID="3441" duration="0.20000000000000001">
      <Effects />
      <Transitions />
      <BoundProperties>
        <BoundPropertyInt Name="rotateStepNinety" Value="0" />
      </BoundProperties>
    </ImageClip>
    <ImageClip extentID="3446" gapBefore="0" mediaItemID="3442" duration="0.20000000000000001">
      <Effects />
      <Transitions />
      <BoundProperties>
        <BoundPropertyInt Name="rotateStepNinety" Value="0" />
      </BoundProperties>
    </ImageClip>
    <ImageClip extentID="3447" gapBefore="0" mediaItemID="3443" duration="0.20000000000000001">
      <Effects />
      <Transitions />
      <BoundProperties>
        <BoundPropertyInt Name="rotateStepNinety" Value="0" />
      </BoundProperties>
    </ImageClip>
    <ImageClip extentID="3448" gapBefore="0" mediaItemID="3444" duration="0.20000000000000001">
      <Effects />
      <Transitions />
      <BoundProperties>
        <BoundPropertyInt Name="rotateStepNinety" Value="0" />
      </BoundProperties>
    </ImageClip>
    <ImageClip extentID="3449" gapBefore="0" mediaItemID="3445" duration="0.20000000000000001">
      <Effects />
      <Transitions />
      <BoundProperties>
        <BoundPropertyInt Name="rotateStepNinety" Value="0" />
      </BoundProperties>
    </ImageClip>
    <ImageClip extentID="3450" gapBefore="0" mediaItemID="3446" duration="0.20000000000000001">
      <Effects />
      <Transitions />
      <BoundProperties>
        <BoundPropertyInt Name="rotateStepNinety" Value="0" />
      </BoundProperties>
    </ImageClip>
    <ImageClip extentID="3451" gapBefore="0" mediaItemID="3447" duration="0.20000000000000001">
      <Effects />
      <Transitions />
      <BoundProperties>
        <BoundPropertyInt Name="rotateStepNinety" Value="0" />
      </BoundProperties>
    </ImageClip>
    <ImageClip extentID="3452" gapBefore="0" mediaItemID="3448" duration="0.20000000000000001">
      <Effects />
      <Transitions />
      <BoundProperties>
        <BoundPropertyInt Name="rotateStepNinety" Value="0" />
      </BoundProperties>
    </ImageClip>
    <ImageClip extentID="3453" gapBefore="0" mediaItemID="3449" duration="0.20000000000000001">
      <Effects />
      <Transitions />
      <BoundProperties>
        <BoundPropertyInt Name="rotateStepNinety" Value="0" />
      </BoundProperties>
    </ImageClip>
    <ImageClip extentID="3454" gapBefore="0" mediaItemID="3450" duration="0.20000000000000001">
      <Effects />
      <Transitions />
      <BoundProperties>
        <BoundPropertyInt Name="rotateStepNinety" Value="0" />
      </BoundProperties>
    </ImageClip>
    <ImageClip extentID="3455" gapBefore="0" mediaItemID="3451" duration="0.20000000000000001">
      <Effects />
      <Transitions />
      <BoundProperties>
        <BoundPropertyInt Name="rotateStepNinety" Value="0" />
      </BoundProperties>
    </ImageClip>
    <ImageClip extentID="3456" gapBefore="0" mediaItemID="3452" duration="0.20000000000000001">
      <Effects />
      <Transitions />
      <BoundProperties>
        <BoundPropertyInt Name="rotateStepNinety" Value="0" />
      </BoundProperties>
    </ImageClip>
    <ImageClip extentID="3457" gapBefore="0" mediaItemID="3453" duration="0.20000000000000001">
      <Effects />
      <Transitions />
      <BoundProperties>
        <BoundPropertyInt Name="rotateStepNinety" Value="0" />
      </BoundProperties>
    </ImageClip>
    <ImageClip extentID="3458" gapBefore="0" mediaItemID="3454" duration="0.20000000000000001">
      <Effects />
      <Transitions />
      <BoundProperties>
        <BoundPropertyInt Name="rotateStepNinety" Value="0" />
      </BoundProperties>
    </ImageClip>
    <ImageClip extentID="3459" gapBefore="0" mediaItemID="3455" duration="0.20000000000000001">
      <Effects />
      <Transitions />
      <BoundProperties>
        <BoundPropertyInt Name="rotateStepNinety" Value="0" />
      </BoundProperties>
    </ImageClip>
    <ImageClip extentID="3460" gapBefore="0" mediaItemID="3456" duration="0.20000000000000001">
      <Effects />
      <Transitions />
      <BoundProperties>
        <BoundPropertyInt Name="rotateStepNinety" Value="0" />
      </BoundProperties>
    </ImageClip>
    <ImageClip extentID="3461" gapBefore="0" mediaItemID="3457" duration="0.20000000000000001">
      <Effects />
      <Transitions />
      <BoundProperties>
        <BoundPropertyInt Name="rotateStepNinety" Value="0" />
      </BoundProperties>
    </ImageClip>
    <ImageClip extentID="3462" gapBefore="0" mediaItemID="3458" duration="0.20000000000000001">
      <Effects />
      <Transitions />
      <BoundProperties>
        <BoundPropertyInt Name="rotateStepNinety" Value="0" />
      </BoundProperties>
    </ImageClip>
    <ImageClip extentID="3463" gapBefore="0" mediaItemID="3459" duration="0.20000000000000001">
      <Effects />
      <Transitions />
      <BoundProperties>
        <BoundPropertyInt Name="rotateStepNinety" Value="0" />
      </BoundProperties>
    </ImageClip>
    <ImageClip extentID="3464" gapBefore="0" mediaItemID="3460" duration="0.20000000000000001">
      <Effects />
      <Transitions />
      <BoundProperties>
        <BoundPropertyInt Name="rotateStepNinety" Value="0" />
      </BoundProperties>
    </ImageClip>
    <ImageClip extentID="3465" gapBefore="0" mediaItemID="3461" duration="0.20000000000000001">
      <Effects />
      <Transitions />
      <BoundProperties>
        <BoundPropertyInt Name="rotateStepNinety" Value="0" />
      </BoundProperties>
    </ImageClip>
    <ImageClip extentID="3466" gapBefore="0" mediaItemID="3462" duration="0.20000000000000001">
      <Effects />
      <Transitions />
      <BoundProperties>
        <BoundPropertyInt Name="rotateStepNinety" Value="0" />
      </BoundProperties>
    </ImageClip>
    <ImageClip extentID="3467" gapBefore="0" mediaItemID="3463" duration="0.20000000000000001">
      <Effects />
      <Transitions />
      <BoundProperties>
        <BoundPropertyInt Name="rotateStepNinety" Value="0" />
      </BoundProperties>
    </ImageClip>
    <ImageClip extentID="3468" gapBefore="0" mediaItemID="3464" duration="0.20000000000000001">
      <Effects />
      <Transitions />
      <BoundProperties>
        <BoundPropertyInt Name="rotateStepNinety" Value="0" />
      </BoundProperties>
    </ImageClip>
    <ImageClip extentID="3469" gapBefore="0" mediaItemID="3465" duration="0.20000000000000001">
      <Effects />
      <Transitions />
      <BoundProperties>
        <BoundPropertyInt Name="rotateStepNinety" Value="0" />
      </BoundProperties>
    </ImageClip>
    <ImageClip extentID="3470" gapBefore="0" mediaItemID="3466" duration="0.20000000000000001">
      <Effects />
      <Transitions />
      <BoundProperties>
        <BoundPropertyInt Name="rotateStepNinety" Value="0" />
      </BoundProperties>
    </ImageClip>
    <ImageClip extentID="3471" gapBefore="0" mediaItemID="3467" duration="0.20000000000000001">
      <Effects />
      <Transitions />
      <BoundProperties>
        <BoundPropertyInt Name="rotateStepNinety" Value="0" />
      </BoundProperties>
    </ImageClip>
    <ImageClip extentID="3472" gapBefore="0" mediaItemID="3468" duration="0.20000000000000001">
      <Effects />
      <Transitions />
      <BoundProperties>
        <BoundPropertyInt Name="rotateStepNinety" Value="0" />
      </BoundProperties>
    </ImageClip>
    <ImageClip extentID="3473" gapBefore="0" mediaItemID="3469" duration="0.20000000000000001">
      <Effects />
      <Transitions />
      <BoundProperties>
        <BoundPropertyInt Name="rotateStepNinety" Value="0" />
      </BoundProperties>
    </ImageClip>
    <ImageClip extentID="3474" gapBefore="0" mediaItemID="3470" duration="0.20000000000000001">
      <Effects />
      <Transitions />
      <BoundProperties>
        <BoundPropertyInt Name="rotateStepNinety" Value="0" />
      </BoundProperties>
    </ImageClip>
    <ImageClip extentID="3475" gapBefore="0" mediaItemID="3471" duration="0.20000000000000001">
      <Effects />
      <Transitions />
      <BoundProperties>
        <BoundPropertyInt Name="rotateStepNinety" Value="0" />
      </BoundProperties>
    </ImageClip>
    <ImageClip extentID="3476" gapBefore="0" mediaItemID="3472" duration="0.20000000000000001">
      <Effects />
      <Transitions />
      <BoundProperties>
        <BoundPropertyInt Name="rotateStepNinety" Value="0" />
      </BoundProperties>
    </ImageClip>
    <ImageClip extentID="3477" gapBefore="0" mediaItemID="3473" duration="0.20000000000000001">
      <Effects />
      <Transitions />
      <BoundProperties>
        <BoundPropertyInt Name="rotateStepNinety" Value="0" />
      </BoundProperties>
    </ImageClip>
    <ImageClip extentID="3478" gapBefore="0" mediaItemID="3474" duration="0.20000000000000001">
      <Effects />
      <Transitions />
      <BoundProperties>
        <BoundPropertyInt Name="rotateStepNinety" Value="0" />
      </BoundProperties>
    </ImageClip>
    <ImageClip extentID="3479" gapBefore="0" mediaItemID="3475" duration="0.20000000000000001">
      <Effects />
      <Transitions />
      <BoundProperties>
        <BoundPropertyInt Name="rotateStepNinety" Value="0" />
      </BoundProperties>
    </ImageClip>
    <ImageClip extentID="3480" gapBefore="0" mediaItemID="3476" duration="0.20000000000000001">
      <Effects />
      <Transitions />
      <BoundProperties>
        <BoundPropertyInt Name="rotateStepNinety" Value="0" />
      </BoundProperties>
    </ImageClip>
    <ImageClip extentID="3481" gapBefore="0" mediaItemID="3477" duration="0.20000000000000001">
      <Effects />
      <Transitions />
      <BoundProperties>
        <BoundPropertyInt Name="rotateStepNinety" Value="0" />
      </BoundProperties>
    </ImageClip>
    <ImageClip extentID="3482" gapBefore="0" mediaItemID="3478" duration="0.20000000000000001">
      <Effects />
      <Transitions />
      <BoundProperties>
        <BoundPropertyInt Name="rotateStepNinety" Value="0" />
      </BoundProperties>
    </ImageClip>
    <ImageClip extentID="3483" gapBefore="0" mediaItemID="3479" duration="0.20000000000000001">
      <Effects />
      <Transitions />
      <BoundProperties>
        <BoundPropertyInt Name="rotateStepNinety" Value="0" />
      </BoundProperties>
    </ImageClip>
    <ImageClip extentID="3484" gapBefore="0" mediaItemID="3480" duration="0.20000000000000001">
      <Effects />
      <Transitions />
      <BoundProperties>
        <BoundPropertyInt Name="rotateStepNinety" Value="0" />
      </BoundProperties>
    </ImageClip>
    <ImageClip extentID="3485" gapBefore="0" mediaItemID="3481" duration="0.20000000000000001">
      <Effects />
      <Transitions />
      <BoundProperties>
        <BoundPropertyInt Name="rotateStepNinety" Value="0" />
      </BoundProperties>
    </ImageClip>
    <ImageClip extentID="3486" gapBefore="0" mediaItemID="3482" duration="0.20000000000000001">
      <Effects />
      <Transitions />
      <BoundProperties>
        <BoundPropertyInt Name="rotateStepNinety" Value="0" />
      </BoundProperties>
    </ImageClip>
    <ImageClip extentID="3487" gapBefore="0" mediaItemID="3483" duration="0.20000000000000001">
      <Effects />
      <Transitions />
      <BoundProperties>
        <BoundPropertyInt Name="rotateStepNinety" Value="0" />
      </BoundProperties>
    </ImageClip>
    <ImageClip extentID="3488" gapBefore="0" mediaItemID="3484" duration="0.20000000000000001">
      <Effects />
      <Transitions />
      <BoundProperties>
        <BoundPropertyInt Name="rotateStepNinety" Value="0" />
      </BoundProperties>
    </ImageClip>
    <ImageClip extentID="3489" gapBefore="0" mediaItemID="3485" duration="0.20000000000000001">
      <Effects />
      <Transitions />
      <BoundProperties>
        <BoundPropertyInt Name="rotateStepNinety" Value="0" />
      </BoundProperties>
    </ImageClip>
    <ImageClip extentID="3490" gapBefore="0" mediaItemID="3486" duration="0.20000000000000001">
      <Effects />
      <Transitions />
      <BoundProperties>
        <BoundPropertyInt Name="rotateStepNinety" Value="0" />
      </BoundProperties>
    </ImageClip>
    <ImageClip extentID="3491" gapBefore="0" mediaItemID="3487" duration="0.20000000000000001">
      <Effects />
      <Transitions />
      <BoundProperties>
        <BoundPropertyInt Name="rotateStepNinety" Value="0" />
      </BoundProperties>
    </ImageClip>
    <ImageClip extentID="3492" gapBefore="0" mediaItemID="3488" duration="0.20000000000000001">
      <Effects />
      <Transitions />
      <BoundProperties>
        <BoundPropertyInt Name="rotateStepNinety" Value="0" />
      </BoundProperties>
    </ImageClip>
    <ImageClip extentID="3493" gapBefore="0" mediaItemID="3489" duration="0.20000000000000001">
      <Effects />
      <Transitions />
      <BoundProperties>
        <BoundPropertyInt Name="rotateStepNinety" Value="0" />
      </BoundProperties>
    </ImageClip>
    <ImageClip extentID="3494" gapBefore="0" mediaItemID="3490" duration="0.20000000000000001">
      <Effects />
      <Transitions />
      <BoundProperties>
        <BoundPropertyInt Name="rotateStepNinety" Value="0" />
      </BoundProperties>
    </ImageClip>
    <ImageClip extentID="3495" gapBefore="0" mediaItemID="3491" duration="0.20000000000000001">
      <Effects />
      <Transitions />
      <BoundProperties>
        <BoundPropertyInt Name="rotateStepNinety" Value="0" />
      </BoundProperties>
    </ImageClip>
    <ImageClip extentID="3496" gapBefore="0" mediaItemID="3492" duration="0.20000000000000001">
      <Effects />
      <Transitions />
      <BoundProperties>
        <BoundPropertyInt Name="rotateStepNinety" Value="0" />
      </BoundProperties>
    </ImageClip>
    <ImageClip extentID="3497" gapBefore="0" mediaItemID="3493" duration="0.20000000000000001">
      <Effects />
      <Transitions />
      <BoundProperties>
        <BoundPropertyInt Name="rotateStepNinety" Value="0" />
      </BoundProperties>
    </ImageClip>
    <ImageClip extentID="3498" gapBefore="0" mediaItemID="3494" duration="0.20000000000000001">
      <Effects />
      <Transitions />
      <BoundProperties>
        <BoundPropertyInt Name="rotateStepNinety" Value="0" />
      </BoundProperties>
    </ImageClip>
    <ImageClip extentID="3499" gapBefore="0" mediaItemID="3495" duration="0.20000000000000001">
      <Effects />
      <Transitions />
      <BoundProperties>
        <BoundPropertyInt Name="rotateStepNinety" Value="0" />
      </BoundProperties>
    </ImageClip>
    <ImageClip extentID="3500" gapBefore="0" mediaItemID="3496" duration="0.20000000000000001">
      <Effects />
      <Transitions />
      <BoundProperties>
        <BoundPropertyInt Name="rotateStepNinety" Value="0" />
      </BoundProperties>
    </ImageClip>
    <ImageClip extentID="3501" gapBefore="0" mediaItemID="3497" duration="0.20000000000000001">
      <Effects />
      <Transitions />
      <BoundProperties>
        <BoundPropertyInt Name="rotateStepNinety" Value="0" />
      </BoundProperties>
    </ImageClip>
    <ImageClip extentID="3502" gapBefore="0" mediaItemID="3498" duration="0.20000000000000001">
      <Effects />
      <Transitions />
      <BoundProperties>
        <BoundPropertyInt Name="rotateStepNinety" Value="0" />
      </BoundProperties>
    </ImageClip>
    <ImageClip extentID="3503" gapBefore="0" mediaItemID="3499" duration="0.20000000000000001">
      <Effects />
      <Transitions />
      <BoundProperties>
        <BoundPropertyInt Name="rotateStepNinety" Value="0" />
      </BoundProperties>
    </ImageClip>
    <ImageClip extentID="3504" gapBefore="0" mediaItemID="3500" duration="0.20000000000000001">
      <Effects />
      <Transitions />
      <BoundProperties>
        <BoundPropertyInt Name="rotateStepNinety" Value="0" />
      </BoundProperties>
    </ImageClip>
    <ImageClip extentID="3505" gapBefore="0" mediaItemID="3501" duration="0.20000000000000001">
      <Effects />
      <Transitions />
      <BoundProperties>
        <BoundPropertyInt Name="rotateStepNinety" Value="0" />
      </BoundProperties>
    </ImageClip>
    <ImageClip extentID="3506" gapBefore="0" mediaItemID="3502" duration="0.20000000000000001">
      <Effects />
      <Transitions />
      <BoundProperties>
        <BoundPropertyInt Name="rotateStepNinety" Value="0" />
      </BoundProperties>
    </ImageClip>
    <ImageClip extentID="3507" gapBefore="0" mediaItemID="3503" duration="0.20000000000000001">
      <Effects />
      <Transitions />
      <BoundProperties>
        <BoundPropertyInt Name="rotateStepNinety" Value="0" />
      </BoundProperties>
    </ImageClip>
    <ImageClip extentID="3508" gapBefore="0" mediaItemID="3504" duration="0.20000000000000001">
      <Effects />
      <Transitions />
      <BoundProperties>
        <BoundPropertyInt Name="rotateStepNinety" Value="0" />
      </BoundProperties>
    </ImageClip>
    <ImageClip extentID="3509" gapBefore="0" mediaItemID="3505" duration="0.20000000000000001">
      <Effects />
      <Transitions />
      <BoundProperties>
        <BoundPropertyInt Name="rotateStepNinety" Value="0" />
      </BoundProperties>
    </ImageClip>
    <ImageClip extentID="3510" gapBefore="0" mediaItemID="3506" duration="0.20000000000000001">
      <Effects />
      <Transitions />
      <BoundProperties>
        <BoundPropertyInt Name="rotateStepNinety" Value="0" />
      </BoundProperties>
    </ImageClip>
    <ImageClip extentID="3511" gapBefore="0" mediaItemID="3507" duration="0.20000000000000001">
      <Effects />
      <Transitions />
      <BoundProperties>
        <BoundPropertyInt Name="rotateStepNinety" Value="0" />
      </BoundProperties>
    </ImageClip>
    <ImageClip extentID="3512" gapBefore="0" mediaItemID="3508" duration="0.20000000000000001">
      <Effects />
      <Transitions />
      <BoundProperties>
        <BoundPropertyInt Name="rotateStepNinety" Value="0" />
      </BoundProperties>
    </ImageClip>
    <ImageClip extentID="3513" gapBefore="0" mediaItemID="3509" duration="0.20000000000000001">
      <Effects />
      <Transitions />
      <BoundProperties>
        <BoundPropertyInt Name="rotateStepNinety" Value="0" />
      </BoundProperties>
    </ImageClip>
    <ImageClip extentID="3514" gapBefore="0" mediaItemID="3510" duration="0.20000000000000001">
      <Effects />
      <Transitions />
      <BoundProperties>
        <BoundPropertyInt Name="rotateStepNinety" Value="0" />
      </BoundProperties>
    </ImageClip>
    <ImageClip extentID="3515" gapBefore="0" mediaItemID="3511" duration="0.20000000000000001">
      <Effects />
      <Transitions />
      <BoundProperties>
        <BoundPropertyInt Name="rotateStepNinety" Value="0" />
      </BoundProperties>
    </ImageClip>
    <ImageClip extentID="3516" gapBefore="0" mediaItemID="3512" duration="0.20000000000000001">
      <Effects />
      <Transitions />
      <BoundProperties>
        <BoundPropertyInt Name="rotateStepNinety" Value="0" />
      </BoundProperties>
    </ImageClip>
    <ImageClip extentID="3517" gapBefore="0" mediaItemID="3513" duration="0.20000000000000001">
      <Effects />
      <Transitions />
      <BoundProperties>
        <BoundPropertyInt Name="rotateStepNinety" Value="0" />
      </BoundProperties>
    </ImageClip>
    <ImageClip extentID="3518" gapBefore="0" mediaItemID="3514" duration="0.20000000000000001">
      <Effects />
      <Transitions />
      <BoundProperties>
        <BoundPropertyInt Name="rotateStepNinety" Value="0" />
      </BoundProperties>
    </ImageClip>
    <ImageClip extentID="3519" gapBefore="0" mediaItemID="3515" duration="0.20000000000000001">
      <Effects />
      <Transitions />
      <BoundProperties>
        <BoundPropertyInt Name="rotateStepNinety" Value="0" />
      </BoundProperties>
    </ImageClip>
    <ImageClip extentID="3520" gapBefore="0" mediaItemID="3516" duration="0.20000000000000001">
      <Effects />
      <Transitions />
      <BoundProperties>
        <BoundPropertyInt Name="rotateStepNinety" Value="0" />
      </BoundProperties>
    </ImageClip>
    <ImageClip extentID="3521" gapBefore="0" mediaItemID="3517" duration="0.20000000000000001">
      <Effects />
      <Transitions />
      <BoundProperties>
        <BoundPropertyInt Name="rotateStepNinety" Value="0" />
      </BoundProperties>
    </ImageClip>
    <ImageClip extentID="3522" gapBefore="0" mediaItemID="3518" duration="0.20000000000000001">
      <Effects />
      <Transitions />
      <BoundProperties>
        <BoundPropertyInt Name="rotateStepNinety" Value="0" />
      </BoundProperties>
    </ImageClip>
    <ImageClip extentID="3523" gapBefore="0" mediaItemID="3519" duration="0.20000000000000001">
      <Effects />
      <Transitions />
      <BoundProperties>
        <BoundPropertyInt Name="rotateStepNinety" Value="0" />
      </BoundProperties>
    </ImageClip>
    <ImageClip extentID="3524" gapBefore="0" mediaItemID="3520" duration="0.20000000000000001">
      <Effects />
      <Transitions />
      <BoundProperties>
        <BoundPropertyInt Name="rotateStepNinety" Value="0" />
      </BoundProperties>
    </ImageClip>
    <ImageClip extentID="3525" gapBefore="0" mediaItemID="3521" duration="0.20000000000000001">
      <Effects />
      <Transitions />
      <BoundProperties>
        <BoundPropertyInt Name="rotateStepNinety" Value="0" />
      </BoundProperties>
    </ImageClip>
    <ImageClip extentID="3526" gapBefore="0" mediaItemID="3522" duration="0.20000000000000001">
      <Effects />
      <Transitions />
      <BoundProperties>
        <BoundPropertyInt Name="rotateStepNinety" Value="0" />
      </BoundProperties>
    </ImageClip>
    <ImageClip extentID="3527" gapBefore="0" mediaItemID="3523" duration="0.20000000000000001">
      <Effects />
      <Transitions />
      <BoundProperties>
        <BoundPropertyInt Name="rotateStepNinety" Value="0" />
      </BoundProperties>
    </ImageClip>
    <ImageClip extentID="3528" gapBefore="0" mediaItemID="3524" duration="0.20000000000000001">
      <Effects />
      <Transitions />
      <BoundProperties>
        <BoundPropertyInt Name="rotateStepNinety" Value="0" />
      </BoundProperties>
    </ImageClip>
    <ImageClip extentID="3529" gapBefore="0" mediaItemID="3525" duration="0.20000000000000001">
      <Effects />
      <Transitions />
      <BoundProperties>
        <BoundPropertyInt Name="rotateStepNinety" Value="0" />
      </BoundProperties>
    </ImageClip>
    <ImageClip extentID="3530" gapBefore="0" mediaItemID="3526" duration="0.20000000000000001">
      <Effects />
      <Transitions />
      <BoundProperties>
        <BoundPropertyInt Name="rotateStepNinety" Value="0" />
      </BoundProperties>
    </ImageClip>
    <ImageClip extentID="3531" gapBefore="0" mediaItemID="3527" duration="0.20000000000000001">
      <Effects />
      <Transitions />
      <BoundProperties>
        <BoundPropertyInt Name="rotateStepNinety" Value="0" />
      </BoundProperties>
    </ImageClip>
    <ImageClip extentID="3532" gapBefore="0" mediaItemID="3528" duration="0.20000000000000001">
      <Effects />
      <Transitions />
      <BoundProperties>
        <BoundPropertyInt Name="rotateStepNinety" Value="0" />
      </BoundProperties>
    </ImageClip>
    <ImageClip extentID="3533" gapBefore="0" mediaItemID="3529" duration="0.20000000000000001">
      <Effects />
      <Transitions />
      <BoundProperties>
        <BoundPropertyInt Name="rotateStepNinety" Value="0" />
      </BoundProperties>
    </ImageClip>
    <ImageClip extentID="3534" gapBefore="0" mediaItemID="3530" duration="0.20000000000000001">
      <Effects />
      <Transitions />
      <BoundProperties>
        <BoundPropertyInt Name="rotateStepNinety" Value="0" />
      </BoundProperties>
    </ImageClip>
    <ImageClip extentID="3535" gapBefore="0" mediaItemID="3531" duration="0.20000000000000001">
      <Effects />
      <Transitions />
      <BoundProperties>
        <BoundPropertyInt Name="rotateStepNinety" Value="0" />
      </BoundProperties>
    </ImageClip>
    <ImageClip extentID="3536" gapBefore="0" mediaItemID="3532" duration="0.20000000000000001">
      <Effects />
      <Transitions />
      <BoundProperties>
        <BoundPropertyInt Name="rotateStepNinety" Value="0" />
      </BoundProperties>
    </ImageClip>
    <ImageClip extentID="3537" gapBefore="0" mediaItemID="3533" duration="0.20000000000000001">
      <Effects />
      <Transitions />
      <BoundProperties>
        <BoundPropertyInt Name="rotateStepNinety" Value="0" />
      </BoundProperties>
    </ImageClip>
    <ImageClip extentID="3538" gapBefore="0" mediaItemID="3534" duration="0.20000000000000001">
      <Effects />
      <Transitions />
      <BoundProperties>
        <BoundPropertyInt Name="rotateStepNinety" Value="0" />
      </BoundProperties>
    </ImageClip>
    <ImageClip extentID="3539" gapBefore="0" mediaItemID="3535" duration="0.20000000000000001">
      <Effects />
      <Transitions />
      <BoundProperties>
        <BoundPropertyInt Name="rotateStepNinety" Value="0" />
      </BoundProperties>
    </ImageClip>
    <ImageClip extentID="3540" gapBefore="0" mediaItemID="3536" duration="0.20000000000000001">
      <Effects />
      <Transitions />
      <BoundProperties>
        <BoundPropertyInt Name="rotateStepNinety" Value="0" />
      </BoundProperties>
    </ImageClip>
    <ImageClip extentID="3541" gapBefore="0" mediaItemID="3537" duration="0.20000000000000001">
      <Effects />
      <Transitions />
      <BoundProperties>
        <BoundPropertyInt Name="rotateStepNinety" Value="0" />
      </BoundProperties>
    </ImageClip>
    <ImageClip extentID="3542" gapBefore="0" mediaItemID="3538" duration="0.20000000000000001">
      <Effects />
      <Transitions />
      <BoundProperties>
        <BoundPropertyInt Name="rotateStepNinety" Value="0" />
      </BoundProperties>
    </ImageClip>
    <ImageClip extentID="3543" gapBefore="0" mediaItemID="3539" duration="0.20000000000000001">
      <Effects />
      <Transitions />
      <BoundProperties>
        <BoundPropertyInt Name="rotateStepNinety" Value="0" />
      </BoundProperties>
    </ImageClip>
    <ImageClip extentID="3544" gapBefore="0" mediaItemID="3540" duration="0.20000000000000001">
      <Effects />
      <Transitions />
      <BoundProperties>
        <BoundPropertyInt Name="rotateStepNinety" Value="0" />
      </BoundProperties>
    </ImageClip>
    <ImageClip extentID="3545" gapBefore="0" mediaItemID="3541" duration="0.20000000000000001">
      <Effects />
      <Transitions />
      <BoundProperties>
        <BoundPropertyInt Name="rotateStepNinety" Value="0" />
      </BoundProperties>
    </ImageClip>
    <ImageClip extentID="3546" gapBefore="0" mediaItemID="3542" duration="0.20000000000000001">
      <Effects />
      <Transitions />
      <BoundProperties>
        <BoundPropertyInt Name="rotateStepNinety" Value="0" />
      </BoundProperties>
    </ImageClip>
    <ImageClip extentID="3547" gapBefore="0" mediaItemID="3543" duration="0.20000000000000001">
      <Effects />
      <Transitions />
      <BoundProperties>
        <BoundPropertyInt Name="rotateStepNinety" Value="0" />
      </BoundProperties>
    </ImageClip>
    <ImageClip extentID="3548" gapBefore="0" mediaItemID="3544" duration="0.20000000000000001">
      <Effects />
      <Transitions />
      <BoundProperties>
        <BoundPropertyInt Name="rotateStepNinety" Value="0" />
      </BoundProperties>
    </ImageClip>
    <ImageClip extentID="3549" gapBefore="0" mediaItemID="3545" duration="0.20000000000000001">
      <Effects />
      <Transitions />
      <BoundProperties>
        <BoundPropertyInt Name="rotateStepNinety" Value="0" />
      </BoundProperties>
    </ImageClip>
    <ImageClip extentID="3550" gapBefore="0" mediaItemID="3546" duration="0.20000000000000001">
      <Effects />
      <Transitions />
      <BoundProperties>
        <BoundPropertyInt Name="rotateStepNinety" Value="0" />
      </BoundProperties>
    </ImageClip>
    <ImageClip extentID="3551" gapBefore="0" mediaItemID="3547" duration="0.20000000000000001">
      <Effects />
      <Transitions />
      <BoundProperties>
        <BoundPropertyInt Name="rotateStepNinety" Value="0" />
      </BoundProperties>
    </ImageClip>
    <ImageClip extentID="3552" gapBefore="0" mediaItemID="3548" duration="0.20000000000000001">
      <Effects />
      <Transitions />
      <BoundProperties>
        <BoundPropertyInt Name="rotateStepNinety" Value="0" />
      </BoundProperties>
    </ImageClip>
    <ImageClip extentID="3553" gapBefore="0" mediaItemID="3549" duration="0.20000000000000001">
      <Effects />
      <Transitions />
      <BoundProperties>
        <BoundPropertyInt Name="rotateStepNinety" Value="0" />
      </BoundProperties>
    </ImageClip>
    <ImageClip extentID="3554" gapBefore="0" mediaItemID="3550" duration="0.20000000000000001">
      <Effects />
      <Transitions />
      <BoundProperties>
        <BoundPropertyInt Name="rotateStepNinety" Value="0" />
      </BoundProperties>
    </ImageClip>
    <ImageClip extentID="3555" gapBefore="0" mediaItemID="3551" duration="0.20000000000000001">
      <Effects />
      <Transitions />
      <BoundProperties>
        <BoundPropertyInt Name="rotateStepNinety" Value="0" />
      </BoundProperties>
    </ImageClip>
    <ImageClip extentID="3556" gapBefore="0" mediaItemID="3552" duration="0.20000000000000001">
      <Effects />
      <Transitions />
      <BoundProperties>
        <BoundPropertyInt Name="rotateStepNinety" Value="0" />
      </BoundProperties>
    </ImageClip>
    <ImageClip extentID="3557" gapBefore="0" mediaItemID="3553" duration="0.20000000000000001">
      <Effects />
      <Transitions />
      <BoundProperties>
        <BoundPropertyInt Name="rotateStepNinety" Value="0" />
      </BoundProperties>
    </ImageClip>
    <ImageClip extentID="3558" gapBefore="0" mediaItemID="3554" duration="0.20000000000000001">
      <Effects />
      <Transitions />
      <BoundProperties>
        <BoundPropertyInt Name="rotateStepNinety" Value="0" />
      </BoundProperties>
    </ImageClip>
    <ImageClip extentID="3559" gapBefore="0" mediaItemID="3555" duration="0.20000000000000001">
      <Effects />
      <Transitions />
      <BoundProperties>
        <BoundPropertyInt Name="rotateStepNinety" Value="0" />
      </BoundProperties>
    </ImageClip>
    <ImageClip extentID="3560" gapBefore="0" mediaItemID="3556" duration="0.20000000000000001">
      <Effects />
      <Transitions />
      <BoundProperties>
        <BoundPropertyInt Name="rotateStepNinety" Value="0" />
      </BoundProperties>
    </ImageClip>
    <ImageClip extentID="3561" gapBefore="0" mediaItemID="3557" duration="0.20000000000000001">
      <Effects />
      <Transitions />
      <BoundProperties>
        <BoundPropertyInt Name="rotateStepNinety" Value="0" />
      </BoundProperties>
    </ImageClip>
    <ImageClip extentID="3562" gapBefore="0" mediaItemID="3558" duration="0.20000000000000001">
      <Effects />
      <Transitions />
      <BoundProperties>
        <BoundPropertyInt Name="rotateStepNinety" Value="0" />
      </BoundProperties>
    </ImageClip>
    <ImageClip extentID="3563" gapBefore="0" mediaItemID="3559" duration="0.20000000000000001">
      <Effects />
      <Transitions />
      <BoundProperties>
        <BoundPropertyInt Name="rotateStepNinety" Value="0" />
      </BoundProperties>
    </ImageClip>
    <ImageClip extentID="3564" gapBefore="0" mediaItemID="3560" duration="0.20000000000000001">
      <Effects />
      <Transitions />
      <BoundProperties>
        <BoundPropertyInt Name="rotateStepNinety" Value="0" />
      </BoundProperties>
    </ImageClip>
    <ImageClip extentID="3565" gapBefore="0" mediaItemID="3561" duration="0.20000000000000001">
      <Effects />
      <Transitions />
      <BoundProperties>
        <BoundPropertyInt Name="rotateStepNinety" Value="0" />
      </BoundProperties>
    </ImageClip>
    <ImageClip extentID="3566" gapBefore="0" mediaItemID="3562" duration="0.20000000000000001">
      <Effects />
      <Transitions />
      <BoundProperties>
        <BoundPropertyInt Name="rotateStepNinety" Value="0" />
      </BoundProperties>
    </ImageClip>
    <ImageClip extentID="3567" gapBefore="0" mediaItemID="3563" duration="0.20000000000000001">
      <Effects />
      <Transitions />
      <BoundProperties>
        <BoundPropertyInt Name="rotateStepNinety" Value="0" />
      </BoundProperties>
    </ImageClip>
    <ImageClip extentID="3568" gapBefore="0" mediaItemID="3564" duration="0.20000000000000001">
      <Effects />
      <Transitions />
      <BoundProperties>
        <BoundPropertyInt Name="rotateStepNinety" Value="0" />
      </BoundProperties>
    </ImageClip>
    <ImageClip extentID="3569" gapBefore="0" mediaItemID="3565" duration="0.20000000000000001">
      <Effects />
      <Transitions />
      <BoundProperties>
        <BoundPropertyInt Name="rotateStepNinety" Value="0" />
      </BoundProperties>
    </ImageClip>
    <ImageClip extentID="3570" gapBefore="0" mediaItemID="3566" duration="0.20000000000000001">
      <Effects />
      <Transitions />
      <BoundProperties>
        <BoundPropertyInt Name="rotateStepNinety" Value="0" />
      </BoundProperties>
    </ImageClip>
    <ImageClip extentID="3571" gapBefore="0" mediaItemID="3567" duration="0.20000000000000001">
      <Effects />
      <Transitions />
      <BoundProperties>
        <BoundPropertyInt Name="rotateStepNinety" Value="0" />
      </BoundProperties>
    </ImageClip>
    <ImageClip extentID="3572" gapBefore="0" mediaItemID="3568" duration="0.20000000000000001">
      <Effects />
      <Transitions />
      <BoundProperties>
        <BoundPropertyInt Name="rotateStepNinety" Value="0" />
      </BoundProperties>
    </ImageClip>
    <ImageClip extentID="3573" gapBefore="0" mediaItemID="3569" duration="0.20000000000000001">
      <Effects />
      <Transitions />
      <BoundProperties>
        <BoundPropertyInt Name="rotateStepNinety" Value="0" />
      </BoundProperties>
    </ImageClip>
    <ImageClip extentID="3574" gapBefore="0" mediaItemID="3570" duration="0.20000000000000001">
      <Effects />
      <Transitions />
      <BoundProperties>
        <BoundPropertyInt Name="rotateStepNinety" Value="0" />
      </BoundProperties>
    </ImageClip>
    <ImageClip extentID="3575" gapBefore="0" mediaItemID="3571" duration="0.20000000000000001">
      <Effects />
      <Transitions />
      <BoundProperties>
        <BoundPropertyInt Name="rotateStepNinety" Value="0" />
      </BoundProperties>
    </ImageClip>
    <ImageClip extentID="3576" gapBefore="0" mediaItemID="3572" duration="0.20000000000000001">
      <Effects />
      <Transitions />
      <BoundProperties>
        <BoundPropertyInt Name="rotateStepNinety" Value="0" />
      </BoundProperties>
    </ImageClip>
    <ImageClip extentID="3577" gapBefore="0" mediaItemID="3573" duration="0.20000000000000001">
      <Effects />
      <Transitions />
      <BoundProperties>
        <BoundPropertyInt Name="rotateStepNinety" Value="0" />
      </BoundProperties>
    </ImageClip>
    <ImageClip extentID="3578" gapBefore="0" mediaItemID="3574" duration="0.20000000000000001">
      <Effects />
      <Transitions />
      <BoundProperties>
        <BoundPropertyInt Name="rotateStepNinety" Value="0" />
      </BoundProperties>
    </ImageClip>
    <ImageClip extentID="3579" gapBefore="0" mediaItemID="3575" duration="0.20000000000000001">
      <Effects />
      <Transitions />
      <BoundProperties>
        <BoundPropertyInt Name="rotateStepNinety" Value="0" />
      </BoundProperties>
    </ImageClip>
    <ImageClip extentID="3580" gapBefore="0" mediaItemID="3576" duration="0.20000000000000001">
      <Effects />
      <Transitions />
      <BoundProperties>
        <BoundPropertyInt Name="rotateStepNinety" Value="0" />
      </BoundProperties>
    </ImageClip>
    <ImageClip extentID="3581" gapBefore="0" mediaItemID="3577" duration="0.20000000000000001">
      <Effects />
      <Transitions />
      <BoundProperties>
        <BoundPropertyInt Name="rotateStepNinety" Value="0" />
      </BoundProperties>
    </ImageClip>
    <ImageClip extentID="3582" gapBefore="0" mediaItemID="3578" duration="0.20000000000000001">
      <Effects />
      <Transitions />
      <BoundProperties>
        <BoundPropertyInt Name="rotateStepNinety" Value="0" />
      </BoundProperties>
    </ImageClip>
    <ImageClip extentID="3583" gapBefore="0" mediaItemID="3579" duration="0.20000000000000001">
      <Effects />
      <Transitions />
      <BoundProperties>
        <BoundPropertyInt Name="rotateStepNinety" Value="0" />
      </BoundProperties>
    </ImageClip>
    <ImageClip extentID="3584" gapBefore="0" mediaItemID="3580" duration="0.20000000000000001">
      <Effects />
      <Transitions />
      <BoundProperties>
        <BoundPropertyInt Name="rotateStepNinety" Value="0" />
      </BoundProperties>
    </ImageClip>
    <ImageClip extentID="3585" gapBefore="0" mediaItemID="3581" duration="0.20000000000000001">
      <Effects />
      <Transitions />
      <BoundProperties>
        <BoundPropertyInt Name="rotateStepNinety" Value="0" />
      </BoundProperties>
    </ImageClip>
    <ImageClip extentID="3586" gapBefore="0" mediaItemID="3582" duration="0.20000000000000001">
      <Effects />
      <Transitions />
      <BoundProperties>
        <BoundPropertyInt Name="rotateStepNinety" Value="0" />
      </BoundProperties>
    </ImageClip>
    <ImageClip extentID="3587" gapBefore="0" mediaItemID="3583" duration="0.20000000000000001">
      <Effects />
      <Transitions />
      <BoundProperties>
        <BoundPropertyInt Name="rotateStepNinety" Value="0" />
      </BoundProperties>
    </ImageClip>
    <ImageClip extentID="3588" gapBefore="0" mediaItemID="3584" duration="0.20000000000000001">
      <Effects />
      <Transitions />
      <BoundProperties>
        <BoundPropertyInt Name="rotateStepNinety" Value="0" />
      </BoundProperties>
    </ImageClip>
    <ImageClip extentID="3589" gapBefore="0" mediaItemID="3585" duration="0.20000000000000001">
      <Effects />
      <Transitions />
      <BoundProperties>
        <BoundPropertyInt Name="rotateStepNinety" Value="0" />
      </BoundProperties>
    </ImageClip>
    <ImageClip extentID="3590" gapBefore="0" mediaItemID="3586" duration="0.20000000000000001">
      <Effects />
      <Transitions />
      <BoundProperties>
        <BoundPropertyInt Name="rotateStepNinety" Value="0" />
      </BoundProperties>
    </ImageClip>
    <ImageClip extentID="3591" gapBefore="0" mediaItemID="3587" duration="0.20000000000000001">
      <Effects />
      <Transitions />
      <BoundProperties>
        <BoundPropertyInt Name="rotateStepNinety" Value="0" />
      </BoundProperties>
    </ImageClip>
    <ImageClip extentID="3592" gapBefore="0" mediaItemID="3588" duration="0.20000000000000001">
      <Effects />
      <Transitions />
      <BoundProperties>
        <BoundPropertyInt Name="rotateStepNinety" Value="0" />
      </BoundProperties>
    </ImageClip>
    <ImageClip extentID="3593" gapBefore="0" mediaItemID="3589" duration="0.20000000000000001">
      <Effects />
      <Transitions />
      <BoundProperties>
        <BoundPropertyInt Name="rotateStepNinety" Value="0" />
      </BoundProperties>
    </ImageClip>
    <ImageClip extentID="3594" gapBefore="0" mediaItemID="3590" duration="0.20000000000000001">
      <Effects />
      <Transitions />
      <BoundProperties>
        <BoundPropertyInt Name="rotateStepNinety" Value="0" />
      </BoundProperties>
    </ImageClip>
    <ImageClip extentID="3595" gapBefore="0" mediaItemID="3591" duration="0.20000000000000001">
      <Effects />
      <Transitions />
      <BoundProperties>
        <BoundPropertyInt Name="rotateStepNinety" Value="0" />
      </BoundProperties>
    </ImageClip>
    <ImageClip extentID="3596" gapBefore="0" mediaItemID="3592" duration="0.20000000000000001">
      <Effects />
      <Transitions />
      <BoundProperties>
        <BoundPropertyInt Name="rotateStepNinety" Value="0" />
      </BoundProperties>
    </ImageClip>
    <ImageClip extentID="3597" gapBefore="0" mediaItemID="3593" duration="0.20000000000000001">
      <Effects />
      <Transitions />
      <BoundProperties>
        <BoundPropertyInt Name="rotateStepNinety" Value="0" />
      </BoundProperties>
    </ImageClip>
    <ImageClip extentID="3598" gapBefore="0" mediaItemID="3594" duration="0.20000000000000001">
      <Effects />
      <Transitions />
      <BoundProperties>
        <BoundPropertyInt Name="rotateStepNinety" Value="0" />
      </BoundProperties>
    </ImageClip>
    <ImageClip extentID="3599" gapBefore="0" mediaItemID="3595" duration="0.20000000000000001">
      <Effects />
      <Transitions />
      <BoundProperties>
        <BoundPropertyInt Name="rotateStepNinety" Value="0" />
      </BoundProperties>
    </ImageClip>
    <ImageClip extentID="3600" gapBefore="0" mediaItemID="3596" duration="0.20000000000000001">
      <Effects />
      <Transitions />
      <BoundProperties>
        <BoundPropertyInt Name="rotateStepNinety" Value="0" />
      </BoundProperties>
    </ImageClip>
    <ImageClip extentID="3601" gapBefore="0" mediaItemID="3597" duration="0.20000000000000001">
      <Effects />
      <Transitions />
      <BoundProperties>
        <BoundPropertyInt Name="rotateStepNinety" Value="0" />
      </BoundProperties>
    </ImageClip>
    <ImageClip extentID="3602" gapBefore="0" mediaItemID="3598" duration="0.20000000000000001">
      <Effects />
      <Transitions />
      <BoundProperties>
        <BoundPropertyInt Name="rotateStepNinety" Value="0" />
      </BoundProperties>
    </ImageClip>
    <ImageClip extentID="3603" gapBefore="0" mediaItemID="3599" duration="0.20000000000000001">
      <Effects />
      <Transitions />
      <BoundProperties>
        <BoundPropertyInt Name="rotateStepNinety" Value="0" />
      </BoundProperties>
    </ImageClip>
    <ImageClip extentID="3604" gapBefore="0" mediaItemID="3600" duration="0.20000000000000001">
      <Effects />
      <Transitions />
      <BoundProperties>
        <BoundPropertyInt Name="rotateStepNinety" Value="0" />
      </BoundProperties>
    </ImageClip>
    <ImageClip extentID="3605" gapBefore="0" mediaItemID="3601" duration="0.20000000000000001">
      <Effects />
      <Transitions />
      <BoundProperties>
        <BoundPropertyInt Name="rotateStepNinety" Value="0" />
      </BoundProperties>
    </ImageClip>
    <ImageClip extentID="3606" gapBefore="0" mediaItemID="3602" duration="0.20000000000000001">
      <Effects />
      <Transitions />
      <BoundProperties>
        <BoundPropertyInt Name="rotateStepNinety" Value="0" />
      </BoundProperties>
    </ImageClip>
    <ImageClip extentID="3607" gapBefore="0" mediaItemID="3603" duration="0.20000000000000001">
      <Effects />
      <Transitions />
      <BoundProperties>
        <BoundPropertyInt Name="rotateStepNinety" Value="0" />
      </BoundProperties>
    </ImageClip>
    <ImageClip extentID="3608" gapBefore="0" mediaItemID="3604" duration="0.20000000000000001">
      <Effects />
      <Transitions />
      <BoundProperties>
        <BoundPropertyInt Name="rotateStepNinety" Value="0" />
      </BoundProperties>
    </ImageClip>
    <ImageClip extentID="3609" gapBefore="0" mediaItemID="3605" duration="0.20000000000000001">
      <Effects />
      <Transitions />
      <BoundProperties>
        <BoundPropertyInt Name="rotateStepNinety" Value="0" />
      </BoundProperties>
    </ImageClip>
    <ImageClip extentID="3610" gapBefore="0" mediaItemID="3606" duration="0.20000000000000001">
      <Effects />
      <Transitions />
      <BoundProperties>
        <BoundPropertyInt Name="rotateStepNinety" Value="0" />
      </BoundProperties>
    </ImageClip>
    <ImageClip extentID="3611" gapBefore="0" mediaItemID="3607" duration="0.20000000000000001">
      <Effects />
      <Transitions />
      <BoundProperties>
        <BoundPropertyInt Name="rotateStepNinety" Value="0" />
      </BoundProperties>
    </ImageClip>
    <ImageClip extentID="3612" gapBefore="0" mediaItemID="3608" duration="0.20000000000000001">
      <Effects />
      <Transitions />
      <BoundProperties>
        <BoundPropertyInt Name="rotateStepNinety" Value="0" />
      </BoundProperties>
    </ImageClip>
    <ImageClip extentID="3613" gapBefore="0" mediaItemID="3609" duration="0.20000000000000001">
      <Effects />
      <Transitions />
      <BoundProperties>
        <BoundPropertyInt Name="rotateStepNinety" Value="0" />
      </BoundProperties>
    </ImageClip>
    <ImageClip extentID="3614" gapBefore="0" mediaItemID="3610" duration="0.20000000000000001">
      <Effects />
      <Transitions />
      <BoundProperties>
        <BoundPropertyInt Name="rotateStepNinety" Value="0" />
      </BoundProperties>
    </ImageClip>
    <ImageClip extentID="3615" gapBefore="0" mediaItemID="3611" duration="0.20000000000000001">
      <Effects />
      <Transitions />
      <BoundProperties>
        <BoundPropertyInt Name="rotateStepNinety" Value="0" />
      </BoundProperties>
    </ImageClip>
    <ImageClip extentID="3616" gapBefore="0" mediaItemID="3612" duration="0.20000000000000001">
      <Effects />
      <Transitions />
      <BoundProperties>
        <BoundPropertyInt Name="rotateStepNinety" Value="0" />
      </BoundProperties>
    </ImageClip>
    <ImageClip extentID="3617" gapBefore="0" mediaItemID="3613" duration="0.20000000000000001">
      <Effects />
      <Transitions />
      <BoundProperties>
        <BoundPropertyInt Name="rotateStepNinety" Value="0" />
      </BoundProperties>
    </ImageClip>
    <ImageClip extentID="3618" gapBefore="0" mediaItemID="3614" duration="0.20000000000000001">
      <Effects />
      <Transitions />
      <BoundProperties>
        <BoundPropertyInt Name="rotateStepNinety" Value="0" />
      </BoundProperties>
    </ImageClip>
    <ImageClip extentID="3619" gapBefore="0" mediaItemID="3615" duration="0.20000000000000001">
      <Effects />
      <Transitions />
      <BoundProperties>
        <BoundPropertyInt Name="rotateStepNinety" Value="0" />
      </BoundProperties>
    </ImageClip>
    <ImageClip extentID="3620" gapBefore="0" mediaItemID="3616" duration="0.20000000000000001">
      <Effects />
      <Transitions />
      <BoundProperties>
        <BoundPropertyInt Name="rotateStepNinety" Value="0" />
      </BoundProperties>
    </ImageClip>
    <ImageClip extentID="3621" gapBefore="0" mediaItemID="3617" duration="0.20000000000000001">
      <Effects />
      <Transitions />
      <BoundProperties>
        <BoundPropertyInt Name="rotateStepNinety" Value="0" />
      </BoundProperties>
    </ImageClip>
    <ImageClip extentID="3622" gapBefore="0" mediaItemID="3618" duration="0.20000000000000001">
      <Effects />
      <Transitions />
      <BoundProperties>
        <BoundPropertyInt Name="rotateStepNinety" Value="0" />
      </BoundProperties>
    </ImageClip>
    <ImageClip extentID="3623" gapBefore="0" mediaItemID="3619" duration="0.20000000000000001">
      <Effects />
      <Transitions />
      <BoundProperties>
        <BoundPropertyInt Name="rotateStepNinety" Value="0" />
      </BoundProperties>
    </ImageClip>
    <ImageClip extentID="3624" gapBefore="0" mediaItemID="3620" duration="0.20000000000000001">
      <Effects />
      <Transitions />
      <BoundProperties>
        <BoundPropertyInt Name="rotateStepNinety" Value="0" />
      </BoundProperties>
    </ImageClip>
    <ImageClip extentID="3625" gapBefore="0" mediaItemID="3621" duration="0.20000000000000001">
      <Effects />
      <Transitions />
      <BoundProperties>
        <BoundPropertyInt Name="rotateStepNinety" Value="0" />
      </BoundProperties>
    </ImageClip>
    <ImageClip extentID="3626" gapBefore="0" mediaItemID="3622" duration="0.20000000000000001">
      <Effects />
      <Transitions />
      <BoundProperties>
        <BoundPropertyInt Name="rotateStepNinety" Value="0" />
      </BoundProperties>
    </ImageClip>
    <ImageClip extentID="3627" gapBefore="0" mediaItemID="3623" duration="0.20000000000000001">
      <Effects />
      <Transitions />
      <BoundProperties>
        <BoundPropertyInt Name="rotateStepNinety" Value="0" />
      </BoundProperties>
    </ImageClip>
    <ImageClip extentID="3628" gapBefore="0" mediaItemID="3624" duration="0.20000000000000001">
      <Effects />
      <Transitions />
      <BoundProperties>
        <BoundPropertyInt Name="rotateStepNinety" Value="0" />
      </BoundProperties>
    </ImageClip>
    <ImageClip extentID="3629" gapBefore="0" mediaItemID="3625" duration="0.20000000000000001">
      <Effects />
      <Transitions />
      <BoundProperties>
        <BoundPropertyInt Name="rotateStepNinety" Value="0" />
      </BoundProperties>
    </ImageClip>
    <ImageClip extentID="3630" gapBefore="0" mediaItemID="3626" duration="0.20000000000000001">
      <Effects />
      <Transitions />
      <BoundProperties>
        <BoundPropertyInt Name="rotateStepNinety" Value="0" />
      </BoundProperties>
    </ImageClip>
    <ImageClip extentID="3631" gapBefore="0" mediaItemID="3627" duration="0.20000000000000001">
      <Effects />
      <Transitions />
      <BoundProperties>
        <BoundPropertyInt Name="rotateStepNinety" Value="0" />
      </BoundProperties>
    </ImageClip>
    <ImageClip extentID="3632" gapBefore="0" mediaItemID="3628" duration="0.20000000000000001">
      <Effects />
      <Transitions />
      <BoundProperties>
        <BoundPropertyInt Name="rotateStepNinety" Value="0" />
      </BoundProperties>
    </ImageClip>
    <ImageClip extentID="3633" gapBefore="0" mediaItemID="3629" duration="0.20000000000000001">
      <Effects />
      <Transitions />
      <BoundProperties>
        <BoundPropertyInt Name="rotateStepNinety" Value="0" />
      </BoundProperties>
    </ImageClip>
    <ImageClip extentID="3634" gapBefore="0" mediaItemID="3630" duration="0.20000000000000001">
      <Effects />
      <Transitions />
      <BoundProperties>
        <BoundPropertyInt Name="rotateStepNinety" Value="0" />
      </BoundProperties>
    </ImageClip>
    <ImageClip extentID="3635" gapBefore="0" mediaItemID="3631" duration="0.20000000000000001">
      <Effects />
      <Transitions />
      <BoundProperties>
        <BoundPropertyInt Name="rotateStepNinety" Value="0" />
      </BoundProperties>
    </ImageClip>
    <ImageClip extentID="3636" gapBefore="0" mediaItemID="3632" duration="0.20000000000000001">
      <Effects />
      <Transitions />
      <BoundProperties>
        <BoundPropertyInt Name="rotateStepNinety" Value="0" />
      </BoundProperties>
    </ImageClip>
    <ImageClip extentID="3637" gapBefore="0" mediaItemID="3633" duration="0.20000000000000001">
      <Effects />
      <Transitions />
      <BoundProperties>
        <BoundPropertyInt Name="rotateStepNinety" Value="0" />
      </BoundProperties>
    </ImageClip>
    <ImageClip extentID="3638" gapBefore="0" mediaItemID="3634" duration="0.20000000000000001">
      <Effects />
      <Transitions />
      <BoundProperties>
        <BoundPropertyInt Name="rotateStepNinety" Value="0" />
      </BoundProperties>
    </ImageClip>
    <ImageClip extentID="3639" gapBefore="0" mediaItemID="3635" duration="0.20000000000000001">
      <Effects />
      <Transitions />
      <BoundProperties>
        <BoundPropertyInt Name="rotateStepNinety" Value="0" />
      </BoundProperties>
    </ImageClip>
    <ImageClip extentID="3640" gapBefore="0" mediaItemID="3636" duration="0.20000000000000001">
      <Effects />
      <Transitions />
      <BoundProperties>
        <BoundPropertyInt Name="rotateStepNinety" Value="0" />
      </BoundProperties>
    </ImageClip>
    <ImageClip extentID="3641" gapBefore="0" mediaItemID="3637" duration="0.20000000000000001">
      <Effects />
      <Transitions />
      <BoundProperties>
        <BoundPropertyInt Name="rotateStepNinety" Value="0" />
      </BoundProperties>
    </ImageClip>
    <ImageClip extentID="3642" gapBefore="0" mediaItemID="3638" duration="0.20000000000000001">
      <Effects />
      <Transitions />
      <BoundProperties>
        <BoundPropertyInt Name="rotateStepNinety" Value="0" />
      </BoundProperties>
    </ImageClip>
    <ImageClip extentID="3643" gapBefore="0" mediaItemID="3639" duration="0.20000000000000001">
      <Effects />
      <Transitions />
      <BoundProperties>
        <BoundPropertyInt Name="rotateStepNinety" Value="0" />
      </BoundProperties>
    </ImageClip>
    <ImageClip extentID="3644" gapBefore="0" mediaItemID="3640" duration="0.20000000000000001">
      <Effects />
      <Transitions />
      <BoundProperties>
        <BoundPropertyInt Name="rotateStepNinety" Value="0" />
      </BoundProperties>
    </ImageClip>
    <ImageClip extentID="3645" gapBefore="0" mediaItemID="3641" duration="0.20000000000000001">
      <Effects />
      <Transitions />
      <BoundProperties>
        <BoundPropertyInt Name="rotateStepNinety" Value="0" />
      </BoundProperties>
    </ImageClip>
    <ImageClip extentID="3646" gapBefore="0" mediaItemID="3642" duration="0.20000000000000001">
      <Effects />
      <Transitions />
      <BoundProperties>
        <BoundPropertyInt Name="rotateStepNinety" Value="0" />
      </BoundProperties>
    </ImageClip>
    <ImageClip extentID="3647" gapBefore="0" mediaItemID="3643" duration="0.20000000000000001">
      <Effects />
      <Transitions />
      <BoundProperties>
        <BoundPropertyInt Name="rotateStepNinety" Value="0" />
      </BoundProperties>
    </ImageClip>
    <ImageClip extentID="3648" gapBefore="0" mediaItemID="3644" duration="0.20000000000000001">
      <Effects />
      <Transitions />
      <BoundProperties>
        <BoundPropertyInt Name="rotateStepNinety" Value="0" />
      </BoundProperties>
    </ImageClip>
    <ImageClip extentID="3649" gapBefore="0" mediaItemID="3645" duration="0.20000000000000001">
      <Effects />
      <Transitions />
      <BoundProperties>
        <BoundPropertyInt Name="rotateStepNinety" Value="0" />
      </BoundProperties>
    </ImageClip>
    <ImageClip extentID="3650" gapBefore="0" mediaItemID="3646" duration="0.20000000000000001">
      <Effects />
      <Transitions />
      <BoundProperties>
        <BoundPropertyInt Name="rotateStepNinety" Value="0" />
      </BoundProperties>
    </ImageClip>
    <ImageClip extentID="3651" gapBefore="0" mediaItemID="3647" duration="0.20000000000000001">
      <Effects />
      <Transitions />
      <BoundProperties>
        <BoundPropertyInt Name="rotateStepNinety" Value="0" />
      </BoundProperties>
    </ImageClip>
    <ImageClip extentID="3652" gapBefore="0" mediaItemID="3648" duration="0.20000000000000001">
      <Effects />
      <Transitions />
      <BoundProperties>
        <BoundPropertyInt Name="rotateStepNinety" Value="0" />
      </BoundProperties>
    </ImageClip>
    <ImageClip extentID="3653" gapBefore="0" mediaItemID="3649" duration="0.20000000000000001">
      <Effects />
      <Transitions />
      <BoundProperties>
        <BoundPropertyInt Name="rotateStepNinety" Value="0" />
      </BoundProperties>
    </ImageClip>
    <ImageClip extentID="3654" gapBefore="0" mediaItemID="3650" duration="0.20000000000000001">
      <Effects />
      <Transitions />
      <BoundProperties>
        <BoundPropertyInt Name="rotateStepNinety" Value="0" />
      </BoundProperties>
    </ImageClip>
    <ImageClip extentID="3655" gapBefore="0" mediaItemID="3651" duration="0.20000000000000001">
      <Effects />
      <Transitions />
      <BoundProperties>
        <BoundPropertyInt Name="rotateStepNinety" Value="0" />
      </BoundProperties>
    </ImageClip>
    <ImageClip extentID="3656" gapBefore="0" mediaItemID="3652" duration="0.20000000000000001">
      <Effects />
      <Transitions />
      <BoundProperties>
        <BoundPropertyInt Name="rotateStepNinety" Value="0" />
      </BoundProperties>
    </ImageClip>
    <ImageClip extentID="3657" gapBefore="0" mediaItemID="3653" duration="0.20000000000000001">
      <Effects />
      <Transitions />
      <BoundProperties>
        <BoundPropertyInt Name="rotateStepNinety" Value="0" />
      </BoundProperties>
    </ImageClip>
    <ImageClip extentID="3658" gapBefore="0" mediaItemID="3654" duration="0.20000000000000001">
      <Effects />
      <Transitions />
      <BoundProperties>
        <BoundPropertyInt Name="rotateStepNinety" Value="0" />
      </BoundProperties>
    </ImageClip>
    <ImageClip extentID="3659" gapBefore="0" mediaItemID="3655" duration="0.20000000000000001">
      <Effects />
      <Transitions />
      <BoundProperties>
        <BoundPropertyInt Name="rotateStepNinety" Value="0" />
      </BoundProperties>
    </ImageClip>
    <ImageClip extentID="3660" gapBefore="0" mediaItemID="3656" duration="0.20000000000000001">
      <Effects />
      <Transitions />
      <BoundProperties>
        <BoundPropertyInt Name="rotateStepNinety" Value="0" />
      </BoundProperties>
    </ImageClip>
    <ImageClip extentID="3661" gapBefore="0" mediaItemID="3657" duration="0.20000000000000001">
      <Effects />
      <Transitions />
      <BoundProperties>
        <BoundPropertyInt Name="rotateStepNinety" Value="0" />
      </BoundProperties>
    </ImageClip>
    <ImageClip extentID="3662" gapBefore="0" mediaItemID="3658" duration="0.20000000000000001">
      <Effects />
      <Transitions />
      <BoundProperties>
        <BoundPropertyInt Name="rotateStepNinety" Value="0" />
      </BoundProperties>
    </ImageClip>
    <ImageClip extentID="3663" gapBefore="0" mediaItemID="3659" duration="0.20000000000000001">
      <Effects />
      <Transitions />
      <BoundProperties>
        <BoundPropertyInt Name="rotateStepNinety" Value="0" />
      </BoundProperties>
    </ImageClip>
    <ImageClip extentID="3664" gapBefore="0" mediaItemID="3660" duration="0.20000000000000001">
      <Effects />
      <Transitions />
      <BoundProperties>
        <BoundPropertyInt Name="rotateStepNinety" Value="0" />
      </BoundProperties>
    </ImageClip>
    <ImageClip extentID="3665" gapBefore="0" mediaItemID="3661" duration="0.20000000000000001">
      <Effects />
      <Transitions />
      <BoundProperties>
        <BoundPropertyInt Name="rotateStepNinety" Value="0" />
      </BoundProperties>
    </ImageClip>
    <ImageClip extentID="3666" gapBefore="0" mediaItemID="3662" duration="0.20000000000000001">
      <Effects />
      <Transitions />
      <BoundProperties>
        <BoundPropertyInt Name="rotateStepNinety" Value="0" />
      </BoundProperties>
    </ImageClip>
    <ImageClip extentID="3667" gapBefore="0" mediaItemID="3663" duration="0.20000000000000001">
      <Effects />
      <Transitions />
      <BoundProperties>
        <BoundPropertyInt Name="rotateStepNinety" Value="0" />
      </BoundProperties>
    </ImageClip>
    <ImageClip extentID="3668" gapBefore="0" mediaItemID="3664" duration="0.20000000000000001">
      <Effects />
      <Transitions />
      <BoundProperties>
        <BoundPropertyInt Name="rotateStepNinety" Value="0" />
      </BoundProperties>
    </ImageClip>
    <ImageClip extentID="3669" gapBefore="0" mediaItemID="3665" duration="0.20000000000000001">
      <Effects />
      <Transitions />
      <BoundProperties>
        <BoundPropertyInt Name="rotateStepNinety" Value="0" />
      </BoundProperties>
    </ImageClip>
    <ImageClip extentID="3670" gapBefore="0" mediaItemID="3666" duration="0.20000000000000001">
      <Effects />
      <Transitions />
      <BoundProperties>
        <BoundPropertyInt Name="rotateStepNinety" Value="0" />
      </BoundProperties>
    </ImageClip>
    <ImageClip extentID="3671" gapBefore="0" mediaItemID="3667" duration="0.20000000000000001">
      <Effects />
      <Transitions />
      <BoundProperties>
        <BoundPropertyInt Name="rotateStepNinety" Value="0" />
      </BoundProperties>
    </ImageClip>
    <ImageClip extentID="3672" gapBefore="0" mediaItemID="3668" duration="0.20000000000000001">
      <Effects />
      <Transitions />
      <BoundProperties>
        <BoundPropertyInt Name="rotateStepNinety" Value="0" />
      </BoundProperties>
    </ImageClip>
    <ImageClip extentID="3673" gapBefore="0" mediaItemID="3669" duration="0.20000000000000001">
      <Effects />
      <Transitions />
      <BoundProperties>
        <BoundPropertyInt Name="rotateStepNinety" Value="0" />
      </BoundProperties>
    </ImageClip>
    <ImageClip extentID="3674" gapBefore="0" mediaItemID="3670" duration="0.20000000000000001">
      <Effects />
      <Transitions />
      <BoundProperties>
        <BoundPropertyInt Name="rotateStepNinety" Value="0" />
      </BoundProperties>
    </ImageClip>
    <ImageClip extentID="3675" gapBefore="0" mediaItemID="3671" duration="0.20000000000000001">
      <Effects />
      <Transitions />
      <BoundProperties>
        <BoundPropertyInt Name="rotateStepNinety" Value="0" />
      </BoundProperties>
    </ImageClip>
    <ImageClip extentID="3676" gapBefore="0" mediaItemID="3672" duration="0.20000000000000001">
      <Effects />
      <Transitions />
      <BoundProperties>
        <BoundPropertyInt Name="rotateStepNinety" Value="0" />
      </BoundProperties>
    </ImageClip>
    <ImageClip extentID="3677" gapBefore="0" mediaItemID="3673" duration="0.20000000000000001">
      <Effects />
      <Transitions />
      <BoundProperties>
        <BoundPropertyInt Name="rotateStepNinety" Value="0" />
      </BoundProperties>
    </ImageClip>
    <ImageClip extentID="3678" gapBefore="0" mediaItemID="3674" duration="0.20000000000000001">
      <Effects />
      <Transitions />
      <BoundProperties>
        <BoundPropertyInt Name="rotateStepNinety" Value="0" />
      </BoundProperties>
    </ImageClip>
    <ImageClip extentID="3679" gapBefore="0" mediaItemID="3675" duration="0.20000000000000001">
      <Effects />
      <Transitions />
      <BoundProperties>
        <BoundPropertyInt Name="rotateStepNinety" Value="0" />
      </BoundProperties>
    </ImageClip>
    <ImageClip extentID="3680" gapBefore="0" mediaItemID="3676" duration="0.20000000000000001">
      <Effects />
      <Transitions />
      <BoundProperties>
        <BoundPropertyInt Name="rotateStepNinety" Value="0" />
      </BoundProperties>
    </ImageClip>
    <ImageClip extentID="3681" gapBefore="0" mediaItemID="3677" duration="0.20000000000000001">
      <Effects />
      <Transitions />
      <BoundProperties>
        <BoundPropertyInt Name="rotateStepNinety" Value="0" />
      </BoundProperties>
    </ImageClip>
    <ImageClip extentID="3682" gapBefore="0" mediaItemID="3678" duration="0.20000000000000001">
      <Effects />
      <Transitions />
      <BoundProperties>
        <BoundPropertyInt Name="rotateStepNinety" Value="0" />
      </BoundProperties>
    </ImageClip>
    <ImageClip extentID="3683" gapBefore="0" mediaItemID="3679" duration="0.20000000000000001">
      <Effects />
      <Transitions />
      <BoundProperties>
        <BoundPropertyInt Name="rotateStepNinety" Value="0" />
      </BoundProperties>
    </ImageClip>
    <ImageClip extentID="3684" gapBefore="0" mediaItemID="3680" duration="0.20000000000000001">
      <Effects />
      <Transitions />
      <BoundProperties>
        <BoundPropertyInt Name="rotateStepNinety" Value="0" />
      </BoundProperties>
    </ImageClip>
    <ImageClip extentID="3685" gapBefore="0" mediaItemID="3681" duration="0.20000000000000001">
      <Effects />
      <Transitions />
      <BoundProperties>
        <BoundPropertyInt Name="rotateStepNinety" Value="0" />
      </BoundProperties>
    </ImageClip>
    <ImageClip extentID="3686" gapBefore="0" mediaItemID="3682" duration="0.20000000000000001">
      <Effects />
      <Transitions />
      <BoundProperties>
        <BoundPropertyInt Name="rotateStepNinety" Value="0" />
      </BoundProperties>
    </ImageClip>
    <ImageClip extentID="3687" gapBefore="0" mediaItemID="3683" duration="0.20000000000000001">
      <Effects />
      <Transitions />
      <BoundProperties>
        <BoundPropertyInt Name="rotateStepNinety" Value="0" />
      </BoundProperties>
    </ImageClip>
    <ImageClip extentID="3688" gapBefore="0" mediaItemID="3684" duration="0.20000000000000001">
      <Effects />
      <Transitions />
      <BoundProperties>
        <BoundPropertyInt Name="rotateStepNinety" Value="0" />
      </BoundProperties>
    </ImageClip>
    <ImageClip extentID="3689" gapBefore="0" mediaItemID="3685" duration="0.20000000000000001">
      <Effects />
      <Transitions />
      <BoundProperties>
        <BoundPropertyInt Name="rotateStepNinety" Value="0" />
      </BoundProperties>
    </ImageClip>
    <ImageClip extentID="3690" gapBefore="0" mediaItemID="3686" duration="0.20000000000000001">
      <Effects />
      <Transitions />
      <BoundProperties>
        <BoundPropertyInt Name="rotateStepNinety" Value="0" />
      </BoundProperties>
    </ImageClip>
    <ImageClip extentID="3691" gapBefore="0" mediaItemID="3687" duration="0.20000000000000001">
      <Effects />
      <Transitions />
      <BoundProperties>
        <BoundPropertyInt Name="rotateStepNinety" Value="0" />
      </BoundProperties>
    </ImageClip>
    <ImageClip extentID="3692" gapBefore="0" mediaItemID="3688" duration="0.20000000000000001">
      <Effects />
      <Transitions />
      <BoundProperties>
        <BoundPropertyInt Name="rotateStepNinety" Value="0" />
      </BoundProperties>
    </ImageClip>
    <ImageClip extentID="3693" gapBefore="0" mediaItemID="3689" duration="0.20000000000000001">
      <Effects />
      <Transitions />
      <BoundProperties>
        <BoundPropertyInt Name="rotateStepNinety" Value="0" />
      </BoundProperties>
    </ImageClip>
    <ImageClip extentID="3694" gapBefore="0" mediaItemID="3690" duration="0.20000000000000001">
      <Effects />
      <Transitions />
      <BoundProperties>
        <BoundPropertyInt Name="rotateStepNinety" Value="0" />
      </BoundProperties>
    </ImageClip>
    <ImageClip extentID="3695" gapBefore="0" mediaItemID="3691" duration="0.20000000000000001">
      <Effects />
      <Transitions />
      <BoundProperties>
        <BoundPropertyInt Name="rotateStepNinety" Value="0" />
      </BoundProperties>
    </ImageClip>
    <ImageClip extentID="3696" gapBefore="0" mediaItemID="3692" duration="0.20000000000000001">
      <Effects />
      <Transitions />
      <BoundProperties>
        <BoundPropertyInt Name="rotateStepNinety" Value="0" />
      </BoundProperties>
    </ImageClip>
    <ImageClip extentID="3697" gapBefore="0" mediaItemID="3693" duration="0.20000000000000001">
      <Effects />
      <Transitions />
      <BoundProperties>
        <BoundPropertyInt Name="rotateStepNinety" Value="0" />
      </BoundProperties>
    </ImageClip>
    <ImageClip extentID="3698" gapBefore="0" mediaItemID="3694" duration="0.20000000000000001">
      <Effects />
      <Transitions />
      <BoundProperties>
        <BoundPropertyInt Name="rotateStepNinety" Value="0" />
      </BoundProperties>
    </ImageClip>
    <ImageClip extentID="3699" gapBefore="0" mediaItemID="3695" duration="0.20000000000000001">
      <Effects />
      <Transitions />
      <BoundProperties>
        <BoundPropertyInt Name="rotateStepNinety" Value="0" />
      </BoundProperties>
    </ImageClip>
    <ImageClip extentID="3700" gapBefore="0" mediaItemID="3696" duration="0.20000000000000001">
      <Effects />
      <Transitions />
      <BoundProperties>
        <BoundPropertyInt Name="rotateStepNinety" Value="0" />
      </BoundProperties>
    </ImageClip>
    <ImageClip extentID="3701" gapBefore="0" mediaItemID="3697" duration="0.20000000000000001">
      <Effects />
      <Transitions />
      <BoundProperties>
        <BoundPropertyInt Name="rotateStepNinety" Value="0" />
      </BoundProperties>
    </ImageClip>
    <ImageClip extentID="3702" gapBefore="0" mediaItemID="3698" duration="0.20000000000000001">
      <Effects />
      <Transitions />
      <BoundProperties>
        <BoundPropertyInt Name="rotateStepNinety" Value="0" />
      </BoundProperties>
    </ImageClip>
    <ImageClip extentID="3703" gapBefore="0" mediaItemID="3699" duration="0.20000000000000001">
      <Effects />
      <Transitions />
      <BoundProperties>
        <BoundPropertyInt Name="rotateStepNinety" Value="0" />
      </BoundProperties>
    </ImageClip>
    <ImageClip extentID="3704" gapBefore="0" mediaItemID="3700" duration="0.20000000000000001">
      <Effects />
      <Transitions />
      <BoundProperties>
        <BoundPropertyInt Name="rotateStepNinety" Value="0" />
      </BoundProperties>
    </ImageClip>
    <ImageClip extentID="3705" gapBefore="0" mediaItemID="3701" duration="0.20000000000000001">
      <Effects />
      <Transitions />
      <BoundProperties>
        <BoundPropertyInt Name="rotateStepNinety" Value="0" />
      </BoundProperties>
    </ImageClip>
    <ImageClip extentID="3706" gapBefore="0" mediaItemID="3702" duration="0.20000000000000001">
      <Effects />
      <Transitions />
      <BoundProperties>
        <BoundPropertyInt Name="rotateStepNinety" Value="0" />
      </BoundProperties>
    </ImageClip>
    <ImageClip extentID="3707" gapBefore="0" mediaItemID="3703" duration="0.20000000000000001">
      <Effects />
      <Transitions />
      <BoundProperties>
        <BoundPropertyInt Name="rotateStepNinety" Value="0" />
      </BoundProperties>
    </ImageClip>
    <ImageClip extentID="3708" gapBefore="0" mediaItemID="3704" duration="0.20000000000000001">
      <Effects />
      <Transitions />
      <BoundProperties>
        <BoundPropertyInt Name="rotateStepNinety" Value="0" />
      </BoundProperties>
    </ImageClip>
    <ImageClip extentID="3709" gapBefore="0" mediaItemID="3705" duration="0.20000000000000001">
      <Effects />
      <Transitions />
      <BoundProperties>
        <BoundPropertyInt Name="rotateStepNinety" Value="0" />
      </BoundProperties>
    </ImageClip>
    <ImageClip extentID="3710" gapBefore="0" mediaItemID="3706" duration="0.20000000000000001">
      <Effects />
      <Transitions />
      <BoundProperties>
        <BoundPropertyInt Name="rotateStepNinety" Value="0" />
      </BoundProperties>
    </ImageClip>
    <ImageClip extentID="3711" gapBefore="0" mediaItemID="3707" duration="0.20000000000000001">
      <Effects />
      <Transitions />
      <BoundProperties>
        <BoundPropertyInt Name="rotateStepNinety" Value="0" />
      </BoundProperties>
    </ImageClip>
    <ImageClip extentID="3712" gapBefore="0" mediaItemID="3708" duration="0.20000000000000001">
      <Effects />
      <Transitions />
      <BoundProperties>
        <BoundPropertyInt Name="rotateStepNinety" Value="0" />
      </BoundProperties>
    </ImageClip>
    <ImageClip extentID="3713" gapBefore="0" mediaItemID="3709" duration="0.20000000000000001">
      <Effects />
      <Transitions />
      <BoundProperties>
        <BoundPropertyInt Name="rotateStepNinety" Value="0" />
      </BoundProperties>
    </ImageClip>
    <ImageClip extentID="3714" gapBefore="0" mediaItemID="3710" duration="0.20000000000000001">
      <Effects />
      <Transitions />
      <BoundProperties>
        <BoundPropertyInt Name="rotateStepNinety" Value="0" />
      </BoundProperties>
    </ImageClip>
    <ImageClip extentID="3715" gapBefore="0" mediaItemID="3711" duration="0.20000000000000001">
      <Effects />
      <Transitions />
      <BoundProperties>
        <BoundPropertyInt Name="rotateStepNinety" Value="0" />
      </BoundProperties>
    </ImageClip>
    <ImageClip extentID="3716" gapBefore="0" mediaItemID="3712" duration="0.20000000000000001">
      <Effects />
      <Transitions />
      <BoundProperties>
        <BoundPropertyInt Name="rotateStepNinety" Value="0" />
      </BoundProperties>
    </ImageClip>
    <ImageClip extentID="3717" gapBefore="0" mediaItemID="3713" duration="0.20000000000000001">
      <Effects />
      <Transitions />
      <BoundProperties>
        <BoundPropertyInt Name="rotateStepNinety" Value="0" />
      </BoundProperties>
    </ImageClip>
    <ImageClip extentID="3718" gapBefore="0" mediaItemID="3714" duration="0.20000000000000001">
      <Effects />
      <Transitions />
      <BoundProperties>
        <BoundPropertyInt Name="rotateStepNinety" Value="0" />
      </BoundProperties>
    </ImageClip>
    <ImageClip extentID="3719" gapBefore="0" mediaItemID="3715" duration="0.20000000000000001">
      <Effects />
      <Transitions />
      <BoundProperties>
        <BoundPropertyInt Name="rotateStepNinety" Value="0" />
      </BoundProperties>
    </ImageClip>
    <ImageClip extentID="3720" gapBefore="0" mediaItemID="3716" duration="0.20000000000000001">
      <Effects />
      <Transitions />
      <BoundProperties>
        <BoundPropertyInt Name="rotateStepNinety" Value="0" />
      </BoundProperties>
    </ImageClip>
    <ImageClip extentID="3721" gapBefore="0" mediaItemID="3717" duration="0.20000000000000001">
      <Effects />
      <Transitions />
      <BoundProperties>
        <BoundPropertyInt Name="rotateStepNinety" Value="0" />
      </BoundProperties>
    </ImageClip>
    <ImageClip extentID="3722" gapBefore="0" mediaItemID="3718" duration="0.20000000000000001">
      <Effects />
      <Transitions />
      <BoundProperties>
        <BoundPropertyInt Name="rotateStepNinety" Value="0" />
      </BoundProperties>
    </ImageClip>
    <ImageClip extentID="3723" gapBefore="0" mediaItemID="3719" duration="0.20000000000000001">
      <Effects />
      <Transitions />
      <BoundProperties>
        <BoundPropertyInt Name="rotateStepNinety" Value="0" />
      </BoundProperties>
    </ImageClip>
    <ImageClip extentID="3724" gapBefore="0" mediaItemID="3720" duration="0.20000000000000001">
      <Effects />
      <Transitions />
      <BoundProperties>
        <BoundPropertyInt Name="rotateStepNinety" Value="0" />
      </BoundProperties>
    </ImageClip>
    <ImageClip extentID="3725" gapBefore="0" mediaItemID="3721" duration="0.20000000000000001">
      <Effects />
      <Transitions />
      <BoundProperties>
        <BoundPropertyInt Name="rotateStepNinety" Value="0" />
      </BoundProperties>
    </ImageClip>
    <ImageClip extentID="3726" gapBefore="0" mediaItemID="3722" duration="0.20000000000000001">
      <Effects />
      <Transitions />
      <BoundProperties>
        <BoundPropertyInt Name="rotateStepNinety" Value="0" />
      </BoundProperties>
    </ImageClip>
    <ImageClip extentID="3727" gapBefore="0" mediaItemID="3723" duration="0.20000000000000001">
      <Effects />
      <Transitions />
      <BoundProperties>
        <BoundPropertyInt Name="rotateStepNinety" Value="0" />
      </BoundProperties>
    </ImageClip>
    <ImageClip extentID="3728" gapBefore="0" mediaItemID="3724" duration="0.20000000000000001">
      <Effects />
      <Transitions />
      <BoundProperties>
        <BoundPropertyInt Name="rotateStepNinety" Value="0" />
      </BoundProperties>
    </ImageClip>
    <ImageClip extentID="3729" gapBefore="0" mediaItemID="3725" duration="0.20000000000000001">
      <Effects />
      <Transitions />
      <BoundProperties>
        <BoundPropertyInt Name="rotateStepNinety" Value="0" />
      </BoundProperties>
    </ImageClip>
    <ImageClip extentID="3730" gapBefore="0" mediaItemID="3726" duration="0.20000000000000001">
      <Effects />
      <Transitions />
      <BoundProperties>
        <BoundPropertyInt Name="rotateStepNinety" Value="0" />
      </BoundProperties>
    </ImageClip>
    <ImageClip extentID="3731" gapBefore="0" mediaItemID="3727" duration="0.20000000000000001">
      <Effects />
      <Transitions />
      <BoundProperties>
        <BoundPropertyInt Name="rotateStepNinety" Value="0" />
      </BoundProperties>
    </ImageClip>
    <ImageClip extentID="3732" gapBefore="0" mediaItemID="3728" duration="0.20000000000000001">
      <Effects />
      <Transitions />
      <BoundProperties>
        <BoundPropertyInt Name="rotateStepNinety" Value="0" />
      </BoundProperties>
    </ImageClip>
    <ImageClip extentID="3733" gapBefore="0" mediaItemID="3729" duration="0.20000000000000001">
      <Effects />
      <Transitions />
      <BoundProperties>
        <BoundPropertyInt Name="rotateStepNinety" Value="0" />
      </BoundProperties>
    </ImageClip>
    <ImageClip extentID="3734" gapBefore="0" mediaItemID="3730" duration="0.20000000000000001">
      <Effects />
      <Transitions />
      <BoundProperties>
        <BoundPropertyInt Name="rotateStepNinety" Value="0" />
      </BoundProperties>
    </ImageClip>
    <ImageClip extentID="3735" gapBefore="0" mediaItemID="3731" duration="0.20000000000000001">
      <Effects />
      <Transitions />
      <BoundProperties>
        <BoundPropertyInt Name="rotateStepNinety" Value="0" />
      </BoundProperties>
    </ImageClip>
    <ImageClip extentID="3736" gapBefore="0" mediaItemID="3732" duration="0.20000000000000001">
      <Effects />
      <Transitions />
      <BoundProperties>
        <BoundPropertyInt Name="rotateStepNinety" Value="0" />
      </BoundProperties>
    </ImageClip>
    <ImageClip extentID="3737" gapBefore="0" mediaItemID="3733" duration="0.20000000000000001">
      <Effects />
      <Transitions />
      <BoundProperties>
        <BoundPropertyInt Name="rotateStepNinety" Value="0" />
      </BoundProperties>
    </ImageClip>
    <ImageClip extentID="3738" gapBefore="0" mediaItemID="3734" duration="0.20000000000000001">
      <Effects />
      <Transitions />
      <BoundProperties>
        <BoundPropertyInt Name="rotateStepNinety" Value="0" />
      </BoundProperties>
    </ImageClip>
    <ImageClip extentID="3739" gapBefore="0" mediaItemID="3735" duration="0.20000000000000001">
      <Effects />
      <Transitions />
      <BoundProperties>
        <BoundPropertyInt Name="rotateStepNinety" Value="0" />
      </BoundProperties>
    </ImageClip>
    <ImageClip extentID="3740" gapBefore="0" mediaItemID="3736" duration="0.20000000000000001">
      <Effects />
      <Transitions />
      <BoundProperties>
        <BoundPropertyInt Name="rotateStepNinety" Value="0" />
      </BoundProperties>
    </ImageClip>
    <ImageClip extentID="3741" gapBefore="0" mediaItemID="3737" duration="0.20000000000000001">
      <Effects />
      <Transitions />
      <BoundProperties>
        <BoundPropertyInt Name="rotateStepNinety" Value="0" />
      </BoundProperties>
    </ImageClip>
    <ImageClip extentID="3742" gapBefore="0" mediaItemID="3738" duration="0.20000000000000001">
      <Effects />
      <Transitions />
      <BoundProperties>
        <BoundPropertyInt Name="rotateStepNinety" Value="0" />
      </BoundProperties>
    </ImageClip>
    <ImageClip extentID="3743" gapBefore="0" mediaItemID="3739" duration="0.20000000000000001">
      <Effects />
      <Transitions />
      <BoundProperties>
        <BoundPropertyInt Name="rotateStepNinety" Value="0" />
      </BoundProperties>
    </ImageClip>
    <ImageClip extentID="3744" gapBefore="0" mediaItemID="3740" duration="0.20000000000000001">
      <Effects />
      <Transitions />
      <BoundProperties>
        <BoundPropertyInt Name="rotateStepNinety" Value="0" />
      </BoundProperties>
    </ImageClip>
    <ImageClip extentID="3745" gapBefore="0" mediaItemID="3741" duration="0.20000000000000001">
      <Effects />
      <Transitions />
      <BoundProperties>
        <BoundPropertyInt Name="rotateStepNinety" Value="0" />
      </BoundProperties>
    </ImageClip>
    <ImageClip extentID="3746" gapBefore="0" mediaItemID="3742" duration="0.20000000000000001">
      <Effects />
      <Transitions />
      <BoundProperties>
        <BoundPropertyInt Name="rotateStepNinety" Value="0" />
      </BoundProperties>
    </ImageClip>
    <ImageClip extentID="3747" gapBefore="0" mediaItemID="3743" duration="0.20000000000000001">
      <Effects />
      <Transitions />
      <BoundProperties>
        <BoundPropertyInt Name="rotateStepNinety" Value="0" />
      </BoundProperties>
    </ImageClip>
    <ImageClip extentID="3748" gapBefore="0" mediaItemID="3744" duration="0.20000000000000001">
      <Effects />
      <Transitions />
      <BoundProperties>
        <BoundPropertyInt Name="rotateStepNinety" Value="0" />
      </BoundProperties>
    </ImageClip>
    <ImageClip extentID="3749" gapBefore="0" mediaItemID="3745" duration="0.20000000000000001">
      <Effects />
      <Transitions />
      <BoundProperties>
        <BoundPropertyInt Name="rotateStepNinety" Value="0" />
      </BoundProperties>
    </ImageClip>
    <ImageClip extentID="3750" gapBefore="0" mediaItemID="3746" duration="0.20000000000000001">
      <Effects />
      <Transitions />
      <BoundProperties>
        <BoundPropertyInt Name="rotateStepNinety" Value="0" />
      </BoundProperties>
    </ImageClip>
    <ImageClip extentID="3751" gapBefore="0" mediaItemID="3747" duration="0.20000000000000001">
      <Effects />
      <Transitions />
      <BoundProperties>
        <BoundPropertyInt Name="rotateStepNinety" Value="0" />
      </BoundProperties>
    </ImageClip>
    <ImageClip extentID="3752" gapBefore="0" mediaItemID="3748" duration="0.20000000000000001">
      <Effects />
      <Transitions />
      <BoundProperties>
        <BoundPropertyInt Name="rotateStepNinety" Value="0" />
      </BoundProperties>
    </ImageClip>
    <ImageClip extentID="3753" gapBefore="0" mediaItemID="3749" duration="0.20000000000000001">
      <Effects />
      <Transitions />
      <BoundProperties>
        <BoundPropertyInt Name="rotateStepNinety" Value="0" />
      </BoundProperties>
    </ImageClip>
    <ImageClip extentID="3754" gapBefore="0" mediaItemID="3750" duration="0.20000000000000001">
      <Effects />
      <Transitions />
      <BoundProperties>
        <BoundPropertyInt Name="rotateStepNinety" Value="0" />
      </BoundProperties>
    </ImageClip>
    <ImageClip extentID="3755" gapBefore="0" mediaItemID="3751" duration="0.20000000000000001">
      <Effects />
      <Transitions />
      <BoundProperties>
        <BoundPropertyInt Name="rotateStepNinety" Value="0" />
      </BoundProperties>
    </ImageClip>
    <ImageClip extentID="3756" gapBefore="0" mediaItemID="3752" duration="0.20000000000000001">
      <Effects />
      <Transitions />
      <BoundProperties>
        <BoundPropertyInt Name="rotateStepNinety" Value="0" />
      </BoundProperties>
    </ImageClip>
    <ImageClip extentID="3757" gapBefore="0" mediaItemID="3753" duration="0.20000000000000001">
      <Effects />
      <Transitions />
      <BoundProperties>
        <BoundPropertyInt Name="rotateStepNinety" Value="0" />
      </BoundProperties>
    </ImageClip>
    <ImageClip extentID="3758" gapBefore="0" mediaItemID="3754" duration="0.20000000000000001">
      <Effects />
      <Transitions />
      <BoundProperties>
        <BoundPropertyInt Name="rotateStepNinety" Value="0" />
      </BoundProperties>
    </ImageClip>
    <ImageClip extentID="3759" gapBefore="0" mediaItemID="3755" duration="0.20000000000000001">
      <Effects />
      <Transitions />
      <BoundProperties>
        <BoundPropertyInt Name="rotateStepNinety" Value="0" />
      </BoundProperties>
    </ImageClip>
    <ImageClip extentID="3760" gapBefore="0" mediaItemID="3756" duration="0.20000000000000001">
      <Effects />
      <Transitions />
      <BoundProperties>
        <BoundPropertyInt Name="rotateStepNinety" Value="0" />
      </BoundProperties>
    </ImageClip>
    <ImageClip extentID="3761" gapBefore="0" mediaItemID="3757" duration="0.20000000000000001">
      <Effects />
      <Transitions />
      <BoundProperties>
        <BoundPropertyInt Name="rotateStepNinety" Value="0" />
      </BoundProperties>
    </ImageClip>
    <ImageClip extentID="3762" gapBefore="0" mediaItemID="3758" duration="0.20000000000000001">
      <Effects />
      <Transitions />
      <BoundProperties>
        <BoundPropertyInt Name="rotateStepNinety" Value="0" />
      </BoundProperties>
    </ImageClip>
    <ImageClip extentID="3763" gapBefore="0" mediaItemID="3759" duration="0.20000000000000001">
      <Effects />
      <Transitions />
      <BoundProperties>
        <BoundPropertyInt Name="rotateStepNinety" Value="0" />
      </BoundProperties>
    </ImageClip>
    <ImageClip extentID="3764" gapBefore="0" mediaItemID="3760" duration="0.20000000000000001">
      <Effects />
      <Transitions />
      <BoundProperties>
        <BoundPropertyInt Name="rotateStepNinety" Value="0" />
      </BoundProperties>
    </ImageClip>
    <ImageClip extentID="3765" gapBefore="0" mediaItemID="3761" duration="0.20000000000000001">
      <Effects />
      <Transitions />
      <BoundProperties>
        <BoundPropertyInt Name="rotateStepNinety" Value="0" />
      </BoundProperties>
    </ImageClip>
    <ImageClip extentID="3766" gapBefore="0" mediaItemID="3762" duration="0.20000000000000001">
      <Effects />
      <Transitions />
      <BoundProperties>
        <BoundPropertyInt Name="rotateStepNinety" Value="0" />
      </BoundProperties>
    </ImageClip>
    <ImageClip extentID="3767" gapBefore="0" mediaItemID="3763" duration="0.20000000000000001">
      <Effects />
      <Transitions />
      <BoundProperties>
        <BoundPropertyInt Name="rotateStepNinety" Value="0" />
      </BoundProperties>
    </ImageClip>
    <ImageClip extentID="3768" gapBefore="0" mediaItemID="3764" duration="0.20000000000000001">
      <Effects />
      <Transitions />
      <BoundProperties>
        <BoundPropertyInt Name="rotateStepNinety" Value="0" />
      </BoundProperties>
    </ImageClip>
    <ImageClip extentID="3769" gapBefore="0" mediaItemID="3765" duration="0.20000000000000001">
      <Effects />
      <Transitions />
      <BoundProperties>
        <BoundPropertyInt Name="rotateStepNinety" Value="0" />
      </BoundProperties>
    </ImageClip>
    <ImageClip extentID="3770" gapBefore="0" mediaItemID="3766" duration="0.20000000000000001">
      <Effects />
      <Transitions />
      <BoundProperties>
        <BoundPropertyInt Name="rotateStepNinety" Value="0" />
      </BoundProperties>
    </ImageClip>
    <ImageClip extentID="3771" gapBefore="0" mediaItemID="3767" duration="0.20000000000000001">
      <Effects />
      <Transitions />
      <BoundProperties>
        <BoundPropertyInt Name="rotateStepNinety" Value="0" />
      </BoundProperties>
    </ImageClip>
    <ImageClip extentID="3772" gapBefore="0" mediaItemID="3768" duration="0.20000000000000001">
      <Effects />
      <Transitions />
      <BoundProperties>
        <BoundPropertyInt Name="rotateStepNinety" Value="0" />
      </BoundProperties>
    </ImageClip>
    <ImageClip extentID="3773" gapBefore="0" mediaItemID="3769" duration="0.20000000000000001">
      <Effects />
      <Transitions />
      <BoundProperties>
        <BoundPropertyInt Name="rotateStepNinety" Value="0" />
      </BoundProperties>
    </ImageClip>
    <ImageClip extentID="3774" gapBefore="0" mediaItemID="3770" duration="0.20000000000000001">
      <Effects />
      <Transitions />
      <BoundProperties>
        <BoundPropertyInt Name="rotateStepNinety" Value="0" />
      </BoundProperties>
    </ImageClip>
    <ImageClip extentID="3775" gapBefore="0" mediaItemID="3771" duration="0.20000000000000001">
      <Effects />
      <Transitions />
      <BoundProperties>
        <BoundPropertyInt Name="rotateStepNinety" Value="0" />
      </BoundProperties>
    </ImageClip>
    <ImageClip extentID="3776" gapBefore="0" mediaItemID="3772" duration="0.20000000000000001">
      <Effects />
      <Transitions />
      <BoundProperties>
        <BoundPropertyInt Name="rotateStepNinety" Value="0" />
      </BoundProperties>
    </ImageClip>
    <ImageClip extentID="3777" gapBefore="0" mediaItemID="3773" duration="0.20000000000000001">
      <Effects />
      <Transitions />
      <BoundProperties>
        <BoundPropertyInt Name="rotateStepNinety" Value="0" />
      </BoundProperties>
    </ImageClip>
    <ImageClip extentID="3778" gapBefore="0" mediaItemID="3774" duration="0.20000000000000001">
      <Effects />
      <Transitions />
      <BoundProperties>
        <BoundPropertyInt Name="rotateStepNinety" Value="0" />
      </BoundProperties>
    </ImageClip>
    <ImageClip extentID="3779" gapBefore="0" mediaItemID="3775" duration="0.20000000000000001">
      <Effects />
      <Transitions />
      <BoundProperties>
        <BoundPropertyInt Name="rotateStepNinety" Value="0" />
      </BoundProperties>
    </ImageClip>
    <ImageClip extentID="3780" gapBefore="0" mediaItemID="3776" duration="0.20000000000000001">
      <Effects />
      <Transitions />
      <BoundProperties>
        <BoundPropertyInt Name="rotateStepNinety" Value="0" />
      </BoundProperties>
    </ImageClip>
    <ImageClip extentID="3781" gapBefore="0" mediaItemID="3777" duration="0.20000000000000001">
      <Effects />
      <Transitions />
      <BoundProperties>
        <BoundPropertyInt Name="rotateStepNinety" Value="0" />
      </BoundProperties>
    </ImageClip>
    <ImageClip extentID="3782" gapBefore="0" mediaItemID="3778" duration="0.20000000000000001">
      <Effects />
      <Transitions />
      <BoundProperties>
        <BoundPropertyInt Name="rotateStepNinety" Value="0" />
      </BoundProperties>
    </ImageClip>
    <ImageClip extentID="3783" gapBefore="0" mediaItemID="3779" duration="0.20000000000000001">
      <Effects />
      <Transitions />
      <BoundProperties>
        <BoundPropertyInt Name="rotateStepNinety" Value="0" />
      </BoundProperties>
    </ImageClip>
    <ImageClip extentID="3784" gapBefore="0" mediaItemID="3780" duration="0.20000000000000001">
      <Effects />
      <Transitions />
      <BoundProperties>
        <BoundPropertyInt Name="rotateStepNinety" Value="0" />
      </BoundProperties>
    </ImageClip>
    <ImageClip extentID="3785" gapBefore="0" mediaItemID="3781" duration="0.20000000000000001">
      <Effects />
      <Transitions />
      <BoundProperties>
        <BoundPropertyInt Name="rotateStepNinety" Value="0" />
      </BoundProperties>
    </ImageClip>
    <ImageClip extentID="3786" gapBefore="0" mediaItemID="3782" duration="0.20000000000000001">
      <Effects />
      <Transitions />
      <BoundProperties>
        <BoundPropertyInt Name="rotateStepNinety" Value="0" />
      </BoundProperties>
    </ImageClip>
    <ImageClip extentID="3787" gapBefore="0" mediaItemID="3783" duration="0.20000000000000001">
      <Effects />
      <Transitions />
      <BoundProperties>
        <BoundPropertyInt Name="rotateStepNinety" Value="0" />
      </BoundProperties>
    </ImageClip>
    <ImageClip extentID="3788" gapBefore="0" mediaItemID="3784" duration="0.20000000000000001">
      <Effects />
      <Transitions />
      <BoundProperties>
        <BoundPropertyInt Name="rotateStepNinety" Value="0" />
      </BoundProperties>
    </ImageClip>
    <ImageClip extentID="3789" gapBefore="0" mediaItemID="3785" duration="0.20000000000000001">
      <Effects />
      <Transitions />
      <BoundProperties>
        <BoundPropertyInt Name="rotateStepNinety" Value="0" />
      </BoundProperties>
    </ImageClip>
    <ImageClip extentID="3790" gapBefore="0" mediaItemID="3786" duration="0.20000000000000001">
      <Effects />
      <Transitions />
      <BoundProperties>
        <BoundPropertyInt Name="rotateStepNinety" Value="0" />
      </BoundProperties>
    </ImageClip>
    <ImageClip extentID="3791" gapBefore="0" mediaItemID="3787" duration="0.20000000000000001">
      <Effects />
      <Transitions />
      <BoundProperties>
        <BoundPropertyInt Name="rotateStepNinety" Value="0" />
      </BoundProperties>
    </ImageClip>
    <ImageClip extentID="3792" gapBefore="0" mediaItemID="3788" duration="0.20000000000000001">
      <Effects />
      <Transitions />
      <BoundProperties>
        <BoundPropertyInt Name="rotateStepNinety" Value="0" />
      </BoundProperties>
    </ImageClip>
    <ImageClip extentID="3793" gapBefore="0" mediaItemID="3789" duration="0.20000000000000001">
      <Effects />
      <Transitions />
      <BoundProperties>
        <BoundPropertyInt Name="rotateStepNinety" Value="0" />
      </BoundProperties>
    </ImageClip>
    <ImageClip extentID="3794" gapBefore="0" mediaItemID="3790" duration="0.20000000000000001">
      <Effects />
      <Transitions />
      <BoundProperties>
        <BoundPropertyInt Name="rotateStepNinety" Value="0" />
      </BoundProperties>
    </ImageClip>
    <ImageClip extentID="3795" gapBefore="0" mediaItemID="3791" duration="0.20000000000000001">
      <Effects />
      <Transitions />
      <BoundProperties>
        <BoundPropertyInt Name="rotateStepNinety" Value="0" />
      </BoundProperties>
    </ImageClip>
    <ImageClip extentID="3796" gapBefore="0" mediaItemID="3792" duration="0.20000000000000001">
      <Effects />
      <Transitions />
      <BoundProperties>
        <BoundPropertyInt Name="rotateStepNinety" Value="0" />
      </BoundProperties>
    </ImageClip>
    <ImageClip extentID="3797" gapBefore="0" mediaItemID="3793" duration="0.20000000000000001">
      <Effects />
      <Transitions />
      <BoundProperties>
        <BoundPropertyInt Name="rotateStepNinety" Value="0" />
      </BoundProperties>
    </ImageClip>
    <ImageClip extentID="3798" gapBefore="0" mediaItemID="3794" duration="0.20000000000000001">
      <Effects />
      <Transitions />
      <BoundProperties>
        <BoundPropertyInt Name="rotateStepNinety" Value="0" />
      </BoundProperties>
    </ImageClip>
    <ImageClip extentID="3799" gapBefore="0" mediaItemID="3795" duration="0.20000000000000001">
      <Effects />
      <Transitions />
      <BoundProperties>
        <BoundPropertyInt Name="rotateStepNinety" Value="0" />
      </BoundProperties>
    </ImageClip>
    <ImageClip extentID="3800" gapBefore="0" mediaItemID="3796" duration="0.20000000000000001">
      <Effects />
      <Transitions />
      <BoundProperties>
        <BoundPropertyInt Name="rotateStepNinety" Value="0" />
      </BoundProperties>
    </ImageClip>
    <ImageClip extentID="3801" gapBefore="0" mediaItemID="3797" duration="0.20000000000000001">
      <Effects />
      <Transitions />
      <BoundProperties>
        <BoundPropertyInt Name="rotateStepNinety" Value="0" />
      </BoundProperties>
    </ImageClip>
    <ImageClip extentID="3802" gapBefore="0" mediaItemID="3798" duration="0.20000000000000001">
      <Effects />
      <Transitions />
      <BoundProperties>
        <BoundPropertyInt Name="rotateStepNinety" Value="0" />
      </BoundProperties>
    </ImageClip>
    <ImageClip extentID="3803" gapBefore="0" mediaItemID="3799" duration="0.20000000000000001">
      <Effects />
      <Transitions />
      <BoundProperties>
        <BoundPropertyInt Name="rotateStepNinety" Value="0" />
      </BoundProperties>
    </ImageClip>
    <ImageClip extentID="3804" gapBefore="0" mediaItemID="3800" duration="0.20000000000000001">
      <Effects />
      <Transitions />
      <BoundProperties>
        <BoundPropertyInt Name="rotateStepNinety" Value="0" />
      </BoundProperties>
    </ImageClip>
    <ImageClip extentID="3805" gapBefore="0" mediaItemID="3801" duration="0.20000000000000001">
      <Effects />
      <Transitions />
      <BoundProperties>
        <BoundPropertyInt Name="rotateStepNinety" Value="0" />
      </BoundProperties>
    </ImageClip>
    <ImageClip extentID="3806" gapBefore="0" mediaItemID="3802" duration="0.20000000000000001">
      <Effects />
      <Transitions />
      <BoundProperties>
        <BoundPropertyInt Name="rotateStepNinety" Value="0" />
      </BoundProperties>
    </ImageClip>
    <ImageClip extentID="3807" gapBefore="0" mediaItemID="3803" duration="0.20000000000000001">
      <Effects />
      <Transitions />
      <BoundProperties>
        <BoundPropertyInt Name="rotateStepNinety" Value="0" />
      </BoundProperties>
    </ImageClip>
    <ImageClip extentID="3808" gapBefore="0" mediaItemID="3804" duration="0.20000000000000001">
      <Effects />
      <Transitions />
      <BoundProperties>
        <BoundPropertyInt Name="rotateStepNinety" Value="0" />
      </BoundProperties>
    </ImageClip>
    <ImageClip extentID="3809" gapBefore="0" mediaItemID="3805" duration="0.20000000000000001">
      <Effects />
      <Transitions />
      <BoundProperties>
        <BoundPropertyInt Name="rotateStepNinety" Value="0" />
      </BoundProperties>
    </ImageClip>
    <ImageClip extentID="3810" gapBefore="0" mediaItemID="3806" duration="0.20000000000000001">
      <Effects />
      <Transitions />
      <BoundProperties>
        <BoundPropertyInt Name="rotateStepNinety" Value="0" />
      </BoundProperties>
    </ImageClip>
    <ImageClip extentID="3811" gapBefore="0" mediaItemID="3807" duration="0.20000000000000001">
      <Effects />
      <Transitions />
      <BoundProperties>
        <BoundPropertyInt Name="rotateStepNinety" Value="0" />
      </BoundProperties>
    </ImageClip>
    <ImageClip extentID="3812" gapBefore="0" mediaItemID="3808" duration="0.20000000000000001">
      <Effects />
      <Transitions />
      <BoundProperties>
        <BoundPropertyInt Name="rotateStepNinety" Value="0" />
      </BoundProperties>
    </ImageClip>
    <ImageClip extentID="3813" gapBefore="0" mediaItemID="3809" duration="0.20000000000000001">
      <Effects />
      <Transitions />
      <BoundProperties>
        <BoundPropertyInt Name="rotateStepNinety" Value="0" />
      </BoundProperties>
    </ImageClip>
    <ImageClip extentID="3814" gapBefore="0" mediaItemID="3810" duration="0.20000000000000001">
      <Effects />
      <Transitions />
      <BoundProperties>
        <BoundPropertyInt Name="rotateStepNinety" Value="0" />
      </BoundProperties>
    </ImageClip>
    <ImageClip extentID="3815" gapBefore="0" mediaItemID="3811" duration="0.20000000000000001">
      <Effects />
      <Transitions />
      <BoundProperties>
        <BoundPropertyInt Name="rotateStepNinety" Value="0" />
      </BoundProperties>
    </ImageClip>
    <ImageClip extentID="3816" gapBefore="0" mediaItemID="3812" duration="0.20000000000000001">
      <Effects />
      <Transitions />
      <BoundProperties>
        <BoundPropertyInt Name="rotateStepNinety" Value="0" />
      </BoundProperties>
    </ImageClip>
    <ImageClip extentID="3817" gapBefore="0" mediaItemID="3813" duration="0.20000000000000001">
      <Effects />
      <Transitions />
      <BoundProperties>
        <BoundPropertyInt Name="rotateStepNinety" Value="0" />
      </BoundProperties>
    </ImageClip>
    <ImageClip extentID="3818" gapBefore="0" mediaItemID="3814" duration="0.20000000000000001">
      <Effects />
      <Transitions />
      <BoundProperties>
        <BoundPropertyInt Name="rotateStepNinety" Value="0" />
      </BoundProperties>
    </ImageClip>
    <ImageClip extentID="3819" gapBefore="0" mediaItemID="3815" duration="0.20000000000000001">
      <Effects />
      <Transitions />
      <BoundProperties>
        <BoundPropertyInt Name="rotateStepNinety" Value="0" />
      </BoundProperties>
    </ImageClip>
    <ImageClip extentID="3820" gapBefore="0" mediaItemID="3816" duration="0.20000000000000001">
      <Effects />
      <Transitions />
      <BoundProperties>
        <BoundPropertyInt Name="rotateStepNinety" Value="0" />
      </BoundProperties>
    </ImageClip>
    <ImageClip extentID="3821" gapBefore="0" mediaItemID="3817" duration="0.20000000000000001">
      <Effects />
      <Transitions />
      <BoundProperties>
        <BoundPropertyInt Name="rotateStepNinety" Value="0" />
      </BoundProperties>
    </ImageClip>
    <ImageClip extentID="3822" gapBefore="0" mediaItemID="3818" duration="0.20000000000000001">
      <Effects />
      <Transitions />
      <BoundProperties>
        <BoundPropertyInt Name="rotateStepNinety" Value="0" />
      </BoundProperties>
    </ImageClip>
    <ImageClip extentID="3823" gapBefore="0" mediaItemID="3819" duration="0.20000000000000001">
      <Effects />
      <Transitions />
      <BoundProperties>
        <BoundPropertyInt Name="rotateStepNinety" Value="0" />
      </BoundProperties>
    </ImageClip>
    <ImageClip extentID="3824" gapBefore="0" mediaItemID="3820" duration="0.20000000000000001">
      <Effects />
      <Transitions />
      <BoundProperties>
        <BoundPropertyInt Name="rotateStepNinety" Value="0" />
      </BoundProperties>
    </ImageClip>
    <ImageClip extentID="3825" gapBefore="0" mediaItemID="3821" duration="0.20000000000000001">
      <Effects />
      <Transitions />
      <BoundProperties>
        <BoundPropertyInt Name="rotateStepNinety" Value="0" />
      </BoundProperties>
    </ImageClip>
    <ImageClip extentID="3826" gapBefore="0" mediaItemID="3822" duration="0.20000000000000001">
      <Effects />
      <Transitions />
      <BoundProperties>
        <BoundPropertyInt Name="rotateStepNinety" Value="0" />
      </BoundProperties>
    </ImageClip>
    <ImageClip extentID="3827" gapBefore="0" mediaItemID="3823" duration="0.20000000000000001">
      <Effects />
      <Transitions />
      <BoundProperties>
        <BoundPropertyInt Name="rotateStepNinety" Value="0" />
      </BoundProperties>
    </ImageClip>
    <ImageClip extentID="3828" gapBefore="0" mediaItemID="3824" duration="0.20000000000000001">
      <Effects />
      <Transitions />
      <BoundProperties>
        <BoundPropertyInt Name="rotateStepNinety" Value="0" />
      </BoundProperties>
    </ImageClip>
    <ImageClip extentID="3829" gapBefore="0" mediaItemID="3825" duration="0.20000000000000001">
      <Effects />
      <Transitions />
      <BoundProperties>
        <BoundPropertyInt Name="rotateStepNinety" Value="0" />
      </BoundProperties>
    </ImageClip>
    <ImageClip extentID="3830" gapBefore="0" mediaItemID="3826" duration="0.20000000000000001">
      <Effects />
      <Transitions />
      <BoundProperties>
        <BoundPropertyInt Name="rotateStepNinety" Value="0" />
      </BoundProperties>
    </ImageClip>
    <ImageClip extentID="3831" gapBefore="0" mediaItemID="3827" duration="0.20000000000000001">
      <Effects />
      <Transitions />
      <BoundProperties>
        <BoundPropertyInt Name="rotateStepNinety" Value="0" />
      </BoundProperties>
    </ImageClip>
    <ImageClip extentID="3832" gapBefore="0" mediaItemID="3828" duration="0.20000000000000001">
      <Effects />
      <Transitions />
      <BoundProperties>
        <BoundPropertyInt Name="rotateStepNinety" Value="0" />
      </BoundProperties>
    </ImageClip>
    <ImageClip extentID="3833" gapBefore="0" mediaItemID="3829" duration="0.20000000000000001">
      <Effects />
      <Transitions />
      <BoundProperties>
        <BoundPropertyInt Name="rotateStepNinety" Value="0" />
      </BoundProperties>
    </ImageClip>
    <ImageClip extentID="3834" gapBefore="0" mediaItemID="3830" duration="0.20000000000000001">
      <Effects />
      <Transitions />
      <BoundProperties>
        <BoundPropertyInt Name="rotateStepNinety" Value="0" />
      </BoundProperties>
    </ImageClip>
    <ImageClip extentID="3835" gapBefore="0" mediaItemID="3831" duration="0.20000000000000001">
      <Effects />
      <Transitions />
      <BoundProperties>
        <BoundPropertyInt Name="rotateStepNinety" Value="0" />
      </BoundProperties>
    </ImageClip>
    <ImageClip extentID="3836" gapBefore="0" mediaItemID="3832" duration="0.20000000000000001">
      <Effects />
      <Transitions />
      <BoundProperties>
        <BoundPropertyInt Name="rotateStepNinety" Value="0" />
      </BoundProperties>
    </ImageClip>
    <ImageClip extentID="3837" gapBefore="0" mediaItemID="3833" duration="0.20000000000000001">
      <Effects />
      <Transitions />
      <BoundProperties>
        <BoundPropertyInt Name="rotateStepNinety" Value="0" />
      </BoundProperties>
    </ImageClip>
    <ImageClip extentID="3838" gapBefore="0" mediaItemID="3834" duration="0.20000000000000001">
      <Effects />
      <Transitions />
      <BoundProperties>
        <BoundPropertyInt Name="rotateStepNinety" Value="0" />
      </BoundProperties>
    </ImageClip>
    <ImageClip extentID="3839" gapBefore="0" mediaItemID="3835" duration="0.20000000000000001">
      <Effects />
      <Transitions />
      <BoundProperties>
        <BoundPropertyInt Name="rotateStepNinety" Value="0" />
      </BoundProperties>
    </ImageClip>
    <ImageClip extentID="3840" gapBefore="0" mediaItemID="3836" duration="0.20000000000000001">
      <Effects />
      <Transitions />
      <BoundProperties>
        <BoundPropertyInt Name="rotateStepNinety" Value="0" />
      </BoundProperties>
    </ImageClip>
    <ImageClip extentID="3841" gapBefore="0" mediaItemID="3837" duration="0.20000000000000001">
      <Effects />
      <Transitions />
      <BoundProperties>
        <BoundPropertyInt Name="rotateStepNinety" Value="0" />
      </BoundProperties>
    </ImageClip>
    <ImageClip extentID="3842" gapBefore="0" mediaItemID="3838" duration="0.20000000000000001">
      <Effects />
      <Transitions />
      <BoundProperties>
        <BoundPropertyInt Name="rotateStepNinety" Value="0" />
      </BoundProperties>
    </ImageClip>
    <ImageClip extentID="3843" gapBefore="0" mediaItemID="3839" duration="0.20000000000000001">
      <Effects />
      <Transitions />
      <BoundProperties>
        <BoundPropertyInt Name="rotateStepNinety" Value="0" />
      </BoundProperties>
    </ImageClip>
    <ImageClip extentID="3844" gapBefore="0" mediaItemID="3840" duration="0.20000000000000001">
      <Effects />
      <Transitions />
      <BoundProperties>
        <BoundPropertyInt Name="rotateStepNinety" Value="0" />
      </BoundProperties>
    </ImageClip>
    <ImageClip extentID="3845" gapBefore="0" mediaItemID="3841" duration="0.20000000000000001">
      <Effects />
      <Transitions />
      <BoundProperties>
        <BoundPropertyInt Name="rotateStepNinety" Value="0" />
      </BoundProperties>
    </ImageClip>
    <ImageClip extentID="3846" gapBefore="0" mediaItemID="3842" duration="0.20000000000000001">
      <Effects />
      <Transitions />
      <BoundProperties>
        <BoundPropertyInt Name="rotateStepNinety" Value="0" />
      </BoundProperties>
    </ImageClip>
    <ImageClip extentID="3847" gapBefore="0" mediaItemID="3843" duration="0.20000000000000001">
      <Effects />
      <Transitions />
      <BoundProperties>
        <BoundPropertyInt Name="rotateStepNinety" Value="0" />
      </BoundProperties>
    </ImageClip>
    <ImageClip extentID="3848" gapBefore="0" mediaItemID="3844" duration="0.20000000000000001">
      <Effects />
      <Transitions />
      <BoundProperties>
        <BoundPropertyInt Name="rotateStepNinety" Value="0" />
      </BoundProperties>
    </ImageClip>
    <ImageClip extentID="3849" gapBefore="0" mediaItemID="3845" duration="0.20000000000000001">
      <Effects />
      <Transitions />
      <BoundProperties>
        <BoundPropertyInt Name="rotateStepNinety" Value="0" />
      </BoundProperties>
    </ImageClip>
    <ImageClip extentID="3850" gapBefore="0" mediaItemID="3846" duration="0.20000000000000001">
      <Effects />
      <Transitions />
      <BoundProperties>
        <BoundPropertyInt Name="rotateStepNinety" Value="0" />
      </BoundProperties>
    </ImageClip>
    <ImageClip extentID="3851" gapBefore="0" mediaItemID="3847" duration="0.20000000000000001">
      <Effects />
      <Transitions />
      <BoundProperties>
        <BoundPropertyInt Name="rotateStepNinety" Value="0" />
      </BoundProperties>
    </ImageClip>
    <ImageClip extentID="3852" gapBefore="0" mediaItemID="3848" duration="0.20000000000000001">
      <Effects />
      <Transitions />
      <BoundProperties>
        <BoundPropertyInt Name="rotateStepNinety" Value="0" />
      </BoundProperties>
    </ImageClip>
    <ImageClip extentID="3853" gapBefore="0" mediaItemID="3849" duration="0.20000000000000001">
      <Effects />
      <Transitions />
      <BoundProperties>
        <BoundPropertyInt Name="rotateStepNinety" Value="0" />
      </BoundProperties>
    </ImageClip>
    <ImageClip extentID="3854" gapBefore="0" mediaItemID="3850" duration="0.20000000000000001">
      <Effects />
      <Transitions />
      <BoundProperties>
        <BoundPropertyInt Name="rotateStepNinety" Value="0" />
      </BoundProperties>
    </ImageClip>
    <ImageClip extentID="3855" gapBefore="0" mediaItemID="3851" duration="0.20000000000000001">
      <Effects />
      <Transitions />
      <BoundProperties>
        <BoundPropertyInt Name="rotateStepNinety" Value="0" />
      </BoundProperties>
    </ImageClip>
    <ImageClip extentID="3856" gapBefore="0" mediaItemID="3852" duration="0.20000000000000001">
      <Effects />
      <Transitions />
      <BoundProperties>
        <BoundPropertyInt Name="rotateStepNinety" Value="0" />
      </BoundProperties>
    </ImageClip>
    <ImageClip extentID="3857" gapBefore="0" mediaItemID="3853" duration="0.20000000000000001">
      <Effects />
      <Transitions />
      <BoundProperties>
        <BoundPropertyInt Name="rotateStepNinety" Value="0" />
      </BoundProperties>
    </ImageClip>
    <ImageClip extentID="3858" gapBefore="0" mediaItemID="3854" duration="0.20000000000000001">
      <Effects />
      <Transitions />
      <BoundProperties>
        <BoundPropertyInt Name="rotateStepNinety" Value="0" />
      </BoundProperties>
    </ImageClip>
    <ImageClip extentID="3859" gapBefore="0" mediaItemID="3855" duration="0.20000000000000001">
      <Effects />
      <Transitions />
      <BoundProperties>
        <BoundPropertyInt Name="rotateStepNinety" Value="0" />
      </BoundProperties>
    </ImageClip>
    <ImageClip extentID="3860" gapBefore="0" mediaItemID="3856" duration="0.20000000000000001">
      <Effects />
      <Transitions />
      <BoundProperties>
        <BoundPropertyInt Name="rotateStepNinety" Value="0" />
      </BoundProperties>
    </ImageClip>
    <ImageClip extentID="3861" gapBefore="0" mediaItemID="3857" duration="0.20000000000000001">
      <Effects />
      <Transitions />
      <BoundProperties>
        <BoundPropertyInt Name="rotateStepNinety" Value="0" />
      </BoundProperties>
    </ImageClip>
    <ImageClip extentID="3862" gapBefore="0" mediaItemID="3858" duration="0.20000000000000001">
      <Effects />
      <Transitions />
      <BoundProperties>
        <BoundPropertyInt Name="rotateStepNinety" Value="0" />
      </BoundProperties>
    </ImageClip>
    <ImageClip extentID="3863" gapBefore="0" mediaItemID="3859" duration="0.20000000000000001">
      <Effects />
      <Transitions />
      <BoundProperties>
        <BoundPropertyInt Name="rotateStepNinety" Value="0" />
      </BoundProperties>
    </ImageClip>
    <ImageClip extentID="3864" gapBefore="0" mediaItemID="3860" duration="0.20000000000000001">
      <Effects />
      <Transitions />
      <BoundProperties>
        <BoundPropertyInt Name="rotateStepNinety" Value="0" />
      </BoundProperties>
    </ImageClip>
    <ImageClip extentID="3865" gapBefore="0" mediaItemID="3861" duration="0.20000000000000001">
      <Effects />
      <Transitions />
      <BoundProperties>
        <BoundPropertyInt Name="rotateStepNinety" Value="0" />
      </BoundProperties>
    </ImageClip>
    <ImageClip extentID="3866" gapBefore="0" mediaItemID="3862" duration="0.20000000000000001">
      <Effects />
      <Transitions />
      <BoundProperties>
        <BoundPropertyInt Name="rotateStepNinety" Value="0" />
      </BoundProperties>
    </ImageClip>
    <ImageClip extentID="3867" gapBefore="0" mediaItemID="3863" duration="0.20000000000000001">
      <Effects />
      <Transitions />
      <BoundProperties>
        <BoundPropertyInt Name="rotateStepNinety" Value="0" />
      </BoundProperties>
    </ImageClip>
    <ImageClip extentID="3868" gapBefore="0" mediaItemID="3864" duration="0.20000000000000001">
      <Effects />
      <Transitions />
      <BoundProperties>
        <BoundPropertyInt Name="rotateStepNinety" Value="0" />
      </BoundProperties>
    </ImageClip>
    <ImageClip extentID="3869" gapBefore="0" mediaItemID="3865" duration="0.20000000000000001">
      <Effects />
      <Transitions />
      <BoundProperties>
        <BoundPropertyInt Name="rotateStepNinety" Value="0" />
      </BoundProperties>
    </ImageClip>
    <ImageClip extentID="3870" gapBefore="0" mediaItemID="3866" duration="0.20000000000000001">
      <Effects />
      <Transitions />
      <BoundProperties>
        <BoundPropertyInt Name="rotateStepNinety" Value="0" />
      </BoundProperties>
    </ImageClip>
    <ImageClip extentID="3871" gapBefore="0" mediaItemID="3867" duration="0.20000000000000001">
      <Effects />
      <Transitions />
      <BoundProperties>
        <BoundPropertyInt Name="rotateStepNinety" Value="0" />
      </BoundProperties>
    </ImageClip>
    <ImageClip extentID="3872" gapBefore="0" mediaItemID="3868" duration="0.20000000000000001">
      <Effects />
      <Transitions />
      <BoundProperties>
        <BoundPropertyInt Name="rotateStepNinety" Value="0" />
      </BoundProperties>
    </ImageClip>
    <ImageClip extentID="3873" gapBefore="0" mediaItemID="3869" duration="0.20000000000000001">
      <Effects />
      <Transitions />
      <BoundProperties>
        <BoundPropertyInt Name="rotateStepNinety" Value="0" />
      </BoundProperties>
    </ImageClip>
    <ImageClip extentID="3874" gapBefore="0" mediaItemID="3870" duration="0.20000000000000001">
      <Effects />
      <Transitions />
      <BoundProperties>
        <BoundPropertyInt Name="rotateStepNinety" Value="0" />
      </BoundProperties>
    </ImageClip>
    <ImageClip extentID="3875" gapBefore="0" mediaItemID="3871" duration="0.20000000000000001">
      <Effects />
      <Transitions />
      <BoundProperties>
        <BoundPropertyInt Name="rotateStepNinety" Value="0" />
      </BoundProperties>
    </ImageClip>
    <ImageClip extentID="3876" gapBefore="0" mediaItemID="3872" duration="0.20000000000000001">
      <Effects />
      <Transitions />
      <BoundProperties>
        <BoundPropertyInt Name="rotateStepNinety" Value="0" />
      </BoundProperties>
    </ImageClip>
    <ImageClip extentID="3877" gapBefore="0" mediaItemID="3873" duration="0.20000000000000001">
      <Effects />
      <Transitions />
      <BoundProperties>
        <BoundPropertyInt Name="rotateStepNinety" Value="0" />
      </BoundProperties>
    </ImageClip>
    <ImageClip extentID="3878" gapBefore="0" mediaItemID="3874" duration="0.20000000000000001">
      <Effects />
      <Transitions />
      <BoundProperties>
        <BoundPropertyInt Name="rotateStepNinety" Value="0" />
      </BoundProperties>
    </ImageClip>
    <ImageClip extentID="3879" gapBefore="0" mediaItemID="3875" duration="0.20000000000000001">
      <Effects />
      <Transitions />
      <BoundProperties>
        <BoundPropertyInt Name="rotateStepNinety" Value="0" />
      </BoundProperties>
    </ImageClip>
    <ImageClip extentID="3880" gapBefore="0" mediaItemID="3876" duration="0.20000000000000001">
      <Effects />
      <Transitions />
      <BoundProperties>
        <BoundPropertyInt Name="rotateStepNinety" Value="0" />
      </BoundProperties>
    </ImageClip>
    <ImageClip extentID="3881" gapBefore="0" mediaItemID="3877" duration="0.20000000000000001">
      <Effects />
      <Transitions />
      <BoundProperties>
        <BoundPropertyInt Name="rotateStepNinety" Value="0" />
      </BoundProperties>
    </ImageClip>
    <ImageClip extentID="3882" gapBefore="0" mediaItemID="3878" duration="0.20000000000000001">
      <Effects />
      <Transitions />
      <BoundProperties>
        <BoundPropertyInt Name="rotateStepNinety" Value="0" />
      </BoundProperties>
    </ImageClip>
    <ImageClip extentID="3883" gapBefore="0" mediaItemID="3879" duration="0.20000000000000001">
      <Effects />
      <Transitions />
      <BoundProperties>
        <BoundPropertyInt Name="rotateStepNinety" Value="0" />
      </BoundProperties>
    </ImageClip>
    <ImageClip extentID="3884" gapBefore="0" mediaItemID="3880" duration="0.20000000000000001">
      <Effects />
      <Transitions />
      <BoundProperties>
        <BoundPropertyInt Name="rotateStepNinety" Value="0" />
      </BoundProperties>
    </ImageClip>
    <ImageClip extentID="3885" gapBefore="0" mediaItemID="3881" duration="0.20000000000000001">
      <Effects />
      <Transitions />
      <BoundProperties>
        <BoundPropertyInt Name="rotateStepNinety" Value="0" />
      </BoundProperties>
    </ImageClip>
    <ImageClip extentID="3886" gapBefore="0" mediaItemID="3882" duration="0.20000000000000001">
      <Effects />
      <Transitions />
      <BoundProperties>
        <BoundPropertyInt Name="rotateStepNinety" Value="0" />
      </BoundProperties>
    </ImageClip>
    <ImageClip extentID="3887" gapBefore="0" mediaItemID="3883" duration="0.20000000000000001">
      <Effects />
      <Transitions />
      <BoundProperties>
        <BoundPropertyInt Name="rotateStepNinety" Value="0" />
      </BoundProperties>
    </ImageClip>
    <ImageClip extentID="3888" gapBefore="0" mediaItemID="3884" duration="0.20000000000000001">
      <Effects />
      <Transitions />
      <BoundProperties>
        <BoundPropertyInt Name="rotateStepNinety" Value="0" />
      </BoundProperties>
    </ImageClip>
    <ImageClip extentID="3889" gapBefore="0" mediaItemID="3885" duration="0.20000000000000001">
      <Effects />
      <Transitions />
      <BoundProperties>
        <BoundPropertyInt Name="rotateStepNinety" Value="0" />
      </BoundProperties>
    </ImageClip>
    <ImageClip extentID="3890" gapBefore="0" mediaItemID="3886" duration="0.20000000000000001">
      <Effects />
      <Transitions />
      <BoundProperties>
        <BoundPropertyInt Name="rotateStepNinety" Value="0" />
      </BoundProperties>
    </ImageClip>
    <ImageClip extentID="3891" gapBefore="0" mediaItemID="3887" duration="0.20000000000000001">
      <Effects />
      <Transitions />
      <BoundProperties>
        <BoundPropertyInt Name="rotateStepNinety" Value="0" />
      </BoundProperties>
    </ImageClip>
    <ImageClip extentID="3892" gapBefore="0" mediaItemID="3888" duration="0.20000000000000001">
      <Effects />
      <Transitions />
      <BoundProperties>
        <BoundPropertyInt Name="rotateStepNinety" Value="0" />
      </BoundProperties>
    </ImageClip>
    <ImageClip extentID="3893" gapBefore="0" mediaItemID="3889" duration="0.20000000000000001">
      <Effects />
      <Transitions />
      <BoundProperties>
        <BoundPropertyInt Name="rotateStepNinety" Value="0" />
      </BoundProperties>
    </ImageClip>
    <ImageClip extentID="3894" gapBefore="0" mediaItemID="3890" duration="0.20000000000000001">
      <Effects />
      <Transitions />
      <BoundProperties>
        <BoundPropertyInt Name="rotateStepNinety" Value="0" />
      </BoundProperties>
    </ImageClip>
    <ImageClip extentID="3895" gapBefore="0" mediaItemID="3891" duration="0.20000000000000001">
      <Effects />
      <Transitions />
      <BoundProperties>
        <BoundPropertyInt Name="rotateStepNinety" Value="0" />
      </BoundProperties>
    </ImageClip>
    <ImageClip extentID="3896" gapBefore="0" mediaItemID="3892" duration="0.20000000000000001">
      <Effects />
      <Transitions />
      <BoundProperties>
        <BoundPropertyInt Name="rotateStepNinety" Value="0" />
      </BoundProperties>
    </ImageClip>
    <ImageClip extentID="3897" gapBefore="0" mediaItemID="3893" duration="0.20000000000000001">
      <Effects />
      <Transitions />
      <BoundProperties>
        <BoundPropertyInt Name="rotateStepNinety" Value="0" />
      </BoundProperties>
    </ImageClip>
    <ImageClip extentID="3898" gapBefore="0" mediaItemID="3894" duration="0.20000000000000001">
      <Effects />
      <Transitions />
      <BoundProperties>
        <BoundPropertyInt Name="rotateStepNinety" Value="0" />
      </BoundProperties>
    </ImageClip>
    <ImageClip extentID="3899" gapBefore="0" mediaItemID="3895" duration="0.20000000000000001">
      <Effects />
      <Transitions />
      <BoundProperties>
        <BoundPropertyInt Name="rotateStepNinety" Value="0" />
      </BoundProperties>
    </ImageClip>
    <ImageClip extentID="3900" gapBefore="0" mediaItemID="3896" duration="0.20000000000000001">
      <Effects />
      <Transitions />
      <BoundProperties>
        <BoundPropertyInt Name="rotateStepNinety" Value="0" />
      </BoundProperties>
    </ImageClip>
    <ImageClip extentID="3901" gapBefore="0" mediaItemID="3897" duration="0.20000000000000001">
      <Effects />
      <Transitions />
      <BoundProperties>
        <BoundPropertyInt Name="rotateStepNinety" Value="0" />
      </BoundProperties>
    </ImageClip>
    <ImageClip extentID="3902" gapBefore="0" mediaItemID="3898" duration="0.20000000000000001">
      <Effects />
      <Transitions />
      <BoundProperties>
        <BoundPropertyInt Name="rotateStepNinety" Value="0" />
      </BoundProperties>
    </ImageClip>
    <ImageClip extentID="3903" gapBefore="0" mediaItemID="3899" duration="0.20000000000000001">
      <Effects />
      <Transitions />
      <BoundProperties>
        <BoundPropertyInt Name="rotateStepNinety" Value="0" />
      </BoundProperties>
    </ImageClip>
    <ImageClip extentID="3904" gapBefore="0" mediaItemID="3900" duration="0.20000000000000001">
      <Effects />
      <Transitions />
      <BoundProperties>
        <BoundPropertyInt Name="rotateStepNinety" Value="0" />
      </BoundProperties>
    </ImageClip>
    <ImageClip extentID="3905" gapBefore="0" mediaItemID="3901" duration="0.20000000000000001">
      <Effects />
      <Transitions />
      <BoundProperties>
        <BoundPropertyInt Name="rotateStepNinety" Value="0" />
      </BoundProperties>
    </ImageClip>
    <ImageClip extentID="3906" gapBefore="0" mediaItemID="3902" duration="0.20000000000000001">
      <Effects />
      <Transitions />
      <BoundProperties>
        <BoundPropertyInt Name="rotateStepNinety" Value="0" />
      </BoundProperties>
    </ImageClip>
    <ImageClip extentID="3907" gapBefore="0" mediaItemID="3903" duration="0.20000000000000001">
      <Effects />
      <Transitions />
      <BoundProperties>
        <BoundPropertyInt Name="rotateStepNinety" Value="0" />
      </BoundProperties>
    </ImageClip>
    <ImageClip extentID="3908" gapBefore="0" mediaItemID="3904" duration="0.20000000000000001">
      <Effects />
      <Transitions />
      <BoundProperties>
        <BoundPropertyInt Name="rotateStepNinety" Value="0" />
      </BoundProperties>
    </ImageClip>
    <ImageClip extentID="3909" gapBefore="0" mediaItemID="3905" duration="0.20000000000000001">
      <Effects />
      <Transitions />
      <BoundProperties>
        <BoundPropertyInt Name="rotateStepNinety" Value="0" />
      </BoundProperties>
    </ImageClip>
    <ImageClip extentID="3910" gapBefore="0" mediaItemID="3906" duration="0.20000000000000001">
      <Effects />
      <Transitions />
      <BoundProperties>
        <BoundPropertyInt Name="rotateStepNinety" Value="0" />
      </BoundProperties>
    </ImageClip>
    <ImageClip extentID="3911" gapBefore="0" mediaItemID="3907" duration="0.20000000000000001">
      <Effects />
      <Transitions />
      <BoundProperties>
        <BoundPropertyInt Name="rotateStepNinety" Value="0" />
      </BoundProperties>
    </ImageClip>
    <ImageClip extentID="3912" gapBefore="0" mediaItemID="3908" duration="0.20000000000000001">
      <Effects />
      <Transitions />
      <BoundProperties>
        <BoundPropertyInt Name="rotateStepNinety" Value="0" />
      </BoundProperties>
    </ImageClip>
    <ImageClip extentID="3913" gapBefore="0" mediaItemID="3909" duration="0.20000000000000001">
      <Effects />
      <Transitions />
      <BoundProperties>
        <BoundPropertyInt Name="rotateStepNinety" Value="0" />
      </BoundProperties>
    </ImageClip>
    <ImageClip extentID="3914" gapBefore="0" mediaItemID="3910" duration="0.20000000000000001">
      <Effects />
      <Transitions />
      <BoundProperties>
        <BoundPropertyInt Name="rotateStepNinety" Value="0" />
      </BoundProperties>
    </ImageClip>
    <ImageClip extentID="3915" gapBefore="0" mediaItemID="3911" duration="0.20000000000000001">
      <Effects />
      <Transitions />
      <BoundProperties>
        <BoundPropertyInt Name="rotateStepNinety" Value="0" />
      </BoundProperties>
    </ImageClip>
    <ImageClip extentID="3916" gapBefore="0" mediaItemID="3912" duration="0.20000000000000001">
      <Effects />
      <Transitions />
      <BoundProperties>
        <BoundPropertyInt Name="rotateStepNinety" Value="0" />
      </BoundProperties>
    </ImageClip>
    <ImageClip extentID="3917" gapBefore="0" mediaItemID="3913" duration="0.20000000000000001">
      <Effects />
      <Transitions />
      <BoundProperties>
        <BoundPropertyInt Name="rotateStepNinety" Value="0" />
      </BoundProperties>
    </ImageClip>
    <ImageClip extentID="3918" gapBefore="0" mediaItemID="3914" duration="0.20000000000000001">
      <Effects />
      <Transitions />
      <BoundProperties>
        <BoundPropertyInt Name="rotateStepNinety" Value="0" />
      </BoundProperties>
    </ImageClip>
    <ImageClip extentID="3919" gapBefore="0" mediaItemID="3915" duration="0.20000000000000001">
      <Effects />
      <Transitions />
      <BoundProperties>
        <BoundPropertyInt Name="rotateStepNinety" Value="0" />
      </BoundProperties>
    </ImageClip>
    <ImageClip extentID="3920" gapBefore="0" mediaItemID="3916" duration="0.20000000000000001">
      <Effects />
      <Transitions />
      <BoundProperties>
        <BoundPropertyInt Name="rotateStepNinety" Value="0" />
      </BoundProperties>
    </ImageClip>
    <ImageClip extentID="3921" gapBefore="0" mediaItemID="3917" duration="0.20000000000000001">
      <Effects />
      <Transitions />
      <BoundProperties>
        <BoundPropertyInt Name="rotateStepNinety" Value="0" />
      </BoundProperties>
    </ImageClip>
    <ImageClip extentID="3922" gapBefore="0" mediaItemID="3918" duration="0.20000000000000001">
      <Effects />
      <Transitions />
      <BoundProperties>
        <BoundPropertyInt Name="rotateStepNinety" Value="0" />
      </BoundProperties>
    </ImageClip>
    <ImageClip extentID="3923" gapBefore="0" mediaItemID="3919" duration="0.20000000000000001">
      <Effects />
      <Transitions />
      <BoundProperties>
        <BoundPropertyInt Name="rotateStepNinety" Value="0" />
      </BoundProperties>
    </ImageClip>
    <ImageClip extentID="3924" gapBefore="0" mediaItemID="3920" duration="0.20000000000000001">
      <Effects />
      <Transitions />
      <BoundProperties>
        <BoundPropertyInt Name="rotateStepNinety" Value="0" />
      </BoundProperties>
    </ImageClip>
    <ImageClip extentID="3925" gapBefore="0" mediaItemID="3921" duration="0.20000000000000001">
      <Effects />
      <Transitions />
      <BoundProperties>
        <BoundPropertyInt Name="rotateStepNinety" Value="0" />
      </BoundProperties>
    </ImageClip>
    <ImageClip extentID="3926" gapBefore="0" mediaItemID="3922" duration="0.20000000000000001">
      <Effects />
      <Transitions />
      <BoundProperties>
        <BoundPropertyInt Name="rotateStepNinety" Value="0" />
      </BoundProperties>
    </ImageClip>
    <ImageClip extentID="3927" gapBefore="0" mediaItemID="3923" duration="0.20000000000000001">
      <Effects />
      <Transitions />
      <BoundProperties>
        <BoundPropertyInt Name="rotateStepNinety" Value="0" />
      </BoundProperties>
    </ImageClip>
    <ImageClip extentID="3928" gapBefore="0" mediaItemID="3924" duration="0.20000000000000001">
      <Effects />
      <Transitions />
      <BoundProperties>
        <BoundPropertyInt Name="rotateStepNinety" Value="0" />
      </BoundProperties>
    </ImageClip>
    <ImageClip extentID="3929" gapBefore="0" mediaItemID="3925" duration="0.20000000000000001">
      <Effects />
      <Transitions />
      <BoundProperties>
        <BoundPropertyInt Name="rotateStepNinety" Value="0" />
      </BoundProperties>
    </ImageClip>
    <ImageClip extentID="3930" gapBefore="0" mediaItemID="3926" duration="0.20000000000000001">
      <Effects />
      <Transitions />
      <BoundProperties>
        <BoundPropertyInt Name="rotateStepNinety" Value="0" />
      </BoundProperties>
    </ImageClip>
    <ImageClip extentID="3931" gapBefore="0" mediaItemID="3927" duration="0.20000000000000001">
      <Effects />
      <Transitions />
      <BoundProperties>
        <BoundPropertyInt Name="rotateStepNinety" Value="0" />
      </BoundProperties>
    </ImageClip>
    <ImageClip extentID="3932" gapBefore="0" mediaItemID="3928" duration="0.20000000000000001">
      <Effects />
      <Transitions />
      <BoundProperties>
        <BoundPropertyInt Name="rotateStepNinety" Value="0" />
      </BoundProperties>
    </ImageClip>
    <ImageClip extentID="3933" gapBefore="0" mediaItemID="3929" duration="0.20000000000000001">
      <Effects />
      <Transitions />
      <BoundProperties>
        <BoundPropertyInt Name="rotateStepNinety" Value="0" />
      </BoundProperties>
    </ImageClip>
    <ImageClip extentID="3934" gapBefore="0" mediaItemID="3930" duration="0.20000000000000001">
      <Effects />
      <Transitions />
      <BoundProperties>
        <BoundPropertyInt Name="rotateStepNinety" Value="0" />
      </BoundProperties>
    </ImageClip>
    <ImageClip extentID="3935" gapBefore="0" mediaItemID="3931" duration="0.20000000000000001">
      <Effects />
      <Transitions />
      <BoundProperties>
        <BoundPropertyInt Name="rotateStepNinety" Value="0" />
      </BoundProperties>
    </ImageClip>
    <ImageClip extentID="3936" gapBefore="0" mediaItemID="3932" duration="0.20000000000000001">
      <Effects />
      <Transitions />
      <BoundProperties>
        <BoundPropertyInt Name="rotateStepNinety" Value="0" />
      </BoundProperties>
    </ImageClip>
    <ImageClip extentID="3937" gapBefore="0" mediaItemID="3933" duration="0.20000000000000001">
      <Effects />
      <Transitions />
      <BoundProperties>
        <BoundPropertyInt Name="rotateStepNinety" Value="0" />
      </BoundProperties>
    </ImageClip>
    <ImageClip extentID="3938" gapBefore="0" mediaItemID="3934" duration="0.20000000000000001">
      <Effects />
      <Transitions />
      <BoundProperties>
        <BoundPropertyInt Name="rotateStepNinety" Value="0" />
      </BoundProperties>
    </ImageClip>
    <ImageClip extentID="3939" gapBefore="0" mediaItemID="3935" duration="0.20000000000000001">
      <Effects />
      <Transitions />
      <BoundProperties>
        <BoundPropertyInt Name="rotateStepNinety" Value="0" />
      </BoundProperties>
    </ImageClip>
    <ImageClip extentID="3940" gapBefore="0" mediaItemID="3936" duration="0.20000000000000001">
      <Effects />
      <Transitions />
      <BoundProperties>
        <BoundPropertyInt Name="rotateStepNinety" Value="0" />
      </BoundProperties>
    </ImageClip>
    <ImageClip extentID="3941" gapBefore="0" mediaItemID="3937" duration="0.20000000000000001">
      <Effects />
      <Transitions />
      <BoundProperties>
        <BoundPropertyInt Name="rotateStepNinety" Value="0" />
      </BoundProperties>
    </ImageClip>
    <ImageClip extentID="3942" gapBefore="0" mediaItemID="3938" duration="0.20000000000000001">
      <Effects />
      <Transitions />
      <BoundProperties>
        <BoundPropertyInt Name="rotateStepNinety" Value="0" />
      </BoundProperties>
    </ImageClip>
    <ImageClip extentID="3943" gapBefore="0" mediaItemID="3939" duration="0.20000000000000001">
      <Effects />
      <Transitions />
      <BoundProperties>
        <BoundPropertyInt Name="rotateStepNinety" Value="0" />
      </BoundProperties>
    </ImageClip>
    <ImageClip extentID="3944" gapBefore="0" mediaItemID="3940" duration="0.20000000000000001">
      <Effects />
      <Transitions />
      <BoundProperties>
        <BoundPropertyInt Name="rotateStepNinety" Value="0" />
      </BoundProperties>
    </ImageClip>
    <ImageClip extentID="3945" gapBefore="0" mediaItemID="3941" duration="0.20000000000000001">
      <Effects />
      <Transitions />
      <BoundProperties>
        <BoundPropertyInt Name="rotateStepNinety" Value="0" />
      </BoundProperties>
    </ImageClip>
    <ImageClip extentID="3946" gapBefore="0" mediaItemID="3942" duration="0.20000000000000001">
      <Effects />
      <Transitions />
      <BoundProperties>
        <BoundPropertyInt Name="rotateStepNinety" Value="0" />
      </BoundProperties>
    </ImageClip>
    <ImageClip extentID="3947" gapBefore="0" mediaItemID="3943" duration="0.20000000000000001">
      <Effects />
      <Transitions />
      <BoundProperties>
        <BoundPropertyInt Name="rotateStepNinety" Value="0" />
      </BoundProperties>
    </ImageClip>
    <ImageClip extentID="3948" gapBefore="0" mediaItemID="3944" duration="0.20000000000000001">
      <Effects />
      <Transitions />
      <BoundProperties>
        <BoundPropertyInt Name="rotateStepNinety" Value="0" />
      </BoundProperties>
    </ImageClip>
    <ImageClip extentID="3949" gapBefore="0" mediaItemID="3945" duration="0.20000000000000001">
      <Effects />
      <Transitions />
      <BoundProperties>
        <BoundPropertyInt Name="rotateStepNinety" Value="0" />
      </BoundProperties>
    </ImageClip>
    <ImageClip extentID="3950" gapBefore="0" mediaItemID="3946" duration="0.20000000000000001">
      <Effects />
      <Transitions />
      <BoundProperties>
        <BoundPropertyInt Name="rotateStepNinety" Value="0" />
      </BoundProperties>
    </ImageClip>
    <ImageClip extentID="3951" gapBefore="0" mediaItemID="3947" duration="0.20000000000000001">
      <Effects />
      <Transitions />
      <BoundProperties>
        <BoundPropertyInt Name="rotateStepNinety" Value="0" />
      </BoundProperties>
    </ImageClip>
    <ImageClip extentID="3952" gapBefore="0" mediaItemID="3948" duration="0.20000000000000001">
      <Effects />
      <Transitions />
      <BoundProperties>
        <BoundPropertyInt Name="rotateStepNinety" Value="0" />
      </BoundProperties>
    </ImageClip>
    <ImageClip extentID="3953" gapBefore="0" mediaItemID="3949" duration="0.20000000000000001">
      <Effects />
      <Transitions />
      <BoundProperties>
        <BoundPropertyInt Name="rotateStepNinety" Value="0" />
      </BoundProperties>
    </ImageClip>
    <ImageClip extentID="3954" gapBefore="0" mediaItemID="3950" duration="0.20000000000000001">
      <Effects />
      <Transitions />
      <BoundProperties>
        <BoundPropertyInt Name="rotateStepNinety" Value="0" />
      </BoundProperties>
    </ImageClip>
    <ImageClip extentID="3955" gapBefore="0" mediaItemID="3951" duration="0.20000000000000001">
      <Effects />
      <Transitions />
      <BoundProperties>
        <BoundPropertyInt Name="rotateStepNinety" Value="0" />
      </BoundProperties>
    </ImageClip>
    <ImageClip extentID="3956" gapBefore="0" mediaItemID="3952" duration="0.20000000000000001">
      <Effects />
      <Transitions />
      <BoundProperties>
        <BoundPropertyInt Name="rotateStepNinety" Value="0" />
      </BoundProperties>
    </ImageClip>
    <ImageClip extentID="3957" gapBefore="0" mediaItemID="3953" duration="0.20000000000000001">
      <Effects />
      <Transitions />
      <BoundProperties>
        <BoundPropertyInt Name="rotateStepNinety" Value="0" />
      </BoundProperties>
    </ImageClip>
    <ImageClip extentID="3958" gapBefore="0" mediaItemID="3954" duration="0.20000000000000001">
      <Effects />
      <Transitions />
      <BoundProperties>
        <BoundPropertyInt Name="rotateStepNinety" Value="0" />
      </BoundProperties>
    </ImageClip>
    <ImageClip extentID="3959" gapBefore="0" mediaItemID="3955" duration="0.20000000000000001">
      <Effects />
      <Transitions />
      <BoundProperties>
        <BoundPropertyInt Name="rotateStepNinety" Value="0" />
      </BoundProperties>
    </ImageClip>
    <ImageClip extentID="3960" gapBefore="0" mediaItemID="3956" duration="0.20000000000000001">
      <Effects />
      <Transitions />
      <BoundProperties>
        <BoundPropertyInt Name="rotateStepNinety" Value="0" />
      </BoundProperties>
    </ImageClip>
    <ImageClip extentID="3961" gapBefore="0" mediaItemID="3957" duration="0.20000000000000001">
      <Effects />
      <Transitions />
      <BoundProperties>
        <BoundPropertyInt Name="rotateStepNinety" Value="0" />
      </BoundProperties>
    </ImageClip>
    <ImageClip extentID="3962" gapBefore="0" mediaItemID="3958" duration="0.20000000000000001">
      <Effects />
      <Transitions />
      <BoundProperties>
        <BoundPropertyInt Name="rotateStepNinety" Value="0" />
      </BoundProperties>
    </ImageClip>
    <ImageClip extentID="3963" gapBefore="0" mediaItemID="3959" duration="0.20000000000000001">
      <Effects />
      <Transitions />
      <BoundProperties>
        <BoundPropertyInt Name="rotateStepNinety" Value="0" />
      </BoundProperties>
    </ImageClip>
    <ImageClip extentID="3964" gapBefore="0" mediaItemID="3960" duration="0.20000000000000001">
      <Effects />
      <Transitions />
      <BoundProperties>
        <BoundPropertyInt Name="rotateStepNinety" Value="0" />
      </BoundProperties>
    </ImageClip>
    <ImageClip extentID="3965" gapBefore="0" mediaItemID="3961" duration="0.20000000000000001">
      <Effects />
      <Transitions />
      <BoundProperties>
        <BoundPropertyInt Name="rotateStepNinety" Value="0" />
      </BoundProperties>
    </ImageClip>
    <ImageClip extentID="3966" gapBefore="0" mediaItemID="3962" duration="0.20000000000000001">
      <Effects />
      <Transitions />
      <BoundProperties>
        <BoundPropertyInt Name="rotateStepNinety" Value="0" />
      </BoundProperties>
    </ImageClip>
    <ImageClip extentID="3967" gapBefore="0" mediaItemID="3963" duration="0.20000000000000001">
      <Effects />
      <Transitions />
      <BoundProperties>
        <BoundPropertyInt Name="rotateStepNinety" Value="0" />
      </BoundProperties>
    </ImageClip>
    <ImageClip extentID="3968" gapBefore="0" mediaItemID="3964" duration="0.20000000000000001">
      <Effects />
      <Transitions />
      <BoundProperties>
        <BoundPropertyInt Name="rotateStepNinety" Value="0" />
      </BoundProperties>
    </ImageClip>
    <ImageClip extentID="3969" gapBefore="0" mediaItemID="3965" duration="0.20000000000000001">
      <Effects />
      <Transitions />
      <BoundProperties>
        <BoundPropertyInt Name="rotateStepNinety" Value="0" />
      </BoundProperties>
    </ImageClip>
    <ImageClip extentID="3970" gapBefore="0" mediaItemID="3966" duration="0.20000000000000001">
      <Effects />
      <Transitions />
      <BoundProperties>
        <BoundPropertyInt Name="rotateStepNinety" Value="0" />
      </BoundProperties>
    </ImageClip>
    <ImageClip extentID="3971" gapBefore="0" mediaItemID="3967" duration="0.20000000000000001">
      <Effects />
      <Transitions />
      <BoundProperties>
        <BoundPropertyInt Name="rotateStepNinety" Value="0" />
      </BoundProperties>
    </ImageClip>
    <ImageClip extentID="3972" gapBefore="0" mediaItemID="3968" duration="0.20000000000000001">
      <Effects />
      <Transitions />
      <BoundProperties>
        <BoundPropertyInt Name="rotateStepNinety" Value="0" />
      </BoundProperties>
    </ImageClip>
    <ImageClip extentID="3973" gapBefore="0" mediaItemID="3969" duration="0.20000000000000001">
      <Effects />
      <Transitions />
      <BoundProperties>
        <BoundPropertyInt Name="rotateStepNinety" Value="0" />
      </BoundProperties>
    </ImageClip>
    <ImageClip extentID="3974" gapBefore="0" mediaItemID="3970" duration="0.20000000000000001">
      <Effects />
      <Transitions />
      <BoundProperties>
        <BoundPropertyInt Name="rotateStepNinety" Value="0" />
      </BoundProperties>
    </ImageClip>
    <ImageClip extentID="3975" gapBefore="0" mediaItemID="3971" duration="0.20000000000000001">
      <Effects />
      <Transitions />
      <BoundProperties>
        <BoundPropertyInt Name="rotateStepNinety" Value="0" />
      </BoundProperties>
    </ImageClip>
    <ImageClip extentID="3976" gapBefore="0" mediaItemID="3972" duration="0.20000000000000001">
      <Effects />
      <Transitions />
      <BoundProperties>
        <BoundPropertyInt Name="rotateStepNinety" Value="0" />
      </BoundProperties>
    </ImageClip>
    <ImageClip extentID="3977" gapBefore="0" mediaItemID="3973" duration="0.20000000000000001">
      <Effects />
      <Transitions />
      <BoundProperties>
        <BoundPropertyInt Name="rotateStepNinety" Value="0" />
      </BoundProperties>
    </ImageClip>
    <ImageClip extentID="3978" gapBefore="0" mediaItemID="3974" duration="0.20000000000000001">
      <Effects />
      <Transitions />
      <BoundProperties>
        <BoundPropertyInt Name="rotateStepNinety" Value="0" />
      </BoundProperties>
    </ImageClip>
    <ImageClip extentID="3979" gapBefore="0" mediaItemID="3975" duration="0.20000000000000001">
      <Effects />
      <Transitions />
      <BoundProperties>
        <BoundPropertyInt Name="rotateStepNinety" Value="0" />
      </BoundProperties>
    </ImageClip>
    <ImageClip extentID="3980" gapBefore="0" mediaItemID="3976" duration="0.20000000000000001">
      <Effects />
      <Transitions />
      <BoundProperties>
        <BoundPropertyInt Name="rotateStepNinety" Value="0" />
      </BoundProperties>
    </ImageClip>
    <ImageClip extentID="3981" gapBefore="0" mediaItemID="3977" duration="0.20000000000000001">
      <Effects />
      <Transitions />
      <BoundProperties>
        <BoundPropertyInt Name="rotateStepNinety" Value="0" />
      </BoundProperties>
    </ImageClip>
    <ImageClip extentID="3982" gapBefore="0" mediaItemID="3978" duration="0.20000000000000001">
      <Effects />
      <Transitions />
      <BoundProperties>
        <BoundPropertyInt Name="rotateStepNinety" Value="0" />
      </BoundProperties>
    </ImageClip>
    <ImageClip extentID="3983" gapBefore="0" mediaItemID="3979" duration="0.20000000000000001">
      <Effects />
      <Transitions />
      <BoundProperties>
        <BoundPropertyInt Name="rotateStepNinety" Value="0" />
      </BoundProperties>
    </ImageClip>
    <ImageClip extentID="3984" gapBefore="0" mediaItemID="3980" duration="0.20000000000000001">
      <Effects />
      <Transitions />
      <BoundProperties>
        <BoundPropertyInt Name="rotateStepNinety" Value="0" />
      </BoundProperties>
    </ImageClip>
    <ImageClip extentID="3985" gapBefore="0" mediaItemID="3981" duration="0.20000000000000001">
      <Effects />
      <Transitions />
      <BoundProperties>
        <BoundPropertyInt Name="rotateStepNinety" Value="0" />
      </BoundProperties>
    </ImageClip>
    <ImageClip extentID="3986" gapBefore="0" mediaItemID="3982" duration="0.20000000000000001">
      <Effects />
      <Transitions />
      <BoundProperties>
        <BoundPropertyInt Name="rotateStepNinety" Value="0" />
      </BoundProperties>
    </ImageClip>
    <ImageClip extentID="3987" gapBefore="0" mediaItemID="3983" duration="0.20000000000000001">
      <Effects />
      <Transitions />
      <BoundProperties>
        <BoundPropertyInt Name="rotateStepNinety" Value="0" />
      </BoundProperties>
    </ImageClip>
    <ImageClip extentID="3988" gapBefore="0" mediaItemID="3984" duration="0.20000000000000001">
      <Effects />
      <Transitions />
      <BoundProperties>
        <BoundPropertyInt Name="rotateStepNinety" Value="0" />
      </BoundProperties>
    </ImageClip>
    <ImageClip extentID="3989" gapBefore="0" mediaItemID="3985" duration="0.20000000000000001">
      <Effects />
      <Transitions />
      <BoundProperties>
        <BoundPropertyInt Name="rotateStepNinety" Value="0" />
      </BoundProperties>
    </ImageClip>
    <ImageClip extentID="3990" gapBefore="0" mediaItemID="3986" duration="0.20000000000000001">
      <Effects />
      <Transitions />
      <BoundProperties>
        <BoundPropertyInt Name="rotateStepNinety" Value="0" />
      </BoundProperties>
    </ImageClip>
    <ImageClip extentID="3991" gapBefore="0" mediaItemID="3987" duration="0.20000000000000001">
      <Effects />
      <Transitions />
      <BoundProperties>
        <BoundPropertyInt Name="rotateStepNinety" Value="0" />
      </BoundProperties>
    </ImageClip>
    <ImageClip extentID="3992" gapBefore="0" mediaItemID="3988" duration="0.20000000000000001">
      <Effects />
      <Transitions />
      <BoundProperties>
        <BoundPropertyInt Name="rotateStepNinety" Value="0" />
      </BoundProperties>
    </ImageClip>
    <ImageClip extentID="3993" gapBefore="0" mediaItemID="3989" duration="0.20000000000000001">
      <Effects />
      <Transitions />
      <BoundProperties>
        <BoundPropertyInt Name="rotateStepNinety" Value="0" />
      </BoundProperties>
    </ImageClip>
    <ImageClip extentID="3994" gapBefore="0" mediaItemID="3990" duration="0.20000000000000001">
      <Effects />
      <Transitions />
      <BoundProperties>
        <BoundPropertyInt Name="rotateStepNinety" Value="0" />
      </BoundProperties>
    </ImageClip>
    <ImageClip extentID="3995" gapBefore="0" mediaItemID="3991" duration="0.20000000000000001">
      <Effects />
      <Transitions />
      <BoundProperties>
        <BoundPropertyInt Name="rotateStepNinety" Value="0" />
      </BoundProperties>
    </ImageClip>
    <ImageClip extentID="3996" gapBefore="0" mediaItemID="3992" duration="0.20000000000000001">
      <Effects />
      <Transitions />
      <BoundProperties>
        <BoundPropertyInt Name="rotateStepNinety" Value="0" />
      </BoundProperties>
    </ImageClip>
    <ImageClip extentID="3997" gapBefore="0" mediaItemID="3993" duration="0.20000000000000001">
      <Effects />
      <Transitions />
      <BoundProperties>
        <BoundPropertyInt Name="rotateStepNinety" Value="0" />
      </BoundProperties>
    </ImageClip>
    <ImageClip extentID="3998" gapBefore="0" mediaItemID="3994" duration="0.20000000000000001">
      <Effects />
      <Transitions />
      <BoundProperties>
        <BoundPropertyInt Name="rotateStepNinety" Value="0" />
      </BoundProperties>
    </ImageClip>
    <ImageClip extentID="3999" gapBefore="0" mediaItemID="3995" duration="0.20000000000000001">
      <Effects />
      <Transitions />
      <BoundProperties>
        <BoundPropertyInt Name="rotateStepNinety" Value="0" />
      </BoundProperties>
    </ImageClip>
    <ImageClip extentID="4000" gapBefore="0" mediaItemID="3996" duration="0.20000000000000001">
      <Effects />
      <Transitions />
      <BoundProperties>
        <BoundPropertyInt Name="rotateStepNinety" Value="0" />
      </BoundProperties>
    </ImageClip>
    <ImageClip extentID="4001" gapBefore="0" mediaItemID="3997" duration="0.20000000000000001">
      <Effects />
      <Transitions />
      <BoundProperties>
        <BoundPropertyInt Name="rotateStepNinety" Value="0" />
      </BoundProperties>
    </ImageClip>
    <ImageClip extentID="4002" gapBefore="0" mediaItemID="3998" duration="0.20000000000000001">
      <Effects />
      <Transitions />
      <BoundProperties>
        <BoundPropertyInt Name="rotateStepNinety" Value="0" />
      </BoundProperties>
    </ImageClip>
    <ImageClip extentID="4003" gapBefore="0" mediaItemID="3999" duration="0.20000000000000001">
      <Effects />
      <Transitions />
      <BoundProperties>
        <BoundPropertyInt Name="rotateStepNinety" Value="0" />
      </BoundProperties>
    </ImageClip>
    <ImageClip extentID="4004" gapBefore="0" mediaItemID="4000" duration="0.20000000000000001">
      <Effects />
      <Transitions />
      <BoundProperties>
        <BoundPropertyInt Name="rotateStepNinety" Value="0" />
      </BoundProperties>
    </ImageClip>
    <ImageClip extentID="4005" gapBefore="0" mediaItemID="4001" duration="0.20000000000000001">
      <Effects />
      <Transitions />
      <BoundProperties>
        <BoundPropertyInt Name="rotateStepNinety" Value="0" />
      </BoundProperties>
    </ImageClip>
    <ImageClip extentID="4006" gapBefore="0" mediaItemID="4002" duration="0.20000000000000001">
      <Effects />
      <Transitions />
      <BoundProperties>
        <BoundPropertyInt Name="rotateStepNinety" Value="0" />
      </BoundProperties>
    </ImageClip>
    <ImageClip extentID="4007" gapBefore="0" mediaItemID="4003" duration="0.20000000000000001">
      <Effects />
      <Transitions />
      <BoundProperties>
        <BoundPropertyInt Name="rotateStepNinety" Value="0" />
      </BoundProperties>
    </ImageClip>
    <ImageClip extentID="4008" gapBefore="0" mediaItemID="4004" duration="0.20000000000000001">
      <Effects />
      <Transitions />
      <BoundProperties>
        <BoundPropertyInt Name="rotateStepNinety" Value="0" />
      </BoundProperties>
    </ImageClip>
    <ImageClip extentID="4009" gapBefore="0" mediaItemID="4005" duration="0.20000000000000001">
      <Effects />
      <Transitions />
      <BoundProperties>
        <BoundPropertyInt Name="rotateStepNinety" Value="0" />
      </BoundProperties>
    </ImageClip>
    <ImageClip extentID="4010" gapBefore="0" mediaItemID="4006" duration="0.20000000000000001">
      <Effects />
      <Transitions />
      <BoundProperties>
        <BoundPropertyInt Name="rotateStepNinety" Value="0" />
      </BoundProperties>
    </ImageClip>
    <ImageClip extentID="4011" gapBefore="0" mediaItemID="4007" duration="0.20000000000000001">
      <Effects />
      <Transitions />
      <BoundProperties>
        <BoundPropertyInt Name="rotateStepNinety" Value="0" />
      </BoundProperties>
    </ImageClip>
    <ImageClip extentID="4012" gapBefore="0" mediaItemID="4008" duration="0.20000000000000001">
      <Effects />
      <Transitions />
      <BoundProperties>
        <BoundPropertyInt Name="rotateStepNinety" Value="0" />
      </BoundProperties>
    </ImageClip>
    <ImageClip extentID="4013" gapBefore="0" mediaItemID="4009" duration="0.20000000000000001">
      <Effects />
      <Transitions />
      <BoundProperties>
        <BoundPropertyInt Name="rotateStepNinety" Value="0" />
      </BoundProperties>
    </ImageClip>
    <ImageClip extentID="4014" gapBefore="0" mediaItemID="4010" duration="0.20000000000000001">
      <Effects />
      <Transitions />
      <BoundProperties>
        <BoundPropertyInt Name="rotateStepNinety" Value="0" />
      </BoundProperties>
    </ImageClip>
    <ImageClip extentID="4015" gapBefore="0" mediaItemID="4011" duration="0.20000000000000001">
      <Effects />
      <Transitions />
      <BoundProperties>
        <BoundPropertyInt Name="rotateStepNinety" Value="0" />
      </BoundProperties>
    </ImageClip>
    <ImageClip extentID="4016" gapBefore="0" mediaItemID="4012" duration="0.20000000000000001">
      <Effects />
      <Transitions />
      <BoundProperties>
        <BoundPropertyInt Name="rotateStepNinety" Value="0" />
      </BoundProperties>
    </ImageClip>
    <ImageClip extentID="4017" gapBefore="0" mediaItemID="4013" duration="0.20000000000000001">
      <Effects />
      <Transitions />
      <BoundProperties>
        <BoundPropertyInt Name="rotateStepNinety" Value="0" />
      </BoundProperties>
    </ImageClip>
    <ImageClip extentID="4018" gapBefore="0" mediaItemID="4014" duration="0.20000000000000001">
      <Effects />
      <Transitions />
      <BoundProperties>
        <BoundPropertyInt Name="rotateStepNinety" Value="0" />
      </BoundProperties>
    </ImageClip>
    <ImageClip extentID="4019" gapBefore="0" mediaItemID="4015" duration="0.20000000000000001">
      <Effects />
      <Transitions />
      <BoundProperties>
        <BoundPropertyInt Name="rotateStepNinety" Value="0" />
      </BoundProperties>
    </ImageClip>
    <ImageClip extentID="4020" gapBefore="0" mediaItemID="4016" duration="0.20000000000000001">
      <Effects />
      <Transitions />
      <BoundProperties>
        <BoundPropertyInt Name="rotateStepNinety" Value="0" />
      </BoundProperties>
    </ImageClip>
    <ImageClip extentID="4021" gapBefore="0" mediaItemID="4017" duration="0.20000000000000001">
      <Effects />
      <Transitions />
      <BoundProperties>
        <BoundPropertyInt Name="rotateStepNinety" Value="0" />
      </BoundProperties>
    </ImageClip>
    <ImageClip extentID="4022" gapBefore="0" mediaItemID="4018" duration="0.20000000000000001">
      <Effects />
      <Transitions />
      <BoundProperties>
        <BoundPropertyInt Name="rotateStepNinety" Value="0" />
      </BoundProperties>
    </ImageClip>
    <ImageClip extentID="4023" gapBefore="0" mediaItemID="4019" duration="0.20000000000000001">
      <Effects />
      <Transitions />
      <BoundProperties>
        <BoundPropertyInt Name="rotateStepNinety" Value="0" />
      </BoundProperties>
    </ImageClip>
    <ImageClip extentID="4024" gapBefore="0" mediaItemID="4020" duration="0.20000000000000001">
      <Effects />
      <Transitions />
      <BoundProperties>
        <BoundPropertyInt Name="rotateStepNinety" Value="0" />
      </BoundProperties>
    </ImageClip>
    <ImageClip extentID="4025" gapBefore="0" mediaItemID="4021" duration="0.20000000000000001">
      <Effects />
      <Transitions />
      <BoundProperties>
        <BoundPropertyInt Name="rotateStepNinety" Value="0" />
      </BoundProperties>
    </ImageClip>
    <ImageClip extentID="4026" gapBefore="0" mediaItemID="4022" duration="0.20000000000000001">
      <Effects />
      <Transitions />
      <BoundProperties>
        <BoundPropertyInt Name="rotateStepNinety" Value="0" />
      </BoundProperties>
    </ImageClip>
    <ImageClip extentID="4027" gapBefore="0" mediaItemID="4023" duration="0.20000000000000001">
      <Effects />
      <Transitions />
      <BoundProperties>
        <BoundPropertyInt Name="rotateStepNinety" Value="0" />
      </BoundProperties>
    </ImageClip>
    <ImageClip extentID="4028" gapBefore="0" mediaItemID="4024" duration="0.20000000000000001">
      <Effects />
      <Transitions />
      <BoundProperties>
        <BoundPropertyInt Name="rotateStepNinety" Value="0" />
      </BoundProperties>
    </ImageClip>
    <ImageClip extentID="4029" gapBefore="0" mediaItemID="4025" duration="0.20000000000000001">
      <Effects />
      <Transitions />
      <BoundProperties>
        <BoundPropertyInt Name="rotateStepNinety" Value="0" />
      </BoundProperties>
    </ImageClip>
    <ImageClip extentID="4030" gapBefore="0" mediaItemID="4026" duration="0.20000000000000001">
      <Effects />
      <Transitions />
      <BoundProperties>
        <BoundPropertyInt Name="rotateStepNinety" Value="0" />
      </BoundProperties>
    </ImageClip>
    <ImageClip extentID="4031" gapBefore="0" mediaItemID="4027" duration="0.20000000000000001">
      <Effects />
      <Transitions />
      <BoundProperties>
        <BoundPropertyInt Name="rotateStepNinety" Value="0" />
      </BoundProperties>
    </ImageClip>
    <ImageClip extentID="4032" gapBefore="0" mediaItemID="4028" duration="0.20000000000000001">
      <Effects />
      <Transitions />
      <BoundProperties>
        <BoundPropertyInt Name="rotateStepNinety" Value="0" />
      </BoundProperties>
    </ImageClip>
    <ImageClip extentID="4033" gapBefore="0" mediaItemID="4029" duration="0.20000000000000001">
      <Effects />
      <Transitions />
      <BoundProperties>
        <BoundPropertyInt Name="rotateStepNinety" Value="0" />
      </BoundProperties>
    </ImageClip>
    <ImageClip extentID="4034" gapBefore="0" mediaItemID="4030" duration="0.20000000000000001">
      <Effects />
      <Transitions />
      <BoundProperties>
        <BoundPropertyInt Name="rotateStepNinety" Value="0" />
      </BoundProperties>
    </ImageClip>
    <ImageClip extentID="4035" gapBefore="0" mediaItemID="4031" duration="0.20000000000000001">
      <Effects />
      <Transitions />
      <BoundProperties>
        <BoundPropertyInt Name="rotateStepNinety" Value="0" />
      </BoundProperties>
    </ImageClip>
    <ImageClip extentID="4036" gapBefore="0" mediaItemID="4032" duration="0.20000000000000001">
      <Effects />
      <Transitions />
      <BoundProperties>
        <BoundPropertyInt Name="rotateStepNinety" Value="0" />
      </BoundProperties>
    </ImageClip>
    <ImageClip extentID="4037" gapBefore="0" mediaItemID="4033" duration="0.20000000000000001">
      <Effects />
      <Transitions />
      <BoundProperties>
        <BoundPropertyInt Name="rotateStepNinety" Value="0" />
      </BoundProperties>
    </ImageClip>
    <ImageClip extentID="4038" gapBefore="0" mediaItemID="4034" duration="0.20000000000000001">
      <Effects />
      <Transitions />
      <BoundProperties>
        <BoundPropertyInt Name="rotateStepNinety" Value="0" />
      </BoundProperties>
    </ImageClip>
    <ImageClip extentID="4039" gapBefore="0" mediaItemID="4035" duration="0.20000000000000001">
      <Effects />
      <Transitions />
      <BoundProperties>
        <BoundPropertyInt Name="rotateStepNinety" Value="0" />
      </BoundProperties>
    </ImageClip>
    <ImageClip extentID="4040" gapBefore="0" mediaItemID="4036" duration="0.20000000000000001">
      <Effects />
      <Transitions />
      <BoundProperties>
        <BoundPropertyInt Name="rotateStepNinety" Value="0" />
      </BoundProperties>
    </ImageClip>
    <ImageClip extentID="4041" gapBefore="0" mediaItemID="4037" duration="0.20000000000000001">
      <Effects />
      <Transitions />
      <BoundProperties>
        <BoundPropertyInt Name="rotateStepNinety" Value="0" />
      </BoundProperties>
    </ImageClip>
    <ImageClip extentID="4042" gapBefore="0" mediaItemID="4038" duration="0.20000000000000001">
      <Effects />
      <Transitions />
      <BoundProperties>
        <BoundPropertyInt Name="rotateStepNinety" Value="0" />
      </BoundProperties>
    </ImageClip>
    <ImageClip extentID="4043" gapBefore="0" mediaItemID="4039" duration="0.20000000000000001">
      <Effects />
      <Transitions />
      <BoundProperties>
        <BoundPropertyInt Name="rotateStepNinety" Value="0" />
      </BoundProperties>
    </ImageClip>
    <ImageClip extentID="4044" gapBefore="0" mediaItemID="4040" duration="0.20000000000000001">
      <Effects />
      <Transitions />
      <BoundProperties>
        <BoundPropertyInt Name="rotateStepNinety" Value="0" />
      </BoundProperties>
    </ImageClip>
    <ImageClip extentID="4045" gapBefore="0" mediaItemID="4041" duration="0.20000000000000001">
      <Effects />
      <Transitions />
      <BoundProperties>
        <BoundPropertyInt Name="rotateStepNinety" Value="0" />
      </BoundProperties>
    </ImageClip>
    <ImageClip extentID="4046" gapBefore="0" mediaItemID="4042" duration="0.20000000000000001">
      <Effects />
      <Transitions />
      <BoundProperties>
        <BoundPropertyInt Name="rotateStepNinety" Value="0" />
      </BoundProperties>
    </ImageClip>
    <ImageClip extentID="4047" gapBefore="0" mediaItemID="4043" duration="0.20000000000000001">
      <Effects />
      <Transitions />
      <BoundProperties>
        <BoundPropertyInt Name="rotateStepNinety" Value="0" />
      </BoundProperties>
    </ImageClip>
    <ImageClip extentID="4048" gapBefore="0" mediaItemID="4044" duration="0.20000000000000001">
      <Effects />
      <Transitions />
      <BoundProperties>
        <BoundPropertyInt Name="rotateStepNinety" Value="0" />
      </BoundProperties>
    </ImageClip>
    <ImageClip extentID="4049" gapBefore="0" mediaItemID="4045" duration="0.20000000000000001">
      <Effects />
      <Transitions />
      <BoundProperties>
        <BoundPropertyInt Name="rotateStepNinety" Value="0" />
      </BoundProperties>
    </ImageClip>
    <ImageClip extentID="4050" gapBefore="0" mediaItemID="4046" duration="0.20000000000000001">
      <Effects />
      <Transitions />
      <BoundProperties>
        <BoundPropertyInt Name="rotateStepNinety" Value="0" />
      </BoundProperties>
    </ImageClip>
    <ImageClip extentID="4051" gapBefore="0" mediaItemID="4047" duration="0.20000000000000001">
      <Effects />
      <Transitions />
      <BoundProperties>
        <BoundPropertyInt Name="rotateStepNinety" Value="0" />
      </BoundProperties>
    </ImageClip>
    <ImageClip extentID="4052" gapBefore="0" mediaItemID="4048" duration="0.20000000000000001">
      <Effects />
      <Transitions />
      <BoundProperties>
        <BoundPropertyInt Name="rotateStepNinety" Value="0" />
      </BoundProperties>
    </ImageClip>
    <ImageClip extentID="4053" gapBefore="0" mediaItemID="4049" duration="0.20000000000000001">
      <Effects />
      <Transitions />
      <BoundProperties>
        <BoundPropertyInt Name="rotateStepNinety" Value="0" />
      </BoundProperties>
    </ImageClip>
    <ImageClip extentID="4054" gapBefore="0" mediaItemID="4050" duration="0.20000000000000001">
      <Effects />
      <Transitions />
      <BoundProperties>
        <BoundPropertyInt Name="rotateStepNinety" Value="0" />
      </BoundProperties>
    </ImageClip>
    <ImageClip extentID="4055" gapBefore="0" mediaItemID="4051" duration="0.20000000000000001">
      <Effects />
      <Transitions />
      <BoundProperties>
        <BoundPropertyInt Name="rotateStepNinety" Value="0" />
      </BoundProperties>
    </ImageClip>
    <ImageClip extentID="4056" gapBefore="0" mediaItemID="4052" duration="0.20000000000000001">
      <Effects />
      <Transitions />
      <BoundProperties>
        <BoundPropertyInt Name="rotateStepNinety" Value="0" />
      </BoundProperties>
    </ImageClip>
    <ImageClip extentID="4057" gapBefore="0" mediaItemID="4053" duration="0.20000000000000001">
      <Effects />
      <Transitions />
      <BoundProperties>
        <BoundPropertyInt Name="rotateStepNinety" Value="0" />
      </BoundProperties>
    </ImageClip>
    <ImageClip extentID="4058" gapBefore="0" mediaItemID="4054" duration="0.20000000000000001">
      <Effects />
      <Transitions />
      <BoundProperties>
        <BoundPropertyInt Name="rotateStepNinety" Value="0" />
      </BoundProperties>
    </ImageClip>
    <ImageClip extentID="4059" gapBefore="0" mediaItemID="4055" duration="0.20000000000000001">
      <Effects />
      <Transitions />
      <BoundProperties>
        <BoundPropertyInt Name="rotateStepNinety" Value="0" />
      </BoundProperties>
    </ImageClip>
    <ImageClip extentID="4060" gapBefore="0" mediaItemID="4056" duration="0.20000000000000001">
      <Effects />
      <Transitions />
      <BoundProperties>
        <BoundPropertyInt Name="rotateStepNinety" Value="0" />
      </BoundProperties>
    </ImageClip>
    <ImageClip extentID="4061" gapBefore="0" mediaItemID="4057" duration="0.20000000000000001">
      <Effects />
      <Transitions />
      <BoundProperties>
        <BoundPropertyInt Name="rotateStepNinety" Value="0" />
      </BoundProperties>
    </ImageClip>
    <ImageClip extentID="4062" gapBefore="0" mediaItemID="4058" duration="0.20000000000000001">
      <Effects />
      <Transitions />
      <BoundProperties>
        <BoundPropertyInt Name="rotateStepNinety" Value="0" />
      </BoundProperties>
    </ImageClip>
    <ImageClip extentID="4063" gapBefore="0" mediaItemID="4059" duration="0.20000000000000001">
      <Effects />
      <Transitions />
      <BoundProperties>
        <BoundPropertyInt Name="rotateStepNinety" Value="0" />
      </BoundProperties>
    </ImageClip>
    <ImageClip extentID="4064" gapBefore="0" mediaItemID="4060" duration="0.20000000000000001">
      <Effects />
      <Transitions />
      <BoundProperties>
        <BoundPropertyInt Name="rotateStepNinety" Value="0" />
      </BoundProperties>
    </ImageClip>
    <ImageClip extentID="4065" gapBefore="0" mediaItemID="4061" duration="0.20000000000000001">
      <Effects />
      <Transitions />
      <BoundProperties>
        <BoundPropertyInt Name="rotateStepNinety" Value="0" />
      </BoundProperties>
    </ImageClip>
    <ImageClip extentID="4066" gapBefore="0" mediaItemID="4062" duration="0.20000000000000001">
      <Effects />
      <Transitions />
      <BoundProperties>
        <BoundPropertyInt Name="rotateStepNinety" Value="0" />
      </BoundProperties>
    </ImageClip>
    <ImageClip extentID="4067" gapBefore="0" mediaItemID="4063" duration="0.20000000000000001">
      <Effects />
      <Transitions />
      <BoundProperties>
        <BoundPropertyInt Name="rotateStepNinety" Value="0" />
      </BoundProperties>
    </ImageClip>
    <ImageClip extentID="4068" gapBefore="0" mediaItemID="4064" duration="0.20000000000000001">
      <Effects />
      <Transitions />
      <BoundProperties>
        <BoundPropertyInt Name="rotateStepNinety" Value="0" />
      </BoundProperties>
    </ImageClip>
    <ImageClip extentID="4069" gapBefore="0" mediaItemID="4065" duration="0.20000000000000001">
      <Effects />
      <Transitions />
      <BoundProperties>
        <BoundPropertyInt Name="rotateStepNinety" Value="0" />
      </BoundProperties>
    </ImageClip>
    <ImageClip extentID="4070" gapBefore="0" mediaItemID="4066" duration="0.20000000000000001">
      <Effects />
      <Transitions />
      <BoundProperties>
        <BoundPropertyInt Name="rotateStepNinety" Value="0" />
      </BoundProperties>
    </ImageClip>
    <ImageClip extentID="4071" gapBefore="0" mediaItemID="4067" duration="0.20000000000000001">
      <Effects />
      <Transitions />
      <BoundProperties>
        <BoundPropertyInt Name="rotateStepNinety" Value="0" />
      </BoundProperties>
    </ImageClip>
    <ImageClip extentID="4072" gapBefore="0" mediaItemID="4068" duration="0.20000000000000001">
      <Effects />
      <Transitions />
      <BoundProperties>
        <BoundPropertyInt Name="rotateStepNinety" Value="0" />
      </BoundProperties>
    </ImageClip>
    <ImageClip extentID="4073" gapBefore="0" mediaItemID="4069" duration="0.20000000000000001">
      <Effects />
      <Transitions />
      <BoundProperties>
        <BoundPropertyInt Name="rotateStepNinety" Value="0" />
      </BoundProperties>
    </ImageClip>
    <ImageClip extentID="4074" gapBefore="0" mediaItemID="4070" duration="0.20000000000000001">
      <Effects />
      <Transitions />
      <BoundProperties>
        <BoundPropertyInt Name="rotateStepNinety" Value="0" />
      </BoundProperties>
    </ImageClip>
    <ImageClip extentID="4075" gapBefore="0" mediaItemID="4071" duration="0.20000000000000001">
      <Effects />
      <Transitions />
      <BoundProperties>
        <BoundPropertyInt Name="rotateStepNinety" Value="0" />
      </BoundProperties>
    </ImageClip>
    <ImageClip extentID="4076" gapBefore="0" mediaItemID="4072" duration="0.20000000000000001">
      <Effects />
      <Transitions />
      <BoundProperties>
        <BoundPropertyInt Name="rotateStepNinety" Value="0" />
      </BoundProperties>
    </ImageClip>
    <ImageClip extentID="4077" gapBefore="0" mediaItemID="4073" duration="0.20000000000000001">
      <Effects />
      <Transitions />
      <BoundProperties>
        <BoundPropertyInt Name="rotateStepNinety" Value="0" />
      </BoundProperties>
    </ImageClip>
    <ImageClip extentID="4078" gapBefore="0" mediaItemID="4074" duration="0.20000000000000001">
      <Effects />
      <Transitions />
      <BoundProperties>
        <BoundPropertyInt Name="rotateStepNinety" Value="0" />
      </BoundProperties>
    </ImageClip>
    <ImageClip extentID="4079" gapBefore="0" mediaItemID="4075" duration="0.20000000000000001">
      <Effects />
      <Transitions />
      <BoundProperties>
        <BoundPropertyInt Name="rotateStepNinety" Value="0" />
      </BoundProperties>
    </ImageClip>
    <ImageClip extentID="4080" gapBefore="0" mediaItemID="4076" duration="0.20000000000000001">
      <Effects />
      <Transitions />
      <BoundProperties>
        <BoundPropertyInt Name="rotateStepNinety" Value="0" />
      </BoundProperties>
    </ImageClip>
    <ImageClip extentID="4081" gapBefore="0" mediaItemID="4077" duration="0.20000000000000001">
      <Effects />
      <Transitions />
      <BoundProperties>
        <BoundPropertyInt Name="rotateStepNinety" Value="0" />
      </BoundProperties>
    </ImageClip>
    <ImageClip extentID="4082" gapBefore="0" mediaItemID="4078" duration="0.20000000000000001">
      <Effects />
      <Transitions />
      <BoundProperties>
        <BoundPropertyInt Name="rotateStepNinety" Value="0" />
      </BoundProperties>
    </ImageClip>
    <ImageClip extentID="4083" gapBefore="0" mediaItemID="4079" duration="0.20000000000000001">
      <Effects />
      <Transitions />
      <BoundProperties>
        <BoundPropertyInt Name="rotateStepNinety" Value="0" />
      </BoundProperties>
    </ImageClip>
    <ImageClip extentID="4084" gapBefore="0" mediaItemID="4080" duration="0.20000000000000001">
      <Effects />
      <Transitions />
      <BoundProperties>
        <BoundPropertyInt Name="rotateStepNinety" Value="0" />
      </BoundProperties>
    </ImageClip>
    <ImageClip extentID="4085" gapBefore="0" mediaItemID="4081" duration="0.20000000000000001">
      <Effects />
      <Transitions />
      <BoundProperties>
        <BoundPropertyInt Name="rotateStepNinety" Value="0" />
      </BoundProperties>
    </ImageClip>
    <ImageClip extentID="4086" gapBefore="0" mediaItemID="4082" duration="0.20000000000000001">
      <Effects />
      <Transitions />
      <BoundProperties>
        <BoundPropertyInt Name="rotateStepNinety" Value="0" />
      </BoundProperties>
    </ImageClip>
    <ImageClip extentID="4087" gapBefore="0" mediaItemID="4083" duration="0.20000000000000001">
      <Effects />
      <Transitions />
      <BoundProperties>
        <BoundPropertyInt Name="rotateStepNinety" Value="0" />
      </BoundProperties>
    </ImageClip>
    <ImageClip extentID="4088" gapBefore="0" mediaItemID="4084" duration="0.20000000000000001">
      <Effects />
      <Transitions />
      <BoundProperties>
        <BoundPropertyInt Name="rotateStepNinety" Value="0" />
      </BoundProperties>
    </ImageClip>
    <ImageClip extentID="4089" gapBefore="0" mediaItemID="4085" duration="0.20000000000000001">
      <Effects />
      <Transitions />
      <BoundProperties>
        <BoundPropertyInt Name="rotateStepNinety" Value="0" />
      </BoundProperties>
    </ImageClip>
    <ImageClip extentID="4090" gapBefore="0" mediaItemID="4086" duration="0.20000000000000001">
      <Effects />
      <Transitions />
      <BoundProperties>
        <BoundPropertyInt Name="rotateStepNinety" Value="0" />
      </BoundProperties>
    </ImageClip>
    <ImageClip extentID="4091" gapBefore="0" mediaItemID="4087" duration="0.20000000000000001">
      <Effects />
      <Transitions />
      <BoundProperties>
        <BoundPropertyInt Name="rotateStepNinety" Value="0" />
      </BoundProperties>
    </ImageClip>
    <ImageClip extentID="4092" gapBefore="0" mediaItemID="4088" duration="0.20000000000000001">
      <Effects />
      <Transitions />
      <BoundProperties>
        <BoundPropertyInt Name="rotateStepNinety" Value="0" />
      </BoundProperties>
    </ImageClip>
    <ImageClip extentID="4093" gapBefore="0" mediaItemID="4089" duration="0.20000000000000001">
      <Effects />
      <Transitions />
      <BoundProperties>
        <BoundPropertyInt Name="rotateStepNinety" Value="0" />
      </BoundProperties>
    </ImageClip>
    <ImageClip extentID="4094" gapBefore="0" mediaItemID="4090" duration="0.20000000000000001">
      <Effects />
      <Transitions />
      <BoundProperties>
        <BoundPropertyInt Name="rotateStepNinety" Value="0" />
      </BoundProperties>
    </ImageClip>
    <ImageClip extentID="4095" gapBefore="0" mediaItemID="4091" duration="0.20000000000000001">
      <Effects />
      <Transitions />
      <BoundProperties>
        <BoundPropertyInt Name="rotateStepNinety" Value="0" />
      </BoundProperties>
    </ImageClip>
    <ImageClip extentID="4096" gapBefore="0" mediaItemID="4092" duration="0.20000000000000001">
      <Effects />
      <Transitions />
      <BoundProperties>
        <BoundPropertyInt Name="rotateStepNinety" Value="0" />
      </BoundProperties>
    </ImageClip>
    <ImageClip extentID="4097" gapBefore="0" mediaItemID="4093" duration="0.20000000000000001">
      <Effects />
      <Transitions />
      <BoundProperties>
        <BoundPropertyInt Name="rotateStepNinety" Value="0" />
      </BoundProperties>
    </ImageClip>
    <ImageClip extentID="4098" gapBefore="0" mediaItemID="4094" duration="0.20000000000000001">
      <Effects />
      <Transitions />
      <BoundProperties>
        <BoundPropertyInt Name="rotateStepNinety" Value="0" />
      </BoundProperties>
    </ImageClip>
    <ImageClip extentID="4099" gapBefore="0" mediaItemID="4095" duration="0.20000000000000001">
      <Effects />
      <Transitions />
      <BoundProperties>
        <BoundPropertyInt Name="rotateStepNinety" Value="0" />
      </BoundProperties>
    </ImageClip>
    <ImageClip extentID="4100" gapBefore="0" mediaItemID="4096" duration="0.20000000000000001">
      <Effects />
      <Transitions />
      <BoundProperties>
        <BoundPropertyInt Name="rotateStepNinety" Value="0" />
      </BoundProperties>
    </ImageClip>
    <ImageClip extentID="4101" gapBefore="0" mediaItemID="4097" duration="0.20000000000000001">
      <Effects />
      <Transitions />
      <BoundProperties>
        <BoundPropertyInt Name="rotateStepNinety" Value="0" />
      </BoundProperties>
    </ImageClip>
    <ImageClip extentID="4102" gapBefore="0" mediaItemID="4098" duration="0.20000000000000001">
      <Effects />
      <Transitions />
      <BoundProperties>
        <BoundPropertyInt Name="rotateStepNinety" Value="0" />
      </BoundProperties>
    </ImageClip>
    <ImageClip extentID="4103" gapBefore="0" mediaItemID="4099" duration="0.20000000000000001">
      <Effects />
      <Transitions />
      <BoundProperties>
        <BoundPropertyInt Name="rotateStepNinety" Value="0" />
      </BoundProperties>
    </ImageClip>
    <ImageClip extentID="4104" gapBefore="0" mediaItemID="4100" duration="0.20000000000000001">
      <Effects />
      <Transitions />
      <BoundProperties>
        <BoundPropertyInt Name="rotateStepNinety" Value="0" />
      </BoundProperties>
    </ImageClip>
    <ImageClip extentID="4105" gapBefore="0" mediaItemID="4101" duration="0.20000000000000001">
      <Effects />
      <Transitions />
      <BoundProperties>
        <BoundPropertyInt Name="rotateStepNinety" Value="0" />
      </BoundProperties>
    </ImageClip>
    <ImageClip extentID="4106" gapBefore="0" mediaItemID="4102" duration="0.20000000000000001">
      <Effects />
      <Transitions />
      <BoundProperties>
        <BoundPropertyInt Name="rotateStepNinety" Value="0" />
      </BoundProperties>
    </ImageClip>
    <ImageClip extentID="4107" gapBefore="0" mediaItemID="4103" duration="0.20000000000000001">
      <Effects />
      <Transitions />
      <BoundProperties>
        <BoundPropertyInt Name="rotateStepNinety" Value="0" />
      </BoundProperties>
    </ImageClip>
    <ImageClip extentID="4108" gapBefore="0" mediaItemID="4104" duration="0.20000000000000001">
      <Effects />
      <Transitions />
      <BoundProperties>
        <BoundPropertyInt Name="rotateStepNinety" Value="0" />
      </BoundProperties>
    </ImageClip>
    <ImageClip extentID="4109" gapBefore="0" mediaItemID="4105" duration="0.20000000000000001">
      <Effects />
      <Transitions />
      <BoundProperties>
        <BoundPropertyInt Name="rotateStepNinety" Value="0" />
      </BoundProperties>
    </ImageClip>
    <ImageClip extentID="4110" gapBefore="0" mediaItemID="4106" duration="0.20000000000000001">
      <Effects />
      <Transitions />
      <BoundProperties>
        <BoundPropertyInt Name="rotateStepNinety" Value="0" />
      </BoundProperties>
    </ImageClip>
    <ImageClip extentID="4111" gapBefore="0" mediaItemID="4107" duration="0.20000000000000001">
      <Effects />
      <Transitions />
      <BoundProperties>
        <BoundPropertyInt Name="rotateStepNinety" Value="0" />
      </BoundProperties>
    </ImageClip>
    <ImageClip extentID="4112" gapBefore="0" mediaItemID="4108" duration="0.20000000000000001">
      <Effects />
      <Transitions />
      <BoundProperties>
        <BoundPropertyInt Name="rotateStepNinety" Value="0" />
      </BoundProperties>
    </ImageClip>
    <ImageClip extentID="4113" gapBefore="0" mediaItemID="4109" duration="0.20000000000000001">
      <Effects />
      <Transitions />
      <BoundProperties>
        <BoundPropertyInt Name="rotateStepNinety" Value="0" />
      </BoundProperties>
    </ImageClip>
    <ImageClip extentID="4114" gapBefore="0" mediaItemID="4110" duration="0.20000000000000001">
      <Effects />
      <Transitions />
      <BoundProperties>
        <BoundPropertyInt Name="rotateStepNinety" Value="0" />
      </BoundProperties>
    </ImageClip>
    <ImageClip extentID="4115" gapBefore="0" mediaItemID="4111" duration="0.20000000000000001">
      <Effects />
      <Transitions />
      <BoundProperties>
        <BoundPropertyInt Name="rotateStepNinety" Value="0" />
      </BoundProperties>
    </ImageClip>
    <ImageClip extentID="4116" gapBefore="0" mediaItemID="4112" duration="0.20000000000000001">
      <Effects />
      <Transitions />
      <BoundProperties>
        <BoundPropertyInt Name="rotateStepNinety" Value="0" />
      </BoundProperties>
    </ImageClip>
    <ImageClip extentID="4117" gapBefore="0" mediaItemID="4113" duration="0.20000000000000001">
      <Effects />
      <Transitions />
      <BoundProperties>
        <BoundPropertyInt Name="rotateStepNinety" Value="0" />
      </BoundProperties>
    </ImageClip>
    <ImageClip extentID="4118" gapBefore="0" mediaItemID="4114" duration="0.20000000000000001">
      <Effects />
      <Transitions />
      <BoundProperties>
        <BoundPropertyInt Name="rotateStepNinety" Value="0" />
      </BoundProperties>
    </ImageClip>
    <ImageClip extentID="4119" gapBefore="0" mediaItemID="4115" duration="0.20000000000000001">
      <Effects />
      <Transitions />
      <BoundProperties>
        <BoundPropertyInt Name="rotateStepNinety" Value="0" />
      </BoundProperties>
    </ImageClip>
    <ImageClip extentID="4120" gapBefore="0" mediaItemID="4116" duration="0.20000000000000001">
      <Effects />
      <Transitions />
      <BoundProperties>
        <BoundPropertyInt Name="rotateStepNinety" Value="0" />
      </BoundProperties>
    </ImageClip>
    <ImageClip extentID="4121" gapBefore="0" mediaItemID="4117" duration="0.20000000000000001">
      <Effects />
      <Transitions />
      <BoundProperties>
        <BoundPropertyInt Name="rotateStepNinety" Value="0" />
      </BoundProperties>
    </ImageClip>
    <ImageClip extentID="4122" gapBefore="0" mediaItemID="4118" duration="0.20000000000000001">
      <Effects />
      <Transitions />
      <BoundProperties>
        <BoundPropertyInt Name="rotateStepNinety" Value="0" />
      </BoundProperties>
    </ImageClip>
    <ImageClip extentID="4123" gapBefore="0" mediaItemID="4119" duration="0.20000000000000001">
      <Effects />
      <Transitions />
      <BoundProperties>
        <BoundPropertyInt Name="rotateStepNinety" Value="0" />
      </BoundProperties>
    </ImageClip>
    <ImageClip extentID="4124" gapBefore="0" mediaItemID="4120" duration="0.20000000000000001">
      <Effects />
      <Transitions />
      <BoundProperties>
        <BoundPropertyInt Name="rotateStepNinety" Value="0" />
      </BoundProperties>
    </ImageClip>
    <ImageClip extentID="4125" gapBefore="0" mediaItemID="4121" duration="0.20000000000000001">
      <Effects />
      <Transitions />
      <BoundProperties>
        <BoundPropertyInt Name="rotateStepNinety" Value="0" />
      </BoundProperties>
    </ImageClip>
    <ImageClip extentID="4126" gapBefore="0" mediaItemID="4122" duration="0.20000000000000001">
      <Effects />
      <Transitions />
      <BoundProperties>
        <BoundPropertyInt Name="rotateStepNinety" Value="0" />
      </BoundProperties>
    </ImageClip>
    <ImageClip extentID="4127" gapBefore="0" mediaItemID="4123" duration="0.20000000000000001">
      <Effects />
      <Transitions />
      <BoundProperties>
        <BoundPropertyInt Name="rotateStepNinety" Value="0" />
      </BoundProperties>
    </ImageClip>
    <ImageClip extentID="4128" gapBefore="0" mediaItemID="4124" duration="0.20000000000000001">
      <Effects />
      <Transitions />
      <BoundProperties>
        <BoundPropertyInt Name="rotateStepNinety" Value="0" />
      </BoundProperties>
    </ImageClip>
    <ImageClip extentID="4129" gapBefore="0" mediaItemID="4125" duration="0.20000000000000001">
      <Effects />
      <Transitions />
      <BoundProperties>
        <BoundPropertyInt Name="rotateStepNinety" Value="0" />
      </BoundProperties>
    </ImageClip>
    <ImageClip extentID="4130" gapBefore="0" mediaItemID="4126" duration="0.20000000000000001">
      <Effects />
      <Transitions />
      <BoundProperties>
        <BoundPropertyInt Name="rotateStepNinety" Value="0" />
      </BoundProperties>
    </ImageClip>
    <ImageClip extentID="4131" gapBefore="0" mediaItemID="4127" duration="0.20000000000000001">
      <Effects />
      <Transitions />
      <BoundProperties>
        <BoundPropertyInt Name="rotateStepNinety" Value="0" />
      </BoundProperties>
    </ImageClip>
    <ImageClip extentID="4132" gapBefore="0" mediaItemID="4128" duration="0.20000000000000001">
      <Effects />
      <Transitions />
      <BoundProperties>
        <BoundPropertyInt Name="rotateStepNinety" Value="0" />
      </BoundProperties>
    </ImageClip>
    <ImageClip extentID="4133" gapBefore="0" mediaItemID="4129" duration="0.20000000000000001">
      <Effects />
      <Transitions />
      <BoundProperties>
        <BoundPropertyInt Name="rotateStepNinety" Value="0" />
      </BoundProperties>
    </ImageClip>
    <ImageClip extentID="4134" gapBefore="0" mediaItemID="4130" duration="0.20000000000000001">
      <Effects />
      <Transitions />
      <BoundProperties>
        <BoundPropertyInt Name="rotateStepNinety" Value="0" />
      </BoundProperties>
    </ImageClip>
    <ImageClip extentID="4135" gapBefore="0" mediaItemID="4131" duration="0.20000000000000001">
      <Effects />
      <Transitions />
      <BoundProperties>
        <BoundPropertyInt Name="rotateStepNinety" Value="0" />
      </BoundProperties>
    </ImageClip>
    <ImageClip extentID="4136" gapBefore="0" mediaItemID="4132" duration="0.20000000000000001">
      <Effects />
      <Transitions />
      <BoundProperties>
        <BoundPropertyInt Name="rotateStepNinety" Value="0" />
      </BoundProperties>
    </ImageClip>
    <ImageClip extentID="4137" gapBefore="0" mediaItemID="4133" duration="0.20000000000000001">
      <Effects />
      <Transitions />
      <BoundProperties>
        <BoundPropertyInt Name="rotateStepNinety" Value="0" />
      </BoundProperties>
    </ImageClip>
    <ImageClip extentID="4138" gapBefore="0" mediaItemID="4134" duration="0.20000000000000001">
      <Effects />
      <Transitions />
      <BoundProperties>
        <BoundPropertyInt Name="rotateStepNinety" Value="0" />
      </BoundProperties>
    </ImageClip>
    <ImageClip extentID="4139" gapBefore="0" mediaItemID="4135" duration="0.20000000000000001">
      <Effects />
      <Transitions />
      <BoundProperties>
        <BoundPropertyInt Name="rotateStepNinety" Value="0" />
      </BoundProperties>
    </ImageClip>
    <ImageClip extentID="4140" gapBefore="0" mediaItemID="4136" duration="0.20000000000000001">
      <Effects />
      <Transitions />
      <BoundProperties>
        <BoundPropertyInt Name="rotateStepNinety" Value="0" />
      </BoundProperties>
    </ImageClip>
    <ImageClip extentID="4141" gapBefore="0" mediaItemID="4137" duration="0.20000000000000001">
      <Effects />
      <Transitions />
      <BoundProperties>
        <BoundPropertyInt Name="rotateStepNinety" Value="0" />
      </BoundProperties>
    </ImageClip>
    <ImageClip extentID="4142" gapBefore="0" mediaItemID="4138" duration="0.20000000000000001">
      <Effects />
      <Transitions />
      <BoundProperties>
        <BoundPropertyInt Name="rotateStepNinety" Value="0" />
      </BoundProperties>
    </ImageClip>
    <ImageClip extentID="4143" gapBefore="0" mediaItemID="4139" duration="0.20000000000000001">
      <Effects />
      <Transitions />
      <BoundProperties>
        <BoundPropertyInt Name="rotateStepNinety" Value="0" />
      </BoundProperties>
    </ImageClip>
    <ImageClip extentID="4144" gapBefore="0" mediaItemID="4140" duration="0.20000000000000001">
      <Effects />
      <Transitions />
      <BoundProperties>
        <BoundPropertyInt Name="rotateStepNinety" Value="0" />
      </BoundProperties>
    </ImageClip>
    <ImageClip extentID="4145" gapBefore="0" mediaItemID="4141" duration="0.20000000000000001">
      <Effects />
      <Transitions />
      <BoundProperties>
        <BoundPropertyInt Name="rotateStepNinety" Value="0" />
      </BoundProperties>
    </ImageClip>
    <ImageClip extentID="4146" gapBefore="0" mediaItemID="4142" duration="0.20000000000000001">
      <Effects />
      <Transitions />
      <BoundProperties>
        <BoundPropertyInt Name="rotateStepNinety" Value="0" />
      </BoundProperties>
    </ImageClip>
    <ImageClip extentID="4147" gapBefore="0" mediaItemID="4143" duration="0.20000000000000001">
      <Effects />
      <Transitions />
      <BoundProperties>
        <BoundPropertyInt Name="rotateStepNinety" Value="0" />
      </BoundProperties>
    </ImageClip>
    <ImageClip extentID="4148" gapBefore="0" mediaItemID="4144" duration="0.20000000000000001">
      <Effects />
      <Transitions />
      <BoundProperties>
        <BoundPropertyInt Name="rotateStepNinety" Value="0" />
      </BoundProperties>
    </ImageClip>
    <ImageClip extentID="4149" gapBefore="0" mediaItemID="4145" duration="0.20000000000000001">
      <Effects />
      <Transitions />
      <BoundProperties>
        <BoundPropertyInt Name="rotateStepNinety" Value="0" />
      </BoundProperties>
    </ImageClip>
    <ImageClip extentID="4150" gapBefore="0" mediaItemID="4146" duration="0.20000000000000001">
      <Effects />
      <Transitions />
      <BoundProperties>
        <BoundPropertyInt Name="rotateStepNinety" Value="0" />
      </BoundProperties>
    </ImageClip>
    <ImageClip extentID="4151" gapBefore="0" mediaItemID="4147" duration="0.20000000000000001">
      <Effects />
      <Transitions />
      <BoundProperties>
        <BoundPropertyInt Name="rotateStepNinety" Value="0" />
      </BoundProperties>
    </ImageClip>
    <ImageClip extentID="4152" gapBefore="0" mediaItemID="4148" duration="0.20000000000000001">
      <Effects />
      <Transitions />
      <BoundProperties>
        <BoundPropertyInt Name="rotateStepNinety" Value="0" />
      </BoundProperties>
    </ImageClip>
    <ImageClip extentID="4153" gapBefore="0" mediaItemID="4149" duration="0.20000000000000001">
      <Effects />
      <Transitions />
      <BoundProperties>
        <BoundPropertyInt Name="rotateStepNinety" Value="0" />
      </BoundProperties>
    </ImageClip>
    <ImageClip extentID="4154" gapBefore="0" mediaItemID="4150" duration="0.20000000000000001">
      <Effects />
      <Transitions />
      <BoundProperties>
        <BoundPropertyInt Name="rotateStepNinety" Value="0" />
      </BoundProperties>
    </ImageClip>
    <ImageClip extentID="4155" gapBefore="0" mediaItemID="4151" duration="0.20000000000000001">
      <Effects />
      <Transitions />
      <BoundProperties>
        <BoundPropertyInt Name="rotateStepNinety" Value="0" />
      </BoundProperties>
    </ImageClip>
    <ImageClip extentID="4156" gapBefore="0" mediaItemID="4152" duration="0.20000000000000001">
      <Effects />
      <Transitions />
      <BoundProperties>
        <BoundPropertyInt Name="rotateStepNinety" Value="0" />
      </BoundProperties>
    </ImageClip>
    <ImageClip extentID="4157" gapBefore="0" mediaItemID="4153" duration="0.20000000000000001">
      <Effects />
      <Transitions />
      <BoundProperties>
        <BoundPropertyInt Name="rotateStepNinety" Value="0" />
      </BoundProperties>
    </ImageClip>
    <ImageClip extentID="4158" gapBefore="0" mediaItemID="4154" duration="0.20000000000000001">
      <Effects />
      <Transitions />
      <BoundProperties>
        <BoundPropertyInt Name="rotateStepNinety" Value="0" />
      </BoundProperties>
    </ImageClip>
    <ImageClip extentID="4159" gapBefore="0" mediaItemID="4155" duration="0.20000000000000001">
      <Effects />
      <Transitions />
      <BoundProperties>
        <BoundPropertyInt Name="rotateStepNinety" Value="0" />
      </BoundProperties>
    </ImageClip>
    <ImageClip extentID="4160" gapBefore="0" mediaItemID="4156" duration="0.20000000000000001">
      <Effects />
      <Transitions />
      <BoundProperties>
        <BoundPropertyInt Name="rotateStepNinety" Value="0" />
      </BoundProperties>
    </ImageClip>
    <ImageClip extentID="4161" gapBefore="0" mediaItemID="4157" duration="0.20000000000000001">
      <Effects />
      <Transitions />
      <BoundProperties>
        <BoundPropertyInt Name="rotateStepNinety" Value="0" />
      </BoundProperties>
    </ImageClip>
    <ImageClip extentID="4162" gapBefore="0" mediaItemID="4158" duration="0.20000000000000001">
      <Effects />
      <Transitions />
      <BoundProperties>
        <BoundPropertyInt Name="rotateStepNinety" Value="0" />
      </BoundProperties>
    </ImageClip>
    <ImageClip extentID="4163" gapBefore="0" mediaItemID="4159" duration="0.20000000000000001">
      <Effects />
      <Transitions />
      <BoundProperties>
        <BoundPropertyInt Name="rotateStepNinety" Value="0" />
      </BoundProperties>
    </ImageClip>
    <ImageClip extentID="4164" gapBefore="0" mediaItemID="4160" duration="0.20000000000000001">
      <Effects />
      <Transitions />
      <BoundProperties>
        <BoundPropertyInt Name="rotateStepNinety" Value="0" />
      </BoundProperties>
    </ImageClip>
    <ImageClip extentID="4165" gapBefore="0" mediaItemID="4161" duration="0.20000000000000001">
      <Effects />
      <Transitions />
      <BoundProperties>
        <BoundPropertyInt Name="rotateStepNinety" Value="0" />
      </BoundProperties>
    </ImageClip>
    <ImageClip extentID="4166" gapBefore="0" mediaItemID="4162" duration="0.20000000000000001">
      <Effects />
      <Transitions />
      <BoundProperties>
        <BoundPropertyInt Name="rotateStepNinety" Value="0" />
      </BoundProperties>
    </ImageClip>
    <ImageClip extentID="4167" gapBefore="0" mediaItemID="4163" duration="0.20000000000000001">
      <Effects />
      <Transitions />
      <BoundProperties>
        <BoundPropertyInt Name="rotateStepNinety" Value="0" />
      </BoundProperties>
    </ImageClip>
    <ImageClip extentID="4168" gapBefore="0" mediaItemID="4164" duration="0.20000000000000001">
      <Effects />
      <Transitions />
      <BoundProperties>
        <BoundPropertyInt Name="rotateStepNinety" Value="0" />
      </BoundProperties>
    </ImageClip>
    <ImageClip extentID="4169" gapBefore="0" mediaItemID="4165" duration="0.20000000000000001">
      <Effects />
      <Transitions />
      <BoundProperties>
        <BoundPropertyInt Name="rotateStepNinety" Value="0" />
      </BoundProperties>
    </ImageClip>
    <ImageClip extentID="4170" gapBefore="0" mediaItemID="4166" duration="0.20000000000000001">
      <Effects />
      <Transitions />
      <BoundProperties>
        <BoundPropertyInt Name="rotateStepNinety" Value="0" />
      </BoundProperties>
    </ImageClip>
    <ImageClip extentID="4171" gapBefore="0" mediaItemID="4167" duration="0.20000000000000001">
      <Effects />
      <Transitions />
      <BoundProperties>
        <BoundPropertyInt Name="rotateStepNinety" Value="0" />
      </BoundProperties>
    </ImageClip>
    <ImageClip extentID="4172" gapBefore="0" mediaItemID="4168" duration="0.20000000000000001">
      <Effects />
      <Transitions />
      <BoundProperties>
        <BoundPropertyInt Name="rotateStepNinety" Value="0" />
      </BoundProperties>
    </ImageClip>
    <ImageClip extentID="4173" gapBefore="0" mediaItemID="4169" duration="0.20000000000000001">
      <Effects />
      <Transitions />
      <BoundProperties>
        <BoundPropertyInt Name="rotateStepNinety" Value="0" />
      </BoundProperties>
    </ImageClip>
    <ImageClip extentID="4174" gapBefore="0" mediaItemID="4170" duration="0.20000000000000001">
      <Effects />
      <Transitions />
      <BoundProperties>
        <BoundPropertyInt Name="rotateStepNinety" Value="0" />
      </BoundProperties>
    </ImageClip>
    <ImageClip extentID="4175" gapBefore="0" mediaItemID="4171" duration="0.20000000000000001">
      <Effects />
      <Transitions />
      <BoundProperties>
        <BoundPropertyInt Name="rotateStepNinety" Value="0" />
      </BoundProperties>
    </ImageClip>
    <ImageClip extentID="4176" gapBefore="0" mediaItemID="4172" duration="0.20000000000000001">
      <Effects />
      <Transitions />
      <BoundProperties>
        <BoundPropertyInt Name="rotateStepNinety" Value="0" />
      </BoundProperties>
    </ImageClip>
    <ImageClip extentID="4177" gapBefore="0" mediaItemID="4173" duration="0.20000000000000001">
      <Effects />
      <Transitions />
      <BoundProperties>
        <BoundPropertyInt Name="rotateStepNinety" Value="0" />
      </BoundProperties>
    </ImageClip>
    <ImageClip extentID="4178" gapBefore="0" mediaItemID="4174" duration="0.20000000000000001">
      <Effects />
      <Transitions />
      <BoundProperties>
        <BoundPropertyInt Name="rotateStepNinety" Value="0" />
      </BoundProperties>
    </ImageClip>
    <ImageClip extentID="4179" gapBefore="0" mediaItemID="4175" duration="0.20000000000000001">
      <Effects />
      <Transitions />
      <BoundProperties>
        <BoundPropertyInt Name="rotateStepNinety" Value="0" />
      </BoundProperties>
    </ImageClip>
    <ImageClip extentID="4180" gapBefore="0" mediaItemID="4176" duration="0.20000000000000001">
      <Effects />
      <Transitions />
      <BoundProperties>
        <BoundPropertyInt Name="rotateStepNinety" Value="0" />
      </BoundProperties>
    </ImageClip>
    <ImageClip extentID="4181" gapBefore="0" mediaItemID="4177" duration="0.20000000000000001">
      <Effects />
      <Transitions />
      <BoundProperties>
        <BoundPropertyInt Name="rotateStepNinety" Value="0" />
      </BoundProperties>
    </ImageClip>
    <ImageClip extentID="4182" gapBefore="0" mediaItemID="4178" duration="0.20000000000000001">
      <Effects />
      <Transitions />
      <BoundProperties>
        <BoundPropertyInt Name="rotateStepNinety" Value="0" />
      </BoundProperties>
    </ImageClip>
    <ImageClip extentID="4183" gapBefore="0" mediaItemID="4179" duration="0.20000000000000001">
      <Effects />
      <Transitions />
      <BoundProperties>
        <BoundPropertyInt Name="rotateStepNinety" Value="0" />
      </BoundProperties>
    </ImageClip>
    <ImageClip extentID="4184" gapBefore="0" mediaItemID="4180" duration="0.20000000000000001">
      <Effects />
      <Transitions />
      <BoundProperties>
        <BoundPropertyInt Name="rotateStepNinety" Value="0" />
      </BoundProperties>
    </ImageClip>
    <ImageClip extentID="4185" gapBefore="0" mediaItemID="4181" duration="0.20000000000000001">
      <Effects />
      <Transitions />
      <BoundProperties>
        <BoundPropertyInt Name="rotateStepNinety" Value="0" />
      </BoundProperties>
    </ImageClip>
    <ImageClip extentID="4186" gapBefore="0" mediaItemID="4182" duration="0.20000000000000001">
      <Effects />
      <Transitions />
      <BoundProperties>
        <BoundPropertyInt Name="rotateStepNinety" Value="0" />
      </BoundProperties>
    </ImageClip>
    <ImageClip extentID="4187" gapBefore="0" mediaItemID="4183" duration="0.20000000000000001">
      <Effects />
      <Transitions />
      <BoundProperties>
        <BoundPropertyInt Name="rotateStepNinety" Value="0" />
      </BoundProperties>
    </ImageClip>
    <ImageClip extentID="4188" gapBefore="0" mediaItemID="4184" duration="0.20000000000000001">
      <Effects />
      <Transitions />
      <BoundProperties>
        <BoundPropertyInt Name="rotateStepNinety" Value="0" />
      </BoundProperties>
    </ImageClip>
    <ImageClip extentID="4189" gapBefore="0" mediaItemID="4185" duration="0.20000000000000001">
      <Effects />
      <Transitions />
      <BoundProperties>
        <BoundPropertyInt Name="rotateStepNinety" Value="0" />
      </BoundProperties>
    </ImageClip>
    <ImageClip extentID="4190" gapBefore="0" mediaItemID="4186" duration="0.20000000000000001">
      <Effects />
      <Transitions />
      <BoundProperties>
        <BoundPropertyInt Name="rotateStepNinety" Value="0" />
      </BoundProperties>
    </ImageClip>
    <ImageClip extentID="4191" gapBefore="0" mediaItemID="4187" duration="0.20000000000000001">
      <Effects />
      <Transitions />
      <BoundProperties>
        <BoundPropertyInt Name="rotateStepNinety" Value="0" />
      </BoundProperties>
    </ImageClip>
    <ImageClip extentID="4192" gapBefore="0" mediaItemID="4188" duration="0.20000000000000001">
      <Effects />
      <Transitions />
      <BoundProperties>
        <BoundPropertyInt Name="rotateStepNinety" Value="0" />
      </BoundProperties>
    </ImageClip>
    <ImageClip extentID="4193" gapBefore="0" mediaItemID="4189" duration="0.20000000000000001">
      <Effects />
      <Transitions />
      <BoundProperties>
        <BoundPropertyInt Name="rotateStepNinety" Value="0" />
      </BoundProperties>
    </ImageClip>
    <ImageClip extentID="4194" gapBefore="0" mediaItemID="4190" duration="0.20000000000000001">
      <Effects />
      <Transitions />
      <BoundProperties>
        <BoundPropertyInt Name="rotateStepNinety" Value="0" />
      </BoundProperties>
    </ImageClip>
    <ImageClip extentID="4195" gapBefore="0" mediaItemID="4191" duration="0.20000000000000001">
      <Effects />
      <Transitions />
      <BoundProperties>
        <BoundPropertyInt Name="rotateStepNinety" Value="0" />
      </BoundProperties>
    </ImageClip>
    <ImageClip extentID="4196" gapBefore="0" mediaItemID="4192" duration="0.20000000000000001">
      <Effects />
      <Transitions />
      <BoundProperties>
        <BoundPropertyInt Name="rotateStepNinety" Value="0" />
      </BoundProperties>
    </ImageClip>
    <ImageClip extentID="4197" gapBefore="0" mediaItemID="4193" duration="0.20000000000000001">
      <Effects />
      <Transitions />
      <BoundProperties>
        <BoundPropertyInt Name="rotateStepNinety" Value="0" />
      </BoundProperties>
    </ImageClip>
    <ImageClip extentID="4198" gapBefore="0" mediaItemID="4194" duration="0.20000000000000001">
      <Effects />
      <Transitions />
      <BoundProperties>
        <BoundPropertyInt Name="rotateStepNinety" Value="0" />
      </BoundProperties>
    </ImageClip>
    <ImageClip extentID="4199" gapBefore="0" mediaItemID="4195" duration="0.20000000000000001">
      <Effects />
      <Transitions />
      <BoundProperties>
        <BoundPropertyInt Name="rotateStepNinety" Value="0" />
      </BoundProperties>
    </ImageClip>
    <ImageClip extentID="4200" gapBefore="0" mediaItemID="4196" duration="0.20000000000000001">
      <Effects />
      <Transitions />
      <BoundProperties>
        <BoundPropertyInt Name="rotateStepNinety" Value="0" />
      </BoundProperties>
    </ImageClip>
    <ImageClip extentID="4201" gapBefore="0" mediaItemID="4197" duration="0.20000000000000001">
      <Effects />
      <Transitions />
      <BoundProperties>
        <BoundPropertyInt Name="rotateStepNinety" Value="0" />
      </BoundProperties>
    </ImageClip>
    <ImageClip extentID="4202" gapBefore="0" mediaItemID="4198" duration="0.20000000000000001">
      <Effects />
      <Transitions />
      <BoundProperties>
        <BoundPropertyInt Name="rotateStepNinety" Value="0" />
      </BoundProperties>
    </ImageClip>
    <ImageClip extentID="4203" gapBefore="0" mediaItemID="4199" duration="0.20000000000000001">
      <Effects />
      <Transitions />
      <BoundProperties>
        <BoundPropertyInt Name="rotateStepNinety" Value="0" />
      </BoundProperties>
    </ImageClip>
    <ImageClip extentID="4204" gapBefore="0" mediaItemID="4200" duration="0.20000000000000001">
      <Effects />
      <Transitions />
      <BoundProperties>
        <BoundPropertyInt Name="rotateStepNinety" Value="0" />
      </BoundProperties>
    </ImageClip>
    <ImageClip extentID="4205" gapBefore="0" mediaItemID="4201" duration="0.20000000000000001">
      <Effects />
      <Transitions />
      <BoundProperties>
        <BoundPropertyInt Name="rotateStepNinety" Value="0" />
      </BoundProperties>
    </ImageClip>
    <ImageClip extentID="4206" gapBefore="0" mediaItemID="4202" duration="0.20000000000000001">
      <Effects />
      <Transitions />
      <BoundProperties>
        <BoundPropertyInt Name="rotateStepNinety" Value="0" />
      </BoundProperties>
    </ImageClip>
    <ImageClip extentID="4207" gapBefore="0" mediaItemID="4203" duration="0.20000000000000001">
      <Effects />
      <Transitions />
      <BoundProperties>
        <BoundPropertyInt Name="rotateStepNinety" Value="0" />
      </BoundProperties>
    </ImageClip>
    <ImageClip extentID="4208" gapBefore="0" mediaItemID="4204" duration="0.20000000000000001">
      <Effects />
      <Transitions />
      <BoundProperties>
        <BoundPropertyInt Name="rotateStepNinety" Value="0" />
      </BoundProperties>
    </ImageClip>
    <ImageClip extentID="4209" gapBefore="0" mediaItemID="4205" duration="0.20000000000000001">
      <Effects />
      <Transitions />
      <BoundProperties>
        <BoundPropertyInt Name="rotateStepNinety" Value="0" />
      </BoundProperties>
    </ImageClip>
    <ImageClip extentID="4210" gapBefore="0" mediaItemID="4206" duration="0.20000000000000001">
      <Effects />
      <Transitions />
      <BoundProperties>
        <BoundPropertyInt Name="rotateStepNinety" Value="0" />
      </BoundProperties>
    </ImageClip>
    <ImageClip extentID="4211" gapBefore="0" mediaItemID="4207" duration="0.20000000000000001">
      <Effects />
      <Transitions />
      <BoundProperties>
        <BoundPropertyInt Name="rotateStepNinety" Value="0" />
      </BoundProperties>
    </ImageClip>
    <ImageClip extentID="4212" gapBefore="0" mediaItemID="4208" duration="0.20000000000000001">
      <Effects />
      <Transitions />
      <BoundProperties>
        <BoundPropertyInt Name="rotateStepNinety" Value="0" />
      </BoundProperties>
    </ImageClip>
    <ImageClip extentID="4213" gapBefore="0" mediaItemID="4209" duration="0.20000000000000001">
      <Effects />
      <Transitions />
      <BoundProperties>
        <BoundPropertyInt Name="rotateStepNinety" Value="0" />
      </BoundProperties>
    </ImageClip>
    <ImageClip extentID="4214" gapBefore="0" mediaItemID="4210" duration="0.20000000000000001">
      <Effects />
      <Transitions />
      <BoundProperties>
        <BoundPropertyInt Name="rotateStepNinety" Value="0" />
      </BoundProperties>
    </ImageClip>
    <ImageClip extentID="4215" gapBefore="0" mediaItemID="4211" duration="0.20000000000000001">
      <Effects />
      <Transitions />
      <BoundProperties>
        <BoundPropertyInt Name="rotateStepNinety" Value="0" />
      </BoundProperties>
    </ImageClip>
    <ImageClip extentID="4216" gapBefore="0" mediaItemID="4212" duration="0.20000000000000001">
      <Effects />
      <Transitions />
      <BoundProperties>
        <BoundPropertyInt Name="rotateStepNinety" Value="0" />
      </BoundProperties>
    </ImageClip>
    <ImageClip extentID="4217" gapBefore="0" mediaItemID="4213" duration="0.20000000000000001">
      <Effects />
      <Transitions />
      <BoundProperties>
        <BoundPropertyInt Name="rotateStepNinety" Value="0" />
      </BoundProperties>
    </ImageClip>
    <ImageClip extentID="4218" gapBefore="0" mediaItemID="4214" duration="0.20000000000000001">
      <Effects />
      <Transitions />
      <BoundProperties>
        <BoundPropertyInt Name="rotateStepNinety" Value="0" />
      </BoundProperties>
    </ImageClip>
    <ImageClip extentID="4219" gapBefore="0" mediaItemID="4215" duration="0.20000000000000001">
      <Effects />
      <Transitions />
      <BoundProperties>
        <BoundPropertyInt Name="rotateStepNinety" Value="0" />
      </BoundProperties>
    </ImageClip>
    <ImageClip extentID="4220" gapBefore="0" mediaItemID="4216" duration="0.20000000000000001">
      <Effects />
      <Transitions />
      <BoundProperties>
        <BoundPropertyInt Name="rotateStepNinety" Value="0" />
      </BoundProperties>
    </ImageClip>
    <ImageClip extentID="4221" gapBefore="0" mediaItemID="4217" duration="0.20000000000000001">
      <Effects />
      <Transitions />
      <BoundProperties>
        <BoundPropertyInt Name="rotateStepNinety" Value="0" />
      </BoundProperties>
    </ImageClip>
    <ImageClip extentID="4222" gapBefore="0" mediaItemID="4218" duration="0.20000000000000001">
      <Effects />
      <Transitions />
      <BoundProperties>
        <BoundPropertyInt Name="rotateStepNinety" Value="0" />
      </BoundProperties>
    </ImageClip>
    <ImageClip extentID="4223" gapBefore="0" mediaItemID="4219" duration="0.20000000000000001">
      <Effects />
      <Transitions />
      <BoundProperties>
        <BoundPropertyInt Name="rotateStepNinety" Value="0" />
      </BoundProperties>
    </ImageClip>
    <ImageClip extentID="4224" gapBefore="0" mediaItemID="4220" duration="0.20000000000000001">
      <Effects />
      <Transitions />
      <BoundProperties>
        <BoundPropertyInt Name="rotateStepNinety" Value="0" />
      </BoundProperties>
    </ImageClip>
    <ImageClip extentID="4225" gapBefore="0" mediaItemID="4221" duration="0.20000000000000001">
      <Effects />
      <Transitions />
      <BoundProperties>
        <BoundPropertyInt Name="rotateStepNinety" Value="0" />
      </BoundProperties>
    </ImageClip>
    <ImageClip extentID="4226" gapBefore="0" mediaItemID="4222" duration="0.20000000000000001">
      <Effects />
      <Transitions />
      <BoundProperties>
        <BoundPropertyInt Name="rotateStepNinety" Value="0" />
      </BoundProperties>
    </ImageClip>
    <ImageClip extentID="4227" gapBefore="0" mediaItemID="4223" duration="0.20000000000000001">
      <Effects />
      <Transitions />
      <BoundProperties>
        <BoundPropertyInt Name="rotateStepNinety" Value="0" />
      </BoundProperties>
    </ImageClip>
    <ImageClip extentID="4228" gapBefore="0" mediaItemID="4224" duration="0.20000000000000001">
      <Effects />
      <Transitions />
      <BoundProperties>
        <BoundPropertyInt Name="rotateStepNinety" Value="0" />
      </BoundProperties>
    </ImageClip>
    <ImageClip extentID="4229" gapBefore="0" mediaItemID="4225" duration="0.20000000000000001">
      <Effects />
      <Transitions />
      <BoundProperties>
        <BoundPropertyInt Name="rotateStepNinety" Value="0" />
      </BoundProperties>
    </ImageClip>
    <ImageClip extentID="4230" gapBefore="0" mediaItemID="4226" duration="0.20000000000000001">
      <Effects />
      <Transitions />
      <BoundProperties>
        <BoundPropertyInt Name="rotateStepNinety" Value="0" />
      </BoundProperties>
    </ImageClip>
    <ImageClip extentID="4231" gapBefore="0" mediaItemID="4227" duration="0.20000000000000001">
      <Effects />
      <Transitions />
      <BoundProperties>
        <BoundPropertyInt Name="rotateStepNinety" Value="0" />
      </BoundProperties>
    </ImageClip>
    <ImageClip extentID="4232" gapBefore="0" mediaItemID="4228" duration="0.20000000000000001">
      <Effects />
      <Transitions />
      <BoundProperties>
        <BoundPropertyInt Name="rotateStepNinety" Value="0" />
      </BoundProperties>
    </ImageClip>
    <ImageClip extentID="4233" gapBefore="0" mediaItemID="4229" duration="0.20000000000000001">
      <Effects />
      <Transitions />
      <BoundProperties>
        <BoundPropertyInt Name="rotateStepNinety" Value="0" />
      </BoundProperties>
    </ImageClip>
    <ImageClip extentID="4234" gapBefore="0" mediaItemID="4230" duration="0.20000000000000001">
      <Effects />
      <Transitions />
      <BoundProperties>
        <BoundPropertyInt Name="rotateStepNinety" Value="0" />
      </BoundProperties>
    </ImageClip>
    <ImageClip extentID="4235" gapBefore="0" mediaItemID="4231" duration="0.20000000000000001">
      <Effects />
      <Transitions />
      <BoundProperties>
        <BoundPropertyInt Name="rotateStepNinety" Value="0" />
      </BoundProperties>
    </ImageClip>
    <ImageClip extentID="4236" gapBefore="0" mediaItemID="4232" duration="0.20000000000000001">
      <Effects />
      <Transitions />
      <BoundProperties>
        <BoundPropertyInt Name="rotateStepNinety" Value="0" />
      </BoundProperties>
    </ImageClip>
    <ImageClip extentID="4237" gapBefore="0" mediaItemID="4233" duration="0.20000000000000001">
      <Effects />
      <Transitions />
      <BoundProperties>
        <BoundPropertyInt Name="rotateStepNinety" Value="0" />
      </BoundProperties>
    </ImageClip>
    <ImageClip extentID="4238" gapBefore="0" mediaItemID="4234" duration="0.20000000000000001">
      <Effects />
      <Transitions />
      <BoundProperties>
        <BoundPropertyInt Name="rotateStepNinety" Value="0" />
      </BoundProperties>
    </ImageClip>
    <ImageClip extentID="4239" gapBefore="0" mediaItemID="4235" duration="0.20000000000000001">
      <Effects />
      <Transitions />
      <BoundProperties>
        <BoundPropertyInt Name="rotateStepNinety" Value="0" />
      </BoundProperties>
    </ImageClip>
    <ImageClip extentID="4240" gapBefore="0" mediaItemID="4236" duration="0.20000000000000001">
      <Effects />
      <Transitions />
      <BoundProperties>
        <BoundPropertyInt Name="rotateStepNinety" Value="0" />
      </BoundProperties>
    </ImageClip>
    <ImageClip extentID="4241" gapBefore="0" mediaItemID="4237" duration="0.20000000000000001">
      <Effects />
      <Transitions />
      <BoundProperties>
        <BoundPropertyInt Name="rotateStepNinety" Value="0" />
      </BoundProperties>
    </ImageClip>
    <ImageClip extentID="4242" gapBefore="0" mediaItemID="4238" duration="0.20000000000000001">
      <Effects />
      <Transitions />
      <BoundProperties>
        <BoundPropertyInt Name="rotateStepNinety" Value="0" />
      </BoundProperties>
    </ImageClip>
    <ImageClip extentID="4243" gapBefore="0" mediaItemID="4239" duration="0.20000000000000001">
      <Effects />
      <Transitions />
      <BoundProperties>
        <BoundPropertyInt Name="rotateStepNinety" Value="0" />
      </BoundProperties>
    </ImageClip>
    <ImageClip extentID="4244" gapBefore="0" mediaItemID="4240" duration="0.20000000000000001">
      <Effects />
      <Transitions />
      <BoundProperties>
        <BoundPropertyInt Name="rotateStepNinety" Value="0" />
      </BoundProperties>
    </ImageClip>
    <ImageClip extentID="4245" gapBefore="0" mediaItemID="4241" duration="0.20000000000000001">
      <Effects />
      <Transitions />
      <BoundProperties>
        <BoundPropertyInt Name="rotateStepNinety" Value="0" />
      </BoundProperties>
    </ImageClip>
    <ImageClip extentID="4246" gapBefore="0" mediaItemID="4242" duration="0.20000000000000001">
      <Effects />
      <Transitions />
      <BoundProperties>
        <BoundPropertyInt Name="rotateStepNinety" Value="0" />
      </BoundProperties>
    </ImageClip>
    <ImageClip extentID="4247" gapBefore="0" mediaItemID="4243" duration="0.20000000000000001">
      <Effects />
      <Transitions />
      <BoundProperties>
        <BoundPropertyInt Name="rotateStepNinety" Value="0" />
      </BoundProperties>
    </ImageClip>
    <ImageClip extentID="4248" gapBefore="0" mediaItemID="4244" duration="0.20000000000000001">
      <Effects />
      <Transitions />
      <BoundProperties>
        <BoundPropertyInt Name="rotateStepNinety" Value="0" />
      </BoundProperties>
    </ImageClip>
    <ImageClip extentID="4249" gapBefore="0" mediaItemID="4245" duration="0.20000000000000001">
      <Effects />
      <Transitions />
      <BoundProperties>
        <BoundPropertyInt Name="rotateStepNinety" Value="0" />
      </BoundProperties>
    </ImageClip>
    <ImageClip extentID="4250" gapBefore="0" mediaItemID="4246" duration="0.20000000000000001">
      <Effects />
      <Transitions />
      <BoundProperties>
        <BoundPropertyInt Name="rotateStepNinety" Value="0" />
      </BoundProperties>
    </ImageClip>
    <ImageClip extentID="4251" gapBefore="0" mediaItemID="4247" duration="0.20000000000000001">
      <Effects />
      <Transitions />
      <BoundProperties>
        <BoundPropertyInt Name="rotateStepNinety" Value="0" />
      </BoundProperties>
    </ImageClip>
    <ImageClip extentID="4252" gapBefore="0" mediaItemID="4248" duration="0.20000000000000001">
      <Effects />
      <Transitions />
      <BoundProperties>
        <BoundPropertyInt Name="rotateStepNinety" Value="0" />
      </BoundProperties>
    </ImageClip>
    <ImageClip extentID="4253" gapBefore="0" mediaItemID="4249" duration="0.20000000000000001">
      <Effects />
      <Transitions />
      <BoundProperties>
        <BoundPropertyInt Name="rotateStepNinety" Value="0" />
      </BoundProperties>
    </ImageClip>
    <ImageClip extentID="4254" gapBefore="0" mediaItemID="4250" duration="0.20000000000000001">
      <Effects />
      <Transitions />
      <BoundProperties>
        <BoundPropertyInt Name="rotateStepNinety" Value="0" />
      </BoundProperties>
    </ImageClip>
    <ImageClip extentID="4255" gapBefore="0" mediaItemID="4251" duration="0.20000000000000001">
      <Effects />
      <Transitions />
      <BoundProperties>
        <BoundPropertyInt Name="rotateStepNinety" Value="0" />
      </BoundProperties>
    </ImageClip>
    <ImageClip extentID="4256" gapBefore="0" mediaItemID="4252" duration="0.20000000000000001">
      <Effects />
      <Transitions />
      <BoundProperties>
        <BoundPropertyInt Name="rotateStepNinety" Value="0" />
      </BoundProperties>
    </ImageClip>
    <ImageClip extentID="4257" gapBefore="0" mediaItemID="4253" duration="0.20000000000000001">
      <Effects />
      <Transitions />
      <BoundProperties>
        <BoundPropertyInt Name="rotateStepNinety" Value="0" />
      </BoundProperties>
    </ImageClip>
    <ImageClip extentID="4258" gapBefore="0" mediaItemID="4254" duration="0.20000000000000001">
      <Effects />
      <Transitions />
      <BoundProperties>
        <BoundPropertyInt Name="rotateStepNinety" Value="0" />
      </BoundProperties>
    </ImageClip>
    <ImageClip extentID="4259" gapBefore="0" mediaItemID="4255" duration="0.20000000000000001">
      <Effects />
      <Transitions />
      <BoundProperties>
        <BoundPropertyInt Name="rotateStepNinety" Value="0" />
      </BoundProperties>
    </ImageClip>
    <ImageClip extentID="4260" gapBefore="0" mediaItemID="4256" duration="0.20000000000000001">
      <Effects />
      <Transitions />
      <BoundProperties>
        <BoundPropertyInt Name="rotateStepNinety" Value="0" />
      </BoundProperties>
    </ImageClip>
    <ImageClip extentID="4261" gapBefore="0" mediaItemID="4257" duration="0.20000000000000001">
      <Effects />
      <Transitions />
      <BoundProperties>
        <BoundPropertyInt Name="rotateStepNinety" Value="0" />
      </BoundProperties>
    </ImageClip>
    <ImageClip extentID="4262" gapBefore="0" mediaItemID="4258" duration="0.20000000000000001">
      <Effects />
      <Transitions />
      <BoundProperties>
        <BoundPropertyInt Name="rotateStepNinety" Value="0" />
      </BoundProperties>
    </ImageClip>
    <ImageClip extentID="4263" gapBefore="0" mediaItemID="4259" duration="0.20000000000000001">
      <Effects />
      <Transitions />
      <BoundProperties>
        <BoundPropertyInt Name="rotateStepNinety" Value="0" />
      </BoundProperties>
    </ImageClip>
    <ImageClip extentID="4264" gapBefore="0" mediaItemID="4260" duration="0.20000000000000001">
      <Effects />
      <Transitions />
      <BoundProperties>
        <BoundPropertyInt Name="rotateStepNinety" Value="0" />
      </BoundProperties>
    </ImageClip>
    <ImageClip extentID="4265" gapBefore="0" mediaItemID="4261" duration="0.20000000000000001">
      <Effects />
      <Transitions />
      <BoundProperties>
        <BoundPropertyInt Name="rotateStepNinety" Value="0" />
      </BoundProperties>
    </ImageClip>
    <ImageClip extentID="4266" gapBefore="0" mediaItemID="4262" duration="0.20000000000000001">
      <Effects />
      <Transitions />
      <BoundProperties>
        <BoundPropertyInt Name="rotateStepNinety" Value="0" />
      </BoundProperties>
    </ImageClip>
    <ImageClip extentID="4267" gapBefore="0" mediaItemID="4263" duration="0.20000000000000001">
      <Effects />
      <Transitions />
      <BoundProperties>
        <BoundPropertyInt Name="rotateStepNinety" Value="0" />
      </BoundProperties>
    </ImageClip>
    <ImageClip extentID="4268" gapBefore="0" mediaItemID="4264" duration="0.20000000000000001">
      <Effects />
      <Transitions />
      <BoundProperties>
        <BoundPropertyInt Name="rotateStepNinety" Value="0" />
      </BoundProperties>
    </ImageClip>
    <ImageClip extentID="4269" gapBefore="0" mediaItemID="4265" duration="0.20000000000000001">
      <Effects />
      <Transitions />
      <BoundProperties>
        <BoundPropertyInt Name="rotateStepNinety" Value="0" />
      </BoundProperties>
    </ImageClip>
    <ImageClip extentID="4270" gapBefore="0" mediaItemID="4266" duration="0.20000000000000001">
      <Effects />
      <Transitions />
      <BoundProperties>
        <BoundPropertyInt Name="rotateStepNinety" Value="0" />
      </BoundProperties>
    </ImageClip>
    <ImageClip extentID="4271" gapBefore="0" mediaItemID="4267" duration="0.20000000000000001">
      <Effects />
      <Transitions />
      <BoundProperties>
        <BoundPropertyInt Name="rotateStepNinety" Value="0" />
      </BoundProperties>
    </ImageClip>
    <ImageClip extentID="4272" gapBefore="0" mediaItemID="4268" duration="0.20000000000000001">
      <Effects />
      <Transitions />
      <BoundProperties>
        <BoundPropertyInt Name="rotateStepNinety" Value="0" />
      </BoundProperties>
    </ImageClip>
    <ImageClip extentID="4273" gapBefore="0" mediaItemID="4269" duration="0.20000000000000001">
      <Effects />
      <Transitions />
      <BoundProperties>
        <BoundPropertyInt Name="rotateStepNinety" Value="0" />
      </BoundProperties>
    </ImageClip>
    <ImageClip extentID="4274" gapBefore="0" mediaItemID="4270" duration="0.20000000000000001">
      <Effects />
      <Transitions />
      <BoundProperties>
        <BoundPropertyInt Name="rotateStepNinety" Value="0" />
      </BoundProperties>
    </ImageClip>
    <ImageClip extentID="4275" gapBefore="0" mediaItemID="4271" duration="0.20000000000000001">
      <Effects />
      <Transitions />
      <BoundProperties>
        <BoundPropertyInt Name="rotateStepNinety" Value="0" />
      </BoundProperties>
    </ImageClip>
    <ImageClip extentID="4276" gapBefore="0" mediaItemID="4272" duration="0.20000000000000001">
      <Effects />
      <Transitions />
      <BoundProperties>
        <BoundPropertyInt Name="rotateStepNinety" Value="0" />
      </BoundProperties>
    </ImageClip>
    <ImageClip extentID="4277" gapBefore="0" mediaItemID="4273" duration="0.20000000000000001">
      <Effects />
      <Transitions />
      <BoundProperties>
        <BoundPropertyInt Name="rotateStepNinety" Value="0" />
      </BoundProperties>
    </ImageClip>
    <ImageClip extentID="4278" gapBefore="0" mediaItemID="4274" duration="0.20000000000000001">
      <Effects />
      <Transitions />
      <BoundProperties>
        <BoundPropertyInt Name="rotateStepNinety" Value="0" />
      </BoundProperties>
    </ImageClip>
    <ImageClip extentID="4279" gapBefore="0" mediaItemID="4275" duration="0.20000000000000001">
      <Effects />
      <Transitions />
      <BoundProperties>
        <BoundPropertyInt Name="rotateStepNinety" Value="0" />
      </BoundProperties>
    </ImageClip>
    <ImageClip extentID="4280" gapBefore="0" mediaItemID="4276" duration="0.20000000000000001">
      <Effects />
      <Transitions />
      <BoundProperties>
        <BoundPropertyInt Name="rotateStepNinety" Value="0" />
      </BoundProperties>
    </ImageClip>
    <ImageClip extentID="4281" gapBefore="0" mediaItemID="4277" duration="0.20000000000000001">
      <Effects />
      <Transitions />
      <BoundProperties>
        <BoundPropertyInt Name="rotateStepNinety" Value="0" />
      </BoundProperties>
    </ImageClip>
    <ImageClip extentID="4282" gapBefore="0" mediaItemID="4278" duration="0.20000000000000001">
      <Effects />
      <Transitions />
      <BoundProperties>
        <BoundPropertyInt Name="rotateStepNinety" Value="0" />
      </BoundProperties>
    </ImageClip>
    <ImageClip extentID="4283" gapBefore="0" mediaItemID="4279" duration="0.20000000000000001">
      <Effects />
      <Transitions />
      <BoundProperties>
        <BoundPropertyInt Name="rotateStepNinety" Value="0" />
      </BoundProperties>
    </ImageClip>
    <ImageClip extentID="4284" gapBefore="0" mediaItemID="4280" duration="0.20000000000000001">
      <Effects />
      <Transitions />
      <BoundProperties>
        <BoundPropertyInt Name="rotateStepNinety" Value="0" />
      </BoundProperties>
    </ImageClip>
    <ImageClip extentID="4285" gapBefore="0" mediaItemID="4281" duration="0.20000000000000001">
      <Effects />
      <Transitions />
      <BoundProperties>
        <BoundPropertyInt Name="rotateStepNinety" Value="0" />
      </BoundProperties>
    </ImageClip>
    <ImageClip extentID="4286" gapBefore="0" mediaItemID="4282" duration="0.20000000000000001">
      <Effects />
      <Transitions />
      <BoundProperties>
        <BoundPropertyInt Name="rotateStepNinety" Value="0" />
      </BoundProperties>
    </ImageClip>
    <ImageClip extentID="4287" gapBefore="0" mediaItemID="4283" duration="0.20000000000000001">
      <Effects />
      <Transitions />
      <BoundProperties>
        <BoundPropertyInt Name="rotateStepNinety" Value="0" />
      </BoundProperties>
    </ImageClip>
    <ImageClip extentID="4288" gapBefore="0" mediaItemID="4284" duration="0.20000000000000001">
      <Effects />
      <Transitions />
      <BoundProperties>
        <BoundPropertyInt Name="rotateStepNinety" Value="0" />
      </BoundProperties>
    </ImageClip>
    <ImageClip extentID="4289" gapBefore="0" mediaItemID="4285" duration="0.20000000000000001">
      <Effects />
      <Transitions />
      <BoundProperties>
        <BoundPropertyInt Name="rotateStepNinety" Value="0" />
      </BoundProperties>
    </ImageClip>
    <ImageClip extentID="4290" gapBefore="0" mediaItemID="4286" duration="0.20000000000000001">
      <Effects />
      <Transitions />
      <BoundProperties>
        <BoundPropertyInt Name="rotateStepNinety" Value="0" />
      </BoundProperties>
    </ImageClip>
    <ImageClip extentID="4291" gapBefore="0" mediaItemID="4287" duration="0.20000000000000001">
      <Effects />
      <Transitions />
      <BoundProperties>
        <BoundPropertyInt Name="rotateStepNinety" Value="0" />
      </BoundProperties>
    </ImageClip>
    <ImageClip extentID="4292" gapBefore="0" mediaItemID="4288" duration="0.20000000000000001">
      <Effects />
      <Transitions />
      <BoundProperties>
        <BoundPropertyInt Name="rotateStepNinety" Value="0" />
      </BoundProperties>
    </ImageClip>
    <ImageClip extentID="4293" gapBefore="0" mediaItemID="4289" duration="0.20000000000000001">
      <Effects />
      <Transitions />
      <BoundProperties>
        <BoundPropertyInt Name="rotateStepNinety" Value="0" />
      </BoundProperties>
    </ImageClip>
    <ImageClip extentID="4294" gapBefore="0" mediaItemID="4290" duration="0.20000000000000001">
      <Effects />
      <Transitions />
      <BoundProperties>
        <BoundPropertyInt Name="rotateStepNinety" Value="0" />
      </BoundProperties>
    </ImageClip>
    <ImageClip extentID="4295" gapBefore="0" mediaItemID="4291" duration="0.20000000000000001">
      <Effects />
      <Transitions />
      <BoundProperties>
        <BoundPropertyInt Name="rotateStepNinety" Value="0" />
      </BoundProperties>
    </ImageClip>
    <ImageClip extentID="4296" gapBefore="0" mediaItemID="4292" duration="0.20000000000000001">
      <Effects />
      <Transitions />
      <BoundProperties>
        <BoundPropertyInt Name="rotateStepNinety" Value="0" />
      </BoundProperties>
    </ImageClip>
    <ImageClip extentID="4297" gapBefore="0" mediaItemID="4293" duration="0.20000000000000001">
      <Effects />
      <Transitions />
      <BoundProperties>
        <BoundPropertyInt Name="rotateStepNinety" Value="0" />
      </BoundProperties>
    </ImageClip>
    <ImageClip extentID="4298" gapBefore="0" mediaItemID="4294" duration="0.20000000000000001">
      <Effects />
      <Transitions />
      <BoundProperties>
        <BoundPropertyInt Name="rotateStepNinety" Value="0" />
      </BoundProperties>
    </ImageClip>
    <ImageClip extentID="4299" gapBefore="0" mediaItemID="4295" duration="0.20000000000000001">
      <Effects />
      <Transitions />
      <BoundProperties>
        <BoundPropertyInt Name="rotateStepNinety" Value="0" />
      </BoundProperties>
    </ImageClip>
    <ImageClip extentID="4300" gapBefore="0" mediaItemID="4296" duration="0.20000000000000001">
      <Effects />
      <Transitions />
      <BoundProperties>
        <BoundPropertyInt Name="rotateStepNinety" Value="0" />
      </BoundProperties>
    </ImageClip>
    <ImageClip extentID="4301" gapBefore="0" mediaItemID="4297" duration="0.20000000000000001">
      <Effects />
      <Transitions />
      <BoundProperties>
        <BoundPropertyInt Name="rotateStepNinety" Value="0" />
      </BoundProperties>
    </ImageClip>
    <ImageClip extentID="4302" gapBefore="0" mediaItemID="4298" duration="0.20000000000000001">
      <Effects />
      <Transitions />
      <BoundProperties>
        <BoundPropertyInt Name="rotateStepNinety" Value="0" />
      </BoundProperties>
    </ImageClip>
    <ImageClip extentID="4303" gapBefore="0" mediaItemID="4299" duration="0.20000000000000001">
      <Effects />
      <Transitions />
      <BoundProperties>
        <BoundPropertyInt Name="rotateStepNinety" Value="0" />
      </BoundProperties>
    </ImageClip>
    <ImageClip extentID="4304" gapBefore="0" mediaItemID="4300" duration="0.20000000000000001">
      <Effects />
      <Transitions />
      <BoundProperties>
        <BoundPropertyInt Name="rotateStepNinety" Value="0" />
      </BoundProperties>
    </ImageClip>
    <ImageClip extentID="4305" gapBefore="0" mediaItemID="4301" duration="0.20000000000000001">
      <Effects />
      <Transitions />
      <BoundProperties>
        <BoundPropertyInt Name="rotateStepNinety" Value="0" />
      </BoundProperties>
    </ImageClip>
    <ImageClip extentID="4306" gapBefore="0" mediaItemID="4302" duration="0.20000000000000001">
      <Effects />
      <Transitions />
      <BoundProperties>
        <BoundPropertyInt Name="rotateStepNinety" Value="0" />
      </BoundProperties>
    </ImageClip>
    <ImageClip extentID="4307" gapBefore="0" mediaItemID="4303" duration="0.20000000000000001">
      <Effects />
      <Transitions />
      <BoundProperties>
        <BoundPropertyInt Name="rotateStepNinety" Value="0" />
      </BoundProperties>
    </ImageClip>
    <ImageClip extentID="4308" gapBefore="0" mediaItemID="4304" duration="0.20000000000000001">
      <Effects />
      <Transitions />
      <BoundProperties>
        <BoundPropertyInt Name="rotateStepNinety" Value="0" />
      </BoundProperties>
    </ImageClip>
    <ImageClip extentID="4309" gapBefore="0" mediaItemID="4305" duration="0.20000000000000001">
      <Effects />
      <Transitions />
      <BoundProperties>
        <BoundPropertyInt Name="rotateStepNinety" Value="0" />
      </BoundProperties>
    </ImageClip>
    <ImageClip extentID="4310" gapBefore="0" mediaItemID="4306" duration="0.20000000000000001">
      <Effects />
      <Transitions />
      <BoundProperties>
        <BoundPropertyInt Name="rotateStepNinety" Value="0" />
      </BoundProperties>
    </ImageClip>
    <ImageClip extentID="4311" gapBefore="0" mediaItemID="4307" duration="0.20000000000000001">
      <Effects />
      <Transitions />
      <BoundProperties>
        <BoundPropertyInt Name="rotateStepNinety" Value="0" />
      </BoundProperties>
    </ImageClip>
    <ImageClip extentID="4312" gapBefore="0" mediaItemID="4308" duration="0.20000000000000001">
      <Effects />
      <Transitions />
      <BoundProperties>
        <BoundPropertyInt Name="rotateStepNinety" Value="0" />
      </BoundProperties>
    </ImageClip>
    <ImageClip extentID="4313" gapBefore="0" mediaItemID="4309" duration="0.20000000000000001">
      <Effects />
      <Transitions />
      <BoundProperties>
        <BoundPropertyInt Name="rotateStepNinety" Value="0" />
      </BoundProperties>
    </ImageClip>
    <ImageClip extentID="4314" gapBefore="0" mediaItemID="4310" duration="0.20000000000000001">
      <Effects />
      <Transitions />
      <BoundProperties>
        <BoundPropertyInt Name="rotateStepNinety" Value="0" />
      </BoundProperties>
    </ImageClip>
    <ImageClip extentID="4315" gapBefore="0" mediaItemID="4311" duration="0.20000000000000001">
      <Effects />
      <Transitions />
      <BoundProperties>
        <BoundPropertyInt Name="rotateStepNinety" Value="0" />
      </BoundProperties>
    </ImageClip>
    <ImageClip extentID="4316" gapBefore="0" mediaItemID="4312" duration="0.20000000000000001">
      <Effects />
      <Transitions />
      <BoundProperties>
        <BoundPropertyInt Name="rotateStepNinety" Value="0" />
      </BoundProperties>
    </ImageClip>
    <ImageClip extentID="4317" gapBefore="0" mediaItemID="4313" duration="0.20000000000000001">
      <Effects />
      <Transitions />
      <BoundProperties>
        <BoundPropertyInt Name="rotateStepNinety" Value="0" />
      </BoundProperties>
    </ImageClip>
    <ImageClip extentID="4318" gapBefore="0" mediaItemID="4314" duration="0.20000000000000001">
      <Effects />
      <Transitions />
      <BoundProperties>
        <BoundPropertyInt Name="rotateStepNinety" Value="0" />
      </BoundProperties>
    </ImageClip>
    <ImageClip extentID="4319" gapBefore="0" mediaItemID="4315" duration="0.20000000000000001">
      <Effects />
      <Transitions />
      <BoundProperties>
        <BoundPropertyInt Name="rotateStepNinety" Value="0" />
      </BoundProperties>
    </ImageClip>
    <ImageClip extentID="4320" gapBefore="0" mediaItemID="4316" duration="0.20000000000000001">
      <Effects />
      <Transitions />
      <BoundProperties>
        <BoundPropertyInt Name="rotateStepNinety" Value="0" />
      </BoundProperties>
    </ImageClip>
    <ImageClip extentID="4321" gapBefore="0" mediaItemID="4317" duration="0.20000000000000001">
      <Effects />
      <Transitions />
      <BoundProperties>
        <BoundPropertyInt Name="rotateStepNinety" Value="0" />
      </BoundProperties>
    </ImageClip>
    <ImageClip extentID="4322" gapBefore="0" mediaItemID="4318" duration="0.20000000000000001">
      <Effects />
      <Transitions />
      <BoundProperties>
        <BoundPropertyInt Name="rotateStepNinety" Value="0" />
      </BoundProperties>
    </ImageClip>
    <ImageClip extentID="4323" gapBefore="0" mediaItemID="4319" duration="0.20000000000000001">
      <Effects />
      <Transitions />
      <BoundProperties>
        <BoundPropertyInt Name="rotateStepNinety" Value="0" />
      </BoundProperties>
    </ImageClip>
    <ImageClip extentID="4324" gapBefore="0" mediaItemID="4320" duration="0.20000000000000001">
      <Effects />
      <Transitions />
      <BoundProperties>
        <BoundPropertyInt Name="rotateStepNinety" Value="0" />
      </BoundProperties>
    </ImageClip>
    <ImageClip extentID="4325" gapBefore="0" mediaItemID="4321" duration="0.20000000000000001">
      <Effects />
      <Transitions />
      <BoundProperties>
        <BoundPropertyInt Name="rotateStepNinety" Value="0" />
      </BoundProperties>
    </ImageClip>
    <ImageClip extentID="4326" gapBefore="0" mediaItemID="4322" duration="0.20000000000000001">
      <Effects />
      <Transitions />
      <BoundProperties>
        <BoundPropertyInt Name="rotateStepNinety" Value="0" />
      </BoundProperties>
    </ImageClip>
    <ImageClip extentID="4327" gapBefore="0" mediaItemID="4323" duration="0.20000000000000001">
      <Effects />
      <Transitions />
      <BoundProperties>
        <BoundPropertyInt Name="rotateStepNinety" Value="0" />
      </BoundProperties>
    </ImageClip>
    <ImageClip extentID="4328" gapBefore="0" mediaItemID="4324" duration="0.20000000000000001">
      <Effects />
      <Transitions />
      <BoundProperties>
        <BoundPropertyInt Name="rotateStepNinety" Value="0" />
      </BoundProperties>
    </ImageClip>
    <ImageClip extentID="4329" gapBefore="0" mediaItemID="4325" duration="0.20000000000000001">
      <Effects />
      <Transitions />
      <BoundProperties>
        <BoundPropertyInt Name="rotateStepNinety" Value="0" />
      </BoundProperties>
    </ImageClip>
    <ImageClip extentID="4330" gapBefore="0" mediaItemID="4326" duration="0.20000000000000001">
      <Effects />
      <Transitions />
      <BoundProperties>
        <BoundPropertyInt Name="rotateStepNinety" Value="0" />
      </BoundProperties>
    </ImageClip>
    <ImageClip extentID="4331" gapBefore="0" mediaItemID="4327" duration="0.20000000000000001">
      <Effects />
      <Transitions />
      <BoundProperties>
        <BoundPropertyInt Name="rotateStepNinety" Value="0" />
      </BoundProperties>
    </ImageClip>
    <ImageClip extentID="4332" gapBefore="0" mediaItemID="4328" duration="0.20000000000000001">
      <Effects />
      <Transitions />
      <BoundProperties>
        <BoundPropertyInt Name="rotateStepNinety" Value="0" />
      </BoundProperties>
    </ImageClip>
    <ImageClip extentID="4333" gapBefore="0" mediaItemID="4329" duration="0.20000000000000001">
      <Effects />
      <Transitions />
      <BoundProperties>
        <BoundPropertyInt Name="rotateStepNinety" Value="0" />
      </BoundProperties>
    </ImageClip>
    <ImageClip extentID="4334" gapBefore="0" mediaItemID="4330" duration="0.20000000000000001">
      <Effects />
      <Transitions />
      <BoundProperties>
        <BoundPropertyInt Name="rotateStepNinety" Value="0" />
      </BoundProperties>
    </ImageClip>
    <ImageClip extentID="4335" gapBefore="0" mediaItemID="4331" duration="0.20000000000000001">
      <Effects />
      <Transitions />
      <BoundProperties>
        <BoundPropertyInt Name="rotateStepNinety" Value="0" />
      </BoundProperties>
    </ImageClip>
    <ImageClip extentID="4336" gapBefore="0" mediaItemID="4332" duration="0.20000000000000001">
      <Effects />
      <Transitions />
      <BoundProperties>
        <BoundPropertyInt Name="rotateStepNinety" Value="0" />
      </BoundProperties>
    </ImageClip>
    <ImageClip extentID="4337" gapBefore="0" mediaItemID="4333" duration="0.20000000000000001">
      <Effects />
      <Transitions />
      <BoundProperties>
        <BoundPropertyInt Name="rotateStepNinety" Value="0" />
      </BoundProperties>
    </ImageClip>
    <ImageClip extentID="4338" gapBefore="0" mediaItemID="4334" duration="0.20000000000000001">
      <Effects />
      <Transitions />
      <BoundProperties>
        <BoundPropertyInt Name="rotateStepNinety" Value="0" />
      </BoundProperties>
    </ImageClip>
    <ImageClip extentID="4339" gapBefore="0" mediaItemID="4335" duration="0.20000000000000001">
      <Effects />
      <Transitions />
      <BoundProperties>
        <BoundPropertyInt Name="rotateStepNinety" Value="0" />
      </BoundProperties>
    </ImageClip>
    <ImageClip extentID="4340" gapBefore="0" mediaItemID="4336" duration="0.20000000000000001">
      <Effects />
      <Transitions />
      <BoundProperties>
        <BoundPropertyInt Name="rotateStepNinety" Value="0" />
      </BoundProperties>
    </ImageClip>
    <ImageClip extentID="4341" gapBefore="0" mediaItemID="4337" duration="0.20000000000000001">
      <Effects />
      <Transitions />
      <BoundProperties>
        <BoundPropertyInt Name="rotateStepNinety" Value="0" />
      </BoundProperties>
    </ImageClip>
    <ImageClip extentID="4342" gapBefore="0" mediaItemID="4338" duration="0.20000000000000001">
      <Effects />
      <Transitions />
      <BoundProperties>
        <BoundPropertyInt Name="rotateStepNinety" Value="0" />
      </BoundProperties>
    </ImageClip>
    <ImageClip extentID="4343" gapBefore="0" mediaItemID="4339" duration="0.20000000000000001">
      <Effects />
      <Transitions />
      <BoundProperties>
        <BoundPropertyInt Name="rotateStepNinety" Value="0" />
      </BoundProperties>
    </ImageClip>
    <ImageClip extentID="4344" gapBefore="0" mediaItemID="4340" duration="0.20000000000000001">
      <Effects />
      <Transitions />
      <BoundProperties>
        <BoundPropertyInt Name="rotateStepNinety" Value="0" />
      </BoundProperties>
    </ImageClip>
    <ImageClip extentID="4345" gapBefore="0" mediaItemID="4341" duration="0.20000000000000001">
      <Effects />
      <Transitions />
      <BoundProperties>
        <BoundPropertyInt Name="rotateStepNinety" Value="0" />
      </BoundProperties>
    </ImageClip>
    <ImageClip extentID="4346" gapBefore="0" mediaItemID="4342" duration="0.20000000000000001">
      <Effects />
      <Transitions />
      <BoundProperties>
        <BoundPropertyInt Name="rotateStepNinety" Value="0" />
      </BoundProperties>
    </ImageClip>
    <ImageClip extentID="4347" gapBefore="0" mediaItemID="4343" duration="0.20000000000000001">
      <Effects />
      <Transitions />
      <BoundProperties>
        <BoundPropertyInt Name="rotateStepNinety" Value="0" />
      </BoundProperties>
    </ImageClip>
    <ImageClip extentID="4348" gapBefore="0" mediaItemID="4344" duration="0.20000000000000001">
      <Effects />
      <Transitions />
      <BoundProperties>
        <BoundPropertyInt Name="rotateStepNinety" Value="0" />
      </BoundProperties>
    </ImageClip>
    <ImageClip extentID="4349" gapBefore="0" mediaItemID="4345" duration="0.20000000000000001">
      <Effects />
      <Transitions />
      <BoundProperties>
        <BoundPropertyInt Name="rotateStepNinety" Value="0" />
      </BoundProperties>
    </ImageClip>
    <ImageClip extentID="4350" gapBefore="0" mediaItemID="4346" duration="0.20000000000000001">
      <Effects />
      <Transitions />
      <BoundProperties>
        <BoundPropertyInt Name="rotateStepNinety" Value="0" />
      </BoundProperties>
    </ImageClip>
    <ImageClip extentID="4351" gapBefore="0" mediaItemID="4347" duration="0.20000000000000001">
      <Effects />
      <Transitions />
      <BoundProperties>
        <BoundPropertyInt Name="rotateStepNinety" Value="0" />
      </BoundProperties>
    </ImageClip>
    <ImageClip extentID="4352" gapBefore="0" mediaItemID="4348" duration="0.20000000000000001">
      <Effects />
      <Transitions />
      <BoundProperties>
        <BoundPropertyInt Name="rotateStepNinety" Value="0" />
      </BoundProperties>
    </ImageClip>
    <ImageClip extentID="4353" gapBefore="0" mediaItemID="4349" duration="0.20000000000000001">
      <Effects />
      <Transitions />
      <BoundProperties>
        <BoundPropertyInt Name="rotateStepNinety" Value="0" />
      </BoundProperties>
    </ImageClip>
    <ImageClip extentID="4354" gapBefore="0" mediaItemID="4350" duration="0.20000000000000001">
      <Effects />
      <Transitions />
      <BoundProperties>
        <BoundPropertyInt Name="rotateStepNinety" Value="0" />
      </BoundProperties>
    </ImageClip>
    <ImageClip extentID="4355" gapBefore="0" mediaItemID="4351" duration="0.20000000000000001">
      <Effects />
      <Transitions />
      <BoundProperties>
        <BoundPropertyInt Name="rotateStepNinety" Value="0" />
      </BoundProperties>
    </ImageClip>
    <ImageClip extentID="4356" gapBefore="0" mediaItemID="4352" duration="0.20000000000000001">
      <Effects />
      <Transitions />
      <BoundProperties>
        <BoundPropertyInt Name="rotateStepNinety" Value="0" />
      </BoundProperties>
    </ImageClip>
    <ImageClip extentID="4357" gapBefore="0" mediaItemID="4353" duration="0.20000000000000001">
      <Effects />
      <Transitions />
      <BoundProperties>
        <BoundPropertyInt Name="rotateStepNinety" Value="0" />
      </BoundProperties>
    </ImageClip>
    <ImageClip extentID="4358" gapBefore="0" mediaItemID="4354" duration="0.20000000000000001">
      <Effects />
      <Transitions />
      <BoundProperties>
        <BoundPropertyInt Name="rotateStepNinety" Value="0" />
      </BoundProperties>
    </ImageClip>
    <ImageClip extentID="4359" gapBefore="0" mediaItemID="4355" duration="0.20000000000000001">
      <Effects />
      <Transitions />
      <BoundProperties>
        <BoundPropertyInt Name="rotateStepNinety" Value="0" />
      </BoundProperties>
    </ImageClip>
    <ImageClip extentID="4360" gapBefore="0" mediaItemID="4356" duration="0.20000000000000001">
      <Effects />
      <Transitions />
      <BoundProperties>
        <BoundPropertyInt Name="rotateStepNinety" Value="0" />
      </BoundProperties>
    </ImageClip>
    <ImageClip extentID="4361" gapBefore="0" mediaItemID="4357" duration="0.20000000000000001">
      <Effects />
      <Transitions />
      <BoundProperties>
        <BoundPropertyInt Name="rotateStepNinety" Value="0" />
      </BoundProperties>
    </ImageClip>
    <ImageClip extentID="4362" gapBefore="0" mediaItemID="4358" duration="0.20000000000000001">
      <Effects />
      <Transitions />
      <BoundProperties>
        <BoundPropertyInt Name="rotateStepNinety" Value="0" />
      </BoundProperties>
    </ImageClip>
    <ImageClip extentID="4363" gapBefore="0" mediaItemID="4359" duration="0.20000000000000001">
      <Effects />
      <Transitions />
      <BoundProperties>
        <BoundPropertyInt Name="rotateStepNinety" Value="0" />
      </BoundProperties>
    </ImageClip>
    <ImageClip extentID="4364" gapBefore="0" mediaItemID="4360" duration="0.20000000000000001">
      <Effects />
      <Transitions />
      <BoundProperties>
        <BoundPropertyInt Name="rotateStepNinety" Value="0" />
      </BoundProperties>
    </ImageClip>
    <ImageClip extentID="4365" gapBefore="0" mediaItemID="4361" duration="0.20000000000000001">
      <Effects />
      <Transitions />
      <BoundProperties>
        <BoundPropertyInt Name="rotateStepNinety" Value="0" />
      </BoundProperties>
    </ImageClip>
    <ImageClip extentID="4366" gapBefore="0" mediaItemID="4362" duration="0.20000000000000001">
      <Effects />
      <Transitions />
      <BoundProperties>
        <BoundPropertyInt Name="rotateStepNinety" Value="0" />
      </BoundProperties>
    </ImageClip>
    <ImageClip extentID="4367" gapBefore="0" mediaItemID="4363" duration="0.20000000000000001">
      <Effects />
      <Transitions />
      <BoundProperties>
        <BoundPropertyInt Name="rotateStepNinety" Value="0" />
      </BoundProperties>
    </ImageClip>
    <ImageClip extentID="4368" gapBefore="0" mediaItemID="4364" duration="0.20000000000000001">
      <Effects />
      <Transitions />
      <BoundProperties>
        <BoundPropertyInt Name="rotateStepNinety" Value="0" />
      </BoundProperties>
    </ImageClip>
    <ImageClip extentID="4369" gapBefore="0" mediaItemID="4365" duration="0.20000000000000001">
      <Effects />
      <Transitions />
      <BoundProperties>
        <BoundPropertyInt Name="rotateStepNinety" Value="0" />
      </BoundProperties>
    </ImageClip>
    <ImageClip extentID="4370" gapBefore="0" mediaItemID="4366" duration="0.20000000000000001">
      <Effects />
      <Transitions />
      <BoundProperties>
        <BoundPropertyInt Name="rotateStepNinety" Value="0" />
      </BoundProperties>
    </ImageClip>
    <ImageClip extentID="4371" gapBefore="0" mediaItemID="4367" duration="0.20000000000000001">
      <Effects />
      <Transitions />
      <BoundProperties>
        <BoundPropertyInt Name="rotateStepNinety" Value="0" />
      </BoundProperties>
    </ImageClip>
    <ImageClip extentID="4372" gapBefore="0" mediaItemID="4368" duration="0.20000000000000001">
      <Effects />
      <Transitions />
      <BoundProperties>
        <BoundPropertyInt Name="rotateStepNinety" Value="0" />
      </BoundProperties>
    </ImageClip>
    <ImageClip extentID="4373" gapBefore="0" mediaItemID="4369" duration="0.20000000000000001">
      <Effects />
      <Transitions />
      <BoundProperties>
        <BoundPropertyInt Name="rotateStepNinety" Value="0" />
      </BoundProperties>
    </ImageClip>
    <ImageClip extentID="4374" gapBefore="0" mediaItemID="4370" duration="0.20000000000000001">
      <Effects />
      <Transitions />
      <BoundProperties>
        <BoundPropertyInt Name="rotateStepNinety" Value="0" />
      </BoundProperties>
    </ImageClip>
    <ImageClip extentID="4375" gapBefore="0" mediaItemID="4371" duration="0.20000000000000001">
      <Effects />
      <Transitions />
      <BoundProperties>
        <BoundPropertyInt Name="rotateStepNinety" Value="0" />
      </BoundProperties>
    </ImageClip>
    <ImageClip extentID="4376" gapBefore="0" mediaItemID="4372" duration="0.20000000000000001">
      <Effects />
      <Transitions />
      <BoundProperties>
        <BoundPropertyInt Name="rotateStepNinety" Value="0" />
      </BoundProperties>
    </ImageClip>
    <ImageClip extentID="4377" gapBefore="0" mediaItemID="4373" duration="0.20000000000000001">
      <Effects />
      <Transitions />
      <BoundProperties>
        <BoundPropertyInt Name="rotateStepNinety" Value="0" />
      </BoundProperties>
    </ImageClip>
    <ImageClip extentID="4378" gapBefore="0" mediaItemID="4374" duration="0.20000000000000001">
      <Effects />
      <Transitions />
      <BoundProperties>
        <BoundPropertyInt Name="rotateStepNinety" Value="0" />
      </BoundProperties>
    </ImageClip>
    <ImageClip extentID="4379" gapBefore="0" mediaItemID="4375" duration="0.20000000000000001">
      <Effects />
      <Transitions />
      <BoundProperties>
        <BoundPropertyInt Name="rotateStepNinety" Value="0" />
      </BoundProperties>
    </ImageClip>
    <ImageClip extentID="4380" gapBefore="0" mediaItemID="4376" duration="0.20000000000000001">
      <Effects />
      <Transitions />
      <BoundProperties>
        <BoundPropertyInt Name="rotateStepNinety" Value="0" />
      </BoundProperties>
    </ImageClip>
    <ImageClip extentID="4381" gapBefore="0" mediaItemID="4377" duration="0.20000000000000001">
      <Effects />
      <Transitions />
      <BoundProperties>
        <BoundPropertyInt Name="rotateStepNinety" Value="0" />
      </BoundProperties>
    </ImageClip>
    <ImageClip extentID="4382" gapBefore="0" mediaItemID="4378" duration="0.20000000000000001">
      <Effects />
      <Transitions />
      <BoundProperties>
        <BoundPropertyInt Name="rotateStepNinety" Value="0" />
      </BoundProperties>
    </ImageClip>
    <ImageClip extentID="4383" gapBefore="0" mediaItemID="4379" duration="0.20000000000000001">
      <Effects />
      <Transitions />
      <BoundProperties>
        <BoundPropertyInt Name="rotateStepNinety" Value="0" />
      </BoundProperties>
    </ImageClip>
    <ImageClip extentID="4384" gapBefore="0" mediaItemID="4380" duration="0.20000000000000001">
      <Effects />
      <Transitions />
      <BoundProperties>
        <BoundPropertyInt Name="rotateStepNinety" Value="0" />
      </BoundProperties>
    </ImageClip>
    <ImageClip extentID="4385" gapBefore="0" mediaItemID="4381" duration="0.20000000000000001">
      <Effects />
      <Transitions />
      <BoundProperties>
        <BoundPropertyInt Name="rotateStepNinety" Value="0" />
      </BoundProperties>
    </ImageClip>
    <ImageClip extentID="4386" gapBefore="0" mediaItemID="4382" duration="0.20000000000000001">
      <Effects />
      <Transitions />
      <BoundProperties>
        <BoundPropertyInt Name="rotateStepNinety" Value="0" />
      </BoundProperties>
    </ImageClip>
    <ImageClip extentID="4387" gapBefore="0" mediaItemID="4383" duration="0.20000000000000001">
      <Effects />
      <Transitions />
      <BoundProperties>
        <BoundPropertyInt Name="rotateStepNinety" Value="0" />
      </BoundProperties>
    </ImageClip>
    <ImageClip extentID="4388" gapBefore="0" mediaItemID="4384" duration="0.20000000000000001">
      <Effects />
      <Transitions />
      <BoundProperties>
        <BoundPropertyInt Name="rotateStepNinety" Value="0" />
      </BoundProperties>
    </ImageClip>
    <ImageClip extentID="4389" gapBefore="0" mediaItemID="4385" duration="0.20000000000000001">
      <Effects />
      <Transitions />
      <BoundProperties>
        <BoundPropertyInt Name="rotateStepNinety" Value="0" />
      </BoundProperties>
    </ImageClip>
    <ImageClip extentID="4390" gapBefore="0" mediaItemID="4386" duration="0.20000000000000001">
      <Effects />
      <Transitions />
      <BoundProperties>
        <BoundPropertyInt Name="rotateStepNinety" Value="0" />
      </BoundProperties>
    </ImageClip>
    <ImageClip extentID="4391" gapBefore="0" mediaItemID="4387" duration="0.20000000000000001">
      <Effects />
      <Transitions />
      <BoundProperties>
        <BoundPropertyInt Name="rotateStepNinety" Value="0" />
      </BoundProperties>
    </ImageClip>
    <ImageClip extentID="4392" gapBefore="0" mediaItemID="4388" duration="0.20000000000000001">
      <Effects />
      <Transitions />
      <BoundProperties>
        <BoundPropertyInt Name="rotateStepNinety" Value="0" />
      </BoundProperties>
    </ImageClip>
    <ImageClip extentID="4393" gapBefore="0" mediaItemID="4389" duration="0.20000000000000001">
      <Effects />
      <Transitions />
      <BoundProperties>
        <BoundPropertyInt Name="rotateStepNinety" Value="0" />
      </BoundProperties>
    </ImageClip>
    <ImageClip extentID="4394" gapBefore="0" mediaItemID="4390" duration="0.20000000000000001">
      <Effects />
      <Transitions />
      <BoundProperties>
        <BoundPropertyInt Name="rotateStepNinety" Value="0" />
      </BoundProperties>
    </ImageClip>
    <ImageClip extentID="4395" gapBefore="0" mediaItemID="4391" duration="0.20000000000000001">
      <Effects />
      <Transitions />
      <BoundProperties>
        <BoundPropertyInt Name="rotateStepNinety" Value="0" />
      </BoundProperties>
    </ImageClip>
    <ImageClip extentID="4396" gapBefore="0" mediaItemID="4392" duration="0.20000000000000001">
      <Effects />
      <Transitions />
      <BoundProperties>
        <BoundPropertyInt Name="rotateStepNinety" Value="0" />
      </BoundProperties>
    </ImageClip>
    <ImageClip extentID="4397" gapBefore="0" mediaItemID="4393" duration="0.20000000000000001">
      <Effects />
      <Transitions />
      <BoundProperties>
        <BoundPropertyInt Name="rotateStepNinety" Value="0" />
      </BoundProperties>
    </ImageClip>
    <ImageClip extentID="4398" gapBefore="0" mediaItemID="4394" duration="0.20000000000000001">
      <Effects />
      <Transitions />
      <BoundProperties>
        <BoundPropertyInt Name="rotateStepNinety" Value="0" />
      </BoundProperties>
    </ImageClip>
    <ImageClip extentID="4399" gapBefore="0" mediaItemID="4395" duration="0.20000000000000001">
      <Effects />
      <Transitions />
      <BoundProperties>
        <BoundPropertyInt Name="rotateStepNinety" Value="0" />
      </BoundProperties>
    </ImageClip>
    <ImageClip extentID="4400" gapBefore="0" mediaItemID="4396" duration="0.20000000000000001">
      <Effects />
      <Transitions />
      <BoundProperties>
        <BoundPropertyInt Name="rotateStepNinety" Value="0" />
      </BoundProperties>
    </ImageClip>
    <ImageClip extentID="4401" gapBefore="0" mediaItemID="4397" duration="0.20000000000000001">
      <Effects />
      <Transitions />
      <BoundProperties>
        <BoundPropertyInt Name="rotateStepNinety" Value="0" />
      </BoundProperties>
    </ImageClip>
    <ImageClip extentID="4402" gapBefore="0" mediaItemID="4398" duration="0.20000000000000001">
      <Effects />
      <Transitions />
      <BoundProperties>
        <BoundPropertyInt Name="rotateStepNinety" Value="0" />
      </BoundProperties>
    </ImageClip>
    <ImageClip extentID="4403" gapBefore="0" mediaItemID="4399" duration="0.20000000000000001">
      <Effects />
      <Transitions />
      <BoundProperties>
        <BoundPropertyInt Name="rotateStepNinety" Value="0" />
      </BoundProperties>
    </ImageClip>
    <ImageClip extentID="4404" gapBefore="0" mediaItemID="4400" duration="0.20000000000000001">
      <Effects />
      <Transitions />
      <BoundProperties>
        <BoundPropertyInt Name="rotateStepNinety" Value="0" />
      </BoundProperties>
    </ImageClip>
    <ImageClip extentID="4405" gapBefore="0" mediaItemID="4401" duration="0.20000000000000001">
      <Effects />
      <Transitions />
      <BoundProperties>
        <BoundPropertyInt Name="rotateStepNinety" Value="0" />
      </BoundProperties>
    </ImageClip>
    <ImageClip extentID="4406" gapBefore="0" mediaItemID="4402" duration="0.20000000000000001">
      <Effects />
      <Transitions />
      <BoundProperties>
        <BoundPropertyInt Name="rotateStepNinety" Value="0" />
      </BoundProperties>
    </ImageClip>
    <ImageClip extentID="4407" gapBefore="0" mediaItemID="4403" duration="0.20000000000000001">
      <Effects />
      <Transitions />
      <BoundProperties>
        <BoundPropertyInt Name="rotateStepNinety" Value="0" />
      </BoundProperties>
    </ImageClip>
    <ImageClip extentID="4408" gapBefore="0" mediaItemID="4404" duration="0.20000000000000001">
      <Effects />
      <Transitions />
      <BoundProperties>
        <BoundPropertyInt Name="rotateStepNinety" Value="0" />
      </BoundProperties>
    </ImageClip>
    <ImageClip extentID="4409" gapBefore="0" mediaItemID="4405" duration="0.20000000000000001">
      <Effects />
      <Transitions />
      <BoundProperties>
        <BoundPropertyInt Name="rotateStepNinety" Value="0" />
      </BoundProperties>
    </ImageClip>
    <ImageClip extentID="4410" gapBefore="0" mediaItemID="4406" duration="0.20000000000000001">
      <Effects />
      <Transitions />
      <BoundProperties>
        <BoundPropertyInt Name="rotateStepNinety" Value="0" />
      </BoundProperties>
    </ImageClip>
    <ImageClip extentID="4411" gapBefore="0" mediaItemID="4407" duration="0.20000000000000001">
      <Effects />
      <Transitions />
      <BoundProperties>
        <BoundPropertyInt Name="rotateStepNinety" Value="0" />
      </BoundProperties>
    </ImageClip>
    <ImageClip extentID="4412" gapBefore="0" mediaItemID="4408" duration="0.20000000000000001">
      <Effects />
      <Transitions />
      <BoundProperties>
        <BoundPropertyInt Name="rotateStepNinety" Value="0" />
      </BoundProperties>
    </ImageClip>
    <ImageClip extentID="4413" gapBefore="0" mediaItemID="4409" duration="0.20000000000000001">
      <Effects />
      <Transitions />
      <BoundProperties>
        <BoundPropertyInt Name="rotateStepNinety" Value="0" />
      </BoundProperties>
    </ImageClip>
    <ImageClip extentID="4414" gapBefore="0" mediaItemID="4410" duration="0.20000000000000001">
      <Effects />
      <Transitions />
      <BoundProperties>
        <BoundPropertyInt Name="rotateStepNinety" Value="0" />
      </BoundProperties>
    </ImageClip>
    <ImageClip extentID="4415" gapBefore="0" mediaItemID="4411" duration="0.20000000000000001">
      <Effects />
      <Transitions />
      <BoundProperties>
        <BoundPropertyInt Name="rotateStepNinety" Value="0" />
      </BoundProperties>
    </ImageClip>
    <ImageClip extentID="4416" gapBefore="0" mediaItemID="4412" duration="0.20000000000000001">
      <Effects />
      <Transitions />
      <BoundProperties>
        <BoundPropertyInt Name="rotateStepNinety" Value="0" />
      </BoundProperties>
    </ImageClip>
    <ImageClip extentID="4417" gapBefore="0" mediaItemID="4413" duration="0.20000000000000001">
      <Effects />
      <Transitions />
      <BoundProperties>
        <BoundPropertyInt Name="rotateStepNinety" Value="0" />
      </BoundProperties>
    </ImageClip>
    <ImageClip extentID="4418" gapBefore="0" mediaItemID="4414" duration="0.20000000000000001">
      <Effects />
      <Transitions />
      <BoundProperties>
        <BoundPropertyInt Name="rotateStepNinety" Value="0" />
      </BoundProperties>
    </ImageClip>
    <ImageClip extentID="4419" gapBefore="0" mediaItemID="4415" duration="0.20000000000000001">
      <Effects />
      <Transitions />
      <BoundProperties>
        <BoundPropertyInt Name="rotateStepNinety" Value="0" />
      </BoundProperties>
    </ImageClip>
    <ImageClip extentID="4420" gapBefore="0" mediaItemID="4416" duration="0.20000000000000001">
      <Effects />
      <Transitions />
      <BoundProperties>
        <BoundPropertyInt Name="rotateStepNinety" Value="0" />
      </BoundProperties>
    </ImageClip>
    <ImageClip extentID="4421" gapBefore="0" mediaItemID="4417" duration="0.20000000000000001">
      <Effects />
      <Transitions />
      <BoundProperties>
        <BoundPropertyInt Name="rotateStepNinety" Value="0" />
      </BoundProperties>
    </ImageClip>
    <ImageClip extentID="4422" gapBefore="0" mediaItemID="4418" duration="0.20000000000000001">
      <Effects />
      <Transitions />
      <BoundProperties>
        <BoundPropertyInt Name="rotateStepNinety" Value="0" />
      </BoundProperties>
    </ImageClip>
    <ImageClip extentID="4423" gapBefore="0" mediaItemID="4419" duration="0.20000000000000001">
      <Effects />
      <Transitions />
      <BoundProperties>
        <BoundPropertyInt Name="rotateStepNinety" Value="0" />
      </BoundProperties>
    </ImageClip>
    <ImageClip extentID="4424" gapBefore="0" mediaItemID="4420" duration="0.20000000000000001">
      <Effects />
      <Transitions />
      <BoundProperties>
        <BoundPropertyInt Name="rotateStepNinety" Value="0" />
      </BoundProperties>
    </ImageClip>
    <ImageClip extentID="4425" gapBefore="0" mediaItemID="4421" duration="0.20000000000000001">
      <Effects />
      <Transitions />
      <BoundProperties>
        <BoundPropertyInt Name="rotateStepNinety" Value="0" />
      </BoundProperties>
    </ImageClip>
    <ImageClip extentID="4426" gapBefore="0" mediaItemID="4422" duration="0.20000000000000001">
      <Effects />
      <Transitions />
      <BoundProperties>
        <BoundPropertyInt Name="rotateStepNinety" Value="0" />
      </BoundProperties>
    </ImageClip>
    <ImageClip extentID="4427" gapBefore="0" mediaItemID="4423" duration="0.20000000000000001">
      <Effects />
      <Transitions />
      <BoundProperties>
        <BoundPropertyInt Name="rotateStepNinety" Value="0" />
      </BoundProperties>
    </ImageClip>
    <ImageClip extentID="4428" gapBefore="0" mediaItemID="4424" duration="0.20000000000000001">
      <Effects />
      <Transitions />
      <BoundProperties>
        <BoundPropertyInt Name="rotateStepNinety" Value="0" />
      </BoundProperties>
    </ImageClip>
    <ImageClip extentID="4429" gapBefore="0" mediaItemID="4425" duration="0.20000000000000001">
      <Effects />
      <Transitions />
      <BoundProperties>
        <BoundPropertyInt Name="rotateStepNinety" Value="0" />
      </BoundProperties>
    </ImageClip>
    <ImageClip extentID="4430" gapBefore="0" mediaItemID="4426" duration="0.20000000000000001">
      <Effects />
      <Transitions />
      <BoundProperties>
        <BoundPropertyInt Name="rotateStepNinety" Value="0" />
      </BoundProperties>
    </ImageClip>
    <ImageClip extentID="4431" gapBefore="0" mediaItemID="4427" duration="0.20000000000000001">
      <Effects />
      <Transitions />
      <BoundProperties>
        <BoundPropertyInt Name="rotateStepNinety" Value="0" />
      </BoundProperties>
    </ImageClip>
    <ImageClip extentID="4432" gapBefore="0" mediaItemID="4428" duration="0.20000000000000001">
      <Effects />
      <Transitions />
      <BoundProperties>
        <BoundPropertyInt Name="rotateStepNinety" Value="0" />
      </BoundProperties>
    </ImageClip>
    <ImageClip extentID="4433" gapBefore="0" mediaItemID="4429" duration="0.20000000000000001">
      <Effects />
      <Transitions />
      <BoundProperties>
        <BoundPropertyInt Name="rotateStepNinety" Value="0" />
      </BoundProperties>
    </ImageClip>
    <ImageClip extentID="4434" gapBefore="0" mediaItemID="4430" duration="0.20000000000000001">
      <Effects />
      <Transitions />
      <BoundProperties>
        <BoundPropertyInt Name="rotateStepNinety" Value="0" />
      </BoundProperties>
    </ImageClip>
    <ImageClip extentID="4435" gapBefore="0" mediaItemID="4431" duration="0.20000000000000001">
      <Effects />
      <Transitions />
      <BoundProperties>
        <BoundPropertyInt Name="rotateStepNinety" Value="0" />
      </BoundProperties>
    </ImageClip>
    <ImageClip extentID="4436" gapBefore="0" mediaItemID="4432" duration="0.20000000000000001">
      <Effects />
      <Transitions />
      <BoundProperties>
        <BoundPropertyInt Name="rotateStepNinety" Value="0" />
      </BoundProperties>
    </ImageClip>
    <ImageClip extentID="4437" gapBefore="0" mediaItemID="4433" duration="0.20000000000000001">
      <Effects />
      <Transitions />
      <BoundProperties>
        <BoundPropertyInt Name="rotateStepNinety" Value="0" />
      </BoundProperties>
    </ImageClip>
    <ImageClip extentID="4438" gapBefore="0" mediaItemID="4434" duration="0.20000000000000001">
      <Effects />
      <Transitions />
      <BoundProperties>
        <BoundPropertyInt Name="rotateStepNinety" Value="0" />
      </BoundProperties>
    </ImageClip>
    <ImageClip extentID="4439" gapBefore="0" mediaItemID="4435" duration="0.20000000000000001">
      <Effects />
      <Transitions />
      <BoundProperties>
        <BoundPropertyInt Name="rotateStepNinety" Value="0" />
      </BoundProperties>
    </ImageClip>
    <ImageClip extentID="4440" gapBefore="0" mediaItemID="4436" duration="0.20000000000000001">
      <Effects />
      <Transitions />
      <BoundProperties>
        <BoundPropertyInt Name="rotateStepNinety" Value="0" />
      </BoundProperties>
    </ImageClip>
    <ImageClip extentID="4441" gapBefore="0" mediaItemID="4437" duration="0.20000000000000001">
      <Effects />
      <Transitions />
      <BoundProperties>
        <BoundPropertyInt Name="rotateStepNinety" Value="0" />
      </BoundProperties>
    </ImageClip>
    <ImageClip extentID="4442" gapBefore="0" mediaItemID="4438" duration="0.20000000000000001">
      <Effects />
      <Transitions />
      <BoundProperties>
        <BoundPropertyInt Name="rotateStepNinety" Value="0" />
      </BoundProperties>
    </ImageClip>
    <ImageClip extentID="4443" gapBefore="0" mediaItemID="4439" duration="0.20000000000000001">
      <Effects />
      <Transitions />
      <BoundProperties>
        <BoundPropertyInt Name="rotateStepNinety" Value="0" />
      </BoundProperties>
    </ImageClip>
    <ImageClip extentID="4444" gapBefore="0" mediaItemID="4440" duration="0.20000000000000001">
      <Effects />
      <Transitions />
      <BoundProperties>
        <BoundPropertyInt Name="rotateStepNinety" Value="0" />
      </BoundProperties>
    </ImageClip>
    <ImageClip extentID="4445" gapBefore="0" mediaItemID="4441" duration="0.20000000000000001">
      <Effects />
      <Transitions />
      <BoundProperties>
        <BoundPropertyInt Name="rotateStepNinety" Value="0" />
      </BoundProperties>
    </ImageClip>
    <ImageClip extentID="4446" gapBefore="0" mediaItemID="4442" duration="0.20000000000000001">
      <Effects />
      <Transitions />
      <BoundProperties>
        <BoundPropertyInt Name="rotateStepNinety" Value="0" />
      </BoundProperties>
    </ImageClip>
    <ImageClip extentID="4447" gapBefore="0" mediaItemID="4443" duration="0.20000000000000001">
      <Effects />
      <Transitions />
      <BoundProperties>
        <BoundPropertyInt Name="rotateStepNinety" Value="0" />
      </BoundProperties>
    </ImageClip>
    <ImageClip extentID="4448" gapBefore="0" mediaItemID="4444" duration="0.20000000000000001">
      <Effects />
      <Transitions />
      <BoundProperties>
        <BoundPropertyInt Name="rotateStepNinety" Value="0" />
      </BoundProperties>
    </ImageClip>
    <ImageClip extentID="4449" gapBefore="0" mediaItemID="4445" duration="0.20000000000000001">
      <Effects />
      <Transitions />
      <BoundProperties>
        <BoundPropertyInt Name="rotateStepNinety" Value="0" />
      </BoundProperties>
    </ImageClip>
    <ImageClip extentID="4450" gapBefore="0" mediaItemID="4446" duration="0.20000000000000001">
      <Effects />
      <Transitions />
      <BoundProperties>
        <BoundPropertyInt Name="rotateStepNinety" Value="0" />
      </BoundProperties>
    </ImageClip>
    <ImageClip extentID="4451" gapBefore="0" mediaItemID="4447" duration="0.20000000000000001">
      <Effects />
      <Transitions />
      <BoundProperties>
        <BoundPropertyInt Name="rotateStepNinety" Value="0" />
      </BoundProperties>
    </ImageClip>
    <ImageClip extentID="4452" gapBefore="0" mediaItemID="4448" duration="0.20000000000000001">
      <Effects />
      <Transitions />
      <BoundProperties>
        <BoundPropertyInt Name="rotateStepNinety" Value="0" />
      </BoundProperties>
    </ImageClip>
    <ImageClip extentID="4453" gapBefore="0" mediaItemID="4449" duration="0.20000000000000001">
      <Effects />
      <Transitions />
      <BoundProperties>
        <BoundPropertyInt Name="rotateStepNinety" Value="0" />
      </BoundProperties>
    </ImageClip>
    <ImageClip extentID="4454" gapBefore="0" mediaItemID="4450" duration="0.20000000000000001">
      <Effects />
      <Transitions />
      <BoundProperties>
        <BoundPropertyInt Name="rotateStepNinety" Value="0" />
      </BoundProperties>
    </ImageClip>
    <ImageClip extentID="4455" gapBefore="0" mediaItemID="4451" duration="0.20000000000000001">
      <Effects />
      <Transitions />
      <BoundProperties>
        <BoundPropertyInt Name="rotateStepNinety" Value="0" />
      </BoundProperties>
    </ImageClip>
    <ImageClip extentID="4456" gapBefore="0" mediaItemID="4452" duration="0.20000000000000001">
      <Effects />
      <Transitions />
      <BoundProperties>
        <BoundPropertyInt Name="rotateStepNinety" Value="0" />
      </BoundProperties>
    </ImageClip>
    <ImageClip extentID="4457" gapBefore="0" mediaItemID="4453" duration="0.20000000000000001">
      <Effects />
      <Transitions />
      <BoundProperties>
        <BoundPropertyInt Name="rotateStepNinety" Value="0" />
      </BoundProperties>
    </ImageClip>
    <ImageClip extentID="4458" gapBefore="0" mediaItemID="4454" duration="0.20000000000000001">
      <Effects />
      <Transitions />
      <BoundProperties>
        <BoundPropertyInt Name="rotateStepNinety" Value="0" />
      </BoundProperties>
    </ImageClip>
    <ImageClip extentID="4459" gapBefore="0" mediaItemID="4455" duration="0.20000000000000001">
      <Effects />
      <Transitions />
      <BoundProperties>
        <BoundPropertyInt Name="rotateStepNinety" Value="0" />
      </BoundProperties>
    </ImageClip>
    <ImageClip extentID="4460" gapBefore="0" mediaItemID="4456" duration="0.20000000000000001">
      <Effects />
      <Transitions />
      <BoundProperties>
        <BoundPropertyInt Name="rotateStepNinety" Value="0" />
      </BoundProperties>
    </ImageClip>
    <ImageClip extentID="4461" gapBefore="0" mediaItemID="4457" duration="0.20000000000000001">
      <Effects />
      <Transitions />
      <BoundProperties>
        <BoundPropertyInt Name="rotateStepNinety" Value="0" />
      </BoundProperties>
    </ImageClip>
    <ImageClip extentID="4462" gapBefore="0" mediaItemID="4458" duration="0.20000000000000001">
      <Effects />
      <Transitions />
      <BoundProperties>
        <BoundPropertyInt Name="rotateStepNinety" Value="0" />
      </BoundProperties>
    </ImageClip>
    <ImageClip extentID="4463" gapBefore="0" mediaItemID="4459" duration="0.20000000000000001">
      <Effects />
      <Transitions />
      <BoundProperties>
        <BoundPropertyInt Name="rotateStepNinety" Value="0" />
      </BoundProperties>
    </ImageClip>
    <ImageClip extentID="4464" gapBefore="0" mediaItemID="4460" duration="0.20000000000000001">
      <Effects />
      <Transitions />
      <BoundProperties>
        <BoundPropertyInt Name="rotateStepNinety" Value="0" />
      </BoundProperties>
    </ImageClip>
    <ImageClip extentID="4465" gapBefore="0" mediaItemID="4461" duration="0.20000000000000001">
      <Effects />
      <Transitions />
      <BoundProperties>
        <BoundPropertyInt Name="rotateStepNinety" Value="0" />
      </BoundProperties>
    </ImageClip>
    <ImageClip extentID="4466" gapBefore="0" mediaItemID="4462" duration="0.20000000000000001">
      <Effects />
      <Transitions />
      <BoundProperties>
        <BoundPropertyInt Name="rotateStepNinety" Value="0" />
      </BoundProperties>
    </ImageClip>
    <ImageClip extentID="4467" gapBefore="0" mediaItemID="4463" duration="0.20000000000000001">
      <Effects />
      <Transitions />
      <BoundProperties>
        <BoundPropertyInt Name="rotateStepNinety" Value="0" />
      </BoundProperties>
    </ImageClip>
    <ImageClip extentID="4468" gapBefore="0" mediaItemID="4464" duration="0.20000000000000001">
      <Effects />
      <Transitions />
      <BoundProperties>
        <BoundPropertyInt Name="rotateStepNinety" Value="0" />
      </BoundProperties>
    </ImageClip>
    <ImageClip extentID="4469" gapBefore="0" mediaItemID="4465" duration="0.20000000000000001">
      <Effects />
      <Transitions />
      <BoundProperties>
        <BoundPropertyInt Name="rotateStepNinety" Value="0" />
      </BoundProperties>
    </ImageClip>
    <ImageClip extentID="4470" gapBefore="0" mediaItemID="4466" duration="0.20000000000000001">
      <Effects />
      <Transitions />
      <BoundProperties>
        <BoundPropertyInt Name="rotateStepNinety" Value="0" />
      </BoundProperties>
    </ImageClip>
    <ImageClip extentID="4471" gapBefore="0" mediaItemID="4467" duration="0.20000000000000001">
      <Effects />
      <Transitions />
      <BoundProperties>
        <BoundPropertyInt Name="rotateStepNinety" Value="0" />
      </BoundProperties>
    </ImageClip>
    <ImageClip extentID="4472" gapBefore="0" mediaItemID="4468" duration="0.20000000000000001">
      <Effects />
      <Transitions />
      <BoundProperties>
        <BoundPropertyInt Name="rotateStepNinety" Value="0" />
      </BoundProperties>
    </ImageClip>
    <ImageClip extentID="4473" gapBefore="0" mediaItemID="4469" duration="0.20000000000000001">
      <Effects />
      <Transitions />
      <BoundProperties>
        <BoundPropertyInt Name="rotateStepNinety" Value="0" />
      </BoundProperties>
    </ImageClip>
    <ImageClip extentID="4474" gapBefore="0" mediaItemID="4470" duration="0.20000000000000001">
      <Effects />
      <Transitions />
      <BoundProperties>
        <BoundPropertyInt Name="rotateStepNinety" Value="0" />
      </BoundProperties>
    </ImageClip>
    <ImageClip extentID="4475" gapBefore="0" mediaItemID="4471" duration="0.20000000000000001">
      <Effects />
      <Transitions />
      <BoundProperties>
        <BoundPropertyInt Name="rotateStepNinety" Value="0" />
      </BoundProperties>
    </ImageClip>
    <ImageClip extentID="4476" gapBefore="0" mediaItemID="4472" duration="0.20000000000000001">
      <Effects />
      <Transitions />
      <BoundProperties>
        <BoundPropertyInt Name="rotateStepNinety" Value="0" />
      </BoundProperties>
    </ImageClip>
    <ImageClip extentID="4477" gapBefore="0" mediaItemID="4473" duration="0.20000000000000001">
      <Effects />
      <Transitions />
      <BoundProperties>
        <BoundPropertyInt Name="rotateStepNinety" Value="0" />
      </BoundProperties>
    </ImageClip>
    <ImageClip extentID="4478" gapBefore="0" mediaItemID="4474" duration="0.20000000000000001">
      <Effects />
      <Transitions />
      <BoundProperties>
        <BoundPropertyInt Name="rotateStepNinety" Value="0" />
      </BoundProperties>
    </ImageClip>
    <ImageClip extentID="4479" gapBefore="0" mediaItemID="4475" duration="0.20000000000000001">
      <Effects />
      <Transitions />
      <BoundProperties>
        <BoundPropertyInt Name="rotateStepNinety" Value="0" />
      </BoundProperties>
    </ImageClip>
    <ImageClip extentID="4480" gapBefore="0" mediaItemID="4476" duration="0.20000000000000001">
      <Effects />
      <Transitions />
      <BoundProperties>
        <BoundPropertyInt Name="rotateStepNinety" Value="0" />
      </BoundProperties>
    </ImageClip>
    <ImageClip extentID="4481" gapBefore="0" mediaItemID="4477" duration="0.20000000000000001">
      <Effects />
      <Transitions />
      <BoundProperties>
        <BoundPropertyInt Name="rotateStepNinety" Value="0" />
      </BoundProperties>
    </ImageClip>
    <ImageClip extentID="4482" gapBefore="0" mediaItemID="4478" duration="0.20000000000000001">
      <Effects />
      <Transitions />
      <BoundProperties>
        <BoundPropertyInt Name="rotateStepNinety" Value="0" />
      </BoundProperties>
    </ImageClip>
    <ImageClip extentID="4483" gapBefore="0" mediaItemID="4479" duration="0.20000000000000001">
      <Effects />
      <Transitions />
      <BoundProperties>
        <BoundPropertyInt Name="rotateStepNinety" Value="0" />
      </BoundProperties>
    </ImageClip>
    <ImageClip extentID="4484" gapBefore="0" mediaItemID="4480" duration="0.20000000000000001">
      <Effects />
      <Transitions />
      <BoundProperties>
        <BoundPropertyInt Name="rotateStepNinety" Value="0" />
      </BoundProperties>
    </ImageClip>
    <ImageClip extentID="4485" gapBefore="0" mediaItemID="4481" duration="0.20000000000000001">
      <Effects />
      <Transitions />
      <BoundProperties>
        <BoundPropertyInt Name="rotateStepNinety" Value="0" />
      </BoundProperties>
    </ImageClip>
    <ImageClip extentID="4486" gapBefore="0" mediaItemID="4482" duration="0.20000000000000001">
      <Effects />
      <Transitions />
      <BoundProperties>
        <BoundPropertyInt Name="rotateStepNinety" Value="0" />
      </BoundProperties>
    </ImageClip>
    <ImageClip extentID="4487" gapBefore="0" mediaItemID="4483" duration="0.20000000000000001">
      <Effects />
      <Transitions />
      <BoundProperties>
        <BoundPropertyInt Name="rotateStepNinety" Value="0" />
      </BoundProperties>
    </ImageClip>
    <ImageClip extentID="4488" gapBefore="0" mediaItemID="4484" duration="0.20000000000000001">
      <Effects />
      <Transitions />
      <BoundProperties>
        <BoundPropertyInt Name="rotateStepNinety" Value="0" />
      </BoundProperties>
    </ImageClip>
    <ImageClip extentID="4489" gapBefore="0" mediaItemID="4485" duration="0.20000000000000001">
      <Effects />
      <Transitions />
      <BoundProperties>
        <BoundPropertyInt Name="rotateStepNinety" Value="0" />
      </BoundProperties>
    </ImageClip>
    <ImageClip extentID="4490" gapBefore="0" mediaItemID="4486" duration="0.20000000000000001">
      <Effects />
      <Transitions />
      <BoundProperties>
        <BoundPropertyInt Name="rotateStepNinety" Value="0" />
      </BoundProperties>
    </ImageClip>
    <ImageClip extentID="4491" gapBefore="0" mediaItemID="4487" duration="0.20000000000000001">
      <Effects />
      <Transitions />
      <BoundProperties>
        <BoundPropertyInt Name="rotateStepNinety" Value="0" />
      </BoundProperties>
    </ImageClip>
    <ImageClip extentID="4492" gapBefore="0" mediaItemID="4488" duration="0.20000000000000001">
      <Effects />
      <Transitions />
      <BoundProperties>
        <BoundPropertyInt Name="rotateStepNinety" Value="0" />
      </BoundProperties>
    </ImageClip>
    <ImageClip extentID="4493" gapBefore="0" mediaItemID="4489" duration="0.20000000000000001">
      <Effects />
      <Transitions />
      <BoundProperties>
        <BoundPropertyInt Name="rotateStepNinety" Value="0" />
      </BoundProperties>
    </ImageClip>
    <ImageClip extentID="4494" gapBefore="0" mediaItemID="4490" duration="0.20000000000000001">
      <Effects />
      <Transitions />
      <BoundProperties>
        <BoundPropertyInt Name="rotateStepNinety" Value="0" />
      </BoundProperties>
    </ImageClip>
    <ImageClip extentID="4495" gapBefore="0" mediaItemID="4491" duration="0.20000000000000001">
      <Effects />
      <Transitions />
      <BoundProperties>
        <BoundPropertyInt Name="rotateStepNinety" Value="0" />
      </BoundProperties>
    </ImageClip>
    <ImageClip extentID="4496" gapBefore="0" mediaItemID="4492" duration="0.20000000000000001">
      <Effects />
      <Transitions />
      <BoundProperties>
        <BoundPropertyInt Name="rotateStepNinety" Value="0" />
      </BoundProperties>
    </ImageClip>
    <ImageClip extentID="4497" gapBefore="0" mediaItemID="4493" duration="0.20000000000000001">
      <Effects />
      <Transitions />
      <BoundProperties>
        <BoundPropertyInt Name="rotateStepNinety" Value="0" />
      </BoundProperties>
    </ImageClip>
    <ImageClip extentID="4498" gapBefore="0" mediaItemID="4494" duration="0.20000000000000001">
      <Effects />
      <Transitions />
      <BoundProperties>
        <BoundPropertyInt Name="rotateStepNinety" Value="0" />
      </BoundProperties>
    </ImageClip>
    <ImageClip extentID="4499" gapBefore="0" mediaItemID="4495" duration="0.20000000000000001">
      <Effects />
      <Transitions />
      <BoundProperties>
        <BoundPropertyInt Name="rotateStepNinety" Value="0" />
      </BoundProperties>
    </ImageClip>
    <ImageClip extentID="4500" gapBefore="0" mediaItemID="4496" duration="0.20000000000000001">
      <Effects />
      <Transitions />
      <BoundProperties>
        <BoundPropertyInt Name="rotateStepNinety" Value="0" />
      </BoundProperties>
    </ImageClip>
    <ImageClip extentID="4501" gapBefore="0" mediaItemID="4497" duration="0.20000000000000001">
      <Effects />
      <Transitions />
      <BoundProperties>
        <BoundPropertyInt Name="rotateStepNinety" Value="0" />
      </BoundProperties>
    </ImageClip>
    <ImageClip extentID="4502" gapBefore="0" mediaItemID="4498" duration="0.20000000000000001">
      <Effects />
      <Transitions />
      <BoundProperties>
        <BoundPropertyInt Name="rotateStepNinety" Value="0" />
      </BoundProperties>
    </ImageClip>
    <ImageClip extentID="4503" gapBefore="0" mediaItemID="4499" duration="0.20000000000000001">
      <Effects />
      <Transitions />
      <BoundProperties>
        <BoundPropertyInt Name="rotateStepNinety" Value="0" />
      </BoundProperties>
    </ImageClip>
    <ImageClip extentID="4504" gapBefore="0" mediaItemID="4500" duration="0.20000000000000001">
      <Effects />
      <Transitions />
      <BoundProperties>
        <BoundPropertyInt Name="rotateStepNinety" Value="0" />
      </BoundProperties>
    </ImageClip>
    <ImageClip extentID="4505" gapBefore="0" mediaItemID="4501" duration="0.20000000000000001">
      <Effects />
      <Transitions />
      <BoundProperties>
        <BoundPropertyInt Name="rotateStepNinety" Value="0" />
      </BoundProperties>
    </ImageClip>
    <ImageClip extentID="4506" gapBefore="0" mediaItemID="4502" duration="0.20000000000000001">
      <Effects />
      <Transitions />
      <BoundProperties>
        <BoundPropertyInt Name="rotateStepNinety" Value="0" />
      </BoundProperties>
    </ImageClip>
    <ImageClip extentID="4507" gapBefore="0" mediaItemID="4503" duration="0.20000000000000001">
      <Effects />
      <Transitions />
      <BoundProperties>
        <BoundPropertyInt Name="rotateStepNinety" Value="0" />
      </BoundProperties>
    </ImageClip>
    <ImageClip extentID="4508" gapBefore="0" mediaItemID="4504" duration="0.20000000000000001">
      <Effects />
      <Transitions />
      <BoundProperties>
        <BoundPropertyInt Name="rotateStepNinety" Value="0" />
      </BoundProperties>
    </ImageClip>
    <ImageClip extentID="4509" gapBefore="0" mediaItemID="4505" duration="0.20000000000000001">
      <Effects />
      <Transitions />
      <BoundProperties>
        <BoundPropertyInt Name="rotateStepNinety" Value="0" />
      </BoundProperties>
    </ImageClip>
    <ImageClip extentID="4510" gapBefore="0" mediaItemID="4506" duration="0.20000000000000001">
      <Effects />
      <Transitions />
      <BoundProperties>
        <BoundPropertyInt Name="rotateStepNinety" Value="0" />
      </BoundProperties>
    </ImageClip>
    <ImageClip extentID="4511" gapBefore="0" mediaItemID="4507" duration="0.20000000000000001">
      <Effects />
      <Transitions />
      <BoundProperties>
        <BoundPropertyInt Name="rotateStepNinety" Value="0" />
      </BoundProperties>
    </ImageClip>
    <ImageClip extentID="4512" gapBefore="0" mediaItemID="4508" duration="0.20000000000000001">
      <Effects />
      <Transitions />
      <BoundProperties>
        <BoundPropertyInt Name="rotateStepNinety" Value="0" />
      </BoundProperties>
    </ImageClip>
    <ImageClip extentID="4513" gapBefore="0" mediaItemID="4509" duration="0.20000000000000001">
      <Effects />
      <Transitions />
      <BoundProperties>
        <BoundPropertyInt Name="rotateStepNinety" Value="0" />
      </BoundProperties>
    </ImageClip>
    <ImageClip extentID="4514" gapBefore="0" mediaItemID="4510" duration="0.20000000000000001">
      <Effects />
      <Transitions />
      <BoundProperties>
        <BoundPropertyInt Name="rotateStepNinety" Value="0" />
      </BoundProperties>
    </ImageClip>
    <ImageClip extentID="4515" gapBefore="0" mediaItemID="4511" duration="0.20000000000000001">
      <Effects />
      <Transitions />
      <BoundProperties>
        <BoundPropertyInt Name="rotateStepNinety" Value="0" />
      </BoundProperties>
    </ImageClip>
    <ImageClip extentID="4516" gapBefore="0" mediaItemID="4512" duration="0.20000000000000001">
      <Effects />
      <Transitions />
      <BoundProperties>
        <BoundPropertyInt Name="rotateStepNinety" Value="0" />
      </BoundProperties>
    </ImageClip>
    <ImageClip extentID="4517" gapBefore="0" mediaItemID="4513" duration="0.20000000000000001">
      <Effects />
      <Transitions />
      <BoundProperties>
        <BoundPropertyInt Name="rotateStepNinety" Value="0" />
      </BoundProperties>
    </ImageClip>
    <ImageClip extentID="4518" gapBefore="0" mediaItemID="4514" duration="0.20000000000000001">
      <Effects />
      <Transitions />
      <BoundProperties>
        <BoundPropertyInt Name="rotateStepNinety" Value="0" />
      </BoundProperties>
    </ImageClip>
    <ImageClip extentID="4519" gapBefore="0" mediaItemID="4515" duration="0.20000000000000001">
      <Effects />
      <Transitions />
      <BoundProperties>
        <BoundPropertyInt Name="rotateStepNinety" Value="0" />
      </BoundProperties>
    </ImageClip>
    <ImageClip extentID="4520" gapBefore="0" mediaItemID="4516" duration="0.20000000000000001">
      <Effects />
      <Transitions />
      <BoundProperties>
        <BoundPropertyInt Name="rotateStepNinety" Value="0" />
      </BoundProperties>
    </ImageClip>
    <ImageClip extentID="4521" gapBefore="0" mediaItemID="4517" duration="0.20000000000000001">
      <Effects />
      <Transitions />
      <BoundProperties>
        <BoundPropertyInt Name="rotateStepNinety" Value="0" />
      </BoundProperties>
    </ImageClip>
    <ImageClip extentID="4522" gapBefore="0" mediaItemID="4518" duration="0.20000000000000001">
      <Effects />
      <Transitions />
      <BoundProperties>
        <BoundPropertyInt Name="rotateStepNinety" Value="0" />
      </BoundProperties>
    </ImageClip>
    <ImageClip extentID="4523" gapBefore="0" mediaItemID="4519" duration="0.20000000000000001">
      <Effects />
      <Transitions />
      <BoundProperties>
        <BoundPropertyInt Name="rotateStepNinety" Value="0" />
      </BoundProperties>
    </ImageClip>
    <ImageClip extentID="4524" gapBefore="0" mediaItemID="4520" duration="0.20000000000000001">
      <Effects />
      <Transitions />
      <BoundProperties>
        <BoundPropertyInt Name="rotateStepNinety" Value="0" />
      </BoundProperties>
    </ImageClip>
    <ImageClip extentID="4525" gapBefore="0" mediaItemID="4521" duration="0.20000000000000001">
      <Effects />
      <Transitions />
      <BoundProperties>
        <BoundPropertyInt Name="rotateStepNinety" Value="0" />
      </BoundProperties>
    </ImageClip>
    <ImageClip extentID="4526" gapBefore="0" mediaItemID="4522" duration="0.20000000000000001">
      <Effects />
      <Transitions />
      <BoundProperties>
        <BoundPropertyInt Name="rotateStepNinety" Value="0" />
      </BoundProperties>
    </ImageClip>
    <ImageClip extentID="4527" gapBefore="0" mediaItemID="4523" duration="0.20000000000000001">
      <Effects />
      <Transitions />
      <BoundProperties>
        <BoundPropertyInt Name="rotateStepNinety" Value="0" />
      </BoundProperties>
    </ImageClip>
    <ImageClip extentID="4528" gapBefore="0" mediaItemID="4524" duration="0.20000000000000001">
      <Effects />
      <Transitions />
      <BoundProperties>
        <BoundPropertyInt Name="rotateStepNinety" Value="0" />
      </BoundProperties>
    </ImageClip>
    <ImageClip extentID="4529" gapBefore="0" mediaItemID="4525" duration="0.20000000000000001">
      <Effects />
      <Transitions />
      <BoundProperties>
        <BoundPropertyInt Name="rotateStepNinety" Value="0" />
      </BoundProperties>
    </ImageClip>
    <ImageClip extentID="4530" gapBefore="0" mediaItemID="4526" duration="0.20000000000000001">
      <Effects />
      <Transitions />
      <BoundProperties>
        <BoundPropertyInt Name="rotateStepNinety" Value="0" />
      </BoundProperties>
    </ImageClip>
    <ImageClip extentID="4531" gapBefore="0" mediaItemID="4527" duration="0.20000000000000001">
      <Effects />
      <Transitions />
      <BoundProperties>
        <BoundPropertyInt Name="rotateStepNinety" Value="0" />
      </BoundProperties>
    </ImageClip>
    <ImageClip extentID="4532" gapBefore="0" mediaItemID="4528" duration="0.20000000000000001">
      <Effects />
      <Transitions />
      <BoundProperties>
        <BoundPropertyInt Name="rotateStepNinety" Value="0" />
      </BoundProperties>
    </ImageClip>
    <ImageClip extentID="4533" gapBefore="0" mediaItemID="4529" duration="0.20000000000000001">
      <Effects />
      <Transitions />
      <BoundProperties>
        <BoundPropertyInt Name="rotateStepNinety" Value="0" />
      </BoundProperties>
    </ImageClip>
    <ImageClip extentID="4534" gapBefore="0" mediaItemID="4530" duration="0.20000000000000001">
      <Effects />
      <Transitions />
      <BoundProperties>
        <BoundPropertyInt Name="rotateStepNinety" Value="0" />
      </BoundProperties>
    </ImageClip>
    <ImageClip extentID="4535" gapBefore="0" mediaItemID="4531" duration="0.20000000000000001">
      <Effects />
      <Transitions />
      <BoundProperties>
        <BoundPropertyInt Name="rotateStepNinety" Value="0" />
      </BoundProperties>
    </ImageClip>
    <ImageClip extentID="4536" gapBefore="0" mediaItemID="4532" duration="0.20000000000000001">
      <Effects />
      <Transitions />
      <BoundProperties>
        <BoundPropertyInt Name="rotateStepNinety" Value="0" />
      </BoundProperties>
    </ImageClip>
    <ImageClip extentID="4537" gapBefore="0" mediaItemID="4533" duration="0.20000000000000001">
      <Effects />
      <Transitions />
      <BoundProperties>
        <BoundPropertyInt Name="rotateStepNinety" Value="0" />
      </BoundProperties>
    </ImageClip>
    <ImageClip extentID="4538" gapBefore="0" mediaItemID="4534" duration="0.20000000000000001">
      <Effects />
      <Transitions />
      <BoundProperties>
        <BoundPropertyInt Name="rotateStepNinety" Value="0" />
      </BoundProperties>
    </ImageClip>
    <ImageClip extentID="4539" gapBefore="0" mediaItemID="4535" duration="0.20000000000000001">
      <Effects />
      <Transitions />
      <BoundProperties>
        <BoundPropertyInt Name="rotateStepNinety" Value="0" />
      </BoundProperties>
    </ImageClip>
    <ImageClip extentID="4540" gapBefore="0" mediaItemID="4536" duration="0.20000000000000001">
      <Effects />
      <Transitions />
      <BoundProperties>
        <BoundPropertyInt Name="rotateStepNinety" Value="0" />
      </BoundProperties>
    </ImageClip>
    <ImageClip extentID="4541" gapBefore="0" mediaItemID="4537" duration="0.20000000000000001">
      <Effects />
      <Transitions />
      <BoundProperties>
        <BoundPropertyInt Name="rotateStepNinety" Value="0" />
      </BoundProperties>
    </ImageClip>
    <ImageClip extentID="4542" gapBefore="0" mediaItemID="4538" duration="0.20000000000000001">
      <Effects />
      <Transitions />
      <BoundProperties>
        <BoundPropertyInt Name="rotateStepNinety" Value="0" />
      </BoundProperties>
    </ImageClip>
    <ImageClip extentID="4543" gapBefore="0" mediaItemID="4539" duration="0.20000000000000001">
      <Effects />
      <Transitions />
      <BoundProperties>
        <BoundPropertyInt Name="rotateStepNinety" Value="0" />
      </BoundProperties>
    </ImageClip>
    <ImageClip extentID="4544" gapBefore="0" mediaItemID="4540" duration="0.20000000000000001">
      <Effects />
      <Transitions />
      <BoundProperties>
        <BoundPropertyInt Name="rotateStepNinety" Value="0" />
      </BoundProperties>
    </ImageClip>
    <ImageClip extentID="4545" gapBefore="0" mediaItemID="4541" duration="0.20000000000000001">
      <Effects />
      <Transitions />
      <BoundProperties>
        <BoundPropertyInt Name="rotateStepNinety" Value="0" />
      </BoundProperties>
    </ImageClip>
    <ImageClip extentID="4546" gapBefore="0" mediaItemID="4542" duration="0.20000000000000001">
      <Effects />
      <Transitions />
      <BoundProperties>
        <BoundPropertyInt Name="rotateStepNinety" Value="0" />
      </BoundProperties>
    </ImageClip>
    <ImageClip extentID="4547" gapBefore="0" mediaItemID="4543" duration="0.20000000000000001">
      <Effects />
      <Transitions />
      <BoundProperties>
        <BoundPropertyInt Name="rotateStepNinety" Value="0" />
      </BoundProperties>
    </ImageClip>
    <ImageClip extentID="4548" gapBefore="0" mediaItemID="4544" duration="0.20000000000000001">
      <Effects />
      <Transitions />
      <BoundProperties>
        <BoundPropertyInt Name="rotateStepNinety" Value="0" />
      </BoundProperties>
    </ImageClip>
    <ImageClip extentID="4549" gapBefore="0" mediaItemID="4545" duration="0.20000000000000001">
      <Effects />
      <Transitions />
      <BoundProperties>
        <BoundPropertyInt Name="rotateStepNinety" Value="0" />
      </BoundProperties>
    </ImageClip>
    <ImageClip extentID="4550" gapBefore="0" mediaItemID="4546" duration="0.20000000000000001">
      <Effects />
      <Transitions />
      <BoundProperties>
        <BoundPropertyInt Name="rotateStepNinety" Value="0" />
      </BoundProperties>
    </ImageClip>
    <ImageClip extentID="4551" gapBefore="0" mediaItemID="4547" duration="0.20000000000000001">
      <Effects />
      <Transitions />
      <BoundProperties>
        <BoundPropertyInt Name="rotateStepNinety" Value="0" />
      </BoundProperties>
    </ImageClip>
    <ImageClip extentID="4552" gapBefore="0" mediaItemID="4548" duration="0.20000000000000001">
      <Effects />
      <Transitions />
      <BoundProperties>
        <BoundPropertyInt Name="rotateStepNinety" Value="0" />
      </BoundProperties>
    </ImageClip>
    <ImageClip extentID="4553" gapBefore="0" mediaItemID="4549" duration="0.20000000000000001">
      <Effects />
      <Transitions />
      <BoundProperties>
        <BoundPropertyInt Name="rotateStepNinety" Value="0" />
      </BoundProperties>
    </ImageClip>
    <ImageClip extentID="4554" gapBefore="0" mediaItemID="4550" duration="0.20000000000000001">
      <Effects />
      <Transitions />
      <BoundProperties>
        <BoundPropertyInt Name="rotateStepNinety" Value="0" />
      </BoundProperties>
    </ImageClip>
    <ImageClip extentID="4555" gapBefore="0" mediaItemID="4551" duration="0.20000000000000001">
      <Effects />
      <Transitions />
      <BoundProperties>
        <BoundPropertyInt Name="rotateStepNinety" Value="0" />
      </BoundProperties>
    </ImageClip>
    <ImageClip extentID="4556" gapBefore="0" mediaItemID="4552" duration="0.20000000000000001">
      <Effects />
      <Transitions />
      <BoundProperties>
        <BoundPropertyInt Name="rotateStepNinety" Value="0" />
      </BoundProperties>
    </ImageClip>
    <ImageClip extentID="4557" gapBefore="0" mediaItemID="4553" duration="0.20000000000000001">
      <Effects />
      <Transitions />
      <BoundProperties>
        <BoundPropertyInt Name="rotateStepNinety" Value="0" />
      </BoundProperties>
    </ImageClip>
    <ImageClip extentID="4558" gapBefore="0" mediaItemID="4554" duration="0.20000000000000001">
      <Effects />
      <Transitions />
      <BoundProperties>
        <BoundPropertyInt Name="rotateStepNinety" Value="0" />
      </BoundProperties>
    </ImageClip>
    <ImageClip extentID="4559" gapBefore="0" mediaItemID="4555" duration="0.20000000000000001">
      <Effects />
      <Transitions />
      <BoundProperties>
        <BoundPropertyInt Name="rotateStepNinety" Value="0" />
      </BoundProperties>
    </ImageClip>
    <ImageClip extentID="4560" gapBefore="0" mediaItemID="4556" duration="0.20000000000000001">
      <Effects />
      <Transitions />
      <BoundProperties>
        <BoundPropertyInt Name="rotateStepNinety" Value="0" />
      </BoundProperties>
    </ImageClip>
    <ImageClip extentID="4561" gapBefore="0" mediaItemID="4557" duration="0.20000000000000001">
      <Effects />
      <Transitions />
      <BoundProperties>
        <BoundPropertyInt Name="rotateStepNinety" Value="0" />
      </BoundProperties>
    </ImageClip>
    <ImageClip extentID="4562" gapBefore="0" mediaItemID="4558" duration="0.20000000000000001">
      <Effects />
      <Transitions />
      <BoundProperties>
        <BoundPropertyInt Name="rotateStepNinety" Value="0" />
      </BoundProperties>
    </ImageClip>
    <ImageClip extentID="4563" gapBefore="0" mediaItemID="4559" duration="0.20000000000000001">
      <Effects />
      <Transitions />
      <BoundProperties>
        <BoundPropertyInt Name="rotateStepNinety" Value="0" />
      </BoundProperties>
    </ImageClip>
    <ImageClip extentID="4564" gapBefore="0" mediaItemID="4560" duration="0.20000000000000001">
      <Effects />
      <Transitions />
      <BoundProperties>
        <BoundPropertyInt Name="rotateStepNinety" Value="0" />
      </BoundProperties>
    </ImageClip>
    <ImageClip extentID="4565" gapBefore="0" mediaItemID="4561" duration="0.20000000000000001">
      <Effects />
      <Transitions />
      <BoundProperties>
        <BoundPropertyInt Name="rotateStepNinety" Value="0" />
      </BoundProperties>
    </ImageClip>
    <ImageClip extentID="4566" gapBefore="0" mediaItemID="4562" duration="0.20000000000000001">
      <Effects />
      <Transitions />
      <BoundProperties>
        <BoundPropertyInt Name="rotateStepNinety" Value="0" />
      </BoundProperties>
    </ImageClip>
    <ImageClip extentID="4567" gapBefore="0" mediaItemID="4563" duration="0.20000000000000001">
      <Effects />
      <Transitions />
      <BoundProperties>
        <BoundPropertyInt Name="rotateStepNinety" Value="0" />
      </BoundProperties>
    </ImageClip>
    <ImageClip extentID="4568" gapBefore="0" mediaItemID="4564" duration="0.20000000000000001">
      <Effects />
      <Transitions />
      <BoundProperties>
        <BoundPropertyInt Name="rotateStepNinety" Value="0" />
      </BoundProperties>
    </ImageClip>
    <ImageClip extentID="4569" gapBefore="0" mediaItemID="4565" duration="0.20000000000000001">
      <Effects />
      <Transitions />
      <BoundProperties>
        <BoundPropertyInt Name="rotateStepNinety" Value="0" />
      </BoundProperties>
    </ImageClip>
    <ImageClip extentID="4570" gapBefore="0" mediaItemID="4566" duration="0.20000000000000001">
      <Effects />
      <Transitions />
      <BoundProperties>
        <BoundPropertyInt Name="rotateStepNinety" Value="0" />
      </BoundProperties>
    </ImageClip>
    <ImageClip extentID="4571" gapBefore="0" mediaItemID="4567" duration="0.20000000000000001">
      <Effects />
      <Transitions />
      <BoundProperties>
        <BoundPropertyInt Name="rotateStepNinety" Value="0" />
      </BoundProperties>
    </ImageClip>
    <ImageClip extentID="4572" gapBefore="0" mediaItemID="4568" duration="0.20000000000000001">
      <Effects />
      <Transitions />
      <BoundProperties>
        <BoundPropertyInt Name="rotateStepNinety" Value="0" />
      </BoundProperties>
    </ImageClip>
    <ImageClip extentID="4573" gapBefore="0" mediaItemID="4569" duration="0.20000000000000001">
      <Effects />
      <Transitions />
      <BoundProperties>
        <BoundPropertyInt Name="rotateStepNinety" Value="0" />
      </BoundProperties>
    </ImageClip>
    <ImageClip extentID="4574" gapBefore="0" mediaItemID="4570" duration="0.20000000000000001">
      <Effects />
      <Transitions />
      <BoundProperties>
        <BoundPropertyInt Name="rotateStepNinety" Value="0" />
      </BoundProperties>
    </ImageClip>
    <ImageClip extentID="4575" gapBefore="0" mediaItemID="4571" duration="0.20000000000000001">
      <Effects />
      <Transitions />
      <BoundProperties>
        <BoundPropertyInt Name="rotateStepNinety" Value="0" />
      </BoundProperties>
    </ImageClip>
    <ImageClip extentID="4576" gapBefore="0" mediaItemID="4572" duration="0.20000000000000001">
      <Effects />
      <Transitions />
      <BoundProperties>
        <BoundPropertyInt Name="rotateStepNinety" Value="0" />
      </BoundProperties>
    </ImageClip>
    <ImageClip extentID="4577" gapBefore="0" mediaItemID="4573" duration="0.20000000000000001">
      <Effects />
      <Transitions />
      <BoundProperties>
        <BoundPropertyInt Name="rotateStepNinety" Value="0" />
      </BoundProperties>
    </ImageClip>
    <ImageClip extentID="4578" gapBefore="0" mediaItemID="4574" duration="0.20000000000000001">
      <Effects />
      <Transitions />
      <BoundProperties>
        <BoundPropertyInt Name="rotateStepNinety" Value="0" />
      </BoundProperties>
    </ImageClip>
    <ImageClip extentID="4579" gapBefore="0" mediaItemID="4575" duration="0.20000000000000001">
      <Effects />
      <Transitions />
      <BoundProperties>
        <BoundPropertyInt Name="rotateStepNinety" Value="0" />
      </BoundProperties>
    </ImageClip>
    <ImageClip extentID="4580" gapBefore="0" mediaItemID="4576" duration="0.20000000000000001">
      <Effects />
      <Transitions />
      <BoundProperties>
        <BoundPropertyInt Name="rotateStepNinety" Value="0" />
      </BoundProperties>
    </ImageClip>
    <ImageClip extentID="4581" gapBefore="0" mediaItemID="4577" duration="0.20000000000000001">
      <Effects />
      <Transitions />
      <BoundProperties>
        <BoundPropertyInt Name="rotateStepNinety" Value="0" />
      </BoundProperties>
    </ImageClip>
    <ImageClip extentID="4582" gapBefore="0" mediaItemID="4578" duration="0.20000000000000001">
      <Effects />
      <Transitions />
      <BoundProperties>
        <BoundPropertyInt Name="rotateStepNinety" Value="0" />
      </BoundProperties>
    </ImageClip>
    <ImageClip extentID="4583" gapBefore="0" mediaItemID="4579" duration="0.20000000000000001">
      <Effects />
      <Transitions />
      <BoundProperties>
        <BoundPropertyInt Name="rotateStepNinety" Value="0" />
      </BoundProperties>
    </ImageClip>
    <ImageClip extentID="4584" gapBefore="0" mediaItemID="4580" duration="0.20000000000000001">
      <Effects />
      <Transitions />
      <BoundProperties>
        <BoundPropertyInt Name="rotateStepNinety" Value="0" />
      </BoundProperties>
    </ImageClip>
    <ImageClip extentID="4585" gapBefore="0" mediaItemID="4581" duration="0.20000000000000001">
      <Effects />
      <Transitions />
      <BoundProperties>
        <BoundPropertyInt Name="rotateStepNinety" Value="0" />
      </BoundProperties>
    </ImageClip>
    <ImageClip extentID="4586" gapBefore="0" mediaItemID="4582" duration="0.20000000000000001">
      <Effects />
      <Transitions />
      <BoundProperties>
        <BoundPropertyInt Name="rotateStepNinety" Value="0" />
      </BoundProperties>
    </ImageClip>
    <ImageClip extentID="4587" gapBefore="0" mediaItemID="4583" duration="0.20000000000000001">
      <Effects />
      <Transitions />
      <BoundProperties>
        <BoundPropertyInt Name="rotateStepNinety" Value="0" />
      </BoundProperties>
    </ImageClip>
    <ImageClip extentID="4588" gapBefore="0" mediaItemID="4584" duration="0.20000000000000001">
      <Effects />
      <Transitions />
      <BoundProperties>
        <BoundPropertyInt Name="rotateStepNinety" Value="0" />
      </BoundProperties>
    </ImageClip>
    <ImageClip extentID="4589" gapBefore="0" mediaItemID="4585" duration="0.20000000000000001">
      <Effects />
      <Transitions />
      <BoundProperties>
        <BoundPropertyInt Name="rotateStepNinety" Value="0" />
      </BoundProperties>
    </ImageClip>
    <ImageClip extentID="4590" gapBefore="0" mediaItemID="4586" duration="0.20000000000000001">
      <Effects />
      <Transitions />
      <BoundProperties>
        <BoundPropertyInt Name="rotateStepNinety" Value="0" />
      </BoundProperties>
    </ImageClip>
    <ImageClip extentID="4591" gapBefore="0" mediaItemID="4587" duration="0.20000000000000001">
      <Effects />
      <Transitions />
      <BoundProperties>
        <BoundPropertyInt Name="rotateStepNinety" Value="0" />
      </BoundProperties>
    </ImageClip>
    <ImageClip extentID="4592" gapBefore="0" mediaItemID="4588" duration="0.20000000000000001">
      <Effects />
      <Transitions />
      <BoundProperties>
        <BoundPropertyInt Name="rotateStepNinety" Value="0" />
      </BoundProperties>
    </ImageClip>
    <ImageClip extentID="4593" gapBefore="0" mediaItemID="4589" duration="0.20000000000000001">
      <Effects />
      <Transitions />
      <BoundProperties>
        <BoundPropertyInt Name="rotateStepNinety" Value="0" />
      </BoundProperties>
    </ImageClip>
    <ImageClip extentID="4594" gapBefore="0" mediaItemID="4590" duration="0.20000000000000001">
      <Effects />
      <Transitions />
      <BoundProperties>
        <BoundPropertyInt Name="rotateStepNinety" Value="0" />
      </BoundProperties>
    </ImageClip>
    <ImageClip extentID="4595" gapBefore="0" mediaItemID="4591" duration="0.20000000000000001">
      <Effects />
      <Transitions />
      <BoundProperties>
        <BoundPropertyInt Name="rotateStepNinety" Value="0" />
      </BoundProperties>
    </ImageClip>
    <ImageClip extentID="4596" gapBefore="0" mediaItemID="4592" duration="0.20000000000000001">
      <Effects />
      <Transitions />
      <BoundProperties>
        <BoundPropertyInt Name="rotateStepNinety" Value="0" />
      </BoundProperties>
    </ImageClip>
    <ImageClip extentID="4597" gapBefore="0" mediaItemID="4593" duration="0.20000000000000001">
      <Effects />
      <Transitions />
      <BoundProperties>
        <BoundPropertyInt Name="rotateStepNinety" Value="0" />
      </BoundProperties>
    </ImageClip>
    <ImageClip extentID="4598" gapBefore="0" mediaItemID="4594" duration="0.20000000000000001">
      <Effects />
      <Transitions />
      <BoundProperties>
        <BoundPropertyInt Name="rotateStepNinety" Value="0" />
      </BoundProperties>
    </ImageClip>
    <ImageClip extentID="4599" gapBefore="0" mediaItemID="4595" duration="0.20000000000000001">
      <Effects />
      <Transitions />
      <BoundProperties>
        <BoundPropertyInt Name="rotateStepNinety" Value="0" />
      </BoundProperties>
    </ImageClip>
    <ImageClip extentID="4600" gapBefore="0" mediaItemID="4596" duration="0.20000000000000001">
      <Effects />
      <Transitions />
      <BoundProperties>
        <BoundPropertyInt Name="rotateStepNinety" Value="0" />
      </BoundProperties>
    </ImageClip>
    <ImageClip extentID="4601" gapBefore="0" mediaItemID="4597" duration="0.20000000000000001">
      <Effects />
      <Transitions />
      <BoundProperties>
        <BoundPropertyInt Name="rotateStepNinety" Value="0" />
      </BoundProperties>
    </ImageClip>
    <ImageClip extentID="4602" gapBefore="0" mediaItemID="4598" duration="0.20000000000000001">
      <Effects />
      <Transitions />
      <BoundProperties>
        <BoundPropertyInt Name="rotateStepNinety" Value="0" />
      </BoundProperties>
    </ImageClip>
    <ImageClip extentID="4603" gapBefore="0" mediaItemID="4599" duration="0.20000000000000001">
      <Effects />
      <Transitions />
      <BoundProperties>
        <BoundPropertyInt Name="rotateStepNinety" Value="0" />
      </BoundProperties>
    </ImageClip>
    <ImageClip extentID="4604" gapBefore="0" mediaItemID="4600" duration="0.20000000000000001">
      <Effects />
      <Transitions />
      <BoundProperties>
        <BoundPropertyInt Name="rotateStepNinety" Value="0" />
      </BoundProperties>
    </ImageClip>
    <ImageClip extentID="4605" gapBefore="0" mediaItemID="4601" duration="0.20000000000000001">
      <Effects />
      <Transitions />
      <BoundProperties>
        <BoundPropertyInt Name="rotateStepNinety" Value="0" />
      </BoundProperties>
    </ImageClip>
    <ImageClip extentID="4606" gapBefore="0" mediaItemID="4602" duration="0.20000000000000001">
      <Effects />
      <Transitions />
      <BoundProperties>
        <BoundPropertyInt Name="rotateStepNinety" Value="0" />
      </BoundProperties>
    </ImageClip>
    <ImageClip extentID="4607" gapBefore="0" mediaItemID="4603" duration="0.20000000000000001">
      <Effects />
      <Transitions />
      <BoundProperties>
        <BoundPropertyInt Name="rotateStepNinety" Value="0" />
      </BoundProperties>
    </ImageClip>
    <ImageClip extentID="4608" gapBefore="0" mediaItemID="4604" duration="0.20000000000000001">
      <Effects />
      <Transitions />
      <BoundProperties>
        <BoundPropertyInt Name="rotateStepNinety" Value="0" />
      </BoundProperties>
    </ImageClip>
    <ImageClip extentID="4609" gapBefore="0" mediaItemID="4605" duration="0.20000000000000001">
      <Effects />
      <Transitions />
      <BoundProperties>
        <BoundPropertyInt Name="rotateStepNinety" Value="0" />
      </BoundProperties>
    </ImageClip>
    <ImageClip extentID="4610" gapBefore="0" mediaItemID="4606" duration="0.20000000000000001">
      <Effects />
      <Transitions />
      <BoundProperties>
        <BoundPropertyInt Name="rotateStepNinety" Value="0" />
      </BoundProperties>
    </ImageClip>
    <ImageClip extentID="4611" gapBefore="0" mediaItemID="4607" duration="0.20000000000000001">
      <Effects />
      <Transitions />
      <BoundProperties>
        <BoundPropertyInt Name="rotateStepNinety" Value="0" />
      </BoundProperties>
    </ImageClip>
    <ImageClip extentID="4612" gapBefore="0" mediaItemID="4608" duration="0.20000000000000001">
      <Effects />
      <Transitions />
      <BoundProperties>
        <BoundPropertyInt Name="rotateStepNinety" Value="0" />
      </BoundProperties>
    </ImageClip>
    <ImageClip extentID="4613" gapBefore="0" mediaItemID="4609" duration="0.20000000000000001">
      <Effects />
      <Transitions />
      <BoundProperties>
        <BoundPropertyInt Name="rotateStepNinety" Value="0" />
      </BoundProperties>
    </ImageClip>
    <ImageClip extentID="4614" gapBefore="0" mediaItemID="4610" duration="0.20000000000000001">
      <Effects />
      <Transitions />
      <BoundProperties>
        <BoundPropertyInt Name="rotateStepNinety" Value="0" />
      </BoundProperties>
    </ImageClip>
    <ImageClip extentID="4615" gapBefore="0" mediaItemID="4611" duration="0.20000000000000001">
      <Effects />
      <Transitions />
      <BoundProperties>
        <BoundPropertyInt Name="rotateStepNinety" Value="0" />
      </BoundProperties>
    </ImageClip>
    <ImageClip extentID="4616" gapBefore="0" mediaItemID="4612" duration="0.20000000000000001">
      <Effects />
      <Transitions />
      <BoundProperties>
        <BoundPropertyInt Name="rotateStepNinety" Value="0" />
      </BoundProperties>
    </ImageClip>
    <ImageClip extentID="4617" gapBefore="0" mediaItemID="4613" duration="0.20000000000000001">
      <Effects />
      <Transitions />
      <BoundProperties>
        <BoundPropertyInt Name="rotateStepNinety" Value="0" />
      </BoundProperties>
    </ImageClip>
    <ImageClip extentID="4618" gapBefore="0" mediaItemID="4614" duration="0.20000000000000001">
      <Effects />
      <Transitions />
      <BoundProperties>
        <BoundPropertyInt Name="rotateStepNinety" Value="0" />
      </BoundProperties>
    </ImageClip>
    <ImageClip extentID="4619" gapBefore="0" mediaItemID="4615" duration="0.20000000000000001">
      <Effects />
      <Transitions />
      <BoundProperties>
        <BoundPropertyInt Name="rotateStepNinety" Value="0" />
      </BoundProperties>
    </ImageClip>
    <ImageClip extentID="4620" gapBefore="0" mediaItemID="4616" duration="0.20000000000000001">
      <Effects />
      <Transitions />
      <BoundProperties>
        <BoundPropertyInt Name="rotateStepNinety" Value="0" />
      </BoundProperties>
    </ImageClip>
    <ImageClip extentID="4621" gapBefore="0" mediaItemID="4617" duration="0.20000000000000001">
      <Effects />
      <Transitions />
      <BoundProperties>
        <BoundPropertyInt Name="rotateStepNinety" Value="0" />
      </BoundProperties>
    </ImageClip>
    <ImageClip extentID="4622" gapBefore="0" mediaItemID="4618" duration="0.20000000000000001">
      <Effects />
      <Transitions />
      <BoundProperties>
        <BoundPropertyInt Name="rotateStepNinety" Value="0" />
      </BoundProperties>
    </ImageClip>
    <ImageClip extentID="4623" gapBefore="0" mediaItemID="4619" duration="0.20000000000000001">
      <Effects />
      <Transitions />
      <BoundProperties>
        <BoundPropertyInt Name="rotateStepNinety" Value="0" />
      </BoundProperties>
    </ImageClip>
    <ImageClip extentID="4624" gapBefore="0" mediaItemID="4620" duration="0.20000000000000001">
      <Effects />
      <Transitions />
      <BoundProperties>
        <BoundPropertyInt Name="rotateStepNinety" Value="0" />
      </BoundProperties>
    </ImageClip>
    <ImageClip extentID="4625" gapBefore="0" mediaItemID="4621" duration="0.20000000000000001">
      <Effects />
      <Transitions />
      <BoundProperties>
        <BoundPropertyInt Name="rotateStepNinety" Value="0" />
      </BoundProperties>
    </ImageClip>
    <ImageClip extentID="4626" gapBefore="0" mediaItemID="4622" duration="0.20000000000000001">
      <Effects />
      <Transitions />
      <BoundProperties>
        <BoundPropertyInt Name="rotateStepNinety" Value="0" />
      </BoundProperties>
    </ImageClip>
    <ImageClip extentID="4627" gapBefore="0" mediaItemID="4623" duration="0.20000000000000001">
      <Effects />
      <Transitions />
      <BoundProperties>
        <BoundPropertyInt Name="rotateStepNinety" Value="0" />
      </BoundProperties>
    </ImageClip>
    <ImageClip extentID="4628" gapBefore="0" mediaItemID="4624" duration="0.20000000000000001">
      <Effects />
      <Transitions />
      <BoundProperties>
        <BoundPropertyInt Name="rotateStepNinety" Value="0" />
      </BoundProperties>
    </ImageClip>
    <ImageClip extentID="4629" gapBefore="0" mediaItemID="4625" duration="0.20000000000000001">
      <Effects />
      <Transitions />
      <BoundProperties>
        <BoundPropertyInt Name="rotateStepNinety" Value="0" />
      </BoundProperties>
    </ImageClip>
    <ImageClip extentID="4630" gapBefore="0" mediaItemID="4626" duration="0.20000000000000001">
      <Effects />
      <Transitions />
      <BoundProperties>
        <BoundPropertyInt Name="rotateStepNinety" Value="0" />
      </BoundProperties>
    </ImageClip>
    <ImageClip extentID="4631" gapBefore="0" mediaItemID="4627" duration="0.20000000000000001">
      <Effects />
      <Transitions />
      <BoundProperties>
        <BoundPropertyInt Name="rotateStepNinety" Value="0" />
      </BoundProperties>
    </ImageClip>
    <ImageClip extentID="4632" gapBefore="0" mediaItemID="4628" duration="0.20000000000000001">
      <Effects />
      <Transitions />
      <BoundProperties>
        <BoundPropertyInt Name="rotateStepNinety" Value="0" />
      </BoundProperties>
    </ImageClip>
    <ImageClip extentID="4633" gapBefore="0" mediaItemID="4629" duration="0.20000000000000001">
      <Effects />
      <Transitions />
      <BoundProperties>
        <BoundPropertyInt Name="rotateStepNinety" Value="0" />
      </BoundProperties>
    </ImageClip>
    <ImageClip extentID="4634" gapBefore="0" mediaItemID="4630" duration="0.20000000000000001">
      <Effects />
      <Transitions />
      <BoundProperties>
        <BoundPropertyInt Name="rotateStepNinety" Value="0" />
      </BoundProperties>
    </ImageClip>
    <ImageClip extentID="4635" gapBefore="0" mediaItemID="4631" duration="0.20000000000000001">
      <Effects />
      <Transitions />
      <BoundProperties>
        <BoundPropertyInt Name="rotateStepNinety" Value="0" />
      </BoundProperties>
    </ImageClip>
    <ImageClip extentID="4636" gapBefore="0" mediaItemID="4632" duration="0.20000000000000001">
      <Effects />
      <Transitions />
      <BoundProperties>
        <BoundPropertyInt Name="rotateStepNinety" Value="0" />
      </BoundProperties>
    </ImageClip>
    <ImageClip extentID="4637" gapBefore="0" mediaItemID="4633" duration="0.20000000000000001">
      <Effects />
      <Transitions />
      <BoundProperties>
        <BoundPropertyInt Name="rotateStepNinety" Value="0" />
      </BoundProperties>
    </ImageClip>
    <ImageClip extentID="4638" gapBefore="0" mediaItemID="4634" duration="0.20000000000000001">
      <Effects />
      <Transitions />
      <BoundProperties>
        <BoundPropertyInt Name="rotateStepNinety" Value="0" />
      </BoundProperties>
    </ImageClip>
    <ImageClip extentID="4639" gapBefore="0" mediaItemID="4635" duration="0.20000000000000001">
      <Effects />
      <Transitions />
      <BoundProperties>
        <BoundPropertyInt Name="rotateStepNinety" Value="0" />
      </BoundProperties>
    </ImageClip>
    <ImageClip extentID="4640" gapBefore="0" mediaItemID="4636" duration="0.20000000000000001">
      <Effects />
      <Transitions />
      <BoundProperties>
        <BoundPropertyInt Name="rotateStepNinety" Value="0" />
      </BoundProperties>
    </ImageClip>
    <ImageClip extentID="4641" gapBefore="0" mediaItemID="4637" duration="0.20000000000000001">
      <Effects />
      <Transitions />
      <BoundProperties>
        <BoundPropertyInt Name="rotateStepNinety" Value="0" />
      </BoundProperties>
    </ImageClip>
    <ImageClip extentID="4642" gapBefore="0" mediaItemID="4638" duration="0.20000000000000001">
      <Effects />
      <Transitions />
      <BoundProperties>
        <BoundPropertyInt Name="rotateStepNinety" Value="0" />
      </BoundProperties>
    </ImageClip>
    <ImageClip extentID="4643" gapBefore="0" mediaItemID="4639" duration="0.20000000000000001">
      <Effects />
      <Transitions />
      <BoundProperties>
        <BoundPropertyInt Name="rotateStepNinety" Value="0" />
      </BoundProperties>
    </ImageClip>
    <ImageClip extentID="4644" gapBefore="0" mediaItemID="4640" duration="0.20000000000000001">
      <Effects />
      <Transitions />
      <BoundProperties>
        <BoundPropertyInt Name="rotateStepNinety" Value="0" />
      </BoundProperties>
    </ImageClip>
    <ImageClip extentID="4645" gapBefore="0" mediaItemID="4641" duration="0.20000000000000001">
      <Effects />
      <Transitions />
      <BoundProperties>
        <BoundPropertyInt Name="rotateStepNinety" Value="0" />
      </BoundProperties>
    </ImageClip>
    <ImageClip extentID="4646" gapBefore="0" mediaItemID="4642" duration="0.20000000000000001">
      <Effects />
      <Transitions />
      <BoundProperties>
        <BoundPropertyInt Name="rotateStepNinety" Value="0" />
      </BoundProperties>
    </ImageClip>
    <ImageClip extentID="4647" gapBefore="0" mediaItemID="4643" duration="0.20000000000000001">
      <Effects />
      <Transitions />
      <BoundProperties>
        <BoundPropertyInt Name="rotateStepNinety" Value="0" />
      </BoundProperties>
    </ImageClip>
    <ImageClip extentID="4648" gapBefore="0" mediaItemID="4644" duration="0.20000000000000001">
      <Effects />
      <Transitions />
      <BoundProperties>
        <BoundPropertyInt Name="rotateStepNinety" Value="0" />
      </BoundProperties>
    </ImageClip>
    <ImageClip extentID="4649" gapBefore="0" mediaItemID="4645" duration="0.20000000000000001">
      <Effects />
      <Transitions />
      <BoundProperties>
        <BoundPropertyInt Name="rotateStepNinety" Value="0" />
      </BoundProperties>
    </ImageClip>
    <ImageClip extentID="4650" gapBefore="0" mediaItemID="4646" duration="0.20000000000000001">
      <Effects />
      <Transitions />
      <BoundProperties>
        <BoundPropertyInt Name="rotateStepNinety" Value="0" />
      </BoundProperties>
    </ImageClip>
    <ImageClip extentID="4651" gapBefore="0" mediaItemID="4647" duration="0.20000000000000001">
      <Effects />
      <Transitions />
      <BoundProperties>
        <BoundPropertyInt Name="rotateStepNinety" Value="0" />
      </BoundProperties>
    </ImageClip>
    <ImageClip extentID="4652" gapBefore="0" mediaItemID="4648" duration="0.20000000000000001">
      <Effects />
      <Transitions />
      <BoundProperties>
        <BoundPropertyInt Name="rotateStepNinety" Value="0" />
      </BoundProperties>
    </ImageClip>
    <ImageClip extentID="4653" gapBefore="0" mediaItemID="4649" duration="0.20000000000000001">
      <Effects />
      <Transitions />
      <BoundProperties>
        <BoundPropertyInt Name="rotateStepNinety" Value="0" />
      </BoundProperties>
    </ImageClip>
    <ImageClip extentID="4654" gapBefore="0" mediaItemID="4650" duration="0.20000000000000001">
      <Effects />
      <Transitions />
      <BoundProperties>
        <BoundPropertyInt Name="rotateStepNinety" Value="0" />
      </BoundProperties>
    </ImageClip>
    <ImageClip extentID="4655" gapBefore="0" mediaItemID="4651" duration="0.20000000000000001">
      <Effects />
      <Transitions />
      <BoundProperties>
        <BoundPropertyInt Name="rotateStepNinety" Value="0" />
      </BoundProperties>
    </ImageClip>
    <ImageClip extentID="4656" gapBefore="0" mediaItemID="4652" duration="0.20000000000000001">
      <Effects />
      <Transitions />
      <BoundProperties>
        <BoundPropertyInt Name="rotateStepNinety" Value="0" />
      </BoundProperties>
    </ImageClip>
    <ImageClip extentID="4657" gapBefore="0" mediaItemID="4653" duration="0.20000000000000001">
      <Effects />
      <Transitions />
      <BoundProperties>
        <BoundPropertyInt Name="rotateStepNinety" Value="0" />
      </BoundProperties>
    </ImageClip>
    <ImageClip extentID="4658" gapBefore="0" mediaItemID="4654" duration="0.20000000000000001">
      <Effects />
      <Transitions />
      <BoundProperties>
        <BoundPropertyInt Name="rotateStepNinety" Value="0" />
      </BoundProperties>
    </ImageClip>
    <ImageClip extentID="4659" gapBefore="0" mediaItemID="4655" duration="0.20000000000000001">
      <Effects />
      <Transitions />
      <BoundProperties>
        <BoundPropertyInt Name="rotateStepNinety" Value="0" />
      </BoundProperties>
    </ImageClip>
    <ImageClip extentID="4660" gapBefore="0" mediaItemID="4656" duration="0.20000000000000001">
      <Effects />
      <Transitions />
      <BoundProperties>
        <BoundPropertyInt Name="rotateStepNinety" Value="0" />
      </BoundProperties>
    </ImageClip>
    <ImageClip extentID="4661" gapBefore="0" mediaItemID="4657" duration="0.20000000000000001">
      <Effects />
      <Transitions />
      <BoundProperties>
        <BoundPropertyInt Name="rotateStepNinety" Value="0" />
      </BoundProperties>
    </ImageClip>
    <ImageClip extentID="4662" gapBefore="0" mediaItemID="4658" duration="0.20000000000000001">
      <Effects />
      <Transitions />
      <BoundProperties>
        <BoundPropertyInt Name="rotateStepNinety" Value="0" />
      </BoundProperties>
    </ImageClip>
    <ImageClip extentID="4663" gapBefore="0" mediaItemID="4659" duration="0.20000000000000001">
      <Effects />
      <Transitions />
      <BoundProperties>
        <BoundPropertyInt Name="rotateStepNinety" Value="0" />
      </BoundProperties>
    </ImageClip>
    <ImageClip extentID="4664" gapBefore="0" mediaItemID="4660" duration="0.20000000000000001">
      <Effects />
      <Transitions />
      <BoundProperties>
        <BoundPropertyInt Name="rotateStepNinety" Value="0" />
      </BoundProperties>
    </ImageClip>
    <ImageClip extentID="4665" gapBefore="0" mediaItemID="4661" duration="0.20000000000000001">
      <Effects />
      <Transitions />
      <BoundProperties>
        <BoundPropertyInt Name="rotateStepNinety" Value="0" />
      </BoundProperties>
    </ImageClip>
    <ImageClip extentID="4666" gapBefore="0" mediaItemID="4662" duration="0.20000000000000001">
      <Effects />
      <Transitions />
      <BoundProperties>
        <BoundPropertyInt Name="rotateStepNinety" Value="0" />
      </BoundProperties>
    </ImageClip>
    <ImageClip extentID="4667" gapBefore="0" mediaItemID="4663" duration="0.20000000000000001">
      <Effects />
      <Transitions />
      <BoundProperties>
        <BoundPropertyInt Name="rotateStepNinety" Value="0" />
      </BoundProperties>
    </ImageClip>
    <ImageClip extentID="4668" gapBefore="0" mediaItemID="4664" duration="0.20000000000000001">
      <Effects />
      <Transitions />
      <BoundProperties>
        <BoundPropertyInt Name="rotateStepNinety" Value="0" />
      </BoundProperties>
    </ImageClip>
    <ImageClip extentID="4669" gapBefore="0" mediaItemID="4665" duration="0.20000000000000001">
      <Effects />
      <Transitions />
      <BoundProperties>
        <BoundPropertyInt Name="rotateStepNinety" Value="0" />
      </BoundProperties>
    </ImageClip>
    <ImageClip extentID="4670" gapBefore="0" mediaItemID="4666" duration="0.20000000000000001">
      <Effects />
      <Transitions />
      <BoundProperties>
        <BoundPropertyInt Name="rotateStepNinety" Value="0" />
      </BoundProperties>
    </ImageClip>
    <ImageClip extentID="4671" gapBefore="0" mediaItemID="4667" duration="0.20000000000000001">
      <Effects />
      <Transitions />
      <BoundProperties>
        <BoundPropertyInt Name="rotateStepNinety" Value="0" />
      </BoundProperties>
    </ImageClip>
    <ImageClip extentID="4672" gapBefore="0" mediaItemID="4668" duration="0.20000000000000001">
      <Effects />
      <Transitions />
      <BoundProperties>
        <BoundPropertyInt Name="rotateStepNinety" Value="0" />
      </BoundProperties>
    </ImageClip>
    <ImageClip extentID="4673" gapBefore="0" mediaItemID="4669" duration="0.20000000000000001">
      <Effects />
      <Transitions />
      <BoundProperties>
        <BoundPropertyInt Name="rotateStepNinety" Value="0" />
      </BoundProperties>
    </ImageClip>
    <ImageClip extentID="4674" gapBefore="0" mediaItemID="4670" duration="0.20000000000000001">
      <Effects />
      <Transitions />
      <BoundProperties>
        <BoundPropertyInt Name="rotateStepNinety" Value="0" />
      </BoundProperties>
    </ImageClip>
    <ImageClip extentID="4675" gapBefore="0" mediaItemID="4671" duration="0.20000000000000001">
      <Effects />
      <Transitions />
      <BoundProperties>
        <BoundPropertyInt Name="rotateStepNinety" Value="0" />
      </BoundProperties>
    </ImageClip>
    <ImageClip extentID="4676" gapBefore="0" mediaItemID="4672" duration="0.20000000000000001">
      <Effects />
      <Transitions />
      <BoundProperties>
        <BoundPropertyInt Name="rotateStepNinety" Value="0" />
      </BoundProperties>
    </ImageClip>
    <ImageClip extentID="4677" gapBefore="0" mediaItemID="4673" duration="0.20000000000000001">
      <Effects />
      <Transitions />
      <BoundProperties>
        <BoundPropertyInt Name="rotateStepNinety" Value="0" />
      </BoundProperties>
    </ImageClip>
    <ImageClip extentID="4678" gapBefore="0" mediaItemID="4674" duration="0.20000000000000001">
      <Effects />
      <Transitions />
      <BoundProperties>
        <BoundPropertyInt Name="rotateStepNinety" Value="0" />
      </BoundProperties>
    </ImageClip>
    <ImageClip extentID="4679" gapBefore="0" mediaItemID="4675" duration="0.20000000000000001">
      <Effects />
      <Transitions />
      <BoundProperties>
        <BoundPropertyInt Name="rotateStepNinety" Value="0" />
      </BoundProperties>
    </ImageClip>
    <ImageClip extentID="4680" gapBefore="0" mediaItemID="4676" duration="0.20000000000000001">
      <Effects />
      <Transitions />
      <BoundProperties>
        <BoundPropertyInt Name="rotateStepNinety" Value="0" />
      </BoundProperties>
    </ImageClip>
    <ImageClip extentID="4681" gapBefore="0" mediaItemID="4677" duration="0.20000000000000001">
      <Effects />
      <Transitions />
      <BoundProperties>
        <BoundPropertyInt Name="rotateStepNinety" Value="0" />
      </BoundProperties>
    </ImageClip>
    <ImageClip extentID="4682" gapBefore="0" mediaItemID="4678" duration="0.20000000000000001">
      <Effects />
      <Transitions />
      <BoundProperties>
        <BoundPropertyInt Name="rotateStepNinety" Value="0" />
      </BoundProperties>
    </ImageClip>
    <ImageClip extentID="4683" gapBefore="0" mediaItemID="4679" duration="0.20000000000000001">
      <Effects />
      <Transitions />
      <BoundProperties>
        <BoundPropertyInt Name="rotateStepNinety" Value="0" />
      </BoundProperties>
    </ImageClip>
    <ImageClip extentID="4684" gapBefore="0" mediaItemID="4680" duration="0.20000000000000001">
      <Effects />
      <Transitions />
      <BoundProperties>
        <BoundPropertyInt Name="rotateStepNinety" Value="0" />
      </BoundProperties>
    </ImageClip>
    <ImageClip extentID="4685" gapBefore="0" mediaItemID="4681" duration="0.20000000000000001">
      <Effects />
      <Transitions />
      <BoundProperties>
        <BoundPropertyInt Name="rotateStepNinety" Value="0" />
      </BoundProperties>
    </ImageClip>
    <ImageClip extentID="4686" gapBefore="0" mediaItemID="4682" duration="0.20000000000000001">
      <Effects />
      <Transitions />
      <BoundProperties>
        <BoundPropertyInt Name="rotateStepNinety" Value="0" />
      </BoundProperties>
    </ImageClip>
    <ImageClip extentID="4687" gapBefore="0" mediaItemID="4683" duration="0.20000000000000001">
      <Effects />
      <Transitions />
      <BoundProperties>
        <BoundPropertyInt Name="rotateStepNinety" Value="0" />
      </BoundProperties>
    </ImageClip>
    <ImageClip extentID="4688" gapBefore="0" mediaItemID="4684" duration="0.20000000000000001">
      <Effects />
      <Transitions />
      <BoundProperties>
        <BoundPropertyInt Name="rotateStepNinety" Value="0" />
      </BoundProperties>
    </ImageClip>
    <ImageClip extentID="4689" gapBefore="0" mediaItemID="4685" duration="0.20000000000000001">
      <Effects />
      <Transitions />
      <BoundProperties>
        <BoundPropertyInt Name="rotateStepNinety" Value="0" />
      </BoundProperties>
    </ImageClip>
    <ImageClip extentID="4690" gapBefore="0" mediaItemID="4686" duration="0.20000000000000001">
      <Effects />
      <Transitions />
      <BoundProperties>
        <BoundPropertyInt Name="rotateStepNinety" Value="0" />
      </BoundProperties>
    </ImageClip>
    <ImageClip extentID="4691" gapBefore="0" mediaItemID="4687" duration="0.20000000000000001">
      <Effects />
      <Transitions />
      <BoundProperties>
        <BoundPropertyInt Name="rotateStepNinety" Value="0" />
      </BoundProperties>
    </ImageClip>
    <ImageClip extentID="4692" gapBefore="0" mediaItemID="4688" duration="0.20000000000000001">
      <Effects />
      <Transitions />
      <BoundProperties>
        <BoundPropertyInt Name="rotateStepNinety" Value="0" />
      </BoundProperties>
    </ImageClip>
    <ImageClip extentID="4693" gapBefore="0" mediaItemID="4689" duration="0.20000000000000001">
      <Effects />
      <Transitions />
      <BoundProperties>
        <BoundPropertyInt Name="rotateStepNinety" Value="0" />
      </BoundProperties>
    </ImageClip>
    <ImageClip extentID="4694" gapBefore="0" mediaItemID="4690" duration="0.20000000000000001">
      <Effects />
      <Transitions />
      <BoundProperties>
        <BoundPropertyInt Name="rotateStepNinety" Value="0" />
      </BoundProperties>
    </ImageClip>
    <ImageClip extentID="4695" gapBefore="0" mediaItemID="4691" duration="0.20000000000000001">
      <Effects />
      <Transitions />
      <BoundProperties>
        <BoundPropertyInt Name="rotateStepNinety" Value="0" />
      </BoundProperties>
    </ImageClip>
    <ImageClip extentID="4696" gapBefore="0" mediaItemID="4692" duration="0.20000000000000001">
      <Effects />
      <Transitions />
      <BoundProperties>
        <BoundPropertyInt Name="rotateStepNinety" Value="0" />
      </BoundProperties>
    </ImageClip>
    <ImageClip extentID="4697" gapBefore="0" mediaItemID="4693" duration="0.20000000000000001">
      <Effects />
      <Transitions />
      <BoundProperties>
        <BoundPropertyInt Name="rotateStepNinety" Value="0" />
      </BoundProperties>
    </ImageClip>
    <ImageClip extentID="4698" gapBefore="0" mediaItemID="4694" duration="0.20000000000000001">
      <Effects />
      <Transitions />
      <BoundProperties>
        <BoundPropertyInt Name="rotateStepNinety" Value="0" />
      </BoundProperties>
    </ImageClip>
    <ImageClip extentID="4699" gapBefore="0" mediaItemID="4695" duration="0.20000000000000001">
      <Effects />
      <Transitions />
      <BoundProperties>
        <BoundPropertyInt Name="rotateStepNinety" Value="0" />
      </BoundProperties>
    </ImageClip>
    <ImageClip extentID="4700" gapBefore="0" mediaItemID="4696" duration="0.20000000000000001">
      <Effects />
      <Transitions />
      <BoundProperties>
        <BoundPropertyInt Name="rotateStepNinety" Value="0" />
      </BoundProperties>
    </ImageClip>
    <ImageClip extentID="4701" gapBefore="0" mediaItemID="4697" duration="0.20000000000000001">
      <Effects />
      <Transitions />
      <BoundProperties>
        <BoundPropertyInt Name="rotateStepNinety" Value="0" />
      </BoundProperties>
    </ImageClip>
    <ImageClip extentID="4702" gapBefore="0" mediaItemID="4698" duration="0.20000000000000001">
      <Effects />
      <Transitions />
      <BoundProperties>
        <BoundPropertyInt Name="rotateStepNinety" Value="0" />
      </BoundProperties>
    </ImageClip>
    <ImageClip extentID="4703" gapBefore="0" mediaItemID="4699" duration="0.20000000000000001">
      <Effects />
      <Transitions />
      <BoundProperties>
        <BoundPropertyInt Name="rotateStepNinety" Value="0" />
      </BoundProperties>
    </ImageClip>
    <ImageClip extentID="4704" gapBefore="0" mediaItemID="4700" duration="0.20000000000000001">
      <Effects />
      <Transitions />
      <BoundProperties>
        <BoundPropertyInt Name="rotateStepNinety" Value="0" />
      </BoundProperties>
    </ImageClip>
    <ImageClip extentID="4705" gapBefore="0" mediaItemID="4701" duration="0.20000000000000001">
      <Effects />
      <Transitions />
      <BoundProperties>
        <BoundPropertyInt Name="rotateStepNinety" Value="0" />
      </BoundProperties>
    </ImageClip>
    <ImageClip extentID="4706" gapBefore="0" mediaItemID="4702" duration="0.20000000000000001">
      <Effects />
      <Transitions />
      <BoundProperties>
        <BoundPropertyInt Name="rotateStepNinety" Value="0" />
      </BoundProperties>
    </ImageClip>
    <ImageClip extentID="4707" gapBefore="0" mediaItemID="4703" duration="0.20000000000000001">
      <Effects />
      <Transitions />
      <BoundProperties>
        <BoundPropertyInt Name="rotateStepNinety" Value="0" />
      </BoundProperties>
    </ImageClip>
    <ImageClip extentID="4708" gapBefore="0" mediaItemID="4704" duration="0.20000000000000001">
      <Effects />
      <Transitions />
      <BoundProperties>
        <BoundPropertyInt Name="rotateStepNinety" Value="0" />
      </BoundProperties>
    </ImageClip>
    <ImageClip extentID="4709" gapBefore="0" mediaItemID="4705" duration="0.20000000000000001">
      <Effects />
      <Transitions />
      <BoundProperties>
        <BoundPropertyInt Name="rotateStepNinety" Value="0" />
      </BoundProperties>
    </ImageClip>
    <ImageClip extentID="4710" gapBefore="0" mediaItemID="4706" duration="0.20000000000000001">
      <Effects />
      <Transitions />
      <BoundProperties>
        <BoundPropertyInt Name="rotateStepNinety" Value="0" />
      </BoundProperties>
    </ImageClip>
    <ImageClip extentID="4711" gapBefore="0" mediaItemID="4707" duration="0.20000000000000001">
      <Effects />
      <Transitions />
      <BoundProperties>
        <BoundPropertyInt Name="rotateStepNinety" Value="0" />
      </BoundProperties>
    </ImageClip>
    <ImageClip extentID="4712" gapBefore="0" mediaItemID="4708" duration="0.20000000000000001">
      <Effects />
      <Transitions />
      <BoundProperties>
        <BoundPropertyInt Name="rotateStepNinety" Value="0" />
      </BoundProperties>
    </ImageClip>
    <ImageClip extentID="4713" gapBefore="0" mediaItemID="4709" duration="0.20000000000000001">
      <Effects />
      <Transitions />
      <BoundProperties>
        <BoundPropertyInt Name="rotateStepNinety" Value="0" />
      </BoundProperties>
    </ImageClip>
    <ImageClip extentID="4714" gapBefore="0" mediaItemID="4710" duration="0.20000000000000001">
      <Effects />
      <Transitions />
      <BoundProperties>
        <BoundPropertyInt Name="rotateStepNinety" Value="0" />
      </BoundProperties>
    </ImageClip>
    <ImageClip extentID="4715" gapBefore="0" mediaItemID="4711" duration="0.20000000000000001">
      <Effects />
      <Transitions />
      <BoundProperties>
        <BoundPropertyInt Name="rotateStepNinety" Value="0" />
      </BoundProperties>
    </ImageClip>
    <ImageClip extentID="4716" gapBefore="0" mediaItemID="4712" duration="0.20000000000000001">
      <Effects />
      <Transitions />
      <BoundProperties>
        <BoundPropertyInt Name="rotateStepNinety" Value="0" />
      </BoundProperties>
    </ImageClip>
    <ImageClip extentID="4717" gapBefore="0" mediaItemID="4713" duration="0.20000000000000001">
      <Effects />
      <Transitions />
      <BoundProperties>
        <BoundPropertyInt Name="rotateStepNinety" Value="0" />
      </BoundProperties>
    </ImageClip>
    <ImageClip extentID="4718" gapBefore="0" mediaItemID="4714" duration="0.20000000000000001">
      <Effects />
      <Transitions />
      <BoundProperties>
        <BoundPropertyInt Name="rotateStepNinety" Value="0" />
      </BoundProperties>
    </ImageClip>
    <ImageClip extentID="4719" gapBefore="0" mediaItemID="4715" duration="0.20000000000000001">
      <Effects />
      <Transitions />
      <BoundProperties>
        <BoundPropertyInt Name="rotateStepNinety" Value="0" />
      </BoundProperties>
    </ImageClip>
    <ImageClip extentID="4720" gapBefore="0" mediaItemID="4716" duration="0.20000000000000001">
      <Effects />
      <Transitions />
      <BoundProperties>
        <BoundPropertyInt Name="rotateStepNinety" Value="0" />
      </BoundProperties>
    </ImageClip>
    <ImageClip extentID="4721" gapBefore="0" mediaItemID="4717" duration="0.20000000000000001">
      <Effects />
      <Transitions />
      <BoundProperties>
        <BoundPropertyInt Name="rotateStepNinety" Value="0" />
      </BoundProperties>
    </ImageClip>
    <ImageClip extentID="4722" gapBefore="0" mediaItemID="4718" duration="0.20000000000000001">
      <Effects />
      <Transitions />
      <BoundProperties>
        <BoundPropertyInt Name="rotateStepNinety" Value="0" />
      </BoundProperties>
    </ImageClip>
    <ImageClip extentID="4723" gapBefore="0" mediaItemID="4719" duration="0.20000000000000001">
      <Effects />
      <Transitions />
      <BoundProperties>
        <BoundPropertyInt Name="rotateStepNinety" Value="0" />
      </BoundProperties>
    </ImageClip>
    <ImageClip extentID="4724" gapBefore="0" mediaItemID="4720" duration="0.20000000000000001">
      <Effects />
      <Transitions />
      <BoundProperties>
        <BoundPropertyInt Name="rotateStepNinety" Value="0" />
      </BoundProperties>
    </ImageClip>
    <ImageClip extentID="4725" gapBefore="0" mediaItemID="4721" duration="0.20000000000000001">
      <Effects />
      <Transitions />
      <BoundProperties>
        <BoundPropertyInt Name="rotateStepNinety" Value="0" />
      </BoundProperties>
    </ImageClip>
    <ImageClip extentID="4726" gapBefore="0" mediaItemID="4722" duration="0.20000000000000001">
      <Effects />
      <Transitions />
      <BoundProperties>
        <BoundPropertyInt Name="rotateStepNinety" Value="0" />
      </BoundProperties>
    </ImageClip>
    <ImageClip extentID="4727" gapBefore="0" mediaItemID="4723" duration="0.20000000000000001">
      <Effects />
      <Transitions />
      <BoundProperties>
        <BoundPropertyInt Name="rotateStepNinety" Value="0" />
      </BoundProperties>
    </ImageClip>
    <ImageClip extentID="4728" gapBefore="0" mediaItemID="4724" duration="0.20000000000000001">
      <Effects />
      <Transitions />
      <BoundProperties>
        <BoundPropertyInt Name="rotateStepNinety" Value="0" />
      </BoundProperties>
    </ImageClip>
    <ImageClip extentID="4729" gapBefore="0" mediaItemID="4725" duration="0.20000000000000001">
      <Effects />
      <Transitions />
      <BoundProperties>
        <BoundPropertyInt Name="rotateStepNinety" Value="0" />
      </BoundProperties>
    </ImageClip>
    <ImageClip extentID="4730" gapBefore="0" mediaItemID="4726" duration="0.20000000000000001">
      <Effects />
      <Transitions />
      <BoundProperties>
        <BoundPropertyInt Name="rotateStepNinety" Value="0" />
      </BoundProperties>
    </ImageClip>
    <ImageClip extentID="4731" gapBefore="0" mediaItemID="4727" duration="0.20000000000000001">
      <Effects />
      <Transitions />
      <BoundProperties>
        <BoundPropertyInt Name="rotateStepNinety" Value="0" />
      </BoundProperties>
    </ImageClip>
    <ImageClip extentID="4732" gapBefore="0" mediaItemID="4728" duration="0.20000000000000001">
      <Effects />
      <Transitions />
      <BoundProperties>
        <BoundPropertyInt Name="rotateStepNinety" Value="0" />
      </BoundProperties>
    </ImageClip>
    <ImageClip extentID="4733" gapBefore="0" mediaItemID="4729" duration="0.20000000000000001">
      <Effects />
      <Transitions />
      <BoundProperties>
        <BoundPropertyInt Name="rotateStepNinety" Value="0" />
      </BoundProperties>
    </ImageClip>
    <ImageClip extentID="4734" gapBefore="0" mediaItemID="4730" duration="0.20000000000000001">
      <Effects />
      <Transitions />
      <BoundProperties>
        <BoundPropertyInt Name="rotateStepNinety" Value="0" />
      </BoundProperties>
    </ImageClip>
    <ImageClip extentID="4735" gapBefore="0" mediaItemID="4731" duration="0.20000000000000001">
      <Effects />
      <Transitions />
      <BoundProperties>
        <BoundPropertyInt Name="rotateStepNinety" Value="0" />
      </BoundProperties>
    </ImageClip>
    <ImageClip extentID="4736" gapBefore="0" mediaItemID="4732" duration="0.20000000000000001">
      <Effects />
      <Transitions />
      <BoundProperties>
        <BoundPropertyInt Name="rotateStepNinety" Value="0" />
      </BoundProperties>
    </ImageClip>
    <ImageClip extentID="4737" gapBefore="0" mediaItemID="4733" duration="0.20000000000000001">
      <Effects />
      <Transitions />
      <BoundProperties>
        <BoundPropertyInt Name="rotateStepNinety" Value="0" />
      </BoundProperties>
    </ImageClip>
    <ImageClip extentID="4738" gapBefore="0" mediaItemID="4734" duration="0.20000000000000001">
      <Effects />
      <Transitions />
      <BoundProperties>
        <BoundPropertyInt Name="rotateStepNinety" Value="0" />
      </BoundProperties>
    </ImageClip>
    <ImageClip extentID="4739" gapBefore="0" mediaItemID="4735" duration="0.20000000000000001">
      <Effects />
      <Transitions />
      <BoundProperties>
        <BoundPropertyInt Name="rotateStepNinety" Value="0" />
      </BoundProperties>
    </ImageClip>
    <ImageClip extentID="4740" gapBefore="0" mediaItemID="4736" duration="0.20000000000000001">
      <Effects />
      <Transitions />
      <BoundProperties>
        <BoundPropertyInt Name="rotateStepNinety" Value="0" />
      </BoundProperties>
    </ImageClip>
    <ImageClip extentID="4741" gapBefore="0" mediaItemID="4737" duration="0.20000000000000001">
      <Effects />
      <Transitions />
      <BoundProperties>
        <BoundPropertyInt Name="rotateStepNinety" Value="0" />
      </BoundProperties>
    </ImageClip>
    <ImageClip extentID="4742" gapBefore="0" mediaItemID="4738" duration="0.20000000000000001">
      <Effects />
      <Transitions />
      <BoundProperties>
        <BoundPropertyInt Name="rotateStepNinety" Value="0" />
      </BoundProperties>
    </ImageClip>
    <ImageClip extentID="4743" gapBefore="0" mediaItemID="4739" duration="0.20000000000000001">
      <Effects />
      <Transitions />
      <BoundProperties>
        <BoundPropertyInt Name="rotateStepNinety" Value="0" />
      </BoundProperties>
    </ImageClip>
    <ImageClip extentID="4744" gapBefore="0" mediaItemID="4740" duration="0.20000000000000001">
      <Effects />
      <Transitions />
      <BoundProperties>
        <BoundPropertyInt Name="rotateStepNinety" Value="0" />
      </BoundProperties>
    </ImageClip>
    <ImageClip extentID="4745" gapBefore="0" mediaItemID="4741" duration="0.20000000000000001">
      <Effects />
      <Transitions />
      <BoundProperties>
        <BoundPropertyInt Name="rotateStepNinety" Value="0" />
      </BoundProperties>
    </ImageClip>
    <ImageClip extentID="4746" gapBefore="0" mediaItemID="4742" duration="0.20000000000000001">
      <Effects />
      <Transitions />
      <BoundProperties>
        <BoundPropertyInt Name="rotateStepNinety" Value="0" />
      </BoundProperties>
    </ImageClip>
    <ImageClip extentID="4747" gapBefore="0" mediaItemID="4743" duration="0.20000000000000001">
      <Effects />
      <Transitions />
      <BoundProperties>
        <BoundPropertyInt Name="rotateStepNinety" Value="0" />
      </BoundProperties>
    </ImageClip>
    <ImageClip extentID="4748" gapBefore="0" mediaItemID="4744" duration="0.20000000000000001">
      <Effects />
      <Transitions />
      <BoundProperties>
        <BoundPropertyInt Name="rotateStepNinety" Value="0" />
      </BoundProperties>
    </ImageClip>
    <ImageClip extentID="4749" gapBefore="0" mediaItemID="4745" duration="0.20000000000000001">
      <Effects />
      <Transitions />
      <BoundProperties>
        <BoundPropertyInt Name="rotateStepNinety" Value="0" />
      </BoundProperties>
    </ImageClip>
    <ImageClip extentID="4750" gapBefore="0" mediaItemID="4746" duration="0.20000000000000001">
      <Effects />
      <Transitions />
      <BoundProperties>
        <BoundPropertyInt Name="rotateStepNinety" Value="0" />
      </BoundProperties>
    </ImageClip>
    <ImageClip extentID="4751" gapBefore="0" mediaItemID="4747" duration="0.20000000000000001">
      <Effects />
      <Transitions />
      <BoundProperties>
        <BoundPropertyInt Name="rotateStepNinety" Value="0" />
      </BoundProperties>
    </ImageClip>
    <ImageClip extentID="4752" gapBefore="0" mediaItemID="4748" duration="0.20000000000000001">
      <Effects />
      <Transitions />
      <BoundProperties>
        <BoundPropertyInt Name="rotateStepNinety" Value="0" />
      </BoundProperties>
    </ImageClip>
    <ImageClip extentID="4753" gapBefore="0" mediaItemID="4749" duration="0.20000000000000001">
      <Effects />
      <Transitions />
      <BoundProperties>
        <BoundPropertyInt Name="rotateStepNinety" Value="0" />
      </BoundProperties>
    </ImageClip>
    <ImageClip extentID="4754" gapBefore="0" mediaItemID="4750" duration="0.20000000000000001">
      <Effects />
      <Transitions />
      <BoundProperties>
        <BoundPropertyInt Name="rotateStepNinety" Value="0" />
      </BoundProperties>
    </ImageClip>
    <ImageClip extentID="4755" gapBefore="0" mediaItemID="4751" duration="0.20000000000000001">
      <Effects />
      <Transitions />
      <BoundProperties>
        <BoundPropertyInt Name="rotateStepNinety" Value="0" />
      </BoundProperties>
    </ImageClip>
    <ImageClip extentID="4756" gapBefore="0" mediaItemID="4752" duration="0.20000000000000001">
      <Effects />
      <Transitions />
      <BoundProperties>
        <BoundPropertyInt Name="rotateStepNinety" Value="0" />
      </BoundProperties>
    </ImageClip>
    <ImageClip extentID="4757" gapBefore="0" mediaItemID="4753" duration="0.20000000000000001">
      <Effects />
      <Transitions />
      <BoundProperties>
        <BoundPropertyInt Name="rotateStepNinety" Value="0" />
      </BoundProperties>
    </ImageClip>
    <ImageClip extentID="4758" gapBefore="0" mediaItemID="4754" duration="0.20000000000000001">
      <Effects />
      <Transitions />
      <BoundProperties>
        <BoundPropertyInt Name="rotateStepNinety" Value="0" />
      </BoundProperties>
    </ImageClip>
    <ImageClip extentID="4759" gapBefore="0" mediaItemID="4755" duration="0.20000000000000001">
      <Effects />
      <Transitions />
      <BoundProperties>
        <BoundPropertyInt Name="rotateStepNinety" Value="0" />
      </BoundProperties>
    </ImageClip>
    <ImageClip extentID="4760" gapBefore="0" mediaItemID="4756" duration="0.20000000000000001">
      <Effects />
      <Transitions />
      <BoundProperties>
        <BoundPropertyInt Name="rotateStepNinety" Value="0" />
      </BoundProperties>
    </ImageClip>
    <ImageClip extentID="4761" gapBefore="0" mediaItemID="4757" duration="0.20000000000000001">
      <Effects />
      <Transitions />
      <BoundProperties>
        <BoundPropertyInt Name="rotateStepNinety" Value="0" />
      </BoundProperties>
    </ImageClip>
    <ImageClip extentID="4762" gapBefore="0" mediaItemID="4758" duration="0.20000000000000001">
      <Effects />
      <Transitions />
      <BoundProperties>
        <BoundPropertyInt Name="rotateStepNinety" Value="0" />
      </BoundProperties>
    </ImageClip>
    <ImageClip extentID="4763" gapBefore="0" mediaItemID="4759" duration="0.20000000000000001">
      <Effects />
      <Transitions />
      <BoundProperties>
        <BoundPropertyInt Name="rotateStepNinety" Value="0" />
      </BoundProperties>
    </ImageClip>
    <ImageClip extentID="4764" gapBefore="0" mediaItemID="4760" duration="0.20000000000000001">
      <Effects />
      <Transitions />
      <BoundProperties>
        <BoundPropertyInt Name="rotateStepNinety" Value="0" />
      </BoundProperties>
    </ImageClip>
    <ImageClip extentID="4765" gapBefore="0" mediaItemID="4761" duration="0.20000000000000001">
      <Effects />
      <Transitions />
      <BoundProperties>
        <BoundPropertyInt Name="rotateStepNinety" Value="0" />
      </BoundProperties>
    </ImageClip>
    <ImageClip extentID="4766" gapBefore="0" mediaItemID="4762" duration="0.20000000000000001">
      <Effects />
      <Transitions />
      <BoundProperties>
        <BoundPropertyInt Name="rotateStepNinety" Value="0" />
      </BoundProperties>
    </ImageClip>
    <ImageClip extentID="4767" gapBefore="0" mediaItemID="4763" duration="0.20000000000000001">
      <Effects />
      <Transitions />
      <BoundProperties>
        <BoundPropertyInt Name="rotateStepNinety" Value="0" />
      </BoundProperties>
    </ImageClip>
    <ImageClip extentID="4768" gapBefore="0" mediaItemID="4764" duration="0.20000000000000001">
      <Effects />
      <Transitions />
      <BoundProperties>
        <BoundPropertyInt Name="rotateStepNinety" Value="0" />
      </BoundProperties>
    </ImageClip>
    <ImageClip extentID="4769" gapBefore="0" mediaItemID="4765" duration="0.20000000000000001">
      <Effects />
      <Transitions />
      <BoundProperties>
        <BoundPropertyInt Name="rotateStepNinety" Value="0" />
      </BoundProperties>
    </ImageClip>
    <ImageClip extentID="4770" gapBefore="0" mediaItemID="4766" duration="0.20000000000000001">
      <Effects />
      <Transitions />
      <BoundProperties>
        <BoundPropertyInt Name="rotateStepNinety" Value="0" />
      </BoundProperties>
    </ImageClip>
    <ImageClip extentID="4771" gapBefore="0" mediaItemID="4767" duration="0.20000000000000001">
      <Effects />
      <Transitions />
      <BoundProperties>
        <BoundPropertyInt Name="rotateStepNinety" Value="0" />
      </BoundProperties>
    </ImageClip>
    <ImageClip extentID="4772" gapBefore="0" mediaItemID="4768" duration="0.20000000000000001">
      <Effects />
      <Transitions />
      <BoundProperties>
        <BoundPropertyInt Name="rotateStepNinety" Value="0" />
      </BoundProperties>
    </ImageClip>
    <ImageClip extentID="4773" gapBefore="0" mediaItemID="4769" duration="0.20000000000000001">
      <Effects />
      <Transitions />
      <BoundProperties>
        <BoundPropertyInt Name="rotateStepNinety" Value="0" />
      </BoundProperties>
    </ImageClip>
    <ImageClip extentID="4774" gapBefore="0" mediaItemID="4770" duration="0.20000000000000001">
      <Effects />
      <Transitions />
      <BoundProperties>
        <BoundPropertyInt Name="rotateStepNinety" Value="0" />
      </BoundProperties>
    </ImageClip>
    <ImageClip extentID="4775" gapBefore="0" mediaItemID="4771" duration="0.20000000000000001">
      <Effects />
      <Transitions />
      <BoundProperties>
        <BoundPropertyInt Name="rotateStepNinety" Value="0" />
      </BoundProperties>
    </ImageClip>
    <ImageClip extentID="4776" gapBefore="0" mediaItemID="4772" duration="0.20000000000000001">
      <Effects />
      <Transitions />
      <BoundProperties>
        <BoundPropertyInt Name="rotateStepNinety" Value="0" />
      </BoundProperties>
    </ImageClip>
    <ImageClip extentID="4777" gapBefore="0" mediaItemID="4773" duration="0.20000000000000001">
      <Effects />
      <Transitions />
      <BoundProperties>
        <BoundPropertyInt Name="rotateStepNinety" Value="0" />
      </BoundProperties>
    </ImageClip>
    <ImageClip extentID="4778" gapBefore="0" mediaItemID="4774" duration="0.20000000000000001">
      <Effects />
      <Transitions />
      <BoundProperties>
        <BoundPropertyInt Name="rotateStepNinety" Value="0" />
      </BoundProperties>
    </ImageClip>
    <ImageClip extentID="4779" gapBefore="0" mediaItemID="4775" duration="0.20000000000000001">
      <Effects />
      <Transitions />
      <BoundProperties>
        <BoundPropertyInt Name="rotateStepNinety" Value="0" />
      </BoundProperties>
    </ImageClip>
    <ImageClip extentID="4780" gapBefore="0" mediaItemID="4776" duration="0.20000000000000001">
      <Effects />
      <Transitions />
      <BoundProperties>
        <BoundPropertyInt Name="rotateStepNinety" Value="0" />
      </BoundProperties>
    </ImageClip>
    <ImageClip extentID="4781" gapBefore="0" mediaItemID="4777" duration="0.20000000000000001">
      <Effects />
      <Transitions />
      <BoundProperties>
        <BoundPropertyInt Name="rotateStepNinety" Value="0" />
      </BoundProperties>
    </ImageClip>
    <ImageClip extentID="4782" gapBefore="0" mediaItemID="4778" duration="0.20000000000000001">
      <Effects />
      <Transitions />
      <BoundProperties>
        <BoundPropertyInt Name="rotateStepNinety" Value="0" />
      </BoundProperties>
    </ImageClip>
    <ImageClip extentID="4783" gapBefore="0" mediaItemID="4779" duration="0.20000000000000001">
      <Effects />
      <Transitions />
      <BoundProperties>
        <BoundPropertyInt Name="rotateStepNinety" Value="0" />
      </BoundProperties>
    </ImageClip>
    <ImageClip extentID="4784" gapBefore="0" mediaItemID="4780" duration="0.20000000000000001">
      <Effects />
      <Transitions />
      <BoundProperties>
        <BoundPropertyInt Name="rotateStepNinety" Value="0" />
      </BoundProperties>
    </ImageClip>
    <ImageClip extentID="4785" gapBefore="0" mediaItemID="4781" duration="0.20000000000000001">
      <Effects />
      <Transitions />
      <BoundProperties>
        <BoundPropertyInt Name="rotateStepNinety" Value="0" />
      </BoundProperties>
    </ImageClip>
    <ImageClip extentID="4786" gapBefore="0" mediaItemID="4782" duration="0.20000000000000001">
      <Effects />
      <Transitions />
      <BoundProperties>
        <BoundPropertyInt Name="rotateStepNinety" Value="0" />
      </BoundProperties>
    </ImageClip>
    <ImageClip extentID="4787" gapBefore="0" mediaItemID="4783" duration="0.20000000000000001">
      <Effects />
      <Transitions />
      <BoundProperties>
        <BoundPropertyInt Name="rotateStepNinety" Value="0" />
      </BoundProperties>
    </ImageClip>
    <ImageClip extentID="4788" gapBefore="0" mediaItemID="4784" duration="0.20000000000000001">
      <Effects />
      <Transitions />
      <BoundProperties>
        <BoundPropertyInt Name="rotateStepNinety" Value="0" />
      </BoundProperties>
    </ImageClip>
    <ImageClip extentID="4789" gapBefore="0" mediaItemID="4785" duration="0.20000000000000001">
      <Effects />
      <Transitions />
      <BoundProperties>
        <BoundPropertyInt Name="rotateStepNinety" Value="0" />
      </BoundProperties>
    </ImageClip>
    <ImageClip extentID="4790" gapBefore="0" mediaItemID="4786" duration="0.20000000000000001">
      <Effects />
      <Transitions />
      <BoundProperties>
        <BoundPropertyInt Name="rotateStepNinety" Value="0" />
      </BoundProperties>
    </ImageClip>
    <ImageClip extentID="4791" gapBefore="0" mediaItemID="4787" duration="0.20000000000000001">
      <Effects />
      <Transitions />
      <BoundProperties>
        <BoundPropertyInt Name="rotateStepNinety" Value="0" />
      </BoundProperties>
    </ImageClip>
    <ImageClip extentID="4792" gapBefore="0" mediaItemID="4788" duration="0.20000000000000001">
      <Effects />
      <Transitions />
      <BoundProperties>
        <BoundPropertyInt Name="rotateStepNinety" Value="0" />
      </BoundProperties>
    </ImageClip>
    <ImageClip extentID="4793" gapBefore="0" mediaItemID="4789" duration="0.20000000000000001">
      <Effects />
      <Transitions />
      <BoundProperties>
        <BoundPropertyInt Name="rotateStepNinety" Value="0" />
      </BoundProperties>
    </ImageClip>
    <ImageClip extentID="4794" gapBefore="0" mediaItemID="4790" duration="0.20000000000000001">
      <Effects />
      <Transitions />
      <BoundProperties>
        <BoundPropertyInt Name="rotateStepNinety" Value="0" />
      </BoundProperties>
    </ImageClip>
    <ImageClip extentID="4795" gapBefore="0" mediaItemID="4791" duration="0.20000000000000001">
      <Effects />
      <Transitions />
      <BoundProperties>
        <BoundPropertyInt Name="rotateStepNinety" Value="0" />
      </BoundProperties>
    </ImageClip>
    <ImageClip extentID="4796" gapBefore="0" mediaItemID="4792" duration="0.20000000000000001">
      <Effects />
      <Transitions />
      <BoundProperties>
        <BoundPropertyInt Name="rotateStepNinety" Value="0" />
      </BoundProperties>
    </ImageClip>
    <ImageClip extentID="4797" gapBefore="0" mediaItemID="4793" duration="0.20000000000000001">
      <Effects />
      <Transitions />
      <BoundProperties>
        <BoundPropertyInt Name="rotateStepNinety" Value="0" />
      </BoundProperties>
    </ImageClip>
    <ImageClip extentID="4798" gapBefore="0" mediaItemID="4794" duration="0.20000000000000001">
      <Effects />
      <Transitions />
      <BoundProperties>
        <BoundPropertyInt Name="rotateStepNinety" Value="0" />
      </BoundProperties>
    </ImageClip>
    <ImageClip extentID="4799" gapBefore="0" mediaItemID="4795" duration="0.20000000000000001">
      <Effects />
      <Transitions />
      <BoundProperties>
        <BoundPropertyInt Name="rotateStepNinety" Value="0" />
      </BoundProperties>
    </ImageClip>
    <ImageClip extentID="4800" gapBefore="0" mediaItemID="4796" duration="0.20000000000000001">
      <Effects />
      <Transitions />
      <BoundProperties>
        <BoundPropertyInt Name="rotateStepNinety" Value="0" />
      </BoundProperties>
    </ImageClip>
    <ImageClip extentID="4801" gapBefore="0" mediaItemID="4797" duration="0.20000000000000001">
      <Effects />
      <Transitions />
      <BoundProperties>
        <BoundPropertyInt Name="rotateStepNinety" Value="0" />
      </BoundProperties>
    </ImageClip>
    <ImageClip extentID="4802" gapBefore="0" mediaItemID="4798" duration="0.20000000000000001">
      <Effects />
      <Transitions />
      <BoundProperties>
        <BoundPropertyInt Name="rotateStepNinety" Value="0" />
      </BoundProperties>
    </ImageClip>
    <ImageClip extentID="4803" gapBefore="0" mediaItemID="4799" duration="0.20000000000000001">
      <Effects />
      <Transitions />
      <BoundProperties>
        <BoundPropertyInt Name="rotateStepNinety" Value="0" />
      </BoundProperties>
    </ImageClip>
    <ImageClip extentID="4804" gapBefore="0" mediaItemID="4800" duration="0.20000000000000001">
      <Effects />
      <Transitions />
      <BoundProperties>
        <BoundPropertyInt Name="rotateStepNinety" Value="0" />
      </BoundProperties>
    </ImageClip>
    <ImageClip extentID="4805" gapBefore="0" mediaItemID="4801" duration="0.20000000000000001">
      <Effects />
      <Transitions />
      <BoundProperties>
        <BoundPropertyInt Name="rotateStepNinety" Value="0" />
      </BoundProperties>
    </ImageClip>
    <ImageClip extentID="4806" gapBefore="0" mediaItemID="4802" duration="0.20000000000000001">
      <Effects />
      <Transitions />
      <BoundProperties>
        <BoundPropertyInt Name="rotateStepNinety" Value="0" />
      </BoundProperties>
    </ImageClip>
    <ImageClip extentID="4807" gapBefore="0" mediaItemID="4803" duration="0.20000000000000001">
      <Effects />
      <Transitions />
      <BoundProperties>
        <BoundPropertyInt Name="rotateStepNinety" Value="0" />
      </BoundProperties>
    </ImageClip>
    <ImageClip extentID="4808" gapBefore="0" mediaItemID="4804" duration="0.20000000000000001">
      <Effects />
      <Transitions />
      <BoundProperties>
        <BoundPropertyInt Name="rotateStepNinety" Value="0" />
      </BoundProperties>
    </ImageClip>
    <ImageClip extentID="4809" gapBefore="0" mediaItemID="4805" duration="0.20000000000000001">
      <Effects />
      <Transitions />
      <BoundProperties>
        <BoundPropertyInt Name="rotateStepNinety" Value="0" />
      </BoundProperties>
    </ImageClip>
    <ImageClip extentID="4810" gapBefore="0" mediaItemID="4806" duration="0.20000000000000001">
      <Effects />
      <Transitions />
      <BoundProperties>
        <BoundPropertyInt Name="rotateStepNinety" Value="0" />
      </BoundProperties>
    </ImageClip>
    <ImageClip extentID="4811" gapBefore="0" mediaItemID="4807" duration="0.20000000000000001">
      <Effects />
      <Transitions />
      <BoundProperties>
        <BoundPropertyInt Name="rotateStepNinety" Value="0" />
      </BoundProperties>
    </ImageClip>
    <ImageClip extentID="4812" gapBefore="0" mediaItemID="4808" duration="0.20000000000000001">
      <Effects />
      <Transitions />
      <BoundProperties>
        <BoundPropertyInt Name="rotateStepNinety" Value="0" />
      </BoundProperties>
    </ImageClip>
    <ImageClip extentID="4813" gapBefore="0" mediaItemID="4809" duration="0.20000000000000001">
      <Effects />
      <Transitions />
      <BoundProperties>
        <BoundPropertyInt Name="rotateStepNinety" Value="0" />
      </BoundProperties>
    </ImageClip>
    <ImageClip extentID="4814" gapBefore="0" mediaItemID="4810" duration="0.20000000000000001">
      <Effects />
      <Transitions />
      <BoundProperties>
        <BoundPropertyInt Name="rotateStepNinety" Value="0" />
      </BoundProperties>
    </ImageClip>
    <ImageClip extentID="4815" gapBefore="0" mediaItemID="4811" duration="0.20000000000000001">
      <Effects />
      <Transitions />
      <BoundProperties>
        <BoundPropertyInt Name="rotateStepNinety" Value="0" />
      </BoundProperties>
    </ImageClip>
    <ImageClip extentID="4816" gapBefore="0" mediaItemID="4812" duration="0.20000000000000001">
      <Effects />
      <Transitions />
      <BoundProperties>
        <BoundPropertyInt Name="rotateStepNinety" Value="0" />
      </BoundProperties>
    </ImageClip>
    <ImageClip extentID="4817" gapBefore="0" mediaItemID="4813" duration="0.20000000000000001">
      <Effects />
      <Transitions />
      <BoundProperties>
        <BoundPropertyInt Name="rotateStepNinety" Value="0" />
      </BoundProperties>
    </ImageClip>
    <ImageClip extentID="4818" gapBefore="0" mediaItemID="4814" duration="0.20000000000000001">
      <Effects />
      <Transitions />
      <BoundProperties>
        <BoundPropertyInt Name="rotateStepNinety" Value="0" />
      </BoundProperties>
    </ImageClip>
    <ImageClip extentID="4819" gapBefore="0" mediaItemID="4815" duration="0.20000000000000001">
      <Effects />
      <Transitions />
      <BoundProperties>
        <BoundPropertyInt Name="rotateStepNinety" Value="0" />
      </BoundProperties>
    </ImageClip>
    <ImageClip extentID="4820" gapBefore="0" mediaItemID="4816" duration="0.20000000000000001">
      <Effects />
      <Transitions />
      <BoundProperties>
        <BoundPropertyInt Name="rotateStepNinety" Value="0" />
      </BoundProperties>
    </ImageClip>
    <ImageClip extentID="4821" gapBefore="0" mediaItemID="4817" duration="0.20000000000000001">
      <Effects />
      <Transitions />
      <BoundProperties>
        <BoundPropertyInt Name="rotateStepNinety" Value="0" />
      </BoundProperties>
    </ImageClip>
    <ImageClip extentID="4822" gapBefore="0" mediaItemID="4818" duration="0.20000000000000001">
      <Effects />
      <Transitions />
      <BoundProperties>
        <BoundPropertyInt Name="rotateStepNinety" Value="0" />
      </BoundProperties>
    </ImageClip>
    <ImageClip extentID="4823" gapBefore="0" mediaItemID="4819" duration="0.20000000000000001">
      <Effects />
      <Transitions />
      <BoundProperties>
        <BoundPropertyInt Name="rotateStepNinety" Value="0" />
      </BoundProperties>
    </ImageClip>
    <ImageClip extentID="4824" gapBefore="0" mediaItemID="4820" duration="0.20000000000000001">
      <Effects />
      <Transitions />
      <BoundProperties>
        <BoundPropertyInt Name="rotateStepNinety" Value="0" />
      </BoundProperties>
    </ImageClip>
    <ImageClip extentID="4825" gapBefore="0" mediaItemID="4821" duration="0.20000000000000001">
      <Effects />
      <Transitions />
      <BoundProperties>
        <BoundPropertyInt Name="rotateStepNinety" Value="0" />
      </BoundProperties>
    </ImageClip>
    <ImageClip extentID="4826" gapBefore="0" mediaItemID="4822" duration="0.20000000000000001">
      <Effects />
      <Transitions />
      <BoundProperties>
        <BoundPropertyInt Name="rotateStepNinety" Value="0" />
      </BoundProperties>
    </ImageClip>
    <ImageClip extentID="4827" gapBefore="0" mediaItemID="4823" duration="0.20000000000000001">
      <Effects />
      <Transitions />
      <BoundProperties>
        <BoundPropertyInt Name="rotateStepNinety" Value="0" />
      </BoundProperties>
    </ImageClip>
    <ImageClip extentID="4828" gapBefore="0" mediaItemID="4824" duration="0.20000000000000001">
      <Effects />
      <Transitions />
      <BoundProperties>
        <BoundPropertyInt Name="rotateStepNinety" Value="0" />
      </BoundProperties>
    </ImageClip>
    <ImageClip extentID="4829" gapBefore="0" mediaItemID="4825" duration="0.20000000000000001">
      <Effects />
      <Transitions />
      <BoundProperties>
        <BoundPropertyInt Name="rotateStepNinety" Value="0" />
      </BoundProperties>
    </ImageClip>
    <ImageClip extentID="4830" gapBefore="0" mediaItemID="4826" duration="0.20000000000000001">
      <Effects />
      <Transitions />
      <BoundProperties>
        <BoundPropertyInt Name="rotateStepNinety" Value="0" />
      </BoundProperties>
    </ImageClip>
    <ImageClip extentID="4831" gapBefore="0" mediaItemID="4827" duration="0.20000000000000001">
      <Effects />
      <Transitions />
      <BoundProperties>
        <BoundPropertyInt Name="rotateStepNinety" Value="0" />
      </BoundProperties>
    </ImageClip>
    <ImageClip extentID="4832" gapBefore="0" mediaItemID="4828" duration="0.20000000000000001">
      <Effects />
      <Transitions />
      <BoundProperties>
        <BoundPropertyInt Name="rotateStepNinety" Value="0" />
      </BoundProperties>
    </ImageClip>
    <ImageClip extentID="4833" gapBefore="0" mediaItemID="4829" duration="0.20000000000000001">
      <Effects />
      <Transitions />
      <BoundProperties>
        <BoundPropertyInt Name="rotateStepNinety" Value="0" />
      </BoundProperties>
    </ImageClip>
    <ImageClip extentID="4834" gapBefore="0" mediaItemID="4830" duration="0.20000000000000001">
      <Effects />
      <Transitions />
      <BoundProperties>
        <BoundPropertyInt Name="rotateStepNinety" Value="0" />
      </BoundProperties>
    </ImageClip>
    <ImageClip extentID="4835" gapBefore="0" mediaItemID="4831" duration="0.20000000000000001">
      <Effects />
      <Transitions />
      <BoundProperties>
        <BoundPropertyInt Name="rotateStepNinety" Value="0" />
      </BoundProperties>
    </ImageClip>
    <ImageClip extentID="4836" gapBefore="0" mediaItemID="4832" duration="0.20000000000000001">
      <Effects />
      <Transitions />
      <BoundProperties>
        <BoundPropertyInt Name="rotateStepNinety" Value="0" />
      </BoundProperties>
    </ImageClip>
    <ImageClip extentID="4837" gapBefore="0" mediaItemID="4833" duration="0.20000000000000001">
      <Effects />
      <Transitions />
      <BoundProperties>
        <BoundPropertyInt Name="rotateStepNinety" Value="0" />
      </BoundProperties>
    </ImageClip>
    <ImageClip extentID="4838" gapBefore="0" mediaItemID="4834" duration="0.20000000000000001">
      <Effects />
      <Transitions />
      <BoundProperties>
        <BoundPropertyInt Name="rotateStepNinety" Value="0" />
      </BoundProperties>
    </ImageClip>
    <ImageClip extentID="4839" gapBefore="0" mediaItemID="4835" duration="0.20000000000000001">
      <Effects />
      <Transitions />
      <BoundProperties>
        <BoundPropertyInt Name="rotateStepNinety" Value="0" />
      </BoundProperties>
    </ImageClip>
    <ImageClip extentID="4840" gapBefore="0" mediaItemID="4836" duration="0.20000000000000001">
      <Effects />
      <Transitions />
      <BoundProperties>
        <BoundPropertyInt Name="rotateStepNinety" Value="0" />
      </BoundProperties>
    </ImageClip>
    <ImageClip extentID="4841" gapBefore="0" mediaItemID="4837" duration="0.20000000000000001">
      <Effects />
      <Transitions />
      <BoundProperties>
        <BoundPropertyInt Name="rotateStepNinety" Value="0" />
      </BoundProperties>
    </ImageClip>
    <ImageClip extentID="4842" gapBefore="0" mediaItemID="4838" duration="0.20000000000000001">
      <Effects />
      <Transitions />
      <BoundProperties>
        <BoundPropertyInt Name="rotateStepNinety" Value="0" />
      </BoundProperties>
    </ImageClip>
    <ImageClip extentID="4843" gapBefore="0" mediaItemID="4839" duration="0.20000000000000001">
      <Effects />
      <Transitions />
      <BoundProperties>
        <BoundPropertyInt Name="rotateStepNinety" Value="0" />
      </BoundProperties>
    </ImageClip>
    <ImageClip extentID="4844" gapBefore="0" mediaItemID="4840" duration="0.20000000000000001">
      <Effects />
      <Transitions />
      <BoundProperties>
        <BoundPropertyInt Name="rotateStepNinety" Value="0" />
      </BoundProperties>
    </ImageClip>
    <ImageClip extentID="4845" gapBefore="0" mediaItemID="4841" duration="0.20000000000000001">
      <Effects />
      <Transitions />
      <BoundProperties>
        <BoundPropertyInt Name="rotateStepNinety" Value="0" />
      </BoundProperties>
    </ImageClip>
    <ImageClip extentID="4846" gapBefore="0" mediaItemID="4842" duration="0.20000000000000001">
      <Effects />
      <Transitions />
      <BoundProperties>
        <BoundPropertyInt Name="rotateStepNinety" Value="0" />
      </BoundProperties>
    </ImageClip>
    <ImageClip extentID="4847" gapBefore="0" mediaItemID="4843" duration="0.20000000000000001">
      <Effects />
      <Transitions />
      <BoundProperties>
        <BoundPropertyInt Name="rotateStepNinety" Value="0" />
      </BoundProperties>
    </ImageClip>
    <ImageClip extentID="4848" gapBefore="0" mediaItemID="4844" duration="0.20000000000000001">
      <Effects />
      <Transitions />
      <BoundProperties>
        <BoundPropertyInt Name="rotateStepNinety" Value="0" />
      </BoundProperties>
    </ImageClip>
    <ImageClip extentID="4849" gapBefore="0" mediaItemID="4845" duration="0.20000000000000001">
      <Effects />
      <Transitions />
      <BoundProperties>
        <BoundPropertyInt Name="rotateStepNinety" Value="0" />
      </BoundProperties>
    </ImageClip>
    <ImageClip extentID="4850" gapBefore="0" mediaItemID="4846" duration="0.20000000000000001">
      <Effects />
      <Transitions />
      <BoundProperties>
        <BoundPropertyInt Name="rotateStepNinety" Value="0" />
      </BoundProperties>
    </ImageClip>
    <ImageClip extentID="4851" gapBefore="0" mediaItemID="4847" duration="0.20000000000000001">
      <Effects />
      <Transitions />
      <BoundProperties>
        <BoundPropertyInt Name="rotateStepNinety" Value="0" />
      </BoundProperties>
    </ImageClip>
    <ImageClip extentID="4852" gapBefore="0" mediaItemID="4848" duration="0.20000000000000001">
      <Effects />
      <Transitions />
      <BoundProperties>
        <BoundPropertyInt Name="rotateStepNinety" Value="0" />
      </BoundProperties>
    </ImageClip>
    <ImageClip extentID="4853" gapBefore="0" mediaItemID="4849" duration="0.20000000000000001">
      <Effects />
      <Transitions />
      <BoundProperties>
        <BoundPropertyInt Name="rotateStepNinety" Value="0" />
      </BoundProperties>
    </ImageClip>
    <ImageClip extentID="4854" gapBefore="0" mediaItemID="4850" duration="0.20000000000000001">
      <Effects />
      <Transitions />
      <BoundProperties>
        <BoundPropertyInt Name="rotateStepNinety" Value="0" />
      </BoundProperties>
    </ImageClip>
    <ImageClip extentID="4855" gapBefore="0" mediaItemID="4851" duration="0.20000000000000001">
      <Effects />
      <Transitions />
      <BoundProperties>
        <BoundPropertyInt Name="rotateStepNinety" Value="0" />
      </BoundProperties>
    </ImageClip>
    <ImageClip extentID="4856" gapBefore="0" mediaItemID="4852" duration="0.20000000000000001">
      <Effects />
      <Transitions />
      <BoundProperties>
        <BoundPropertyInt Name="rotateStepNinety" Value="0" />
      </BoundProperties>
    </ImageClip>
    <ImageClip extentID="4857" gapBefore="0" mediaItemID="4853" duration="0.20000000000000001">
      <Effects />
      <Transitions />
      <BoundProperties>
        <BoundPropertyInt Name="rotateStepNinety" Value="0" />
      </BoundProperties>
    </ImageClip>
    <ImageClip extentID="4858" gapBefore="0" mediaItemID="4854" duration="0.20000000000000001">
      <Effects />
      <Transitions />
      <BoundProperties>
        <BoundPropertyInt Name="rotateStepNinety" Value="0" />
      </BoundProperties>
    </ImageClip>
    <ImageClip extentID="4859" gapBefore="0" mediaItemID="4855" duration="0.20000000000000001">
      <Effects />
      <Transitions />
      <BoundProperties>
        <BoundPropertyInt Name="rotateStepNinety" Value="0" />
      </BoundProperties>
    </ImageClip>
    <ImageClip extentID="4860" gapBefore="0" mediaItemID="4856" duration="0.20000000000000001">
      <Effects />
      <Transitions />
      <BoundProperties>
        <BoundPropertyInt Name="rotateStepNinety" Value="0" />
      </BoundProperties>
    </ImageClip>
    <ImageClip extentID="4861" gapBefore="0" mediaItemID="4857" duration="0.20000000000000001">
      <Effects />
      <Transitions />
      <BoundProperties>
        <BoundPropertyInt Name="rotateStepNinety" Value="0" />
      </BoundProperties>
    </ImageClip>
    <ImageClip extentID="4862" gapBefore="0" mediaItemID="4858" duration="0.20000000000000001">
      <Effects />
      <Transitions />
      <BoundProperties>
        <BoundPropertyInt Name="rotateStepNinety" Value="0" />
      </BoundProperties>
    </ImageClip>
    <ImageClip extentID="4863" gapBefore="0" mediaItemID="4859" duration="0.20000000000000001">
      <Effects />
      <Transitions />
      <BoundProperties>
        <BoundPropertyInt Name="rotateStepNinety" Value="0" />
      </BoundProperties>
    </ImageClip>
    <ImageClip extentID="4864" gapBefore="0" mediaItemID="4860" duration="0.20000000000000001">
      <Effects />
      <Transitions />
      <BoundProperties>
        <BoundPropertyInt Name="rotateStepNinety" Value="0" />
      </BoundProperties>
    </ImageClip>
    <ImageClip extentID="4865" gapBefore="0" mediaItemID="4861" duration="0.20000000000000001">
      <Effects />
      <Transitions />
      <BoundProperties>
        <BoundPropertyInt Name="rotateStepNinety" Value="0" />
      </BoundProperties>
    </ImageClip>
    <ImageClip extentID="4866" gapBefore="0" mediaItemID="4862" duration="0.20000000000000001">
      <Effects />
      <Transitions />
      <BoundProperties>
        <BoundPropertyInt Name="rotateStepNinety" Value="0" />
      </BoundProperties>
    </ImageClip>
    <ImageClip extentID="4867" gapBefore="0" mediaItemID="4863" duration="0.20000000000000001">
      <Effects />
      <Transitions />
      <BoundProperties>
        <BoundPropertyInt Name="rotateStepNinety" Value="0" />
      </BoundProperties>
    </ImageClip>
    <ImageClip extentID="4868" gapBefore="0" mediaItemID="4864" duration="0.20000000000000001">
      <Effects />
      <Transitions />
      <BoundProperties>
        <BoundPropertyInt Name="rotateStepNinety" Value="0" />
      </BoundProperties>
    </ImageClip>
    <ImageClip extentID="4869" gapBefore="0" mediaItemID="4865" duration="0.20000000000000001">
      <Effects />
      <Transitions />
      <BoundProperties>
        <BoundPropertyInt Name="rotateStepNinety" Value="0" />
      </BoundProperties>
    </ImageClip>
    <ImageClip extentID="4870" gapBefore="0" mediaItemID="4866" duration="0.20000000000000001">
      <Effects />
      <Transitions />
      <BoundProperties>
        <BoundPropertyInt Name="rotateStepNinety" Value="0" />
      </BoundProperties>
    </ImageClip>
    <ImageClip extentID="4871" gapBefore="0" mediaItemID="4867" duration="0.20000000000000001">
      <Effects />
      <Transitions />
      <BoundProperties>
        <BoundPropertyInt Name="rotateStepNinety" Value="0" />
      </BoundProperties>
    </ImageClip>
    <ImageClip extentID="4872" gapBefore="0" mediaItemID="4868" duration="0.20000000000000001">
      <Effects />
      <Transitions />
      <BoundProperties>
        <BoundPropertyInt Name="rotateStepNinety" Value="0" />
      </BoundProperties>
    </ImageClip>
    <ImageClip extentID="4873" gapBefore="0" mediaItemID="4869" duration="0.20000000000000001">
      <Effects />
      <Transitions />
      <BoundProperties>
        <BoundPropertyInt Name="rotateStepNinety" Value="0" />
      </BoundProperties>
    </ImageClip>
    <ImageClip extentID="4874" gapBefore="0" mediaItemID="4870" duration="0.20000000000000001">
      <Effects />
      <Transitions />
      <BoundProperties>
        <BoundPropertyInt Name="rotateStepNinety" Value="0" />
      </BoundProperties>
    </ImageClip>
    <ImageClip extentID="4875" gapBefore="0" mediaItemID="4871" duration="0.20000000000000001">
      <Effects />
      <Transitions />
      <BoundProperties>
        <BoundPropertyInt Name="rotateStepNinety" Value="0" />
      </BoundProperties>
    </ImageClip>
    <ImageClip extentID="4876" gapBefore="0" mediaItemID="4872" duration="0.20000000000000001">
      <Effects />
      <Transitions />
      <BoundProperties>
        <BoundPropertyInt Name="rotateStepNinety" Value="0" />
      </BoundProperties>
    </ImageClip>
    <ImageClip extentID="4877" gapBefore="0" mediaItemID="4873" duration="0.20000000000000001">
      <Effects />
      <Transitions />
      <BoundProperties>
        <BoundPropertyInt Name="rotateStepNinety" Value="0" />
      </BoundProperties>
    </ImageClip>
    <ImageClip extentID="4878" gapBefore="0" mediaItemID="4874" duration="0.20000000000000001">
      <Effects />
      <Transitions />
      <BoundProperties>
        <BoundPropertyInt Name="rotateStepNinety" Value="0" />
      </BoundProperties>
    </ImageClip>
    <ImageClip extentID="4879" gapBefore="0" mediaItemID="4875" duration="0.20000000000000001">
      <Effects />
      <Transitions />
      <BoundProperties>
        <BoundPropertyInt Name="rotateStepNinety" Value="0" />
      </BoundProperties>
    </ImageClip>
    <ImageClip extentID="4880" gapBefore="0" mediaItemID="4876" duration="0.20000000000000001">
      <Effects />
      <Transitions />
      <BoundProperties>
        <BoundPropertyInt Name="rotateStepNinety" Value="0" />
      </BoundProperties>
    </ImageClip>
    <ImageClip extentID="4881" gapBefore="0" mediaItemID="4877" duration="0.20000000000000001">
      <Effects />
      <Transitions />
      <BoundProperties>
        <BoundPropertyInt Name="rotateStepNinety" Value="0" />
      </BoundProperties>
    </ImageClip>
    <ImageClip extentID="4882" gapBefore="0" mediaItemID="4878" duration="0.20000000000000001">
      <Effects />
      <Transitions />
      <BoundProperties>
        <BoundPropertyInt Name="rotateStepNinety" Value="0" />
      </BoundProperties>
    </ImageClip>
    <ImageClip extentID="4883" gapBefore="0" mediaItemID="4879" duration="0.20000000000000001">
      <Effects />
      <Transitions />
      <BoundProperties>
        <BoundPropertyInt Name="rotateStepNinety" Value="0" />
      </BoundProperties>
    </ImageClip>
    <ImageClip extentID="4884" gapBefore="0" mediaItemID="4880" duration="0.20000000000000001">
      <Effects />
      <Transitions />
      <BoundProperties>
        <BoundPropertyInt Name="rotateStepNinety" Value="0" />
      </BoundProperties>
    </ImageClip>
    <ImageClip extentID="4885" gapBefore="0" mediaItemID="4881" duration="0.20000000000000001">
      <Effects />
      <Transitions />
      <BoundProperties>
        <BoundPropertyInt Name="rotateStepNinety" Value="0" />
      </BoundProperties>
    </ImageClip>
    <ImageClip extentID="4886" gapBefore="0" mediaItemID="4882" duration="0.20000000000000001">
      <Effects />
      <Transitions />
      <BoundProperties>
        <BoundPropertyInt Name="rotateStepNinety" Value="0" />
      </BoundProperties>
    </ImageClip>
    <ImageClip extentID="4887" gapBefore="0" mediaItemID="4883" duration="0.20000000000000001">
      <Effects />
      <Transitions />
      <BoundProperties>
        <BoundPropertyInt Name="rotateStepNinety" Value="0" />
      </BoundProperties>
    </ImageClip>
    <ImageClip extentID="4888" gapBefore="0" mediaItemID="4884" duration="0.20000000000000001">
      <Effects />
      <Transitions />
      <BoundProperties>
        <BoundPropertyInt Name="rotateStepNinety" Value="0" />
      </BoundProperties>
    </ImageClip>
    <ImageClip extentID="4889" gapBefore="0" mediaItemID="4885" duration="0.20000000000000001">
      <Effects />
      <Transitions />
      <BoundProperties>
        <BoundPropertyInt Name="rotateStepNinety" Value="0" />
      </BoundProperties>
    </ImageClip>
    <ImageClip extentID="4890" gapBefore="0" mediaItemID="4886" duration="0.20000000000000001">
      <Effects />
      <Transitions />
      <BoundProperties>
        <BoundPropertyInt Name="rotateStepNinety" Value="0" />
      </BoundProperties>
    </ImageClip>
    <ImageClip extentID="4891" gapBefore="0" mediaItemID="4887" duration="0.20000000000000001">
      <Effects />
      <Transitions />
      <BoundProperties>
        <BoundPropertyInt Name="rotateStepNinety" Value="0" />
      </BoundProperties>
    </ImageClip>
    <ImageClip extentID="4892" gapBefore="0" mediaItemID="4888" duration="0.20000000000000001">
      <Effects />
      <Transitions />
      <BoundProperties>
        <BoundPropertyInt Name="rotateStepNinety" Value="0" />
      </BoundProperties>
    </ImageClip>
    <ImageClip extentID="4893" gapBefore="0" mediaItemID="4889" duration="0.20000000000000001">
      <Effects />
      <Transitions />
      <BoundProperties>
        <BoundPropertyInt Name="rotateStepNinety" Value="0" />
      </BoundProperties>
    </ImageClip>
    <ImageClip extentID="4894" gapBefore="0" mediaItemID="4890" duration="0.20000000000000001">
      <Effects />
      <Transitions />
      <BoundProperties>
        <BoundPropertyInt Name="rotateStepNinety" Value="0" />
      </BoundProperties>
    </ImageClip>
    <ImageClip extentID="4895" gapBefore="0" mediaItemID="4891" duration="0.20000000000000001">
      <Effects />
      <Transitions />
      <BoundProperties>
        <BoundPropertyInt Name="rotateStepNinety" Value="0" />
      </BoundProperties>
    </ImageClip>
    <ImageClip extentID="4896" gapBefore="0" mediaItemID="4892" duration="0.20000000000000001">
      <Effects />
      <Transitions />
      <BoundProperties>
        <BoundPropertyInt Name="rotateStepNinety" Value="0" />
      </BoundProperties>
    </ImageClip>
    <ImageClip extentID="4897" gapBefore="0" mediaItemID="4893" duration="0.20000000000000001">
      <Effects />
      <Transitions />
      <BoundProperties>
        <BoundPropertyInt Name="rotateStepNinety" Value="0" />
      </BoundProperties>
    </ImageClip>
    <ImageClip extentID="4898" gapBefore="0" mediaItemID="4894" duration="0.20000000000000001">
      <Effects />
      <Transitions />
      <BoundProperties>
        <BoundPropertyInt Name="rotateStepNinety" Value="0" />
      </BoundProperties>
    </ImageClip>
    <ImageClip extentID="4899" gapBefore="0" mediaItemID="4895" duration="0.20000000000000001">
      <Effects />
      <Transitions />
      <BoundProperties>
        <BoundPropertyInt Name="rotateStepNinety" Value="0" />
      </BoundProperties>
    </ImageClip>
    <ImageClip extentID="4900" gapBefore="0" mediaItemID="4896" duration="0.20000000000000001">
      <Effects />
      <Transitions />
      <BoundProperties>
        <BoundPropertyInt Name="rotateStepNinety" Value="0" />
      </BoundProperties>
    </ImageClip>
    <ImageClip extentID="4901" gapBefore="0" mediaItemID="4897" duration="0.20000000000000001">
      <Effects />
      <Transitions />
      <BoundProperties>
        <BoundPropertyInt Name="rotateStepNinety" Value="0" />
      </BoundProperties>
    </ImageClip>
    <ImageClip extentID="4902" gapBefore="0" mediaItemID="4898" duration="0.20000000000000001">
      <Effects />
      <Transitions />
      <BoundProperties>
        <BoundPropertyInt Name="rotateStepNinety" Value="0" />
      </BoundProperties>
    </ImageClip>
    <ImageClip extentID="4903" gapBefore="0" mediaItemID="4899" duration="0.20000000000000001">
      <Effects />
      <Transitions />
      <BoundProperties>
        <BoundPropertyInt Name="rotateStepNinety" Value="0" />
      </BoundProperties>
    </ImageClip>
    <ImageClip extentID="4904" gapBefore="0" mediaItemID="4900" duration="0.20000000000000001">
      <Effects />
      <Transitions />
      <BoundProperties>
        <BoundPropertyInt Name="rotateStepNinety" Value="0" />
      </BoundProperties>
    </ImageClip>
    <ImageClip extentID="4905" gapBefore="0" mediaItemID="4901" duration="0.20000000000000001">
      <Effects />
      <Transitions />
      <BoundProperties>
        <BoundPropertyInt Name="rotateStepNinety" Value="0" />
      </BoundProperties>
    </ImageClip>
    <ImageClip extentID="4906" gapBefore="0" mediaItemID="4902" duration="0.20000000000000001">
      <Effects />
      <Transitions />
      <BoundProperties>
        <BoundPropertyInt Name="rotateStepNinety" Value="0" />
      </BoundProperties>
    </ImageClip>
    <ImageClip extentID="4907" gapBefore="0" mediaItemID="4903" duration="0.20000000000000001">
      <Effects />
      <Transitions />
      <BoundProperties>
        <BoundPropertyInt Name="rotateStepNinety" Value="0" />
      </BoundProperties>
    </ImageClip>
    <ImageClip extentID="4908" gapBefore="0" mediaItemID="4904" duration="0.20000000000000001">
      <Effects />
      <Transitions />
      <BoundProperties>
        <BoundPropertyInt Name="rotateStepNinety" Value="0" />
      </BoundProperties>
    </ImageClip>
    <ImageClip extentID="4909" gapBefore="0" mediaItemID="4905" duration="0.20000000000000001">
      <Effects />
      <Transitions />
      <BoundProperties>
        <BoundPropertyInt Name="rotateStepNinety" Value="0" />
      </BoundProperties>
    </ImageClip>
    <ImageClip extentID="4910" gapBefore="0" mediaItemID="4906" duration="0.20000000000000001">
      <Effects />
      <Transitions />
      <BoundProperties>
        <BoundPropertyInt Name="rotateStepNinety" Value="0" />
      </BoundProperties>
    </ImageClip>
    <ImageClip extentID="4911" gapBefore="0" mediaItemID="4907" duration="0.20000000000000001">
      <Effects />
      <Transitions />
      <BoundProperties>
        <BoundPropertyInt Name="rotateStepNinety" Value="0" />
      </BoundProperties>
    </ImageClip>
    <ImageClip extentID="4912" gapBefore="0" mediaItemID="4908" duration="0.20000000000000001">
      <Effects />
      <Transitions />
      <BoundProperties>
        <BoundPropertyInt Name="rotateStepNinety" Value="0" />
      </BoundProperties>
    </ImageClip>
    <ImageClip extentID="4913" gapBefore="0" mediaItemID="4909" duration="0.20000000000000001">
      <Effects />
      <Transitions />
      <BoundProperties>
        <BoundPropertyInt Name="rotateStepNinety" Value="0" />
      </BoundProperties>
    </ImageClip>
    <ImageClip extentID="4914" gapBefore="0" mediaItemID="4910" duration="0.20000000000000001">
      <Effects />
      <Transitions />
      <BoundProperties>
        <BoundPropertyInt Name="rotateStepNinety" Value="0" />
      </BoundProperties>
    </ImageClip>
    <ImageClip extentID="4915" gapBefore="0" mediaItemID="4911" duration="0.20000000000000001">
      <Effects />
      <Transitions />
      <BoundProperties>
        <BoundPropertyInt Name="rotateStepNinety" Value="0" />
      </BoundProperties>
    </ImageClip>
    <ImageClip extentID="4916" gapBefore="0" mediaItemID="4912" duration="0.20000000000000001">
      <Effects />
      <Transitions />
      <BoundProperties>
        <BoundPropertyInt Name="rotateStepNinety" Value="0" />
      </BoundProperties>
    </ImageClip>
    <ImageClip extentID="4917" gapBefore="0" mediaItemID="4913" duration="0.20000000000000001">
      <Effects />
      <Transitions />
      <BoundProperties>
        <BoundPropertyInt Name="rotateStepNinety" Value="0" />
      </BoundProperties>
    </ImageClip>
    <ImageClip extentID="4918" gapBefore="0" mediaItemID="4914" duration="0.20000000000000001">
      <Effects />
      <Transitions />
      <BoundProperties>
        <BoundPropertyInt Name="rotateStepNinety" Value="0" />
      </BoundProperties>
    </ImageClip>
    <ImageClip extentID="4919" gapBefore="0" mediaItemID="4915" duration="0.20000000000000001">
      <Effects />
      <Transitions />
      <BoundProperties>
        <BoundPropertyInt Name="rotateStepNinety" Value="0" />
      </BoundProperties>
    </ImageClip>
    <ImageClip extentID="4920" gapBefore="0" mediaItemID="4916" duration="0.20000000000000001">
      <Effects />
      <Transitions />
      <BoundProperties>
        <BoundPropertyInt Name="rotateStepNinety" Value="0" />
      </BoundProperties>
    </ImageClip>
    <ImageClip extentID="4921" gapBefore="0" mediaItemID="4917" duration="0.20000000000000001">
      <Effects />
      <Transitions />
      <BoundProperties>
        <BoundPropertyInt Name="rotateStepNinety" Value="0" />
      </BoundProperties>
    </ImageClip>
    <ImageClip extentID="4922" gapBefore="0" mediaItemID="4918" duration="0.20000000000000001">
      <Effects />
      <Transitions />
      <BoundProperties>
        <BoundPropertyInt Name="rotateStepNinety" Value="0" />
      </BoundProperties>
    </ImageClip>
    <ImageClip extentID="4923" gapBefore="0" mediaItemID="4919" duration="0.20000000000000001">
      <Effects />
      <Transitions />
      <BoundProperties>
        <BoundPropertyInt Name="rotateStepNinety" Value="0" />
      </BoundProperties>
    </ImageClip>
    <ImageClip extentID="4924" gapBefore="0" mediaItemID="4920" duration="0.20000000000000001">
      <Effects />
      <Transitions />
      <BoundProperties>
        <BoundPropertyInt Name="rotateStepNinety" Value="0" />
      </BoundProperties>
    </ImageClip>
    <ImageClip extentID="4925" gapBefore="0" mediaItemID="4921" duration="0.20000000000000001">
      <Effects />
      <Transitions />
      <BoundProperties>
        <BoundPropertyInt Name="rotateStepNinety" Value="0" />
      </BoundProperties>
    </ImageClip>
    <ImageClip extentID="4926" gapBefore="0" mediaItemID="4922" duration="0.20000000000000001">
      <Effects />
      <Transitions />
      <BoundProperties>
        <BoundPropertyInt Name="rotateStepNinety" Value="0" />
      </BoundProperties>
    </ImageClip>
    <ImageClip extentID="4927" gapBefore="0" mediaItemID="4923" duration="0.20000000000000001">
      <Effects />
      <Transitions />
      <BoundProperties>
        <BoundPropertyInt Name="rotateStepNinety" Value="0" />
      </BoundProperties>
    </ImageClip>
    <ImageClip extentID="4928" gapBefore="0" mediaItemID="4924" duration="0.20000000000000001">
      <Effects />
      <Transitions />
      <BoundProperties>
        <BoundPropertyInt Name="rotateStepNinety" Value="0" />
      </BoundProperties>
    </ImageClip>
    <ImageClip extentID="4929" gapBefore="0" mediaItemID="4925" duration="0.20000000000000001">
      <Effects />
      <Transitions />
      <BoundProperties>
        <BoundPropertyInt Name="rotateStepNinety" Value="0" />
      </BoundProperties>
    </ImageClip>
    <ImageClip extentID="4930" gapBefore="0" mediaItemID="4926" duration="0.20000000000000001">
      <Effects />
      <Transitions />
      <BoundProperties>
        <BoundPropertyInt Name="rotateStepNinety" Value="0" />
      </BoundProperties>
    </ImageClip>
    <ImageClip extentID="4931" gapBefore="0" mediaItemID="4927" duration="0.20000000000000001">
      <Effects />
      <Transitions />
      <BoundProperties>
        <BoundPropertyInt Name="rotateStepNinety" Value="0" />
      </BoundProperties>
    </ImageClip>
    <ImageClip extentID="4932" gapBefore="0" mediaItemID="4928" duration="0.20000000000000001">
      <Effects />
      <Transitions />
      <BoundProperties>
        <BoundPropertyInt Name="rotateStepNinety" Value="0" />
      </BoundProperties>
    </ImageClip>
    <ImageClip extentID="4933" gapBefore="0" mediaItemID="4929" duration="0.20000000000000001">
      <Effects />
      <Transitions />
      <BoundProperties>
        <BoundPropertyInt Name="rotateStepNinety" Value="0" />
      </BoundProperties>
    </ImageClip>
    <ImageClip extentID="4934" gapBefore="0" mediaItemID="4930" duration="0.20000000000000001">
      <Effects />
      <Transitions />
      <BoundProperties>
        <BoundPropertyInt Name="rotateStepNinety" Value="0" />
      </BoundProperties>
    </ImageClip>
    <ImageClip extentID="4935" gapBefore="0" mediaItemID="4931" duration="0.20000000000000001">
      <Effects />
      <Transitions />
      <BoundProperties>
        <BoundPropertyInt Name="rotateStepNinety" Value="0" />
      </BoundProperties>
    </ImageClip>
    <ImageClip extentID="4936" gapBefore="0" mediaItemID="4932" duration="0.20000000000000001">
      <Effects />
      <Transitions />
      <BoundProperties>
        <BoundPropertyInt Name="rotateStepNinety" Value="0" />
      </BoundProperties>
    </ImageClip>
    <ImageClip extentID="4937" gapBefore="0" mediaItemID="4933" duration="0.20000000000000001">
      <Effects />
      <Transitions />
      <BoundProperties>
        <BoundPropertyInt Name="rotateStepNinety" Value="0" />
      </BoundProperties>
    </ImageClip>
    <ImageClip extentID="4938" gapBefore="0" mediaItemID="4934" duration="0.20000000000000001">
      <Effects />
      <Transitions />
      <BoundProperties>
        <BoundPropertyInt Name="rotateStepNinety" Value="0" />
      </BoundProperties>
    </ImageClip>
    <ImageClip extentID="4939" gapBefore="0" mediaItemID="4935" duration="0.20000000000000001">
      <Effects />
      <Transitions />
      <BoundProperties>
        <BoundPropertyInt Name="rotateStepNinety" Value="0" />
      </BoundProperties>
    </ImageClip>
    <ImageClip extentID="4940" gapBefore="0" mediaItemID="4936" duration="0.20000000000000001">
      <Effects />
      <Transitions />
      <BoundProperties>
        <BoundPropertyInt Name="rotateStepNinety" Value="0" />
      </BoundProperties>
    </ImageClip>
    <ImageClip extentID="4941" gapBefore="0" mediaItemID="4937" duration="0.20000000000000001">
      <Effects />
      <Transitions />
      <BoundProperties>
        <BoundPropertyInt Name="rotateStepNinety" Value="0" />
      </BoundProperties>
    </ImageClip>
    <ImageClip extentID="4942" gapBefore="0" mediaItemID="4938" duration="0.20000000000000001">
      <Effects />
      <Transitions />
      <BoundProperties>
        <BoundPropertyInt Name="rotateStepNinety" Value="0" />
      </BoundProperties>
    </ImageClip>
    <ImageClip extentID="4943" gapBefore="0" mediaItemID="4939" duration="0.20000000000000001">
      <Effects />
      <Transitions />
      <BoundProperties>
        <BoundPropertyInt Name="rotateStepNinety" Value="0" />
      </BoundProperties>
    </ImageClip>
    <ImageClip extentID="4944" gapBefore="0" mediaItemID="4940" duration="0.20000000000000001">
      <Effects />
      <Transitions />
      <BoundProperties>
        <BoundPropertyInt Name="rotateStepNinety" Value="0" />
      </BoundProperties>
    </ImageClip>
    <ImageClip extentID="4945" gapBefore="0" mediaItemID="4941" duration="0.20000000000000001">
      <Effects />
      <Transitions />
      <BoundProperties>
        <BoundPropertyInt Name="rotateStepNinety" Value="0" />
      </BoundProperties>
    </ImageClip>
    <ImageClip extentID="4946" gapBefore="0" mediaItemID="4942" duration="0.20000000000000001">
      <Effects />
      <Transitions />
      <BoundProperties>
        <BoundPropertyInt Name="rotateStepNinety" Value="0" />
      </BoundProperties>
    </ImageClip>
    <ImageClip extentID="4947" gapBefore="0" mediaItemID="4943" duration="0.20000000000000001">
      <Effects />
      <Transitions />
      <BoundProperties>
        <BoundPropertyInt Name="rotateStepNinety" Value="0" />
      </BoundProperties>
    </ImageClip>
    <ImageClip extentID="4948" gapBefore="0" mediaItemID="4944" duration="0.20000000000000001">
      <Effects />
      <Transitions />
      <BoundProperties>
        <BoundPropertyInt Name="rotateStepNinety" Value="0" />
      </BoundProperties>
    </ImageClip>
    <ImageClip extentID="4949" gapBefore="0" mediaItemID="4945" duration="0.20000000000000001">
      <Effects />
      <Transitions />
      <BoundProperties>
        <BoundPropertyInt Name="rotateStepNinety" Value="0" />
      </BoundProperties>
    </ImageClip>
    <ImageClip extentID="4950" gapBefore="0" mediaItemID="4946" duration="0.20000000000000001">
      <Effects />
      <Transitions />
      <BoundProperties>
        <BoundPropertyInt Name="rotateStepNinety" Value="0" />
      </BoundProperties>
    </ImageClip>
    <ImageClip extentID="4951" gapBefore="0" mediaItemID="4947" duration="0.20000000000000001">
      <Effects />
      <Transitions />
      <BoundProperties>
        <BoundPropertyInt Name="rotateStepNinety" Value="0" />
      </BoundProperties>
    </ImageClip>
    <ImageClip extentID="4952" gapBefore="0" mediaItemID="4948" duration="0.20000000000000001">
      <Effects />
      <Transitions />
      <BoundProperties>
        <BoundPropertyInt Name="rotateStepNinety" Value="0" />
      </BoundProperties>
    </ImageClip>
    <ImageClip extentID="4953" gapBefore="0" mediaItemID="4949" duration="0.20000000000000001">
      <Effects />
      <Transitions />
      <BoundProperties>
        <BoundPropertyInt Name="rotateStepNinety" Value="0" />
      </BoundProperties>
    </ImageClip>
    <ImageClip extentID="4954" gapBefore="0" mediaItemID="4950" duration="0.20000000000000001">
      <Effects />
      <Transitions />
      <BoundProperties>
        <BoundPropertyInt Name="rotateStepNinety" Value="0" />
      </BoundProperties>
    </ImageClip>
    <ImageClip extentID="4955" gapBefore="0" mediaItemID="4951" duration="0.20000000000000001">
      <Effects />
      <Transitions />
      <BoundProperties>
        <BoundPropertyInt Name="rotateStepNinety" Value="0" />
      </BoundProperties>
    </ImageClip>
    <ImageClip extentID="4956" gapBefore="0" mediaItemID="4952" duration="0.20000000000000001">
      <Effects />
      <Transitions />
      <BoundProperties>
        <BoundPropertyInt Name="rotateStepNinety" Value="0" />
      </BoundProperties>
    </ImageClip>
    <ImageClip extentID="4957" gapBefore="0" mediaItemID="4953" duration="0.20000000000000001">
      <Effects />
      <Transitions />
      <BoundProperties>
        <BoundPropertyInt Name="rotateStepNinety" Value="0" />
      </BoundProperties>
    </ImageClip>
    <ImageClip extentID="4958" gapBefore="0" mediaItemID="4954" duration="0.20000000000000001">
      <Effects />
      <Transitions />
      <BoundProperties>
        <BoundPropertyInt Name="rotateStepNinety" Value="0" />
      </BoundProperties>
    </ImageClip>
    <ImageClip extentID="4959" gapBefore="0" mediaItemID="4955" duration="0.20000000000000001">
      <Effects />
      <Transitions />
      <BoundProperties>
        <BoundPropertyInt Name="rotateStepNinety" Value="0" />
      </BoundProperties>
    </ImageClip>
    <ImageClip extentID="4960" gapBefore="0" mediaItemID="4956" duration="0.20000000000000001">
      <Effects />
      <Transitions />
      <BoundProperties>
        <BoundPropertyInt Name="rotateStepNinety" Value="0" />
      </BoundProperties>
    </ImageClip>
    <ImageClip extentID="4961" gapBefore="0" mediaItemID="4957" duration="0.20000000000000001">
      <Effects />
      <Transitions />
      <BoundProperties>
        <BoundPropertyInt Name="rotateStepNinety" Value="0" />
      </BoundProperties>
    </ImageClip>
    <ImageClip extentID="4962" gapBefore="0" mediaItemID="4958" duration="0.20000000000000001">
      <Effects />
      <Transitions />
      <BoundProperties>
        <BoundPropertyInt Name="rotateStepNinety" Value="0" />
      </BoundProperties>
    </ImageClip>
    <ImageClip extentID="4963" gapBefore="0" mediaItemID="4959" duration="0.20000000000000001">
      <Effects />
      <Transitions />
      <BoundProperties>
        <BoundPropertyInt Name="rotateStepNinety" Value="0" />
      </BoundProperties>
    </ImageClip>
    <ImageClip extentID="4964" gapBefore="0" mediaItemID="4960" duration="0.20000000000000001">
      <Effects />
      <Transitions />
      <BoundProperties>
        <BoundPropertyInt Name="rotateStepNinety" Value="0" />
      </BoundProperties>
    </ImageClip>
    <ImageClip extentID="4965" gapBefore="0" mediaItemID="4961" duration="0.20000000000000001">
      <Effects />
      <Transitions />
      <BoundProperties>
        <BoundPropertyInt Name="rotateStepNinety" Value="0" />
      </BoundProperties>
    </ImageClip>
    <ImageClip extentID="4966" gapBefore="0" mediaItemID="4962" duration="0.20000000000000001">
      <Effects />
      <Transitions />
      <BoundProperties>
        <BoundPropertyInt Name="rotateStepNinety" Value="0" />
      </BoundProperties>
    </ImageClip>
    <ImageClip extentID="4967" gapBefore="0" mediaItemID="4963" duration="0.20000000000000001">
      <Effects />
      <Transitions />
      <BoundProperties>
        <BoundPropertyInt Name="rotateStepNinety" Value="0" />
      </BoundProperties>
    </ImageClip>
    <ImageClip extentID="4968" gapBefore="0" mediaItemID="4964" duration="0.20000000000000001">
      <Effects />
      <Transitions />
      <BoundProperties>
        <BoundPropertyInt Name="rotateStepNinety" Value="0" />
      </BoundProperties>
    </ImageClip>
    <ImageClip extentID="4969" gapBefore="0" mediaItemID="4965" duration="0.20000000000000001">
      <Effects />
      <Transitions />
      <BoundProperties>
        <BoundPropertyInt Name="rotateStepNinety" Value="0" />
      </BoundProperties>
    </ImageClip>
    <ImageClip extentID="4970" gapBefore="0" mediaItemID="4966" duration="0.20000000000000001">
      <Effects />
      <Transitions />
      <BoundProperties>
        <BoundPropertyInt Name="rotateStepNinety" Value="0" />
      </BoundProperties>
    </ImageClip>
    <ImageClip extentID="4971" gapBefore="0" mediaItemID="4967" duration="0.20000000000000001">
      <Effects />
      <Transitions />
      <BoundProperties>
        <BoundPropertyInt Name="rotateStepNinety" Value="0" />
      </BoundProperties>
    </ImageClip>
    <ImageClip extentID="4972" gapBefore="0" mediaItemID="4968" duration="0.20000000000000001">
      <Effects />
      <Transitions />
      <BoundProperties>
        <BoundPropertyInt Name="rotateStepNinety" Value="0" />
      </BoundProperties>
    </ImageClip>
    <ImageClip extentID="4973" gapBefore="0" mediaItemID="4969" duration="0.20000000000000001">
      <Effects />
      <Transitions />
      <BoundProperties>
        <BoundPropertyInt Name="rotateStepNinety" Value="0" />
      </BoundProperties>
    </ImageClip>
    <ImageClip extentID="4974" gapBefore="0" mediaItemID="4970" duration="0.20000000000000001">
      <Effects />
      <Transitions />
      <BoundProperties>
        <BoundPropertyInt Name="rotateStepNinety" Value="0" />
      </BoundProperties>
    </ImageClip>
    <ImageClip extentID="4975" gapBefore="0" mediaItemID="4971" duration="0.20000000000000001">
      <Effects />
      <Transitions />
      <BoundProperties>
        <BoundPropertyInt Name="rotateStepNinety" Value="0" />
      </BoundProperties>
    </ImageClip>
    <ImageClip extentID="4976" gapBefore="0" mediaItemID="4972" duration="0.20000000000000001">
      <Effects />
      <Transitions />
      <BoundProperties>
        <BoundPropertyInt Name="rotateStepNinety" Value="0" />
      </BoundProperties>
    </ImageClip>
    <ImageClip extentID="4977" gapBefore="0" mediaItemID="4973" duration="0.20000000000000001">
      <Effects />
      <Transitions />
      <BoundProperties>
        <BoundPropertyInt Name="rotateStepNinety" Value="0" />
      </BoundProperties>
    </ImageClip>
    <ImageClip extentID="4978" gapBefore="0" mediaItemID="4974" duration="0.20000000000000001">
      <Effects />
      <Transitions />
      <BoundProperties>
        <BoundPropertyInt Name="rotateStepNinety" Value="0" />
      </BoundProperties>
    </ImageClip>
    <ImageClip extentID="4979" gapBefore="0" mediaItemID="4975" duration="0.20000000000000001">
      <Effects />
      <Transitions />
      <BoundProperties>
        <BoundPropertyInt Name="rotateStepNinety" Value="0" />
      </BoundProperties>
    </ImageClip>
    <ImageClip extentID="4980" gapBefore="0" mediaItemID="4976" duration="0.20000000000000001">
      <Effects />
      <Transitions />
      <BoundProperties>
        <BoundPropertyInt Name="rotateStepNinety" Value="0" />
      </BoundProperties>
    </ImageClip>
    <ImageClip extentID="4981" gapBefore="0" mediaItemID="4977" duration="0.20000000000000001">
      <Effects />
      <Transitions />
      <BoundProperties>
        <BoundPropertyInt Name="rotateStepNinety" Value="0" />
      </BoundProperties>
    </ImageClip>
    <ImageClip extentID="4982" gapBefore="0" mediaItemID="4978" duration="0.20000000000000001">
      <Effects />
      <Transitions />
      <BoundProperties>
        <BoundPropertyInt Name="rotateStepNinety" Value="0" />
      </BoundProperties>
    </ImageClip>
    <ImageClip extentID="4983" gapBefore="0" mediaItemID="4979" duration="0.20000000000000001">
      <Effects />
      <Transitions />
      <BoundProperties>
        <BoundPropertyInt Name="rotateStepNinety" Value="0" />
      </BoundProperties>
    </ImageClip>
    <ImageClip extentID="4984" gapBefore="0" mediaItemID="4980" duration="0.20000000000000001">
      <Effects />
      <Transitions />
      <BoundProperties>
        <BoundPropertyInt Name="rotateStepNinety" Value="0" />
      </BoundProperties>
    </ImageClip>
    <ImageClip extentID="4985" gapBefore="0" mediaItemID="4981" duration="0.20000000000000001">
      <Effects />
      <Transitions />
      <BoundProperties>
        <BoundPropertyInt Name="rotateStepNinety" Value="0" />
      </BoundProperties>
    </ImageClip>
    <ImageClip extentID="4986" gapBefore="0" mediaItemID="4982" duration="0.20000000000000001">
      <Effects />
      <Transitions />
      <BoundProperties>
        <BoundPropertyInt Name="rotateStepNinety" Value="0" />
      </BoundProperties>
    </ImageClip>
    <ImageClip extentID="4987" gapBefore="0" mediaItemID="4983" duration="0.20000000000000001">
      <Effects />
      <Transitions />
      <BoundProperties>
        <BoundPropertyInt Name="rotateStepNinety" Value="0" />
      </BoundProperties>
    </ImageClip>
    <ImageClip extentID="4988" gapBefore="0" mediaItemID="4984" duration="0.20000000000000001">
      <Effects />
      <Transitions />
      <BoundProperties>
        <BoundPropertyInt Name="rotateStepNinety" Value="0" />
      </BoundProperties>
    </ImageClip>
    <ImageClip extentID="4989" gapBefore="0" mediaItemID="4985" duration="0.20000000000000001">
      <Effects />
      <Transitions />
      <BoundProperties>
        <BoundPropertyInt Name="rotateStepNinety" Value="0" />
      </BoundProperties>
    </ImageClip>
    <ImageClip extentID="4990" gapBefore="0" mediaItemID="4986" duration="0.20000000000000001">
      <Effects />
      <Transitions />
      <BoundProperties>
        <BoundPropertyInt Name="rotateStepNinety" Value="0" />
      </BoundProperties>
    </ImageClip>
    <ImageClip extentID="4991" gapBefore="0" mediaItemID="4987" duration="0.20000000000000001">
      <Effects />
      <Transitions />
      <BoundProperties>
        <BoundPropertyInt Name="rotateStepNinety" Value="0" />
      </BoundProperties>
    </ImageClip>
    <ImageClip extentID="4992" gapBefore="0" mediaItemID="4988" duration="0.20000000000000001">
      <Effects />
      <Transitions />
      <BoundProperties>
        <BoundPropertyInt Name="rotateStepNinety" Value="0" />
      </BoundProperties>
    </ImageClip>
    <ImageClip extentID="4993" gapBefore="0" mediaItemID="4989" duration="0.20000000000000001">
      <Effects />
      <Transitions />
      <BoundProperties>
        <BoundPropertyInt Name="rotateStepNinety" Value="0" />
      </BoundProperties>
    </ImageClip>
    <ImageClip extentID="4994" gapBefore="0" mediaItemID="4990" duration="0.20000000000000001">
      <Effects />
      <Transitions />
      <BoundProperties>
        <BoundPropertyInt Name="rotateStepNinety" Value="0" />
      </BoundProperties>
    </ImageClip>
    <ImageClip extentID="4995" gapBefore="0" mediaItemID="4991" duration="0.20000000000000001">
      <Effects />
      <Transitions />
      <BoundProperties>
        <BoundPropertyInt Name="rotateStepNinety" Value="0" />
      </BoundProperties>
    </ImageClip>
    <ImageClip extentID="4996" gapBefore="0" mediaItemID="4992" duration="0.20000000000000001">
      <Effects />
      <Transitions />
      <BoundProperties>
        <BoundPropertyInt Name="rotateStepNinety" Value="0" />
      </BoundProperties>
    </ImageClip>
    <ImageClip extentID="4997" gapBefore="0" mediaItemID="4993" duration="0.20000000000000001">
      <Effects />
      <Transitions />
      <BoundProperties>
        <BoundPropertyInt Name="rotateStepNinety" Value="0" />
      </BoundProperties>
    </ImageClip>
    <ImageClip extentID="4998" gapBefore="0" mediaItemID="4994" duration="0.20000000000000001">
      <Effects />
      <Transitions />
      <BoundProperties>
        <BoundPropertyInt Name="rotateStepNinety" Value="0" />
      </BoundProperties>
    </ImageClip>
    <ImageClip extentID="4999" gapBefore="0" mediaItemID="4995" duration="0.20000000000000001">
      <Effects />
      <Transitions />
      <BoundProperties>
        <BoundPropertyInt Name="rotateStepNinety" Value="0" />
      </BoundProperties>
    </ImageClip>
    <ImageClip extentID="5000" gapBefore="0" mediaItemID="4996" duration="0.20000000000000001">
      <Effects />
      <Transitions />
      <BoundProperties>
        <BoundPropertyInt Name="rotateStepNinety" Value="0" />
      </BoundProperties>
    </ImageClip>
    <ImageClip extentID="5001" gapBefore="0" mediaItemID="4997" duration="0.20000000000000001">
      <Effects />
      <Transitions />
      <BoundProperties>
        <BoundPropertyInt Name="rotateStepNinety" Value="0" />
      </BoundProperties>
    </ImageClip>
    <ImageClip extentID="5002" gapBefore="0" mediaItemID="4998" duration="0.20000000000000001">
      <Effects />
      <Transitions />
      <BoundProperties>
        <BoundPropertyInt Name="rotateStepNinety" Value="0" />
      </BoundProperties>
    </ImageClip>
    <ImageClip extentID="5003" gapBefore="0" mediaItemID="4999" duration="0.20000000000000001">
      <Effects />
      <Transitions />
      <BoundProperties>
        <BoundPropertyInt Name="rotateStepNinety" Value="0" />
      </BoundProperties>
    </ImageClip>
    <ImageClip extentID="5004" gapBefore="0" mediaItemID="5000" duration="0.20000000000000001">
      <Effects />
      <Transitions />
      <BoundProperties>
        <BoundPropertyInt Name="rotateStepNinety" Value="0" />
      </BoundProperties>
    </ImageClip>
    <ImageClip extentID="5005" gapBefore="0" mediaItemID="5001" duration="0.20000000000000001">
      <Effects />
      <Transitions />
      <BoundProperties>
        <BoundPropertyInt Name="rotateStepNinety" Value="0" />
      </BoundProperties>
    </ImageClip>
    <ImageClip extentID="5006" gapBefore="0" mediaItemID="5002" duration="0.20000000000000001">
      <Effects />
      <Transitions />
      <BoundProperties>
        <BoundPropertyInt Name="rotateStepNinety" Value="0" />
      </BoundProperties>
    </ImageClip>
    <ImageClip extentID="5007" gapBefore="0" mediaItemID="5003" duration="0.20000000000000001">
      <Effects />
      <Transitions />
      <BoundProperties>
        <BoundPropertyInt Name="rotateStepNinety" Value="0" />
      </BoundProperties>
    </ImageClip>
    <ImageClip extentID="5008" gapBefore="0" mediaItemID="5004" duration="0.20000000000000001">
      <Effects />
      <Transitions />
      <BoundProperties>
        <BoundPropertyInt Name="rotateStepNinety" Value="0" />
      </BoundProperties>
    </ImageClip>
    <ImageClip extentID="5009" gapBefore="0" mediaItemID="5005" duration="0.20000000000000001">
      <Effects />
      <Transitions />
      <BoundProperties>
        <BoundPropertyInt Name="rotateStepNinety" Value="0" />
      </BoundProperties>
    </ImageClip>
    <ImageClip extentID="5010" gapBefore="0" mediaItemID="5006" duration="0.20000000000000001">
      <Effects />
      <Transitions />
      <BoundProperties>
        <BoundPropertyInt Name="rotateStepNinety" Value="0" />
      </BoundProperties>
    </ImageClip>
    <ImageClip extentID="5011" gapBefore="0" mediaItemID="5007" duration="0.20000000000000001">
      <Effects />
      <Transitions />
      <BoundProperties>
        <BoundPropertyInt Name="rotateStepNinety" Value="0" />
      </BoundProperties>
    </ImageClip>
    <ImageClip extentID="5012" gapBefore="0" mediaItemID="5008" duration="0.20000000000000001">
      <Effects />
      <Transitions />
      <BoundProperties>
        <BoundPropertyInt Name="rotateStepNinety" Value="0" />
      </BoundProperties>
    </ImageClip>
    <ImageClip extentID="5013" gapBefore="0" mediaItemID="5009" duration="0.20000000000000001">
      <Effects />
      <Transitions />
      <BoundProperties>
        <BoundPropertyInt Name="rotateStepNinety" Value="0" />
      </BoundProperties>
    </ImageClip>
    <ImageClip extentID="5014" gapBefore="0" mediaItemID="5010" duration="0.20000000000000001">
      <Effects />
      <Transitions />
      <BoundProperties>
        <BoundPropertyInt Name="rotateStepNinety" Value="0" />
      </BoundProperties>
    </ImageClip>
    <ImageClip extentID="5015" gapBefore="0" mediaItemID="5011" duration="0.20000000000000001">
      <Effects />
      <Transitions />
      <BoundProperties>
        <BoundPropertyInt Name="rotateStepNinety" Value="0" />
      </BoundProperties>
    </ImageClip>
    <ImageClip extentID="5016" gapBefore="0" mediaItemID="5012" duration="0.20000000000000001">
      <Effects />
      <Transitions />
      <BoundProperties>
        <BoundPropertyInt Name="rotateStepNinety" Value="0" />
      </BoundProperties>
    </ImageClip>
    <ImageClip extentID="5017" gapBefore="0" mediaItemID="5013" duration="0.20000000000000001">
      <Effects />
      <Transitions />
      <BoundProperties>
        <BoundPropertyInt Name="rotateStepNinety" Value="0" />
      </BoundProperties>
    </ImageClip>
    <ImageClip extentID="5018" gapBefore="0" mediaItemID="5014" duration="0.20000000000000001">
      <Effects />
      <Transitions />
      <BoundProperties>
        <BoundPropertyInt Name="rotateStepNinety" Value="0" />
      </BoundProperties>
    </ImageClip>
    <ImageClip extentID="5019" gapBefore="0" mediaItemID="5015" duration="0.20000000000000001">
      <Effects />
      <Transitions />
      <BoundProperties>
        <BoundPropertyInt Name="rotateStepNinety" Value="0" />
      </BoundProperties>
    </ImageClip>
    <ImageClip extentID="5020" gapBefore="0" mediaItemID="5016" duration="0.20000000000000001">
      <Effects />
      <Transitions />
      <BoundProperties>
        <BoundPropertyInt Name="rotateStepNinety" Value="0" />
      </BoundProperties>
    </ImageClip>
    <ImageClip extentID="5021" gapBefore="0" mediaItemID="5017" duration="0.20000000000000001">
      <Effects />
      <Transitions />
      <BoundProperties>
        <BoundPropertyInt Name="rotateStepNinety" Value="0" />
      </BoundProperties>
    </ImageClip>
    <ImageClip extentID="5022" gapBefore="0" mediaItemID="5018" duration="0.20000000000000001">
      <Effects />
      <Transitions />
      <BoundProperties>
        <BoundPropertyInt Name="rotateStepNinety" Value="0" />
      </BoundProperties>
    </ImageClip>
    <ImageClip extentID="5023" gapBefore="0" mediaItemID="5019" duration="0.20000000000000001">
      <Effects />
      <Transitions />
      <BoundProperties>
        <BoundPropertyInt Name="rotateStepNinety" Value="0" />
      </BoundProperties>
    </ImageClip>
    <ImageClip extentID="5024" gapBefore="0" mediaItemID="5020" duration="0.20000000000000001">
      <Effects />
      <Transitions />
      <BoundProperties>
        <BoundPropertyInt Name="rotateStepNinety" Value="0" />
      </BoundProperties>
    </ImageClip>
    <ImageClip extentID="5025" gapBefore="0" mediaItemID="5021" duration="0.20000000000000001">
      <Effects />
      <Transitions />
      <BoundProperties>
        <BoundPropertyInt Name="rotateStepNinety" Value="0" />
      </BoundProperties>
    </ImageClip>
    <ImageClip extentID="5026" gapBefore="0" mediaItemID="5022" duration="0.20000000000000001">
      <Effects />
      <Transitions />
      <BoundProperties>
        <BoundPropertyInt Name="rotateStepNinety" Value="0" />
      </BoundProperties>
    </ImageClip>
    <ImageClip extentID="5027" gapBefore="0" mediaItemID="5023" duration="0.20000000000000001">
      <Effects />
      <Transitions />
      <BoundProperties>
        <BoundPropertyInt Name="rotateStepNinety" Value="0" />
      </BoundProperties>
    </ImageClip>
    <ImageClip extentID="5028" gapBefore="0" mediaItemID="5024" duration="0.20000000000000001">
      <Effects />
      <Transitions />
      <BoundProperties>
        <BoundPropertyInt Name="rotateStepNinety" Value="0" />
      </BoundProperties>
    </ImageClip>
    <ImageClip extentID="5029" gapBefore="0" mediaItemID="5025" duration="0.20000000000000001">
      <Effects />
      <Transitions />
      <BoundProperties>
        <BoundPropertyInt Name="rotateStepNinety" Value="0" />
      </BoundProperties>
    </ImageClip>
    <ImageClip extentID="5030" gapBefore="0" mediaItemID="5026" duration="0.20000000000000001">
      <Effects />
      <Transitions />
      <BoundProperties>
        <BoundPropertyInt Name="rotateStepNinety" Value="0" />
      </BoundProperties>
    </ImageClip>
    <ImageClip extentID="5031" gapBefore="0" mediaItemID="5027" duration="0.20000000000000001">
      <Effects />
      <Transitions />
      <BoundProperties>
        <BoundPropertyInt Name="rotateStepNinety" Value="0" />
      </BoundProperties>
    </ImageClip>
    <ImageClip extentID="5032" gapBefore="0" mediaItemID="5028" duration="0.20000000000000001">
      <Effects />
      <Transitions />
      <BoundProperties>
        <BoundPropertyInt Name="rotateStepNinety" Value="0" />
      </BoundProperties>
    </ImageClip>
    <ImageClip extentID="5033" gapBefore="0" mediaItemID="5029" duration="0.20000000000000001">
      <Effects />
      <Transitions />
      <BoundProperties>
        <BoundPropertyInt Name="rotateStepNinety" Value="0" />
      </BoundProperties>
    </ImageClip>
    <ImageClip extentID="5034" gapBefore="0" mediaItemID="5030" duration="0.20000000000000001">
      <Effects />
      <Transitions />
      <BoundProperties>
        <BoundPropertyInt Name="rotateStepNinety" Value="0" />
      </BoundProperties>
    </ImageClip>
    <ImageClip extentID="5035" gapBefore="0" mediaItemID="5031" duration="0.20000000000000001">
      <Effects />
      <Transitions />
      <BoundProperties>
        <BoundPropertyInt Name="rotateStepNinety" Value="0" />
      </BoundProperties>
    </ImageClip>
    <ImageClip extentID="5036" gapBefore="0" mediaItemID="5032" duration="0.20000000000000001">
      <Effects />
      <Transitions />
      <BoundProperties>
        <BoundPropertyInt Name="rotateStepNinety" Value="0" />
      </BoundProperties>
    </ImageClip>
    <ImageClip extentID="5037" gapBefore="0" mediaItemID="5033" duration="0.20000000000000001">
      <Effects />
      <Transitions />
      <BoundProperties>
        <BoundPropertyInt Name="rotateStepNinety" Value="0" />
      </BoundProperties>
    </ImageClip>
    <ImageClip extentID="5038" gapBefore="0" mediaItemID="5034" duration="0.20000000000000001">
      <Effects />
      <Transitions />
      <BoundProperties>
        <BoundPropertyInt Name="rotateStepNinety" Value="0" />
      </BoundProperties>
    </ImageClip>
    <ImageClip extentID="5039" gapBefore="0" mediaItemID="5035" duration="0.20000000000000001">
      <Effects />
      <Transitions />
      <BoundProperties>
        <BoundPropertyInt Name="rotateStepNinety" Value="0" />
      </BoundProperties>
    </ImageClip>
    <ImageClip extentID="5040" gapBefore="0" mediaItemID="5036" duration="0.20000000000000001">
      <Effects />
      <Transitions />
      <BoundProperties>
        <BoundPropertyInt Name="rotateStepNinety" Value="0" />
      </BoundProperties>
    </ImageClip>
    <ImageClip extentID="5041" gapBefore="0" mediaItemID="5037" duration="0.20000000000000001">
      <Effects />
      <Transitions />
      <BoundProperties>
        <BoundPropertyInt Name="rotateStepNinety" Value="0" />
      </BoundProperties>
    </ImageClip>
    <ImageClip extentID="5042" gapBefore="0" mediaItemID="5038" duration="0.20000000000000001">
      <Effects />
      <Transitions />
      <BoundProperties>
        <BoundPropertyInt Name="rotateStepNinety" Value="0" />
      </BoundProperties>
    </ImageClip>
    <ImageClip extentID="5043" gapBefore="0" mediaItemID="5039" duration="0.20000000000000001">
      <Effects />
      <Transitions />
      <BoundProperties>
        <BoundPropertyInt Name="rotateStepNinety" Value="0" />
      </BoundProperties>
    </ImageClip>
    <ImageClip extentID="5044" gapBefore="0" mediaItemID="5040" duration="0.20000000000000001">
      <Effects />
      <Transitions />
      <BoundProperties>
        <BoundPropertyInt Name="rotateStepNinety" Value="0" />
      </BoundProperties>
    </ImageClip>
    <ImageClip extentID="5045" gapBefore="0" mediaItemID="5041" duration="0.20000000000000001">
      <Effects />
      <Transitions />
      <BoundProperties>
        <BoundPropertyInt Name="rotateStepNinety" Value="0" />
      </BoundProperties>
    </ImageClip>
    <ImageClip extentID="5046" gapBefore="0" mediaItemID="5042" duration="0.20000000000000001">
      <Effects />
      <Transitions />
      <BoundProperties>
        <BoundPropertyInt Name="rotateStepNinety" Value="0" />
      </BoundProperties>
    </ImageClip>
    <ImageClip extentID="5047" gapBefore="0" mediaItemID="5043" duration="0.20000000000000001">
      <Effects />
      <Transitions />
      <BoundProperties>
        <BoundPropertyInt Name="rotateStepNinety" Value="0" />
      </BoundProperties>
    </ImageClip>
    <ImageClip extentID="5048" gapBefore="0" mediaItemID="5044" duration="0.20000000000000001">
      <Effects />
      <Transitions />
      <BoundProperties>
        <BoundPropertyInt Name="rotateStepNinety" Value="0" />
      </BoundProperties>
    </ImageClip>
    <ImageClip extentID="5049" gapBefore="0" mediaItemID="5045" duration="0.20000000000000001">
      <Effects />
      <Transitions />
      <BoundProperties>
        <BoundPropertyInt Name="rotateStepNinety" Value="0" />
      </BoundProperties>
    </ImageClip>
    <ImageClip extentID="5050" gapBefore="0" mediaItemID="5046" duration="0.20000000000000001">
      <Effects />
      <Transitions />
      <BoundProperties>
        <BoundPropertyInt Name="rotateStepNinety" Value="0" />
      </BoundProperties>
    </ImageClip>
    <ImageClip extentID="5051" gapBefore="0" mediaItemID="5047" duration="0.20000000000000001">
      <Effects />
      <Transitions />
      <BoundProperties>
        <BoundPropertyInt Name="rotateStepNinety" Value="0" />
      </BoundProperties>
    </ImageClip>
    <ImageClip extentID="5052" gapBefore="0" mediaItemID="5048" duration="0.20000000000000001">
      <Effects />
      <Transitions />
      <BoundProperties>
        <BoundPropertyInt Name="rotateStepNinety" Value="0" />
      </BoundProperties>
    </ImageClip>
    <ImageClip extentID="5053" gapBefore="0" mediaItemID="5049" duration="0.20000000000000001">
      <Effects />
      <Transitions />
      <BoundProperties>
        <BoundPropertyInt Name="rotateStepNinety" Value="0" />
      </BoundProperties>
    </ImageClip>
    <ImageClip extentID="5054" gapBefore="0" mediaItemID="5050" duration="0.20000000000000001">
      <Effects />
      <Transitions />
      <BoundProperties>
        <BoundPropertyInt Name="rotateStepNinety" Value="0" />
      </BoundProperties>
    </ImageClip>
    <ImageClip extentID="5055" gapBefore="0" mediaItemID="5051" duration="0.20000000000000001">
      <Effects />
      <Transitions />
      <BoundProperties>
        <BoundPropertyInt Name="rotateStepNinety" Value="0" />
      </BoundProperties>
    </ImageClip>
    <ImageClip extentID="5056" gapBefore="0" mediaItemID="5052" duration="0.20000000000000001">
      <Effects />
      <Transitions />
      <BoundProperties>
        <BoundPropertyInt Name="rotateStepNinety" Value="0" />
      </BoundProperties>
    </ImageClip>
    <ImageClip extentID="5057" gapBefore="0" mediaItemID="5053" duration="0.20000000000000001">
      <Effects />
      <Transitions />
      <BoundProperties>
        <BoundPropertyInt Name="rotateStepNinety" Value="0" />
      </BoundProperties>
    </ImageClip>
    <ImageClip extentID="5058" gapBefore="0" mediaItemID="5054" duration="0.20000000000000001">
      <Effects />
      <Transitions />
      <BoundProperties>
        <BoundPropertyInt Name="rotateStepNinety" Value="0" />
      </BoundProperties>
    </ImageClip>
    <ImageClip extentID="5059" gapBefore="0" mediaItemID="5055" duration="0.20000000000000001">
      <Effects />
      <Transitions />
      <BoundProperties>
        <BoundPropertyInt Name="rotateStepNinety" Value="0" />
      </BoundProperties>
    </ImageClip>
    <ImageClip extentID="5060" gapBefore="0" mediaItemID="5056" duration="0.20000000000000001">
      <Effects />
      <Transitions />
      <BoundProperties>
        <BoundPropertyInt Name="rotateStepNinety" Value="0" />
      </BoundProperties>
    </ImageClip>
    <ImageClip extentID="5061" gapBefore="0" mediaItemID="5057" duration="0.20000000000000001">
      <Effects />
      <Transitions />
      <BoundProperties>
        <BoundPropertyInt Name="rotateStepNinety" Value="0" />
      </BoundProperties>
    </ImageClip>
    <ImageClip extentID="5062" gapBefore="0" mediaItemID="5058" duration="0.20000000000000001">
      <Effects />
      <Transitions />
      <BoundProperties>
        <BoundPropertyInt Name="rotateStepNinety" Value="0" />
      </BoundProperties>
    </ImageClip>
    <ImageClip extentID="5063" gapBefore="0" mediaItemID="5059" duration="0.20000000000000001">
      <Effects />
      <Transitions />
      <BoundProperties>
        <BoundPropertyInt Name="rotateStepNinety" Value="0" />
      </BoundProperties>
    </ImageClip>
    <ImageClip extentID="5064" gapBefore="0" mediaItemID="5060" duration="0.20000000000000001">
      <Effects />
      <Transitions />
      <BoundProperties>
        <BoundPropertyInt Name="rotateStepNinety" Value="0" />
      </BoundProperties>
    </ImageClip>
    <ImageClip extentID="5065" gapBefore="0" mediaItemID="5061" duration="0.20000000000000001">
      <Effects />
      <Transitions />
      <BoundProperties>
        <BoundPropertyInt Name="rotateStepNinety" Value="0" />
      </BoundProperties>
    </ImageClip>
    <ImageClip extentID="5066" gapBefore="0" mediaItemID="5062" duration="0.20000000000000001">
      <Effects />
      <Transitions />
      <BoundProperties>
        <BoundPropertyInt Name="rotateStepNinety" Value="0" />
      </BoundProperties>
    </ImageClip>
    <ImageClip extentID="5067" gapBefore="0" mediaItemID="5063" duration="0.20000000000000001">
      <Effects />
      <Transitions />
      <BoundProperties>
        <BoundPropertyInt Name="rotateStepNinety" Value="0" />
      </BoundProperties>
    </ImageClip>
    <ImageClip extentID="5068" gapBefore="0" mediaItemID="5064" duration="0.20000000000000001">
      <Effects />
      <Transitions />
      <BoundProperties>
        <BoundPropertyInt Name="rotateStepNinety" Value="0" />
      </BoundProperties>
    </ImageClip>
    <ImageClip extentID="5069" gapBefore="0" mediaItemID="5065" duration="0.20000000000000001">
      <Effects />
      <Transitions />
      <BoundProperties>
        <BoundPropertyInt Name="rotateStepNinety" Value="0" />
      </BoundProperties>
    </ImageClip>
    <ImageClip extentID="5070" gapBefore="0" mediaItemID="5066" duration="0.20000000000000001">
      <Effects />
      <Transitions />
      <BoundProperties>
        <BoundPropertyInt Name="rotateStepNinety" Value="0" />
      </BoundProperties>
    </ImageClip>
    <ImageClip extentID="5071" gapBefore="0" mediaItemID="5067" duration="0.20000000000000001">
      <Effects />
      <Transitions />
      <BoundProperties>
        <BoundPropertyInt Name="rotateStepNinety" Value="0" />
      </BoundProperties>
    </ImageClip>
    <ImageClip extentID="5072" gapBefore="0" mediaItemID="5068" duration="0.20000000000000001">
      <Effects />
      <Transitions />
      <BoundProperties>
        <BoundPropertyInt Name="rotateStepNinety" Value="0" />
      </BoundProperties>
    </ImageClip>
    <ImageClip extentID="5073" gapBefore="0" mediaItemID="5069" duration="0.20000000000000001">
      <Effects />
      <Transitions />
      <BoundProperties>
        <BoundPropertyInt Name="rotateStepNinety" Value="0" />
      </BoundProperties>
    </ImageClip>
    <ImageClip extentID="5074" gapBefore="0" mediaItemID="5070" duration="0.20000000000000001">
      <Effects />
      <Transitions />
      <BoundProperties>
        <BoundPropertyInt Name="rotateStepNinety" Value="0" />
      </BoundProperties>
    </ImageClip>
    <ImageClip extentID="5075" gapBefore="0" mediaItemID="5071" duration="0.20000000000000001">
      <Effects />
      <Transitions />
      <BoundProperties>
        <BoundPropertyInt Name="rotateStepNinety" Value="0" />
      </BoundProperties>
    </ImageClip>
    <ImageClip extentID="5076" gapBefore="0" mediaItemID="5072" duration="0.20000000000000001">
      <Effects />
      <Transitions />
      <BoundProperties>
        <BoundPropertyInt Name="rotateStepNinety" Value="0" />
      </BoundProperties>
    </ImageClip>
    <ImageClip extentID="5077" gapBefore="0" mediaItemID="5073" duration="0.20000000000000001">
      <Effects />
      <Transitions />
      <BoundProperties>
        <BoundPropertyInt Name="rotateStepNinety" Value="0" />
      </BoundProperties>
    </ImageClip>
    <ImageClip extentID="5078" gapBefore="0" mediaItemID="5074" duration="0.20000000000000001">
      <Effects />
      <Transitions />
      <BoundProperties>
        <BoundPropertyInt Name="rotateStepNinety" Value="0" />
      </BoundProperties>
    </ImageClip>
    <ImageClip extentID="5079" gapBefore="0" mediaItemID="5075" duration="0.20000000000000001">
      <Effects />
      <Transitions />
      <BoundProperties>
        <BoundPropertyInt Name="rotateStepNinety" Value="0" />
      </BoundProperties>
    </ImageClip>
    <ImageClip extentID="5080" gapBefore="0" mediaItemID="5076" duration="0.20000000000000001">
      <Effects />
      <Transitions />
      <BoundProperties>
        <BoundPropertyInt Name="rotateStepNinety" Value="0" />
      </BoundProperties>
    </ImageClip>
    <ImageClip extentID="5081" gapBefore="0" mediaItemID="5077" duration="0.20000000000000001">
      <Effects />
      <Transitions />
      <BoundProperties>
        <BoundPropertyInt Name="rotateStepNinety" Value="0" />
      </BoundProperties>
    </ImageClip>
    <ImageClip extentID="5082" gapBefore="0" mediaItemID="5078" duration="0.20000000000000001">
      <Effects />
      <Transitions />
      <BoundProperties>
        <BoundPropertyInt Name="rotateStepNinety" Value="0" />
      </BoundProperties>
    </ImageClip>
    <ImageClip extentID="5083" gapBefore="0" mediaItemID="5079" duration="0.20000000000000001">
      <Effects />
      <Transitions />
      <BoundProperties>
        <BoundPropertyInt Name="rotateStepNinety" Value="0" />
      </BoundProperties>
    </ImageClip>
    <ImageClip extentID="5084" gapBefore="0" mediaItemID="5080" duration="0.20000000000000001">
      <Effects />
      <Transitions />
      <BoundProperties>
        <BoundPropertyInt Name="rotateStepNinety" Value="0" />
      </BoundProperties>
    </ImageClip>
    <ImageClip extentID="5085" gapBefore="0" mediaItemID="5081" duration="0.20000000000000001">
      <Effects />
      <Transitions />
      <BoundProperties>
        <BoundPropertyInt Name="rotateStepNinety" Value="0" />
      </BoundProperties>
    </ImageClip>
    <ImageClip extentID="5086" gapBefore="0" mediaItemID="5082" duration="0.20000000000000001">
      <Effects />
      <Transitions />
      <BoundProperties>
        <BoundPropertyInt Name="rotateStepNinety" Value="0" />
      </BoundProperties>
    </ImageClip>
    <ImageClip extentID="5087" gapBefore="0" mediaItemID="5083" duration="0.20000000000000001">
      <Effects />
      <Transitions />
      <BoundProperties>
        <BoundPropertyInt Name="rotateStepNinety" Value="0" />
      </BoundProperties>
    </ImageClip>
    <ImageClip extentID="5088" gapBefore="0" mediaItemID="5084" duration="0.20000000000000001">
      <Effects />
      <Transitions />
      <BoundProperties>
        <BoundPropertyInt Name="rotateStepNinety" Value="0" />
      </BoundProperties>
    </ImageClip>
    <ImageClip extentID="5089" gapBefore="0" mediaItemID="5085" duration="0.20000000000000001">
      <Effects />
      <Transitions />
      <BoundProperties>
        <BoundPropertyInt Name="rotateStepNinety" Value="0" />
      </BoundProperties>
    </ImageClip>
    <ImageClip extentID="5090" gapBefore="0" mediaItemID="5086" duration="0.20000000000000001">
      <Effects />
      <Transitions />
      <BoundProperties>
        <BoundPropertyInt Name="rotateStepNinety" Value="0" />
      </BoundProperties>
    </ImageClip>
    <ImageClip extentID="5091" gapBefore="0" mediaItemID="5087" duration="0.20000000000000001">
      <Effects />
      <Transitions />
      <BoundProperties>
        <BoundPropertyInt Name="rotateStepNinety" Value="0" />
      </BoundProperties>
    </ImageClip>
    <ImageClip extentID="5092" gapBefore="0" mediaItemID="5088" duration="0.20000000000000001">
      <Effects />
      <Transitions />
      <BoundProperties>
        <BoundPropertyInt Name="rotateStepNinety" Value="0" />
      </BoundProperties>
    </ImageClip>
    <ImageClip extentID="5093" gapBefore="0" mediaItemID="5089" duration="0.20000000000000001">
      <Effects />
      <Transitions />
      <BoundProperties>
        <BoundPropertyInt Name="rotateStepNinety" Value="0" />
      </BoundProperties>
    </ImageClip>
    <ImageClip extentID="5094" gapBefore="0" mediaItemID="5090" duration="0.20000000000000001">
      <Effects />
      <Transitions />
      <BoundProperties>
        <BoundPropertyInt Name="rotateStepNinety" Value="0" />
      </BoundProperties>
    </ImageClip>
    <ImageClip extentID="5095" gapBefore="0" mediaItemID="5091" duration="0.20000000000000001">
      <Effects />
      <Transitions />
      <BoundProperties>
        <BoundPropertyInt Name="rotateStepNinety" Value="0" />
      </BoundProperties>
    </ImageClip>
    <ImageClip extentID="5096" gapBefore="0" mediaItemID="5092" duration="0.20000000000000001">
      <Effects />
      <Transitions />
      <BoundProperties>
        <BoundPropertyInt Name="rotateStepNinety" Value="0" />
      </BoundProperties>
    </ImageClip>
    <ImageClip extentID="5097" gapBefore="0" mediaItemID="5093" duration="0.20000000000000001">
      <Effects />
      <Transitions />
      <BoundProperties>
        <BoundPropertyInt Name="rotateStepNinety" Value="0" />
      </BoundProperties>
    </ImageClip>
    <ImageClip extentID="5098" gapBefore="0" mediaItemID="5094" duration="0.20000000000000001">
      <Effects />
      <Transitions />
      <BoundProperties>
        <BoundPropertyInt Name="rotateStepNinety" Value="0" />
      </BoundProperties>
    </ImageClip>
    <ImageClip extentID="5099" gapBefore="0" mediaItemID="5095" duration="0.20000000000000001">
      <Effects />
      <Transitions />
      <BoundProperties>
        <BoundPropertyInt Name="rotateStepNinety" Value="0" />
      </BoundProperties>
    </ImageClip>
    <ImageClip extentID="5100" gapBefore="0" mediaItemID="5096" duration="0.20000000000000001">
      <Effects />
      <Transitions />
      <BoundProperties>
        <BoundPropertyInt Name="rotateStepNinety" Value="0" />
      </BoundProperties>
    </ImageClip>
    <ImageClip extentID="5101" gapBefore="0" mediaItemID="5097" duration="0.20000000000000001">
      <Effects />
      <Transitions />
      <BoundProperties>
        <BoundPropertyInt Name="rotateStepNinety" Value="0" />
      </BoundProperties>
    </ImageClip>
    <ImageClip extentID="5102" gapBefore="0" mediaItemID="5098" duration="0.20000000000000001">
      <Effects />
      <Transitions />
      <BoundProperties>
        <BoundPropertyInt Name="rotateStepNinety" Value="0" />
      </BoundProperties>
    </ImageClip>
    <ImageClip extentID="5103" gapBefore="0" mediaItemID="5099" duration="0.20000000000000001">
      <Effects />
      <Transitions />
      <BoundProperties>
        <BoundPropertyInt Name="rotateStepNinety" Value="0" />
      </BoundProperties>
    </ImageClip>
    <ImageClip extentID="5104" gapBefore="0" mediaItemID="5100" duration="0.20000000000000001">
      <Effects />
      <Transitions />
      <BoundProperties>
        <BoundPropertyInt Name="rotateStepNinety" Value="0" />
      </BoundProperties>
    </ImageClip>
    <ImageClip extentID="5105" gapBefore="0" mediaItemID="5101" duration="0.20000000000000001">
      <Effects />
      <Transitions />
      <BoundProperties>
        <BoundPropertyInt Name="rotateStepNinety" Value="0" />
      </BoundProperties>
    </ImageClip>
    <ImageClip extentID="5106" gapBefore="0" mediaItemID="5102" duration="0.20000000000000001">
      <Effects />
      <Transitions />
      <BoundProperties>
        <BoundPropertyInt Name="rotateStepNinety" Value="0" />
      </BoundProperties>
    </ImageClip>
    <ImageClip extentID="5107" gapBefore="0" mediaItemID="5103" duration="0.20000000000000001">
      <Effects />
      <Transitions />
      <BoundProperties>
        <BoundPropertyInt Name="rotateStepNinety" Value="0" />
      </BoundProperties>
    </ImageClip>
    <ImageClip extentID="5108" gapBefore="0" mediaItemID="5104" duration="0.20000000000000001">
      <Effects />
      <Transitions />
      <BoundProperties>
        <BoundPropertyInt Name="rotateStepNinety" Value="0" />
      </BoundProperties>
    </ImageClip>
    <ImageClip extentID="5109" gapBefore="0" mediaItemID="5105" duration="0.20000000000000001">
      <Effects />
      <Transitions />
      <BoundProperties>
        <BoundPropertyInt Name="rotateStepNinety" Value="0" />
      </BoundProperties>
    </ImageClip>
    <ImageClip extentID="5110" gapBefore="0" mediaItemID="5106" duration="0.20000000000000001">
      <Effects />
      <Transitions />
      <BoundProperties>
        <BoundPropertyInt Name="rotateStepNinety" Value="0" />
      </BoundProperties>
    </ImageClip>
    <ImageClip extentID="5111" gapBefore="0" mediaItemID="5107" duration="0.20000000000000001">
      <Effects />
      <Transitions />
      <BoundProperties>
        <BoundPropertyInt Name="rotateStepNinety" Value="0" />
      </BoundProperties>
    </ImageClip>
    <ImageClip extentID="5112" gapBefore="0" mediaItemID="5108" duration="0.20000000000000001">
      <Effects />
      <Transitions />
      <BoundProperties>
        <BoundPropertyInt Name="rotateStepNinety" Value="0" />
      </BoundProperties>
    </ImageClip>
    <ImageClip extentID="5113" gapBefore="0" mediaItemID="5109" duration="0.20000000000000001">
      <Effects />
      <Transitions />
      <BoundProperties>
        <BoundPropertyInt Name="rotateStepNinety" Value="0" />
      </BoundProperties>
    </ImageClip>
    <ImageClip extentID="5114" gapBefore="0" mediaItemID="5110" duration="0.20000000000000001">
      <Effects />
      <Transitions />
      <BoundProperties>
        <BoundPropertyInt Name="rotateStepNinety" Value="0" />
      </BoundProperties>
    </ImageClip>
    <ImageClip extentID="5115" gapBefore="0" mediaItemID="5111" duration="0.20000000000000001">
      <Effects />
      <Transitions />
      <BoundProperties>
        <BoundPropertyInt Name="rotateStepNinety" Value="0" />
      </BoundProperties>
    </ImageClip>
    <ImageClip extentID="5116" gapBefore="0" mediaItemID="5112" duration="0.20000000000000001">
      <Effects />
      <Transitions />
      <BoundProperties>
        <BoundPropertyInt Name="rotateStepNinety" Value="0" />
      </BoundProperties>
    </ImageClip>
    <ImageClip extentID="5117" gapBefore="0" mediaItemID="5113" duration="0.20000000000000001">
      <Effects />
      <Transitions />
      <BoundProperties>
        <BoundPropertyInt Name="rotateStepNinety" Value="0" />
      </BoundProperties>
    </ImageClip>
    <ImageClip extentID="5118" gapBefore="0" mediaItemID="5114" duration="0.20000000000000001">
      <Effects />
      <Transitions />
      <BoundProperties>
        <BoundPropertyInt Name="rotateStepNinety" Value="0" />
      </BoundProperties>
    </ImageClip>
    <ImageClip extentID="5119" gapBefore="0" mediaItemID="5115" duration="0.20000000000000001">
      <Effects />
      <Transitions />
      <BoundProperties>
        <BoundPropertyInt Name="rotateStepNinety" Value="0" />
      </BoundProperties>
    </ImageClip>
    <ImageClip extentID="5120" gapBefore="0" mediaItemID="5116" duration="0.20000000000000001">
      <Effects />
      <Transitions />
      <BoundProperties>
        <BoundPropertyInt Name="rotateStepNinety" Value="0" />
      </BoundProperties>
    </ImageClip>
    <ImageClip extentID="5121" gapBefore="0" mediaItemID="5117" duration="0.20000000000000001">
      <Effects />
      <Transitions />
      <BoundProperties>
        <BoundPropertyInt Name="rotateStepNinety" Value="0" />
      </BoundProperties>
    </ImageClip>
    <ImageClip extentID="5122" gapBefore="0" mediaItemID="5118" duration="0.20000000000000001">
      <Effects />
      <Transitions />
      <BoundProperties>
        <BoundPropertyInt Name="rotateStepNinety" Value="0" />
      </BoundProperties>
    </ImageClip>
    <ImageClip extentID="5123" gapBefore="0" mediaItemID="5119" duration="0.20000000000000001">
      <Effects />
      <Transitions />
      <BoundProperties>
        <BoundPropertyInt Name="rotateStepNinety" Value="0" />
      </BoundProperties>
    </ImageClip>
    <ImageClip extentID="5124" gapBefore="0" mediaItemID="5120" duration="0.20000000000000001">
      <Effects />
      <Transitions />
      <BoundProperties>
        <BoundPropertyInt Name="rotateStepNinety" Value="0" />
      </BoundProperties>
    </ImageClip>
    <ImageClip extentID="5125" gapBefore="0" mediaItemID="5121" duration="0.20000000000000001">
      <Effects />
      <Transitions />
      <BoundProperties>
        <BoundPropertyInt Name="rotateStepNinety" Value="0" />
      </BoundProperties>
    </ImageClip>
    <ImageClip extentID="5126" gapBefore="0" mediaItemID="5122" duration="0.20000000000000001">
      <Effects />
      <Transitions />
      <BoundProperties>
        <BoundPropertyInt Name="rotateStepNinety" Value="0" />
      </BoundProperties>
    </ImageClip>
    <ImageClip extentID="5127" gapBefore="0" mediaItemID="5123" duration="0.20000000000000001">
      <Effects />
      <Transitions />
      <BoundProperties>
        <BoundPropertyInt Name="rotateStepNinety" Value="0" />
      </BoundProperties>
    </ImageClip>
    <ImageClip extentID="5128" gapBefore="0" mediaItemID="5124" duration="0.20000000000000001">
      <Effects />
      <Transitions />
      <BoundProperties>
        <BoundPropertyInt Name="rotateStepNinety" Value="0" />
      </BoundProperties>
    </ImageClip>
    <ImageClip extentID="5129" gapBefore="0" mediaItemID="5125" duration="0.20000000000000001">
      <Effects />
      <Transitions />
      <BoundProperties>
        <BoundPropertyInt Name="rotateStepNinety" Value="0" />
      </BoundProperties>
    </ImageClip>
    <ImageClip extentID="5130" gapBefore="0" mediaItemID="5126" duration="0.20000000000000001">
      <Effects />
      <Transitions />
      <BoundProperties>
        <BoundPropertyInt Name="rotateStepNinety" Value="0" />
      </BoundProperties>
    </ImageClip>
    <ImageClip extentID="5131" gapBefore="0" mediaItemID="5127" duration="0.20000000000000001">
      <Effects />
      <Transitions />
      <BoundProperties>
        <BoundPropertyInt Name="rotateStepNinety" Value="0" />
      </BoundProperties>
    </ImageClip>
    <ImageClip extentID="5132" gapBefore="0" mediaItemID="5128" duration="0.20000000000000001">
      <Effects />
      <Transitions />
      <BoundProperties>
        <BoundPropertyInt Name="rotateStepNinety" Value="0" />
      </BoundProperties>
    </ImageClip>
    <ImageClip extentID="5133" gapBefore="0" mediaItemID="5129" duration="0.20000000000000001">
      <Effects />
      <Transitions />
      <BoundProperties>
        <BoundPropertyInt Name="rotateStepNinety" Value="0" />
      </BoundProperties>
    </ImageClip>
    <ImageClip extentID="5134" gapBefore="0" mediaItemID="5130" duration="0.20000000000000001">
      <Effects />
      <Transitions />
      <BoundProperties>
        <BoundPropertyInt Name="rotateStepNinety" Value="0" />
      </BoundProperties>
    </ImageClip>
    <ImageClip extentID="5135" gapBefore="0" mediaItemID="5131" duration="0.20000000000000001">
      <Effects />
      <Transitions />
      <BoundProperties>
        <BoundPropertyInt Name="rotateStepNinety" Value="0" />
      </BoundProperties>
    </ImageClip>
    <ImageClip extentID="5136" gapBefore="0" mediaItemID="5132" duration="0.20000000000000001">
      <Effects />
      <Transitions />
      <BoundProperties>
        <BoundPropertyInt Name="rotateStepNinety" Value="0" />
      </BoundProperties>
    </ImageClip>
    <ImageClip extentID="5137" gapBefore="0" mediaItemID="5133" duration="0.20000000000000001">
      <Effects />
      <Transitions />
      <BoundProperties>
        <BoundPropertyInt Name="rotateStepNinety" Value="0" />
      </BoundProperties>
    </ImageClip>
    <ImageClip extentID="5138" gapBefore="0" mediaItemID="5134" duration="0.20000000000000001">
      <Effects />
      <Transitions />
      <BoundProperties>
        <BoundPropertyInt Name="rotateStepNinety" Value="0" />
      </BoundProperties>
    </ImageClip>
    <ImageClip extentID="5139" gapBefore="0" mediaItemID="5135" duration="0.20000000000000001">
      <Effects />
      <Transitions />
      <BoundProperties>
        <BoundPropertyInt Name="rotateStepNinety" Value="0" />
      </BoundProperties>
    </ImageClip>
    <ImageClip extentID="5140" gapBefore="0" mediaItemID="5136" duration="0.20000000000000001">
      <Effects />
      <Transitions />
      <BoundProperties>
        <BoundPropertyInt Name="rotateStepNinety" Value="0" />
      </BoundProperties>
    </ImageClip>
    <ImageClip extentID="5141" gapBefore="0" mediaItemID="5137" duration="0.20000000000000001">
      <Effects />
      <Transitions />
      <BoundProperties>
        <BoundPropertyInt Name="rotateStepNinety" Value="0" />
      </BoundProperties>
    </ImageClip>
    <ImageClip extentID="5142" gapBefore="0" mediaItemID="5138" duration="0.20000000000000001">
      <Effects />
      <Transitions />
      <BoundProperties>
        <BoundPropertyInt Name="rotateStepNinety" Value="0" />
      </BoundProperties>
    </ImageClip>
    <ImageClip extentID="5143" gapBefore="0" mediaItemID="5139" duration="0.20000000000000001">
      <Effects />
      <Transitions />
      <BoundProperties>
        <BoundPropertyInt Name="rotateStepNinety" Value="0" />
      </BoundProperties>
    </ImageClip>
    <ImageClip extentID="5144" gapBefore="0" mediaItemID="5140" duration="0.20000000000000001">
      <Effects />
      <Transitions />
      <BoundProperties>
        <BoundPropertyInt Name="rotateStepNinety" Value="0" />
      </BoundProperties>
    </ImageClip>
    <ImageClip extentID="5145" gapBefore="0" mediaItemID="5141" duration="0.20000000000000001">
      <Effects />
      <Transitions />
      <BoundProperties>
        <BoundPropertyInt Name="rotateStepNinety" Value="0" />
      </BoundProperties>
    </ImageClip>
    <ImageClip extentID="5146" gapBefore="0" mediaItemID="5142" duration="0.20000000000000001">
      <Effects />
      <Transitions />
      <BoundProperties>
        <BoundPropertyInt Name="rotateStepNinety" Value="0" />
      </BoundProperties>
    </ImageClip>
    <ImageClip extentID="5147" gapBefore="0" mediaItemID="5143" duration="0.20000000000000001">
      <Effects />
      <Transitions />
      <BoundProperties>
        <BoundPropertyInt Name="rotateStepNinety" Value="0" />
      </BoundProperties>
    </ImageClip>
    <ImageClip extentID="5148" gapBefore="0" mediaItemID="5144" duration="0.20000000000000001">
      <Effects />
      <Transitions />
      <BoundProperties>
        <BoundPropertyInt Name="rotateStepNinety" Value="0" />
      </BoundProperties>
    </ImageClip>
    <ImageClip extentID="5149" gapBefore="0" mediaItemID="5145" duration="0.20000000000000001">
      <Effects />
      <Transitions />
      <BoundProperties>
        <BoundPropertyInt Name="rotateStepNinety" Value="0" />
      </BoundProperties>
    </ImageClip>
    <ImageClip extentID="5150" gapBefore="0" mediaItemID="5146" duration="0.20000000000000001">
      <Effects />
      <Transitions />
      <BoundProperties>
        <BoundPropertyInt Name="rotateStepNinety" Value="0" />
      </BoundProperties>
    </ImageClip>
    <ImageClip extentID="5151" gapBefore="0" mediaItemID="5147" duration="0.20000000000000001">
      <Effects />
      <Transitions />
      <BoundProperties>
        <BoundPropertyInt Name="rotateStepNinety" Value="0" />
      </BoundProperties>
    </ImageClip>
    <ImageClip extentID="5152" gapBefore="0" mediaItemID="5148" duration="0.20000000000000001">
      <Effects />
      <Transitions />
      <BoundProperties>
        <BoundPropertyInt Name="rotateStepNinety" Value="0" />
      </BoundProperties>
    </ImageClip>
    <ImageClip extentID="5153" gapBefore="0" mediaItemID="5149" duration="0.20000000000000001">
      <Effects />
      <Transitions />
      <BoundProperties>
        <BoundPropertyInt Name="rotateStepNinety" Value="0" />
      </BoundProperties>
    </ImageClip>
    <ImageClip extentID="5154" gapBefore="0" mediaItemID="5150" duration="0.20000000000000001">
      <Effects />
      <Transitions />
      <BoundProperties>
        <BoundPropertyInt Name="rotateStepNinety" Value="0" />
      </BoundProperties>
    </ImageClip>
    <ImageClip extentID="5155" gapBefore="0" mediaItemID="5151" duration="0.20000000000000001">
      <Effects />
      <Transitions />
      <BoundProperties>
        <BoundPropertyInt Name="rotateStepNinety" Value="0" />
      </BoundProperties>
    </ImageClip>
    <ImageClip extentID="5156" gapBefore="0" mediaItemID="5152" duration="0.20000000000000001">
      <Effects />
      <Transitions />
      <BoundProperties>
        <BoundPropertyInt Name="rotateStepNinety" Value="0" />
      </BoundProperties>
    </ImageClip>
    <ImageClip extentID="5157" gapBefore="0" mediaItemID="5153" duration="0.20000000000000001">
      <Effects />
      <Transitions />
      <BoundProperties>
        <BoundPropertyInt Name="rotateStepNinety" Value="0" />
      </BoundProperties>
    </ImageClip>
    <ImageClip extentID="5158" gapBefore="0" mediaItemID="5154" duration="0.20000000000000001">
      <Effects />
      <Transitions />
      <BoundProperties>
        <BoundPropertyInt Name="rotateStepNinety" Value="0" />
      </BoundProperties>
    </ImageClip>
    <ImageClip extentID="5159" gapBefore="0" mediaItemID="5155" duration="0.20000000000000001">
      <Effects />
      <Transitions />
      <BoundProperties>
        <BoundPropertyInt Name="rotateStepNinety" Value="0" />
      </BoundProperties>
    </ImageClip>
    <ImageClip extentID="5160" gapBefore="0" mediaItemID="5156" duration="0.20000000000000001">
      <Effects />
      <Transitions />
      <BoundProperties>
        <BoundPropertyInt Name="rotateStepNinety" Value="0" />
      </BoundProperties>
    </ImageClip>
    <ImageClip extentID="5161" gapBefore="0" mediaItemID="5157" duration="0.20000000000000001">
      <Effects />
      <Transitions />
      <BoundProperties>
        <BoundPropertyInt Name="rotateStepNinety" Value="0" />
      </BoundProperties>
    </ImageClip>
    <ImageClip extentID="5162" gapBefore="0" mediaItemID="5158" duration="0.20000000000000001">
      <Effects />
      <Transitions />
      <BoundProperties>
        <BoundPropertyInt Name="rotateStepNinety" Value="0" />
      </BoundProperties>
    </ImageClip>
    <ImageClip extentID="5163" gapBefore="0" mediaItemID="5159" duration="0.20000000000000001">
      <Effects />
      <Transitions />
      <BoundProperties>
        <BoundPropertyInt Name="rotateStepNinety" Value="0" />
      </BoundProperties>
    </ImageClip>
    <ImageClip extentID="5164" gapBefore="0" mediaItemID="5160" duration="0.20000000000000001">
      <Effects />
      <Transitions />
      <BoundProperties>
        <BoundPropertyInt Name="rotateStepNinety" Value="0" />
      </BoundProperties>
    </ImageClip>
    <ImageClip extentID="5165" gapBefore="0" mediaItemID="5161" duration="0.20000000000000001">
      <Effects />
      <Transitions />
      <BoundProperties>
        <BoundPropertyInt Name="rotateStepNinety" Value="0" />
      </BoundProperties>
    </ImageClip>
    <ImageClip extentID="5166" gapBefore="0" mediaItemID="5162" duration="0.20000000000000001">
      <Effects />
      <Transitions />
      <BoundProperties>
        <BoundPropertyInt Name="rotateStepNinety" Value="0" />
      </BoundProperties>
    </ImageClip>
    <ExtentSelector extentID="1" gapBefore="0" primaryTrack="true">
      <Effects />
      <Transitions />
      <BoundProperties />
      <ExtentRefs>
        <ExtentRef id="5" />
        <ExtentRef id="6" />
        <ExtentRef id="7" />
        <ExtentRef id="8" />
        <ExtentRef id="9" />
        <ExtentRef id="10" />
        <ExtentRef id="11" />
        <ExtentRef id="12" />
        <ExtentRef id="13" />
        <ExtentRef id="14" />
        <ExtentRef id="15" />
        <ExtentRef id="16" />
        <ExtentRef id="17" />
        <ExtentRef id="18" />
        <ExtentRef id="19" />
        <ExtentRef id="20" />
        <ExtentRef id="21" />
        <ExtentRef id="22" />
        <ExtentRef id="23" />
        <ExtentRef id="24" />
        <ExtentRef id="25" />
        <ExtentRef id="26" />
        <ExtentRef id="27" />
        <ExtentRef id="28" />
        <ExtentRef id="29" />
        <ExtentRef id="30" />
        <ExtentRef id="31" />
        <ExtentRef id="32" />
        <ExtentRef id="33" />
        <ExtentRef id="34" />
        <ExtentRef id="35" />
        <ExtentRef id="36" />
        <ExtentRef id="37" />
        <ExtentRef id="38" />
        <ExtentRef id="39" />
        <ExtentRef id="40" />
        <ExtentRef id="41" />
        <ExtentRef id="42" />
        <ExtentRef id="43" />
        <ExtentRef id="44" />
        <ExtentRef id="45" />
        <ExtentRef id="46" />
        <ExtentRef id="47" />
        <ExtentRef id="48" />
        <ExtentRef id="49" />
        <ExtentRef id="50" />
        <ExtentRef id="51" />
        <ExtentRef id="52" />
        <ExtentRef id="53" />
        <ExtentRef id="54" />
        <ExtentRef id="55" />
        <ExtentRef id="56" />
        <ExtentRef id="57" />
        <ExtentRef id="58" />
        <ExtentRef id="59" />
        <ExtentRef id="60" />
        <ExtentRef id="61" />
        <ExtentRef id="62" />
        <ExtentRef id="63" />
        <ExtentRef id="64" />
        <ExtentRef id="65" />
        <ExtentRef id="66" />
        <ExtentRef id="67" />
        <ExtentRef id="68" />
        <ExtentRef id="69" />
        <ExtentRef id="70" />
        <ExtentRef id="71" />
        <ExtentRef id="72" />
        <ExtentRef id="73" />
        <ExtentRef id="74" />
        <ExtentRef id="75" />
        <ExtentRef id="76" />
        <ExtentRef id="77" />
        <ExtentRef id="78" />
        <ExtentRef id="79" />
        <ExtentRef id="80" />
        <ExtentRef id="81" />
        <ExtentRef id="82" />
        <ExtentRef id="83" />
        <ExtentRef id="84" />
        <ExtentRef id="85" />
        <ExtentRef id="86" />
        <ExtentRef id="87" />
        <ExtentRef id="88" />
        <ExtentRef id="89" />
        <ExtentRef id="90" />
        <ExtentRef id="91" />
        <ExtentRef id="92" />
        <ExtentRef id="93" />
        <ExtentRef id="94" />
        <ExtentRef id="95" />
        <ExtentRef id="96" />
        <ExtentRef id="97" />
        <ExtentRef id="98" />
        <ExtentRef id="99" />
        <ExtentRef id="100" />
        <ExtentRef id="101" />
        <ExtentRef id="102" />
        <ExtentRef id="103" />
        <ExtentRef id="104" />
        <ExtentRef id="105" />
        <ExtentRef id="106" />
        <ExtentRef id="107" />
        <ExtentRef id="108" />
        <ExtentRef id="109" />
        <ExtentRef id="110" />
        <ExtentRef id="111" />
        <ExtentRef id="112" />
        <ExtentRef id="113" />
        <ExtentRef id="114" />
        <ExtentRef id="115" />
        <ExtentRef id="116" />
        <ExtentRef id="117" />
        <ExtentRef id="118" />
        <ExtentRef id="119" />
        <ExtentRef id="120" />
        <ExtentRef id="121" />
        <ExtentRef id="122" />
        <ExtentRef id="123" />
        <ExtentRef id="124" />
        <ExtentRef id="125" />
        <ExtentRef id="126" />
        <ExtentRef id="127" />
        <ExtentRef id="128" />
        <ExtentRef id="129" />
        <ExtentRef id="130" />
        <ExtentRef id="131" />
        <ExtentRef id="132" />
        <ExtentRef id="133" />
        <ExtentRef id="134" />
        <ExtentRef id="135" />
        <ExtentRef id="136" />
        <ExtentRef id="137" />
        <ExtentRef id="138" />
        <ExtentRef id="139" />
        <ExtentRef id="140" />
        <ExtentRef id="141" />
        <ExtentRef id="142" />
        <ExtentRef id="143" />
        <ExtentRef id="144" />
        <ExtentRef id="145" />
        <ExtentRef id="146" />
        <ExtentRef id="147" />
        <ExtentRef id="148" />
        <ExtentRef id="149" />
        <ExtentRef id="150" />
        <ExtentRef id="151" />
        <ExtentRef id="152" />
        <ExtentRef id="153" />
        <ExtentRef id="154" />
        <ExtentRef id="155" />
        <ExtentRef id="156" />
        <ExtentRef id="157" />
        <ExtentRef id="158" />
        <ExtentRef id="159" />
        <ExtentRef id="160" />
        <ExtentRef id="161" />
        <ExtentRef id="162" />
        <ExtentRef id="163" />
        <ExtentRef id="164" />
        <ExtentRef id="165" />
        <ExtentRef id="166" />
        <ExtentRef id="167" />
        <ExtentRef id="168" />
        <ExtentRef id="169" />
        <ExtentRef id="170" />
        <ExtentRef id="171" />
        <ExtentRef id="172" />
        <ExtentRef id="173" />
        <ExtentRef id="174" />
        <ExtentRef id="175" />
        <ExtentRef id="176" />
        <ExtentRef id="177" />
        <ExtentRef id="178" />
        <ExtentRef id="179" />
        <ExtentRef id="180" />
        <ExtentRef id="181" />
        <ExtentRef id="182" />
        <ExtentRef id="183" />
        <ExtentRef id="184" />
        <ExtentRef id="185" />
        <ExtentRef id="186" />
        <ExtentRef id="187" />
        <ExtentRef id="188" />
        <ExtentRef id="189" />
        <ExtentRef id="190" />
        <ExtentRef id="191" />
        <ExtentRef id="192" />
        <ExtentRef id="193" />
        <ExtentRef id="194" />
        <ExtentRef id="195" />
        <ExtentRef id="196" />
        <ExtentRef id="197" />
        <ExtentRef id="198" />
        <ExtentRef id="199" />
        <ExtentRef id="200" />
        <ExtentRef id="201" />
        <ExtentRef id="202" />
        <ExtentRef id="203" />
        <ExtentRef id="204" />
        <ExtentRef id="205" />
        <ExtentRef id="206" />
        <ExtentRef id="207" />
        <ExtentRef id="208" />
        <ExtentRef id="209" />
        <ExtentRef id="210" />
        <ExtentRef id="211" />
        <ExtentRef id="212" />
        <ExtentRef id="213" />
        <ExtentRef id="214" />
        <ExtentRef id="215" />
        <ExtentRef id="216" />
        <ExtentRef id="217" />
        <ExtentRef id="218" />
        <ExtentRef id="219" />
        <ExtentRef id="220" />
        <ExtentRef id="221" />
        <ExtentRef id="222" />
        <ExtentRef id="223" />
        <ExtentRef id="224" />
        <ExtentRef id="225" />
        <ExtentRef id="226" />
        <ExtentRef id="227" />
        <ExtentRef id="228" />
        <ExtentRef id="229" />
        <ExtentRef id="230" />
        <ExtentRef id="231" />
        <ExtentRef id="232" />
        <ExtentRef id="233" />
        <ExtentRef id="234" />
        <ExtentRef id="235" />
        <ExtentRef id="236" />
        <ExtentRef id="237" />
        <ExtentRef id="238" />
        <ExtentRef id="239" />
        <ExtentRef id="240" />
        <ExtentRef id="241" />
        <ExtentRef id="242" />
        <ExtentRef id="243" />
        <ExtentRef id="244" />
        <ExtentRef id="245" />
        <ExtentRef id="246" />
        <ExtentRef id="247" />
        <ExtentRef id="248" />
        <ExtentRef id="249" />
        <ExtentRef id="250" />
        <ExtentRef id="251" />
        <ExtentRef id="252" />
        <ExtentRef id="253" />
        <ExtentRef id="254" />
        <ExtentRef id="255" />
        <ExtentRef id="256" />
        <ExtentRef id="257" />
        <ExtentRef id="258" />
        <ExtentRef id="259" />
        <ExtentRef id="260" />
        <ExtentRef id="261" />
        <ExtentRef id="262" />
        <ExtentRef id="263" />
        <ExtentRef id="264" />
        <ExtentRef id="265" />
        <ExtentRef id="266" />
        <ExtentRef id="267" />
        <ExtentRef id="268" />
        <ExtentRef id="269" />
        <ExtentRef id="270" />
        <ExtentRef id="271" />
        <ExtentRef id="272" />
        <ExtentRef id="273" />
        <ExtentRef id="274" />
        <ExtentRef id="275" />
        <ExtentRef id="276" />
        <ExtentRef id="277" />
        <ExtentRef id="278" />
        <ExtentRef id="279" />
        <ExtentRef id="280" />
        <ExtentRef id="281" />
        <ExtentRef id="282" />
        <ExtentRef id="283" />
        <ExtentRef id="284" />
        <ExtentRef id="285" />
        <ExtentRef id="286" />
        <ExtentRef id="287" />
        <ExtentRef id="288" />
        <ExtentRef id="289" />
        <ExtentRef id="290" />
        <ExtentRef id="291" />
        <ExtentRef id="292" />
        <ExtentRef id="293" />
        <ExtentRef id="294" />
        <ExtentRef id="295" />
        <ExtentRef id="296" />
        <ExtentRef id="297" />
        <ExtentRef id="298" />
        <ExtentRef id="299" />
        <ExtentRef id="300" />
        <ExtentRef id="301" />
        <ExtentRef id="302" />
        <ExtentRef id="303" />
        <ExtentRef id="304" />
        <ExtentRef id="305" />
        <ExtentRef id="306" />
        <ExtentRef id="307" />
        <ExtentRef id="308" />
        <ExtentRef id="309" />
        <ExtentRef id="310" />
        <ExtentRef id="311" />
        <ExtentRef id="312" />
        <ExtentRef id="313" />
        <ExtentRef id="314" />
        <ExtentRef id="315" />
        <ExtentRef id="316" />
        <ExtentRef id="317" />
        <ExtentRef id="318" />
        <ExtentRef id="319" />
        <ExtentRef id="320" />
        <ExtentRef id="321" />
        <ExtentRef id="322" />
        <ExtentRef id="323" />
        <ExtentRef id="324" />
        <ExtentRef id="325" />
        <ExtentRef id="326" />
        <ExtentRef id="327" />
        <ExtentRef id="328" />
        <ExtentRef id="329" />
        <ExtentRef id="330" />
        <ExtentRef id="331" />
        <ExtentRef id="332" />
        <ExtentRef id="333" />
        <ExtentRef id="334" />
        <ExtentRef id="335" />
        <ExtentRef id="336" />
        <ExtentRef id="337" />
        <ExtentRef id="338" />
        <ExtentRef id="339" />
        <ExtentRef id="340" />
        <ExtentRef id="341" />
        <ExtentRef id="342" />
        <ExtentRef id="343" />
        <ExtentRef id="344" />
        <ExtentRef id="345" />
        <ExtentRef id="346" />
        <ExtentRef id="347" />
        <ExtentRef id="348" />
        <ExtentRef id="349" />
        <ExtentRef id="350" />
        <ExtentRef id="351" />
        <ExtentRef id="352" />
        <ExtentRef id="353" />
        <ExtentRef id="354" />
        <ExtentRef id="355" />
        <ExtentRef id="356" />
        <ExtentRef id="357" />
        <ExtentRef id="358" />
        <ExtentRef id="359" />
        <ExtentRef id="360" />
        <ExtentRef id="361" />
        <ExtentRef id="362" />
        <ExtentRef id="363" />
        <ExtentRef id="364" />
        <ExtentRef id="365" />
        <ExtentRef id="366" />
        <ExtentRef id="367" />
        <ExtentRef id="368" />
        <ExtentRef id="369" />
        <ExtentRef id="370" />
        <ExtentRef id="371" />
        <ExtentRef id="372" />
        <ExtentRef id="373" />
        <ExtentRef id="374" />
        <ExtentRef id="375" />
        <ExtentRef id="376" />
        <ExtentRef id="377" />
        <ExtentRef id="378" />
        <ExtentRef id="379" />
        <ExtentRef id="380" />
        <ExtentRef id="381" />
        <ExtentRef id="382" />
        <ExtentRef id="383" />
        <ExtentRef id="384" />
        <ExtentRef id="385" />
        <ExtentRef id="386" />
        <ExtentRef id="387" />
        <ExtentRef id="388" />
        <ExtentRef id="389" />
        <ExtentRef id="390" />
        <ExtentRef id="391" />
        <ExtentRef id="392" />
        <ExtentRef id="393" />
        <ExtentRef id="394" />
        <ExtentRef id="395" />
        <ExtentRef id="396" />
        <ExtentRef id="397" />
        <ExtentRef id="398" />
        <ExtentRef id="399" />
        <ExtentRef id="400" />
        <ExtentRef id="401" />
        <ExtentRef id="402" />
        <ExtentRef id="403" />
        <ExtentRef id="404" />
        <ExtentRef id="405" />
        <ExtentRef id="406" />
        <ExtentRef id="407" />
        <ExtentRef id="408" />
        <ExtentRef id="409" />
        <ExtentRef id="410" />
        <ExtentRef id="411" />
        <ExtentRef id="412" />
        <ExtentRef id="413" />
        <ExtentRef id="414" />
        <ExtentRef id="415" />
        <ExtentRef id="416" />
        <ExtentRef id="417" />
        <ExtentRef id="418" />
        <ExtentRef id="419" />
        <ExtentRef id="420" />
        <ExtentRef id="421" />
        <ExtentRef id="422" />
        <ExtentRef id="423" />
        <ExtentRef id="424" />
        <ExtentRef id="425" />
        <ExtentRef id="426" />
        <ExtentRef id="427" />
        <ExtentRef id="428" />
        <ExtentRef id="429" />
        <ExtentRef id="430" />
        <ExtentRef id="431" />
        <ExtentRef id="432" />
        <ExtentRef id="433" />
        <ExtentRef id="434" />
        <ExtentRef id="435" />
        <ExtentRef id="436" />
        <ExtentRef id="437" />
        <ExtentRef id="438" />
        <ExtentRef id="439" />
        <ExtentRef id="440" />
        <ExtentRef id="441" />
        <ExtentRef id="442" />
        <ExtentRef id="443" />
        <ExtentRef id="444" />
        <ExtentRef id="445" />
        <ExtentRef id="446" />
        <ExtentRef id="447" />
        <ExtentRef id="448" />
        <ExtentRef id="449" />
        <ExtentRef id="450" />
        <ExtentRef id="451" />
        <ExtentRef id="452" />
        <ExtentRef id="453" />
        <ExtentRef id="454" />
        <ExtentRef id="455" />
        <ExtentRef id="456" />
        <ExtentRef id="457" />
        <ExtentRef id="458" />
        <ExtentRef id="459" />
        <ExtentRef id="460" />
        <ExtentRef id="461" />
        <ExtentRef id="462" />
        <ExtentRef id="463" />
        <ExtentRef id="464" />
        <ExtentRef id="465" />
        <ExtentRef id="466" />
        <ExtentRef id="467" />
        <ExtentRef id="468" />
        <ExtentRef id="469" />
        <ExtentRef id="470" />
        <ExtentRef id="471" />
        <ExtentRef id="472" />
        <ExtentRef id="473" />
        <ExtentRef id="474" />
        <ExtentRef id="475" />
        <ExtentRef id="476" />
        <ExtentRef id="477" />
        <ExtentRef id="478" />
        <ExtentRef id="479" />
        <ExtentRef id="480" />
        <ExtentRef id="481" />
        <ExtentRef id="482" />
        <ExtentRef id="483" />
        <ExtentRef id="484" />
        <ExtentRef id="485" />
        <ExtentRef id="486" />
        <ExtentRef id="487" />
        <ExtentRef id="488" />
        <ExtentRef id="489" />
        <ExtentRef id="490" />
        <ExtentRef id="491" />
        <ExtentRef id="492" />
        <ExtentRef id="493" />
        <ExtentRef id="494" />
        <ExtentRef id="495" />
        <ExtentRef id="496" />
        <ExtentRef id="497" />
        <ExtentRef id="498" />
        <ExtentRef id="499" />
        <ExtentRef id="500" />
        <ExtentRef id="501" />
        <ExtentRef id="502" />
        <ExtentRef id="503" />
        <ExtentRef id="504" />
        <ExtentRef id="505" />
        <ExtentRef id="506" />
        <ExtentRef id="507" />
        <ExtentRef id="508" />
        <ExtentRef id="509" />
        <ExtentRef id="510" />
        <ExtentRef id="511" />
        <ExtentRef id="512" />
        <ExtentRef id="513" />
        <ExtentRef id="514" />
        <ExtentRef id="515" />
        <ExtentRef id="516" />
        <ExtentRef id="517" />
        <ExtentRef id="518" />
        <ExtentRef id="519" />
        <ExtentRef id="520" />
        <ExtentRef id="521" />
        <ExtentRef id="522" />
        <ExtentRef id="523" />
        <ExtentRef id="524" />
        <ExtentRef id="525" />
        <ExtentRef id="526" />
        <ExtentRef id="527" />
        <ExtentRef id="528" />
        <ExtentRef id="529" />
        <ExtentRef id="530" />
        <ExtentRef id="531" />
        <ExtentRef id="532" />
        <ExtentRef id="533" />
        <ExtentRef id="534" />
        <ExtentRef id="535" />
        <ExtentRef id="536" />
        <ExtentRef id="537" />
        <ExtentRef id="538" />
        <ExtentRef id="539" />
        <ExtentRef id="540" />
        <ExtentRef id="541" />
        <ExtentRef id="542" />
        <ExtentRef id="543" />
        <ExtentRef id="544" />
        <ExtentRef id="545" />
        <ExtentRef id="546" />
        <ExtentRef id="547" />
        <ExtentRef id="548" />
        <ExtentRef id="549" />
        <ExtentRef id="550" />
        <ExtentRef id="551" />
        <ExtentRef id="552" />
        <ExtentRef id="553" />
        <ExtentRef id="554" />
        <ExtentRef id="555" />
        <ExtentRef id="556" />
        <ExtentRef id="557" />
        <ExtentRef id="558" />
        <ExtentRef id="559" />
        <ExtentRef id="560" />
        <ExtentRef id="561" />
        <ExtentRef id="562" />
        <ExtentRef id="563" />
        <ExtentRef id="564" />
        <ExtentRef id="565" />
        <ExtentRef id="566" />
        <ExtentRef id="567" />
        <ExtentRef id="568" />
        <ExtentRef id="569" />
        <ExtentRef id="570" />
        <ExtentRef id="571" />
        <ExtentRef id="572" />
        <ExtentRef id="573" />
        <ExtentRef id="574" />
        <ExtentRef id="575" />
        <ExtentRef id="576" />
        <ExtentRef id="577" />
        <ExtentRef id="578" />
        <ExtentRef id="579" />
        <ExtentRef id="580" />
        <ExtentRef id="581" />
        <ExtentRef id="582" />
        <ExtentRef id="583" />
        <ExtentRef id="584" />
        <ExtentRef id="585" />
        <ExtentRef id="586" />
        <ExtentRef id="587" />
        <ExtentRef id="588" />
        <ExtentRef id="589" />
        <ExtentRef id="590" />
        <ExtentRef id="591" />
        <ExtentRef id="592" />
        <ExtentRef id="593" />
        <ExtentRef id="594" />
        <ExtentRef id="595" />
        <ExtentRef id="596" />
        <ExtentRef id="597" />
        <ExtentRef id="598" />
        <ExtentRef id="599" />
        <ExtentRef id="600" />
        <ExtentRef id="601" />
        <ExtentRef id="602" />
        <ExtentRef id="603" />
        <ExtentRef id="604" />
        <ExtentRef id="605" />
        <ExtentRef id="606" />
        <ExtentRef id="607" />
        <ExtentRef id="608" />
        <ExtentRef id="609" />
        <ExtentRef id="610" />
        <ExtentRef id="611" />
        <ExtentRef id="612" />
        <ExtentRef id="613" />
        <ExtentRef id="614" />
        <ExtentRef id="615" />
        <ExtentRef id="616" />
        <ExtentRef id="617" />
        <ExtentRef id="618" />
        <ExtentRef id="619" />
        <ExtentRef id="620" />
        <ExtentRef id="621" />
        <ExtentRef id="622" />
        <ExtentRef id="623" />
        <ExtentRef id="624" />
        <ExtentRef id="625" />
        <ExtentRef id="626" />
        <ExtentRef id="627" />
        <ExtentRef id="628" />
        <ExtentRef id="629" />
        <ExtentRef id="630" />
        <ExtentRef id="631" />
        <ExtentRef id="632" />
        <ExtentRef id="633" />
        <ExtentRef id="634" />
        <ExtentRef id="635" />
        <ExtentRef id="636" />
        <ExtentRef id="637" />
        <ExtentRef id="638" />
        <ExtentRef id="639" />
        <ExtentRef id="640" />
        <ExtentRef id="641" />
        <ExtentRef id="642" />
        <ExtentRef id="643" />
        <ExtentRef id="644" />
        <ExtentRef id="645" />
        <ExtentRef id="646" />
        <ExtentRef id="647" />
        <ExtentRef id="648" />
        <ExtentRef id="649" />
        <ExtentRef id="650" />
        <ExtentRef id="651" />
        <ExtentRef id="652" />
        <ExtentRef id="653" />
        <ExtentRef id="654" />
        <ExtentRef id="655" />
        <ExtentRef id="656" />
        <ExtentRef id="657" />
        <ExtentRef id="658" />
        <ExtentRef id="659" />
        <ExtentRef id="660" />
        <ExtentRef id="661" />
        <ExtentRef id="662" />
        <ExtentRef id="663" />
        <ExtentRef id="664" />
        <ExtentRef id="665" />
        <ExtentRef id="666" />
        <ExtentRef id="667" />
        <ExtentRef id="668" />
        <ExtentRef id="669" />
        <ExtentRef id="670" />
        <ExtentRef id="671" />
        <ExtentRef id="672" />
        <ExtentRef id="673" />
        <ExtentRef id="674" />
        <ExtentRef id="675" />
        <ExtentRef id="676" />
        <ExtentRef id="677" />
        <ExtentRef id="678" />
        <ExtentRef id="679" />
        <ExtentRef id="680" />
        <ExtentRef id="681" />
        <ExtentRef id="682" />
        <ExtentRef id="683" />
        <ExtentRef id="684" />
        <ExtentRef id="685" />
        <ExtentRef id="686" />
        <ExtentRef id="687" />
        <ExtentRef id="688" />
        <ExtentRef id="689" />
        <ExtentRef id="690" />
        <ExtentRef id="691" />
        <ExtentRef id="692" />
        <ExtentRef id="693" />
        <ExtentRef id="694" />
        <ExtentRef id="695" />
        <ExtentRef id="696" />
        <ExtentRef id="697" />
        <ExtentRef id="698" />
        <ExtentRef id="699" />
        <ExtentRef id="700" />
        <ExtentRef id="701" />
        <ExtentRef id="702" />
        <ExtentRef id="703" />
        <ExtentRef id="704" />
        <ExtentRef id="705" />
        <ExtentRef id="706" />
        <ExtentRef id="707" />
        <ExtentRef id="708" />
        <ExtentRef id="709" />
        <ExtentRef id="710" />
        <ExtentRef id="711" />
        <ExtentRef id="712" />
        <ExtentRef id="713" />
        <ExtentRef id="714" />
        <ExtentRef id="715" />
        <ExtentRef id="716" />
        <ExtentRef id="717" />
        <ExtentRef id="718" />
        <ExtentRef id="719" />
        <ExtentRef id="720" />
        <ExtentRef id="721" />
        <ExtentRef id="722" />
        <ExtentRef id="723" />
        <ExtentRef id="724" />
        <ExtentRef id="725" />
        <ExtentRef id="726" />
        <ExtentRef id="727" />
        <ExtentRef id="728" />
        <ExtentRef id="729" />
        <ExtentRef id="730" />
        <ExtentRef id="731" />
        <ExtentRef id="732" />
        <ExtentRef id="733" />
        <ExtentRef id="734" />
        <ExtentRef id="735" />
        <ExtentRef id="736" />
        <ExtentRef id="737" />
        <ExtentRef id="738" />
        <ExtentRef id="739" />
        <ExtentRef id="740" />
        <ExtentRef id="741" />
        <ExtentRef id="742" />
        <ExtentRef id="743" />
        <ExtentRef id="744" />
        <ExtentRef id="745" />
        <ExtentRef id="746" />
        <ExtentRef id="747" />
        <ExtentRef id="748" />
        <ExtentRef id="749" />
        <ExtentRef id="750" />
        <ExtentRef id="751" />
        <ExtentRef id="752" />
        <ExtentRef id="753" />
        <ExtentRef id="754" />
        <ExtentRef id="755" />
        <ExtentRef id="756" />
        <ExtentRef id="757" />
        <ExtentRef id="758" />
        <ExtentRef id="759" />
        <ExtentRef id="760" />
        <ExtentRef id="761" />
        <ExtentRef id="762" />
        <ExtentRef id="763" />
        <ExtentRef id="764" />
        <ExtentRef id="765" />
        <ExtentRef id="766" />
        <ExtentRef id="767" />
        <ExtentRef id="768" />
        <ExtentRef id="769" />
        <ExtentRef id="770" />
        <ExtentRef id="771" />
        <ExtentRef id="772" />
        <ExtentRef id="773" />
        <ExtentRef id="774" />
        <ExtentRef id="775" />
        <ExtentRef id="776" />
        <ExtentRef id="777" />
        <ExtentRef id="778" />
        <ExtentRef id="779" />
        <ExtentRef id="780" />
        <ExtentRef id="781" />
        <ExtentRef id="782" />
        <ExtentRef id="783" />
        <ExtentRef id="784" />
        <ExtentRef id="785" />
        <ExtentRef id="786" />
        <ExtentRef id="787" />
        <ExtentRef id="788" />
        <ExtentRef id="789" />
        <ExtentRef id="790" />
        <ExtentRef id="791" />
        <ExtentRef id="792" />
        <ExtentRef id="793" />
        <ExtentRef id="794" />
        <ExtentRef id="795" />
        <ExtentRef id="796" />
        <ExtentRef id="797" />
        <ExtentRef id="798" />
        <ExtentRef id="799" />
        <ExtentRef id="800" />
        <ExtentRef id="801" />
        <ExtentRef id="802" />
        <ExtentRef id="803" />
        <ExtentRef id="804" />
        <ExtentRef id="805" />
        <ExtentRef id="806" />
        <ExtentRef id="807" />
        <ExtentRef id="808" />
        <ExtentRef id="809" />
        <ExtentRef id="810" />
        <ExtentRef id="811" />
        <ExtentRef id="812" />
        <ExtentRef id="813" />
        <ExtentRef id="814" />
        <ExtentRef id="815" />
        <ExtentRef id="816" />
        <ExtentRef id="817" />
        <ExtentRef id="818" />
        <ExtentRef id="819" />
        <ExtentRef id="820" />
        <ExtentRef id="821" />
        <ExtentRef id="822" />
        <ExtentRef id="823" />
        <ExtentRef id="824" />
        <ExtentRef id="825" />
        <ExtentRef id="826" />
        <ExtentRef id="827" />
        <ExtentRef id="828" />
        <ExtentRef id="829" />
        <ExtentRef id="830" />
        <ExtentRef id="831" />
        <ExtentRef id="832" />
        <ExtentRef id="833" />
        <ExtentRef id="834" />
        <ExtentRef id="835" />
        <ExtentRef id="836" />
        <ExtentRef id="837" />
        <ExtentRef id="838" />
        <ExtentRef id="839" />
        <ExtentRef id="840" />
        <ExtentRef id="841" />
        <ExtentRef id="842" />
        <ExtentRef id="843" />
        <ExtentRef id="844" />
        <ExtentRef id="845" />
        <ExtentRef id="846" />
        <ExtentRef id="847" />
        <ExtentRef id="848" />
        <ExtentRef id="849" />
        <ExtentRef id="850" />
        <ExtentRef id="851" />
        <ExtentRef id="852" />
        <ExtentRef id="853" />
        <ExtentRef id="854" />
        <ExtentRef id="855" />
        <ExtentRef id="856" />
        <ExtentRef id="857" />
        <ExtentRef id="858" />
        <ExtentRef id="859" />
        <ExtentRef id="860" />
        <ExtentRef id="861" />
        <ExtentRef id="862" />
        <ExtentRef id="863" />
        <ExtentRef id="864" />
        <ExtentRef id="865" />
        <ExtentRef id="866" />
        <ExtentRef id="867" />
        <ExtentRef id="868" />
        <ExtentRef id="869" />
        <ExtentRef id="870" />
        <ExtentRef id="871" />
        <ExtentRef id="872" />
        <ExtentRef id="873" />
        <ExtentRef id="874" />
        <ExtentRef id="875" />
        <ExtentRef id="876" />
        <ExtentRef id="877" />
        <ExtentRef id="878" />
        <ExtentRef id="879" />
        <ExtentRef id="880" />
        <ExtentRef id="881" />
        <ExtentRef id="882" />
        <ExtentRef id="883" />
        <ExtentRef id="884" />
        <ExtentRef id="885" />
        <ExtentRef id="886" />
        <ExtentRef id="887" />
        <ExtentRef id="888" />
        <ExtentRef id="889" />
        <ExtentRef id="890" />
        <ExtentRef id="891" />
        <ExtentRef id="892" />
        <ExtentRef id="893" />
        <ExtentRef id="894" />
        <ExtentRef id="895" />
        <ExtentRef id="896" />
        <ExtentRef id="897" />
        <ExtentRef id="898" />
        <ExtentRef id="899" />
        <ExtentRef id="900" />
        <ExtentRef id="901" />
        <ExtentRef id="902" />
        <ExtentRef id="903" />
        <ExtentRef id="904" />
        <ExtentRef id="905" />
        <ExtentRef id="906" />
        <ExtentRef id="907" />
        <ExtentRef id="908" />
        <ExtentRef id="909" />
        <ExtentRef id="910" />
        <ExtentRef id="911" />
        <ExtentRef id="912" />
        <ExtentRef id="913" />
        <ExtentRef id="914" />
        <ExtentRef id="915" />
        <ExtentRef id="916" />
        <ExtentRef id="917" />
        <ExtentRef id="918" />
        <ExtentRef id="919" />
        <ExtentRef id="920" />
        <ExtentRef id="921" />
        <ExtentRef id="922" />
        <ExtentRef id="923" />
        <ExtentRef id="924" />
        <ExtentRef id="925" />
        <ExtentRef id="926" />
        <ExtentRef id="927" />
        <ExtentRef id="928" />
        <ExtentRef id="929" />
        <ExtentRef id="930" />
        <ExtentRef id="931" />
        <ExtentRef id="932" />
        <ExtentRef id="933" />
        <ExtentRef id="934" />
        <ExtentRef id="935" />
        <ExtentRef id="936" />
        <ExtentRef id="937" />
        <ExtentRef id="938" />
        <ExtentRef id="939" />
        <ExtentRef id="940" />
        <ExtentRef id="941" />
        <ExtentRef id="942" />
        <ExtentRef id="943" />
        <ExtentRef id="944" />
        <ExtentRef id="945" />
        <ExtentRef id="946" />
        <ExtentRef id="947" />
        <ExtentRef id="948" />
        <ExtentRef id="949" />
        <ExtentRef id="950" />
        <ExtentRef id="951" />
        <ExtentRef id="952" />
        <ExtentRef id="953" />
        <ExtentRef id="954" />
        <ExtentRef id="955" />
        <ExtentRef id="956" />
        <ExtentRef id="957" />
        <ExtentRef id="958" />
        <ExtentRef id="959" />
        <ExtentRef id="960" />
        <ExtentRef id="961" />
        <ExtentRef id="962" />
        <ExtentRef id="963" />
        <ExtentRef id="964" />
        <ExtentRef id="965" />
        <ExtentRef id="966" />
        <ExtentRef id="967" />
        <ExtentRef id="968" />
        <ExtentRef id="969" />
        <ExtentRef id="970" />
        <ExtentRef id="971" />
        <ExtentRef id="972" />
        <ExtentRef id="973" />
        <ExtentRef id="974" />
        <ExtentRef id="975" />
        <ExtentRef id="976" />
        <ExtentRef id="977" />
        <ExtentRef id="978" />
        <ExtentRef id="979" />
        <ExtentRef id="980" />
        <ExtentRef id="981" />
        <ExtentRef id="982" />
        <ExtentRef id="983" />
        <ExtentRef id="984" />
        <ExtentRef id="985" />
        <ExtentRef id="986" />
        <ExtentRef id="987" />
        <ExtentRef id="988" />
        <ExtentRef id="989" />
        <ExtentRef id="990" />
        <ExtentRef id="991" />
        <ExtentRef id="992" />
        <ExtentRef id="993" />
        <ExtentRef id="994" />
        <ExtentRef id="995" />
        <ExtentRef id="996" />
        <ExtentRef id="997" />
        <ExtentRef id="998" />
        <ExtentRef id="999" />
        <ExtentRef id="1000" />
        <ExtentRef id="1001" />
        <ExtentRef id="1002" />
        <ExtentRef id="1003" />
        <ExtentRef id="1004" />
        <ExtentRef id="1005" />
        <ExtentRef id="1006" />
        <ExtentRef id="1007" />
        <ExtentRef id="1008" />
        <ExtentRef id="1009" />
        <ExtentRef id="1010" />
        <ExtentRef id="1011" />
        <ExtentRef id="1012" />
        <ExtentRef id="1013" />
        <ExtentRef id="1014" />
        <ExtentRef id="1015" />
        <ExtentRef id="1016" />
        <ExtentRef id="1017" />
        <ExtentRef id="1018" />
        <ExtentRef id="1019" />
        <ExtentRef id="1020" />
        <ExtentRef id="1021" />
        <ExtentRef id="1022" />
        <ExtentRef id="1023" />
        <ExtentRef id="1024" />
        <ExtentRef id="1025" />
        <ExtentRef id="1026" />
        <ExtentRef id="1027" />
        <ExtentRef id="1028" />
        <ExtentRef id="1029" />
        <ExtentRef id="1030" />
        <ExtentRef id="1031" />
        <ExtentRef id="1032" />
        <ExtentRef id="1033" />
        <ExtentRef id="1034" />
        <ExtentRef id="1035" />
        <ExtentRef id="1036" />
        <ExtentRef id="1037" />
        <ExtentRef id="1038" />
        <ExtentRef id="1039" />
        <ExtentRef id="1040" />
        <ExtentRef id="1041" />
        <ExtentRef id="1042" />
        <ExtentRef id="1043" />
        <ExtentRef id="1044" />
        <ExtentRef id="1045" />
        <ExtentRef id="1046" />
        <ExtentRef id="1047" />
        <ExtentRef id="1048" />
        <ExtentRef id="1049" />
        <ExtentRef id="1050" />
        <ExtentRef id="1051" />
        <ExtentRef id="1052" />
        <ExtentRef id="1053" />
        <ExtentRef id="1054" />
        <ExtentRef id="1055" />
        <ExtentRef id="1056" />
        <ExtentRef id="1057" />
        <ExtentRef id="1058" />
        <ExtentRef id="1059" />
        <ExtentRef id="1060" />
        <ExtentRef id="1061" />
        <ExtentRef id="1062" />
        <ExtentRef id="1063" />
        <ExtentRef id="1064" />
        <ExtentRef id="1065" />
        <ExtentRef id="1066" />
        <ExtentRef id="1067" />
        <ExtentRef id="1068" />
        <ExtentRef id="1069" />
        <ExtentRef id="1070" />
        <ExtentRef id="1071" />
        <ExtentRef id="1072" />
        <ExtentRef id="1073" />
        <ExtentRef id="1074" />
        <ExtentRef id="1075" />
        <ExtentRef id="1076" />
        <ExtentRef id="1077" />
        <ExtentRef id="1078" />
        <ExtentRef id="1079" />
        <ExtentRef id="1080" />
        <ExtentRef id="1081" />
        <ExtentRef id="1082" />
        <ExtentRef id="1083" />
        <ExtentRef id="1084" />
        <ExtentRef id="1085" />
        <ExtentRef id="1086" />
        <ExtentRef id="1087" />
        <ExtentRef id="1088" />
        <ExtentRef id="1089" />
        <ExtentRef id="1090" />
        <ExtentRef id="1091" />
        <ExtentRef id="1092" />
        <ExtentRef id="1093" />
        <ExtentRef id="1094" />
        <ExtentRef id="1095" />
        <ExtentRef id="1096" />
        <ExtentRef id="1097" />
        <ExtentRef id="1098" />
        <ExtentRef id="1099" />
        <ExtentRef id="1100" />
        <ExtentRef id="1101" />
        <ExtentRef id="1102" />
        <ExtentRef id="1103" />
        <ExtentRef id="1104" />
        <ExtentRef id="1105" />
        <ExtentRef id="1106" />
        <ExtentRef id="1107" />
        <ExtentRef id="1108" />
        <ExtentRef id="1109" />
        <ExtentRef id="1110" />
        <ExtentRef id="1111" />
        <ExtentRef id="1112" />
        <ExtentRef id="1113" />
        <ExtentRef id="1114" />
        <ExtentRef id="1115" />
        <ExtentRef id="1116" />
        <ExtentRef id="1117" />
        <ExtentRef id="1118" />
        <ExtentRef id="1119" />
        <ExtentRef id="1120" />
        <ExtentRef id="1121" />
        <ExtentRef id="1122" />
        <ExtentRef id="1123" />
        <ExtentRef id="1124" />
        <ExtentRef id="1125" />
        <ExtentRef id="1126" />
        <ExtentRef id="1127" />
        <ExtentRef id="1128" />
        <ExtentRef id="1129" />
        <ExtentRef id="1130" />
        <ExtentRef id="1131" />
        <ExtentRef id="1132" />
        <ExtentRef id="1133" />
        <ExtentRef id="1134" />
        <ExtentRef id="1135" />
        <ExtentRef id="1136" />
        <ExtentRef id="1137" />
        <ExtentRef id="1138" />
        <ExtentRef id="1139" />
        <ExtentRef id="1140" />
        <ExtentRef id="1141" />
        <ExtentRef id="1142" />
        <ExtentRef id="1143" />
        <ExtentRef id="1144" />
        <ExtentRef id="1145" />
        <ExtentRef id="1146" />
        <ExtentRef id="1147" />
        <ExtentRef id="1148" />
        <ExtentRef id="1149" />
        <ExtentRef id="1150" />
        <ExtentRef id="1151" />
        <ExtentRef id="1152" />
        <ExtentRef id="1153" />
        <ExtentRef id="1154" />
        <ExtentRef id="1155" />
        <ExtentRef id="1156" />
        <ExtentRef id="1157" />
        <ExtentRef id="1158" />
        <ExtentRef id="1159" />
        <ExtentRef id="1160" />
        <ExtentRef id="1161" />
        <ExtentRef id="1162" />
        <ExtentRef id="1163" />
        <ExtentRef id="1164" />
        <ExtentRef id="1165" />
        <ExtentRef id="1166" />
        <ExtentRef id="1167" />
        <ExtentRef id="1168" />
        <ExtentRef id="1169" />
        <ExtentRef id="1170" />
        <ExtentRef id="1171" />
        <ExtentRef id="1172" />
        <ExtentRef id="1173" />
        <ExtentRef id="1174" />
        <ExtentRef id="1175" />
        <ExtentRef id="1176" />
        <ExtentRef id="1177" />
        <ExtentRef id="1178" />
        <ExtentRef id="1179" />
        <ExtentRef id="1180" />
        <ExtentRef id="1181" />
        <ExtentRef id="1182" />
        <ExtentRef id="1183" />
        <ExtentRef id="1184" />
        <ExtentRef id="1185" />
        <ExtentRef id="1186" />
        <ExtentRef id="1187" />
        <ExtentRef id="1188" />
        <ExtentRef id="1189" />
        <ExtentRef id="1190" />
        <ExtentRef id="1191" />
        <ExtentRef id="1192" />
        <ExtentRef id="1193" />
        <ExtentRef id="1194" />
        <ExtentRef id="1195" />
        <ExtentRef id="1196" />
        <ExtentRef id="1197" />
        <ExtentRef id="1198" />
        <ExtentRef id="1199" />
        <ExtentRef id="1200" />
        <ExtentRef id="1201" />
        <ExtentRef id="1202" />
        <ExtentRef id="1203" />
        <ExtentRef id="1204" />
        <ExtentRef id="1205" />
        <ExtentRef id="1206" />
        <ExtentRef id="1207" />
        <ExtentRef id="1208" />
        <ExtentRef id="1209" />
        <ExtentRef id="1210" />
        <ExtentRef id="1211" />
        <ExtentRef id="1212" />
        <ExtentRef id="1213" />
        <ExtentRef id="1214" />
        <ExtentRef id="1215" />
        <ExtentRef id="1216" />
        <ExtentRef id="1217" />
        <ExtentRef id="1218" />
        <ExtentRef id="1219" />
        <ExtentRef id="1220" />
        <ExtentRef id="1221" />
        <ExtentRef id="1222" />
        <ExtentRef id="1223" />
        <ExtentRef id="1224" />
        <ExtentRef id="1225" />
        <ExtentRef id="1226" />
        <ExtentRef id="1227" />
        <ExtentRef id="1228" />
        <ExtentRef id="1229" />
        <ExtentRef id="1230" />
        <ExtentRef id="1231" />
        <ExtentRef id="1232" />
        <ExtentRef id="1233" />
        <ExtentRef id="1234" />
        <ExtentRef id="1235" />
        <ExtentRef id="1236" />
        <ExtentRef id="1237" />
        <ExtentRef id="1238" />
        <ExtentRef id="1239" />
        <ExtentRef id="1240" />
        <ExtentRef id="1241" />
        <ExtentRef id="1242" />
        <ExtentRef id="1243" />
        <ExtentRef id="1244" />
        <ExtentRef id="1245" />
        <ExtentRef id="1246" />
        <ExtentRef id="1247" />
        <ExtentRef id="1248" />
        <ExtentRef id="1249" />
        <ExtentRef id="1250" />
        <ExtentRef id="1251" />
        <ExtentRef id="1252" />
        <ExtentRef id="1253" />
        <ExtentRef id="1254" />
        <ExtentRef id="1255" />
        <ExtentRef id="1256" />
        <ExtentRef id="1257" />
        <ExtentRef id="1258" />
        <ExtentRef id="1259" />
        <ExtentRef id="1260" />
        <ExtentRef id="1261" />
        <ExtentRef id="1262" />
        <ExtentRef id="1263" />
        <ExtentRef id="1264" />
        <ExtentRef id="1265" />
        <ExtentRef id="1266" />
        <ExtentRef id="1267" />
        <ExtentRef id="1268" />
        <ExtentRef id="1269" />
        <ExtentRef id="1270" />
        <ExtentRef id="1271" />
        <ExtentRef id="1272" />
        <ExtentRef id="1273" />
        <ExtentRef id="1274" />
        <ExtentRef id="1275" />
        <ExtentRef id="1276" />
        <ExtentRef id="1277" />
        <ExtentRef id="1278" />
        <ExtentRef id="1279" />
        <ExtentRef id="1280" />
        <ExtentRef id="1281" />
        <ExtentRef id="1282" />
        <ExtentRef id="1283" />
        <ExtentRef id="1284" />
        <ExtentRef id="1285" />
        <ExtentRef id="1286" />
        <ExtentRef id="1287" />
        <ExtentRef id="1288" />
        <ExtentRef id="1289" />
        <ExtentRef id="1290" />
        <ExtentRef id="1291" />
        <ExtentRef id="1292" />
        <ExtentRef id="1293" />
        <ExtentRef id="1294" />
        <ExtentRef id="1295" />
        <ExtentRef id="1296" />
        <ExtentRef id="1297" />
        <ExtentRef id="1298" />
        <ExtentRef id="1299" />
        <ExtentRef id="1300" />
        <ExtentRef id="1301" />
        <ExtentRef id="1302" />
        <ExtentRef id="1303" />
        <ExtentRef id="1304" />
        <ExtentRef id="1305" />
        <ExtentRef id="1306" />
        <ExtentRef id="1307" />
        <ExtentRef id="1308" />
        <ExtentRef id="1309" />
        <ExtentRef id="1310" />
        <ExtentRef id="1311" />
        <ExtentRef id="1312" />
        <ExtentRef id="1313" />
        <ExtentRef id="1314" />
        <ExtentRef id="1315" />
        <ExtentRef id="1316" />
        <ExtentRef id="1317" />
        <ExtentRef id="1318" />
        <ExtentRef id="1319" />
        <ExtentRef id="1320" />
        <ExtentRef id="1321" />
        <ExtentRef id="1322" />
        <ExtentRef id="1323" />
        <ExtentRef id="1324" />
        <ExtentRef id="1325" />
        <ExtentRef id="1326" />
        <ExtentRef id="1327" />
        <ExtentRef id="1328" />
        <ExtentRef id="1329" />
        <ExtentRef id="1330" />
        <ExtentRef id="1331" />
        <ExtentRef id="1332" />
        <ExtentRef id="1333" />
        <ExtentRef id="1334" />
        <ExtentRef id="1335" />
        <ExtentRef id="1336" />
        <ExtentRef id="1337" />
        <ExtentRef id="1338" />
        <ExtentRef id="1339" />
        <ExtentRef id="1340" />
        <ExtentRef id="1341" />
        <ExtentRef id="1342" />
        <ExtentRef id="1343" />
        <ExtentRef id="1344" />
        <ExtentRef id="1345" />
        <ExtentRef id="1346" />
        <ExtentRef id="1347" />
        <ExtentRef id="1348" />
        <ExtentRef id="1349" />
        <ExtentRef id="1350" />
        <ExtentRef id="1351" />
        <ExtentRef id="1352" />
        <ExtentRef id="1353" />
        <ExtentRef id="1354" />
        <ExtentRef id="1355" />
        <ExtentRef id="1356" />
        <ExtentRef id="1357" />
        <ExtentRef id="1358" />
        <ExtentRef id="1359" />
        <ExtentRef id="1360" />
        <ExtentRef id="1361" />
        <ExtentRef id="1362" />
        <ExtentRef id="1363" />
        <ExtentRef id="1364" />
        <ExtentRef id="1365" />
        <ExtentRef id="1366" />
        <ExtentRef id="1367" />
        <ExtentRef id="1368" />
        <ExtentRef id="1369" />
        <ExtentRef id="1370" />
        <ExtentRef id="1371" />
        <ExtentRef id="1372" />
        <ExtentRef id="1373" />
        <ExtentRef id="1374" />
        <ExtentRef id="1375" />
        <ExtentRef id="1376" />
        <ExtentRef id="1377" />
        <ExtentRef id="1378" />
        <ExtentRef id="1379" />
        <ExtentRef id="1380" />
        <ExtentRef id="1381" />
        <ExtentRef id="1382" />
        <ExtentRef id="1383" />
        <ExtentRef id="1384" />
        <ExtentRef id="1385" />
        <ExtentRef id="1386" />
        <ExtentRef id="1387" />
        <ExtentRef id="1388" />
        <ExtentRef id="1389" />
        <ExtentRef id="1390" />
        <ExtentRef id="1391" />
        <ExtentRef id="1392" />
        <ExtentRef id="1393" />
        <ExtentRef id="1394" />
        <ExtentRef id="1395" />
        <ExtentRef id="1396" />
        <ExtentRef id="1397" />
        <ExtentRef id="1398" />
        <ExtentRef id="1399" />
        <ExtentRef id="1400" />
        <ExtentRef id="1401" />
        <ExtentRef id="1402" />
        <ExtentRef id="1403" />
        <ExtentRef id="1404" />
        <ExtentRef id="1405" />
        <ExtentRef id="1406" />
        <ExtentRef id="1407" />
        <ExtentRef id="1408" />
        <ExtentRef id="1409" />
        <ExtentRef id="1410" />
        <ExtentRef id="1411" />
        <ExtentRef id="1412" />
        <ExtentRef id="1413" />
        <ExtentRef id="1414" />
        <ExtentRef id="1415" />
        <ExtentRef id="1416" />
        <ExtentRef id="1417" />
        <ExtentRef id="1418" />
        <ExtentRef id="1419" />
        <ExtentRef id="1420" />
        <ExtentRef id="1421" />
        <ExtentRef id="1422" />
        <ExtentRef id="1423" />
        <ExtentRef id="1424" />
        <ExtentRef id="1425" />
        <ExtentRef id="1426" />
        <ExtentRef id="1427" />
        <ExtentRef id="1428" />
        <ExtentRef id="1429" />
        <ExtentRef id="1430" />
        <ExtentRef id="1431" />
        <ExtentRef id="1432" />
        <ExtentRef id="1433" />
        <ExtentRef id="1434" />
        <ExtentRef id="1435" />
        <ExtentRef id="1436" />
        <ExtentRef id="1437" />
        <ExtentRef id="1438" />
        <ExtentRef id="1439" />
        <ExtentRef id="1440" />
        <ExtentRef id="1441" />
        <ExtentRef id="1442" />
        <ExtentRef id="1443" />
        <ExtentRef id="1444" />
        <ExtentRef id="1445" />
        <ExtentRef id="1446" />
        <ExtentRef id="1447" />
        <ExtentRef id="1448" />
        <ExtentRef id="1449" />
        <ExtentRef id="1450" />
        <ExtentRef id="1451" />
        <ExtentRef id="1452" />
        <ExtentRef id="1453" />
        <ExtentRef id="1454" />
        <ExtentRef id="1455" />
        <ExtentRef id="1456" />
        <ExtentRef id="1457" />
        <ExtentRef id="1458" />
        <ExtentRef id="1459" />
        <ExtentRef id="1460" />
        <ExtentRef id="1461" />
        <ExtentRef id="1462" />
        <ExtentRef id="1463" />
        <ExtentRef id="1464" />
        <ExtentRef id="1465" />
        <ExtentRef id="1466" />
        <ExtentRef id="1467" />
        <ExtentRef id="1468" />
        <ExtentRef id="1469" />
        <ExtentRef id="1470" />
        <ExtentRef id="1471" />
        <ExtentRef id="1472" />
        <ExtentRef id="1473" />
        <ExtentRef id="1474" />
        <ExtentRef id="1475" />
        <ExtentRef id="1476" />
        <ExtentRef id="1477" />
        <ExtentRef id="1478" />
        <ExtentRef id="1479" />
        <ExtentRef id="1480" />
        <ExtentRef id="1481" />
        <ExtentRef id="1482" />
        <ExtentRef id="1483" />
        <ExtentRef id="1484" />
        <ExtentRef id="1485" />
        <ExtentRef id="1486" />
        <ExtentRef id="1487" />
        <ExtentRef id="1488" />
        <ExtentRef id="1489" />
        <ExtentRef id="1490" />
        <ExtentRef id="1491" />
        <ExtentRef id="1492" />
        <ExtentRef id="1493" />
        <ExtentRef id="1494" />
        <ExtentRef id="1495" />
        <ExtentRef id="1496" />
        <ExtentRef id="1497" />
        <ExtentRef id="1498" />
        <ExtentRef id="1499" />
        <ExtentRef id="1500" />
        <ExtentRef id="1501" />
        <ExtentRef id="1502" />
        <ExtentRef id="1503" />
        <ExtentRef id="1504" />
        <ExtentRef id="1505" />
        <ExtentRef id="1506" />
        <ExtentRef id="1507" />
        <ExtentRef id="1508" />
        <ExtentRef id="1509" />
        <ExtentRef id="1510" />
        <ExtentRef id="1511" />
        <ExtentRef id="1512" />
        <ExtentRef id="1513" />
        <ExtentRef id="1514" />
        <ExtentRef id="1515" />
        <ExtentRef id="1516" />
        <ExtentRef id="1517" />
        <ExtentRef id="1518" />
        <ExtentRef id="1519" />
        <ExtentRef id="1520" />
        <ExtentRef id="1521" />
        <ExtentRef id="1522" />
        <ExtentRef id="1523" />
        <ExtentRef id="1524" />
        <ExtentRef id="1525" />
        <ExtentRef id="1526" />
        <ExtentRef id="1527" />
        <ExtentRef id="1528" />
        <ExtentRef id="1529" />
        <ExtentRef id="1530" />
        <ExtentRef id="1531" />
        <ExtentRef id="1532" />
        <ExtentRef id="1533" />
        <ExtentRef id="1534" />
        <ExtentRef id="1535" />
        <ExtentRef id="1536" />
        <ExtentRef id="1537" />
        <ExtentRef id="1538" />
        <ExtentRef id="1539" />
        <ExtentRef id="1540" />
        <ExtentRef id="1541" />
        <ExtentRef id="1542" />
        <ExtentRef id="1543" />
        <ExtentRef id="1544" />
        <ExtentRef id="1545" />
        <ExtentRef id="1546" />
        <ExtentRef id="1547" />
        <ExtentRef id="1548" />
        <ExtentRef id="1549" />
        <ExtentRef id="1550" />
        <ExtentRef id="1551" />
        <ExtentRef id="1552" />
        <ExtentRef id="1553" />
        <ExtentRef id="1554" />
        <ExtentRef id="1555" />
        <ExtentRef id="1556" />
        <ExtentRef id="1557" />
        <ExtentRef id="1558" />
        <ExtentRef id="1559" />
        <ExtentRef id="1560" />
        <ExtentRef id="1561" />
        <ExtentRef id="1562" />
        <ExtentRef id="1563" />
        <ExtentRef id="1564" />
        <ExtentRef id="1565" />
        <ExtentRef id="1566" />
        <ExtentRef id="1567" />
        <ExtentRef id="1568" />
        <ExtentRef id="1569" />
        <ExtentRef id="1570" />
        <ExtentRef id="1571" />
        <ExtentRef id="1572" />
        <ExtentRef id="1573" />
        <ExtentRef id="1574" />
        <ExtentRef id="1575" />
        <ExtentRef id="1576" />
        <ExtentRef id="1577" />
        <ExtentRef id="1578" />
        <ExtentRef id="1579" />
        <ExtentRef id="1580" />
        <ExtentRef id="1581" />
        <ExtentRef id="1582" />
        <ExtentRef id="1583" />
        <ExtentRef id="1584" />
        <ExtentRef id="1585" />
        <ExtentRef id="1586" />
        <ExtentRef id="1587" />
        <ExtentRef id="1588" />
        <ExtentRef id="1589" />
        <ExtentRef id="1590" />
        <ExtentRef id="1591" />
        <ExtentRef id="1592" />
        <ExtentRef id="1593" />
        <ExtentRef id="1594" />
        <ExtentRef id="1595" />
        <ExtentRef id="1596" />
        <ExtentRef id="1597" />
        <ExtentRef id="1598" />
        <ExtentRef id="1599" />
        <ExtentRef id="1600" />
        <ExtentRef id="1601" />
        <ExtentRef id="1602" />
        <ExtentRef id="1603" />
        <ExtentRef id="1604" />
        <ExtentRef id="1605" />
        <ExtentRef id="1606" />
        <ExtentRef id="1607" />
        <ExtentRef id="1608" />
        <ExtentRef id="1609" />
        <ExtentRef id="1610" />
        <ExtentRef id="1611" />
        <ExtentRef id="1612" />
        <ExtentRef id="1613" />
        <ExtentRef id="1614" />
        <ExtentRef id="1615" />
        <ExtentRef id="1616" />
        <ExtentRef id="1617" />
        <ExtentRef id="1618" />
        <ExtentRef id="1619" />
        <ExtentRef id="1620" />
        <ExtentRef id="1621" />
        <ExtentRef id="1622" />
        <ExtentRef id="1623" />
        <ExtentRef id="1624" />
        <ExtentRef id="1625" />
        <ExtentRef id="1626" />
        <ExtentRef id="1627" />
        <ExtentRef id="1628" />
        <ExtentRef id="1629" />
        <ExtentRef id="1630" />
        <ExtentRef id="1631" />
        <ExtentRef id="1632" />
        <ExtentRef id="1633" />
        <ExtentRef id="1634" />
        <ExtentRef id="1635" />
        <ExtentRef id="1636" />
        <ExtentRef id="1637" />
        <ExtentRef id="1638" />
        <ExtentRef id="1639" />
        <ExtentRef id="1640" />
        <ExtentRef id="1641" />
        <ExtentRef id="1642" />
        <ExtentRef id="1643" />
        <ExtentRef id="1644" />
        <ExtentRef id="1645" />
        <ExtentRef id="1646" />
        <ExtentRef id="1647" />
        <ExtentRef id="1648" />
        <ExtentRef id="1649" />
        <ExtentRef id="1650" />
        <ExtentRef id="1651" />
        <ExtentRef id="1652" />
        <ExtentRef id="1653" />
        <ExtentRef id="1654" />
        <ExtentRef id="1655" />
        <ExtentRef id="1656" />
        <ExtentRef id="1657" />
        <ExtentRef id="1658" />
        <ExtentRef id="1659" />
        <ExtentRef id="1660" />
        <ExtentRef id="1661" />
        <ExtentRef id="1662" />
        <ExtentRef id="1663" />
        <ExtentRef id="1664" />
        <ExtentRef id="1665" />
        <ExtentRef id="1666" />
        <ExtentRef id="1667" />
        <ExtentRef id="1668" />
        <ExtentRef id="1669" />
        <ExtentRef id="1670" />
        <ExtentRef id="1671" />
        <ExtentRef id="1672" />
        <ExtentRef id="1673" />
        <ExtentRef id="1674" />
        <ExtentRef id="1675" />
        <ExtentRef id="1676" />
        <ExtentRef id="1677" />
        <ExtentRef id="1678" />
        <ExtentRef id="1679" />
        <ExtentRef id="1680" />
        <ExtentRef id="1681" />
        <ExtentRef id="1682" />
        <ExtentRef id="1683" />
        <ExtentRef id="1684" />
        <ExtentRef id="1685" />
        <ExtentRef id="1686" />
        <ExtentRef id="1687" />
        <ExtentRef id="1688" />
        <ExtentRef id="1689" />
        <ExtentRef id="1690" />
        <ExtentRef id="1691" />
        <ExtentRef id="1692" />
        <ExtentRef id="1693" />
        <ExtentRef id="1694" />
        <ExtentRef id="1695" />
        <ExtentRef id="1696" />
        <ExtentRef id="1697" />
        <ExtentRef id="1698" />
        <ExtentRef id="1699" />
        <ExtentRef id="1700" />
        <ExtentRef id="1701" />
        <ExtentRef id="1702" />
        <ExtentRef id="1703" />
        <ExtentRef id="1704" />
        <ExtentRef id="1705" />
        <ExtentRef id="1706" />
        <ExtentRef id="1707" />
        <ExtentRef id="1708" />
        <ExtentRef id="1709" />
        <ExtentRef id="1710" />
        <ExtentRef id="1711" />
        <ExtentRef id="1712" />
        <ExtentRef id="1713" />
        <ExtentRef id="1714" />
        <ExtentRef id="1715" />
        <ExtentRef id="1716" />
        <ExtentRef id="1717" />
        <ExtentRef id="1718" />
        <ExtentRef id="1719" />
        <ExtentRef id="1720" />
        <ExtentRef id="1721" />
        <ExtentRef id="1722" />
        <ExtentRef id="1723" />
        <ExtentRef id="1724" />
        <ExtentRef id="1725" />
        <ExtentRef id="1726" />
        <ExtentRef id="1727" />
        <ExtentRef id="1728" />
        <ExtentRef id="1729" />
        <ExtentRef id="1730" />
        <ExtentRef id="1731" />
        <ExtentRef id="1732" />
        <ExtentRef id="1733" />
        <ExtentRef id="1734" />
        <ExtentRef id="1735" />
        <ExtentRef id="1736" />
        <ExtentRef id="1737" />
        <ExtentRef id="1738" />
        <ExtentRef id="1739" />
        <ExtentRef id="1740" />
        <ExtentRef id="1741" />
        <ExtentRef id="1742" />
        <ExtentRef id="1743" />
        <ExtentRef id="1744" />
        <ExtentRef id="1745" />
        <ExtentRef id="1746" />
        <ExtentRef id="1747" />
        <ExtentRef id="1748" />
        <ExtentRef id="1749" />
        <ExtentRef id="1750" />
        <ExtentRef id="1751" />
        <ExtentRef id="1752" />
        <ExtentRef id="1753" />
        <ExtentRef id="1754" />
        <ExtentRef id="1755" />
        <ExtentRef id="1756" />
        <ExtentRef id="1757" />
        <ExtentRef id="1758" />
        <ExtentRef id="1759" />
        <ExtentRef id="1760" />
        <ExtentRef id="1761" />
        <ExtentRef id="1762" />
        <ExtentRef id="1763" />
        <ExtentRef id="1764" />
        <ExtentRef id="1765" />
        <ExtentRef id="1766" />
        <ExtentRef id="1767" />
        <ExtentRef id="1768" />
        <ExtentRef id="1769" />
        <ExtentRef id="1770" />
        <ExtentRef id="1771" />
        <ExtentRef id="1772" />
        <ExtentRef id="1773" />
        <ExtentRef id="1774" />
        <ExtentRef id="1775" />
        <ExtentRef id="1776" />
        <ExtentRef id="1777" />
        <ExtentRef id="1778" />
        <ExtentRef id="1779" />
        <ExtentRef id="1780" />
        <ExtentRef id="1781" />
        <ExtentRef id="1782" />
        <ExtentRef id="1783" />
        <ExtentRef id="1784" />
        <ExtentRef id="1785" />
        <ExtentRef id="1786" />
        <ExtentRef id="1787" />
        <ExtentRef id="1788" />
        <ExtentRef id="1789" />
        <ExtentRef id="1790" />
        <ExtentRef id="1791" />
        <ExtentRef id="1792" />
        <ExtentRef id="1793" />
        <ExtentRef id="1794" />
        <ExtentRef id="1795" />
        <ExtentRef id="1796" />
        <ExtentRef id="1797" />
        <ExtentRef id="1798" />
        <ExtentRef id="1799" />
        <ExtentRef id="1800" />
        <ExtentRef id="1801" />
        <ExtentRef id="1802" />
        <ExtentRef id="1803" />
        <ExtentRef id="1804" />
        <ExtentRef id="1805" />
        <ExtentRef id="1806" />
        <ExtentRef id="1807" />
        <ExtentRef id="1808" />
        <ExtentRef id="1809" />
        <ExtentRef id="1810" />
        <ExtentRef id="1811" />
        <ExtentRef id="1812" />
        <ExtentRef id="1813" />
        <ExtentRef id="1814" />
        <ExtentRef id="1815" />
        <ExtentRef id="1816" />
        <ExtentRef id="1817" />
        <ExtentRef id="1818" />
        <ExtentRef id="1819" />
        <ExtentRef id="1820" />
        <ExtentRef id="1821" />
        <ExtentRef id="1822" />
        <ExtentRef id="1823" />
        <ExtentRef id="1824" />
        <ExtentRef id="1825" />
        <ExtentRef id="1826" />
        <ExtentRef id="1827" />
        <ExtentRef id="1828" />
        <ExtentRef id="1829" />
        <ExtentRef id="1830" />
        <ExtentRef id="1831" />
        <ExtentRef id="1832" />
        <ExtentRef id="1833" />
        <ExtentRef id="1834" />
        <ExtentRef id="1835" />
        <ExtentRef id="1836" />
        <ExtentRef id="1837" />
        <ExtentRef id="1838" />
        <ExtentRef id="1839" />
        <ExtentRef id="1840" />
        <ExtentRef id="1841" />
        <ExtentRef id="1842" />
        <ExtentRef id="1843" />
        <ExtentRef id="1844" />
        <ExtentRef id="1845" />
        <ExtentRef id="1846" />
        <ExtentRef id="1847" />
        <ExtentRef id="1848" />
        <ExtentRef id="1849" />
        <ExtentRef id="1850" />
        <ExtentRef id="1851" />
        <ExtentRef id="1852" />
        <ExtentRef id="1853" />
        <ExtentRef id="1854" />
        <ExtentRef id="1855" />
        <ExtentRef id="1856" />
        <ExtentRef id="1857" />
        <ExtentRef id="1858" />
        <ExtentRef id="1859" />
        <ExtentRef id="1860" />
        <ExtentRef id="1861" />
        <ExtentRef id="1862" />
        <ExtentRef id="1863" />
        <ExtentRef id="1864" />
        <ExtentRef id="1865" />
        <ExtentRef id="1866" />
        <ExtentRef id="1867" />
        <ExtentRef id="1868" />
        <ExtentRef id="1869" />
        <ExtentRef id="1870" />
        <ExtentRef id="1871" />
        <ExtentRef id="1872" />
        <ExtentRef id="1873" />
        <ExtentRef id="1874" />
        <ExtentRef id="1875" />
        <ExtentRef id="1876" />
        <ExtentRef id="1877" />
        <ExtentRef id="1878" />
        <ExtentRef id="1879" />
        <ExtentRef id="1880" />
        <ExtentRef id="1881" />
        <ExtentRef id="1882" />
        <ExtentRef id="1883" />
        <ExtentRef id="1884" />
        <ExtentRef id="1885" />
        <ExtentRef id="1886" />
        <ExtentRef id="1887" />
        <ExtentRef id="1888" />
        <ExtentRef id="1889" />
        <ExtentRef id="1890" />
        <ExtentRef id="1891" />
        <ExtentRef id="1892" />
        <ExtentRef id="1893" />
        <ExtentRef id="1894" />
        <ExtentRef id="1895" />
        <ExtentRef id="1896" />
        <ExtentRef id="1897" />
        <ExtentRef id="1898" />
        <ExtentRef id="1899" />
        <ExtentRef id="1900" />
        <ExtentRef id="1901" />
        <ExtentRef id="1902" />
        <ExtentRef id="1903" />
        <ExtentRef id="1904" />
        <ExtentRef id="1905" />
        <ExtentRef id="1906" />
        <ExtentRef id="1907" />
        <ExtentRef id="1908" />
        <ExtentRef id="1909" />
        <ExtentRef id="1910" />
        <ExtentRef id="1911" />
        <ExtentRef id="1912" />
        <ExtentRef id="1913" />
        <ExtentRef id="1914" />
        <ExtentRef id="1915" />
        <ExtentRef id="1916" />
        <ExtentRef id="1917" />
        <ExtentRef id="1918" />
        <ExtentRef id="1919" />
        <ExtentRef id="1920" />
        <ExtentRef id="1921" />
        <ExtentRef id="1922" />
        <ExtentRef id="1923" />
        <ExtentRef id="1924" />
        <ExtentRef id="1925" />
        <ExtentRef id="1926" />
        <ExtentRef id="1927" />
        <ExtentRef id="1928" />
        <ExtentRef id="1929" />
        <ExtentRef id="1930" />
        <ExtentRef id="1931" />
        <ExtentRef id="1932" />
        <ExtentRef id="1933" />
        <ExtentRef id="1934" />
        <ExtentRef id="1935" />
        <ExtentRef id="1936" />
        <ExtentRef id="1937" />
        <ExtentRef id="1938" />
        <ExtentRef id="1939" />
        <ExtentRef id="1940" />
        <ExtentRef id="1941" />
        <ExtentRef id="1942" />
        <ExtentRef id="1943" />
        <ExtentRef id="1944" />
        <ExtentRef id="1945" />
        <ExtentRef id="1946" />
        <ExtentRef id="1947" />
        <ExtentRef id="1948" />
        <ExtentRef id="1949" />
        <ExtentRef id="1950" />
        <ExtentRef id="1951" />
        <ExtentRef id="1952" />
        <ExtentRef id="1953" />
        <ExtentRef id="1954" />
        <ExtentRef id="1955" />
        <ExtentRef id="1956" />
        <ExtentRef id="1957" />
        <ExtentRef id="1958" />
        <ExtentRef id="1959" />
        <ExtentRef id="1960" />
        <ExtentRef id="1961" />
        <ExtentRef id="1962" />
        <ExtentRef id="1963" />
        <ExtentRef id="1964" />
        <ExtentRef id="1965" />
        <ExtentRef id="1966" />
        <ExtentRef id="1967" />
        <ExtentRef id="1968" />
        <ExtentRef id="1969" />
        <ExtentRef id="1970" />
        <ExtentRef id="1971" />
        <ExtentRef id="1972" />
        <ExtentRef id="1973" />
        <ExtentRef id="1974" />
        <ExtentRef id="1975" />
        <ExtentRef id="1976" />
        <ExtentRef id="1977" />
        <ExtentRef id="1978" />
        <ExtentRef id="1979" />
        <ExtentRef id="1980" />
        <ExtentRef id="1981" />
        <ExtentRef id="1982" />
        <ExtentRef id="1983" />
        <ExtentRef id="1984" />
        <ExtentRef id="1985" />
        <ExtentRef id="1986" />
        <ExtentRef id="1987" />
        <ExtentRef id="1988" />
        <ExtentRef id="1989" />
        <ExtentRef id="1990" />
        <ExtentRef id="1991" />
        <ExtentRef id="1992" />
        <ExtentRef id="1993" />
        <ExtentRef id="1994" />
        <ExtentRef id="1995" />
        <ExtentRef id="1996" />
        <ExtentRef id="1997" />
        <ExtentRef id="1998" />
        <ExtentRef id="1999" />
        <ExtentRef id="2000" />
        <ExtentRef id="2001" />
        <ExtentRef id="2002" />
        <ExtentRef id="2003" />
        <ExtentRef id="2004" />
        <ExtentRef id="2005" />
        <ExtentRef id="2006" />
        <ExtentRef id="2007" />
        <ExtentRef id="2008" />
        <ExtentRef id="2009" />
        <ExtentRef id="2010" />
        <ExtentRef id="2011" />
        <ExtentRef id="2012" />
        <ExtentRef id="2013" />
        <ExtentRef id="2014" />
        <ExtentRef id="2015" />
        <ExtentRef id="2016" />
        <ExtentRef id="2017" />
        <ExtentRef id="2018" />
        <ExtentRef id="2019" />
        <ExtentRef id="2020" />
        <ExtentRef id="2021" />
        <ExtentRef id="2022" />
        <ExtentRef id="2023" />
        <ExtentRef id="2024" />
        <ExtentRef id="2025" />
        <ExtentRef id="2026" />
        <ExtentRef id="2027" />
        <ExtentRef id="2028" />
        <ExtentRef id="2029" />
        <ExtentRef id="2030" />
        <ExtentRef id="2031" />
        <ExtentRef id="2032" />
        <ExtentRef id="2033" />
        <ExtentRef id="2034" />
        <ExtentRef id="2035" />
        <ExtentRef id="2036" />
        <ExtentRef id="2037" />
        <ExtentRef id="2038" />
        <ExtentRef id="2039" />
        <ExtentRef id="2040" />
        <ExtentRef id="2041" />
        <ExtentRef id="2042" />
        <ExtentRef id="2043" />
        <ExtentRef id="2044" />
        <ExtentRef id="2045" />
        <ExtentRef id="2046" />
        <ExtentRef id="2047" />
        <ExtentRef id="2048" />
        <ExtentRef id="2049" />
        <ExtentRef id="2050" />
        <ExtentRef id="2051" />
        <ExtentRef id="2052" />
        <ExtentRef id="2053" />
        <ExtentRef id="2054" />
        <ExtentRef id="2055" />
        <ExtentRef id="2056" />
        <ExtentRef id="2057" />
        <ExtentRef id="2058" />
        <ExtentRef id="2059" />
        <ExtentRef id="2060" />
        <ExtentRef id="2061" />
        <ExtentRef id="2062" />
        <ExtentRef id="2063" />
        <ExtentRef id="2064" />
        <ExtentRef id="2065" />
        <ExtentRef id="2066" />
        <ExtentRef id="2067" />
        <ExtentRef id="2068" />
        <ExtentRef id="2069" />
        <ExtentRef id="2070" />
        <ExtentRef id="2071" />
        <ExtentRef id="2072" />
        <ExtentRef id="2073" />
        <ExtentRef id="2074" />
        <ExtentRef id="2075" />
        <ExtentRef id="2076" />
        <ExtentRef id="2077" />
        <ExtentRef id="2078" />
        <ExtentRef id="2079" />
        <ExtentRef id="2080" />
        <ExtentRef id="2081" />
        <ExtentRef id="2082" />
        <ExtentRef id="2083" />
        <ExtentRef id="2084" />
        <ExtentRef id="2085" />
        <ExtentRef id="2086" />
        <ExtentRef id="2087" />
        <ExtentRef id="2088" />
        <ExtentRef id="2089" />
        <ExtentRef id="2090" />
        <ExtentRef id="2091" />
        <ExtentRef id="2092" />
        <ExtentRef id="2093" />
        <ExtentRef id="2094" />
        <ExtentRef id="2095" />
        <ExtentRef id="2096" />
        <ExtentRef id="2097" />
        <ExtentRef id="2098" />
        <ExtentRef id="2099" />
        <ExtentRef id="2100" />
        <ExtentRef id="2101" />
        <ExtentRef id="2102" />
        <ExtentRef id="2103" />
        <ExtentRef id="2104" />
        <ExtentRef id="2105" />
        <ExtentRef id="2106" />
        <ExtentRef id="2107" />
        <ExtentRef id="2108" />
        <ExtentRef id="2109" />
        <ExtentRef id="2110" />
        <ExtentRef id="2111" />
        <ExtentRef id="2112" />
        <ExtentRef id="2113" />
        <ExtentRef id="2114" />
        <ExtentRef id="2115" />
        <ExtentRef id="2116" />
        <ExtentRef id="2117" />
        <ExtentRef id="2118" />
        <ExtentRef id="2119" />
        <ExtentRef id="2120" />
        <ExtentRef id="2121" />
        <ExtentRef id="2122" />
        <ExtentRef id="2123" />
        <ExtentRef id="2124" />
        <ExtentRef id="2125" />
        <ExtentRef id="2126" />
        <ExtentRef id="2127" />
        <ExtentRef id="2128" />
        <ExtentRef id="2129" />
        <ExtentRef id="2130" />
        <ExtentRef id="2131" />
        <ExtentRef id="2132" />
        <ExtentRef id="2133" />
        <ExtentRef id="2134" />
        <ExtentRef id="2135" />
        <ExtentRef id="2136" />
        <ExtentRef id="2137" />
        <ExtentRef id="2138" />
        <ExtentRef id="2139" />
        <ExtentRef id="2140" />
        <ExtentRef id="2141" />
        <ExtentRef id="2142" />
        <ExtentRef id="2143" />
        <ExtentRef id="2144" />
        <ExtentRef id="2145" />
        <ExtentRef id="2146" />
        <ExtentRef id="2147" />
        <ExtentRef id="2148" />
        <ExtentRef id="2149" />
        <ExtentRef id="2150" />
        <ExtentRef id="2151" />
        <ExtentRef id="2152" />
        <ExtentRef id="2153" />
        <ExtentRef id="2154" />
        <ExtentRef id="2155" />
        <ExtentRef id="2156" />
        <ExtentRef id="2157" />
        <ExtentRef id="2158" />
        <ExtentRef id="2159" />
        <ExtentRef id="2160" />
        <ExtentRef id="2161" />
        <ExtentRef id="2162" />
        <ExtentRef id="2163" />
        <ExtentRef id="2164" />
        <ExtentRef id="2165" />
        <ExtentRef id="2166" />
        <ExtentRef id="2167" />
        <ExtentRef id="2168" />
        <ExtentRef id="2169" />
        <ExtentRef id="2170" />
        <ExtentRef id="2171" />
        <ExtentRef id="2172" />
        <ExtentRef id="2173" />
        <ExtentRef id="2174" />
        <ExtentRef id="2175" />
        <ExtentRef id="2176" />
        <ExtentRef id="2177" />
        <ExtentRef id="2178" />
        <ExtentRef id="2179" />
        <ExtentRef id="2180" />
        <ExtentRef id="2181" />
        <ExtentRef id="2182" />
        <ExtentRef id="2183" />
        <ExtentRef id="2184" />
        <ExtentRef id="2185" />
        <ExtentRef id="2186" />
        <ExtentRef id="2187" />
        <ExtentRef id="2188" />
        <ExtentRef id="2189" />
        <ExtentRef id="2190" />
        <ExtentRef id="2191" />
        <ExtentRef id="2192" />
        <ExtentRef id="2193" />
        <ExtentRef id="2194" />
        <ExtentRef id="2195" />
        <ExtentRef id="2196" />
        <ExtentRef id="2197" />
        <ExtentRef id="2198" />
        <ExtentRef id="2199" />
        <ExtentRef id="2200" />
        <ExtentRef id="2201" />
        <ExtentRef id="2202" />
        <ExtentRef id="2203" />
        <ExtentRef id="2204" />
        <ExtentRef id="2205" />
        <ExtentRef id="2206" />
        <ExtentRef id="2207" />
        <ExtentRef id="2208" />
        <ExtentRef id="2209" />
        <ExtentRef id="2210" />
        <ExtentRef id="2211" />
        <ExtentRef id="2212" />
        <ExtentRef id="2213" />
        <ExtentRef id="2214" />
        <ExtentRef id="2215" />
        <ExtentRef id="2216" />
        <ExtentRef id="2217" />
        <ExtentRef id="2218" />
        <ExtentRef id="2219" />
        <ExtentRef id="2220" />
        <ExtentRef id="2221" />
        <ExtentRef id="2222" />
        <ExtentRef id="2223" />
        <ExtentRef id="2224" />
        <ExtentRef id="2225" />
        <ExtentRef id="2226" />
        <ExtentRef id="2227" />
        <ExtentRef id="2228" />
        <ExtentRef id="2229" />
        <ExtentRef id="2230" />
        <ExtentRef id="2231" />
        <ExtentRef id="2232" />
        <ExtentRef id="2233" />
        <ExtentRef id="2234" />
        <ExtentRef id="2235" />
        <ExtentRef id="2236" />
        <ExtentRef id="2237" />
        <ExtentRef id="2238" />
        <ExtentRef id="2239" />
        <ExtentRef id="2240" />
        <ExtentRef id="2241" />
        <ExtentRef id="2242" />
        <ExtentRef id="2243" />
        <ExtentRef id="2244" />
        <ExtentRef id="2245" />
        <ExtentRef id="2246" />
        <ExtentRef id="2247" />
        <ExtentRef id="2248" />
        <ExtentRef id="2249" />
        <ExtentRef id="2250" />
        <ExtentRef id="2251" />
        <ExtentRef id="2252" />
        <ExtentRef id="2253" />
        <ExtentRef id="2254" />
        <ExtentRef id="2255" />
        <ExtentRef id="2256" />
        <ExtentRef id="2257" />
        <ExtentRef id="2258" />
        <ExtentRef id="2259" />
        <ExtentRef id="2260" />
        <ExtentRef id="2261" />
        <ExtentRef id="2262" />
        <ExtentRef id="2263" />
        <ExtentRef id="2264" />
        <ExtentRef id="2265" />
        <ExtentRef id="2266" />
        <ExtentRef id="2267" />
        <ExtentRef id="2268" />
        <ExtentRef id="2269" />
        <ExtentRef id="2270" />
        <ExtentRef id="2271" />
        <ExtentRef id="2272" />
        <ExtentRef id="2273" />
        <ExtentRef id="2274" />
        <ExtentRef id="2275" />
        <ExtentRef id="2276" />
        <ExtentRef id="2277" />
        <ExtentRef id="2278" />
        <ExtentRef id="2279" />
        <ExtentRef id="2280" />
        <ExtentRef id="2281" />
        <ExtentRef id="2282" />
        <ExtentRef id="2283" />
        <ExtentRef id="2284" />
        <ExtentRef id="2285" />
        <ExtentRef id="2286" />
        <ExtentRef id="2287" />
        <ExtentRef id="2288" />
        <ExtentRef id="2289" />
        <ExtentRef id="2290" />
        <ExtentRef id="2291" />
        <ExtentRef id="2292" />
        <ExtentRef id="2293" />
        <ExtentRef id="2294" />
        <ExtentRef id="2295" />
        <ExtentRef id="2296" />
        <ExtentRef id="2297" />
        <ExtentRef id="2298" />
        <ExtentRef id="2299" />
        <ExtentRef id="2300" />
        <ExtentRef id="2301" />
        <ExtentRef id="2302" />
        <ExtentRef id="2303" />
        <ExtentRef id="2304" />
        <ExtentRef id="2305" />
        <ExtentRef id="2306" />
        <ExtentRef id="2307" />
        <ExtentRef id="2308" />
        <ExtentRef id="2309" />
        <ExtentRef id="2310" />
        <ExtentRef id="2311" />
        <ExtentRef id="2312" />
        <ExtentRef id="2313" />
        <ExtentRef id="2314" />
        <ExtentRef id="2315" />
        <ExtentRef id="2316" />
        <ExtentRef id="2317" />
        <ExtentRef id="2318" />
        <ExtentRef id="2319" />
        <ExtentRef id="2320" />
        <ExtentRef id="2321" />
        <ExtentRef id="2322" />
        <ExtentRef id="2323" />
        <ExtentRef id="2324" />
        <ExtentRef id="2325" />
        <ExtentRef id="2326" />
        <ExtentRef id="2327" />
        <ExtentRef id="2328" />
        <ExtentRef id="2329" />
        <ExtentRef id="2330" />
        <ExtentRef id="2331" />
        <ExtentRef id="2332" />
        <ExtentRef id="2333" />
        <ExtentRef id="2334" />
        <ExtentRef id="2335" />
        <ExtentRef id="2336" />
        <ExtentRef id="2337" />
        <ExtentRef id="2338" />
        <ExtentRef id="2339" />
        <ExtentRef id="2340" />
        <ExtentRef id="2341" />
        <ExtentRef id="2342" />
        <ExtentRef id="2343" />
        <ExtentRef id="2344" />
        <ExtentRef id="2345" />
        <ExtentRef id="2346" />
        <ExtentRef id="2347" />
        <ExtentRef id="2348" />
        <ExtentRef id="2349" />
        <ExtentRef id="2350" />
        <ExtentRef id="2351" />
        <ExtentRef id="2352" />
        <ExtentRef id="2353" />
        <ExtentRef id="2354" />
        <ExtentRef id="2355" />
        <ExtentRef id="2356" />
        <ExtentRef id="2357" />
        <ExtentRef id="2358" />
        <ExtentRef id="2359" />
        <ExtentRef id="2360" />
        <ExtentRef id="2361" />
        <ExtentRef id="2362" />
        <ExtentRef id="2363" />
        <ExtentRef id="2364" />
        <ExtentRef id="2365" />
        <ExtentRef id="2366" />
        <ExtentRef id="2367" />
        <ExtentRef id="2368" />
        <ExtentRef id="2369" />
        <ExtentRef id="2370" />
        <ExtentRef id="2371" />
        <ExtentRef id="2372" />
        <ExtentRef id="2373" />
        <ExtentRef id="2374" />
        <ExtentRef id="2375" />
        <ExtentRef id="2376" />
        <ExtentRef id="2377" />
        <ExtentRef id="2378" />
        <ExtentRef id="2379" />
        <ExtentRef id="2380" />
        <ExtentRef id="2381" />
        <ExtentRef id="2382" />
        <ExtentRef id="2383" />
        <ExtentRef id="2384" />
        <ExtentRef id="2385" />
        <ExtentRef id="2386" />
        <ExtentRef id="2387" />
        <ExtentRef id="2388" />
        <ExtentRef id="2389" />
        <ExtentRef id="2390" />
        <ExtentRef id="2391" />
        <ExtentRef id="2392" />
        <ExtentRef id="2393" />
        <ExtentRef id="2394" />
        <ExtentRef id="2395" />
        <ExtentRef id="2396" />
        <ExtentRef id="2397" />
        <ExtentRef id="2398" />
        <ExtentRef id="2399" />
        <ExtentRef id="2400" />
        <ExtentRef id="2401" />
        <ExtentRef id="2402" />
        <ExtentRef id="2403" />
        <ExtentRef id="2404" />
        <ExtentRef id="2405" />
        <ExtentRef id="2406" />
        <ExtentRef id="2407" />
        <ExtentRef id="2408" />
        <ExtentRef id="2409" />
        <ExtentRef id="2410" />
        <ExtentRef id="2411" />
        <ExtentRef id="2412" />
        <ExtentRef id="2413" />
        <ExtentRef id="2414" />
        <ExtentRef id="2415" />
        <ExtentRef id="2416" />
        <ExtentRef id="2417" />
        <ExtentRef id="2418" />
        <ExtentRef id="2419" />
        <ExtentRef id="2420" />
        <ExtentRef id="2421" />
        <ExtentRef id="2422" />
        <ExtentRef id="2423" />
        <ExtentRef id="2424" />
        <ExtentRef id="2425" />
        <ExtentRef id="2426" />
        <ExtentRef id="2427" />
        <ExtentRef id="2428" />
        <ExtentRef id="2429" />
        <ExtentRef id="2430" />
        <ExtentRef id="2431" />
        <ExtentRef id="2432" />
        <ExtentRef id="2433" />
        <ExtentRef id="2434" />
        <ExtentRef id="2435" />
        <ExtentRef id="2436" />
        <ExtentRef id="2437" />
        <ExtentRef id="2438" />
        <ExtentRef id="2439" />
        <ExtentRef id="2440" />
        <ExtentRef id="2441" />
        <ExtentRef id="2442" />
        <ExtentRef id="2443" />
        <ExtentRef id="2444" />
        <ExtentRef id="2445" />
        <ExtentRef id="2446" />
        <ExtentRef id="2447" />
        <ExtentRef id="2448" />
        <ExtentRef id="2449" />
        <ExtentRef id="2450" />
        <ExtentRef id="2451" />
        <ExtentRef id="2452" />
        <ExtentRef id="2453" />
        <ExtentRef id="2454" />
        <ExtentRef id="2455" />
        <ExtentRef id="2456" />
        <ExtentRef id="2457" />
        <ExtentRef id="2458" />
        <ExtentRef id="2459" />
        <ExtentRef id="2460" />
        <ExtentRef id="2461" />
        <ExtentRef id="2462" />
        <ExtentRef id="2463" />
        <ExtentRef id="2464" />
        <ExtentRef id="2465" />
        <ExtentRef id="2466" />
        <ExtentRef id="2467" />
        <ExtentRef id="2468" />
        <ExtentRef id="2469" />
        <ExtentRef id="2470" />
        <ExtentRef id="2471" />
        <ExtentRef id="2472" />
        <ExtentRef id="2473" />
        <ExtentRef id="2474" />
        <ExtentRef id="2475" />
        <ExtentRef id="2476" />
        <ExtentRef id="2477" />
        <ExtentRef id="2478" />
        <ExtentRef id="2479" />
        <ExtentRef id="2480" />
        <ExtentRef id="2481" />
        <ExtentRef id="2482" />
        <ExtentRef id="2483" />
        <ExtentRef id="2484" />
        <ExtentRef id="2485" />
        <ExtentRef id="2486" />
        <ExtentRef id="2487" />
        <ExtentRef id="2488" />
        <ExtentRef id="2489" />
        <ExtentRef id="2490" />
        <ExtentRef id="2491" />
        <ExtentRef id="2492" />
        <ExtentRef id="2493" />
        <ExtentRef id="2494" />
        <ExtentRef id="2495" />
        <ExtentRef id="2496" />
        <ExtentRef id="2497" />
        <ExtentRef id="2498" />
        <ExtentRef id="2499" />
        <ExtentRef id="2500" />
        <ExtentRef id="2501" />
        <ExtentRef id="2502" />
        <ExtentRef id="2503" />
        <ExtentRef id="2504" />
        <ExtentRef id="2505" />
        <ExtentRef id="2506" />
        <ExtentRef id="2507" />
        <ExtentRef id="2508" />
        <ExtentRef id="2509" />
        <ExtentRef id="2510" />
        <ExtentRef id="2511" />
        <ExtentRef id="2512" />
        <ExtentRef id="2513" />
        <ExtentRef id="2514" />
        <ExtentRef id="2515" />
        <ExtentRef id="2516" />
        <ExtentRef id="2517" />
        <ExtentRef id="2518" />
        <ExtentRef id="2519" />
        <ExtentRef id="2520" />
        <ExtentRef id="2521" />
        <ExtentRef id="2522" />
        <ExtentRef id="2523" />
        <ExtentRef id="2524" />
        <ExtentRef id="2525" />
        <ExtentRef id="2526" />
        <ExtentRef id="2527" />
        <ExtentRef id="2528" />
        <ExtentRef id="2529" />
        <ExtentRef id="2530" />
        <ExtentRef id="2531" />
        <ExtentRef id="2532" />
        <ExtentRef id="2533" />
        <ExtentRef id="2534" />
        <ExtentRef id="2535" />
        <ExtentRef id="2536" />
        <ExtentRef id="2537" />
        <ExtentRef id="2538" />
        <ExtentRef id="2539" />
        <ExtentRef id="2540" />
        <ExtentRef id="2541" />
        <ExtentRef id="2542" />
        <ExtentRef id="2543" />
        <ExtentRef id="2544" />
        <ExtentRef id="2545" />
        <ExtentRef id="2546" />
        <ExtentRef id="2547" />
        <ExtentRef id="2548" />
        <ExtentRef id="2549" />
        <ExtentRef id="2550" />
        <ExtentRef id="2551" />
        <ExtentRef id="2552" />
        <ExtentRef id="2553" />
        <ExtentRef id="2554" />
        <ExtentRef id="2555" />
        <ExtentRef id="2556" />
        <ExtentRef id="2557" />
        <ExtentRef id="2558" />
        <ExtentRef id="2559" />
        <ExtentRef id="2560" />
        <ExtentRef id="2561" />
        <ExtentRef id="2562" />
        <ExtentRef id="2563" />
        <ExtentRef id="2564" />
        <ExtentRef id="2565" />
        <ExtentRef id="2566" />
        <ExtentRef id="2567" />
        <ExtentRef id="2568" />
        <ExtentRef id="2569" />
        <ExtentRef id="2570" />
        <ExtentRef id="2571" />
        <ExtentRef id="2572" />
        <ExtentRef id="2573" />
        <ExtentRef id="2574" />
        <ExtentRef id="2575" />
        <ExtentRef id="2576" />
        <ExtentRef id="2577" />
        <ExtentRef id="2578" />
        <ExtentRef id="2579" />
        <ExtentRef id="2580" />
        <ExtentRef id="2581" />
        <ExtentRef id="2582" />
        <ExtentRef id="2583" />
        <ExtentRef id="2584" />
        <ExtentRef id="2585" />
        <ExtentRef id="2586" />
        <ExtentRef id="2587" />
        <ExtentRef id="2588" />
        <ExtentRef id="2589" />
        <ExtentRef id="2590" />
        <ExtentRef id="2591" />
        <ExtentRef id="2592" />
        <ExtentRef id="2593" />
        <ExtentRef id="2594" />
        <ExtentRef id="2595" />
        <ExtentRef id="2596" />
        <ExtentRef id="2597" />
        <ExtentRef id="2598" />
        <ExtentRef id="2599" />
        <ExtentRef id="2600" />
        <ExtentRef id="2601" />
        <ExtentRef id="2602" />
        <ExtentRef id="2603" />
        <ExtentRef id="2604" />
        <ExtentRef id="2605" />
        <ExtentRef id="2606" />
        <ExtentRef id="2607" />
        <ExtentRef id="2608" />
        <ExtentRef id="2609" />
        <ExtentRef id="2610" />
        <ExtentRef id="2611" />
        <ExtentRef id="2612" />
        <ExtentRef id="2613" />
        <ExtentRef id="2614" />
        <ExtentRef id="2615" />
        <ExtentRef id="2616" />
        <ExtentRef id="2617" />
        <ExtentRef id="2618" />
        <ExtentRef id="2619" />
        <ExtentRef id="2620" />
        <ExtentRef id="2621" />
        <ExtentRef id="2622" />
        <ExtentRef id="2623" />
        <ExtentRef id="2624" />
        <ExtentRef id="2625" />
        <ExtentRef id="2626" />
        <ExtentRef id="2627" />
        <ExtentRef id="2628" />
        <ExtentRef id="2629" />
        <ExtentRef id="2630" />
        <ExtentRef id="2631" />
        <ExtentRef id="2632" />
        <ExtentRef id="2633" />
        <ExtentRef id="2634" />
        <ExtentRef id="2635" />
        <ExtentRef id="2636" />
        <ExtentRef id="2637" />
        <ExtentRef id="2638" />
        <ExtentRef id="2639" />
        <ExtentRef id="2640" />
        <ExtentRef id="2641" />
        <ExtentRef id="2642" />
        <ExtentRef id="2643" />
        <ExtentRef id="2644" />
        <ExtentRef id="2645" />
        <ExtentRef id="2646" />
        <ExtentRef id="2647" />
        <ExtentRef id="2648" />
        <ExtentRef id="2649" />
        <ExtentRef id="2650" />
        <ExtentRef id="2651" />
        <ExtentRef id="2652" />
        <ExtentRef id="2653" />
        <ExtentRef id="2654" />
        <ExtentRef id="2655" />
        <ExtentRef id="2656" />
        <ExtentRef id="2657" />
        <ExtentRef id="2658" />
        <ExtentRef id="2659" />
        <ExtentRef id="2660" />
        <ExtentRef id="2661" />
        <ExtentRef id="2662" />
        <ExtentRef id="2663" />
        <ExtentRef id="2664" />
        <ExtentRef id="2665" />
        <ExtentRef id="2666" />
        <ExtentRef id="2667" />
        <ExtentRef id="2668" />
        <ExtentRef id="2669" />
        <ExtentRef id="2670" />
        <ExtentRef id="2671" />
        <ExtentRef id="2672" />
        <ExtentRef id="2673" />
        <ExtentRef id="2674" />
        <ExtentRef id="2675" />
        <ExtentRef id="2676" />
        <ExtentRef id="2677" />
        <ExtentRef id="2678" />
        <ExtentRef id="2679" />
        <ExtentRef id="2680" />
        <ExtentRef id="2681" />
        <ExtentRef id="2682" />
        <ExtentRef id="2683" />
        <ExtentRef id="2684" />
        <ExtentRef id="2685" />
        <ExtentRef id="2686" />
        <ExtentRef id="2687" />
        <ExtentRef id="2688" />
        <ExtentRef id="2689" />
        <ExtentRef id="2690" />
        <ExtentRef id="2691" />
        <ExtentRef id="2692" />
        <ExtentRef id="2693" />
        <ExtentRef id="2694" />
        <ExtentRef id="2695" />
        <ExtentRef id="2696" />
        <ExtentRef id="2697" />
        <ExtentRef id="2698" />
        <ExtentRef id="2699" />
        <ExtentRef id="2700" />
        <ExtentRef id="2701" />
        <ExtentRef id="2702" />
        <ExtentRef id="2703" />
        <ExtentRef id="2704" />
        <ExtentRef id="2705" />
        <ExtentRef id="2706" />
        <ExtentRef id="2707" />
        <ExtentRef id="2708" />
        <ExtentRef id="2709" />
        <ExtentRef id="2710" />
        <ExtentRef id="2711" />
        <ExtentRef id="2712" />
        <ExtentRef id="2713" />
        <ExtentRef id="2714" />
        <ExtentRef id="2715" />
        <ExtentRef id="2716" />
        <ExtentRef id="2717" />
        <ExtentRef id="2718" />
        <ExtentRef id="2719" />
        <ExtentRef id="2720" />
        <ExtentRef id="2721" />
        <ExtentRef id="2722" />
        <ExtentRef id="2723" />
        <ExtentRef id="2724" />
        <ExtentRef id="2725" />
        <ExtentRef id="2726" />
        <ExtentRef id="2727" />
        <ExtentRef id="2728" />
        <ExtentRef id="2729" />
        <ExtentRef id="2730" />
        <ExtentRef id="2731" />
        <ExtentRef id="2732" />
        <ExtentRef id="2733" />
        <ExtentRef id="2734" />
        <ExtentRef id="2735" />
        <ExtentRef id="2736" />
        <ExtentRef id="2737" />
        <ExtentRef id="2738" />
        <ExtentRef id="2739" />
        <ExtentRef id="2740" />
        <ExtentRef id="2741" />
        <ExtentRef id="2742" />
        <ExtentRef id="2743" />
        <ExtentRef id="2744" />
        <ExtentRef id="2745" />
        <ExtentRef id="2746" />
        <ExtentRef id="2747" />
        <ExtentRef id="2748" />
        <ExtentRef id="2749" />
        <ExtentRef id="2750" />
        <ExtentRef id="2751" />
        <ExtentRef id="2752" />
        <ExtentRef id="2753" />
        <ExtentRef id="2754" />
        <ExtentRef id="2755" />
        <ExtentRef id="2756" />
        <ExtentRef id="2757" />
        <ExtentRef id="2758" />
        <ExtentRef id="2759" />
        <ExtentRef id="2760" />
        <ExtentRef id="2761" />
        <ExtentRef id="2762" />
        <ExtentRef id="2763" />
        <ExtentRef id="2764" />
        <ExtentRef id="2765" />
        <ExtentRef id="2766" />
        <ExtentRef id="2767" />
        <ExtentRef id="2768" />
        <ExtentRef id="2769" />
        <ExtentRef id="2770" />
        <ExtentRef id="2771" />
        <ExtentRef id="2772" />
        <ExtentRef id="2773" />
        <ExtentRef id="2774" />
        <ExtentRef id="2775" />
        <ExtentRef id="2776" />
        <ExtentRef id="2777" />
        <ExtentRef id="2778" />
        <ExtentRef id="2779" />
        <ExtentRef id="2780" />
        <ExtentRef id="2781" />
        <ExtentRef id="2782" />
        <ExtentRef id="2783" />
        <ExtentRef id="2784" />
        <ExtentRef id="2785" />
        <ExtentRef id="2786" />
        <ExtentRef id="2787" />
        <ExtentRef id="2788" />
        <ExtentRef id="2789" />
        <ExtentRef id="2790" />
        <ExtentRef id="2791" />
        <ExtentRef id="2792" />
        <ExtentRef id="2793" />
        <ExtentRef id="2794" />
        <ExtentRef id="2795" />
        <ExtentRef id="2796" />
        <ExtentRef id="2797" />
        <ExtentRef id="2798" />
        <ExtentRef id="2799" />
        <ExtentRef id="2800" />
        <ExtentRef id="2801" />
        <ExtentRef id="2802" />
        <ExtentRef id="2803" />
        <ExtentRef id="2804" />
        <ExtentRef id="2805" />
        <ExtentRef id="2806" />
        <ExtentRef id="2807" />
        <ExtentRef id="2808" />
        <ExtentRef id="2809" />
        <ExtentRef id="2810" />
        <ExtentRef id="2811" />
        <ExtentRef id="2812" />
        <ExtentRef id="2813" />
        <ExtentRef id="2814" />
        <ExtentRef id="2815" />
        <ExtentRef id="2816" />
        <ExtentRef id="2817" />
        <ExtentRef id="2818" />
        <ExtentRef id="2819" />
        <ExtentRef id="2820" />
        <ExtentRef id="2821" />
        <ExtentRef id="2822" />
        <ExtentRef id="2823" />
        <ExtentRef id="2824" />
        <ExtentRef id="2825" />
        <ExtentRef id="2826" />
        <ExtentRef id="2827" />
        <ExtentRef id="2828" />
        <ExtentRef id="2829" />
        <ExtentRef id="2830" />
        <ExtentRef id="2831" />
        <ExtentRef id="2832" />
        <ExtentRef id="2833" />
        <ExtentRef id="2834" />
        <ExtentRef id="2835" />
        <ExtentRef id="2836" />
        <ExtentRef id="2837" />
        <ExtentRef id="2838" />
        <ExtentRef id="2839" />
        <ExtentRef id="2840" />
        <ExtentRef id="2841" />
        <ExtentRef id="2842" />
        <ExtentRef id="2843" />
        <ExtentRef id="2844" />
        <ExtentRef id="2845" />
        <ExtentRef id="2846" />
        <ExtentRef id="2847" />
        <ExtentRef id="2848" />
        <ExtentRef id="2849" />
        <ExtentRef id="2850" />
        <ExtentRef id="2851" />
        <ExtentRef id="2852" />
        <ExtentRef id="2853" />
        <ExtentRef id="2854" />
        <ExtentRef id="2855" />
        <ExtentRef id="2856" />
        <ExtentRef id="2857" />
        <ExtentRef id="2858" />
        <ExtentRef id="2859" />
        <ExtentRef id="2860" />
        <ExtentRef id="2861" />
        <ExtentRef id="2862" />
        <ExtentRef id="2863" />
        <ExtentRef id="2864" />
        <ExtentRef id="2865" />
        <ExtentRef id="2866" />
        <ExtentRef id="2867" />
        <ExtentRef id="2868" />
        <ExtentRef id="2869" />
        <ExtentRef id="2870" />
        <ExtentRef id="2871" />
        <ExtentRef id="2872" />
        <ExtentRef id="2873" />
        <ExtentRef id="2874" />
        <ExtentRef id="2875" />
        <ExtentRef id="2876" />
        <ExtentRef id="2877" />
        <ExtentRef id="2878" />
        <ExtentRef id="2879" />
        <ExtentRef id="2880" />
        <ExtentRef id="2881" />
        <ExtentRef id="2882" />
        <ExtentRef id="2883" />
        <ExtentRef id="2884" />
        <ExtentRef id="2885" />
        <ExtentRef id="2886" />
        <ExtentRef id="2887" />
        <ExtentRef id="2888" />
        <ExtentRef id="2889" />
        <ExtentRef id="2890" />
        <ExtentRef id="2891" />
        <ExtentRef id="2892" />
        <ExtentRef id="2893" />
        <ExtentRef id="2894" />
        <ExtentRef id="2895" />
        <ExtentRef id="2896" />
        <ExtentRef id="2897" />
        <ExtentRef id="2898" />
        <ExtentRef id="2899" />
        <ExtentRef id="2900" />
        <ExtentRef id="2901" />
        <ExtentRef id="2902" />
        <ExtentRef id="2903" />
        <ExtentRef id="2904" />
        <ExtentRef id="2905" />
        <ExtentRef id="2906" />
        <ExtentRef id="2907" />
        <ExtentRef id="2908" />
        <ExtentRef id="2909" />
        <ExtentRef id="2910" />
        <ExtentRef id="2911" />
        <ExtentRef id="2912" />
        <ExtentRef id="2913" />
        <ExtentRef id="2914" />
        <ExtentRef id="2915" />
        <ExtentRef id="2916" />
        <ExtentRef id="2917" />
        <ExtentRef id="2918" />
        <ExtentRef id="2919" />
        <ExtentRef id="2920" />
        <ExtentRef id="2921" />
        <ExtentRef id="2922" />
        <ExtentRef id="2923" />
        <ExtentRef id="2924" />
        <ExtentRef id="2925" />
        <ExtentRef id="2926" />
        <ExtentRef id="2927" />
        <ExtentRef id="2928" />
        <ExtentRef id="2929" />
        <ExtentRef id="2930" />
        <ExtentRef id="2931" />
        <ExtentRef id="2932" />
        <ExtentRef id="2933" />
        <ExtentRef id="2934" />
        <ExtentRef id="2935" />
        <ExtentRef id="2936" />
        <ExtentRef id="2937" />
        <ExtentRef id="2938" />
        <ExtentRef id="2939" />
        <ExtentRef id="2940" />
        <ExtentRef id="2941" />
        <ExtentRef id="2942" />
        <ExtentRef id="2943" />
        <ExtentRef id="2944" />
        <ExtentRef id="2945" />
        <ExtentRef id="2946" />
        <ExtentRef id="2947" />
        <ExtentRef id="2948" />
        <ExtentRef id="2949" />
        <ExtentRef id="2950" />
        <ExtentRef id="2951" />
        <ExtentRef id="2952" />
        <ExtentRef id="2953" />
        <ExtentRef id="2954" />
        <ExtentRef id="2955" />
        <ExtentRef id="2956" />
        <ExtentRef id="2957" />
        <ExtentRef id="2958" />
        <ExtentRef id="2959" />
        <ExtentRef id="2960" />
        <ExtentRef id="2961" />
        <ExtentRef id="2962" />
        <ExtentRef id="2963" />
        <ExtentRef id="2964" />
        <ExtentRef id="2965" />
        <ExtentRef id="2966" />
        <ExtentRef id="2967" />
        <ExtentRef id="2968" />
        <ExtentRef id="2969" />
        <ExtentRef id="2970" />
        <ExtentRef id="2971" />
        <ExtentRef id="2972" />
        <ExtentRef id="2973" />
        <ExtentRef id="2974" />
        <ExtentRef id="2975" />
        <ExtentRef id="2976" />
        <ExtentRef id="2977" />
        <ExtentRef id="2978" />
        <ExtentRef id="2979" />
        <ExtentRef id="2980" />
        <ExtentRef id="2981" />
        <ExtentRef id="2982" />
        <ExtentRef id="2983" />
        <ExtentRef id="2984" />
        <ExtentRef id="2985" />
        <ExtentRef id="2986" />
        <ExtentRef id="2987" />
        <ExtentRef id="2988" />
        <ExtentRef id="2989" />
        <ExtentRef id="2990" />
        <ExtentRef id="2991" />
        <ExtentRef id="2992" />
        <ExtentRef id="2993" />
        <ExtentRef id="2994" />
        <ExtentRef id="2995" />
        <ExtentRef id="2996" />
        <ExtentRef id="2997" />
        <ExtentRef id="2998" />
        <ExtentRef id="2999" />
        <ExtentRef id="3000" />
        <ExtentRef id="3001" />
        <ExtentRef id="3002" />
        <ExtentRef id="3003" />
        <ExtentRef id="3004" />
        <ExtentRef id="3005" />
        <ExtentRef id="3006" />
        <ExtentRef id="3007" />
        <ExtentRef id="3008" />
        <ExtentRef id="3009" />
        <ExtentRef id="3010" />
        <ExtentRef id="3011" />
        <ExtentRef id="3012" />
        <ExtentRef id="3013" />
        <ExtentRef id="3014" />
        <ExtentRef id="3015" />
        <ExtentRef id="3016" />
        <ExtentRef id="3017" />
        <ExtentRef id="3018" />
        <ExtentRef id="3019" />
        <ExtentRef id="3020" />
        <ExtentRef id="3021" />
        <ExtentRef id="3022" />
        <ExtentRef id="3023" />
        <ExtentRef id="3024" />
        <ExtentRef id="3025" />
        <ExtentRef id="3026" />
        <ExtentRef id="3027" />
        <ExtentRef id="3028" />
        <ExtentRef id="3029" />
        <ExtentRef id="3030" />
        <ExtentRef id="3031" />
        <ExtentRef id="3032" />
        <ExtentRef id="3033" />
        <ExtentRef id="3034" />
        <ExtentRef id="3035" />
        <ExtentRef id="3036" />
        <ExtentRef id="3037" />
        <ExtentRef id="3038" />
        <ExtentRef id="3039" />
        <ExtentRef id="3040" />
        <ExtentRef id="3041" />
        <ExtentRef id="3042" />
        <ExtentRef id="3043" />
        <ExtentRef id="3044" />
        <ExtentRef id="3045" />
        <ExtentRef id="3046" />
        <ExtentRef id="3047" />
        <ExtentRef id="3048" />
        <ExtentRef id="3049" />
        <ExtentRef id="3050" />
        <ExtentRef id="3051" />
        <ExtentRef id="3052" />
        <ExtentRef id="3053" />
        <ExtentRef id="3054" />
        <ExtentRef id="3055" />
        <ExtentRef id="3056" />
        <ExtentRef id="3057" />
        <ExtentRef id="3058" />
        <ExtentRef id="3059" />
        <ExtentRef id="3060" />
        <ExtentRef id="3061" />
        <ExtentRef id="3062" />
        <ExtentRef id="3063" />
        <ExtentRef id="3064" />
        <ExtentRef id="3065" />
        <ExtentRef id="3066" />
        <ExtentRef id="3067" />
        <ExtentRef id="3068" />
        <ExtentRef id="3069" />
        <ExtentRef id="3070" />
        <ExtentRef id="3071" />
        <ExtentRef id="3072" />
        <ExtentRef id="3073" />
        <ExtentRef id="3074" />
        <ExtentRef id="3075" />
        <ExtentRef id="3076" />
        <ExtentRef id="3077" />
        <ExtentRef id="3078" />
        <ExtentRef id="3079" />
        <ExtentRef id="3080" />
        <ExtentRef id="3081" />
        <ExtentRef id="3082" />
        <ExtentRef id="3083" />
        <ExtentRef id="3084" />
        <ExtentRef id="3085" />
        <ExtentRef id="3086" />
        <ExtentRef id="3087" />
        <ExtentRef id="3088" />
        <ExtentRef id="3089" />
        <ExtentRef id="3090" />
        <ExtentRef id="3091" />
        <ExtentRef id="3092" />
        <ExtentRef id="3093" />
        <ExtentRef id="3094" />
        <ExtentRef id="3095" />
        <ExtentRef id="3096" />
        <ExtentRef id="3097" />
        <ExtentRef id="3098" />
        <ExtentRef id="3099" />
        <ExtentRef id="3100" />
        <ExtentRef id="3101" />
        <ExtentRef id="3102" />
        <ExtentRef id="3103" />
        <ExtentRef id="3104" />
        <ExtentRef id="3105" />
        <ExtentRef id="3106" />
        <ExtentRef id="3107" />
        <ExtentRef id="3108" />
        <ExtentRef id="3109" />
        <ExtentRef id="3110" />
        <ExtentRef id="3111" />
        <ExtentRef id="3112" />
        <ExtentRef id="3113" />
        <ExtentRef id="3114" />
        <ExtentRef id="3115" />
        <ExtentRef id="3116" />
        <ExtentRef id="3117" />
        <ExtentRef id="3118" />
        <ExtentRef id="3119" />
        <ExtentRef id="3120" />
        <ExtentRef id="3121" />
        <ExtentRef id="3122" />
        <ExtentRef id="3123" />
        <ExtentRef id="3124" />
        <ExtentRef id="3125" />
        <ExtentRef id="3126" />
        <ExtentRef id="3127" />
        <ExtentRef id="3128" />
        <ExtentRef id="3129" />
        <ExtentRef id="3130" />
        <ExtentRef id="3131" />
        <ExtentRef id="3132" />
        <ExtentRef id="3133" />
        <ExtentRef id="3134" />
        <ExtentRef id="3135" />
        <ExtentRef id="3136" />
        <ExtentRef id="3137" />
        <ExtentRef id="3138" />
        <ExtentRef id="3139" />
        <ExtentRef id="3140" />
        <ExtentRef id="3141" />
        <ExtentRef id="3142" />
        <ExtentRef id="3143" />
        <ExtentRef id="3144" />
        <ExtentRef id="3145" />
        <ExtentRef id="3146" />
        <ExtentRef id="3147" />
        <ExtentRef id="3148" />
        <ExtentRef id="3149" />
        <ExtentRef id="3150" />
        <ExtentRef id="3151" />
        <ExtentRef id="3152" />
        <ExtentRef id="3153" />
        <ExtentRef id="3154" />
        <ExtentRef id="3155" />
        <ExtentRef id="3156" />
        <ExtentRef id="3157" />
        <ExtentRef id="3158" />
        <ExtentRef id="3159" />
        <ExtentRef id="3160" />
        <ExtentRef id="3161" />
        <ExtentRef id="3162" />
        <ExtentRef id="3163" />
        <ExtentRef id="3164" />
        <ExtentRef id="3165" />
        <ExtentRef id="3166" />
        <ExtentRef id="3167" />
        <ExtentRef id="3168" />
        <ExtentRef id="3169" />
        <ExtentRef id="3170" />
        <ExtentRef id="3171" />
        <ExtentRef id="3172" />
        <ExtentRef id="3173" />
        <ExtentRef id="3174" />
        <ExtentRef id="3175" />
        <ExtentRef id="3176" />
        <ExtentRef id="3177" />
        <ExtentRef id="3178" />
        <ExtentRef id="3179" />
        <ExtentRef id="3180" />
        <ExtentRef id="3181" />
        <ExtentRef id="3182" />
        <ExtentRef id="3183" />
        <ExtentRef id="3184" />
        <ExtentRef id="3185" />
        <ExtentRef id="3186" />
        <ExtentRef id="3187" />
        <ExtentRef id="3188" />
        <ExtentRef id="3189" />
        <ExtentRef id="3190" />
        <ExtentRef id="3191" />
        <ExtentRef id="3192" />
        <ExtentRef id="3193" />
        <ExtentRef id="3194" />
        <ExtentRef id="3195" />
        <ExtentRef id="3196" />
        <ExtentRef id="3197" />
        <ExtentRef id="3198" />
        <ExtentRef id="3199" />
        <ExtentRef id="3200" />
        <ExtentRef id="3201" />
        <ExtentRef id="3202" />
        <ExtentRef id="3203" />
        <ExtentRef id="3204" />
        <ExtentRef id="3205" />
        <ExtentRef id="3206" />
        <ExtentRef id="3207" />
        <ExtentRef id="3208" />
        <ExtentRef id="3209" />
        <ExtentRef id="3210" />
        <ExtentRef id="3211" />
        <ExtentRef id="3212" />
        <ExtentRef id="3213" />
        <ExtentRef id="3214" />
        <ExtentRef id="3215" />
        <ExtentRef id="3216" />
        <ExtentRef id="3217" />
        <ExtentRef id="3218" />
        <ExtentRef id="3219" />
        <ExtentRef id="3220" />
        <ExtentRef id="3221" />
        <ExtentRef id="3222" />
        <ExtentRef id="3223" />
        <ExtentRef id="3224" />
        <ExtentRef id="3225" />
        <ExtentRef id="3226" />
        <ExtentRef id="3227" />
        <ExtentRef id="3228" />
        <ExtentRef id="3229" />
        <ExtentRef id="3230" />
        <ExtentRef id="3231" />
        <ExtentRef id="3232" />
        <ExtentRef id="3233" />
        <ExtentRef id="3234" />
        <ExtentRef id="3235" />
        <ExtentRef id="3236" />
        <ExtentRef id="3237" />
        <ExtentRef id="3238" />
        <ExtentRef id="3239" />
        <ExtentRef id="3240" />
        <ExtentRef id="3241" />
        <ExtentRef id="3242" />
        <ExtentRef id="3243" />
        <ExtentRef id="3244" />
        <ExtentRef id="3245" />
        <ExtentRef id="3246" />
        <ExtentRef id="3247" />
        <ExtentRef id="3248" />
        <ExtentRef id="3249" />
        <ExtentRef id="3250" />
        <ExtentRef id="3251" />
        <ExtentRef id="3252" />
        <ExtentRef id="3253" />
        <ExtentRef id="3254" />
        <ExtentRef id="3255" />
        <ExtentRef id="3256" />
        <ExtentRef id="3257" />
        <ExtentRef id="3258" />
        <ExtentRef id="3259" />
        <ExtentRef id="3260" />
        <ExtentRef id="3261" />
        <ExtentRef id="3262" />
        <ExtentRef id="3263" />
        <ExtentRef id="3264" />
        <ExtentRef id="3265" />
        <ExtentRef id="3266" />
        <ExtentRef id="3267" />
        <ExtentRef id="3268" />
        <ExtentRef id="3269" />
        <ExtentRef id="3270" />
        <ExtentRef id="3271" />
        <ExtentRef id="3272" />
        <ExtentRef id="3273" />
        <ExtentRef id="3274" />
        <ExtentRef id="3275" />
        <ExtentRef id="3276" />
        <ExtentRef id="3277" />
        <ExtentRef id="3278" />
        <ExtentRef id="3279" />
        <ExtentRef id="3280" />
        <ExtentRef id="3281" />
        <ExtentRef id="3282" />
        <ExtentRef id="3283" />
        <ExtentRef id="3284" />
        <ExtentRef id="3285" />
        <ExtentRef id="3286" />
        <ExtentRef id="3287" />
        <ExtentRef id="3288" />
        <ExtentRef id="3289" />
        <ExtentRef id="3290" />
        <ExtentRef id="3291" />
        <ExtentRef id="3292" />
        <ExtentRef id="3293" />
        <ExtentRef id="3294" />
        <ExtentRef id="3295" />
        <ExtentRef id="3296" />
        <ExtentRef id="3297" />
        <ExtentRef id="3298" />
        <ExtentRef id="3299" />
        <ExtentRef id="3300" />
        <ExtentRef id="3301" />
        <ExtentRef id="3302" />
        <ExtentRef id="3303" />
        <ExtentRef id="3304" />
        <ExtentRef id="3305" />
        <ExtentRef id="3306" />
        <ExtentRef id="3307" />
        <ExtentRef id="3308" />
        <ExtentRef id="3309" />
        <ExtentRef id="3310" />
        <ExtentRef id="3311" />
        <ExtentRef id="3312" />
        <ExtentRef id="3313" />
        <ExtentRef id="3314" />
        <ExtentRef id="3315" />
        <ExtentRef id="3316" />
        <ExtentRef id="3317" />
        <ExtentRef id="3318" />
        <ExtentRef id="3319" />
        <ExtentRef id="3320" />
        <ExtentRef id="3321" />
        <ExtentRef id="3322" />
        <ExtentRef id="3323" />
        <ExtentRef id="3324" />
        <ExtentRef id="3325" />
        <ExtentRef id="3326" />
        <ExtentRef id="3327" />
        <ExtentRef id="3328" />
        <ExtentRef id="3329" />
        <ExtentRef id="3330" />
        <ExtentRef id="3331" />
        <ExtentRef id="3332" />
        <ExtentRef id="3333" />
        <ExtentRef id="3334" />
        <ExtentRef id="3335" />
        <ExtentRef id="3336" />
        <ExtentRef id="3337" />
        <ExtentRef id="3338" />
        <ExtentRef id="3339" />
        <ExtentRef id="3340" />
        <ExtentRef id="3341" />
        <ExtentRef id="3342" />
        <ExtentRef id="3343" />
        <ExtentRef id="3344" />
        <ExtentRef id="3345" />
        <ExtentRef id="3346" />
        <ExtentRef id="3347" />
        <ExtentRef id="3348" />
        <ExtentRef id="3349" />
        <ExtentRef id="3350" />
        <ExtentRef id="3351" />
        <ExtentRef id="3352" />
        <ExtentRef id="3353" />
        <ExtentRef id="3354" />
        <ExtentRef id="3355" />
        <ExtentRef id="3356" />
        <ExtentRef id="3357" />
        <ExtentRef id="3358" />
        <ExtentRef id="3359" />
        <ExtentRef id="3360" />
        <ExtentRef id="3361" />
        <ExtentRef id="3362" />
        <ExtentRef id="3363" />
        <ExtentRef id="3364" />
        <ExtentRef id="3365" />
        <ExtentRef id="3366" />
        <ExtentRef id="3367" />
        <ExtentRef id="3368" />
        <ExtentRef id="3369" />
        <ExtentRef id="3370" />
        <ExtentRef id="3371" />
        <ExtentRef id="3372" />
        <ExtentRef id="3373" />
        <ExtentRef id="3374" />
        <ExtentRef id="3375" />
        <ExtentRef id="3376" />
        <ExtentRef id="3377" />
        <ExtentRef id="3378" />
        <ExtentRef id="3379" />
        <ExtentRef id="3380" />
        <ExtentRef id="3381" />
        <ExtentRef id="3382" />
        <ExtentRef id="3383" />
        <ExtentRef id="3384" />
        <ExtentRef id="3385" />
        <ExtentRef id="3386" />
        <ExtentRef id="3387" />
        <ExtentRef id="3388" />
        <ExtentRef id="3389" />
        <ExtentRef id="3390" />
        <ExtentRef id="3391" />
        <ExtentRef id="3392" />
        <ExtentRef id="3393" />
        <ExtentRef id="3394" />
        <ExtentRef id="3395" />
        <ExtentRef id="3396" />
        <ExtentRef id="3397" />
        <ExtentRef id="3398" />
        <ExtentRef id="3399" />
        <ExtentRef id="3400" />
        <ExtentRef id="3401" />
        <ExtentRef id="3402" />
        <ExtentRef id="3403" />
        <ExtentRef id="3404" />
        <ExtentRef id="3405" />
        <ExtentRef id="3406" />
        <ExtentRef id="3407" />
        <ExtentRef id="3408" />
        <ExtentRef id="3409" />
        <ExtentRef id="3410" />
        <ExtentRef id="3411" />
        <ExtentRef id="3412" />
        <ExtentRef id="3413" />
        <ExtentRef id="3414" />
        <ExtentRef id="3415" />
        <ExtentRef id="3416" />
        <ExtentRef id="3417" />
        <ExtentRef id="3418" />
        <ExtentRef id="3419" />
        <ExtentRef id="3420" />
        <ExtentRef id="3421" />
        <ExtentRef id="3422" />
        <ExtentRef id="3423" />
        <ExtentRef id="3424" />
        <ExtentRef id="3425" />
        <ExtentRef id="3426" />
        <ExtentRef id="3427" />
        <ExtentRef id="3428" />
        <ExtentRef id="3429" />
        <ExtentRef id="3430" />
        <ExtentRef id="3431" />
        <ExtentRef id="3432" />
        <ExtentRef id="3433" />
        <ExtentRef id="3434" />
        <ExtentRef id="3435" />
        <ExtentRef id="3436" />
        <ExtentRef id="3437" />
        <ExtentRef id="3438" />
        <ExtentRef id="3439" />
        <ExtentRef id="3440" />
        <ExtentRef id="3441" />
        <ExtentRef id="3442" />
        <ExtentRef id="3443" />
        <ExtentRef id="3444" />
        <ExtentRef id="3445" />
        <ExtentRef id="3446" />
        <ExtentRef id="3447" />
        <ExtentRef id="3448" />
        <ExtentRef id="3449" />
        <ExtentRef id="3450" />
        <ExtentRef id="3451" />
        <ExtentRef id="3452" />
        <ExtentRef id="3453" />
        <ExtentRef id="3454" />
        <ExtentRef id="3455" />
        <ExtentRef id="3456" />
        <ExtentRef id="3457" />
        <ExtentRef id="3458" />
        <ExtentRef id="3459" />
        <ExtentRef id="3460" />
        <ExtentRef id="3461" />
        <ExtentRef id="3462" />
        <ExtentRef id="3463" />
        <ExtentRef id="3464" />
        <ExtentRef id="3465" />
        <ExtentRef id="3466" />
        <ExtentRef id="3467" />
        <ExtentRef id="3468" />
        <ExtentRef id="3469" />
        <ExtentRef id="3470" />
        <ExtentRef id="3471" />
        <ExtentRef id="3472" />
        <ExtentRef id="3473" />
        <ExtentRef id="3474" />
        <ExtentRef id="3475" />
        <ExtentRef id="3476" />
        <ExtentRef id="3477" />
        <ExtentRef id="3478" />
        <ExtentRef id="3479" />
        <ExtentRef id="3480" />
        <ExtentRef id="3481" />
        <ExtentRef id="3482" />
        <ExtentRef id="3483" />
        <ExtentRef id="3484" />
        <ExtentRef id="3485" />
        <ExtentRef id="3486" />
        <ExtentRef id="3487" />
        <ExtentRef id="3488" />
        <ExtentRef id="3489" />
        <ExtentRef id="3490" />
        <ExtentRef id="3491" />
        <ExtentRef id="3492" />
        <ExtentRef id="3493" />
        <ExtentRef id="3494" />
        <ExtentRef id="3495" />
        <ExtentRef id="3496" />
        <ExtentRef id="3497" />
        <ExtentRef id="3498" />
        <ExtentRef id="3499" />
        <ExtentRef id="3500" />
        <ExtentRef id="3501" />
        <ExtentRef id="3502" />
        <ExtentRef id="3503" />
        <ExtentRef id="3504" />
        <ExtentRef id="3505" />
        <ExtentRef id="3506" />
        <ExtentRef id="3507" />
        <ExtentRef id="3508" />
        <ExtentRef id="3509" />
        <ExtentRef id="3510" />
        <ExtentRef id="3511" />
        <ExtentRef id="3512" />
        <ExtentRef id="3513" />
        <ExtentRef id="3514" />
        <ExtentRef id="3515" />
        <ExtentRef id="3516" />
        <ExtentRef id="3517" />
        <ExtentRef id="3518" />
        <ExtentRef id="3519" />
        <ExtentRef id="3520" />
        <ExtentRef id="3521" />
        <ExtentRef id="3522" />
        <ExtentRef id="3523" />
        <ExtentRef id="3524" />
        <ExtentRef id="3525" />
        <ExtentRef id="3526" />
        <ExtentRef id="3527" />
        <ExtentRef id="3528" />
        <ExtentRef id="3529" />
        <ExtentRef id="3530" />
        <ExtentRef id="3531" />
        <ExtentRef id="3532" />
        <ExtentRef id="3533" />
        <ExtentRef id="3534" />
        <ExtentRef id="3535" />
        <ExtentRef id="3536" />
        <ExtentRef id="3537" />
        <ExtentRef id="3538" />
        <ExtentRef id="3539" />
        <ExtentRef id="3540" />
        <ExtentRef id="3541" />
        <ExtentRef id="3542" />
        <ExtentRef id="3543" />
        <ExtentRef id="3544" />
        <ExtentRef id="3545" />
        <ExtentRef id="3546" />
        <ExtentRef id="3547" />
        <ExtentRef id="3548" />
        <ExtentRef id="3549" />
        <ExtentRef id="3550" />
        <ExtentRef id="3551" />
        <ExtentRef id="3552" />
        <ExtentRef id="3553" />
        <ExtentRef id="3554" />
        <ExtentRef id="3555" />
        <ExtentRef id="3556" />
        <ExtentRef id="3557" />
        <ExtentRef id="3558" />
        <ExtentRef id="3559" />
        <ExtentRef id="3560" />
        <ExtentRef id="3561" />
        <ExtentRef id="3562" />
        <ExtentRef id="3563" />
        <ExtentRef id="3564" />
        <ExtentRef id="3565" />
        <ExtentRef id="3566" />
        <ExtentRef id="3567" />
        <ExtentRef id="3568" />
        <ExtentRef id="3569" />
        <ExtentRef id="3570" />
        <ExtentRef id="3571" />
        <ExtentRef id="3572" />
        <ExtentRef id="3573" />
        <ExtentRef id="3574" />
        <ExtentRef id="3575" />
        <ExtentRef id="3576" />
        <ExtentRef id="3577" />
        <ExtentRef id="3578" />
        <ExtentRef id="3579" />
        <ExtentRef id="3580" />
        <ExtentRef id="3581" />
        <ExtentRef id="3582" />
        <ExtentRef id="3583" />
        <ExtentRef id="3584" />
        <ExtentRef id="3585" />
        <ExtentRef id="3586" />
        <ExtentRef id="3587" />
        <ExtentRef id="3588" />
        <ExtentRef id="3589" />
        <ExtentRef id="3590" />
        <ExtentRef id="3591" />
        <ExtentRef id="3592" />
        <ExtentRef id="3593" />
        <ExtentRef id="3594" />
        <ExtentRef id="3595" />
        <ExtentRef id="3596" />
        <ExtentRef id="3597" />
        <ExtentRef id="3598" />
        <ExtentRef id="3599" />
        <ExtentRef id="3600" />
        <ExtentRef id="3601" />
        <ExtentRef id="3602" />
        <ExtentRef id="3603" />
        <ExtentRef id="3604" />
        <ExtentRef id="3605" />
        <ExtentRef id="3606" />
        <ExtentRef id="3607" />
        <ExtentRef id="3608" />
        <ExtentRef id="3609" />
        <ExtentRef id="3610" />
        <ExtentRef id="3611" />
        <ExtentRef id="3612" />
        <ExtentRef id="3613" />
        <ExtentRef id="3614" />
        <ExtentRef id="3615" />
        <ExtentRef id="3616" />
        <ExtentRef id="3617" />
        <ExtentRef id="3618" />
        <ExtentRef id="3619" />
        <ExtentRef id="3620" />
        <ExtentRef id="3621" />
        <ExtentRef id="3622" />
        <ExtentRef id="3623" />
        <ExtentRef id="3624" />
        <ExtentRef id="3625" />
        <ExtentRef id="3626" />
        <ExtentRef id="3627" />
        <ExtentRef id="3628" />
        <ExtentRef id="3629" />
        <ExtentRef id="3630" />
        <ExtentRef id="3631" />
        <ExtentRef id="3632" />
        <ExtentRef id="3633" />
        <ExtentRef id="3634" />
        <ExtentRef id="3635" />
        <ExtentRef id="3636" />
        <ExtentRef id="3637" />
        <ExtentRef id="3638" />
        <ExtentRef id="3639" />
        <ExtentRef id="3640" />
        <ExtentRef id="3641" />
        <ExtentRef id="3642" />
        <ExtentRef id="3643" />
        <ExtentRef id="3644" />
        <ExtentRef id="3645" />
        <ExtentRef id="3646" />
        <ExtentRef id="3647" />
        <ExtentRef id="3648" />
        <ExtentRef id="3649" />
        <ExtentRef id="3650" />
        <ExtentRef id="3651" />
        <ExtentRef id="3652" />
        <ExtentRef id="3653" />
        <ExtentRef id="3654" />
        <ExtentRef id="3655" />
        <ExtentRef id="3656" />
        <ExtentRef id="3657" />
        <ExtentRef id="3658" />
        <ExtentRef id="3659" />
        <ExtentRef id="3660" />
        <ExtentRef id="3661" />
        <ExtentRef id="3662" />
        <ExtentRef id="3663" />
        <ExtentRef id="3664" />
        <ExtentRef id="3665" />
        <ExtentRef id="3666" />
        <ExtentRef id="3667" />
        <ExtentRef id="3668" />
        <ExtentRef id="3669" />
        <ExtentRef id="3670" />
        <ExtentRef id="3671" />
        <ExtentRef id="3672" />
        <ExtentRef id="3673" />
        <ExtentRef id="3674" />
        <ExtentRef id="3675" />
        <ExtentRef id="3676" />
        <ExtentRef id="3677" />
        <ExtentRef id="3678" />
        <ExtentRef id="3679" />
        <ExtentRef id="3680" />
        <ExtentRef id="3681" />
        <ExtentRef id="3682" />
        <ExtentRef id="3683" />
        <ExtentRef id="3684" />
        <ExtentRef id="3685" />
        <ExtentRef id="3686" />
        <ExtentRef id="3687" />
        <ExtentRef id="3688" />
        <ExtentRef id="3689" />
        <ExtentRef id="3690" />
        <ExtentRef id="3691" />
        <ExtentRef id="3692" />
        <ExtentRef id="3693" />
        <ExtentRef id="3694" />
        <ExtentRef id="3695" />
        <ExtentRef id="3696" />
        <ExtentRef id="3697" />
        <ExtentRef id="3698" />
        <ExtentRef id="3699" />
        <ExtentRef id="3700" />
        <ExtentRef id="3701" />
        <ExtentRef id="3702" />
        <ExtentRef id="3703" />
        <ExtentRef id="3704" />
        <ExtentRef id="3705" />
        <ExtentRef id="3706" />
        <ExtentRef id="3707" />
        <ExtentRef id="3708" />
        <ExtentRef id="3709" />
        <ExtentRef id="3710" />
        <ExtentRef id="3711" />
        <ExtentRef id="3712" />
        <ExtentRef id="3713" />
        <ExtentRef id="3714" />
        <ExtentRef id="3715" />
        <ExtentRef id="3716" />
        <ExtentRef id="3717" />
        <ExtentRef id="3718" />
        <ExtentRef id="3719" />
        <ExtentRef id="3720" />
        <ExtentRef id="3721" />
        <ExtentRef id="3722" />
        <ExtentRef id="3723" />
        <ExtentRef id="3724" />
        <ExtentRef id="3725" />
        <ExtentRef id="3726" />
        <ExtentRef id="3727" />
        <ExtentRef id="3728" />
        <ExtentRef id="3729" />
        <ExtentRef id="3730" />
        <ExtentRef id="3731" />
        <ExtentRef id="3732" />
        <ExtentRef id="3733" />
        <ExtentRef id="3734" />
        <ExtentRef id="3735" />
        <ExtentRef id="3736" />
        <ExtentRef id="3737" />
        <ExtentRef id="3738" />
        <ExtentRef id="3739" />
        <ExtentRef id="3740" />
        <ExtentRef id="3741" />
        <ExtentRef id="3742" />
        <ExtentRef id="3743" />
        <ExtentRef id="3744" />
        <ExtentRef id="3745" />
        <ExtentRef id="3746" />
        <ExtentRef id="3747" />
        <ExtentRef id="3748" />
        <ExtentRef id="3749" />
        <ExtentRef id="3750" />
        <ExtentRef id="3751" />
        <ExtentRef id="3752" />
        <ExtentRef id="3753" />
        <ExtentRef id="3754" />
        <ExtentRef id="3755" />
        <ExtentRef id="3756" />
        <ExtentRef id="3757" />
        <ExtentRef id="3758" />
        <ExtentRef id="3759" />
        <ExtentRef id="3760" />
        <ExtentRef id="3761" />
        <ExtentRef id="3762" />
        <ExtentRef id="3763" />
        <ExtentRef id="3764" />
        <ExtentRef id="3765" />
        <ExtentRef id="3766" />
        <ExtentRef id="3767" />
        <ExtentRef id="3768" />
        <ExtentRef id="3769" />
        <ExtentRef id="3770" />
        <ExtentRef id="3771" />
        <ExtentRef id="3772" />
        <ExtentRef id="3773" />
        <ExtentRef id="3774" />
        <ExtentRef id="3775" />
        <ExtentRef id="3776" />
        <ExtentRef id="3777" />
        <ExtentRef id="3778" />
        <ExtentRef id="3779" />
        <ExtentRef id="3780" />
        <ExtentRef id="3781" />
        <ExtentRef id="3782" />
        <ExtentRef id="3783" />
        <ExtentRef id="3784" />
        <ExtentRef id="3785" />
        <ExtentRef id="3786" />
        <ExtentRef id="3787" />
        <ExtentRef id="3788" />
        <ExtentRef id="3789" />
        <ExtentRef id="3790" />
        <ExtentRef id="3791" />
        <ExtentRef id="3792" />
        <ExtentRef id="3793" />
        <ExtentRef id="3794" />
        <ExtentRef id="3795" />
        <ExtentRef id="3796" />
        <ExtentRef id="3797" />
        <ExtentRef id="3798" />
        <ExtentRef id="3799" />
        <ExtentRef id="3800" />
        <ExtentRef id="3801" />
        <ExtentRef id="3802" />
        <ExtentRef id="3803" />
        <ExtentRef id="3804" />
        <ExtentRef id="3805" />
        <ExtentRef id="3806" />
        <ExtentRef id="3807" />
        <ExtentRef id="3808" />
        <ExtentRef id="3809" />
        <ExtentRef id="3810" />
        <ExtentRef id="3811" />
        <ExtentRef id="3812" />
        <ExtentRef id="3813" />
        <ExtentRef id="3814" />
        <ExtentRef id="3815" />
        <ExtentRef id="3816" />
        <ExtentRef id="3817" />
        <ExtentRef id="3818" />
        <ExtentRef id="3819" />
        <ExtentRef id="3820" />
        <ExtentRef id="3821" />
        <ExtentRef id="3822" />
        <ExtentRef id="3823" />
        <ExtentRef id="3824" />
        <ExtentRef id="3825" />
        <ExtentRef id="3826" />
        <ExtentRef id="3827" />
        <ExtentRef id="3828" />
        <ExtentRef id="3829" />
        <ExtentRef id="3830" />
        <ExtentRef id="3831" />
        <ExtentRef id="3832" />
        <ExtentRef id="3833" />
        <ExtentRef id="3834" />
        <ExtentRef id="3835" />
        <ExtentRef id="3836" />
        <ExtentRef id="3837" />
        <ExtentRef id="3838" />
        <ExtentRef id="3839" />
        <ExtentRef id="3840" />
        <ExtentRef id="3841" />
        <ExtentRef id="3842" />
        <ExtentRef id="3843" />
        <ExtentRef id="3844" />
        <ExtentRef id="3845" />
        <ExtentRef id="3846" />
        <ExtentRef id="3847" />
        <ExtentRef id="3848" />
        <ExtentRef id="3849" />
        <ExtentRef id="3850" />
        <ExtentRef id="3851" />
        <ExtentRef id="3852" />
        <ExtentRef id="3853" />
        <ExtentRef id="3854" />
        <ExtentRef id="3855" />
        <ExtentRef id="3856" />
        <ExtentRef id="3857" />
        <ExtentRef id="3858" />
        <ExtentRef id="3859" />
        <ExtentRef id="3860" />
        <ExtentRef id="3861" />
        <ExtentRef id="3862" />
        <ExtentRef id="3863" />
        <ExtentRef id="3864" />
        <ExtentRef id="3865" />
        <ExtentRef id="3866" />
        <ExtentRef id="3867" />
        <ExtentRef id="3868" />
        <ExtentRef id="3869" />
        <ExtentRef id="3870" />
        <ExtentRef id="3871" />
        <ExtentRef id="3872" />
        <ExtentRef id="3873" />
        <ExtentRef id="3874" />
        <ExtentRef id="3875" />
        <ExtentRef id="3876" />
        <ExtentRef id="3877" />
        <ExtentRef id="3878" />
        <ExtentRef id="3879" />
        <ExtentRef id="3880" />
        <ExtentRef id="3881" />
        <ExtentRef id="3882" />
        <ExtentRef id="3883" />
        <ExtentRef id="3884" />
        <ExtentRef id="3885" />
        <ExtentRef id="3886" />
        <ExtentRef id="3887" />
        <ExtentRef id="3888" />
        <ExtentRef id="3889" />
        <ExtentRef id="3890" />
        <ExtentRef id="3891" />
        <ExtentRef id="3892" />
        <ExtentRef id="3893" />
        <ExtentRef id="3894" />
        <ExtentRef id="3895" />
        <ExtentRef id="3896" />
        <ExtentRef id="3897" />
        <ExtentRef id="3898" />
        <ExtentRef id="3899" />
        <ExtentRef id="3900" />
        <ExtentRef id="3901" />
        <ExtentRef id="3902" />
        <ExtentRef id="3903" />
        <ExtentRef id="3904" />
        <ExtentRef id="3905" />
        <ExtentRef id="3906" />
        <ExtentRef id="3907" />
        <ExtentRef id="3908" />
        <ExtentRef id="3909" />
        <ExtentRef id="3910" />
        <ExtentRef id="3911" />
        <ExtentRef id="3912" />
        <ExtentRef id="3913" />
        <ExtentRef id="3914" />
        <ExtentRef id="3915" />
        <ExtentRef id="3916" />
        <ExtentRef id="3917" />
        <ExtentRef id="3918" />
        <ExtentRef id="3919" />
        <ExtentRef id="3920" />
        <ExtentRef id="3921" />
        <ExtentRef id="3922" />
        <ExtentRef id="3923" />
        <ExtentRef id="3924" />
        <ExtentRef id="3925" />
        <ExtentRef id="3926" />
        <ExtentRef id="3927" />
        <ExtentRef id="3928" />
        <ExtentRef id="3929" />
        <ExtentRef id="3930" />
        <ExtentRef id="3931" />
        <ExtentRef id="3932" />
        <ExtentRef id="3933" />
        <ExtentRef id="3934" />
        <ExtentRef id="3935" />
        <ExtentRef id="3936" />
        <ExtentRef id="3937" />
        <ExtentRef id="3938" />
        <ExtentRef id="3939" />
        <ExtentRef id="3940" />
        <ExtentRef id="3941" />
        <ExtentRef id="3942" />
        <ExtentRef id="3943" />
        <ExtentRef id="3944" />
        <ExtentRef id="3945" />
        <ExtentRef id="3946" />
        <ExtentRef id="3947" />
        <ExtentRef id="3948" />
        <ExtentRef id="3949" />
        <ExtentRef id="3950" />
        <ExtentRef id="3951" />
        <ExtentRef id="3952" />
        <ExtentRef id="3953" />
        <ExtentRef id="3954" />
        <ExtentRef id="3955" />
        <ExtentRef id="3956" />
        <ExtentRef id="3957" />
        <ExtentRef id="3958" />
        <ExtentRef id="3959" />
        <ExtentRef id="3960" />
        <ExtentRef id="3961" />
        <ExtentRef id="3962" />
        <ExtentRef id="3963" />
        <ExtentRef id="3964" />
        <ExtentRef id="3965" />
        <ExtentRef id="3966" />
        <ExtentRef id="3967" />
        <ExtentRef id="3968" />
        <ExtentRef id="3969" />
        <ExtentRef id="3970" />
        <ExtentRef id="3971" />
        <ExtentRef id="3972" />
        <ExtentRef id="3973" />
        <ExtentRef id="3974" />
        <ExtentRef id="3975" />
        <ExtentRef id="3976" />
        <ExtentRef id="3977" />
        <ExtentRef id="3978" />
        <ExtentRef id="3979" />
        <ExtentRef id="3980" />
        <ExtentRef id="3981" />
        <ExtentRef id="3982" />
        <ExtentRef id="3983" />
        <ExtentRef id="3984" />
        <ExtentRef id="3985" />
        <ExtentRef id="3986" />
        <ExtentRef id="3987" />
        <ExtentRef id="3988" />
        <ExtentRef id="3989" />
        <ExtentRef id="3990" />
        <ExtentRef id="3991" />
        <ExtentRef id="3992" />
        <ExtentRef id="3993" />
        <ExtentRef id="3994" />
        <ExtentRef id="3995" />
        <ExtentRef id="3996" />
        <ExtentRef id="3997" />
        <ExtentRef id="3998" />
        <ExtentRef id="3999" />
        <ExtentRef id="4000" />
        <ExtentRef id="4001" />
        <ExtentRef id="4002" />
        <ExtentRef id="4003" />
        <ExtentRef id="4004" />
        <ExtentRef id="4005" />
        <ExtentRef id="4006" />
        <ExtentRef id="4007" />
        <ExtentRef id="4008" />
        <ExtentRef id="4009" />
        <ExtentRef id="4010" />
        <ExtentRef id="4011" />
        <ExtentRef id="4012" />
        <ExtentRef id="4013" />
        <ExtentRef id="4014" />
        <ExtentRef id="4015" />
        <ExtentRef id="4016" />
        <ExtentRef id="4017" />
        <ExtentRef id="4018" />
        <ExtentRef id="4019" />
        <ExtentRef id="4020" />
        <ExtentRef id="4021" />
        <ExtentRef id="4022" />
        <ExtentRef id="4023" />
        <ExtentRef id="4024" />
        <ExtentRef id="4025" />
        <ExtentRef id="4026" />
        <ExtentRef id="4027" />
        <ExtentRef id="4028" />
        <ExtentRef id="4029" />
        <ExtentRef id="4030" />
        <ExtentRef id="4031" />
        <ExtentRef id="4032" />
        <ExtentRef id="4033" />
        <ExtentRef id="4034" />
        <ExtentRef id="4035" />
        <ExtentRef id="4036" />
        <ExtentRef id="4037" />
        <ExtentRef id="4038" />
        <ExtentRef id="4039" />
        <ExtentRef id="4040" />
        <ExtentRef id="4041" />
        <ExtentRef id="4042" />
        <ExtentRef id="4043" />
        <ExtentRef id="4044" />
        <ExtentRef id="4045" />
        <ExtentRef id="4046" />
        <ExtentRef id="4047" />
        <ExtentRef id="4048" />
        <ExtentRef id="4049" />
        <ExtentRef id="4050" />
        <ExtentRef id="4051" />
        <ExtentRef id="4052" />
        <ExtentRef id="4053" />
        <ExtentRef id="4054" />
        <ExtentRef id="4055" />
        <ExtentRef id="4056" />
        <ExtentRef id="4057" />
        <ExtentRef id="4058" />
        <ExtentRef id="4059" />
        <ExtentRef id="4060" />
        <ExtentRef id="4061" />
        <ExtentRef id="4062" />
        <ExtentRef id="4063" />
        <ExtentRef id="4064" />
        <ExtentRef id="4065" />
        <ExtentRef id="4066" />
        <ExtentRef id="4067" />
        <ExtentRef id="4068" />
        <ExtentRef id="4069" />
        <ExtentRef id="4070" />
        <ExtentRef id="4071" />
        <ExtentRef id="4072" />
        <ExtentRef id="4073" />
        <ExtentRef id="4074" />
        <ExtentRef id="4075" />
        <ExtentRef id="4076" />
        <ExtentRef id="4077" />
        <ExtentRef id="4078" />
        <ExtentRef id="4079" />
        <ExtentRef id="4080" />
        <ExtentRef id="4081" />
        <ExtentRef id="4082" />
        <ExtentRef id="4083" />
        <ExtentRef id="4084" />
        <ExtentRef id="4085" />
        <ExtentRef id="4086" />
        <ExtentRef id="4087" />
        <ExtentRef id="4088" />
        <ExtentRef id="4089" />
        <ExtentRef id="4090" />
        <ExtentRef id="4091" />
        <ExtentRef id="4092" />
        <ExtentRef id="4093" />
        <ExtentRef id="4094" />
        <ExtentRef id="4095" />
        <ExtentRef id="4096" />
        <ExtentRef id="4097" />
        <ExtentRef id="4098" />
        <ExtentRef id="4099" />
        <ExtentRef id="4100" />
        <ExtentRef id="4101" />
        <ExtentRef id="4102" />
        <ExtentRef id="4103" />
        <ExtentRef id="4104" />
        <ExtentRef id="4105" />
        <ExtentRef id="4106" />
        <ExtentRef id="4107" />
        <ExtentRef id="4108" />
        <ExtentRef id="4109" />
        <ExtentRef id="4110" />
        <ExtentRef id="4111" />
        <ExtentRef id="4112" />
        <ExtentRef id="4113" />
        <ExtentRef id="4114" />
        <ExtentRef id="4115" />
        <ExtentRef id="4116" />
        <ExtentRef id="4117" />
        <ExtentRef id="4118" />
        <ExtentRef id="4119" />
        <ExtentRef id="4120" />
        <ExtentRef id="4121" />
        <ExtentRef id="4122" />
        <ExtentRef id="4123" />
        <ExtentRef id="4124" />
        <ExtentRef id="4125" />
        <ExtentRef id="4126" />
        <ExtentRef id="4127" />
        <ExtentRef id="4128" />
        <ExtentRef id="4129" />
        <ExtentRef id="4130" />
        <ExtentRef id="4131" />
        <ExtentRef id="4132" />
        <ExtentRef id="4133" />
        <ExtentRef id="4134" />
        <ExtentRef id="4135" />
        <ExtentRef id="4136" />
        <ExtentRef id="4137" />
        <ExtentRef id="4138" />
        <ExtentRef id="4139" />
        <ExtentRef id="4140" />
        <ExtentRef id="4141" />
        <ExtentRef id="4142" />
        <ExtentRef id="4143" />
        <ExtentRef id="4144" />
        <ExtentRef id="4145" />
        <ExtentRef id="4146" />
        <ExtentRef id="4147" />
        <ExtentRef id="4148" />
        <ExtentRef id="4149" />
        <ExtentRef id="4150" />
        <ExtentRef id="4151" />
        <ExtentRef id="4152" />
        <ExtentRef id="4153" />
        <ExtentRef id="4154" />
        <ExtentRef id="4155" />
        <ExtentRef id="4156" />
        <ExtentRef id="4157" />
        <ExtentRef id="4158" />
        <ExtentRef id="4159" />
        <ExtentRef id="4160" />
        <ExtentRef id="4161" />
        <ExtentRef id="4162" />
        <ExtentRef id="4163" />
        <ExtentRef id="4164" />
        <ExtentRef id="4165" />
        <ExtentRef id="4166" />
        <ExtentRef id="4167" />
        <ExtentRef id="4168" />
        <ExtentRef id="4169" />
        <ExtentRef id="4170" />
        <ExtentRef id="4171" />
        <ExtentRef id="4172" />
        <ExtentRef id="4173" />
        <ExtentRef id="4174" />
        <ExtentRef id="4175" />
        <ExtentRef id="4176" />
        <ExtentRef id="4177" />
        <ExtentRef id="4178" />
        <ExtentRef id="4179" />
        <ExtentRef id="4180" />
        <ExtentRef id="4181" />
        <ExtentRef id="4182" />
        <ExtentRef id="4183" />
        <ExtentRef id="4184" />
        <ExtentRef id="4185" />
        <ExtentRef id="4186" />
        <ExtentRef id="4187" />
        <ExtentRef id="4188" />
        <ExtentRef id="4189" />
        <ExtentRef id="4190" />
        <ExtentRef id="4191" />
        <ExtentRef id="4192" />
        <ExtentRef id="4193" />
        <ExtentRef id="4194" />
        <ExtentRef id="4195" />
        <ExtentRef id="4196" />
        <ExtentRef id="4197" />
        <ExtentRef id="4198" />
        <ExtentRef id="4199" />
        <ExtentRef id="4200" />
        <ExtentRef id="4201" />
        <ExtentRef id="4202" />
        <ExtentRef id="4203" />
        <ExtentRef id="4204" />
        <ExtentRef id="4205" />
        <ExtentRef id="4206" />
        <ExtentRef id="4207" />
        <ExtentRef id="4208" />
        <ExtentRef id="4209" />
        <ExtentRef id="4210" />
        <ExtentRef id="4211" />
        <ExtentRef id="4212" />
        <ExtentRef id="4213" />
        <ExtentRef id="4214" />
        <ExtentRef id="4215" />
        <ExtentRef id="4216" />
        <ExtentRef id="4217" />
        <ExtentRef id="4218" />
        <ExtentRef id="4219" />
        <ExtentRef id="4220" />
        <ExtentRef id="4221" />
        <ExtentRef id="4222" />
        <ExtentRef id="4223" />
        <ExtentRef id="4224" />
        <ExtentRef id="4225" />
        <ExtentRef id="4226" />
        <ExtentRef id="4227" />
        <ExtentRef id="4228" />
        <ExtentRef id="4229" />
        <ExtentRef id="4230" />
        <ExtentRef id="4231" />
        <ExtentRef id="4232" />
        <ExtentRef id="4233" />
        <ExtentRef id="4234" />
        <ExtentRef id="4235" />
        <ExtentRef id="4236" />
        <ExtentRef id="4237" />
        <ExtentRef id="4238" />
        <ExtentRef id="4239" />
        <ExtentRef id="4240" />
        <ExtentRef id="4241" />
        <ExtentRef id="4242" />
        <ExtentRef id="4243" />
        <ExtentRef id="4244" />
        <ExtentRef id="4245" />
        <ExtentRef id="4246" />
        <ExtentRef id="4247" />
        <ExtentRef id="4248" />
        <ExtentRef id="4249" />
        <ExtentRef id="4250" />
        <ExtentRef id="4251" />
        <ExtentRef id="4252" />
        <ExtentRef id="4253" />
        <ExtentRef id="4254" />
        <ExtentRef id="4255" />
        <ExtentRef id="4256" />
        <ExtentRef id="4257" />
        <ExtentRef id="4258" />
        <ExtentRef id="4259" />
        <ExtentRef id="4260" />
        <ExtentRef id="4261" />
        <ExtentRef id="4262" />
        <ExtentRef id="4263" />
        <ExtentRef id="4264" />
        <ExtentRef id="4265" />
        <ExtentRef id="4266" />
        <ExtentRef id="4267" />
        <ExtentRef id="4268" />
        <ExtentRef id="4269" />
        <ExtentRef id="4270" />
        <ExtentRef id="4271" />
        <ExtentRef id="4272" />
        <ExtentRef id="4273" />
        <ExtentRef id="4274" />
        <ExtentRef id="4275" />
        <ExtentRef id="4276" />
        <ExtentRef id="4277" />
        <ExtentRef id="4278" />
        <ExtentRef id="4279" />
        <ExtentRef id="4280" />
        <ExtentRef id="4281" />
        <ExtentRef id="4282" />
        <ExtentRef id="4283" />
        <ExtentRef id="4284" />
        <ExtentRef id="4285" />
        <ExtentRef id="4286" />
        <ExtentRef id="4287" />
        <ExtentRef id="4288" />
        <ExtentRef id="4289" />
        <ExtentRef id="4290" />
        <ExtentRef id="4291" />
        <ExtentRef id="4292" />
        <ExtentRef id="4293" />
        <ExtentRef id="4294" />
        <ExtentRef id="4295" />
        <ExtentRef id="4296" />
        <ExtentRef id="4297" />
        <ExtentRef id="4298" />
        <ExtentRef id="4299" />
        <ExtentRef id="4300" />
        <ExtentRef id="4301" />
        <ExtentRef id="4302" />
        <ExtentRef id="4303" />
        <ExtentRef id="4304" />
        <ExtentRef id="4305" />
        <ExtentRef id="4306" />
        <ExtentRef id="4307" />
        <ExtentRef id="4308" />
        <ExtentRef id="4309" />
        <ExtentRef id="4310" />
        <ExtentRef id="4311" />
        <ExtentRef id="4312" />
        <ExtentRef id="4313" />
        <ExtentRef id="4314" />
        <ExtentRef id="4315" />
        <ExtentRef id="4316" />
        <ExtentRef id="4317" />
        <ExtentRef id="4318" />
        <ExtentRef id="4319" />
        <ExtentRef id="4320" />
        <ExtentRef id="4321" />
        <ExtentRef id="4322" />
        <ExtentRef id="4323" />
        <ExtentRef id="4324" />
        <ExtentRef id="4325" />
        <ExtentRef id="4326" />
        <ExtentRef id="4327" />
        <ExtentRef id="4328" />
        <ExtentRef id="4329" />
        <ExtentRef id="4330" />
        <ExtentRef id="4331" />
        <ExtentRef id="4332" />
        <ExtentRef id="4333" />
        <ExtentRef id="4334" />
        <ExtentRef id="4335" />
        <ExtentRef id="4336" />
        <ExtentRef id="4337" />
        <ExtentRef id="4338" />
        <ExtentRef id="4339" />
        <ExtentRef id="4340" />
        <ExtentRef id="4341" />
        <ExtentRef id="4342" />
        <ExtentRef id="4343" />
        <ExtentRef id="4344" />
        <ExtentRef id="4345" />
        <ExtentRef id="4346" />
        <ExtentRef id="4347" />
        <ExtentRef id="4348" />
        <ExtentRef id="4349" />
        <ExtentRef id="4350" />
        <ExtentRef id="4351" />
        <ExtentRef id="4352" />
        <ExtentRef id="4353" />
        <ExtentRef id="4354" />
        <ExtentRef id="4355" />
        <ExtentRef id="4356" />
        <ExtentRef id="4357" />
        <ExtentRef id="4358" />
        <ExtentRef id="4359" />
        <ExtentRef id="4360" />
        <ExtentRef id="4361" />
        <ExtentRef id="4362" />
        <ExtentRef id="4363" />
        <ExtentRef id="4364" />
        <ExtentRef id="4365" />
        <ExtentRef id="4366" />
        <ExtentRef id="4367" />
        <ExtentRef id="4368" />
        <ExtentRef id="4369" />
        <ExtentRef id="4370" />
        <ExtentRef id="4371" />
        <ExtentRef id="4372" />
        <ExtentRef id="4373" />
        <ExtentRef id="4374" />
        <ExtentRef id="4375" />
        <ExtentRef id="4376" />
        <ExtentRef id="4377" />
        <ExtentRef id="4378" />
        <ExtentRef id="4379" />
        <ExtentRef id="4380" />
        <ExtentRef id="4381" />
        <ExtentRef id="4382" />
        <ExtentRef id="4383" />
        <ExtentRef id="4384" />
        <ExtentRef id="4385" />
        <ExtentRef id="4386" />
        <ExtentRef id="4387" />
        <ExtentRef id="4388" />
        <ExtentRef id="4389" />
        <ExtentRef id="4390" />
        <ExtentRef id="4391" />
        <ExtentRef id="4392" />
        <ExtentRef id="4393" />
        <ExtentRef id="4394" />
        <ExtentRef id="4395" />
        <ExtentRef id="4396" />
        <ExtentRef id="4397" />
        <ExtentRef id="4398" />
        <ExtentRef id="4399" />
        <ExtentRef id="4400" />
        <ExtentRef id="4401" />
        <ExtentRef id="4402" />
        <ExtentRef id="4403" />
        <ExtentRef id="4404" />
        <ExtentRef id="4405" />
        <ExtentRef id="4406" />
        <ExtentRef id="4407" />
        <ExtentRef id="4408" />
        <ExtentRef id="4409" />
        <ExtentRef id="4410" />
        <ExtentRef id="4411" />
        <ExtentRef id="4412" />
        <ExtentRef id="4413" />
        <ExtentRef id="4414" />
        <ExtentRef id="4415" />
        <ExtentRef id="4416" />
        <ExtentRef id="4417" />
        <ExtentRef id="4418" />
        <ExtentRef id="4419" />
        <ExtentRef id="4420" />
        <ExtentRef id="4421" />
        <ExtentRef id="4422" />
        <ExtentRef id="4423" />
        <ExtentRef id="4424" />
        <ExtentRef id="4425" />
        <ExtentRef id="4426" />
        <ExtentRef id="4427" />
        <ExtentRef id="4428" />
        <ExtentRef id="4429" />
        <ExtentRef id="4430" />
        <ExtentRef id="4431" />
        <ExtentRef id="4432" />
        <ExtentRef id="4433" />
        <ExtentRef id="4434" />
        <ExtentRef id="4435" />
        <ExtentRef id="4436" />
        <ExtentRef id="4437" />
        <ExtentRef id="4438" />
        <ExtentRef id="4439" />
        <ExtentRef id="4440" />
        <ExtentRef id="4441" />
        <ExtentRef id="4442" />
        <ExtentRef id="4443" />
        <ExtentRef id="4444" />
        <ExtentRef id="4445" />
        <ExtentRef id="4446" />
        <ExtentRef id="4447" />
        <ExtentRef id="4448" />
        <ExtentRef id="4449" />
        <ExtentRef id="4450" />
        <ExtentRef id="4451" />
        <ExtentRef id="4452" />
        <ExtentRef id="4453" />
        <ExtentRef id="4454" />
        <ExtentRef id="4455" />
        <ExtentRef id="4456" />
        <ExtentRef id="4457" />
        <ExtentRef id="4458" />
        <ExtentRef id="4459" />
        <ExtentRef id="4460" />
        <ExtentRef id="4461" />
        <ExtentRef id="4462" />
        <ExtentRef id="4463" />
        <ExtentRef id="4464" />
        <ExtentRef id="4465" />
        <ExtentRef id="4466" />
        <ExtentRef id="4467" />
        <ExtentRef id="4468" />
        <ExtentRef id="4469" />
        <ExtentRef id="4470" />
        <ExtentRef id="4471" />
        <ExtentRef id="4472" />
        <ExtentRef id="4473" />
        <ExtentRef id="4474" />
        <ExtentRef id="4475" />
        <ExtentRef id="4476" />
        <ExtentRef id="4477" />
        <ExtentRef id="4478" />
        <ExtentRef id="4479" />
        <ExtentRef id="4480" />
        <ExtentRef id="4481" />
        <ExtentRef id="4482" />
        <ExtentRef id="4483" />
        <ExtentRef id="4484" />
        <ExtentRef id="4485" />
        <ExtentRef id="4486" />
        <ExtentRef id="4487" />
        <ExtentRef id="4488" />
        <ExtentRef id="4489" />
        <ExtentRef id="4490" />
        <ExtentRef id="4491" />
        <ExtentRef id="4492" />
        <ExtentRef id="4493" />
        <ExtentRef id="4494" />
        <ExtentRef id="4495" />
        <ExtentRef id="4496" />
        <ExtentRef id="4497" />
        <ExtentRef id="4498" />
        <ExtentRef id="4499" />
        <ExtentRef id="4500" />
        <ExtentRef id="4501" />
        <ExtentRef id="4502" />
        <ExtentRef id="4503" />
        <ExtentRef id="4504" />
        <ExtentRef id="4505" />
        <ExtentRef id="4506" />
        <ExtentRef id="4507" />
        <ExtentRef id="4508" />
        <ExtentRef id="4509" />
        <ExtentRef id="4510" />
        <ExtentRef id="4511" />
        <ExtentRef id="4512" />
        <ExtentRef id="4513" />
        <ExtentRef id="4514" />
        <ExtentRef id="4515" />
        <ExtentRef id="4516" />
        <ExtentRef id="4517" />
        <ExtentRef id="4518" />
        <ExtentRef id="4519" />
        <ExtentRef id="4520" />
        <ExtentRef id="4521" />
        <ExtentRef id="4522" />
        <ExtentRef id="4523" />
        <ExtentRef id="4524" />
        <ExtentRef id="4525" />
        <ExtentRef id="4526" />
        <ExtentRef id="4527" />
        <ExtentRef id="4528" />
        <ExtentRef id="4529" />
        <ExtentRef id="4530" />
        <ExtentRef id="4531" />
        <ExtentRef id="4532" />
        <ExtentRef id="4533" />
        <ExtentRef id="4534" />
        <ExtentRef id="4535" />
        <ExtentRef id="4536" />
        <ExtentRef id="4537" />
        <ExtentRef id="4538" />
        <ExtentRef id="4539" />
        <ExtentRef id="4540" />
        <ExtentRef id="4541" />
        <ExtentRef id="4542" />
        <ExtentRef id="4543" />
        <ExtentRef id="4544" />
        <ExtentRef id="4545" />
        <ExtentRef id="4546" />
        <ExtentRef id="4547" />
        <ExtentRef id="4548" />
        <ExtentRef id="4549" />
        <ExtentRef id="4550" />
        <ExtentRef id="4551" />
        <ExtentRef id="4552" />
        <ExtentRef id="4553" />
        <ExtentRef id="4554" />
        <ExtentRef id="4555" />
        <ExtentRef id="4556" />
        <ExtentRef id="4557" />
        <ExtentRef id="4558" />
        <ExtentRef id="4559" />
        <ExtentRef id="4560" />
        <ExtentRef id="4561" />
        <ExtentRef id="4562" />
        <ExtentRef id="4563" />
        <ExtentRef id="4564" />
        <ExtentRef id="4565" />
        <ExtentRef id="4566" />
        <ExtentRef id="4567" />
        <ExtentRef id="4568" />
        <ExtentRef id="4569" />
        <ExtentRef id="4570" />
        <ExtentRef id="4571" />
        <ExtentRef id="4572" />
        <ExtentRef id="4573" />
        <ExtentRef id="4574" />
        <ExtentRef id="4575" />
        <ExtentRef id="4576" />
        <ExtentRef id="4577" />
        <ExtentRef id="4578" />
        <ExtentRef id="4579" />
        <ExtentRef id="4580" />
        <ExtentRef id="4581" />
        <ExtentRef id="4582" />
        <ExtentRef id="4583" />
        <ExtentRef id="4584" />
        <ExtentRef id="4585" />
        <ExtentRef id="4586" />
        <ExtentRef id="4587" />
        <ExtentRef id="4588" />
        <ExtentRef id="4589" />
        <ExtentRef id="4590" />
        <ExtentRef id="4591" />
        <ExtentRef id="4592" />
        <ExtentRef id="4593" />
        <ExtentRef id="4594" />
        <ExtentRef id="4595" />
        <ExtentRef id="4596" />
        <ExtentRef id="4597" />
        <ExtentRef id="4598" />
        <ExtentRef id="4599" />
        <ExtentRef id="4600" />
        <ExtentRef id="4601" />
        <ExtentRef id="4602" />
        <ExtentRef id="4603" />
        <ExtentRef id="4604" />
        <ExtentRef id="4605" />
        <ExtentRef id="4606" />
        <ExtentRef id="4607" />
        <ExtentRef id="4608" />
        <ExtentRef id="4609" />
        <ExtentRef id="4610" />
        <ExtentRef id="4611" />
        <ExtentRef id="4612" />
        <ExtentRef id="4613" />
        <ExtentRef id="4614" />
        <ExtentRef id="4615" />
        <ExtentRef id="4616" />
        <ExtentRef id="4617" />
        <ExtentRef id="4618" />
        <ExtentRef id="4619" />
        <ExtentRef id="4620" />
        <ExtentRef id="4621" />
        <ExtentRef id="4622" />
        <ExtentRef id="4623" />
        <ExtentRef id="4624" />
        <ExtentRef id="4625" />
        <ExtentRef id="4626" />
        <ExtentRef id="4627" />
        <ExtentRef id="4628" />
        <ExtentRef id="4629" />
        <ExtentRef id="4630" />
        <ExtentRef id="4631" />
        <ExtentRef id="4632" />
        <ExtentRef id="4633" />
        <ExtentRef id="4634" />
        <ExtentRef id="4635" />
        <ExtentRef id="4636" />
        <ExtentRef id="4637" />
        <ExtentRef id="4638" />
        <ExtentRef id="4639" />
        <ExtentRef id="4640" />
        <ExtentRef id="4641" />
        <ExtentRef id="4642" />
        <ExtentRef id="4643" />
        <ExtentRef id="4644" />
        <ExtentRef id="4645" />
        <ExtentRef id="4646" />
        <ExtentRef id="4647" />
        <ExtentRef id="4648" />
        <ExtentRef id="4649" />
        <ExtentRef id="4650" />
        <ExtentRef id="4651" />
        <ExtentRef id="4652" />
        <ExtentRef id="4653" />
        <ExtentRef id="4654" />
        <ExtentRef id="4655" />
        <ExtentRef id="4656" />
        <ExtentRef id="4657" />
        <ExtentRef id="4658" />
        <ExtentRef id="4659" />
        <ExtentRef id="4660" />
        <ExtentRef id="4661" />
        <ExtentRef id="4662" />
        <ExtentRef id="4663" />
        <ExtentRef id="4664" />
        <ExtentRef id="4665" />
        <ExtentRef id="4666" />
        <ExtentRef id="4667" />
        <ExtentRef id="4668" />
        <ExtentRef id="4669" />
        <ExtentRef id="4670" />
        <ExtentRef id="4671" />
        <ExtentRef id="4672" />
        <ExtentRef id="4673" />
        <ExtentRef id="4674" />
        <ExtentRef id="4675" />
        <ExtentRef id="4676" />
        <ExtentRef id="4677" />
        <ExtentRef id="4678" />
        <ExtentRef id="4679" />
        <ExtentRef id="4680" />
        <ExtentRef id="4681" />
        <ExtentRef id="4682" />
        <ExtentRef id="4683" />
        <ExtentRef id="4684" />
        <ExtentRef id="4685" />
        <ExtentRef id="4686" />
        <ExtentRef id="4687" />
        <ExtentRef id="4688" />
        <ExtentRef id="4689" />
        <ExtentRef id="4690" />
        <ExtentRef id="4691" />
        <ExtentRef id="4692" />
        <ExtentRef id="4693" />
        <ExtentRef id="4694" />
        <ExtentRef id="4695" />
        <ExtentRef id="4696" />
        <ExtentRef id="4697" />
        <ExtentRef id="4698" />
        <ExtentRef id="4699" />
        <ExtentRef id="4700" />
        <ExtentRef id="4701" />
        <ExtentRef id="4702" />
        <ExtentRef id="4703" />
        <ExtentRef id="4704" />
        <ExtentRef id="4705" />
        <ExtentRef id="4706" />
        <ExtentRef id="4707" />
        <ExtentRef id="4708" />
        <ExtentRef id="4709" />
        <ExtentRef id="4710" />
        <ExtentRef id="4711" />
        <ExtentRef id="4712" />
        <ExtentRef id="4713" />
        <ExtentRef id="4714" />
        <ExtentRef id="4715" />
        <ExtentRef id="4716" />
        <ExtentRef id="4717" />
        <ExtentRef id="4718" />
        <ExtentRef id="4719" />
        <ExtentRef id="4720" />
        <ExtentRef id="4721" />
        <ExtentRef id="4722" />
        <ExtentRef id="4723" />
        <ExtentRef id="4724" />
        <ExtentRef id="4725" />
        <ExtentRef id="4726" />
        <ExtentRef id="4727" />
        <ExtentRef id="4728" />
        <ExtentRef id="4729" />
        <ExtentRef id="4730" />
        <ExtentRef id="4731" />
        <ExtentRef id="4732" />
        <ExtentRef id="4733" />
        <ExtentRef id="4734" />
        <ExtentRef id="4735" />
        <ExtentRef id="4736" />
        <ExtentRef id="4737" />
        <ExtentRef id="4738" />
        <ExtentRef id="4739" />
        <ExtentRef id="4740" />
        <ExtentRef id="4741" />
        <ExtentRef id="4742" />
        <ExtentRef id="4743" />
        <ExtentRef id="4744" />
        <ExtentRef id="4745" />
        <ExtentRef id="4746" />
        <ExtentRef id="4747" />
        <ExtentRef id="4748" />
        <ExtentRef id="4749" />
        <ExtentRef id="4750" />
        <ExtentRef id="4751" />
        <ExtentRef id="4752" />
        <ExtentRef id="4753" />
        <ExtentRef id="4754" />
        <ExtentRef id="4755" />
        <ExtentRef id="4756" />
        <ExtentRef id="4757" />
        <ExtentRef id="4758" />
        <ExtentRef id="4759" />
        <ExtentRef id="4760" />
        <ExtentRef id="4761" />
        <ExtentRef id="4762" />
        <ExtentRef id="4763" />
        <ExtentRef id="4764" />
        <ExtentRef id="4765" />
        <ExtentRef id="4766" />
        <ExtentRef id="4767" />
        <ExtentRef id="4768" />
        <ExtentRef id="4769" />
        <ExtentRef id="4770" />
        <ExtentRef id="4771" />
        <ExtentRef id="4772" />
        <ExtentRef id="4773" />
        <ExtentRef id="4774" />
        <ExtentRef id="4775" />
        <ExtentRef id="4776" />
        <ExtentRef id="4777" />
        <ExtentRef id="4778" />
        <ExtentRef id="4779" />
        <ExtentRef id="4780" />
        <ExtentRef id="4781" />
        <ExtentRef id="4782" />
        <ExtentRef id="4783" />
        <ExtentRef id="4784" />
        <ExtentRef id="4785" />
        <ExtentRef id="4786" />
        <ExtentRef id="4787" />
        <ExtentRef id="4788" />
        <ExtentRef id="4789" />
        <ExtentRef id="4790" />
        <ExtentRef id="4791" />
        <ExtentRef id="4792" />
        <ExtentRef id="4793" />
        <ExtentRef id="4794" />
        <ExtentRef id="4795" />
        <ExtentRef id="4796" />
        <ExtentRef id="4797" />
        <ExtentRef id="4798" />
        <ExtentRef id="4799" />
        <ExtentRef id="4800" />
        <ExtentRef id="4801" />
        <ExtentRef id="4802" />
        <ExtentRef id="4803" />
        <ExtentRef id="4804" />
        <ExtentRef id="4805" />
        <ExtentRef id="4806" />
        <ExtentRef id="4807" />
        <ExtentRef id="4808" />
        <ExtentRef id="4809" />
        <ExtentRef id="4810" />
        <ExtentRef id="4811" />
        <ExtentRef id="4812" />
        <ExtentRef id="4813" />
        <ExtentRef id="4814" />
        <ExtentRef id="4815" />
        <ExtentRef id="4816" />
        <ExtentRef id="4817" />
        <ExtentRef id="4818" />
        <ExtentRef id="4819" />
        <ExtentRef id="4820" />
        <ExtentRef id="4821" />
        <ExtentRef id="4822" />
        <ExtentRef id="4823" />
        <ExtentRef id="4824" />
        <ExtentRef id="4825" />
        <ExtentRef id="4826" />
        <ExtentRef id="4827" />
        <ExtentRef id="4828" />
        <ExtentRef id="4829" />
        <ExtentRef id="4830" />
        <ExtentRef id="4831" />
        <ExtentRef id="4832" />
        <ExtentRef id="4833" />
        <ExtentRef id="4834" />
        <ExtentRef id="4835" />
        <ExtentRef id="4836" />
        <ExtentRef id="4837" />
        <ExtentRef id="4838" />
        <ExtentRef id="4839" />
        <ExtentRef id="4840" />
        <ExtentRef id="4841" />
        <ExtentRef id="4842" />
        <ExtentRef id="4843" />
        <ExtentRef id="4844" />
        <ExtentRef id="4845" />
        <ExtentRef id="4846" />
        <ExtentRef id="4847" />
        <ExtentRef id="4848" />
        <ExtentRef id="4849" />
        <ExtentRef id="4850" />
        <ExtentRef id="4851" />
        <ExtentRef id="4852" />
        <ExtentRef id="4853" />
        <ExtentRef id="4854" />
        <ExtentRef id="4855" />
        <ExtentRef id="4856" />
        <ExtentRef id="4857" />
        <ExtentRef id="4858" />
        <ExtentRef id="4859" />
        <ExtentRef id="4860" />
        <ExtentRef id="4861" />
        <ExtentRef id="4862" />
        <ExtentRef id="4863" />
        <ExtentRef id="4864" />
        <ExtentRef id="4865" />
        <ExtentRef id="4866" />
        <ExtentRef id="4867" />
        <ExtentRef id="4868" />
        <ExtentRef id="4869" />
        <ExtentRef id="4870" />
        <ExtentRef id="4871" />
        <ExtentRef id="4872" />
        <ExtentRef id="4873" />
        <ExtentRef id="4874" />
        <ExtentRef id="4875" />
        <ExtentRef id="4876" />
        <ExtentRef id="4877" />
        <ExtentRef id="4878" />
        <ExtentRef id="4879" />
        <ExtentRef id="4880" />
        <ExtentRef id="4881" />
        <ExtentRef id="4882" />
        <ExtentRef id="4883" />
        <ExtentRef id="4884" />
        <ExtentRef id="4885" />
        <ExtentRef id="4886" />
        <ExtentRef id="4887" />
        <ExtentRef id="4888" />
        <ExtentRef id="4889" />
        <ExtentRef id="4890" />
        <ExtentRef id="4891" />
        <ExtentRef id="4892" />
        <ExtentRef id="4893" />
        <ExtentRef id="4894" />
        <ExtentRef id="4895" />
        <ExtentRef id="4896" />
        <ExtentRef id="4897" />
        <ExtentRef id="4898" />
        <ExtentRef id="4899" />
        <ExtentRef id="4900" />
        <ExtentRef id="4901" />
        <ExtentRef id="4902" />
        <ExtentRef id="4903" />
        <ExtentRef id="4904" />
        <ExtentRef id="4905" />
        <ExtentRef id="4906" />
        <ExtentRef id="4907" />
        <ExtentRef id="4908" />
        <ExtentRef id="4909" />
        <ExtentRef id="4910" />
        <ExtentRef id="4911" />
        <ExtentRef id="4912" />
        <ExtentRef id="4913" />
        <ExtentRef id="4914" />
        <ExtentRef id="4915" />
        <ExtentRef id="4916" />
        <ExtentRef id="4917" />
        <ExtentRef id="4918" />
        <ExtentRef id="4919" />
        <ExtentRef id="4920" />
        <ExtentRef id="4921" />
        <ExtentRef id="4922" />
        <ExtentRef id="4923" />
        <ExtentRef id="4924" />
        <ExtentRef id="4925" />
        <ExtentRef id="4926" />
        <ExtentRef id="4927" />
        <ExtentRef id="4928" />
        <ExtentRef id="4929" />
        <ExtentRef id="4930" />
        <ExtentRef id="4931" />
        <ExtentRef id="4932" />
        <ExtentRef id="4933" />
        <ExtentRef id="4934" />
        <ExtentRef id="4935" />
        <ExtentRef id="4936" />
        <ExtentRef id="4937" />
        <ExtentRef id="4938" />
        <ExtentRef id="4939" />
        <ExtentRef id="4940" />
        <ExtentRef id="4941" />
        <ExtentRef id="4942" />
        <ExtentRef id="4943" />
        <ExtentRef id="4944" />
        <ExtentRef id="4945" />
        <ExtentRef id="4946" />
        <ExtentRef id="4947" />
        <ExtentRef id="4948" />
        <ExtentRef id="4949" />
        <ExtentRef id="4950" />
        <ExtentRef id="4951" />
        <ExtentRef id="4952" />
        <ExtentRef id="4953" />
        <ExtentRef id="4954" />
        <ExtentRef id="4955" />
        <ExtentRef id="4956" />
        <ExtentRef id="4957" />
        <ExtentRef id="4958" />
        <ExtentRef id="4959" />
        <ExtentRef id="4960" />
        <ExtentRef id="4961" />
        <ExtentRef id="4962" />
        <ExtentRef id="4963" />
        <ExtentRef id="4964" />
        <ExtentRef id="4965" />
        <ExtentRef id="4966" />
        <ExtentRef id="4967" />
        <ExtentRef id="4968" />
        <ExtentRef id="4969" />
        <ExtentRef id="4970" />
        <ExtentRef id="4971" />
        <ExtentRef id="4972" />
        <ExtentRef id="4973" />
        <ExtentRef id="4974" />
        <ExtentRef id="4975" />
        <ExtentRef id="4976" />
        <ExtentRef id="4977" />
        <ExtentRef id="4978" />
        <ExtentRef id="4979" />
        <ExtentRef id="4980" />
        <ExtentRef id="4981" />
        <ExtentRef id="4982" />
        <ExtentRef id="4983" />
        <ExtentRef id="4984" />
        <ExtentRef id="4985" />
        <ExtentRef id="4986" />
        <ExtentRef id="4987" />
        <ExtentRef id="4988" />
        <ExtentRef id="4989" />
        <ExtentRef id="4990" />
        <ExtentRef id="4991" />
        <ExtentRef id="4992" />
        <ExtentRef id="4993" />
        <ExtentRef id="4994" />
        <ExtentRef id="4995" />
        <ExtentRef id="4996" />
        <ExtentRef id="4997" />
        <ExtentRef id="4998" />
        <ExtentRef id="4999" />
        <ExtentRef id="5000" />
        <ExtentRef id="5001" />
        <ExtentRef id="5002" />
        <ExtentRef id="5003" />
        <ExtentRef id="5004" />
        <ExtentRef id="5005" />
        <ExtentRef id="5006" />
        <ExtentRef id="5007" />
        <ExtentRef id="5008" />
        <ExtentRef id="5009" />
        <ExtentRef id="5010" />
        <ExtentRef id="5011" />
        <ExtentRef id="5012" />
        <ExtentRef id="5013" />
        <ExtentRef id="5014" />
        <ExtentRef id="5015" />
        <ExtentRef id="5016" />
        <ExtentRef id="5017" />
        <ExtentRef id="5018" />
        <ExtentRef id="5019" />
        <ExtentRef id="5020" />
        <ExtentRef id="5021" />
        <ExtentRef id="5022" />
        <ExtentRef id="5023" />
        <ExtentRef id="5024" />
        <ExtentRef id="5025" />
        <ExtentRef id="5026" />
        <ExtentRef id="5027" />
        <ExtentRef id="5028" />
        <ExtentRef id="5029" />
        <ExtentRef id="5030" />
        <ExtentRef id="5031" />
        <ExtentRef id="5032" />
        <ExtentRef id="5033" />
        <ExtentRef id="5034" />
        <ExtentRef id="5035" />
        <ExtentRef id="5036" />
        <ExtentRef id="5037" />
        <ExtentRef id="5038" />
        <ExtentRef id="5039" />
        <ExtentRef id="5040" />
        <ExtentRef id="5041" />
        <ExtentRef id="5042" />
        <ExtentRef id="5043" />
        <ExtentRef id="5044" />
        <ExtentRef id="5045" />
        <ExtentRef id="5046" />
        <ExtentRef id="5047" />
        <ExtentRef id="5048" />
        <ExtentRef id="5049" />
        <ExtentRef id="5050" />
        <ExtentRef id="5051" />
        <ExtentRef id="5052" />
        <ExtentRef id="5053" />
        <ExtentRef id="5054" />
        <ExtentRef id="5055" />
        <ExtentRef id="5056" />
        <ExtentRef id="5057" />
        <ExtentRef id="5058" />
        <ExtentRef id="5059" />
        <ExtentRef id="5060" />
        <ExtentRef id="5061" />
        <ExtentRef id="5062" />
        <ExtentRef id="5063" />
        <ExtentRef id="5064" />
        <ExtentRef id="5065" />
        <ExtentRef id="5066" />
        <ExtentRef id="5067" />
        <ExtentRef id="5068" />
        <ExtentRef id="5069" />
        <ExtentRef id="5070" />
        <ExtentRef id="5071" />
        <ExtentRef id="5072" />
        <ExtentRef id="5073" />
        <ExtentRef id="5074" />
        <ExtentRef id="5075" />
        <ExtentRef id="5076" />
        <ExtentRef id="5077" />
        <ExtentRef id="5078" />
        <ExtentRef id="5079" />
        <ExtentRef id="5080" />
        <ExtentRef id="5081" />
        <ExtentRef id="5082" />
        <ExtentRef id="5083" />
        <ExtentRef id="5084" />
        <ExtentRef id="5085" />
        <ExtentRef id="5086" />
        <ExtentRef id="5087" />
        <ExtentRef id="5088" />
        <ExtentRef id="5089" />
        <ExtentRef id="5090" />
        <ExtentRef id="5091" />
        <ExtentRef id="5092" />
        <ExtentRef id="5093" />
        <ExtentRef id="5094" />
        <ExtentRef id="5095" />
        <ExtentRef id="5096" />
        <ExtentRef id="5097" />
        <ExtentRef id="5098" />
        <ExtentRef id="5099" />
        <ExtentRef id="5100" />
        <ExtentRef id="5101" />
        <ExtentRef id="5102" />
        <ExtentRef id="5103" />
        <ExtentRef id="5104" />
        <ExtentRef id="5105" />
        <ExtentRef id="5106" />
        <ExtentRef id="5107" />
        <ExtentRef id="5108" />
        <ExtentRef id="5109" />
        <ExtentRef id="5110" />
        <ExtentRef id="5111" />
        <ExtentRef id="5112" />
        <ExtentRef id="5113" />
        <ExtentRef id="5114" />
        <ExtentRef id="5115" />
        <ExtentRef id="5116" />
        <ExtentRef id="5117" />
        <ExtentRef id="5118" />
        <ExtentRef id="5119" />
        <ExtentRef id="5120" />
        <ExtentRef id="5121" />
        <ExtentRef id="5122" />
        <ExtentRef id="5123" />
        <ExtentRef id="5124" />
        <ExtentRef id="5125" />
        <ExtentRef id="5126" />
        <ExtentRef id="5127" />
        <ExtentRef id="5128" />
        <ExtentRef id="5129" />
        <ExtentRef id="5130" />
        <ExtentRef id="5131" />
        <ExtentRef id="5132" />
        <ExtentRef id="5133" />
        <ExtentRef id="5134" />
        <ExtentRef id="5135" />
        <ExtentRef id="5136" />
        <ExtentRef id="5137" />
        <ExtentRef id="5138" />
        <ExtentRef id="5139" />
        <ExtentRef id="5140" />
        <ExtentRef id="5141" />
        <ExtentRef id="5142" />
        <ExtentRef id="5143" />
        <ExtentRef id="5144" />
        <ExtentRef id="5145" />
        <ExtentRef id="5146" />
        <ExtentRef id="5147" />
        <ExtentRef id="5148" />
        <ExtentRef id="5149" />
        <ExtentRef id="5150" />
        <ExtentRef id="5151" />
        <ExtentRef id="5152" />
        <ExtentRef id="5153" />
        <ExtentRef id="5154" />
        <ExtentRef id="5155" />
        <ExtentRef id="5156" />
        <ExtentRef id="5157" />
        <ExtentRef id="5158" />
        <ExtentRef id="5159" />
        <ExtentRef id="5160" />
        <ExtentRef id="5161" />
        <ExtentRef id="5162" />
        <ExtentRef id="5163" />
        <ExtentRef id="5164" />
        <ExtentRef id="5165" />
        <ExtentRef id="5166" />
        <ExtentRef id="5167" />
        <ExtentRef id="5168" />
        <ExtentRef id="5169" />
        <ExtentRef id="5170" />
        <ExtentRef id="5171" />
        <ExtentRef id="5172" />
        <ExtentRef id="5173" />
        <ExtentRef id="5174" />
        <ExtentRef id="5175" />
        <ExtentRef id="5176" />
        <ExtentRef id="5177" />
        <ExtentRef id="5178" />
        <ExtentRef id="5179" />
        <ExtentRef id="5180" />
        <ExtentRef id="5181" />
        <ExtentRef id="5182" />
        <ExtentRef id="5183" />
        <ExtentRef id="5184" />
        <ExtentRef id="5185" />
        <ExtentRef id="5186" />
        <ExtentRef id="5187" />
        <ExtentRef id="5188" />
        <ExtentRef id="5189" />
        <ExtentRef id="5190" />
        <ExtentRef id="5191" />
        <ExtentRef id="5192" />
        <ExtentRef id="5193" />
        <ExtentRef id="5194" />
        <ExtentRef id="5195" />
        <ExtentRef id="5196" />
        <ExtentRef id="5197" />
        <ExtentRef id="5198" />
        <ExtentRef id="5199" />
        <ExtentRef id="5200" />
        <ExtentRef id="5201" />
        <ExtentRef id="5202" />
        <ExtentRef id="5203" />
        <ExtentRef id="5204" />
        <ExtentRef id="5205" />
        <ExtentRef id="5206" />
        <ExtentRef id="5207" />
        <ExtentRef id="5208" />
        <ExtentRef id="5209" />
        <ExtentRef id="5210" />
        <ExtentRef id="5211" />
        <ExtentRef id="5212" />
        <ExtentRef id="5213" />
        <ExtentRef id="5214" />
        <ExtentRef id="5215" />
        <ExtentRef id="5216" />
        <ExtentRef id="5217" />
        <ExtentRef id="5218" />
        <ExtentRef id="5219" />
        <ExtentRef id="5220" />
        <ExtentRef id="5221" />
        <ExtentRef id="5222" />
        <ExtentRef id="5223" />
        <ExtentRef id="5224" />
        <ExtentRef id="5225" />
        <ExtentRef id="5226" />
        <ExtentRef id="5227" />
        <ExtentRef id="5228" />
        <ExtentRef id="5229" />
        <ExtentRef id="5230" />
        <ExtentRef id="5231" />
        <ExtentRef id="5232" />
        <ExtentRef id="5233" />
        <ExtentRef id="5234" />
        <ExtentRef id="5235" />
        <ExtentRef id="5236" />
        <ExtentRef id="5237" />
        <ExtentRef id="5238" />
        <ExtentRef id="5239" />
        <ExtentRef id="5240" />
        <ExtentRef id="5241" />
        <ExtentRef id="5242" />
        <ExtentRef id="5243" />
        <ExtentRef id="5244" />
        <ExtentRef id="5245" />
        <ExtentRef id="5246" />
        <ExtentRef id="5247" />
        <ExtentRef id="5248" />
        <ExtentRef id="5249" />
        <ExtentRef id="5250" />
        <ExtentRef id="5251" />
        <ExtentRef id="5252" />
        <ExtentRef id="5253" />
        <ExtentRef id="5254" />
        <ExtentRef id="5255" />
        <ExtentRef id="5256" />
        <ExtentRef id="5257" />
        <ExtentRef id="5258" />
        <ExtentRef id="5259" />
        <ExtentRef id="5260" />
        <ExtentRef id="5261" />
        <ExtentRef id="5262" />
        <ExtentRef id="5263" />
        <ExtentRef id="5264" />
        <ExtentRef id="5265" />
        <ExtentRef id="5266" />
        <ExtentRef id="5267" />
        <ExtentRef id="5268" />
        <ExtentRef id="5269" />
        <ExtentRef id="5270" />
        <ExtentRef id="5271" />
        <ExtentRef id="5272" />
        <ExtentRef id="5273" />
        <ExtentRef id="5274" />
        <ExtentRef id="5275" />
        <ExtentRef id="5276" />
        <ExtentRef id="5277" />
        <ExtentRef id="5278" />
        <ExtentRef id="5279" />
        <ExtentRef id="5280" />
        <ExtentRef id="5281" />
        <ExtentRef id="5282" />
        <ExtentRef id="5283" />
        <ExtentRef id="5284" />
        <ExtentRef id="5285" />
        <ExtentRef id="5286" />
        <ExtentRef id="5287" />
        <ExtentRef id="5288" />
        <ExtentRef id="5289" />
        <ExtentRef id="5290" />
        <ExtentRef id="5291" />
        <ExtentRef id="5292" />
        <ExtentRef id="5293" />
        <ExtentRef id="5294" />
        <ExtentRef id="5295" />
        <ExtentRef id="5296" />
        <ExtentRef id="5297" />
        <ExtentRef id="5298" />
        <ExtentRef id="5299" />
        <ExtentRef id="5300" />
        <ExtentRef id="5301" />
        <ExtentRef id="5302" />
        <ExtentRef id="5303" />
        <ExtentRef id="5304" />
        <ExtentRef id="5305" />
        <ExtentRef id="5306" />
        <ExtentRef id="5307" />
        <ExtentRef id="5308" />
        <ExtentRef id="5309" />
        <ExtentRef id="5310" />
        <ExtentRef id="5311" />
        <ExtentRef id="5312" />
        <ExtentRef id="5313" />
        <ExtentRef id="5314" />
        <ExtentRef id="5315" />
        <ExtentRef id="5316" />
        <ExtentRef id="5317" />
        <ExtentRef id="5318" />
        <ExtentRef id="5319" />
        <ExtentRef id="5320" />
        <ExtentRef id="5321" />
        <ExtentRef id="5322" />
        <ExtentRef id="5323" />
        <ExtentRef id="5324" />
        <ExtentRef id="5325" />
        <ExtentRef id="5326" />
        <ExtentRef id="5327" />
        <ExtentRef id="5328" />
        <ExtentRef id="5329" />
        <ExtentRef id="5330" />
        <ExtentRef id="5331" />
        <ExtentRef id="5332" />
        <ExtentRef id="5333" />
        <ExtentRef id="5334" />
        <ExtentRef id="5335" />
        <ExtentRef id="5336" />
        <ExtentRef id="5337" />
        <ExtentRef id="5338" />
        <ExtentRef id="5339" />
        <ExtentRef id="5340" />
        <ExtentRef id="5341" />
        <ExtentRef id="5342" />
        <ExtentRef id="5343" />
        <ExtentRef id="5344" />
        <ExtentRef id="5345" />
        <ExtentRef id="5346" />
        <ExtentRef id="5347" />
        <ExtentRef id="5348" />
        <ExtentRef id="5349" />
        <ExtentRef id="5350" />
        <ExtentRef id="5351" />
        <ExtentRef id="5352" />
        <ExtentRef id="5353" />
        <ExtentRef id="5354" />
        <ExtentRef id="5355" />
        <ExtentRef id="5356" />
        <ExtentRef id="5357" />
        <ExtentRef id="5358" />
        <ExtentRef id="5359" />
        <ExtentRef id="5360" />
        <ExtentRef id="5361" />
        <ExtentRef id="5362" />
        <ExtentRef id="5363" />
        <ExtentRef id="5364" />
        <ExtentRef id="5365" />
        <ExtentRef id="5366" />
        <ExtentRef id="5367" />
        <ExtentRef id="5368" />
        <ExtentRef id="5369" />
        <ExtentRef id="5370" />
        <ExtentRef id="5371" />
        <ExtentRef id="5372" />
        <ExtentRef id="5373" />
        <ExtentRef id="5374" />
        <ExtentRef id="5375" />
        <ExtentRef id="5376" />
        <ExtentRef id="5377" />
        <ExtentRef id="5378" />
        <ExtentRef id="5379" />
        <ExtentRef id="5380" />
        <ExtentRef id="5381" />
        <ExtentRef id="5382" />
        <ExtentRef id="5383" />
        <ExtentRef id="5384" />
        <ExtentRef id="5385" />
        <ExtentRef id="5386" />
        <ExtentRef id="5387" />
        <ExtentRef id="5388" />
        <ExtentRef id="5389" />
        <ExtentRef id="5390" />
        <ExtentRef id="5391" />
        <ExtentRef id="5392" />
        <ExtentRef id="5393" />
        <ExtentRef id="5394" />
        <ExtentRef id="5395" />
        <ExtentRef id="5396" />
        <ExtentRef id="5397" />
        <ExtentRef id="5398" />
        <ExtentRef id="5399" />
        <ExtentRef id="5400" />
        <ExtentRef id="5401" />
        <ExtentRef id="5402" />
        <ExtentRef id="5403" />
        <ExtentRef id="5404" />
        <ExtentRef id="5405" />
        <ExtentRef id="5406" />
        <ExtentRef id="5407" />
        <ExtentRef id="5408" />
        <ExtentRef id="5409" />
        <ExtentRef id="5410" />
        <ExtentRef id="5411" />
        <ExtentRef id="5412" />
        <ExtentRef id="5413" />
        <ExtentRef id="5414" />
        <ExtentRef id="5415" />
        <ExtentRef id="5416" />
        <ExtentRef id="5417" />
        <ExtentRef id="5418" />
        <ExtentRef id="5419" />
        <ExtentRef id="5420" />
        <ExtentRef id="5421" />
        <ExtentRef id="5422" />
        <ExtentRef id="5423" />
        <ExtentRef id="5424" />
        <ExtentRef id="5425" />
        <ExtentRef id="5426" />
        <ExtentRef id="5427" />
        <ExtentRef id="5428" />
        <ExtentRef id="5429" />
        <ExtentRef id="5430" />
        <ExtentRef id="5431" />
        <ExtentRef id="5432" />
        <ExtentRef id="5433" />
        <ExtentRef id="5434" />
        <ExtentRef id="5435" />
        <ExtentRef id="5436" />
        <ExtentRef id="5437" />
        <ExtentRef id="5438" />
        <ExtentRef id="5439" />
        <ExtentRef id="5440" />
        <ExtentRef id="5441" />
        <ExtentRef id="5442" />
        <ExtentRef id="5443" />
        <ExtentRef id="5444" />
        <ExtentRef id="5445" />
        <ExtentRef id="5446" />
        <ExtentRef id="5447" />
        <ExtentRef id="5448" />
        <ExtentRef id="5449" />
        <ExtentRef id="5450" />
        <ExtentRef id="5451" />
        <ExtentRef id="5452" />
        <ExtentRef id="5453" />
        <ExtentRef id="5454" />
        <ExtentRef id="5455" />
        <ExtentRef id="5456" />
        <ExtentRef id="5457" />
        <ExtentRef id="5458" />
        <ExtentRef id="5459" />
        <ExtentRef id="5460" />
        <ExtentRef id="5461" />
        <ExtentRef id="5462" />
        <ExtentRef id="5463" />
        <ExtentRef id="5464" />
        <ExtentRef id="5465" />
        <ExtentRef id="5466" />
        <ExtentRef id="5467" />
        <ExtentRef id="5468" />
        <ExtentRef id="5469" />
        <ExtentRef id="5470" />
        <ExtentRef id="5471" />
        <ExtentRef id="5472" />
        <ExtentRef id="5473" />
        <ExtentRef id="5474" />
        <ExtentRef id="5475" />
        <ExtentRef id="5476" />
        <ExtentRef id="5477" />
        <ExtentRef id="5478" />
        <ExtentRef id="5479" />
        <ExtentRef id="5480" />
        <ExtentRef id="5481" />
        <ExtentRef id="5482" />
        <ExtentRef id="5483" />
        <ExtentRef id="5484" />
        <ExtentRef id="5485" />
        <ExtentRef id="5486" />
        <ExtentRef id="5487" />
        <ExtentRef id="5488" />
        <ExtentRef id="5489" />
        <ExtentRef id="5490" />
        <ExtentRef id="5491" />
        <ExtentRef id="5492" />
        <ExtentRef id="5493" />
        <ExtentRef id="5494" />
        <ExtentRef id="5495" />
        <ExtentRef id="5496" />
        <ExtentRef id="5497" />
        <ExtentRef id="5498" />
        <ExtentRef id="5499" />
        <ExtentRef id="5500" />
        <ExtentRef id="5501" />
        <ExtentRef id="5502" />
        <ExtentRef id="5503" />
        <ExtentRef id="5504" />
        <ExtentRef id="5505" />
        <ExtentRef id="5506" />
        <ExtentRef id="5507" />
        <ExtentRef id="5508" />
        <ExtentRef id="5509" />
        <ExtentRef id="5510" />
        <ExtentRef id="5511" />
        <ExtentRef id="5512" />
        <ExtentRef id="5513" />
        <ExtentRef id="5514" />
        <ExtentRef id="5515" />
        <ExtentRef id="5516" />
        <ExtentRef id="5517" />
        <ExtentRef id="5518" />
        <ExtentRef id="5519" />
        <ExtentRef id="5520" />
        <ExtentRef id="5521" />
        <ExtentRef id="5522" />
        <ExtentRef id="5523" />
        <ExtentRef id="5524" />
        <ExtentRef id="5525" />
        <ExtentRef id="5526" />
        <ExtentRef id="5527" />
        <ExtentRef id="5528" />
        <ExtentRef id="5529" />
        <ExtentRef id="5530" />
        <ExtentRef id="5531" />
        <ExtentRef id="5532" />
        <ExtentRef id="5533" />
        <ExtentRef id="5534" />
        <ExtentRef id="5535" />
        <ExtentRef id="5536" />
        <ExtentRef id="5537" />
        <ExtentRef id="5538" />
        <ExtentRef id="5539" />
        <ExtentRef id="5540" />
        <ExtentRef id="5541" />
        <ExtentRef id="5542" />
        <ExtentRef id="5543" />
        <ExtentRef id="5544" />
        <ExtentRef id="5545" />
        <ExtentRef id="5546" />
        <ExtentRef id="5547" />
        <ExtentRef id="5548" />
        <ExtentRef id="5549" />
        <ExtentRef id="5550" />
        <ExtentRef id="5551" />
        <ExtentRef id="5552" />
        <ExtentRef id="5553" />
        <ExtentRef id="5554" />
        <ExtentRef id="5555" />
        <ExtentRef id="5556" />
        <ExtentRef id="5557" />
        <ExtentRef id="5558" />
        <ExtentRef id="5559" />
        <ExtentRef id="5560" />
        <ExtentRef id="5561" />
        <ExtentRef id="5562" />
        <ExtentRef id="5563" />
        <ExtentRef id="5564" />
        <ExtentRef id="5565" />
        <ExtentRef id="5566" />
        <ExtentRef id="5567" />
        <ExtentRef id="5568" />
        <ExtentRef id="5569" />
        <ExtentRef id="5570" />
        <ExtentRef id="5571" />
        <ExtentRef id="5572" />
        <ExtentRef id="5573" />
        <ExtentRef id="5574" />
        <ExtentRef id="5575" />
        <ExtentRef id="5576" />
        <ExtentRef id="5577" />
        <ExtentRef id="5578" />
        <ExtentRef id="5579" />
        <ExtentRef id="5580" />
        <ExtentRef id="5581" />
        <ExtentRef id="5582" />
        <ExtentRef id="5583" />
        <ExtentRef id="5584" />
        <ExtentRef id="5585" />
        <ExtentRef id="5586" />
        <ExtentRef id="5587" />
        <ExtentRef id="5588" />
        <ExtentRef id="5589" />
        <ExtentRef id="5590" />
        <ExtentRef id="5591" />
        <ExtentRef id="5592" />
        <ExtentRef id="5593" />
        <ExtentRef id="5594" />
        <ExtentRef id="5595" />
        <ExtentRef id="5596" />
        <ExtentRef id="5597" />
        <ExtentRef id="5598" />
        <ExtentRef id="5599" />
        <ExtentRef id="5600" />
        <ExtentRef id="5601" />
        <ExtentRef id="5602" />
        <ExtentRef id="5603" />
        <ExtentRef id="5604" />
        <ExtentRef id="5605" />
        <ExtentRef id="5606" />
        <ExtentRef id="5607" />
        <ExtentRef id="5608" />
        <ExtentRef id="5609" />
        <ExtentRef id="5610" />
        <ExtentRef id="5611" />
        <ExtentRef id="5612" />
        <ExtentRef id="5613" />
        <ExtentRef id="5614" />
        <ExtentRef id="5615" />
        <ExtentRef id="5616" />
        <ExtentRef id="5617" />
        <ExtentRef id="5618" />
        <ExtentRef id="5619" />
        <ExtentRef id="5620" />
        <ExtentRef id="5621" />
        <ExtentRef id="5622" />
        <ExtentRef id="5623" />
        <ExtentRef id="5624" />
        <ExtentRef id="5625" />
        <ExtentRef id="5626" />
        <ExtentRef id="5627" />
        <ExtentRef id="5628" />
        <ExtentRef id="5629" />
        <ExtentRef id="5630" />
        <ExtentRef id="5631" />
        <ExtentRef id="5632" />
        <ExtentRef id="5633" />
        <ExtentRef id="5634" />
        <ExtentRef id="5635" />
        <ExtentRef id="5636" />
        <ExtentRef id="5637" />
        <ExtentRef id="5638" />
        <ExtentRef id="5639" />
        <ExtentRef id="5640" />
        <ExtentRef id="5641" />
        <ExtentRef id="5642" />
        <ExtentRef id="5643" />
        <ExtentRef id="5644" />
        <ExtentRef id="5645" />
        <ExtentRef id="5646" />
        <ExtentRef id="5647" />
        <ExtentRef id="5648" />
        <ExtentRef id="5649" />
        <ExtentRef id="5650" />
        <ExtentRef id="5651" />
        <ExtentRef id="5652" />
        <ExtentRef id="5653" />
        <ExtentRef id="5654" />
        <ExtentRef id="5655" />
        <ExtentRef id="5656" />
        <ExtentRef id="5657" />
        <ExtentRef id="5658" />
        <ExtentRef id="5659" />
        <ExtentRef id="5660" />
        <ExtentRef id="5661" />
        <ExtentRef id="5662" />
        <ExtentRef id="5663" />
        <ExtentRef id="5664" />
        <ExtentRef id="5665" />
        <ExtentRef id="5666" />
        <ExtentRef id="5667" />
        <ExtentRef id="5668" />
        <ExtentRef id="5669" />
        <ExtentRef id="5670" />
        <ExtentRef id="5671" />
        <ExtentRef id="5672" />
        <ExtentRef id="5673" />
        <ExtentRef id="5674" />
        <ExtentRef id="5675" />
        <ExtentRef id="5676" />
        <ExtentRef id="5677" />
        <ExtentRef id="5678" />
        <ExtentRef id="5679" />
        <ExtentRef id="5680" />
        <ExtentRef id="5681" />
        <ExtentRef id="5682" />
        <ExtentRef id="5683" />
        <ExtentRef id="5684" />
        <ExtentRef id="5685" />
        <ExtentRef id="5686" />
        <ExtentRef id="5687" />
        <ExtentRef id="5688" />
        <ExtentRef id="5689" />
        <ExtentRef id="5690" />
        <ExtentRef id="5691" />
        <ExtentRef id="5692" />
        <ExtentRef id="5693" />
        <ExtentRef id="5694" />
        <ExtentRef id="5695" />
        <ExtentRef id="5696" />
        <ExtentRef id="5697" />
        <ExtentRef id="5698" />
        <ExtentRef id="5699" />
        <ExtentRef id="5700" />
        <ExtentRef id="5701" />
        <ExtentRef id="5702" />
        <ExtentRef id="5703" />
        <ExtentRef id="5704" />
        <ExtentRef id="5705" />
        <ExtentRef id="5706" />
        <ExtentRef id="5707" />
        <ExtentRef id="5708" />
        <ExtentRef id="5709" />
        <ExtentRef id="5710" />
        <ExtentRef id="5711" />
        <ExtentRef id="5712" />
        <ExtentRef id="5713" />
        <ExtentRef id="5714" />
        <ExtentRef id="5715" />
        <ExtentRef id="5716" />
        <ExtentRef id="5717" />
        <ExtentRef id="5718" />
        <ExtentRef id="5719" />
        <ExtentRef id="5720" />
        <ExtentRef id="5721" />
        <ExtentRef id="5722" />
        <ExtentRef id="5723" />
        <ExtentRef id="5724" />
        <ExtentRef id="5725" />
        <ExtentRef id="5726" />
        <ExtentRef id="5727" />
        <ExtentRef id="5728" />
        <ExtentRef id="5729" />
        <ExtentRef id="5730" />
        <ExtentRef id="5731" />
        <ExtentRef id="5732" />
        <ExtentRef id="5733" />
        <ExtentRef id="5734" />
        <ExtentRef id="5735" />
        <ExtentRef id="5736" />
        <ExtentRef id="5737" />
        <ExtentRef id="5738" />
        <ExtentRef id="5739" />
        <ExtentRef id="5740" />
        <ExtentRef id="5741" />
        <ExtentRef id="5742" />
        <ExtentRef id="5743" />
        <ExtentRef id="5744" />
        <ExtentRef id="5745" />
        <ExtentRef id="5746" />
        <ExtentRef id="5747" />
        <ExtentRef id="5748" />
        <ExtentRef id="5749" />
        <ExtentRef id="5750" />
        <ExtentRef id="5751" />
        <ExtentRef id="5752" />
        <ExtentRef id="5753" />
        <ExtentRef id="5754" />
        <ExtentRef id="5755" />
        <ExtentRef id="5756" />
        <ExtentRef id="5757" />
        <ExtentRef id="5758" />
        <ExtentRef id="5759" />
        <ExtentRef id="5760" />
        <ExtentRef id="5761" />
        <ExtentRef id="5762" />
        <ExtentRef id="5763" />
        <ExtentRef id="5764" />
        <ExtentRef id="5765" />
        <ExtentRef id="5766" />
        <ExtentRef id="5767" />
        <ExtentRef id="5768" />
        <ExtentRef id="5769" />
        <ExtentRef id="5770" />
        <ExtentRef id="5771" />
        <ExtentRef id="5772" />
        <ExtentRef id="5773" />
        <ExtentRef id="5774" />
        <ExtentRef id="5775" />
        <ExtentRef id="5776" />
        <ExtentRef id="5777" />
        <ExtentRef id="5778" />
        <ExtentRef id="5779" />
        <ExtentRef id="5780" />
        <ExtentRef id="5781" />
        <ExtentRef id="5782" />
        <ExtentRef id="5783" />
        <ExtentRef id="5784" />
        <ExtentRef id="5785" />
        <ExtentRef id="5786" />
        <ExtentRef id="5787" />
        <ExtentRef id="5788" />
        <ExtentRef id="5789" />
        <ExtentRef id="5790" />
        <ExtentRef id="5791" />
        <ExtentRef id="5792" />
        <ExtentRef id="5793" />
        <ExtentRef id="5794" />
        <ExtentRef id="5795" />
        <ExtentRef id="5796" />
        <ExtentRef id="5797" />
        <ExtentRef id="5798" />
        <ExtentRef id="5799" />
        <ExtentRef id="5800" />
        <ExtentRef id="5801" />
        <ExtentRef id="5802" />
        <ExtentRef id="5803" />
        <ExtentRef id="5804" />
        <ExtentRef id="5805" />
        <ExtentRef id="5806" />
        <ExtentRef id="5807" />
        <ExtentRef id="5808" />
        <ExtentRef id="5809" />
        <ExtentRef id="5810" />
        <ExtentRef id="5811" />
        <ExtentRef id="5812" />
        <ExtentRef id="5813" />
        <ExtentRef id="5814" />
        <ExtentRef id="5815" />
        <ExtentRef id="5816" />
        <ExtentRef id="5817" />
        <ExtentRef id="5818" />
        <ExtentRef id="5819" />
        <ExtentRef id="5820" />
        <ExtentRef id="5821" />
        <ExtentRef id="5822" />
        <ExtentRef id="5823" />
        <ExtentRef id="5824" />
        <ExtentRef id="5825" />
        <ExtentRef id="5826" />
        <ExtentRef id="5827" />
        <ExtentRef id="5828" />
        <ExtentRef id="5829" />
        <ExtentRef id="5830" />
        <ExtentRef id="5831" />
        <ExtentRef id="5832" />
        <ExtentRef id="5833" />
        <ExtentRef id="5834" />
        <ExtentRef id="5835" />
        <ExtentRef id="5836" />
        <ExtentRef id="5837" />
        <ExtentRef id="5838" />
        <ExtentRef id="5839" />
        <ExtentRef id="5840" />
        <ExtentRef id="5841" />
        <ExtentRef id="5842" />
        <ExtentRef id="5843" />
        <ExtentRef id="5844" />
        <ExtentRef id="5845" />
        <ExtentRef id="5846" />
        <ExtentRef id="5847" />
        <ExtentRef id="5848" />
        <ExtentRef id="5849" />
        <ExtentRef id="5850" />
        <ExtentRef id="5851" />
        <ExtentRef id="5852" />
        <ExtentRef id="5853" />
        <ExtentRef id="5854" />
        <ExtentRef id="5855" />
        <ExtentRef id="5856" />
        <ExtentRef id="5857" />
        <ExtentRef id="5858" />
        <ExtentRef id="5859" />
        <ExtentRef id="5860" />
        <ExtentRef id="5861" />
        <ExtentRef id="5862" />
        <ExtentRef id="5863" />
        <ExtentRef id="5864" />
        <ExtentRef id="5865" />
        <ExtentRef id="5866" />
        <ExtentRef id="5867" />
        <ExtentRef id="5868" />
        <ExtentRef id="5869" />
        <ExtentRef id="5870" />
        <ExtentRef id="5871" />
        <ExtentRef id="5872" />
        <ExtentRef id="5873" />
        <ExtentRef id="5874" />
        <ExtentRef id="5875" />
        <ExtentRef id="5876" />
        <ExtentRef id="5877" />
        <ExtentRef id="5878" />
        <ExtentRef id="5879" />
        <ExtentRef id="5880" />
        <ExtentRef id="5881" />
        <ExtentRef id="5882" />
        <ExtentRef id="5883" />
        <ExtentRef id="5884" />
        <ExtentRef id="5885" />
        <ExtentRef id="5886" />
        <ExtentRef id="5887" />
        <ExtentRef id="5888" />
        <ExtentRef id="5889" />
        <ExtentRef id="5890" />
        <ExtentRef id="5891" />
        <ExtentRef id="5892" />
        <ExtentRef id="5893" />
        <ExtentRef id="5894" />
        <ExtentRef id="5895" />
        <ExtentRef id="5896" />
        <ExtentRef id="5897" />
        <ExtentRef id="5898" />
        <ExtentRef id="5899" />
        <ExtentRef id="5900" />
        <ExtentRef id="5901" />
        <ExtentRef id="5902" />
        <ExtentRef id="5903" />
        <ExtentRef id="5904" />
        <ExtentRef id="5905" />
        <ExtentRef id="5906" />
        <ExtentRef id="5907" />
        <ExtentRef id="5908" />
        <ExtentRef id="5909" />
        <ExtentRef id="5910" />
        <ExtentRef id="5911" />
        <ExtentRef id="5912" />
        <ExtentRef id="5913" />
        <ExtentRef id="5914" />
        <ExtentRef id="5915" />
        <ExtentRef id="5916" />
        <ExtentRef id="5917" />
        <ExtentRef id="5918" />
        <ExtentRef id="5919" />
        <ExtentRef id="5920" />
        <ExtentRef id="5921" />
        <ExtentRef id="5922" />
        <ExtentRef id="5923" />
        <ExtentRef id="5924" />
        <ExtentRef id="5925" />
        <ExtentRef id="5926" />
        <ExtentRef id="5927" />
        <ExtentRef id="5928" />
        <ExtentRef id="5929" />
        <ExtentRef id="5930" />
        <ExtentRef id="5931" />
        <ExtentRef id="5932" />
        <ExtentRef id="5933" />
        <ExtentRef id="5934" />
        <ExtentRef id="5935" />
        <ExtentRef id="5936" />
        <ExtentRef id="5937" />
        <ExtentRef id="5938" />
        <ExtentRef id="5939" />
        <ExtentRef id="5940" />
        <ExtentRef id="5941" />
        <ExtentRef id="5942" />
        <ExtentRef id="5943" />
        <ExtentRef id="5944" />
        <ExtentRef id="5945" />
        <ExtentRef id="5946" />
        <ExtentRef id="5947" />
        <ExtentRef id="5948" />
        <ExtentRef id="5949" />
        <ExtentRef id="5950" />
        <ExtentRef id="5951" />
        <ExtentRef id="5952" />
        <ExtentRef id="5953" />
        <ExtentRef id="5954" />
        <ExtentRef id="5955" />
        <ExtentRef id="5956" />
        <ExtentRef id="5957" />
        <ExtentRef id="5958" />
        <ExtentRef id="5959" />
        <ExtentRef id="5960" />
        <ExtentRef id="5961" />
        <ExtentRef id="5962" />
        <ExtentRef id="5963" />
        <ExtentRef id="5964" />
        <ExtentRef id="5965" />
        <ExtentRef id="5966" />
        <ExtentRef id="5967" />
        <ExtentRef id="5968" />
        <ExtentRef id="5969" />
        <ExtentRef id="5970" />
        <ExtentRef id="5971" />
        <ExtentRef id="5972" />
        <ExtentRef id="5973" />
        <ExtentRef id="5974" />
        <ExtentRef id="5975" />
        <ExtentRef id="5976" />
        <ExtentRef id="5977" />
        <ExtentRef id="5978" />
        <ExtentRef id="5979" />
        <ExtentRef id="5980" />
        <ExtentRef id="5981" />
        <ExtentRef id="5982" />
        <ExtentRef id="5983" />
        <ExtentRef id="5984" />
        <ExtentRef id="5985" />
        <ExtentRef id="5986" />
        <ExtentRef id="5987" />
        <ExtentRef id="5988" />
        <ExtentRef id="5989" />
        <ExtentRef id="5990" />
        <ExtentRef id="5991" />
        <ExtentRef id="5992" />
        <ExtentRef id="5993" />
        <ExtentRef id="5994" />
        <ExtentRef id="5995" />
        <ExtentRef id="5996" />
        <ExtentRef id="5997" />
        <ExtentRef id="5998" />
        <ExtentRef id="5999" />
        <ExtentRef id="6000" />
        <ExtentRef id="6001" />
        <ExtentRef id="6002" />
        <ExtentRef id="6003" />
        <ExtentRef id="6004" />
      </ExtentRefs>
    </ExtentSelector>
    <ExtentSelector extentID="2" gapBefore="0" primaryTrack="false">
      <Effects />
      <Transitions />
      <BoundProperties />
      <ExtentRefs />
    </ExtentSelector>
    <ExtentSelector extentID="3" gapBefore="0" primaryTrack="false">
      <Effects />
      <Transitions />
      <BoundProperties />
      <ExtentRefs />
    </ExtentSelector>
    <ExtentSelector extentID="4" gapBefore="0" primaryTrack="false">
      <Effects />
      <Transitions />
      <BoundProperties />
      <ExtentRefs />
    </ExtentSelector>
  </Extents>
  <BoundPlaceholders>
    <BoundPlaceholder placeholderID="SingleExtentView" extentID="0" />
    <BoundPlaceholder placeholderID="Main" extentID="1" />
    <BoundPlaceholder placeholderID="SoundTrack" extentID="2" />
    <BoundPlaceholder placeholderID="Text" extentID="4" />
    <BoundPlaceholder placeholderID="Narration" extentID="3" />
  </BoundPlaceholders>
  <BoundProperties>
    <BoundPropertyFloatSet Name="AspectRatio">
      <BoundPropertyFloatElement Value="1.7777776718139648" />
    </BoundPropertyFloatSet>
    <BoundPropertyFloat Name="DuckedNarrationAndSoundTrackMix" Value="0.5" />
    <BoundPropertyFloat Name="DuckedVideoAndNarrationMix" Value="0.5" />
    <BoundPropertyFloat Name="DuckedVideoAndSoundTrackMix" Value="0.5" />
    <BoundPropertyFloat Name="SoundTrackMix" Value="0.5" />
  </BoundProperties>
  <ThemeOperationLog themeID="0">
    <MonolithicThemeOperations />
  </ThemeOperationLog>
  <AudioDuckingProperties emphasisPlaceholderID="Narration" />
</Project>